<?xml version="1.0" standalone="no"?>
<!DOCTYPE svg PUBLIC "-//W3C//DTD SVG 1.1//EN" "http://www.w3.org/Graphics/SVG/1.1/DTD/svg11.dtd">
<svg width="86mm" height="86mm" viewBox="0 -86 86 86" xmlns="http://www.w3.org/2000/svg" version="1.1">
<title>OpenSCAD Model</title>
<path d="
M 86,-86 L 0,-86 L 0,-0 L 86,-0 z
M 41.8659,-17.0247 L 40.7339,-17.0989 L 39.6063,-17.2224 L 38.4851,-17.395 L 37.3726,-17.6163 L 36.2707,-17.8859
 L 35.1816,-18.2034 L 34.1075,-18.568 L 33.0502,-18.9791 L 32.0119,-19.436 L 30.9945,-19.9377 L 30,-20.4833
 L 29.0302,-21.0718 L 28.087,-21.702 L 27.1722,-22.3728 L 26.2875,-23.0828 L 25.4346,-23.8308 L 24.6152,-24.6152
 L 23.8308,-25.4346 L 23.0828,-26.2875 L 22.3728,-27.1722 L 21.702,-28.087 L 21.0718,-29.0302 L 20.4833,-30
 L 19.9377,-30.9945 L 19.436,-32.0119 L 18.9791,-33.0502 L 18.568,-34.1075 L 18.2034,-35.1816 L 17.8859,-36.2707
 L 17.6163,-37.3726 L 17.395,-38.4851 L 17.2224,-39.6063 L 17.0989,-40.7339 L 17.0247,-41.8659 L 17,-43
 L 17.0247,-44.1341 L 17.0989,-45.266 L 17.2224,-46.3937 L 17.395,-47.5148 L 17.6163,-48.6274 L 17.8859,-49.7293
 L 18.2034,-50.8183 L 18.568,-51.8925 L 18.9791,-52.9498 L 19.436,-53.9881 L 19.9377,-55.0055 L 20.4833,-56
 L 21.0718,-56.9698 L 21.702,-57.913 L 22.3728,-58.8278 L 23.0828,-59.7125 L 23.8308,-60.5653 L 24.6152,-61.3848
 L 25.4346,-62.1692 L 26.2875,-62.9171 L 27.1722,-63.6272 L 28.087,-64.2979 L 29.0302,-64.9282 L 30,-65.5166
 L 30.9945,-66.0623 L 32.0119,-66.564 L 33.0502,-67.0209 L 34.1075,-67.432 L 35.1816,-67.7966 L 36.2707,-68.1141
 L 37.3726,-68.3837 L 38.4851,-68.605 L 39.6063,-68.7776 L 40.7339,-68.9011 L 41.8659,-68.9753 L 43,-69
 L 44.1341,-68.9753 L 45.266,-68.9011 L 46.3937,-68.7776 L 47.5148,-68.605 L 48.6274,-68.3837 L 49.7293,-68.1141
 L 50.8183,-67.7966 L 51.8925,-67.432 L 52.9498,-67.0209 L 53.9881,-66.564 L 55.0055,-66.0623 L 56,-65.5166
 L 56.9698,-64.9282 L 57.913,-64.2979 L 58.8278,-63.6272 L 59.7125,-62.9171 L 60.5653,-62.1692 L 61.3848,-61.3848
 L 62.1692,-60.5653 L 62.9171,-59.7125 L 63.6272,-58.8278 L 64.2979,-57.913 L 64.9282,-56.9698 L 65.5166,-56
 L 66.0623,-55.0055 L 66.564,-53.9881 L 67.0209,-52.9498 L 67.432,-51.8925 L 67.7966,-50.8183 L 68.1141,-49.7293
 L 68.3837,-48.6274 L 68.605,-47.5148 L 68.7776,-46.3937 L 68.9011,-45.266 L 68.9753,-44.1341 L 69,-43
 L 68.9753,-41.8659 L 68.9011,-40.7339 L 68.7776,-39.6063 L 68.605,-38.4851 L 68.3837,-37.3726 L 68.1141,-36.2707
 L 67.7966,-35.1816 L 67.432,-34.1075 L 67.0209,-33.0502 L 66.564,-32.0119 L 66.0623,-30.9945 L 65.5166,-30
 L 64.9282,-29.0302 L 64.2979,-28.087 L 63.6272,-27.1722 L 62.9171,-26.2875 L 62.1692,-25.4346 L 61.3848,-24.6152
 L 60.5653,-23.8308 L 59.7125,-23.0828 L 58.8278,-22.3728 L 57.913,-21.702 L 56.9698,-21.0718 L 56,-20.4833
 L 55.0055,-19.9377 L 53.9881,-19.436 L 52.9498,-18.9791 L 51.8925,-18.568 L 50.8183,-18.2034 L 49.7293,-17.8859
 L 48.6274,-17.6163 L 47.5148,-17.395 L 46.3937,-17.2224 L 45.266,-17.0989 L 44.1341,-17.0247 L 43,-17
 z
" stroke="black" fill="lightgray" stroke-width="0.5"/>
</svg>
