  0
SECTION
  2
BLOCKS
  0
ENDSEC
  0
SECTION
  2
ENTITIES
  0
LINE
  8
0
 10
86
 20
86
 11
0
 21
86
  0
LINE
  8
0
 10
0
 20
86
 11
0
 21
0
  0
LINE
  8
0
 10
0
 20
0
 11
86
 21
0
  0
LINE
  8
0
 10
86
 20
0
 11
86
 21
86
  0
LINE
  8
0
 10
41.8659
 20
17.0247
 11
40.7339
 21
17.0989
  0
LINE
  8
0
 10
40.7339
 20
17.0989
 11
39.6063
 21
17.2224
  0
LINE
  8
0
 10
39.6063
 20
17.2224
 11
38.4851
 21
17.395
  0
LINE
  8
0
 10
38.4851
 20
17.395
 11
37.3726
 21
17.6163
  0
LINE
  8
0
 10
37.3726
 20
17.6163
 11
36.2707
 21
17.8859
  0
LINE
  8
0
 10
36.2707
 20
17.8859
 11
35.1816
 21
18.2034
  0
LINE
  8
0
 10
35.1816
 20
18.2034
 11
34.1075
 21
18.568
  0
LINE
  8
0
 10
34.1075
 20
18.568
 11
33.0502
 21
18.9791
  0
LINE
  8
0
 10
33.0502
 20
18.9791
 11
32.0119
 21
19.436
  0
LINE
  8
0
 10
32.0119
 20
19.436
 11
30.9945
 21
19.9377
  0
LINE
  8
0
 10
30.9945
 20
19.9377
 11
30
 21
20.4833
  0
LINE
  8
0
 10
30
 20
20.4833
 11
29.0302
 21
21.0718
  0
LINE
  8
0
 10
29.0302
 20
21.0718
 11
28.087
 21
21.702
  0
LINE
  8
0
 10
28.087
 20
21.702
 11
27.1722
 21
22.3728
  0
LINE
  8
0
 10
27.1722
 20
22.3728
 11
26.2875
 21
23.0828
  0
LINE
  8
0
 10
26.2875
 20
23.0828
 11
25.4346
 21
23.8308
  0
LINE
  8
0
 10
25.4346
 20
23.8308
 11
24.6152
 21
24.6152
  0
LINE
  8
0
 10
24.6152
 20
24.6152
 11
23.8308
 21
25.4346
  0
LINE
  8
0
 10
23.8308
 20
25.4346
 11
23.0828
 21
26.2875
  0
LINE
  8
0
 10
23.0828
 20
26.2875
 11
22.3728
 21
27.1722
  0
LINE
  8
0
 10
22.3728
 20
27.1722
 11
21.702
 21
28.087
  0
LINE
  8
0
 10
21.702
 20
28.087
 11
21.0718
 21
29.0302
  0
LINE
  8
0
 10
21.0718
 20
29.0302
 11
20.4833
 21
30
  0
LINE
  8
0
 10
20.4833
 20
30
 11
19.9377
 21
30.9945
  0
LINE
  8
0
 10
19.9377
 20
30.9945
 11
19.436
 21
32.0119
  0
LINE
  8
0
 10
19.436
 20
32.0119
 11
18.9791
 21
33.0502
  0
LINE
  8
0
 10
18.9791
 20
33.0502
 11
18.568
 21
34.1075
  0
LINE
  8
0
 10
18.568
 20
34.1075
 11
18.2034
 21
35.1816
  0
LINE
  8
0
 10
18.2034
 20
35.1816
 11
17.8859
 21
36.2707
  0
LINE
  8
0
 10
17.8859
 20
36.2707
 11
17.6163
 21
37.3726
  0
LINE
  8
0
 10
17.6163
 20
37.3726
 11
17.395
 21
38.4851
  0
LINE
  8
0
 10
17.395
 20
38.4851
 11
17.2224
 21
39.6063
  0
LINE
  8
0
 10
17.2224
 20
39.6063
 11
17.0989
 21
40.7339
  0
LINE
  8
0
 10
17.0989
 20
40.7339
 11
17.0247
 21
41.8659
  0
LINE
  8
0
 10
17.0247
 20
41.8659
 11
17
 21
43
  0
LINE
  8
0
 10
17
 20
43
 11
17.0247
 21
44.1341
  0
LINE
  8
0
 10
17.0247
 20
44.1341
 11
17.0989
 21
45.266
  0
LINE
  8
0
 10
17.0989
 20
45.266
 11
17.2224
 21
46.3937
  0
LINE
  8
0
 10
17.2224
 20
46.3937
 11
17.395
 21
47.5148
  0
LINE
  8
0
 10
17.395
 20
47.5148
 11
17.6163
 21
48.6274
  0
LINE
  8
0
 10
17.6163
 20
48.6274
 11
17.8859
 21
49.7293
  0
LINE
  8
0
 10
17.8859
 20
49.7293
 11
18.2034
 21
50.8183
  0
LINE
  8
0
 10
18.2034
 20
50.8183
 11
18.568
 21
51.8925
  0
LINE
  8
0
 10
18.568
 20
51.8925
 11
18.9791
 21
52.9498
  0
LINE
  8
0
 10
18.9791
 20
52.9498
 11
19.436
 21
53.9881
  0
LINE
  8
0
 10
19.436
 20
53.9881
 11
19.9377
 21
55.0055
  0
LINE
  8
0
 10
19.9377
 20
55.0055
 11
20.4833
 21
56
  0
LINE
  8
0
 10
20.4833
 20
56
 11
21.0718
 21
56.9698
  0
LINE
  8
0
 10
21.0718
 20
56.9698
 11
21.702
 21
57.913
  0
LINE
  8
0
 10
21.702
 20
57.913
 11
22.3728
 21
58.8278
  0
LINE
  8
0
 10
22.3728
 20
58.8278
 11
23.0828
 21
59.7125
  0
LINE
  8
0
 10
23.0828
 20
59.7125
 11
23.8308
 21
60.5653
  0
LINE
  8
0
 10
23.8308
 20
60.5653
 11
24.6152
 21
61.3848
  0
LINE
  8
0
 10
24.6152
 20
61.3848
 11
25.4346
 21
62.1692
  0
LINE
  8
0
 10
25.4346
 20
62.1692
 11
26.2875
 21
62.9171
  0
LINE
  8
0
 10
26.2875
 20
62.9171
 11
27.1722
 21
63.6272
  0
LINE
  8
0
 10
27.1722
 20
63.6272
 11
28.087
 21
64.2979
  0
LINE
  8
0
 10
28.087
 20
64.2979
 11
29.0302
 21
64.9282
  0
LINE
  8
0
 10
29.0302
 20
64.9282
 11
30
 21
65.5166
  0
LINE
  8
0
 10
30
 20
65.5166
 11
30.9945
 21
66.0623
  0
LINE
  8
0
 10
30.9945
 20
66.0623
 11
32.0119
 21
66.564
  0
LINE
  8
0
 10
32.0119
 20
66.564
 11
33.0502
 21
67.0209
  0
LINE
  8
0
 10
33.0502
 20
67.0209
 11
34.1075
 21
67.432
  0
LINE
  8
0
 10
34.1075
 20
67.432
 11
35.1816
 21
67.7966
  0
LINE
  8
0
 10
35.1816
 20
67.7966
 11
36.2707
 21
68.1141
  0
LINE
  8
0
 10
36.2707
 20
68.1141
 11
37.3726
 21
68.3837
  0
LINE
  8
0
 10
37.3726
 20
68.3837
 11
38.4851
 21
68.605
  0
LINE
  8
0
 10
38.4851
 20
68.605
 11
39.6063
 21
68.7776
  0
LINE
  8
0
 10
39.6063
 20
68.7776
 11
40.7339
 21
68.9011
  0
LINE
  8
0
 10
40.7339
 20
68.9011
 11
41.8659
 21
68.9753
  0
LINE
  8
0
 10
41.8659
 20
68.9753
 11
43
 21
69
  0
LINE
  8
0
 10
43
 20
69
 11
44.1341
 21
68.9753
  0
LINE
  8
0
 10
44.1341
 20
68.9753
 11
45.266
 21
68.9011
  0
LINE
  8
0
 10
45.266
 20
68.9011
 11
46.3937
 21
68.7776
  0
LINE
  8
0
 10
46.3937
 20
68.7776
 11
47.5148
 21
68.605
  0
LINE
  8
0
 10
47.5148
 20
68.605
 11
48.6274
 21
68.3837
  0
LINE
  8
0
 10
48.6274
 20
68.3837
 11
49.7293
 21
68.1141
  0
LINE
  8
0
 10
49.7293
 20
68.1141
 11
50.8183
 21
67.7966
  0
LINE
  8
0
 10
50.8183
 20
67.7966
 11
51.8925
 21
67.432
  0
LINE
  8
0
 10
51.8925
 20
67.432
 11
52.9498
 21
67.0209
  0
LINE
  8
0
 10
52.9498
 20
67.0209
 11
53.9881
 21
66.564
  0
LINE
  8
0
 10
53.9881
 20
66.564
 11
55.0055
 21
66.0623
  0
LINE
  8
0
 10
55.0055
 20
66.0623
 11
56
 21
65.5166
  0
LINE
  8
0
 10
56
 20
65.5166
 11
56.9698
 21
64.9282
  0
LINE
  8
0
 10
56.9698
 20
64.9282
 11
57.913
 21
64.2979
  0
LINE
  8
0
 10
57.913
 20
64.2979
 11
58.8278
 21
63.6272
  0
LINE
  8
0
 10
58.8278
 20
63.6272
 11
59.7125
 21
62.9171
  0
LINE
  8
0
 10
59.7125
 20
62.9171
 11
60.5653
 21
62.1692
  0
LINE
  8
0
 10
60.5653
 20
62.1692
 11
61.3848
 21
61.3848
  0
LINE
  8
0
 10
61.3848
 20
61.3848
 11
62.1692
 21
60.5653
  0
LINE
  8
0
 10
62.1692
 20
60.5653
 11
62.9171
 21
59.7125
  0
LINE
  8
0
 10
62.9171
 20
59.7125
 11
63.6272
 21
58.8278
  0
LINE
  8
0
 10
63.6272
 20
58.8278
 11
64.2979
 21
57.913
  0
LINE
  8
0
 10
64.2979
 20
57.913
 11
64.9282
 21
56.9698
  0
LINE
  8
0
 10
64.9282
 20
56.9698
 11
65.5166
 21
56
  0
LINE
  8
0
 10
65.5166
 20
56
 11
66.0623
 21
55.0055
  0
LINE
  8
0
 10
66.0623
 20
55.0055
 11
66.564
 21
53.9881
  0
LINE
  8
0
 10
66.564
 20
53.9881
 11
67.0209
 21
52.9498
  0
LINE
  8
0
 10
67.0209
 20
52.9498
 11
67.432
 21
51.8925
  0
LINE
  8
0
 10
67.432
 20
51.8925
 11
67.7966
 21
50.8183
  0
LINE
  8
0
 10
67.7966
 20
50.8183
 11
68.1141
 21
49.7293
  0
LINE
  8
0
 10
68.1141
 20
49.7293
 11
68.3837
 21
48.6274
  0
LINE
  8
0
 10
68.3837
 20
48.6274
 11
68.605
 21
47.5148
  0
LINE
  8
0
 10
68.605
 20
47.5148
 11
68.7776
 21
46.3937
  0
LINE
  8
0
 10
68.7776
 20
46.3937
 11
68.9011
 21
45.266
  0
LINE
  8
0
 10
68.9011
 20
45.266
 11
68.9753
 21
44.1341
  0
LINE
  8
0
 10
68.9753
 20
44.1341
 11
69
 21
43
  0
LINE
  8
0
 10
69
 20
43
 11
68.9753
 21
41.8659
  0
LINE
  8
0
 10
68.9753
 20
41.8659
 11
68.9011
 21
40.7339
  0
LINE
  8
0
 10
68.9011
 20
40.7339
 11
68.7776
 21
39.6063
  0
LINE
  8
0
 10
68.7776
 20
39.6063
 11
68.605
 21
38.4851
  0
LINE
  8
0
 10
68.605
 20
38.4851
 11
68.3837
 21
37.3726
  0
LINE
  8
0
 10
68.3837
 20
37.3726
 11
68.1141
 21
36.2707
  0
LINE
  8
0
 10
68.1141
 20
36.2707
 11
67.7966
 21
35.1816
  0
LINE
  8
0
 10
67.7966
 20
35.1816
 11
67.432
 21
34.1075
  0
LINE
  8
0
 10
67.432
 20
34.1075
 11
67.0209
 21
33.0502
  0
LINE
  8
0
 10
67.0209
 20
33.0502
 11
66.564
 21
32.0119
  0
LINE
  8
0
 10
66.564
 20
32.0119
 11
66.0623
 21
30.9945
  0
LINE
  8
0
 10
66.0623
 20
30.9945
 11
65.5166
 21
30
  0
LINE
  8
0
 10
65.5166
 20
30
 11
64.9282
 21
29.0302
  0
LINE
  8
0
 10
64.9282
 20
29.0302
 11
64.2979
 21
28.087
  0
LINE
  8
0
 10
64.2979
 20
28.087
 11
63.6272
 21
27.1722
  0
LINE
  8
0
 10
63.6272
 20
27.1722
 11
62.9171
 21
26.2875
  0
LINE
  8
0
 10
62.9171
 20
26.2875
 11
62.1692
 21
25.4346
  0
LINE
  8
0
 10
62.1692
 20
25.4346
 11
61.3848
 21
24.6152
  0
LINE
  8
0
 10
61.3848
 20
24.6152
 11
60.5653
 21
23.8308
  0
LINE
  8
0
 10
60.5653
 20
23.8308
 11
59.7125
 21
23.0828
  0
LINE
  8
0
 10
59.7125
 20
23.0828
 11
58.8278
 21
22.3728
  0
LINE
  8
0
 10
58.8278
 20
22.3728
 11
57.913
 21
21.702
  0
LINE
  8
0
 10
57.913
 20
21.702
 11
56.9698
 21
21.0718
  0
LINE
  8
0
 10
56.9698
 20
21.0718
 11
56
 21
20.4833
  0
LINE
  8
0
 10
56
 20
20.4833
 11
55.0055
 21
19.9377
  0
LINE
  8
0
 10
55.0055
 20
19.9377
 11
53.9881
 21
19.436
  0
LINE
  8
0
 10
53.9881
 20
19.436
 11
52.9498
 21
18.9791
  0
LINE
  8
0
 10
52.9498
 20
18.9791
 11
51.8925
 21
18.568
  0
LINE
  8
0
 10
51.8925
 20
18.568
 11
50.8183
 21
18.2034
  0
LINE
  8
0
 10
50.8183
 20
18.2034
 11
49.7293
 21
17.8859
  0
LINE
  8
0
 10
49.7293
 20
17.8859
 11
48.6274
 21
17.6163
  0
LINE
  8
0
 10
48.6274
 20
17.6163
 11
47.5148
 21
17.395
  0
LINE
  8
0
 10
47.5148
 20
17.395
 11
46.3937
 21
17.2224
  0
LINE
  8
0
 10
46.3937
 20
17.2224
 11
45.266
 21
17.0989
  0
LINE
  8
0
 10
45.266
 20
17.0989
 11
44.1341
 21
17.0247
  0
LINE
  8
0
 10
44.1341
 20
17.0247
 11
43
 21
17
  0
LINE
  8
0
 10
43
 20
17
 11
41.8659
 21
17.0247
  0
ENDSEC
  0
SECTION
  2
OBJECTS
  0
DICTIONARY
  0
ENDSEC
  0
EOF
