  0
SECTION
  2
BLOCKS
  0
ENDSEC
  0
SECTION
  2
ENTITIES
  0
LINE
  8
0
 10
72.4729
 20
0.183594
 11
74.2817
 21
0.97699
  0
LINE
  8
0
 10
74.2817
 20
0.97699
 11
75.7348
 21
2.31471
  0
LINE
  8
0
 10
75.7348
 20
2.31471
 11
76.6749
 21
4.0518
  0
LINE
  8
0
 10
76.6749
 20
4.0518
 11
77
 21
6
  0
LINE
  8
0
 10
77
 20
6
 11
77
 21
71
  0
LINE
  8
0
 10
77
 20
71
 11
76.6749
 21
72.9482
  0
LINE
  8
0
 10
76.6749
 20
72.9482
 11
75.7348
 21
74.6853
  0
LINE
  8
0
 10
75.7348
 20
74.6853
 11
74.2817
 21
76.023
  0
LINE
  8
0
 10
74.2817
 20
76.023
 11
72.4729
 21
76.8164
  0
LINE
  8
0
 10
72.4729
 20
76.8164
 11
70.5045
 21
76.9795
  0
LINE
  8
0
 10
70.5045
 20
76.9795
 11
62.9978
 21
76.9795
  0
LINE
  8
0
 10
62.9978
 20
76.9795
 11
62.4646
 21
71.9062
  0
LINE
  8
0
 10
62.4646
 20
71.9062
 11
60.8819
 21
67.0349
  0
LINE
  8
0
 10
60.8819
 20
67.0349
 11
58.3209
 21
62.5993
  0
LINE
  8
0
 10
58.3209
 20
62.5993
 11
54.8937
 21
58.793
  0
LINE
  8
0
 10
54.8937
 20
58.793
 11
50.75
 21
55.7824
  0
LINE
  8
0
 10
50.75
 20
55.7824
 11
46.0709
 21
53.6991
  0
LINE
  8
0
 10
46.0709
 20
53.6991
 11
41.0609
 21
52.6342
  0
LINE
  8
0
 10
41.0609
 20
52.6342
 11
35.939
 21
52.6342
  0
LINE
  8
0
 10
35.939
 20
52.6342
 11
30.9291
 21
53.6991
  0
LINE
  8
0
 10
30.9291
 20
53.6991
 11
26.25
 21
55.7824
  0
LINE
  8
0
 10
26.25
 20
55.7824
 11
22.1063
 21
58.793
  0
LINE
  8
0
 10
22.1063
 20
58.793
 11
18.6791
 21
62.5993
  0
LINE
  8
0
 10
18.6791
 20
62.5993
 11
16.1181
 21
67.0349
  0
LINE
  8
0
 10
16.1181
 20
67.0349
 11
14.5354
 21
71.9062
  0
LINE
  8
0
 10
14.5354
 20
71.9062
 11
14.0022
 21
76.9795
  0
LINE
  8
0
 10
14.0022
 20
76.9795
 11
5.50452
 21
76.9795
  0
LINE
  8
0
 10
5.50452
 20
76.9795
 11
3.58981
 21
76.4946
  0
LINE
  8
0
 10
3.58981
 20
76.4946
 11
1.93631
 21
75.4143
  0
LINE
  8
0
 10
1.93631
 20
75.4143
 11
0.723145
 21
73.8557
  0
LINE
  8
0
 10
0.723145
 20
73.8557
 11
0.0818329
 21
71.9876
  0
LINE
  8
0
 10
0.0818329
 20
71.9876
 11
0.0818329
 21
5.01242
  0
LINE
  8
0
 10
0.0818329
 20
5.01242
 11
0.723145
 21
3.1443
  0
LINE
  8
0
 10
0.723145
 20
3.1443
 11
1.93631
 21
1.58565
  0
LINE
  8
0
 10
1.93631
 20
1.58565
 11
3.58981
 21
0.505356
  0
LINE
  8
0
 10
3.58981
 20
0.505356
 11
5.50452
 21
0.0204926
  0
LINE
  8
0
 10
5.50452
 20
0.0204926
 11
70.5045
 21
0.0204926
  0
LINE
  8
0
 10
70.5045
 20
0.0204926
 11
72.4729
 21
0.183594
  0
LINE
  8
0
 10
51.8229
 20
4.14682
 11
50.3229
 21
5.23663
  0
LINE
  8
0
 10
50.3229
 20
5.23663
 11
49.75
 21
7
  0
LINE
  8
0
 10
49.75
 20
7
 11
49.75
 21
6
  0
LINE
  8
0
 10
49.75
 20
6
 11
47.25
 21
6
  0
LINE
  8
0
 10
47.25
 20
6
 11
47.25
 21
37.5
  0
LINE
  8
0
 10
47.25
 20
37.5
 11
49.75
 21
37.5
  0
LINE
  8
0
 10
49.75
 20
37.5
 11
49.75
 21
45
  0
LINE
  8
0
 10
49.75
 20
45
 11
50.3229
 21
46.7634
  0
LINE
  8
0
 10
50.3229
 20
46.7634
 11
51.8229
 21
47.8532
  0
LINE
  8
0
 10
51.8229
 20
47.8532
 11
59.677
 21
47.8532
  0
LINE
  8
0
 10
59.677
 20
47.8532
 11
61.177
 21
46.7634
  0
LINE
  8
0
 10
61.177
 20
46.7634
 11
61.75
 21
45
  0
LINE
  8
0
 10
61.75
 20
45
 11
61.75
 21
7
  0
LINE
  8
0
 10
61.75
 20
7
 11
61.177
 21
5.23663
  0
LINE
  8
0
 10
61.177
 20
5.23663
 11
59.677
 21
4.14682
  0
LINE
  8
0
 10
59.677
 20
4.14682
 11
51.8229
 21
4.14682
  0
LINE
  8
0
 10
27.25
 20
6
 11
27.25
 21
47
  0
LINE
  8
0
 10
27.25
 20
47
 11
29.75
 21
47
  0
LINE
  8
0
 10
29.75
 20
47
 11
29.75
 21
6
  0
LINE
  8
0
 10
29.75
 20
6
 11
27.25
 21
6
  0
LINE
  8
0
 10
17
 20
37
 11
17
 21
40
  0
LINE
  8
0
 10
17
 20
40
 11
18.5
 21
40
  0
LINE
  8
0
 10
18.5
 20
40
 11
18.5
 21
37
  0
LINE
  8
0
 10
18.5
 20
37
 11
17
 21
37
  0
LINE
  8
0
 10
7
 20
37
 11
7
 21
40
  0
LINE
  8
0
 10
7
 20
40
 11
8.5
 21
40
  0
LINE
  8
0
 10
8.5
 20
40
 11
8.5
 21
37
  0
LINE
  8
0
 10
8.5
 20
37
 11
7
 21
37
  0
LINE
  8
0
 10
68.5
 20
37
 11
68.5
 21
40
  0
LINE
  8
0
 10
68.5
 20
40
 11
70
 21
40
  0
LINE
  8
0
 10
70
 20
40
 11
70
 21
37
  0
LINE
  8
0
 10
70
 20
37
 11
68.5
 21
37
  0
ENDSEC
  0
SECTION
  2
OBJECTS
  0
DICTIONARY
  0
ENDSEC
  0
EOF
