<?xml version="1.0" standalone="no"?>
<!DOCTYPE svg PUBLIC "-//W3C//DTD SVG 1.1//EN" "http://www.w3.org/Graphics/SVG/1.1/DTD/svg11.dtd">
<svg width="77mm" height="77mm" viewBox="0 -77 77 77" xmlns="http://www.w3.org/2000/svg" version="1.1">
<title>OpenSCAD Model</title>
<path d="
M 72.4729,-0.183594 L 74.2817,-0.97699 L 75.7348,-2.31471 L 76.6749,-4.0518 L 77,-6 L 77,-71
 L 76.6749,-72.9482 L 75.7348,-74.6853 L 74.2817,-76.023 L 72.4729,-76.8164 L 70.5045,-76.9795 L 62.9978,-76.9795
 L 62.4646,-71.9062 L 60.8819,-67.0349 L 58.3209,-62.5993 L 54.8937,-58.793 L 50.75,-55.7824 L 46.0709,-53.6991
 L 41.0609,-52.6342 L 35.939,-52.6342 L 30.9291,-53.6991 L 26.25,-55.7824 L 22.1063,-58.793 L 18.6791,-62.5993
 L 16.1181,-67.0349 L 14.5354,-71.9062 L 14.0022,-76.9795 L 5.50452,-76.9795 L 3.58981,-76.4946 L 1.93631,-75.4143
 L 0.723145,-73.8557 L 0.0818329,-71.9876 L 0.0818329,-5.01242 L 0.723145,-3.1443 L 1.93631,-1.58565 L 3.58981,-0.505356
 L 5.50452,-0.0204926 L 70.5045,-0.0204926 z
M 51.8229,-4.14682 L 50.3229,-5.23663 L 49.75,-7 L 49.75,-6 L 47.25,-6 L 47.25,-37.5
 L 49.75,-37.5 L 49.75,-45 L 50.3229,-46.7634 L 51.8229,-47.8532 L 59.677,-47.8532 L 61.177,-46.7634
 L 61.75,-45 L 61.75,-7 L 61.177,-5.23663 L 59.677,-4.14682 z
M 27.25,-6 L 27.25,-47 L 29.75,-47 L 29.75,-6 z
M 17,-37 L 17,-40 L 18.5,-40 L 18.5,-37 z
M 7,-37 L 7,-40 L 8.5,-40 L 8.5,-37 z
M 68.5,-37 L 68.5,-40 L 70,-40 L 70,-37 z
" stroke="black" fill="lightgray" stroke-width="0.5"/>
</svg>
