<?xml version="1.0" standalone="no"?>
<!DOCTYPE svg PUBLIC "-//W3C//DTD SVG 1.1//EN" "http://www.w3.org/Graphics/SVG/1.1/DTD/svg11.dtd">
<svg width="141mm" height="132mm" viewBox="0 -132 141 132" xmlns="http://www.w3.org/2000/svg" version="1.1">
<title>OpenSCAD Model</title>
<path d="
M 36,-132 L 12,-132 L 11.7906,-131.998 L 11.5812,-131.993 L 11.372,-131.984 L 11.1629,-131.971
 L 10.9541,-131.954 L 10.7457,-131.934 L 10.5376,-131.911 L 10.3299,-131.883 L 10.1228,-131.852 L 9.91623,-131.818
 L 9.7103,-131.78 L 9.50507,-131.738 L 9.3006,-131.692 L 9.09694,-131.644 L 8.89418,-131.591 L 8.69235,-131.535
 L 8.49155,-131.476 L 8.29181,-131.413 L 8.09319,-131.346 L 7.89577,-131.276 L 7.69958,-131.203 L 7.50473,-131.126
 L 7.31123,-131.046 L 7.11917,-130.963 L 6.92859,-130.876 L 6.73955,-130.786 L 6.55212,-130.692 L 6.36635,-130.595
 L 6.1823,-130.495 L 6,-130.392 L 5.81955,-130.286 L 5.64098,-130.177 L 5.46434,-130.064 L 5.28969,-129.948
 L 5.1171,-129.83 L 4.94658,-129.708 L 4.77823,-129.584 L 4.61208,-129.456 L 4.44817,-129.326 L 4.28656,-129.193
 L 4.1273,-129.057 L 3.97044,-128.918 L 3.81602,-128.776 L 3.66411,-128.632 L 3.51472,-128.485 L 3.36794,-128.336
 L 3.22377,-128.184 L 3.08228,-128.03 L 2.9435,-127.873 L 2.80748,-127.713 L 2.67426,-127.552 L 2.54388,-127.388
 L 2.41638,-127.222 L 2.29181,-127.053 L 2.17018,-126.883 L 2.05156,-126.71 L 1.93596,-126.536 L 1.82343,-126.359
 L 1.714,-126.18 L 1.6077,-126 L 1.50458,-125.818 L 1.40463,-125.634 L 1.30792,-125.448 L 1.21448,-125.26
 L 1.12431,-125.071 L 1.03746,-124.881 L 0.953949,-124.689 L 0.873795,-124.495 L 0.797043,-124.3 L 0.723694,-124.104
 L 0.653778,-123.907 L 0.587326,-123.708 L 0.524353,-123.508 L 0.464874,-123.308 L 0.408905,-123.106 L 0.356461,-122.903
 L 0.307571,-122.699 L 0.262238,-122.495 L 0.220474,-122.29 L 0.182312,-122.084 L 0.147751,-121.877 L 0.116791,-121.67
 L 0.089447,-121.462 L 0.0657501,-121.254 L 0.0456696,-121.046 L 0.0292358,-120.837 L 0.016449,-120.628 L 0.00732422,-120.419
 L 0.00183105,-120.209 L 0,-120 L 0.00183105,-119.791 L 0.00732422,-119.581 L 0.016449,-119.372 L 0.0292358,-119.163
 L 0.0456696,-118.954 L 0.0657501,-118.746 L 0.089447,-118.538 L 0.116791,-118.33 L 0.147751,-118.123 L 0.182312,-117.916
 L 0.220474,-117.71 L 0.262238,-117.505 L 0.307571,-117.301 L 0.356461,-117.097 L 0.408905,-116.894 L 0.464874,-116.692
 L 0.524353,-116.492 L 0.587326,-116.292 L 0.653778,-116.093 L 0.723694,-115.896 L 0.797043,-115.7 L 0.873795,-115.505
 L 0.953949,-115.311 L 1.03746,-115.119 L 1.12431,-114.929 L 1.21448,-114.74 L 1.30792,-114.552 L 1.40463,-114.366
 L 1.50458,-114.182 L 1.6077,-114 L 1.714,-113.82 L 1.82343,-113.641 L 1.93596,-113.464 L 2.05156,-113.29
 L 2.17018,-113.117 L 2.29181,-112.947 L 2.41638,-112.778 L 2.54388,-112.612 L 2.67426,-112.448 L 2.80748,-112.287
 L 2.9435,-112.127 L 3.08228,-111.97 L 3.22377,-111.816 L 3.36794,-111.664 L 3.51472,-111.515 L 3.66411,-111.368
 L 3.81602,-111.224 L 3.97044,-111.082 L 4.1273,-110.943 L 4.28656,-110.807 L 4.44817,-110.674 L 4.61208,-110.544
 L 4.77823,-110.416 L 4.94658,-110.292 L 5.1171,-110.17 L 5.28969,-110.052 L 5.46434,-109.936 L 5.64098,-109.823
 L 5.81955,-109.714 L 6,-109.608 L 6.1823,-109.505 L 6.36635,-109.405 L 6.55212,-109.308 L 6.73955,-109.214
 L 6.92859,-109.124 L 7.11917,-109.037 L 7.31123,-108.954 L 7.50473,-108.874 L 7.69958,-108.797 L 7.89577,-108.724
 L 8.09319,-108.654 L 8.29181,-108.587 L 8.49155,-108.524 L 8.69235,-108.465 L 8.89418,-108.409 L 9.09694,-108.356
 L 9.3006,-108.308 L 9.50507,-108.262 L 9.7103,-108.22 L 9.91623,-108.182 L 10.1228,-108.148 L 10.3299,-108.117
 L 10.5376,-108.089 L 10.7457,-108.066 L 10.9541,-108.046 L 11.1629,-108.029 L 11.372,-108.016 L 11.5812,-108.007
 L 11.7906,-108.002 L 12,-108 L 36,-108 z
M 11.9651,-118 L 11.9302,-118.001 L 11.8953,-118.003 L 11.8605,-118.005 L 11.8257,-118.008 L 11.791,-118.011
 L 11.7563,-118.015 L 11.7217,-118.019 L 11.6871,-118.025 L 11.6527,-118.03 L 11.6184,-118.037 L 11.5842,-118.044
 L 11.5501,-118.051 L 11.5162,-118.059 L 11.4824,-118.068 L 11.4487,-118.077 L 11.4153,-118.087 L 11.382,-118.098
 L 11.3489,-118.109 L 11.316,-118.121 L 11.2833,-118.133 L 11.2508,-118.146 L 11.2186,-118.159 L 11.1865,-118.173
 L 11.1548,-118.187 L 11.1233,-118.202 L 11.092,-118.218 L 11.0611,-118.234 L 11.0304,-118.251 L 11,-118.268
 L 10.9699,-118.286 L 10.9402,-118.304 L 10.9107,-118.323 L 10.8816,-118.342 L 10.8529,-118.362 L 10.8244,-118.382
 L 10.7964,-118.403 L 10.7687,-118.424 L 10.7414,-118.446 L 10.7144,-118.468 L 10.6879,-118.491 L 10.6617,-118.514
 L 10.636,-118.537 L 10.6107,-118.561 L 10.5858,-118.586 L 10.5613,-118.611 L 10.5373,-118.636 L 10.5137,-118.662
 L 10.4906,-118.688 L 10.4679,-118.714 L 10.4457,-118.741 L 10.424,-118.769 L 10.4027,-118.796 L 10.382,-118.824
 L 10.3617,-118.853 L 10.3419,-118.882 L 10.3227,-118.911 L 10.3039,-118.94 L 10.2857,-118.97 L 10.268,-119
 L 10.2508,-119.03 L 10.2341,-119.061 L 10.218,-119.092 L 10.2024,-119.123 L 10.1874,-119.155 L 10.1729,-119.187
 L 10.159,-119.219 L 10.1456,-119.251 L 10.1328,-119.283 L 10.1206,-119.316 L 10.109,-119.349 L 10.0979,-119.382
 L 10.0874,-119.415 L 10.0775,-119.449 L 10.0682,-119.482 L 10.0594,-119.516 L 10.0513,-119.55 L 10.0437,-119.584
 L 10.0368,-119.618 L 10.0304,-119.653 L 10.0246,-119.687 L 10.0195,-119.722 L 10.0149,-119.756 L 10.011,-119.791
 L 10.0076,-119.826 L 10.0049,-119.86 L 10.0027,-119.895 L 10.0012,-119.93 L 10.0003,-119.965 L 10,-120
 L 10.0003,-120.035 L 10.0012,-120.07 L 10.0027,-120.105 L 10.0049,-120.14 L 10.0076,-120.174 L 10.011,-120.209
 L 10.0149,-120.244 L 10.0195,-120.278 L 10.0246,-120.313 L 10.0304,-120.347 L 10.0368,-120.382 L 10.0437,-120.416
 L 10.0513,-120.45 L 10.0594,-120.484 L 10.0682,-120.518 L 10.0775,-120.551 L 10.0874,-120.585 L 10.0979,-120.618
 L 10.109,-120.651 L 10.1206,-120.684 L 10.1328,-120.717 L 10.1456,-120.749 L 10.159,-120.781 L 10.1729,-120.813
 L 10.1874,-120.845 L 10.2024,-120.877 L 10.218,-120.908 L 10.2341,-120.939 L 10.2508,-120.97 L 10.268,-121
 L 10.2857,-121.03 L 10.3039,-121.06 L 10.3227,-121.089 L 10.3419,-121.118 L 10.3617,-121.147 L 10.382,-121.176
 L 10.4027,-121.204 L 10.424,-121.231 L 10.4457,-121.259 L 10.4679,-121.286 L 10.4906,-121.312 L 10.5137,-121.338
 L 10.5373,-121.364 L 10.5613,-121.389 L 10.5858,-121.414 L 10.6107,-121.439 L 10.636,-121.463 L 10.6617,-121.486
 L 10.6879,-121.509 L 10.7144,-121.532 L 10.7414,-121.554 L 10.7687,-121.576 L 10.7964,-121.597 L 10.8244,-121.618
 L 10.8529,-121.638 L 10.8816,-121.658 L 10.9107,-121.677 L 10.9402,-121.696 L 10.9699,-121.714 L 11,-121.732
 L 11.0304,-121.749 L 11.0611,-121.766 L 11.092,-121.782 L 11.1233,-121.798 L 11.1548,-121.813 L 11.1865,-121.827
 L 11.2186,-121.841 L 11.2508,-121.854 L 11.2833,-121.867 L 11.316,-121.879 L 11.3489,-121.891 L 11.382,-121.902
 L 11.4153,-121.913 L 11.4487,-121.923 L 11.4824,-121.932 L 11.5162,-121.941 L 11.5501,-121.949 L 11.5842,-121.956
 L 11.6184,-121.963 L 11.6527,-121.97 L 11.6871,-121.975 L 11.7217,-121.981 L 11.7563,-121.985 L 11.791,-121.989
 L 11.8257,-121.992 L 11.8605,-121.995 L 11.8953,-121.997 L 11.9302,-121.999 L 11.9651,-122 L 12,-122
 L 12.0349,-122 L 12.0698,-121.999 L 12.1047,-121.997 L 12.1395,-121.995 L 12.1743,-121.992 L 12.209,-121.989
 L 12.2437,-121.985 L 12.2783,-121.981 L 12.3129,-121.975 L 12.3473,-121.97 L 12.3816,-121.963 L 12.4158,-121.956
 L 12.4499,-121.949 L 12.4838,-121.941 L 12.5176,-121.932 L 12.5513,-121.923 L 12.5847,-121.913 L 12.618,-121.902
 L 12.6511,-121.891 L 12.684,-121.879 L 12.7167,-121.867 L 12.7492,-121.854 L 12.7814,-121.841 L 12.8135,-121.827
 L 12.8452,-121.813 L 12.8767,-121.798 L 12.908,-121.782 L 12.9389,-121.766 L 12.9696,-121.749 L 13,-121.732
 L 13.0301,-121.714 L 13.0598,-121.696 L 13.0893,-121.677 L 13.1184,-121.658 L 13.1471,-121.638 L 13.1756,-121.618
 L 13.2036,-121.597 L 13.2313,-121.576 L 13.2586,-121.554 L 13.2856,-121.532 L 13.3121,-121.509 L 13.3383,-121.486
 L 13.364,-121.463 L 13.3893,-121.439 L 13.4142,-121.414 L 13.4387,-121.389 L 13.4627,-121.364 L 13.4863,-121.338
 L 13.5094,-121.312 L 13.5321,-121.286 L 13.5543,-121.259 L 13.576,-121.231 L 13.5973,-121.204 L 13.618,-121.176
 L 13.6383,-121.147 L 13.6581,-121.118 L 13.6773,-121.089 L 13.6961,-121.06 L 13.7143,-121.03 L 13.732,-121
 L 13.7492,-120.97 L 13.7659,-120.939 L 13.782,-120.908 L 13.7976,-120.877 L 13.8126,-120.845 L 13.8271,-120.813
 L 13.841,-120.781 L 13.8544,-120.749 L 13.8672,-120.717 L 13.8794,-120.684 L 13.891,-120.651 L 13.9021,-120.618
 L 13.9126,-120.585 L 13.9225,-120.551 L 13.9318,-120.518 L 13.9406,-120.484 L 13.9487,-120.45 L 13.9563,-120.416
 L 13.9632,-120.382 L 13.9696,-120.347 L 13.9754,-120.313 L 13.9805,-120.278 L 13.9851,-120.244 L 13.989,-120.209
 L 13.9924,-120.174 L 13.9951,-120.14 L 13.9973,-120.105 L 13.9988,-120.07 L 13.9997,-120.035 L 14,-120
 L 13.9997,-119.965 L 13.9988,-119.93 L 13.9973,-119.895 L 13.9951,-119.86 L 13.9924,-119.826 L 13.989,-119.791
 L 13.9851,-119.756 L 13.9805,-119.722 L 13.9754,-119.687 L 13.9696,-119.653 L 13.9632,-119.618 L 13.9563,-119.584
 L 13.9487,-119.55 L 13.9406,-119.516 L 13.9318,-119.482 L 13.9225,-119.449 L 13.9126,-119.415 L 13.9021,-119.382
 L 13.891,-119.349 L 13.8794,-119.316 L 13.8672,-119.283 L 13.8544,-119.251 L 13.841,-119.219 L 13.8271,-119.187
 L 13.8126,-119.155 L 13.7976,-119.123 L 13.782,-119.092 L 13.7659,-119.061 L 13.7492,-119.03 L 13.732,-119
 L 13.7143,-118.97 L 13.6961,-118.94 L 13.6773,-118.911 L 13.6581,-118.882 L 13.6383,-118.853 L 13.618,-118.824
 L 13.5973,-118.796 L 13.576,-118.769 L 13.5543,-118.741 L 13.5321,-118.714 L 13.5094,-118.688 L 13.4863,-118.662
 L 13.4627,-118.636 L 13.4387,-118.611 L 13.4142,-118.586 L 13.3893,-118.561 L 13.364,-118.537 L 13.3383,-118.514
 L 13.3121,-118.491 L 13.2856,-118.468 L 13.2586,-118.446 L 13.2313,-118.424 L 13.2036,-118.403 L 13.1756,-118.382
 L 13.1471,-118.362 L 13.1184,-118.342 L 13.0893,-118.323 L 13.0598,-118.304 L 13.0301,-118.286 L 13,-118.268
 L 12.9696,-118.251 L 12.9389,-118.234 L 12.908,-118.218 L 12.8767,-118.202 L 12.8452,-118.187 L 12.8135,-118.173
 L 12.7814,-118.159 L 12.7492,-118.146 L 12.7167,-118.133 L 12.684,-118.121 L 12.6511,-118.109 L 12.618,-118.098
 L 12.5847,-118.087 L 12.5513,-118.077 L 12.5176,-118.068 L 12.4838,-118.059 L 12.4499,-118.051 L 12.4158,-118.044
 L 12.3816,-118.037 L 12.3473,-118.03 L 12.3129,-118.025 L 12.2783,-118.019 L 12.2437,-118.015 L 12.209,-118.011
 L 12.1743,-118.008 L 12.1395,-118.005 L 12.1047,-118.003 L 12.0698,-118.001 L 12.0349,-118 L 12,-118
 z
M 129.701,-0.00175476 L 129.901,-0.00701904 L 130.102,-0.0157623 L 130.302,-0.0280151 L 130.502,-0.0437622 L 130.702,-0.0630035
 L 130.901,-0.0857239 L 131.1,-0.111923 L 131.299,-0.141586 L 131.497,-0.174713 L 131.694,-0.211288 L 131.891,-0.251312
 L 132.087,-0.294754 L 132.282,-0.341614 L 132.476,-0.391861 L 132.67,-0.445496 L 132.862,-0.502502 L 133.054,-0.562851
 L 133.244,-0.626541 L 133.433,-0.693542 L 133.621,-0.76384 L 133.808,-0.837387 L 133.993,-0.9142 L 134.177,-0.994232
 L 134.36,-1.07747 L 134.541,-1.16388 L 134.721,-1.25343 L 134.899,-1.34612 L 135.075,-1.44188 L 135.25,-1.54071
 L 135.423,-1.64258 L 135.594,-1.74745 L 135.763,-1.8553 L 135.931,-1.96608 L 136.096,-2.07976 L 136.26,-2.19632
 L 136.421,-2.3157 L 136.58,-2.43788 L 136.737,-2.56284 L 136.892,-2.69049 L 137.045,-2.82085 L 137.195,-2.95384
 L 137.343,-3.08945 L 137.489,-3.2276 L 137.632,-3.36829 L 137.772,-3.51143 L 137.911,-3.65703 L 138.046,-3.80501
 L 138.179,-3.95532 L 138.31,-4.10796 L 138.437,-4.26282 L 138.562,-4.41991 L 138.684,-4.57913 L 138.804,-4.74048
 L 138.92,-4.90388 L 139.034,-5.06929 L 139.145,-5.23666 L 139.253,-5.40593 L 139.357,-5.57707 L 139.459,-5.75
 L 139.558,-5.9247 L 139.654,-6.10109 L 139.747,-6.27911 L 139.836,-6.45874 L 139.923,-6.63989 L 140.006,-6.82254
 L 140.086,-7.00661 L 140.163,-7.19203 L 140.236,-7.37877 L 140.306,-7.56677 L 140.373,-7.75598 L 140.437,-7.94632
 L 140.497,-8.13773 L 140.555,-8.33018 L 140.608,-8.52359 L 140.658,-8.71791 L 140.705,-8.91307 L 140.749,-9.10902
 L 140.789,-9.30571 L 140.825,-9.50305 L 140.858,-9.701 L 140.888,-9.89952 L 140.914,-10.0985 L 140.937,-10.2979
 L 140.956,-10.4977 L 140.972,-10.6978 L 140.984,-10.8981 L 140.993,-11.0987 L 140.998,-11.2993 L 141,-11.5
 L 141,-36 L 140.642,-36.0031 L 140.285,-36.0125 L 139.927,-36.0281 L 139.57,-36.0499 L 139.213,-36.078
 L 138.857,-36.1123 L 138.502,-36.1528 L 138.147,-36.1995 L 137.793,-36.2524 L 137.44,-36.3114 L 137.088,-36.3766
 L 136.738,-36.448 L 136.388,-36.5254 L 136.041,-36.6089 L 135.694,-36.6985 L 135.349,-36.7941 L 135.006,-36.8958
 L 134.665,-37.0033 L 134.326,-37.1169 L 133.989,-37.2363 L 133.653,-37.3616 L 133.321,-37.4927 L 132.99,-37.6296
 L 132.662,-37.7723 L 132.336,-37.9207 L 132.013,-38.0747 L 131.693,-38.2344 L 131.376,-38.3996 L 131.061,-38.5703
 L 130.75,-38.7465 L 130.442,-38.9281 L 130.137,-39.115 L 129.835,-39.3073 L 129.537,-39.5047 L 129.242,-39.7074
 L 128.95,-39.9151 L 128.663,-40.128 L 128.379,-40.3458 L 128.099,-40.5685 L 127.823,-40.7961 L 127.551,-41.0284
 L 127.283,-41.2655 L 127.019,-41.5072 L 126.759,-41.7535 L 126.504,-42.0043 L 126.254,-42.2595 L 126.007,-42.519
 L 125.766,-42.7828 L 125.528,-43.0508 L 125.296,-43.3228 L 125.068,-43.5989 L 124.846,-43.8789 L 124.628,-44.1628
 L 124.415,-44.4504 L 124.207,-44.7417 L 124.005,-45.0365 L 123.807,-45.3349 L 123.615,-45.6366 L 123.428,-45.9417
 L 123.246,-46.25 L 123.07,-46.5614 L 122.9,-46.8758 L 122.734,-47.1932 L 122.575,-47.5134 L 122.421,-47.8363
 L 122.272,-48.1619 L 122.13,-48.49 L 121.993,-48.8206 L 121.862,-49.1534 L 121.736,-49.4886 L 121.617,-49.8259
 L 121.503,-50.1651 L 121.396,-50.5064 L 121.294,-50.8494 L 121.199,-51.1942 L 121.109,-51.5406 L 121.025,-51.8885
 L 120.948,-52.2378 L 120.877,-52.5884 L 120.811,-52.9402 L 120.752,-53.2931 L 120.699,-53.6469 L 120.653,-54.0017
 L 120.612,-54.3572 L 120.578,-54.7133 L 120.55,-55.07 L 120.528,-55.4271 L 120.512,-55.7845 L 120.503,-56.1422
 L 120.5,-56.5 L 120.503,-56.8578 L 120.512,-57.2154 L 120.528,-57.5729 L 120.55,-57.93 L 120.578,-58.2867
 L 120.612,-58.6428 L 120.653,-58.9983 L 120.699,-59.353 L 120.752,-59.7069 L 120.811,-60.0598 L 120.877,-60.4116
 L 120.948,-60.7622 L 121.025,-61.1115 L 121.109,-61.4594 L 121.199,-61.8058 L 121.294,-62.1506 L 121.396,-62.4936
 L 121.503,-62.8348 L 121.617,-63.1741 L 121.736,-63.5114 L 121.862,-63.8465 L 121.993,-64.1794 L 122.13,-64.51
 L 122.272,-64.8381 L 122.421,-65.1637 L 122.575,-65.4866 L 122.734,-65.8068 L 122.9,-66.1242 L 123.07,-66.4386
 L 123.246,-66.75 L 123.428,-67.0583 L 123.615,-67.3633 L 123.807,-67.6651 L 124.005,-67.9634 L 124.207,-68.2583
 L 124.415,-68.5496 L 124.628,-68.8372 L 124.846,-69.121 L 125.068,-69.4011 L 125.296,-69.6771 L 125.528,-69.9492
 L 125.766,-70.2172 L 126.007,-70.481 L 126.254,-70.7405 L 126.504,-70.9957 L 126.759,-71.2465 L 127.019,-71.4927
 L 127.283,-71.7345 L 127.551,-71.9715 L 127.823,-72.2039 L 128.099,-72.4315 L 128.379,-72.6542 L 128.663,-72.872
 L 128.95,-73.0848 L 129.242,-73.2926 L 129.537,-73.4953 L 129.835,-73.6927 L 130.137,-73.885 L 130.442,-74.0719
 L 130.75,-74.2535 L 131.061,-74.4297 L 131.376,-74.6004 L 131.693,-74.7656 L 132.013,-74.9253 L 132.336,-75.0793
 L 132.662,-75.2277 L 132.99,-75.3703 L 133.321,-75.5073 L 133.653,-75.6384 L 133.989,-75.7637 L 134.326,-75.8831
 L 134.665,-75.9967 L 135.006,-76.1042 L 135.349,-76.2059 L 135.694,-76.3015 L 136.041,-76.3911 L 136.388,-76.4746
 L 136.738,-76.552 L 137.088,-76.6234 L 137.44,-76.6886 L 137.793,-76.7476 L 138.147,-76.8005 L 138.502,-76.8472
 L 138.857,-76.8877 L 139.213,-76.922 L 139.57,-76.9501 L 139.927,-76.9719 L 140.285,-76.9875 L 140.642,-76.9969
 L 141,-77 L 141,-101.5 L 140.998,-101.701 L 140.993,-101.901 L 140.984,-102.102 L 140.972,-102.302
 L 140.956,-102.502 L 140.937,-102.702 L 140.914,-102.901 L 140.888,-103.1 L 140.858,-103.299 L 140.825,-103.497
 L 140.789,-103.694 L 140.749,-103.891 L 140.705,-104.087 L 140.658,-104.282 L 140.608,-104.476 L 140.555,-104.67
 L 140.497,-104.862 L 140.437,-105.054 L 140.373,-105.244 L 140.306,-105.433 L 140.236,-105.621 L 140.163,-105.808
 L 140.086,-105.993 L 140.006,-106.177 L 139.923,-106.36 L 139.836,-106.541 L 139.747,-106.721 L 139.654,-106.899
 L 139.558,-107.075 L 139.459,-107.25 L 139.357,-107.423 L 139.253,-107.594 L 139.145,-107.763 L 139.034,-107.931
 L 138.92,-108.096 L 138.804,-108.26 L 138.684,-108.421 L 138.562,-108.58 L 138.437,-108.737 L 138.31,-108.892
 L 138.179,-109.045 L 138.046,-109.195 L 137.911,-109.343 L 137.772,-109.489 L 137.632,-109.632 L 137.489,-109.772
 L 137.343,-109.911 L 137.195,-110.046 L 137.045,-110.179 L 136.892,-110.31 L 136.737,-110.437 L 136.58,-110.562
 L 136.421,-110.684 L 136.26,-110.804 L 136.096,-110.92 L 135.931,-111.034 L 135.763,-111.145 L 135.594,-111.253
 L 135.423,-111.357 L 135.25,-111.459 L 135.075,-111.558 L 134.899,-111.654 L 134.721,-111.747 L 134.541,-111.836
 L 134.36,-111.923 L 134.177,-112.006 L 133.993,-112.086 L 133.808,-112.163 L 133.621,-112.236 L 133.433,-112.306
 L 133.244,-112.373 L 133.054,-112.437 L 132.862,-112.497 L 132.67,-112.555 L 132.476,-112.608 L 132.282,-112.658
 L 132.087,-112.705 L 131.891,-112.749 L 131.694,-112.789 L 131.497,-112.825 L 131.299,-112.858 L 131.1,-112.888
 L 130.901,-112.914 L 130.702,-112.937 L 130.502,-112.956 L 130.302,-112.972 L 130.102,-112.984 L 129.901,-112.993
 L 129.701,-112.998 L 129.5,-113 L 63.5,-113 L 63.2993,-112.998 L 63.0987,-112.993 L 62.8981,-112.984
 L 62.6978,-112.972 L 62.4977,-112.956 L 62.2979,-112.937 L 62.0985,-112.914 L 61.8995,-112.888 L 61.701,-112.858
 L 61.5031,-112.825 L 61.3057,-112.789 L 61.109,-112.749 L 60.9131,-112.705 L 60.7179,-112.658 L 60.5236,-112.608
 L 60.3302,-112.555 L 60.1377,-112.497 L 59.9463,-112.437 L 59.756,-112.373 L 59.5668,-112.306 L 59.3788,-112.236
 L 59.192,-112.163 L 59.0066,-112.086 L 58.8225,-112.006 L 58.6399,-111.923 L 58.4587,-111.836 L 58.2791,-111.747
 L 58.1011,-111.654 L 57.9247,-111.558 L 57.75,-111.459 L 57.5771,-111.357 L 57.4059,-111.253 L 57.2367,-111.145
 L 57.0693,-111.034 L 56.9039,-110.92 L 56.7405,-110.804 L 56.5791,-110.684 L 56.4199,-110.562 L 56.2628,-110.437
 L 56.108,-110.31 L 55.9553,-110.179 L 55.805,-110.046 L 55.657,-109.911 L 55.5114,-109.772 L 55.3683,-109.632
 L 55.2276,-109.489 L 55.0894,-109.343 L 54.9538,-109.195 L 54.8208,-109.045 L 54.6905,-108.892 L 54.5628,-108.737
 L 54.4379,-108.58 L 54.3157,-108.421 L 54.1963,-108.26 L 54.0798,-108.096 L 53.9661,-107.931 L 53.8553,-107.763
 L 53.7475,-107.594 L 53.6426,-107.423 L 53.5407,-107.25 L 53.4419,-107.075 L 53.3461,-106.899 L 53.2534,-106.721
 L 53.1639,-106.541 L 53.0775,-106.36 L 52.9942,-106.177 L 52.9142,-105.993 L 52.8374,-105.808 L 52.7638,-105.621
 L 52.6935,-105.433 L 52.6265,-105.244 L 52.5629,-105.054 L 52.5025,-104.862 L 52.4455,-104.67 L 52.3919,-104.476
 L 52.3416,-104.282 L 52.2948,-104.087 L 52.2513,-103.891 L 52.2113,-103.694 L 52.1747,-103.497 L 52.1416,-103.299
 L 52.1119,-103.1 L 52.0857,-102.901 L 52.063,-102.702 L 52.0438,-102.502 L 52.028,-102.302 L 52.0158,-102.102
 L 52.007,-101.901 L 52.0018,-101.701 L 52,-101.5 L 52,-77 L 52.3578,-76.9969 L 52.7154,-76.9875
 L 53.0729,-76.9719 L 53.43,-76.9501 L 53.7867,-76.922 L 54.1428,-76.8877 L 54.4983,-76.8472 L 54.853,-76.8005
 L 55.2069,-76.7476 L 55.5598,-76.6886 L 55.9116,-76.6234 L 56.2622,-76.552 L 56.6115,-76.4746 L 56.9594,-76.3911
 L 57.3058,-76.3015 L 57.6506,-76.2059 L 57.9936,-76.1042 L 58.3348,-75.9967 L 58.6741,-75.8831 L 59.0114,-75.7637
 L 59.3465,-75.6384 L 59.6794,-75.5073 L 60.01,-75.3703 L 60.3381,-75.2277 L 60.6637,-75.0793 L 60.9866,-74.9253
 L 61.3068,-74.7656 L 61.6242,-74.6004 L 61.9386,-74.4297 L 62.25,-74.2535 L 62.5583,-74.0719 L 62.8633,-73.885
 L 63.1651,-73.6927 L 63.4634,-73.4953 L 63.7583,-73.2926 L 64.0496,-73.0848 L 64.3372,-72.872 L 64.621,-72.6542
 L 64.9011,-72.4315 L 65.1771,-72.2039 L 65.4492,-71.9715 L 65.7172,-71.7345 L 65.981,-71.4927 L 66.2405,-71.2465
 L 66.4957,-70.9957 L 66.7465,-70.7405 L 66.9927,-70.481 L 67.2345,-70.2172 L 67.4715,-69.9492 L 67.7039,-69.6771
 L 67.9315,-69.4011 L 68.1542,-69.121 L 68.372,-68.8372 L 68.5848,-68.5496 L 68.7926,-68.2583 L 68.9953,-67.9634
 L 69.1927,-67.6651 L 69.385,-67.3633 L 69.5719,-67.0583 L 69.7535,-66.75 L 69.9297,-66.4386 L 70.1004,-66.1242
 L 70.2656,-65.8068 L 70.4253,-65.4866 L 70.5793,-65.1637 L 70.7277,-64.8381 L 70.8703,-64.51 L 71.0073,-64.1794
 L 71.1384,-63.8465 L 71.2637,-63.5114 L 71.3831,-63.1741 L 71.4967,-62.8348 L 71.6042,-62.4936 L 71.7059,-62.1506
 L 71.8015,-61.8058 L 71.8911,-61.4594 L 71.9746,-61.1115 L 72.052,-60.7622 L 72.1234,-60.4116 L 72.1886,-60.0598
 L 72.2476,-59.7069 L 72.3005,-59.353 L 72.3472,-58.9983 L 72.3877,-58.6428 L 72.422,-58.2867 L 72.4501,-57.93
 L 72.4719,-57.5729 L 72.4875,-57.2154 L 72.4969,-56.8578 L 72.5,-56.5 L 72.4969,-56.1422 L 72.4875,-55.7845
 L 72.4719,-55.4271 L 72.4501,-55.07 L 72.422,-54.7133 L 72.3877,-54.3572 L 72.3472,-54.0017 L 72.3005,-53.6469
 L 72.2476,-53.2931 L 72.1886,-52.9402 L 72.1234,-52.5884 L 72.052,-52.2378 L 71.9746,-51.8885 L 71.8911,-51.5406
 L 71.8015,-51.1942 L 71.7059,-50.8494 L 71.6042,-50.5064 L 71.4967,-50.1651 L 71.3831,-49.8259 L 71.2637,-49.4886
 L 71.1384,-49.1534 L 71.0073,-48.8206 L 70.8703,-48.49 L 70.7277,-48.1619 L 70.5793,-47.8363 L 70.4253,-47.5134
 L 70.2656,-47.1932 L 70.1004,-46.8758 L 69.9297,-46.5614 L 69.7535,-46.25 L 69.5719,-45.9417 L 69.385,-45.6366
 L 69.1927,-45.3349 L 68.9953,-45.0365 L 68.7926,-44.7417 L 68.5848,-44.4504 L 68.372,-44.1628 L 68.1542,-43.8789
 L 67.9315,-43.5989 L 67.7039,-43.3228 L 67.4715,-43.0508 L 67.2345,-42.7828 L 66.9927,-42.519 L 66.7465,-42.2595
 L 66.4957,-42.0043 L 66.2405,-41.7535 L 65.981,-41.5072 L 65.7172,-41.2655 L 65.4492,-41.0284 L 65.1771,-40.7961
 L 64.9011,-40.5685 L 64.621,-40.3458 L 64.3372,-40.128 L 64.0496,-39.9151 L 63.7583,-39.7074 L 63.4634,-39.5047
 L 63.1651,-39.3073 L 62.8633,-39.115 L 62.5583,-38.9281 L 62.25,-38.7465 L 61.9386,-38.5703 L 61.6242,-38.3996
 L 61.3068,-38.2344 L 60.9866,-38.0747 L 60.6637,-37.9207 L 60.3381,-37.7723 L 60.01,-37.6296 L 59.6794,-37.4927
 L 59.3465,-37.3616 L 59.0114,-37.2363 L 58.6741,-37.1169 L 58.3348,-37.0033 L 57.9936,-36.8958 L 57.6506,-36.7941
 L 57.3058,-36.6985 L 56.9594,-36.6089 L 56.6115,-36.5254 L 56.2622,-36.448 L 55.9116,-36.3766 L 55.5598,-36.3114
 L 55.2069,-36.2524 L 54.853,-36.1995 L 54.4983,-36.1528 L 54.1428,-36.1123 L 53.7867,-36.078 L 53.43,-36.0499
 L 53.0729,-36.0281 L 52.7154,-36.0125 L 52.3578,-36.0031 L 52,-36 L 52,-11.5 L 52.0018,-11.2993
 L 52.007,-11.0987 L 52.0158,-10.8981 L 52.028,-10.6978 L 52.0438,-10.4977 L 52.063,-10.2979 L 52.0857,-10.0985
 L 52.1119,-9.89952 L 52.1416,-9.701 L 52.1747,-9.50305 L 52.2113,-9.30571 L 52.2513,-9.10902 L 52.2948,-8.91307
 L 52.3416,-8.71791 L 52.3919,-8.52359 L 52.4455,-8.33018 L 52.5025,-8.13773 L 52.5629,-7.94632 L 52.6265,-7.75598
 L 52.6935,-7.56677 L 52.7638,-7.37877 L 52.8374,-7.19203 L 52.9142,-7.00661 L 52.9942,-6.82254 L 53.0775,-6.63989
 L 53.1639,-6.45874 L 53.2534,-6.27911 L 53.3461,-6.10109 L 53.4419,-5.9247 L 53.5407,-5.75 L 53.6426,-5.57707
 L 53.7475,-5.40593 L 53.8553,-5.23666 L 53.9661,-5.06929 L 54.0798,-4.90388 L 54.1963,-4.74048 L 54.3157,-4.57913
 L 54.4379,-4.41991 L 54.5628,-4.26282 L 54.6905,-4.10796 L 54.8208,-3.95532 L 54.9538,-3.80501 L 55.0894,-3.65703
 L 55.2276,-3.51143 L 55.3683,-3.36829 L 55.5114,-3.2276 L 55.657,-3.08945 L 55.805,-2.95384 L 55.9553,-2.82085
 L 56.108,-2.69049 L 56.2628,-2.56284 L 56.4199,-2.43788 L 56.5791,-2.3157 L 56.7405,-2.19632 L 56.9039,-2.07976
 L 57.0693,-1.96608 L 57.2367,-1.8553 L 57.4059,-1.74745 L 57.5771,-1.64258 L 57.75,-1.54071 L 57.9247,-1.44188
 L 58.1011,-1.34612 L 58.2791,-1.25343 L 58.4587,-1.16388 L 58.6399,-1.07747 L 58.8225,-0.994232 L 59.0066,-0.9142
 L 59.192,-0.837387 L 59.3788,-0.76384 L 59.5668,-0.693542 L 59.756,-0.626541 L 59.9463,-0.562851 L 60.1377,-0.502502
 L 60.3302,-0.445496 L 60.5236,-0.391861 L 60.7179,-0.341614 L 60.9131,-0.294754 L 61.109,-0.251312 L 61.3057,-0.211288
 L 61.5031,-0.174713 L 61.701,-0.141586 L 61.8995,-0.111923 L 62.0985,-0.0857239 L 62.2979,-0.0630035 L 62.4977,-0.0437622
 L 62.6978,-0.0280151 L 62.8981,-0.0157623 L 63.0987,-0.00701904 L 63.2993,-0.00175476 L 63.5,-0 L 129.5,-0
 z
M 133.565,-103.6 L 133.53,-103.601 L 133.495,-103.603 L 133.46,-103.605 L 133.426,-103.608 L 133.391,-103.611
 L 133.356,-103.615 L 133.322,-103.619 L 133.287,-103.625 L 133.253,-103.63 L 133.218,-103.637 L 133.184,-103.644
 L 133.15,-103.651 L 133.116,-103.659 L 133.082,-103.668 L 133.049,-103.677 L 133.015,-103.687 L 132.982,-103.698
 L 132.949,-103.709 L 132.916,-103.721 L 132.883,-103.733 L 132.851,-103.746 L 132.819,-103.759 L 132.787,-103.773
 L 132.755,-103.787 L 132.723,-103.802 L 132.692,-103.818 L 132.661,-103.834 L 132.63,-103.851 L 132.6,-103.868
 L 132.57,-103.886 L 132.54,-103.904 L 132.511,-103.923 L 132.482,-103.942 L 132.453,-103.962 L 132.424,-103.982
 L 132.396,-104.003 L 132.369,-104.024 L 132.341,-104.046 L 132.314,-104.068 L 132.288,-104.091 L 132.262,-104.114
 L 132.236,-104.137 L 132.211,-104.161 L 132.186,-104.186 L 132.161,-104.211 L 132.137,-104.236 L 132.114,-104.262
 L 132.091,-104.288 L 132.068,-104.314 L 132.046,-104.341 L 132.024,-104.369 L 132.003,-104.396 L 131.982,-104.424
 L 131.962,-104.453 L 131.942,-104.482 L 131.923,-104.511 L 131.904,-104.54 L 131.886,-104.57 L 131.868,-104.6
 L 131.851,-104.63 L 131.834,-104.661 L 131.818,-104.692 L 131.802,-104.723 L 131.787,-104.755 L 131.773,-104.787
 L 131.759,-104.819 L 131.746,-104.851 L 131.733,-104.883 L 131.721,-104.916 L 131.709,-104.949 L 131.698,-104.982
 L 131.687,-105.015 L 131.677,-105.049 L 131.668,-105.082 L 131.659,-105.116 L 131.651,-105.15 L 131.644,-105.184
 L 131.637,-105.218 L 131.63,-105.253 L 131.625,-105.287 L 131.619,-105.322 L 131.615,-105.356 L 131.611,-105.391
 L 131.608,-105.426 L 131.605,-105.46 L 131.603,-105.495 L 131.601,-105.53 L 131.6,-105.565 L 131.6,-105.6
 L 131.6,-105.635 L 131.601,-105.67 L 131.603,-105.705 L 131.605,-105.74 L 131.608,-105.774 L 131.611,-105.809
 L 131.615,-105.844 L 131.619,-105.878 L 131.625,-105.913 L 131.63,-105.947 L 131.637,-105.982 L 131.644,-106.016
 L 131.651,-106.05 L 131.659,-106.084 L 131.668,-106.118 L 131.677,-106.151 L 131.687,-106.185 L 131.698,-106.218
 L 131.709,-106.251 L 131.721,-106.284 L 131.733,-106.317 L 131.746,-106.349 L 131.759,-106.381 L 131.773,-106.413
 L 131.787,-106.445 L 131.802,-106.477 L 131.818,-106.508 L 131.834,-106.539 L 131.851,-106.57 L 131.868,-106.6
 L 131.886,-106.63 L 131.904,-106.66 L 131.923,-106.689 L 131.942,-106.718 L 131.962,-106.747 L 131.982,-106.776
 L 132.003,-106.804 L 132.024,-106.831 L 132.046,-106.859 L 132.068,-106.886 L 132.091,-106.912 L 132.114,-106.938
 L 132.137,-106.964 L 132.161,-106.989 L 132.186,-107.014 L 132.211,-107.039 L 132.236,-107.063 L 132.262,-107.086
 L 132.288,-107.109 L 132.314,-107.132 L 132.341,-107.154 L 132.369,-107.176 L 132.396,-107.197 L 132.424,-107.218
 L 132.453,-107.238 L 132.482,-107.258 L 132.511,-107.277 L 132.54,-107.296 L 132.57,-107.314 L 132.6,-107.332
 L 132.63,-107.349 L 132.661,-107.366 L 132.692,-107.382 L 132.723,-107.398 L 132.755,-107.413 L 132.787,-107.427
 L 132.819,-107.441 L 132.851,-107.454 L 132.883,-107.467 L 132.916,-107.479 L 132.949,-107.491 L 132.982,-107.502
 L 133.015,-107.513 L 133.049,-107.523 L 133.082,-107.532 L 133.116,-107.541 L 133.15,-107.549 L 133.184,-107.556
 L 133.218,-107.563 L 133.253,-107.57 L 133.287,-107.575 L 133.322,-107.581 L 133.356,-107.585 L 133.391,-107.589
 L 133.426,-107.592 L 133.46,-107.595 L 133.495,-107.597 L 133.53,-107.599 L 133.565,-107.6 L 133.6,-107.6
 L 133.635,-107.6 L 133.67,-107.599 L 133.705,-107.597 L 133.74,-107.595 L 133.774,-107.592 L 133.809,-107.589
 L 133.844,-107.585 L 133.878,-107.581 L 133.913,-107.575 L 133.947,-107.57 L 133.982,-107.563 L 134.016,-107.556
 L 134.05,-107.549 L 134.084,-107.541 L 134.118,-107.532 L 134.151,-107.523 L 134.185,-107.513 L 134.218,-107.502
 L 134.251,-107.491 L 134.284,-107.479 L 134.317,-107.467 L 134.349,-107.454 L 134.381,-107.441 L 134.413,-107.427
 L 134.445,-107.413 L 134.477,-107.398 L 134.508,-107.382 L 134.539,-107.366 L 134.57,-107.349 L 134.6,-107.332
 L 134.63,-107.314 L 134.66,-107.296 L 134.689,-107.277 L 134.718,-107.258 L 134.747,-107.238 L 134.776,-107.218
 L 134.804,-107.197 L 134.831,-107.176 L 134.859,-107.154 L 134.886,-107.132 L 134.912,-107.109 L 134.938,-107.086
 L 134.964,-107.063 L 134.989,-107.039 L 135.014,-107.014 L 135.039,-106.989 L 135.063,-106.964 L 135.086,-106.938
 L 135.109,-106.912 L 135.132,-106.886 L 135.154,-106.859 L 135.176,-106.831 L 135.197,-106.804 L 135.218,-106.776
 L 135.238,-106.747 L 135.258,-106.718 L 135.277,-106.689 L 135.296,-106.66 L 135.314,-106.63 L 135.332,-106.6
 L 135.349,-106.57 L 135.366,-106.539 L 135.382,-106.508 L 135.398,-106.477 L 135.413,-106.445 L 135.427,-106.413
 L 135.441,-106.381 L 135.454,-106.349 L 135.467,-106.317 L 135.479,-106.284 L 135.491,-106.251 L 135.502,-106.218
 L 135.513,-106.185 L 135.523,-106.151 L 135.532,-106.118 L 135.541,-106.084 L 135.549,-106.05 L 135.556,-106.016
 L 135.563,-105.982 L 135.57,-105.947 L 135.575,-105.913 L 135.581,-105.878 L 135.585,-105.844 L 135.589,-105.809
 L 135.592,-105.774 L 135.595,-105.74 L 135.597,-105.705 L 135.599,-105.67 L 135.6,-105.635 L 135.6,-105.6
 L 135.6,-105.565 L 135.599,-105.53 L 135.597,-105.495 L 135.595,-105.46 L 135.592,-105.426 L 135.589,-105.391
 L 135.585,-105.356 L 135.581,-105.322 L 135.575,-105.287 L 135.57,-105.253 L 135.563,-105.218 L 135.556,-105.184
 L 135.549,-105.15 L 135.541,-105.116 L 135.532,-105.082 L 135.523,-105.049 L 135.513,-105.015 L 135.502,-104.982
 L 135.491,-104.949 L 135.479,-104.916 L 135.467,-104.883 L 135.454,-104.851 L 135.441,-104.819 L 135.427,-104.787
 L 135.413,-104.755 L 135.398,-104.723 L 135.382,-104.692 L 135.366,-104.661 L 135.349,-104.63 L 135.332,-104.6
 L 135.314,-104.57 L 135.296,-104.54 L 135.277,-104.511 L 135.258,-104.482 L 135.238,-104.453 L 135.218,-104.424
 L 135.197,-104.396 L 135.176,-104.369 L 135.154,-104.341 L 135.132,-104.314 L 135.109,-104.288 L 135.086,-104.262
 L 135.063,-104.236 L 135.039,-104.211 L 135.014,-104.186 L 134.989,-104.161 L 134.964,-104.137 L 134.938,-104.114
 L 134.912,-104.091 L 134.886,-104.068 L 134.859,-104.046 L 134.831,-104.024 L 134.804,-104.003 L 134.776,-103.982
 L 134.747,-103.962 L 134.718,-103.942 L 134.689,-103.923 L 134.66,-103.904 L 134.63,-103.886 L 134.6,-103.868
 L 134.57,-103.851 L 134.539,-103.834 L 134.508,-103.818 L 134.477,-103.802 L 134.445,-103.787 L 134.413,-103.773
 L 134.381,-103.759 L 134.349,-103.746 L 134.317,-103.733 L 134.284,-103.721 L 134.251,-103.709 L 134.218,-103.698
 L 134.185,-103.687 L 134.151,-103.677 L 134.118,-103.668 L 134.084,-103.659 L 134.05,-103.651 L 134.016,-103.644
 L 133.982,-103.637 L 133.947,-103.63 L 133.913,-103.625 L 133.878,-103.619 L 133.844,-103.615 L 133.809,-103.611
 L 133.774,-103.608 L 133.74,-103.605 L 133.705,-103.603 L 133.67,-103.601 L 133.635,-103.6 L 133.6,-103.6
 z
M 59.3651,-103.6 L 59.3302,-103.601 L 59.2953,-103.603 L 59.2605,-103.605 L 59.2257,-103.608 L 59.1909,-103.611
 L 59.1562,-103.615 L 59.1216,-103.619 L 59.0871,-103.625 L 59.0527,-103.63 L 59.0184,-103.637 L 58.9842,-103.644
 L 58.9501,-103.651 L 58.9162,-103.659 L 58.8824,-103.668 L 58.8487,-103.677 L 58.8152,-103.687 L 58.782,-103.698
 L 58.7489,-103.709 L 58.716,-103.721 L 58.6833,-103.733 L 58.6508,-103.746 L 58.6185,-103.759 L 58.5865,-103.773
 L 58.5547,-103.787 L 58.5233,-103.802 L 58.492,-103.818 L 58.461,-103.834 L 58.4304,-103.851 L 58.4,-103.868
 L 58.3699,-103.886 L 58.3401,-103.904 L 58.3107,-103.923 L 58.2816,-103.942 L 58.2528,-103.962 L 58.2244,-103.982
 L 58.1964,-104.003 L 58.1687,-104.024 L 58.1414,-104.046 L 58.1144,-104.068 L 58.0879,-104.091 L 58.0617,-104.114
 L 58.036,-104.137 L 58.0107,-104.161 L 57.9858,-104.186 L 57.9613,-104.211 L 57.9373,-104.236 L 57.9137,-104.262
 L 57.8906,-104.288 L 57.8679,-104.314 L 57.8457,-104.341 L 57.824,-104.369 L 57.8027,-104.396 L 57.782,-104.424
 L 57.7617,-104.453 L 57.7419,-104.482 L 57.7227,-104.511 L 57.7039,-104.54 L 57.6857,-104.57 L 57.6679,-104.6
 L 57.6508,-104.63 L 57.6341,-104.661 L 57.618,-104.692 L 57.6024,-104.723 L 57.5874,-104.755 L 57.5729,-104.787
 L 57.559,-104.819 L 57.5456,-104.851 L 57.5328,-104.883 L 57.5206,-104.916 L 57.509,-104.949 L 57.4979,-104.982
 L 57.4874,-105.015 L 57.4775,-105.049 L 57.4681,-105.082 L 57.4594,-105.116 L 57.4512,-105.15 L 57.4437,-105.184
 L 57.4367,-105.218 L 57.4304,-105.253 L 57.4246,-105.287 L 57.4194,-105.322 L 57.4149,-105.356 L 57.4109,-105.391
 L 57.4076,-105.426 L 57.4049,-105.46 L 57.4027,-105.495 L 57.4012,-105.53 L 57.4003,-105.565 L 57.4,-105.6
 L 57.4003,-105.635 L 57.4012,-105.67 L 57.4027,-105.705 L 57.4049,-105.74 L 57.4076,-105.774 L 57.4109,-105.809
 L 57.4149,-105.844 L 57.4194,-105.878 L 57.4246,-105.913 L 57.4304,-105.947 L 57.4367,-105.982 L 57.4437,-106.016
 L 57.4512,-106.05 L 57.4594,-106.084 L 57.4681,-106.118 L 57.4775,-106.151 L 57.4874,-106.185 L 57.4979,-106.218
 L 57.509,-106.251 L 57.5206,-106.284 L 57.5328,-106.317 L 57.5456,-106.349 L 57.559,-106.381 L 57.5729,-106.413
 L 57.5874,-106.445 L 57.6024,-106.477 L 57.618,-106.508 L 57.6341,-106.539 L 57.6508,-106.57 L 57.6679,-106.6
 L 57.6857,-106.63 L 57.7039,-106.66 L 57.7227,-106.689 L 57.7419,-106.718 L 57.7617,-106.747 L 57.782,-106.776
 L 57.8027,-106.804 L 57.824,-106.831 L 57.8457,-106.859 L 57.8679,-106.886 L 57.8906,-106.912 L 57.9137,-106.938
 L 57.9373,-106.964 L 57.9613,-106.989 L 57.9858,-107.014 L 58.0107,-107.039 L 58.036,-107.063 L 58.0617,-107.086
 L 58.0879,-107.109 L 58.1144,-107.132 L 58.1414,-107.154 L 58.1687,-107.176 L 58.1964,-107.197 L 58.2244,-107.218
 L 58.2528,-107.238 L 58.2816,-107.258 L 58.3107,-107.277 L 58.3401,-107.296 L 58.3699,-107.314 L 58.4,-107.332
 L 58.4304,-107.349 L 58.461,-107.366 L 58.492,-107.382 L 58.5233,-107.398 L 58.5547,-107.413 L 58.5865,-107.427
 L 58.6185,-107.441 L 58.6508,-107.454 L 58.6833,-107.467 L 58.716,-107.479 L 58.7489,-107.491 L 58.782,-107.502
 L 58.8152,-107.513 L 58.8487,-107.523 L 58.8824,-107.532 L 58.9162,-107.541 L 58.9501,-107.549 L 58.9842,-107.556
 L 59.0184,-107.563 L 59.0527,-107.57 L 59.0871,-107.575 L 59.1216,-107.581 L 59.1562,-107.585 L 59.1909,-107.589
 L 59.2257,-107.592 L 59.2605,-107.595 L 59.2953,-107.597 L 59.3302,-107.599 L 59.3651,-107.6 L 59.4,-107.6
 L 59.4349,-107.6 L 59.4698,-107.599 L 59.5047,-107.597 L 59.5395,-107.595 L 59.5743,-107.592 L 59.6091,-107.589
 L 59.6437,-107.585 L 59.6783,-107.581 L 59.7129,-107.575 L 59.7473,-107.57 L 59.7816,-107.563 L 59.8158,-107.556
 L 59.8499,-107.549 L 59.8838,-107.541 L 59.9176,-107.532 L 59.9513,-107.523 L 59.9847,-107.513 L 60.018,-107.502
 L 60.0511,-107.491 L 60.084,-107.479 L 60.1167,-107.467 L 60.1492,-107.454 L 60.1815,-107.441 L 60.2135,-107.427
 L 60.2452,-107.413 L 60.2767,-107.398 L 60.308,-107.382 L 60.3389,-107.366 L 60.3696,-107.349 L 60.4,-107.332
 L 60.4301,-107.314 L 60.4598,-107.296 L 60.4893,-107.277 L 60.5184,-107.258 L 60.5471,-107.238 L 60.5756,-107.218
 L 60.6036,-107.197 L 60.6313,-107.176 L 60.6586,-107.154 L 60.6856,-107.132 L 60.7121,-107.109 L 60.7383,-107.086
 L 60.764,-107.063 L 60.7893,-107.039 L 60.8142,-107.014 L 60.8387,-106.989 L 60.8627,-106.964 L 60.8863,-106.938
 L 60.9094,-106.912 L 60.9321,-106.886 L 60.9543,-106.859 L 60.976,-106.831 L 60.9973,-106.804 L 61.018,-106.776
 L 61.0383,-106.747 L 61.0581,-106.718 L 61.0773,-106.689 L 61.0961,-106.66 L 61.1143,-106.63 L 61.132,-106.6
 L 61.1492,-106.57 L 61.1659,-106.539 L 61.182,-106.508 L 61.1976,-106.477 L 61.2126,-106.445 L 61.2271,-106.413
 L 61.241,-106.381 L 61.2544,-106.349 L 61.2672,-106.317 L 61.2794,-106.284 L 61.291,-106.251 L 61.3021,-106.218
 L 61.3126,-106.185 L 61.3225,-106.151 L 61.3318,-106.118 L 61.3406,-106.084 L 61.3487,-106.05 L 61.3563,-106.016
 L 61.3633,-105.982 L 61.3696,-105.947 L 61.3754,-105.913 L 61.3805,-105.878 L 61.3851,-105.844 L 61.389,-105.809
 L 61.3924,-105.774 L 61.3951,-105.74 L 61.3972,-105.705 L 61.3988,-105.67 L 61.3997,-105.635 L 61.4,-105.6
 L 61.3997,-105.565 L 61.3988,-105.53 L 61.3972,-105.495 L 61.3951,-105.46 L 61.3924,-105.426 L 61.389,-105.391
 L 61.3851,-105.356 L 61.3805,-105.322 L 61.3754,-105.287 L 61.3696,-105.253 L 61.3633,-105.218 L 61.3563,-105.184
 L 61.3487,-105.15 L 61.3406,-105.116 L 61.3318,-105.082 L 61.3225,-105.049 L 61.3126,-105.015 L 61.3021,-104.982
 L 61.291,-104.949 L 61.2794,-104.916 L 61.2672,-104.883 L 61.2544,-104.851 L 61.241,-104.819 L 61.2271,-104.787
 L 61.2126,-104.755 L 61.1976,-104.723 L 61.182,-104.692 L 61.1659,-104.661 L 61.1492,-104.63 L 61.132,-104.6
 L 61.1143,-104.57 L 61.0961,-104.54 L 61.0773,-104.511 L 61.0581,-104.482 L 61.0383,-104.453 L 61.018,-104.424
 L 60.9973,-104.396 L 60.976,-104.369 L 60.9543,-104.341 L 60.9321,-104.314 L 60.9094,-104.288 L 60.8863,-104.262
 L 60.8627,-104.236 L 60.8387,-104.211 L 60.8142,-104.186 L 60.7893,-104.161 L 60.764,-104.137 L 60.7383,-104.114
 L 60.7121,-104.091 L 60.6856,-104.068 L 60.6586,-104.046 L 60.6313,-104.024 L 60.6036,-104.003 L 60.5756,-103.982
 L 60.5471,-103.962 L 60.5184,-103.942 L 60.4893,-103.923 L 60.4598,-103.904 L 60.4301,-103.886 L 60.4,-103.868
 L 60.3696,-103.851 L 60.3389,-103.834 L 60.308,-103.818 L 60.2767,-103.802 L 60.2452,-103.787 L 60.2135,-103.773
 L 60.1815,-103.759 L 60.1492,-103.746 L 60.1167,-103.733 L 60.084,-103.721 L 60.0511,-103.709 L 60.018,-103.698
 L 59.9847,-103.687 L 59.9513,-103.677 L 59.9176,-103.668 L 59.8838,-103.659 L 59.8499,-103.651 L 59.8158,-103.644
 L 59.7816,-103.637 L 59.7473,-103.63 L 59.7129,-103.625 L 59.6783,-103.619 L 59.6437,-103.615 L 59.6091,-103.611
 L 59.5743,-103.608 L 59.5395,-103.605 L 59.5047,-103.603 L 59.4698,-103.601 L 59.4349,-103.6 L 59.4,-103.6
 z
M 84.5,-44.5 L 84.5,-68.5 L 88.5,-68.5 L 88.5,-44.5 z
M 92.5,-44.5 L 92.5,-68.5 L 96.5,-68.5 L 96.5,-44.5 z
M 100.5,-44.5 L 100.5,-68.5 L 104.5,-68.5 L 104.5,-44.5 z
M 59.3651,-5.4003 L 59.3302,-5.40121 L 59.2953,-5.40274 L 59.2605,-5.40486 L 59.2257,-5.40761 L 59.1909,-5.41095
 L 59.1562,-5.4149 L 59.1216,-5.41945 L 59.0871,-5.42462 L 59.0527,-5.43037 L 59.0184,-5.43674 L 58.9842,-5.4437
 L 58.9501,-5.45125 L 58.9162,-5.4594 L 58.8824,-5.46814 L 58.8487,-5.47746 L 58.8152,-5.48738 L 58.782,-5.49788
 L 58.7489,-5.50896 L 58.716,-5.52061 L 58.6833,-5.53284 L 58.6508,-5.54562 L 58.6185,-5.55898 L 58.5865,-5.57291
 L 58.5547,-5.58737 L 58.5233,-5.6024 L 58.492,-5.61798 L 58.461,-5.63409 L 58.4304,-5.65076 L 58.4,-5.66794
 L 58.3699,-5.68565 L 58.3401,-5.7039 L 58.3107,-5.72266 L 58.2816,-5.74191 L 58.2528,-5.76169 L 58.2244,-5.78195
 L 58.1964,-5.80272 L 58.1687,-5.82397 L 58.1414,-5.8457 L 58.1144,-5.8679 L 58.0879,-5.89058 L 58.0617,-5.9137
 L 58.036,-5.93729 L 58.0107,-5.96132 L 57.9858,-5.98578 L 57.9613,-6.01068 L 57.9373,-6.036 L 57.9137,-6.06174
 L 57.8906,-6.08788 L 57.8679,-6.11441 L 57.8457,-6.14136 L 57.824,-6.16867 L 57.8027,-6.19637 L 57.782,-6.22443
 L 57.7617,-6.25284 L 57.7419,-6.2816 L 57.7227,-6.31071 L 57.7039,-6.34015 L 57.6857,-6.36992 L 57.6679,-6.39999
 L 57.6508,-6.43037 L 57.6341,-6.46104 L 57.618,-6.492 L 57.6024,-6.52325 L 57.5874,-6.55475 L 57.5729,-6.58652
 L 57.559,-6.61853 L 57.5456,-6.65077 L 57.5328,-6.68326 L 57.5206,-6.71596 L 57.509,-6.74886 L 57.4979,-6.78195
 L 57.4874,-6.81525 L 57.4775,-6.84872 L 57.4681,-6.88235 L 57.4594,-6.91615 L 57.4512,-6.95009 L 57.4437,-6.98416
 L 57.4367,-7.01837 L 57.4304,-7.05269 L 57.4246,-7.08713 L 57.4194,-7.12164 L 57.4149,-7.15625 L 57.4109,-7.19093
 L 57.4076,-7.22568 L 57.4049,-7.26048 L 57.4027,-7.29532 L 57.4012,-7.3302 L 57.4003,-7.36508 L 57.4,-7.39999
 L 57.4003,-7.43489 L 57.4012,-7.46979 L 57.4027,-7.50467 L 57.4049,-7.53951 L 57.4076,-7.57431 L 57.4109,-7.60905
 L 57.4149,-7.64374 L 57.4194,-7.67834 L 57.4246,-7.71286 L 57.4304,-7.74728 L 57.4367,-7.78162 L 57.4437,-7.81581
 L 57.4512,-7.8499 L 57.4594,-7.88383 L 57.4681,-7.91763 L 57.4775,-7.95126 L 57.4874,-7.98474 L 57.4979,-8.01802
 L 57.509,-8.05113 L 57.5206,-8.08403 L 57.5328,-8.11673 L 57.5456,-8.1492 L 57.559,-8.18146 L 57.5729,-8.21347
 L 57.5874,-8.24522 L 57.6024,-8.27673 L 57.618,-8.30797 L 57.6341,-8.33893 L 57.6508,-8.36961 L 57.6679,-8.39999
 L 57.6857,-8.43007 L 57.7039,-8.45982 L 57.7227,-8.48927 L 57.7419,-8.51837 L 57.7617,-8.54715 L 57.782,-8.57556
 L 57.8027,-8.60362 L 57.824,-8.63132 L 57.8457,-8.65863 L 57.8679,-8.68556 L 57.8906,-8.71211 L 57.9137,-8.73825
 L 57.9373,-8.76399 L 57.9613,-8.78931 L 57.9858,-8.81421 L 58.0107,-8.83867 L 58.036,-8.8627 L 58.0617,-8.88628
 L 58.0879,-8.90941 L 58.1144,-8.93208 L 58.1414,-8.95428 L 58.1687,-8.97601 L 58.1964,-8.99727 L 58.2244,-9.01802
 L 58.2528,-9.0383 L 58.2816,-9.05807 L 58.3107,-9.07733 L 58.3401,-9.09608 L 58.3699,-9.11433 L 58.4,-9.13205
 L 58.4304,-9.14923 L 58.461,-9.16589 L 58.492,-9.18201 L 58.5233,-9.19759 L 58.5547,-9.2126 L 58.5865,-9.22708
 L 58.6185,-9.241 L 58.6508,-9.25436 L 58.6833,-9.26715 L 58.716,-9.27937 L 58.7489,-9.29103 L 58.782,-9.30211
 L 58.8152,-9.31261 L 58.8487,-9.32251 L 58.8824,-9.33185 L 58.9162,-9.34059 L 58.9501,-9.34874 L 58.9842,-9.35629
 L 59.0184,-9.36325 L 59.0527,-9.36961 L 59.0871,-9.37537 L 59.1216,-9.38052 L 59.1562,-9.38509 L 59.1909,-9.38904
 L 59.2257,-9.39238 L 59.2605,-9.39513 L 59.2953,-9.39725 L 59.3302,-9.39877 L 59.3651,-9.39969 L 59.4,-9.39999
 L 59.4349,-9.39969 L 59.4698,-9.39877 L 59.5047,-9.39725 L 59.5395,-9.39513 L 59.5743,-9.39238 L 59.6091,-9.38904
 L 59.6437,-9.38509 L 59.6783,-9.38052 L 59.7129,-9.37537 L 59.7473,-9.36961 L 59.7816,-9.36325 L 59.8158,-9.35629
 L 59.8499,-9.34874 L 59.8838,-9.34059 L 59.9176,-9.33185 L 59.9513,-9.32251 L 59.9847,-9.31261 L 60.018,-9.30211
 L 60.0511,-9.29103 L 60.084,-9.27937 L 60.1167,-9.26715 L 60.1492,-9.25436 L 60.1815,-9.241 L 60.2135,-9.22708
 L 60.2452,-9.2126 L 60.2767,-9.19759 L 60.308,-9.18201 L 60.3389,-9.16589 L 60.3696,-9.14923 L 60.4,-9.13205
 L 60.4301,-9.11433 L 60.4598,-9.09608 L 60.4893,-9.07733 L 60.5184,-9.05807 L 60.5471,-9.0383 L 60.5756,-9.01802
 L 60.6036,-8.99727 L 60.6313,-8.97601 L 60.6586,-8.95428 L 60.6856,-8.93208 L 60.7121,-8.90941 L 60.7383,-8.88628
 L 60.764,-8.8627 L 60.7893,-8.83867 L 60.8142,-8.81421 L 60.8387,-8.78931 L 60.8627,-8.76399 L 60.8863,-8.73825
 L 60.9094,-8.71211 L 60.9321,-8.68556 L 60.9543,-8.65863 L 60.976,-8.63132 L 60.9973,-8.60362 L 61.018,-8.57556
 L 61.0383,-8.54715 L 61.0581,-8.51837 L 61.0773,-8.48927 L 61.0961,-8.45982 L 61.1143,-8.43007 L 61.132,-8.39999
 L 61.1492,-8.36961 L 61.1659,-8.33893 L 61.182,-8.30797 L 61.1976,-8.27673 L 61.2126,-8.24522 L 61.2271,-8.21347
 L 61.241,-8.18146 L 61.2544,-8.1492 L 61.2672,-8.11673 L 61.2794,-8.08403 L 61.291,-8.05113 L 61.3021,-8.01802
 L 61.3126,-7.98474 L 61.3225,-7.95126 L 61.3318,-7.91763 L 61.3406,-7.88383 L 61.3487,-7.8499 L 61.3563,-7.81581
 L 61.3633,-7.78162 L 61.3696,-7.74728 L 61.3754,-7.71286 L 61.3805,-7.67834 L 61.3851,-7.64374 L 61.389,-7.60905
 L 61.3924,-7.57431 L 61.3951,-7.53951 L 61.3972,-7.50467 L 61.3988,-7.46979 L 61.3997,-7.43489 L 61.4,-7.39999
 L 61.3997,-7.36508 L 61.3988,-7.3302 L 61.3972,-7.29532 L 61.3951,-7.26048 L 61.3924,-7.22568 L 61.389,-7.19093
 L 61.3851,-7.15625 L 61.3805,-7.12164 L 61.3754,-7.08713 L 61.3696,-7.05269 L 61.3633,-7.01837 L 61.3563,-6.98416
 L 61.3487,-6.95009 L 61.3406,-6.91615 L 61.3318,-6.88235 L 61.3225,-6.84872 L 61.3126,-6.81525 L 61.3021,-6.78195
 L 61.291,-6.74886 L 61.2794,-6.71596 L 61.2672,-6.68326 L 61.2544,-6.65077 L 61.241,-6.61853 L 61.2271,-6.58652
 L 61.2126,-6.55475 L 61.1976,-6.52325 L 61.182,-6.492 L 61.1659,-6.46104 L 61.1492,-6.43037 L 61.132,-6.39999
 L 61.1143,-6.36992 L 61.0961,-6.34015 L 61.0773,-6.31071 L 61.0581,-6.2816 L 61.0383,-6.25284 L 61.018,-6.22443
 L 60.9973,-6.19637 L 60.976,-6.16867 L 60.9543,-6.14136 L 60.9321,-6.11441 L 60.9094,-6.08788 L 60.8863,-6.06174
 L 60.8627,-6.036 L 60.8387,-6.01068 L 60.8142,-5.98578 L 60.7893,-5.96132 L 60.764,-5.93729 L 60.7383,-5.9137
 L 60.7121,-5.89058 L 60.6856,-5.8679 L 60.6586,-5.8457 L 60.6313,-5.82397 L 60.6036,-5.80272 L 60.5756,-5.78195
 L 60.5471,-5.76169 L 60.5184,-5.74191 L 60.4893,-5.72266 L 60.4598,-5.7039 L 60.4301,-5.68565 L 60.4,-5.66794
 L 60.3696,-5.65076 L 60.3389,-5.63409 L 60.308,-5.61798 L 60.2767,-5.6024 L 60.2452,-5.58737 L 60.2135,-5.57291
 L 60.1815,-5.55898 L 60.1492,-5.54562 L 60.1167,-5.53284 L 60.084,-5.52061 L 60.0511,-5.50896 L 60.018,-5.49788
 L 59.9847,-5.48738 L 59.9513,-5.47746 L 59.9176,-5.46814 L 59.8838,-5.4594 L 59.8499,-5.45125 L 59.8158,-5.4437
 L 59.7816,-5.43674 L 59.7473,-5.43037 L 59.7129,-5.42462 L 59.6783,-5.41945 L 59.6437,-5.4149 L 59.6091,-5.41095
 L 59.5743,-5.40761 L 59.5395,-5.40486 L 59.5047,-5.40274 L 59.4698,-5.40121 L 59.4349,-5.4003 L 59.4,-5.39999
 z
M 133.565,-5.4003 L 133.53,-5.40121 L 133.495,-5.40274 L 133.46,-5.40486 L 133.426,-5.40761 L 133.391,-5.41095
 L 133.356,-5.4149 L 133.322,-5.41945 L 133.287,-5.42462 L 133.253,-5.43037 L 133.218,-5.43674 L 133.184,-5.4437
 L 133.15,-5.45125 L 133.116,-5.4594 L 133.082,-5.46814 L 133.049,-5.47746 L 133.015,-5.48738 L 132.982,-5.49788
 L 132.949,-5.50896 L 132.916,-5.52061 L 132.883,-5.53284 L 132.851,-5.54562 L 132.819,-5.55898 L 132.787,-5.57291
 L 132.755,-5.58737 L 132.723,-5.6024 L 132.692,-5.61798 L 132.661,-5.63409 L 132.63,-5.65076 L 132.6,-5.66794
 L 132.57,-5.68565 L 132.54,-5.7039 L 132.511,-5.72266 L 132.482,-5.74191 L 132.453,-5.76169 L 132.424,-5.78195
 L 132.396,-5.80272 L 132.369,-5.82397 L 132.341,-5.8457 L 132.314,-5.8679 L 132.288,-5.89058 L 132.262,-5.9137
 L 132.236,-5.93729 L 132.211,-5.96132 L 132.186,-5.98578 L 132.161,-6.01068 L 132.137,-6.036 L 132.114,-6.06174
 L 132.091,-6.08788 L 132.068,-6.11441 L 132.046,-6.14136 L 132.024,-6.16867 L 132.003,-6.19637 L 131.982,-6.22443
 L 131.962,-6.25284 L 131.942,-6.2816 L 131.923,-6.31071 L 131.904,-6.34015 L 131.886,-6.36992 L 131.868,-6.39999
 L 131.851,-6.43037 L 131.834,-6.46104 L 131.818,-6.492 L 131.802,-6.52325 L 131.787,-6.55475 L 131.773,-6.58652
 L 131.759,-6.61853 L 131.746,-6.65077 L 131.733,-6.68326 L 131.721,-6.71596 L 131.709,-6.74886 L 131.698,-6.78195
 L 131.687,-6.81525 L 131.677,-6.84872 L 131.668,-6.88235 L 131.659,-6.91615 L 131.651,-6.95009 L 131.644,-6.98416
 L 131.637,-7.01837 L 131.63,-7.05269 L 131.625,-7.08713 L 131.619,-7.12164 L 131.615,-7.15625 L 131.611,-7.19093
 L 131.608,-7.22568 L 131.605,-7.26048 L 131.603,-7.29532 L 131.601,-7.3302 L 131.6,-7.36508 L 131.6,-7.39999
 L 131.6,-7.43489 L 131.601,-7.46979 L 131.603,-7.50467 L 131.605,-7.53951 L 131.608,-7.57431 L 131.611,-7.60905
 L 131.615,-7.64374 L 131.619,-7.67834 L 131.625,-7.71286 L 131.63,-7.74728 L 131.637,-7.78162 L 131.644,-7.81581
 L 131.651,-7.8499 L 131.659,-7.88383 L 131.668,-7.91763 L 131.677,-7.95126 L 131.687,-7.98474 L 131.698,-8.01802
 L 131.709,-8.05113 L 131.721,-8.08403 L 131.733,-8.11673 L 131.746,-8.1492 L 131.759,-8.18146 L 131.773,-8.21347
 L 131.787,-8.24522 L 131.802,-8.27673 L 131.818,-8.30797 L 131.834,-8.33893 L 131.851,-8.36961 L 131.868,-8.39999
 L 131.886,-8.43007 L 131.904,-8.45982 L 131.923,-8.48927 L 131.942,-8.51837 L 131.962,-8.54715 L 131.982,-8.57556
 L 132.003,-8.60362 L 132.024,-8.63132 L 132.046,-8.65863 L 132.068,-8.68556 L 132.091,-8.71211 L 132.114,-8.73825
 L 132.137,-8.76399 L 132.161,-8.78931 L 132.186,-8.81421 L 132.211,-8.83867 L 132.236,-8.8627 L 132.262,-8.88628
 L 132.288,-8.90941 L 132.314,-8.93208 L 132.341,-8.95428 L 132.369,-8.97601 L 132.396,-8.99727 L 132.424,-9.01802
 L 132.453,-9.0383 L 132.482,-9.05807 L 132.511,-9.07733 L 132.54,-9.09608 L 132.57,-9.11433 L 132.6,-9.13205
 L 132.63,-9.14923 L 132.661,-9.16589 L 132.692,-9.18201 L 132.723,-9.19759 L 132.755,-9.2126 L 132.787,-9.22708
 L 132.819,-9.241 L 132.851,-9.25436 L 132.883,-9.26715 L 132.916,-9.27937 L 132.949,-9.29103 L 132.982,-9.30211
 L 133.015,-9.31261 L 133.049,-9.32251 L 133.082,-9.33185 L 133.116,-9.34059 L 133.15,-9.34874 L 133.184,-9.35629
 L 133.218,-9.36325 L 133.253,-9.36961 L 133.287,-9.37537 L 133.322,-9.38052 L 133.356,-9.38509 L 133.391,-9.38904
 L 133.426,-9.39238 L 133.46,-9.39513 L 133.495,-9.39725 L 133.53,-9.39877 L 133.565,-9.39969 L 133.6,-9.39999
 L 133.635,-9.39969 L 133.67,-9.39877 L 133.705,-9.39725 L 133.74,-9.39513 L 133.774,-9.39238 L 133.809,-9.38904
 L 133.844,-9.38509 L 133.878,-9.38052 L 133.913,-9.37537 L 133.947,-9.36961 L 133.982,-9.36325 L 134.016,-9.35629
 L 134.05,-9.34874 L 134.084,-9.34059 L 134.118,-9.33185 L 134.151,-9.32251 L 134.185,-9.31261 L 134.218,-9.30211
 L 134.251,-9.29103 L 134.284,-9.27937 L 134.317,-9.26715 L 134.349,-9.25436 L 134.381,-9.241 L 134.413,-9.22708
 L 134.445,-9.2126 L 134.477,-9.19759 L 134.508,-9.18201 L 134.539,-9.16589 L 134.57,-9.14923 L 134.6,-9.13205
 L 134.63,-9.11433 L 134.66,-9.09608 L 134.689,-9.07733 L 134.718,-9.05807 L 134.747,-9.0383 L 134.776,-9.01802
 L 134.804,-8.99727 L 134.831,-8.97601 L 134.859,-8.95428 L 134.886,-8.93208 L 134.912,-8.90941 L 134.938,-8.88628
 L 134.964,-8.8627 L 134.989,-8.83867 L 135.014,-8.81421 L 135.039,-8.78931 L 135.063,-8.76399 L 135.086,-8.73825
 L 135.109,-8.71211 L 135.132,-8.68556 L 135.154,-8.65863 L 135.176,-8.63132 L 135.197,-8.60362 L 135.218,-8.57556
 L 135.238,-8.54715 L 135.258,-8.51837 L 135.277,-8.48927 L 135.296,-8.45982 L 135.314,-8.43007 L 135.332,-8.39999
 L 135.349,-8.36961 L 135.366,-8.33893 L 135.382,-8.30797 L 135.398,-8.27673 L 135.413,-8.24522 L 135.427,-8.21347
 L 135.441,-8.18146 L 135.454,-8.1492 L 135.467,-8.11673 L 135.479,-8.08403 L 135.491,-8.05113 L 135.502,-8.01802
 L 135.513,-7.98474 L 135.523,-7.95126 L 135.532,-7.91763 L 135.541,-7.88383 L 135.549,-7.8499 L 135.556,-7.81581
 L 135.563,-7.78162 L 135.57,-7.74728 L 135.575,-7.71286 L 135.581,-7.67834 L 135.585,-7.64374 L 135.589,-7.60905
 L 135.592,-7.57431 L 135.595,-7.53951 L 135.597,-7.50467 L 135.599,-7.46979 L 135.6,-7.43489 L 135.6,-7.39999
 L 135.6,-7.36508 L 135.599,-7.3302 L 135.597,-7.29532 L 135.595,-7.26048 L 135.592,-7.22568 L 135.589,-7.19093
 L 135.585,-7.15625 L 135.581,-7.12164 L 135.575,-7.08713 L 135.57,-7.05269 L 135.563,-7.01837 L 135.556,-6.98416
 L 135.549,-6.95009 L 135.541,-6.91615 L 135.532,-6.88235 L 135.523,-6.84872 L 135.513,-6.81525 L 135.502,-6.78195
 L 135.491,-6.74886 L 135.479,-6.71596 L 135.467,-6.68326 L 135.454,-6.65077 L 135.441,-6.61853 L 135.427,-6.58652
 L 135.413,-6.55475 L 135.398,-6.52325 L 135.382,-6.492 L 135.366,-6.46104 L 135.349,-6.43037 L 135.332,-6.39999
 L 135.314,-6.36992 L 135.296,-6.34015 L 135.277,-6.31071 L 135.258,-6.2816 L 135.238,-6.25284 L 135.218,-6.22443
 L 135.197,-6.19637 L 135.176,-6.16867 L 135.154,-6.14136 L 135.132,-6.11441 L 135.109,-6.08788 L 135.086,-6.06174
 L 135.063,-6.036 L 135.039,-6.01068 L 135.014,-5.98578 L 134.989,-5.96132 L 134.964,-5.93729 L 134.938,-5.9137
 L 134.912,-5.89058 L 134.886,-5.8679 L 134.859,-5.8457 L 134.831,-5.82397 L 134.804,-5.80272 L 134.776,-5.78195
 L 134.747,-5.76169 L 134.718,-5.74191 L 134.689,-5.72266 L 134.66,-5.7039 L 134.63,-5.68565 L 134.6,-5.66794
 L 134.57,-5.65076 L 134.539,-5.63409 L 134.508,-5.61798 L 134.477,-5.6024 L 134.445,-5.58737 L 134.413,-5.57291
 L 134.381,-5.55898 L 134.349,-5.54562 L 134.317,-5.53284 L 134.284,-5.52061 L 134.251,-5.50896 L 134.218,-5.49788
 L 134.185,-5.48738 L 134.151,-5.47746 L 134.118,-5.46814 L 134.084,-5.4594 L 134.05,-5.45125 L 134.016,-5.4437
 L 133.982,-5.43674 L 133.947,-5.43037 L 133.913,-5.42462 L 133.878,-5.41945 L 133.844,-5.4149 L 133.809,-5.41095
 L 133.774,-5.40761 L 133.74,-5.40486 L 133.705,-5.40274 L 133.67,-5.40121 L 133.635,-5.4003 L 133.6,-5.39999
 z
M 36,-104 L 12,-104 L 11.7906,-103.998 L 11.5812,-103.993 L 11.372,-103.984 L 11.1629,-103.971
 L 10.9541,-103.954 L 10.7457,-103.934 L 10.5376,-103.911 L 10.3299,-103.883 L 10.1228,-103.852 L 9.91623,-103.818
 L 9.7103,-103.78 L 9.50507,-103.738 L 9.3006,-103.692 L 9.09694,-103.644 L 8.89418,-103.591 L 8.69235,-103.535
 L 8.49155,-103.476 L 8.29181,-103.413 L 8.09319,-103.346 L 7.89577,-103.276 L 7.69958,-103.203 L 7.50473,-103.126
 L 7.31123,-103.046 L 7.11917,-102.963 L 6.92859,-102.876 L 6.73955,-102.786 L 6.55212,-102.692 L 6.36635,-102.595
 L 6.1823,-102.495 L 6,-102.392 L 5.81955,-102.286 L 5.64098,-102.177 L 5.46434,-102.064 L 5.28969,-101.948
 L 5.1171,-101.83 L 4.94658,-101.708 L 4.77823,-101.584 L 4.61208,-101.456 L 4.44817,-101.326 L 4.28656,-101.193
 L 4.1273,-101.057 L 3.97044,-100.918 L 3.81602,-100.776 L 3.66411,-100.632 L 3.51472,-100.485 L 3.36794,-100.336
 L 3.22377,-100.184 L 3.08228,-100.03 L 2.9435,-99.8727 L 2.80748,-99.7134 L 2.67426,-99.5518 L 2.54388,-99.3879
 L 2.41638,-99.2218 L 2.29181,-99.0534 L 2.17018,-98.8829 L 2.05156,-98.7103 L 1.93596,-98.5357 L 1.82343,-98.359
 L 1.714,-98.1805 L 1.6077,-98 L 1.50458,-97.8177 L 1.40463,-97.6337 L 1.30792,-97.4479 L 1.21448,-97.2605
 L 1.12431,-97.0714 L 1.03746,-96.8808 L 0.953949,-96.6888 L 0.873795,-96.4953 L 0.797043,-96.3004 L 0.723694,-96.1042
 L 0.653778,-95.9068 L 0.587326,-95.7082 L 0.524353,-95.5085 L 0.464874,-95.3076 L 0.408905,-95.1058 L 0.356461,-94.9031
 L 0.307571,-94.6994 L 0.262238,-94.4949 L 0.220474,-94.2897 L 0.182312,-94.0838 L 0.147751,-93.8772 L 0.116791,-93.6701
 L 0.089447,-93.4624 L 0.0657501,-93.2543 L 0.0456696,-93.0459 L 0.0292358,-92.8371 L 0.016449,-92.628 L 0.00732422,-92.4188
 L 0.00183105,-92.2094 L 0,-92 L 0.00183105,-91.7906 L 0.00732422,-91.5812 L 0.016449,-91.372 L 0.0292358,-91.1629
 L 0.0456696,-90.9541 L 0.0657501,-90.7457 L 0.089447,-90.5376 L 0.116791,-90.3299 L 0.147751,-90.1228 L 0.182312,-89.9162
 L 0.220474,-89.7103 L 0.262238,-89.5051 L 0.307571,-89.3006 L 0.356461,-89.0969 L 0.408905,-88.8942 L 0.464874,-88.6924
 L 0.524353,-88.4915 L 0.587326,-88.2918 L 0.653778,-88.0932 L 0.723694,-87.8958 L 0.797043,-87.6996 L 0.873795,-87.5047
 L 0.953949,-87.3112 L 1.03746,-87.1192 L 1.12431,-86.9286 L 1.21448,-86.7395 L 1.30792,-86.5521 L 1.40463,-86.3663
 L 1.50458,-86.1823 L 1.6077,-86 L 1.714,-85.8195 L 1.82343,-85.641 L 1.93596,-85.4643 L 2.05156,-85.2897
 L 2.17018,-85.1171 L 2.29181,-84.9466 L 2.41638,-84.7782 L 2.54388,-84.6121 L 2.67426,-84.4482 L 2.80748,-84.2866
 L 2.9435,-84.1273 L 3.08228,-83.9704 L 3.22377,-83.816 L 3.36794,-83.6641 L 3.51472,-83.5147 L 3.66411,-83.3679
 L 3.81602,-83.2238 L 3.97044,-83.0823 L 4.1273,-82.9435 L 4.28656,-82.8075 L 4.44817,-82.6743 L 4.61208,-82.5439
 L 4.77823,-82.4164 L 4.94658,-82.2918 L 5.1171,-82.1702 L 5.28969,-82.0516 L 5.46434,-81.936 L 5.64098,-81.8234
 L 5.81955,-81.714 L 6,-81.6077 L 6.1823,-81.5046 L 6.36635,-81.4046 L 6.55212,-81.3079 L 6.73955,-81.2145
 L 6.92859,-81.1243 L 7.11917,-81.0375 L 7.31123,-80.9539 L 7.50473,-80.8738 L 7.69958,-80.797 L 7.89577,-80.7237
 L 8.09319,-80.6538 L 8.29181,-80.5873 L 8.49155,-80.5244 L 8.69235,-80.4649 L 8.89418,-80.4089 L 9.09694,-80.3565
 L 9.3006,-80.3076 L 9.50507,-80.2622 L 9.7103,-80.2205 L 9.91623,-80.1823 L 10.1228,-80.1478 L 10.3299,-80.1168
 L 10.5376,-80.0894 L 10.7457,-80.0658 L 10.9541,-80.0457 L 11.1629,-80.0292 L 11.372,-80.0164 L 11.5812,-80.0073
 L 11.7906,-80.0018 L 12,-80 L 36,-80 z
M 11.9651,-90.0003 L 11.9302,-90.0012 L 11.8953,-90.0027 L 11.8605,-90.0049 L 11.8257,-90.0076 L 11.791,-90.011
 L 11.7563,-90.0149 L 11.7217,-90.0195 L 11.6871,-90.0246 L 11.6527,-90.0304 L 11.6184,-90.0368 L 11.5842,-90.0437
 L 11.5501,-90.0513 L 11.5162,-90.0594 L 11.4824,-90.0682 L 11.4487,-90.0775 L 11.4153,-90.0874 L 11.382,-90.0979
 L 11.3489,-90.109 L 11.316,-90.1206 L 11.2833,-90.1328 L 11.2508,-90.1456 L 11.2186,-90.159 L 11.1865,-90.1729
 L 11.1548,-90.1874 L 11.1233,-90.2024 L 11.092,-90.218 L 11.0611,-90.2341 L 11.0304,-90.2508 L 11,-90.268
 L 10.9699,-90.2857 L 10.9402,-90.3039 L 10.9107,-90.3227 L 10.8816,-90.3419 L 10.8529,-90.3617 L 10.8244,-90.382
 L 10.7964,-90.4027 L 10.7687,-90.424 L 10.7414,-90.4457 L 10.7144,-90.4679 L 10.6879,-90.4906 L 10.6617,-90.5137
 L 10.636,-90.5373 L 10.6107,-90.5613 L 10.5858,-90.5858 L 10.5613,-90.6107 L 10.5373,-90.636 L 10.5137,-90.6617
 L 10.4906,-90.6879 L 10.4679,-90.7144 L 10.4457,-90.7414 L 10.424,-90.7687 L 10.4027,-90.7964 L 10.382,-90.8244
 L 10.3617,-90.8529 L 10.3419,-90.8816 L 10.3227,-90.9107 L 10.3039,-90.9402 L 10.2857,-90.9699 L 10.268,-91
 L 10.2508,-91.0304 L 10.2341,-91.0611 L 10.218,-91.092 L 10.2024,-91.1233 L 10.1874,-91.1548 L 10.1729,-91.1865
 L 10.159,-91.2186 L 10.1456,-91.2508 L 10.1328,-91.2833 L 10.1206,-91.316 L 10.109,-91.3489 L 10.0979,-91.382
 L 10.0874,-91.4153 L 10.0775,-91.4487 L 10.0682,-91.4824 L 10.0594,-91.5162 L 10.0513,-91.5501 L 10.0437,-91.5842
 L 10.0368,-91.6184 L 10.0304,-91.6527 L 10.0246,-91.6871 L 10.0195,-91.7217 L 10.0149,-91.7563 L 10.011,-91.791
 L 10.0076,-91.8257 L 10.0049,-91.8605 L 10.0027,-91.8953 L 10.0012,-91.9302 L 10.0003,-91.9651 L 10,-92
 L 10.0003,-92.0349 L 10.0012,-92.0698 L 10.0027,-92.1047 L 10.0049,-92.1395 L 10.0076,-92.1743 L 10.011,-92.209
 L 10.0149,-92.2437 L 10.0195,-92.2783 L 10.0246,-92.3129 L 10.0304,-92.3473 L 10.0368,-92.3816 L 10.0437,-92.4158
 L 10.0513,-92.4499 L 10.0594,-92.4838 L 10.0682,-92.5176 L 10.0775,-92.5513 L 10.0874,-92.5847 L 10.0979,-92.618
 L 10.109,-92.6511 L 10.1206,-92.684 L 10.1328,-92.7167 L 10.1456,-92.7492 L 10.159,-92.7814 L 10.1729,-92.8135
 L 10.1874,-92.8452 L 10.2024,-92.8767 L 10.218,-92.908 L 10.2341,-92.9389 L 10.2508,-92.9696 L 10.268,-93
 L 10.2857,-93.0301 L 10.3039,-93.0598 L 10.3227,-93.0893 L 10.3419,-93.1184 L 10.3617,-93.1471 L 10.382,-93.1756
 L 10.4027,-93.2036 L 10.424,-93.2313 L 10.4457,-93.2586 L 10.4679,-93.2856 L 10.4906,-93.3121 L 10.5137,-93.3383
 L 10.5373,-93.364 L 10.5613,-93.3893 L 10.5858,-93.4142 L 10.6107,-93.4387 L 10.636,-93.4627 L 10.6617,-93.4863
 L 10.6879,-93.5094 L 10.7144,-93.5321 L 10.7414,-93.5543 L 10.7687,-93.576 L 10.7964,-93.5973 L 10.8244,-93.618
 L 10.8529,-93.6383 L 10.8816,-93.6581 L 10.9107,-93.6773 L 10.9402,-93.6961 L 10.9699,-93.7143 L 11,-93.732
 L 11.0304,-93.7492 L 11.0611,-93.7659 L 11.092,-93.782 L 11.1233,-93.7976 L 11.1548,-93.8126 L 11.1865,-93.8271
 L 11.2186,-93.841 L 11.2508,-93.8544 L 11.2833,-93.8672 L 11.316,-93.8794 L 11.3489,-93.891 L 11.382,-93.9021
 L 11.4153,-93.9126 L 11.4487,-93.9225 L 11.4824,-93.9318 L 11.5162,-93.9406 L 11.5501,-93.9487 L 11.5842,-93.9563
 L 11.6184,-93.9632 L 11.6527,-93.9696 L 11.6871,-93.9754 L 11.7217,-93.9805 L 11.7563,-93.9851 L 11.791,-93.989
 L 11.8257,-93.9924 L 11.8605,-93.9951 L 11.8953,-93.9973 L 11.9302,-93.9988 L 11.9651,-93.9997 L 12,-94
 L 12.0349,-93.9997 L 12.0698,-93.9988 L 12.1047,-93.9973 L 12.1395,-93.9951 L 12.1743,-93.9924 L 12.209,-93.989
 L 12.2437,-93.9851 L 12.2783,-93.9805 L 12.3129,-93.9754 L 12.3473,-93.9696 L 12.3816,-93.9632 L 12.4158,-93.9563
 L 12.4499,-93.9487 L 12.4838,-93.9406 L 12.5176,-93.9318 L 12.5513,-93.9225 L 12.5847,-93.9126 L 12.618,-93.9021
 L 12.6511,-93.891 L 12.684,-93.8794 L 12.7167,-93.8672 L 12.7492,-93.8544 L 12.7814,-93.841 L 12.8135,-93.8271
 L 12.8452,-93.8126 L 12.8767,-93.7976 L 12.908,-93.782 L 12.9389,-93.7659 L 12.9696,-93.7492 L 13,-93.732
 L 13.0301,-93.7143 L 13.0598,-93.6961 L 13.0893,-93.6773 L 13.1184,-93.6581 L 13.1471,-93.6383 L 13.1756,-93.618
 L 13.2036,-93.5973 L 13.2313,-93.576 L 13.2586,-93.5543 L 13.2856,-93.5321 L 13.3121,-93.5094 L 13.3383,-93.4863
 L 13.364,-93.4627 L 13.3893,-93.4387 L 13.4142,-93.4142 L 13.4387,-93.3893 L 13.4627,-93.364 L 13.4863,-93.3383
 L 13.5094,-93.3121 L 13.5321,-93.2856 L 13.5543,-93.2586 L 13.576,-93.2313 L 13.5973,-93.2036 L 13.618,-93.1756
 L 13.6383,-93.1471 L 13.6581,-93.1184 L 13.6773,-93.0893 L 13.6961,-93.0598 L 13.7143,-93.0301 L 13.732,-93
 L 13.7492,-92.9696 L 13.7659,-92.9389 L 13.782,-92.908 L 13.7976,-92.8767 L 13.8126,-92.8452 L 13.8271,-92.8135
 L 13.841,-92.7814 L 13.8544,-92.7492 L 13.8672,-92.7167 L 13.8794,-92.684 L 13.891,-92.6511 L 13.9021,-92.618
 L 13.9126,-92.5847 L 13.9225,-92.5513 L 13.9318,-92.5176 L 13.9406,-92.4838 L 13.9487,-92.4499 L 13.9563,-92.4158
 L 13.9632,-92.3816 L 13.9696,-92.3473 L 13.9754,-92.3129 L 13.9805,-92.2783 L 13.9851,-92.2437 L 13.989,-92.209
 L 13.9924,-92.1743 L 13.9951,-92.1395 L 13.9973,-92.1047 L 13.9988,-92.0698 L 13.9997,-92.0349 L 14,-92
 L 13.9997,-91.9651 L 13.9988,-91.9302 L 13.9973,-91.8953 L 13.9951,-91.8605 L 13.9924,-91.8257 L 13.989,-91.791
 L 13.9851,-91.7563 L 13.9805,-91.7217 L 13.9754,-91.6871 L 13.9696,-91.6527 L 13.9632,-91.6184 L 13.9563,-91.5842
 L 13.9487,-91.5501 L 13.9406,-91.5162 L 13.9318,-91.4824 L 13.9225,-91.4487 L 13.9126,-91.4153 L 13.9021,-91.382
 L 13.891,-91.3489 L 13.8794,-91.316 L 13.8672,-91.2833 L 13.8544,-91.2508 L 13.841,-91.2186 L 13.8271,-91.1865
 L 13.8126,-91.1548 L 13.7976,-91.1233 L 13.782,-91.092 L 13.7659,-91.0611 L 13.7492,-91.0304 L 13.732,-91
 L 13.7143,-90.9699 L 13.6961,-90.9402 L 13.6773,-90.9107 L 13.6581,-90.8816 L 13.6383,-90.8529 L 13.618,-90.8244
 L 13.5973,-90.7964 L 13.576,-90.7687 L 13.5543,-90.7414 L 13.5321,-90.7144 L 13.5094,-90.6879 L 13.4863,-90.6617
 L 13.4627,-90.636 L 13.4387,-90.6107 L 13.4142,-90.5858 L 13.3893,-90.5613 L 13.364,-90.5373 L 13.3383,-90.5137
 L 13.3121,-90.4906 L 13.2856,-90.4679 L 13.2586,-90.4457 L 13.2313,-90.424 L 13.2036,-90.4027 L 13.1756,-90.382
 L 13.1471,-90.3617 L 13.1184,-90.3419 L 13.0893,-90.3227 L 13.0598,-90.3039 L 13.0301,-90.2857 L 13,-90.268
 L 12.9696,-90.2508 L 12.9389,-90.2341 L 12.908,-90.218 L 12.8767,-90.2024 L 12.8452,-90.1874 L 12.8135,-90.1729
 L 12.7814,-90.159 L 12.7492,-90.1456 L 12.7167,-90.1328 L 12.684,-90.1206 L 12.6511,-90.109 L 12.618,-90.0979
 L 12.5847,-90.0874 L 12.5513,-90.0775 L 12.5176,-90.0682 L 12.4838,-90.0594 L 12.4499,-90.0513 L 12.4158,-90.0437
 L 12.3816,-90.0368 L 12.3473,-90.0304 L 12.3129,-90.0246 L 12.2783,-90.0195 L 12.2437,-90.0149 L 12.209,-90.011
 L 12.1743,-90.0076 L 12.1395,-90.0049 L 12.1047,-90.0027 L 12.0698,-90.0012 L 12.0349,-90.0003 L 12,-90
 z
M 36,-76 L 12,-76 L 11.7906,-75.9982 L 11.5812,-75.9927 L 11.372,-75.9836 L 11.1629,-75.9708
 L 10.9541,-75.9543 L 10.7457,-75.9342 L 10.5376,-75.9106 L 10.3299,-75.8832 L 10.1228,-75.8522 L 9.91623,-75.8177
 L 9.7103,-75.7795 L 9.50507,-75.7378 L 9.3006,-75.6924 L 9.09694,-75.6435 L 8.89418,-75.5911 L 8.69235,-75.5351
 L 8.49155,-75.4756 L 8.29181,-75.4127 L 8.09319,-75.3462 L 7.89577,-75.2763 L 7.69958,-75.203 L 7.50473,-75.1262
 L 7.31123,-75.0461 L 7.11917,-74.9625 L 6.92859,-74.8757 L 6.73955,-74.7855 L 6.55212,-74.6921 L 6.36635,-74.5954
 L 6.1823,-74.4954 L 6,-74.3923 L 5.81955,-74.286 L 5.64098,-74.1766 L 5.46434,-74.064 L 5.28969,-73.9484
 L 5.1171,-73.8298 L 4.94658,-73.7082 L 4.77823,-73.5836 L 4.61208,-73.4561 L 4.44817,-73.3257 L 4.28656,-73.1925
 L 4.1273,-73.0565 L 3.97044,-72.9177 L 3.81602,-72.7762 L 3.66411,-72.6321 L 3.51472,-72.4853 L 3.36794,-72.3359
 L 3.22377,-72.184 L 3.08228,-72.0296 L 2.9435,-71.8727 L 2.80748,-71.7134 L 2.67426,-71.5518 L 2.54388,-71.3879
 L 2.41638,-71.2218 L 2.29181,-71.0534 L 2.17018,-70.8829 L 2.05156,-70.7103 L 1.93596,-70.5357 L 1.82343,-70.359
 L 1.714,-70.1805 L 1.6077,-70 L 1.50458,-69.8177 L 1.40463,-69.6337 L 1.30792,-69.4479 L 1.21448,-69.2605
 L 1.12431,-69.0714 L 1.03746,-68.8808 L 0.953949,-68.6888 L 0.873795,-68.4953 L 0.797043,-68.3004 L 0.723694,-68.1042
 L 0.653778,-67.9068 L 0.587326,-67.7082 L 0.524353,-67.5085 L 0.464874,-67.3076 L 0.408905,-67.1058 L 0.356461,-66.9031
 L 0.307571,-66.6994 L 0.262238,-66.4949 L 0.220474,-66.2897 L 0.182312,-66.0838 L 0.147751,-65.8772 L 0.116791,-65.6701
 L 0.089447,-65.4624 L 0.0657501,-65.2543 L 0.0456696,-65.0459 L 0.0292358,-64.8371 L 0.016449,-64.628 L 0.00732422,-64.4188
 L 0.00183105,-64.2094 L 0,-64 L 0.00183105,-63.7906 L 0.00732422,-63.5812 L 0.016449,-63.372 L 0.0292358,-63.1629
 L 0.0456696,-62.9541 L 0.0657501,-62.7457 L 0.089447,-62.5376 L 0.116791,-62.3299 L 0.147751,-62.1228 L 0.182312,-61.9162
 L 0.220474,-61.7103 L 0.262238,-61.5051 L 0.307571,-61.3006 L 0.356461,-61.0969 L 0.408905,-60.8942 L 0.464874,-60.6924
 L 0.524353,-60.4915 L 0.587326,-60.2918 L 0.653778,-60.0932 L 0.723694,-59.8958 L 0.797043,-59.6996 L 0.873795,-59.5047
 L 0.953949,-59.3112 L 1.03746,-59.1192 L 1.12431,-58.9286 L 1.21448,-58.7395 L 1.30792,-58.5521 L 1.40463,-58.3663
 L 1.50458,-58.1823 L 1.6077,-58 L 1.714,-57.8195 L 1.82343,-57.641 L 1.93596,-57.4643 L 2.05156,-57.2897
 L 2.17018,-57.1171 L 2.29181,-56.9466 L 2.41638,-56.7782 L 2.54388,-56.6121 L 2.67426,-56.4482 L 2.80748,-56.2866
 L 2.9435,-56.1273 L 3.08228,-55.9704 L 3.22377,-55.816 L 3.36794,-55.6641 L 3.51472,-55.5147 L 3.66411,-55.3679
 L 3.81602,-55.2238 L 3.97044,-55.0823 L 4.1273,-54.9435 L 4.28656,-54.8075 L 4.44817,-54.6743 L 4.61208,-54.5439
 L 4.77823,-54.4164 L 4.94658,-54.2918 L 5.1171,-54.1702 L 5.28969,-54.0516 L 5.46434,-53.936 L 5.64098,-53.8234
 L 5.81955,-53.714 L 6,-53.6077 L 6.1823,-53.5046 L 6.36635,-53.4046 L 6.55212,-53.3079 L 6.73955,-53.2145
 L 6.92859,-53.1243 L 7.11917,-53.0375 L 7.31123,-52.9539 L 7.50473,-52.8738 L 7.69958,-52.797 L 7.89577,-52.7237
 L 8.09319,-52.6538 L 8.29181,-52.5873 L 8.49155,-52.5244 L 8.69235,-52.4649 L 8.89418,-52.4089 L 9.09694,-52.3565
 L 9.3006,-52.3076 L 9.50507,-52.2622 L 9.7103,-52.2205 L 9.91623,-52.1823 L 10.1228,-52.1478 L 10.3299,-52.1168
 L 10.5376,-52.0894 L 10.7457,-52.0658 L 10.9541,-52.0457 L 11.1629,-52.0292 L 11.372,-52.0164 L 11.5812,-52.0073
 L 11.7906,-52.0018 L 12,-52 L 36,-52 z
M 11.9651,-62.0003 L 11.9302,-62.0012 L 11.8953,-62.0027 L 11.8605,-62.0049 L 11.8257,-62.0076 L 11.791,-62.011
 L 11.7563,-62.0149 L 11.7217,-62.0195 L 11.6871,-62.0246 L 11.6527,-62.0304 L 11.6184,-62.0368 L 11.5842,-62.0437
 L 11.5501,-62.0513 L 11.5162,-62.0594 L 11.4824,-62.0682 L 11.4487,-62.0775 L 11.4153,-62.0874 L 11.382,-62.0979
 L 11.3489,-62.109 L 11.316,-62.1206 L 11.2833,-62.1328 L 11.2508,-62.1456 L 11.2186,-62.159 L 11.1865,-62.1729
 L 11.1548,-62.1874 L 11.1233,-62.2024 L 11.092,-62.218 L 11.0611,-62.2341 L 11.0304,-62.2508 L 11,-62.268
 L 10.9699,-62.2857 L 10.9402,-62.3039 L 10.9107,-62.3227 L 10.8816,-62.3419 L 10.8529,-62.3617 L 10.8244,-62.382
 L 10.7964,-62.4027 L 10.7687,-62.424 L 10.7414,-62.4457 L 10.7144,-62.4679 L 10.6879,-62.4906 L 10.6617,-62.5137
 L 10.636,-62.5373 L 10.6107,-62.5613 L 10.5858,-62.5858 L 10.5613,-62.6107 L 10.5373,-62.636 L 10.5137,-62.6617
 L 10.4906,-62.6879 L 10.4679,-62.7144 L 10.4457,-62.7414 L 10.424,-62.7687 L 10.4027,-62.7964 L 10.382,-62.8244
 L 10.3617,-62.8529 L 10.3419,-62.8816 L 10.3227,-62.9107 L 10.3039,-62.9402 L 10.2857,-62.9699 L 10.268,-63
 L 10.2508,-63.0304 L 10.2341,-63.0611 L 10.218,-63.092 L 10.2024,-63.1233 L 10.1874,-63.1548 L 10.1729,-63.1865
 L 10.159,-63.2186 L 10.1456,-63.2508 L 10.1328,-63.2833 L 10.1206,-63.316 L 10.109,-63.3489 L 10.0979,-63.382
 L 10.0874,-63.4153 L 10.0775,-63.4487 L 10.0682,-63.4824 L 10.0594,-63.5162 L 10.0513,-63.5501 L 10.0437,-63.5842
 L 10.0368,-63.6184 L 10.0304,-63.6527 L 10.0246,-63.6871 L 10.0195,-63.7217 L 10.0149,-63.7563 L 10.011,-63.791
 L 10.0076,-63.8257 L 10.0049,-63.8605 L 10.0027,-63.8953 L 10.0012,-63.9302 L 10.0003,-63.9651 L 10,-64
 L 10.0003,-64.0349 L 10.0012,-64.0698 L 10.0027,-64.1047 L 10.0049,-64.1395 L 10.0076,-64.1743 L 10.011,-64.209
 L 10.0149,-64.2437 L 10.0195,-64.2783 L 10.0246,-64.3129 L 10.0304,-64.3473 L 10.0368,-64.3816 L 10.0437,-64.4158
 L 10.0513,-64.4499 L 10.0594,-64.4838 L 10.0682,-64.5176 L 10.0775,-64.5513 L 10.0874,-64.5847 L 10.0979,-64.618
 L 10.109,-64.6511 L 10.1206,-64.684 L 10.1328,-64.7167 L 10.1456,-64.7492 L 10.159,-64.7814 L 10.1729,-64.8135
 L 10.1874,-64.8452 L 10.2024,-64.8767 L 10.218,-64.908 L 10.2341,-64.9389 L 10.2508,-64.9696 L 10.268,-65
 L 10.2857,-65.0301 L 10.3039,-65.0598 L 10.3227,-65.0893 L 10.3419,-65.1184 L 10.3617,-65.1471 L 10.382,-65.1756
 L 10.4027,-65.2036 L 10.424,-65.2313 L 10.4457,-65.2586 L 10.4679,-65.2856 L 10.4906,-65.3121 L 10.5137,-65.3383
 L 10.5373,-65.364 L 10.5613,-65.3893 L 10.5858,-65.4142 L 10.6107,-65.4387 L 10.636,-65.4627 L 10.6617,-65.4863
 L 10.6879,-65.5094 L 10.7144,-65.5321 L 10.7414,-65.5543 L 10.7687,-65.576 L 10.7964,-65.5973 L 10.8244,-65.618
 L 10.8529,-65.6383 L 10.8816,-65.6581 L 10.9107,-65.6773 L 10.9402,-65.6961 L 10.9699,-65.7143 L 11,-65.732
 L 11.0304,-65.7492 L 11.0611,-65.7659 L 11.092,-65.782 L 11.1233,-65.7976 L 11.1548,-65.8126 L 11.1865,-65.8271
 L 11.2186,-65.841 L 11.2508,-65.8544 L 11.2833,-65.8672 L 11.316,-65.8794 L 11.3489,-65.891 L 11.382,-65.9021
 L 11.4153,-65.9126 L 11.4487,-65.9225 L 11.4824,-65.9318 L 11.5162,-65.9406 L 11.5501,-65.9487 L 11.5842,-65.9563
 L 11.6184,-65.9632 L 11.6527,-65.9696 L 11.6871,-65.9754 L 11.7217,-65.9805 L 11.7563,-65.9851 L 11.791,-65.989
 L 11.8257,-65.9924 L 11.8605,-65.9951 L 11.8953,-65.9973 L 11.9302,-65.9988 L 11.9651,-65.9997 L 12,-66
 L 12.0349,-65.9997 L 12.0698,-65.9988 L 12.1047,-65.9973 L 12.1395,-65.9951 L 12.1743,-65.9924 L 12.209,-65.989
 L 12.2437,-65.9851 L 12.2783,-65.9805 L 12.3129,-65.9754 L 12.3473,-65.9696 L 12.3816,-65.9632 L 12.4158,-65.9563
 L 12.4499,-65.9487 L 12.4838,-65.9406 L 12.5176,-65.9318 L 12.5513,-65.9225 L 12.5847,-65.9126 L 12.618,-65.9021
 L 12.6511,-65.891 L 12.684,-65.8794 L 12.7167,-65.8672 L 12.7492,-65.8544 L 12.7814,-65.841 L 12.8135,-65.8271
 L 12.8452,-65.8126 L 12.8767,-65.7976 L 12.908,-65.782 L 12.9389,-65.7659 L 12.9696,-65.7492 L 13,-65.732
 L 13.0301,-65.7143 L 13.0598,-65.6961 L 13.0893,-65.6773 L 13.1184,-65.6581 L 13.1471,-65.6383 L 13.1756,-65.618
 L 13.2036,-65.5973 L 13.2313,-65.576 L 13.2586,-65.5543 L 13.2856,-65.5321 L 13.3121,-65.5094 L 13.3383,-65.4863
 L 13.364,-65.4627 L 13.3893,-65.4387 L 13.4142,-65.4142 L 13.4387,-65.3893 L 13.4627,-65.364 L 13.4863,-65.3383
 L 13.5094,-65.3121 L 13.5321,-65.2856 L 13.5543,-65.2586 L 13.576,-65.2313 L 13.5973,-65.2036 L 13.618,-65.1756
 L 13.6383,-65.1471 L 13.6581,-65.1184 L 13.6773,-65.0893 L 13.6961,-65.0598 L 13.7143,-65.0301 L 13.732,-65
 L 13.7492,-64.9696 L 13.7659,-64.9389 L 13.782,-64.908 L 13.7976,-64.8767 L 13.8126,-64.8452 L 13.8271,-64.8135
 L 13.841,-64.7814 L 13.8544,-64.7492 L 13.8672,-64.7167 L 13.8794,-64.684 L 13.891,-64.6511 L 13.9021,-64.618
 L 13.9126,-64.5847 L 13.9225,-64.5513 L 13.9318,-64.5176 L 13.9406,-64.4838 L 13.9487,-64.4499 L 13.9563,-64.4158
 L 13.9632,-64.3816 L 13.9696,-64.3473 L 13.9754,-64.3129 L 13.9805,-64.2783 L 13.9851,-64.2437 L 13.989,-64.209
 L 13.9924,-64.1743 L 13.9951,-64.1395 L 13.9973,-64.1047 L 13.9988,-64.0698 L 13.9997,-64.0349 L 14,-64
 L 13.9997,-63.9651 L 13.9988,-63.9302 L 13.9973,-63.8953 L 13.9951,-63.8605 L 13.9924,-63.8257 L 13.989,-63.791
 L 13.9851,-63.7563 L 13.9805,-63.7217 L 13.9754,-63.6871 L 13.9696,-63.6527 L 13.9632,-63.6184 L 13.9563,-63.5842
 L 13.9487,-63.5501 L 13.9406,-63.5162 L 13.9318,-63.4824 L 13.9225,-63.4487 L 13.9126,-63.4153 L 13.9021,-63.382
 L 13.891,-63.3489 L 13.8794,-63.316 L 13.8672,-63.2833 L 13.8544,-63.2508 L 13.841,-63.2186 L 13.8271,-63.1865
 L 13.8126,-63.1548 L 13.7976,-63.1233 L 13.782,-63.092 L 13.7659,-63.0611 L 13.7492,-63.0304 L 13.732,-63
 L 13.7143,-62.9699 L 13.6961,-62.9402 L 13.6773,-62.9107 L 13.6581,-62.8816 L 13.6383,-62.8529 L 13.618,-62.8244
 L 13.5973,-62.7964 L 13.576,-62.7687 L 13.5543,-62.7414 L 13.5321,-62.7144 L 13.5094,-62.6879 L 13.4863,-62.6617
 L 13.4627,-62.636 L 13.4387,-62.6107 L 13.4142,-62.5858 L 13.3893,-62.5613 L 13.364,-62.5373 L 13.3383,-62.5137
 L 13.3121,-62.4906 L 13.2856,-62.4679 L 13.2586,-62.4457 L 13.2313,-62.424 L 13.2036,-62.4027 L 13.1756,-62.382
 L 13.1471,-62.3617 L 13.1184,-62.3419 L 13.0893,-62.3227 L 13.0598,-62.3039 L 13.0301,-62.2857 L 13,-62.268
 L 12.9696,-62.2508 L 12.9389,-62.2341 L 12.908,-62.218 L 12.8767,-62.2024 L 12.8452,-62.1874 L 12.8135,-62.1729
 L 12.7814,-62.159 L 12.7492,-62.1456 L 12.7167,-62.1328 L 12.684,-62.1206 L 12.6511,-62.109 L 12.618,-62.0979
 L 12.5847,-62.0874 L 12.5513,-62.0775 L 12.5176,-62.0682 L 12.4838,-62.0594 L 12.4499,-62.0513 L 12.4158,-62.0437
 L 12.3816,-62.0368 L 12.3473,-62.0304 L 12.3129,-62.0246 L 12.2783,-62.0195 L 12.2437,-62.0149 L 12.209,-62.011
 L 12.1743,-62.0076 L 12.1395,-62.0049 L 12.1047,-62.0027 L 12.0698,-62.0012 L 12.0349,-62.0003 L 12,-62
 z
M 48,-48 L 0,-48 L 0,-0 L 48,-0 z
M 12,-12 L 12,-36 L 16,-36 L 16,-12 z
M 20,-12 L 20,-36 L 24,-36 L 24,-12 z
M 28,-12 L 28,-36 L 32,-36 L 32,-12 z
" stroke="black" fill="lightgray" stroke-width="0.5"/>
</svg>
