<?xml version="1.0" standalone="no"?>
<!DOCTYPE svg PUBLIC "-//W3C//DTD SVG 1.1//EN" "http://www.w3.org/Graphics/SVG/1.1/DTD/svg11.dtd">
<svg width="164mm" height="136mm" viewBox="0 -136 164 136" xmlns="http://www.w3.org/2000/svg" version="1.1">
<title>OpenSCAD Model</title>
<path d="
M 76.0049,-0.558472 L 76.0195,-1.11678 L 76.0439,-1.67474 L 76.0779,-2.23219 L 76.1218,-2.78897 L 76.1753,-3.34491
 L 76.2385,-3.89981 L 76.3114,-4.45354 L 76.394,-5.00589 L 76.4861,-5.55673 L 76.5879,-6.10588 L 76.6993,-6.65317
 L 76.8201,-7.19843 L 76.9505,-7.74149 L 77.0904,-8.2822 L 77.2396,-8.82039 L 77.3982,-9.35588 L 77.5662,-9.88853
 L 77.7434,-10.4182 L 77.9298,-10.9446 L 78.1254,-11.4678 L 78.3301,-11.9874 L 78.5438,-12.5034 L 78.7665,-13.0156
 L 78.9981,-13.5238 L 79.2386,-14.0279 L 79.4878,-14.5277 L 79.7457,-15.0231 L 80.0122,-15.5139 L 80.2872,-16
 L 80.5706,-16.4812 L 80.8625,-16.9574 L 81.1625,-17.4284 L 81.4708,-17.8942 L 81.7871,-18.3544 L 82.1115,-18.8091
 L 82.4436,-19.2581 L 82.7836,-19.7012 L 83.1313,-20.1382 L 83.4866,-20.5692 L 83.8493,-20.9939 L 84.2194,-21.4122
 L 84.5967,-21.8239 L 84.9811,-22.2291 L 85.3726,-22.6274 L 85.7709,-23.0189 L 86.176,-23.4033 L 86.5878,-23.7806
 L 87.0061,-24.1507 L 87.4308,-24.5134 L 87.8617,-24.8687 L 88.2988,-25.2163 L 88.7419,-25.5563 L 89.1909,-25.8885
 L 89.6456,-26.2129 L 90.1058,-26.5292 L 90.5715,-26.8374 L 91.0426,-27.1375 L 91.5188,-27.4294 L 92,-27.7128
 L 92.4861,-27.9878 L 92.9769,-28.2543 L 93.4723,-28.5122 L 93.9721,-28.7614 L 94.4762,-29.0018 L 94.9844,-29.2334
 L 95.4966,-29.4561 L 96.0126,-29.6699 L 96.5322,-29.8746 L 97.0553,-30.0702 L 97.5818,-30.2566 L 98.1115,-30.4338
 L 98.6441,-30.6017 L 99.1796,-30.7604 L 99.7178,-30.9096 L 100.258,-31.0495 L 100.802,-31.1798 L 101.347,-31.3007
 L 101.894,-31.4121 L 102.443,-31.5138 L 102.994,-31.606 L 103.546,-31.6886 L 104.1,-31.7615 L 104.655,-31.8247
 L 105.211,-31.8782 L 105.768,-31.922 L 106.325,-31.9561 L 106.883,-31.9805 L 107.442,-31.9951 L 108,-32
 L 108.558,-31.9951 L 109.117,-31.9805 L 109.675,-31.9561 L 110.232,-31.922 L 110.789,-31.8782 L 111.345,-31.8247
 L 111.9,-31.7615 L 112.454,-31.6886 L 113.006,-31.606 L 113.557,-31.5138 L 114.106,-31.4121 L 114.653,-31.3007
 L 115.198,-31.1798 L 115.741,-31.0495 L 116.282,-30.9096 L 116.82,-30.7604 L 117.356,-30.6017 L 117.889,-30.4338
 L 118.418,-30.2566 L 118.945,-30.0702 L 119.468,-29.8746 L 119.987,-29.6699 L 120.503,-29.4561 L 121.016,-29.2334
 L 121.524,-29.0018 L 122.028,-28.7614 L 122.528,-28.5122 L 123.023,-28.2543 L 123.514,-27.9878 L 124,-27.7128
 L 124.481,-27.4294 L 124.957,-27.1375 L 125.428,-26.8374 L 125.894,-26.5292 L 126.354,-26.2129 L 126.809,-25.8885
 L 127.258,-25.5563 L 127.701,-25.2163 L 128.138,-24.8687 L 128.569,-24.5134 L 128.994,-24.1507 L 129.412,-23.7806
 L 129.824,-23.4033 L 130.229,-23.0189 L 130.627,-22.6274 L 131.019,-22.2291 L 131.403,-21.8239 L 131.781,-21.4122
 L 132.151,-20.9939 L 132.513,-20.5692 L 132.869,-20.1382 L 133.216,-19.7012 L 133.556,-19.2581 L 133.889,-18.8091
 L 134.213,-18.3544 L 134.529,-17.8942 L 134.837,-17.4284 L 135.138,-16.9574 L 135.429,-16.4812 L 135.713,-16
 L 135.988,-15.5139 L 136.254,-15.0231 L 136.512,-14.5277 L 136.761,-14.0279 L 137.002,-13.5238 L 137.233,-13.0156
 L 137.456,-12.5034 L 137.67,-11.9874 L 137.875,-11.4678 L 138.07,-10.9446 L 138.257,-10.4182 L 138.434,-9.88853
 L 138.602,-9.35588 L 138.76,-8.82039 L 138.91,-8.2822 L 139.049,-7.74149 L 139.18,-7.19843 L 139.301,-6.65317
 L 139.412,-6.10588 L 139.514,-5.55673 L 139.606,-5.00589 L 139.689,-4.45354 L 139.761,-3.89981 L 139.825,-3.34491
 L 139.878,-2.78897 L 139.922,-2.23219 L 139.956,-1.67474 L 139.98,-1.11678 L 139.995,-0.558472 L 140,-0
 L 152.5,-0 L 152.701,-0.00175476 L 152.901,-0.00701904 L 153.102,-0.0157623 L 153.302,-0.0280151 L 153.502,-0.0437622
 L 153.702,-0.0630035 L 153.901,-0.0857239 L 154.1,-0.111923 L 154.299,-0.141586 L 154.497,-0.174713 L 154.694,-0.211288
 L 154.891,-0.251312 L 155.087,-0.294754 L 155.282,-0.341614 L 155.476,-0.391861 L 155.67,-0.445496 L 155.862,-0.502502
 L 156.054,-0.562851 L 156.244,-0.626541 L 156.433,-0.693542 L 156.621,-0.76384 L 156.808,-0.837387 L 156.993,-0.9142
 L 157.177,-0.994232 L 157.36,-1.07747 L 157.541,-1.16388 L 157.721,-1.25343 L 157.899,-1.34612 L 158.075,-1.44188
 L 158.25,-1.54071 L 158.423,-1.64258 L 158.594,-1.74745 L 158.763,-1.8553 L 158.931,-1.96608 L 159.096,-2.07976
 L 159.26,-2.19632 L 159.421,-2.3157 L 159.58,-2.43788 L 159.737,-2.56284 L 159.892,-2.69049 L 160.045,-2.82085
 L 160.195,-2.95384 L 160.343,-3.08945 L 160.489,-3.2276 L 160.632,-3.36829 L 160.772,-3.51143 L 160.911,-3.65703
 L 161.046,-3.80501 L 161.179,-3.95532 L 161.31,-4.10796 L 161.437,-4.26282 L 161.562,-4.41991 L 161.684,-4.57913
 L 161.804,-4.74048 L 161.92,-4.90388 L 162.034,-5.06929 L 162.145,-5.23666 L 162.253,-5.40593 L 162.357,-5.57707
 L 162.459,-5.75 L 162.558,-5.9247 L 162.654,-6.10109 L 162.747,-6.27911 L 162.836,-6.45874 L 162.923,-6.63989
 L 163.006,-6.82254 L 163.086,-7.00661 L 163.163,-7.19203 L 163.236,-7.37877 L 163.306,-7.56677 L 163.373,-7.75598
 L 163.437,-7.94632 L 163.497,-8.13773 L 163.555,-8.33018 L 163.608,-8.52359 L 163.658,-8.71791 L 163.705,-8.91307
 L 163.749,-9.10902 L 163.789,-9.30571 L 163.825,-9.50305 L 163.858,-9.701 L 163.888,-9.89952 L 163.914,-10.0985
 L 163.937,-10.2979 L 163.956,-10.4977 L 163.972,-10.6978 L 163.984,-10.8981 L 163.993,-11.0987 L 163.998,-11.2993
 L 164,-11.5 L 164,-36 L 163.442,-36.0049 L 162.883,-36.0195 L 162.325,-36.0439 L 161.768,-36.0779
 L 161.211,-36.1218 L 160.655,-36.1753 L 160.1,-36.2385 L 159.546,-36.3114 L 158.994,-36.394 L 158.443,-36.4861
 L 157.894,-36.5879 L 157.347,-36.6993 L 156.802,-36.8201 L 156.258,-36.9505 L 155.718,-37.0904 L 155.18,-37.2396
 L 154.644,-37.3982 L 154.111,-37.5662 L 153.582,-37.7434 L 153.055,-37.9298 L 152.532,-38.1254 L 152.013,-38.3301
 L 151.497,-38.5438 L 150.984,-38.7665 L 150.476,-38.9981 L 149.972,-39.2386 L 149.472,-39.4878 L 148.977,-39.7457
 L 148.486,-40.0122 L 148,-40.2872 L 147.519,-40.5706 L 147.043,-40.8625 L 146.572,-41.1625 L 146.106,-41.4708
 L 145.646,-41.7871 L 145.191,-42.1115 L 144.742,-42.4436 L 144.299,-42.7836 L 143.862,-43.1313 L 143.431,-43.4866
 L 143.006,-43.8493 L 142.588,-44.2194 L 142.176,-44.5967 L 141.771,-44.9811 L 141.373,-45.3726 L 140.981,-45.7709
 L 140.597,-46.176 L 140.219,-46.5878 L 139.849,-47.0061 L 139.487,-47.4308 L 139.131,-47.8617 L 138.784,-48.2988
 L 138.444,-48.7419 L 138.111,-49.1909 L 137.787,-49.6456 L 137.471,-50.1058 L 137.163,-50.5715 L 136.862,-51.0426
 L 136.571,-51.5188 L 136.287,-52 L 136.012,-52.4861 L 135.746,-52.9769 L 135.488,-53.4723 L 135.239,-53.9721
 L 134.998,-54.4762 L 134.767,-54.9844 L 134.544,-55.4966 L 134.33,-56.0126 L 134.125,-56.5322 L 133.93,-57.0553
 L 133.743,-57.5818 L 133.566,-58.1115 L 133.398,-58.6441 L 133.24,-59.1796 L 133.09,-59.7178 L 132.951,-60.2585
 L 132.82,-60.8016 L 132.699,-61.3468 L 132.588,-61.8941 L 132.486,-62.4433 L 132.394,-62.9941 L 132.311,-63.5464
 L 132.239,-64.1002 L 132.175,-64.6551 L 132.122,-65.211 L 132.078,-65.7678 L 132.044,-66.3252 L 132.019,-66.8832
 L 132.005,-67.4415 L 132,-68 L 132.005,-68.5585 L 132.019,-69.1168 L 132.044,-69.6747 L 132.078,-70.2322
 L 132.122,-70.789 L 132.175,-71.3449 L 132.239,-71.8998 L 132.311,-72.4535 L 132.394,-73.0059 L 132.486,-73.5567
 L 132.588,-74.1059 L 132.699,-74.6532 L 132.82,-75.1984 L 132.951,-75.7415 L 133.09,-76.2822 L 133.24,-76.8204
 L 133.398,-77.3559 L 133.566,-77.8885 L 133.743,-78.4182 L 133.93,-78.9446 L 134.125,-79.4678 L 134.33,-79.9874
 L 134.544,-80.5034 L 134.767,-81.0156 L 134.998,-81.5238 L 135.239,-82.0279 L 135.488,-82.5277 L 135.746,-83.0231
 L 136.012,-83.5139 L 136.287,-84 L 136.571,-84.4812 L 136.862,-84.9574 L 137.163,-85.4284 L 137.471,-85.8942
 L 137.787,-86.3544 L 138.111,-86.8091 L 138.444,-87.2581 L 138.784,-87.7012 L 139.131,-88.1382 L 139.487,-88.5692
 L 139.849,-88.9939 L 140.219,-89.4122 L 140.597,-89.8239 L 140.981,-90.2291 L 141.373,-90.6274 L 141.771,-91.0189
 L 142.176,-91.4033 L 142.588,-91.7806 L 143.006,-92.1507 L 143.431,-92.5134 L 143.862,-92.8687 L 144.299,-93.2163
 L 144.742,-93.5563 L 145.191,-93.8885 L 145.646,-94.2129 L 146.106,-94.5292 L 146.572,-94.8374 L 147.043,-95.1375
 L 147.519,-95.4294 L 148,-95.7128 L 148.486,-95.9878 L 148.977,-96.2543 L 149.472,-96.5122 L 149.972,-96.7614
 L 150.476,-97.0018 L 150.984,-97.2334 L 151.497,-97.4561 L 152.013,-97.6699 L 152.532,-97.8746 L 153.055,-98.0702
 L 153.582,-98.2566 L 154.111,-98.4338 L 154.644,-98.6017 L 155.18,-98.7604 L 155.718,-98.9096 L 156.258,-99.0495
 L 156.802,-99.1798 L 157.347,-99.3007 L 157.894,-99.4121 L 158.443,-99.5138 L 158.994,-99.606 L 159.546,-99.6886
 L 160.1,-99.7615 L 160.655,-99.8247 L 161.211,-99.8782 L 161.768,-99.922 L 162.325,-99.9561 L 162.883,-99.9805
 L 163.442,-99.9951 L 164,-100 L 164,-124.5 L 163.998,-124.701 L 163.993,-124.901 L 163.984,-125.102
 L 163.972,-125.302 L 163.956,-125.502 L 163.937,-125.702 L 163.914,-125.901 L 163.888,-126.1 L 163.858,-126.299
 L 163.825,-126.497 L 163.789,-126.694 L 163.749,-126.891 L 163.705,-127.087 L 163.658,-127.282 L 163.608,-127.476
 L 163.555,-127.67 L 163.497,-127.862 L 163.437,-128.054 L 163.373,-128.244 L 163.306,-128.433 L 163.236,-128.621
 L 163.163,-128.808 L 163.086,-128.993 L 163.006,-129.177 L 162.923,-129.36 L 162.836,-129.541 L 162.747,-129.721
 L 162.654,-129.899 L 162.558,-130.075 L 162.459,-130.25 L 162.357,-130.423 L 162.253,-130.594 L 162.145,-130.763
 L 162.034,-130.931 L 161.92,-131.096 L 161.804,-131.26 L 161.684,-131.421 L 161.562,-131.58 L 161.437,-131.737
 L 161.31,-131.892 L 161.179,-132.045 L 161.046,-132.195 L 160.911,-132.343 L 160.772,-132.489 L 160.632,-132.632
 L 160.489,-132.772 L 160.343,-132.911 L 160.195,-133.046 L 160.045,-133.179 L 159.892,-133.31 L 159.737,-133.437
 L 159.58,-133.562 L 159.421,-133.684 L 159.26,-133.804 L 159.096,-133.92 L 158.931,-134.034 L 158.763,-134.145
 L 158.594,-134.253 L 158.423,-134.357 L 158.25,-134.459 L 158.075,-134.558 L 157.899,-134.654 L 157.721,-134.747
 L 157.541,-134.836 L 157.36,-134.923 L 157.177,-135.006 L 156.993,-135.086 L 156.808,-135.163 L 156.621,-135.236
 L 156.433,-135.306 L 156.244,-135.373 L 156.054,-135.437 L 155.862,-135.497 L 155.67,-135.555 L 155.476,-135.608
 L 155.282,-135.658 L 155.087,-135.705 L 154.891,-135.749 L 154.694,-135.789 L 154.497,-135.825 L 154.299,-135.858
 L 154.1,-135.888 L 153.901,-135.914 L 153.702,-135.937 L 153.502,-135.956 L 153.302,-135.972 L 153.102,-135.984
 L 152.901,-135.993 L 152.701,-135.998 L 152.5,-136 L 140,-136 L 139.995,-135.442 L 139.98,-134.883
 L 139.956,-134.325 L 139.922,-133.768 L 139.878,-133.211 L 139.825,-132.655 L 139.761,-132.1 L 139.689,-131.546
 L 139.606,-130.994 L 139.514,-130.443 L 139.412,-129.894 L 139.301,-129.347 L 139.18,-128.802 L 139.049,-128.258
 L 138.91,-127.718 L 138.76,-127.18 L 138.602,-126.644 L 138.434,-126.111 L 138.257,-125.582 L 138.07,-125.055
 L 137.875,-124.532 L 137.67,-124.013 L 137.456,-123.497 L 137.233,-122.984 L 137.002,-122.476 L 136.761,-121.972
 L 136.512,-121.472 L 136.254,-120.977 L 135.988,-120.486 L 135.713,-120 L 135.429,-119.519 L 135.138,-119.043
 L 134.837,-118.572 L 134.529,-118.106 L 134.213,-117.646 L 133.889,-117.191 L 133.556,-116.742 L 133.216,-116.299
 L 132.869,-115.862 L 132.513,-115.431 L 132.151,-115.006 L 131.781,-114.588 L 131.403,-114.176 L 131.019,-113.771
 L 130.627,-113.373 L 130.229,-112.981 L 129.824,-112.597 L 129.412,-112.219 L 128.994,-111.849 L 128.569,-111.487
 L 128.138,-111.131 L 127.701,-110.784 L 127.258,-110.444 L 126.809,-110.111 L 126.354,-109.787 L 125.894,-109.471
 L 125.428,-109.163 L 124.957,-108.862 L 124.481,-108.571 L 124,-108.287 L 123.514,-108.012 L 123.023,-107.746
 L 122.528,-107.488 L 122.028,-107.239 L 121.524,-106.998 L 121.016,-106.767 L 120.503,-106.544 L 119.987,-106.33
 L 119.468,-106.125 L 118.945,-105.93 L 118.418,-105.743 L 117.889,-105.566 L 117.356,-105.398 L 116.82,-105.24
 L 116.282,-105.09 L 115.741,-104.951 L 115.198,-104.82 L 114.653,-104.699 L 114.106,-104.588 L 113.557,-104.486
 L 113.006,-104.394 L 112.454,-104.311 L 111.9,-104.239 L 111.345,-104.175 L 110.789,-104.122 L 110.232,-104.078
 L 109.675,-104.044 L 109.117,-104.019 L 108.558,-104.005 L 108,-104 L 107.442,-104.005 L 106.883,-104.019
 L 106.325,-104.044 L 105.768,-104.078 L 105.211,-104.122 L 104.655,-104.175 L 104.1,-104.239 L 103.546,-104.311
 L 102.994,-104.394 L 102.443,-104.486 L 101.894,-104.588 L 101.347,-104.699 L 100.802,-104.82 L 100.258,-104.951
 L 99.7178,-105.09 L 99.1796,-105.24 L 98.6441,-105.398 L 98.1115,-105.566 L 97.5818,-105.743 L 97.0553,-105.93
 L 96.5322,-106.125 L 96.0126,-106.33 L 95.4966,-106.544 L 94.9844,-106.767 L 94.4762,-106.998 L 93.9721,-107.239
 L 93.4723,-107.488 L 92.9769,-107.746 L 92.4861,-108.012 L 92,-108.287 L 91.5188,-108.571 L 91.0426,-108.862
 L 90.5715,-109.163 L 90.1058,-109.471 L 89.6456,-109.787 L 89.1909,-110.111 L 88.7419,-110.444 L 88.2988,-110.784
 L 87.8617,-111.131 L 87.4308,-111.487 L 87.0061,-111.849 L 86.5878,-112.219 L 86.176,-112.597 L 85.7709,-112.981
 L 85.3726,-113.373 L 84.9811,-113.771 L 84.5967,-114.176 L 84.2194,-114.588 L 83.8493,-115.006 L 83.4866,-115.431
 L 83.1313,-115.862 L 82.7836,-116.299 L 82.4436,-116.742 L 82.1115,-117.191 L 81.7871,-117.646 L 81.4708,-118.106
 L 81.1625,-118.572 L 80.8625,-119.043 L 80.5706,-119.519 L 80.2872,-120 L 80.0122,-120.486 L 79.7457,-120.977
 L 79.4878,-121.472 L 79.2386,-121.972 L 78.9981,-122.476 L 78.7665,-122.984 L 78.5438,-123.497 L 78.3301,-124.013
 L 78.1254,-124.532 L 77.9298,-125.055 L 77.7434,-125.582 L 77.5662,-126.111 L 77.3982,-126.644 L 77.2396,-127.18
 L 77.0904,-127.718 L 76.9505,-128.258 L 76.8201,-128.802 L 76.6993,-129.347 L 76.5879,-129.894 L 76.4861,-130.443
 L 76.394,-130.994 L 76.3114,-131.546 L 76.2385,-132.1 L 76.1753,-132.655 L 76.1218,-133.211 L 76.0779,-133.768
 L 76.0439,-134.325 L 76.0195,-134.883 L 76.0049,-135.442 L 76,-136 L 63.5,-136 L 63.2993,-135.998
 L 63.0987,-135.993 L 62.8981,-135.984 L 62.6978,-135.972 L 62.4977,-135.956 L 62.2979,-135.937 L 62.0985,-135.914
 L 61.8995,-135.888 L 61.701,-135.858 L 61.5031,-135.825 L 61.3057,-135.789 L 61.109,-135.749 L 60.9131,-135.705
 L 60.7179,-135.658 L 60.5236,-135.608 L 60.3302,-135.555 L 60.1377,-135.497 L 59.9463,-135.437 L 59.756,-135.373
 L 59.5668,-135.306 L 59.3788,-135.236 L 59.192,-135.163 L 59.0066,-135.086 L 58.8225,-135.006 L 58.6399,-134.923
 L 58.4587,-134.836 L 58.2791,-134.747 L 58.1011,-134.654 L 57.9247,-134.558 L 57.75,-134.459 L 57.5771,-134.357
 L 57.4059,-134.253 L 57.2367,-134.145 L 57.0693,-134.034 L 56.9039,-133.92 L 56.7405,-133.804 L 56.5791,-133.684
 L 56.4199,-133.562 L 56.2628,-133.437 L 56.108,-133.31 L 55.9553,-133.179 L 55.805,-133.046 L 55.657,-132.911
 L 55.5114,-132.772 L 55.3683,-132.632 L 55.2276,-132.489 L 55.0894,-132.343 L 54.9538,-132.195 L 54.8208,-132.045
 L 54.6905,-131.892 L 54.5628,-131.737 L 54.4379,-131.58 L 54.3157,-131.421 L 54.1963,-131.26 L 54.0798,-131.096
 L 53.9661,-130.931 L 53.8553,-130.763 L 53.7475,-130.594 L 53.6426,-130.423 L 53.5407,-130.25 L 53.4419,-130.075
 L 53.3461,-129.899 L 53.2534,-129.721 L 53.1639,-129.541 L 53.0775,-129.36 L 52.9942,-129.177 L 52.9142,-128.993
 L 52.8374,-128.808 L 52.7638,-128.621 L 52.6935,-128.433 L 52.6265,-128.244 L 52.5629,-128.054 L 52.5025,-127.862
 L 52.4455,-127.67 L 52.3919,-127.476 L 52.3416,-127.282 L 52.2948,-127.087 L 52.2513,-126.891 L 52.2113,-126.694
 L 52.1747,-126.497 L 52.1416,-126.299 L 52.1119,-126.1 L 52.0857,-125.901 L 52.063,-125.702 L 52.0438,-125.502
 L 52.028,-125.302 L 52.0158,-125.102 L 52.007,-124.901 L 52.0018,-124.701 L 52,-124.5 L 52,-100
 L 52.5585,-99.9951 L 53.1168,-99.9805 L 53.6747,-99.9561 L 54.2322,-99.922 L 54.789,-99.8782 L 55.3449,-99.8247
 L 55.8998,-99.7615 L 56.4535,-99.6886 L 57.0059,-99.606 L 57.5567,-99.5138 L 58.1059,-99.4121 L 58.6532,-99.3007
 L 59.1984,-99.1798 L 59.7415,-99.0495 L 60.2822,-98.9096 L 60.8204,-98.7604 L 61.3559,-98.6017 L 61.8885,-98.4338
 L 62.4182,-98.2566 L 62.9446,-98.0702 L 63.4678,-97.8746 L 63.9874,-97.6699 L 64.5034,-97.4561 L 65.0156,-97.2334
 L 65.5238,-97.0018 L 66.0279,-96.7614 L 66.5277,-96.5122 L 67.0231,-96.2543 L 67.5139,-95.9878 L 68,-95.7128
 L 68.4812,-95.4294 L 68.9574,-95.1375 L 69.4284,-94.8374 L 69.8942,-94.5292 L 70.3544,-94.2129 L 70.8091,-93.8885
 L 71.2581,-93.5563 L 71.7012,-93.2163 L 72.1382,-92.8687 L 72.5692,-92.5134 L 72.9939,-92.1507 L 73.4122,-91.7806
 L 73.8239,-91.4033 L 74.2291,-91.0189 L 74.6274,-90.6274 L 75.0189,-90.2291 L 75.4033,-89.8239 L 75.7806,-89.4122
 L 76.1507,-88.9939 L 76.5134,-88.5692 L 76.8687,-88.1382 L 77.2163,-87.7012 L 77.5563,-87.2581 L 77.8885,-86.8091
 L 78.2129,-86.3544 L 78.5292,-85.8942 L 78.8374,-85.4284 L 79.1375,-84.9574 L 79.4294,-84.4812 L 79.7128,-84
 L 79.9878,-83.5139 L 80.2543,-83.0231 L 80.5122,-82.5277 L 80.7614,-82.0279 L 81.0018,-81.5238 L 81.2334,-81.0156
 L 81.4561,-80.5034 L 81.6699,-79.9874 L 81.8746,-79.4678 L 82.0702,-78.9446 L 82.2566,-78.4182 L 82.4338,-77.8885
 L 82.6017,-77.3559 L 82.7604,-76.8204 L 82.9096,-76.2822 L 83.0495,-75.7415 L 83.1798,-75.1984 L 83.3007,-74.6532
 L 83.4121,-74.1059 L 83.5138,-73.5567 L 83.606,-73.0059 L 83.6886,-72.4535 L 83.7615,-71.8998 L 83.8247,-71.3449
 L 83.8782,-70.789 L 83.922,-70.2322 L 83.9561,-69.6747 L 83.9805,-69.1168 L 83.9951,-68.5585 L 84,-68
 L 83.9951,-67.4415 L 83.9805,-66.8832 L 83.9561,-66.3252 L 83.922,-65.7678 L 83.8782,-65.211 L 83.8247,-64.6551
 L 83.7615,-64.1002 L 83.6886,-63.5464 L 83.606,-62.9941 L 83.5138,-62.4433 L 83.4121,-61.8941 L 83.3007,-61.3468
 L 83.1798,-60.8016 L 83.0495,-60.2585 L 82.9096,-59.7178 L 82.7604,-59.1796 L 82.6017,-58.6441 L 82.4338,-58.1115
 L 82.2566,-57.5818 L 82.0702,-57.0553 L 81.8746,-56.5322 L 81.6699,-56.0126 L 81.4561,-55.4966 L 81.2334,-54.9844
 L 81.0018,-54.4762 L 80.7614,-53.9721 L 80.5122,-53.4723 L 80.2543,-52.9769 L 79.9878,-52.4861 L 79.7128,-52
 L 79.4294,-51.5188 L 79.1375,-51.0426 L 78.8374,-50.5715 L 78.5292,-50.1058 L 78.2129,-49.6456 L 77.8885,-49.1909
 L 77.5563,-48.7419 L 77.2163,-48.2988 L 76.8687,-47.8617 L 76.5134,-47.4308 L 76.1507,-47.0061 L 75.7806,-46.5878
 L 75.4033,-46.176 L 75.0189,-45.7709 L 74.6274,-45.3726 L 74.2291,-44.9811 L 73.8239,-44.5967 L 73.4122,-44.2194
 L 72.9939,-43.8493 L 72.5692,-43.4866 L 72.1382,-43.1313 L 71.7012,-42.7836 L 71.2581,-42.4436 L 70.8091,-42.1115
 L 70.3544,-41.7871 L 69.8942,-41.4708 L 69.4284,-41.1625 L 68.9574,-40.8625 L 68.4812,-40.5706 L 68,-40.2872
 L 67.5139,-40.0122 L 67.0231,-39.7457 L 66.5277,-39.4878 L 66.0279,-39.2386 L 65.5238,-38.9981 L 65.0156,-38.7665
 L 64.5034,-38.5438 L 63.9874,-38.3301 L 63.4678,-38.1254 L 62.9446,-37.9298 L 62.4182,-37.7434 L 61.8885,-37.5662
 L 61.3559,-37.3982 L 60.8204,-37.2396 L 60.2822,-37.0904 L 59.7415,-36.9505 L 59.1984,-36.8201 L 58.6532,-36.6993
 L 58.1059,-36.5879 L 57.5567,-36.4861 L 57.0059,-36.394 L 56.4535,-36.3114 L 55.8998,-36.2385 L 55.3449,-36.1753
 L 54.789,-36.1218 L 54.2322,-36.0779 L 53.6747,-36.0439 L 53.1168,-36.0195 L 52.5585,-36.0049 L 52,-36
 L 52,-11.5 L 52.0018,-11.2993 L 52.007,-11.0987 L 52.0158,-10.8981 L 52.028,-10.6978 L 52.0438,-10.4977
 L 52.063,-10.2979 L 52.0857,-10.0985 L 52.1119,-9.89952 L 52.1416,-9.701 L 52.1747,-9.50305 L 52.2113,-9.30571
 L 52.2513,-9.10902 L 52.2948,-8.91307 L 52.3416,-8.71791 L 52.3919,-8.52359 L 52.4455,-8.33018 L 52.5025,-8.13773
 L 52.5629,-7.94632 L 52.6265,-7.75598 L 52.6935,-7.56677 L 52.7638,-7.37877 L 52.8374,-7.19203 L 52.9142,-7.00661
 L 52.9942,-6.82254 L 53.0775,-6.63989 L 53.1639,-6.45874 L 53.2534,-6.27911 L 53.3461,-6.10109 L 53.4419,-5.9247
 L 53.5407,-5.75 L 53.6426,-5.57707 L 53.7475,-5.40593 L 53.8553,-5.23666 L 53.9661,-5.06929 L 54.0798,-4.90388
 L 54.1963,-4.74048 L 54.3157,-4.57913 L 54.4379,-4.41991 L 54.5628,-4.26282 L 54.6905,-4.10796 L 54.8208,-3.95532
 L 54.9538,-3.80501 L 55.0894,-3.65703 L 55.2276,-3.51143 L 55.3683,-3.36829 L 55.5114,-3.2276 L 55.657,-3.08945
 L 55.805,-2.95384 L 55.9553,-2.82085 L 56.108,-2.69049 L 56.2628,-2.56284 L 56.4199,-2.43788 L 56.5791,-2.3157
 L 56.7405,-2.19632 L 56.9039,-2.07976 L 57.0693,-1.96608 L 57.2367,-1.8553 L 57.4059,-1.74745 L 57.5771,-1.64258
 L 57.75,-1.54071 L 57.9247,-1.44188 L 58.1011,-1.34612 L 58.2791,-1.25343 L 58.4587,-1.16388 L 58.6399,-1.07747
 L 58.8225,-0.994232 L 59.0066,-0.9142 L 59.192,-0.837387 L 59.3788,-0.76384 L 59.5668,-0.693542 L 59.756,-0.626541
 L 59.9463,-0.562851 L 60.1377,-0.502502 L 60.3302,-0.445496 L 60.5236,-0.391861 L 60.7179,-0.341614 L 60.9131,-0.294754
 L 61.109,-0.251312 L 61.3057,-0.211288 L 61.5031,-0.174713 L 61.701,-0.141586 L 61.8995,-0.111923 L 62.0985,-0.0857239
 L 62.2979,-0.0630035 L 62.4977,-0.0437622 L 62.6978,-0.0280151 L 62.8981,-0.0157623 L 63.0987,-0.00701904 L 63.2993,-0.00175476
 L 63.5,-0 L 76,-0 z
M 156.565,-126.6 L 156.53,-126.601 L 156.495,-126.603 L 156.46,-126.605 L 156.426,-126.608 L 156.391,-126.611
 L 156.356,-126.615 L 156.322,-126.619 L 156.287,-126.625 L 156.253,-126.63 L 156.218,-126.637 L 156.184,-126.644
 L 156.15,-126.651 L 156.116,-126.659 L 156.082,-126.668 L 156.049,-126.677 L 156.015,-126.687 L 155.982,-126.698
 L 155.949,-126.709 L 155.916,-126.721 L 155.883,-126.733 L 155.851,-126.746 L 155.819,-126.759 L 155.787,-126.773
 L 155.755,-126.787 L 155.723,-126.802 L 155.692,-126.818 L 155.661,-126.834 L 155.63,-126.851 L 155.6,-126.868
 L 155.57,-126.886 L 155.54,-126.904 L 155.511,-126.923 L 155.482,-126.942 L 155.453,-126.962 L 155.424,-126.982
 L 155.396,-127.003 L 155.369,-127.024 L 155.341,-127.046 L 155.314,-127.068 L 155.288,-127.091 L 155.262,-127.114
 L 155.236,-127.137 L 155.211,-127.161 L 155.186,-127.186 L 155.161,-127.211 L 155.137,-127.236 L 155.114,-127.262
 L 155.091,-127.288 L 155.068,-127.314 L 155.046,-127.341 L 155.024,-127.369 L 155.003,-127.396 L 154.982,-127.424
 L 154.962,-127.453 L 154.942,-127.482 L 154.923,-127.511 L 154.904,-127.54 L 154.886,-127.57 L 154.868,-127.6
 L 154.851,-127.63 L 154.834,-127.661 L 154.818,-127.692 L 154.802,-127.723 L 154.787,-127.755 L 154.773,-127.787
 L 154.759,-127.819 L 154.746,-127.851 L 154.733,-127.883 L 154.721,-127.916 L 154.709,-127.949 L 154.698,-127.982
 L 154.687,-128.015 L 154.677,-128.049 L 154.668,-128.082 L 154.659,-128.116 L 154.651,-128.15 L 154.644,-128.184
 L 154.637,-128.218 L 154.63,-128.253 L 154.625,-128.287 L 154.619,-128.322 L 154.615,-128.356 L 154.611,-128.391
 L 154.608,-128.426 L 154.605,-128.46 L 154.603,-128.495 L 154.601,-128.53 L 154.6,-128.565 L 154.6,-128.6
 L 154.6,-128.635 L 154.601,-128.67 L 154.603,-128.705 L 154.605,-128.74 L 154.608,-128.774 L 154.611,-128.809
 L 154.615,-128.844 L 154.619,-128.878 L 154.625,-128.913 L 154.63,-128.947 L 154.637,-128.982 L 154.644,-129.016
 L 154.651,-129.05 L 154.659,-129.084 L 154.668,-129.118 L 154.677,-129.151 L 154.687,-129.185 L 154.698,-129.218
 L 154.709,-129.251 L 154.721,-129.284 L 154.733,-129.317 L 154.746,-129.349 L 154.759,-129.381 L 154.773,-129.413
 L 154.787,-129.445 L 154.802,-129.477 L 154.818,-129.508 L 154.834,-129.539 L 154.851,-129.57 L 154.868,-129.6
 L 154.886,-129.63 L 154.904,-129.66 L 154.923,-129.689 L 154.942,-129.718 L 154.962,-129.747 L 154.982,-129.776
 L 155.003,-129.804 L 155.024,-129.831 L 155.046,-129.859 L 155.068,-129.886 L 155.091,-129.912 L 155.114,-129.938
 L 155.137,-129.964 L 155.161,-129.989 L 155.186,-130.014 L 155.211,-130.039 L 155.236,-130.063 L 155.262,-130.086
 L 155.288,-130.109 L 155.314,-130.132 L 155.341,-130.154 L 155.369,-130.176 L 155.396,-130.197 L 155.424,-130.218
 L 155.453,-130.238 L 155.482,-130.258 L 155.511,-130.277 L 155.54,-130.296 L 155.57,-130.314 L 155.6,-130.332
 L 155.63,-130.349 L 155.661,-130.366 L 155.692,-130.382 L 155.723,-130.398 L 155.755,-130.413 L 155.787,-130.427
 L 155.819,-130.441 L 155.851,-130.454 L 155.883,-130.467 L 155.916,-130.479 L 155.949,-130.491 L 155.982,-130.502
 L 156.015,-130.513 L 156.049,-130.523 L 156.082,-130.532 L 156.116,-130.541 L 156.15,-130.549 L 156.184,-130.556
 L 156.218,-130.563 L 156.253,-130.57 L 156.287,-130.575 L 156.322,-130.581 L 156.356,-130.585 L 156.391,-130.589
 L 156.426,-130.592 L 156.46,-130.595 L 156.495,-130.597 L 156.53,-130.599 L 156.565,-130.6 L 156.6,-130.6
 L 156.635,-130.6 L 156.67,-130.599 L 156.705,-130.597 L 156.74,-130.595 L 156.774,-130.592 L 156.809,-130.589
 L 156.844,-130.585 L 156.878,-130.581 L 156.913,-130.575 L 156.947,-130.57 L 156.982,-130.563 L 157.016,-130.556
 L 157.05,-130.549 L 157.084,-130.541 L 157.118,-130.532 L 157.151,-130.523 L 157.185,-130.513 L 157.218,-130.502
 L 157.251,-130.491 L 157.284,-130.479 L 157.317,-130.467 L 157.349,-130.454 L 157.381,-130.441 L 157.413,-130.427
 L 157.445,-130.413 L 157.477,-130.398 L 157.508,-130.382 L 157.539,-130.366 L 157.57,-130.349 L 157.6,-130.332
 L 157.63,-130.314 L 157.66,-130.296 L 157.689,-130.277 L 157.718,-130.258 L 157.747,-130.238 L 157.776,-130.218
 L 157.804,-130.197 L 157.831,-130.176 L 157.859,-130.154 L 157.886,-130.132 L 157.912,-130.109 L 157.938,-130.086
 L 157.964,-130.063 L 157.989,-130.039 L 158.014,-130.014 L 158.039,-129.989 L 158.063,-129.964 L 158.086,-129.938
 L 158.109,-129.912 L 158.132,-129.886 L 158.154,-129.859 L 158.176,-129.831 L 158.197,-129.804 L 158.218,-129.776
 L 158.238,-129.747 L 158.258,-129.718 L 158.277,-129.689 L 158.296,-129.66 L 158.314,-129.63 L 158.332,-129.6
 L 158.349,-129.57 L 158.366,-129.539 L 158.382,-129.508 L 158.398,-129.477 L 158.413,-129.445 L 158.427,-129.413
 L 158.441,-129.381 L 158.454,-129.349 L 158.467,-129.317 L 158.479,-129.284 L 158.491,-129.251 L 158.502,-129.218
 L 158.513,-129.185 L 158.523,-129.151 L 158.532,-129.118 L 158.541,-129.084 L 158.549,-129.05 L 158.556,-129.016
 L 158.563,-128.982 L 158.57,-128.947 L 158.575,-128.913 L 158.581,-128.878 L 158.585,-128.844 L 158.589,-128.809
 L 158.592,-128.774 L 158.595,-128.74 L 158.597,-128.705 L 158.599,-128.67 L 158.6,-128.635 L 158.6,-128.6
 L 158.6,-128.565 L 158.599,-128.53 L 158.597,-128.495 L 158.595,-128.46 L 158.592,-128.426 L 158.589,-128.391
 L 158.585,-128.356 L 158.581,-128.322 L 158.575,-128.287 L 158.57,-128.253 L 158.563,-128.218 L 158.556,-128.184
 L 158.549,-128.15 L 158.541,-128.116 L 158.532,-128.082 L 158.523,-128.049 L 158.513,-128.015 L 158.502,-127.982
 L 158.491,-127.949 L 158.479,-127.916 L 158.467,-127.883 L 158.454,-127.851 L 158.441,-127.819 L 158.427,-127.787
 L 158.413,-127.755 L 158.398,-127.723 L 158.382,-127.692 L 158.366,-127.661 L 158.349,-127.63 L 158.332,-127.6
 L 158.314,-127.57 L 158.296,-127.54 L 158.277,-127.511 L 158.258,-127.482 L 158.238,-127.453 L 158.218,-127.424
 L 158.197,-127.396 L 158.176,-127.369 L 158.154,-127.341 L 158.132,-127.314 L 158.109,-127.288 L 158.086,-127.262
 L 158.063,-127.236 L 158.039,-127.211 L 158.014,-127.186 L 157.989,-127.161 L 157.964,-127.137 L 157.938,-127.114
 L 157.912,-127.091 L 157.886,-127.068 L 157.859,-127.046 L 157.831,-127.024 L 157.804,-127.003 L 157.776,-126.982
 L 157.747,-126.962 L 157.718,-126.942 L 157.689,-126.923 L 157.66,-126.904 L 157.63,-126.886 L 157.6,-126.868
 L 157.57,-126.851 L 157.539,-126.834 L 157.508,-126.818 L 157.477,-126.802 L 157.445,-126.787 L 157.413,-126.773
 L 157.381,-126.759 L 157.349,-126.746 L 157.317,-126.733 L 157.284,-126.721 L 157.251,-126.709 L 157.218,-126.698
 L 157.185,-126.687 L 157.151,-126.677 L 157.118,-126.668 L 157.084,-126.659 L 157.05,-126.651 L 157.016,-126.644
 L 156.982,-126.637 L 156.947,-126.63 L 156.913,-126.625 L 156.878,-126.619 L 156.844,-126.615 L 156.809,-126.611
 L 156.774,-126.608 L 156.74,-126.605 L 156.705,-126.603 L 156.67,-126.601 L 156.635,-126.6 L 156.6,-126.6
 z
M 59.3651,-126.6 L 59.3302,-126.601 L 59.2953,-126.603 L 59.2605,-126.605 L 59.2257,-126.608 L 59.1909,-126.611
 L 59.1562,-126.615 L 59.1216,-126.619 L 59.0871,-126.625 L 59.0527,-126.63 L 59.0184,-126.637 L 58.9842,-126.644
 L 58.9501,-126.651 L 58.9162,-126.659 L 58.8824,-126.668 L 58.8487,-126.677 L 58.8152,-126.687 L 58.782,-126.698
 L 58.7489,-126.709 L 58.716,-126.721 L 58.6833,-126.733 L 58.6508,-126.746 L 58.6185,-126.759 L 58.5865,-126.773
 L 58.5547,-126.787 L 58.5233,-126.802 L 58.492,-126.818 L 58.461,-126.834 L 58.4304,-126.851 L 58.4,-126.868
 L 58.3699,-126.886 L 58.3401,-126.904 L 58.3107,-126.923 L 58.2816,-126.942 L 58.2528,-126.962 L 58.2244,-126.982
 L 58.1964,-127.003 L 58.1687,-127.024 L 58.1414,-127.046 L 58.1144,-127.068 L 58.0879,-127.091 L 58.0617,-127.114
 L 58.036,-127.137 L 58.0107,-127.161 L 57.9858,-127.186 L 57.9613,-127.211 L 57.9373,-127.236 L 57.9137,-127.262
 L 57.8906,-127.288 L 57.8679,-127.314 L 57.8457,-127.341 L 57.824,-127.369 L 57.8027,-127.396 L 57.782,-127.424
 L 57.7617,-127.453 L 57.7419,-127.482 L 57.7227,-127.511 L 57.7039,-127.54 L 57.6857,-127.57 L 57.6679,-127.6
 L 57.6508,-127.63 L 57.6341,-127.661 L 57.618,-127.692 L 57.6024,-127.723 L 57.5874,-127.755 L 57.5729,-127.787
 L 57.559,-127.819 L 57.5456,-127.851 L 57.5328,-127.883 L 57.5206,-127.916 L 57.509,-127.949 L 57.4979,-127.982
 L 57.4874,-128.015 L 57.4775,-128.049 L 57.4681,-128.082 L 57.4594,-128.116 L 57.4512,-128.15 L 57.4437,-128.184
 L 57.4367,-128.218 L 57.4304,-128.253 L 57.4246,-128.287 L 57.4194,-128.322 L 57.4149,-128.356 L 57.4109,-128.391
 L 57.4076,-128.426 L 57.4049,-128.46 L 57.4027,-128.495 L 57.4012,-128.53 L 57.4003,-128.565 L 57.4,-128.6
 L 57.4003,-128.635 L 57.4012,-128.67 L 57.4027,-128.705 L 57.4049,-128.74 L 57.4076,-128.774 L 57.4109,-128.809
 L 57.4149,-128.844 L 57.4194,-128.878 L 57.4246,-128.913 L 57.4304,-128.947 L 57.4367,-128.982 L 57.4437,-129.016
 L 57.4512,-129.05 L 57.4594,-129.084 L 57.4681,-129.118 L 57.4775,-129.151 L 57.4874,-129.185 L 57.4979,-129.218
 L 57.509,-129.251 L 57.5206,-129.284 L 57.5328,-129.317 L 57.5456,-129.349 L 57.559,-129.381 L 57.5729,-129.413
 L 57.5874,-129.445 L 57.6024,-129.477 L 57.618,-129.508 L 57.6341,-129.539 L 57.6508,-129.57 L 57.6679,-129.6
 L 57.6857,-129.63 L 57.7039,-129.66 L 57.7227,-129.689 L 57.7419,-129.718 L 57.7617,-129.747 L 57.782,-129.776
 L 57.8027,-129.804 L 57.824,-129.831 L 57.8457,-129.859 L 57.8679,-129.886 L 57.8906,-129.912 L 57.9137,-129.938
 L 57.9373,-129.964 L 57.9613,-129.989 L 57.9858,-130.014 L 58.0107,-130.039 L 58.036,-130.063 L 58.0617,-130.086
 L 58.0879,-130.109 L 58.1144,-130.132 L 58.1414,-130.154 L 58.1687,-130.176 L 58.1964,-130.197 L 58.2244,-130.218
 L 58.2528,-130.238 L 58.2816,-130.258 L 58.3107,-130.277 L 58.3401,-130.296 L 58.3699,-130.314 L 58.4,-130.332
 L 58.4304,-130.349 L 58.461,-130.366 L 58.492,-130.382 L 58.5233,-130.398 L 58.5547,-130.413 L 58.5865,-130.427
 L 58.6185,-130.441 L 58.6508,-130.454 L 58.6833,-130.467 L 58.716,-130.479 L 58.7489,-130.491 L 58.782,-130.502
 L 58.8152,-130.513 L 58.8487,-130.523 L 58.8824,-130.532 L 58.9162,-130.541 L 58.9501,-130.549 L 58.9842,-130.556
 L 59.0184,-130.563 L 59.0527,-130.57 L 59.0871,-130.575 L 59.1216,-130.581 L 59.1562,-130.585 L 59.1909,-130.589
 L 59.2257,-130.592 L 59.2605,-130.595 L 59.2953,-130.597 L 59.3302,-130.599 L 59.3651,-130.6 L 59.4,-130.6
 L 59.4349,-130.6 L 59.4698,-130.599 L 59.5047,-130.597 L 59.5395,-130.595 L 59.5743,-130.592 L 59.6091,-130.589
 L 59.6437,-130.585 L 59.6783,-130.581 L 59.7129,-130.575 L 59.7473,-130.57 L 59.7816,-130.563 L 59.8158,-130.556
 L 59.8499,-130.549 L 59.8838,-130.541 L 59.9176,-130.532 L 59.9513,-130.523 L 59.9847,-130.513 L 60.018,-130.502
 L 60.0511,-130.491 L 60.084,-130.479 L 60.1167,-130.467 L 60.1492,-130.454 L 60.1815,-130.441 L 60.2135,-130.427
 L 60.2452,-130.413 L 60.2767,-130.398 L 60.308,-130.382 L 60.3389,-130.366 L 60.3696,-130.349 L 60.4,-130.332
 L 60.4301,-130.314 L 60.4598,-130.296 L 60.4893,-130.277 L 60.5184,-130.258 L 60.5471,-130.238 L 60.5756,-130.218
 L 60.6036,-130.197 L 60.6313,-130.176 L 60.6586,-130.154 L 60.6856,-130.132 L 60.7121,-130.109 L 60.7383,-130.086
 L 60.764,-130.063 L 60.7893,-130.039 L 60.8142,-130.014 L 60.8387,-129.989 L 60.8627,-129.964 L 60.8863,-129.938
 L 60.9094,-129.912 L 60.9321,-129.886 L 60.9543,-129.859 L 60.976,-129.831 L 60.9973,-129.804 L 61.018,-129.776
 L 61.0383,-129.747 L 61.0581,-129.718 L 61.0773,-129.689 L 61.0961,-129.66 L 61.1143,-129.63 L 61.132,-129.6
 L 61.1492,-129.57 L 61.1659,-129.539 L 61.182,-129.508 L 61.1976,-129.477 L 61.2126,-129.445 L 61.2271,-129.413
 L 61.241,-129.381 L 61.2544,-129.349 L 61.2672,-129.317 L 61.2794,-129.284 L 61.291,-129.251 L 61.3021,-129.218
 L 61.3126,-129.185 L 61.3225,-129.151 L 61.3318,-129.118 L 61.3406,-129.084 L 61.3487,-129.05 L 61.3563,-129.016
 L 61.3633,-128.982 L 61.3696,-128.947 L 61.3754,-128.913 L 61.3805,-128.878 L 61.3851,-128.844 L 61.389,-128.809
 L 61.3924,-128.774 L 61.3951,-128.74 L 61.3972,-128.705 L 61.3988,-128.67 L 61.3997,-128.635 L 61.4,-128.6
 L 61.3997,-128.565 L 61.3988,-128.53 L 61.3972,-128.495 L 61.3951,-128.46 L 61.3924,-128.426 L 61.389,-128.391
 L 61.3851,-128.356 L 61.3805,-128.322 L 61.3754,-128.287 L 61.3696,-128.253 L 61.3633,-128.218 L 61.3563,-128.184
 L 61.3487,-128.15 L 61.3406,-128.116 L 61.3318,-128.082 L 61.3225,-128.049 L 61.3126,-128.015 L 61.3021,-127.982
 L 61.291,-127.949 L 61.2794,-127.916 L 61.2672,-127.883 L 61.2544,-127.851 L 61.241,-127.819 L 61.2271,-127.787
 L 61.2126,-127.755 L 61.1976,-127.723 L 61.182,-127.692 L 61.1659,-127.661 L 61.1492,-127.63 L 61.132,-127.6
 L 61.1143,-127.57 L 61.0961,-127.54 L 61.0773,-127.511 L 61.0581,-127.482 L 61.0383,-127.453 L 61.018,-127.424
 L 60.9973,-127.396 L 60.976,-127.369 L 60.9543,-127.341 L 60.9321,-127.314 L 60.9094,-127.288 L 60.8863,-127.262
 L 60.8627,-127.236 L 60.8387,-127.211 L 60.8142,-127.186 L 60.7893,-127.161 L 60.764,-127.137 L 60.7383,-127.114
 L 60.7121,-127.091 L 60.6856,-127.068 L 60.6586,-127.046 L 60.6313,-127.024 L 60.6036,-127.003 L 60.5756,-126.982
 L 60.5471,-126.962 L 60.5184,-126.942 L 60.4893,-126.923 L 60.4598,-126.904 L 60.4301,-126.886 L 60.4,-126.868
 L 60.3696,-126.851 L 60.3389,-126.834 L 60.308,-126.818 L 60.2767,-126.802 L 60.2452,-126.787 L 60.2135,-126.773
 L 60.1815,-126.759 L 60.1492,-126.746 L 60.1167,-126.733 L 60.084,-126.721 L 60.0511,-126.709 L 60.018,-126.698
 L 59.9847,-126.687 L 59.9513,-126.677 L 59.9176,-126.668 L 59.8838,-126.659 L 59.8499,-126.651 L 59.8158,-126.644
 L 59.7816,-126.637 L 59.7473,-126.63 L 59.7129,-126.625 L 59.6783,-126.619 L 59.6437,-126.615 L 59.6091,-126.611
 L 59.5743,-126.608 L 59.5395,-126.605 L 59.5047,-126.603 L 59.4698,-126.601 L 59.4349,-126.6 L 59.4,-126.6
 z
M 96,-56 L 96,-80 L 100,-80 L 100,-56 z
M 104,-56 L 104,-80 L 108,-80 L 108,-56 z
M 112,-56 L 112,-80 L 116,-80 L 116,-56 z
M 59.3651,-5.4003 L 59.3302,-5.40121 L 59.2953,-5.40274 L 59.2605,-5.40486 L 59.2257,-5.40761 L 59.1909,-5.41095
 L 59.1562,-5.4149 L 59.1216,-5.41945 L 59.0871,-5.42462 L 59.0527,-5.43037 L 59.0184,-5.43674 L 58.9842,-5.4437
 L 58.9501,-5.45125 L 58.9162,-5.4594 L 58.8824,-5.46814 L 58.8487,-5.47746 L 58.8152,-5.48738 L 58.782,-5.49788
 L 58.7489,-5.50896 L 58.716,-5.52061 L 58.6833,-5.53284 L 58.6508,-5.54562 L 58.6185,-5.55898 L 58.5865,-5.57291
 L 58.5547,-5.58737 L 58.5233,-5.6024 L 58.492,-5.61798 L 58.461,-5.63409 L 58.4304,-5.65076 L 58.4,-5.66794
 L 58.3699,-5.68565 L 58.3401,-5.7039 L 58.3107,-5.72266 L 58.2816,-5.74191 L 58.2528,-5.76169 L 58.2244,-5.78195
 L 58.1964,-5.80272 L 58.1687,-5.82397 L 58.1414,-5.8457 L 58.1144,-5.8679 L 58.0879,-5.89058 L 58.0617,-5.9137
 L 58.036,-5.93729 L 58.0107,-5.96132 L 57.9858,-5.98578 L 57.9613,-6.01068 L 57.9373,-6.036 L 57.9137,-6.06174
 L 57.8906,-6.08788 L 57.8679,-6.11441 L 57.8457,-6.14136 L 57.824,-6.16867 L 57.8027,-6.19637 L 57.782,-6.22443
 L 57.7617,-6.25284 L 57.7419,-6.2816 L 57.7227,-6.31071 L 57.7039,-6.34015 L 57.6857,-6.36992 L 57.6679,-6.39999
 L 57.6508,-6.43037 L 57.6341,-6.46104 L 57.618,-6.492 L 57.6024,-6.52325 L 57.5874,-6.55475 L 57.5729,-6.58652
 L 57.559,-6.61853 L 57.5456,-6.65077 L 57.5328,-6.68326 L 57.5206,-6.71596 L 57.509,-6.74886 L 57.4979,-6.78195
 L 57.4874,-6.81525 L 57.4775,-6.84872 L 57.4681,-6.88235 L 57.4594,-6.91615 L 57.4512,-6.95009 L 57.4437,-6.98416
 L 57.4367,-7.01837 L 57.4304,-7.05269 L 57.4246,-7.08713 L 57.4194,-7.12164 L 57.4149,-7.15625 L 57.4109,-7.19093
 L 57.4076,-7.22568 L 57.4049,-7.26048 L 57.4027,-7.29532 L 57.4012,-7.3302 L 57.4003,-7.36508 L 57.4,-7.39999
 L 57.4003,-7.43489 L 57.4012,-7.46979 L 57.4027,-7.50467 L 57.4049,-7.53951 L 57.4076,-7.57431 L 57.4109,-7.60905
 L 57.4149,-7.64374 L 57.4194,-7.67834 L 57.4246,-7.71286 L 57.4304,-7.74728 L 57.4367,-7.78162 L 57.4437,-7.81581
 L 57.4512,-7.8499 L 57.4594,-7.88383 L 57.4681,-7.91763 L 57.4775,-7.95126 L 57.4874,-7.98474 L 57.4979,-8.01802
 L 57.509,-8.05113 L 57.5206,-8.08403 L 57.5328,-8.11673 L 57.5456,-8.1492 L 57.559,-8.18146 L 57.5729,-8.21347
 L 57.5874,-8.24522 L 57.6024,-8.27673 L 57.618,-8.30797 L 57.6341,-8.33893 L 57.6508,-8.36961 L 57.6679,-8.39999
 L 57.6857,-8.43007 L 57.7039,-8.45982 L 57.7227,-8.48927 L 57.7419,-8.51837 L 57.7617,-8.54715 L 57.782,-8.57556
 L 57.8027,-8.60362 L 57.824,-8.63132 L 57.8457,-8.65863 L 57.8679,-8.68556 L 57.8906,-8.71211 L 57.9137,-8.73825
 L 57.9373,-8.76399 L 57.9613,-8.78931 L 57.9858,-8.81421 L 58.0107,-8.83867 L 58.036,-8.8627 L 58.0617,-8.88628
 L 58.0879,-8.90941 L 58.1144,-8.93208 L 58.1414,-8.95428 L 58.1687,-8.97601 L 58.1964,-8.99727 L 58.2244,-9.01802
 L 58.2528,-9.0383 L 58.2816,-9.05807 L 58.3107,-9.07733 L 58.3401,-9.09608 L 58.3699,-9.11433 L 58.4,-9.13205
 L 58.4304,-9.14923 L 58.461,-9.16589 L 58.492,-9.18201 L 58.5233,-9.19759 L 58.5547,-9.2126 L 58.5865,-9.22708
 L 58.6185,-9.241 L 58.6508,-9.25436 L 58.6833,-9.26715 L 58.716,-9.27937 L 58.7489,-9.29103 L 58.782,-9.30211
 L 58.8152,-9.31261 L 58.8487,-9.32251 L 58.8824,-9.33185 L 58.9162,-9.34059 L 58.9501,-9.34874 L 58.9842,-9.35629
 L 59.0184,-9.36325 L 59.0527,-9.36961 L 59.0871,-9.37537 L 59.1216,-9.38052 L 59.1562,-9.38509 L 59.1909,-9.38904
 L 59.2257,-9.39238 L 59.2605,-9.39513 L 59.2953,-9.39725 L 59.3302,-9.39877 L 59.3651,-9.39969 L 59.4,-9.39999
 L 59.4349,-9.39969 L 59.4698,-9.39877 L 59.5047,-9.39725 L 59.5395,-9.39513 L 59.5743,-9.39238 L 59.6091,-9.38904
 L 59.6437,-9.38509 L 59.6783,-9.38052 L 59.7129,-9.37537 L 59.7473,-9.36961 L 59.7816,-9.36325 L 59.8158,-9.35629
 L 59.8499,-9.34874 L 59.8838,-9.34059 L 59.9176,-9.33185 L 59.9513,-9.32251 L 59.9847,-9.31261 L 60.018,-9.30211
 L 60.0511,-9.29103 L 60.084,-9.27937 L 60.1167,-9.26715 L 60.1492,-9.25436 L 60.1815,-9.241 L 60.2135,-9.22708
 L 60.2452,-9.2126 L 60.2767,-9.19759 L 60.308,-9.18201 L 60.3389,-9.16589 L 60.3696,-9.14923 L 60.4,-9.13205
 L 60.4301,-9.11433 L 60.4598,-9.09608 L 60.4893,-9.07733 L 60.5184,-9.05807 L 60.5471,-9.0383 L 60.5756,-9.01802
 L 60.6036,-8.99727 L 60.6313,-8.97601 L 60.6586,-8.95428 L 60.6856,-8.93208 L 60.7121,-8.90941 L 60.7383,-8.88628
 L 60.764,-8.8627 L 60.7893,-8.83867 L 60.8142,-8.81421 L 60.8387,-8.78931 L 60.8627,-8.76399 L 60.8863,-8.73825
 L 60.9094,-8.71211 L 60.9321,-8.68556 L 60.9543,-8.65863 L 60.976,-8.63132 L 60.9973,-8.60362 L 61.018,-8.57556
 L 61.0383,-8.54715 L 61.0581,-8.51837 L 61.0773,-8.48927 L 61.0961,-8.45982 L 61.1143,-8.43007 L 61.132,-8.39999
 L 61.1492,-8.36961 L 61.1659,-8.33893 L 61.182,-8.30797 L 61.1976,-8.27673 L 61.2126,-8.24522 L 61.2271,-8.21347
 L 61.241,-8.18146 L 61.2544,-8.1492 L 61.2672,-8.11673 L 61.2794,-8.08403 L 61.291,-8.05113 L 61.3021,-8.01802
 L 61.3126,-7.98474 L 61.3225,-7.95126 L 61.3318,-7.91763 L 61.3406,-7.88383 L 61.3487,-7.8499 L 61.3563,-7.81581
 L 61.3633,-7.78162 L 61.3696,-7.74728 L 61.3754,-7.71286 L 61.3805,-7.67834 L 61.3851,-7.64374 L 61.389,-7.60905
 L 61.3924,-7.57431 L 61.3951,-7.53951 L 61.3972,-7.50467 L 61.3988,-7.46979 L 61.3997,-7.43489 L 61.4,-7.39999
 L 61.3997,-7.36508 L 61.3988,-7.3302 L 61.3972,-7.29532 L 61.3951,-7.26048 L 61.3924,-7.22568 L 61.389,-7.19093
 L 61.3851,-7.15625 L 61.3805,-7.12164 L 61.3754,-7.08713 L 61.3696,-7.05269 L 61.3633,-7.01837 L 61.3563,-6.98416
 L 61.3487,-6.95009 L 61.3406,-6.91615 L 61.3318,-6.88235 L 61.3225,-6.84872 L 61.3126,-6.81525 L 61.3021,-6.78195
 L 61.291,-6.74886 L 61.2794,-6.71596 L 61.2672,-6.68326 L 61.2544,-6.65077 L 61.241,-6.61853 L 61.2271,-6.58652
 L 61.2126,-6.55475 L 61.1976,-6.52325 L 61.182,-6.492 L 61.1659,-6.46104 L 61.1492,-6.43037 L 61.132,-6.39999
 L 61.1143,-6.36992 L 61.0961,-6.34015 L 61.0773,-6.31071 L 61.0581,-6.2816 L 61.0383,-6.25284 L 61.018,-6.22443
 L 60.9973,-6.19637 L 60.976,-6.16867 L 60.9543,-6.14136 L 60.9321,-6.11441 L 60.9094,-6.08788 L 60.8863,-6.06174
 L 60.8627,-6.036 L 60.8387,-6.01068 L 60.8142,-5.98578 L 60.7893,-5.96132 L 60.764,-5.93729 L 60.7383,-5.9137
 L 60.7121,-5.89058 L 60.6856,-5.8679 L 60.6586,-5.8457 L 60.6313,-5.82397 L 60.6036,-5.80272 L 60.5756,-5.78195
 L 60.5471,-5.76169 L 60.5184,-5.74191 L 60.4893,-5.72266 L 60.4598,-5.7039 L 60.4301,-5.68565 L 60.4,-5.66794
 L 60.3696,-5.65076 L 60.3389,-5.63409 L 60.308,-5.61798 L 60.2767,-5.6024 L 60.2452,-5.58737 L 60.2135,-5.57291
 L 60.1815,-5.55898 L 60.1492,-5.54562 L 60.1167,-5.53284 L 60.084,-5.52061 L 60.0511,-5.50896 L 60.018,-5.49788
 L 59.9847,-5.48738 L 59.9513,-5.47746 L 59.9176,-5.46814 L 59.8838,-5.4594 L 59.8499,-5.45125 L 59.8158,-5.4437
 L 59.7816,-5.43674 L 59.7473,-5.43037 L 59.7129,-5.42462 L 59.6783,-5.41945 L 59.6437,-5.4149 L 59.6091,-5.41095
 L 59.5743,-5.40761 L 59.5395,-5.40486 L 59.5047,-5.40274 L 59.4698,-5.40121 L 59.4349,-5.4003 L 59.4,-5.39999
 z
M 156.565,-5.4003 L 156.53,-5.40121 L 156.495,-5.40274 L 156.46,-5.40486 L 156.426,-5.40761 L 156.391,-5.41095
 L 156.356,-5.4149 L 156.322,-5.41945 L 156.287,-5.42462 L 156.253,-5.43037 L 156.218,-5.43674 L 156.184,-5.4437
 L 156.15,-5.45125 L 156.116,-5.4594 L 156.082,-5.46814 L 156.049,-5.47746 L 156.015,-5.48738 L 155.982,-5.49788
 L 155.949,-5.50896 L 155.916,-5.52061 L 155.883,-5.53284 L 155.851,-5.54562 L 155.819,-5.55898 L 155.787,-5.57291
 L 155.755,-5.58737 L 155.723,-5.6024 L 155.692,-5.61798 L 155.661,-5.63409 L 155.63,-5.65076 L 155.6,-5.66794
 L 155.57,-5.68565 L 155.54,-5.7039 L 155.511,-5.72266 L 155.482,-5.74191 L 155.453,-5.76169 L 155.424,-5.78195
 L 155.396,-5.80272 L 155.369,-5.82397 L 155.341,-5.8457 L 155.314,-5.8679 L 155.288,-5.89058 L 155.262,-5.9137
 L 155.236,-5.93729 L 155.211,-5.96132 L 155.186,-5.98578 L 155.161,-6.01068 L 155.137,-6.036 L 155.114,-6.06174
 L 155.091,-6.08788 L 155.068,-6.11441 L 155.046,-6.14136 L 155.024,-6.16867 L 155.003,-6.19637 L 154.982,-6.22443
 L 154.962,-6.25284 L 154.942,-6.2816 L 154.923,-6.31071 L 154.904,-6.34015 L 154.886,-6.36992 L 154.868,-6.39999
 L 154.851,-6.43037 L 154.834,-6.46104 L 154.818,-6.492 L 154.802,-6.52325 L 154.787,-6.55475 L 154.773,-6.58652
 L 154.759,-6.61853 L 154.746,-6.65077 L 154.733,-6.68326 L 154.721,-6.71596 L 154.709,-6.74886 L 154.698,-6.78195
 L 154.687,-6.81525 L 154.677,-6.84872 L 154.668,-6.88235 L 154.659,-6.91615 L 154.651,-6.95009 L 154.644,-6.98416
 L 154.637,-7.01837 L 154.63,-7.05269 L 154.625,-7.08713 L 154.619,-7.12164 L 154.615,-7.15625 L 154.611,-7.19093
 L 154.608,-7.22568 L 154.605,-7.26048 L 154.603,-7.29532 L 154.601,-7.3302 L 154.6,-7.36508 L 154.6,-7.39999
 L 154.6,-7.43489 L 154.601,-7.46979 L 154.603,-7.50467 L 154.605,-7.53951 L 154.608,-7.57431 L 154.611,-7.60905
 L 154.615,-7.64374 L 154.619,-7.67834 L 154.625,-7.71286 L 154.63,-7.74728 L 154.637,-7.78162 L 154.644,-7.81581
 L 154.651,-7.8499 L 154.659,-7.88383 L 154.668,-7.91763 L 154.677,-7.95126 L 154.687,-7.98474 L 154.698,-8.01802
 L 154.709,-8.05113 L 154.721,-8.08403 L 154.733,-8.11673 L 154.746,-8.1492 L 154.759,-8.18146 L 154.773,-8.21347
 L 154.787,-8.24522 L 154.802,-8.27673 L 154.818,-8.30797 L 154.834,-8.33893 L 154.851,-8.36961 L 154.868,-8.39999
 L 154.886,-8.43007 L 154.904,-8.45982 L 154.923,-8.48927 L 154.942,-8.51837 L 154.962,-8.54715 L 154.982,-8.57556
 L 155.003,-8.60362 L 155.024,-8.63132 L 155.046,-8.65863 L 155.068,-8.68556 L 155.091,-8.71211 L 155.114,-8.73825
 L 155.137,-8.76399 L 155.161,-8.78931 L 155.186,-8.81421 L 155.211,-8.83867 L 155.236,-8.8627 L 155.262,-8.88628
 L 155.288,-8.90941 L 155.314,-8.93208 L 155.341,-8.95428 L 155.369,-8.97601 L 155.396,-8.99727 L 155.424,-9.01802
 L 155.453,-9.0383 L 155.482,-9.05807 L 155.511,-9.07733 L 155.54,-9.09608 L 155.57,-9.11433 L 155.6,-9.13205
 L 155.63,-9.14923 L 155.661,-9.16589 L 155.692,-9.18201 L 155.723,-9.19759 L 155.755,-9.2126 L 155.787,-9.22708
 L 155.819,-9.241 L 155.851,-9.25436 L 155.883,-9.26715 L 155.916,-9.27937 L 155.949,-9.29103 L 155.982,-9.30211
 L 156.015,-9.31261 L 156.049,-9.32251 L 156.082,-9.33185 L 156.116,-9.34059 L 156.15,-9.34874 L 156.184,-9.35629
 L 156.218,-9.36325 L 156.253,-9.36961 L 156.287,-9.37537 L 156.322,-9.38052 L 156.356,-9.38509 L 156.391,-9.38904
 L 156.426,-9.39238 L 156.46,-9.39513 L 156.495,-9.39725 L 156.53,-9.39877 L 156.565,-9.39969 L 156.6,-9.39999
 L 156.635,-9.39969 L 156.67,-9.39877 L 156.705,-9.39725 L 156.74,-9.39513 L 156.774,-9.39238 L 156.809,-9.38904
 L 156.844,-9.38509 L 156.878,-9.38052 L 156.913,-9.37537 L 156.947,-9.36961 L 156.982,-9.36325 L 157.016,-9.35629
 L 157.05,-9.34874 L 157.084,-9.34059 L 157.118,-9.33185 L 157.151,-9.32251 L 157.185,-9.31261 L 157.218,-9.30211
 L 157.251,-9.29103 L 157.284,-9.27937 L 157.317,-9.26715 L 157.349,-9.25436 L 157.381,-9.241 L 157.413,-9.22708
 L 157.445,-9.2126 L 157.477,-9.19759 L 157.508,-9.18201 L 157.539,-9.16589 L 157.57,-9.14923 L 157.6,-9.13205
 L 157.63,-9.11433 L 157.66,-9.09608 L 157.689,-9.07733 L 157.718,-9.05807 L 157.747,-9.0383 L 157.776,-9.01802
 L 157.804,-8.99727 L 157.831,-8.97601 L 157.859,-8.95428 L 157.886,-8.93208 L 157.912,-8.90941 L 157.938,-8.88628
 L 157.964,-8.8627 L 157.989,-8.83867 L 158.014,-8.81421 L 158.039,-8.78931 L 158.063,-8.76399 L 158.086,-8.73825
 L 158.109,-8.71211 L 158.132,-8.68556 L 158.154,-8.65863 L 158.176,-8.63132 L 158.197,-8.60362 L 158.218,-8.57556
 L 158.238,-8.54715 L 158.258,-8.51837 L 158.277,-8.48927 L 158.296,-8.45982 L 158.314,-8.43007 L 158.332,-8.39999
 L 158.349,-8.36961 L 158.366,-8.33893 L 158.382,-8.30797 L 158.398,-8.27673 L 158.413,-8.24522 L 158.427,-8.21347
 L 158.441,-8.18146 L 158.454,-8.1492 L 158.467,-8.11673 L 158.479,-8.08403 L 158.491,-8.05113 L 158.502,-8.01802
 L 158.513,-7.98474 L 158.523,-7.95126 L 158.532,-7.91763 L 158.541,-7.88383 L 158.549,-7.8499 L 158.556,-7.81581
 L 158.563,-7.78162 L 158.57,-7.74728 L 158.575,-7.71286 L 158.581,-7.67834 L 158.585,-7.64374 L 158.589,-7.60905
 L 158.592,-7.57431 L 158.595,-7.53951 L 158.597,-7.50467 L 158.599,-7.46979 L 158.6,-7.43489 L 158.6,-7.39999
 L 158.6,-7.36508 L 158.599,-7.3302 L 158.597,-7.29532 L 158.595,-7.26048 L 158.592,-7.22568 L 158.589,-7.19093
 L 158.585,-7.15625 L 158.581,-7.12164 L 158.575,-7.08713 L 158.57,-7.05269 L 158.563,-7.01837 L 158.556,-6.98416
 L 158.549,-6.95009 L 158.541,-6.91615 L 158.532,-6.88235 L 158.523,-6.84872 L 158.513,-6.81525 L 158.502,-6.78195
 L 158.491,-6.74886 L 158.479,-6.71596 L 158.467,-6.68326 L 158.454,-6.65077 L 158.441,-6.61853 L 158.427,-6.58652
 L 158.413,-6.55475 L 158.398,-6.52325 L 158.382,-6.492 L 158.366,-6.46104 L 158.349,-6.43037 L 158.332,-6.39999
 L 158.314,-6.36992 L 158.296,-6.34015 L 158.277,-6.31071 L 158.258,-6.2816 L 158.238,-6.25284 L 158.218,-6.22443
 L 158.197,-6.19637 L 158.176,-6.16867 L 158.154,-6.14136 L 158.132,-6.11441 L 158.109,-6.08788 L 158.086,-6.06174
 L 158.063,-6.036 L 158.039,-6.01068 L 158.014,-5.98578 L 157.989,-5.96132 L 157.964,-5.93729 L 157.938,-5.9137
 L 157.912,-5.89058 L 157.886,-5.8679 L 157.859,-5.8457 L 157.831,-5.82397 L 157.804,-5.80272 L 157.776,-5.78195
 L 157.747,-5.76169 L 157.718,-5.74191 L 157.689,-5.72266 L 157.66,-5.7039 L 157.63,-5.68565 L 157.6,-5.66794
 L 157.57,-5.65076 L 157.539,-5.63409 L 157.508,-5.61798 L 157.477,-5.6024 L 157.445,-5.58737 L 157.413,-5.57291
 L 157.381,-5.55898 L 157.349,-5.54562 L 157.317,-5.53284 L 157.284,-5.52061 L 157.251,-5.50896 L 157.218,-5.49788
 L 157.185,-5.48738 L 157.151,-5.47746 L 157.118,-5.46814 L 157.084,-5.4594 L 157.05,-5.45125 L 157.016,-5.4437
 L 156.982,-5.43674 L 156.947,-5.43037 L 156.913,-5.42462 L 156.878,-5.41945 L 156.844,-5.4149 L 156.809,-5.41095
 L 156.774,-5.40761 L 156.74,-5.40486 L 156.705,-5.40274 L 156.67,-5.40121 L 156.635,-5.4003 L 156.6,-5.39999
 z
M 36,-132 L 12,-132 L 11.7906,-131.998 L 11.5812,-131.993 L 11.372,-131.984 L 11.1629,-131.971
 L 10.9541,-131.954 L 10.7457,-131.934 L 10.5376,-131.911 L 10.3299,-131.883 L 10.1228,-131.852 L 9.91623,-131.818
 L 9.7103,-131.78 L 9.50507,-131.738 L 9.3006,-131.692 L 9.09694,-131.644 L 8.89418,-131.591 L 8.69235,-131.535
 L 8.49155,-131.476 L 8.29181,-131.413 L 8.09319,-131.346 L 7.89577,-131.276 L 7.69958,-131.203 L 7.50473,-131.126
 L 7.31123,-131.046 L 7.11917,-130.963 L 6.92859,-130.876 L 6.73955,-130.786 L 6.55212,-130.692 L 6.36635,-130.595
 L 6.1823,-130.495 L 6,-130.392 L 5.81955,-130.286 L 5.64098,-130.177 L 5.46434,-130.064 L 5.28969,-129.948
 L 5.1171,-129.83 L 4.94658,-129.708 L 4.77823,-129.584 L 4.61208,-129.456 L 4.44817,-129.326 L 4.28656,-129.193
 L 4.1273,-129.057 L 3.97044,-128.918 L 3.81602,-128.776 L 3.66411,-128.632 L 3.51472,-128.485 L 3.36794,-128.336
 L 3.22377,-128.184 L 3.08228,-128.03 L 2.9435,-127.873 L 2.80748,-127.713 L 2.67426,-127.552 L 2.54388,-127.388
 L 2.41638,-127.222 L 2.29181,-127.053 L 2.17018,-126.883 L 2.05156,-126.71 L 1.93596,-126.536 L 1.82343,-126.359
 L 1.714,-126.18 L 1.6077,-126 L 1.50458,-125.818 L 1.40463,-125.634 L 1.30792,-125.448 L 1.21448,-125.26
 L 1.12431,-125.071 L 1.03746,-124.881 L 0.953949,-124.689 L 0.873795,-124.495 L 0.797043,-124.3 L 0.723694,-124.104
 L 0.653778,-123.907 L 0.587326,-123.708 L 0.524353,-123.508 L 0.464874,-123.308 L 0.408905,-123.106 L 0.356461,-122.903
 L 0.307571,-122.699 L 0.262238,-122.495 L 0.220474,-122.29 L 0.182312,-122.084 L 0.147751,-121.877 L 0.116791,-121.67
 L 0.089447,-121.462 L 0.0657501,-121.254 L 0.0456696,-121.046 L 0.0292358,-120.837 L 0.016449,-120.628 L 0.00732422,-120.419
 L 0.00183105,-120.209 L 0,-120 L 0.00183105,-119.791 L 0.00732422,-119.581 L 0.016449,-119.372 L 0.0292358,-119.163
 L 0.0456696,-118.954 L 0.0657501,-118.746 L 0.089447,-118.538 L 0.116791,-118.33 L 0.147751,-118.123 L 0.182312,-117.916
 L 0.220474,-117.71 L 0.262238,-117.505 L 0.307571,-117.301 L 0.356461,-117.097 L 0.408905,-116.894 L 0.464874,-116.692
 L 0.524353,-116.492 L 0.587326,-116.292 L 0.653778,-116.093 L 0.723694,-115.896 L 0.797043,-115.7 L 0.873795,-115.505
 L 0.953949,-115.311 L 1.03746,-115.119 L 1.12431,-114.929 L 1.21448,-114.74 L 1.30792,-114.552 L 1.40463,-114.366
 L 1.50458,-114.182 L 1.6077,-114 L 1.714,-113.82 L 1.82343,-113.641 L 1.93596,-113.464 L 2.05156,-113.29
 L 2.17018,-113.117 L 2.29181,-112.947 L 2.41638,-112.778 L 2.54388,-112.612 L 2.67426,-112.448 L 2.80748,-112.287
 L 2.9435,-112.127 L 3.08228,-111.97 L 3.22377,-111.816 L 3.36794,-111.664 L 3.51472,-111.515 L 3.66411,-111.368
 L 3.81602,-111.224 L 3.97044,-111.082 L 4.1273,-110.943 L 4.28656,-110.807 L 4.44817,-110.674 L 4.61208,-110.544
 L 4.77823,-110.416 L 4.94658,-110.292 L 5.1171,-110.17 L 5.28969,-110.052 L 5.46434,-109.936 L 5.64098,-109.823
 L 5.81955,-109.714 L 6,-109.608 L 6.1823,-109.505 L 6.36635,-109.405 L 6.55212,-109.308 L 6.73955,-109.214
 L 6.92859,-109.124 L 7.11917,-109.037 L 7.31123,-108.954 L 7.50473,-108.874 L 7.69958,-108.797 L 7.89577,-108.724
 L 8.09319,-108.654 L 8.29181,-108.587 L 8.49155,-108.524 L 8.69235,-108.465 L 8.89418,-108.409 L 9.09694,-108.356
 L 9.3006,-108.308 L 9.50507,-108.262 L 9.7103,-108.22 L 9.91623,-108.182 L 10.1228,-108.148 L 10.3299,-108.117
 L 10.5376,-108.089 L 10.7457,-108.066 L 10.9541,-108.046 L 11.1629,-108.029 L 11.372,-108.016 L 11.5812,-108.007
 L 11.7906,-108.002 L 12,-108 L 36,-108 z
M 11.9651,-118 L 11.9302,-118.001 L 11.8953,-118.003 L 11.8605,-118.005 L 11.8257,-118.008 L 11.791,-118.011
 L 11.7563,-118.015 L 11.7217,-118.019 L 11.6871,-118.025 L 11.6527,-118.03 L 11.6184,-118.037 L 11.5842,-118.044
 L 11.5501,-118.051 L 11.5162,-118.059 L 11.4824,-118.068 L 11.4487,-118.077 L 11.4153,-118.087 L 11.382,-118.098
 L 11.3489,-118.109 L 11.316,-118.121 L 11.2833,-118.133 L 11.2508,-118.146 L 11.2186,-118.159 L 11.1865,-118.173
 L 11.1548,-118.187 L 11.1233,-118.202 L 11.092,-118.218 L 11.0611,-118.234 L 11.0304,-118.251 L 11,-118.268
 L 10.9699,-118.286 L 10.9402,-118.304 L 10.9107,-118.323 L 10.8816,-118.342 L 10.8529,-118.362 L 10.8244,-118.382
 L 10.7964,-118.403 L 10.7687,-118.424 L 10.7414,-118.446 L 10.7144,-118.468 L 10.6879,-118.491 L 10.6617,-118.514
 L 10.636,-118.537 L 10.6107,-118.561 L 10.5858,-118.586 L 10.5613,-118.611 L 10.5373,-118.636 L 10.5137,-118.662
 L 10.4906,-118.688 L 10.4679,-118.714 L 10.4457,-118.741 L 10.424,-118.769 L 10.4027,-118.796 L 10.382,-118.824
 L 10.3617,-118.853 L 10.3419,-118.882 L 10.3227,-118.911 L 10.3039,-118.94 L 10.2857,-118.97 L 10.268,-119
 L 10.2508,-119.03 L 10.2341,-119.061 L 10.218,-119.092 L 10.2024,-119.123 L 10.1874,-119.155 L 10.1729,-119.187
 L 10.159,-119.219 L 10.1456,-119.251 L 10.1328,-119.283 L 10.1206,-119.316 L 10.109,-119.349 L 10.0979,-119.382
 L 10.0874,-119.415 L 10.0775,-119.449 L 10.0682,-119.482 L 10.0594,-119.516 L 10.0513,-119.55 L 10.0437,-119.584
 L 10.0368,-119.618 L 10.0304,-119.653 L 10.0246,-119.687 L 10.0195,-119.722 L 10.0149,-119.756 L 10.011,-119.791
 L 10.0076,-119.826 L 10.0049,-119.86 L 10.0027,-119.895 L 10.0012,-119.93 L 10.0003,-119.965 L 10,-120
 L 10.0003,-120.035 L 10.0012,-120.07 L 10.0027,-120.105 L 10.0049,-120.14 L 10.0076,-120.174 L 10.011,-120.209
 L 10.0149,-120.244 L 10.0195,-120.278 L 10.0246,-120.313 L 10.0304,-120.347 L 10.0368,-120.382 L 10.0437,-120.416
 L 10.0513,-120.45 L 10.0594,-120.484 L 10.0682,-120.518 L 10.0775,-120.551 L 10.0874,-120.585 L 10.0979,-120.618
 L 10.109,-120.651 L 10.1206,-120.684 L 10.1328,-120.717 L 10.1456,-120.749 L 10.159,-120.781 L 10.1729,-120.813
 L 10.1874,-120.845 L 10.2024,-120.877 L 10.218,-120.908 L 10.2341,-120.939 L 10.2508,-120.97 L 10.268,-121
 L 10.2857,-121.03 L 10.3039,-121.06 L 10.3227,-121.089 L 10.3419,-121.118 L 10.3617,-121.147 L 10.382,-121.176
 L 10.4027,-121.204 L 10.424,-121.231 L 10.4457,-121.259 L 10.4679,-121.286 L 10.4906,-121.312 L 10.5137,-121.338
 L 10.5373,-121.364 L 10.5613,-121.389 L 10.5858,-121.414 L 10.6107,-121.439 L 10.636,-121.463 L 10.6617,-121.486
 L 10.6879,-121.509 L 10.7144,-121.532 L 10.7414,-121.554 L 10.7687,-121.576 L 10.7964,-121.597 L 10.8244,-121.618
 L 10.8529,-121.638 L 10.8816,-121.658 L 10.9107,-121.677 L 10.9402,-121.696 L 10.9699,-121.714 L 11,-121.732
 L 11.0304,-121.749 L 11.0611,-121.766 L 11.092,-121.782 L 11.1233,-121.798 L 11.1548,-121.813 L 11.1865,-121.827
 L 11.2186,-121.841 L 11.2508,-121.854 L 11.2833,-121.867 L 11.316,-121.879 L 11.3489,-121.891 L 11.382,-121.902
 L 11.4153,-121.913 L 11.4487,-121.923 L 11.4824,-121.932 L 11.5162,-121.941 L 11.5501,-121.949 L 11.5842,-121.956
 L 11.6184,-121.963 L 11.6527,-121.97 L 11.6871,-121.975 L 11.7217,-121.981 L 11.7563,-121.985 L 11.791,-121.989
 L 11.8257,-121.992 L 11.8605,-121.995 L 11.8953,-121.997 L 11.9302,-121.999 L 11.9651,-122 L 12,-122
 L 12.0349,-122 L 12.0698,-121.999 L 12.1047,-121.997 L 12.1395,-121.995 L 12.1743,-121.992 L 12.209,-121.989
 L 12.2437,-121.985 L 12.2783,-121.981 L 12.3129,-121.975 L 12.3473,-121.97 L 12.3816,-121.963 L 12.4158,-121.956
 L 12.4499,-121.949 L 12.4838,-121.941 L 12.5176,-121.932 L 12.5513,-121.923 L 12.5847,-121.913 L 12.618,-121.902
 L 12.6511,-121.891 L 12.684,-121.879 L 12.7167,-121.867 L 12.7492,-121.854 L 12.7814,-121.841 L 12.8135,-121.827
 L 12.8452,-121.813 L 12.8767,-121.798 L 12.908,-121.782 L 12.9389,-121.766 L 12.9696,-121.749 L 13,-121.732
 L 13.0301,-121.714 L 13.0598,-121.696 L 13.0893,-121.677 L 13.1184,-121.658 L 13.1471,-121.638 L 13.1756,-121.618
 L 13.2036,-121.597 L 13.2313,-121.576 L 13.2586,-121.554 L 13.2856,-121.532 L 13.3121,-121.509 L 13.3383,-121.486
 L 13.364,-121.463 L 13.3893,-121.439 L 13.4142,-121.414 L 13.4387,-121.389 L 13.4627,-121.364 L 13.4863,-121.338
 L 13.5094,-121.312 L 13.5321,-121.286 L 13.5543,-121.259 L 13.576,-121.231 L 13.5973,-121.204 L 13.618,-121.176
 L 13.6383,-121.147 L 13.6581,-121.118 L 13.6773,-121.089 L 13.6961,-121.06 L 13.7143,-121.03 L 13.732,-121
 L 13.7492,-120.97 L 13.7659,-120.939 L 13.782,-120.908 L 13.7976,-120.877 L 13.8126,-120.845 L 13.8271,-120.813
 L 13.841,-120.781 L 13.8544,-120.749 L 13.8672,-120.717 L 13.8794,-120.684 L 13.891,-120.651 L 13.9021,-120.618
 L 13.9126,-120.585 L 13.9225,-120.551 L 13.9318,-120.518 L 13.9406,-120.484 L 13.9487,-120.45 L 13.9563,-120.416
 L 13.9632,-120.382 L 13.9696,-120.347 L 13.9754,-120.313 L 13.9805,-120.278 L 13.9851,-120.244 L 13.989,-120.209
 L 13.9924,-120.174 L 13.9951,-120.14 L 13.9973,-120.105 L 13.9988,-120.07 L 13.9997,-120.035 L 14,-120
 L 13.9997,-119.965 L 13.9988,-119.93 L 13.9973,-119.895 L 13.9951,-119.86 L 13.9924,-119.826 L 13.989,-119.791
 L 13.9851,-119.756 L 13.9805,-119.722 L 13.9754,-119.687 L 13.9696,-119.653 L 13.9632,-119.618 L 13.9563,-119.584
 L 13.9487,-119.55 L 13.9406,-119.516 L 13.9318,-119.482 L 13.9225,-119.449 L 13.9126,-119.415 L 13.9021,-119.382
 L 13.891,-119.349 L 13.8794,-119.316 L 13.8672,-119.283 L 13.8544,-119.251 L 13.841,-119.219 L 13.8271,-119.187
 L 13.8126,-119.155 L 13.7976,-119.123 L 13.782,-119.092 L 13.7659,-119.061 L 13.7492,-119.03 L 13.732,-119
 L 13.7143,-118.97 L 13.6961,-118.94 L 13.6773,-118.911 L 13.6581,-118.882 L 13.6383,-118.853 L 13.618,-118.824
 L 13.5973,-118.796 L 13.576,-118.769 L 13.5543,-118.741 L 13.5321,-118.714 L 13.5094,-118.688 L 13.4863,-118.662
 L 13.4627,-118.636 L 13.4387,-118.611 L 13.4142,-118.586 L 13.3893,-118.561 L 13.364,-118.537 L 13.3383,-118.514
 L 13.3121,-118.491 L 13.2856,-118.468 L 13.2586,-118.446 L 13.2313,-118.424 L 13.2036,-118.403 L 13.1756,-118.382
 L 13.1471,-118.362 L 13.1184,-118.342 L 13.0893,-118.323 L 13.0598,-118.304 L 13.0301,-118.286 L 13,-118.268
 L 12.9696,-118.251 L 12.9389,-118.234 L 12.908,-118.218 L 12.8767,-118.202 L 12.8452,-118.187 L 12.8135,-118.173
 L 12.7814,-118.159 L 12.7492,-118.146 L 12.7167,-118.133 L 12.684,-118.121 L 12.6511,-118.109 L 12.618,-118.098
 L 12.5847,-118.087 L 12.5513,-118.077 L 12.5176,-118.068 L 12.4838,-118.059 L 12.4499,-118.051 L 12.4158,-118.044
 L 12.3816,-118.037 L 12.3473,-118.03 L 12.3129,-118.025 L 12.2783,-118.019 L 12.2437,-118.015 L 12.209,-118.011
 L 12.1743,-118.008 L 12.1395,-118.005 L 12.1047,-118.003 L 12.0698,-118.001 L 12.0349,-118 L 12,-118
 z
M 36,-104 L 12,-104 L 11.7906,-103.998 L 11.5812,-103.993 L 11.372,-103.984 L 11.1629,-103.971
 L 10.9541,-103.954 L 10.7457,-103.934 L 10.5376,-103.911 L 10.3299,-103.883 L 10.1228,-103.852 L 9.91623,-103.818
 L 9.7103,-103.78 L 9.50507,-103.738 L 9.3006,-103.692 L 9.09694,-103.644 L 8.89418,-103.591 L 8.69235,-103.535
 L 8.49155,-103.476 L 8.29181,-103.413 L 8.09319,-103.346 L 7.89577,-103.276 L 7.69958,-103.203 L 7.50473,-103.126
 L 7.31123,-103.046 L 7.11917,-102.963 L 6.92859,-102.876 L 6.73955,-102.786 L 6.55212,-102.692 L 6.36635,-102.595
 L 6.1823,-102.495 L 6,-102.392 L 5.81955,-102.286 L 5.64098,-102.177 L 5.46434,-102.064 L 5.28969,-101.948
 L 5.1171,-101.83 L 4.94658,-101.708 L 4.77823,-101.584 L 4.61208,-101.456 L 4.44817,-101.326 L 4.28656,-101.193
 L 4.1273,-101.057 L 3.97044,-100.918 L 3.81602,-100.776 L 3.66411,-100.632 L 3.51472,-100.485 L 3.36794,-100.336
 L 3.22377,-100.184 L 3.08228,-100.03 L 2.9435,-99.8727 L 2.80748,-99.7134 L 2.67426,-99.5518 L 2.54388,-99.3879
 L 2.41638,-99.2218 L 2.29181,-99.0534 L 2.17018,-98.8829 L 2.05156,-98.7103 L 1.93596,-98.5357 L 1.82343,-98.359
 L 1.714,-98.1805 L 1.6077,-98 L 1.50458,-97.8177 L 1.40463,-97.6337 L 1.30792,-97.4479 L 1.21448,-97.2605
 L 1.12431,-97.0714 L 1.03746,-96.8808 L 0.953949,-96.6888 L 0.873795,-96.4953 L 0.797043,-96.3004 L 0.723694,-96.1042
 L 0.653778,-95.9068 L 0.587326,-95.7082 L 0.524353,-95.5085 L 0.464874,-95.3076 L 0.408905,-95.1058 L 0.356461,-94.9031
 L 0.307571,-94.6994 L 0.262238,-94.4949 L 0.220474,-94.2897 L 0.182312,-94.0838 L 0.147751,-93.8772 L 0.116791,-93.6701
 L 0.089447,-93.4624 L 0.0657501,-93.2543 L 0.0456696,-93.0459 L 0.0292358,-92.8371 L 0.016449,-92.628 L 0.00732422,-92.4188
 L 0.00183105,-92.2094 L 0,-92 L 0.00183105,-91.7906 L 0.00732422,-91.5812 L 0.016449,-91.372 L 0.0292358,-91.1629
 L 0.0456696,-90.9541 L 0.0657501,-90.7457 L 0.089447,-90.5376 L 0.116791,-90.3299 L 0.147751,-90.1228 L 0.182312,-89.9162
 L 0.220474,-89.7103 L 0.262238,-89.5051 L 0.307571,-89.3006 L 0.356461,-89.0969 L 0.408905,-88.8942 L 0.464874,-88.6924
 L 0.524353,-88.4915 L 0.587326,-88.2918 L 0.653778,-88.0932 L 0.723694,-87.8958 L 0.797043,-87.6996 L 0.873795,-87.5047
 L 0.953949,-87.3112 L 1.03746,-87.1192 L 1.12431,-86.9286 L 1.21448,-86.7395 L 1.30792,-86.5521 L 1.40463,-86.3663
 L 1.50458,-86.1823 L 1.6077,-86 L 1.714,-85.8195 L 1.82343,-85.641 L 1.93596,-85.4643 L 2.05156,-85.2897
 L 2.17018,-85.1171 L 2.29181,-84.9466 L 2.41638,-84.7782 L 2.54388,-84.6121 L 2.67426,-84.4482 L 2.80748,-84.2866
 L 2.9435,-84.1273 L 3.08228,-83.9704 L 3.22377,-83.816 L 3.36794,-83.6641 L 3.51472,-83.5147 L 3.66411,-83.3679
 L 3.81602,-83.2238 L 3.97044,-83.0823 L 4.1273,-82.9435 L 4.28656,-82.8075 L 4.44817,-82.6743 L 4.61208,-82.5439
 L 4.77823,-82.4164 L 4.94658,-82.2918 L 5.1171,-82.1702 L 5.28969,-82.0516 L 5.46434,-81.936 L 5.64098,-81.8234
 L 5.81955,-81.714 L 6,-81.6077 L 6.1823,-81.5046 L 6.36635,-81.4046 L 6.55212,-81.3079 L 6.73955,-81.2145
 L 6.92859,-81.1243 L 7.11917,-81.0375 L 7.31123,-80.9539 L 7.50473,-80.8738 L 7.69958,-80.797 L 7.89577,-80.7237
 L 8.09319,-80.6538 L 8.29181,-80.5873 L 8.49155,-80.5244 L 8.69235,-80.4649 L 8.89418,-80.4089 L 9.09694,-80.3565
 L 9.3006,-80.3076 L 9.50507,-80.2622 L 9.7103,-80.2205 L 9.91623,-80.1823 L 10.1228,-80.1478 L 10.3299,-80.1168
 L 10.5376,-80.0894 L 10.7457,-80.0658 L 10.9541,-80.0457 L 11.1629,-80.0292 L 11.372,-80.0164 L 11.5812,-80.0073
 L 11.7906,-80.0018 L 12,-80 L 36,-80 z
M 11.9651,-90.0003 L 11.9302,-90.0012 L 11.8953,-90.0027 L 11.8605,-90.0049 L 11.8257,-90.0076 L 11.791,-90.011
 L 11.7563,-90.0149 L 11.7217,-90.0195 L 11.6871,-90.0246 L 11.6527,-90.0304 L 11.6184,-90.0368 L 11.5842,-90.0437
 L 11.5501,-90.0513 L 11.5162,-90.0594 L 11.4824,-90.0682 L 11.4487,-90.0775 L 11.4153,-90.0874 L 11.382,-90.0979
 L 11.3489,-90.109 L 11.316,-90.1206 L 11.2833,-90.1328 L 11.2508,-90.1456 L 11.2186,-90.159 L 11.1865,-90.1729
 L 11.1548,-90.1874 L 11.1233,-90.2024 L 11.092,-90.218 L 11.0611,-90.2341 L 11.0304,-90.2508 L 11,-90.268
 L 10.9699,-90.2857 L 10.9402,-90.3039 L 10.9107,-90.3227 L 10.8816,-90.3419 L 10.8529,-90.3617 L 10.8244,-90.382
 L 10.7964,-90.4027 L 10.7687,-90.424 L 10.7414,-90.4457 L 10.7144,-90.4679 L 10.6879,-90.4906 L 10.6617,-90.5137
 L 10.636,-90.5373 L 10.6107,-90.5613 L 10.5858,-90.5858 L 10.5613,-90.6107 L 10.5373,-90.636 L 10.5137,-90.6617
 L 10.4906,-90.6879 L 10.4679,-90.7144 L 10.4457,-90.7414 L 10.424,-90.7687 L 10.4027,-90.7964 L 10.382,-90.8244
 L 10.3617,-90.8529 L 10.3419,-90.8816 L 10.3227,-90.9107 L 10.3039,-90.9402 L 10.2857,-90.9699 L 10.268,-91
 L 10.2508,-91.0304 L 10.2341,-91.0611 L 10.218,-91.092 L 10.2024,-91.1233 L 10.1874,-91.1548 L 10.1729,-91.1865
 L 10.159,-91.2186 L 10.1456,-91.2508 L 10.1328,-91.2833 L 10.1206,-91.316 L 10.109,-91.3489 L 10.0979,-91.382
 L 10.0874,-91.4153 L 10.0775,-91.4487 L 10.0682,-91.4824 L 10.0594,-91.5162 L 10.0513,-91.5501 L 10.0437,-91.5842
 L 10.0368,-91.6184 L 10.0304,-91.6527 L 10.0246,-91.6871 L 10.0195,-91.7217 L 10.0149,-91.7563 L 10.011,-91.791
 L 10.0076,-91.8257 L 10.0049,-91.8605 L 10.0027,-91.8953 L 10.0012,-91.9302 L 10.0003,-91.9651 L 10,-92
 L 10.0003,-92.0349 L 10.0012,-92.0698 L 10.0027,-92.1047 L 10.0049,-92.1395 L 10.0076,-92.1743 L 10.011,-92.209
 L 10.0149,-92.2437 L 10.0195,-92.2783 L 10.0246,-92.3129 L 10.0304,-92.3473 L 10.0368,-92.3816 L 10.0437,-92.4158
 L 10.0513,-92.4499 L 10.0594,-92.4838 L 10.0682,-92.5176 L 10.0775,-92.5513 L 10.0874,-92.5847 L 10.0979,-92.618
 L 10.109,-92.6511 L 10.1206,-92.684 L 10.1328,-92.7167 L 10.1456,-92.7492 L 10.159,-92.7814 L 10.1729,-92.8135
 L 10.1874,-92.8452 L 10.2024,-92.8767 L 10.218,-92.908 L 10.2341,-92.9389 L 10.2508,-92.9696 L 10.268,-93
 L 10.2857,-93.0301 L 10.3039,-93.0598 L 10.3227,-93.0893 L 10.3419,-93.1184 L 10.3617,-93.1471 L 10.382,-93.1756
 L 10.4027,-93.2036 L 10.424,-93.2313 L 10.4457,-93.2586 L 10.4679,-93.2856 L 10.4906,-93.3121 L 10.5137,-93.3383
 L 10.5373,-93.364 L 10.5613,-93.3893 L 10.5858,-93.4142 L 10.6107,-93.4387 L 10.636,-93.4627 L 10.6617,-93.4863
 L 10.6879,-93.5094 L 10.7144,-93.5321 L 10.7414,-93.5543 L 10.7687,-93.576 L 10.7964,-93.5973 L 10.8244,-93.618
 L 10.8529,-93.6383 L 10.8816,-93.6581 L 10.9107,-93.6773 L 10.9402,-93.6961 L 10.9699,-93.7143 L 11,-93.732
 L 11.0304,-93.7492 L 11.0611,-93.7659 L 11.092,-93.782 L 11.1233,-93.7976 L 11.1548,-93.8126 L 11.1865,-93.8271
 L 11.2186,-93.841 L 11.2508,-93.8544 L 11.2833,-93.8672 L 11.316,-93.8794 L 11.3489,-93.891 L 11.382,-93.9021
 L 11.4153,-93.9126 L 11.4487,-93.9225 L 11.4824,-93.9318 L 11.5162,-93.9406 L 11.5501,-93.9487 L 11.5842,-93.9563
 L 11.6184,-93.9632 L 11.6527,-93.9696 L 11.6871,-93.9754 L 11.7217,-93.9805 L 11.7563,-93.9851 L 11.791,-93.989
 L 11.8257,-93.9924 L 11.8605,-93.9951 L 11.8953,-93.9973 L 11.9302,-93.9988 L 11.9651,-93.9997 L 12,-94
 L 12.0349,-93.9997 L 12.0698,-93.9988 L 12.1047,-93.9973 L 12.1395,-93.9951 L 12.1743,-93.9924 L 12.209,-93.989
 L 12.2437,-93.9851 L 12.2783,-93.9805 L 12.3129,-93.9754 L 12.3473,-93.9696 L 12.3816,-93.9632 L 12.4158,-93.9563
 L 12.4499,-93.9487 L 12.4838,-93.9406 L 12.5176,-93.9318 L 12.5513,-93.9225 L 12.5847,-93.9126 L 12.618,-93.9021
 L 12.6511,-93.891 L 12.684,-93.8794 L 12.7167,-93.8672 L 12.7492,-93.8544 L 12.7814,-93.841 L 12.8135,-93.8271
 L 12.8452,-93.8126 L 12.8767,-93.7976 L 12.908,-93.782 L 12.9389,-93.7659 L 12.9696,-93.7492 L 13,-93.732
 L 13.0301,-93.7143 L 13.0598,-93.6961 L 13.0893,-93.6773 L 13.1184,-93.6581 L 13.1471,-93.6383 L 13.1756,-93.618
 L 13.2036,-93.5973 L 13.2313,-93.576 L 13.2586,-93.5543 L 13.2856,-93.5321 L 13.3121,-93.5094 L 13.3383,-93.4863
 L 13.364,-93.4627 L 13.3893,-93.4387 L 13.4142,-93.4142 L 13.4387,-93.3893 L 13.4627,-93.364 L 13.4863,-93.3383
 L 13.5094,-93.3121 L 13.5321,-93.2856 L 13.5543,-93.2586 L 13.576,-93.2313 L 13.5973,-93.2036 L 13.618,-93.1756
 L 13.6383,-93.1471 L 13.6581,-93.1184 L 13.6773,-93.0893 L 13.6961,-93.0598 L 13.7143,-93.0301 L 13.732,-93
 L 13.7492,-92.9696 L 13.7659,-92.9389 L 13.782,-92.908 L 13.7976,-92.8767 L 13.8126,-92.8452 L 13.8271,-92.8135
 L 13.841,-92.7814 L 13.8544,-92.7492 L 13.8672,-92.7167 L 13.8794,-92.684 L 13.891,-92.6511 L 13.9021,-92.618
 L 13.9126,-92.5847 L 13.9225,-92.5513 L 13.9318,-92.5176 L 13.9406,-92.4838 L 13.9487,-92.4499 L 13.9563,-92.4158
 L 13.9632,-92.3816 L 13.9696,-92.3473 L 13.9754,-92.3129 L 13.9805,-92.2783 L 13.9851,-92.2437 L 13.989,-92.209
 L 13.9924,-92.1743 L 13.9951,-92.1395 L 13.9973,-92.1047 L 13.9988,-92.0698 L 13.9997,-92.0349 L 14,-92
 L 13.9997,-91.9651 L 13.9988,-91.9302 L 13.9973,-91.8953 L 13.9951,-91.8605 L 13.9924,-91.8257 L 13.989,-91.791
 L 13.9851,-91.7563 L 13.9805,-91.7217 L 13.9754,-91.6871 L 13.9696,-91.6527 L 13.9632,-91.6184 L 13.9563,-91.5842
 L 13.9487,-91.5501 L 13.9406,-91.5162 L 13.9318,-91.4824 L 13.9225,-91.4487 L 13.9126,-91.4153 L 13.9021,-91.382
 L 13.891,-91.3489 L 13.8794,-91.316 L 13.8672,-91.2833 L 13.8544,-91.2508 L 13.841,-91.2186 L 13.8271,-91.1865
 L 13.8126,-91.1548 L 13.7976,-91.1233 L 13.782,-91.092 L 13.7659,-91.0611 L 13.7492,-91.0304 L 13.732,-91
 L 13.7143,-90.9699 L 13.6961,-90.9402 L 13.6773,-90.9107 L 13.6581,-90.8816 L 13.6383,-90.8529 L 13.618,-90.8244
 L 13.5973,-90.7964 L 13.576,-90.7687 L 13.5543,-90.7414 L 13.5321,-90.7144 L 13.5094,-90.6879 L 13.4863,-90.6617
 L 13.4627,-90.636 L 13.4387,-90.6107 L 13.4142,-90.5858 L 13.3893,-90.5613 L 13.364,-90.5373 L 13.3383,-90.5137
 L 13.3121,-90.4906 L 13.2856,-90.4679 L 13.2586,-90.4457 L 13.2313,-90.424 L 13.2036,-90.4027 L 13.1756,-90.382
 L 13.1471,-90.3617 L 13.1184,-90.3419 L 13.0893,-90.3227 L 13.0598,-90.3039 L 13.0301,-90.2857 L 13,-90.268
 L 12.9696,-90.2508 L 12.9389,-90.2341 L 12.908,-90.218 L 12.8767,-90.2024 L 12.8452,-90.1874 L 12.8135,-90.1729
 L 12.7814,-90.159 L 12.7492,-90.1456 L 12.7167,-90.1328 L 12.684,-90.1206 L 12.6511,-90.109 L 12.618,-90.0979
 L 12.5847,-90.0874 L 12.5513,-90.0775 L 12.5176,-90.0682 L 12.4838,-90.0594 L 12.4499,-90.0513 L 12.4158,-90.0437
 L 12.3816,-90.0368 L 12.3473,-90.0304 L 12.3129,-90.0246 L 12.2783,-90.0195 L 12.2437,-90.0149 L 12.209,-90.011
 L 12.1743,-90.0076 L 12.1395,-90.0049 L 12.1047,-90.0027 L 12.0698,-90.0012 L 12.0349,-90.0003 L 12,-90
 z
M 36,-76 L 12,-76 L 11.7906,-75.9982 L 11.5812,-75.9927 L 11.372,-75.9836 L 11.1629,-75.9708
 L 10.9541,-75.9543 L 10.7457,-75.9342 L 10.5376,-75.9106 L 10.3299,-75.8832 L 10.1228,-75.8522 L 9.91623,-75.8177
 L 9.7103,-75.7795 L 9.50507,-75.7378 L 9.3006,-75.6924 L 9.09694,-75.6435 L 8.89418,-75.5911 L 8.69235,-75.5351
 L 8.49155,-75.4756 L 8.29181,-75.4127 L 8.09319,-75.3462 L 7.89577,-75.2763 L 7.69958,-75.203 L 7.50473,-75.1262
 L 7.31123,-75.0461 L 7.11917,-74.9625 L 6.92859,-74.8757 L 6.73955,-74.7855 L 6.55212,-74.6921 L 6.36635,-74.5954
 L 6.1823,-74.4954 L 6,-74.3923 L 5.81955,-74.286 L 5.64098,-74.1766 L 5.46434,-74.064 L 5.28969,-73.9484
 L 5.1171,-73.8298 L 4.94658,-73.7082 L 4.77823,-73.5836 L 4.61208,-73.4561 L 4.44817,-73.3257 L 4.28656,-73.1925
 L 4.1273,-73.0565 L 3.97044,-72.9177 L 3.81602,-72.7762 L 3.66411,-72.6321 L 3.51472,-72.4853 L 3.36794,-72.3359
 L 3.22377,-72.184 L 3.08228,-72.0296 L 2.9435,-71.8727 L 2.80748,-71.7134 L 2.67426,-71.5518 L 2.54388,-71.3879
 L 2.41638,-71.2218 L 2.29181,-71.0534 L 2.17018,-70.8829 L 2.05156,-70.7103 L 1.93596,-70.5357 L 1.82343,-70.359
 L 1.714,-70.1805 L 1.6077,-70 L 1.50458,-69.8177 L 1.40463,-69.6337 L 1.30792,-69.4479 L 1.21448,-69.2605
 L 1.12431,-69.0714 L 1.03746,-68.8808 L 0.953949,-68.6888 L 0.873795,-68.4953 L 0.797043,-68.3004 L 0.723694,-68.1042
 L 0.653778,-67.9068 L 0.587326,-67.7082 L 0.524353,-67.5085 L 0.464874,-67.3076 L 0.408905,-67.1058 L 0.356461,-66.9031
 L 0.307571,-66.6994 L 0.262238,-66.4949 L 0.220474,-66.2897 L 0.182312,-66.0838 L 0.147751,-65.8772 L 0.116791,-65.6701
 L 0.089447,-65.4624 L 0.0657501,-65.2543 L 0.0456696,-65.0459 L 0.0292358,-64.8371 L 0.016449,-64.628 L 0.00732422,-64.4188
 L 0.00183105,-64.2094 L 0,-64 L 0.00183105,-63.7906 L 0.00732422,-63.5812 L 0.016449,-63.372 L 0.0292358,-63.1629
 L 0.0456696,-62.9541 L 0.0657501,-62.7457 L 0.089447,-62.5376 L 0.116791,-62.3299 L 0.147751,-62.1228 L 0.182312,-61.9162
 L 0.220474,-61.7103 L 0.262238,-61.5051 L 0.307571,-61.3006 L 0.356461,-61.0969 L 0.408905,-60.8942 L 0.464874,-60.6924
 L 0.524353,-60.4915 L 0.587326,-60.2918 L 0.653778,-60.0932 L 0.723694,-59.8958 L 0.797043,-59.6996 L 0.873795,-59.5047
 L 0.953949,-59.3112 L 1.03746,-59.1192 L 1.12431,-58.9286 L 1.21448,-58.7395 L 1.30792,-58.5521 L 1.40463,-58.3663
 L 1.50458,-58.1823 L 1.6077,-58 L 1.714,-57.8195 L 1.82343,-57.641 L 1.93596,-57.4643 L 2.05156,-57.2897
 L 2.17018,-57.1171 L 2.29181,-56.9466 L 2.41638,-56.7782 L 2.54388,-56.6121 L 2.67426,-56.4482 L 2.80748,-56.2866
 L 2.9435,-56.1273 L 3.08228,-55.9704 L 3.22377,-55.816 L 3.36794,-55.6641 L 3.51472,-55.5147 L 3.66411,-55.3679
 L 3.81602,-55.2238 L 3.97044,-55.0823 L 4.1273,-54.9435 L 4.28656,-54.8075 L 4.44817,-54.6743 L 4.61208,-54.5439
 L 4.77823,-54.4164 L 4.94658,-54.2918 L 5.1171,-54.1702 L 5.28969,-54.0516 L 5.46434,-53.936 L 5.64098,-53.8234
 L 5.81955,-53.714 L 6,-53.6077 L 6.1823,-53.5046 L 6.36635,-53.4046 L 6.55212,-53.3079 L 6.73955,-53.2145
 L 6.92859,-53.1243 L 7.11917,-53.0375 L 7.31123,-52.9539 L 7.50473,-52.8738 L 7.69958,-52.797 L 7.89577,-52.7237
 L 8.09319,-52.6538 L 8.29181,-52.5873 L 8.49155,-52.5244 L 8.69235,-52.4649 L 8.89418,-52.4089 L 9.09694,-52.3565
 L 9.3006,-52.3076 L 9.50507,-52.2622 L 9.7103,-52.2205 L 9.91623,-52.1823 L 10.1228,-52.1478 L 10.3299,-52.1168
 L 10.5376,-52.0894 L 10.7457,-52.0658 L 10.9541,-52.0457 L 11.1629,-52.0292 L 11.372,-52.0164 L 11.5812,-52.0073
 L 11.7906,-52.0018 L 12,-52 L 36,-52 z
M 11.9651,-62.0003 L 11.9302,-62.0012 L 11.8953,-62.0027 L 11.8605,-62.0049 L 11.8257,-62.0076 L 11.791,-62.011
 L 11.7563,-62.0149 L 11.7217,-62.0195 L 11.6871,-62.0246 L 11.6527,-62.0304 L 11.6184,-62.0368 L 11.5842,-62.0437
 L 11.5501,-62.0513 L 11.5162,-62.0594 L 11.4824,-62.0682 L 11.4487,-62.0775 L 11.4153,-62.0874 L 11.382,-62.0979
 L 11.3489,-62.109 L 11.316,-62.1206 L 11.2833,-62.1328 L 11.2508,-62.1456 L 11.2186,-62.159 L 11.1865,-62.1729
 L 11.1548,-62.1874 L 11.1233,-62.2024 L 11.092,-62.218 L 11.0611,-62.2341 L 11.0304,-62.2508 L 11,-62.268
 L 10.9699,-62.2857 L 10.9402,-62.3039 L 10.9107,-62.3227 L 10.8816,-62.3419 L 10.8529,-62.3617 L 10.8244,-62.382
 L 10.7964,-62.4027 L 10.7687,-62.424 L 10.7414,-62.4457 L 10.7144,-62.4679 L 10.6879,-62.4906 L 10.6617,-62.5137
 L 10.636,-62.5373 L 10.6107,-62.5613 L 10.5858,-62.5858 L 10.5613,-62.6107 L 10.5373,-62.636 L 10.5137,-62.6617
 L 10.4906,-62.6879 L 10.4679,-62.7144 L 10.4457,-62.7414 L 10.424,-62.7687 L 10.4027,-62.7964 L 10.382,-62.8244
 L 10.3617,-62.8529 L 10.3419,-62.8816 L 10.3227,-62.9107 L 10.3039,-62.9402 L 10.2857,-62.9699 L 10.268,-63
 L 10.2508,-63.0304 L 10.2341,-63.0611 L 10.218,-63.092 L 10.2024,-63.1233 L 10.1874,-63.1548 L 10.1729,-63.1865
 L 10.159,-63.2186 L 10.1456,-63.2508 L 10.1328,-63.2833 L 10.1206,-63.316 L 10.109,-63.3489 L 10.0979,-63.382
 L 10.0874,-63.4153 L 10.0775,-63.4487 L 10.0682,-63.4824 L 10.0594,-63.5162 L 10.0513,-63.5501 L 10.0437,-63.5842
 L 10.0368,-63.6184 L 10.0304,-63.6527 L 10.0246,-63.6871 L 10.0195,-63.7217 L 10.0149,-63.7563 L 10.011,-63.791
 L 10.0076,-63.8257 L 10.0049,-63.8605 L 10.0027,-63.8953 L 10.0012,-63.9302 L 10.0003,-63.9651 L 10,-64
 L 10.0003,-64.0349 L 10.0012,-64.0698 L 10.0027,-64.1047 L 10.0049,-64.1395 L 10.0076,-64.1743 L 10.011,-64.209
 L 10.0149,-64.2437 L 10.0195,-64.2783 L 10.0246,-64.3129 L 10.0304,-64.3473 L 10.0368,-64.3816 L 10.0437,-64.4158
 L 10.0513,-64.4499 L 10.0594,-64.4838 L 10.0682,-64.5176 L 10.0775,-64.5513 L 10.0874,-64.5847 L 10.0979,-64.618
 L 10.109,-64.6511 L 10.1206,-64.684 L 10.1328,-64.7167 L 10.1456,-64.7492 L 10.159,-64.7814 L 10.1729,-64.8135
 L 10.1874,-64.8452 L 10.2024,-64.8767 L 10.218,-64.908 L 10.2341,-64.9389 L 10.2508,-64.9696 L 10.268,-65
 L 10.2857,-65.0301 L 10.3039,-65.0598 L 10.3227,-65.0893 L 10.3419,-65.1184 L 10.3617,-65.1471 L 10.382,-65.1756
 L 10.4027,-65.2036 L 10.424,-65.2313 L 10.4457,-65.2586 L 10.4679,-65.2856 L 10.4906,-65.3121 L 10.5137,-65.3383
 L 10.5373,-65.364 L 10.5613,-65.3893 L 10.5858,-65.4142 L 10.6107,-65.4387 L 10.636,-65.4627 L 10.6617,-65.4863
 L 10.6879,-65.5094 L 10.7144,-65.5321 L 10.7414,-65.5543 L 10.7687,-65.576 L 10.7964,-65.5973 L 10.8244,-65.618
 L 10.8529,-65.6383 L 10.8816,-65.6581 L 10.9107,-65.6773 L 10.9402,-65.6961 L 10.9699,-65.7143 L 11,-65.732
 L 11.0304,-65.7492 L 11.0611,-65.7659 L 11.092,-65.782 L 11.1233,-65.7976 L 11.1548,-65.8126 L 11.1865,-65.8271
 L 11.2186,-65.841 L 11.2508,-65.8544 L 11.2833,-65.8672 L 11.316,-65.8794 L 11.3489,-65.891 L 11.382,-65.9021
 L 11.4153,-65.9126 L 11.4487,-65.9225 L 11.4824,-65.9318 L 11.5162,-65.9406 L 11.5501,-65.9487 L 11.5842,-65.9563
 L 11.6184,-65.9632 L 11.6527,-65.9696 L 11.6871,-65.9754 L 11.7217,-65.9805 L 11.7563,-65.9851 L 11.791,-65.989
 L 11.8257,-65.9924 L 11.8605,-65.9951 L 11.8953,-65.9973 L 11.9302,-65.9988 L 11.9651,-65.9997 L 12,-66
 L 12.0349,-65.9997 L 12.0698,-65.9988 L 12.1047,-65.9973 L 12.1395,-65.9951 L 12.1743,-65.9924 L 12.209,-65.989
 L 12.2437,-65.9851 L 12.2783,-65.9805 L 12.3129,-65.9754 L 12.3473,-65.9696 L 12.3816,-65.9632 L 12.4158,-65.9563
 L 12.4499,-65.9487 L 12.4838,-65.9406 L 12.5176,-65.9318 L 12.5513,-65.9225 L 12.5847,-65.9126 L 12.618,-65.9021
 L 12.6511,-65.891 L 12.684,-65.8794 L 12.7167,-65.8672 L 12.7492,-65.8544 L 12.7814,-65.841 L 12.8135,-65.8271
 L 12.8452,-65.8126 L 12.8767,-65.7976 L 12.908,-65.782 L 12.9389,-65.7659 L 12.9696,-65.7492 L 13,-65.732
 L 13.0301,-65.7143 L 13.0598,-65.6961 L 13.0893,-65.6773 L 13.1184,-65.6581 L 13.1471,-65.6383 L 13.1756,-65.618
 L 13.2036,-65.5973 L 13.2313,-65.576 L 13.2586,-65.5543 L 13.2856,-65.5321 L 13.3121,-65.5094 L 13.3383,-65.4863
 L 13.364,-65.4627 L 13.3893,-65.4387 L 13.4142,-65.4142 L 13.4387,-65.3893 L 13.4627,-65.364 L 13.4863,-65.3383
 L 13.5094,-65.3121 L 13.5321,-65.2856 L 13.5543,-65.2586 L 13.576,-65.2313 L 13.5973,-65.2036 L 13.618,-65.1756
 L 13.6383,-65.1471 L 13.6581,-65.1184 L 13.6773,-65.0893 L 13.6961,-65.0598 L 13.7143,-65.0301 L 13.732,-65
 L 13.7492,-64.9696 L 13.7659,-64.9389 L 13.782,-64.908 L 13.7976,-64.8767 L 13.8126,-64.8452 L 13.8271,-64.8135
 L 13.841,-64.7814 L 13.8544,-64.7492 L 13.8672,-64.7167 L 13.8794,-64.684 L 13.891,-64.6511 L 13.9021,-64.618
 L 13.9126,-64.5847 L 13.9225,-64.5513 L 13.9318,-64.5176 L 13.9406,-64.4838 L 13.9487,-64.4499 L 13.9563,-64.4158
 L 13.9632,-64.3816 L 13.9696,-64.3473 L 13.9754,-64.3129 L 13.9805,-64.2783 L 13.9851,-64.2437 L 13.989,-64.209
 L 13.9924,-64.1743 L 13.9951,-64.1395 L 13.9973,-64.1047 L 13.9988,-64.0698 L 13.9997,-64.0349 L 14,-64
 L 13.9997,-63.9651 L 13.9988,-63.9302 L 13.9973,-63.8953 L 13.9951,-63.8605 L 13.9924,-63.8257 L 13.989,-63.791
 L 13.9851,-63.7563 L 13.9805,-63.7217 L 13.9754,-63.6871 L 13.9696,-63.6527 L 13.9632,-63.6184 L 13.9563,-63.5842
 L 13.9487,-63.5501 L 13.9406,-63.5162 L 13.9318,-63.4824 L 13.9225,-63.4487 L 13.9126,-63.4153 L 13.9021,-63.382
 L 13.891,-63.3489 L 13.8794,-63.316 L 13.8672,-63.2833 L 13.8544,-63.2508 L 13.841,-63.2186 L 13.8271,-63.1865
 L 13.8126,-63.1548 L 13.7976,-63.1233 L 13.782,-63.092 L 13.7659,-63.0611 L 13.7492,-63.0304 L 13.732,-63
 L 13.7143,-62.9699 L 13.6961,-62.9402 L 13.6773,-62.9107 L 13.6581,-62.8816 L 13.6383,-62.8529 L 13.618,-62.8244
 L 13.5973,-62.7964 L 13.576,-62.7687 L 13.5543,-62.7414 L 13.5321,-62.7144 L 13.5094,-62.6879 L 13.4863,-62.6617
 L 13.4627,-62.636 L 13.4387,-62.6107 L 13.4142,-62.5858 L 13.3893,-62.5613 L 13.364,-62.5373 L 13.3383,-62.5137
 L 13.3121,-62.4906 L 13.2856,-62.4679 L 13.2586,-62.4457 L 13.2313,-62.424 L 13.2036,-62.4027 L 13.1756,-62.382
 L 13.1471,-62.3617 L 13.1184,-62.3419 L 13.0893,-62.3227 L 13.0598,-62.3039 L 13.0301,-62.2857 L 13,-62.268
 L 12.9696,-62.2508 L 12.9389,-62.2341 L 12.908,-62.218 L 12.8767,-62.2024 L 12.8452,-62.1874 L 12.8135,-62.1729
 L 12.7814,-62.159 L 12.7492,-62.1456 L 12.7167,-62.1328 L 12.684,-62.1206 L 12.6511,-62.109 L 12.618,-62.0979
 L 12.5847,-62.0874 L 12.5513,-62.0775 L 12.5176,-62.0682 L 12.4838,-62.0594 L 12.4499,-62.0513 L 12.4158,-62.0437
 L 12.3816,-62.0368 L 12.3473,-62.0304 L 12.3129,-62.0246 L 12.2783,-62.0195 L 12.2437,-62.0149 L 12.209,-62.011
 L 12.1743,-62.0076 L 12.1395,-62.0049 L 12.1047,-62.0027 L 12.0698,-62.0012 L 12.0349,-62.0003 L 12,-62
 z
M 48,-48 L 0,-48 L 0,-0 L 48,-0 z
M 12,-12 L 12,-36 L 16,-36 L 16,-12 z
M 20,-12 L 20,-36 L 24,-36 L 24,-12 z
M 28,-12 L 28,-36 L 32,-36 L 32,-12 z
" stroke="black" fill="lightgray" stroke-width="0.5"/>
</svg>
