  0
SECTION
  2
BLOCKS
  0
ENDSEC
  0
SECTION
  2
ENTITIES
  0
LINE
  8
0
 10
102
 20
6.58182
 11
102.988
 21
6.58182
  0
LINE
  8
0
 10
102.988
 20
6.58182
 11
104.856
 21
7.22314
  0
LINE
  8
0
 10
104.856
 20
7.22314
 11
106.414
 21
8.43631
  0
LINE
  8
0
 10
106.414
 20
8.43631
 11
107.495
 21
10.0898
  0
LINE
  8
0
 10
107.495
 20
10.0898
 11
107.98
 21
12.0045
  0
LINE
  8
0
 10
107.98
 20
12.0045
 11
107.938
 21
12.5
  0
LINE
  8
0
 10
107.938
 20
12.5
 11
108
 21
12.5
  0
LINE
  8
0
 10
108
 20
12.5
 11
108
 21
71.5
  0
LINE
  8
0
 10
108
 20
71.5
 11
31
 21
71.5
  0
LINE
  8
0
 10
31
 20
71.5
 11
31
 21
60.3
  0
LINE
  8
0
 10
31
 20
60.3
 11
78.1
 21
60.3
  0
LINE
  8
0
 10
78.1
 20
60.3
 11
78.1
 21
6.5
  0
LINE
  8
0
 10
78.1
 20
6.5
 11
102
 21
6.5
  0
LINE
  8
0
 10
102
 20
6.5
 11
102
 21
6.58182
  0
LINE
  8
0
 10
93.05
 20
63.1
 11
93.05
 21
65.9
  0
LINE
  8
0
 10
93.05
 20
65.9
 11
101.45
 21
65.9
  0
LINE
  8
0
 10
101.45
 20
65.9
 11
101.45
 21
63.1
  0
LINE
  8
0
 10
101.45
 20
63.1
 11
93.05
 21
63.1
  0
LINE
  8
0
 10
83.7
 20
54.7
 11
83.7
 21
63.1
  0
LINE
  8
0
 10
83.7
 20
63.1
 11
86.5
 21
63.1
  0
LINE
  8
0
 10
86.5
 20
63.1
 11
86.5
 21
54.7
  0
LINE
  8
0
 10
86.5
 20
54.7
 11
83.7
 21
54.7
  0
LINE
  8
0
 10
83.7
 20
14.9
 11
83.7
 21
23.3
  0
LINE
  8
0
 10
83.7
 20
23.3
 11
86.5
 21
23.3
  0
LINE
  8
0
 10
86.5
 20
23.3
 11
86.5
 21
14.9
  0
LINE
  8
0
 10
86.5
 20
14.9
 11
83.7
 21
14.9
  0
LINE
  8
0
 10
93.05
 20
12.1
 11
93.05
 21
14.9
  0
LINE
  8
0
 10
93.05
 20
14.9
 11
101.45
 21
14.9
  0
LINE
  8
0
 10
101.45
 20
14.9
 11
101.45
 21
12.1
  0
LINE
  8
0
 10
101.45
 20
12.1
 11
93.05
 21
12.1
  0
LINE
  8
0
 10
10.45
 20
59.5
 11
17
 21
59.5
  0
LINE
  8
0
 10
17
 20
59.5
 11
17
 21
65.1
  0
LINE
  8
0
 10
17
 20
65.1
 11
10.45
 21
65.1
  0
LINE
  8
0
 10
10.45
 20
65.1
 11
10.45
 21
67.9
  0
LINE
  8
0
 10
10.45
 20
67.9
 11
2.04999
 21
67.9
  0
LINE
  8
0
 10
2.04999
 20
67.9
 11
2.04999
 21
65.1
  0
LINE
  8
0
 10
2.04999
 20
65.1
 11
-4.5
 21
65.1
  0
LINE
  8
0
 10
-4.5
 20
65.1
 11
-4.5
 21
59.5
  0
LINE
  8
0
 10
-4.5
 20
59.5
 11
2.04999
 21
59.5
  0
LINE
  8
0
 10
2.04999
 20
59.5
 11
2.04999
 21
56.7
  0
LINE
  8
0
 10
2.04999
 20
56.7
 11
10.45
 21
56.7
  0
LINE
  8
0
 10
10.45
 20
56.7
 11
10.45
 21
59.5
  0
LINE
  8
0
 10
27.8
 20
36.5
 11
59.2
 21
36.5
  0
LINE
  8
0
 10
59.2
 20
36.5
 11
59.2
 21
33.7
  0
LINE
  8
0
 10
59.2
 20
33.7
 11
67.6
 21
33.7
  0
LINE
  8
0
 10
67.6
 20
33.7
 11
67.6
 21
36.5
  0
LINE
  8
0
 10
67.6
 20
36.5
 11
76
 21
36.5
  0
LINE
  8
0
 10
76
 20
36.5
 11
76
 21
58
  0
LINE
  8
0
 10
76
 20
58
 11
17
 21
58
  0
LINE
  8
0
 10
17
 20
58
 11
17
 21
57.9384
  0
LINE
  8
0
 10
17
 20
57.9384
 11
16.5045
 21
57.9795
  0
LINE
  8
0
 10
16.5045
 20
57.9795
 11
14.5898
 21
57.4946
  0
LINE
  8
0
 10
14.5898
 20
57.4946
 11
12.9363
 21
56.4143
  0
LINE
  8
0
 10
12.9363
 20
56.4143
 11
11.7231
 21
54.8557
  0
LINE
  8
0
 10
11.7231
 20
54.8557
 11
11.0818
 21
52.9876
  0
LINE
  8
0
 10
11.0818
 20
52.9876
 11
11.0818
 21
52
  0
LINE
  8
0
 10
11.0818
 20
52
 11
11
 21
52
  0
LINE
  8
0
 10
11
 20
52
 11
11
 21
36.5
  0
LINE
  8
0
 10
11
 20
36.5
 11
19.4
 21
36.5
  0
LINE
  8
0
 10
19.4
 20
36.5
 11
19.4
 21
33.7
  0
LINE
  8
0
 10
19.4
 20
33.7
 11
27.8
 21
33.7
  0
LINE
  8
0
 10
27.8
 20
33.7
 11
27.8
 21
36.5
  0
LINE
  8
0
 10
67.6
 20
43.05
 11
67.6
 21
51.45
  0
LINE
  8
0
 10
67.6
 20
51.45
 11
70.4
 21
51.45
  0
LINE
  8
0
 10
70.4
 20
51.45
 11
70.4
 21
43.05
  0
LINE
  8
0
 10
70.4
 20
43.05
 11
67.6
 21
43.05
  0
LINE
  8
0
 10
16.6
 20
43.05
 11
16.6
 21
51.45
  0
LINE
  8
0
 10
16.6
 20
51.45
 11
19.4
 21
51.45
  0
LINE
  8
0
 10
19.4
 20
51.45
 11
19.4
 21
43.05
  0
LINE
  8
0
 10
19.4
 20
43.05
 11
16.6
 21
43.05
  0
LINE
  8
0
 10
3.09999
 20
40.05
 11
5.89999
 21
40.05
  0
LINE
  8
0
 10
5.89999
 20
40.05
 11
5.89999
 21
48.45
  0
LINE
  8
0
 10
5.89999
 20
48.45
 11
3.09999
 21
48.45
  0
LINE
  8
0
 10
3.09999
 20
48.45
 11
3.09999
 21
55
  0
LINE
  8
0
 10
3.09999
 20
55
 11
-2.5
 21
55
  0
LINE
  8
0
 10
-2.5
 20
55
 11
-2.5
 21
48.45
  0
LINE
  8
0
 10
-2.5
 20
48.45
 11
-5.29999
 21
48.45
  0
LINE
  8
0
 10
-5.29999
 20
48.45
 11
-5.29999
 21
40.05
  0
LINE
  8
0
 10
-5.29999
 20
40.05
 11
-2.5
 21
40.05
  0
LINE
  8
0
 10
-2.5
 20
40.05
 11
-2.5
 21
33.5
  0
LINE
  8
0
 10
-2.5
 20
33.5
 11
3.09999
 21
33.5
  0
LINE
  8
0
 10
3.09999
 20
33.5
 11
3.09999
 21
40.05
  0
LINE
  8
0
 10
73.2
 20
6.39999
 11
76
 21
6.39999
  0
LINE
  8
0
 10
76
 20
6.39999
 11
76
 21
22.8
  0
LINE
  8
0
 10
76
 20
22.8
 11
64
 21
22.8
  0
LINE
  8
0
 10
64
 20
22.8
 11
64
 21
32
  0
LINE
  8
0
 10
64
 20
32
 11
55.6
 21
32
  0
LINE
  8
0
 10
55.6
 20
32
 11
55.6
 21
34.8
  0
LINE
  8
0
 10
55.6
 20
34.8
 11
47.2
 21
34.8
  0
LINE
  8
0
 10
47.2
 20
34.8
 11
47.2
 21
32
  0
LINE
  8
0
 10
47.2
 20
32
 11
15.8
 21
32
  0
LINE
  8
0
 10
15.8
 20
32
 11
15.8
 21
34.8
  0
LINE
  8
0
 10
15.8
 20
34.8
 11
7.39999
 21
34.8
  0
LINE
  8
0
 10
7.39999
 20
34.8
 11
7.39999
 21
32
  0
LINE
  8
0
 10
7.39999
 20
32
 11
-1
 21
32
  0
LINE
  8
0
 10
-1
 20
32
 11
-1
 21
6.39999
  0
LINE
  8
0
 10
-1
 20
6.39999
 11
1.79999
 21
6.39999
  0
LINE
  8
0
 10
1.79999
 20
6.39999
 11
1.79999
 21
0.799988
  0
LINE
  8
0
 10
1.79999
 20
0.799988
 11
73.2
 21
0.799988
  0
LINE
  8
0
 10
73.2
 20
0.799988
 11
73.2
 21
6.39999
  0
LINE
  8
0
 10
47.2
 20
23.6
 11
47.2
 21
26.4
  0
LINE
  8
0
 10
47.2
 20
26.4
 11
55.6
 21
26.4
  0
LINE
  8
0
 10
55.6
 20
26.4
 11
55.6
 21
23.6
  0
LINE
  8
0
 10
55.6
 20
23.6
 11
47.2
 21
23.6
  0
LINE
  8
0
 10
7.39999
 20
23.6
 11
7.39999
 21
26.4
  0
LINE
  8
0
 10
7.39999
 20
26.4
 11
15.8
 21
26.4
  0
LINE
  8
0
 10
15.8
 20
26.4
 11
15.8
 21
23.6
  0
LINE
  8
0
 10
15.8
 20
23.6
 11
7.39999
 21
23.6
  0
ENDSEC
  0
SECTION
  2
OBJECTS
  0
DICTIONARY
  0
ENDSEC
  0
EOF
