  0
SECTION
  2
BLOCKS
  0
ENDSEC
  0
SECTION
  2
ENTITIES
  0
LINE
  8
0
 10
18
 20
30
 11
47
 21
30
  0
LINE
  8
0
 10
47
 20
30
 11
47
 21
27
  0
LINE
  8
0
 10
47
 20
27
 11
56
 21
27
  0
LINE
  8
0
 10
56
 20
27
 11
56
 21
30
  0
LINE
  8
0
 10
56
 20
30
 11
65
 21
30
  0
LINE
  8
0
 10
65
 20
30
 11
65
 21
42
  0
LINE
  8
0
 10
65
 20
42
 11
77
 21
42
  0
LINE
  8
0
 10
77
 20
42
 11
77
 21
62
  0
LINE
  8
0
 10
77
 20
62
 11
0
 21
62
  0
LINE
  8
0
 10
0
 20
62
 11
0
 21
30
  0
LINE
  8
0
 10
0
 20
30
 11
9
 21
30
  0
LINE
  8
0
 10
9
 20
30
 11
9
 21
27
  0
LINE
  8
0
 10
9
 20
27
 11
18
 21
27
  0
LINE
  8
0
 10
18
 20
27
 11
18
 21
30
  0
LINE
  8
0
 10
47
 20
39
 11
47
 21
42
  0
LINE
  8
0
 10
47
 20
42
 11
56
 21
42
  0
LINE
  8
0
 10
56
 20
42
 11
56
 21
39
  0
LINE
  8
0
 10
56
 20
39
 11
47
 21
39
  0
LINE
  8
0
 10
9
 20
39
 11
9
 21
42
  0
LINE
  8
0
 10
9
 20
42
 11
18
 21
42
  0
LINE
  8
0
 10
18
 20
42
 11
18
 21
39
  0
LINE
  8
0
 10
18
 20
39
 11
9
 21
39
  0
LINE
  8
0
 10
65
 20
21.5
 11
56
 21
21.5
  0
LINE
  8
0
 10
56
 20
21.5
 11
56
 21
24.5
  0
LINE
  8
0
 10
56
 20
24.5
 11
47
 21
24.5
  0
LINE
  8
0
 10
47
 20
24.5
 11
47
 21
21.5
  0
LINE
  8
0
 10
47
 20
21.5
 11
18
 21
21.5
  0
LINE
  8
0
 10
18
 20
21.5
 11
18
 21
24.5
  0
LINE
  8
0
 10
18
 20
24.5
 11
9
 21
24.5
  0
LINE
  8
0
 10
9
 20
24.5
 11
9
 21
21.5
  0
LINE
  8
0
 10
9
 20
21.5
 11
0
 21
21.5
  0
LINE
  8
0
 10
0
 20
21.5
 11
0
 21
6
  0
LINE
  8
0
 10
0
 20
6
 11
0.0818176
 21
6
  0
LINE
  8
0
 10
0.0818176
 20
6
 11
0.0818176
 21
5.01242
  0
LINE
  8
0
 10
0.0818176
 20
5.01242
 11
0.723145
 21
3.1443
  0
LINE
  8
0
 10
0.723145
 20
3.1443
 11
1.93631
 21
1.58565
  0
LINE
  8
0
 10
1.93631
 20
1.58565
 11
3.58981
 21
0.505356
  0
LINE
  8
0
 10
3.58981
 20
0.505356
 11
5.50452
 21
0.0204926
  0
LINE
  8
0
 10
5.50452
 20
0.0204926
 11
6
 21
0.0615387
  0
LINE
  8
0
 10
6
 20
0.0615387
 11
6
 21
0
  0
LINE
  8
0
 10
6
 20
0
 11
65
 21
0
  0
LINE
  8
0
 10
65
 20
0
 11
65
 21
21.5
  0
LINE
  8
0
 10
56
 20
6.25
 11
56
 21
15.25
  0
LINE
  8
0
 10
56
 20
15.25
 11
59
 21
15.25
  0
LINE
  8
0
 10
59
 20
15.25
 11
59
 21
6.25
  0
LINE
  8
0
 10
59
 20
6.25
 11
56
 21
6.25
  0
LINE
  8
0
 10
6
 20
6.25
 11
6
 21
15.25
  0
LINE
  8
0
 10
6
 20
15.25
 11
9
 21
15.25
  0
LINE
  8
0
 10
9
 20
15.25
 11
9
 21
6.25
  0
LINE
  8
0
 10
9
 20
6.25
 11
6
 21
6.25
  0
LINE
  8
0
 10
97
 20
6.25
 11
100
 21
6.25
  0
LINE
  8
0
 10
100
 20
6.25
 11
100
 21
15.25
  0
LINE
  8
0
 10
100
 20
15.25
 11
97
 21
15.25
  0
LINE
  8
0
 10
97
 20
15.25
 11
97
 21
21.5
  0
LINE
  8
0
 10
97
 20
21.5
 11
88
 21
21.5
  0
LINE
  8
0
 10
88
 20
21.5
 11
88
 21
15.25
  0
LINE
  8
0
 10
88
 20
15.25
 11
85
 21
15.25
  0
LINE
  8
0
 10
85
 20
15.25
 11
85
 21
6.25
  0
LINE
  8
0
 10
85
 20
6.25
 11
88
 21
6.25
  0
LINE
  8
0
 10
88
 20
6.25
 11
88
 21
0
  0
LINE
  8
0
 10
88
 20
0
 11
97
 21
0
  0
LINE
  8
0
 10
97
 20
0
 11
97
 21
6.25
  0
LINE
  8
0
 10
79
 20
6.25
 11
82
 21
6.25
  0
LINE
  8
0
 10
82
 20
6.25
 11
82
 21
15.25
  0
LINE
  8
0
 10
82
 20
15.25
 11
79
 21
15.25
  0
LINE
  8
0
 10
79
 20
15.25
 11
79
 21
21.5
  0
LINE
  8
0
 10
79
 20
21.5
 11
70
 21
21.5
  0
LINE
  8
0
 10
70
 20
21.5
 11
70
 21
15.25
  0
LINE
  8
0
 10
70
 20
15.25
 11
67
 21
15.25
  0
LINE
  8
0
 10
67
 20
15.25
 11
67
 21
6.25
  0
LINE
  8
0
 10
67
 20
6.25
 11
70
 21
6.25
  0
LINE
  8
0
 10
70
 20
6.25
 11
70
 21
0
  0
LINE
  8
0
 10
70
 20
0
 11
79
 21
0
  0
LINE
  8
0
 10
79
 20
0
 11
79
 21
6.25
  0
ENDSEC
  0
SECTION
  2
OBJECTS
  0
DICTIONARY
  0
ENDSEC
  0
EOF
