<?xml version="1.0" standalone="no"?>
<!DOCTYPE svg PUBLIC "-//W3C//DTD SVG 1.1//EN" "http://www.w3.org/Graphics/SVG/1.1/DTD/svg11.dtd">
<svg width="111mm" height="72mm" viewBox="-6 -72 111 72" xmlns="http://www.w3.org/2000/svg" version="1.1">
<title>OpenSCAD Model</title>
<path d="
M 10.75,-59.5 L 17,-59.5 L 17,-68.5 L 10.75,-68.5 L 10.75,-71.5 L 1.75,-71.5
 L 1.75,-68.5 L -4.5,-68.5 L -4.5,-59.5 L 1.75,-59.5 L 1.75,-56.5 L 10.75,-56.5
 z
M 99,-3.58182 L 99.9876,-3.58182 L 101.856,-4.22314 L 103.414,-5.43631 L 104.495,-7.08981 L 104.98,-9.00452
 L 104.938,-9.5 L 105,-9.5 L 105,-68.5 L 28,-68.5 L 28,-59.5 L 77.5,-59.5
 L 77.5,-3.5 L 99,-3.5 z
M 89.75,-59.5 L 89.75,-62.5 L 98.75,-62.5 L 98.75,-59.5 z
M 80.5,-50.5 L 80.5,-59.5 L 83.5,-59.5 L 83.5,-50.5 z
M 80.5,-12.5 L 80.5,-21.5 L 83.5,-21.5 L 83.5,-12.5 z
M 89.75,-9.5 L 89.75,-12.5 L 98.75,-12.5 L 98.75,-9.5 z
M 29,-36.5 L 58,-36.5 L 58,-33.5 L 67,-33.5 L 67,-36.5 L 76,-36.5
 L 76,-58 L 17,-58 L 17,-57.9384 L 16.5045,-57.9795 L 14.5898,-57.4946 L 12.9363,-56.4143
 L 11.7231,-54.8557 L 11.0818,-52.9876 L 11.0818,-52 L 11,-52 L 11,-36.5 L 20,-36.5
 L 20,-33.5 L 29,-33.5 z
M 67,-42.75 L 67,-51.75 L 70,-51.75 L 70,-42.75 z
M 17,-42.75 L 17,-51.75 L 20,-51.75 L 20,-42.75 z
M 6.5,-39.75 L 9.5,-39.75 L 9.5,-48.75 L 6.5,-48.75 L 6.5,-55 L -2.5,-55
 L -2.5,-48.75 L -5.5,-48.75 L -5.5,-39.75 L -2.5,-39.75 L -2.5,-33.5 L 6.5,-33.5
 z
M 76,-20 L 64,-20 L 64,-32 L 55,-32 L 55,-35 L 46,-35
 L 46,-32 L 17,-32 L 17,-35 L 8,-35 L 8,-32 L -1,-32
 L -1,-0 L 76,-0 z
M 46,-20 L 46,-23 L 55,-23 L 55,-20 z
M 8,-20 L 8,-23 L 17,-23 L 17,-20 z
" stroke="black" fill="lightgray" stroke-width="0.5"/>
</svg>
