<?xml version="1.0" standalone="no"?>
<!DOCTYPE svg PUBLIC "-//W3C//DTD SVG 1.1//EN" "http://www.w3.org/Graphics/SVG/1.1/DTD/svg11.dtd">
<svg width="114mm" height="72mm" viewBox="-6 -72 114 72" xmlns="http://www.w3.org/2000/svg" version="1.1">
<title>OpenSCAD Model</title>
<path d="
M 102,-6.58182 L 102.988,-6.58182 L 104.856,-7.22314 L 106.414,-8.43631 L 107.495,-10.0898 L 107.98,-12.0045
 L 107.938,-12.5 L 108,-12.5 L 108,-71.5 L 31,-71.5 L 31,-60.3 L 78.1,-60.3
 L 78.1,-6.5 L 102,-6.5 z
M 93.05,-63.1 L 93.05,-65.9 L 101.45,-65.9 L 101.45,-63.1 z
M 83.7,-54.7 L 83.7,-63.1 L 86.5,-63.1 L 86.5,-54.7 z
M 83.7,-14.9 L 83.7,-23.3 L 86.5,-23.3 L 86.5,-14.9 z
M 93.05,-12.1 L 93.05,-14.9 L 101.45,-14.9 L 101.45,-12.1 z
M 10.45,-59.5 L 17,-59.5 L 17,-65.1 L 10.45,-65.1 L 10.45,-67.9 L 2.04999,-67.9
 L 2.04999,-65.1 L -4.5,-65.1 L -4.5,-59.5 L 2.04999,-59.5 L 2.04999,-56.7 L 10.45,-56.7
 z
M 27.8,-36.5 L 59.2,-36.5 L 59.2,-33.7 L 67.6,-33.7 L 67.6,-36.5 L 76,-36.5
 L 76,-58 L 17,-58 L 17,-57.9384 L 16.5045,-57.9795 L 14.5898,-57.4946 L 12.9363,-56.4143
 L 11.7231,-54.8557 L 11.0818,-52.9876 L 11.0818,-52 L 11,-52 L 11,-36.5 L 19.4,-36.5
 L 19.4,-33.7 L 27.8,-33.7 z
M 67.6,-43.05 L 67.6,-51.45 L 70.4,-51.45 L 70.4,-43.05 z
M 16.6,-43.05 L 16.6,-51.45 L 19.4,-51.45 L 19.4,-43.05 z
M 3.09999,-40.05 L 5.89999,-40.05 L 5.89999,-48.45 L 3.09999,-48.45 L 3.09999,-55 L -2.5,-55
 L -2.5,-48.45 L -5.29999,-48.45 L -5.29999,-40.05 L -2.5,-40.05 L -2.5,-33.5 L 3.09999,-33.5
 z
M 73.2,-6.39999 L 76,-6.39999 L 76,-22.8 L 64,-22.8 L 64,-32 L 55.6,-32
 L 55.6,-34.8 L 47.2,-34.8 L 47.2,-32 L 15.8,-32 L 15.8,-34.8 L 7.39999,-34.8
 L 7.39999,-32 L -1,-32 L -1,-6.39999 L 1.79999,-6.39999 L 1.79999,-0.799988 L 73.2,-0.799988
 z
M 47.2,-23.6 L 47.2,-26.4 L 55.6,-26.4 L 55.6,-23.6 z
M 7.39999,-23.6 L 7.39999,-26.4 L 15.8,-26.4 L 15.8,-23.6 z
" stroke="black" fill="lightgray" stroke-width="0.5"/>
</svg>
