  0
SECTION
  2
BLOCKS
  0
ENDSEC
  0
SECTION
  2
ENTITIES
  0
LINE
  8
0
 10
10.75
 20
59.5
 11
17
 21
59.5
  0
LINE
  8
0
 10
17
 20
59.5
 11
17
 21
68.5
  0
LINE
  8
0
 10
17
 20
68.5
 11
10.75
 21
68.5
  0
LINE
  8
0
 10
10.75
 20
68.5
 11
10.75
 21
71.5
  0
LINE
  8
0
 10
10.75
 20
71.5
 11
1.75
 21
71.5
  0
LINE
  8
0
 10
1.75
 20
71.5
 11
1.75
 21
68.5
  0
LINE
  8
0
 10
1.75
 20
68.5
 11
-4.5
 21
68.5
  0
LINE
  8
0
 10
-4.5
 20
68.5
 11
-4.5
 21
59.5
  0
LINE
  8
0
 10
-4.5
 20
59.5
 11
1.75
 21
59.5
  0
LINE
  8
0
 10
1.75
 20
59.5
 11
1.75
 21
56.5
  0
LINE
  8
0
 10
1.75
 20
56.5
 11
10.75
 21
56.5
  0
LINE
  8
0
 10
10.75
 20
56.5
 11
10.75
 21
59.5
  0
LINE
  8
0
 10
99
 20
3.58182
 11
99.9876
 21
3.58182
  0
LINE
  8
0
 10
99.9876
 20
3.58182
 11
101.856
 21
4.22314
  0
LINE
  8
0
 10
101.856
 20
4.22314
 11
103.414
 21
5.43631
  0
LINE
  8
0
 10
103.414
 20
5.43631
 11
104.495
 21
7.08981
  0
LINE
  8
0
 10
104.495
 20
7.08981
 11
104.98
 21
9.00452
  0
LINE
  8
0
 10
104.98
 20
9.00452
 11
104.938
 21
9.5
  0
LINE
  8
0
 10
104.938
 20
9.5
 11
105
 21
9.5
  0
LINE
  8
0
 10
105
 20
9.5
 11
105
 21
68.5
  0
LINE
  8
0
 10
105
 20
68.5
 11
28
 21
68.5
  0
LINE
  8
0
 10
28
 20
68.5
 11
28
 21
59.5
  0
LINE
  8
0
 10
28
 20
59.5
 11
77.5
 21
59.5
  0
LINE
  8
0
 10
77.5
 20
59.5
 11
77.5
 21
3.5
  0
LINE
  8
0
 10
77.5
 20
3.5
 11
99
 21
3.5
  0
LINE
  8
0
 10
99
 20
3.5
 11
99
 21
3.58182
  0
LINE
  8
0
 10
89.75
 20
59.5
 11
89.75
 21
62.5
  0
LINE
  8
0
 10
89.75
 20
62.5
 11
98.75
 21
62.5
  0
LINE
  8
0
 10
98.75
 20
62.5
 11
98.75
 21
59.5
  0
LINE
  8
0
 10
98.75
 20
59.5
 11
89.75
 21
59.5
  0
LINE
  8
0
 10
80.5
 20
50.5
 11
80.5
 21
59.5
  0
LINE
  8
0
 10
80.5
 20
59.5
 11
83.5
 21
59.5
  0
LINE
  8
0
 10
83.5
 20
59.5
 11
83.5
 21
50.5
  0
LINE
  8
0
 10
83.5
 20
50.5
 11
80.5
 21
50.5
  0
LINE
  8
0
 10
80.5
 20
12.5
 11
80.5
 21
21.5
  0
LINE
  8
0
 10
80.5
 20
21.5
 11
83.5
 21
21.5
  0
LINE
  8
0
 10
83.5
 20
21.5
 11
83.5
 21
12.5
  0
LINE
  8
0
 10
83.5
 20
12.5
 11
80.5
 21
12.5
  0
LINE
  8
0
 10
89.75
 20
9.5
 11
89.75
 21
12.5
  0
LINE
  8
0
 10
89.75
 20
12.5
 11
98.75
 21
12.5
  0
LINE
  8
0
 10
98.75
 20
12.5
 11
98.75
 21
9.5
  0
LINE
  8
0
 10
98.75
 20
9.5
 11
89.75
 21
9.5
  0
LINE
  8
0
 10
29
 20
36.5
 11
58
 21
36.5
  0
LINE
  8
0
 10
58
 20
36.5
 11
58
 21
33.5
  0
LINE
  8
0
 10
58
 20
33.5
 11
67
 21
33.5
  0
LINE
  8
0
 10
67
 20
33.5
 11
67
 21
36.5
  0
LINE
  8
0
 10
67
 20
36.5
 11
76
 21
36.5
  0
LINE
  8
0
 10
76
 20
36.5
 11
76
 21
58
  0
LINE
  8
0
 10
76
 20
58
 11
17
 21
58
  0
LINE
  8
0
 10
17
 20
58
 11
17
 21
57.9384
  0
LINE
  8
0
 10
17
 20
57.9384
 11
16.5045
 21
57.9795
  0
LINE
  8
0
 10
16.5045
 20
57.9795
 11
14.5898
 21
57.4946
  0
LINE
  8
0
 10
14.5898
 20
57.4946
 11
12.9363
 21
56.4143
  0
LINE
  8
0
 10
12.9363
 20
56.4143
 11
11.7231
 21
54.8557
  0
LINE
  8
0
 10
11.7231
 20
54.8557
 11
11.0818
 21
52.9876
  0
LINE
  8
0
 10
11.0818
 20
52.9876
 11
11.0818
 21
52
  0
LINE
  8
0
 10
11.0818
 20
52
 11
11
 21
52
  0
LINE
  8
0
 10
11
 20
52
 11
11
 21
36.5
  0
LINE
  8
0
 10
11
 20
36.5
 11
20
 21
36.5
  0
LINE
  8
0
 10
20
 20
36.5
 11
20
 21
33.5
  0
LINE
  8
0
 10
20
 20
33.5
 11
29
 21
33.5
  0
LINE
  8
0
 10
29
 20
33.5
 11
29
 21
36.5
  0
LINE
  8
0
 10
67
 20
42.75
 11
67
 21
51.75
  0
LINE
  8
0
 10
67
 20
51.75
 11
70
 21
51.75
  0
LINE
  8
0
 10
70
 20
51.75
 11
70
 21
42.75
  0
LINE
  8
0
 10
70
 20
42.75
 11
67
 21
42.75
  0
LINE
  8
0
 10
17
 20
42.75
 11
17
 21
51.75
  0
LINE
  8
0
 10
17
 20
51.75
 11
20
 21
51.75
  0
LINE
  8
0
 10
20
 20
51.75
 11
20
 21
42.75
  0
LINE
  8
0
 10
20
 20
42.75
 11
17
 21
42.75
  0
LINE
  8
0
 10
6.5
 20
39.75
 11
9.5
 21
39.75
  0
LINE
  8
0
 10
9.5
 20
39.75
 11
9.5
 21
48.75
  0
LINE
  8
0
 10
9.5
 20
48.75
 11
6.5
 21
48.75
  0
LINE
  8
0
 10
6.5
 20
48.75
 11
6.5
 21
55
  0
LINE
  8
0
 10
6.5
 20
55
 11
-2.5
 21
55
  0
LINE
  8
0
 10
-2.5
 20
55
 11
-2.5
 21
48.75
  0
LINE
  8
0
 10
-2.5
 20
48.75
 11
-5.5
 21
48.75
  0
LINE
  8
0
 10
-5.5
 20
48.75
 11
-5.5
 21
39.75
  0
LINE
  8
0
 10
-5.5
 20
39.75
 11
-2.5
 21
39.75
  0
LINE
  8
0
 10
-2.5
 20
39.75
 11
-2.5
 21
33.5
  0
LINE
  8
0
 10
-2.5
 20
33.5
 11
6.5
 21
33.5
  0
LINE
  8
0
 10
6.5
 20
33.5
 11
6.5
 21
39.75
  0
LINE
  8
0
 10
76
 20
20
 11
64
 21
20
  0
LINE
  8
0
 10
64
 20
20
 11
64
 21
32
  0
LINE
  8
0
 10
64
 20
32
 11
55
 21
32
  0
LINE
  8
0
 10
55
 20
32
 11
55
 21
35
  0
LINE
  8
0
 10
55
 20
35
 11
46
 21
35
  0
LINE
  8
0
 10
46
 20
35
 11
46
 21
32
  0
LINE
  8
0
 10
46
 20
32
 11
17
 21
32
  0
LINE
  8
0
 10
17
 20
32
 11
17
 21
35
  0
LINE
  8
0
 10
17
 20
35
 11
8
 21
35
  0
LINE
  8
0
 10
8
 20
35
 11
8
 21
32
  0
LINE
  8
0
 10
8
 20
32
 11
-1
 21
32
  0
LINE
  8
0
 10
-1
 20
32
 11
-1
 21
0
  0
LINE
  8
0
 10
-1
 20
0
 11
76
 21
0
  0
LINE
  8
0
 10
76
 20
0
 11
76
 21
20
  0
LINE
  8
0
 10
46
 20
20
 11
46
 21
23
  0
LINE
  8
0
 10
46
 20
23
 11
55
 21
23
  0
LINE
  8
0
 10
55
 20
23
 11
55
 21
20
  0
LINE
  8
0
 10
55
 20
20
 11
46
 21
20
  0
LINE
  8
0
 10
8
 20
20
 11
8
 21
23
  0
LINE
  8
0
 10
8
 20
23
 11
17
 21
23
  0
LINE
  8
0
 10
17
 20
23
 11
17
 21
20
  0
LINE
  8
0
 10
17
 20
20
 11
8
 21
20
  0
ENDSEC
  0
SECTION
  2
OBJECTS
  0
DICTIONARY
  0
ENDSEC
  0
EOF
