<?xml version="1.0" standalone="no"?>
<!DOCTYPE svg PUBLIC "-//W3C//DTD SVG 1.1//EN" "http://www.w3.org/Graphics/SVG/1.1/DTD/svg11.dtd">
<svg width="100mm" height="62mm" viewBox="0 -62 100 62" xmlns="http://www.w3.org/2000/svg" version="1.1">
<title>OpenSCAD Model</title>
<path d="
M 18,-30 L 47,-30 L 47,-27 L 56,-27 L 56,-30 L 65,-30
 L 65,-42 L 77,-42 L 77,-62 L 0,-62 L 0,-30 L 9,-30
 L 9,-27 L 18,-27 z
M 47,-39 L 47,-42 L 56,-42 L 56,-39 z
M 9,-39 L 9,-42 L 18,-42 L 18,-39 z
M 65,-21.5 L 56,-21.5 L 56,-24.5 L 47,-24.5 L 47,-21.5 L 18,-21.5
 L 18,-24.5 L 9,-24.5 L 9,-21.5 L 0,-21.5 L 0,-6 L 0.0818176,-6
 L 0.0818176,-5.01242 L 0.723145,-3.1443 L 1.93631,-1.58565 L 3.58981,-0.505356 L 5.50452,-0.0204926 L 6,-0.0615387
 L 6,-0 L 65,-0 z
M 56,-6.25 L 56,-15.25 L 59,-15.25 L 59,-6.25 z
M 6,-6.25 L 6,-15.25 L 9,-15.25 L 9,-6.25 z
M 97,-6.25 L 100,-6.25 L 100,-15.25 L 97,-15.25 L 97,-21.5 L 88,-21.5
 L 88,-15.25 L 85,-15.25 L 85,-6.25 L 88,-6.25 L 88,-0 L 97,-0
 z
M 79,-6.25 L 82,-6.25 L 82,-15.25 L 79,-15.25 L 79,-21.5 L 70,-21.5
 L 70,-15.25 L 67,-15.25 L 67,-6.25 L 70,-6.25 L 70,-0 L 79,-0
 z
" stroke="black" fill="lightgray" stroke-width="0.5"/>
</svg>
