<?xml version="1.0" standalone="no"?>
<!DOCTYPE svg PUBLIC "-//W3C//DTD SVG 1.1//EN" "http://www.w3.org/Graphics/SVG/1.1/DTD/svg11.dtd">
<svg width="84mm" height="128mm" viewBox="0 -128 84 128" xmlns="http://www.w3.org/2000/svg" version="1.1">
<title>OpenSCAD Model</title>
<path d="
M 84,-128 L 0,-128 L 0,-0 L 84,-0 z
M 10.9651,-104 L 10.9302,-104.001 L 10.8953,-104.003 L 10.8605,-104.005 L 10.8257,-104.008 L 10.7909,-104.011
 L 10.7563,-104.015 L 10.7216,-104.019 L 10.6871,-104.025 L 10.6527,-104.03 L 10.6184,-104.037 L 10.5842,-104.044
 L 10.5501,-104.051 L 10.5161,-104.059 L 10.4824,-104.068 L 10.4487,-104.077 L 10.4153,-104.087 L 10.382,-104.098
 L 10.3489,-104.109 L 10.3159,-104.121 L 10.2832,-104.133 L 10.2508,-104.146 L 10.2185,-104.159 L 10.1865,-104.173
 L 10.1548,-104.187 L 10.1232,-104.202 L 10.092,-104.218 L 10.0611,-104.234 L 10.0304,-104.251 L 10,-104.268
 L 9.96991,-104.286 L 9.94016,-104.304 L 9.91072,-104.323 L 9.88161,-104.342 L 9.85284,-104.362 L 9.82442,-104.382
 L 9.79636,-104.403 L 9.76868,-104.424 L 9.74135,-104.446 L 9.71442,-104.468 L 9.68788,-104.491 L 9.66173,-104.514
 L 9.636,-104.537 L 9.61067,-104.561 L 9.58578,-104.586 L 9.56131,-104.611 L 9.53729,-104.636 L 9.5137,-104.662
 L 9.49057,-104.688 L 9.46791,-104.714 L 9.44569,-104.741 L 9.42397,-104.769 L 9.40273,-104.796 L 9.38196,-104.824
 L 9.36169,-104.853 L 9.34192,-104.882 L 9.32265,-104.911 L 9.30389,-104.94 L 9.28566,-104.97 L 9.26794,-105
 L 9.25075,-105.03 L 9.2341,-105.061 L 9.21797,-105.092 L 9.20241,-105.123 L 9.18738,-105.155 L 9.1729,-105.187
 L 9.15898,-105.219 L 9.14563,-105.251 L 9.13283,-105.283 L 9.12061,-105.316 L 9.10895,-105.349 L 9.09789,-105.382
 L 9.08739,-105.415 L 9.07747,-105.449 L 9.06815,-105.482 L 9.0594,-105.516 L 9.05125,-105.55 L 9.0437,-105.584
 L 9.03674,-105.618 L 9.03038,-105.653 L 9.02461,-105.687 L 9.01945,-105.722 L 9.01489,-105.756 L 9.01096,-105.791
 L 9.0076,-105.826 L 9.00487,-105.86 L 9.00273,-105.895 L 9.00121,-105.93 L 9.00029,-105.965 L 9,-106
 L 9.00029,-106.035 L 9.00121,-106.07 L 9.00273,-106.105 L 9.00487,-106.14 L 9.0076,-106.174 L 9.01096,-106.209
 L 9.01489,-106.244 L 9.01945,-106.278 L 9.02461,-106.313 L 9.03038,-106.347 L 9.03674,-106.382 L 9.0437,-106.416
 L 9.05125,-106.45 L 9.0594,-106.484 L 9.06815,-106.518 L 9.07747,-106.551 L 9.08739,-106.585 L 9.09789,-106.618
 L 9.10895,-106.651 L 9.12061,-106.684 L 9.13283,-106.717 L 9.14563,-106.749 L 9.15898,-106.781 L 9.1729,-106.813
 L 9.18738,-106.845 L 9.20241,-106.877 L 9.21797,-106.908 L 9.2341,-106.939 L 9.25075,-106.97 L 9.26794,-107
 L 9.28566,-107.03 L 9.30389,-107.06 L 9.32265,-107.089 L 9.34192,-107.118 L 9.36169,-107.147 L 9.38196,-107.176
 L 9.40273,-107.204 L 9.42397,-107.231 L 9.44569,-107.259 L 9.46791,-107.286 L 9.49057,-107.312 L 9.5137,-107.338
 L 9.53729,-107.364 L 9.56131,-107.389 L 9.58578,-107.414 L 9.61067,-107.439 L 9.636,-107.463 L 9.66173,-107.486
 L 9.68788,-107.509 L 9.71442,-107.532 L 9.74135,-107.554 L 9.76868,-107.576 L 9.79636,-107.597 L 9.82442,-107.618
 L 9.85284,-107.638 L 9.88161,-107.658 L 9.91072,-107.677 L 9.94016,-107.696 L 9.96991,-107.714 L 10,-107.732
 L 10.0304,-107.749 L 10.0611,-107.766 L 10.092,-107.782 L 10.1232,-107.798 L 10.1548,-107.813 L 10.1865,-107.827
 L 10.2185,-107.841 L 10.2508,-107.854 L 10.2832,-107.867 L 10.3159,-107.879 L 10.3489,-107.891 L 10.382,-107.902
 L 10.4153,-107.913 L 10.4487,-107.923 L 10.4824,-107.932 L 10.5161,-107.941 L 10.5501,-107.949 L 10.5842,-107.956
 L 10.6184,-107.963 L 10.6527,-107.97 L 10.6871,-107.975 L 10.7216,-107.981 L 10.7563,-107.985 L 10.7909,-107.989
 L 10.8257,-107.992 L 10.8605,-107.995 L 10.8953,-107.997 L 10.9302,-107.999 L 10.9651,-108 L 11,-108
 L 11.0349,-108 L 11.0698,-107.999 L 11.1047,-107.997 L 11.1395,-107.995 L 11.1743,-107.992 L 11.209,-107.989
 L 11.2437,-107.985 L 11.2783,-107.981 L 11.3129,-107.975 L 11.3473,-107.97 L 11.3816,-107.963 L 11.4158,-107.956
 L 11.4499,-107.949 L 11.4838,-107.941 L 11.5176,-107.932 L 11.5513,-107.923 L 11.5847,-107.913 L 11.618,-107.902
 L 11.6511,-107.891 L 11.684,-107.879 L 11.7167,-107.867 L 11.7492,-107.854 L 11.7814,-107.841 L 11.8135,-107.827
 L 11.8452,-107.813 L 11.8767,-107.798 L 11.908,-107.782 L 11.9389,-107.766 L 11.9696,-107.749 L 12,-107.732
 L 12.0301,-107.714 L 12.0598,-107.696 L 12.0893,-107.677 L 12.1184,-107.658 L 12.1471,-107.638 L 12.1756,-107.618
 L 12.2036,-107.597 L 12.2313,-107.576 L 12.2586,-107.554 L 12.2856,-107.532 L 12.3121,-107.509 L 12.3383,-107.486
 L 12.364,-107.463 L 12.3893,-107.439 L 12.4142,-107.414 L 12.4387,-107.389 L 12.4627,-107.364 L 12.4863,-107.338
 L 12.5094,-107.312 L 12.5321,-107.286 L 12.5543,-107.259 L 12.576,-107.231 L 12.5973,-107.204 L 12.618,-107.176
 L 12.6383,-107.147 L 12.6581,-107.118 L 12.6773,-107.089 L 12.6961,-107.06 L 12.7143,-107.03 L 12.732,-107
 L 12.7492,-106.97 L 12.7659,-106.939 L 12.782,-106.908 L 12.7976,-106.877 L 12.8126,-106.845 L 12.8271,-106.813
 L 12.841,-106.781 L 12.8544,-106.749 L 12.8672,-106.717 L 12.8794,-106.684 L 12.891,-106.651 L 12.9021,-106.618
 L 12.9126,-106.585 L 12.9225,-106.551 L 12.9318,-106.518 L 12.9406,-106.484 L 12.9487,-106.45 L 12.9563,-106.416
 L 12.9632,-106.382 L 12.9696,-106.347 L 12.9754,-106.313 L 12.9805,-106.278 L 12.9851,-106.244 L 12.989,-106.209
 L 12.9924,-106.174 L 12.9951,-106.14 L 12.9973,-106.105 L 12.9988,-106.07 L 12.9997,-106.035 L 13,-106
 L 12.9997,-105.965 L 12.9988,-105.93 L 12.9973,-105.895 L 12.9951,-105.86 L 12.9924,-105.826 L 12.989,-105.791
 L 12.9851,-105.756 L 12.9805,-105.722 L 12.9754,-105.687 L 12.9696,-105.653 L 12.9632,-105.618 L 12.9563,-105.584
 L 12.9487,-105.55 L 12.9406,-105.516 L 12.9318,-105.482 L 12.9225,-105.449 L 12.9126,-105.415 L 12.9021,-105.382
 L 12.891,-105.349 L 12.8794,-105.316 L 12.8672,-105.283 L 12.8544,-105.251 L 12.841,-105.219 L 12.8271,-105.187
 L 12.8126,-105.155 L 12.7976,-105.123 L 12.782,-105.092 L 12.7659,-105.061 L 12.7492,-105.03 L 12.732,-105
 L 12.7143,-104.97 L 12.6961,-104.94 L 12.6773,-104.911 L 12.6581,-104.882 L 12.6383,-104.853 L 12.618,-104.824
 L 12.5973,-104.796 L 12.576,-104.769 L 12.5543,-104.741 L 12.5321,-104.714 L 12.5094,-104.688 L 12.4863,-104.662
 L 12.4627,-104.636 L 12.4387,-104.611 L 12.4142,-104.586 L 12.3893,-104.561 L 12.364,-104.537 L 12.3383,-104.514
 L 12.3121,-104.491 L 12.2856,-104.468 L 12.2586,-104.446 L 12.2313,-104.424 L 12.2036,-104.403 L 12.1756,-104.382
 L 12.1471,-104.362 L 12.1184,-104.342 L 12.0893,-104.323 L 12.0598,-104.304 L 12.0301,-104.286 L 12,-104.268
 L 11.9696,-104.251 L 11.9389,-104.234 L 11.908,-104.218 L 11.8767,-104.202 L 11.8452,-104.187 L 11.8135,-104.173
 L 11.7814,-104.159 L 11.7492,-104.146 L 11.7167,-104.133 L 11.684,-104.121 L 11.6511,-104.109 L 11.618,-104.098
 L 11.5847,-104.087 L 11.5513,-104.077 L 11.5176,-104.068 L 11.4838,-104.059 L 11.4499,-104.051 L 11.4158,-104.044
 L 11.3816,-104.037 L 11.3473,-104.03 L 11.3129,-104.025 L 11.2783,-104.019 L 11.2437,-104.015 L 11.209,-104.011
 L 11.1743,-104.008 L 11.1395,-104.005 L 11.1047,-104.003 L 11.0698,-104.001 L 11.0349,-104 L 11,-104
 z
M 72.9651,-104 L 72.9302,-104.001 L 72.8953,-104.003 L 72.8605,-104.005 L 72.8257,-104.008 L 72.7909,-104.011
 L 72.7563,-104.015 L 72.7216,-104.019 L 72.6871,-104.025 L 72.6527,-104.03 L 72.6184,-104.037 L 72.5842,-104.044
 L 72.5501,-104.051 L 72.5162,-104.059 L 72.4824,-104.068 L 72.4487,-104.077 L 72.4153,-104.087 L 72.382,-104.098
 L 72.3489,-104.109 L 72.3159,-104.121 L 72.2833,-104.133 L 72.2508,-104.146 L 72.2185,-104.159 L 72.1865,-104.173
 L 72.1548,-104.187 L 72.1233,-104.202 L 72.092,-104.218 L 72.0611,-104.234 L 72.0304,-104.251 L 72,-104.268
 L 71.9699,-104.286 L 71.9402,-104.304 L 71.9107,-104.323 L 71.8816,-104.342 L 71.8528,-104.362 L 71.8244,-104.382
 L 71.7964,-104.403 L 71.7687,-104.424 L 71.7413,-104.446 L 71.7144,-104.468 L 71.6879,-104.491 L 71.6617,-104.514
 L 71.636,-104.537 L 71.6107,-104.561 L 71.5858,-104.586 L 71.5613,-104.611 L 71.5373,-104.636 L 71.5137,-104.662
 L 71.4906,-104.688 L 71.4679,-104.714 L 71.4457,-104.741 L 71.424,-104.769 L 71.4027,-104.796 L 71.382,-104.824
 L 71.3617,-104.853 L 71.3419,-104.882 L 71.3227,-104.911 L 71.3039,-104.94 L 71.2857,-104.97 L 71.2679,-105
 L 71.2508,-105.03 L 71.2341,-105.061 L 71.218,-105.092 L 71.2024,-105.123 L 71.1874,-105.155 L 71.1729,-105.187
 L 71.159,-105.219 L 71.1456,-105.251 L 71.1328,-105.283 L 71.1206,-105.316 L 71.109,-105.349 L 71.0979,-105.382
 L 71.0874,-105.415 L 71.0775,-105.449 L 71.0681,-105.482 L 71.0594,-105.516 L 71.0513,-105.55 L 71.0437,-105.584
 L 71.0367,-105.618 L 71.0304,-105.653 L 71.0246,-105.687 L 71.0195,-105.722 L 71.0149,-105.756 L 71.011,-105.791
 L 71.0076,-105.826 L 71.0049,-105.86 L 71.0027,-105.895 L 71.0012,-105.93 L 71.0003,-105.965 L 71,-106
 L 71.0003,-106.035 L 71.0012,-106.07 L 71.0027,-106.105 L 71.0049,-106.14 L 71.0076,-106.174 L 71.011,-106.209
 L 71.0149,-106.244 L 71.0195,-106.278 L 71.0246,-106.313 L 71.0304,-106.347 L 71.0367,-106.382 L 71.0437,-106.416
 L 71.0513,-106.45 L 71.0594,-106.484 L 71.0681,-106.518 L 71.0775,-106.551 L 71.0874,-106.585 L 71.0979,-106.618
 L 71.109,-106.651 L 71.1206,-106.684 L 71.1328,-106.717 L 71.1456,-106.749 L 71.159,-106.781 L 71.1729,-106.813
 L 71.1874,-106.845 L 71.2024,-106.877 L 71.218,-106.908 L 71.2341,-106.939 L 71.2508,-106.97 L 71.2679,-107
 L 71.2857,-107.03 L 71.3039,-107.06 L 71.3227,-107.089 L 71.3419,-107.118 L 71.3617,-107.147 L 71.382,-107.176
 L 71.4027,-107.204 L 71.424,-107.231 L 71.4457,-107.259 L 71.4679,-107.286 L 71.4906,-107.312 L 71.5137,-107.338
 L 71.5373,-107.364 L 71.5613,-107.389 L 71.5858,-107.414 L 71.6107,-107.439 L 71.636,-107.463 L 71.6617,-107.486
 L 71.6879,-107.509 L 71.7144,-107.532 L 71.7413,-107.554 L 71.7687,-107.576 L 71.7964,-107.597 L 71.8244,-107.618
 L 71.8528,-107.638 L 71.8816,-107.658 L 71.9107,-107.677 L 71.9402,-107.696 L 71.9699,-107.714 L 72,-107.732
 L 72.0304,-107.749 L 72.0611,-107.766 L 72.092,-107.782 L 72.1233,-107.798 L 72.1548,-107.813 L 72.1865,-107.827
 L 72.2185,-107.841 L 72.2508,-107.854 L 72.2833,-107.867 L 72.3159,-107.879 L 72.3489,-107.891 L 72.382,-107.902
 L 72.4153,-107.913 L 72.4487,-107.923 L 72.4824,-107.932 L 72.5162,-107.941 L 72.5501,-107.949 L 72.5842,-107.956
 L 72.6184,-107.963 L 72.6527,-107.97 L 72.6871,-107.975 L 72.7216,-107.981 L 72.7563,-107.985 L 72.7909,-107.989
 L 72.8257,-107.992 L 72.8605,-107.995 L 72.8953,-107.997 L 72.9302,-107.999 L 72.9651,-108 L 73,-108
 L 73.0349,-108 L 73.0698,-107.999 L 73.1047,-107.997 L 73.1395,-107.995 L 73.1743,-107.992 L 73.2091,-107.989
 L 73.2437,-107.985 L 73.2783,-107.981 L 73.3129,-107.975 L 73.3473,-107.97 L 73.3816,-107.963 L 73.4158,-107.956
 L 73.4499,-107.949 L 73.4838,-107.941 L 73.5176,-107.932 L 73.5513,-107.923 L 73.5847,-107.913 L 73.618,-107.902
 L 73.6511,-107.891 L 73.684,-107.879 L 73.7167,-107.867 L 73.7492,-107.854 L 73.7815,-107.841 L 73.8135,-107.827
 L 73.8452,-107.813 L 73.8767,-107.798 L 73.908,-107.782 L 73.9389,-107.766 L 73.9696,-107.749 L 74,-107.732
 L 74.0301,-107.714 L 74.0598,-107.696 L 74.0893,-107.677 L 74.1184,-107.658 L 74.1472,-107.638 L 74.1756,-107.618
 L 74.2036,-107.597 L 74.2313,-107.576 L 74.2586,-107.554 L 74.2856,-107.532 L 74.3121,-107.509 L 74.3383,-107.486
 L 74.364,-107.463 L 74.3893,-107.439 L 74.4142,-107.414 L 74.4387,-107.389 L 74.4627,-107.364 L 74.4863,-107.338
 L 74.5094,-107.312 L 74.5321,-107.286 L 74.5543,-107.259 L 74.576,-107.231 L 74.5973,-107.204 L 74.618,-107.176
 L 74.6383,-107.147 L 74.6581,-107.118 L 74.6773,-107.089 L 74.6961,-107.06 L 74.7143,-107.03 L 74.732,-107
 L 74.7492,-106.97 L 74.7659,-106.939 L 74.782,-106.908 L 74.7976,-106.877 L 74.8126,-106.845 L 74.8271,-106.813
 L 74.841,-106.781 L 74.8544,-106.749 L 74.8672,-106.717 L 74.8794,-106.684 L 74.891,-106.651 L 74.9021,-106.618
 L 74.9126,-106.585 L 74.9225,-106.551 L 74.9319,-106.518 L 74.9406,-106.484 L 74.9487,-106.45 L 74.9563,-106.416
 L 74.9633,-106.382 L 74.9696,-106.347 L 74.9754,-106.313 L 74.9805,-106.278 L 74.9851,-106.244 L 74.989,-106.209
 L 74.9924,-106.174 L 74.9951,-106.14 L 74.9973,-106.105 L 74.9988,-106.07 L 74.9997,-106.035 L 75,-106
 L 74.9997,-105.965 L 74.9988,-105.93 L 74.9973,-105.895 L 74.9951,-105.86 L 74.9924,-105.826 L 74.989,-105.791
 L 74.9851,-105.756 L 74.9805,-105.722 L 74.9754,-105.687 L 74.9696,-105.653 L 74.9633,-105.618 L 74.9563,-105.584
 L 74.9487,-105.55 L 74.9406,-105.516 L 74.9319,-105.482 L 74.9225,-105.449 L 74.9126,-105.415 L 74.9021,-105.382
 L 74.891,-105.349 L 74.8794,-105.316 L 74.8672,-105.283 L 74.8544,-105.251 L 74.841,-105.219 L 74.8271,-105.187
 L 74.8126,-105.155 L 74.7976,-105.123 L 74.782,-105.092 L 74.7659,-105.061 L 74.7492,-105.03 L 74.732,-105
 L 74.7143,-104.97 L 74.6961,-104.94 L 74.6773,-104.911 L 74.6581,-104.882 L 74.6383,-104.853 L 74.618,-104.824
 L 74.5973,-104.796 L 74.576,-104.769 L 74.5543,-104.741 L 74.5321,-104.714 L 74.5094,-104.688 L 74.4863,-104.662
 L 74.4627,-104.636 L 74.4387,-104.611 L 74.4142,-104.586 L 74.3893,-104.561 L 74.364,-104.537 L 74.3383,-104.514
 L 74.3121,-104.491 L 74.2856,-104.468 L 74.2586,-104.446 L 74.2313,-104.424 L 74.2036,-104.403 L 74.1756,-104.382
 L 74.1472,-104.362 L 74.1184,-104.342 L 74.0893,-104.323 L 74.0598,-104.304 L 74.0301,-104.286 L 74,-104.268
 L 73.9696,-104.251 L 73.9389,-104.234 L 73.908,-104.218 L 73.8767,-104.202 L 73.8452,-104.187 L 73.8135,-104.173
 L 73.7815,-104.159 L 73.7492,-104.146 L 73.7167,-104.133 L 73.684,-104.121 L 73.6511,-104.109 L 73.618,-104.098
 L 73.5847,-104.087 L 73.5513,-104.077 L 73.5176,-104.068 L 73.4838,-104.059 L 73.4499,-104.051 L 73.4158,-104.044
 L 73.3816,-104.037 L 73.3473,-104.03 L 73.3129,-104.025 L 73.2783,-104.019 L 73.2437,-104.015 L 73.2091,-104.011
 L 73.1743,-104.008 L 73.1395,-104.005 L 73.1047,-104.003 L 73.0698,-104.001 L 73.0349,-104 L 73,-104
 z
M 10.9651,-20.0003 L 10.9302,-20.0012 L 10.8953,-20.0027 L 10.8605,-20.0049 L 10.8257,-20.0076 L 10.7909,-20.011
 L 10.7563,-20.0149 L 10.7216,-20.0195 L 10.6871,-20.0246 L 10.6527,-20.0304 L 10.6184,-20.0367 L 10.5842,-20.0437
 L 10.5501,-20.0513 L 10.5161,-20.0594 L 10.4824,-20.0681 L 10.4487,-20.0775 L 10.4153,-20.0874 L 10.382,-20.0979
 L 10.3489,-20.109 L 10.3159,-20.1206 L 10.2832,-20.1328 L 10.2508,-20.1456 L 10.2185,-20.159 L 10.1865,-20.1729
 L 10.1548,-20.1874 L 10.1232,-20.2024 L 10.092,-20.218 L 10.0611,-20.2341 L 10.0304,-20.2507 L 10,-20.2679
 L 9.96991,-20.2857 L 9.94016,-20.3039 L 9.91072,-20.3226 L 9.88161,-20.3419 L 9.85284,-20.3617 L 9.82442,-20.382
 L 9.79636,-20.4027 L 9.76868,-20.424 L 9.74135,-20.4457 L 9.71442,-20.4679 L 9.68788,-20.4906 L 9.66173,-20.5137
 L 9.636,-20.5373 L 9.61067,-20.5613 L 9.58578,-20.5858 L 9.56131,-20.6107 L 9.53729,-20.636 L 9.5137,-20.6617
 L 9.49057,-20.6879 L 9.46791,-20.7144 L 9.44569,-20.7413 L 9.42397,-20.7687 L 9.40273,-20.7964 L 9.38196,-20.8244
 L 9.36169,-20.8528 L 9.34192,-20.8816 L 9.32265,-20.9107 L 9.30389,-20.9402 L 9.28566,-20.9699 L 9.26794,-21
 L 9.25075,-21.0304 L 9.2341,-21.0611 L 9.21797,-21.092 L 9.20241,-21.1232 L 9.18738,-21.1548 L 9.1729,-21.1865
 L 9.15898,-21.2185 L 9.14563,-21.2508 L 9.13283,-21.2833 L 9.12061,-21.3159 L 9.10895,-21.3489 L 9.09789,-21.382
 L 9.08739,-21.4153 L 9.07747,-21.4487 L 9.06815,-21.4824 L 9.0594,-21.5161 L 9.05125,-21.5501 L 9.0437,-21.5842
 L 9.03674,-21.6184 L 9.03038,-21.6527 L 9.02461,-21.6871 L 9.01945,-21.7216 L 9.01489,-21.7563 L 9.01096,-21.7909
 L 9.0076,-21.8257 L 9.00487,-21.8605 L 9.00273,-21.8953 L 9.00121,-21.9302 L 9.00029,-21.9651 L 9,-22
 L 9.00029,-22.0349 L 9.00121,-22.0698 L 9.00273,-22.1047 L 9.00487,-22.1395 L 9.0076,-22.1743 L 9.01096,-22.209
 L 9.01489,-22.2437 L 9.01945,-22.2783 L 9.02461,-22.3129 L 9.03038,-22.3473 L 9.03674,-22.3816 L 9.0437,-22.4158
 L 9.05125,-22.4499 L 9.0594,-22.4838 L 9.06815,-22.5176 L 9.07747,-22.5513 L 9.08739,-22.5847 L 9.09789,-22.618
 L 9.10895,-22.6511 L 9.12061,-22.684 L 9.13283,-22.7167 L 9.14563,-22.7492 L 9.15898,-22.7814 L 9.1729,-22.8135
 L 9.18738,-22.8452 L 9.20241,-22.8767 L 9.21797,-22.908 L 9.2341,-22.9389 L 9.25075,-22.9696 L 9.26794,-23
 L 9.28566,-23.0301 L 9.30389,-23.0598 L 9.32265,-23.0893 L 9.34192,-23.1184 L 9.36169,-23.1471 L 9.38196,-23.1756
 L 9.40273,-23.2036 L 9.42397,-23.2313 L 9.44569,-23.2586 L 9.46791,-23.2856 L 9.49057,-23.3121 L 9.5137,-23.3383
 L 9.53729,-23.364 L 9.56131,-23.3893 L 9.58578,-23.4142 L 9.61067,-23.4387 L 9.636,-23.4627 L 9.66173,-23.4863
 L 9.68788,-23.5094 L 9.71442,-23.5321 L 9.74135,-23.5543 L 9.76868,-23.576 L 9.79636,-23.5973 L 9.82442,-23.618
 L 9.85284,-23.6383 L 9.88161,-23.6581 L 9.91072,-23.6773 L 9.94016,-23.6961 L 9.96991,-23.7143 L 10,-23.732
 L 10.0304,-23.7492 L 10.0611,-23.7659 L 10.092,-23.782 L 10.1232,-23.7976 L 10.1548,-23.8126 L 10.1865,-23.8271
 L 10.2185,-23.841 L 10.2508,-23.8544 L 10.2832,-23.8672 L 10.3159,-23.8794 L 10.3489,-23.891 L 10.382,-23.9021
 L 10.4153,-23.9126 L 10.4487,-23.9225 L 10.4824,-23.9318 L 10.5161,-23.9406 L 10.5501,-23.9487 L 10.5842,-23.9563
 L 10.6184,-23.9632 L 10.6527,-23.9696 L 10.6871,-23.9754 L 10.7216,-23.9805 L 10.7563,-23.9851 L 10.7909,-23.989
 L 10.8257,-23.9924 L 10.8605,-23.9951 L 10.8953,-23.9973 L 10.9302,-23.9988 L 10.9651,-23.9997 L 11,-24
 L 11.0349,-23.9997 L 11.0698,-23.9988 L 11.1047,-23.9973 L 11.1395,-23.9951 L 11.1743,-23.9924 L 11.209,-23.989
 L 11.2437,-23.9851 L 11.2783,-23.9805 L 11.3129,-23.9754 L 11.3473,-23.9696 L 11.3816,-23.9632 L 11.4158,-23.9563
 L 11.4499,-23.9487 L 11.4838,-23.9406 L 11.5176,-23.9318 L 11.5513,-23.9225 L 11.5847,-23.9126 L 11.618,-23.9021
 L 11.6511,-23.891 L 11.684,-23.8794 L 11.7167,-23.8672 L 11.7492,-23.8544 L 11.7814,-23.841 L 11.8135,-23.8271
 L 11.8452,-23.8126 L 11.8767,-23.7976 L 11.908,-23.782 L 11.9389,-23.7659 L 11.9696,-23.7492 L 12,-23.732
 L 12.0301,-23.7143 L 12.0598,-23.6961 L 12.0893,-23.6773 L 12.1184,-23.6581 L 12.1471,-23.6383 L 12.1756,-23.618
 L 12.2036,-23.5973 L 12.2313,-23.576 L 12.2586,-23.5543 L 12.2856,-23.5321 L 12.3121,-23.5094 L 12.3383,-23.4863
 L 12.364,-23.4627 L 12.3893,-23.4387 L 12.4142,-23.4142 L 12.4387,-23.3893 L 12.4627,-23.364 L 12.4863,-23.3383
 L 12.5094,-23.3121 L 12.5321,-23.2856 L 12.5543,-23.2586 L 12.576,-23.2313 L 12.5973,-23.2036 L 12.618,-23.1756
 L 12.6383,-23.1471 L 12.6581,-23.1184 L 12.6773,-23.0893 L 12.6961,-23.0598 L 12.7143,-23.0301 L 12.732,-23
 L 12.7492,-22.9696 L 12.7659,-22.9389 L 12.782,-22.908 L 12.7976,-22.8767 L 12.8126,-22.8452 L 12.8271,-22.8135
 L 12.841,-22.7814 L 12.8544,-22.7492 L 12.8672,-22.7167 L 12.8794,-22.684 L 12.891,-22.6511 L 12.9021,-22.618
 L 12.9126,-22.5847 L 12.9225,-22.5513 L 12.9318,-22.5176 L 12.9406,-22.4838 L 12.9487,-22.4499 L 12.9563,-22.4158
 L 12.9632,-22.3816 L 12.9696,-22.3473 L 12.9754,-22.3129 L 12.9805,-22.2783 L 12.9851,-22.2437 L 12.989,-22.209
 L 12.9924,-22.1743 L 12.9951,-22.1395 L 12.9973,-22.1047 L 12.9988,-22.0698 L 12.9997,-22.0349 L 13,-22
 L 12.9997,-21.9651 L 12.9988,-21.9302 L 12.9973,-21.8953 L 12.9951,-21.8605 L 12.9924,-21.8257 L 12.989,-21.7909
 L 12.9851,-21.7563 L 12.9805,-21.7216 L 12.9754,-21.6871 L 12.9696,-21.6527 L 12.9632,-21.6184 L 12.9563,-21.5842
 L 12.9487,-21.5501 L 12.9406,-21.5161 L 12.9318,-21.4824 L 12.9225,-21.4487 L 12.9126,-21.4153 L 12.9021,-21.382
 L 12.891,-21.3489 L 12.8794,-21.3159 L 12.8672,-21.2833 L 12.8544,-21.2508 L 12.841,-21.2185 L 12.8271,-21.1865
 L 12.8126,-21.1548 L 12.7976,-21.1232 L 12.782,-21.092 L 12.7659,-21.0611 L 12.7492,-21.0304 L 12.732,-21
 L 12.7143,-20.9699 L 12.6961,-20.9402 L 12.6773,-20.9107 L 12.6581,-20.8816 L 12.6383,-20.8528 L 12.618,-20.8244
 L 12.5973,-20.7964 L 12.576,-20.7687 L 12.5543,-20.7413 L 12.5321,-20.7144 L 12.5094,-20.6879 L 12.4863,-20.6617
 L 12.4627,-20.636 L 12.4387,-20.6107 L 12.4142,-20.5858 L 12.3893,-20.5613 L 12.364,-20.5373 L 12.3383,-20.5137
 L 12.3121,-20.4906 L 12.2856,-20.4679 L 12.2586,-20.4457 L 12.2313,-20.424 L 12.2036,-20.4027 L 12.1756,-20.382
 L 12.1471,-20.3617 L 12.1184,-20.3419 L 12.0893,-20.3226 L 12.0598,-20.3039 L 12.0301,-20.2857 L 12,-20.2679
 L 11.9696,-20.2507 L 11.9389,-20.2341 L 11.908,-20.218 L 11.8767,-20.2024 L 11.8452,-20.1874 L 11.8135,-20.1729
 L 11.7814,-20.159 L 11.7492,-20.1456 L 11.7167,-20.1328 L 11.684,-20.1206 L 11.6511,-20.109 L 11.618,-20.0979
 L 11.5847,-20.0874 L 11.5513,-20.0775 L 11.5176,-20.0681 L 11.4838,-20.0594 L 11.4499,-20.0513 L 11.4158,-20.0437
 L 11.3816,-20.0367 L 11.3473,-20.0304 L 11.3129,-20.0246 L 11.2783,-20.0195 L 11.2437,-20.0149 L 11.209,-20.011
 L 11.1743,-20.0076 L 11.1395,-20.0049 L 11.1047,-20.0027 L 11.0698,-20.0012 L 11.0349,-20.0003 L 11,-20
 z
M 72.9651,-20.0003 L 72.9302,-20.0012 L 72.8953,-20.0027 L 72.8605,-20.0049 L 72.8257,-20.0076 L 72.7909,-20.011
 L 72.7563,-20.0149 L 72.7216,-20.0195 L 72.6871,-20.0246 L 72.6527,-20.0304 L 72.6184,-20.0367 L 72.5842,-20.0437
 L 72.5501,-20.0513 L 72.5162,-20.0594 L 72.4824,-20.0681 L 72.4487,-20.0775 L 72.4153,-20.0874 L 72.382,-20.0979
 L 72.3489,-20.109 L 72.3159,-20.1206 L 72.2833,-20.1328 L 72.2508,-20.1456 L 72.2185,-20.159 L 72.1865,-20.1729
 L 72.1548,-20.1874 L 72.1233,-20.2024 L 72.092,-20.218 L 72.0611,-20.2341 L 72.0304,-20.2507 L 72,-20.2679
 L 71.9699,-20.2857 L 71.9402,-20.3039 L 71.9107,-20.3226 L 71.8816,-20.3419 L 71.8528,-20.3617 L 71.8244,-20.382
 L 71.7964,-20.4027 L 71.7687,-20.424 L 71.7413,-20.4457 L 71.7144,-20.4679 L 71.6879,-20.4906 L 71.6617,-20.5137
 L 71.636,-20.5373 L 71.6107,-20.5613 L 71.5858,-20.5858 L 71.5613,-20.6107 L 71.5373,-20.636 L 71.5137,-20.6617
 L 71.4906,-20.6879 L 71.4679,-20.7144 L 71.4457,-20.7413 L 71.424,-20.7687 L 71.4027,-20.7964 L 71.382,-20.8244
 L 71.3617,-20.8528 L 71.3419,-20.8816 L 71.3227,-20.9107 L 71.3039,-20.9402 L 71.2857,-20.9699 L 71.2679,-21
 L 71.2508,-21.0304 L 71.2341,-21.0611 L 71.218,-21.092 L 71.2024,-21.1232 L 71.1874,-21.1548 L 71.1729,-21.1865
 L 71.159,-21.2185 L 71.1456,-21.2508 L 71.1328,-21.2833 L 71.1206,-21.3159 L 71.109,-21.3489 L 71.0979,-21.382
 L 71.0874,-21.4153 L 71.0775,-21.4487 L 71.0681,-21.4824 L 71.0594,-21.5161 L 71.0513,-21.5501 L 71.0437,-21.5842
 L 71.0367,-21.6184 L 71.0304,-21.6527 L 71.0246,-21.6871 L 71.0195,-21.7216 L 71.0149,-21.7563 L 71.011,-21.7909
 L 71.0076,-21.8257 L 71.0049,-21.8605 L 71.0027,-21.8953 L 71.0012,-21.9302 L 71.0003,-21.9651 L 71,-22
 L 71.0003,-22.0349 L 71.0012,-22.0698 L 71.0027,-22.1047 L 71.0049,-22.1395 L 71.0076,-22.1743 L 71.011,-22.209
 L 71.0149,-22.2437 L 71.0195,-22.2783 L 71.0246,-22.3129 L 71.0304,-22.3473 L 71.0367,-22.3816 L 71.0437,-22.4158
 L 71.0513,-22.4499 L 71.0594,-22.4838 L 71.0681,-22.5176 L 71.0775,-22.5513 L 71.0874,-22.5847 L 71.0979,-22.618
 L 71.109,-22.6511 L 71.1206,-22.684 L 71.1328,-22.7167 L 71.1456,-22.7492 L 71.159,-22.7814 L 71.1729,-22.8135
 L 71.1874,-22.8452 L 71.2024,-22.8767 L 71.218,-22.908 L 71.2341,-22.9389 L 71.2508,-22.9696 L 71.2679,-23
 L 71.2857,-23.0301 L 71.3039,-23.0598 L 71.3227,-23.0893 L 71.3419,-23.1184 L 71.3617,-23.1471 L 71.382,-23.1756
 L 71.4027,-23.2036 L 71.424,-23.2313 L 71.4457,-23.2586 L 71.4679,-23.2856 L 71.4906,-23.3121 L 71.5137,-23.3383
 L 71.5373,-23.364 L 71.5613,-23.3893 L 71.5858,-23.4142 L 71.6107,-23.4387 L 71.636,-23.4627 L 71.6617,-23.4863
 L 71.6879,-23.5094 L 71.7144,-23.5321 L 71.7413,-23.5543 L 71.7687,-23.576 L 71.7964,-23.5973 L 71.8244,-23.618
 L 71.8528,-23.6383 L 71.8816,-23.6581 L 71.9107,-23.6773 L 71.9402,-23.6961 L 71.9699,-23.7143 L 72,-23.732
 L 72.0304,-23.7492 L 72.0611,-23.7659 L 72.092,-23.782 L 72.1233,-23.7976 L 72.1548,-23.8126 L 72.1865,-23.8271
 L 72.2185,-23.841 L 72.2508,-23.8544 L 72.2833,-23.8672 L 72.3159,-23.8794 L 72.3489,-23.891 L 72.382,-23.9021
 L 72.4153,-23.9126 L 72.4487,-23.9225 L 72.4824,-23.9318 L 72.5162,-23.9406 L 72.5501,-23.9487 L 72.5842,-23.9563
 L 72.6184,-23.9632 L 72.6527,-23.9696 L 72.6871,-23.9754 L 72.7216,-23.9805 L 72.7563,-23.9851 L 72.7909,-23.989
 L 72.8257,-23.9924 L 72.8605,-23.9951 L 72.8953,-23.9973 L 72.9302,-23.9988 L 72.9651,-23.9997 L 73,-24
 L 73.0349,-23.9997 L 73.0698,-23.9988 L 73.1047,-23.9973 L 73.1395,-23.9951 L 73.1743,-23.9924 L 73.2091,-23.989
 L 73.2437,-23.9851 L 73.2783,-23.9805 L 73.3129,-23.9754 L 73.3473,-23.9696 L 73.3816,-23.9632 L 73.4158,-23.9563
 L 73.4499,-23.9487 L 73.4838,-23.9406 L 73.5176,-23.9318 L 73.5513,-23.9225 L 73.5847,-23.9126 L 73.618,-23.9021
 L 73.6511,-23.891 L 73.684,-23.8794 L 73.7167,-23.8672 L 73.7492,-23.8544 L 73.7815,-23.841 L 73.8135,-23.8271
 L 73.8452,-23.8126 L 73.8767,-23.7976 L 73.908,-23.782 L 73.9389,-23.7659 L 73.9696,-23.7492 L 74,-23.732
 L 74.0301,-23.7143 L 74.0598,-23.6961 L 74.0893,-23.6773 L 74.1184,-23.6581 L 74.1472,-23.6383 L 74.1756,-23.618
 L 74.2036,-23.5973 L 74.2313,-23.576 L 74.2586,-23.5543 L 74.2856,-23.5321 L 74.3121,-23.5094 L 74.3383,-23.4863
 L 74.364,-23.4627 L 74.3893,-23.4387 L 74.4142,-23.4142 L 74.4387,-23.3893 L 74.4627,-23.364 L 74.4863,-23.3383
 L 74.5094,-23.3121 L 74.5321,-23.2856 L 74.5543,-23.2586 L 74.576,-23.2313 L 74.5973,-23.2036 L 74.618,-23.1756
 L 74.6383,-23.1471 L 74.6581,-23.1184 L 74.6773,-23.0893 L 74.6961,-23.0598 L 74.7143,-23.0301 L 74.732,-23
 L 74.7492,-22.9696 L 74.7659,-22.9389 L 74.782,-22.908 L 74.7976,-22.8767 L 74.8126,-22.8452 L 74.8271,-22.8135
 L 74.841,-22.7814 L 74.8544,-22.7492 L 74.8672,-22.7167 L 74.8794,-22.684 L 74.891,-22.6511 L 74.9021,-22.618
 L 74.9126,-22.5847 L 74.9225,-22.5513 L 74.9319,-22.5176 L 74.9406,-22.4838 L 74.9487,-22.4499 L 74.9563,-22.4158
 L 74.9633,-22.3816 L 74.9696,-22.3473 L 74.9754,-22.3129 L 74.9805,-22.2783 L 74.9851,-22.2437 L 74.989,-22.209
 L 74.9924,-22.1743 L 74.9951,-22.1395 L 74.9973,-22.1047 L 74.9988,-22.0698 L 74.9997,-22.0349 L 75,-22
 L 74.9997,-21.9651 L 74.9988,-21.9302 L 74.9973,-21.8953 L 74.9951,-21.8605 L 74.9924,-21.8257 L 74.989,-21.7909
 L 74.9851,-21.7563 L 74.9805,-21.7216 L 74.9754,-21.6871 L 74.9696,-21.6527 L 74.9633,-21.6184 L 74.9563,-21.5842
 L 74.9487,-21.5501 L 74.9406,-21.5161 L 74.9319,-21.4824 L 74.9225,-21.4487 L 74.9126,-21.4153 L 74.9021,-21.382
 L 74.891,-21.3489 L 74.8794,-21.3159 L 74.8672,-21.2833 L 74.8544,-21.2508 L 74.841,-21.2185 L 74.8271,-21.1865
 L 74.8126,-21.1548 L 74.7976,-21.1232 L 74.782,-21.092 L 74.7659,-21.0611 L 74.7492,-21.0304 L 74.732,-21
 L 74.7143,-20.9699 L 74.6961,-20.9402 L 74.6773,-20.9107 L 74.6581,-20.8816 L 74.6383,-20.8528 L 74.618,-20.8244
 L 74.5973,-20.7964 L 74.576,-20.7687 L 74.5543,-20.7413 L 74.5321,-20.7144 L 74.5094,-20.6879 L 74.4863,-20.6617
 L 74.4627,-20.636 L 74.4387,-20.6107 L 74.4142,-20.5858 L 74.3893,-20.5613 L 74.364,-20.5373 L 74.3383,-20.5137
 L 74.3121,-20.4906 L 74.2856,-20.4679 L 74.2586,-20.4457 L 74.2313,-20.424 L 74.2036,-20.4027 L 74.1756,-20.382
 L 74.1472,-20.3617 L 74.1184,-20.3419 L 74.0893,-20.3226 L 74.0598,-20.3039 L 74.0301,-20.2857 L 74,-20.2679
 L 73.9696,-20.2507 L 73.9389,-20.2341 L 73.908,-20.218 L 73.8767,-20.2024 L 73.8452,-20.1874 L 73.8135,-20.1729
 L 73.7815,-20.159 L 73.7492,-20.1456 L 73.7167,-20.1328 L 73.684,-20.1206 L 73.6511,-20.109 L 73.618,-20.0979
 L 73.5847,-20.0874 L 73.5513,-20.0775 L 73.5176,-20.0681 L 73.4838,-20.0594 L 73.4499,-20.0513 L 73.4158,-20.0437
 L 73.3816,-20.0367 L 73.3473,-20.0304 L 73.3129,-20.0246 L 73.2783,-20.0195 L 73.2437,-20.0149 L 73.2091,-20.011
 L 73.1743,-20.0076 L 73.1395,-20.0049 L 73.1047,-20.0027 L 73.0698,-20.0012 L 73.0349,-20.0003 L 73,-20
 z
" stroke="black" fill="lightgray" stroke-width="0.5"/>
</svg>
