<?xml version="1.0" standalone="no"?>
<!DOCTYPE svg PUBLIC "-//W3C//DTD SVG 1.1//EN" "http://www.w3.org/Graphics/SVG/1.1/DTD/svg11.dtd">
<svg width="240mm" height="334mm" viewBox="0 -326 240 334" xmlns="http://www.w3.org/2000/svg" version="1.1">
<title>OpenSCAD Model</title>
<path d="
M 50,-0 L 70,-0 L 70,-8 L 170,-8 L 170,-0 L 190,-0
 L 190,8 L 220,8 L 220,-0 L 240,-0 L 240,-318 L 220,-318
 L 220,-326 L 190,-326 L 190,-318 L 50,-318 L 50,-326 L 20,-326
 L 20,-318 L 0,-318 L 0,-0 L 20,-0 L 20,8 L 50,8
 z
M 150.965,-305 L 150.93,-305.001 L 150.895,-305.003 L 150.86,-305.005 L 150.826,-305.008 L 150.791,-305.011
 L 150.756,-305.015 L 150.722,-305.019 L 150.687,-305.025 L 150.653,-305.03 L 150.618,-305.037 L 150.584,-305.044
 L 150.55,-305.051 L 150.516,-305.059 L 150.482,-305.068 L 150.449,-305.077 L 150.415,-305.087 L 150.382,-305.098
 L 150.349,-305.109 L 150.316,-305.121 L 150.283,-305.133 L 150.251,-305.146 L 150.219,-305.159 L 150.187,-305.173
 L 150.155,-305.187 L 150.123,-305.202 L 150.092,-305.218 L 150.061,-305.234 L 150.03,-305.251 L 150,-305.268
 L 149.97,-305.286 L 149.94,-305.304 L 149.911,-305.323 L 149.882,-305.342 L 149.853,-305.362 L 149.824,-305.382
 L 149.796,-305.403 L 149.769,-305.424 L 149.741,-305.446 L 149.714,-305.468 L 149.688,-305.491 L 149.662,-305.514
 L 149.636,-305.537 L 149.611,-305.561 L 149.586,-305.586 L 149.561,-305.611 L 149.537,-305.636 L 149.514,-305.662
 L 149.491,-305.688 L 149.468,-305.714 L 149.446,-305.741 L 149.424,-305.769 L 149.403,-305.796 L 149.382,-305.824
 L 149.362,-305.853 L 149.342,-305.882 L 149.323,-305.911 L 149.304,-305.94 L 149.286,-305.97 L 149.268,-306
 L 149.251,-306.03 L 149.234,-306.061 L 149.218,-306.092 L 149.202,-306.123 L 149.187,-306.155 L 149.173,-306.187
 L 149.159,-306.219 L 149.146,-306.251 L 149.133,-306.283 L 149.121,-306.316 L 149.109,-306.349 L 149.098,-306.382
 L 149.087,-306.415 L 149.077,-306.449 L 149.068,-306.482 L 149.059,-306.516 L 149.051,-306.55 L 149.044,-306.584
 L 149.037,-306.618 L 149.03,-306.653 L 149.025,-306.687 L 149.019,-306.722 L 149.015,-306.756 L 149.011,-306.791
 L 149.008,-306.826 L 149.005,-306.86 L 149.003,-306.895 L 149.001,-306.93 L 149,-306.965 L 149,-307
 L 149,-307.035 L 149.001,-307.07 L 149.003,-307.105 L 149.005,-307.14 L 149.008,-307.174 L 149.011,-307.209
 L 149.015,-307.244 L 149.019,-307.278 L 149.025,-307.313 L 149.03,-307.347 L 149.037,-307.382 L 149.044,-307.416
 L 149.051,-307.45 L 149.059,-307.484 L 149.068,-307.518 L 149.077,-307.551 L 149.087,-307.585 L 149.098,-307.618
 L 149.109,-307.651 L 149.121,-307.684 L 149.133,-307.717 L 149.146,-307.749 L 149.159,-307.781 L 149.173,-307.813
 L 149.187,-307.845 L 149.202,-307.877 L 149.218,-307.908 L 149.234,-307.939 L 149.251,-307.97 L 149.268,-308
 L 149.286,-308.03 L 149.304,-308.06 L 149.323,-308.089 L 149.342,-308.118 L 149.362,-308.147 L 149.382,-308.176
 L 149.403,-308.204 L 149.424,-308.231 L 149.446,-308.259 L 149.468,-308.286 L 149.491,-308.312 L 149.514,-308.338
 L 149.537,-308.364 L 149.561,-308.389 L 149.586,-308.414 L 149.611,-308.439 L 149.636,-308.463 L 149.662,-308.486
 L 149.688,-308.509 L 149.714,-308.532 L 149.741,-308.554 L 149.769,-308.576 L 149.796,-308.597 L 149.824,-308.618
 L 149.853,-308.638 L 149.882,-308.658 L 149.911,-308.677 L 149.94,-308.696 L 149.97,-308.714 L 150,-308.732
 L 150.03,-308.749 L 150.061,-308.766 L 150.092,-308.782 L 150.123,-308.798 L 150.155,-308.813 L 150.187,-308.827
 L 150.219,-308.841 L 150.251,-308.854 L 150.283,-308.867 L 150.316,-308.879 L 150.349,-308.891 L 150.382,-308.902
 L 150.415,-308.913 L 150.449,-308.923 L 150.482,-308.932 L 150.516,-308.941 L 150.55,-308.949 L 150.584,-308.956
 L 150.618,-308.963 L 150.653,-308.97 L 150.687,-308.975 L 150.722,-308.981 L 150.756,-308.985 L 150.791,-308.989
 L 150.826,-308.992 L 150.86,-308.995 L 150.895,-308.997 L 150.93,-308.999 L 150.965,-309 L 151,-309
 L 151.035,-309 L 151.07,-308.999 L 151.105,-308.997 L 151.14,-308.995 L 151.174,-308.992 L 151.209,-308.989
 L 151.244,-308.985 L 151.278,-308.981 L 151.313,-308.975 L 151.347,-308.97 L 151.382,-308.963 L 151.416,-308.956
 L 151.45,-308.949 L 151.484,-308.941 L 151.518,-308.932 L 151.551,-308.923 L 151.585,-308.913 L 151.618,-308.902
 L 151.651,-308.891 L 151.684,-308.879 L 151.717,-308.867 L 151.749,-308.854 L 151.781,-308.841 L 151.813,-308.827
 L 151.845,-308.813 L 151.877,-308.798 L 151.908,-308.782 L 151.939,-308.766 L 151.97,-308.749 L 152,-308.732
 L 152.03,-308.714 L 152.06,-308.696 L 152.089,-308.677 L 152.118,-308.658 L 152.147,-308.638 L 152.176,-308.618
 L 152.204,-308.597 L 152.231,-308.576 L 152.259,-308.554 L 152.286,-308.532 L 152.312,-308.509 L 152.338,-308.486
 L 152.364,-308.463 L 152.389,-308.439 L 152.414,-308.414 L 152.439,-308.389 L 152.463,-308.364 L 152.486,-308.338
 L 152.509,-308.312 L 152.532,-308.286 L 152.554,-308.259 L 152.576,-308.231 L 152.597,-308.204 L 152.618,-308.176
 L 152.638,-308.147 L 152.658,-308.118 L 152.677,-308.089 L 152.696,-308.06 L 152.714,-308.03 L 152.732,-308
 L 152.749,-307.97 L 152.766,-307.939 L 152.782,-307.908 L 152.798,-307.877 L 152.813,-307.845 L 152.827,-307.813
 L 152.841,-307.781 L 152.854,-307.749 L 152.867,-307.717 L 152.879,-307.684 L 152.891,-307.651 L 152.902,-307.618
 L 152.913,-307.585 L 152.923,-307.551 L 152.932,-307.518 L 152.941,-307.484 L 152.949,-307.45 L 152.956,-307.416
 L 152.963,-307.382 L 152.97,-307.347 L 152.975,-307.313 L 152.981,-307.278 L 152.985,-307.244 L 152.989,-307.209
 L 152.992,-307.174 L 152.995,-307.14 L 152.997,-307.105 L 152.999,-307.07 L 153,-307.035 L 153,-307
 L 153,-306.965 L 152.999,-306.93 L 152.997,-306.895 L 152.995,-306.86 L 152.992,-306.826 L 152.989,-306.791
 L 152.985,-306.756 L 152.981,-306.722 L 152.975,-306.687 L 152.97,-306.653 L 152.963,-306.618 L 152.956,-306.584
 L 152.949,-306.55 L 152.941,-306.516 L 152.932,-306.482 L 152.923,-306.449 L 152.913,-306.415 L 152.902,-306.382
 L 152.891,-306.349 L 152.879,-306.316 L 152.867,-306.283 L 152.854,-306.251 L 152.841,-306.219 L 152.827,-306.187
 L 152.813,-306.155 L 152.798,-306.123 L 152.782,-306.092 L 152.766,-306.061 L 152.749,-306.03 L 152.732,-306
 L 152.714,-305.97 L 152.696,-305.94 L 152.677,-305.911 L 152.658,-305.882 L 152.638,-305.853 L 152.618,-305.824
 L 152.597,-305.796 L 152.576,-305.769 L 152.554,-305.741 L 152.532,-305.714 L 152.509,-305.688 L 152.486,-305.662
 L 152.463,-305.636 L 152.439,-305.611 L 152.414,-305.586 L 152.389,-305.561 L 152.364,-305.537 L 152.338,-305.514
 L 152.312,-305.491 L 152.286,-305.468 L 152.259,-305.446 L 152.231,-305.424 L 152.204,-305.403 L 152.176,-305.382
 L 152.147,-305.362 L 152.118,-305.342 L 152.089,-305.323 L 152.06,-305.304 L 152.03,-305.286 L 152,-305.268
 L 151.97,-305.251 L 151.939,-305.234 L 151.908,-305.218 L 151.877,-305.202 L 151.845,-305.187 L 151.813,-305.173
 L 151.781,-305.159 L 151.749,-305.146 L 151.717,-305.133 L 151.684,-305.121 L 151.651,-305.109 L 151.618,-305.098
 L 151.585,-305.087 L 151.551,-305.077 L 151.518,-305.068 L 151.484,-305.059 L 151.45,-305.051 L 151.416,-305.044
 L 151.382,-305.037 L 151.347,-305.03 L 151.313,-305.025 L 151.278,-305.019 L 151.244,-305.015 L 151.209,-305.011
 L 151.174,-305.008 L 151.14,-305.005 L 151.105,-305.003 L 151.07,-305.001 L 151.035,-305 L 151,-305
 z
M 88.9651,-305 L 88.9302,-305.001 L 88.8953,-305.003 L 88.8605,-305.005 L 88.8257,-305.008 L 88.7909,-305.011
 L 88.7563,-305.015 L 88.7216,-305.019 L 88.6871,-305.025 L 88.6527,-305.03 L 88.6184,-305.037 L 88.5842,-305.044
 L 88.5501,-305.051 L 88.5162,-305.059 L 88.4824,-305.068 L 88.4487,-305.077 L 88.4153,-305.087 L 88.382,-305.098
 L 88.3489,-305.109 L 88.3159,-305.121 L 88.2833,-305.133 L 88.2508,-305.146 L 88.2185,-305.159 L 88.1865,-305.173
 L 88.1548,-305.187 L 88.1233,-305.202 L 88.092,-305.218 L 88.0611,-305.234 L 88.0304,-305.251 L 88,-305.268
 L 87.9699,-305.286 L 87.9402,-305.304 L 87.9107,-305.323 L 87.8816,-305.342 L 87.8528,-305.362 L 87.8244,-305.382
 L 87.7964,-305.403 L 87.7687,-305.424 L 87.7413,-305.446 L 87.7144,-305.468 L 87.6879,-305.491 L 87.6617,-305.514
 L 87.636,-305.537 L 87.6107,-305.561 L 87.5858,-305.586 L 87.5613,-305.611 L 87.5373,-305.636 L 87.5137,-305.662
 L 87.4906,-305.688 L 87.4679,-305.714 L 87.4457,-305.741 L 87.424,-305.769 L 87.4027,-305.796 L 87.382,-305.824
 L 87.3617,-305.853 L 87.3419,-305.882 L 87.3227,-305.911 L 87.3039,-305.94 L 87.2857,-305.97 L 87.2679,-306
 L 87.2508,-306.03 L 87.2341,-306.061 L 87.218,-306.092 L 87.2024,-306.123 L 87.1874,-306.155 L 87.1729,-306.187
 L 87.159,-306.219 L 87.1456,-306.251 L 87.1328,-306.283 L 87.1206,-306.316 L 87.109,-306.349 L 87.0979,-306.382
 L 87.0874,-306.415 L 87.0775,-306.449 L 87.0681,-306.482 L 87.0594,-306.516 L 87.0513,-306.55 L 87.0437,-306.584
 L 87.0367,-306.618 L 87.0304,-306.653 L 87.0246,-306.687 L 87.0195,-306.722 L 87.0149,-306.756 L 87.011,-306.791
 L 87.0076,-306.826 L 87.0049,-306.86 L 87.0027,-306.895 L 87.0012,-306.93 L 87.0003,-306.965 L 87,-307
 L 87.0003,-307.035 L 87.0012,-307.07 L 87.0027,-307.105 L 87.0049,-307.14 L 87.0076,-307.174 L 87.011,-307.209
 L 87.0149,-307.244 L 87.0195,-307.278 L 87.0246,-307.313 L 87.0304,-307.347 L 87.0367,-307.382 L 87.0437,-307.416
 L 87.0513,-307.45 L 87.0594,-307.484 L 87.0681,-307.518 L 87.0775,-307.551 L 87.0874,-307.585 L 87.0979,-307.618
 L 87.109,-307.651 L 87.1206,-307.684 L 87.1328,-307.717 L 87.1456,-307.749 L 87.159,-307.781 L 87.1729,-307.813
 L 87.1874,-307.845 L 87.2024,-307.877 L 87.218,-307.908 L 87.2341,-307.939 L 87.2508,-307.97 L 87.2679,-308
 L 87.2857,-308.03 L 87.3039,-308.06 L 87.3227,-308.089 L 87.3419,-308.118 L 87.3617,-308.147 L 87.382,-308.176
 L 87.4027,-308.204 L 87.424,-308.231 L 87.4457,-308.259 L 87.4679,-308.286 L 87.4906,-308.312 L 87.5137,-308.338
 L 87.5373,-308.364 L 87.5613,-308.389 L 87.5858,-308.414 L 87.6107,-308.439 L 87.636,-308.463 L 87.6617,-308.486
 L 87.6879,-308.509 L 87.7144,-308.532 L 87.7413,-308.554 L 87.7687,-308.576 L 87.7964,-308.597 L 87.8244,-308.618
 L 87.8528,-308.638 L 87.8816,-308.658 L 87.9107,-308.677 L 87.9402,-308.696 L 87.9699,-308.714 L 88,-308.732
 L 88.0304,-308.749 L 88.0611,-308.766 L 88.092,-308.782 L 88.1233,-308.798 L 88.1548,-308.813 L 88.1865,-308.827
 L 88.2185,-308.841 L 88.2508,-308.854 L 88.2833,-308.867 L 88.3159,-308.879 L 88.3489,-308.891 L 88.382,-308.902
 L 88.4153,-308.913 L 88.4487,-308.923 L 88.4824,-308.932 L 88.5162,-308.941 L 88.5501,-308.949 L 88.5842,-308.956
 L 88.6184,-308.963 L 88.6527,-308.97 L 88.6871,-308.975 L 88.7216,-308.981 L 88.7563,-308.985 L 88.7909,-308.989
 L 88.8257,-308.992 L 88.8605,-308.995 L 88.8953,-308.997 L 88.9302,-308.999 L 88.9651,-309 L 89,-309
 L 89.0349,-309 L 89.0698,-308.999 L 89.1047,-308.997 L 89.1395,-308.995 L 89.1743,-308.992 L 89.2091,-308.989
 L 89.2437,-308.985 L 89.2783,-308.981 L 89.3129,-308.975 L 89.3473,-308.97 L 89.3816,-308.963 L 89.4158,-308.956
 L 89.4499,-308.949 L 89.4838,-308.941 L 89.5176,-308.932 L 89.5513,-308.923 L 89.5847,-308.913 L 89.618,-308.902
 L 89.6511,-308.891 L 89.684,-308.879 L 89.7167,-308.867 L 89.7492,-308.854 L 89.7815,-308.841 L 89.8135,-308.827
 L 89.8452,-308.813 L 89.8767,-308.798 L 89.908,-308.782 L 89.9389,-308.766 L 89.9696,-308.749 L 90,-308.732
 L 90.0301,-308.714 L 90.0598,-308.696 L 90.0893,-308.677 L 90.1184,-308.658 L 90.1472,-308.638 L 90.1756,-308.618
 L 90.2036,-308.597 L 90.2313,-308.576 L 90.2586,-308.554 L 90.2856,-308.532 L 90.3121,-308.509 L 90.3383,-308.486
 L 90.364,-308.463 L 90.3893,-308.439 L 90.4142,-308.414 L 90.4387,-308.389 L 90.4627,-308.364 L 90.4863,-308.338
 L 90.5094,-308.312 L 90.5321,-308.286 L 90.5543,-308.259 L 90.576,-308.231 L 90.5973,-308.204 L 90.618,-308.176
 L 90.6383,-308.147 L 90.6581,-308.118 L 90.6773,-308.089 L 90.6961,-308.06 L 90.7143,-308.03 L 90.732,-308
 L 90.7492,-307.97 L 90.7659,-307.939 L 90.782,-307.908 L 90.7976,-307.877 L 90.8126,-307.845 L 90.8271,-307.813
 L 90.841,-307.781 L 90.8544,-307.749 L 90.8672,-307.717 L 90.8794,-307.684 L 90.891,-307.651 L 90.9021,-307.618
 L 90.9126,-307.585 L 90.9225,-307.551 L 90.9319,-307.518 L 90.9406,-307.484 L 90.9487,-307.45 L 90.9563,-307.416
 L 90.9633,-307.382 L 90.9696,-307.347 L 90.9754,-307.313 L 90.9805,-307.278 L 90.9851,-307.244 L 90.989,-307.209
 L 90.9924,-307.174 L 90.9951,-307.14 L 90.9973,-307.105 L 90.9988,-307.07 L 90.9997,-307.035 L 91,-307
 L 90.9997,-306.965 L 90.9988,-306.93 L 90.9973,-306.895 L 90.9951,-306.86 L 90.9924,-306.826 L 90.989,-306.791
 L 90.9851,-306.756 L 90.9805,-306.722 L 90.9754,-306.687 L 90.9696,-306.653 L 90.9633,-306.618 L 90.9563,-306.584
 L 90.9487,-306.55 L 90.9406,-306.516 L 90.9319,-306.482 L 90.9225,-306.449 L 90.9126,-306.415 L 90.9021,-306.382
 L 90.891,-306.349 L 90.8794,-306.316 L 90.8672,-306.283 L 90.8544,-306.251 L 90.841,-306.219 L 90.8271,-306.187
 L 90.8126,-306.155 L 90.7976,-306.123 L 90.782,-306.092 L 90.7659,-306.061 L 90.7492,-306.03 L 90.732,-306
 L 90.7143,-305.97 L 90.6961,-305.94 L 90.6773,-305.911 L 90.6581,-305.882 L 90.6383,-305.853 L 90.618,-305.824
 L 90.5973,-305.796 L 90.576,-305.769 L 90.5543,-305.741 L 90.5321,-305.714 L 90.5094,-305.688 L 90.4863,-305.662
 L 90.4627,-305.636 L 90.4387,-305.611 L 90.4142,-305.586 L 90.3893,-305.561 L 90.364,-305.537 L 90.3383,-305.514
 L 90.3121,-305.491 L 90.2856,-305.468 L 90.2586,-305.446 L 90.2313,-305.424 L 90.2036,-305.403 L 90.1756,-305.382
 L 90.1472,-305.362 L 90.1184,-305.342 L 90.0893,-305.323 L 90.0598,-305.304 L 90.0301,-305.286 L 90,-305.268
 L 89.9696,-305.251 L 89.9389,-305.234 L 89.908,-305.218 L 89.8767,-305.202 L 89.8452,-305.187 L 89.8135,-305.173
 L 89.7815,-305.159 L 89.7492,-305.146 L 89.7167,-305.133 L 89.684,-305.121 L 89.6511,-305.109 L 89.618,-305.098
 L 89.5847,-305.087 L 89.5513,-305.077 L 89.5176,-305.068 L 89.4838,-305.059 L 89.4499,-305.051 L 89.4158,-305.044
 L 89.3816,-305.037 L 89.3473,-305.03 L 89.3129,-305.025 L 89.2783,-305.019 L 89.2437,-305.015 L 89.2091,-305.011
 L 89.1743,-305.008 L 89.1395,-305.005 L 89.1047,-305.003 L 89.0698,-305.001 L 89.0349,-305 L 89,-305
 z
M 13.5858,-302.414 L 17.1213,-305.95 L 18.5355,-304.536 L 15,-301 z
M 23.5858,-292.414 L 27.1213,-295.95 L 28.5355,-294.536 L 25,-291 z
M 68.4738,-264.5 L 68.4476,-264.501 L 68.4215,-264.502 L 68.3954,-264.504 L 68.3693,-264.506 L 68.3432,-264.508
 L 68.3172,-264.511 L 68.2912,-264.515 L 68.2654,-264.518 L 68.2395,-264.523 L 68.2138,-264.528 L 68.1881,-264.533
 L 68.1626,-264.538 L 68.1371,-264.545 L 68.1118,-264.551 L 68.0865,-264.558 L 68.0614,-264.566 L 68.0365,-264.573
 L 68.0116,-264.582 L 67.987,-264.59 L 67.9624,-264.6 L 67.9381,-264.609 L 67.9139,-264.619 L 67.8899,-264.63
 L 67.8661,-264.641 L 67.8424,-264.652 L 67.819,-264.663 L 67.7958,-264.676 L 67.7728,-264.688 L 67.75,-264.701
 L 67.7274,-264.714 L 67.7051,-264.728 L 67.683,-264.742 L 67.6612,-264.756 L 67.6396,-264.771 L 67.6183,-264.786
 L 67.5973,-264.802 L 67.5765,-264.818 L 67.556,-264.834 L 67.5358,-264.851 L 67.5159,-264.868 L 67.4963,-264.885
 L 67.477,-264.903 L 67.458,-264.921 L 67.4393,-264.939 L 67.421,-264.958 L 67.403,-264.977 L 67.3853,-264.996
 L 67.3679,-265.016 L 67.3509,-265.036 L 67.3343,-265.056 L 67.318,-265.077 L 67.302,-265.097 L 67.2865,-265.118
 L 67.2713,-265.14 L 67.2564,-265.161 L 67.242,-265.183 L 67.2279,-265.205 L 67.2142,-265.227 L 67.201,-265.25
 L 67.1881,-265.273 L 67.1756,-265.296 L 67.1635,-265.319 L 67.1518,-265.342 L 67.1405,-265.366 L 67.1297,-265.39
 L 67.1192,-265.414 L 67.1092,-265.438 L 67.0996,-265.462 L 67.0905,-265.487 L 67.0817,-265.512 L 67.0734,-265.536
 L 67.0655,-265.561 L 67.0581,-265.587 L 67.0511,-265.612 L 67.0446,-265.637 L 67.0384,-265.663 L 67.0328,-265.688
 L 67.0276,-265.714 L 67.0228,-265.74 L 67.0185,-265.765 L 67.0146,-265.791 L 67.0112,-265.817 L 67.0082,-265.843
 L 67.0057,-265.869 L 67.0036,-265.895 L 67.002,-265.922 L 67.0009,-265.948 L 67.0002,-265.974 L 67,-266
 L 67.0002,-266.026 L 67.0009,-266.052 L 67.002,-266.078 L 67.0036,-266.105 L 67.0057,-266.131 L 67.0082,-266.157
 L 67.0112,-266.183 L 67.0146,-266.209 L 67.0185,-266.235 L 67.0228,-266.26 L 67.0276,-266.286 L 67.0328,-266.312
 L 67.0384,-266.337 L 67.0446,-266.363 L 67.0511,-266.388 L 67.0581,-266.413 L 67.0655,-266.439 L 67.0734,-266.464
 L 67.0817,-266.488 L 67.0905,-266.513 L 67.0996,-266.538 L 67.1092,-266.562 L 67.1192,-266.586 L 67.1297,-266.61
 L 67.1405,-266.634 L 67.1518,-266.658 L 67.1635,-266.681 L 67.1756,-266.704 L 67.1881,-266.727 L 67.201,-266.75
 L 67.2142,-266.773 L 67.2279,-266.795 L 67.242,-266.817 L 67.2564,-266.839 L 67.2713,-266.86 L 67.2865,-266.882
 L 67.302,-266.903 L 67.318,-266.923 L 67.3343,-266.944 L 67.3509,-266.964 L 67.3679,-266.984 L 67.3853,-267.004
 L 67.403,-267.023 L 67.421,-267.042 L 67.4393,-267.061 L 67.458,-267.079 L 67.477,-267.097 L 67.4963,-267.115
 L 67.5159,-267.132 L 67.5358,-267.149 L 67.556,-267.166 L 67.5765,-267.182 L 67.5973,-267.198 L 67.6183,-267.214
 L 67.6396,-267.229 L 67.6612,-267.244 L 67.683,-267.258 L 67.7051,-267.272 L 67.7274,-267.286 L 67.75,-267.299
 L 67.7728,-267.312 L 67.7958,-267.324 L 67.819,-267.337 L 67.8424,-267.348 L 67.8661,-267.359 L 67.8899,-267.37
 L 67.9139,-267.381 L 67.9381,-267.391 L 67.9624,-267.4 L 67.987,-267.41 L 68.0116,-267.418 L 68.0365,-267.427
 L 68.0614,-267.434 L 68.0865,-267.442 L 68.1118,-267.449 L 68.1371,-267.455 L 68.1626,-267.462 L 68.1881,-267.467
 L 68.2138,-267.472 L 68.2395,-267.477 L 68.2654,-267.482 L 68.2912,-267.485 L 68.3172,-267.489 L 68.3432,-267.492
 L 68.3693,-267.494 L 68.3954,-267.496 L 68.4215,-267.498 L 68.4476,-267.499 L 68.4738,-267.5 L 68.5,-267.5
 L 68.5262,-267.5 L 68.5524,-267.499 L 68.5785,-267.498 L 68.6046,-267.496 L 68.6307,-267.494 L 68.6568,-267.492
 L 68.6828,-267.489 L 68.7088,-267.485 L 68.7346,-267.482 L 68.7605,-267.477 L 68.7862,-267.472 L 68.8119,-267.467
 L 68.8374,-267.462 L 68.8629,-267.455 L 68.8882,-267.449 L 68.9135,-267.442 L 68.9386,-267.434 L 68.9635,-267.427
 L 68.9883,-267.418 L 69.013,-267.41 L 69.0376,-267.4 L 69.0619,-267.391 L 69.0861,-267.381 L 69.1101,-267.37
 L 69.1339,-267.359 L 69.1575,-267.348 L 69.181,-267.337 L 69.2042,-267.324 L 69.2272,-267.312 L 69.25,-267.299
 L 69.2726,-267.286 L 69.2949,-267.272 L 69.317,-267.258 L 69.3388,-267.244 L 69.3604,-267.229 L 69.3817,-267.214
 L 69.4027,-267.198 L 69.4235,-267.182 L 69.444,-267.166 L 69.4642,-267.149 L 69.4841,-267.132 L 69.5037,-267.115
 L 69.523,-267.097 L 69.542,-267.079 L 69.5607,-267.061 L 69.579,-267.042 L 69.597,-267.023 L 69.6147,-267.004
 L 69.6321,-266.984 L 69.6491,-266.964 L 69.6657,-266.944 L 69.682,-266.923 L 69.698,-266.903 L 69.7135,-266.882
 L 69.7287,-266.86 L 69.7435,-266.839 L 69.758,-266.817 L 69.7721,-266.795 L 69.7858,-266.773 L 69.799,-266.75
 L 69.8119,-266.727 L 69.8244,-266.704 L 69.8365,-266.681 L 69.8482,-266.658 L 69.8595,-266.634 L 69.8703,-266.61
 L 69.8808,-266.586 L 69.8908,-266.562 L 69.9004,-266.538 L 69.9095,-266.513 L 69.9183,-266.488 L 69.9266,-266.464
 L 69.9344,-266.439 L 69.9419,-266.413 L 69.9489,-266.388 L 69.9554,-266.363 L 69.9615,-266.337 L 69.9672,-266.312
 L 69.9724,-266.286 L 69.9772,-266.26 L 69.9815,-266.235 L 69.9854,-266.209 L 69.9888,-266.183 L 69.9918,-266.157
 L 69.9943,-266.131 L 69.9963,-266.105 L 69.9979,-266.078 L 69.9991,-266.052 L 69.9998,-266.026 L 70,-266
 L 69.9998,-265.974 L 69.9991,-265.948 L 69.9979,-265.922 L 69.9963,-265.895 L 69.9943,-265.869 L 69.9918,-265.843
 L 69.9888,-265.817 L 69.9854,-265.791 L 69.9815,-265.765 L 69.9772,-265.74 L 69.9724,-265.714 L 69.9672,-265.688
 L 69.9615,-265.663 L 69.9554,-265.637 L 69.9489,-265.612 L 69.9419,-265.587 L 69.9344,-265.561 L 69.9266,-265.536
 L 69.9183,-265.512 L 69.9095,-265.487 L 69.9004,-265.462 L 69.8908,-265.438 L 69.8808,-265.414 L 69.8703,-265.39
 L 69.8595,-265.366 L 69.8482,-265.342 L 69.8365,-265.319 L 69.8244,-265.296 L 69.8119,-265.273 L 69.799,-265.25
 L 69.7858,-265.227 L 69.7721,-265.205 L 69.758,-265.183 L 69.7435,-265.161 L 69.7287,-265.14 L 69.7135,-265.118
 L 69.698,-265.097 L 69.682,-265.077 L 69.6657,-265.056 L 69.6491,-265.036 L 69.6321,-265.016 L 69.6147,-264.996
 L 69.597,-264.977 L 69.579,-264.958 L 69.5607,-264.939 L 69.542,-264.921 L 69.523,-264.903 L 69.5037,-264.885
 L 69.4841,-264.868 L 69.4642,-264.851 L 69.444,-264.834 L 69.4235,-264.818 L 69.4027,-264.802 L 69.3817,-264.786
 L 69.3604,-264.771 L 69.3388,-264.756 L 69.317,-264.742 L 69.2949,-264.728 L 69.2726,-264.714 L 69.25,-264.701
 L 69.2272,-264.688 L 69.2042,-264.676 L 69.181,-264.663 L 69.1575,-264.652 L 69.1339,-264.641 L 69.1101,-264.63
 L 69.0861,-264.619 L 69.0619,-264.609 L 69.0376,-264.6 L 69.013,-264.59 L 68.9883,-264.582 L 68.9635,-264.573
 L 68.9386,-264.566 L 68.9135,-264.558 L 68.8882,-264.551 L 68.8629,-264.545 L 68.8374,-264.538 L 68.8119,-264.533
 L 68.7862,-264.528 L 68.7605,-264.523 L 68.7346,-264.518 L 68.7088,-264.515 L 68.6828,-264.511 L 68.6568,-264.508
 L 68.6307,-264.506 L 68.6046,-264.504 L 68.5785,-264.502 L 68.5524,-264.501 L 68.5262,-264.5 L 68.5,-264.5
 z
M 171.474,-264.5 L 171.448,-264.501 L 171.421,-264.502 L 171.395,-264.504 L 171.369,-264.506 L 171.343,-264.508
 L 171.317,-264.511 L 171.291,-264.515 L 171.265,-264.518 L 171.24,-264.523 L 171.214,-264.528 L 171.188,-264.533
 L 171.163,-264.538 L 171.137,-264.545 L 171.112,-264.551 L 171.087,-264.558 L 171.061,-264.566 L 171.036,-264.573
 L 171.012,-264.582 L 170.987,-264.59 L 170.962,-264.6 L 170.938,-264.609 L 170.914,-264.619 L 170.89,-264.63
 L 170.866,-264.641 L 170.842,-264.652 L 170.819,-264.663 L 170.796,-264.676 L 170.773,-264.688 L 170.75,-264.701
 L 170.727,-264.714 L 170.705,-264.728 L 170.683,-264.742 L 170.661,-264.756 L 170.64,-264.771 L 170.618,-264.786
 L 170.597,-264.802 L 170.577,-264.818 L 170.556,-264.834 L 170.536,-264.851 L 170.516,-264.868 L 170.496,-264.885
 L 170.477,-264.903 L 170.458,-264.921 L 170.439,-264.939 L 170.421,-264.958 L 170.403,-264.977 L 170.385,-264.996
 L 170.368,-265.016 L 170.351,-265.036 L 170.334,-265.056 L 170.318,-265.077 L 170.302,-265.097 L 170.286,-265.118
 L 170.271,-265.14 L 170.256,-265.161 L 170.242,-265.183 L 170.228,-265.205 L 170.214,-265.227 L 170.201,-265.25
 L 170.188,-265.273 L 170.176,-265.296 L 170.163,-265.319 L 170.152,-265.342 L 170.141,-265.366 L 170.13,-265.39
 L 170.119,-265.414 L 170.109,-265.438 L 170.1,-265.462 L 170.09,-265.487 L 170.082,-265.512 L 170.073,-265.536
 L 170.066,-265.561 L 170.058,-265.587 L 170.051,-265.612 L 170.045,-265.637 L 170.038,-265.663 L 170.033,-265.688
 L 170.028,-265.714 L 170.023,-265.74 L 170.018,-265.765 L 170.015,-265.791 L 170.011,-265.817 L 170.008,-265.843
 L 170.006,-265.869 L 170.004,-265.895 L 170.002,-265.922 L 170.001,-265.948 L 170,-265.974 L 170,-266
 L 170,-266.026 L 170.001,-266.052 L 170.002,-266.078 L 170.004,-266.105 L 170.006,-266.131 L 170.008,-266.157
 L 170.011,-266.183 L 170.015,-266.209 L 170.018,-266.235 L 170.023,-266.26 L 170.028,-266.286 L 170.033,-266.312
 L 170.038,-266.337 L 170.045,-266.363 L 170.051,-266.388 L 170.058,-266.413 L 170.066,-266.439 L 170.073,-266.464
 L 170.082,-266.488 L 170.09,-266.513 L 170.1,-266.538 L 170.109,-266.562 L 170.119,-266.586 L 170.13,-266.61
 L 170.141,-266.634 L 170.152,-266.658 L 170.163,-266.681 L 170.176,-266.704 L 170.188,-266.727 L 170.201,-266.75
 L 170.214,-266.773 L 170.228,-266.795 L 170.242,-266.817 L 170.256,-266.839 L 170.271,-266.86 L 170.286,-266.882
 L 170.302,-266.903 L 170.318,-266.923 L 170.334,-266.944 L 170.351,-266.964 L 170.368,-266.984 L 170.385,-267.004
 L 170.403,-267.023 L 170.421,-267.042 L 170.439,-267.061 L 170.458,-267.079 L 170.477,-267.097 L 170.496,-267.115
 L 170.516,-267.132 L 170.536,-267.149 L 170.556,-267.166 L 170.577,-267.182 L 170.597,-267.198 L 170.618,-267.214
 L 170.64,-267.229 L 170.661,-267.244 L 170.683,-267.258 L 170.705,-267.272 L 170.727,-267.286 L 170.75,-267.299
 L 170.773,-267.312 L 170.796,-267.324 L 170.819,-267.337 L 170.842,-267.348 L 170.866,-267.359 L 170.89,-267.37
 L 170.914,-267.381 L 170.938,-267.391 L 170.962,-267.4 L 170.987,-267.41 L 171.012,-267.418 L 171.036,-267.427
 L 171.061,-267.434 L 171.087,-267.442 L 171.112,-267.449 L 171.137,-267.455 L 171.163,-267.462 L 171.188,-267.467
 L 171.214,-267.472 L 171.24,-267.477 L 171.265,-267.482 L 171.291,-267.485 L 171.317,-267.489 L 171.343,-267.492
 L 171.369,-267.494 L 171.395,-267.496 L 171.421,-267.498 L 171.448,-267.499 L 171.474,-267.5 L 171.5,-267.5
 L 171.526,-267.5 L 171.552,-267.499 L 171.579,-267.498 L 171.605,-267.496 L 171.631,-267.494 L 171.657,-267.492
 L 171.683,-267.489 L 171.709,-267.485 L 171.735,-267.482 L 171.76,-267.477 L 171.786,-267.472 L 171.812,-267.467
 L 171.837,-267.462 L 171.863,-267.455 L 171.888,-267.449 L 171.913,-267.442 L 171.939,-267.434 L 171.964,-267.427
 L 171.988,-267.418 L 172.013,-267.41 L 172.038,-267.4 L 172.062,-267.391 L 172.086,-267.381 L 172.11,-267.37
 L 172.134,-267.359 L 172.158,-267.348 L 172.181,-267.337 L 172.204,-267.324 L 172.227,-267.312 L 172.25,-267.299
 L 172.273,-267.286 L 172.295,-267.272 L 172.317,-267.258 L 172.339,-267.244 L 172.36,-267.229 L 172.382,-267.214
 L 172.403,-267.198 L 172.423,-267.182 L 172.444,-267.166 L 172.464,-267.149 L 172.484,-267.132 L 172.504,-267.115
 L 172.523,-267.097 L 172.542,-267.079 L 172.561,-267.061 L 172.579,-267.042 L 172.597,-267.023 L 172.615,-267.004
 L 172.632,-266.984 L 172.649,-266.964 L 172.666,-266.944 L 172.682,-266.923 L 172.698,-266.903 L 172.714,-266.882
 L 172.729,-266.86 L 172.744,-266.839 L 172.758,-266.817 L 172.772,-266.795 L 172.786,-266.773 L 172.799,-266.75
 L 172.812,-266.727 L 172.824,-266.704 L 172.837,-266.681 L 172.848,-266.658 L 172.859,-266.634 L 172.87,-266.61
 L 172.881,-266.586 L 172.891,-266.562 L 172.9,-266.538 L 172.91,-266.513 L 172.918,-266.488 L 172.927,-266.464
 L 172.934,-266.439 L 172.942,-266.413 L 172.949,-266.388 L 172.955,-266.363 L 172.962,-266.337 L 172.967,-266.312
 L 172.972,-266.286 L 172.977,-266.26 L 172.982,-266.235 L 172.985,-266.209 L 172.989,-266.183 L 172.992,-266.157
 L 172.994,-266.131 L 172.996,-266.105 L 172.998,-266.078 L 172.999,-266.052 L 173,-266.026 L 173,-266
 L 173,-265.974 L 172.999,-265.948 L 172.998,-265.922 L 172.996,-265.895 L 172.994,-265.869 L 172.992,-265.843
 L 172.989,-265.817 L 172.985,-265.791 L 172.982,-265.765 L 172.977,-265.74 L 172.972,-265.714 L 172.967,-265.688
 L 172.962,-265.663 L 172.955,-265.637 L 172.949,-265.612 L 172.942,-265.587 L 172.934,-265.561 L 172.927,-265.536
 L 172.918,-265.512 L 172.91,-265.487 L 172.9,-265.462 L 172.891,-265.438 L 172.881,-265.414 L 172.87,-265.39
 L 172.859,-265.366 L 172.848,-265.342 L 172.837,-265.319 L 172.824,-265.296 L 172.812,-265.273 L 172.799,-265.25
 L 172.786,-265.227 L 172.772,-265.205 L 172.758,-265.183 L 172.744,-265.161 L 172.729,-265.14 L 172.714,-265.118
 L 172.698,-265.097 L 172.682,-265.077 L 172.666,-265.056 L 172.649,-265.036 L 172.632,-265.016 L 172.615,-264.996
 L 172.597,-264.977 L 172.579,-264.958 L 172.561,-264.939 L 172.542,-264.921 L 172.523,-264.903 L 172.504,-264.885
 L 172.484,-264.868 L 172.464,-264.851 L 172.444,-264.834 L 172.423,-264.818 L 172.403,-264.802 L 172.382,-264.786
 L 172.36,-264.771 L 172.339,-264.756 L 172.317,-264.742 L 172.295,-264.728 L 172.273,-264.714 L 172.25,-264.701
 L 172.227,-264.688 L 172.204,-264.676 L 172.181,-264.663 L 172.158,-264.652 L 172.134,-264.641 L 172.11,-264.63
 L 172.086,-264.619 L 172.062,-264.609 L 172.038,-264.6 L 172.013,-264.59 L 171.988,-264.582 L 171.964,-264.573
 L 171.939,-264.566 L 171.913,-264.558 L 171.888,-264.551 L 171.863,-264.545 L 171.837,-264.538 L 171.812,-264.533
 L 171.786,-264.528 L 171.76,-264.523 L 171.735,-264.518 L 171.709,-264.515 L 171.683,-264.511 L 171.657,-264.508
 L 171.631,-264.506 L 171.605,-264.504 L 171.579,-264.502 L 171.552,-264.501 L 171.526,-264.5 L 171.5,-264.5
 z
M 119.974,-214.5 L 119.948,-214.501 L 119.921,-214.502 L 119.895,-214.504 L 119.869,-214.506 L 119.843,-214.508
 L 119.817,-214.511 L 119.791,-214.515 L 119.765,-214.518 L 119.74,-214.523 L 119.714,-214.528 L 119.688,-214.533
 L 119.663,-214.538 L 119.637,-214.545 L 119.612,-214.551 L 119.587,-214.558 L 119.561,-214.566 L 119.536,-214.573
 L 119.512,-214.582 L 119.487,-214.59 L 119.462,-214.6 L 119.438,-214.609 L 119.414,-214.619 L 119.39,-214.63
 L 119.366,-214.641 L 119.342,-214.652 L 119.319,-214.663 L 119.296,-214.676 L 119.273,-214.688 L 119.25,-214.701
 L 119.227,-214.714 L 119.205,-214.728 L 119.183,-214.742 L 119.161,-214.756 L 119.14,-214.771 L 119.118,-214.786
 L 119.097,-214.802 L 119.077,-214.818 L 119.056,-214.834 L 119.036,-214.851 L 119.016,-214.868 L 118.996,-214.885
 L 118.977,-214.903 L 118.958,-214.921 L 118.939,-214.939 L 118.921,-214.958 L 118.903,-214.977 L 118.885,-214.996
 L 118.868,-215.016 L 118.851,-215.036 L 118.834,-215.056 L 118.818,-215.077 L 118.802,-215.097 L 118.786,-215.118
 L 118.771,-215.14 L 118.756,-215.161 L 118.742,-215.183 L 118.728,-215.205 L 118.714,-215.227 L 118.701,-215.25
 L 118.688,-215.273 L 118.676,-215.296 L 118.663,-215.319 L 118.652,-215.342 L 118.641,-215.366 L 118.63,-215.39
 L 118.619,-215.414 L 118.609,-215.438 L 118.6,-215.462 L 118.59,-215.487 L 118.582,-215.512 L 118.573,-215.536
 L 118.566,-215.561 L 118.558,-215.587 L 118.551,-215.612 L 118.545,-215.637 L 118.538,-215.663 L 118.533,-215.688
 L 118.528,-215.714 L 118.523,-215.74 L 118.518,-215.765 L 118.515,-215.791 L 118.511,-215.817 L 118.508,-215.843
 L 118.506,-215.869 L 118.504,-215.895 L 118.502,-215.921 L 118.501,-215.948 L 118.5,-215.974 L 118.5,-216
 L 118.5,-216.026 L 118.501,-216.052 L 118.502,-216.079 L 118.504,-216.105 L 118.506,-216.131 L 118.508,-216.157
 L 118.511,-216.183 L 118.515,-216.209 L 118.518,-216.235 L 118.523,-216.26 L 118.528,-216.286 L 118.533,-216.312
 L 118.538,-216.337 L 118.545,-216.363 L 118.551,-216.388 L 118.558,-216.413 L 118.566,-216.439 L 118.573,-216.464
 L 118.582,-216.488 L 118.59,-216.513 L 118.6,-216.538 L 118.609,-216.562 L 118.619,-216.586 L 118.63,-216.61
 L 118.641,-216.634 L 118.652,-216.658 L 118.663,-216.681 L 118.676,-216.704 L 118.688,-216.727 L 118.701,-216.75
 L 118.714,-216.773 L 118.728,-216.795 L 118.742,-216.817 L 118.756,-216.839 L 118.771,-216.86 L 118.786,-216.882
 L 118.802,-216.903 L 118.818,-216.923 L 118.834,-216.944 L 118.851,-216.964 L 118.868,-216.984 L 118.885,-217.004
 L 118.903,-217.023 L 118.921,-217.042 L 118.939,-217.061 L 118.958,-217.079 L 118.977,-217.097 L 118.996,-217.115
 L 119.016,-217.132 L 119.036,-217.149 L 119.056,-217.166 L 119.077,-217.182 L 119.097,-217.198 L 119.118,-217.214
 L 119.14,-217.229 L 119.161,-217.244 L 119.183,-217.258 L 119.205,-217.272 L 119.227,-217.286 L 119.25,-217.299
 L 119.273,-217.312 L 119.296,-217.324 L 119.319,-217.337 L 119.342,-217.348 L 119.366,-217.359 L 119.39,-217.37
 L 119.414,-217.381 L 119.438,-217.391 L 119.462,-217.4 L 119.487,-217.41 L 119.512,-217.418 L 119.536,-217.427
 L 119.561,-217.434 L 119.587,-217.442 L 119.612,-217.449 L 119.637,-217.455 L 119.663,-217.462 L 119.688,-217.467
 L 119.714,-217.472 L 119.74,-217.477 L 119.765,-217.482 L 119.791,-217.485 L 119.817,-217.489 L 119.843,-217.492
 L 119.869,-217.494 L 119.895,-217.496 L 119.921,-217.498 L 119.948,-217.499 L 119.974,-217.5 L 120,-217.5
 L 120.026,-217.5 L 120.052,-217.499 L 120.079,-217.498 L 120.105,-217.496 L 120.131,-217.494 L 120.157,-217.492
 L 120.183,-217.489 L 120.209,-217.485 L 120.235,-217.482 L 120.26,-217.477 L 120.286,-217.472 L 120.312,-217.467
 L 120.337,-217.462 L 120.363,-217.455 L 120.388,-217.449 L 120.413,-217.442 L 120.439,-217.434 L 120.464,-217.427
 L 120.488,-217.418 L 120.513,-217.41 L 120.538,-217.4 L 120.562,-217.391 L 120.586,-217.381 L 120.61,-217.37
 L 120.634,-217.359 L 120.658,-217.348 L 120.681,-217.337 L 120.704,-217.324 L 120.727,-217.312 L 120.75,-217.299
 L 120.773,-217.286 L 120.795,-217.272 L 120.817,-217.258 L 120.839,-217.244 L 120.86,-217.229 L 120.882,-217.214
 L 120.903,-217.198 L 120.923,-217.182 L 120.944,-217.166 L 120.964,-217.149 L 120.984,-217.132 L 121.004,-217.115
 L 121.023,-217.097 L 121.042,-217.079 L 121.061,-217.061 L 121.079,-217.042 L 121.097,-217.023 L 121.115,-217.004
 L 121.132,-216.984 L 121.149,-216.964 L 121.166,-216.944 L 121.182,-216.923 L 121.198,-216.903 L 121.214,-216.882
 L 121.229,-216.86 L 121.244,-216.839 L 121.258,-216.817 L 121.272,-216.795 L 121.286,-216.773 L 121.299,-216.75
 L 121.312,-216.727 L 121.324,-216.704 L 121.337,-216.681 L 121.348,-216.658 L 121.359,-216.634 L 121.37,-216.61
 L 121.381,-216.586 L 121.391,-216.562 L 121.4,-216.538 L 121.41,-216.513 L 121.418,-216.488 L 121.427,-216.464
 L 121.434,-216.439 L 121.442,-216.413 L 121.449,-216.388 L 121.455,-216.363 L 121.462,-216.337 L 121.467,-216.312
 L 121.472,-216.286 L 121.477,-216.26 L 121.482,-216.235 L 121.485,-216.209 L 121.489,-216.183 L 121.492,-216.157
 L 121.494,-216.131 L 121.496,-216.105 L 121.498,-216.079 L 121.499,-216.052 L 121.5,-216.026 L 121.5,-216
 L 121.5,-215.974 L 121.499,-215.948 L 121.498,-215.921 L 121.496,-215.895 L 121.494,-215.869 L 121.492,-215.843
 L 121.489,-215.817 L 121.485,-215.791 L 121.482,-215.765 L 121.477,-215.74 L 121.472,-215.714 L 121.467,-215.688
 L 121.462,-215.663 L 121.455,-215.637 L 121.449,-215.612 L 121.442,-215.587 L 121.434,-215.561 L 121.427,-215.536
 L 121.418,-215.512 L 121.41,-215.487 L 121.4,-215.462 L 121.391,-215.438 L 121.381,-215.414 L 121.37,-215.39
 L 121.359,-215.366 L 121.348,-215.342 L 121.337,-215.319 L 121.324,-215.296 L 121.312,-215.273 L 121.299,-215.25
 L 121.286,-215.227 L 121.272,-215.205 L 121.258,-215.183 L 121.244,-215.161 L 121.229,-215.14 L 121.214,-215.118
 L 121.198,-215.097 L 121.182,-215.077 L 121.166,-215.056 L 121.149,-215.036 L 121.132,-215.016 L 121.115,-214.996
 L 121.097,-214.977 L 121.079,-214.958 L 121.061,-214.939 L 121.042,-214.921 L 121.023,-214.903 L 121.004,-214.885
 L 120.984,-214.868 L 120.964,-214.851 L 120.944,-214.834 L 120.923,-214.818 L 120.903,-214.802 L 120.882,-214.786
 L 120.86,-214.771 L 120.839,-214.756 L 120.817,-214.742 L 120.795,-214.728 L 120.773,-214.714 L 120.75,-214.701
 L 120.727,-214.688 L 120.704,-214.676 L 120.681,-214.663 L 120.658,-214.652 L 120.634,-214.641 L 120.61,-214.63
 L 120.586,-214.619 L 120.562,-214.609 L 120.538,-214.6 L 120.513,-214.59 L 120.488,-214.582 L 120.464,-214.573
 L 120.439,-214.566 L 120.413,-214.558 L 120.388,-214.551 L 120.363,-214.545 L 120.337,-214.538 L 120.312,-214.533
 L 120.286,-214.528 L 120.26,-214.523 L 120.235,-214.518 L 120.209,-214.515 L 120.183,-214.511 L 120.157,-214.508
 L 120.131,-214.506 L 120.105,-214.504 L 120.079,-214.502 L 120.052,-214.501 L 120.026,-214.5 L 120,-214.5
 z
M 165,-214 L 165,-216 L 170,-216 L 170,-214 z
M 65,-170 L 65,-175 L 67,-175 L 67,-170 z
M 40,-170 L 40,-175 L 42,-175 L 42,-170 z
M 150.965,-169 L 150.93,-169.001 L 150.895,-169.003 L 150.86,-169.005 L 150.826,-169.008 L 150.791,-169.011
 L 150.756,-169.015 L 150.722,-169.019 L 150.687,-169.025 L 150.653,-169.03 L 150.618,-169.037 L 150.584,-169.044
 L 150.55,-169.051 L 150.516,-169.059 L 150.482,-169.068 L 150.449,-169.077 L 150.415,-169.087 L 150.382,-169.098
 L 150.349,-169.109 L 150.316,-169.121 L 150.283,-169.133 L 150.251,-169.146 L 150.219,-169.159 L 150.187,-169.173
 L 150.155,-169.187 L 150.123,-169.202 L 150.092,-169.218 L 150.061,-169.234 L 150.03,-169.251 L 150,-169.268
 L 149.97,-169.286 L 149.94,-169.304 L 149.911,-169.323 L 149.882,-169.342 L 149.853,-169.362 L 149.824,-169.382
 L 149.796,-169.403 L 149.769,-169.424 L 149.741,-169.446 L 149.714,-169.468 L 149.688,-169.491 L 149.662,-169.514
 L 149.636,-169.537 L 149.611,-169.561 L 149.586,-169.586 L 149.561,-169.611 L 149.537,-169.636 L 149.514,-169.662
 L 149.491,-169.688 L 149.468,-169.714 L 149.446,-169.741 L 149.424,-169.769 L 149.403,-169.796 L 149.382,-169.824
 L 149.362,-169.853 L 149.342,-169.882 L 149.323,-169.911 L 149.304,-169.94 L 149.286,-169.97 L 149.268,-170
 L 149.251,-170.03 L 149.234,-170.061 L 149.218,-170.092 L 149.202,-170.123 L 149.187,-170.155 L 149.173,-170.187
 L 149.159,-170.219 L 149.146,-170.251 L 149.133,-170.283 L 149.121,-170.316 L 149.109,-170.349 L 149.098,-170.382
 L 149.087,-170.415 L 149.077,-170.449 L 149.068,-170.482 L 149.059,-170.516 L 149.051,-170.55 L 149.044,-170.584
 L 149.037,-170.618 L 149.03,-170.653 L 149.025,-170.687 L 149.019,-170.722 L 149.015,-170.756 L 149.011,-170.791
 L 149.008,-170.826 L 149.005,-170.86 L 149.003,-170.895 L 149.001,-170.93 L 149,-170.965 L 149,-171
 L 149,-171.035 L 149.001,-171.07 L 149.003,-171.105 L 149.005,-171.14 L 149.008,-171.174 L 149.011,-171.209
 L 149.015,-171.244 L 149.019,-171.278 L 149.025,-171.313 L 149.03,-171.347 L 149.037,-171.382 L 149.044,-171.416
 L 149.051,-171.45 L 149.059,-171.484 L 149.068,-171.518 L 149.077,-171.551 L 149.087,-171.585 L 149.098,-171.618
 L 149.109,-171.651 L 149.121,-171.684 L 149.133,-171.717 L 149.146,-171.749 L 149.159,-171.781 L 149.173,-171.813
 L 149.187,-171.845 L 149.202,-171.877 L 149.218,-171.908 L 149.234,-171.939 L 149.251,-171.97 L 149.268,-172
 L 149.286,-172.03 L 149.304,-172.06 L 149.323,-172.089 L 149.342,-172.118 L 149.362,-172.147 L 149.382,-172.176
 L 149.403,-172.204 L 149.424,-172.231 L 149.446,-172.259 L 149.468,-172.286 L 149.491,-172.312 L 149.514,-172.338
 L 149.537,-172.364 L 149.561,-172.389 L 149.586,-172.414 L 149.611,-172.439 L 149.636,-172.463 L 149.662,-172.486
 L 149.688,-172.509 L 149.714,-172.532 L 149.741,-172.554 L 149.769,-172.576 L 149.796,-172.597 L 149.824,-172.618
 L 149.853,-172.638 L 149.882,-172.658 L 149.911,-172.677 L 149.94,-172.696 L 149.97,-172.714 L 150,-172.732
 L 150.03,-172.749 L 150.061,-172.766 L 150.092,-172.782 L 150.123,-172.798 L 150.155,-172.813 L 150.187,-172.827
 L 150.219,-172.841 L 150.251,-172.854 L 150.283,-172.867 L 150.316,-172.879 L 150.349,-172.891 L 150.382,-172.902
 L 150.415,-172.913 L 150.449,-172.923 L 150.482,-172.932 L 150.516,-172.941 L 150.55,-172.949 L 150.584,-172.956
 L 150.618,-172.963 L 150.653,-172.97 L 150.687,-172.975 L 150.722,-172.981 L 150.756,-172.985 L 150.791,-172.989
 L 150.826,-172.992 L 150.86,-172.995 L 150.895,-172.997 L 150.93,-172.999 L 150.965,-173 L 151,-173
 L 151.035,-173 L 151.07,-172.999 L 151.105,-172.997 L 151.14,-172.995 L 151.174,-172.992 L 151.209,-172.989
 L 151.244,-172.985 L 151.278,-172.981 L 151.313,-172.975 L 151.347,-172.97 L 151.382,-172.963 L 151.416,-172.956
 L 151.45,-172.949 L 151.484,-172.941 L 151.518,-172.932 L 151.551,-172.923 L 151.585,-172.913 L 151.618,-172.902
 L 151.651,-172.891 L 151.684,-172.879 L 151.717,-172.867 L 151.749,-172.854 L 151.781,-172.841 L 151.813,-172.827
 L 151.845,-172.813 L 151.877,-172.798 L 151.908,-172.782 L 151.939,-172.766 L 151.97,-172.749 L 152,-172.732
 L 152.03,-172.714 L 152.06,-172.696 L 152.089,-172.677 L 152.118,-172.658 L 152.147,-172.638 L 152.176,-172.618
 L 152.204,-172.597 L 152.231,-172.576 L 152.259,-172.554 L 152.286,-172.532 L 152.312,-172.509 L 152.338,-172.486
 L 152.364,-172.463 L 152.389,-172.439 L 152.414,-172.414 L 152.439,-172.389 L 152.463,-172.364 L 152.486,-172.338
 L 152.509,-172.312 L 152.532,-172.286 L 152.554,-172.259 L 152.576,-172.231 L 152.597,-172.204 L 152.618,-172.176
 L 152.638,-172.147 L 152.658,-172.118 L 152.677,-172.089 L 152.696,-172.06 L 152.714,-172.03 L 152.732,-172
 L 152.749,-171.97 L 152.766,-171.939 L 152.782,-171.908 L 152.798,-171.877 L 152.813,-171.845 L 152.827,-171.813
 L 152.841,-171.781 L 152.854,-171.749 L 152.867,-171.717 L 152.879,-171.684 L 152.891,-171.651 L 152.902,-171.618
 L 152.913,-171.585 L 152.923,-171.551 L 152.932,-171.518 L 152.941,-171.484 L 152.949,-171.45 L 152.956,-171.416
 L 152.963,-171.382 L 152.97,-171.347 L 152.975,-171.313 L 152.981,-171.278 L 152.985,-171.244 L 152.989,-171.209
 L 152.992,-171.174 L 152.995,-171.14 L 152.997,-171.105 L 152.999,-171.07 L 153,-171.035 L 153,-171
 L 153,-170.965 L 152.999,-170.93 L 152.997,-170.895 L 152.995,-170.86 L 152.992,-170.826 L 152.989,-170.791
 L 152.985,-170.756 L 152.981,-170.722 L 152.975,-170.687 L 152.97,-170.653 L 152.963,-170.618 L 152.956,-170.584
 L 152.949,-170.55 L 152.941,-170.516 L 152.932,-170.482 L 152.923,-170.449 L 152.913,-170.415 L 152.902,-170.382
 L 152.891,-170.349 L 152.879,-170.316 L 152.867,-170.283 L 152.854,-170.251 L 152.841,-170.219 L 152.827,-170.187
 L 152.813,-170.155 L 152.798,-170.123 L 152.782,-170.092 L 152.766,-170.061 L 152.749,-170.03 L 152.732,-170
 L 152.714,-169.97 L 152.696,-169.94 L 152.677,-169.911 L 152.658,-169.882 L 152.638,-169.853 L 152.618,-169.824
 L 152.597,-169.796 L 152.576,-169.769 L 152.554,-169.741 L 152.532,-169.714 L 152.509,-169.688 L 152.486,-169.662
 L 152.463,-169.636 L 152.439,-169.611 L 152.414,-169.586 L 152.389,-169.561 L 152.364,-169.537 L 152.338,-169.514
 L 152.312,-169.491 L 152.286,-169.468 L 152.259,-169.446 L 152.231,-169.424 L 152.204,-169.403 L 152.176,-169.382
 L 152.147,-169.362 L 152.118,-169.342 L 152.089,-169.323 L 152.06,-169.304 L 152.03,-169.286 L 152,-169.268
 L 151.97,-169.251 L 151.939,-169.234 L 151.908,-169.218 L 151.877,-169.202 L 151.845,-169.187 L 151.813,-169.173
 L 151.781,-169.159 L 151.749,-169.146 L 151.717,-169.133 L 151.684,-169.121 L 151.651,-169.109 L 151.618,-169.098
 L 151.585,-169.087 L 151.551,-169.077 L 151.518,-169.068 L 151.484,-169.059 L 151.45,-169.051 L 151.416,-169.044
 L 151.382,-169.037 L 151.347,-169.03 L 151.313,-169.025 L 151.278,-169.019 L 151.244,-169.015 L 151.209,-169.011
 L 151.174,-169.008 L 151.14,-169.005 L 151.105,-169.003 L 151.07,-169.001 L 151.035,-169 L 151,-169
 z
M 88.9651,-169 L 88.9302,-169.001 L 88.8953,-169.003 L 88.8605,-169.005 L 88.8257,-169.008 L 88.7909,-169.011
 L 88.7563,-169.015 L 88.7216,-169.019 L 88.6871,-169.025 L 88.6527,-169.03 L 88.6184,-169.037 L 88.5842,-169.044
 L 88.5501,-169.051 L 88.5162,-169.059 L 88.4824,-169.068 L 88.4487,-169.077 L 88.4153,-169.087 L 88.382,-169.098
 L 88.3489,-169.109 L 88.3159,-169.121 L 88.2833,-169.133 L 88.2508,-169.146 L 88.2185,-169.159 L 88.1865,-169.173
 L 88.1548,-169.187 L 88.1233,-169.202 L 88.092,-169.218 L 88.0611,-169.234 L 88.0304,-169.251 L 88,-169.268
 L 87.9699,-169.286 L 87.9402,-169.304 L 87.9107,-169.323 L 87.8816,-169.342 L 87.8528,-169.362 L 87.8244,-169.382
 L 87.7964,-169.403 L 87.7687,-169.424 L 87.7413,-169.446 L 87.7144,-169.468 L 87.6879,-169.491 L 87.6617,-169.514
 L 87.636,-169.537 L 87.6107,-169.561 L 87.5858,-169.586 L 87.5613,-169.611 L 87.5373,-169.636 L 87.5137,-169.662
 L 87.4906,-169.688 L 87.4679,-169.714 L 87.4457,-169.741 L 87.424,-169.769 L 87.4027,-169.796 L 87.382,-169.824
 L 87.3617,-169.853 L 87.3419,-169.882 L 87.3227,-169.911 L 87.3039,-169.94 L 87.2857,-169.97 L 87.2679,-170
 L 87.2508,-170.03 L 87.2341,-170.061 L 87.218,-170.092 L 87.2024,-170.123 L 87.1874,-170.155 L 87.1729,-170.187
 L 87.159,-170.219 L 87.1456,-170.251 L 87.1328,-170.283 L 87.1206,-170.316 L 87.109,-170.349 L 87.0979,-170.382
 L 87.0874,-170.415 L 87.0775,-170.449 L 87.0681,-170.482 L 87.0594,-170.516 L 87.0513,-170.55 L 87.0437,-170.584
 L 87.0367,-170.618 L 87.0304,-170.653 L 87.0246,-170.687 L 87.0195,-170.722 L 87.0149,-170.756 L 87.011,-170.791
 L 87.0076,-170.826 L 87.0049,-170.86 L 87.0027,-170.895 L 87.0012,-170.93 L 87.0003,-170.965 L 87,-171
 L 87.0003,-171.035 L 87.0012,-171.07 L 87.0027,-171.105 L 87.0049,-171.14 L 87.0076,-171.174 L 87.011,-171.209
 L 87.0149,-171.244 L 87.0195,-171.278 L 87.0246,-171.313 L 87.0304,-171.347 L 87.0367,-171.382 L 87.0437,-171.416
 L 87.0513,-171.45 L 87.0594,-171.484 L 87.0681,-171.518 L 87.0775,-171.551 L 87.0874,-171.585 L 87.0979,-171.618
 L 87.109,-171.651 L 87.1206,-171.684 L 87.1328,-171.717 L 87.1456,-171.749 L 87.159,-171.781 L 87.1729,-171.813
 L 87.1874,-171.845 L 87.2024,-171.877 L 87.218,-171.908 L 87.2341,-171.939 L 87.2508,-171.97 L 87.2679,-172
 L 87.2857,-172.03 L 87.3039,-172.06 L 87.3227,-172.089 L 87.3419,-172.118 L 87.3617,-172.147 L 87.382,-172.176
 L 87.4027,-172.204 L 87.424,-172.231 L 87.4457,-172.259 L 87.4679,-172.286 L 87.4906,-172.312 L 87.5137,-172.338
 L 87.5373,-172.364 L 87.5613,-172.389 L 87.5858,-172.414 L 87.6107,-172.439 L 87.636,-172.463 L 87.6617,-172.486
 L 87.6879,-172.509 L 87.7144,-172.532 L 87.7413,-172.554 L 87.7687,-172.576 L 87.7964,-172.597 L 87.8244,-172.618
 L 87.8528,-172.638 L 87.8816,-172.658 L 87.9107,-172.677 L 87.9402,-172.696 L 87.9699,-172.714 L 88,-172.732
 L 88.0304,-172.749 L 88.0611,-172.766 L 88.092,-172.782 L 88.1233,-172.798 L 88.1548,-172.813 L 88.1865,-172.827
 L 88.2185,-172.841 L 88.2508,-172.854 L 88.2833,-172.867 L 88.3159,-172.879 L 88.3489,-172.891 L 88.382,-172.902
 L 88.4153,-172.913 L 88.4487,-172.923 L 88.4824,-172.932 L 88.5162,-172.941 L 88.5501,-172.949 L 88.5842,-172.956
 L 88.6184,-172.963 L 88.6527,-172.97 L 88.6871,-172.975 L 88.7216,-172.981 L 88.7563,-172.985 L 88.7909,-172.989
 L 88.8257,-172.992 L 88.8605,-172.995 L 88.8953,-172.997 L 88.9302,-172.999 L 88.9651,-173 L 89,-173
 L 89.0349,-173 L 89.0698,-172.999 L 89.1047,-172.997 L 89.1395,-172.995 L 89.1743,-172.992 L 89.2091,-172.989
 L 89.2437,-172.985 L 89.2783,-172.981 L 89.3129,-172.975 L 89.3473,-172.97 L 89.3816,-172.963 L 89.4158,-172.956
 L 89.4499,-172.949 L 89.4838,-172.941 L 89.5176,-172.932 L 89.5513,-172.923 L 89.5847,-172.913 L 89.618,-172.902
 L 89.6511,-172.891 L 89.684,-172.879 L 89.7167,-172.867 L 89.7492,-172.854 L 89.7815,-172.841 L 89.8135,-172.827
 L 89.8452,-172.813 L 89.8767,-172.798 L 89.908,-172.782 L 89.9389,-172.766 L 89.9696,-172.749 L 90,-172.732
 L 90.0301,-172.714 L 90.0598,-172.696 L 90.0893,-172.677 L 90.1184,-172.658 L 90.1472,-172.638 L 90.1756,-172.618
 L 90.2036,-172.597 L 90.2313,-172.576 L 90.2586,-172.554 L 90.2856,-172.532 L 90.3121,-172.509 L 90.3383,-172.486
 L 90.364,-172.463 L 90.3893,-172.439 L 90.4142,-172.414 L 90.4387,-172.389 L 90.4627,-172.364 L 90.4863,-172.338
 L 90.5094,-172.312 L 90.5321,-172.286 L 90.5543,-172.259 L 90.576,-172.231 L 90.5973,-172.204 L 90.618,-172.176
 L 90.6383,-172.147 L 90.6581,-172.118 L 90.6773,-172.089 L 90.6961,-172.06 L 90.7143,-172.03 L 90.732,-172
 L 90.7492,-171.97 L 90.7659,-171.939 L 90.782,-171.908 L 90.7976,-171.877 L 90.8126,-171.845 L 90.8271,-171.813
 L 90.841,-171.781 L 90.8544,-171.749 L 90.8672,-171.717 L 90.8794,-171.684 L 90.891,-171.651 L 90.9021,-171.618
 L 90.9126,-171.585 L 90.9225,-171.551 L 90.9319,-171.518 L 90.9406,-171.484 L 90.9487,-171.45 L 90.9563,-171.416
 L 90.9633,-171.382 L 90.9696,-171.347 L 90.9754,-171.313 L 90.9805,-171.278 L 90.9851,-171.244 L 90.989,-171.209
 L 90.9924,-171.174 L 90.9951,-171.14 L 90.9973,-171.105 L 90.9988,-171.07 L 90.9997,-171.035 L 91,-171
 L 90.9997,-170.965 L 90.9988,-170.93 L 90.9973,-170.895 L 90.9951,-170.86 L 90.9924,-170.826 L 90.989,-170.791
 L 90.9851,-170.756 L 90.9805,-170.722 L 90.9754,-170.687 L 90.9696,-170.653 L 90.9633,-170.618 L 90.9563,-170.584
 L 90.9487,-170.55 L 90.9406,-170.516 L 90.9319,-170.482 L 90.9225,-170.449 L 90.9126,-170.415 L 90.9021,-170.382
 L 90.891,-170.349 L 90.8794,-170.316 L 90.8672,-170.283 L 90.8544,-170.251 L 90.841,-170.219 L 90.8271,-170.187
 L 90.8126,-170.155 L 90.7976,-170.123 L 90.782,-170.092 L 90.7659,-170.061 L 90.7492,-170.03 L 90.732,-170
 L 90.7143,-169.97 L 90.6961,-169.94 L 90.6773,-169.911 L 90.6581,-169.882 L 90.6383,-169.853 L 90.618,-169.824
 L 90.5973,-169.796 L 90.576,-169.769 L 90.5543,-169.741 L 90.5321,-169.714 L 90.5094,-169.688 L 90.4863,-169.662
 L 90.4627,-169.636 L 90.4387,-169.611 L 90.4142,-169.586 L 90.3893,-169.561 L 90.364,-169.537 L 90.3383,-169.514
 L 90.3121,-169.491 L 90.2856,-169.468 L 90.2586,-169.446 L 90.2313,-169.424 L 90.2036,-169.403 L 90.1756,-169.382
 L 90.1472,-169.362 L 90.1184,-169.342 L 90.0893,-169.323 L 90.0598,-169.304 L 90.0301,-169.286 L 90,-169.268
 L 89.9696,-169.251 L 89.9389,-169.234 L 89.908,-169.218 L 89.8767,-169.202 L 89.8452,-169.187 L 89.8135,-169.173
 L 89.7815,-169.159 L 89.7492,-169.146 L 89.7167,-169.133 L 89.684,-169.121 L 89.6511,-169.109 L 89.618,-169.098
 L 89.5847,-169.087 L 89.5513,-169.077 L 89.5176,-169.068 L 89.4838,-169.059 L 89.4499,-169.051 L 89.4158,-169.044
 L 89.3816,-169.037 L 89.3473,-169.03 L 89.3129,-169.025 L 89.2783,-169.019 L 89.2437,-169.015 L 89.2091,-169.011
 L 89.1743,-169.008 L 89.1395,-169.005 L 89.1047,-169.003 L 89.0698,-169.001 L 89.0349,-169 L 89,-169
 z
M 162,-40 L 162,-160 L 200,-160 L 200,-40 z
M 40,-40 L 40,-160 L 78,-160 L 78,-40 z
M 88.9651,-20.0003 L 88.9302,-20.0012 L 88.8953,-20.0027 L 88.8605,-20.0049 L 88.8257,-20.0076 L 88.7909,-20.011
 L 88.7563,-20.0149 L 88.7216,-20.0195 L 88.6871,-20.0246 L 88.6527,-20.0304 L 88.6184,-20.0367 L 88.5842,-20.0437
 L 88.5501,-20.0513 L 88.5162,-20.0594 L 88.4824,-20.0681 L 88.4487,-20.0775 L 88.4153,-20.0874 L 88.382,-20.0979
 L 88.3489,-20.109 L 88.3159,-20.1206 L 88.2833,-20.1328 L 88.2508,-20.1456 L 88.2185,-20.159 L 88.1865,-20.1729
 L 88.1548,-20.1874 L 88.1233,-20.2024 L 88.092,-20.218 L 88.0611,-20.2341 L 88.0304,-20.2507 L 88,-20.2679
 L 87.9699,-20.2857 L 87.9402,-20.3039 L 87.9107,-20.3226 L 87.8816,-20.3419 L 87.8528,-20.3617 L 87.8244,-20.382
 L 87.7964,-20.4027 L 87.7687,-20.424 L 87.7413,-20.4457 L 87.7144,-20.4679 L 87.6879,-20.4906 L 87.6617,-20.5137
 L 87.636,-20.5373 L 87.6107,-20.5613 L 87.5858,-20.5858 L 87.5613,-20.6107 L 87.5373,-20.636 L 87.5137,-20.6617
 L 87.4906,-20.6879 L 87.4679,-20.7144 L 87.4457,-20.7413 L 87.424,-20.7687 L 87.4027,-20.7964 L 87.382,-20.8244
 L 87.3617,-20.8528 L 87.3419,-20.8816 L 87.3227,-20.9107 L 87.3039,-20.9402 L 87.2857,-20.9699 L 87.2679,-21
 L 87.2508,-21.0304 L 87.2341,-21.0611 L 87.218,-21.092 L 87.2024,-21.1232 L 87.1874,-21.1548 L 87.1729,-21.1865
 L 87.159,-21.2185 L 87.1456,-21.2508 L 87.1328,-21.2833 L 87.1206,-21.3159 L 87.109,-21.3489 L 87.0979,-21.382
 L 87.0874,-21.4153 L 87.0775,-21.4487 L 87.0681,-21.4824 L 87.0594,-21.5161 L 87.0513,-21.5501 L 87.0437,-21.5842
 L 87.0367,-21.6184 L 87.0304,-21.6527 L 87.0246,-21.6871 L 87.0195,-21.7216 L 87.0149,-21.7563 L 87.011,-21.7909
 L 87.0076,-21.8257 L 87.0049,-21.8605 L 87.0027,-21.8953 L 87.0012,-21.9302 L 87.0003,-21.9651 L 87,-22
 L 87.0003,-22.0349 L 87.0012,-22.0698 L 87.0027,-22.1047 L 87.0049,-22.1395 L 87.0076,-22.1743 L 87.011,-22.209
 L 87.0149,-22.2437 L 87.0195,-22.2783 L 87.0246,-22.3129 L 87.0304,-22.3473 L 87.0367,-22.3816 L 87.0437,-22.4158
 L 87.0513,-22.4499 L 87.0594,-22.4838 L 87.0681,-22.5176 L 87.0775,-22.5513 L 87.0874,-22.5847 L 87.0979,-22.618
 L 87.109,-22.6511 L 87.1206,-22.684 L 87.1328,-22.7167 L 87.1456,-22.7492 L 87.159,-22.7814 L 87.1729,-22.8135
 L 87.1874,-22.8452 L 87.2024,-22.8767 L 87.218,-22.908 L 87.2341,-22.9389 L 87.2508,-22.9696 L 87.2679,-23
 L 87.2857,-23.0301 L 87.3039,-23.0598 L 87.3227,-23.0893 L 87.3419,-23.1184 L 87.3617,-23.1471 L 87.382,-23.1756
 L 87.4027,-23.2036 L 87.424,-23.2313 L 87.4457,-23.2586 L 87.4679,-23.2856 L 87.4906,-23.3121 L 87.5137,-23.3383
 L 87.5373,-23.364 L 87.5613,-23.3893 L 87.5858,-23.4142 L 87.6107,-23.4387 L 87.636,-23.4627 L 87.6617,-23.4863
 L 87.6879,-23.5094 L 87.7144,-23.5321 L 87.7413,-23.5543 L 87.7687,-23.576 L 87.7964,-23.5973 L 87.8244,-23.618
 L 87.8528,-23.6383 L 87.8816,-23.6581 L 87.9107,-23.6773 L 87.9402,-23.6961 L 87.9699,-23.7143 L 88,-23.732
 L 88.0304,-23.7492 L 88.0611,-23.7659 L 88.092,-23.782 L 88.1233,-23.7976 L 88.1548,-23.8126 L 88.1865,-23.8271
 L 88.2185,-23.841 L 88.2508,-23.8544 L 88.2833,-23.8672 L 88.3159,-23.8794 L 88.3489,-23.891 L 88.382,-23.9021
 L 88.4153,-23.9126 L 88.4487,-23.9225 L 88.4824,-23.9318 L 88.5162,-23.9406 L 88.5501,-23.9487 L 88.5842,-23.9563
 L 88.6184,-23.9632 L 88.6527,-23.9696 L 88.6871,-23.9754 L 88.7216,-23.9805 L 88.7563,-23.9851 L 88.7909,-23.989
 L 88.8257,-23.9924 L 88.8605,-23.9951 L 88.8953,-23.9973 L 88.9302,-23.9988 L 88.9651,-23.9997 L 89,-24
 L 89.0349,-23.9997 L 89.0698,-23.9988 L 89.1047,-23.9973 L 89.1395,-23.9951 L 89.1743,-23.9924 L 89.2091,-23.989
 L 89.2437,-23.9851 L 89.2783,-23.9805 L 89.3129,-23.9754 L 89.3473,-23.9696 L 89.3816,-23.9632 L 89.4158,-23.9563
 L 89.4499,-23.9487 L 89.4838,-23.9406 L 89.5176,-23.9318 L 89.5513,-23.9225 L 89.5847,-23.9126 L 89.618,-23.9021
 L 89.6511,-23.891 L 89.684,-23.8794 L 89.7167,-23.8672 L 89.7492,-23.8544 L 89.7815,-23.841 L 89.8135,-23.8271
 L 89.8452,-23.8126 L 89.8767,-23.7976 L 89.908,-23.782 L 89.9389,-23.7659 L 89.9696,-23.7492 L 90,-23.732
 L 90.0301,-23.7143 L 90.0598,-23.6961 L 90.0893,-23.6773 L 90.1184,-23.6581 L 90.1472,-23.6383 L 90.1756,-23.618
 L 90.2036,-23.5973 L 90.2313,-23.576 L 90.2586,-23.5543 L 90.2856,-23.5321 L 90.3121,-23.5094 L 90.3383,-23.4863
 L 90.364,-23.4627 L 90.3893,-23.4387 L 90.4142,-23.4142 L 90.4387,-23.3893 L 90.4627,-23.364 L 90.4863,-23.3383
 L 90.5094,-23.3121 L 90.5321,-23.2856 L 90.5543,-23.2586 L 90.576,-23.2313 L 90.5973,-23.2036 L 90.618,-23.1756
 L 90.6383,-23.1471 L 90.6581,-23.1184 L 90.6773,-23.0893 L 90.6961,-23.0598 L 90.7143,-23.0301 L 90.732,-23
 L 90.7492,-22.9696 L 90.7659,-22.9389 L 90.782,-22.908 L 90.7976,-22.8767 L 90.8126,-22.8452 L 90.8271,-22.8135
 L 90.841,-22.7814 L 90.8544,-22.7492 L 90.8672,-22.7167 L 90.8794,-22.684 L 90.891,-22.6511 L 90.9021,-22.618
 L 90.9126,-22.5847 L 90.9225,-22.5513 L 90.9319,-22.5176 L 90.9406,-22.4838 L 90.9487,-22.4499 L 90.9563,-22.4158
 L 90.9633,-22.3816 L 90.9696,-22.3473 L 90.9754,-22.3129 L 90.9805,-22.2783 L 90.9851,-22.2437 L 90.989,-22.209
 L 90.9924,-22.1743 L 90.9951,-22.1395 L 90.9973,-22.1047 L 90.9988,-22.0698 L 90.9997,-22.0349 L 91,-22
 L 90.9997,-21.9651 L 90.9988,-21.9302 L 90.9973,-21.8953 L 90.9951,-21.8605 L 90.9924,-21.8257 L 90.989,-21.7909
 L 90.9851,-21.7563 L 90.9805,-21.7216 L 90.9754,-21.6871 L 90.9696,-21.6527 L 90.9633,-21.6184 L 90.9563,-21.5842
 L 90.9487,-21.5501 L 90.9406,-21.5161 L 90.9319,-21.4824 L 90.9225,-21.4487 L 90.9126,-21.4153 L 90.9021,-21.382
 L 90.891,-21.3489 L 90.8794,-21.3159 L 90.8672,-21.2833 L 90.8544,-21.2508 L 90.841,-21.2185 L 90.8271,-21.1865
 L 90.8126,-21.1548 L 90.7976,-21.1232 L 90.782,-21.092 L 90.7659,-21.0611 L 90.7492,-21.0304 L 90.732,-21
 L 90.7143,-20.9699 L 90.6961,-20.9402 L 90.6773,-20.9107 L 90.6581,-20.8816 L 90.6383,-20.8528 L 90.618,-20.8244
 L 90.5973,-20.7964 L 90.576,-20.7687 L 90.5543,-20.7413 L 90.5321,-20.7144 L 90.5094,-20.6879 L 90.4863,-20.6617
 L 90.4627,-20.636 L 90.4387,-20.6107 L 90.4142,-20.5858 L 90.3893,-20.5613 L 90.364,-20.5373 L 90.3383,-20.5137
 L 90.3121,-20.4906 L 90.2856,-20.4679 L 90.2586,-20.4457 L 90.2313,-20.424 L 90.2036,-20.4027 L 90.1756,-20.382
 L 90.1472,-20.3617 L 90.1184,-20.3419 L 90.0893,-20.3226 L 90.0598,-20.3039 L 90.0301,-20.2857 L 90,-20.2679
 L 89.9696,-20.2507 L 89.9389,-20.2341 L 89.908,-20.218 L 89.8767,-20.2024 L 89.8452,-20.1874 L 89.8135,-20.1729
 L 89.7815,-20.159 L 89.7492,-20.1456 L 89.7167,-20.1328 L 89.684,-20.1206 L 89.6511,-20.109 L 89.618,-20.0979
 L 89.5847,-20.0874 L 89.5513,-20.0775 L 89.5176,-20.0681 L 89.4838,-20.0594 L 89.4499,-20.0513 L 89.4158,-20.0437
 L 89.3816,-20.0367 L 89.3473,-20.0304 L 89.3129,-20.0246 L 89.2783,-20.0195 L 89.2437,-20.0149 L 89.2091,-20.011
 L 89.1743,-20.0076 L 89.1395,-20.0049 L 89.1047,-20.0027 L 89.0698,-20.0012 L 89.0349,-20.0003 L 89,-20
 z
M 150.965,-20.0003 L 150.93,-20.0012 L 150.895,-20.0027 L 150.86,-20.0049 L 150.826,-20.0076 L 150.791,-20.011
 L 150.756,-20.0149 L 150.722,-20.0195 L 150.687,-20.0246 L 150.653,-20.0304 L 150.618,-20.0367 L 150.584,-20.0437
 L 150.55,-20.0513 L 150.516,-20.0594 L 150.482,-20.0681 L 150.449,-20.0775 L 150.415,-20.0874 L 150.382,-20.0979
 L 150.349,-20.109 L 150.316,-20.1206 L 150.283,-20.1328 L 150.251,-20.1456 L 150.219,-20.159 L 150.187,-20.1729
 L 150.155,-20.1874 L 150.123,-20.2024 L 150.092,-20.218 L 150.061,-20.2341 L 150.03,-20.2507 L 150,-20.2679
 L 149.97,-20.2857 L 149.94,-20.3039 L 149.911,-20.3226 L 149.882,-20.3419 L 149.853,-20.3617 L 149.824,-20.382
 L 149.796,-20.4027 L 149.769,-20.424 L 149.741,-20.4457 L 149.714,-20.4679 L 149.688,-20.4906 L 149.662,-20.5137
 L 149.636,-20.5373 L 149.611,-20.5613 L 149.586,-20.5858 L 149.561,-20.6107 L 149.537,-20.636 L 149.514,-20.6617
 L 149.491,-20.6879 L 149.468,-20.7144 L 149.446,-20.7413 L 149.424,-20.7687 L 149.403,-20.7964 L 149.382,-20.8244
 L 149.362,-20.8528 L 149.342,-20.8816 L 149.323,-20.9107 L 149.304,-20.9402 L 149.286,-20.9699 L 149.268,-21
 L 149.251,-21.0304 L 149.234,-21.0611 L 149.218,-21.092 L 149.202,-21.1232 L 149.187,-21.1548 L 149.173,-21.1865
 L 149.159,-21.2185 L 149.146,-21.2508 L 149.133,-21.2833 L 149.121,-21.3159 L 149.109,-21.3489 L 149.098,-21.382
 L 149.087,-21.4153 L 149.077,-21.4487 L 149.068,-21.4824 L 149.059,-21.5161 L 149.051,-21.5501 L 149.044,-21.5842
 L 149.037,-21.6184 L 149.03,-21.6527 L 149.025,-21.6871 L 149.019,-21.7216 L 149.015,-21.7563 L 149.011,-21.7909
 L 149.008,-21.8257 L 149.005,-21.8605 L 149.003,-21.8953 L 149.001,-21.9302 L 149,-21.9651 L 149,-22
 L 149,-22.0349 L 149.001,-22.0698 L 149.003,-22.1047 L 149.005,-22.1395 L 149.008,-22.1743 L 149.011,-22.209
 L 149.015,-22.2437 L 149.019,-22.2783 L 149.025,-22.3129 L 149.03,-22.3473 L 149.037,-22.3816 L 149.044,-22.4158
 L 149.051,-22.4499 L 149.059,-22.4838 L 149.068,-22.5176 L 149.077,-22.5513 L 149.087,-22.5847 L 149.098,-22.618
 L 149.109,-22.6511 L 149.121,-22.684 L 149.133,-22.7167 L 149.146,-22.7492 L 149.159,-22.7814 L 149.173,-22.8135
 L 149.187,-22.8452 L 149.202,-22.8767 L 149.218,-22.908 L 149.234,-22.9389 L 149.251,-22.9696 L 149.268,-23
 L 149.286,-23.0301 L 149.304,-23.0598 L 149.323,-23.0893 L 149.342,-23.1184 L 149.362,-23.1471 L 149.382,-23.1756
 L 149.403,-23.2036 L 149.424,-23.2313 L 149.446,-23.2586 L 149.468,-23.2856 L 149.491,-23.3121 L 149.514,-23.3383
 L 149.537,-23.364 L 149.561,-23.3893 L 149.586,-23.4142 L 149.611,-23.4387 L 149.636,-23.4627 L 149.662,-23.4863
 L 149.688,-23.5094 L 149.714,-23.5321 L 149.741,-23.5543 L 149.769,-23.576 L 149.796,-23.5973 L 149.824,-23.618
 L 149.853,-23.6383 L 149.882,-23.6581 L 149.911,-23.6773 L 149.94,-23.6961 L 149.97,-23.7143 L 150,-23.732
 L 150.03,-23.7492 L 150.061,-23.7659 L 150.092,-23.782 L 150.123,-23.7976 L 150.155,-23.8126 L 150.187,-23.8271
 L 150.219,-23.841 L 150.251,-23.8544 L 150.283,-23.8672 L 150.316,-23.8794 L 150.349,-23.891 L 150.382,-23.9021
 L 150.415,-23.9126 L 150.449,-23.9225 L 150.482,-23.9318 L 150.516,-23.9406 L 150.55,-23.9487 L 150.584,-23.9563
 L 150.618,-23.9632 L 150.653,-23.9696 L 150.687,-23.9754 L 150.722,-23.9805 L 150.756,-23.9851 L 150.791,-23.989
 L 150.826,-23.9924 L 150.86,-23.9951 L 150.895,-23.9973 L 150.93,-23.9988 L 150.965,-23.9997 L 151,-24
 L 151.035,-23.9997 L 151.07,-23.9988 L 151.105,-23.9973 L 151.14,-23.9951 L 151.174,-23.9924 L 151.209,-23.989
 L 151.244,-23.9851 L 151.278,-23.9805 L 151.313,-23.9754 L 151.347,-23.9696 L 151.382,-23.9632 L 151.416,-23.9563
 L 151.45,-23.9487 L 151.484,-23.9406 L 151.518,-23.9318 L 151.551,-23.9225 L 151.585,-23.9126 L 151.618,-23.9021
 L 151.651,-23.891 L 151.684,-23.8794 L 151.717,-23.8672 L 151.749,-23.8544 L 151.781,-23.841 L 151.813,-23.8271
 L 151.845,-23.8126 L 151.877,-23.7976 L 151.908,-23.782 L 151.939,-23.7659 L 151.97,-23.7492 L 152,-23.732
 L 152.03,-23.7143 L 152.06,-23.6961 L 152.089,-23.6773 L 152.118,-23.6581 L 152.147,-23.6383 L 152.176,-23.618
 L 152.204,-23.5973 L 152.231,-23.576 L 152.259,-23.5543 L 152.286,-23.5321 L 152.312,-23.5094 L 152.338,-23.4863
 L 152.364,-23.4627 L 152.389,-23.4387 L 152.414,-23.4142 L 152.439,-23.3893 L 152.463,-23.364 L 152.486,-23.3383
 L 152.509,-23.3121 L 152.532,-23.2856 L 152.554,-23.2586 L 152.576,-23.2313 L 152.597,-23.2036 L 152.618,-23.1756
 L 152.638,-23.1471 L 152.658,-23.1184 L 152.677,-23.0893 L 152.696,-23.0598 L 152.714,-23.0301 L 152.732,-23
 L 152.749,-22.9696 L 152.766,-22.9389 L 152.782,-22.908 L 152.798,-22.8767 L 152.813,-22.8452 L 152.827,-22.8135
 L 152.841,-22.7814 L 152.854,-22.7492 L 152.867,-22.7167 L 152.879,-22.684 L 152.891,-22.6511 L 152.902,-22.618
 L 152.913,-22.5847 L 152.923,-22.5513 L 152.932,-22.5176 L 152.941,-22.4838 L 152.949,-22.4499 L 152.956,-22.4158
 L 152.963,-22.3816 L 152.97,-22.3473 L 152.975,-22.3129 L 152.981,-22.2783 L 152.985,-22.2437 L 152.989,-22.209
 L 152.992,-22.1743 L 152.995,-22.1395 L 152.997,-22.1047 L 152.999,-22.0698 L 153,-22.0349 L 153,-22
 L 153,-21.9651 L 152.999,-21.9302 L 152.997,-21.8953 L 152.995,-21.8605 L 152.992,-21.8257 L 152.989,-21.7909
 L 152.985,-21.7563 L 152.981,-21.7216 L 152.975,-21.6871 L 152.97,-21.6527 L 152.963,-21.6184 L 152.956,-21.5842
 L 152.949,-21.5501 L 152.941,-21.5161 L 152.932,-21.4824 L 152.923,-21.4487 L 152.913,-21.4153 L 152.902,-21.382
 L 152.891,-21.3489 L 152.879,-21.3159 L 152.867,-21.2833 L 152.854,-21.2508 L 152.841,-21.2185 L 152.827,-21.1865
 L 152.813,-21.1548 L 152.798,-21.1232 L 152.782,-21.092 L 152.766,-21.0611 L 152.749,-21.0304 L 152.732,-21
 L 152.714,-20.9699 L 152.696,-20.9402 L 152.677,-20.9107 L 152.658,-20.8816 L 152.638,-20.8528 L 152.618,-20.8244
 L 152.597,-20.7964 L 152.576,-20.7687 L 152.554,-20.7413 L 152.532,-20.7144 L 152.509,-20.6879 L 152.486,-20.6617
 L 152.463,-20.636 L 152.439,-20.6107 L 152.414,-20.5858 L 152.389,-20.5613 L 152.364,-20.5373 L 152.338,-20.5137
 L 152.312,-20.4906 L 152.286,-20.4679 L 152.259,-20.4457 L 152.231,-20.424 L 152.204,-20.4027 L 152.176,-20.382
 L 152.147,-20.3617 L 152.118,-20.3419 L 152.089,-20.3226 L 152.06,-20.3039 L 152.03,-20.2857 L 152,-20.2679
 L 151.97,-20.2507 L 151.939,-20.2341 L 151.908,-20.218 L 151.877,-20.2024 L 151.845,-20.1874 L 151.813,-20.1729
 L 151.781,-20.159 L 151.749,-20.1456 L 151.717,-20.1328 L 151.684,-20.1206 L 151.651,-20.109 L 151.618,-20.0979
 L 151.585,-20.0874 L 151.551,-20.0775 L 151.518,-20.0681 L 151.484,-20.0594 L 151.45,-20.0513 L 151.416,-20.0437
 L 151.382,-20.0367 L 151.347,-20.0304 L 151.313,-20.0246 L 151.278,-20.0195 L 151.244,-20.0149 L 151.209,-20.011
 L 151.174,-20.0076 L 151.14,-20.0049 L 151.105,-20.0027 L 151.07,-20.0012 L 151.035,-20.0003 L 151,-20
 z
" stroke="black" fill="lightgray" stroke-width="0.5"/>
</svg>
