  0
SECTION
  2
BLOCKS
  0
ENDSEC
  0
SECTION
  2
ENTITIES
  0
LINE
  8
0
 10
2.18155
 20
-124.981
 11
4.36243
 21
-124.924
  0
LINE
  8
0
 10
4.36243
 20
-124.924
 11
6.54199
 21
-124.829
  0
LINE
  8
0
 10
6.54199
 20
-124.829
 11
8.71956
 21
-124.695
  0
LINE
  8
0
 10
8.71956
 20
-124.695
 11
10.8945
 21
-124.524
  0
LINE
  8
0
 10
10.8945
 20
-124.524
 11
13.0661
 21
-124.315
  0
LINE
  8
0
 10
13.0661
 20
-124.315
 11
15.2337
 21
-124.068
  0
LINE
  8
0
 10
15.2337
 20
-124.068
 11
17.3966
 21
-123.784
  0
LINE
  8
0
 10
17.3966
 20
-123.784
 11
19.5543
 21
-123.461
  0
LINE
  8
0
 10
19.5543
 20
-123.461
 11
21.706
 21
-123.101
  0
LINE
  8
0
 10
21.706
 20
-123.101
 11
23.8511
 21
-122.703
  0
LINE
  8
0
 10
23.8511
 20
-122.703
 11
25.989
 21
-122.268
  0
LINE
  8
0
 10
25.989
 20
-122.268
 11
28.1189
 21
-121.796
  0
LINE
  8
0
 10
28.1189
 20
-121.796
 11
30.2402
 21
-121.287
  0
LINE
  8
0
 10
30.2402
 20
-121.287
 11
32.3524
 21
-120.741
  0
LINE
  8
0
 10
32.3524
 20
-120.741
 11
34.4547
 21
-120.158
  0
LINE
  8
0
 10
34.4547
 20
-120.158
 11
36.5465
 21
-119.538
  0
LINE
  8
0
 10
36.5465
 20
-119.538
 11
38.6271
 21
-118.882
  0
LINE
  8
0
 10
38.6271
 20
-118.882
 11
40.696
 21
-118.19
  0
LINE
  8
0
 10
40.696
 20
-118.19
 11
42.7525
 21
-117.462
  0
LINE
  8
0
 10
42.7525
 20
-117.462
 11
44.796
 21
-116.698
  0
LINE
  8
0
 10
44.796
 20
-116.698
 11
46.8258
 21
-115.898
  0
LINE
  8
0
 10
46.8258
 20
-115.898
 11
48.8414
 21
-115.063
  0
LINE
  8
0
 10
48.8414
 20
-115.063
 11
50.8421
 21
-114.193
  0
LINE
  8
0
 10
50.8421
 20
-114.193
 11
52.8273
 21
-113.288
  0
LINE
  8
0
 10
52.8273
 20
-113.288
 11
54.7964
 21
-112.349
  0
LINE
  8
0
 10
54.7964
 20
-112.349
 11
56.7488
 21
-111.376
  0
LINE
  8
0
 10
56.7488
 20
-111.376
 11
58.6839
 21
-110.368
  0
LINE
  8
0
 10
58.6839
 20
-110.368
 11
60.6012
 21
-109.327
  0
LINE
  8
0
 10
60.6012
 20
-109.327
 11
62.5
 21
-108.253
  0
LINE
  8
0
 10
62.5
 20
-108.253
 11
64.3798
 21
-107.146
  0
LINE
  8
0
 10
64.3798
 20
-107.146
 11
66.2399
 21
-106.006
  0
LINE
  8
0
 10
66.2399
 20
-106.006
 11
68.0799
 21
-104.834
  0
LINE
  8
0
 10
68.0799
 20
-104.834
 11
69.8991
 21
-103.63
  0
LINE
  8
0
 10
69.8991
 20
-103.63
 11
71.6971
 21
-102.394
  0
LINE
  8
0
 10
71.6971
 20
-102.394
 11
73.4732
 21
-101.127
  0
LINE
  8
0
 10
73.4732
 20
-101.127
 11
75.2269
 21
-99.8294
  0
LINE
  8
0
 10
75.2269
 20
-99.8294
 11
76.9577
 21
-98.5013
  0
LINE
  8
0
 10
76.9577
 20
-98.5013
 11
78.665
 21
-97.1432
  0
LINE
  8
0
 10
78.665
 20
-97.1432
 11
80.3484
 21
-95.7556
  0
LINE
  8
0
 10
80.3484
 20
-95.7556
 11
82.0074
 21
-94.3387
  0
LINE
  8
0
 10
82.0074
 20
-94.3387
 11
83.6413
 21
-92.8931
  0
LINE
  8
0
 10
83.6413
 20
-92.8931
 11
85.2498
 21
-91.4192
  0
LINE
  8
0
 10
85.2498
 20
-91.4192
 11
86.8323
 21
-89.9175
  0
LINE
  8
0
 10
86.8323
 20
-89.9175
 11
88.3884
 21
-88.3884
  0
LINE
  8
0
 10
88.3884
 20
-88.3884
 11
89.9175
 21
-86.8323
  0
LINE
  8
0
 10
89.9175
 20
-86.8323
 11
91.4192
 21
-85.2498
  0
LINE
  8
0
 10
91.4192
 20
-85.2498
 11
92.8931
 21
-83.6413
  0
LINE
  8
0
 10
92.8931
 20
-83.6413
 11
94.3387
 21
-82.0074
  0
LINE
  8
0
 10
94.3387
 20
-82.0074
 11
95.7556
 21
-80.3484
  0
LINE
  8
0
 10
95.7556
 20
-80.3484
 11
97.1432
 21
-78.665
  0
LINE
  8
0
 10
97.1432
 20
-78.665
 11
98.5013
 21
-76.9577
  0
LINE
  8
0
 10
98.5013
 20
-76.9577
 11
99.8294
 21
-75.2269
  0
LINE
  8
0
 10
99.8294
 20
-75.2269
 11
101.127
 21
-73.4732
  0
LINE
  8
0
 10
101.127
 20
-73.4732
 11
102.394
 21
-71.6971
  0
LINE
  8
0
 10
102.394
 20
-71.6971
 11
103.63
 21
-69.8991
  0
LINE
  8
0
 10
103.63
 20
-69.8991
 11
104.834
 21
-68.0799
  0
LINE
  8
0
 10
104.834
 20
-68.0799
 11
106.006
 21
-66.2399
  0
LINE
  8
0
 10
106.006
 20
-66.2399
 11
107.146
 21
-64.3798
  0
LINE
  8
0
 10
107.146
 20
-64.3798
 11
108.253
 21
-62.5
  0
LINE
  8
0
 10
108.253
 20
-62.5
 11
109.327
 21
-60.6012
  0
LINE
  8
0
 10
109.327
 20
-60.6012
 11
110.368
 21
-58.6839
  0
LINE
  8
0
 10
110.368
 20
-58.6839
 11
111.376
 21
-56.7488
  0
LINE
  8
0
 10
111.376
 20
-56.7488
 11
112.349
 21
-54.7964
  0
LINE
  8
0
 10
112.349
 20
-54.7964
 11
113.288
 21
-52.8273
  0
LINE
  8
0
 10
113.288
 20
-52.8273
 11
114.193
 21
-50.8421
  0
LINE
  8
0
 10
114.193
 20
-50.8421
 11
115.063
 21
-48.8414
  0
LINE
  8
0
 10
115.063
 20
-48.8414
 11
115.898
 21
-46.8258
  0
LINE
  8
0
 10
115.898
 20
-46.8258
 11
116.698
 21
-44.796
  0
LINE
  8
0
 10
116.698
 20
-44.796
 11
117.462
 21
-42.7525
  0
LINE
  8
0
 10
117.462
 20
-42.7525
 11
118.19
 21
-40.696
  0
LINE
  8
0
 10
118.19
 20
-40.696
 11
118.882
 21
-38.6271
  0
LINE
  8
0
 10
118.882
 20
-38.6271
 11
119.538
 21
-36.5465
  0
LINE
  8
0
 10
119.538
 20
-36.5465
 11
120.158
 21
-34.4547
  0
LINE
  8
0
 10
120.158
 20
-34.4547
 11
120.741
 21
-32.3524
  0
LINE
  8
0
 10
120.741
 20
-32.3524
 11
121.287
 21
-30.2402
  0
LINE
  8
0
 10
121.287
 20
-30.2402
 11
121.796
 21
-28.1189
  0
LINE
  8
0
 10
121.796
 20
-28.1189
 11
122.268
 21
-25.989
  0
LINE
  8
0
 10
122.268
 20
-25.989
 11
122.703
 21
-23.8511
  0
LINE
  8
0
 10
122.703
 20
-23.8511
 11
123.101
 21
-21.706
  0
LINE
  8
0
 10
123.101
 20
-21.706
 11
123.461
 21
-19.5543
  0
LINE
  8
0
 10
123.461
 20
-19.5543
 11
123.784
 21
-17.3966
  0
LINE
  8
0
 10
123.784
 20
-17.3966
 11
124.068
 21
-15.2337
  0
LINE
  8
0
 10
124.068
 20
-15.2337
 11
124.315
 21
-13.0661
  0
LINE
  8
0
 10
124.315
 20
-13.0661
 11
124.524
 21
-10.8945
  0
LINE
  8
0
 10
124.524
 20
-10.8945
 11
124.695
 21
-8.71956
  0
LINE
  8
0
 10
124.695
 20
-8.71956
 11
124.829
 21
-6.54199
  0
LINE
  8
0
 10
124.829
 20
-6.54199
 11
124.924
 21
-4.36243
  0
LINE
  8
0
 10
124.924
 20
-4.36243
 11
124.981
 21
-2.18155
  0
LINE
  8
0
 10
124.981
 20
-2.18155
 11
125
 21
0
  0
LINE
  8
0
 10
125
 20
0
 11
124.981
 21
2.18155
  0
LINE
  8
0
 10
124.981
 20
2.18155
 11
124.924
 21
4.36243
  0
LINE
  8
0
 10
124.924
 20
4.36243
 11
124.829
 21
6.54199
  0
LINE
  8
0
 10
124.829
 20
6.54199
 11
124.695
 21
8.71956
  0
LINE
  8
0
 10
124.695
 20
8.71956
 11
124.524
 21
10.8945
  0
LINE
  8
0
 10
124.524
 20
10.8945
 11
124.315
 21
13.0661
  0
LINE
  8
0
 10
124.315
 20
13.0661
 11
124.068
 21
15.2337
  0
LINE
  8
0
 10
124.068
 20
15.2337
 11
123.784
 21
17.3966
  0
LINE
  8
0
 10
123.784
 20
17.3966
 11
123.461
 21
19.5543
  0
LINE
  8
0
 10
123.461
 20
19.5543
 11
123.101
 21
21.706
  0
LINE
  8
0
 10
123.101
 20
21.706
 11
122.703
 21
23.8511
  0
LINE
  8
0
 10
122.703
 20
23.8511
 11
122.268
 21
25.989
  0
LINE
  8
0
 10
122.268
 20
25.989
 11
121.796
 21
28.1189
  0
LINE
  8
0
 10
121.796
 20
28.1189
 11
121.287
 21
30.2402
  0
LINE
  8
0
 10
121.287
 20
30.2402
 11
120.741
 21
32.3524
  0
LINE
  8
0
 10
120.741
 20
32.3524
 11
120.158
 21
34.4547
  0
LINE
  8
0
 10
120.158
 20
34.4547
 11
119.538
 21
36.5465
  0
LINE
  8
0
 10
119.538
 20
36.5465
 11
118.882
 21
38.6271
  0
LINE
  8
0
 10
118.882
 20
38.6271
 11
118.19
 21
40.696
  0
LINE
  8
0
 10
118.19
 20
40.696
 11
117.462
 21
42.7525
  0
LINE
  8
0
 10
117.462
 20
42.7525
 11
116.698
 21
44.796
  0
LINE
  8
0
 10
116.698
 20
44.796
 11
115.898
 21
46.8258
  0
LINE
  8
0
 10
115.898
 20
46.8258
 11
115.063
 21
48.8414
  0
LINE
  8
0
 10
115.063
 20
48.8414
 11
114.193
 21
50.8421
  0
LINE
  8
0
 10
114.193
 20
50.8421
 11
113.288
 21
52.8273
  0
LINE
  8
0
 10
113.288
 20
52.8273
 11
112.349
 21
54.7964
  0
LINE
  8
0
 10
112.349
 20
54.7964
 11
111.376
 21
56.7488
  0
LINE
  8
0
 10
111.376
 20
56.7488
 11
110.368
 21
58.6839
  0
LINE
  8
0
 10
110.368
 20
58.6839
 11
109.327
 21
60.6012
  0
LINE
  8
0
 10
109.327
 20
60.6012
 11
108.253
 21
62.5
  0
LINE
  8
0
 10
108.253
 20
62.5
 11
107.146
 21
64.3798
  0
LINE
  8
0
 10
107.146
 20
64.3798
 11
106.006
 21
66.2399
  0
LINE
  8
0
 10
106.006
 20
66.2399
 11
104.834
 21
68.0799
  0
LINE
  8
0
 10
104.834
 20
68.0799
 11
103.63
 21
69.8991
  0
LINE
  8
0
 10
103.63
 20
69.8991
 11
102.394
 21
71.6971
  0
LINE
  8
0
 10
102.394
 20
71.6971
 11
101.127
 21
73.4732
  0
LINE
  8
0
 10
101.127
 20
73.4732
 11
99.8294
 21
75.2269
  0
LINE
  8
0
 10
99.8294
 20
75.2269
 11
98.5013
 21
76.9577
  0
LINE
  8
0
 10
98.5013
 20
76.9577
 11
97.1432
 21
78.665
  0
LINE
  8
0
 10
97.1432
 20
78.665
 11
95.7556
 21
80.3484
  0
LINE
  8
0
 10
95.7556
 20
80.3484
 11
94.3387
 21
82.0074
  0
LINE
  8
0
 10
94.3387
 20
82.0074
 11
92.8931
 21
83.6413
  0
LINE
  8
0
 10
92.8931
 20
83.6413
 11
91.4192
 21
85.2498
  0
LINE
  8
0
 10
91.4192
 20
85.2498
 11
89.9175
 21
86.8323
  0
LINE
  8
0
 10
89.9175
 20
86.8323
 11
88.3884
 21
88.3884
  0
LINE
  8
0
 10
88.3884
 20
88.3884
 11
86.8323
 21
89.9175
  0
LINE
  8
0
 10
86.8323
 20
89.9175
 11
85.2498
 21
91.4192
  0
LINE
  8
0
 10
85.2498
 20
91.4192
 11
83.6413
 21
92.8931
  0
LINE
  8
0
 10
83.6413
 20
92.8931
 11
82.0074
 21
94.3387
  0
LINE
  8
0
 10
82.0074
 20
94.3387
 11
80.3484
 21
95.7556
  0
LINE
  8
0
 10
80.3484
 20
95.7556
 11
78.665
 21
97.1432
  0
LINE
  8
0
 10
78.665
 20
97.1432
 11
76.9577
 21
98.5013
  0
LINE
  8
0
 10
76.9577
 20
98.5013
 11
75.2269
 21
99.8294
  0
LINE
  8
0
 10
75.2269
 20
99.8294
 11
73.4732
 21
101.127
  0
LINE
  8
0
 10
73.4732
 20
101.127
 11
71.6971
 21
102.394
  0
LINE
  8
0
 10
71.6971
 20
102.394
 11
69.8991
 21
103.63
  0
LINE
  8
0
 10
69.8991
 20
103.63
 11
68.0799
 21
104.834
  0
LINE
  8
0
 10
68.0799
 20
104.834
 11
66.2399
 21
106.006
  0
LINE
  8
0
 10
66.2399
 20
106.006
 11
64.3798
 21
107.146
  0
LINE
  8
0
 10
64.3798
 20
107.146
 11
62.5
 21
108.253
  0
LINE
  8
0
 10
62.5
 20
108.253
 11
60.6012
 21
109.327
  0
LINE
  8
0
 10
60.6012
 20
109.327
 11
58.6839
 21
110.368
  0
LINE
  8
0
 10
58.6839
 20
110.368
 11
56.7488
 21
111.376
  0
LINE
  8
0
 10
56.7488
 20
111.376
 11
54.7964
 21
112.349
  0
LINE
  8
0
 10
54.7964
 20
112.349
 11
52.8273
 21
113.288
  0
LINE
  8
0
 10
52.8273
 20
113.288
 11
50.8421
 21
114.193
  0
LINE
  8
0
 10
50.8421
 20
114.193
 11
48.8414
 21
115.063
  0
LINE
  8
0
 10
48.8414
 20
115.063
 11
46.8258
 21
115.898
  0
LINE
  8
0
 10
46.8258
 20
115.898
 11
44.796
 21
116.698
  0
LINE
  8
0
 10
44.796
 20
116.698
 11
42.7525
 21
117.462
  0
LINE
  8
0
 10
42.7525
 20
117.462
 11
40.696
 21
118.19
  0
LINE
  8
0
 10
40.696
 20
118.19
 11
38.6271
 21
118.882
  0
LINE
  8
0
 10
38.6271
 20
118.882
 11
36.5465
 21
119.538
  0
LINE
  8
0
 10
36.5465
 20
119.538
 11
34.4547
 21
120.158
  0
LINE
  8
0
 10
34.4547
 20
120.158
 11
32.3524
 21
120.741
  0
LINE
  8
0
 10
32.3524
 20
120.741
 11
30.2402
 21
121.287
  0
LINE
  8
0
 10
30.2402
 20
121.287
 11
28.1189
 21
121.796
  0
LINE
  8
0
 10
28.1189
 20
121.796
 11
25.989
 21
122.268
  0
LINE
  8
0
 10
25.989
 20
122.268
 11
23.8511
 21
122.703
  0
LINE
  8
0
 10
23.8511
 20
122.703
 11
21.706
 21
123.101
  0
LINE
  8
0
 10
21.706
 20
123.101
 11
19.5543
 21
123.461
  0
LINE
  8
0
 10
19.5543
 20
123.461
 11
17.3966
 21
123.784
  0
LINE
  8
0
 10
17.3966
 20
123.784
 11
15.2337
 21
124.068
  0
LINE
  8
0
 10
15.2337
 20
124.068
 11
13.0661
 21
124.315
  0
LINE
  8
0
 10
13.0661
 20
124.315
 11
10.8945
 21
124.524
  0
LINE
  8
0
 10
10.8945
 20
124.524
 11
8.71956
 21
124.695
  0
LINE
  8
0
 10
8.71956
 20
124.695
 11
6.54199
 21
124.829
  0
LINE
  8
0
 10
6.54199
 20
124.829
 11
4.36243
 21
124.924
  0
LINE
  8
0
 10
4.36243
 20
124.924
 11
2.18155
 21
124.981
  0
LINE
  8
0
 10
2.18155
 20
124.981
 11
0
 21
125
  0
LINE
  8
0
 10
0
 20
125
 11
-2.18155
 21
124.981
  0
LINE
  8
0
 10
-2.18155
 20
124.981
 11
-4.36243
 21
124.924
  0
LINE
  8
0
 10
-4.36243
 20
124.924
 11
-6.54199
 21
124.829
  0
LINE
  8
0
 10
-6.54199
 20
124.829
 11
-8.71956
 21
124.695
  0
LINE
  8
0
 10
-8.71956
 20
124.695
 11
-10.8945
 21
124.524
  0
LINE
  8
0
 10
-10.8945
 20
124.524
 11
-13.0661
 21
124.315
  0
LINE
  8
0
 10
-13.0661
 20
124.315
 11
-15.2337
 21
124.068
  0
LINE
  8
0
 10
-15.2337
 20
124.068
 11
-17.3966
 21
123.784
  0
LINE
  8
0
 10
-17.3966
 20
123.784
 11
-19.5543
 21
123.461
  0
LINE
  8
0
 10
-19.5543
 20
123.461
 11
-21.706
 21
123.101
  0
LINE
  8
0
 10
-21.706
 20
123.101
 11
-23.8511
 21
122.703
  0
LINE
  8
0
 10
-23.8511
 20
122.703
 11
-25.989
 21
122.268
  0
LINE
  8
0
 10
-25.989
 20
122.268
 11
-28.1189
 21
121.796
  0
LINE
  8
0
 10
-28.1189
 20
121.796
 11
-30.2402
 21
121.287
  0
LINE
  8
0
 10
-30.2402
 20
121.287
 11
-32.3524
 21
120.741
  0
LINE
  8
0
 10
-32.3524
 20
120.741
 11
-34.4547
 21
120.158
  0
LINE
  8
0
 10
-34.4547
 20
120.158
 11
-36.5465
 21
119.538
  0
LINE
  8
0
 10
-36.5465
 20
119.538
 11
-38.6271
 21
118.882
  0
LINE
  8
0
 10
-38.6271
 20
118.882
 11
-40.696
 21
118.19
  0
LINE
  8
0
 10
-40.696
 20
118.19
 11
-42.7525
 21
117.462
  0
LINE
  8
0
 10
-42.7525
 20
117.462
 11
-44.796
 21
116.698
  0
LINE
  8
0
 10
-44.796
 20
116.698
 11
-46.8258
 21
115.898
  0
LINE
  8
0
 10
-46.8258
 20
115.898
 11
-48.8414
 21
115.063
  0
LINE
  8
0
 10
-48.8414
 20
115.063
 11
-50.8421
 21
114.193
  0
LINE
  8
0
 10
-50.8421
 20
114.193
 11
-52.8273
 21
113.288
  0
LINE
  8
0
 10
-52.8273
 20
113.288
 11
-54.7964
 21
112.349
  0
LINE
  8
0
 10
-54.7964
 20
112.349
 11
-56.7488
 21
111.376
  0
LINE
  8
0
 10
-56.7488
 20
111.376
 11
-58.6839
 21
110.368
  0
LINE
  8
0
 10
-58.6839
 20
110.368
 11
-60.6012
 21
109.327
  0
LINE
  8
0
 10
-60.6012
 20
109.327
 11
-62.5
 21
108.253
  0
LINE
  8
0
 10
-62.5
 20
108.253
 11
-64.3798
 21
107.146
  0
LINE
  8
0
 10
-64.3798
 20
107.146
 11
-66.2399
 21
106.006
  0
LINE
  8
0
 10
-66.2399
 20
106.006
 11
-68.0799
 21
104.834
  0
LINE
  8
0
 10
-68.0799
 20
104.834
 11
-69.8991
 21
103.63
  0
LINE
  8
0
 10
-69.8991
 20
103.63
 11
-71.6971
 21
102.394
  0
LINE
  8
0
 10
-71.6971
 20
102.394
 11
-73.4732
 21
101.127
  0
LINE
  8
0
 10
-73.4732
 20
101.127
 11
-75.2269
 21
99.8294
  0
LINE
  8
0
 10
-75.2269
 20
99.8294
 11
-76.9577
 21
98.5013
  0
LINE
  8
0
 10
-76.9577
 20
98.5013
 11
-78.665
 21
97.1432
  0
LINE
  8
0
 10
-78.665
 20
97.1432
 11
-80.3484
 21
95.7556
  0
LINE
  8
0
 10
-80.3484
 20
95.7556
 11
-82.0074
 21
94.3387
  0
LINE
  8
0
 10
-82.0074
 20
94.3387
 11
-83.6413
 21
92.8931
  0
LINE
  8
0
 10
-83.6413
 20
92.8931
 11
-85.2498
 21
91.4192
  0
LINE
  8
0
 10
-85.2498
 20
91.4192
 11
-86.8323
 21
89.9175
  0
LINE
  8
0
 10
-86.8323
 20
89.9175
 11
-88.3884
 21
88.3884
  0
LINE
  8
0
 10
-88.3884
 20
88.3884
 11
-89.9175
 21
86.8323
  0
LINE
  8
0
 10
-89.9175
 20
86.8323
 11
-91.4192
 21
85.2498
  0
LINE
  8
0
 10
-91.4192
 20
85.2498
 11
-92.8931
 21
83.6413
  0
LINE
  8
0
 10
-92.8931
 20
83.6413
 11
-94.3387
 21
82.0074
  0
LINE
  8
0
 10
-94.3387
 20
82.0074
 11
-95.7556
 21
80.3484
  0
LINE
  8
0
 10
-95.7556
 20
80.3484
 11
-97.1432
 21
78.665
  0
LINE
  8
0
 10
-97.1432
 20
78.665
 11
-98.5013
 21
76.9577
  0
LINE
  8
0
 10
-98.5013
 20
76.9577
 11
-99.8294
 21
75.2269
  0
LINE
  8
0
 10
-99.8294
 20
75.2269
 11
-101.127
 21
73.4732
  0
LINE
  8
0
 10
-101.127
 20
73.4732
 11
-102.394
 21
71.6971
  0
LINE
  8
0
 10
-102.394
 20
71.6971
 11
-103.63
 21
69.8991
  0
LINE
  8
0
 10
-103.63
 20
69.8991
 11
-104.834
 21
68.0799
  0
LINE
  8
0
 10
-104.834
 20
68.0799
 11
-106.006
 21
66.2399
  0
LINE
  8
0
 10
-106.006
 20
66.2399
 11
-107.146
 21
64.3798
  0
LINE
  8
0
 10
-107.146
 20
64.3798
 11
-108.253
 21
62.5
  0
LINE
  8
0
 10
-108.253
 20
62.5
 11
-109.327
 21
60.6012
  0
LINE
  8
0
 10
-109.327
 20
60.6012
 11
-110.368
 21
58.6839
  0
LINE
  8
0
 10
-110.368
 20
58.6839
 11
-111.376
 21
56.7488
  0
LINE
  8
0
 10
-111.376
 20
56.7488
 11
-112.349
 21
54.7964
  0
LINE
  8
0
 10
-112.349
 20
54.7964
 11
-113.288
 21
52.8273
  0
LINE
  8
0
 10
-113.288
 20
52.8273
 11
-114.193
 21
50.8421
  0
LINE
  8
0
 10
-114.193
 20
50.8421
 11
-115.063
 21
48.8414
  0
LINE
  8
0
 10
-115.063
 20
48.8414
 11
-115.898
 21
46.8258
  0
LINE
  8
0
 10
-115.898
 20
46.8258
 11
-116.698
 21
44.796
  0
LINE
  8
0
 10
-116.698
 20
44.796
 11
-117.462
 21
42.7525
  0
LINE
  8
0
 10
-117.462
 20
42.7525
 11
-118.19
 21
40.696
  0
LINE
  8
0
 10
-118.19
 20
40.696
 11
-118.882
 21
38.6271
  0
LINE
  8
0
 10
-118.882
 20
38.6271
 11
-119.538
 21
36.5465
  0
LINE
  8
0
 10
-119.538
 20
36.5465
 11
-120.158
 21
34.4547
  0
LINE
  8
0
 10
-120.158
 20
34.4547
 11
-120.741
 21
32.3524
  0
LINE
  8
0
 10
-120.741
 20
32.3524
 11
-121.287
 21
30.2402
  0
LINE
  8
0
 10
-121.287
 20
30.2402
 11
-121.796
 21
28.1189
  0
LINE
  8
0
 10
-121.796
 20
28.1189
 11
-122.268
 21
25.989
  0
LINE
  8
0
 10
-122.268
 20
25.989
 11
-122.703
 21
23.8511
  0
LINE
  8
0
 10
-122.703
 20
23.8511
 11
-123.101
 21
21.706
  0
LINE
  8
0
 10
-123.101
 20
21.706
 11
-123.461
 21
19.5543
  0
LINE
  8
0
 10
-123.461
 20
19.5543
 11
-123.784
 21
17.3966
  0
LINE
  8
0
 10
-123.784
 20
17.3966
 11
-124.068
 21
15.2337
  0
LINE
  8
0
 10
-124.068
 20
15.2337
 11
-124.315
 21
13.0661
  0
LINE
  8
0
 10
-124.315
 20
13.0661
 11
-124.524
 21
10.8945
  0
LINE
  8
0
 10
-124.524
 20
10.8945
 11
-124.695
 21
8.71956
  0
LINE
  8
0
 10
-124.695
 20
8.71956
 11
-124.829
 21
6.54199
  0
LINE
  8
0
 10
-124.829
 20
6.54199
 11
-124.924
 21
4.36243
  0
LINE
  8
0
 10
-124.924
 20
4.36243
 11
-124.981
 21
2.18155
  0
LINE
  8
0
 10
-124.981
 20
2.18155
 11
-125
 21
0
  0
LINE
  8
0
 10
-125
 20
0
 11
-124.981
 21
-2.18155
  0
LINE
  8
0
 10
-124.981
 20
-2.18155
 11
-124.924
 21
-4.36243
  0
LINE
  8
0
 10
-124.924
 20
-4.36243
 11
-124.829
 21
-6.54199
  0
LINE
  8
0
 10
-124.829
 20
-6.54199
 11
-124.695
 21
-8.71956
  0
LINE
  8
0
 10
-124.695
 20
-8.71956
 11
-124.524
 21
-10.8945
  0
LINE
  8
0
 10
-124.524
 20
-10.8945
 11
-124.315
 21
-13.0661
  0
LINE
  8
0
 10
-124.315
 20
-13.0661
 11
-124.068
 21
-15.2337
  0
LINE
  8
0
 10
-124.068
 20
-15.2337
 11
-123.784
 21
-17.3966
  0
LINE
  8
0
 10
-123.784
 20
-17.3966
 11
-123.461
 21
-19.5543
  0
LINE
  8
0
 10
-123.461
 20
-19.5543
 11
-123.101
 21
-21.706
  0
LINE
  8
0
 10
-123.101
 20
-21.706
 11
-122.703
 21
-23.8511
  0
LINE
  8
0
 10
-122.703
 20
-23.8511
 11
-122.268
 21
-25.989
  0
LINE
  8
0
 10
-122.268
 20
-25.989
 11
-121.796
 21
-28.1189
  0
LINE
  8
0
 10
-121.796
 20
-28.1189
 11
-121.287
 21
-30.2402
  0
LINE
  8
0
 10
-121.287
 20
-30.2402
 11
-120.741
 21
-32.3524
  0
LINE
  8
0
 10
-120.741
 20
-32.3524
 11
-120.158
 21
-34.4547
  0
LINE
  8
0
 10
-120.158
 20
-34.4547
 11
-119.538
 21
-36.5465
  0
LINE
  8
0
 10
-119.538
 20
-36.5465
 11
-118.882
 21
-38.6271
  0
LINE
  8
0
 10
-118.882
 20
-38.6271
 11
-118.19
 21
-40.696
  0
LINE
  8
0
 10
-118.19
 20
-40.696
 11
-117.462
 21
-42.7525
  0
LINE
  8
0
 10
-117.462
 20
-42.7525
 11
-116.698
 21
-44.796
  0
LINE
  8
0
 10
-116.698
 20
-44.796
 11
-115.898
 21
-46.8258
  0
LINE
  8
0
 10
-115.898
 20
-46.8258
 11
-115.063
 21
-48.8414
  0
LINE
  8
0
 10
-115.063
 20
-48.8414
 11
-114.193
 21
-50.8421
  0
LINE
  8
0
 10
-114.193
 20
-50.8421
 11
-113.288
 21
-52.8273
  0
LINE
  8
0
 10
-113.288
 20
-52.8273
 11
-112.349
 21
-54.7964
  0
LINE
  8
0
 10
-112.349
 20
-54.7964
 11
-111.376
 21
-56.7488
  0
LINE
  8
0
 10
-111.376
 20
-56.7488
 11
-110.368
 21
-58.6839
  0
LINE
  8
0
 10
-110.368
 20
-58.6839
 11
-109.327
 21
-60.6012
  0
LINE
  8
0
 10
-109.327
 20
-60.6012
 11
-108.253
 21
-62.5
  0
LINE
  8
0
 10
-108.253
 20
-62.5
 11
-107.146
 21
-64.3798
  0
LINE
  8
0
 10
-107.146
 20
-64.3798
 11
-106.006
 21
-66.2399
  0
LINE
  8
0
 10
-106.006
 20
-66.2399
 11
-104.834
 21
-68.0799
  0
LINE
  8
0
 10
-104.834
 20
-68.0799
 11
-103.63
 21
-69.8991
  0
LINE
  8
0
 10
-103.63
 20
-69.8991
 11
-102.394
 21
-71.6971
  0
LINE
  8
0
 10
-102.394
 20
-71.6971
 11
-101.127
 21
-73.4732
  0
LINE
  8
0
 10
-101.127
 20
-73.4732
 11
-99.8294
 21
-75.2269
  0
LINE
  8
0
 10
-99.8294
 20
-75.2269
 11
-98.5013
 21
-76.9577
  0
LINE
  8
0
 10
-98.5013
 20
-76.9577
 11
-97.1432
 21
-78.665
  0
LINE
  8
0
 10
-97.1432
 20
-78.665
 11
-95.7556
 21
-80.3484
  0
LINE
  8
0
 10
-95.7556
 20
-80.3484
 11
-94.3387
 21
-82.0074
  0
LINE
  8
0
 10
-94.3387
 20
-82.0074
 11
-92.8931
 21
-83.6413
  0
LINE
  8
0
 10
-92.8931
 20
-83.6413
 11
-91.4192
 21
-85.2498
  0
LINE
  8
0
 10
-91.4192
 20
-85.2498
 11
-89.9175
 21
-86.8323
  0
LINE
  8
0
 10
-89.9175
 20
-86.8323
 11
-88.3884
 21
-88.3884
  0
LINE
  8
0
 10
-88.3884
 20
-88.3884
 11
-86.8323
 21
-89.9175
  0
LINE
  8
0
 10
-86.8323
 20
-89.9175
 11
-85.2498
 21
-91.4192
  0
LINE
  8
0
 10
-85.2498
 20
-91.4192
 11
-83.6413
 21
-92.8931
  0
LINE
  8
0
 10
-83.6413
 20
-92.8931
 11
-82.0074
 21
-94.3387
  0
LINE
  8
0
 10
-82.0074
 20
-94.3387
 11
-80.3484
 21
-95.7556
  0
LINE
  8
0
 10
-80.3484
 20
-95.7556
 11
-78.665
 21
-97.1432
  0
LINE
  8
0
 10
-78.665
 20
-97.1432
 11
-76.9577
 21
-98.5013
  0
LINE
  8
0
 10
-76.9577
 20
-98.5013
 11
-75.2269
 21
-99.8294
  0
LINE
  8
0
 10
-75.2269
 20
-99.8294
 11
-73.4732
 21
-101.127
  0
LINE
  8
0
 10
-73.4732
 20
-101.127
 11
-71.6971
 21
-102.394
  0
LINE
  8
0
 10
-71.6971
 20
-102.394
 11
-69.8991
 21
-103.63
  0
LINE
  8
0
 10
-69.8991
 20
-103.63
 11
-68.0799
 21
-104.834
  0
LINE
  8
0
 10
-68.0799
 20
-104.834
 11
-66.2399
 21
-106.006
  0
LINE
  8
0
 10
-66.2399
 20
-106.006
 11
-64.3798
 21
-107.146
  0
LINE
  8
0
 10
-64.3798
 20
-107.146
 11
-62.5
 21
-108.253
  0
LINE
  8
0
 10
-62.5
 20
-108.253
 11
-60.6012
 21
-109.327
  0
LINE
  8
0
 10
-60.6012
 20
-109.327
 11
-58.6839
 21
-110.368
  0
LINE
  8
0
 10
-58.6839
 20
-110.368
 11
-56.7488
 21
-111.376
  0
LINE
  8
0
 10
-56.7488
 20
-111.376
 11
-54.7964
 21
-112.349
  0
LINE
  8
0
 10
-54.7964
 20
-112.349
 11
-52.8273
 21
-113.288
  0
LINE
  8
0
 10
-52.8273
 20
-113.288
 11
-50.8421
 21
-114.193
  0
LINE
  8
0
 10
-50.8421
 20
-114.193
 11
-48.8414
 21
-115.063
  0
LINE
  8
0
 10
-48.8414
 20
-115.063
 11
-46.8258
 21
-115.898
  0
LINE
  8
0
 10
-46.8258
 20
-115.898
 11
-44.796
 21
-116.698
  0
LINE
  8
0
 10
-44.796
 20
-116.698
 11
-42.7525
 21
-117.462
  0
LINE
  8
0
 10
-42.7525
 20
-117.462
 11
-40.696
 21
-118.19
  0
LINE
  8
0
 10
-40.696
 20
-118.19
 11
-38.6271
 21
-118.882
  0
LINE
  8
0
 10
-38.6271
 20
-118.882
 11
-36.5465
 21
-119.538
  0
LINE
  8
0
 10
-36.5465
 20
-119.538
 11
-34.4547
 21
-120.158
  0
LINE
  8
0
 10
-34.4547
 20
-120.158
 11
-32.3524
 21
-120.741
  0
LINE
  8
0
 10
-32.3524
 20
-120.741
 11
-30.2402
 21
-121.287
  0
LINE
  8
0
 10
-30.2402
 20
-121.287
 11
-28.1189
 21
-121.796
  0
LINE
  8
0
 10
-28.1189
 20
-121.796
 11
-25.989
 21
-122.268
  0
LINE
  8
0
 10
-25.989
 20
-122.268
 11
-23.8511
 21
-122.703
  0
LINE
  8
0
 10
-23.8511
 20
-122.703
 11
-21.706
 21
-123.101
  0
LINE
  8
0
 10
-21.706
 20
-123.101
 11
-19.5543
 21
-123.461
  0
LINE
  8
0
 10
-19.5543
 20
-123.461
 11
-17.3966
 21
-123.784
  0
LINE
  8
0
 10
-17.3966
 20
-123.784
 11
-15.2337
 21
-124.068
  0
LINE
  8
0
 10
-15.2337
 20
-124.068
 11
-13.0661
 21
-124.315
  0
LINE
  8
0
 10
-13.0661
 20
-124.315
 11
-10.8945
 21
-124.524
  0
LINE
  8
0
 10
-10.8945
 20
-124.524
 11
-8.71956
 21
-124.695
  0
LINE
  8
0
 10
-8.71956
 20
-124.695
 11
-6.54199
 21
-124.829
  0
LINE
  8
0
 10
-6.54199
 20
-124.829
 11
-4.36243
 21
-124.924
  0
LINE
  8
0
 10
-4.36243
 20
-124.924
 11
-2.18155
 21
-124.981
  0
LINE
  8
0
 10
-2.18155
 20
-124.981
 11
0
 21
-125
  0
LINE
  8
0
 10
0
 20
-125
 11
2.18155
 21
-124.981
  0
LINE
  8
0
 10
-27
 20
65
 11
-27
 21
108
  0
LINE
  8
0
 10
-27
 20
108
 11
27
 21
108
  0
LINE
  8
0
 10
27
 20
108
 11
27
 21
65
  0
LINE
  8
0
 10
27
 20
65
 11
-27
 21
65
  0
LINE
  8
0
 10
35
 20
105
 11
35
 21
107
  0
LINE
  8
0
 10
35
 20
107
 11
40
 21
107
  0
LINE
  8
0
 10
40
 20
107
 11
40
 21
105
  0
LINE
  8
0
 10
40
 20
105
 11
35
 21
105
  0
LINE
  8
0
 10
-40
 20
105
 11
-40
 21
107
  0
LINE
  8
0
 10
-40
 20
107
 11
-35
 21
107
  0
LINE
  8
0
 10
-35
 20
107
 11
-35
 21
105
  0
LINE
  8
0
 10
-35
 20
105
 11
-40
 21
105
  0
LINE
  8
0
 10
-70.1745
 20
50.0015
 11
-70.349
 21
50.0061
  0
LINE
  8
0
 10
-70.349
 20
50.0061
 11
-70.5234
 21
50.0137
  0
LINE
  8
0
 10
-70.5234
 20
50.0137
 11
-70.6976
 21
50.0244
  0
LINE
  8
0
 10
-70.6976
 20
50.0244
 11
-70.8716
 21
50.038
  0
LINE
  8
0
 10
-70.8716
 20
50.038
 11
-71.0453
 21
50.0548
  0
LINE
  8
0
 10
-71.0453
 20
50.0548
 11
-71.2187
 21
50.0745
  0
LINE
  8
0
 10
-71.2187
 20
50.0745
 11
-71.3917
 21
50.0973
  0
LINE
  8
0
 10
-71.3917
 20
50.0973
 11
-71.5643
 21
50.1231
  0
LINE
  8
0
 10
-71.5643
 20
50.1231
 11
-71.7365
 21
50.1519
  0
LINE
  8
0
 10
-71.7365
 20
50.1519
 11
-71.9081
 21
50.1837
  0
LINE
  8
0
 10
-71.9081
 20
50.1837
 11
-72.0791
 21
50.2185
  0
LINE
  8
0
 10
-72.0791
 20
50.2185
 11
-72.2495
 21
50.2563
  0
LINE
  8
0
 10
-72.2495
 20
50.2563
 11
-72.4192
 21
50.297
  0
LINE
  8
0
 10
-72.4192
 20
50.297
 11
-72.5882
 21
50.3407
  0
LINE
  8
0
 10
-72.5882
 20
50.3407
 11
-72.7564
 21
50.3874
  0
LINE
  8
0
 10
-72.7564
 20
50.3874
 11
-72.9237
 21
50.437
  0
LINE
  8
0
 10
-72.9237
 20
50.437
 11
-73.0902
 21
50.4894
  0
LINE
  8
0
 10
-73.0902
 20
50.4894
 11
-73.2557
 21
50.5448
  0
LINE
  8
0
 10
-73.2557
 20
50.5448
 11
-73.4202
 21
50.6031
  0
LINE
  8
0
 10
-73.4202
 20
50.6031
 11
-73.5837
 21
50.6642
  0
LINE
  8
0
 10
-73.5837
 20
50.6642
 11
-73.7461
 21
50.7281
  0
LINE
  8
0
 10
-73.7461
 20
50.7281
 11
-73.9073
 21
50.795
  0
LINE
  8
0
 10
-73.9073
 20
50.795
 11
-74.0674
 21
50.8645
  0
LINE
  8
0
 10
-74.0674
 20
50.8645
 11
-74.2262
 21
50.9369
  0
LINE
  8
0
 10
-74.2262
 20
50.9369
 11
-74.3837
 21
51.0121
  0
LINE
  8
0
 10
-74.3837
 20
51.0121
 11
-74.5399
 21
51.0899
  0
LINE
  8
0
 10
-74.5399
 20
51.0899
 11
-74.6947
 21
51.1705
  0
LINE
  8
0
 10
-74.6947
 20
51.1705
 11
-74.8481
 21
51.2538
  0
LINE
  8
0
 10
-74.8481
 20
51.2538
 11
-75
 21
51.3397
  0
LINE
  8
0
 10
-75
 20
51.3397
 11
-75.1504
 21
51.4283
  0
LINE
  8
0
 10
-75.1504
 20
51.4283
 11
-75.2992
 21
51.5195
  0
LINE
  8
0
 10
-75.2992
 20
51.5195
 11
-75.4464
 21
51.6133
  0
LINE
  8
0
 10
-75.4464
 20
51.6133
 11
-75.5919
 21
51.7096
  0
LINE
  8
0
 10
-75.5919
 20
51.7096
 11
-75.7358
 21
51.8085
  0
LINE
  8
0
 10
-75.7358
 20
51.8085
 11
-75.8779
 21
51.9098
  0
LINE
  8
0
 10
-75.8779
 20
51.9098
 11
-76.0181
 21
52.0136
  0
LINE
  8
0
 10
-76.0181
 20
52.0136
 11
-76.1566
 21
52.1199
  0
LINE
  8
0
 10
-76.1566
 20
52.1199
 11
-76.2932
 21
52.2285
  0
LINE
  8
0
 10
-76.2932
 20
52.2285
 11
-76.4279
 21
52.3396
  0
LINE
  8
0
 10
-76.4279
 20
52.3396
 11
-76.5606
 21
52.4529
  0
LINE
  8
0
 10
-76.5606
 20
52.4529
 11
-76.6913
 21
52.5685
  0
LINE
  8
0
 10
-76.6913
 20
52.5685
 11
-76.82
 21
52.6865
  0
LINE
  8
0
 10
-76.82
 20
52.6865
 11
-76.9466
 21
52.8066
  0
LINE
  8
0
 10
-76.9466
 20
52.8066
 11
-77.0711
 21
52.9289
  0
LINE
  8
0
 10
-77.0711
 20
52.9289
 11
-77.1934
 21
53.0534
  0
LINE
  8
0
 10
-77.1934
 20
53.0534
 11
-77.3135
 21
53.18
  0
LINE
  8
0
 10
-77.3135
 20
53.18
 11
-77.4314
 21
53.3087
  0
LINE
  8
0
 10
-77.4314
 20
53.3087
 11
-77.5471
 21
53.4394
  0
LINE
  8
0
 10
-77.5471
 20
53.4394
 11
-77.6604
 21
53.5721
  0
LINE
  8
0
 10
-77.6604
 20
53.5721
 11
-77.7715
 21
53.7068
  0
LINE
  8
0
 10
-77.7715
 20
53.7068
 11
-77.8801
 21
53.8434
  0
LINE
  8
0
 10
-77.8801
 20
53.8434
 11
-77.9864
 21
53.9818
  0
LINE
  8
0
 10
-77.9864
 20
53.9818
 11
-78.0902
 21
54.1221
  0
LINE
  8
0
 10
-78.0902
 20
54.1221
 11
-78.1915
 21
54.2642
  0
LINE
  8
0
 10
-78.1915
 20
54.2642
 11
-78.2904
 21
54.4081
  0
LINE
  8
0
 10
-78.2904
 20
54.4081
 11
-78.3867
 21
54.5536
  0
LINE
  8
0
 10
-78.3867
 20
54.5536
 11
-78.4805
 21
54.7008
  0
LINE
  8
0
 10
-78.4805
 20
54.7008
 11
-78.5717
 21
54.8496
  0
LINE
  8
0
 10
-78.5717
 20
54.8496
 11
-78.6602
 21
55
  0
LINE
  8
0
 10
-78.6602
 20
55
 11
-78.7462
 21
55.1519
  0
LINE
  8
0
 10
-78.7462
 20
55.1519
 11
-78.8295
 21
55.3053
  0
LINE
  8
0
 10
-78.8295
 20
55.3053
 11
-78.9101
 21
55.4601
  0
LINE
  8
0
 10
-78.9101
 20
55.4601
 11
-78.9879
 21
55.6163
  0
LINE
  8
0
 10
-78.9879
 20
55.6163
 11
-79.0631
 21
55.7738
  0
LINE
  8
0
 10
-79.0631
 20
55.7738
 11
-79.1355
 21
55.9326
  0
LINE
  8
0
 10
-79.1355
 20
55.9326
 11
-79.205
 21
56.0927
  0
LINE
  8
0
 10
-79.205
 20
56.0927
 11
-79.2718
 21
56.2539
  0
LINE
  8
0
 10
-79.2718
 20
56.2539
 11
-79.3358
 21
56.4163
  0
LINE
  8
0
 10
-79.3358
 20
56.4163
 11
-79.3969
 21
56.5798
  0
LINE
  8
0
 10
-79.3969
 20
56.5798
 11
-79.4552
 21
56.7443
  0
LINE
  8
0
 10
-79.4552
 20
56.7443
 11
-79.5106
 21
56.9098
  0
LINE
  8
0
 10
-79.5106
 20
56.9098
 11
-79.563
 21
57.0763
  0
LINE
  8
0
 10
-79.563
 20
57.0763
 11
-79.6126
 21
57.2436
  0
LINE
  8
0
 10
-79.6126
 20
57.2436
 11
-79.6593
 21
57.4118
  0
LINE
  8
0
 10
-79.6593
 20
57.4118
 11
-79.703
 21
57.5808
  0
LINE
  8
0
 10
-79.703
 20
57.5808
 11
-79.7437
 21
57.7505
  0
LINE
  8
0
 10
-79.7437
 20
57.7505
 11
-79.7815
 21
57.9209
  0
LINE
  8
0
 10
-79.7815
 20
57.9209
 11
-79.8163
 21
58.0919
  0
LINE
  8
0
 10
-79.8163
 20
58.0919
 11
-79.8481
 21
58.2635
  0
LINE
  8
0
 10
-79.8481
 20
58.2635
 11
-79.8769
 21
58.4357
  0
LINE
  8
0
 10
-79.8769
 20
58.4357
 11
-79.9027
 21
58.6083
  0
LINE
  8
0
 10
-79.9027
 20
58.6083
 11
-79.9255
 21
58.7813
  0
LINE
  8
0
 10
-79.9255
 20
58.7813
 11
-79.9452
 21
58.9547
  0
LINE
  8
0
 10
-79.9452
 20
58.9547
 11
-79.9619
 21
59.1284
  0
LINE
  8
0
 10
-79.9619
 20
59.1284
 11
-79.9756
 21
59.3024
  0
LINE
  8
0
 10
-79.9756
 20
59.3024
 11
-79.9863
 21
59.4766
  0
LINE
  8
0
 10
-79.9863
 20
59.4766
 11
-79.9939
 21
59.651
  0
LINE
  8
0
 10
-79.9939
 20
59.651
 11
-79.9985
 21
59.8255
  0
LINE
  8
0
 10
-79.9985
 20
59.8255
 11
-80
 21
60
  0
LINE
  8
0
 10
-80
 20
60
 11
-79.9985
 21
60.1745
  0
LINE
  8
0
 10
-79.9985
 20
60.1745
 11
-79.9939
 21
60.349
  0
LINE
  8
0
 10
-79.9939
 20
60.349
 11
-79.9863
 21
60.5234
  0
LINE
  8
0
 10
-79.9863
 20
60.5234
 11
-79.9756
 21
60.6976
  0
LINE
  8
0
 10
-79.9756
 20
60.6976
 11
-79.9619
 21
60.8716
  0
LINE
  8
0
 10
-79.9619
 20
60.8716
 11
-79.9452
 21
61.0453
  0
LINE
  8
0
 10
-79.9452
 20
61.0453
 11
-79.9255
 21
61.2187
  0
LINE
  8
0
 10
-79.9255
 20
61.2187
 11
-79.9027
 21
61.3917
  0
LINE
  8
0
 10
-79.9027
 20
61.3917
 11
-79.8769
 21
61.5643
  0
LINE
  8
0
 10
-79.8769
 20
61.5643
 11
-79.8481
 21
61.7365
  0
LINE
  8
0
 10
-79.8481
 20
61.7365
 11
-79.8163
 21
61.9081
  0
LINE
  8
0
 10
-79.8163
 20
61.9081
 11
-79.7815
 21
62.0791
  0
LINE
  8
0
 10
-79.7815
 20
62.0791
 11
-79.7437
 21
62.2495
  0
LINE
  8
0
 10
-79.7437
 20
62.2495
 11
-79.703
 21
62.4192
  0
LINE
  8
0
 10
-79.703
 20
62.4192
 11
-79.6593
 21
62.5882
  0
LINE
  8
0
 10
-79.6593
 20
62.5882
 11
-79.6126
 21
62.7564
  0
LINE
  8
0
 10
-79.6126
 20
62.7564
 11
-79.563
 21
62.9237
  0
LINE
  8
0
 10
-79.563
 20
62.9237
 11
-79.5106
 21
63.0902
  0
LINE
  8
0
 10
-79.5106
 20
63.0902
 11
-79.4552
 21
63.2557
  0
LINE
  8
0
 10
-79.4552
 20
63.2557
 11
-79.3969
 21
63.4202
  0
LINE
  8
0
 10
-79.3969
 20
63.4202
 11
-79.3358
 21
63.5837
  0
LINE
  8
0
 10
-79.3358
 20
63.5837
 11
-79.2718
 21
63.7461
  0
LINE
  8
0
 10
-79.2718
 20
63.7461
 11
-79.205
 21
63.9073
  0
LINE
  8
0
 10
-79.205
 20
63.9073
 11
-79.1355
 21
64.0674
  0
LINE
  8
0
 10
-79.1355
 20
64.0674
 11
-79.0631
 21
64.2262
  0
LINE
  8
0
 10
-79.0631
 20
64.2262
 11
-78.9879
 21
64.3837
  0
LINE
  8
0
 10
-78.9879
 20
64.3837
 11
-78.9101
 21
64.5399
  0
LINE
  8
0
 10
-78.9101
 20
64.5399
 11
-78.8295
 21
64.6947
  0
LINE
  8
0
 10
-78.8295
 20
64.6947
 11
-78.7462
 21
64.8481
  0
LINE
  8
0
 10
-78.7462
 20
64.8481
 11
-78.6602
 21
65
  0
LINE
  8
0
 10
-78.6602
 20
65
 11
-78.5717
 21
65.1504
  0
LINE
  8
0
 10
-78.5717
 20
65.1504
 11
-78.4805
 21
65.2992
  0
LINE
  8
0
 10
-78.4805
 20
65.2992
 11
-78.3867
 21
65.4464
  0
LINE
  8
0
 10
-78.3867
 20
65.4464
 11
-78.2904
 21
65.5919
  0
LINE
  8
0
 10
-78.2904
 20
65.5919
 11
-78.1915
 21
65.7358
  0
LINE
  8
0
 10
-78.1915
 20
65.7358
 11
-78.0902
 21
65.8779
  0
LINE
  8
0
 10
-78.0902
 20
65.8779
 11
-77.9864
 21
66.0181
  0
LINE
  8
0
 10
-77.9864
 20
66.0181
 11
-77.8801
 21
66.1566
  0
LINE
  8
0
 10
-77.8801
 20
66.1566
 11
-77.7715
 21
66.2932
  0
LINE
  8
0
 10
-77.7715
 20
66.2932
 11
-77.6604
 21
66.4279
  0
LINE
  8
0
 10
-77.6604
 20
66.4279
 11
-77.5471
 21
66.5606
  0
LINE
  8
0
 10
-77.5471
 20
66.5606
 11
-77.4314
 21
66.6913
  0
LINE
  8
0
 10
-77.4314
 20
66.6913
 11
-77.3135
 21
66.82
  0
LINE
  8
0
 10
-77.3135
 20
66.82
 11
-77.1934
 21
66.9466
  0
LINE
  8
0
 10
-77.1934
 20
66.9466
 11
-77.0711
 21
67.0711
  0
LINE
  8
0
 10
-77.0711
 20
67.0711
 11
-76.9466
 21
67.1934
  0
LINE
  8
0
 10
-76.9466
 20
67.1934
 11
-76.82
 21
67.3135
  0
LINE
  8
0
 10
-76.82
 20
67.3135
 11
-76.6913
 21
67.4314
  0
LINE
  8
0
 10
-76.6913
 20
67.4314
 11
-76.5606
 21
67.5471
  0
LINE
  8
0
 10
-76.5606
 20
67.5471
 11
-76.4279
 21
67.6604
  0
LINE
  8
0
 10
-76.4279
 20
67.6604
 11
-76.2932
 21
67.7715
  0
LINE
  8
0
 10
-76.2932
 20
67.7715
 11
-76.1566
 21
67.8801
  0
LINE
  8
0
 10
-76.1566
 20
67.8801
 11
-76.0181
 21
67.9864
  0
LINE
  8
0
 10
-76.0181
 20
67.9864
 11
-75.8779
 21
68.0902
  0
LINE
  8
0
 10
-75.8779
 20
68.0902
 11
-75.7358
 21
68.1915
  0
LINE
  8
0
 10
-75.7358
 20
68.1915
 11
-75.5919
 21
68.2904
  0
LINE
  8
0
 10
-75.5919
 20
68.2904
 11
-75.4464
 21
68.3867
  0
LINE
  8
0
 10
-75.4464
 20
68.3867
 11
-75.2992
 21
68.4805
  0
LINE
  8
0
 10
-75.2992
 20
68.4805
 11
-75.1504
 21
68.5717
  0
LINE
  8
0
 10
-75.1504
 20
68.5717
 11
-75
 21
68.6602
  0
LINE
  8
0
 10
-75
 20
68.6602
 11
-74.8481
 21
68.7462
  0
LINE
  8
0
 10
-74.8481
 20
68.7462
 11
-74.6947
 21
68.8295
  0
LINE
  8
0
 10
-74.6947
 20
68.8295
 11
-74.5399
 21
68.9101
  0
LINE
  8
0
 10
-74.5399
 20
68.9101
 11
-74.3837
 21
68.9879
  0
LINE
  8
0
 10
-74.3837
 20
68.9879
 11
-74.2262
 21
69.0631
  0
LINE
  8
0
 10
-74.2262
 20
69.0631
 11
-74.0674
 21
69.1355
  0
LINE
  8
0
 10
-74.0674
 20
69.1355
 11
-73.9073
 21
69.205
  0
LINE
  8
0
 10
-73.9073
 20
69.205
 11
-73.7461
 21
69.2718
  0
LINE
  8
0
 10
-73.7461
 20
69.2718
 11
-73.5837
 21
69.3358
  0
LINE
  8
0
 10
-73.5837
 20
69.3358
 11
-73.4202
 21
69.3969
  0
LINE
  8
0
 10
-73.4202
 20
69.3969
 11
-73.2557
 21
69.4552
  0
LINE
  8
0
 10
-73.2557
 20
69.4552
 11
-73.0902
 21
69.5106
  0
LINE
  8
0
 10
-73.0902
 20
69.5106
 11
-72.9237
 21
69.563
  0
LINE
  8
0
 10
-72.9237
 20
69.563
 11
-72.7564
 21
69.6126
  0
LINE
  8
0
 10
-72.7564
 20
69.6126
 11
-72.5882
 21
69.6593
  0
LINE
  8
0
 10
-72.5882
 20
69.6593
 11
-72.4192
 21
69.703
  0
LINE
  8
0
 10
-72.4192
 20
69.703
 11
-72.2495
 21
69.7437
  0
LINE
  8
0
 10
-72.2495
 20
69.7437
 11
-72.0791
 21
69.7815
  0
LINE
  8
0
 10
-72.0791
 20
69.7815
 11
-71.9081
 21
69.8163
  0
LINE
  8
0
 10
-71.9081
 20
69.8163
 11
-71.7365
 21
69.8481
  0
LINE
  8
0
 10
-71.7365
 20
69.8481
 11
-71.5643
 21
69.8769
  0
LINE
  8
0
 10
-71.5643
 20
69.8769
 11
-71.3917
 21
69.9027
  0
LINE
  8
0
 10
-71.3917
 20
69.9027
 11
-71.2187
 21
69.9255
  0
LINE
  8
0
 10
-71.2187
 20
69.9255
 11
-71.0453
 21
69.9452
  0
LINE
  8
0
 10
-71.0453
 20
69.9452
 11
-70.8716
 21
69.9619
  0
LINE
  8
0
 10
-70.8716
 20
69.9619
 11
-70.6976
 21
69.9756
  0
LINE
  8
0
 10
-70.6976
 20
69.9756
 11
-70.5234
 21
69.9863
  0
LINE
  8
0
 10
-70.5234
 20
69.9863
 11
-70.349
 21
69.9939
  0
LINE
  8
0
 10
-70.349
 20
69.9939
 11
-70.1745
 21
69.9985
  0
LINE
  8
0
 10
-70.1745
 20
69.9985
 11
-70
 21
70
  0
LINE
  8
0
 10
-70
 20
70
 11
-69.8255
 21
69.9985
  0
LINE
  8
0
 10
-69.8255
 20
69.9985
 11
-69.651
 21
69.9939
  0
LINE
  8
0
 10
-69.651
 20
69.9939
 11
-69.4766
 21
69.9863
  0
LINE
  8
0
 10
-69.4766
 20
69.9863
 11
-69.3024
 21
69.9756
  0
LINE
  8
0
 10
-69.3024
 20
69.9756
 11
-69.1284
 21
69.9619
  0
LINE
  8
0
 10
-69.1284
 20
69.9619
 11
-68.9547
 21
69.9452
  0
LINE
  8
0
 10
-68.9547
 20
69.9452
 11
-68.7813
 21
69.9255
  0
LINE
  8
0
 10
-68.7813
 20
69.9255
 11
-68.6083
 21
69.9027
  0
LINE
  8
0
 10
-68.6083
 20
69.9027
 11
-68.4357
 21
69.8769
  0
LINE
  8
0
 10
-68.4357
 20
69.8769
 11
-68.2635
 21
69.8481
  0
LINE
  8
0
 10
-68.2635
 20
69.8481
 11
-68.0919
 21
69.8163
  0
LINE
  8
0
 10
-68.0919
 20
69.8163
 11
-67.9209
 21
69.7815
  0
LINE
  8
0
 10
-67.9209
 20
69.7815
 11
-67.7505
 21
69.7437
  0
LINE
  8
0
 10
-67.7505
 20
69.7437
 11
-67.5808
 21
69.703
  0
LINE
  8
0
 10
-67.5808
 20
69.703
 11
-67.4118
 21
69.6593
  0
LINE
  8
0
 10
-67.4118
 20
69.6593
 11
-67.2436
 21
69.6126
  0
LINE
  8
0
 10
-67.2436
 20
69.6126
 11
-67.0763
 21
69.563
  0
LINE
  8
0
 10
-67.0763
 20
69.563
 11
-66.9098
 21
69.5106
  0
LINE
  8
0
 10
-66.9098
 20
69.5106
 11
-66.7443
 21
69.4552
  0
LINE
  8
0
 10
-66.7443
 20
69.4552
 11
-66.5798
 21
69.3969
  0
LINE
  8
0
 10
-66.5798
 20
69.3969
 11
-66.4163
 21
69.3358
  0
LINE
  8
0
 10
-66.4163
 20
69.3358
 11
-66.2539
 21
69.2718
  0
LINE
  8
0
 10
-66.2539
 20
69.2718
 11
-66.0927
 21
69.205
  0
LINE
  8
0
 10
-66.0927
 20
69.205
 11
-65.9326
 21
69.1355
  0
LINE
  8
0
 10
-65.9326
 20
69.1355
 11
-65.7738
 21
69.0631
  0
LINE
  8
0
 10
-65.7738
 20
69.0631
 11
-65.6163
 21
68.9879
  0
LINE
  8
0
 10
-65.6163
 20
68.9879
 11
-65.4601
 21
68.9101
  0
LINE
  8
0
 10
-65.4601
 20
68.9101
 11
-65.3053
 21
68.8295
  0
LINE
  8
0
 10
-65.3053
 20
68.8295
 11
-65.1519
 21
68.7462
  0
LINE
  8
0
 10
-65.1519
 20
68.7462
 11
-65
 21
68.6602
  0
LINE
  8
0
 10
-65
 20
68.6602
 11
-64.8496
 21
68.5717
  0
LINE
  8
0
 10
-64.8496
 20
68.5717
 11
-64.7008
 21
68.4805
  0
LINE
  8
0
 10
-64.7008
 20
68.4805
 11
-64.5536
 21
68.3867
  0
LINE
  8
0
 10
-64.5536
 20
68.3867
 11
-64.4081
 21
68.2904
  0
LINE
  8
0
 10
-64.4081
 20
68.2904
 11
-64.2642
 21
68.1915
  0
LINE
  8
0
 10
-64.2642
 20
68.1915
 11
-64.1221
 21
68.0902
  0
LINE
  8
0
 10
-64.1221
 20
68.0902
 11
-63.9818
 21
67.9864
  0
LINE
  8
0
 10
-63.9818
 20
67.9864
 11
-63.8434
 21
67.8801
  0
LINE
  8
0
 10
-63.8434
 20
67.8801
 11
-63.7068
 21
67.7715
  0
LINE
  8
0
 10
-63.7068
 20
67.7715
 11
-63.5721
 21
67.6604
  0
LINE
  8
0
 10
-63.5721
 20
67.6604
 11
-63.4394
 21
67.5471
  0
LINE
  8
0
 10
-63.4394
 20
67.5471
 11
-63.3087
 21
67.4314
  0
LINE
  8
0
 10
-63.3087
 20
67.4314
 11
-63.18
 21
67.3135
  0
LINE
  8
0
 10
-63.18
 20
67.3135
 11
-63.0534
 21
67.1934
  0
LINE
  8
0
 10
-63.0534
 20
67.1934
 11
-62.9289
 21
67.0711
  0
LINE
  8
0
 10
-62.9289
 20
67.0711
 11
-62.8066
 21
66.9466
  0
LINE
  8
0
 10
-62.8066
 20
66.9466
 11
-62.6865
 21
66.82
  0
LINE
  8
0
 10
-62.6865
 20
66.82
 11
-62.5685
 21
66.6913
  0
LINE
  8
0
 10
-62.5685
 20
66.6913
 11
-62.4529
 21
66.5606
  0
LINE
  8
0
 10
-62.4529
 20
66.5606
 11
-62.3396
 21
66.4279
  0
LINE
  8
0
 10
-62.3396
 20
66.4279
 11
-62.2285
 21
66.2932
  0
LINE
  8
0
 10
-62.2285
 20
66.2932
 11
-62.1199
 21
66.1566
  0
LINE
  8
0
 10
-62.1199
 20
66.1566
 11
-62.0136
 21
66.0181
  0
LINE
  8
0
 10
-62.0136
 20
66.0181
 11
-61.9098
 21
65.8779
  0
LINE
  8
0
 10
-61.9098
 20
65.8779
 11
-61.8085
 21
65.7358
  0
LINE
  8
0
 10
-61.8085
 20
65.7358
 11
-61.7096
 21
65.5919
  0
LINE
  8
0
 10
-61.7096
 20
65.5919
 11
-61.6133
 21
65.4464
  0
LINE
  8
0
 10
-61.6133
 20
65.4464
 11
-61.5195
 21
65.2992
  0
LINE
  8
0
 10
-61.5195
 20
65.2992
 11
-61.4283
 21
65.1504
  0
LINE
  8
0
 10
-61.4283
 20
65.1504
 11
-61.3397
 21
65
  0
LINE
  8
0
 10
-61.3397
 20
65
 11
-61.2538
 21
64.8481
  0
LINE
  8
0
 10
-61.2538
 20
64.8481
 11
-61.1705
 21
64.6947
  0
LINE
  8
0
 10
-61.1705
 20
64.6947
 11
-61.0899
 21
64.5399
  0
LINE
  8
0
 10
-61.0899
 20
64.5399
 11
-61.0121
 21
64.3837
  0
LINE
  8
0
 10
-61.0121
 20
64.3837
 11
-60.9369
 21
64.2262
  0
LINE
  8
0
 10
-60.9369
 20
64.2262
 11
-60.8645
 21
64.0674
  0
LINE
  8
0
 10
-60.8645
 20
64.0674
 11
-60.795
 21
63.9073
  0
LINE
  8
0
 10
-60.795
 20
63.9073
 11
-60.7281
 21
63.7461
  0
LINE
  8
0
 10
-60.7281
 20
63.7461
 11
-60.6642
 21
63.5837
  0
LINE
  8
0
 10
-60.6642
 20
63.5837
 11
-60.6031
 21
63.4202
  0
LINE
  8
0
 10
-60.6031
 20
63.4202
 11
-60.5448
 21
63.2557
  0
LINE
  8
0
 10
-60.5448
 20
63.2557
 11
-60.4894
 21
63.0902
  0
LINE
  8
0
 10
-60.4894
 20
63.0902
 11
-60.437
 21
62.9237
  0
LINE
  8
0
 10
-60.437
 20
62.9237
 11
-60.3874
 21
62.7564
  0
LINE
  8
0
 10
-60.3874
 20
62.7564
 11
-60.3407
 21
62.5882
  0
LINE
  8
0
 10
-60.3407
 20
62.5882
 11
-60.297
 21
62.4192
  0
LINE
  8
0
 10
-60.297
 20
62.4192
 11
-60.2563
 21
62.2495
  0
LINE
  8
0
 10
-60.2563
 20
62.2495
 11
-60.2185
 21
62.0791
  0
LINE
  8
0
 10
-60.2185
 20
62.0791
 11
-60.1837
 21
61.9081
  0
LINE
  8
0
 10
-60.1837
 20
61.9081
 11
-60.1519
 21
61.7365
  0
LINE
  8
0
 10
-60.1519
 20
61.7365
 11
-60.1231
 21
61.5643
  0
LINE
  8
0
 10
-60.1231
 20
61.5643
 11
-60.0973
 21
61.3917
  0
LINE
  8
0
 10
-60.0973
 20
61.3917
 11
-60.0745
 21
61.2187
  0
LINE
  8
0
 10
-60.0745
 20
61.2187
 11
-60.0548
 21
61.0453
  0
LINE
  8
0
 10
-60.0548
 20
61.0453
 11
-60.038
 21
60.8716
  0
LINE
  8
0
 10
-60.038
 20
60.8716
 11
-60.0244
 21
60.6976
  0
LINE
  8
0
 10
-60.0244
 20
60.6976
 11
-60.0137
 21
60.5234
  0
LINE
  8
0
 10
-60.0137
 20
60.5234
 11
-60.0061
 21
60.349
  0
LINE
  8
0
 10
-60.0061
 20
60.349
 11
-60.0015
 21
60.1745
  0
LINE
  8
0
 10
-60.0015
 20
60.1745
 11
-60
 21
60
  0
LINE
  8
0
 10
-60
 20
60
 11
-60.0015
 21
59.8255
  0
LINE
  8
0
 10
-60.0015
 20
59.8255
 11
-60.0061
 21
59.651
  0
LINE
  8
0
 10
-60.0061
 20
59.651
 11
-60.0137
 21
59.4766
  0
LINE
  8
0
 10
-60.0137
 20
59.4766
 11
-60.0244
 21
59.3024
  0
LINE
  8
0
 10
-60.0244
 20
59.3024
 11
-60.038
 21
59.1284
  0
LINE
  8
0
 10
-60.038
 20
59.1284
 11
-60.0548
 21
58.9547
  0
LINE
  8
0
 10
-60.0548
 20
58.9547
 11
-60.0745
 21
58.7813
  0
LINE
  8
0
 10
-60.0745
 20
58.7813
 11
-60.0973
 21
58.6083
  0
LINE
  8
0
 10
-60.0973
 20
58.6083
 11
-60.1231
 21
58.4357
  0
LINE
  8
0
 10
-60.1231
 20
58.4357
 11
-60.1519
 21
58.2635
  0
LINE
  8
0
 10
-60.1519
 20
58.2635
 11
-60.1837
 21
58.0919
  0
LINE
  8
0
 10
-60.1837
 20
58.0919
 11
-60.2185
 21
57.9209
  0
LINE
  8
0
 10
-60.2185
 20
57.9209
 11
-60.2563
 21
57.7505
  0
LINE
  8
0
 10
-60.2563
 20
57.7505
 11
-60.297
 21
57.5808
  0
LINE
  8
0
 10
-60.297
 20
57.5808
 11
-60.3407
 21
57.4118
  0
LINE
  8
0
 10
-60.3407
 20
57.4118
 11
-60.3874
 21
57.2436
  0
LINE
  8
0
 10
-60.3874
 20
57.2436
 11
-60.437
 21
57.0763
  0
LINE
  8
0
 10
-60.437
 20
57.0763
 11
-60.4894
 21
56.9098
  0
LINE
  8
0
 10
-60.4894
 20
56.9098
 11
-60.5448
 21
56.7443
  0
LINE
  8
0
 10
-60.5448
 20
56.7443
 11
-60.6031
 21
56.5798
  0
LINE
  8
0
 10
-60.6031
 20
56.5798
 11
-60.6642
 21
56.4163
  0
LINE
  8
0
 10
-60.6642
 20
56.4163
 11
-60.7281
 21
56.2539
  0
LINE
  8
0
 10
-60.7281
 20
56.2539
 11
-60.795
 21
56.0927
  0
LINE
  8
0
 10
-60.795
 20
56.0927
 11
-60.8645
 21
55.9326
  0
LINE
  8
0
 10
-60.8645
 20
55.9326
 11
-60.9369
 21
55.7738
  0
LINE
  8
0
 10
-60.9369
 20
55.7738
 11
-61.0121
 21
55.6163
  0
LINE
  8
0
 10
-61.0121
 20
55.6163
 11
-61.0899
 21
55.4601
  0
LINE
  8
0
 10
-61.0899
 20
55.4601
 11
-61.1705
 21
55.3053
  0
LINE
  8
0
 10
-61.1705
 20
55.3053
 11
-61.2538
 21
55.1519
  0
LINE
  8
0
 10
-61.2538
 20
55.1519
 11
-61.3397
 21
55
  0
LINE
  8
0
 10
-61.3397
 20
55
 11
-61.4283
 21
54.8496
  0
LINE
  8
0
 10
-61.4283
 20
54.8496
 11
-61.5195
 21
54.7008
  0
LINE
  8
0
 10
-61.5195
 20
54.7008
 11
-61.6133
 21
54.5536
  0
LINE
  8
0
 10
-61.6133
 20
54.5536
 11
-61.7096
 21
54.4081
  0
LINE
  8
0
 10
-61.7096
 20
54.4081
 11
-61.8085
 21
54.2642
  0
LINE
  8
0
 10
-61.8085
 20
54.2642
 11
-61.9098
 21
54.1221
  0
LINE
  8
0
 10
-61.9098
 20
54.1221
 11
-62.0136
 21
53.9818
  0
LINE
  8
0
 10
-62.0136
 20
53.9818
 11
-62.1199
 21
53.8434
  0
LINE
  8
0
 10
-62.1199
 20
53.8434
 11
-62.2285
 21
53.7068
  0
LINE
  8
0
 10
-62.2285
 20
53.7068
 11
-62.3396
 21
53.5721
  0
LINE
  8
0
 10
-62.3396
 20
53.5721
 11
-62.4529
 21
53.4394
  0
LINE
  8
0
 10
-62.4529
 20
53.4394
 11
-62.5685
 21
53.3087
  0
LINE
  8
0
 10
-62.5685
 20
53.3087
 11
-62.6865
 21
53.18
  0
LINE
  8
0
 10
-62.6865
 20
53.18
 11
-62.8066
 21
53.0534
  0
LINE
  8
0
 10
-62.8066
 20
53.0534
 11
-62.9289
 21
52.9289
  0
LINE
  8
0
 10
-62.9289
 20
52.9289
 11
-63.0534
 21
52.8066
  0
LINE
  8
0
 10
-63.0534
 20
52.8066
 11
-63.18
 21
52.6865
  0
LINE
  8
0
 10
-63.18
 20
52.6865
 11
-63.3087
 21
52.5685
  0
LINE
  8
0
 10
-63.3087
 20
52.5685
 11
-63.4394
 21
52.4529
  0
LINE
  8
0
 10
-63.4394
 20
52.4529
 11
-63.5721
 21
52.3396
  0
LINE
  8
0
 10
-63.5721
 20
52.3396
 11
-63.7068
 21
52.2285
  0
LINE
  8
0
 10
-63.7068
 20
52.2285
 11
-63.8434
 21
52.1199
  0
LINE
  8
0
 10
-63.8434
 20
52.1199
 11
-63.9818
 21
52.0136
  0
LINE
  8
0
 10
-63.9818
 20
52.0136
 11
-64.1221
 21
51.9098
  0
LINE
  8
0
 10
-64.1221
 20
51.9098
 11
-64.2642
 21
51.8085
  0
LINE
  8
0
 10
-64.2642
 20
51.8085
 11
-64.4081
 21
51.7096
  0
LINE
  8
0
 10
-64.4081
 20
51.7096
 11
-64.5536
 21
51.6133
  0
LINE
  8
0
 10
-64.5536
 20
51.6133
 11
-64.7008
 21
51.5195
  0
LINE
  8
0
 10
-64.7008
 20
51.5195
 11
-64.8496
 21
51.4283
  0
LINE
  8
0
 10
-64.8496
 20
51.4283
 11
-65
 21
51.3397
  0
LINE
  8
0
 10
-65
 20
51.3397
 11
-65.1519
 21
51.2538
  0
LINE
  8
0
 10
-65.1519
 20
51.2538
 11
-65.3053
 21
51.1705
  0
LINE
  8
0
 10
-65.3053
 20
51.1705
 11
-65.4601
 21
51.0899
  0
LINE
  8
0
 10
-65.4601
 20
51.0899
 11
-65.6163
 21
51.0121
  0
LINE
  8
0
 10
-65.6163
 20
51.0121
 11
-65.7738
 21
50.9369
  0
LINE
  8
0
 10
-65.7738
 20
50.9369
 11
-65.9326
 21
50.8645
  0
LINE
  8
0
 10
-65.9326
 20
50.8645
 11
-66.0927
 21
50.795
  0
LINE
  8
0
 10
-66.0927
 20
50.795
 11
-66.2539
 21
50.7281
  0
LINE
  8
0
 10
-66.2539
 20
50.7281
 11
-66.4163
 21
50.6642
  0
LINE
  8
0
 10
-66.4163
 20
50.6642
 11
-66.5798
 21
50.6031
  0
LINE
  8
0
 10
-66.5798
 20
50.6031
 11
-66.7443
 21
50.5448
  0
LINE
  8
0
 10
-66.7443
 20
50.5448
 11
-66.9098
 21
50.4894
  0
LINE
  8
0
 10
-66.9098
 20
50.4894
 11
-67.0763
 21
50.437
  0
LINE
  8
0
 10
-67.0763
 20
50.437
 11
-67.2436
 21
50.3874
  0
LINE
  8
0
 10
-67.2436
 20
50.3874
 11
-67.4118
 21
50.3407
  0
LINE
  8
0
 10
-67.4118
 20
50.3407
 11
-67.5808
 21
50.297
  0
LINE
  8
0
 10
-67.5808
 20
50.297
 11
-67.7505
 21
50.2563
  0
LINE
  8
0
 10
-67.7505
 20
50.2563
 11
-67.9209
 21
50.2185
  0
LINE
  8
0
 10
-67.9209
 20
50.2185
 11
-68.0919
 21
50.1837
  0
LINE
  8
0
 10
-68.0919
 20
50.1837
 11
-68.2635
 21
50.1519
  0
LINE
  8
0
 10
-68.2635
 20
50.1519
 11
-68.4357
 21
50.1231
  0
LINE
  8
0
 10
-68.4357
 20
50.1231
 11
-68.6083
 21
50.0973
  0
LINE
  8
0
 10
-68.6083
 20
50.0973
 11
-68.7813
 21
50.0745
  0
LINE
  8
0
 10
-68.7813
 20
50.0745
 11
-68.9547
 21
50.0548
  0
LINE
  8
0
 10
-68.9547
 20
50.0548
 11
-69.1284
 21
50.038
  0
LINE
  8
0
 10
-69.1284
 20
50.038
 11
-69.3024
 21
50.0244
  0
LINE
  8
0
 10
-69.3024
 20
50.0244
 11
-69.4766
 21
50.0137
  0
LINE
  8
0
 10
-69.4766
 20
50.0137
 11
-69.651
 21
50.0061
  0
LINE
  8
0
 10
-69.651
 20
50.0061
 11
-69.8255
 21
50.0015
  0
LINE
  8
0
 10
-69.8255
 20
50.0015
 11
-70
 21
50
  0
LINE
  8
0
 10
-70
 20
50
 11
-70.1745
 21
50.0015
  0
LINE
  8
0
 10
35
 20
65
 11
35
 21
67
  0
LINE
  8
0
 10
35
 20
67
 11
40
 21
67
  0
LINE
  8
0
 10
40
 20
67
 11
40
 21
65
  0
LINE
  8
0
 10
40
 20
65
 11
35
 21
65
  0
LINE
  8
0
 10
-40
 20
65
 11
-40
 21
67
  0
LINE
  8
0
 10
-40
 20
67
 11
-35
 21
67
  0
LINE
  8
0
 10
-35
 20
67
 11
-35
 21
65
  0
LINE
  8
0
 10
-35
 20
65
 11
-40
 21
65
  0
LINE
  8
0
 10
-45
 20
37
 11
-45
 21
56
  0
LINE
  8
0
 10
-45
 20
56
 11
45
 21
56
  0
LINE
  8
0
 10
45
 20
56
 11
45
 21
37
  0
LINE
  8
0
 10
45
 20
37
 11
-45
 21
37
  0
LINE
  8
0
 10
-100
 20
22
 11
-100
 21
30
  0
LINE
  8
0
 10
-100
 20
30
 11
-70
 21
30
  0
LINE
  8
0
 10
-70
 20
30
 11
-70
 21
22
  0
LINE
  8
0
 10
-70
 20
22
 11
-100
 21
22
  0
LINE
  8
0
 10
70
 20
22
 11
70
 21
30
  0
LINE
  8
0
 10
70
 20
30
 11
100
 21
30
  0
LINE
  8
0
 10
100
 20
30
 11
100
 21
22
  0
LINE
  8
0
 10
100
 20
22
 11
70
 21
22
  0
LINE
  8
0
 10
-42
 20
-22
 11
-42
 21
22
  0
LINE
  8
0
 10
-42
 20
22
 11
42
 21
22
  0
LINE
  8
0
 10
42
 20
22
 11
42
 21
-22
  0
LINE
  8
0
 10
42
 20
-22
 11
-42
 21
-22
  0
LINE
  8
0
 10
-100
 20
-30
 11
-100
 21
-22
  0
LINE
  8
0
 10
-100
 20
-22
 11
-70
 21
-22
  0
LINE
  8
0
 10
-70
 20
-22
 11
-70
 21
-30
  0
LINE
  8
0
 10
-70
 20
-30
 11
-100
 21
-30
  0
LINE
  8
0
 10
70
 20
-30
 11
70
 21
-22
  0
LINE
  8
0
 10
70
 20
-22
 11
100
 21
-22
  0
LINE
  8
0
 10
100
 20
-22
 11
100
 21
-30
  0
LINE
  8
0
 10
100
 20
-30
 11
70
 21
-30
  0
ENDSEC
  0
SECTION
  2
OBJECTS
  0
DICTIONARY
  0
ENDSEC
  0
EOF
