<?xml version="1.0" standalone="no"?>
<!DOCTYPE svg PUBLIC "-//W3C//DTD SVG 1.1//EN" "http://www.w3.org/Graphics/SVG/1.1/DTD/svg11.dtd">
<svg width="250mm" height="250mm" viewBox="-125 -125 250 250" xmlns="http://www.w3.org/2000/svg" version="1.1">
<title>OpenSCAD Model</title>
<path d="
M 2.18155,124.981 L 4.36243,124.924 L 6.54199,124.829 L 8.71956,124.695 L 10.8945,124.524 L 13.0661,124.315
 L 15.2337,124.068 L 17.3966,123.784 L 19.5543,123.461 L 21.706,123.101 L 23.8511,122.703 L 25.989,122.268
 L 28.1189,121.796 L 30.2402,121.287 L 32.3524,120.741 L 34.4547,120.158 L 36.5465,119.538 L 38.6271,118.882
 L 40.696,118.19 L 42.7525,117.462 L 44.796,116.698 L 46.8258,115.898 L 48.8414,115.063 L 50.8421,114.193
 L 52.8273,113.288 L 54.7964,112.349 L 56.7488,111.376 L 58.6839,110.368 L 60.6012,109.327 L 62.5,108.253
 L 64.3798,107.146 L 66.2399,106.006 L 68.0799,104.834 L 69.8991,103.63 L 71.6971,102.394 L 73.4732,101.127
 L 75.2269,99.8294 L 76.9577,98.5013 L 78.665,97.1432 L 80.3484,95.7556 L 82.0074,94.3387 L 83.6413,92.8931
 L 85.2498,91.4192 L 86.8323,89.9175 L 88.3884,88.3884 L 89.9175,86.8323 L 91.4192,85.2498 L 92.8931,83.6413
 L 94.3387,82.0074 L 95.7556,80.3484 L 97.1432,78.665 L 98.5013,76.9577 L 99.8294,75.2269 L 101.127,73.4732
 L 102.394,71.6971 L 103.63,69.8991 L 104.834,68.0799 L 106.006,66.2399 L 107.146,64.3798 L 108.253,62.5
 L 109.327,60.6012 L 110.368,58.6839 L 111.376,56.7488 L 112.349,54.7964 L 113.288,52.8273 L 114.193,50.8421
 L 115.063,48.8414 L 115.898,46.8258 L 116.698,44.796 L 117.462,42.7525 L 118.19,40.696 L 118.882,38.6271
 L 119.538,36.5465 L 120.158,34.4547 L 120.741,32.3524 L 121.287,30.2402 L 121.796,28.1189 L 122.268,25.989
 L 122.703,23.8511 L 123.101,21.706 L 123.461,19.5543 L 123.784,17.3966 L 124.068,15.2337 L 124.315,13.0661
 L 124.524,10.8945 L 124.695,8.71956 L 124.829,6.54199 L 124.924,4.36243 L 124.981,2.18155 L 125,-0
 L 124.981,-2.18155 L 124.924,-4.36243 L 124.829,-6.54199 L 124.695,-8.71956 L 124.524,-10.8945 L 124.315,-13.0661
 L 124.068,-15.2337 L 123.784,-17.3966 L 123.461,-19.5543 L 123.101,-21.706 L 122.703,-23.8511 L 122.268,-25.989
 L 121.796,-28.1189 L 121.287,-30.2402 L 120.741,-32.3524 L 120.158,-34.4547 L 119.538,-36.5465 L 118.882,-38.6271
 L 118.19,-40.696 L 117.462,-42.7525 L 116.698,-44.796 L 115.898,-46.8258 L 115.063,-48.8414 L 114.193,-50.8421
 L 113.288,-52.8273 L 112.349,-54.7964 L 111.376,-56.7488 L 110.368,-58.6839 L 109.327,-60.6012 L 108.253,-62.5
 L 107.146,-64.3798 L 106.006,-66.2399 L 104.834,-68.0799 L 103.63,-69.8991 L 102.394,-71.6971 L 101.127,-73.4732
 L 99.8294,-75.2269 L 98.5013,-76.9577 L 97.1432,-78.665 L 95.7556,-80.3484 L 94.3387,-82.0074 L 92.8931,-83.6413
 L 91.4192,-85.2498 L 89.9175,-86.8323 L 88.3884,-88.3884 L 86.8323,-89.9175 L 85.2498,-91.4192 L 83.6413,-92.8931
 L 82.0074,-94.3387 L 80.3484,-95.7556 L 78.665,-97.1432 L 76.9577,-98.5013 L 75.2269,-99.8294 L 73.4732,-101.127
 L 71.6971,-102.394 L 69.8991,-103.63 L 68.0799,-104.834 L 66.2399,-106.006 L 64.3798,-107.146 L 62.5,-108.253
 L 60.6012,-109.327 L 58.6839,-110.368 L 56.7488,-111.376 L 54.7964,-112.349 L 52.8273,-113.288 L 50.8421,-114.193
 L 48.8414,-115.063 L 46.8258,-115.898 L 44.796,-116.698 L 42.7525,-117.462 L 40.696,-118.19 L 38.6271,-118.882
 L 36.5465,-119.538 L 34.4547,-120.158 L 32.3524,-120.741 L 30.2402,-121.287 L 28.1189,-121.796 L 25.989,-122.268
 L 23.8511,-122.703 L 21.706,-123.101 L 19.5543,-123.461 L 17.3966,-123.784 L 15.2337,-124.068 L 13.0661,-124.315
 L 10.8945,-124.524 L 8.71956,-124.695 L 6.54199,-124.829 L 4.36243,-124.924 L 2.18155,-124.981 L 0,-125
 L -2.18155,-124.981 L -4.36243,-124.924 L -6.54199,-124.829 L -8.71956,-124.695 L -10.8945,-124.524 L -13.0661,-124.315
 L -15.2337,-124.068 L -17.3966,-123.784 L -19.5543,-123.461 L -21.706,-123.101 L -23.8511,-122.703 L -25.989,-122.268
 L -28.1189,-121.796 L -30.2402,-121.287 L -32.3524,-120.741 L -34.4547,-120.158 L -36.5465,-119.538 L -38.6271,-118.882
 L -40.696,-118.19 L -42.7525,-117.462 L -44.796,-116.698 L -46.8258,-115.898 L -48.8414,-115.063 L -50.8421,-114.193
 L -52.8273,-113.288 L -54.7964,-112.349 L -56.7488,-111.376 L -58.6839,-110.368 L -60.6012,-109.327 L -62.5,-108.253
 L -64.3798,-107.146 L -66.2399,-106.006 L -68.0799,-104.834 L -69.8991,-103.63 L -71.6971,-102.394 L -73.4732,-101.127
 L -75.2269,-99.8294 L -76.9577,-98.5013 L -78.665,-97.1432 L -80.3484,-95.7556 L -82.0074,-94.3387 L -83.6413,-92.8931
 L -85.2498,-91.4192 L -86.8323,-89.9175 L -88.3884,-88.3884 L -89.9175,-86.8323 L -91.4192,-85.2498 L -92.8931,-83.6413
 L -94.3387,-82.0074 L -95.7556,-80.3484 L -97.1432,-78.665 L -98.5013,-76.9577 L -99.8294,-75.2269 L -101.127,-73.4732
 L -102.394,-71.6971 L -103.63,-69.8991 L -104.834,-68.0799 L -106.006,-66.2399 L -107.146,-64.3798 L -108.253,-62.5
 L -109.327,-60.6012 L -110.368,-58.6839 L -111.376,-56.7488 L -112.349,-54.7964 L -113.288,-52.8273 L -114.193,-50.8421
 L -115.063,-48.8414 L -115.898,-46.8258 L -116.698,-44.796 L -117.462,-42.7525 L -118.19,-40.696 L -118.882,-38.6271
 L -119.538,-36.5465 L -120.158,-34.4547 L -120.741,-32.3524 L -121.287,-30.2402 L -121.796,-28.1189 L -122.268,-25.989
 L -122.703,-23.8511 L -123.101,-21.706 L -123.461,-19.5543 L -123.784,-17.3966 L -124.068,-15.2337 L -124.315,-13.0661
 L -124.524,-10.8945 L -124.695,-8.71956 L -124.829,-6.54199 L -124.924,-4.36243 L -124.981,-2.18155 L -125,-0
 L -124.981,2.18155 L -124.924,4.36243 L -124.829,6.54199 L -124.695,8.71956 L -124.524,10.8945 L -124.315,13.0661
 L -124.068,15.2337 L -123.784,17.3966 L -123.461,19.5543 L -123.101,21.706 L -122.703,23.8511 L -122.268,25.989
 L -121.796,28.1189 L -121.287,30.2402 L -120.741,32.3524 L -120.158,34.4547 L -119.538,36.5465 L -118.882,38.6271
 L -118.19,40.696 L -117.462,42.7525 L -116.698,44.796 L -115.898,46.8258 L -115.063,48.8414 L -114.193,50.8421
 L -113.288,52.8273 L -112.349,54.7964 L -111.376,56.7488 L -110.368,58.6839 L -109.327,60.6012 L -108.253,62.5
 L -107.146,64.3798 L -106.006,66.2399 L -104.834,68.0799 L -103.63,69.8991 L -102.394,71.6971 L -101.127,73.4732
 L -99.8294,75.2269 L -98.5013,76.9577 L -97.1432,78.665 L -95.7556,80.3484 L -94.3387,82.0074 L -92.8931,83.6413
 L -91.4192,85.2498 L -89.9175,86.8323 L -88.3884,88.3884 L -86.8323,89.9175 L -85.2498,91.4192 L -83.6413,92.8931
 L -82.0074,94.3387 L -80.3484,95.7556 L -78.665,97.1432 L -76.9577,98.5013 L -75.2269,99.8294 L -73.4732,101.127
 L -71.6971,102.394 L -69.8991,103.63 L -68.0799,104.834 L -66.2399,106.006 L -64.3798,107.146 L -62.5,108.253
 L -60.6012,109.327 L -58.6839,110.368 L -56.7488,111.376 L -54.7964,112.349 L -52.8273,113.288 L -50.8421,114.193
 L -48.8414,115.063 L -46.8258,115.898 L -44.796,116.698 L -42.7525,117.462 L -40.696,118.19 L -38.6271,118.882
 L -36.5465,119.538 L -34.4547,120.158 L -32.3524,120.741 L -30.2402,121.287 L -28.1189,121.796 L -25.989,122.268
 L -23.8511,122.703 L -21.706,123.101 L -19.5543,123.461 L -17.3966,123.784 L -15.2337,124.068 L -13.0661,124.315
 L -10.8945,124.524 L -8.71956,124.695 L -6.54199,124.829 L -4.36243,124.924 L -2.18155,124.981 L 0,125
 z
M 70,-22 L 70,-30 L 100,-30 L 100,-22 z
M -100,-22 L -100,-30 L -70,-30 L -70,-22 z
M 29.6879,1.50941 L 29.6617,1.48628 L 29.636,1.46269 L 29.6107,1.43867 L 29.5858,1.4142 L 29.5613,1.38931
 L 29.5373,1.36398 L 29.5137,1.33826 L 29.4906,1.3121 L 29.4679,1.28557 L 29.4457,1.25864 L 29.424,1.23131
 L 29.4027,1.20363 L 29.382,1.17557 L 29.3617,1.14714 L 29.3419,1.11838 L 29.3226,1.08926 L 29.3039,1.05983
 L 29.2857,1.03008 L 29.2679,1 L 29.2507,0.969604 L 29.2341,0.938934 L 29.218,0.907974 L 29.2024,0.87674
 L 29.1874,0.84523 L 29.1729,0.813461 L 29.159,0.781448 L 29.1456,0.749207 L 29.1328,0.716736 L 29.1206,0.684036
 L 29.109,0.651123 L 29.0979,0.618027 L 29.0874,0.584732 L 29.0775,0.55127 L 29.0681,0.517624 L 29.0594,0.483841
 L 29.0513,0.44989 L 29.0437,0.415817 L 29.0367,0.381607 L 29.0304,0.34729 L 29.0246,0.312866 L 29.0195,0.278336
 L 29.0149,0.243729 L 29.011,0.209045 L 29.0076,0.174301 L 29.0049,0.139511 L 29.0027,0.10466 L 29.0012,0.0697937
 L 29.0003,0.0348969 L 29,-0 L 29.0003,-0.0348969 L 29.0012,-0.0697937 L 29.0027,-0.10466 L 29.0049,-0.139511
 L 29.0076,-0.174301 L 29.011,-0.209045 L 29.0149,-0.243729 L 29.0195,-0.278336 L 29.0246,-0.312866 L 29.0304,-0.34729
 L 29.0367,-0.381607 L 29.0437,-0.415817 L 29.0513,-0.44989 L 29.0594,-0.483841 L 29.0681,-0.517624 L 29.0775,-0.55127
 L 29.0874,-0.584732 L 29.0979,-0.618027 L 29.109,-0.651123 L 29.1206,-0.684036 L 29.1328,-0.716736 L 29.1456,-0.749207
 L 29.159,-0.781448 L 29.1729,-0.813461 L 29.1874,-0.84523 L 29.2024,-0.87674 L 29.218,-0.907974 L 29.2341,-0.938934
 L 29.2507,-0.969604 L 29.2679,-1 L 29.2857,-1.03008 L 29.3039,-1.05983 L 29.3226,-1.08926 L 29.3419,-1.11838
 L 29.3617,-1.14714 L 29.382,-1.17557 L 29.4027,-1.20363 L 29.424,-1.23131 L 29.4457,-1.25864 L 29.4679,-1.28557
 L 29.4906,-1.3121 L 29.5137,-1.33826 L 29.5373,-1.36398 L 29.5613,-1.38931 L 29.5858,-1.4142 L 29.6107,-1.43867
 L 29.636,-1.46269 L 29.6617,-1.48628 L 29.6879,-1.50941 L 29.7144,-1.53207 L 29.7413,-1.55429 L 29.7687,-1.57602
 L 29.7964,-1.59726 L 29.8244,-1.61803 L 29.8528,-1.63829 L 29.8816,-1.65807 L 29.9107,-1.67734 L 29.9402,-1.69609
 L 29.9699,-1.71432 L 30,-1.73204 L 30.0304,-1.74924 L 30.0611,-1.76588 L 30.092,-1.78201 L 30.1232,-1.79758
 L 30.1548,-1.81261 L 30.1865,-1.82709 L 30.2185,-1.841 L 30.2508,-1.85435 L 30.2833,-1.86716 L 30.3159,-1.87938
 L 30.3489,-1.89104 L 30.382,-1.9021 L 30.4153,-1.9126 L 30.4487,-1.92252 L 30.4824,-1.93184 L 30.5161,-1.94058
 L 30.5501,-1.94873 L 30.5842,-1.95628 L 30.6184,-1.96324 L 30.6527,-1.9696 L 30.6871,-1.97537 L 30.7216,-1.98053
 L 30.7563,-1.98509 L 30.7909,-1.98903 L 30.8257,-1.99239 L 30.8605,-1.99512 L 30.8953,-1.99725 L 30.9302,-1.99878
 L 30.9651,-1.99969 L 31,-2 L 31.0349,-1.99969 L 31.0698,-1.99878 L 31.1047,-1.99725 L 31.1395,-1.99512
 L 31.1743,-1.99239 L 31.209,-1.98903 L 31.2437,-1.98509 L 31.2783,-1.98053 L 31.3129,-1.97537 L 31.3473,-1.9696
 L 31.3816,-1.96324 L 31.4158,-1.95628 L 31.4499,-1.94873 L 31.4838,-1.94058 L 31.5176,-1.93184 L 31.5513,-1.92252
 L 31.5847,-1.9126 L 31.618,-1.9021 L 31.6511,-1.89104 L 31.684,-1.87938 L 31.7167,-1.86716 L 31.7492,-1.85435
 L 31.7814,-1.841 L 31.8135,-1.82709 L 31.8452,-1.81261 L 31.8767,-1.79758 L 31.908,-1.78201 L 31.9389,-1.76588
 L 31.9696,-1.74924 L 32,-1.73204 L 32.0301,-1.71432 L 32.0598,-1.69609 L 32.0893,-1.67734 L 32.1184,-1.65807
 L 32.1471,-1.63829 L 32.1756,-1.61803 L 32.2036,-1.59726 L 32.2313,-1.57602 L 32.2586,-1.55429 L 32.2856,-1.53207
 L 32.3121,-1.50941 L 32.3383,-1.48628 L 32.364,-1.46269 L 32.3893,-1.43867 L 32.4142,-1.4142 L 32.4387,-1.38931
 L 32.4627,-1.36398 L 32.4863,-1.33826 L 32.5094,-1.3121 L 32.5321,-1.28557 L 32.5543,-1.25864 L 32.576,-1.23131
 L 32.5973,-1.20363 L 32.618,-1.17557 L 32.6383,-1.14714 L 32.6581,-1.11838 L 32.6773,-1.08926 L 32.6961,-1.05983
 L 32.7143,-1.03008 L 32.732,-1 L 32.7492,-0.969604 L 32.7659,-0.938934 L 32.782,-0.907974 L 32.7976,-0.87674
 L 32.8126,-0.84523 L 32.8271,-0.813461 L 32.841,-0.781448 L 32.8544,-0.749207 L 32.8672,-0.716736 L 32.8794,-0.684036
 L 32.891,-0.651123 L 32.9021,-0.618027 L 32.9126,-0.584732 L 32.9225,-0.55127 L 32.9318,-0.517624 L 32.9406,-0.483841
 L 32.9487,-0.44989 L 32.9563,-0.415817 L 32.9632,-0.381607 L 32.9696,-0.34729 L 32.9754,-0.312866 L 32.9805,-0.278336
 L 32.9851,-0.243729 L 32.989,-0.209045 L 32.9924,-0.174301 L 32.9951,-0.139511 L 32.9973,-0.10466 L 32.9988,-0.0697937
 L 32.9997,-0.0348969 L 33,-0 L 32.9997,0.0348969 L 32.9988,0.0697937 L 32.9973,0.10466 L 32.9951,0.139511
 L 32.9924,0.174301 L 32.989,0.209045 L 32.9851,0.243729 L 32.9805,0.278336 L 32.9754,0.312866 L 32.9696,0.34729
 L 32.9632,0.381607 L 32.9563,0.415817 L 32.9487,0.44989 L 32.9406,0.483841 L 32.9318,0.517624 L 32.9225,0.55127
 L 32.9126,0.584732 L 32.9021,0.618027 L 32.891,0.651123 L 32.8794,0.684036 L 32.8672,0.716736 L 32.8544,0.749207
 L 32.841,0.781448 L 32.8271,0.813461 L 32.8126,0.84523 L 32.7976,0.87674 L 32.782,0.907974 L 32.7659,0.938934
 L 32.7492,0.969604 L 32.732,1 L 32.7143,1.03008 L 32.6961,1.05983 L 32.6773,1.08926 L 32.6581,1.11838
 L 32.6383,1.14714 L 32.618,1.17557 L 32.5973,1.20363 L 32.576,1.23131 L 32.5543,1.25864 L 32.5321,1.28557
 L 32.5094,1.3121 L 32.4863,1.33826 L 32.4627,1.36398 L 32.4387,1.38931 L 32.4142,1.4142 L 32.3893,1.43867
 L 32.364,1.46269 L 32.3383,1.48628 L 32.3121,1.50941 L 32.2856,1.53207 L 32.2586,1.55429 L 32.2313,1.57602
 L 32.2036,1.59726 L 32.1756,1.61803 L 32.1471,1.63829 L 32.1184,1.65807 L 32.0893,1.67734 L 32.0598,1.69609
 L 32.0301,1.71432 L 32,1.73204 L 31.9696,1.74924 L 31.9389,1.76588 L 31.908,1.78201 L 31.8767,1.79758
 L 31.8452,1.81261 L 31.8135,1.82709 L 31.7814,1.841 L 31.7492,1.85435 L 31.7167,1.86716 L 31.684,1.87938
 L 31.6511,1.89104 L 31.618,1.9021 L 31.5847,1.9126 L 31.5513,1.92252 L 31.5176,1.93184 L 31.4838,1.94058
 L 31.4499,1.94873 L 31.4158,1.95628 L 31.3816,1.96324 L 31.3473,1.9696 L 31.3129,1.97537 L 31.2783,1.98053
 L 31.2437,1.98509 L 31.209,1.98903 L 31.1743,1.99239 L 31.1395,1.99512 L 31.1047,1.99725 L 31.0698,1.99878
 L 31.0349,1.99969 L 31,2 L 30.9651,1.99969 L 30.9302,1.99878 L 30.8953,1.99725 L 30.8605,1.99512
 L 30.8257,1.99239 L 30.7909,1.98903 L 30.7563,1.98509 L 30.7216,1.98053 L 30.6871,1.97537 L 30.6527,1.9696
 L 30.6184,1.96324 L 30.5842,1.95628 L 30.5501,1.94873 L 30.5161,1.94058 L 30.4824,1.93184 L 30.4487,1.92252
 L 30.4153,1.9126 L 30.382,1.9021 L 30.3489,1.89104 L 30.3159,1.87938 L 30.2833,1.86716 L 30.2508,1.85435
 L 30.2185,1.841 L 30.1865,1.82709 L 30.1548,1.81261 L 30.1232,1.79758 L 30.092,1.78201 L 30.0611,1.76588
 L 30.0304,1.74924 L 30,1.73204 L 29.9699,1.71432 L 29.9402,1.69609 L 29.9107,1.67734 L 29.8816,1.65807
 L 29.8528,1.63829 L 29.8244,1.61803 L 29.7964,1.59726 L 29.7687,1.57602 L 29.7413,1.55429 L 29.7144,1.53207
 z
M 70,30 L 70,22 L 100,22 L 100,30 z
M -100,30 L -100,22 L -70,22 L -70,30 z
M -29.7964,-1.59726 L -29.7687,-1.57602 L -29.7413,-1.55429 L -29.7144,-1.53207 L -29.6879,-1.50941 L -29.6617,-1.48628
 L -29.636,-1.46269 L -29.6107,-1.43867 L -29.5858,-1.4142 L -29.5613,-1.38931 L -29.5373,-1.36398 L -29.5137,-1.33826
 L -29.4906,-1.3121 L -29.4679,-1.28557 L -29.4457,-1.25864 L -29.424,-1.23131 L -29.4027,-1.20363 L -29.382,-1.17557
 L -29.3617,-1.14714 L -29.3419,-1.11838 L -29.3226,-1.08926 L -29.3039,-1.05983 L -29.2857,-1.03008 L -29.2679,-1
 L -29.2507,-0.969604 L -29.2341,-0.938934 L -29.218,-0.907974 L -29.2024,-0.87674 L -29.1874,-0.84523 L -29.1729,-0.813461
 L -29.159,-0.781448 L -29.1456,-0.749207 L -29.1328,-0.716736 L -29.1206,-0.684036 L -29.109,-0.651123 L -29.0979,-0.618027
 L -29.0874,-0.584732 L -29.0775,-0.55127 L -29.0681,-0.517624 L -29.0594,-0.483841 L -29.0513,-0.44989 L -29.0437,-0.415817
 L -29.0367,-0.381607 L -29.0304,-0.34729 L -29.0246,-0.312866 L -29.0195,-0.278336 L -29.0149,-0.243729 L -29.011,-0.209045
 L -29.0076,-0.174301 L -29.0049,-0.139511 L -29.0027,-0.10466 L -29.0012,-0.0697937 L -29.0003,-0.0348969 L -29,-0
 L -29.0003,0.0348969 L -29.0012,0.0697937 L -29.0027,0.10466 L -29.0049,0.139511 L -29.0076,0.174301 L -29.011,0.209045
 L -29.0149,0.243729 L -29.0195,0.278336 L -29.0246,0.312866 L -29.0304,0.34729 L -29.0367,0.381607 L -29.0437,0.415817
 L -29.0513,0.44989 L -29.0594,0.483841 L -29.0681,0.517624 L -29.0775,0.55127 L -29.0874,0.584732 L -29.0979,0.618027
 L -29.109,0.651123 L -29.1206,0.684036 L -29.1328,0.716736 L -29.1456,0.749207 L -29.159,0.781448 L -29.1729,0.813461
 L -29.1874,0.84523 L -29.2024,0.87674 L -29.218,0.907974 L -29.2341,0.938934 L -29.2507,0.969604 L -29.2679,1
 L -29.2857,1.03008 L -29.3039,1.05983 L -29.3226,1.08926 L -29.3419,1.11838 L -29.3617,1.14714 L -29.382,1.17557
 L -29.4027,1.20363 L -29.424,1.23131 L -29.4457,1.25864 L -29.4679,1.28557 L -29.4906,1.3121 L -29.5137,1.33826
 L -29.5373,1.36398 L -29.5613,1.38931 L -29.5858,1.4142 L -29.6107,1.43867 L -29.636,1.46269 L -29.6617,1.48628
 L -29.6879,1.50941 L -29.7144,1.53207 L -29.7413,1.55429 L -29.7687,1.57602 L -29.7964,1.59726 L -29.8244,1.61803
 L -29.8528,1.63829 L -29.8816,1.65807 L -29.9107,1.67734 L -29.9402,1.69609 L -29.9699,1.71432 L -30,1.73204
 L -30.0304,1.74924 L -30.0611,1.76588 L -30.092,1.78201 L -30.1232,1.79758 L -30.1548,1.81261 L -30.1865,1.82709
 L -30.2185,1.841 L -30.2508,1.85435 L -30.2833,1.86716 L -30.3159,1.87938 L -30.3489,1.89104 L -30.382,1.9021
 L -30.4153,1.9126 L -30.4487,1.92252 L -30.4824,1.93184 L -30.5161,1.94058 L -30.5501,1.94873 L -30.5842,1.95628
 L -30.6184,1.96324 L -30.6527,1.9696 L -30.6871,1.97537 L -30.7216,1.98053 L -30.7563,1.98509 L -30.7909,1.98903
 L -30.8257,1.99239 L -30.8605,1.99512 L -30.8953,1.99725 L -30.9302,1.99878 L -30.9651,1.99969 L -31,2
 L -31.0349,1.99969 L -31.0698,1.99878 L -31.1047,1.99725 L -31.1395,1.99512 L -31.1743,1.99239 L -31.209,1.98903
 L -31.2437,1.98509 L -31.2783,1.98053 L -31.3129,1.97537 L -31.3473,1.9696 L -31.3816,1.96324 L -31.4158,1.95628
 L -31.4499,1.94873 L -31.4838,1.94058 L -31.5176,1.93184 L -31.5513,1.92252 L -31.5847,1.9126 L -31.618,1.9021
 L -31.6511,1.89104 L -31.684,1.87938 L -31.7167,1.86716 L -31.7492,1.85435 L -31.7814,1.841 L -31.8135,1.82709
 L -31.8452,1.81261 L -31.8767,1.79758 L -31.908,1.78201 L -31.9389,1.76588 L -31.9696,1.74924 L -32,1.73204
 L -32.0301,1.71432 L -32.0598,1.69609 L -32.0893,1.67734 L -32.1184,1.65807 L -32.1471,1.63829 L -32.1756,1.61803
 L -32.2036,1.59726 L -32.2313,1.57602 L -32.2586,1.55429 L -32.2856,1.53207 L -32.3121,1.50941 L -32.3383,1.48628
 L -32.364,1.46269 L -32.3893,1.43867 L -32.4142,1.4142 L -32.4387,1.38931 L -32.4627,1.36398 L -32.4863,1.33826
 L -32.5094,1.3121 L -32.5321,1.28557 L -32.5543,1.25864 L -32.576,1.23131 L -32.5973,1.20363 L -32.618,1.17557
 L -32.6383,1.14714 L -32.6581,1.11838 L -32.6773,1.08926 L -32.6961,1.05983 L -32.7143,1.03008 L -32.732,1
 L -32.7492,0.969604 L -32.7659,0.938934 L -32.782,0.907974 L -32.7976,0.87674 L -32.8126,0.84523 L -32.8271,0.813461
 L -32.841,0.781448 L -32.8544,0.749207 L -32.8672,0.716736 L -32.8794,0.684036 L -32.891,0.651123 L -32.9021,0.618027
 L -32.9126,0.584732 L -32.9225,0.55127 L -32.9318,0.517624 L -32.9406,0.483841 L -32.9487,0.44989 L -32.9563,0.415817
 L -32.9632,0.381607 L -32.9696,0.34729 L -32.9754,0.312866 L -32.9805,0.278336 L -32.9851,0.243729 L -32.989,0.209045
 L -32.9924,0.174301 L -32.9951,0.139511 L -32.9973,0.10466 L -32.9988,0.0697937 L -32.9997,0.0348969 L -33,-0
 L -32.9997,-0.0348969 L -32.9988,-0.0697937 L -32.9973,-0.10466 L -32.9951,-0.139511 L -32.9924,-0.174301 L -32.989,-0.209045
 L -32.9851,-0.243729 L -32.9805,-0.278336 L -32.9754,-0.312866 L -32.9696,-0.34729 L -32.9632,-0.381607 L -32.9563,-0.415817
 L -32.9487,-0.44989 L -32.9406,-0.483841 L -32.9318,-0.517624 L -32.9225,-0.55127 L -32.9126,-0.584732 L -32.9021,-0.618027
 L -32.891,-0.651123 L -32.8794,-0.684036 L -32.8672,-0.716736 L -32.8544,-0.749207 L -32.841,-0.781448 L -32.8271,-0.813461
 L -32.8126,-0.84523 L -32.7976,-0.87674 L -32.782,-0.907974 L -32.7659,-0.938934 L -32.7492,-0.969604 L -32.732,-1
 L -32.7143,-1.03008 L -32.6961,-1.05983 L -32.6773,-1.08926 L -32.6581,-1.11838 L -32.6383,-1.14714 L -32.618,-1.17557
 L -32.5973,-1.20363 L -32.576,-1.23131 L -32.5543,-1.25864 L -32.5321,-1.28557 L -32.5094,-1.3121 L -32.4863,-1.33826
 L -32.4627,-1.36398 L -32.4387,-1.38931 L -32.4142,-1.4142 L -32.3893,-1.43867 L -32.364,-1.46269 L -32.3383,-1.48628
 L -32.3121,-1.50941 L -32.2856,-1.53207 L -32.2586,-1.55429 L -32.2313,-1.57602 L -32.2036,-1.59726 L -32.1756,-1.61803
 L -32.1471,-1.63829 L -32.1184,-1.65807 L -32.0893,-1.67734 L -32.0598,-1.69609 L -32.0301,-1.71432 L -32,-1.73204
 L -31.9696,-1.74924 L -31.9389,-1.76588 L -31.908,-1.78201 L -31.8767,-1.79758 L -31.8452,-1.81261 L -31.8135,-1.82709
 L -31.7814,-1.841 L -31.7492,-1.85435 L -31.7167,-1.86716 L -31.684,-1.87938 L -31.6511,-1.89104 L -31.618,-1.9021
 L -31.5847,-1.9126 L -31.5513,-1.92252 L -31.5176,-1.93184 L -31.4838,-1.94058 L -31.4499,-1.94873 L -31.4158,-1.95628
 L -31.3816,-1.96324 L -31.3473,-1.9696 L -31.3129,-1.97537 L -31.2783,-1.98053 L -31.2437,-1.98509 L -31.209,-1.98903
 L -31.1743,-1.99239 L -31.1395,-1.99512 L -31.1047,-1.99725 L -31.0698,-1.99878 L -31.0349,-1.99969 L -31,-2
 L -30.9651,-1.99969 L -30.9302,-1.99878 L -30.8953,-1.99725 L -30.8605,-1.99512 L -30.8257,-1.99239 L -30.7909,-1.98903
 L -30.7563,-1.98509 L -30.7216,-1.98053 L -30.6871,-1.97537 L -30.6527,-1.9696 L -30.6184,-1.96324 L -30.5842,-1.95628
 L -30.5501,-1.94873 L -30.5161,-1.94058 L -30.4824,-1.93184 L -30.4487,-1.92252 L -30.4153,-1.9126 L -30.382,-1.9021
 L -30.3489,-1.89104 L -30.3159,-1.87938 L -30.2833,-1.86716 L -30.2508,-1.85435 L -30.2185,-1.841 L -30.1865,-1.82709
 L -30.1548,-1.81261 L -30.1232,-1.79758 L -30.092,-1.78201 L -30.0611,-1.76588 L -30.0304,-1.74924 L -30,-1.73204
 L -29.9699,-1.71432 L -29.9402,-1.69609 L -29.9107,-1.67734 L -29.8816,-1.65807 L -29.8528,-1.63829 L -29.8244,-1.61803
 z
" stroke="black" fill="lightgray" stroke-width="0.5"/>
</svg>
