  0
SECTION
  2
BLOCKS
  0
ENDSEC
  0
SECTION
  2
ENTITIES
  0
LINE
  8
0
 10
84
 20
128
 11
0
 21
128
  0
LINE
  8
0
 10
0
 20
128
 11
0
 21
0
  0
LINE
  8
0
 10
0
 20
0
 11
84
 21
0
  0
LINE
  8
0
 10
84
 20
0
 11
84
 21
128
  0
LINE
  8
0
 10
10.9651
 20
104
 11
10.9302
 21
104.001
  0
LINE
  8
0
 10
10.9302
 20
104.001
 11
10.8953
 21
104.003
  0
LINE
  8
0
 10
10.8953
 20
104.003
 11
10.8605
 21
104.005
  0
LINE
  8
0
 10
10.8605
 20
104.005
 11
10.8257
 21
104.008
  0
LINE
  8
0
 10
10.8257
 20
104.008
 11
10.7909
 21
104.011
  0
LINE
  8
0
 10
10.7909
 20
104.011
 11
10.7563
 21
104.015
  0
LINE
  8
0
 10
10.7563
 20
104.015
 11
10.7216
 21
104.019
  0
LINE
  8
0
 10
10.7216
 20
104.019
 11
10.6871
 21
104.025
  0
LINE
  8
0
 10
10.6871
 20
104.025
 11
10.6527
 21
104.03
  0
LINE
  8
0
 10
10.6527
 20
104.03
 11
10.6184
 21
104.037
  0
LINE
  8
0
 10
10.6184
 20
104.037
 11
10.5842
 21
104.044
  0
LINE
  8
0
 10
10.5842
 20
104.044
 11
10.5501
 21
104.051
  0
LINE
  8
0
 10
10.5501
 20
104.051
 11
10.5161
 21
104.059
  0
LINE
  8
0
 10
10.5161
 20
104.059
 11
10.4824
 21
104.068
  0
LINE
  8
0
 10
10.4824
 20
104.068
 11
10.4487
 21
104.077
  0
LINE
  8
0
 10
10.4487
 20
104.077
 11
10.4153
 21
104.087
  0
LINE
  8
0
 10
10.4153
 20
104.087
 11
10.382
 21
104.098
  0
LINE
  8
0
 10
10.382
 20
104.098
 11
10.3489
 21
104.109
  0
LINE
  8
0
 10
10.3489
 20
104.109
 11
10.3159
 21
104.121
  0
LINE
  8
0
 10
10.3159
 20
104.121
 11
10.2832
 21
104.133
  0
LINE
  8
0
 10
10.2832
 20
104.133
 11
10.2508
 21
104.146
  0
LINE
  8
0
 10
10.2508
 20
104.146
 11
10.2185
 21
104.159
  0
LINE
  8
0
 10
10.2185
 20
104.159
 11
10.1865
 21
104.173
  0
LINE
  8
0
 10
10.1865
 20
104.173
 11
10.1548
 21
104.187
  0
LINE
  8
0
 10
10.1548
 20
104.187
 11
10.1232
 21
104.202
  0
LINE
  8
0
 10
10.1232
 20
104.202
 11
10.092
 21
104.218
  0
LINE
  8
0
 10
10.092
 20
104.218
 11
10.0611
 21
104.234
  0
LINE
  8
0
 10
10.0611
 20
104.234
 11
10.0304
 21
104.251
  0
LINE
  8
0
 10
10.0304
 20
104.251
 11
10
 21
104.268
  0
LINE
  8
0
 10
10
 20
104.268
 11
9.96991
 21
104.286
  0
LINE
  8
0
 10
9.96991
 20
104.286
 11
9.94016
 21
104.304
  0
LINE
  8
0
 10
9.94016
 20
104.304
 11
9.91072
 21
104.323
  0
LINE
  8
0
 10
9.91072
 20
104.323
 11
9.88161
 21
104.342
  0
LINE
  8
0
 10
9.88161
 20
104.342
 11
9.85284
 21
104.362
  0
LINE
  8
0
 10
9.85284
 20
104.362
 11
9.82442
 21
104.382
  0
LINE
  8
0
 10
9.82442
 20
104.382
 11
9.79636
 21
104.403
  0
LINE
  8
0
 10
9.79636
 20
104.403
 11
9.76868
 21
104.424
  0
LINE
  8
0
 10
9.76868
 20
104.424
 11
9.74135
 21
104.446
  0
LINE
  8
0
 10
9.74135
 20
104.446
 11
9.71442
 21
104.468
  0
LINE
  8
0
 10
9.71442
 20
104.468
 11
9.68788
 21
104.491
  0
LINE
  8
0
 10
9.68788
 20
104.491
 11
9.66173
 21
104.514
  0
LINE
  8
0
 10
9.66173
 20
104.514
 11
9.636
 21
104.537
  0
LINE
  8
0
 10
9.636
 20
104.537
 11
9.61067
 21
104.561
  0
LINE
  8
0
 10
9.61067
 20
104.561
 11
9.58578
 21
104.586
  0
LINE
  8
0
 10
9.58578
 20
104.586
 11
9.56131
 21
104.611
  0
LINE
  8
0
 10
9.56131
 20
104.611
 11
9.53729
 21
104.636
  0
LINE
  8
0
 10
9.53729
 20
104.636
 11
9.5137
 21
104.662
  0
LINE
  8
0
 10
9.5137
 20
104.662
 11
9.49057
 21
104.688
  0
LINE
  8
0
 10
9.49057
 20
104.688
 11
9.46791
 21
104.714
  0
LINE
  8
0
 10
9.46791
 20
104.714
 11
9.44569
 21
104.741
  0
LINE
  8
0
 10
9.44569
 20
104.741
 11
9.42397
 21
104.769
  0
LINE
  8
0
 10
9.42397
 20
104.769
 11
9.40273
 21
104.796
  0
LINE
  8
0
 10
9.40273
 20
104.796
 11
9.38196
 21
104.824
  0
LINE
  8
0
 10
9.38196
 20
104.824
 11
9.36169
 21
104.853
  0
LINE
  8
0
 10
9.36169
 20
104.853
 11
9.34192
 21
104.882
  0
LINE
  8
0
 10
9.34192
 20
104.882
 11
9.32265
 21
104.911
  0
LINE
  8
0
 10
9.32265
 20
104.911
 11
9.30389
 21
104.94
  0
LINE
  8
0
 10
9.30389
 20
104.94
 11
9.28566
 21
104.97
  0
LINE
  8
0
 10
9.28566
 20
104.97
 11
9.26794
 21
105
  0
LINE
  8
0
 10
9.26794
 20
105
 11
9.25075
 21
105.03
  0
LINE
  8
0
 10
9.25075
 20
105.03
 11
9.2341
 21
105.061
  0
LINE
  8
0
 10
9.2341
 20
105.061
 11
9.21797
 21
105.092
  0
LINE
  8
0
 10
9.21797
 20
105.092
 11
9.20241
 21
105.123
  0
LINE
  8
0
 10
9.20241
 20
105.123
 11
9.18738
 21
105.155
  0
LINE
  8
0
 10
9.18738
 20
105.155
 11
9.1729
 21
105.187
  0
LINE
  8
0
 10
9.1729
 20
105.187
 11
9.15898
 21
105.219
  0
LINE
  8
0
 10
9.15898
 20
105.219
 11
9.14563
 21
105.251
  0
LINE
  8
0
 10
9.14563
 20
105.251
 11
9.13283
 21
105.283
  0
LINE
  8
0
 10
9.13283
 20
105.283
 11
9.12061
 21
105.316
  0
LINE
  8
0
 10
9.12061
 20
105.316
 11
9.10895
 21
105.349
  0
LINE
  8
0
 10
9.10895
 20
105.349
 11
9.09789
 21
105.382
  0
LINE
  8
0
 10
9.09789
 20
105.382
 11
9.08739
 21
105.415
  0
LINE
  8
0
 10
9.08739
 20
105.415
 11
9.07747
 21
105.449
  0
LINE
  8
0
 10
9.07747
 20
105.449
 11
9.06815
 21
105.482
  0
LINE
  8
0
 10
9.06815
 20
105.482
 11
9.0594
 21
105.516
  0
LINE
  8
0
 10
9.0594
 20
105.516
 11
9.05125
 21
105.55
  0
LINE
  8
0
 10
9.05125
 20
105.55
 11
9.0437
 21
105.584
  0
LINE
  8
0
 10
9.0437
 20
105.584
 11
9.03674
 21
105.618
  0
LINE
  8
0
 10
9.03674
 20
105.618
 11
9.03038
 21
105.653
  0
LINE
  8
0
 10
9.03038
 20
105.653
 11
9.02461
 21
105.687
  0
LINE
  8
0
 10
9.02461
 20
105.687
 11
9.01945
 21
105.722
  0
LINE
  8
0
 10
9.01945
 20
105.722
 11
9.01489
 21
105.756
  0
LINE
  8
0
 10
9.01489
 20
105.756
 11
9.01096
 21
105.791
  0
LINE
  8
0
 10
9.01096
 20
105.791
 11
9.0076
 21
105.826
  0
LINE
  8
0
 10
9.0076
 20
105.826
 11
9.00487
 21
105.86
  0
LINE
  8
0
 10
9.00487
 20
105.86
 11
9.00273
 21
105.895
  0
LINE
  8
0
 10
9.00273
 20
105.895
 11
9.00121
 21
105.93
  0
LINE
  8
0
 10
9.00121
 20
105.93
 11
9.00029
 21
105.965
  0
LINE
  8
0
 10
9.00029
 20
105.965
 11
9
 21
106
  0
LINE
  8
0
 10
9
 20
106
 11
9.00029
 21
106.035
  0
LINE
  8
0
 10
9.00029
 20
106.035
 11
9.00121
 21
106.07
  0
LINE
  8
0
 10
9.00121
 20
106.07
 11
9.00273
 21
106.105
  0
LINE
  8
0
 10
9.00273
 20
106.105
 11
9.00487
 21
106.14
  0
LINE
  8
0
 10
9.00487
 20
106.14
 11
9.0076
 21
106.174
  0
LINE
  8
0
 10
9.0076
 20
106.174
 11
9.01096
 21
106.209
  0
LINE
  8
0
 10
9.01096
 20
106.209
 11
9.01489
 21
106.244
  0
LINE
  8
0
 10
9.01489
 20
106.244
 11
9.01945
 21
106.278
  0
LINE
  8
0
 10
9.01945
 20
106.278
 11
9.02461
 21
106.313
  0
LINE
  8
0
 10
9.02461
 20
106.313
 11
9.03038
 21
106.347
  0
LINE
  8
0
 10
9.03038
 20
106.347
 11
9.03674
 21
106.382
  0
LINE
  8
0
 10
9.03674
 20
106.382
 11
9.0437
 21
106.416
  0
LINE
  8
0
 10
9.0437
 20
106.416
 11
9.05125
 21
106.45
  0
LINE
  8
0
 10
9.05125
 20
106.45
 11
9.0594
 21
106.484
  0
LINE
  8
0
 10
9.0594
 20
106.484
 11
9.06815
 21
106.518
  0
LINE
  8
0
 10
9.06815
 20
106.518
 11
9.07747
 21
106.551
  0
LINE
  8
0
 10
9.07747
 20
106.551
 11
9.08739
 21
106.585
  0
LINE
  8
0
 10
9.08739
 20
106.585
 11
9.09789
 21
106.618
  0
LINE
  8
0
 10
9.09789
 20
106.618
 11
9.10895
 21
106.651
  0
LINE
  8
0
 10
9.10895
 20
106.651
 11
9.12061
 21
106.684
  0
LINE
  8
0
 10
9.12061
 20
106.684
 11
9.13283
 21
106.717
  0
LINE
  8
0
 10
9.13283
 20
106.717
 11
9.14563
 21
106.749
  0
LINE
  8
0
 10
9.14563
 20
106.749
 11
9.15898
 21
106.781
  0
LINE
  8
0
 10
9.15898
 20
106.781
 11
9.1729
 21
106.813
  0
LINE
  8
0
 10
9.1729
 20
106.813
 11
9.18738
 21
106.845
  0
LINE
  8
0
 10
9.18738
 20
106.845
 11
9.20241
 21
106.877
  0
LINE
  8
0
 10
9.20241
 20
106.877
 11
9.21797
 21
106.908
  0
LINE
  8
0
 10
9.21797
 20
106.908
 11
9.2341
 21
106.939
  0
LINE
  8
0
 10
9.2341
 20
106.939
 11
9.25075
 21
106.97
  0
LINE
  8
0
 10
9.25075
 20
106.97
 11
9.26794
 21
107
  0
LINE
  8
0
 10
9.26794
 20
107
 11
9.28566
 21
107.03
  0
LINE
  8
0
 10
9.28566
 20
107.03
 11
9.30389
 21
107.06
  0
LINE
  8
0
 10
9.30389
 20
107.06
 11
9.32265
 21
107.089
  0
LINE
  8
0
 10
9.32265
 20
107.089
 11
9.34192
 21
107.118
  0
LINE
  8
0
 10
9.34192
 20
107.118
 11
9.36169
 21
107.147
  0
LINE
  8
0
 10
9.36169
 20
107.147
 11
9.38196
 21
107.176
  0
LINE
  8
0
 10
9.38196
 20
107.176
 11
9.40273
 21
107.204
  0
LINE
  8
0
 10
9.40273
 20
107.204
 11
9.42397
 21
107.231
  0
LINE
  8
0
 10
9.42397
 20
107.231
 11
9.44569
 21
107.259
  0
LINE
  8
0
 10
9.44569
 20
107.259
 11
9.46791
 21
107.286
  0
LINE
  8
0
 10
9.46791
 20
107.286
 11
9.49057
 21
107.312
  0
LINE
  8
0
 10
9.49057
 20
107.312
 11
9.5137
 21
107.338
  0
LINE
  8
0
 10
9.5137
 20
107.338
 11
9.53729
 21
107.364
  0
LINE
  8
0
 10
9.53729
 20
107.364
 11
9.56131
 21
107.389
  0
LINE
  8
0
 10
9.56131
 20
107.389
 11
9.58578
 21
107.414
  0
LINE
  8
0
 10
9.58578
 20
107.414
 11
9.61067
 21
107.439
  0
LINE
  8
0
 10
9.61067
 20
107.439
 11
9.636
 21
107.463
  0
LINE
  8
0
 10
9.636
 20
107.463
 11
9.66173
 21
107.486
  0
LINE
  8
0
 10
9.66173
 20
107.486
 11
9.68788
 21
107.509
  0
LINE
  8
0
 10
9.68788
 20
107.509
 11
9.71442
 21
107.532
  0
LINE
  8
0
 10
9.71442
 20
107.532
 11
9.74135
 21
107.554
  0
LINE
  8
0
 10
9.74135
 20
107.554
 11
9.76868
 21
107.576
  0
LINE
  8
0
 10
9.76868
 20
107.576
 11
9.79636
 21
107.597
  0
LINE
  8
0
 10
9.79636
 20
107.597
 11
9.82442
 21
107.618
  0
LINE
  8
0
 10
9.82442
 20
107.618
 11
9.85284
 21
107.638
  0
LINE
  8
0
 10
9.85284
 20
107.638
 11
9.88161
 21
107.658
  0
LINE
  8
0
 10
9.88161
 20
107.658
 11
9.91072
 21
107.677
  0
LINE
  8
0
 10
9.91072
 20
107.677
 11
9.94016
 21
107.696
  0
LINE
  8
0
 10
9.94016
 20
107.696
 11
9.96991
 21
107.714
  0
LINE
  8
0
 10
9.96991
 20
107.714
 11
10
 21
107.732
  0
LINE
  8
0
 10
10
 20
107.732
 11
10.0304
 21
107.749
  0
LINE
  8
0
 10
10.0304
 20
107.749
 11
10.0611
 21
107.766
  0
LINE
  8
0
 10
10.0611
 20
107.766
 11
10.092
 21
107.782
  0
LINE
  8
0
 10
10.092
 20
107.782
 11
10.1232
 21
107.798
  0
LINE
  8
0
 10
10.1232
 20
107.798
 11
10.1548
 21
107.813
  0
LINE
  8
0
 10
10.1548
 20
107.813
 11
10.1865
 21
107.827
  0
LINE
  8
0
 10
10.1865
 20
107.827
 11
10.2185
 21
107.841
  0
LINE
  8
0
 10
10.2185
 20
107.841
 11
10.2508
 21
107.854
  0
LINE
  8
0
 10
10.2508
 20
107.854
 11
10.2832
 21
107.867
  0
LINE
  8
0
 10
10.2832
 20
107.867
 11
10.3159
 21
107.879
  0
LINE
  8
0
 10
10.3159
 20
107.879
 11
10.3489
 21
107.891
  0
LINE
  8
0
 10
10.3489
 20
107.891
 11
10.382
 21
107.902
  0
LINE
  8
0
 10
10.382
 20
107.902
 11
10.4153
 21
107.913
  0
LINE
  8
0
 10
10.4153
 20
107.913
 11
10.4487
 21
107.923
  0
LINE
  8
0
 10
10.4487
 20
107.923
 11
10.4824
 21
107.932
  0
LINE
  8
0
 10
10.4824
 20
107.932
 11
10.5161
 21
107.941
  0
LINE
  8
0
 10
10.5161
 20
107.941
 11
10.5501
 21
107.949
  0
LINE
  8
0
 10
10.5501
 20
107.949
 11
10.5842
 21
107.956
  0
LINE
  8
0
 10
10.5842
 20
107.956
 11
10.6184
 21
107.963
  0
LINE
  8
0
 10
10.6184
 20
107.963
 11
10.6527
 21
107.97
  0
LINE
  8
0
 10
10.6527
 20
107.97
 11
10.6871
 21
107.975
  0
LINE
  8
0
 10
10.6871
 20
107.975
 11
10.7216
 21
107.981
  0
LINE
  8
0
 10
10.7216
 20
107.981
 11
10.7563
 21
107.985
  0
LINE
  8
0
 10
10.7563
 20
107.985
 11
10.7909
 21
107.989
  0
LINE
  8
0
 10
10.7909
 20
107.989
 11
10.8257
 21
107.992
  0
LINE
  8
0
 10
10.8257
 20
107.992
 11
10.8605
 21
107.995
  0
LINE
  8
0
 10
10.8605
 20
107.995
 11
10.8953
 21
107.997
  0
LINE
  8
0
 10
10.8953
 20
107.997
 11
10.9302
 21
107.999
  0
LINE
  8
0
 10
10.9302
 20
107.999
 11
10.9651
 21
108
  0
LINE
  8
0
 10
10.9651
 20
108
 11
11
 21
108
  0
LINE
  8
0
 10
11
 20
108
 11
11.0349
 21
108
  0
LINE
  8
0
 10
11.0349
 20
108
 11
11.0698
 21
107.999
  0
LINE
  8
0
 10
11.0698
 20
107.999
 11
11.1047
 21
107.997
  0
LINE
  8
0
 10
11.1047
 20
107.997
 11
11.1395
 21
107.995
  0
LINE
  8
0
 10
11.1395
 20
107.995
 11
11.1743
 21
107.992
  0
LINE
  8
0
 10
11.1743
 20
107.992
 11
11.209
 21
107.989
  0
LINE
  8
0
 10
11.209
 20
107.989
 11
11.2437
 21
107.985
  0
LINE
  8
0
 10
11.2437
 20
107.985
 11
11.2783
 21
107.981
  0
LINE
  8
0
 10
11.2783
 20
107.981
 11
11.3129
 21
107.975
  0
LINE
  8
0
 10
11.3129
 20
107.975
 11
11.3473
 21
107.97
  0
LINE
  8
0
 10
11.3473
 20
107.97
 11
11.3816
 21
107.963
  0
LINE
  8
0
 10
11.3816
 20
107.963
 11
11.4158
 21
107.956
  0
LINE
  8
0
 10
11.4158
 20
107.956
 11
11.4499
 21
107.949
  0
LINE
  8
0
 10
11.4499
 20
107.949
 11
11.4838
 21
107.941
  0
LINE
  8
0
 10
11.4838
 20
107.941
 11
11.5176
 21
107.932
  0
LINE
  8
0
 10
11.5176
 20
107.932
 11
11.5513
 21
107.923
  0
LINE
  8
0
 10
11.5513
 20
107.923
 11
11.5847
 21
107.913
  0
LINE
  8
0
 10
11.5847
 20
107.913
 11
11.618
 21
107.902
  0
LINE
  8
0
 10
11.618
 20
107.902
 11
11.6511
 21
107.891
  0
LINE
  8
0
 10
11.6511
 20
107.891
 11
11.684
 21
107.879
  0
LINE
  8
0
 10
11.684
 20
107.879
 11
11.7167
 21
107.867
  0
LINE
  8
0
 10
11.7167
 20
107.867
 11
11.7492
 21
107.854
  0
LINE
  8
0
 10
11.7492
 20
107.854
 11
11.7814
 21
107.841
  0
LINE
  8
0
 10
11.7814
 20
107.841
 11
11.8135
 21
107.827
  0
LINE
  8
0
 10
11.8135
 20
107.827
 11
11.8452
 21
107.813
  0
LINE
  8
0
 10
11.8452
 20
107.813
 11
11.8767
 21
107.798
  0
LINE
  8
0
 10
11.8767
 20
107.798
 11
11.908
 21
107.782
  0
LINE
  8
0
 10
11.908
 20
107.782
 11
11.9389
 21
107.766
  0
LINE
  8
0
 10
11.9389
 20
107.766
 11
11.9696
 21
107.749
  0
LINE
  8
0
 10
11.9696
 20
107.749
 11
12
 21
107.732
  0
LINE
  8
0
 10
12
 20
107.732
 11
12.0301
 21
107.714
  0
LINE
  8
0
 10
12.0301
 20
107.714
 11
12.0598
 21
107.696
  0
LINE
  8
0
 10
12.0598
 20
107.696
 11
12.0893
 21
107.677
  0
LINE
  8
0
 10
12.0893
 20
107.677
 11
12.1184
 21
107.658
  0
LINE
  8
0
 10
12.1184
 20
107.658
 11
12.1471
 21
107.638
  0
LINE
  8
0
 10
12.1471
 20
107.638
 11
12.1756
 21
107.618
  0
LINE
  8
0
 10
12.1756
 20
107.618
 11
12.2036
 21
107.597
  0
LINE
  8
0
 10
12.2036
 20
107.597
 11
12.2313
 21
107.576
  0
LINE
  8
0
 10
12.2313
 20
107.576
 11
12.2586
 21
107.554
  0
LINE
  8
0
 10
12.2586
 20
107.554
 11
12.2856
 21
107.532
  0
LINE
  8
0
 10
12.2856
 20
107.532
 11
12.3121
 21
107.509
  0
LINE
  8
0
 10
12.3121
 20
107.509
 11
12.3383
 21
107.486
  0
LINE
  8
0
 10
12.3383
 20
107.486
 11
12.364
 21
107.463
  0
LINE
  8
0
 10
12.364
 20
107.463
 11
12.3893
 21
107.439
  0
LINE
  8
0
 10
12.3893
 20
107.439
 11
12.4142
 21
107.414
  0
LINE
  8
0
 10
12.4142
 20
107.414
 11
12.4387
 21
107.389
  0
LINE
  8
0
 10
12.4387
 20
107.389
 11
12.4627
 21
107.364
  0
LINE
  8
0
 10
12.4627
 20
107.364
 11
12.4863
 21
107.338
  0
LINE
  8
0
 10
12.4863
 20
107.338
 11
12.5094
 21
107.312
  0
LINE
  8
0
 10
12.5094
 20
107.312
 11
12.5321
 21
107.286
  0
LINE
  8
0
 10
12.5321
 20
107.286
 11
12.5543
 21
107.259
  0
LINE
  8
0
 10
12.5543
 20
107.259
 11
12.576
 21
107.231
  0
LINE
  8
0
 10
12.576
 20
107.231
 11
12.5973
 21
107.204
  0
LINE
  8
0
 10
12.5973
 20
107.204
 11
12.618
 21
107.176
  0
LINE
  8
0
 10
12.618
 20
107.176
 11
12.6383
 21
107.147
  0
LINE
  8
0
 10
12.6383
 20
107.147
 11
12.6581
 21
107.118
  0
LINE
  8
0
 10
12.6581
 20
107.118
 11
12.6773
 21
107.089
  0
LINE
  8
0
 10
12.6773
 20
107.089
 11
12.6961
 21
107.06
  0
LINE
  8
0
 10
12.6961
 20
107.06
 11
12.7143
 21
107.03
  0
LINE
  8
0
 10
12.7143
 20
107.03
 11
12.732
 21
107
  0
LINE
  8
0
 10
12.732
 20
107
 11
12.7492
 21
106.97
  0
LINE
  8
0
 10
12.7492
 20
106.97
 11
12.7659
 21
106.939
  0
LINE
  8
0
 10
12.7659
 20
106.939
 11
12.782
 21
106.908
  0
LINE
  8
0
 10
12.782
 20
106.908
 11
12.7976
 21
106.877
  0
LINE
  8
0
 10
12.7976
 20
106.877
 11
12.8126
 21
106.845
  0
LINE
  8
0
 10
12.8126
 20
106.845
 11
12.8271
 21
106.813
  0
LINE
  8
0
 10
12.8271
 20
106.813
 11
12.841
 21
106.781
  0
LINE
  8
0
 10
12.841
 20
106.781
 11
12.8544
 21
106.749
  0
LINE
  8
0
 10
12.8544
 20
106.749
 11
12.8672
 21
106.717
  0
LINE
  8
0
 10
12.8672
 20
106.717
 11
12.8794
 21
106.684
  0
LINE
  8
0
 10
12.8794
 20
106.684
 11
12.891
 21
106.651
  0
LINE
  8
0
 10
12.891
 20
106.651
 11
12.9021
 21
106.618
  0
LINE
  8
0
 10
12.9021
 20
106.618
 11
12.9126
 21
106.585
  0
LINE
  8
0
 10
12.9126
 20
106.585
 11
12.9225
 21
106.551
  0
LINE
  8
0
 10
12.9225
 20
106.551
 11
12.9318
 21
106.518
  0
LINE
  8
0
 10
12.9318
 20
106.518
 11
12.9406
 21
106.484
  0
LINE
  8
0
 10
12.9406
 20
106.484
 11
12.9487
 21
106.45
  0
LINE
  8
0
 10
12.9487
 20
106.45
 11
12.9563
 21
106.416
  0
LINE
  8
0
 10
12.9563
 20
106.416
 11
12.9632
 21
106.382
  0
LINE
  8
0
 10
12.9632
 20
106.382
 11
12.9696
 21
106.347
  0
LINE
  8
0
 10
12.9696
 20
106.347
 11
12.9754
 21
106.313
  0
LINE
  8
0
 10
12.9754
 20
106.313
 11
12.9805
 21
106.278
  0
LINE
  8
0
 10
12.9805
 20
106.278
 11
12.9851
 21
106.244
  0
LINE
  8
0
 10
12.9851
 20
106.244
 11
12.989
 21
106.209
  0
LINE
  8
0
 10
12.989
 20
106.209
 11
12.9924
 21
106.174
  0
LINE
  8
0
 10
12.9924
 20
106.174
 11
12.9951
 21
106.14
  0
LINE
  8
0
 10
12.9951
 20
106.14
 11
12.9973
 21
106.105
  0
LINE
  8
0
 10
12.9973
 20
106.105
 11
12.9988
 21
106.07
  0
LINE
  8
0
 10
12.9988
 20
106.07
 11
12.9997
 21
106.035
  0
LINE
  8
0
 10
12.9997
 20
106.035
 11
13
 21
106
  0
LINE
  8
0
 10
13
 20
106
 11
12.9997
 21
105.965
  0
LINE
  8
0
 10
12.9997
 20
105.965
 11
12.9988
 21
105.93
  0
LINE
  8
0
 10
12.9988
 20
105.93
 11
12.9973
 21
105.895
  0
LINE
  8
0
 10
12.9973
 20
105.895
 11
12.9951
 21
105.86
  0
LINE
  8
0
 10
12.9951
 20
105.86
 11
12.9924
 21
105.826
  0
LINE
  8
0
 10
12.9924
 20
105.826
 11
12.989
 21
105.791
  0
LINE
  8
0
 10
12.989
 20
105.791
 11
12.9851
 21
105.756
  0
LINE
  8
0
 10
12.9851
 20
105.756
 11
12.9805
 21
105.722
  0
LINE
  8
0
 10
12.9805
 20
105.722
 11
12.9754
 21
105.687
  0
LINE
  8
0
 10
12.9754
 20
105.687
 11
12.9696
 21
105.653
  0
LINE
  8
0
 10
12.9696
 20
105.653
 11
12.9632
 21
105.618
  0
LINE
  8
0
 10
12.9632
 20
105.618
 11
12.9563
 21
105.584
  0
LINE
  8
0
 10
12.9563
 20
105.584
 11
12.9487
 21
105.55
  0
LINE
  8
0
 10
12.9487
 20
105.55
 11
12.9406
 21
105.516
  0
LINE
  8
0
 10
12.9406
 20
105.516
 11
12.9318
 21
105.482
  0
LINE
  8
0
 10
12.9318
 20
105.482
 11
12.9225
 21
105.449
  0
LINE
  8
0
 10
12.9225
 20
105.449
 11
12.9126
 21
105.415
  0
LINE
  8
0
 10
12.9126
 20
105.415
 11
12.9021
 21
105.382
  0
LINE
  8
0
 10
12.9021
 20
105.382
 11
12.891
 21
105.349
  0
LINE
  8
0
 10
12.891
 20
105.349
 11
12.8794
 21
105.316
  0
LINE
  8
0
 10
12.8794
 20
105.316
 11
12.8672
 21
105.283
  0
LINE
  8
0
 10
12.8672
 20
105.283
 11
12.8544
 21
105.251
  0
LINE
  8
0
 10
12.8544
 20
105.251
 11
12.841
 21
105.219
  0
LINE
  8
0
 10
12.841
 20
105.219
 11
12.8271
 21
105.187
  0
LINE
  8
0
 10
12.8271
 20
105.187
 11
12.8126
 21
105.155
  0
LINE
  8
0
 10
12.8126
 20
105.155
 11
12.7976
 21
105.123
  0
LINE
  8
0
 10
12.7976
 20
105.123
 11
12.782
 21
105.092
  0
LINE
  8
0
 10
12.782
 20
105.092
 11
12.7659
 21
105.061
  0
LINE
  8
0
 10
12.7659
 20
105.061
 11
12.7492
 21
105.03
  0
LINE
  8
0
 10
12.7492
 20
105.03
 11
12.732
 21
105
  0
LINE
  8
0
 10
12.732
 20
105
 11
12.7143
 21
104.97
  0
LINE
  8
0
 10
12.7143
 20
104.97
 11
12.6961
 21
104.94
  0
LINE
  8
0
 10
12.6961
 20
104.94
 11
12.6773
 21
104.911
  0
LINE
  8
0
 10
12.6773
 20
104.911
 11
12.6581
 21
104.882
  0
LINE
  8
0
 10
12.6581
 20
104.882
 11
12.6383
 21
104.853
  0
LINE
  8
0
 10
12.6383
 20
104.853
 11
12.618
 21
104.824
  0
LINE
  8
0
 10
12.618
 20
104.824
 11
12.5973
 21
104.796
  0
LINE
  8
0
 10
12.5973
 20
104.796
 11
12.576
 21
104.769
  0
LINE
  8
0
 10
12.576
 20
104.769
 11
12.5543
 21
104.741
  0
LINE
  8
0
 10
12.5543
 20
104.741
 11
12.5321
 21
104.714
  0
LINE
  8
0
 10
12.5321
 20
104.714
 11
12.5094
 21
104.688
  0
LINE
  8
0
 10
12.5094
 20
104.688
 11
12.4863
 21
104.662
  0
LINE
  8
0
 10
12.4863
 20
104.662
 11
12.4627
 21
104.636
  0
LINE
  8
0
 10
12.4627
 20
104.636
 11
12.4387
 21
104.611
  0
LINE
  8
0
 10
12.4387
 20
104.611
 11
12.4142
 21
104.586
  0
LINE
  8
0
 10
12.4142
 20
104.586
 11
12.3893
 21
104.561
  0
LINE
  8
0
 10
12.3893
 20
104.561
 11
12.364
 21
104.537
  0
LINE
  8
0
 10
12.364
 20
104.537
 11
12.3383
 21
104.514
  0
LINE
  8
0
 10
12.3383
 20
104.514
 11
12.3121
 21
104.491
  0
LINE
  8
0
 10
12.3121
 20
104.491
 11
12.2856
 21
104.468
  0
LINE
  8
0
 10
12.2856
 20
104.468
 11
12.2586
 21
104.446
  0
LINE
  8
0
 10
12.2586
 20
104.446
 11
12.2313
 21
104.424
  0
LINE
  8
0
 10
12.2313
 20
104.424
 11
12.2036
 21
104.403
  0
LINE
  8
0
 10
12.2036
 20
104.403
 11
12.1756
 21
104.382
  0
LINE
  8
0
 10
12.1756
 20
104.382
 11
12.1471
 21
104.362
  0
LINE
  8
0
 10
12.1471
 20
104.362
 11
12.1184
 21
104.342
  0
LINE
  8
0
 10
12.1184
 20
104.342
 11
12.0893
 21
104.323
  0
LINE
  8
0
 10
12.0893
 20
104.323
 11
12.0598
 21
104.304
  0
LINE
  8
0
 10
12.0598
 20
104.304
 11
12.0301
 21
104.286
  0
LINE
  8
0
 10
12.0301
 20
104.286
 11
12
 21
104.268
  0
LINE
  8
0
 10
12
 20
104.268
 11
11.9696
 21
104.251
  0
LINE
  8
0
 10
11.9696
 20
104.251
 11
11.9389
 21
104.234
  0
LINE
  8
0
 10
11.9389
 20
104.234
 11
11.908
 21
104.218
  0
LINE
  8
0
 10
11.908
 20
104.218
 11
11.8767
 21
104.202
  0
LINE
  8
0
 10
11.8767
 20
104.202
 11
11.8452
 21
104.187
  0
LINE
  8
0
 10
11.8452
 20
104.187
 11
11.8135
 21
104.173
  0
LINE
  8
0
 10
11.8135
 20
104.173
 11
11.7814
 21
104.159
  0
LINE
  8
0
 10
11.7814
 20
104.159
 11
11.7492
 21
104.146
  0
LINE
  8
0
 10
11.7492
 20
104.146
 11
11.7167
 21
104.133
  0
LINE
  8
0
 10
11.7167
 20
104.133
 11
11.684
 21
104.121
  0
LINE
  8
0
 10
11.684
 20
104.121
 11
11.6511
 21
104.109
  0
LINE
  8
0
 10
11.6511
 20
104.109
 11
11.618
 21
104.098
  0
LINE
  8
0
 10
11.618
 20
104.098
 11
11.5847
 21
104.087
  0
LINE
  8
0
 10
11.5847
 20
104.087
 11
11.5513
 21
104.077
  0
LINE
  8
0
 10
11.5513
 20
104.077
 11
11.5176
 21
104.068
  0
LINE
  8
0
 10
11.5176
 20
104.068
 11
11.4838
 21
104.059
  0
LINE
  8
0
 10
11.4838
 20
104.059
 11
11.4499
 21
104.051
  0
LINE
  8
0
 10
11.4499
 20
104.051
 11
11.4158
 21
104.044
  0
LINE
  8
0
 10
11.4158
 20
104.044
 11
11.3816
 21
104.037
  0
LINE
  8
0
 10
11.3816
 20
104.037
 11
11.3473
 21
104.03
  0
LINE
  8
0
 10
11.3473
 20
104.03
 11
11.3129
 21
104.025
  0
LINE
  8
0
 10
11.3129
 20
104.025
 11
11.2783
 21
104.019
  0
LINE
  8
0
 10
11.2783
 20
104.019
 11
11.2437
 21
104.015
  0
LINE
  8
0
 10
11.2437
 20
104.015
 11
11.209
 21
104.011
  0
LINE
  8
0
 10
11.209
 20
104.011
 11
11.1743
 21
104.008
  0
LINE
  8
0
 10
11.1743
 20
104.008
 11
11.1395
 21
104.005
  0
LINE
  8
0
 10
11.1395
 20
104.005
 11
11.1047
 21
104.003
  0
LINE
  8
0
 10
11.1047
 20
104.003
 11
11.0698
 21
104.001
  0
LINE
  8
0
 10
11.0698
 20
104.001
 11
11.0349
 21
104
  0
LINE
  8
0
 10
11.0349
 20
104
 11
11
 21
104
  0
LINE
  8
0
 10
11
 20
104
 11
10.9651
 21
104
  0
LINE
  8
0
 10
72.9651
 20
104
 11
72.9302
 21
104.001
  0
LINE
  8
0
 10
72.9302
 20
104.001
 11
72.8953
 21
104.003
  0
LINE
  8
0
 10
72.8953
 20
104.003
 11
72.8605
 21
104.005
  0
LINE
  8
0
 10
72.8605
 20
104.005
 11
72.8257
 21
104.008
  0
LINE
  8
0
 10
72.8257
 20
104.008
 11
72.7909
 21
104.011
  0
LINE
  8
0
 10
72.7909
 20
104.011
 11
72.7563
 21
104.015
  0
LINE
  8
0
 10
72.7563
 20
104.015
 11
72.7216
 21
104.019
  0
LINE
  8
0
 10
72.7216
 20
104.019
 11
72.6871
 21
104.025
  0
LINE
  8
0
 10
72.6871
 20
104.025
 11
72.6527
 21
104.03
  0
LINE
  8
0
 10
72.6527
 20
104.03
 11
72.6184
 21
104.037
  0
LINE
  8
0
 10
72.6184
 20
104.037
 11
72.5842
 21
104.044
  0
LINE
  8
0
 10
72.5842
 20
104.044
 11
72.5501
 21
104.051
  0
LINE
  8
0
 10
72.5501
 20
104.051
 11
72.5162
 21
104.059
  0
LINE
  8
0
 10
72.5162
 20
104.059
 11
72.4824
 21
104.068
  0
LINE
  8
0
 10
72.4824
 20
104.068
 11
72.4487
 21
104.077
  0
LINE
  8
0
 10
72.4487
 20
104.077
 11
72.4153
 21
104.087
  0
LINE
  8
0
 10
72.4153
 20
104.087
 11
72.382
 21
104.098
  0
LINE
  8
0
 10
72.382
 20
104.098
 11
72.3489
 21
104.109
  0
LINE
  8
0
 10
72.3489
 20
104.109
 11
72.3159
 21
104.121
  0
LINE
  8
0
 10
72.3159
 20
104.121
 11
72.2833
 21
104.133
  0
LINE
  8
0
 10
72.2833
 20
104.133
 11
72.2508
 21
104.146
  0
LINE
  8
0
 10
72.2508
 20
104.146
 11
72.2185
 21
104.159
  0
LINE
  8
0
 10
72.2185
 20
104.159
 11
72.1865
 21
104.173
  0
LINE
  8
0
 10
72.1865
 20
104.173
 11
72.1548
 21
104.187
  0
LINE
  8
0
 10
72.1548
 20
104.187
 11
72.1233
 21
104.202
  0
LINE
  8
0
 10
72.1233
 20
104.202
 11
72.092
 21
104.218
  0
LINE
  8
0
 10
72.092
 20
104.218
 11
72.0611
 21
104.234
  0
LINE
  8
0
 10
72.0611
 20
104.234
 11
72.0304
 21
104.251
  0
LINE
  8
0
 10
72.0304
 20
104.251
 11
72
 21
104.268
  0
LINE
  8
0
 10
72
 20
104.268
 11
71.9699
 21
104.286
  0
LINE
  8
0
 10
71.9699
 20
104.286
 11
71.9402
 21
104.304
  0
LINE
  8
0
 10
71.9402
 20
104.304
 11
71.9107
 21
104.323
  0
LINE
  8
0
 10
71.9107
 20
104.323
 11
71.8816
 21
104.342
  0
LINE
  8
0
 10
71.8816
 20
104.342
 11
71.8528
 21
104.362
  0
LINE
  8
0
 10
71.8528
 20
104.362
 11
71.8244
 21
104.382
  0
LINE
  8
0
 10
71.8244
 20
104.382
 11
71.7964
 21
104.403
  0
LINE
  8
0
 10
71.7964
 20
104.403
 11
71.7687
 21
104.424
  0
LINE
  8
0
 10
71.7687
 20
104.424
 11
71.7413
 21
104.446
  0
LINE
  8
0
 10
71.7413
 20
104.446
 11
71.7144
 21
104.468
  0
LINE
  8
0
 10
71.7144
 20
104.468
 11
71.6879
 21
104.491
  0
LINE
  8
0
 10
71.6879
 20
104.491
 11
71.6617
 21
104.514
  0
LINE
  8
0
 10
71.6617
 20
104.514
 11
71.636
 21
104.537
  0
LINE
  8
0
 10
71.636
 20
104.537
 11
71.6107
 21
104.561
  0
LINE
  8
0
 10
71.6107
 20
104.561
 11
71.5858
 21
104.586
  0
LINE
  8
0
 10
71.5858
 20
104.586
 11
71.5613
 21
104.611
  0
LINE
  8
0
 10
71.5613
 20
104.611
 11
71.5373
 21
104.636
  0
LINE
  8
0
 10
71.5373
 20
104.636
 11
71.5137
 21
104.662
  0
LINE
  8
0
 10
71.5137
 20
104.662
 11
71.4906
 21
104.688
  0
LINE
  8
0
 10
71.4906
 20
104.688
 11
71.4679
 21
104.714
  0
LINE
  8
0
 10
71.4679
 20
104.714
 11
71.4457
 21
104.741
  0
LINE
  8
0
 10
71.4457
 20
104.741
 11
71.424
 21
104.769
  0
LINE
  8
0
 10
71.424
 20
104.769
 11
71.4027
 21
104.796
  0
LINE
  8
0
 10
71.4027
 20
104.796
 11
71.382
 21
104.824
  0
LINE
  8
0
 10
71.382
 20
104.824
 11
71.3617
 21
104.853
  0
LINE
  8
0
 10
71.3617
 20
104.853
 11
71.3419
 21
104.882
  0
LINE
  8
0
 10
71.3419
 20
104.882
 11
71.3227
 21
104.911
  0
LINE
  8
0
 10
71.3227
 20
104.911
 11
71.3039
 21
104.94
  0
LINE
  8
0
 10
71.3039
 20
104.94
 11
71.2857
 21
104.97
  0
LINE
  8
0
 10
71.2857
 20
104.97
 11
71.2679
 21
105
  0
LINE
  8
0
 10
71.2679
 20
105
 11
71.2508
 21
105.03
  0
LINE
  8
0
 10
71.2508
 20
105.03
 11
71.2341
 21
105.061
  0
LINE
  8
0
 10
71.2341
 20
105.061
 11
71.218
 21
105.092
  0
LINE
  8
0
 10
71.218
 20
105.092
 11
71.2024
 21
105.123
  0
LINE
  8
0
 10
71.2024
 20
105.123
 11
71.1874
 21
105.155
  0
LINE
  8
0
 10
71.1874
 20
105.155
 11
71.1729
 21
105.187
  0
LINE
  8
0
 10
71.1729
 20
105.187
 11
71.159
 21
105.219
  0
LINE
  8
0
 10
71.159
 20
105.219
 11
71.1456
 21
105.251
  0
LINE
  8
0
 10
71.1456
 20
105.251
 11
71.1328
 21
105.283
  0
LINE
  8
0
 10
71.1328
 20
105.283
 11
71.1206
 21
105.316
  0
LINE
  8
0
 10
71.1206
 20
105.316
 11
71.109
 21
105.349
  0
LINE
  8
0
 10
71.109
 20
105.349
 11
71.0979
 21
105.382
  0
LINE
  8
0
 10
71.0979
 20
105.382
 11
71.0874
 21
105.415
  0
LINE
  8
0
 10
71.0874
 20
105.415
 11
71.0775
 21
105.449
  0
LINE
  8
0
 10
71.0775
 20
105.449
 11
71.0681
 21
105.482
  0
LINE
  8
0
 10
71.0681
 20
105.482
 11
71.0594
 21
105.516
  0
LINE
  8
0
 10
71.0594
 20
105.516
 11
71.0513
 21
105.55
  0
LINE
  8
0
 10
71.0513
 20
105.55
 11
71.0437
 21
105.584
  0
LINE
  8
0
 10
71.0437
 20
105.584
 11
71.0367
 21
105.618
  0
LINE
  8
0
 10
71.0367
 20
105.618
 11
71.0304
 21
105.653
  0
LINE
  8
0
 10
71.0304
 20
105.653
 11
71.0246
 21
105.687
  0
LINE
  8
0
 10
71.0246
 20
105.687
 11
71.0195
 21
105.722
  0
LINE
  8
0
 10
71.0195
 20
105.722
 11
71.0149
 21
105.756
  0
LINE
  8
0
 10
71.0149
 20
105.756
 11
71.011
 21
105.791
  0
LINE
  8
0
 10
71.011
 20
105.791
 11
71.0076
 21
105.826
  0
LINE
  8
0
 10
71.0076
 20
105.826
 11
71.0049
 21
105.86
  0
LINE
  8
0
 10
71.0049
 20
105.86
 11
71.0027
 21
105.895
  0
LINE
  8
0
 10
71.0027
 20
105.895
 11
71.0012
 21
105.93
  0
LINE
  8
0
 10
71.0012
 20
105.93
 11
71.0003
 21
105.965
  0
LINE
  8
0
 10
71.0003
 20
105.965
 11
71
 21
106
  0
LINE
  8
0
 10
71
 20
106
 11
71.0003
 21
106.035
  0
LINE
  8
0
 10
71.0003
 20
106.035
 11
71.0012
 21
106.07
  0
LINE
  8
0
 10
71.0012
 20
106.07
 11
71.0027
 21
106.105
  0
LINE
  8
0
 10
71.0027
 20
106.105
 11
71.0049
 21
106.14
  0
LINE
  8
0
 10
71.0049
 20
106.14
 11
71.0076
 21
106.174
  0
LINE
  8
0
 10
71.0076
 20
106.174
 11
71.011
 21
106.209
  0
LINE
  8
0
 10
71.011
 20
106.209
 11
71.0149
 21
106.244
  0
LINE
  8
0
 10
71.0149
 20
106.244
 11
71.0195
 21
106.278
  0
LINE
  8
0
 10
71.0195
 20
106.278
 11
71.0246
 21
106.313
  0
LINE
  8
0
 10
71.0246
 20
106.313
 11
71.0304
 21
106.347
  0
LINE
  8
0
 10
71.0304
 20
106.347
 11
71.0367
 21
106.382
  0
LINE
  8
0
 10
71.0367
 20
106.382
 11
71.0437
 21
106.416
  0
LINE
  8
0
 10
71.0437
 20
106.416
 11
71.0513
 21
106.45
  0
LINE
  8
0
 10
71.0513
 20
106.45
 11
71.0594
 21
106.484
  0
LINE
  8
0
 10
71.0594
 20
106.484
 11
71.0681
 21
106.518
  0
LINE
  8
0
 10
71.0681
 20
106.518
 11
71.0775
 21
106.551
  0
LINE
  8
0
 10
71.0775
 20
106.551
 11
71.0874
 21
106.585
  0
LINE
  8
0
 10
71.0874
 20
106.585
 11
71.0979
 21
106.618
  0
LINE
  8
0
 10
71.0979
 20
106.618
 11
71.109
 21
106.651
  0
LINE
  8
0
 10
71.109
 20
106.651
 11
71.1206
 21
106.684
  0
LINE
  8
0
 10
71.1206
 20
106.684
 11
71.1328
 21
106.717
  0
LINE
  8
0
 10
71.1328
 20
106.717
 11
71.1456
 21
106.749
  0
LINE
  8
0
 10
71.1456
 20
106.749
 11
71.159
 21
106.781
  0
LINE
  8
0
 10
71.159
 20
106.781
 11
71.1729
 21
106.813
  0
LINE
  8
0
 10
71.1729
 20
106.813
 11
71.1874
 21
106.845
  0
LINE
  8
0
 10
71.1874
 20
106.845
 11
71.2024
 21
106.877
  0
LINE
  8
0
 10
71.2024
 20
106.877
 11
71.218
 21
106.908
  0
LINE
  8
0
 10
71.218
 20
106.908
 11
71.2341
 21
106.939
  0
LINE
  8
0
 10
71.2341
 20
106.939
 11
71.2508
 21
106.97
  0
LINE
  8
0
 10
71.2508
 20
106.97
 11
71.2679
 21
107
  0
LINE
  8
0
 10
71.2679
 20
107
 11
71.2857
 21
107.03
  0
LINE
  8
0
 10
71.2857
 20
107.03
 11
71.3039
 21
107.06
  0
LINE
  8
0
 10
71.3039
 20
107.06
 11
71.3227
 21
107.089
  0
LINE
  8
0
 10
71.3227
 20
107.089
 11
71.3419
 21
107.118
  0
LINE
  8
0
 10
71.3419
 20
107.118
 11
71.3617
 21
107.147
  0
LINE
  8
0
 10
71.3617
 20
107.147
 11
71.382
 21
107.176
  0
LINE
  8
0
 10
71.382
 20
107.176
 11
71.4027
 21
107.204
  0
LINE
  8
0
 10
71.4027
 20
107.204
 11
71.424
 21
107.231
  0
LINE
  8
0
 10
71.424
 20
107.231
 11
71.4457
 21
107.259
  0
LINE
  8
0
 10
71.4457
 20
107.259
 11
71.4679
 21
107.286
  0
LINE
  8
0
 10
71.4679
 20
107.286
 11
71.4906
 21
107.312
  0
LINE
  8
0
 10
71.4906
 20
107.312
 11
71.5137
 21
107.338
  0
LINE
  8
0
 10
71.5137
 20
107.338
 11
71.5373
 21
107.364
  0
LINE
  8
0
 10
71.5373
 20
107.364
 11
71.5613
 21
107.389
  0
LINE
  8
0
 10
71.5613
 20
107.389
 11
71.5858
 21
107.414
  0
LINE
  8
0
 10
71.5858
 20
107.414
 11
71.6107
 21
107.439
  0
LINE
  8
0
 10
71.6107
 20
107.439
 11
71.636
 21
107.463
  0
LINE
  8
0
 10
71.636
 20
107.463
 11
71.6617
 21
107.486
  0
LINE
  8
0
 10
71.6617
 20
107.486
 11
71.6879
 21
107.509
  0
LINE
  8
0
 10
71.6879
 20
107.509
 11
71.7144
 21
107.532
  0
LINE
  8
0
 10
71.7144
 20
107.532
 11
71.7413
 21
107.554
  0
LINE
  8
0
 10
71.7413
 20
107.554
 11
71.7687
 21
107.576
  0
LINE
  8
0
 10
71.7687
 20
107.576
 11
71.7964
 21
107.597
  0
LINE
  8
0
 10
71.7964
 20
107.597
 11
71.8244
 21
107.618
  0
LINE
  8
0
 10
71.8244
 20
107.618
 11
71.8528
 21
107.638
  0
LINE
  8
0
 10
71.8528
 20
107.638
 11
71.8816
 21
107.658
  0
LINE
  8
0
 10
71.8816
 20
107.658
 11
71.9107
 21
107.677
  0
LINE
  8
0
 10
71.9107
 20
107.677
 11
71.9402
 21
107.696
  0
LINE
  8
0
 10
71.9402
 20
107.696
 11
71.9699
 21
107.714
  0
LINE
  8
0
 10
71.9699
 20
107.714
 11
72
 21
107.732
  0
LINE
  8
0
 10
72
 20
107.732
 11
72.0304
 21
107.749
  0
LINE
  8
0
 10
72.0304
 20
107.749
 11
72.0611
 21
107.766
  0
LINE
  8
0
 10
72.0611
 20
107.766
 11
72.092
 21
107.782
  0
LINE
  8
0
 10
72.092
 20
107.782
 11
72.1233
 21
107.798
  0
LINE
  8
0
 10
72.1233
 20
107.798
 11
72.1548
 21
107.813
  0
LINE
  8
0
 10
72.1548
 20
107.813
 11
72.1865
 21
107.827
  0
LINE
  8
0
 10
72.1865
 20
107.827
 11
72.2185
 21
107.841
  0
LINE
  8
0
 10
72.2185
 20
107.841
 11
72.2508
 21
107.854
  0
LINE
  8
0
 10
72.2508
 20
107.854
 11
72.2833
 21
107.867
  0
LINE
  8
0
 10
72.2833
 20
107.867
 11
72.3159
 21
107.879
  0
LINE
  8
0
 10
72.3159
 20
107.879
 11
72.3489
 21
107.891
  0
LINE
  8
0
 10
72.3489
 20
107.891
 11
72.382
 21
107.902
  0
LINE
  8
0
 10
72.382
 20
107.902
 11
72.4153
 21
107.913
  0
LINE
  8
0
 10
72.4153
 20
107.913
 11
72.4487
 21
107.923
  0
LINE
  8
0
 10
72.4487
 20
107.923
 11
72.4824
 21
107.932
  0
LINE
  8
0
 10
72.4824
 20
107.932
 11
72.5162
 21
107.941
  0
LINE
  8
0
 10
72.5162
 20
107.941
 11
72.5501
 21
107.949
  0
LINE
  8
0
 10
72.5501
 20
107.949
 11
72.5842
 21
107.956
  0
LINE
  8
0
 10
72.5842
 20
107.956
 11
72.6184
 21
107.963
  0
LINE
  8
0
 10
72.6184
 20
107.963
 11
72.6527
 21
107.97
  0
LINE
  8
0
 10
72.6527
 20
107.97
 11
72.6871
 21
107.975
  0
LINE
  8
0
 10
72.6871
 20
107.975
 11
72.7216
 21
107.981
  0
LINE
  8
0
 10
72.7216
 20
107.981
 11
72.7563
 21
107.985
  0
LINE
  8
0
 10
72.7563
 20
107.985
 11
72.7909
 21
107.989
  0
LINE
  8
0
 10
72.7909
 20
107.989
 11
72.8257
 21
107.992
  0
LINE
  8
0
 10
72.8257
 20
107.992
 11
72.8605
 21
107.995
  0
LINE
  8
0
 10
72.8605
 20
107.995
 11
72.8953
 21
107.997
  0
LINE
  8
0
 10
72.8953
 20
107.997
 11
72.9302
 21
107.999
  0
LINE
  8
0
 10
72.9302
 20
107.999
 11
72.9651
 21
108
  0
LINE
  8
0
 10
72.9651
 20
108
 11
73
 21
108
  0
LINE
  8
0
 10
73
 20
108
 11
73.0349
 21
108
  0
LINE
  8
0
 10
73.0349
 20
108
 11
73.0698
 21
107.999
  0
LINE
  8
0
 10
73.0698
 20
107.999
 11
73.1047
 21
107.997
  0
LINE
  8
0
 10
73.1047
 20
107.997
 11
73.1395
 21
107.995
  0
LINE
  8
0
 10
73.1395
 20
107.995
 11
73.1743
 21
107.992
  0
LINE
  8
0
 10
73.1743
 20
107.992
 11
73.2091
 21
107.989
  0
LINE
  8
0
 10
73.2091
 20
107.989
 11
73.2437
 21
107.985
  0
LINE
  8
0
 10
73.2437
 20
107.985
 11
73.2783
 21
107.981
  0
LINE
  8
0
 10
73.2783
 20
107.981
 11
73.3129
 21
107.975
  0
LINE
  8
0
 10
73.3129
 20
107.975
 11
73.3473
 21
107.97
  0
LINE
  8
0
 10
73.3473
 20
107.97
 11
73.3816
 21
107.963
  0
LINE
  8
0
 10
73.3816
 20
107.963
 11
73.4158
 21
107.956
  0
LINE
  8
0
 10
73.4158
 20
107.956
 11
73.4499
 21
107.949
  0
LINE
  8
0
 10
73.4499
 20
107.949
 11
73.4838
 21
107.941
  0
LINE
  8
0
 10
73.4838
 20
107.941
 11
73.5176
 21
107.932
  0
LINE
  8
0
 10
73.5176
 20
107.932
 11
73.5513
 21
107.923
  0
LINE
  8
0
 10
73.5513
 20
107.923
 11
73.5847
 21
107.913
  0
LINE
  8
0
 10
73.5847
 20
107.913
 11
73.618
 21
107.902
  0
LINE
  8
0
 10
73.618
 20
107.902
 11
73.6511
 21
107.891
  0
LINE
  8
0
 10
73.6511
 20
107.891
 11
73.684
 21
107.879
  0
LINE
  8
0
 10
73.684
 20
107.879
 11
73.7167
 21
107.867
  0
LINE
  8
0
 10
73.7167
 20
107.867
 11
73.7492
 21
107.854
  0
LINE
  8
0
 10
73.7492
 20
107.854
 11
73.7815
 21
107.841
  0
LINE
  8
0
 10
73.7815
 20
107.841
 11
73.8135
 21
107.827
  0
LINE
  8
0
 10
73.8135
 20
107.827
 11
73.8452
 21
107.813
  0
LINE
  8
0
 10
73.8452
 20
107.813
 11
73.8767
 21
107.798
  0
LINE
  8
0
 10
73.8767
 20
107.798
 11
73.908
 21
107.782
  0
LINE
  8
0
 10
73.908
 20
107.782
 11
73.9389
 21
107.766
  0
LINE
  8
0
 10
73.9389
 20
107.766
 11
73.9696
 21
107.749
  0
LINE
  8
0
 10
73.9696
 20
107.749
 11
74
 21
107.732
  0
LINE
  8
0
 10
74
 20
107.732
 11
74.0301
 21
107.714
  0
LINE
  8
0
 10
74.0301
 20
107.714
 11
74.0598
 21
107.696
  0
LINE
  8
0
 10
74.0598
 20
107.696
 11
74.0893
 21
107.677
  0
LINE
  8
0
 10
74.0893
 20
107.677
 11
74.1184
 21
107.658
  0
LINE
  8
0
 10
74.1184
 20
107.658
 11
74.1472
 21
107.638
  0
LINE
  8
0
 10
74.1472
 20
107.638
 11
74.1756
 21
107.618
  0
LINE
  8
0
 10
74.1756
 20
107.618
 11
74.2036
 21
107.597
  0
LINE
  8
0
 10
74.2036
 20
107.597
 11
74.2313
 21
107.576
  0
LINE
  8
0
 10
74.2313
 20
107.576
 11
74.2586
 21
107.554
  0
LINE
  8
0
 10
74.2586
 20
107.554
 11
74.2856
 21
107.532
  0
LINE
  8
0
 10
74.2856
 20
107.532
 11
74.3121
 21
107.509
  0
LINE
  8
0
 10
74.3121
 20
107.509
 11
74.3383
 21
107.486
  0
LINE
  8
0
 10
74.3383
 20
107.486
 11
74.364
 21
107.463
  0
LINE
  8
0
 10
74.364
 20
107.463
 11
74.3893
 21
107.439
  0
LINE
  8
0
 10
74.3893
 20
107.439
 11
74.4142
 21
107.414
  0
LINE
  8
0
 10
74.4142
 20
107.414
 11
74.4387
 21
107.389
  0
LINE
  8
0
 10
74.4387
 20
107.389
 11
74.4627
 21
107.364
  0
LINE
  8
0
 10
74.4627
 20
107.364
 11
74.4863
 21
107.338
  0
LINE
  8
0
 10
74.4863
 20
107.338
 11
74.5094
 21
107.312
  0
LINE
  8
0
 10
74.5094
 20
107.312
 11
74.5321
 21
107.286
  0
LINE
  8
0
 10
74.5321
 20
107.286
 11
74.5543
 21
107.259
  0
LINE
  8
0
 10
74.5543
 20
107.259
 11
74.576
 21
107.231
  0
LINE
  8
0
 10
74.576
 20
107.231
 11
74.5973
 21
107.204
  0
LINE
  8
0
 10
74.5973
 20
107.204
 11
74.618
 21
107.176
  0
LINE
  8
0
 10
74.618
 20
107.176
 11
74.6383
 21
107.147
  0
LINE
  8
0
 10
74.6383
 20
107.147
 11
74.6581
 21
107.118
  0
LINE
  8
0
 10
74.6581
 20
107.118
 11
74.6773
 21
107.089
  0
LINE
  8
0
 10
74.6773
 20
107.089
 11
74.6961
 21
107.06
  0
LINE
  8
0
 10
74.6961
 20
107.06
 11
74.7143
 21
107.03
  0
LINE
  8
0
 10
74.7143
 20
107.03
 11
74.732
 21
107
  0
LINE
  8
0
 10
74.732
 20
107
 11
74.7492
 21
106.97
  0
LINE
  8
0
 10
74.7492
 20
106.97
 11
74.7659
 21
106.939
  0
LINE
  8
0
 10
74.7659
 20
106.939
 11
74.782
 21
106.908
  0
LINE
  8
0
 10
74.782
 20
106.908
 11
74.7976
 21
106.877
  0
LINE
  8
0
 10
74.7976
 20
106.877
 11
74.8126
 21
106.845
  0
LINE
  8
0
 10
74.8126
 20
106.845
 11
74.8271
 21
106.813
  0
LINE
  8
0
 10
74.8271
 20
106.813
 11
74.841
 21
106.781
  0
LINE
  8
0
 10
74.841
 20
106.781
 11
74.8544
 21
106.749
  0
LINE
  8
0
 10
74.8544
 20
106.749
 11
74.8672
 21
106.717
  0
LINE
  8
0
 10
74.8672
 20
106.717
 11
74.8794
 21
106.684
  0
LINE
  8
0
 10
74.8794
 20
106.684
 11
74.891
 21
106.651
  0
LINE
  8
0
 10
74.891
 20
106.651
 11
74.9021
 21
106.618
  0
LINE
  8
0
 10
74.9021
 20
106.618
 11
74.9126
 21
106.585
  0
LINE
  8
0
 10
74.9126
 20
106.585
 11
74.9225
 21
106.551
  0
LINE
  8
0
 10
74.9225
 20
106.551
 11
74.9319
 21
106.518
  0
LINE
  8
0
 10
74.9319
 20
106.518
 11
74.9406
 21
106.484
  0
LINE
  8
0
 10
74.9406
 20
106.484
 11
74.9487
 21
106.45
  0
LINE
  8
0
 10
74.9487
 20
106.45
 11
74.9563
 21
106.416
  0
LINE
  8
0
 10
74.9563
 20
106.416
 11
74.9633
 21
106.382
  0
LINE
  8
0
 10
74.9633
 20
106.382
 11
74.9696
 21
106.347
  0
LINE
  8
0
 10
74.9696
 20
106.347
 11
74.9754
 21
106.313
  0
LINE
  8
0
 10
74.9754
 20
106.313
 11
74.9805
 21
106.278
  0
LINE
  8
0
 10
74.9805
 20
106.278
 11
74.9851
 21
106.244
  0
LINE
  8
0
 10
74.9851
 20
106.244
 11
74.989
 21
106.209
  0
LINE
  8
0
 10
74.989
 20
106.209
 11
74.9924
 21
106.174
  0
LINE
  8
0
 10
74.9924
 20
106.174
 11
74.9951
 21
106.14
  0
LINE
  8
0
 10
74.9951
 20
106.14
 11
74.9973
 21
106.105
  0
LINE
  8
0
 10
74.9973
 20
106.105
 11
74.9988
 21
106.07
  0
LINE
  8
0
 10
74.9988
 20
106.07
 11
74.9997
 21
106.035
  0
LINE
  8
0
 10
74.9997
 20
106.035
 11
75
 21
106
  0
LINE
  8
0
 10
75
 20
106
 11
74.9997
 21
105.965
  0
LINE
  8
0
 10
74.9997
 20
105.965
 11
74.9988
 21
105.93
  0
LINE
  8
0
 10
74.9988
 20
105.93
 11
74.9973
 21
105.895
  0
LINE
  8
0
 10
74.9973
 20
105.895
 11
74.9951
 21
105.86
  0
LINE
  8
0
 10
74.9951
 20
105.86
 11
74.9924
 21
105.826
  0
LINE
  8
0
 10
74.9924
 20
105.826
 11
74.989
 21
105.791
  0
LINE
  8
0
 10
74.989
 20
105.791
 11
74.9851
 21
105.756
  0
LINE
  8
0
 10
74.9851
 20
105.756
 11
74.9805
 21
105.722
  0
LINE
  8
0
 10
74.9805
 20
105.722
 11
74.9754
 21
105.687
  0
LINE
  8
0
 10
74.9754
 20
105.687
 11
74.9696
 21
105.653
  0
LINE
  8
0
 10
74.9696
 20
105.653
 11
74.9633
 21
105.618
  0
LINE
  8
0
 10
74.9633
 20
105.618
 11
74.9563
 21
105.584
  0
LINE
  8
0
 10
74.9563
 20
105.584
 11
74.9487
 21
105.55
  0
LINE
  8
0
 10
74.9487
 20
105.55
 11
74.9406
 21
105.516
  0
LINE
  8
0
 10
74.9406
 20
105.516
 11
74.9319
 21
105.482
  0
LINE
  8
0
 10
74.9319
 20
105.482
 11
74.9225
 21
105.449
  0
LINE
  8
0
 10
74.9225
 20
105.449
 11
74.9126
 21
105.415
  0
LINE
  8
0
 10
74.9126
 20
105.415
 11
74.9021
 21
105.382
  0
LINE
  8
0
 10
74.9021
 20
105.382
 11
74.891
 21
105.349
  0
LINE
  8
0
 10
74.891
 20
105.349
 11
74.8794
 21
105.316
  0
LINE
  8
0
 10
74.8794
 20
105.316
 11
74.8672
 21
105.283
  0
LINE
  8
0
 10
74.8672
 20
105.283
 11
74.8544
 21
105.251
  0
LINE
  8
0
 10
74.8544
 20
105.251
 11
74.841
 21
105.219
  0
LINE
  8
0
 10
74.841
 20
105.219
 11
74.8271
 21
105.187
  0
LINE
  8
0
 10
74.8271
 20
105.187
 11
74.8126
 21
105.155
  0
LINE
  8
0
 10
74.8126
 20
105.155
 11
74.7976
 21
105.123
  0
LINE
  8
0
 10
74.7976
 20
105.123
 11
74.782
 21
105.092
  0
LINE
  8
0
 10
74.782
 20
105.092
 11
74.7659
 21
105.061
  0
LINE
  8
0
 10
74.7659
 20
105.061
 11
74.7492
 21
105.03
  0
LINE
  8
0
 10
74.7492
 20
105.03
 11
74.732
 21
105
  0
LINE
  8
0
 10
74.732
 20
105
 11
74.7143
 21
104.97
  0
LINE
  8
0
 10
74.7143
 20
104.97
 11
74.6961
 21
104.94
  0
LINE
  8
0
 10
74.6961
 20
104.94
 11
74.6773
 21
104.911
  0
LINE
  8
0
 10
74.6773
 20
104.911
 11
74.6581
 21
104.882
  0
LINE
  8
0
 10
74.6581
 20
104.882
 11
74.6383
 21
104.853
  0
LINE
  8
0
 10
74.6383
 20
104.853
 11
74.618
 21
104.824
  0
LINE
  8
0
 10
74.618
 20
104.824
 11
74.5973
 21
104.796
  0
LINE
  8
0
 10
74.5973
 20
104.796
 11
74.576
 21
104.769
  0
LINE
  8
0
 10
74.576
 20
104.769
 11
74.5543
 21
104.741
  0
LINE
  8
0
 10
74.5543
 20
104.741
 11
74.5321
 21
104.714
  0
LINE
  8
0
 10
74.5321
 20
104.714
 11
74.5094
 21
104.688
  0
LINE
  8
0
 10
74.5094
 20
104.688
 11
74.4863
 21
104.662
  0
LINE
  8
0
 10
74.4863
 20
104.662
 11
74.4627
 21
104.636
  0
LINE
  8
0
 10
74.4627
 20
104.636
 11
74.4387
 21
104.611
  0
LINE
  8
0
 10
74.4387
 20
104.611
 11
74.4142
 21
104.586
  0
LINE
  8
0
 10
74.4142
 20
104.586
 11
74.3893
 21
104.561
  0
LINE
  8
0
 10
74.3893
 20
104.561
 11
74.364
 21
104.537
  0
LINE
  8
0
 10
74.364
 20
104.537
 11
74.3383
 21
104.514
  0
LINE
  8
0
 10
74.3383
 20
104.514
 11
74.3121
 21
104.491
  0
LINE
  8
0
 10
74.3121
 20
104.491
 11
74.2856
 21
104.468
  0
LINE
  8
0
 10
74.2856
 20
104.468
 11
74.2586
 21
104.446
  0
LINE
  8
0
 10
74.2586
 20
104.446
 11
74.2313
 21
104.424
  0
LINE
  8
0
 10
74.2313
 20
104.424
 11
74.2036
 21
104.403
  0
LINE
  8
0
 10
74.2036
 20
104.403
 11
74.1756
 21
104.382
  0
LINE
  8
0
 10
74.1756
 20
104.382
 11
74.1472
 21
104.362
  0
LINE
  8
0
 10
74.1472
 20
104.362
 11
74.1184
 21
104.342
  0
LINE
  8
0
 10
74.1184
 20
104.342
 11
74.0893
 21
104.323
  0
LINE
  8
0
 10
74.0893
 20
104.323
 11
74.0598
 21
104.304
  0
LINE
  8
0
 10
74.0598
 20
104.304
 11
74.0301
 21
104.286
  0
LINE
  8
0
 10
74.0301
 20
104.286
 11
74
 21
104.268
  0
LINE
  8
0
 10
74
 20
104.268
 11
73.9696
 21
104.251
  0
LINE
  8
0
 10
73.9696
 20
104.251
 11
73.9389
 21
104.234
  0
LINE
  8
0
 10
73.9389
 20
104.234
 11
73.908
 21
104.218
  0
LINE
  8
0
 10
73.908
 20
104.218
 11
73.8767
 21
104.202
  0
LINE
  8
0
 10
73.8767
 20
104.202
 11
73.8452
 21
104.187
  0
LINE
  8
0
 10
73.8452
 20
104.187
 11
73.8135
 21
104.173
  0
LINE
  8
0
 10
73.8135
 20
104.173
 11
73.7815
 21
104.159
  0
LINE
  8
0
 10
73.7815
 20
104.159
 11
73.7492
 21
104.146
  0
LINE
  8
0
 10
73.7492
 20
104.146
 11
73.7167
 21
104.133
  0
LINE
  8
0
 10
73.7167
 20
104.133
 11
73.684
 21
104.121
  0
LINE
  8
0
 10
73.684
 20
104.121
 11
73.6511
 21
104.109
  0
LINE
  8
0
 10
73.6511
 20
104.109
 11
73.618
 21
104.098
  0
LINE
  8
0
 10
73.618
 20
104.098
 11
73.5847
 21
104.087
  0
LINE
  8
0
 10
73.5847
 20
104.087
 11
73.5513
 21
104.077
  0
LINE
  8
0
 10
73.5513
 20
104.077
 11
73.5176
 21
104.068
  0
LINE
  8
0
 10
73.5176
 20
104.068
 11
73.4838
 21
104.059
  0
LINE
  8
0
 10
73.4838
 20
104.059
 11
73.4499
 21
104.051
  0
LINE
  8
0
 10
73.4499
 20
104.051
 11
73.4158
 21
104.044
  0
LINE
  8
0
 10
73.4158
 20
104.044
 11
73.3816
 21
104.037
  0
LINE
  8
0
 10
73.3816
 20
104.037
 11
73.3473
 21
104.03
  0
LINE
  8
0
 10
73.3473
 20
104.03
 11
73.3129
 21
104.025
  0
LINE
  8
0
 10
73.3129
 20
104.025
 11
73.2783
 21
104.019
  0
LINE
  8
0
 10
73.2783
 20
104.019
 11
73.2437
 21
104.015
  0
LINE
  8
0
 10
73.2437
 20
104.015
 11
73.2091
 21
104.011
  0
LINE
  8
0
 10
73.2091
 20
104.011
 11
73.1743
 21
104.008
  0
LINE
  8
0
 10
73.1743
 20
104.008
 11
73.1395
 21
104.005
  0
LINE
  8
0
 10
73.1395
 20
104.005
 11
73.1047
 21
104.003
  0
LINE
  8
0
 10
73.1047
 20
104.003
 11
73.0698
 21
104.001
  0
LINE
  8
0
 10
73.0698
 20
104.001
 11
73.0349
 21
104
  0
LINE
  8
0
 10
73.0349
 20
104
 11
73
 21
104
  0
LINE
  8
0
 10
73
 20
104
 11
72.9651
 21
104
  0
LINE
  8
0
 10
10.9651
 20
20.0003
 11
10.9302
 21
20.0012
  0
LINE
  8
0
 10
10.9302
 20
20.0012
 11
10.8953
 21
20.0027
  0
LINE
  8
0
 10
10.8953
 20
20.0027
 11
10.8605
 21
20.0049
  0
LINE
  8
0
 10
10.8605
 20
20.0049
 11
10.8257
 21
20.0076
  0
LINE
  8
0
 10
10.8257
 20
20.0076
 11
10.7909
 21
20.011
  0
LINE
  8
0
 10
10.7909
 20
20.011
 11
10.7563
 21
20.0149
  0
LINE
  8
0
 10
10.7563
 20
20.0149
 11
10.7216
 21
20.0195
  0
LINE
  8
0
 10
10.7216
 20
20.0195
 11
10.6871
 21
20.0246
  0
LINE
  8
0
 10
10.6871
 20
20.0246
 11
10.6527
 21
20.0304
  0
LINE
  8
0
 10
10.6527
 20
20.0304
 11
10.6184
 21
20.0367
  0
LINE
  8
0
 10
10.6184
 20
20.0367
 11
10.5842
 21
20.0437
  0
LINE
  8
0
 10
10.5842
 20
20.0437
 11
10.5501
 21
20.0513
  0
LINE
  8
0
 10
10.5501
 20
20.0513
 11
10.5161
 21
20.0594
  0
LINE
  8
0
 10
10.5161
 20
20.0594
 11
10.4824
 21
20.0681
  0
LINE
  8
0
 10
10.4824
 20
20.0681
 11
10.4487
 21
20.0775
  0
LINE
  8
0
 10
10.4487
 20
20.0775
 11
10.4153
 21
20.0874
  0
LINE
  8
0
 10
10.4153
 20
20.0874
 11
10.382
 21
20.0979
  0
LINE
  8
0
 10
10.382
 20
20.0979
 11
10.3489
 21
20.109
  0
LINE
  8
0
 10
10.3489
 20
20.109
 11
10.3159
 21
20.1206
  0
LINE
  8
0
 10
10.3159
 20
20.1206
 11
10.2832
 21
20.1328
  0
LINE
  8
0
 10
10.2832
 20
20.1328
 11
10.2508
 21
20.1456
  0
LINE
  8
0
 10
10.2508
 20
20.1456
 11
10.2185
 21
20.159
  0
LINE
  8
0
 10
10.2185
 20
20.159
 11
10.1865
 21
20.1729
  0
LINE
  8
0
 10
10.1865
 20
20.1729
 11
10.1548
 21
20.1874
  0
LINE
  8
0
 10
10.1548
 20
20.1874
 11
10.1232
 21
20.2024
  0
LINE
  8
0
 10
10.1232
 20
20.2024
 11
10.092
 21
20.218
  0
LINE
  8
0
 10
10.092
 20
20.218
 11
10.0611
 21
20.2341
  0
LINE
  8
0
 10
10.0611
 20
20.2341
 11
10.0304
 21
20.2507
  0
LINE
  8
0
 10
10.0304
 20
20.2507
 11
10
 21
20.2679
  0
LINE
  8
0
 10
10
 20
20.2679
 11
9.96991
 21
20.2857
  0
LINE
  8
0
 10
9.96991
 20
20.2857
 11
9.94016
 21
20.3039
  0
LINE
  8
0
 10
9.94016
 20
20.3039
 11
9.91072
 21
20.3226
  0
LINE
  8
0
 10
9.91072
 20
20.3226
 11
9.88161
 21
20.3419
  0
LINE
  8
0
 10
9.88161
 20
20.3419
 11
9.85284
 21
20.3617
  0
LINE
  8
0
 10
9.85284
 20
20.3617
 11
9.82442
 21
20.382
  0
LINE
  8
0
 10
9.82442
 20
20.382
 11
9.79636
 21
20.4027
  0
LINE
  8
0
 10
9.79636
 20
20.4027
 11
9.76868
 21
20.424
  0
LINE
  8
0
 10
9.76868
 20
20.424
 11
9.74135
 21
20.4457
  0
LINE
  8
0
 10
9.74135
 20
20.4457
 11
9.71442
 21
20.4679
  0
LINE
  8
0
 10
9.71442
 20
20.4679
 11
9.68788
 21
20.4906
  0
LINE
  8
0
 10
9.68788
 20
20.4906
 11
9.66173
 21
20.5137
  0
LINE
  8
0
 10
9.66173
 20
20.5137
 11
9.636
 21
20.5373
  0
LINE
  8
0
 10
9.636
 20
20.5373
 11
9.61067
 21
20.5613
  0
LINE
  8
0
 10
9.61067
 20
20.5613
 11
9.58578
 21
20.5858
  0
LINE
  8
0
 10
9.58578
 20
20.5858
 11
9.56131
 21
20.6107
  0
LINE
  8
0
 10
9.56131
 20
20.6107
 11
9.53729
 21
20.636
  0
LINE
  8
0
 10
9.53729
 20
20.636
 11
9.5137
 21
20.6617
  0
LINE
  8
0
 10
9.5137
 20
20.6617
 11
9.49057
 21
20.6879
  0
LINE
  8
0
 10
9.49057
 20
20.6879
 11
9.46791
 21
20.7144
  0
LINE
  8
0
 10
9.46791
 20
20.7144
 11
9.44569
 21
20.7413
  0
LINE
  8
0
 10
9.44569
 20
20.7413
 11
9.42397
 21
20.7687
  0
LINE
  8
0
 10
9.42397
 20
20.7687
 11
9.40273
 21
20.7964
  0
LINE
  8
0
 10
9.40273
 20
20.7964
 11
9.38196
 21
20.8244
  0
LINE
  8
0
 10
9.38196
 20
20.8244
 11
9.36169
 21
20.8528
  0
LINE
  8
0
 10
9.36169
 20
20.8528
 11
9.34192
 21
20.8816
  0
LINE
  8
0
 10
9.34192
 20
20.8816
 11
9.32265
 21
20.9107
  0
LINE
  8
0
 10
9.32265
 20
20.9107
 11
9.30389
 21
20.9402
  0
LINE
  8
0
 10
9.30389
 20
20.9402
 11
9.28566
 21
20.9699
  0
LINE
  8
0
 10
9.28566
 20
20.9699
 11
9.26794
 21
21
  0
LINE
  8
0
 10
9.26794
 20
21
 11
9.25075
 21
21.0304
  0
LINE
  8
0
 10
9.25075
 20
21.0304
 11
9.2341
 21
21.0611
  0
LINE
  8
0
 10
9.2341
 20
21.0611
 11
9.21797
 21
21.092
  0
LINE
  8
0
 10
9.21797
 20
21.092
 11
9.20241
 21
21.1232
  0
LINE
  8
0
 10
9.20241
 20
21.1232
 11
9.18738
 21
21.1548
  0
LINE
  8
0
 10
9.18738
 20
21.1548
 11
9.1729
 21
21.1865
  0
LINE
  8
0
 10
9.1729
 20
21.1865
 11
9.15898
 21
21.2185
  0
LINE
  8
0
 10
9.15898
 20
21.2185
 11
9.14563
 21
21.2508
  0
LINE
  8
0
 10
9.14563
 20
21.2508
 11
9.13283
 21
21.2833
  0
LINE
  8
0
 10
9.13283
 20
21.2833
 11
9.12061
 21
21.3159
  0
LINE
  8
0
 10
9.12061
 20
21.3159
 11
9.10895
 21
21.3489
  0
LINE
  8
0
 10
9.10895
 20
21.3489
 11
9.09789
 21
21.382
  0
LINE
  8
0
 10
9.09789
 20
21.382
 11
9.08739
 21
21.4153
  0
LINE
  8
0
 10
9.08739
 20
21.4153
 11
9.07747
 21
21.4487
  0
LINE
  8
0
 10
9.07747
 20
21.4487
 11
9.06815
 21
21.4824
  0
LINE
  8
0
 10
9.06815
 20
21.4824
 11
9.0594
 21
21.5161
  0
LINE
  8
0
 10
9.0594
 20
21.5161
 11
9.05125
 21
21.5501
  0
LINE
  8
0
 10
9.05125
 20
21.5501
 11
9.0437
 21
21.5842
  0
LINE
  8
0
 10
9.0437
 20
21.5842
 11
9.03674
 21
21.6184
  0
LINE
  8
0
 10
9.03674
 20
21.6184
 11
9.03038
 21
21.6527
  0
LINE
  8
0
 10
9.03038
 20
21.6527
 11
9.02461
 21
21.6871
  0
LINE
  8
0
 10
9.02461
 20
21.6871
 11
9.01945
 21
21.7216
  0
LINE
  8
0
 10
9.01945
 20
21.7216
 11
9.01489
 21
21.7563
  0
LINE
  8
0
 10
9.01489
 20
21.7563
 11
9.01096
 21
21.7909
  0
LINE
  8
0
 10
9.01096
 20
21.7909
 11
9.0076
 21
21.8257
  0
LINE
  8
0
 10
9.0076
 20
21.8257
 11
9.00487
 21
21.8605
  0
LINE
  8
0
 10
9.00487
 20
21.8605
 11
9.00273
 21
21.8953
  0
LINE
  8
0
 10
9.00273
 20
21.8953
 11
9.00121
 21
21.9302
  0
LINE
  8
0
 10
9.00121
 20
21.9302
 11
9.00029
 21
21.9651
  0
LINE
  8
0
 10
9.00029
 20
21.9651
 11
9
 21
22
  0
LINE
  8
0
 10
9
 20
22
 11
9.00029
 21
22.0349
  0
LINE
  8
0
 10
9.00029
 20
22.0349
 11
9.00121
 21
22.0698
  0
LINE
  8
0
 10
9.00121
 20
22.0698
 11
9.00273
 21
22.1047
  0
LINE
  8
0
 10
9.00273
 20
22.1047
 11
9.00487
 21
22.1395
  0
LINE
  8
0
 10
9.00487
 20
22.1395
 11
9.0076
 21
22.1743
  0
LINE
  8
0
 10
9.0076
 20
22.1743
 11
9.01096
 21
22.209
  0
LINE
  8
0
 10
9.01096
 20
22.209
 11
9.01489
 21
22.2437
  0
LINE
  8
0
 10
9.01489
 20
22.2437
 11
9.01945
 21
22.2783
  0
LINE
  8
0
 10
9.01945
 20
22.2783
 11
9.02461
 21
22.3129
  0
LINE
  8
0
 10
9.02461
 20
22.3129
 11
9.03038
 21
22.3473
  0
LINE
  8
0
 10
9.03038
 20
22.3473
 11
9.03674
 21
22.3816
  0
LINE
  8
0
 10
9.03674
 20
22.3816
 11
9.0437
 21
22.4158
  0
LINE
  8
0
 10
9.0437
 20
22.4158
 11
9.05125
 21
22.4499
  0
LINE
  8
0
 10
9.05125
 20
22.4499
 11
9.0594
 21
22.4838
  0
LINE
  8
0
 10
9.0594
 20
22.4838
 11
9.06815
 21
22.5176
  0
LINE
  8
0
 10
9.06815
 20
22.5176
 11
9.07747
 21
22.5513
  0
LINE
  8
0
 10
9.07747
 20
22.5513
 11
9.08739
 21
22.5847
  0
LINE
  8
0
 10
9.08739
 20
22.5847
 11
9.09789
 21
22.618
  0
LINE
  8
0
 10
9.09789
 20
22.618
 11
9.10895
 21
22.6511
  0
LINE
  8
0
 10
9.10895
 20
22.6511
 11
9.12061
 21
22.684
  0
LINE
  8
0
 10
9.12061
 20
22.684
 11
9.13283
 21
22.7167
  0
LINE
  8
0
 10
9.13283
 20
22.7167
 11
9.14563
 21
22.7492
  0
LINE
  8
0
 10
9.14563
 20
22.7492
 11
9.15898
 21
22.7814
  0
LINE
  8
0
 10
9.15898
 20
22.7814
 11
9.1729
 21
22.8135
  0
LINE
  8
0
 10
9.1729
 20
22.8135
 11
9.18738
 21
22.8452
  0
LINE
  8
0
 10
9.18738
 20
22.8452
 11
9.20241
 21
22.8767
  0
LINE
  8
0
 10
9.20241
 20
22.8767
 11
9.21797
 21
22.908
  0
LINE
  8
0
 10
9.21797
 20
22.908
 11
9.2341
 21
22.9389
  0
LINE
  8
0
 10
9.2341
 20
22.9389
 11
9.25075
 21
22.9696
  0
LINE
  8
0
 10
9.25075
 20
22.9696
 11
9.26794
 21
23
  0
LINE
  8
0
 10
9.26794
 20
23
 11
9.28566
 21
23.0301
  0
LINE
  8
0
 10
9.28566
 20
23.0301
 11
9.30389
 21
23.0598
  0
LINE
  8
0
 10
9.30389
 20
23.0598
 11
9.32265
 21
23.0893
  0
LINE
  8
0
 10
9.32265
 20
23.0893
 11
9.34192
 21
23.1184
  0
LINE
  8
0
 10
9.34192
 20
23.1184
 11
9.36169
 21
23.1471
  0
LINE
  8
0
 10
9.36169
 20
23.1471
 11
9.38196
 21
23.1756
  0
LINE
  8
0
 10
9.38196
 20
23.1756
 11
9.40273
 21
23.2036
  0
LINE
  8
0
 10
9.40273
 20
23.2036
 11
9.42397
 21
23.2313
  0
LINE
  8
0
 10
9.42397
 20
23.2313
 11
9.44569
 21
23.2586
  0
LINE
  8
0
 10
9.44569
 20
23.2586
 11
9.46791
 21
23.2856
  0
LINE
  8
0
 10
9.46791
 20
23.2856
 11
9.49057
 21
23.3121
  0
LINE
  8
0
 10
9.49057
 20
23.3121
 11
9.5137
 21
23.3383
  0
LINE
  8
0
 10
9.5137
 20
23.3383
 11
9.53729
 21
23.364
  0
LINE
  8
0
 10
9.53729
 20
23.364
 11
9.56131
 21
23.3893
  0
LINE
  8
0
 10
9.56131
 20
23.3893
 11
9.58578
 21
23.4142
  0
LINE
  8
0
 10
9.58578
 20
23.4142
 11
9.61067
 21
23.4387
  0
LINE
  8
0
 10
9.61067
 20
23.4387
 11
9.636
 21
23.4627
  0
LINE
  8
0
 10
9.636
 20
23.4627
 11
9.66173
 21
23.4863
  0
LINE
  8
0
 10
9.66173
 20
23.4863
 11
9.68788
 21
23.5094
  0
LINE
  8
0
 10
9.68788
 20
23.5094
 11
9.71442
 21
23.5321
  0
LINE
  8
0
 10
9.71442
 20
23.5321
 11
9.74135
 21
23.5543
  0
LINE
  8
0
 10
9.74135
 20
23.5543
 11
9.76868
 21
23.576
  0
LINE
  8
0
 10
9.76868
 20
23.576
 11
9.79636
 21
23.5973
  0
LINE
  8
0
 10
9.79636
 20
23.5973
 11
9.82442
 21
23.618
  0
LINE
  8
0
 10
9.82442
 20
23.618
 11
9.85284
 21
23.6383
  0
LINE
  8
0
 10
9.85284
 20
23.6383
 11
9.88161
 21
23.6581
  0
LINE
  8
0
 10
9.88161
 20
23.6581
 11
9.91072
 21
23.6773
  0
LINE
  8
0
 10
9.91072
 20
23.6773
 11
9.94016
 21
23.6961
  0
LINE
  8
0
 10
9.94016
 20
23.6961
 11
9.96991
 21
23.7143
  0
LINE
  8
0
 10
9.96991
 20
23.7143
 11
10
 21
23.732
  0
LINE
  8
0
 10
10
 20
23.732
 11
10.0304
 21
23.7492
  0
LINE
  8
0
 10
10.0304
 20
23.7492
 11
10.0611
 21
23.7659
  0
LINE
  8
0
 10
10.0611
 20
23.7659
 11
10.092
 21
23.782
  0
LINE
  8
0
 10
10.092
 20
23.782
 11
10.1232
 21
23.7976
  0
LINE
  8
0
 10
10.1232
 20
23.7976
 11
10.1548
 21
23.8126
  0
LINE
  8
0
 10
10.1548
 20
23.8126
 11
10.1865
 21
23.8271
  0
LINE
  8
0
 10
10.1865
 20
23.8271
 11
10.2185
 21
23.841
  0
LINE
  8
0
 10
10.2185
 20
23.841
 11
10.2508
 21
23.8544
  0
LINE
  8
0
 10
10.2508
 20
23.8544
 11
10.2832
 21
23.8672
  0
LINE
  8
0
 10
10.2832
 20
23.8672
 11
10.3159
 21
23.8794
  0
LINE
  8
0
 10
10.3159
 20
23.8794
 11
10.3489
 21
23.891
  0
LINE
  8
0
 10
10.3489
 20
23.891
 11
10.382
 21
23.9021
  0
LINE
  8
0
 10
10.382
 20
23.9021
 11
10.4153
 21
23.9126
  0
LINE
  8
0
 10
10.4153
 20
23.9126
 11
10.4487
 21
23.9225
  0
LINE
  8
0
 10
10.4487
 20
23.9225
 11
10.4824
 21
23.9318
  0
LINE
  8
0
 10
10.4824
 20
23.9318
 11
10.5161
 21
23.9406
  0
LINE
  8
0
 10
10.5161
 20
23.9406
 11
10.5501
 21
23.9487
  0
LINE
  8
0
 10
10.5501
 20
23.9487
 11
10.5842
 21
23.9563
  0
LINE
  8
0
 10
10.5842
 20
23.9563
 11
10.6184
 21
23.9632
  0
LINE
  8
0
 10
10.6184
 20
23.9632
 11
10.6527
 21
23.9696
  0
LINE
  8
0
 10
10.6527
 20
23.9696
 11
10.6871
 21
23.9754
  0
LINE
  8
0
 10
10.6871
 20
23.9754
 11
10.7216
 21
23.9805
  0
LINE
  8
0
 10
10.7216
 20
23.9805
 11
10.7563
 21
23.9851
  0
LINE
  8
0
 10
10.7563
 20
23.9851
 11
10.7909
 21
23.989
  0
LINE
  8
0
 10
10.7909
 20
23.989
 11
10.8257
 21
23.9924
  0
LINE
  8
0
 10
10.8257
 20
23.9924
 11
10.8605
 21
23.9951
  0
LINE
  8
0
 10
10.8605
 20
23.9951
 11
10.8953
 21
23.9973
  0
LINE
  8
0
 10
10.8953
 20
23.9973
 11
10.9302
 21
23.9988
  0
LINE
  8
0
 10
10.9302
 20
23.9988
 11
10.9651
 21
23.9997
  0
LINE
  8
0
 10
10.9651
 20
23.9997
 11
11
 21
24
  0
LINE
  8
0
 10
11
 20
24
 11
11.0349
 21
23.9997
  0
LINE
  8
0
 10
11.0349
 20
23.9997
 11
11.0698
 21
23.9988
  0
LINE
  8
0
 10
11.0698
 20
23.9988
 11
11.1047
 21
23.9973
  0
LINE
  8
0
 10
11.1047
 20
23.9973
 11
11.1395
 21
23.9951
  0
LINE
  8
0
 10
11.1395
 20
23.9951
 11
11.1743
 21
23.9924
  0
LINE
  8
0
 10
11.1743
 20
23.9924
 11
11.209
 21
23.989
  0
LINE
  8
0
 10
11.209
 20
23.989
 11
11.2437
 21
23.9851
  0
LINE
  8
0
 10
11.2437
 20
23.9851
 11
11.2783
 21
23.9805
  0
LINE
  8
0
 10
11.2783
 20
23.9805
 11
11.3129
 21
23.9754
  0
LINE
  8
0
 10
11.3129
 20
23.9754
 11
11.3473
 21
23.9696
  0
LINE
  8
0
 10
11.3473
 20
23.9696
 11
11.3816
 21
23.9632
  0
LINE
  8
0
 10
11.3816
 20
23.9632
 11
11.4158
 21
23.9563
  0
LINE
  8
0
 10
11.4158
 20
23.9563
 11
11.4499
 21
23.9487
  0
LINE
  8
0
 10
11.4499
 20
23.9487
 11
11.4838
 21
23.9406
  0
LINE
  8
0
 10
11.4838
 20
23.9406
 11
11.5176
 21
23.9318
  0
LINE
  8
0
 10
11.5176
 20
23.9318
 11
11.5513
 21
23.9225
  0
LINE
  8
0
 10
11.5513
 20
23.9225
 11
11.5847
 21
23.9126
  0
LINE
  8
0
 10
11.5847
 20
23.9126
 11
11.618
 21
23.9021
  0
LINE
  8
0
 10
11.618
 20
23.9021
 11
11.6511
 21
23.891
  0
LINE
  8
0
 10
11.6511
 20
23.891
 11
11.684
 21
23.8794
  0
LINE
  8
0
 10
11.684
 20
23.8794
 11
11.7167
 21
23.8672
  0
LINE
  8
0
 10
11.7167
 20
23.8672
 11
11.7492
 21
23.8544
  0
LINE
  8
0
 10
11.7492
 20
23.8544
 11
11.7814
 21
23.841
  0
LINE
  8
0
 10
11.7814
 20
23.841
 11
11.8135
 21
23.8271
  0
LINE
  8
0
 10
11.8135
 20
23.8271
 11
11.8452
 21
23.8126
  0
LINE
  8
0
 10
11.8452
 20
23.8126
 11
11.8767
 21
23.7976
  0
LINE
  8
0
 10
11.8767
 20
23.7976
 11
11.908
 21
23.782
  0
LINE
  8
0
 10
11.908
 20
23.782
 11
11.9389
 21
23.7659
  0
LINE
  8
0
 10
11.9389
 20
23.7659
 11
11.9696
 21
23.7492
  0
LINE
  8
0
 10
11.9696
 20
23.7492
 11
12
 21
23.732
  0
LINE
  8
0
 10
12
 20
23.732
 11
12.0301
 21
23.7143
  0
LINE
  8
0
 10
12.0301
 20
23.7143
 11
12.0598
 21
23.6961
  0
LINE
  8
0
 10
12.0598
 20
23.6961
 11
12.0893
 21
23.6773
  0
LINE
  8
0
 10
12.0893
 20
23.6773
 11
12.1184
 21
23.6581
  0
LINE
  8
0
 10
12.1184
 20
23.6581
 11
12.1471
 21
23.6383
  0
LINE
  8
0
 10
12.1471
 20
23.6383
 11
12.1756
 21
23.618
  0
LINE
  8
0
 10
12.1756
 20
23.618
 11
12.2036
 21
23.5973
  0
LINE
  8
0
 10
12.2036
 20
23.5973
 11
12.2313
 21
23.576
  0
LINE
  8
0
 10
12.2313
 20
23.576
 11
12.2586
 21
23.5543
  0
LINE
  8
0
 10
12.2586
 20
23.5543
 11
12.2856
 21
23.5321
  0
LINE
  8
0
 10
12.2856
 20
23.5321
 11
12.3121
 21
23.5094
  0
LINE
  8
0
 10
12.3121
 20
23.5094
 11
12.3383
 21
23.4863
  0
LINE
  8
0
 10
12.3383
 20
23.4863
 11
12.364
 21
23.4627
  0
LINE
  8
0
 10
12.364
 20
23.4627
 11
12.3893
 21
23.4387
  0
LINE
  8
0
 10
12.3893
 20
23.4387
 11
12.4142
 21
23.4142
  0
LINE
  8
0
 10
12.4142
 20
23.4142
 11
12.4387
 21
23.3893
  0
LINE
  8
0
 10
12.4387
 20
23.3893
 11
12.4627
 21
23.364
  0
LINE
  8
0
 10
12.4627
 20
23.364
 11
12.4863
 21
23.3383
  0
LINE
  8
0
 10
12.4863
 20
23.3383
 11
12.5094
 21
23.3121
  0
LINE
  8
0
 10
12.5094
 20
23.3121
 11
12.5321
 21
23.2856
  0
LINE
  8
0
 10
12.5321
 20
23.2856
 11
12.5543
 21
23.2586
  0
LINE
  8
0
 10
12.5543
 20
23.2586
 11
12.576
 21
23.2313
  0
LINE
  8
0
 10
12.576
 20
23.2313
 11
12.5973
 21
23.2036
  0
LINE
  8
0
 10
12.5973
 20
23.2036
 11
12.618
 21
23.1756
  0
LINE
  8
0
 10
12.618
 20
23.1756
 11
12.6383
 21
23.1471
  0
LINE
  8
0
 10
12.6383
 20
23.1471
 11
12.6581
 21
23.1184
  0
LINE
  8
0
 10
12.6581
 20
23.1184
 11
12.6773
 21
23.0893
  0
LINE
  8
0
 10
12.6773
 20
23.0893
 11
12.6961
 21
23.0598
  0
LINE
  8
0
 10
12.6961
 20
23.0598
 11
12.7143
 21
23.0301
  0
LINE
  8
0
 10
12.7143
 20
23.0301
 11
12.732
 21
23
  0
LINE
  8
0
 10
12.732
 20
23
 11
12.7492
 21
22.9696
  0
LINE
  8
0
 10
12.7492
 20
22.9696
 11
12.7659
 21
22.9389
  0
LINE
  8
0
 10
12.7659
 20
22.9389
 11
12.782
 21
22.908
  0
LINE
  8
0
 10
12.782
 20
22.908
 11
12.7976
 21
22.8767
  0
LINE
  8
0
 10
12.7976
 20
22.8767
 11
12.8126
 21
22.8452
  0
LINE
  8
0
 10
12.8126
 20
22.8452
 11
12.8271
 21
22.8135
  0
LINE
  8
0
 10
12.8271
 20
22.8135
 11
12.841
 21
22.7814
  0
LINE
  8
0
 10
12.841
 20
22.7814
 11
12.8544
 21
22.7492
  0
LINE
  8
0
 10
12.8544
 20
22.7492
 11
12.8672
 21
22.7167
  0
LINE
  8
0
 10
12.8672
 20
22.7167
 11
12.8794
 21
22.684
  0
LINE
  8
0
 10
12.8794
 20
22.684
 11
12.891
 21
22.6511
  0
LINE
  8
0
 10
12.891
 20
22.6511
 11
12.9021
 21
22.618
  0
LINE
  8
0
 10
12.9021
 20
22.618
 11
12.9126
 21
22.5847
  0
LINE
  8
0
 10
12.9126
 20
22.5847
 11
12.9225
 21
22.5513
  0
LINE
  8
0
 10
12.9225
 20
22.5513
 11
12.9318
 21
22.5176
  0
LINE
  8
0
 10
12.9318
 20
22.5176
 11
12.9406
 21
22.4838
  0
LINE
  8
0
 10
12.9406
 20
22.4838
 11
12.9487
 21
22.4499
  0
LINE
  8
0
 10
12.9487
 20
22.4499
 11
12.9563
 21
22.4158
  0
LINE
  8
0
 10
12.9563
 20
22.4158
 11
12.9632
 21
22.3816
  0
LINE
  8
0
 10
12.9632
 20
22.3816
 11
12.9696
 21
22.3473
  0
LINE
  8
0
 10
12.9696
 20
22.3473
 11
12.9754
 21
22.3129
  0
LINE
  8
0
 10
12.9754
 20
22.3129
 11
12.9805
 21
22.2783
  0
LINE
  8
0
 10
12.9805
 20
22.2783
 11
12.9851
 21
22.2437
  0
LINE
  8
0
 10
12.9851
 20
22.2437
 11
12.989
 21
22.209
  0
LINE
  8
0
 10
12.989
 20
22.209
 11
12.9924
 21
22.1743
  0
LINE
  8
0
 10
12.9924
 20
22.1743
 11
12.9951
 21
22.1395
  0
LINE
  8
0
 10
12.9951
 20
22.1395
 11
12.9973
 21
22.1047
  0
LINE
  8
0
 10
12.9973
 20
22.1047
 11
12.9988
 21
22.0698
  0
LINE
  8
0
 10
12.9988
 20
22.0698
 11
12.9997
 21
22.0349
  0
LINE
  8
0
 10
12.9997
 20
22.0349
 11
13
 21
22
  0
LINE
  8
0
 10
13
 20
22
 11
12.9997
 21
21.9651
  0
LINE
  8
0
 10
12.9997
 20
21.9651
 11
12.9988
 21
21.9302
  0
LINE
  8
0
 10
12.9988
 20
21.9302
 11
12.9973
 21
21.8953
  0
LINE
  8
0
 10
12.9973
 20
21.8953
 11
12.9951
 21
21.8605
  0
LINE
  8
0
 10
12.9951
 20
21.8605
 11
12.9924
 21
21.8257
  0
LINE
  8
0
 10
12.9924
 20
21.8257
 11
12.989
 21
21.7909
  0
LINE
  8
0
 10
12.989
 20
21.7909
 11
12.9851
 21
21.7563
  0
LINE
  8
0
 10
12.9851
 20
21.7563
 11
12.9805
 21
21.7216
  0
LINE
  8
0
 10
12.9805
 20
21.7216
 11
12.9754
 21
21.6871
  0
LINE
  8
0
 10
12.9754
 20
21.6871
 11
12.9696
 21
21.6527
  0
LINE
  8
0
 10
12.9696
 20
21.6527
 11
12.9632
 21
21.6184
  0
LINE
  8
0
 10
12.9632
 20
21.6184
 11
12.9563
 21
21.5842
  0
LINE
  8
0
 10
12.9563
 20
21.5842
 11
12.9487
 21
21.5501
  0
LINE
  8
0
 10
12.9487
 20
21.5501
 11
12.9406
 21
21.5161
  0
LINE
  8
0
 10
12.9406
 20
21.5161
 11
12.9318
 21
21.4824
  0
LINE
  8
0
 10
12.9318
 20
21.4824
 11
12.9225
 21
21.4487
  0
LINE
  8
0
 10
12.9225
 20
21.4487
 11
12.9126
 21
21.4153
  0
LINE
  8
0
 10
12.9126
 20
21.4153
 11
12.9021
 21
21.382
  0
LINE
  8
0
 10
12.9021
 20
21.382
 11
12.891
 21
21.3489
  0
LINE
  8
0
 10
12.891
 20
21.3489
 11
12.8794
 21
21.3159
  0
LINE
  8
0
 10
12.8794
 20
21.3159
 11
12.8672
 21
21.2833
  0
LINE
  8
0
 10
12.8672
 20
21.2833
 11
12.8544
 21
21.2508
  0
LINE
  8
0
 10
12.8544
 20
21.2508
 11
12.841
 21
21.2185
  0
LINE
  8
0
 10
12.841
 20
21.2185
 11
12.8271
 21
21.1865
  0
LINE
  8
0
 10
12.8271
 20
21.1865
 11
12.8126
 21
21.1548
  0
LINE
  8
0
 10
12.8126
 20
21.1548
 11
12.7976
 21
21.1232
  0
LINE
  8
0
 10
12.7976
 20
21.1232
 11
12.782
 21
21.092
  0
LINE
  8
0
 10
12.782
 20
21.092
 11
12.7659
 21
21.0611
  0
LINE
  8
0
 10
12.7659
 20
21.0611
 11
12.7492
 21
21.0304
  0
LINE
  8
0
 10
12.7492
 20
21.0304
 11
12.732
 21
21
  0
LINE
  8
0
 10
12.732
 20
21
 11
12.7143
 21
20.9699
  0
LINE
  8
0
 10
12.7143
 20
20.9699
 11
12.6961
 21
20.9402
  0
LINE
  8
0
 10
12.6961
 20
20.9402
 11
12.6773
 21
20.9107
  0
LINE
  8
0
 10
12.6773
 20
20.9107
 11
12.6581
 21
20.8816
  0
LINE
  8
0
 10
12.6581
 20
20.8816
 11
12.6383
 21
20.8528
  0
LINE
  8
0
 10
12.6383
 20
20.8528
 11
12.618
 21
20.8244
  0
LINE
  8
0
 10
12.618
 20
20.8244
 11
12.5973
 21
20.7964
  0
LINE
  8
0
 10
12.5973
 20
20.7964
 11
12.576
 21
20.7687
  0
LINE
  8
0
 10
12.576
 20
20.7687
 11
12.5543
 21
20.7413
  0
LINE
  8
0
 10
12.5543
 20
20.7413
 11
12.5321
 21
20.7144
  0
LINE
  8
0
 10
12.5321
 20
20.7144
 11
12.5094
 21
20.6879
  0
LINE
  8
0
 10
12.5094
 20
20.6879
 11
12.4863
 21
20.6617
  0
LINE
  8
0
 10
12.4863
 20
20.6617
 11
12.4627
 21
20.636
  0
LINE
  8
0
 10
12.4627
 20
20.636
 11
12.4387
 21
20.6107
  0
LINE
  8
0
 10
12.4387
 20
20.6107
 11
12.4142
 21
20.5858
  0
LINE
  8
0
 10
12.4142
 20
20.5858
 11
12.3893
 21
20.5613
  0
LINE
  8
0
 10
12.3893
 20
20.5613
 11
12.364
 21
20.5373
  0
LINE
  8
0
 10
12.364
 20
20.5373
 11
12.3383
 21
20.5137
  0
LINE
  8
0
 10
12.3383
 20
20.5137
 11
12.3121
 21
20.4906
  0
LINE
  8
0
 10
12.3121
 20
20.4906
 11
12.2856
 21
20.4679
  0
LINE
  8
0
 10
12.2856
 20
20.4679
 11
12.2586
 21
20.4457
  0
LINE
  8
0
 10
12.2586
 20
20.4457
 11
12.2313
 21
20.424
  0
LINE
  8
0
 10
12.2313
 20
20.424
 11
12.2036
 21
20.4027
  0
LINE
  8
0
 10
12.2036
 20
20.4027
 11
12.1756
 21
20.382
  0
LINE
  8
0
 10
12.1756
 20
20.382
 11
12.1471
 21
20.3617
  0
LINE
  8
0
 10
12.1471
 20
20.3617
 11
12.1184
 21
20.3419
  0
LINE
  8
0
 10
12.1184
 20
20.3419
 11
12.0893
 21
20.3226
  0
LINE
  8
0
 10
12.0893
 20
20.3226
 11
12.0598
 21
20.3039
  0
LINE
  8
0
 10
12.0598
 20
20.3039
 11
12.0301
 21
20.2857
  0
LINE
  8
0
 10
12.0301
 20
20.2857
 11
12
 21
20.2679
  0
LINE
  8
0
 10
12
 20
20.2679
 11
11.9696
 21
20.2507
  0
LINE
  8
0
 10
11.9696
 20
20.2507
 11
11.9389
 21
20.2341
  0
LINE
  8
0
 10
11.9389
 20
20.2341
 11
11.908
 21
20.218
  0
LINE
  8
0
 10
11.908
 20
20.218
 11
11.8767
 21
20.2024
  0
LINE
  8
0
 10
11.8767
 20
20.2024
 11
11.8452
 21
20.1874
  0
LINE
  8
0
 10
11.8452
 20
20.1874
 11
11.8135
 21
20.1729
  0
LINE
  8
0
 10
11.8135
 20
20.1729
 11
11.7814
 21
20.159
  0
LINE
  8
0
 10
11.7814
 20
20.159
 11
11.7492
 21
20.1456
  0
LINE
  8
0
 10
11.7492
 20
20.1456
 11
11.7167
 21
20.1328
  0
LINE
  8
0
 10
11.7167
 20
20.1328
 11
11.684
 21
20.1206
  0
LINE
  8
0
 10
11.684
 20
20.1206
 11
11.6511
 21
20.109
  0
LINE
  8
0
 10
11.6511
 20
20.109
 11
11.618
 21
20.0979
  0
LINE
  8
0
 10
11.618
 20
20.0979
 11
11.5847
 21
20.0874
  0
LINE
  8
0
 10
11.5847
 20
20.0874
 11
11.5513
 21
20.0775
  0
LINE
  8
0
 10
11.5513
 20
20.0775
 11
11.5176
 21
20.0681
  0
LINE
  8
0
 10
11.5176
 20
20.0681
 11
11.4838
 21
20.0594
  0
LINE
  8
0
 10
11.4838
 20
20.0594
 11
11.4499
 21
20.0513
  0
LINE
  8
0
 10
11.4499
 20
20.0513
 11
11.4158
 21
20.0437
  0
LINE
  8
0
 10
11.4158
 20
20.0437
 11
11.3816
 21
20.0367
  0
LINE
  8
0
 10
11.3816
 20
20.0367
 11
11.3473
 21
20.0304
  0
LINE
  8
0
 10
11.3473
 20
20.0304
 11
11.3129
 21
20.0246
  0
LINE
  8
0
 10
11.3129
 20
20.0246
 11
11.2783
 21
20.0195
  0
LINE
  8
0
 10
11.2783
 20
20.0195
 11
11.2437
 21
20.0149
  0
LINE
  8
0
 10
11.2437
 20
20.0149
 11
11.209
 21
20.011
  0
LINE
  8
0
 10
11.209
 20
20.011
 11
11.1743
 21
20.0076
  0
LINE
  8
0
 10
11.1743
 20
20.0076
 11
11.1395
 21
20.0049
  0
LINE
  8
0
 10
11.1395
 20
20.0049
 11
11.1047
 21
20.0027
  0
LINE
  8
0
 10
11.1047
 20
20.0027
 11
11.0698
 21
20.0012
  0
LINE
  8
0
 10
11.0698
 20
20.0012
 11
11.0349
 21
20.0003
  0
LINE
  8
0
 10
11.0349
 20
20.0003
 11
11
 21
20
  0
LINE
  8
0
 10
11
 20
20
 11
10.9651
 21
20.0003
  0
LINE
  8
0
 10
72.9651
 20
20.0003
 11
72.9302
 21
20.0012
  0
LINE
  8
0
 10
72.9302
 20
20.0012
 11
72.8953
 21
20.0027
  0
LINE
  8
0
 10
72.8953
 20
20.0027
 11
72.8605
 21
20.0049
  0
LINE
  8
0
 10
72.8605
 20
20.0049
 11
72.8257
 21
20.0076
  0
LINE
  8
0
 10
72.8257
 20
20.0076
 11
72.7909
 21
20.011
  0
LINE
  8
0
 10
72.7909
 20
20.011
 11
72.7563
 21
20.0149
  0
LINE
  8
0
 10
72.7563
 20
20.0149
 11
72.7216
 21
20.0195
  0
LINE
  8
0
 10
72.7216
 20
20.0195
 11
72.6871
 21
20.0246
  0
LINE
  8
0
 10
72.6871
 20
20.0246
 11
72.6527
 21
20.0304
  0
LINE
  8
0
 10
72.6527
 20
20.0304
 11
72.6184
 21
20.0367
  0
LINE
  8
0
 10
72.6184
 20
20.0367
 11
72.5842
 21
20.0437
  0
LINE
  8
0
 10
72.5842
 20
20.0437
 11
72.5501
 21
20.0513
  0
LINE
  8
0
 10
72.5501
 20
20.0513
 11
72.5162
 21
20.0594
  0
LINE
  8
0
 10
72.5162
 20
20.0594
 11
72.4824
 21
20.0681
  0
LINE
  8
0
 10
72.4824
 20
20.0681
 11
72.4487
 21
20.0775
  0
LINE
  8
0
 10
72.4487
 20
20.0775
 11
72.4153
 21
20.0874
  0
LINE
  8
0
 10
72.4153
 20
20.0874
 11
72.382
 21
20.0979
  0
LINE
  8
0
 10
72.382
 20
20.0979
 11
72.3489
 21
20.109
  0
LINE
  8
0
 10
72.3489
 20
20.109
 11
72.3159
 21
20.1206
  0
LINE
  8
0
 10
72.3159
 20
20.1206
 11
72.2833
 21
20.1328
  0
LINE
  8
0
 10
72.2833
 20
20.1328
 11
72.2508
 21
20.1456
  0
LINE
  8
0
 10
72.2508
 20
20.1456
 11
72.2185
 21
20.159
  0
LINE
  8
0
 10
72.2185
 20
20.159
 11
72.1865
 21
20.1729
  0
LINE
  8
0
 10
72.1865
 20
20.1729
 11
72.1548
 21
20.1874
  0
LINE
  8
0
 10
72.1548
 20
20.1874
 11
72.1233
 21
20.2024
  0
LINE
  8
0
 10
72.1233
 20
20.2024
 11
72.092
 21
20.218
  0
LINE
  8
0
 10
72.092
 20
20.218
 11
72.0611
 21
20.2341
  0
LINE
  8
0
 10
72.0611
 20
20.2341
 11
72.0304
 21
20.2507
  0
LINE
  8
0
 10
72.0304
 20
20.2507
 11
72
 21
20.2679
  0
LINE
  8
0
 10
72
 20
20.2679
 11
71.9699
 21
20.2857
  0
LINE
  8
0
 10
71.9699
 20
20.2857
 11
71.9402
 21
20.3039
  0
LINE
  8
0
 10
71.9402
 20
20.3039
 11
71.9107
 21
20.3226
  0
LINE
  8
0
 10
71.9107
 20
20.3226
 11
71.8816
 21
20.3419
  0
LINE
  8
0
 10
71.8816
 20
20.3419
 11
71.8528
 21
20.3617
  0
LINE
  8
0
 10
71.8528
 20
20.3617
 11
71.8244
 21
20.382
  0
LINE
  8
0
 10
71.8244
 20
20.382
 11
71.7964
 21
20.4027
  0
LINE
  8
0
 10
71.7964
 20
20.4027
 11
71.7687
 21
20.424
  0
LINE
  8
0
 10
71.7687
 20
20.424
 11
71.7413
 21
20.4457
  0
LINE
  8
0
 10
71.7413
 20
20.4457
 11
71.7144
 21
20.4679
  0
LINE
  8
0
 10
71.7144
 20
20.4679
 11
71.6879
 21
20.4906
  0
LINE
  8
0
 10
71.6879
 20
20.4906
 11
71.6617
 21
20.5137
  0
LINE
  8
0
 10
71.6617
 20
20.5137
 11
71.636
 21
20.5373
  0
LINE
  8
0
 10
71.636
 20
20.5373
 11
71.6107
 21
20.5613
  0
LINE
  8
0
 10
71.6107
 20
20.5613
 11
71.5858
 21
20.5858
  0
LINE
  8
0
 10
71.5858
 20
20.5858
 11
71.5613
 21
20.6107
  0
LINE
  8
0
 10
71.5613
 20
20.6107
 11
71.5373
 21
20.636
  0
LINE
  8
0
 10
71.5373
 20
20.636
 11
71.5137
 21
20.6617
  0
LINE
  8
0
 10
71.5137
 20
20.6617
 11
71.4906
 21
20.6879
  0
LINE
  8
0
 10
71.4906
 20
20.6879
 11
71.4679
 21
20.7144
  0
LINE
  8
0
 10
71.4679
 20
20.7144
 11
71.4457
 21
20.7413
  0
LINE
  8
0
 10
71.4457
 20
20.7413
 11
71.424
 21
20.7687
  0
LINE
  8
0
 10
71.424
 20
20.7687
 11
71.4027
 21
20.7964
  0
LINE
  8
0
 10
71.4027
 20
20.7964
 11
71.382
 21
20.8244
  0
LINE
  8
0
 10
71.382
 20
20.8244
 11
71.3617
 21
20.8528
  0
LINE
  8
0
 10
71.3617
 20
20.8528
 11
71.3419
 21
20.8816
  0
LINE
  8
0
 10
71.3419
 20
20.8816
 11
71.3227
 21
20.9107
  0
LINE
  8
0
 10
71.3227
 20
20.9107
 11
71.3039
 21
20.9402
  0
LINE
  8
0
 10
71.3039
 20
20.9402
 11
71.2857
 21
20.9699
  0
LINE
  8
0
 10
71.2857
 20
20.9699
 11
71.2679
 21
21
  0
LINE
  8
0
 10
71.2679
 20
21
 11
71.2508
 21
21.0304
  0
LINE
  8
0
 10
71.2508
 20
21.0304
 11
71.2341
 21
21.0611
  0
LINE
  8
0
 10
71.2341
 20
21.0611
 11
71.218
 21
21.092
  0
LINE
  8
0
 10
71.218
 20
21.092
 11
71.2024
 21
21.1232
  0
LINE
  8
0
 10
71.2024
 20
21.1232
 11
71.1874
 21
21.1548
  0
LINE
  8
0
 10
71.1874
 20
21.1548
 11
71.1729
 21
21.1865
  0
LINE
  8
0
 10
71.1729
 20
21.1865
 11
71.159
 21
21.2185
  0
LINE
  8
0
 10
71.159
 20
21.2185
 11
71.1456
 21
21.2508
  0
LINE
  8
0
 10
71.1456
 20
21.2508
 11
71.1328
 21
21.2833
  0
LINE
  8
0
 10
71.1328
 20
21.2833
 11
71.1206
 21
21.3159
  0
LINE
  8
0
 10
71.1206
 20
21.3159
 11
71.109
 21
21.3489
  0
LINE
  8
0
 10
71.109
 20
21.3489
 11
71.0979
 21
21.382
  0
LINE
  8
0
 10
71.0979
 20
21.382
 11
71.0874
 21
21.4153
  0
LINE
  8
0
 10
71.0874
 20
21.4153
 11
71.0775
 21
21.4487
  0
LINE
  8
0
 10
71.0775
 20
21.4487
 11
71.0681
 21
21.4824
  0
LINE
  8
0
 10
71.0681
 20
21.4824
 11
71.0594
 21
21.5161
  0
LINE
  8
0
 10
71.0594
 20
21.5161
 11
71.0513
 21
21.5501
  0
LINE
  8
0
 10
71.0513
 20
21.5501
 11
71.0437
 21
21.5842
  0
LINE
  8
0
 10
71.0437
 20
21.5842
 11
71.0367
 21
21.6184
  0
LINE
  8
0
 10
71.0367
 20
21.6184
 11
71.0304
 21
21.6527
  0
LINE
  8
0
 10
71.0304
 20
21.6527
 11
71.0246
 21
21.6871
  0
LINE
  8
0
 10
71.0246
 20
21.6871
 11
71.0195
 21
21.7216
  0
LINE
  8
0
 10
71.0195
 20
21.7216
 11
71.0149
 21
21.7563
  0
LINE
  8
0
 10
71.0149
 20
21.7563
 11
71.011
 21
21.7909
  0
LINE
  8
0
 10
71.011
 20
21.7909
 11
71.0076
 21
21.8257
  0
LINE
  8
0
 10
71.0076
 20
21.8257
 11
71.0049
 21
21.8605
  0
LINE
  8
0
 10
71.0049
 20
21.8605
 11
71.0027
 21
21.8953
  0
LINE
  8
0
 10
71.0027
 20
21.8953
 11
71.0012
 21
21.9302
  0
LINE
  8
0
 10
71.0012
 20
21.9302
 11
71.0003
 21
21.9651
  0
LINE
  8
0
 10
71.0003
 20
21.9651
 11
71
 21
22
  0
LINE
  8
0
 10
71
 20
22
 11
71.0003
 21
22.0349
  0
LINE
  8
0
 10
71.0003
 20
22.0349
 11
71.0012
 21
22.0698
  0
LINE
  8
0
 10
71.0012
 20
22.0698
 11
71.0027
 21
22.1047
  0
LINE
  8
0
 10
71.0027
 20
22.1047
 11
71.0049
 21
22.1395
  0
LINE
  8
0
 10
71.0049
 20
22.1395
 11
71.0076
 21
22.1743
  0
LINE
  8
0
 10
71.0076
 20
22.1743
 11
71.011
 21
22.209
  0
LINE
  8
0
 10
71.011
 20
22.209
 11
71.0149
 21
22.2437
  0
LINE
  8
0
 10
71.0149
 20
22.2437
 11
71.0195
 21
22.2783
  0
LINE
  8
0
 10
71.0195
 20
22.2783
 11
71.0246
 21
22.3129
  0
LINE
  8
0
 10
71.0246
 20
22.3129
 11
71.0304
 21
22.3473
  0
LINE
  8
0
 10
71.0304
 20
22.3473
 11
71.0367
 21
22.3816
  0
LINE
  8
0
 10
71.0367
 20
22.3816
 11
71.0437
 21
22.4158
  0
LINE
  8
0
 10
71.0437
 20
22.4158
 11
71.0513
 21
22.4499
  0
LINE
  8
0
 10
71.0513
 20
22.4499
 11
71.0594
 21
22.4838
  0
LINE
  8
0
 10
71.0594
 20
22.4838
 11
71.0681
 21
22.5176
  0
LINE
  8
0
 10
71.0681
 20
22.5176
 11
71.0775
 21
22.5513
  0
LINE
  8
0
 10
71.0775
 20
22.5513
 11
71.0874
 21
22.5847
  0
LINE
  8
0
 10
71.0874
 20
22.5847
 11
71.0979
 21
22.618
  0
LINE
  8
0
 10
71.0979
 20
22.618
 11
71.109
 21
22.6511
  0
LINE
  8
0
 10
71.109
 20
22.6511
 11
71.1206
 21
22.684
  0
LINE
  8
0
 10
71.1206
 20
22.684
 11
71.1328
 21
22.7167
  0
LINE
  8
0
 10
71.1328
 20
22.7167
 11
71.1456
 21
22.7492
  0
LINE
  8
0
 10
71.1456
 20
22.7492
 11
71.159
 21
22.7814
  0
LINE
  8
0
 10
71.159
 20
22.7814
 11
71.1729
 21
22.8135
  0
LINE
  8
0
 10
71.1729
 20
22.8135
 11
71.1874
 21
22.8452
  0
LINE
  8
0
 10
71.1874
 20
22.8452
 11
71.2024
 21
22.8767
  0
LINE
  8
0
 10
71.2024
 20
22.8767
 11
71.218
 21
22.908
  0
LINE
  8
0
 10
71.218
 20
22.908
 11
71.2341
 21
22.9389
  0
LINE
  8
0
 10
71.2341
 20
22.9389
 11
71.2508
 21
22.9696
  0
LINE
  8
0
 10
71.2508
 20
22.9696
 11
71.2679
 21
23
  0
LINE
  8
0
 10
71.2679
 20
23
 11
71.2857
 21
23.0301
  0
LINE
  8
0
 10
71.2857
 20
23.0301
 11
71.3039
 21
23.0598
  0
LINE
  8
0
 10
71.3039
 20
23.0598
 11
71.3227
 21
23.0893
  0
LINE
  8
0
 10
71.3227
 20
23.0893
 11
71.3419
 21
23.1184
  0
LINE
  8
0
 10
71.3419
 20
23.1184
 11
71.3617
 21
23.1471
  0
LINE
  8
0
 10
71.3617
 20
23.1471
 11
71.382
 21
23.1756
  0
LINE
  8
0
 10
71.382
 20
23.1756
 11
71.4027
 21
23.2036
  0
LINE
  8
0
 10
71.4027
 20
23.2036
 11
71.424
 21
23.2313
  0
LINE
  8
0
 10
71.424
 20
23.2313
 11
71.4457
 21
23.2586
  0
LINE
  8
0
 10
71.4457
 20
23.2586
 11
71.4679
 21
23.2856
  0
LINE
  8
0
 10
71.4679
 20
23.2856
 11
71.4906
 21
23.3121
  0
LINE
  8
0
 10
71.4906
 20
23.3121
 11
71.5137
 21
23.3383
  0
LINE
  8
0
 10
71.5137
 20
23.3383
 11
71.5373
 21
23.364
  0
LINE
  8
0
 10
71.5373
 20
23.364
 11
71.5613
 21
23.3893
  0
LINE
  8
0
 10
71.5613
 20
23.3893
 11
71.5858
 21
23.4142
  0
LINE
  8
0
 10
71.5858
 20
23.4142
 11
71.6107
 21
23.4387
  0
LINE
  8
0
 10
71.6107
 20
23.4387
 11
71.636
 21
23.4627
  0
LINE
  8
0
 10
71.636
 20
23.4627
 11
71.6617
 21
23.4863
  0
LINE
  8
0
 10
71.6617
 20
23.4863
 11
71.6879
 21
23.5094
  0
LINE
  8
0
 10
71.6879
 20
23.5094
 11
71.7144
 21
23.5321
  0
LINE
  8
0
 10
71.7144
 20
23.5321
 11
71.7413
 21
23.5543
  0
LINE
  8
0
 10
71.7413
 20
23.5543
 11
71.7687
 21
23.576
  0
LINE
  8
0
 10
71.7687
 20
23.576
 11
71.7964
 21
23.5973
  0
LINE
  8
0
 10
71.7964
 20
23.5973
 11
71.8244
 21
23.618
  0
LINE
  8
0
 10
71.8244
 20
23.618
 11
71.8528
 21
23.6383
  0
LINE
  8
0
 10
71.8528
 20
23.6383
 11
71.8816
 21
23.6581
  0
LINE
  8
0
 10
71.8816
 20
23.6581
 11
71.9107
 21
23.6773
  0
LINE
  8
0
 10
71.9107
 20
23.6773
 11
71.9402
 21
23.6961
  0
LINE
  8
0
 10
71.9402
 20
23.6961
 11
71.9699
 21
23.7143
  0
LINE
  8
0
 10
71.9699
 20
23.7143
 11
72
 21
23.732
  0
LINE
  8
0
 10
72
 20
23.732
 11
72.0304
 21
23.7492
  0
LINE
  8
0
 10
72.0304
 20
23.7492
 11
72.0611
 21
23.7659
  0
LINE
  8
0
 10
72.0611
 20
23.7659
 11
72.092
 21
23.782
  0
LINE
  8
0
 10
72.092
 20
23.782
 11
72.1233
 21
23.7976
  0
LINE
  8
0
 10
72.1233
 20
23.7976
 11
72.1548
 21
23.8126
  0
LINE
  8
0
 10
72.1548
 20
23.8126
 11
72.1865
 21
23.8271
  0
LINE
  8
0
 10
72.1865
 20
23.8271
 11
72.2185
 21
23.841
  0
LINE
  8
0
 10
72.2185
 20
23.841
 11
72.2508
 21
23.8544
  0
LINE
  8
0
 10
72.2508
 20
23.8544
 11
72.2833
 21
23.8672
  0
LINE
  8
0
 10
72.2833
 20
23.8672
 11
72.3159
 21
23.8794
  0
LINE
  8
0
 10
72.3159
 20
23.8794
 11
72.3489
 21
23.891
  0
LINE
  8
0
 10
72.3489
 20
23.891
 11
72.382
 21
23.9021
  0
LINE
  8
0
 10
72.382
 20
23.9021
 11
72.4153
 21
23.9126
  0
LINE
  8
0
 10
72.4153
 20
23.9126
 11
72.4487
 21
23.9225
  0
LINE
  8
0
 10
72.4487
 20
23.9225
 11
72.4824
 21
23.9318
  0
LINE
  8
0
 10
72.4824
 20
23.9318
 11
72.5162
 21
23.9406
  0
LINE
  8
0
 10
72.5162
 20
23.9406
 11
72.5501
 21
23.9487
  0
LINE
  8
0
 10
72.5501
 20
23.9487
 11
72.5842
 21
23.9563
  0
LINE
  8
0
 10
72.5842
 20
23.9563
 11
72.6184
 21
23.9632
  0
LINE
  8
0
 10
72.6184
 20
23.9632
 11
72.6527
 21
23.9696
  0
LINE
  8
0
 10
72.6527
 20
23.9696
 11
72.6871
 21
23.9754
  0
LINE
  8
0
 10
72.6871
 20
23.9754
 11
72.7216
 21
23.9805
  0
LINE
  8
0
 10
72.7216
 20
23.9805
 11
72.7563
 21
23.9851
  0
LINE
  8
0
 10
72.7563
 20
23.9851
 11
72.7909
 21
23.989
  0
LINE
  8
0
 10
72.7909
 20
23.989
 11
72.8257
 21
23.9924
  0
LINE
  8
0
 10
72.8257
 20
23.9924
 11
72.8605
 21
23.9951
  0
LINE
  8
0
 10
72.8605
 20
23.9951
 11
72.8953
 21
23.9973
  0
LINE
  8
0
 10
72.8953
 20
23.9973
 11
72.9302
 21
23.9988
  0
LINE
  8
0
 10
72.9302
 20
23.9988
 11
72.9651
 21
23.9997
  0
LINE
  8
0
 10
72.9651
 20
23.9997
 11
73
 21
24
  0
LINE
  8
0
 10
73
 20
24
 11
73.0349
 21
23.9997
  0
LINE
  8
0
 10
73.0349
 20
23.9997
 11
73.0698
 21
23.9988
  0
LINE
  8
0
 10
73.0698
 20
23.9988
 11
73.1047
 21
23.9973
  0
LINE
  8
0
 10
73.1047
 20
23.9973
 11
73.1395
 21
23.9951
  0
LINE
  8
0
 10
73.1395
 20
23.9951
 11
73.1743
 21
23.9924
  0
LINE
  8
0
 10
73.1743
 20
23.9924
 11
73.2091
 21
23.989
  0
LINE
  8
0
 10
73.2091
 20
23.989
 11
73.2437
 21
23.9851
  0
LINE
  8
0
 10
73.2437
 20
23.9851
 11
73.2783
 21
23.9805
  0
LINE
  8
0
 10
73.2783
 20
23.9805
 11
73.3129
 21
23.9754
  0
LINE
  8
0
 10
73.3129
 20
23.9754
 11
73.3473
 21
23.9696
  0
LINE
  8
0
 10
73.3473
 20
23.9696
 11
73.3816
 21
23.9632
  0
LINE
  8
0
 10
73.3816
 20
23.9632
 11
73.4158
 21
23.9563
  0
LINE
  8
0
 10
73.4158
 20
23.9563
 11
73.4499
 21
23.9487
  0
LINE
  8
0
 10
73.4499
 20
23.9487
 11
73.4838
 21
23.9406
  0
LINE
  8
0
 10
73.4838
 20
23.9406
 11
73.5176
 21
23.9318
  0
LINE
  8
0
 10
73.5176
 20
23.9318
 11
73.5513
 21
23.9225
  0
LINE
  8
0
 10
73.5513
 20
23.9225
 11
73.5847
 21
23.9126
  0
LINE
  8
0
 10
73.5847
 20
23.9126
 11
73.618
 21
23.9021
  0
LINE
  8
0
 10
73.618
 20
23.9021
 11
73.6511
 21
23.891
  0
LINE
  8
0
 10
73.6511
 20
23.891
 11
73.684
 21
23.8794
  0
LINE
  8
0
 10
73.684
 20
23.8794
 11
73.7167
 21
23.8672
  0
LINE
  8
0
 10
73.7167
 20
23.8672
 11
73.7492
 21
23.8544
  0
LINE
  8
0
 10
73.7492
 20
23.8544
 11
73.7815
 21
23.841
  0
LINE
  8
0
 10
73.7815
 20
23.841
 11
73.8135
 21
23.8271
  0
LINE
  8
0
 10
73.8135
 20
23.8271
 11
73.8452
 21
23.8126
  0
LINE
  8
0
 10
73.8452
 20
23.8126
 11
73.8767
 21
23.7976
  0
LINE
  8
0
 10
73.8767
 20
23.7976
 11
73.908
 21
23.782
  0
LINE
  8
0
 10
73.908
 20
23.782
 11
73.9389
 21
23.7659
  0
LINE
  8
0
 10
73.9389
 20
23.7659
 11
73.9696
 21
23.7492
  0
LINE
  8
0
 10
73.9696
 20
23.7492
 11
74
 21
23.732
  0
LINE
  8
0
 10
74
 20
23.732
 11
74.0301
 21
23.7143
  0
LINE
  8
0
 10
74.0301
 20
23.7143
 11
74.0598
 21
23.6961
  0
LINE
  8
0
 10
74.0598
 20
23.6961
 11
74.0893
 21
23.6773
  0
LINE
  8
0
 10
74.0893
 20
23.6773
 11
74.1184
 21
23.6581
  0
LINE
  8
0
 10
74.1184
 20
23.6581
 11
74.1472
 21
23.6383
  0
LINE
  8
0
 10
74.1472
 20
23.6383
 11
74.1756
 21
23.618
  0
LINE
  8
0
 10
74.1756
 20
23.618
 11
74.2036
 21
23.5973
  0
LINE
  8
0
 10
74.2036
 20
23.5973
 11
74.2313
 21
23.576
  0
LINE
  8
0
 10
74.2313
 20
23.576
 11
74.2586
 21
23.5543
  0
LINE
  8
0
 10
74.2586
 20
23.5543
 11
74.2856
 21
23.5321
  0
LINE
  8
0
 10
74.2856
 20
23.5321
 11
74.3121
 21
23.5094
  0
LINE
  8
0
 10
74.3121
 20
23.5094
 11
74.3383
 21
23.4863
  0
LINE
  8
0
 10
74.3383
 20
23.4863
 11
74.364
 21
23.4627
  0
LINE
  8
0
 10
74.364
 20
23.4627
 11
74.3893
 21
23.4387
  0
LINE
  8
0
 10
74.3893
 20
23.4387
 11
74.4142
 21
23.4142
  0
LINE
  8
0
 10
74.4142
 20
23.4142
 11
74.4387
 21
23.3893
  0
LINE
  8
0
 10
74.4387
 20
23.3893
 11
74.4627
 21
23.364
  0
LINE
  8
0
 10
74.4627
 20
23.364
 11
74.4863
 21
23.3383
  0
LINE
  8
0
 10
74.4863
 20
23.3383
 11
74.5094
 21
23.3121
  0
LINE
  8
0
 10
74.5094
 20
23.3121
 11
74.5321
 21
23.2856
  0
LINE
  8
0
 10
74.5321
 20
23.2856
 11
74.5543
 21
23.2586
  0
LINE
  8
0
 10
74.5543
 20
23.2586
 11
74.576
 21
23.2313
  0
LINE
  8
0
 10
74.576
 20
23.2313
 11
74.5973
 21
23.2036
  0
LINE
  8
0
 10
74.5973
 20
23.2036
 11
74.618
 21
23.1756
  0
LINE
  8
0
 10
74.618
 20
23.1756
 11
74.6383
 21
23.1471
  0
LINE
  8
0
 10
74.6383
 20
23.1471
 11
74.6581
 21
23.1184
  0
LINE
  8
0
 10
74.6581
 20
23.1184
 11
74.6773
 21
23.0893
  0
LINE
  8
0
 10
74.6773
 20
23.0893
 11
74.6961
 21
23.0598
  0
LINE
  8
0
 10
74.6961
 20
23.0598
 11
74.7143
 21
23.0301
  0
LINE
  8
0
 10
74.7143
 20
23.0301
 11
74.732
 21
23
  0
LINE
  8
0
 10
74.732
 20
23
 11
74.7492
 21
22.9696
  0
LINE
  8
0
 10
74.7492
 20
22.9696
 11
74.7659
 21
22.9389
  0
LINE
  8
0
 10
74.7659
 20
22.9389
 11
74.782
 21
22.908
  0
LINE
  8
0
 10
74.782
 20
22.908
 11
74.7976
 21
22.8767
  0
LINE
  8
0
 10
74.7976
 20
22.8767
 11
74.8126
 21
22.8452
  0
LINE
  8
0
 10
74.8126
 20
22.8452
 11
74.8271
 21
22.8135
  0
LINE
  8
0
 10
74.8271
 20
22.8135
 11
74.841
 21
22.7814
  0
LINE
  8
0
 10
74.841
 20
22.7814
 11
74.8544
 21
22.7492
  0
LINE
  8
0
 10
74.8544
 20
22.7492
 11
74.8672
 21
22.7167
  0
LINE
  8
0
 10
74.8672
 20
22.7167
 11
74.8794
 21
22.684
  0
LINE
  8
0
 10
74.8794
 20
22.684
 11
74.891
 21
22.6511
  0
LINE
  8
0
 10
74.891
 20
22.6511
 11
74.9021
 21
22.618
  0
LINE
  8
0
 10
74.9021
 20
22.618
 11
74.9126
 21
22.5847
  0
LINE
  8
0
 10
74.9126
 20
22.5847
 11
74.9225
 21
22.5513
  0
LINE
  8
0
 10
74.9225
 20
22.5513
 11
74.9319
 21
22.5176
  0
LINE
  8
0
 10
74.9319
 20
22.5176
 11
74.9406
 21
22.4838
  0
LINE
  8
0
 10
74.9406
 20
22.4838
 11
74.9487
 21
22.4499
  0
LINE
  8
0
 10
74.9487
 20
22.4499
 11
74.9563
 21
22.4158
  0
LINE
  8
0
 10
74.9563
 20
22.4158
 11
74.9633
 21
22.3816
  0
LINE
  8
0
 10
74.9633
 20
22.3816
 11
74.9696
 21
22.3473
  0
LINE
  8
0
 10
74.9696
 20
22.3473
 11
74.9754
 21
22.3129
  0
LINE
  8
0
 10
74.9754
 20
22.3129
 11
74.9805
 21
22.2783
  0
LINE
  8
0
 10
74.9805
 20
22.2783
 11
74.9851
 21
22.2437
  0
LINE
  8
0
 10
74.9851
 20
22.2437
 11
74.989
 21
22.209
  0
LINE
  8
0
 10
74.989
 20
22.209
 11
74.9924
 21
22.1743
  0
LINE
  8
0
 10
74.9924
 20
22.1743
 11
74.9951
 21
22.1395
  0
LINE
  8
0
 10
74.9951
 20
22.1395
 11
74.9973
 21
22.1047
  0
LINE
  8
0
 10
74.9973
 20
22.1047
 11
74.9988
 21
22.0698
  0
LINE
  8
0
 10
74.9988
 20
22.0698
 11
74.9997
 21
22.0349
  0
LINE
  8
0
 10
74.9997
 20
22.0349
 11
75
 21
22
  0
LINE
  8
0
 10
75
 20
22
 11
74.9997
 21
21.9651
  0
LINE
  8
0
 10
74.9997
 20
21.9651
 11
74.9988
 21
21.9302
  0
LINE
  8
0
 10
74.9988
 20
21.9302
 11
74.9973
 21
21.8953
  0
LINE
  8
0
 10
74.9973
 20
21.8953
 11
74.9951
 21
21.8605
  0
LINE
  8
0
 10
74.9951
 20
21.8605
 11
74.9924
 21
21.8257
  0
LINE
  8
0
 10
74.9924
 20
21.8257
 11
74.989
 21
21.7909
  0
LINE
  8
0
 10
74.989
 20
21.7909
 11
74.9851
 21
21.7563
  0
LINE
  8
0
 10
74.9851
 20
21.7563
 11
74.9805
 21
21.7216
  0
LINE
  8
0
 10
74.9805
 20
21.7216
 11
74.9754
 21
21.6871
  0
LINE
  8
0
 10
74.9754
 20
21.6871
 11
74.9696
 21
21.6527
  0
LINE
  8
0
 10
74.9696
 20
21.6527
 11
74.9633
 21
21.6184
  0
LINE
  8
0
 10
74.9633
 20
21.6184
 11
74.9563
 21
21.5842
  0
LINE
  8
0
 10
74.9563
 20
21.5842
 11
74.9487
 21
21.5501
  0
LINE
  8
0
 10
74.9487
 20
21.5501
 11
74.9406
 21
21.5161
  0
LINE
  8
0
 10
74.9406
 20
21.5161
 11
74.9319
 21
21.4824
  0
LINE
  8
0
 10
74.9319
 20
21.4824
 11
74.9225
 21
21.4487
  0
LINE
  8
0
 10
74.9225
 20
21.4487
 11
74.9126
 21
21.4153
  0
LINE
  8
0
 10
74.9126
 20
21.4153
 11
74.9021
 21
21.382
  0
LINE
  8
0
 10
74.9021
 20
21.382
 11
74.891
 21
21.3489
  0
LINE
  8
0
 10
74.891
 20
21.3489
 11
74.8794
 21
21.3159
  0
LINE
  8
0
 10
74.8794
 20
21.3159
 11
74.8672
 21
21.2833
  0
LINE
  8
0
 10
74.8672
 20
21.2833
 11
74.8544
 21
21.2508
  0
LINE
  8
0
 10
74.8544
 20
21.2508
 11
74.841
 21
21.2185
  0
LINE
  8
0
 10
74.841
 20
21.2185
 11
74.8271
 21
21.1865
  0
LINE
  8
0
 10
74.8271
 20
21.1865
 11
74.8126
 21
21.1548
  0
LINE
  8
0
 10
74.8126
 20
21.1548
 11
74.7976
 21
21.1232
  0
LINE
  8
0
 10
74.7976
 20
21.1232
 11
74.782
 21
21.092
  0
LINE
  8
0
 10
74.782
 20
21.092
 11
74.7659
 21
21.0611
  0
LINE
  8
0
 10
74.7659
 20
21.0611
 11
74.7492
 21
21.0304
  0
LINE
  8
0
 10
74.7492
 20
21.0304
 11
74.732
 21
21
  0
LINE
  8
0
 10
74.732
 20
21
 11
74.7143
 21
20.9699
  0
LINE
  8
0
 10
74.7143
 20
20.9699
 11
74.6961
 21
20.9402
  0
LINE
  8
0
 10
74.6961
 20
20.9402
 11
74.6773
 21
20.9107
  0
LINE
  8
0
 10
74.6773
 20
20.9107
 11
74.6581
 21
20.8816
  0
LINE
  8
0
 10
74.6581
 20
20.8816
 11
74.6383
 21
20.8528
  0
LINE
  8
0
 10
74.6383
 20
20.8528
 11
74.618
 21
20.8244
  0
LINE
  8
0
 10
74.618
 20
20.8244
 11
74.5973
 21
20.7964
  0
LINE
  8
0
 10
74.5973
 20
20.7964
 11
74.576
 21
20.7687
  0
LINE
  8
0
 10
74.576
 20
20.7687
 11
74.5543
 21
20.7413
  0
LINE
  8
0
 10
74.5543
 20
20.7413
 11
74.5321
 21
20.7144
  0
LINE
  8
0
 10
74.5321
 20
20.7144
 11
74.5094
 21
20.6879
  0
LINE
  8
0
 10
74.5094
 20
20.6879
 11
74.4863
 21
20.6617
  0
LINE
  8
0
 10
74.4863
 20
20.6617
 11
74.4627
 21
20.636
  0
LINE
  8
0
 10
74.4627
 20
20.636
 11
74.4387
 21
20.6107
  0
LINE
  8
0
 10
74.4387
 20
20.6107
 11
74.4142
 21
20.5858
  0
LINE
  8
0
 10
74.4142
 20
20.5858
 11
74.3893
 21
20.5613
  0
LINE
  8
0
 10
74.3893
 20
20.5613
 11
74.364
 21
20.5373
  0
LINE
  8
0
 10
74.364
 20
20.5373
 11
74.3383
 21
20.5137
  0
LINE
  8
0
 10
74.3383
 20
20.5137
 11
74.3121
 21
20.4906
  0
LINE
  8
0
 10
74.3121
 20
20.4906
 11
74.2856
 21
20.4679
  0
LINE
  8
0
 10
74.2856
 20
20.4679
 11
74.2586
 21
20.4457
  0
LINE
  8
0
 10
74.2586
 20
20.4457
 11
74.2313
 21
20.424
  0
LINE
  8
0
 10
74.2313
 20
20.424
 11
74.2036
 21
20.4027
  0
LINE
  8
0
 10
74.2036
 20
20.4027
 11
74.1756
 21
20.382
  0
LINE
  8
0
 10
74.1756
 20
20.382
 11
74.1472
 21
20.3617
  0
LINE
  8
0
 10
74.1472
 20
20.3617
 11
74.1184
 21
20.3419
  0
LINE
  8
0
 10
74.1184
 20
20.3419
 11
74.0893
 21
20.3226
  0
LINE
  8
0
 10
74.0893
 20
20.3226
 11
74.0598
 21
20.3039
  0
LINE
  8
0
 10
74.0598
 20
20.3039
 11
74.0301
 21
20.2857
  0
LINE
  8
0
 10
74.0301
 20
20.2857
 11
74
 21
20.2679
  0
LINE
  8
0
 10
74
 20
20.2679
 11
73.9696
 21
20.2507
  0
LINE
  8
0
 10
73.9696
 20
20.2507
 11
73.9389
 21
20.2341
  0
LINE
  8
0
 10
73.9389
 20
20.2341
 11
73.908
 21
20.218
  0
LINE
  8
0
 10
73.908
 20
20.218
 11
73.8767
 21
20.2024
  0
LINE
  8
0
 10
73.8767
 20
20.2024
 11
73.8452
 21
20.1874
  0
LINE
  8
0
 10
73.8452
 20
20.1874
 11
73.8135
 21
20.1729
  0
LINE
  8
0
 10
73.8135
 20
20.1729
 11
73.7815
 21
20.159
  0
LINE
  8
0
 10
73.7815
 20
20.159
 11
73.7492
 21
20.1456
  0
LINE
  8
0
 10
73.7492
 20
20.1456
 11
73.7167
 21
20.1328
  0
LINE
  8
0
 10
73.7167
 20
20.1328
 11
73.684
 21
20.1206
  0
LINE
  8
0
 10
73.684
 20
20.1206
 11
73.6511
 21
20.109
  0
LINE
  8
0
 10
73.6511
 20
20.109
 11
73.618
 21
20.0979
  0
LINE
  8
0
 10
73.618
 20
20.0979
 11
73.5847
 21
20.0874
  0
LINE
  8
0
 10
73.5847
 20
20.0874
 11
73.5513
 21
20.0775
  0
LINE
  8
0
 10
73.5513
 20
20.0775
 11
73.5176
 21
20.0681
  0
LINE
  8
0
 10
73.5176
 20
20.0681
 11
73.4838
 21
20.0594
  0
LINE
  8
0
 10
73.4838
 20
20.0594
 11
73.4499
 21
20.0513
  0
LINE
  8
0
 10
73.4499
 20
20.0513
 11
73.4158
 21
20.0437
  0
LINE
  8
0
 10
73.4158
 20
20.0437
 11
73.3816
 21
20.0367
  0
LINE
  8
0
 10
73.3816
 20
20.0367
 11
73.3473
 21
20.0304
  0
LINE
  8
0
 10
73.3473
 20
20.0304
 11
73.3129
 21
20.0246
  0
LINE
  8
0
 10
73.3129
 20
20.0246
 11
73.2783
 21
20.0195
  0
LINE
  8
0
 10
73.2783
 20
20.0195
 11
73.2437
 21
20.0149
  0
LINE
  8
0
 10
73.2437
 20
20.0149
 11
73.2091
 21
20.011
  0
LINE
  8
0
 10
73.2091
 20
20.011
 11
73.1743
 21
20.0076
  0
LINE
  8
0
 10
73.1743
 20
20.0076
 11
73.1395
 21
20.0049
  0
LINE
  8
0
 10
73.1395
 20
20.0049
 11
73.1047
 21
20.0027
  0
LINE
  8
0
 10
73.1047
 20
20.0027
 11
73.0698
 21
20.0012
  0
LINE
  8
0
 10
73.0698
 20
20.0012
 11
73.0349
 21
20.0003
  0
LINE
  8
0
 10
73.0349
 20
20.0003
 11
73
 21
20
  0
LINE
  8
0
 10
73
 20
20
 11
72.9651
 21
20.0003
  0
ENDSEC
  0
SECTION
  2
OBJECTS
  0
DICTIONARY
  0
ENDSEC
  0
EOF
