<?xml version="1.0" standalone="no"?>
<!DOCTYPE svg PUBLIC "-//W3C//DTD SVG 1.1//EN" "http://www.w3.org/Graphics/SVG/1.1/DTD/svg11.dtd">
<svg width="104mm" height="104mm" viewBox="-52 -52 104 104" xmlns="http://www.w3.org/2000/svg" version="1.1">
<title>OpenSCAD Model</title>
<path d="
M 0.907516,51.9921 L 1.81477,51.9683 L 2.72147,51.9287 L 3.62733,51.8733 L 4.53209,51.8021 L 5.43547,51.7151
 L 6.3372,51.6124 L 7.237,51.4939 L 8.13458,51.3598 L 9.02969,51.21 L 9.92206,51.0446 L 10.8114,50.8637
 L 11.6974,50.6672 L 12.5799,50.4554 L 13.4586,50.2281 L 14.3331,49.9856 L 15.2033,49.7278 L 16.0689,49.4549
 L 16.9295,49.167 L 17.785,48.864 L 18.6351,48.5462 L 19.4795,48.2136 L 20.318,47.8662 L 21.1503,47.5044
 L 21.9762,47.128 L 22.7953,46.7373 L 23.6075,46.3323 L 24.4125,45.9133 L 25.2101,45.4802 L 26,45.0333
 L 26.782,44.5727 L 27.5558,44.0985 L 28.3212,43.6109 L 29.078,43.11 L 29.826,42.5959 L 30.5648,42.0689
 L 31.2944,41.529 L 32.0144,40.9765 L 32.7247,40.4116 L 33.425,39.8343 L 34.1151,39.2449 L 34.7948,38.6435
 L 35.4639,38.0304 L 36.1222,37.4057 L 36.7695,36.7695 L 37.4057,36.1222 L 38.0304,35.4639 L 38.6435,34.7948
 L 39.2449,34.1151 L 39.8343,33.425 L 40.4116,32.7247 L 40.9765,32.0144 L 41.529,31.2944 L 42.0689,30.5648
 L 42.5959,29.826 L 43.11,29.078 L 43.6109,28.3212 L 44.0985,27.5558 L 44.5727,26.782 L 45.0333,26
 L 45.4802,25.2101 L 45.9133,24.4125 L 46.3323,23.6075 L 46.7373,22.7953 L 47.128,21.9762 L 47.5044,21.1503
 L 47.8662,20.318 L 48.2136,19.4795 L 48.5462,18.6351 L 48.864,17.785 L 49.167,16.9295 L 49.4549,16.0689
 L 49.7278,15.2033 L 49.9856,14.3331 L 50.2281,13.4586 L 50.4554,12.5799 L 50.6672,11.6974 L 50.8637,10.8114
 L 51.0446,9.92206 L 51.21,9.02969 L 51.3598,8.13458 L 51.4939,7.237 L 51.6124,6.3372 L 51.7151,5.43547
 L 51.8021,4.53209 L 51.8733,3.62733 L 51.9287,2.72147 L 51.9683,1.81477 L 51.9921,0.907516 L 52,-0
 L 51.9921,-0.907516 L 51.9683,-1.81477 L 51.9287,-2.72147 L 51.8733,-3.62733 L 51.8021,-4.53209 L 51.7151,-5.43547
 L 51.6124,-6.3372 L 51.4939,-7.237 L 51.3598,-8.13458 L 51.21,-9.02969 L 51.0446,-9.92206 L 50.8637,-10.8114
 L 50.6672,-11.6974 L 50.4554,-12.5799 L 50.2281,-13.4586 L 49.9856,-14.3331 L 49.7278,-15.2033 L 49.4549,-16.0689
 L 49.167,-16.9295 L 48.864,-17.785 L 48.5462,-18.6351 L 48.2136,-19.4795 L 47.8662,-20.318 L 47.5044,-21.1503
 L 47.128,-21.9762 L 46.7373,-22.7953 L 46.3323,-23.6075 L 45.9133,-24.4125 L 45.4802,-25.2101 L 45.0333,-26
 L 44.5727,-26.782 L 44.0985,-27.5558 L 43.6109,-28.3212 L 43.11,-29.078 L 42.5959,-29.826 L 42.0689,-30.5648
 L 41.529,-31.2944 L 40.9765,-32.0144 L 40.4116,-32.7247 L 39.8343,-33.425 L 39.2449,-34.1151 L 38.6435,-34.7948
 L 38.0304,-35.4639 L 37.4057,-36.1222 L 36.7695,-36.7695 L 36.1222,-37.4057 L 35.4639,-38.0304 L 34.7948,-38.6435
 L 34.1151,-39.2449 L 33.425,-39.8343 L 32.7247,-40.4116 L 32.0144,-40.9765 L 31.2944,-41.529 L 30.5648,-42.0689
 L 29.826,-42.5959 L 29.078,-43.11 L 28.3212,-43.6109 L 27.5558,-44.0985 L 26.782,-44.5727 L 26,-45.0333
 L 25.2101,-45.4802 L 24.4125,-45.9133 L 23.6075,-46.3323 L 22.7953,-46.7373 L 21.9762,-47.128 L 21.1503,-47.5044
 L 20.318,-47.8662 L 19.4795,-48.2136 L 18.6351,-48.5462 L 17.785,-48.864 L 16.9295,-49.167 L 16.0689,-49.4549
 L 15.2033,-49.7278 L 14.3331,-49.9856 L 13.4586,-50.2281 L 12.5799,-50.4554 L 11.6974,-50.6672 L 10.8114,-50.8637
 L 9.92206,-51.0446 L 9.02969,-51.21 L 8.13458,-51.3598 L 7.237,-51.4939 L 6.3372,-51.6124 L 5.43547,-51.7151
 L 4.53209,-51.8021 L 3.62733,-51.8733 L 2.72147,-51.9287 L 1.81477,-51.9683 L 0.907516,-51.9921 L 0,-52
 L -0.907516,-51.9921 L -1.81477,-51.9683 L -2.72147,-51.9287 L -3.62733,-51.8733 L -4.53209,-51.8021 L -5.43547,-51.7151
 L -6.3372,-51.6124 L -7.237,-51.4939 L -8.13458,-51.3598 L -9.02969,-51.21 L -9.92206,-51.0446 L -10.8114,-50.8637
 L -11.6974,-50.6672 L -12.5799,-50.4554 L -13.4586,-50.2281 L -14.3331,-49.9856 L -15.2033,-49.7278 L -16.0689,-49.4549
 L -16.9295,-49.167 L -17.785,-48.864 L -18.6351,-48.5462 L -19.4795,-48.2136 L -20.318,-47.8662 L -21.1503,-47.5044
 L -21.9762,-47.128 L -22.7953,-46.7373 L -23.6075,-46.3323 L -24.4125,-45.9133 L -25.2101,-45.4802 L -26,-45.0333
 L -26.782,-44.5727 L -27.5558,-44.0985 L -28.3212,-43.6109 L -29.078,-43.11 L -29.826,-42.5959 L -30.5648,-42.0689
 L -31.2944,-41.529 L -32.0144,-40.9765 L -32.7247,-40.4116 L -33.425,-39.8343 L -34.1151,-39.2449 L -34.7948,-38.6435
 L -35.4639,-38.0304 L -36.1222,-37.4057 L -36.7695,-36.7695 L -37.4057,-36.1222 L -38.0304,-35.4639 L -38.6435,-34.7948
 L -39.2449,-34.1151 L -39.8343,-33.425 L -40.4116,-32.7247 L -40.9765,-32.0144 L -41.529,-31.2944 L -42.0689,-30.5648
 L -42.5959,-29.826 L -43.11,-29.078 L -43.6109,-28.3212 L -44.0985,-27.5558 L -44.5727,-26.782 L -45.0333,-26
 L -45.4802,-25.2101 L -45.9133,-24.4125 L -46.3323,-23.6075 L -46.7373,-22.7953 L -47.128,-21.9762 L -47.5044,-21.1503
 L -47.8662,-20.318 L -48.2136,-19.4795 L -48.5462,-18.6351 L -48.864,-17.785 L -49.167,-16.9295 L -49.4549,-16.0689
 L -49.7278,-15.2033 L -49.9856,-14.3331 L -50.2281,-13.4586 L -50.4554,-12.5799 L -50.6672,-11.6974 L -50.8637,-10.8114
 L -51.0446,-9.92206 L -51.21,-9.02969 L -51.3598,-8.13458 L -51.4939,-7.237 L -51.6124,-6.3372 L -51.7151,-5.43547
 L -51.8021,-4.53209 L -51.8733,-3.62733 L -51.9287,-2.72147 L -51.9683,-1.81477 L -51.9921,-0.907516 L -52,-0
 L -51.9921,0.907516 L -51.9683,1.81477 L -51.9287,2.72147 L -51.8733,3.62733 L -51.8021,4.53209 L -51.7151,5.43547
 L -51.6124,6.3372 L -51.4939,7.237 L -51.3598,8.13458 L -51.21,9.02969 L -51.0446,9.92206 L -50.8637,10.8114
 L -50.6672,11.6974 L -50.4554,12.5799 L -50.2281,13.4586 L -49.9856,14.3331 L -49.7278,15.2033 L -49.4549,16.0689
 L -49.167,16.9295 L -48.864,17.785 L -48.5462,18.6351 L -48.2136,19.4795 L -47.8662,20.318 L -47.5044,21.1503
 L -47.128,21.9762 L -46.7373,22.7953 L -46.3323,23.6075 L -45.9133,24.4125 L -45.4802,25.2101 L -45.0333,26
 L -44.5727,26.782 L -44.0985,27.5558 L -43.6109,28.3212 L -43.11,29.078 L -42.5959,29.826 L -42.0689,30.5648
 L -41.529,31.2944 L -40.9765,32.0144 L -40.4116,32.7247 L -39.8343,33.425 L -39.2449,34.1151 L -38.6435,34.7948
 L -38.0304,35.4639 L -37.4057,36.1222 L -36.7695,36.7695 L -36.1222,37.4057 L -35.4639,38.0304 L -34.7948,38.6435
 L -34.1151,39.2449 L -33.425,39.8343 L -32.7247,40.4116 L -32.0144,40.9765 L -31.2944,41.529 L -30.5648,42.0689
 L -29.826,42.5959 L -29.078,43.11 L -28.3212,43.6109 L -27.5558,44.0985 L -26.782,44.5727 L -26,45.0333
 L -25.2101,45.4802 L -24.4125,45.9133 L -23.6075,46.3323 L -22.7953,46.7373 L -21.9762,47.128 L -21.1503,47.5044
 L -20.318,47.8662 L -19.4795,48.2136 L -18.6351,48.5462 L -17.785,48.864 L -16.9295,49.167 L -16.0689,49.4549
 L -15.2033,49.7278 L -14.3331,49.9856 L -13.4586,50.2281 L -12.5799,50.4554 L -11.6974,50.6672 L -10.8114,50.8637
 L -9.92206,51.0446 L -9.02969,51.21 L -8.13458,51.3598 L -7.237,51.4939 L -6.3372,51.6124 L -5.43547,51.7151
 L -4.53209,51.8021 L -3.62733,51.8733 L -2.72147,51.9287 L -1.81477,51.9683 L -0.907516,51.9921 L 0,52
 z
M -0.349045,19.9969 L -0.697983,19.9878 L -1.04671,19.9726 L -1.39513,19.9513 L -1.7431,19.9239 L -2.09056,19.8904
 L -2.43738,19.8509 L -2.78345,19.8054 L -3.12868,19.7538 L -3.47296,19.6962 L -3.81618,19.6325 L -4.15823,19.5629
 L -4.49901,19.4874 L -4.83842,19.4059 L -5.17638,19.3185 L -5.51274,19.2252 L -5.84743,19.1261 L -6.18033,19.0211
 L -6.51135,18.9104 L -6.84039,18.7938 L -7.16736,18.6716 L -7.49213,18.5437 L -7.81462,18.4101 L -8.13472,18.2709
 L -8.45236,18.1261 L -8.76741,17.9759 L -9.0798,17.8201 L -9.38942,17.659 L -9.69618,17.4924 L -10,17.3205
 L -10.3008,17.1433 L -10.5984,16.961 L -10.8928,16.7734 L -11.1839,16.5807 L -11.4715,16.383 L -11.7557,16.1803
 L -12.0363,15.9727 L -12.3132,15.7602 L -12.5864,15.5429 L -12.8557,15.3209 L -13.1212,15.0942 L -13.3826,14.8629
 L -13.64,14.6271 L -13.8932,14.3868 L -14.1421,14.1421 L -14.3868,13.8932 L -14.6271,13.64 L -14.8629,13.3826
 L -15.0942,13.1212 L -15.3209,12.8557 L -15.5429,12.5864 L -15.7602,12.3132 L -15.9727,12.0363 L -16.1803,11.7557
 L -16.383,11.4715 L -16.5807,11.1839 L -16.7734,10.8928 L -16.961,10.5984 L -17.1433,10.3008 L -17.3205,10
 L -17.4924,9.69618 L -17.659,9.38942 L -17.8201,9.0798 L -17.9759,8.76741 L -18.1261,8.45236 L -18.2709,8.13472
 L -18.4101,7.81462 L -18.5437,7.49213 L -18.6716,7.16736 L -18.7938,6.84039 L -18.9104,6.51135 L -19.0211,6.18033
 L -19.1261,5.84743 L -19.2252,5.51274 L -19.3185,5.17638 L -19.4059,4.83842 L -19.4874,4.49901 L -19.5629,4.15823
 L -19.6325,3.81618 L -19.6962,3.47296 L -19.7538,3.12868 L -19.8054,2.78345 L -19.8509,2.43738 L -19.8904,2.09056
 L -19.9239,1.7431 L -19.9513,1.39513 L -19.9726,1.04671 L -19.9878,0.697983 L -19.9969,0.349045 L -20,-0
 L -19.9969,-0.349045 L -19.9878,-0.697983 L -19.9726,-1.04671 L -19.9513,-1.39513 L -19.9239,-1.7431 L -19.8904,-2.09056
 L -19.8509,-2.43738 L -19.8054,-2.78345 L -19.7538,-3.12868 L -19.6962,-3.47296 L -19.6325,-3.81618 L -19.5629,-4.15823
 L -19.4874,-4.49901 L -19.4059,-4.83842 L -19.3185,-5.17638 L -19.2252,-5.51274 L -19.1261,-5.84743 L -19.0211,-6.18033
 L -18.9104,-6.51135 L -18.7938,-6.84039 L -18.6716,-7.16736 L -18.5437,-7.49213 L -18.4101,-7.81462 L -18.2709,-8.13472
 L -18.1261,-8.45236 L -17.9759,-8.76741 L -17.8201,-9.0798 L -17.659,-9.38942 L -17.4924,-9.69618 L -17.3205,-10
 L -17.1433,-10.3008 L -16.961,-10.5984 L -16.7734,-10.8928 L -16.5807,-11.1839 L -16.383,-11.4715 L -16.1803,-11.7557
 L -15.9727,-12.0363 L -15.7602,-12.3132 L -15.5429,-12.5864 L -15.3209,-12.8557 L -15.0942,-13.1212 L -14.8629,-13.3826
 L -14.6271,-13.64 L -14.3868,-13.8932 L -14.1421,-14.1421 L -13.8932,-14.3868 L -13.64,-14.6271 L -13.3826,-14.8629
 L -13.1212,-15.0942 L -12.8557,-15.3209 L -12.5864,-15.5429 L -12.3132,-15.7602 L -12.0363,-15.9727 L -11.7557,-16.1803
 L -11.4715,-16.383 L -11.1839,-16.5807 L -10.8928,-16.7734 L -10.5984,-16.961 L -10.3008,-17.1433 L -10,-17.3205
 L -9.69618,-17.4924 L -9.38942,-17.659 L -9.0798,-17.8201 L -8.76741,-17.9759 L -8.45236,-18.1261 L -8.13472,-18.2709
 L -7.81462,-18.4101 L -7.49213,-18.5437 L -7.16736,-18.6716 L -6.84039,-18.7938 L -6.51135,-18.9104 L -6.18033,-19.0211
 L -5.84743,-19.1261 L -5.51274,-19.2252 L -5.17638,-19.3185 L -4.83842,-19.4059 L -4.49901,-19.4874 L -4.15823,-19.5629
 L -3.81618,-19.6325 L -3.47296,-19.6962 L -3.12868,-19.7538 L -2.78345,-19.8054 L -2.43738,-19.8509 L -2.09056,-19.8904
 L -1.7431,-19.9239 L -1.39513,-19.9513 L -1.04671,-19.9726 L -0.697983,-19.9878 L -0.349045,-19.9969 L 0,-20
 L 0.349045,-19.9969 L 0.697983,-19.9878 L 1.04671,-19.9726 L 1.39513,-19.9513 L 1.7431,-19.9239 L 2.09056,-19.8904
 L 2.43738,-19.8509 L 2.78345,-19.8054 L 3.12868,-19.7538 L 3.47296,-19.6962 L 3.81618,-19.6325 L 4.15823,-19.5629
 L 4.49901,-19.4874 L 4.83842,-19.4059 L 5.17638,-19.3185 L 5.51274,-19.2252 L 5.84743,-19.1261 L 6.18033,-19.0211
 L 6.51135,-18.9104 L 6.84039,-18.7938 L 7.16736,-18.6716 L 7.49213,-18.5437 L 7.81462,-18.4101 L 8.13472,-18.2709
 L 8.45236,-18.1261 L 8.76741,-17.9759 L 9.0798,-17.8201 L 9.38942,-17.659 L 9.69618,-17.4924 L 10,-17.3205
 L 10.3008,-17.1433 L 10.5984,-16.961 L 10.8928,-16.7734 L 11.1839,-16.5807 L 11.4715,-16.383 L 11.7557,-16.1803
 L 12.0363,-15.9727 L 12.3132,-15.7602 L 12.5864,-15.5429 L 12.8557,-15.3209 L 13.1212,-15.0942 L 13.3826,-14.8629
 L 13.64,-14.6271 L 13.8932,-14.3868 L 14.1421,-14.1421 L 14.3868,-13.8932 L 14.6271,-13.64 L 14.8629,-13.3826
 L 15.0942,-13.1212 L 15.3209,-12.8557 L 15.5429,-12.5864 L 15.7602,-12.3132 L 15.9727,-12.0363 L 16.1803,-11.7557
 L 16.383,-11.4715 L 16.5807,-11.1839 L 16.7734,-10.8928 L 16.961,-10.5984 L 17.1433,-10.3008 L 17.3205,-10
 L 17.4924,-9.69618 L 17.659,-9.38942 L 17.8201,-9.0798 L 17.9759,-8.76741 L 18.1261,-8.45236 L 18.2709,-8.13472
 L 18.4101,-7.81462 L 18.5437,-7.49213 L 18.6716,-7.16736 L 18.7938,-6.84039 L 18.9104,-6.51135 L 19.0211,-6.18033
 L 19.1261,-5.84743 L 19.2252,-5.51274 L 19.3185,-5.17638 L 19.4059,-4.83842 L 19.4874,-4.49901 L 19.5629,-4.15823
 L 19.6325,-3.81618 L 19.6962,-3.47296 L 19.7538,-3.12868 L 19.8054,-2.78345 L 19.8509,-2.43738 L 19.8904,-2.09056
 L 19.9239,-1.7431 L 19.9513,-1.39513 L 19.9726,-1.04671 L 19.9878,-0.697983 L 19.9969,-0.349045 L 20,-0
 L 19.9969,0.349045 L 19.9878,0.697983 L 19.9726,1.04671 L 19.9513,1.39513 L 19.9239,1.7431 L 19.8904,2.09056
 L 19.8509,2.43738 L 19.8054,2.78345 L 19.7538,3.12868 L 19.6962,3.47296 L 19.6325,3.81618 L 19.5629,4.15823
 L 19.4874,4.49901 L 19.4059,4.83842 L 19.3185,5.17638 L 19.2252,5.51274 L 19.1261,5.84743 L 19.0211,6.18033
 L 18.9104,6.51135 L 18.7938,6.84039 L 18.6716,7.16736 L 18.5437,7.49213 L 18.4101,7.81462 L 18.2709,8.13472
 L 18.1261,8.45236 L 17.9759,8.76741 L 17.8201,9.0798 L 17.659,9.38942 L 17.4924,9.69618 L 17.3205,10
 L 17.1433,10.3008 L 16.961,10.5984 L 16.7734,10.8928 L 16.5807,11.1839 L 16.383,11.4715 L 16.1803,11.7557
 L 15.9727,12.0363 L 15.7602,12.3132 L 15.5429,12.5864 L 15.3209,12.8557 L 15.0942,13.1212 L 14.8629,13.3826
 L 14.6271,13.64 L 14.3868,13.8932 L 14.1421,14.1421 L 13.8932,14.3868 L 13.64,14.6271 L 13.3826,14.8629
 L 13.1212,15.0942 L 12.8557,15.3209 L 12.5864,15.5429 L 12.3132,15.7602 L 12.0363,15.9727 L 11.7557,16.1803
 L 11.4715,16.383 L 11.1839,16.5807 L 10.8928,16.7734 L 10.5984,16.961 L 10.3008,17.1433 L 10,17.3205
 L 9.69618,17.4924 L 9.38942,17.659 L 9.0798,17.8201 L 8.76741,17.9759 L 8.45236,18.1261 L 8.13472,18.2709
 L 7.81462,18.4101 L 7.49213,18.5437 L 7.16736,18.6716 L 6.84039,18.7938 L 6.51135,18.9104 L 6.18033,19.0211
 L 5.84743,19.1261 L 5.51274,19.2252 L 5.17638,19.3185 L 4.83842,19.4059 L 4.49901,19.4874 L 4.15823,19.5629
 L 3.81618,19.6325 L 3.47296,19.6962 L 3.12868,19.7538 L 2.78345,19.8054 L 2.43738,19.8509 L 2.09056,19.8904
 L 1.7431,19.9239 L 1.39513,19.9513 L 1.04671,19.9726 L 0.697983,19.9878 L 0.349045,19.9969 L 0,20
 z
M -31.0349,1.99969 L -31.0698,1.99878 L -31.1047,1.99725 L -31.1395,1.99512 L -31.1743,1.99239 L -31.209,1.98903
 L -31.2437,1.98509 L -31.2783,1.98053 L -31.3129,1.97537 L -31.3473,1.9696 L -31.3816,1.96324 L -31.4158,1.95628
 L -31.4499,1.94873 L -31.4838,1.94058 L -31.5176,1.93184 L -31.5513,1.92252 L -31.5847,1.9126 L -31.618,1.9021
 L -31.6511,1.89104 L -31.684,1.87938 L -31.7167,1.86716 L -31.7492,1.85435 L -31.7814,1.841 L -31.8135,1.82709
 L -31.8452,1.81261 L -31.8767,1.79758 L -31.908,1.78201 L -31.9389,1.76588 L -31.9696,1.74924 L -32,1.73204
 L -32.0301,1.71432 L -32.0598,1.69609 L -32.0893,1.67734 L -32.1184,1.65807 L -32.1471,1.63829 L -32.1756,1.61803
 L -32.2036,1.59726 L -32.2313,1.57602 L -32.2586,1.55429 L -32.2856,1.53207 L -32.3121,1.50941 L -32.3383,1.48628
 L -32.364,1.46269 L -32.3893,1.43867 L -32.4142,1.4142 L -32.4387,1.38931 L -32.4627,1.36398 L -32.4863,1.33826
 L -32.5094,1.3121 L -32.5321,1.28557 L -32.5543,1.25864 L -32.576,1.23131 L -32.5973,1.20363 L -32.618,1.17557
 L -32.6383,1.14714 L -32.6581,1.11838 L -32.6773,1.08926 L -32.6961,1.05983 L -32.7143,1.03008 L -32.732,1
 L -32.7492,0.969604 L -32.7659,0.938934 L -32.782,0.907974 L -32.7976,0.87674 L -32.8126,0.84523 L -32.8271,0.813461
 L -32.841,0.781448 L -32.8544,0.749207 L -32.8672,0.716736 L -32.8794,0.684036 L -32.891,0.651123 L -32.9021,0.618027
 L -32.9126,0.584732 L -32.9225,0.55127 L -32.9318,0.517624 L -32.9406,0.483841 L -32.9487,0.44989 L -32.9563,0.415817
 L -32.9632,0.381607 L -32.9696,0.34729 L -32.9754,0.312866 L -32.9805,0.278336 L -32.9851,0.243729 L -32.989,0.209045
 L -32.9924,0.174301 L -32.9951,0.139511 L -32.9973,0.10466 L -32.9988,0.0697937 L -32.9997,0.0348969 L -33,-0
 L -32.9997,-0.0348969 L -32.9988,-0.0697937 L -32.9973,-0.10466 L -32.9951,-0.139511 L -32.9924,-0.174301 L -32.989,-0.209045
 L -32.9851,-0.243729 L -32.9805,-0.278336 L -32.9754,-0.312866 L -32.9696,-0.34729 L -32.9632,-0.381607 L -32.9563,-0.415817
 L -32.9487,-0.44989 L -32.9406,-0.483841 L -32.9318,-0.517624 L -32.9225,-0.55127 L -32.9126,-0.584732 L -32.9021,-0.618027
 L -32.891,-0.651123 L -32.8794,-0.684036 L -32.8672,-0.716736 L -32.8544,-0.749207 L -32.841,-0.781448 L -32.8271,-0.813461
 L -32.8126,-0.84523 L -32.7976,-0.87674 L -32.782,-0.907974 L -32.7659,-0.938934 L -32.7492,-0.969604 L -32.732,-1
 L -32.7143,-1.03008 L -32.6961,-1.05983 L -32.6773,-1.08926 L -32.6581,-1.11838 L -32.6383,-1.14714 L -32.618,-1.17557
 L -32.5973,-1.20363 L -32.576,-1.23131 L -32.5543,-1.25864 L -32.5321,-1.28557 L -32.5094,-1.3121 L -32.4863,-1.33826
 L -32.4627,-1.36398 L -32.4387,-1.38931 L -32.4142,-1.4142 L -32.3893,-1.43867 L -32.364,-1.46269 L -32.3383,-1.48628
 L -32.3121,-1.50941 L -32.2856,-1.53207 L -32.2586,-1.55429 L -32.2313,-1.57602 L -32.2036,-1.59726 L -32.1756,-1.61803
 L -32.1471,-1.63829 L -32.1184,-1.65807 L -32.0893,-1.67734 L -32.0598,-1.69609 L -32.0301,-1.71432 L -32,-1.73204
 L -31.9696,-1.74924 L -31.9389,-1.76588 L -31.908,-1.78201 L -31.8767,-1.79758 L -31.8452,-1.81261 L -31.8135,-1.82709
 L -31.7814,-1.841 L -31.7492,-1.85435 L -31.7167,-1.86716 L -31.684,-1.87938 L -31.6511,-1.89104 L -31.618,-1.9021
 L -31.5847,-1.9126 L -31.5513,-1.92252 L -31.5176,-1.93184 L -31.4838,-1.94058 L -31.4499,-1.94873 L -31.4158,-1.95628
 L -31.3816,-1.96324 L -31.3473,-1.9696 L -31.3129,-1.97537 L -31.2783,-1.98053 L -31.2437,-1.98509 L -31.209,-1.98903
 L -31.1743,-1.99239 L -31.1395,-1.99512 L -31.1047,-1.99725 L -31.0698,-1.99878 L -31.0349,-1.99969 L -31,-2
 L -30.9651,-1.99969 L -30.9302,-1.99878 L -30.8953,-1.99725 L -30.8605,-1.99512 L -30.8257,-1.99239 L -30.7909,-1.98903
 L -30.7563,-1.98509 L -30.7216,-1.98053 L -30.6871,-1.97537 L -30.6527,-1.9696 L -30.6184,-1.96324 L -30.5842,-1.95628
 L -30.5501,-1.94873 L -30.5161,-1.94058 L -30.4824,-1.93184 L -30.4487,-1.92252 L -30.4153,-1.9126 L -30.382,-1.9021
 L -30.3489,-1.89104 L -30.3159,-1.87938 L -30.2833,-1.86716 L -30.2508,-1.85435 L -30.2185,-1.841 L -30.1865,-1.82709
 L -30.1548,-1.81261 L -30.1232,-1.79758 L -30.092,-1.78201 L -30.0611,-1.76588 L -30.0304,-1.74924 L -30,-1.73204
 L -29.9699,-1.71432 L -29.9402,-1.69609 L -29.9107,-1.67734 L -29.8816,-1.65807 L -29.8528,-1.63829 L -29.8244,-1.61803
 L -29.7964,-1.59726 L -29.7687,-1.57602 L -29.7413,-1.55429 L -29.7144,-1.53207 L -29.6879,-1.50941 L -29.6617,-1.48628
 L -29.636,-1.46269 L -29.6107,-1.43867 L -29.5858,-1.4142 L -29.5613,-1.38931 L -29.5373,-1.36398 L -29.5137,-1.33826
 L -29.4906,-1.3121 L -29.4679,-1.28557 L -29.4457,-1.25864 L -29.424,-1.23131 L -29.4027,-1.20363 L -29.382,-1.17557
 L -29.3617,-1.14714 L -29.3419,-1.11838 L -29.3226,-1.08926 L -29.3039,-1.05983 L -29.2857,-1.03008 L -29.2679,-1
 L -29.2507,-0.969604 L -29.2341,-0.938934 L -29.218,-0.907974 L -29.2024,-0.87674 L -29.1874,-0.84523 L -29.1729,-0.813461
 L -29.159,-0.781448 L -29.1456,-0.749207 L -29.1328,-0.716736 L -29.1206,-0.684036 L -29.109,-0.651123 L -29.0979,-0.618027
 L -29.0874,-0.584732 L -29.0775,-0.55127 L -29.0681,-0.517624 L -29.0594,-0.483841 L -29.0513,-0.44989 L -29.0437,-0.415817
 L -29.0367,-0.381607 L -29.0304,-0.34729 L -29.0246,-0.312866 L -29.0195,-0.278336 L -29.0149,-0.243729 L -29.011,-0.209045
 L -29.0076,-0.174301 L -29.0049,-0.139511 L -29.0027,-0.10466 L -29.0012,-0.0697937 L -29.0003,-0.0348969 L -29,-0
 L -29.0003,0.0348969 L -29.0012,0.0697937 L -29.0027,0.10466 L -29.0049,0.139511 L -29.0076,0.174301 L -29.011,0.209045
 L -29.0149,0.243729 L -29.0195,0.278336 L -29.0246,0.312866 L -29.0304,0.34729 L -29.0367,0.381607 L -29.0437,0.415817
 L -29.0513,0.44989 L -29.0594,0.483841 L -29.0681,0.517624 L -29.0775,0.55127 L -29.0874,0.584732 L -29.0979,0.618027
 L -29.109,0.651123 L -29.1206,0.684036 L -29.1328,0.716736 L -29.1456,0.749207 L -29.159,0.781448 L -29.1729,0.813461
 L -29.1874,0.84523 L -29.2024,0.87674 L -29.218,0.907974 L -29.2341,0.938934 L -29.2507,0.969604 L -29.2679,1
 L -29.2857,1.03008 L -29.3039,1.05983 L -29.3226,1.08926 L -29.3419,1.11838 L -29.3617,1.14714 L -29.382,1.17557
 L -29.4027,1.20363 L -29.424,1.23131 L -29.4457,1.25864 L -29.4679,1.28557 L -29.4906,1.3121 L -29.5137,1.33826
 L -29.5373,1.36398 L -29.5613,1.38931 L -29.5858,1.4142 L -29.6107,1.43867 L -29.636,1.46269 L -29.6617,1.48628
 L -29.6879,1.50941 L -29.7144,1.53207 L -29.7413,1.55429 L -29.7687,1.57602 L -29.7964,1.59726 L -29.8244,1.61803
 L -29.8528,1.63829 L -29.8816,1.65807 L -29.9107,1.67734 L -29.9402,1.69609 L -29.9699,1.71432 L -30,1.73204
 L -30.0304,1.74924 L -30.0611,1.76588 L -30.092,1.78201 L -30.1232,1.79758 L -30.1548,1.81261 L -30.1865,1.82709
 L -30.2185,1.841 L -30.2508,1.85435 L -30.2833,1.86716 L -30.3159,1.87938 L -30.3489,1.89104 L -30.382,1.9021
 L -30.4153,1.9126 L -30.4487,1.92252 L -30.4824,1.93184 L -30.5161,1.94058 L -30.5501,1.94873 L -30.5842,1.95628
 L -30.6184,1.96324 L -30.6527,1.9696 L -30.6871,1.97537 L -30.7216,1.98053 L -30.7563,1.98509 L -30.7909,1.98903
 L -30.8257,1.99239 L -30.8605,1.99512 L -30.8953,1.99725 L -30.9302,1.99878 L -30.9651,1.99969 L -31,2
 z
M 30.9651,1.99969 L 30.9302,1.99878 L 30.8953,1.99725 L 30.8605,1.99512 L 30.8257,1.99239 L 30.7909,1.98903
 L 30.7563,1.98509 L 30.7216,1.98053 L 30.6871,1.97537 L 30.6527,1.9696 L 30.6184,1.96324 L 30.5842,1.95628
 L 30.5501,1.94873 L 30.5161,1.94058 L 30.4824,1.93184 L 30.4487,1.92252 L 30.4153,1.9126 L 30.382,1.9021
 L 30.3489,1.89104 L 30.3159,1.87938 L 30.2833,1.86716 L 30.2508,1.85435 L 30.2185,1.841 L 30.1865,1.82709
 L 30.1548,1.81261 L 30.1232,1.79758 L 30.092,1.78201 L 30.0611,1.76588 L 30.0304,1.74924 L 30,1.73204
 L 29.9699,1.71432 L 29.9402,1.69609 L 29.9107,1.67734 L 29.8816,1.65807 L 29.8528,1.63829 L 29.8244,1.61803
 L 29.7964,1.59726 L 29.7687,1.57602 L 29.7413,1.55429 L 29.7144,1.53207 L 29.6879,1.50941 L 29.6617,1.48628
 L 29.636,1.46269 L 29.6107,1.43867 L 29.5858,1.4142 L 29.5613,1.38931 L 29.5373,1.36398 L 29.5137,1.33826
 L 29.4906,1.3121 L 29.4679,1.28557 L 29.4457,1.25864 L 29.424,1.23131 L 29.4027,1.20363 L 29.382,1.17557
 L 29.3617,1.14714 L 29.3419,1.11838 L 29.3226,1.08926 L 29.3039,1.05983 L 29.2857,1.03008 L 29.2679,1
 L 29.2507,0.969604 L 29.2341,0.938934 L 29.218,0.907974 L 29.2024,0.87674 L 29.1874,0.84523 L 29.1729,0.813461
 L 29.159,0.781448 L 29.1456,0.749207 L 29.1328,0.716736 L 29.1206,0.684036 L 29.109,0.651123 L 29.0979,0.618027
 L 29.0874,0.584732 L 29.0775,0.55127 L 29.0681,0.517624 L 29.0594,0.483841 L 29.0513,0.44989 L 29.0437,0.415817
 L 29.0367,0.381607 L 29.0304,0.34729 L 29.0246,0.312866 L 29.0195,0.278336 L 29.0149,0.243729 L 29.011,0.209045
 L 29.0076,0.174301 L 29.0049,0.139511 L 29.0027,0.10466 L 29.0012,0.0697937 L 29.0003,0.0348969 L 29,-0
 L 29.0003,-0.0348969 L 29.0012,-0.0697937 L 29.0027,-0.10466 L 29.0049,-0.139511 L 29.0076,-0.174301 L 29.011,-0.209045
 L 29.0149,-0.243729 L 29.0195,-0.278336 L 29.0246,-0.312866 L 29.0304,-0.34729 L 29.0367,-0.381607 L 29.0437,-0.415817
 L 29.0513,-0.44989 L 29.0594,-0.483841 L 29.0681,-0.517624 L 29.0775,-0.55127 L 29.0874,-0.584732 L 29.0979,-0.618027
 L 29.109,-0.651123 L 29.1206,-0.684036 L 29.1328,-0.716736 L 29.1456,-0.749207 L 29.159,-0.781448 L 29.1729,-0.813461
 L 29.1874,-0.84523 L 29.2024,-0.87674 L 29.218,-0.907974 L 29.2341,-0.938934 L 29.2507,-0.969604 L 29.2679,-1
 L 29.2857,-1.03008 L 29.3039,-1.05983 L 29.3226,-1.08926 L 29.3419,-1.11838 L 29.3617,-1.14714 L 29.382,-1.17557
 L 29.4027,-1.20363 L 29.424,-1.23131 L 29.4457,-1.25864 L 29.4679,-1.28557 L 29.4906,-1.3121 L 29.5137,-1.33826
 L 29.5373,-1.36398 L 29.5613,-1.38931 L 29.5858,-1.4142 L 29.6107,-1.43867 L 29.636,-1.46269 L 29.6617,-1.48628
 L 29.6879,-1.50941 L 29.7144,-1.53207 L 29.7413,-1.55429 L 29.7687,-1.57602 L 29.7964,-1.59726 L 29.8244,-1.61803
 L 29.8528,-1.63829 L 29.8816,-1.65807 L 29.9107,-1.67734 L 29.9402,-1.69609 L 29.9699,-1.71432 L 30,-1.73204
 L 30.0304,-1.74924 L 30.0611,-1.76588 L 30.092,-1.78201 L 30.1232,-1.79758 L 30.1548,-1.81261 L 30.1865,-1.82709
 L 30.2185,-1.841 L 30.2508,-1.85435 L 30.2833,-1.86716 L 30.3159,-1.87938 L 30.3489,-1.89104 L 30.382,-1.9021
 L 30.4153,-1.9126 L 30.4487,-1.92252 L 30.4824,-1.93184 L 30.5161,-1.94058 L 30.5501,-1.94873 L 30.5842,-1.95628
 L 30.6184,-1.96324 L 30.6527,-1.9696 L 30.6871,-1.97537 L 30.7216,-1.98053 L 30.7563,-1.98509 L 30.7909,-1.98903
 L 30.8257,-1.99239 L 30.8605,-1.99512 L 30.8953,-1.99725 L 30.9302,-1.99878 L 30.9651,-1.99969 L 31,-2
 L 31.0349,-1.99969 L 31.0698,-1.99878 L 31.1047,-1.99725 L 31.1395,-1.99512 L 31.1743,-1.99239 L 31.209,-1.98903
 L 31.2437,-1.98509 L 31.2783,-1.98053 L 31.3129,-1.97537 L 31.3473,-1.9696 L 31.3816,-1.96324 L 31.4158,-1.95628
 L 31.4499,-1.94873 L 31.4838,-1.94058 L 31.5176,-1.93184 L 31.5513,-1.92252 L 31.5847,-1.9126 L 31.618,-1.9021
 L 31.6511,-1.89104 L 31.684,-1.87938 L 31.7167,-1.86716 L 31.7492,-1.85435 L 31.7814,-1.841 L 31.8135,-1.82709
 L 31.8452,-1.81261 L 31.8767,-1.79758 L 31.908,-1.78201 L 31.9389,-1.76588 L 31.9696,-1.74924 L 32,-1.73204
 L 32.0301,-1.71432 L 32.0598,-1.69609 L 32.0893,-1.67734 L 32.1184,-1.65807 L 32.1471,-1.63829 L 32.1756,-1.61803
 L 32.2036,-1.59726 L 32.2313,-1.57602 L 32.2586,-1.55429 L 32.2856,-1.53207 L 32.3121,-1.50941 L 32.3383,-1.48628
 L 32.364,-1.46269 L 32.3893,-1.43867 L 32.4142,-1.4142 L 32.4387,-1.38931 L 32.4627,-1.36398 L 32.4863,-1.33826
 L 32.5094,-1.3121 L 32.5321,-1.28557 L 32.5543,-1.25864 L 32.576,-1.23131 L 32.5973,-1.20363 L 32.618,-1.17557
 L 32.6383,-1.14714 L 32.6581,-1.11838 L 32.6773,-1.08926 L 32.6961,-1.05983 L 32.7143,-1.03008 L 32.732,-1
 L 32.7492,-0.969604 L 32.7659,-0.938934 L 32.782,-0.907974 L 32.7976,-0.87674 L 32.8126,-0.84523 L 32.8271,-0.813461
 L 32.841,-0.781448 L 32.8544,-0.749207 L 32.8672,-0.716736 L 32.8794,-0.684036 L 32.891,-0.651123 L 32.9021,-0.618027
 L 32.9126,-0.584732 L 32.9225,-0.55127 L 32.9318,-0.517624 L 32.9406,-0.483841 L 32.9487,-0.44989 L 32.9563,-0.415817
 L 32.9632,-0.381607 L 32.9696,-0.34729 L 32.9754,-0.312866 L 32.9805,-0.278336 L 32.9851,-0.243729 L 32.989,-0.209045
 L 32.9924,-0.174301 L 32.9951,-0.139511 L 32.9973,-0.10466 L 32.9988,-0.0697937 L 32.9997,-0.0348969 L 33,-0
 L 32.9997,0.0348969 L 32.9988,0.0697937 L 32.9973,0.10466 L 32.9951,0.139511 L 32.9924,0.174301 L 32.989,0.209045
 L 32.9851,0.243729 L 32.9805,0.278336 L 32.9754,0.312866 L 32.9696,0.34729 L 32.9632,0.381607 L 32.9563,0.415817
 L 32.9487,0.44989 L 32.9406,0.483841 L 32.9318,0.517624 L 32.9225,0.55127 L 32.9126,0.584732 L 32.9021,0.618027
 L 32.891,0.651123 L 32.8794,0.684036 L 32.8672,0.716736 L 32.8544,0.749207 L 32.841,0.781448 L 32.8271,0.813461
 L 32.8126,0.84523 L 32.7976,0.87674 L 32.782,0.907974 L 32.7659,0.938934 L 32.7492,0.969604 L 32.732,1
 L 32.7143,1.03008 L 32.6961,1.05983 L 32.6773,1.08926 L 32.6581,1.11838 L 32.6383,1.14714 L 32.618,1.17557
 L 32.5973,1.20363 L 32.576,1.23131 L 32.5543,1.25864 L 32.5321,1.28557 L 32.5094,1.3121 L 32.4863,1.33826
 L 32.4627,1.36398 L 32.4387,1.38931 L 32.4142,1.4142 L 32.3893,1.43867 L 32.364,1.46269 L 32.3383,1.48628
 L 32.3121,1.50941 L 32.2856,1.53207 L 32.2586,1.55429 L 32.2313,1.57602 L 32.2036,1.59726 L 32.1756,1.61803
 L 32.1471,1.63829 L 32.1184,1.65807 L 32.0893,1.67734 L 32.0598,1.69609 L 32.0301,1.71432 L 32,1.73204
 L 31.9696,1.74924 L 31.9389,1.76588 L 31.908,1.78201 L 31.8767,1.79758 L 31.8452,1.81261 L 31.8135,1.82709
 L 31.7814,1.841 L 31.7492,1.85435 L 31.7167,1.86716 L 31.684,1.87938 L 31.6511,1.89104 L 31.618,1.9021
 L 31.5847,1.9126 L 31.5513,1.92252 L 31.5176,1.93184 L 31.4838,1.94058 L 31.4499,1.94873 L 31.4158,1.95628
 L 31.3816,1.96324 L 31.3473,1.9696 L 31.3129,1.97537 L 31.2783,1.98053 L 31.2437,1.98509 L 31.209,1.98903
 L 31.1743,1.99239 L 31.1395,1.99512 L 31.1047,1.99725 L 31.0698,1.99878 L 31.0349,1.99969 L 31,2
 z
" stroke="black" fill="lightgray" stroke-width="0.5"/>
</svg>
