  0
SECTION
  2
BLOCKS
  0
ENDSEC
  0
SECTION
  2
ENTITIES
  0
LINE
  8
0
 10
50
 20
0
 11
70
 21
0
  0
LINE
  8
0
 10
70
 20
0
 11
70
 21
8
  0
LINE
  8
0
 10
70
 20
8
 11
170
 21
8
  0
LINE
  8
0
 10
170
 20
8
 11
170
 21
0
  0
LINE
  8
0
 10
170
 20
0
 11
190
 21
0
  0
LINE
  8
0
 10
190
 20
0
 11
190
 21
-8
  0
LINE
  8
0
 10
190
 20
-8
 11
220
 21
-8
  0
LINE
  8
0
 10
220
 20
-8
 11
220
 21
0
  0
LINE
  8
0
 10
220
 20
0
 11
240
 21
0
  0
LINE
  8
0
 10
240
 20
0
 11
240
 21
318
  0
LINE
  8
0
 10
240
 20
318
 11
220
 21
318
  0
LINE
  8
0
 10
220
 20
318
 11
220
 21
326
  0
LINE
  8
0
 10
220
 20
326
 11
190
 21
326
  0
LINE
  8
0
 10
190
 20
326
 11
190
 21
318
  0
LINE
  8
0
 10
190
 20
318
 11
50
 21
318
  0
LINE
  8
0
 10
50
 20
318
 11
50
 21
326
  0
LINE
  8
0
 10
50
 20
326
 11
20
 21
326
  0
LINE
  8
0
 10
20
 20
326
 11
20
 21
318
  0
LINE
  8
0
 10
20
 20
318
 11
0
 21
318
  0
LINE
  8
0
 10
0
 20
318
 11
0
 21
0
  0
LINE
  8
0
 10
0
 20
0
 11
20
 21
0
  0
LINE
  8
0
 10
20
 20
0
 11
20
 21
-8
  0
LINE
  8
0
 10
20
 20
-8
 11
50
 21
-8
  0
LINE
  8
0
 10
50
 20
-8
 11
50
 21
0
  0
LINE
  8
0
 10
88.9651
 20
305
 11
88.9302
 21
305.001
  0
LINE
  8
0
 10
88.9302
 20
305.001
 11
88.8953
 21
305.003
  0
LINE
  8
0
 10
88.8953
 20
305.003
 11
88.8605
 21
305.005
  0
LINE
  8
0
 10
88.8605
 20
305.005
 11
88.8257
 21
305.008
  0
LINE
  8
0
 10
88.8257
 20
305.008
 11
88.7909
 21
305.011
  0
LINE
  8
0
 10
88.7909
 20
305.011
 11
88.7563
 21
305.015
  0
LINE
  8
0
 10
88.7563
 20
305.015
 11
88.7216
 21
305.019
  0
LINE
  8
0
 10
88.7216
 20
305.019
 11
88.6871
 21
305.025
  0
LINE
  8
0
 10
88.6871
 20
305.025
 11
88.6527
 21
305.03
  0
LINE
  8
0
 10
88.6527
 20
305.03
 11
88.6184
 21
305.037
  0
LINE
  8
0
 10
88.6184
 20
305.037
 11
88.5842
 21
305.044
  0
LINE
  8
0
 10
88.5842
 20
305.044
 11
88.5501
 21
305.051
  0
LINE
  8
0
 10
88.5501
 20
305.051
 11
88.5162
 21
305.059
  0
LINE
  8
0
 10
88.5162
 20
305.059
 11
88.4824
 21
305.068
  0
LINE
  8
0
 10
88.4824
 20
305.068
 11
88.4487
 21
305.077
  0
LINE
  8
0
 10
88.4487
 20
305.077
 11
88.4153
 21
305.087
  0
LINE
  8
0
 10
88.4153
 20
305.087
 11
88.382
 21
305.098
  0
LINE
  8
0
 10
88.382
 20
305.098
 11
88.3489
 21
305.109
  0
LINE
  8
0
 10
88.3489
 20
305.109
 11
88.3159
 21
305.121
  0
LINE
  8
0
 10
88.3159
 20
305.121
 11
88.2833
 21
305.133
  0
LINE
  8
0
 10
88.2833
 20
305.133
 11
88.2508
 21
305.146
  0
LINE
  8
0
 10
88.2508
 20
305.146
 11
88.2185
 21
305.159
  0
LINE
  8
0
 10
88.2185
 20
305.159
 11
88.1865
 21
305.173
  0
LINE
  8
0
 10
88.1865
 20
305.173
 11
88.1548
 21
305.187
  0
LINE
  8
0
 10
88.1548
 20
305.187
 11
88.1233
 21
305.202
  0
LINE
  8
0
 10
88.1233
 20
305.202
 11
88.092
 21
305.218
  0
LINE
  8
0
 10
88.092
 20
305.218
 11
88.0611
 21
305.234
  0
LINE
  8
0
 10
88.0611
 20
305.234
 11
88.0304
 21
305.251
  0
LINE
  8
0
 10
88.0304
 20
305.251
 11
88
 21
305.268
  0
LINE
  8
0
 10
88
 20
305.268
 11
87.9699
 21
305.286
  0
LINE
  8
0
 10
87.9699
 20
305.286
 11
87.9402
 21
305.304
  0
LINE
  8
0
 10
87.9402
 20
305.304
 11
87.9107
 21
305.323
  0
LINE
  8
0
 10
87.9107
 20
305.323
 11
87.8816
 21
305.342
  0
LINE
  8
0
 10
87.8816
 20
305.342
 11
87.8528
 21
305.362
  0
LINE
  8
0
 10
87.8528
 20
305.362
 11
87.8244
 21
305.382
  0
LINE
  8
0
 10
87.8244
 20
305.382
 11
87.7964
 21
305.403
  0
LINE
  8
0
 10
87.7964
 20
305.403
 11
87.7687
 21
305.424
  0
LINE
  8
0
 10
87.7687
 20
305.424
 11
87.7413
 21
305.446
  0
LINE
  8
0
 10
87.7413
 20
305.446
 11
87.7144
 21
305.468
  0
LINE
  8
0
 10
87.7144
 20
305.468
 11
87.6879
 21
305.491
  0
LINE
  8
0
 10
87.6879
 20
305.491
 11
87.6617
 21
305.514
  0
LINE
  8
0
 10
87.6617
 20
305.514
 11
87.636
 21
305.537
  0
LINE
  8
0
 10
87.636
 20
305.537
 11
87.6107
 21
305.561
  0
LINE
  8
0
 10
87.6107
 20
305.561
 11
87.5858
 21
305.586
  0
LINE
  8
0
 10
87.5858
 20
305.586
 11
87.5613
 21
305.611
  0
LINE
  8
0
 10
87.5613
 20
305.611
 11
87.5373
 21
305.636
  0
LINE
  8
0
 10
87.5373
 20
305.636
 11
87.5137
 21
305.662
  0
LINE
  8
0
 10
87.5137
 20
305.662
 11
87.4906
 21
305.688
  0
LINE
  8
0
 10
87.4906
 20
305.688
 11
87.4679
 21
305.714
  0
LINE
  8
0
 10
87.4679
 20
305.714
 11
87.4457
 21
305.741
  0
LINE
  8
0
 10
87.4457
 20
305.741
 11
87.424
 21
305.769
  0
LINE
  8
0
 10
87.424
 20
305.769
 11
87.4027
 21
305.796
  0
LINE
  8
0
 10
87.4027
 20
305.796
 11
87.382
 21
305.824
  0
LINE
  8
0
 10
87.382
 20
305.824
 11
87.3617
 21
305.853
  0
LINE
  8
0
 10
87.3617
 20
305.853
 11
87.3419
 21
305.882
  0
LINE
  8
0
 10
87.3419
 20
305.882
 11
87.3227
 21
305.911
  0
LINE
  8
0
 10
87.3227
 20
305.911
 11
87.3039
 21
305.94
  0
LINE
  8
0
 10
87.3039
 20
305.94
 11
87.2857
 21
305.97
  0
LINE
  8
0
 10
87.2857
 20
305.97
 11
87.2679
 21
306
  0
LINE
  8
0
 10
87.2679
 20
306
 11
87.2508
 21
306.03
  0
LINE
  8
0
 10
87.2508
 20
306.03
 11
87.2341
 21
306.061
  0
LINE
  8
0
 10
87.2341
 20
306.061
 11
87.218
 21
306.092
  0
LINE
  8
0
 10
87.218
 20
306.092
 11
87.2024
 21
306.123
  0
LINE
  8
0
 10
87.2024
 20
306.123
 11
87.1874
 21
306.155
  0
LINE
  8
0
 10
87.1874
 20
306.155
 11
87.1729
 21
306.187
  0
LINE
  8
0
 10
87.1729
 20
306.187
 11
87.159
 21
306.219
  0
LINE
  8
0
 10
87.159
 20
306.219
 11
87.1456
 21
306.251
  0
LINE
  8
0
 10
87.1456
 20
306.251
 11
87.1328
 21
306.283
  0
LINE
  8
0
 10
87.1328
 20
306.283
 11
87.1206
 21
306.316
  0
LINE
  8
0
 10
87.1206
 20
306.316
 11
87.109
 21
306.349
  0
LINE
  8
0
 10
87.109
 20
306.349
 11
87.0979
 21
306.382
  0
LINE
  8
0
 10
87.0979
 20
306.382
 11
87.0874
 21
306.415
  0
LINE
  8
0
 10
87.0874
 20
306.415
 11
87.0775
 21
306.449
  0
LINE
  8
0
 10
87.0775
 20
306.449
 11
87.0681
 21
306.482
  0
LINE
  8
0
 10
87.0681
 20
306.482
 11
87.0594
 21
306.516
  0
LINE
  8
0
 10
87.0594
 20
306.516
 11
87.0513
 21
306.55
  0
LINE
  8
0
 10
87.0513
 20
306.55
 11
87.0437
 21
306.584
  0
LINE
  8
0
 10
87.0437
 20
306.584
 11
87.0367
 21
306.618
  0
LINE
  8
0
 10
87.0367
 20
306.618
 11
87.0304
 21
306.653
  0
LINE
  8
0
 10
87.0304
 20
306.653
 11
87.0246
 21
306.687
  0
LINE
  8
0
 10
87.0246
 20
306.687
 11
87.0195
 21
306.722
  0
LINE
  8
0
 10
87.0195
 20
306.722
 11
87.0149
 21
306.756
  0
LINE
  8
0
 10
87.0149
 20
306.756
 11
87.011
 21
306.791
  0
LINE
  8
0
 10
87.011
 20
306.791
 11
87.0076
 21
306.826
  0
LINE
  8
0
 10
87.0076
 20
306.826
 11
87.0049
 21
306.86
  0
LINE
  8
0
 10
87.0049
 20
306.86
 11
87.0027
 21
306.895
  0
LINE
  8
0
 10
87.0027
 20
306.895
 11
87.0012
 21
306.93
  0
LINE
  8
0
 10
87.0012
 20
306.93
 11
87.0003
 21
306.965
  0
LINE
  8
0
 10
87.0003
 20
306.965
 11
87
 21
307
  0
LINE
  8
0
 10
87
 20
307
 11
87.0003
 21
307.035
  0
LINE
  8
0
 10
87.0003
 20
307.035
 11
87.0012
 21
307.07
  0
LINE
  8
0
 10
87.0012
 20
307.07
 11
87.0027
 21
307.105
  0
LINE
  8
0
 10
87.0027
 20
307.105
 11
87.0049
 21
307.14
  0
LINE
  8
0
 10
87.0049
 20
307.14
 11
87.0076
 21
307.174
  0
LINE
  8
0
 10
87.0076
 20
307.174
 11
87.011
 21
307.209
  0
LINE
  8
0
 10
87.011
 20
307.209
 11
87.0149
 21
307.244
  0
LINE
  8
0
 10
87.0149
 20
307.244
 11
87.0195
 21
307.278
  0
LINE
  8
0
 10
87.0195
 20
307.278
 11
87.0246
 21
307.313
  0
LINE
  8
0
 10
87.0246
 20
307.313
 11
87.0304
 21
307.347
  0
LINE
  8
0
 10
87.0304
 20
307.347
 11
87.0367
 21
307.382
  0
LINE
  8
0
 10
87.0367
 20
307.382
 11
87.0437
 21
307.416
  0
LINE
  8
0
 10
87.0437
 20
307.416
 11
87.0513
 21
307.45
  0
LINE
  8
0
 10
87.0513
 20
307.45
 11
87.0594
 21
307.484
  0
LINE
  8
0
 10
87.0594
 20
307.484
 11
87.0681
 21
307.518
  0
LINE
  8
0
 10
87.0681
 20
307.518
 11
87.0775
 21
307.551
  0
LINE
  8
0
 10
87.0775
 20
307.551
 11
87.0874
 21
307.585
  0
LINE
  8
0
 10
87.0874
 20
307.585
 11
87.0979
 21
307.618
  0
LINE
  8
0
 10
87.0979
 20
307.618
 11
87.109
 21
307.651
  0
LINE
  8
0
 10
87.109
 20
307.651
 11
87.1206
 21
307.684
  0
LINE
  8
0
 10
87.1206
 20
307.684
 11
87.1328
 21
307.717
  0
LINE
  8
0
 10
87.1328
 20
307.717
 11
87.1456
 21
307.749
  0
LINE
  8
0
 10
87.1456
 20
307.749
 11
87.159
 21
307.781
  0
LINE
  8
0
 10
87.159
 20
307.781
 11
87.1729
 21
307.813
  0
LINE
  8
0
 10
87.1729
 20
307.813
 11
87.1874
 21
307.845
  0
LINE
  8
0
 10
87.1874
 20
307.845
 11
87.2024
 21
307.877
  0
LINE
  8
0
 10
87.2024
 20
307.877
 11
87.218
 21
307.908
  0
LINE
  8
0
 10
87.218
 20
307.908
 11
87.2341
 21
307.939
  0
LINE
  8
0
 10
87.2341
 20
307.939
 11
87.2508
 21
307.97
  0
LINE
  8
0
 10
87.2508
 20
307.97
 11
87.2679
 21
308
  0
LINE
  8
0
 10
87.2679
 20
308
 11
87.2857
 21
308.03
  0
LINE
  8
0
 10
87.2857
 20
308.03
 11
87.3039
 21
308.06
  0
LINE
  8
0
 10
87.3039
 20
308.06
 11
87.3227
 21
308.089
  0
LINE
  8
0
 10
87.3227
 20
308.089
 11
87.3419
 21
308.118
  0
LINE
  8
0
 10
87.3419
 20
308.118
 11
87.3617
 21
308.147
  0
LINE
  8
0
 10
87.3617
 20
308.147
 11
87.382
 21
308.176
  0
LINE
  8
0
 10
87.382
 20
308.176
 11
87.4027
 21
308.204
  0
LINE
  8
0
 10
87.4027
 20
308.204
 11
87.424
 21
308.231
  0
LINE
  8
0
 10
87.424
 20
308.231
 11
87.4457
 21
308.259
  0
LINE
  8
0
 10
87.4457
 20
308.259
 11
87.4679
 21
308.286
  0
LINE
  8
0
 10
87.4679
 20
308.286
 11
87.4906
 21
308.312
  0
LINE
  8
0
 10
87.4906
 20
308.312
 11
87.5137
 21
308.338
  0
LINE
  8
0
 10
87.5137
 20
308.338
 11
87.5373
 21
308.364
  0
LINE
  8
0
 10
87.5373
 20
308.364
 11
87.5613
 21
308.389
  0
LINE
  8
0
 10
87.5613
 20
308.389
 11
87.5858
 21
308.414
  0
LINE
  8
0
 10
87.5858
 20
308.414
 11
87.6107
 21
308.439
  0
LINE
  8
0
 10
87.6107
 20
308.439
 11
87.636
 21
308.463
  0
LINE
  8
0
 10
87.636
 20
308.463
 11
87.6617
 21
308.486
  0
LINE
  8
0
 10
87.6617
 20
308.486
 11
87.6879
 21
308.509
  0
LINE
  8
0
 10
87.6879
 20
308.509
 11
87.7144
 21
308.532
  0
LINE
  8
0
 10
87.7144
 20
308.532
 11
87.7413
 21
308.554
  0
LINE
  8
0
 10
87.7413
 20
308.554
 11
87.7687
 21
308.576
  0
LINE
  8
0
 10
87.7687
 20
308.576
 11
87.7964
 21
308.597
  0
LINE
  8
0
 10
87.7964
 20
308.597
 11
87.8244
 21
308.618
  0
LINE
  8
0
 10
87.8244
 20
308.618
 11
87.8528
 21
308.638
  0
LINE
  8
0
 10
87.8528
 20
308.638
 11
87.8816
 21
308.658
  0
LINE
  8
0
 10
87.8816
 20
308.658
 11
87.9107
 21
308.677
  0
LINE
  8
0
 10
87.9107
 20
308.677
 11
87.9402
 21
308.696
  0
LINE
  8
0
 10
87.9402
 20
308.696
 11
87.9699
 21
308.714
  0
LINE
  8
0
 10
87.9699
 20
308.714
 11
88
 21
308.732
  0
LINE
  8
0
 10
88
 20
308.732
 11
88.0304
 21
308.749
  0
LINE
  8
0
 10
88.0304
 20
308.749
 11
88.0611
 21
308.766
  0
LINE
  8
0
 10
88.0611
 20
308.766
 11
88.092
 21
308.782
  0
LINE
  8
0
 10
88.092
 20
308.782
 11
88.1233
 21
308.798
  0
LINE
  8
0
 10
88.1233
 20
308.798
 11
88.1548
 21
308.813
  0
LINE
  8
0
 10
88.1548
 20
308.813
 11
88.1865
 21
308.827
  0
LINE
  8
0
 10
88.1865
 20
308.827
 11
88.2185
 21
308.841
  0
LINE
  8
0
 10
88.2185
 20
308.841
 11
88.2508
 21
308.854
  0
LINE
  8
0
 10
88.2508
 20
308.854
 11
88.2833
 21
308.867
  0
LINE
  8
0
 10
88.2833
 20
308.867
 11
88.3159
 21
308.879
  0
LINE
  8
0
 10
88.3159
 20
308.879
 11
88.3489
 21
308.891
  0
LINE
  8
0
 10
88.3489
 20
308.891
 11
88.382
 21
308.902
  0
LINE
  8
0
 10
88.382
 20
308.902
 11
88.4153
 21
308.913
  0
LINE
  8
0
 10
88.4153
 20
308.913
 11
88.4487
 21
308.923
  0
LINE
  8
0
 10
88.4487
 20
308.923
 11
88.4824
 21
308.932
  0
LINE
  8
0
 10
88.4824
 20
308.932
 11
88.5162
 21
308.941
  0
LINE
  8
0
 10
88.5162
 20
308.941
 11
88.5501
 21
308.949
  0
LINE
  8
0
 10
88.5501
 20
308.949
 11
88.5842
 21
308.956
  0
LINE
  8
0
 10
88.5842
 20
308.956
 11
88.6184
 21
308.963
  0
LINE
  8
0
 10
88.6184
 20
308.963
 11
88.6527
 21
308.97
  0
LINE
  8
0
 10
88.6527
 20
308.97
 11
88.6871
 21
308.975
  0
LINE
  8
0
 10
88.6871
 20
308.975
 11
88.7216
 21
308.981
  0
LINE
  8
0
 10
88.7216
 20
308.981
 11
88.7563
 21
308.985
  0
LINE
  8
0
 10
88.7563
 20
308.985
 11
88.7909
 21
308.989
  0
LINE
  8
0
 10
88.7909
 20
308.989
 11
88.8257
 21
308.992
  0
LINE
  8
0
 10
88.8257
 20
308.992
 11
88.8605
 21
308.995
  0
LINE
  8
0
 10
88.8605
 20
308.995
 11
88.8953
 21
308.997
  0
LINE
  8
0
 10
88.8953
 20
308.997
 11
88.9302
 21
308.999
  0
LINE
  8
0
 10
88.9302
 20
308.999
 11
88.9651
 21
309
  0
LINE
  8
0
 10
88.9651
 20
309
 11
89
 21
309
  0
LINE
  8
0
 10
89
 20
309
 11
89.0349
 21
309
  0
LINE
  8
0
 10
89.0349
 20
309
 11
89.0698
 21
308.999
  0
LINE
  8
0
 10
89.0698
 20
308.999
 11
89.1047
 21
308.997
  0
LINE
  8
0
 10
89.1047
 20
308.997
 11
89.1395
 21
308.995
  0
LINE
  8
0
 10
89.1395
 20
308.995
 11
89.1743
 21
308.992
  0
LINE
  8
0
 10
89.1743
 20
308.992
 11
89.2091
 21
308.989
  0
LINE
  8
0
 10
89.2091
 20
308.989
 11
89.2437
 21
308.985
  0
LINE
  8
0
 10
89.2437
 20
308.985
 11
89.2783
 21
308.981
  0
LINE
  8
0
 10
89.2783
 20
308.981
 11
89.3129
 21
308.975
  0
LINE
  8
0
 10
89.3129
 20
308.975
 11
89.3473
 21
308.97
  0
LINE
  8
0
 10
89.3473
 20
308.97
 11
89.3816
 21
308.963
  0
LINE
  8
0
 10
89.3816
 20
308.963
 11
89.4158
 21
308.956
  0
LINE
  8
0
 10
89.4158
 20
308.956
 11
89.4499
 21
308.949
  0
LINE
  8
0
 10
89.4499
 20
308.949
 11
89.4838
 21
308.941
  0
LINE
  8
0
 10
89.4838
 20
308.941
 11
89.5176
 21
308.932
  0
LINE
  8
0
 10
89.5176
 20
308.932
 11
89.5513
 21
308.923
  0
LINE
  8
0
 10
89.5513
 20
308.923
 11
89.5847
 21
308.913
  0
LINE
  8
0
 10
89.5847
 20
308.913
 11
89.618
 21
308.902
  0
LINE
  8
0
 10
89.618
 20
308.902
 11
89.6511
 21
308.891
  0
LINE
  8
0
 10
89.6511
 20
308.891
 11
89.684
 21
308.879
  0
LINE
  8
0
 10
89.684
 20
308.879
 11
89.7167
 21
308.867
  0
LINE
  8
0
 10
89.7167
 20
308.867
 11
89.7492
 21
308.854
  0
LINE
  8
0
 10
89.7492
 20
308.854
 11
89.7815
 21
308.841
  0
LINE
  8
0
 10
89.7815
 20
308.841
 11
89.8135
 21
308.827
  0
LINE
  8
0
 10
89.8135
 20
308.827
 11
89.8452
 21
308.813
  0
LINE
  8
0
 10
89.8452
 20
308.813
 11
89.8767
 21
308.798
  0
LINE
  8
0
 10
89.8767
 20
308.798
 11
89.908
 21
308.782
  0
LINE
  8
0
 10
89.908
 20
308.782
 11
89.9389
 21
308.766
  0
LINE
  8
0
 10
89.9389
 20
308.766
 11
89.9696
 21
308.749
  0
LINE
  8
0
 10
89.9696
 20
308.749
 11
90
 21
308.732
  0
LINE
  8
0
 10
90
 20
308.732
 11
90.0301
 21
308.714
  0
LINE
  8
0
 10
90.0301
 20
308.714
 11
90.0598
 21
308.696
  0
LINE
  8
0
 10
90.0598
 20
308.696
 11
90.0893
 21
308.677
  0
LINE
  8
0
 10
90.0893
 20
308.677
 11
90.1184
 21
308.658
  0
LINE
  8
0
 10
90.1184
 20
308.658
 11
90.1472
 21
308.638
  0
LINE
  8
0
 10
90.1472
 20
308.638
 11
90.1756
 21
308.618
  0
LINE
  8
0
 10
90.1756
 20
308.618
 11
90.2036
 21
308.597
  0
LINE
  8
0
 10
90.2036
 20
308.597
 11
90.2313
 21
308.576
  0
LINE
  8
0
 10
90.2313
 20
308.576
 11
90.2586
 21
308.554
  0
LINE
  8
0
 10
90.2586
 20
308.554
 11
90.2856
 21
308.532
  0
LINE
  8
0
 10
90.2856
 20
308.532
 11
90.3121
 21
308.509
  0
LINE
  8
0
 10
90.3121
 20
308.509
 11
90.3383
 21
308.486
  0
LINE
  8
0
 10
90.3383
 20
308.486
 11
90.364
 21
308.463
  0
LINE
  8
0
 10
90.364
 20
308.463
 11
90.3893
 21
308.439
  0
LINE
  8
0
 10
90.3893
 20
308.439
 11
90.4142
 21
308.414
  0
LINE
  8
0
 10
90.4142
 20
308.414
 11
90.4387
 21
308.389
  0
LINE
  8
0
 10
90.4387
 20
308.389
 11
90.4627
 21
308.364
  0
LINE
  8
0
 10
90.4627
 20
308.364
 11
90.4863
 21
308.338
  0
LINE
  8
0
 10
90.4863
 20
308.338
 11
90.5094
 21
308.312
  0
LINE
  8
0
 10
90.5094
 20
308.312
 11
90.5321
 21
308.286
  0
LINE
  8
0
 10
90.5321
 20
308.286
 11
90.5543
 21
308.259
  0
LINE
  8
0
 10
90.5543
 20
308.259
 11
90.576
 21
308.231
  0
LINE
  8
0
 10
90.576
 20
308.231
 11
90.5973
 21
308.204
  0
LINE
  8
0
 10
90.5973
 20
308.204
 11
90.618
 21
308.176
  0
LINE
  8
0
 10
90.618
 20
308.176
 11
90.6383
 21
308.147
  0
LINE
  8
0
 10
90.6383
 20
308.147
 11
90.6581
 21
308.118
  0
LINE
  8
0
 10
90.6581
 20
308.118
 11
90.6773
 21
308.089
  0
LINE
  8
0
 10
90.6773
 20
308.089
 11
90.6961
 21
308.06
  0
LINE
  8
0
 10
90.6961
 20
308.06
 11
90.7143
 21
308.03
  0
LINE
  8
0
 10
90.7143
 20
308.03
 11
90.732
 21
308
  0
LINE
  8
0
 10
90.732
 20
308
 11
90.7492
 21
307.97
  0
LINE
  8
0
 10
90.7492
 20
307.97
 11
90.7659
 21
307.939
  0
LINE
  8
0
 10
90.7659
 20
307.939
 11
90.782
 21
307.908
  0
LINE
  8
0
 10
90.782
 20
307.908
 11
90.7976
 21
307.877
  0
LINE
  8
0
 10
90.7976
 20
307.877
 11
90.8126
 21
307.845
  0
LINE
  8
0
 10
90.8126
 20
307.845
 11
90.8271
 21
307.813
  0
LINE
  8
0
 10
90.8271
 20
307.813
 11
90.841
 21
307.781
  0
LINE
  8
0
 10
90.841
 20
307.781
 11
90.8544
 21
307.749
  0
LINE
  8
0
 10
90.8544
 20
307.749
 11
90.8672
 21
307.717
  0
LINE
  8
0
 10
90.8672
 20
307.717
 11
90.8794
 21
307.684
  0
LINE
  8
0
 10
90.8794
 20
307.684
 11
90.891
 21
307.651
  0
LINE
  8
0
 10
90.891
 20
307.651
 11
90.9021
 21
307.618
  0
LINE
  8
0
 10
90.9021
 20
307.618
 11
90.9126
 21
307.585
  0
LINE
  8
0
 10
90.9126
 20
307.585
 11
90.9225
 21
307.551
  0
LINE
  8
0
 10
90.9225
 20
307.551
 11
90.9319
 21
307.518
  0
LINE
  8
0
 10
90.9319
 20
307.518
 11
90.9406
 21
307.484
  0
LINE
  8
0
 10
90.9406
 20
307.484
 11
90.9487
 21
307.45
  0
LINE
  8
0
 10
90.9487
 20
307.45
 11
90.9563
 21
307.416
  0
LINE
  8
0
 10
90.9563
 20
307.416
 11
90.9633
 21
307.382
  0
LINE
  8
0
 10
90.9633
 20
307.382
 11
90.9696
 21
307.347
  0
LINE
  8
0
 10
90.9696
 20
307.347
 11
90.9754
 21
307.313
  0
LINE
  8
0
 10
90.9754
 20
307.313
 11
90.9805
 21
307.278
  0
LINE
  8
0
 10
90.9805
 20
307.278
 11
90.9851
 21
307.244
  0
LINE
  8
0
 10
90.9851
 20
307.244
 11
90.989
 21
307.209
  0
LINE
  8
0
 10
90.989
 20
307.209
 11
90.9924
 21
307.174
  0
LINE
  8
0
 10
90.9924
 20
307.174
 11
90.9951
 21
307.14
  0
LINE
  8
0
 10
90.9951
 20
307.14
 11
90.9973
 21
307.105
  0
LINE
  8
0
 10
90.9973
 20
307.105
 11
90.9988
 21
307.07
  0
LINE
  8
0
 10
90.9988
 20
307.07
 11
90.9997
 21
307.035
  0
LINE
  8
0
 10
90.9997
 20
307.035
 11
91
 21
307
  0
LINE
  8
0
 10
91
 20
307
 11
90.9997
 21
306.965
  0
LINE
  8
0
 10
90.9997
 20
306.965
 11
90.9988
 21
306.93
  0
LINE
  8
0
 10
90.9988
 20
306.93
 11
90.9973
 21
306.895
  0
LINE
  8
0
 10
90.9973
 20
306.895
 11
90.9951
 21
306.86
  0
LINE
  8
0
 10
90.9951
 20
306.86
 11
90.9924
 21
306.826
  0
LINE
  8
0
 10
90.9924
 20
306.826
 11
90.989
 21
306.791
  0
LINE
  8
0
 10
90.989
 20
306.791
 11
90.9851
 21
306.756
  0
LINE
  8
0
 10
90.9851
 20
306.756
 11
90.9805
 21
306.722
  0
LINE
  8
0
 10
90.9805
 20
306.722
 11
90.9754
 21
306.687
  0
LINE
  8
0
 10
90.9754
 20
306.687
 11
90.9696
 21
306.653
  0
LINE
  8
0
 10
90.9696
 20
306.653
 11
90.9633
 21
306.618
  0
LINE
  8
0
 10
90.9633
 20
306.618
 11
90.9563
 21
306.584
  0
LINE
  8
0
 10
90.9563
 20
306.584
 11
90.9487
 21
306.55
  0
LINE
  8
0
 10
90.9487
 20
306.55
 11
90.9406
 21
306.516
  0
LINE
  8
0
 10
90.9406
 20
306.516
 11
90.9319
 21
306.482
  0
LINE
  8
0
 10
90.9319
 20
306.482
 11
90.9225
 21
306.449
  0
LINE
  8
0
 10
90.9225
 20
306.449
 11
90.9126
 21
306.415
  0
LINE
  8
0
 10
90.9126
 20
306.415
 11
90.9021
 21
306.382
  0
LINE
  8
0
 10
90.9021
 20
306.382
 11
90.891
 21
306.349
  0
LINE
  8
0
 10
90.891
 20
306.349
 11
90.8794
 21
306.316
  0
LINE
  8
0
 10
90.8794
 20
306.316
 11
90.8672
 21
306.283
  0
LINE
  8
0
 10
90.8672
 20
306.283
 11
90.8544
 21
306.251
  0
LINE
  8
0
 10
90.8544
 20
306.251
 11
90.841
 21
306.219
  0
LINE
  8
0
 10
90.841
 20
306.219
 11
90.8271
 21
306.187
  0
LINE
  8
0
 10
90.8271
 20
306.187
 11
90.8126
 21
306.155
  0
LINE
  8
0
 10
90.8126
 20
306.155
 11
90.7976
 21
306.123
  0
LINE
  8
0
 10
90.7976
 20
306.123
 11
90.782
 21
306.092
  0
LINE
  8
0
 10
90.782
 20
306.092
 11
90.7659
 21
306.061
  0
LINE
  8
0
 10
90.7659
 20
306.061
 11
90.7492
 21
306.03
  0
LINE
  8
0
 10
90.7492
 20
306.03
 11
90.732
 21
306
  0
LINE
  8
0
 10
90.732
 20
306
 11
90.7143
 21
305.97
  0
LINE
  8
0
 10
90.7143
 20
305.97
 11
90.6961
 21
305.94
  0
LINE
  8
0
 10
90.6961
 20
305.94
 11
90.6773
 21
305.911
  0
LINE
  8
0
 10
90.6773
 20
305.911
 11
90.6581
 21
305.882
  0
LINE
  8
0
 10
90.6581
 20
305.882
 11
90.6383
 21
305.853
  0
LINE
  8
0
 10
90.6383
 20
305.853
 11
90.618
 21
305.824
  0
LINE
  8
0
 10
90.618
 20
305.824
 11
90.5973
 21
305.796
  0
LINE
  8
0
 10
90.5973
 20
305.796
 11
90.576
 21
305.769
  0
LINE
  8
0
 10
90.576
 20
305.769
 11
90.5543
 21
305.741
  0
LINE
  8
0
 10
90.5543
 20
305.741
 11
90.5321
 21
305.714
  0
LINE
  8
0
 10
90.5321
 20
305.714
 11
90.5094
 21
305.688
  0
LINE
  8
0
 10
90.5094
 20
305.688
 11
90.4863
 21
305.662
  0
LINE
  8
0
 10
90.4863
 20
305.662
 11
90.4627
 21
305.636
  0
LINE
  8
0
 10
90.4627
 20
305.636
 11
90.4387
 21
305.611
  0
LINE
  8
0
 10
90.4387
 20
305.611
 11
90.4142
 21
305.586
  0
LINE
  8
0
 10
90.4142
 20
305.586
 11
90.3893
 21
305.561
  0
LINE
  8
0
 10
90.3893
 20
305.561
 11
90.364
 21
305.537
  0
LINE
  8
0
 10
90.364
 20
305.537
 11
90.3383
 21
305.514
  0
LINE
  8
0
 10
90.3383
 20
305.514
 11
90.3121
 21
305.491
  0
LINE
  8
0
 10
90.3121
 20
305.491
 11
90.2856
 21
305.468
  0
LINE
  8
0
 10
90.2856
 20
305.468
 11
90.2586
 21
305.446
  0
LINE
  8
0
 10
90.2586
 20
305.446
 11
90.2313
 21
305.424
  0
LINE
  8
0
 10
90.2313
 20
305.424
 11
90.2036
 21
305.403
  0
LINE
  8
0
 10
90.2036
 20
305.403
 11
90.1756
 21
305.382
  0
LINE
  8
0
 10
90.1756
 20
305.382
 11
90.1472
 21
305.362
  0
LINE
  8
0
 10
90.1472
 20
305.362
 11
90.1184
 21
305.342
  0
LINE
  8
0
 10
90.1184
 20
305.342
 11
90.0893
 21
305.323
  0
LINE
  8
0
 10
90.0893
 20
305.323
 11
90.0598
 21
305.304
  0
LINE
  8
0
 10
90.0598
 20
305.304
 11
90.0301
 21
305.286
  0
LINE
  8
0
 10
90.0301
 20
305.286
 11
90
 21
305.268
  0
LINE
  8
0
 10
90
 20
305.268
 11
89.9696
 21
305.251
  0
LINE
  8
0
 10
89.9696
 20
305.251
 11
89.9389
 21
305.234
  0
LINE
  8
0
 10
89.9389
 20
305.234
 11
89.908
 21
305.218
  0
LINE
  8
0
 10
89.908
 20
305.218
 11
89.8767
 21
305.202
  0
LINE
  8
0
 10
89.8767
 20
305.202
 11
89.8452
 21
305.187
  0
LINE
  8
0
 10
89.8452
 20
305.187
 11
89.8135
 21
305.173
  0
LINE
  8
0
 10
89.8135
 20
305.173
 11
89.7815
 21
305.159
  0
LINE
  8
0
 10
89.7815
 20
305.159
 11
89.7492
 21
305.146
  0
LINE
  8
0
 10
89.7492
 20
305.146
 11
89.7167
 21
305.133
  0
LINE
  8
0
 10
89.7167
 20
305.133
 11
89.684
 21
305.121
  0
LINE
  8
0
 10
89.684
 20
305.121
 11
89.6511
 21
305.109
  0
LINE
  8
0
 10
89.6511
 20
305.109
 11
89.618
 21
305.098
  0
LINE
  8
0
 10
89.618
 20
305.098
 11
89.5847
 21
305.087
  0
LINE
  8
0
 10
89.5847
 20
305.087
 11
89.5513
 21
305.077
  0
LINE
  8
0
 10
89.5513
 20
305.077
 11
89.5176
 21
305.068
  0
LINE
  8
0
 10
89.5176
 20
305.068
 11
89.4838
 21
305.059
  0
LINE
  8
0
 10
89.4838
 20
305.059
 11
89.4499
 21
305.051
  0
LINE
  8
0
 10
89.4499
 20
305.051
 11
89.4158
 21
305.044
  0
LINE
  8
0
 10
89.4158
 20
305.044
 11
89.3816
 21
305.037
  0
LINE
  8
0
 10
89.3816
 20
305.037
 11
89.3473
 21
305.03
  0
LINE
  8
0
 10
89.3473
 20
305.03
 11
89.3129
 21
305.025
  0
LINE
  8
0
 10
89.3129
 20
305.025
 11
89.2783
 21
305.019
  0
LINE
  8
0
 10
89.2783
 20
305.019
 11
89.2437
 21
305.015
  0
LINE
  8
0
 10
89.2437
 20
305.015
 11
89.2091
 21
305.011
  0
LINE
  8
0
 10
89.2091
 20
305.011
 11
89.1743
 21
305.008
  0
LINE
  8
0
 10
89.1743
 20
305.008
 11
89.1395
 21
305.005
  0
LINE
  8
0
 10
89.1395
 20
305.005
 11
89.1047
 21
305.003
  0
LINE
  8
0
 10
89.1047
 20
305.003
 11
89.0698
 21
305.001
  0
LINE
  8
0
 10
89.0698
 20
305.001
 11
89.0349
 21
305
  0
LINE
  8
0
 10
89.0349
 20
305
 11
89
 21
305
  0
LINE
  8
0
 10
89
 20
305
 11
88.9651
 21
305
  0
LINE
  8
0
 10
150.965
 20
305
 11
150.93
 21
305.001
  0
LINE
  8
0
 10
150.93
 20
305.001
 11
150.895
 21
305.003
  0
LINE
  8
0
 10
150.895
 20
305.003
 11
150.86
 21
305.005
  0
LINE
  8
0
 10
150.86
 20
305.005
 11
150.826
 21
305.008
  0
LINE
  8
0
 10
150.826
 20
305.008
 11
150.791
 21
305.011
  0
LINE
  8
0
 10
150.791
 20
305.011
 11
150.756
 21
305.015
  0
LINE
  8
0
 10
150.756
 20
305.015
 11
150.722
 21
305.019
  0
LINE
  8
0
 10
150.722
 20
305.019
 11
150.687
 21
305.025
  0
LINE
  8
0
 10
150.687
 20
305.025
 11
150.653
 21
305.03
  0
LINE
  8
0
 10
150.653
 20
305.03
 11
150.618
 21
305.037
  0
LINE
  8
0
 10
150.618
 20
305.037
 11
150.584
 21
305.044
  0
LINE
  8
0
 10
150.584
 20
305.044
 11
150.55
 21
305.051
  0
LINE
  8
0
 10
150.55
 20
305.051
 11
150.516
 21
305.059
  0
LINE
  8
0
 10
150.516
 20
305.059
 11
150.482
 21
305.068
  0
LINE
  8
0
 10
150.482
 20
305.068
 11
150.449
 21
305.077
  0
LINE
  8
0
 10
150.449
 20
305.077
 11
150.415
 21
305.087
  0
LINE
  8
0
 10
150.415
 20
305.087
 11
150.382
 21
305.098
  0
LINE
  8
0
 10
150.382
 20
305.098
 11
150.349
 21
305.109
  0
LINE
  8
0
 10
150.349
 20
305.109
 11
150.316
 21
305.121
  0
LINE
  8
0
 10
150.316
 20
305.121
 11
150.283
 21
305.133
  0
LINE
  8
0
 10
150.283
 20
305.133
 11
150.251
 21
305.146
  0
LINE
  8
0
 10
150.251
 20
305.146
 11
150.219
 21
305.159
  0
LINE
  8
0
 10
150.219
 20
305.159
 11
150.187
 21
305.173
  0
LINE
  8
0
 10
150.187
 20
305.173
 11
150.155
 21
305.187
  0
LINE
  8
0
 10
150.155
 20
305.187
 11
150.123
 21
305.202
  0
LINE
  8
0
 10
150.123
 20
305.202
 11
150.092
 21
305.218
  0
LINE
  8
0
 10
150.092
 20
305.218
 11
150.061
 21
305.234
  0
LINE
  8
0
 10
150.061
 20
305.234
 11
150.03
 21
305.251
  0
LINE
  8
0
 10
150.03
 20
305.251
 11
150
 21
305.268
  0
LINE
  8
0
 10
150
 20
305.268
 11
149.97
 21
305.286
  0
LINE
  8
0
 10
149.97
 20
305.286
 11
149.94
 21
305.304
  0
LINE
  8
0
 10
149.94
 20
305.304
 11
149.911
 21
305.323
  0
LINE
  8
0
 10
149.911
 20
305.323
 11
149.882
 21
305.342
  0
LINE
  8
0
 10
149.882
 20
305.342
 11
149.853
 21
305.362
  0
LINE
  8
0
 10
149.853
 20
305.362
 11
149.824
 21
305.382
  0
LINE
  8
0
 10
149.824
 20
305.382
 11
149.796
 21
305.403
  0
LINE
  8
0
 10
149.796
 20
305.403
 11
149.769
 21
305.424
  0
LINE
  8
0
 10
149.769
 20
305.424
 11
149.741
 21
305.446
  0
LINE
  8
0
 10
149.741
 20
305.446
 11
149.714
 21
305.468
  0
LINE
  8
0
 10
149.714
 20
305.468
 11
149.688
 21
305.491
  0
LINE
  8
0
 10
149.688
 20
305.491
 11
149.662
 21
305.514
  0
LINE
  8
0
 10
149.662
 20
305.514
 11
149.636
 21
305.537
  0
LINE
  8
0
 10
149.636
 20
305.537
 11
149.611
 21
305.561
  0
LINE
  8
0
 10
149.611
 20
305.561
 11
149.586
 21
305.586
  0
LINE
  8
0
 10
149.586
 20
305.586
 11
149.561
 21
305.611
  0
LINE
  8
0
 10
149.561
 20
305.611
 11
149.537
 21
305.636
  0
LINE
  8
0
 10
149.537
 20
305.636
 11
149.514
 21
305.662
  0
LINE
  8
0
 10
149.514
 20
305.662
 11
149.491
 21
305.688
  0
LINE
  8
0
 10
149.491
 20
305.688
 11
149.468
 21
305.714
  0
LINE
  8
0
 10
149.468
 20
305.714
 11
149.446
 21
305.741
  0
LINE
  8
0
 10
149.446
 20
305.741
 11
149.424
 21
305.769
  0
LINE
  8
0
 10
149.424
 20
305.769
 11
149.403
 21
305.796
  0
LINE
  8
0
 10
149.403
 20
305.796
 11
149.382
 21
305.824
  0
LINE
  8
0
 10
149.382
 20
305.824
 11
149.362
 21
305.853
  0
LINE
  8
0
 10
149.362
 20
305.853
 11
149.342
 21
305.882
  0
LINE
  8
0
 10
149.342
 20
305.882
 11
149.323
 21
305.911
  0
LINE
  8
0
 10
149.323
 20
305.911
 11
149.304
 21
305.94
  0
LINE
  8
0
 10
149.304
 20
305.94
 11
149.286
 21
305.97
  0
LINE
  8
0
 10
149.286
 20
305.97
 11
149.268
 21
306
  0
LINE
  8
0
 10
149.268
 20
306
 11
149.251
 21
306.03
  0
LINE
  8
0
 10
149.251
 20
306.03
 11
149.234
 21
306.061
  0
LINE
  8
0
 10
149.234
 20
306.061
 11
149.218
 21
306.092
  0
LINE
  8
0
 10
149.218
 20
306.092
 11
149.202
 21
306.123
  0
LINE
  8
0
 10
149.202
 20
306.123
 11
149.187
 21
306.155
  0
LINE
  8
0
 10
149.187
 20
306.155
 11
149.173
 21
306.187
  0
LINE
  8
0
 10
149.173
 20
306.187
 11
149.159
 21
306.219
  0
LINE
  8
0
 10
149.159
 20
306.219
 11
149.146
 21
306.251
  0
LINE
  8
0
 10
149.146
 20
306.251
 11
149.133
 21
306.283
  0
LINE
  8
0
 10
149.133
 20
306.283
 11
149.121
 21
306.316
  0
LINE
  8
0
 10
149.121
 20
306.316
 11
149.109
 21
306.349
  0
LINE
  8
0
 10
149.109
 20
306.349
 11
149.098
 21
306.382
  0
LINE
  8
0
 10
149.098
 20
306.382
 11
149.087
 21
306.415
  0
LINE
  8
0
 10
149.087
 20
306.415
 11
149.077
 21
306.449
  0
LINE
  8
0
 10
149.077
 20
306.449
 11
149.068
 21
306.482
  0
LINE
  8
0
 10
149.068
 20
306.482
 11
149.059
 21
306.516
  0
LINE
  8
0
 10
149.059
 20
306.516
 11
149.051
 21
306.55
  0
LINE
  8
0
 10
149.051
 20
306.55
 11
149.044
 21
306.584
  0
LINE
  8
0
 10
149.044
 20
306.584
 11
149.037
 21
306.618
  0
LINE
  8
0
 10
149.037
 20
306.618
 11
149.03
 21
306.653
  0
LINE
  8
0
 10
149.03
 20
306.653
 11
149.025
 21
306.687
  0
LINE
  8
0
 10
149.025
 20
306.687
 11
149.019
 21
306.722
  0
LINE
  8
0
 10
149.019
 20
306.722
 11
149.015
 21
306.756
  0
LINE
  8
0
 10
149.015
 20
306.756
 11
149.011
 21
306.791
  0
LINE
  8
0
 10
149.011
 20
306.791
 11
149.008
 21
306.826
  0
LINE
  8
0
 10
149.008
 20
306.826
 11
149.005
 21
306.86
  0
LINE
  8
0
 10
149.005
 20
306.86
 11
149.003
 21
306.895
  0
LINE
  8
0
 10
149.003
 20
306.895
 11
149.001
 21
306.93
  0
LINE
  8
0
 10
149.001
 20
306.93
 11
149
 21
306.965
  0
LINE
  8
0
 10
149
 20
306.965
 11
149
 21
307
  0
LINE
  8
0
 10
149
 20
307
 11
149
 21
307.035
  0
LINE
  8
0
 10
149
 20
307.035
 11
149.001
 21
307.07
  0
LINE
  8
0
 10
149.001
 20
307.07
 11
149.003
 21
307.105
  0
LINE
  8
0
 10
149.003
 20
307.105
 11
149.005
 21
307.14
  0
LINE
  8
0
 10
149.005
 20
307.14
 11
149.008
 21
307.174
  0
LINE
  8
0
 10
149.008
 20
307.174
 11
149.011
 21
307.209
  0
LINE
  8
0
 10
149.011
 20
307.209
 11
149.015
 21
307.244
  0
LINE
  8
0
 10
149.015
 20
307.244
 11
149.019
 21
307.278
  0
LINE
  8
0
 10
149.019
 20
307.278
 11
149.025
 21
307.313
  0
LINE
  8
0
 10
149.025
 20
307.313
 11
149.03
 21
307.347
  0
LINE
  8
0
 10
149.03
 20
307.347
 11
149.037
 21
307.382
  0
LINE
  8
0
 10
149.037
 20
307.382
 11
149.044
 21
307.416
  0
LINE
  8
0
 10
149.044
 20
307.416
 11
149.051
 21
307.45
  0
LINE
  8
0
 10
149.051
 20
307.45
 11
149.059
 21
307.484
  0
LINE
  8
0
 10
149.059
 20
307.484
 11
149.068
 21
307.518
  0
LINE
  8
0
 10
149.068
 20
307.518
 11
149.077
 21
307.551
  0
LINE
  8
0
 10
149.077
 20
307.551
 11
149.087
 21
307.585
  0
LINE
  8
0
 10
149.087
 20
307.585
 11
149.098
 21
307.618
  0
LINE
  8
0
 10
149.098
 20
307.618
 11
149.109
 21
307.651
  0
LINE
  8
0
 10
149.109
 20
307.651
 11
149.121
 21
307.684
  0
LINE
  8
0
 10
149.121
 20
307.684
 11
149.133
 21
307.717
  0
LINE
  8
0
 10
149.133
 20
307.717
 11
149.146
 21
307.749
  0
LINE
  8
0
 10
149.146
 20
307.749
 11
149.159
 21
307.781
  0
LINE
  8
0
 10
149.159
 20
307.781
 11
149.173
 21
307.813
  0
LINE
  8
0
 10
149.173
 20
307.813
 11
149.187
 21
307.845
  0
LINE
  8
0
 10
149.187
 20
307.845
 11
149.202
 21
307.877
  0
LINE
  8
0
 10
149.202
 20
307.877
 11
149.218
 21
307.908
  0
LINE
  8
0
 10
149.218
 20
307.908
 11
149.234
 21
307.939
  0
LINE
  8
0
 10
149.234
 20
307.939
 11
149.251
 21
307.97
  0
LINE
  8
0
 10
149.251
 20
307.97
 11
149.268
 21
308
  0
LINE
  8
0
 10
149.268
 20
308
 11
149.286
 21
308.03
  0
LINE
  8
0
 10
149.286
 20
308.03
 11
149.304
 21
308.06
  0
LINE
  8
0
 10
149.304
 20
308.06
 11
149.323
 21
308.089
  0
LINE
  8
0
 10
149.323
 20
308.089
 11
149.342
 21
308.118
  0
LINE
  8
0
 10
149.342
 20
308.118
 11
149.362
 21
308.147
  0
LINE
  8
0
 10
149.362
 20
308.147
 11
149.382
 21
308.176
  0
LINE
  8
0
 10
149.382
 20
308.176
 11
149.403
 21
308.204
  0
LINE
  8
0
 10
149.403
 20
308.204
 11
149.424
 21
308.231
  0
LINE
  8
0
 10
149.424
 20
308.231
 11
149.446
 21
308.259
  0
LINE
  8
0
 10
149.446
 20
308.259
 11
149.468
 21
308.286
  0
LINE
  8
0
 10
149.468
 20
308.286
 11
149.491
 21
308.312
  0
LINE
  8
0
 10
149.491
 20
308.312
 11
149.514
 21
308.338
  0
LINE
  8
0
 10
149.514
 20
308.338
 11
149.537
 21
308.364
  0
LINE
  8
0
 10
149.537
 20
308.364
 11
149.561
 21
308.389
  0
LINE
  8
0
 10
149.561
 20
308.389
 11
149.586
 21
308.414
  0
LINE
  8
0
 10
149.586
 20
308.414
 11
149.611
 21
308.439
  0
LINE
  8
0
 10
149.611
 20
308.439
 11
149.636
 21
308.463
  0
LINE
  8
0
 10
149.636
 20
308.463
 11
149.662
 21
308.486
  0
LINE
  8
0
 10
149.662
 20
308.486
 11
149.688
 21
308.509
  0
LINE
  8
0
 10
149.688
 20
308.509
 11
149.714
 21
308.532
  0
LINE
  8
0
 10
149.714
 20
308.532
 11
149.741
 21
308.554
  0
LINE
  8
0
 10
149.741
 20
308.554
 11
149.769
 21
308.576
  0
LINE
  8
0
 10
149.769
 20
308.576
 11
149.796
 21
308.597
  0
LINE
  8
0
 10
149.796
 20
308.597
 11
149.824
 21
308.618
  0
LINE
  8
0
 10
149.824
 20
308.618
 11
149.853
 21
308.638
  0
LINE
  8
0
 10
149.853
 20
308.638
 11
149.882
 21
308.658
  0
LINE
  8
0
 10
149.882
 20
308.658
 11
149.911
 21
308.677
  0
LINE
  8
0
 10
149.911
 20
308.677
 11
149.94
 21
308.696
  0
LINE
  8
0
 10
149.94
 20
308.696
 11
149.97
 21
308.714
  0
LINE
  8
0
 10
149.97
 20
308.714
 11
150
 21
308.732
  0
LINE
  8
0
 10
150
 20
308.732
 11
150.03
 21
308.749
  0
LINE
  8
0
 10
150.03
 20
308.749
 11
150.061
 21
308.766
  0
LINE
  8
0
 10
150.061
 20
308.766
 11
150.092
 21
308.782
  0
LINE
  8
0
 10
150.092
 20
308.782
 11
150.123
 21
308.798
  0
LINE
  8
0
 10
150.123
 20
308.798
 11
150.155
 21
308.813
  0
LINE
  8
0
 10
150.155
 20
308.813
 11
150.187
 21
308.827
  0
LINE
  8
0
 10
150.187
 20
308.827
 11
150.219
 21
308.841
  0
LINE
  8
0
 10
150.219
 20
308.841
 11
150.251
 21
308.854
  0
LINE
  8
0
 10
150.251
 20
308.854
 11
150.283
 21
308.867
  0
LINE
  8
0
 10
150.283
 20
308.867
 11
150.316
 21
308.879
  0
LINE
  8
0
 10
150.316
 20
308.879
 11
150.349
 21
308.891
  0
LINE
  8
0
 10
150.349
 20
308.891
 11
150.382
 21
308.902
  0
LINE
  8
0
 10
150.382
 20
308.902
 11
150.415
 21
308.913
  0
LINE
  8
0
 10
150.415
 20
308.913
 11
150.449
 21
308.923
  0
LINE
  8
0
 10
150.449
 20
308.923
 11
150.482
 21
308.932
  0
LINE
  8
0
 10
150.482
 20
308.932
 11
150.516
 21
308.941
  0
LINE
  8
0
 10
150.516
 20
308.941
 11
150.55
 21
308.949
  0
LINE
  8
0
 10
150.55
 20
308.949
 11
150.584
 21
308.956
  0
LINE
  8
0
 10
150.584
 20
308.956
 11
150.618
 21
308.963
  0
LINE
  8
0
 10
150.618
 20
308.963
 11
150.653
 21
308.97
  0
LINE
  8
0
 10
150.653
 20
308.97
 11
150.687
 21
308.975
  0
LINE
  8
0
 10
150.687
 20
308.975
 11
150.722
 21
308.981
  0
LINE
  8
0
 10
150.722
 20
308.981
 11
150.756
 21
308.985
  0
LINE
  8
0
 10
150.756
 20
308.985
 11
150.791
 21
308.989
  0
LINE
  8
0
 10
150.791
 20
308.989
 11
150.826
 21
308.992
  0
LINE
  8
0
 10
150.826
 20
308.992
 11
150.86
 21
308.995
  0
LINE
  8
0
 10
150.86
 20
308.995
 11
150.895
 21
308.997
  0
LINE
  8
0
 10
150.895
 20
308.997
 11
150.93
 21
308.999
  0
LINE
  8
0
 10
150.93
 20
308.999
 11
150.965
 21
309
  0
LINE
  8
0
 10
150.965
 20
309
 11
151
 21
309
  0
LINE
  8
0
 10
151
 20
309
 11
151.035
 21
309
  0
LINE
  8
0
 10
151.035
 20
309
 11
151.07
 21
308.999
  0
LINE
  8
0
 10
151.07
 20
308.999
 11
151.105
 21
308.997
  0
LINE
  8
0
 10
151.105
 20
308.997
 11
151.14
 21
308.995
  0
LINE
  8
0
 10
151.14
 20
308.995
 11
151.174
 21
308.992
  0
LINE
  8
0
 10
151.174
 20
308.992
 11
151.209
 21
308.989
  0
LINE
  8
0
 10
151.209
 20
308.989
 11
151.244
 21
308.985
  0
LINE
  8
0
 10
151.244
 20
308.985
 11
151.278
 21
308.981
  0
LINE
  8
0
 10
151.278
 20
308.981
 11
151.313
 21
308.975
  0
LINE
  8
0
 10
151.313
 20
308.975
 11
151.347
 21
308.97
  0
LINE
  8
0
 10
151.347
 20
308.97
 11
151.382
 21
308.963
  0
LINE
  8
0
 10
151.382
 20
308.963
 11
151.416
 21
308.956
  0
LINE
  8
0
 10
151.416
 20
308.956
 11
151.45
 21
308.949
  0
LINE
  8
0
 10
151.45
 20
308.949
 11
151.484
 21
308.941
  0
LINE
  8
0
 10
151.484
 20
308.941
 11
151.518
 21
308.932
  0
LINE
  8
0
 10
151.518
 20
308.932
 11
151.551
 21
308.923
  0
LINE
  8
0
 10
151.551
 20
308.923
 11
151.585
 21
308.913
  0
LINE
  8
0
 10
151.585
 20
308.913
 11
151.618
 21
308.902
  0
LINE
  8
0
 10
151.618
 20
308.902
 11
151.651
 21
308.891
  0
LINE
  8
0
 10
151.651
 20
308.891
 11
151.684
 21
308.879
  0
LINE
  8
0
 10
151.684
 20
308.879
 11
151.717
 21
308.867
  0
LINE
  8
0
 10
151.717
 20
308.867
 11
151.749
 21
308.854
  0
LINE
  8
0
 10
151.749
 20
308.854
 11
151.781
 21
308.841
  0
LINE
  8
0
 10
151.781
 20
308.841
 11
151.813
 21
308.827
  0
LINE
  8
0
 10
151.813
 20
308.827
 11
151.845
 21
308.813
  0
LINE
  8
0
 10
151.845
 20
308.813
 11
151.877
 21
308.798
  0
LINE
  8
0
 10
151.877
 20
308.798
 11
151.908
 21
308.782
  0
LINE
  8
0
 10
151.908
 20
308.782
 11
151.939
 21
308.766
  0
LINE
  8
0
 10
151.939
 20
308.766
 11
151.97
 21
308.749
  0
LINE
  8
0
 10
151.97
 20
308.749
 11
152
 21
308.732
  0
LINE
  8
0
 10
152
 20
308.732
 11
152.03
 21
308.714
  0
LINE
  8
0
 10
152.03
 20
308.714
 11
152.06
 21
308.696
  0
LINE
  8
0
 10
152.06
 20
308.696
 11
152.089
 21
308.677
  0
LINE
  8
0
 10
152.089
 20
308.677
 11
152.118
 21
308.658
  0
LINE
  8
0
 10
152.118
 20
308.658
 11
152.147
 21
308.638
  0
LINE
  8
0
 10
152.147
 20
308.638
 11
152.176
 21
308.618
  0
LINE
  8
0
 10
152.176
 20
308.618
 11
152.204
 21
308.597
  0
LINE
  8
0
 10
152.204
 20
308.597
 11
152.231
 21
308.576
  0
LINE
  8
0
 10
152.231
 20
308.576
 11
152.259
 21
308.554
  0
LINE
  8
0
 10
152.259
 20
308.554
 11
152.286
 21
308.532
  0
LINE
  8
0
 10
152.286
 20
308.532
 11
152.312
 21
308.509
  0
LINE
  8
0
 10
152.312
 20
308.509
 11
152.338
 21
308.486
  0
LINE
  8
0
 10
152.338
 20
308.486
 11
152.364
 21
308.463
  0
LINE
  8
0
 10
152.364
 20
308.463
 11
152.389
 21
308.439
  0
LINE
  8
0
 10
152.389
 20
308.439
 11
152.414
 21
308.414
  0
LINE
  8
0
 10
152.414
 20
308.414
 11
152.439
 21
308.389
  0
LINE
  8
0
 10
152.439
 20
308.389
 11
152.463
 21
308.364
  0
LINE
  8
0
 10
152.463
 20
308.364
 11
152.486
 21
308.338
  0
LINE
  8
0
 10
152.486
 20
308.338
 11
152.509
 21
308.312
  0
LINE
  8
0
 10
152.509
 20
308.312
 11
152.532
 21
308.286
  0
LINE
  8
0
 10
152.532
 20
308.286
 11
152.554
 21
308.259
  0
LINE
  8
0
 10
152.554
 20
308.259
 11
152.576
 21
308.231
  0
LINE
  8
0
 10
152.576
 20
308.231
 11
152.597
 21
308.204
  0
LINE
  8
0
 10
152.597
 20
308.204
 11
152.618
 21
308.176
  0
LINE
  8
0
 10
152.618
 20
308.176
 11
152.638
 21
308.147
  0
LINE
  8
0
 10
152.638
 20
308.147
 11
152.658
 21
308.118
  0
LINE
  8
0
 10
152.658
 20
308.118
 11
152.677
 21
308.089
  0
LINE
  8
0
 10
152.677
 20
308.089
 11
152.696
 21
308.06
  0
LINE
  8
0
 10
152.696
 20
308.06
 11
152.714
 21
308.03
  0
LINE
  8
0
 10
152.714
 20
308.03
 11
152.732
 21
308
  0
LINE
  8
0
 10
152.732
 20
308
 11
152.749
 21
307.97
  0
LINE
  8
0
 10
152.749
 20
307.97
 11
152.766
 21
307.939
  0
LINE
  8
0
 10
152.766
 20
307.939
 11
152.782
 21
307.908
  0
LINE
  8
0
 10
152.782
 20
307.908
 11
152.798
 21
307.877
  0
LINE
  8
0
 10
152.798
 20
307.877
 11
152.813
 21
307.845
  0
LINE
  8
0
 10
152.813
 20
307.845
 11
152.827
 21
307.813
  0
LINE
  8
0
 10
152.827
 20
307.813
 11
152.841
 21
307.781
  0
LINE
  8
0
 10
152.841
 20
307.781
 11
152.854
 21
307.749
  0
LINE
  8
0
 10
152.854
 20
307.749
 11
152.867
 21
307.717
  0
LINE
  8
0
 10
152.867
 20
307.717
 11
152.879
 21
307.684
  0
LINE
  8
0
 10
152.879
 20
307.684
 11
152.891
 21
307.651
  0
LINE
  8
0
 10
152.891
 20
307.651
 11
152.902
 21
307.618
  0
LINE
  8
0
 10
152.902
 20
307.618
 11
152.913
 21
307.585
  0
LINE
  8
0
 10
152.913
 20
307.585
 11
152.923
 21
307.551
  0
LINE
  8
0
 10
152.923
 20
307.551
 11
152.932
 21
307.518
  0
LINE
  8
0
 10
152.932
 20
307.518
 11
152.941
 21
307.484
  0
LINE
  8
0
 10
152.941
 20
307.484
 11
152.949
 21
307.45
  0
LINE
  8
0
 10
152.949
 20
307.45
 11
152.956
 21
307.416
  0
LINE
  8
0
 10
152.956
 20
307.416
 11
152.963
 21
307.382
  0
LINE
  8
0
 10
152.963
 20
307.382
 11
152.97
 21
307.347
  0
LINE
  8
0
 10
152.97
 20
307.347
 11
152.975
 21
307.313
  0
LINE
  8
0
 10
152.975
 20
307.313
 11
152.981
 21
307.278
  0
LINE
  8
0
 10
152.981
 20
307.278
 11
152.985
 21
307.244
  0
LINE
  8
0
 10
152.985
 20
307.244
 11
152.989
 21
307.209
  0
LINE
  8
0
 10
152.989
 20
307.209
 11
152.992
 21
307.174
  0
LINE
  8
0
 10
152.992
 20
307.174
 11
152.995
 21
307.14
  0
LINE
  8
0
 10
152.995
 20
307.14
 11
152.997
 21
307.105
  0
LINE
  8
0
 10
152.997
 20
307.105
 11
152.999
 21
307.07
  0
LINE
  8
0
 10
152.999
 20
307.07
 11
153
 21
307.035
  0
LINE
  8
0
 10
153
 20
307.035
 11
153
 21
307
  0
LINE
  8
0
 10
153
 20
307
 11
153
 21
306.965
  0
LINE
  8
0
 10
153
 20
306.965
 11
152.999
 21
306.93
  0
LINE
  8
0
 10
152.999
 20
306.93
 11
152.997
 21
306.895
  0
LINE
  8
0
 10
152.997
 20
306.895
 11
152.995
 21
306.86
  0
LINE
  8
0
 10
152.995
 20
306.86
 11
152.992
 21
306.826
  0
LINE
  8
0
 10
152.992
 20
306.826
 11
152.989
 21
306.791
  0
LINE
  8
0
 10
152.989
 20
306.791
 11
152.985
 21
306.756
  0
LINE
  8
0
 10
152.985
 20
306.756
 11
152.981
 21
306.722
  0
LINE
  8
0
 10
152.981
 20
306.722
 11
152.975
 21
306.687
  0
LINE
  8
0
 10
152.975
 20
306.687
 11
152.97
 21
306.653
  0
LINE
  8
0
 10
152.97
 20
306.653
 11
152.963
 21
306.618
  0
LINE
  8
0
 10
152.963
 20
306.618
 11
152.956
 21
306.584
  0
LINE
  8
0
 10
152.956
 20
306.584
 11
152.949
 21
306.55
  0
LINE
  8
0
 10
152.949
 20
306.55
 11
152.941
 21
306.516
  0
LINE
  8
0
 10
152.941
 20
306.516
 11
152.932
 21
306.482
  0
LINE
  8
0
 10
152.932
 20
306.482
 11
152.923
 21
306.449
  0
LINE
  8
0
 10
152.923
 20
306.449
 11
152.913
 21
306.415
  0
LINE
  8
0
 10
152.913
 20
306.415
 11
152.902
 21
306.382
  0
LINE
  8
0
 10
152.902
 20
306.382
 11
152.891
 21
306.349
  0
LINE
  8
0
 10
152.891
 20
306.349
 11
152.879
 21
306.316
  0
LINE
  8
0
 10
152.879
 20
306.316
 11
152.867
 21
306.283
  0
LINE
  8
0
 10
152.867
 20
306.283
 11
152.854
 21
306.251
  0
LINE
  8
0
 10
152.854
 20
306.251
 11
152.841
 21
306.219
  0
LINE
  8
0
 10
152.841
 20
306.219
 11
152.827
 21
306.187
  0
LINE
  8
0
 10
152.827
 20
306.187
 11
152.813
 21
306.155
  0
LINE
  8
0
 10
152.813
 20
306.155
 11
152.798
 21
306.123
  0
LINE
  8
0
 10
152.798
 20
306.123
 11
152.782
 21
306.092
  0
LINE
  8
0
 10
152.782
 20
306.092
 11
152.766
 21
306.061
  0
LINE
  8
0
 10
152.766
 20
306.061
 11
152.749
 21
306.03
  0
LINE
  8
0
 10
152.749
 20
306.03
 11
152.732
 21
306
  0
LINE
  8
0
 10
152.732
 20
306
 11
152.714
 21
305.97
  0
LINE
  8
0
 10
152.714
 20
305.97
 11
152.696
 21
305.94
  0
LINE
  8
0
 10
152.696
 20
305.94
 11
152.677
 21
305.911
  0
LINE
  8
0
 10
152.677
 20
305.911
 11
152.658
 21
305.882
  0
LINE
  8
0
 10
152.658
 20
305.882
 11
152.638
 21
305.853
  0
LINE
  8
0
 10
152.638
 20
305.853
 11
152.618
 21
305.824
  0
LINE
  8
0
 10
152.618
 20
305.824
 11
152.597
 21
305.796
  0
LINE
  8
0
 10
152.597
 20
305.796
 11
152.576
 21
305.769
  0
LINE
  8
0
 10
152.576
 20
305.769
 11
152.554
 21
305.741
  0
LINE
  8
0
 10
152.554
 20
305.741
 11
152.532
 21
305.714
  0
LINE
  8
0
 10
152.532
 20
305.714
 11
152.509
 21
305.688
  0
LINE
  8
0
 10
152.509
 20
305.688
 11
152.486
 21
305.662
  0
LINE
  8
0
 10
152.486
 20
305.662
 11
152.463
 21
305.636
  0
LINE
  8
0
 10
152.463
 20
305.636
 11
152.439
 21
305.611
  0
LINE
  8
0
 10
152.439
 20
305.611
 11
152.414
 21
305.586
  0
LINE
  8
0
 10
152.414
 20
305.586
 11
152.389
 21
305.561
  0
LINE
  8
0
 10
152.389
 20
305.561
 11
152.364
 21
305.537
  0
LINE
  8
0
 10
152.364
 20
305.537
 11
152.338
 21
305.514
  0
LINE
  8
0
 10
152.338
 20
305.514
 11
152.312
 21
305.491
  0
LINE
  8
0
 10
152.312
 20
305.491
 11
152.286
 21
305.468
  0
LINE
  8
0
 10
152.286
 20
305.468
 11
152.259
 21
305.446
  0
LINE
  8
0
 10
152.259
 20
305.446
 11
152.231
 21
305.424
  0
LINE
  8
0
 10
152.231
 20
305.424
 11
152.204
 21
305.403
  0
LINE
  8
0
 10
152.204
 20
305.403
 11
152.176
 21
305.382
  0
LINE
  8
0
 10
152.176
 20
305.382
 11
152.147
 21
305.362
  0
LINE
  8
0
 10
152.147
 20
305.362
 11
152.118
 21
305.342
  0
LINE
  8
0
 10
152.118
 20
305.342
 11
152.089
 21
305.323
  0
LINE
  8
0
 10
152.089
 20
305.323
 11
152.06
 21
305.304
  0
LINE
  8
0
 10
152.06
 20
305.304
 11
152.03
 21
305.286
  0
LINE
  8
0
 10
152.03
 20
305.286
 11
152
 21
305.268
  0
LINE
  8
0
 10
152
 20
305.268
 11
151.97
 21
305.251
  0
LINE
  8
0
 10
151.97
 20
305.251
 11
151.939
 21
305.234
  0
LINE
  8
0
 10
151.939
 20
305.234
 11
151.908
 21
305.218
  0
LINE
  8
0
 10
151.908
 20
305.218
 11
151.877
 21
305.202
  0
LINE
  8
0
 10
151.877
 20
305.202
 11
151.845
 21
305.187
  0
LINE
  8
0
 10
151.845
 20
305.187
 11
151.813
 21
305.173
  0
LINE
  8
0
 10
151.813
 20
305.173
 11
151.781
 21
305.159
  0
LINE
  8
0
 10
151.781
 20
305.159
 11
151.749
 21
305.146
  0
LINE
  8
0
 10
151.749
 20
305.146
 11
151.717
 21
305.133
  0
LINE
  8
0
 10
151.717
 20
305.133
 11
151.684
 21
305.121
  0
LINE
  8
0
 10
151.684
 20
305.121
 11
151.651
 21
305.109
  0
LINE
  8
0
 10
151.651
 20
305.109
 11
151.618
 21
305.098
  0
LINE
  8
0
 10
151.618
 20
305.098
 11
151.585
 21
305.087
  0
LINE
  8
0
 10
151.585
 20
305.087
 11
151.551
 21
305.077
  0
LINE
  8
0
 10
151.551
 20
305.077
 11
151.518
 21
305.068
  0
LINE
  8
0
 10
151.518
 20
305.068
 11
151.484
 21
305.059
  0
LINE
  8
0
 10
151.484
 20
305.059
 11
151.45
 21
305.051
  0
LINE
  8
0
 10
151.45
 20
305.051
 11
151.416
 21
305.044
  0
LINE
  8
0
 10
151.416
 20
305.044
 11
151.382
 21
305.037
  0
LINE
  8
0
 10
151.382
 20
305.037
 11
151.347
 21
305.03
  0
LINE
  8
0
 10
151.347
 20
305.03
 11
151.313
 21
305.025
  0
LINE
  8
0
 10
151.313
 20
305.025
 11
151.278
 21
305.019
  0
LINE
  8
0
 10
151.278
 20
305.019
 11
151.244
 21
305.015
  0
LINE
  8
0
 10
151.244
 20
305.015
 11
151.209
 21
305.011
  0
LINE
  8
0
 10
151.209
 20
305.011
 11
151.174
 21
305.008
  0
LINE
  8
0
 10
151.174
 20
305.008
 11
151.14
 21
305.005
  0
LINE
  8
0
 10
151.14
 20
305.005
 11
151.105
 21
305.003
  0
LINE
  8
0
 10
151.105
 20
305.003
 11
151.07
 21
305.001
  0
LINE
  8
0
 10
151.07
 20
305.001
 11
151.035
 21
305
  0
LINE
  8
0
 10
151.035
 20
305
 11
151
 21
305
  0
LINE
  8
0
 10
151
 20
305
 11
150.965
 21
305
  0
LINE
  8
0
 10
150.965
 20
169
 11
150.93
 21
169.001
  0
LINE
  8
0
 10
150.93
 20
169.001
 11
150.895
 21
169.003
  0
LINE
  8
0
 10
150.895
 20
169.003
 11
150.86
 21
169.005
  0
LINE
  8
0
 10
150.86
 20
169.005
 11
150.826
 21
169.008
  0
LINE
  8
0
 10
150.826
 20
169.008
 11
150.791
 21
169.011
  0
LINE
  8
0
 10
150.791
 20
169.011
 11
150.756
 21
169.015
  0
LINE
  8
0
 10
150.756
 20
169.015
 11
150.722
 21
169.019
  0
LINE
  8
0
 10
150.722
 20
169.019
 11
150.687
 21
169.025
  0
LINE
  8
0
 10
150.687
 20
169.025
 11
150.653
 21
169.03
  0
LINE
  8
0
 10
150.653
 20
169.03
 11
150.618
 21
169.037
  0
LINE
  8
0
 10
150.618
 20
169.037
 11
150.584
 21
169.044
  0
LINE
  8
0
 10
150.584
 20
169.044
 11
150.55
 21
169.051
  0
LINE
  8
0
 10
150.55
 20
169.051
 11
150.516
 21
169.059
  0
LINE
  8
0
 10
150.516
 20
169.059
 11
150.482
 21
169.068
  0
LINE
  8
0
 10
150.482
 20
169.068
 11
150.449
 21
169.077
  0
LINE
  8
0
 10
150.449
 20
169.077
 11
150.415
 21
169.087
  0
LINE
  8
0
 10
150.415
 20
169.087
 11
150.382
 21
169.098
  0
LINE
  8
0
 10
150.382
 20
169.098
 11
150.349
 21
169.109
  0
LINE
  8
0
 10
150.349
 20
169.109
 11
150.316
 21
169.121
  0
LINE
  8
0
 10
150.316
 20
169.121
 11
150.283
 21
169.133
  0
LINE
  8
0
 10
150.283
 20
169.133
 11
150.251
 21
169.146
  0
LINE
  8
0
 10
150.251
 20
169.146
 11
150.219
 21
169.159
  0
LINE
  8
0
 10
150.219
 20
169.159
 11
150.187
 21
169.173
  0
LINE
  8
0
 10
150.187
 20
169.173
 11
150.155
 21
169.187
  0
LINE
  8
0
 10
150.155
 20
169.187
 11
150.123
 21
169.202
  0
LINE
  8
0
 10
150.123
 20
169.202
 11
150.092
 21
169.218
  0
LINE
  8
0
 10
150.092
 20
169.218
 11
150.061
 21
169.234
  0
LINE
  8
0
 10
150.061
 20
169.234
 11
150.03
 21
169.251
  0
LINE
  8
0
 10
150.03
 20
169.251
 11
150
 21
169.268
  0
LINE
  8
0
 10
150
 20
169.268
 11
149.97
 21
169.286
  0
LINE
  8
0
 10
149.97
 20
169.286
 11
149.94
 21
169.304
  0
LINE
  8
0
 10
149.94
 20
169.304
 11
149.911
 21
169.323
  0
LINE
  8
0
 10
149.911
 20
169.323
 11
149.882
 21
169.342
  0
LINE
  8
0
 10
149.882
 20
169.342
 11
149.853
 21
169.362
  0
LINE
  8
0
 10
149.853
 20
169.362
 11
149.824
 21
169.382
  0
LINE
  8
0
 10
149.824
 20
169.382
 11
149.796
 21
169.403
  0
LINE
  8
0
 10
149.796
 20
169.403
 11
149.769
 21
169.424
  0
LINE
  8
0
 10
149.769
 20
169.424
 11
149.741
 21
169.446
  0
LINE
  8
0
 10
149.741
 20
169.446
 11
149.714
 21
169.468
  0
LINE
  8
0
 10
149.714
 20
169.468
 11
149.688
 21
169.491
  0
LINE
  8
0
 10
149.688
 20
169.491
 11
149.662
 21
169.514
  0
LINE
  8
0
 10
149.662
 20
169.514
 11
149.636
 21
169.537
  0
LINE
  8
0
 10
149.636
 20
169.537
 11
149.611
 21
169.561
  0
LINE
  8
0
 10
149.611
 20
169.561
 11
149.586
 21
169.586
  0
LINE
  8
0
 10
149.586
 20
169.586
 11
149.561
 21
169.611
  0
LINE
  8
0
 10
149.561
 20
169.611
 11
149.537
 21
169.636
  0
LINE
  8
0
 10
149.537
 20
169.636
 11
149.514
 21
169.662
  0
LINE
  8
0
 10
149.514
 20
169.662
 11
149.491
 21
169.688
  0
LINE
  8
0
 10
149.491
 20
169.688
 11
149.468
 21
169.714
  0
LINE
  8
0
 10
149.468
 20
169.714
 11
149.446
 21
169.741
  0
LINE
  8
0
 10
149.446
 20
169.741
 11
149.424
 21
169.769
  0
LINE
  8
0
 10
149.424
 20
169.769
 11
149.403
 21
169.796
  0
LINE
  8
0
 10
149.403
 20
169.796
 11
149.382
 21
169.824
  0
LINE
  8
0
 10
149.382
 20
169.824
 11
149.362
 21
169.853
  0
LINE
  8
0
 10
149.362
 20
169.853
 11
149.342
 21
169.882
  0
LINE
  8
0
 10
149.342
 20
169.882
 11
149.323
 21
169.911
  0
LINE
  8
0
 10
149.323
 20
169.911
 11
149.304
 21
169.94
  0
LINE
  8
0
 10
149.304
 20
169.94
 11
149.286
 21
169.97
  0
LINE
  8
0
 10
149.286
 20
169.97
 11
149.268
 21
170
  0
LINE
  8
0
 10
149.268
 20
170
 11
149.251
 21
170.03
  0
LINE
  8
0
 10
149.251
 20
170.03
 11
149.234
 21
170.061
  0
LINE
  8
0
 10
149.234
 20
170.061
 11
149.218
 21
170.092
  0
LINE
  8
0
 10
149.218
 20
170.092
 11
149.202
 21
170.123
  0
LINE
  8
0
 10
149.202
 20
170.123
 11
149.187
 21
170.155
  0
LINE
  8
0
 10
149.187
 20
170.155
 11
149.173
 21
170.187
  0
LINE
  8
0
 10
149.173
 20
170.187
 11
149.159
 21
170.219
  0
LINE
  8
0
 10
149.159
 20
170.219
 11
149.146
 21
170.251
  0
LINE
  8
0
 10
149.146
 20
170.251
 11
149.133
 21
170.283
  0
LINE
  8
0
 10
149.133
 20
170.283
 11
149.121
 21
170.316
  0
LINE
  8
0
 10
149.121
 20
170.316
 11
149.109
 21
170.349
  0
LINE
  8
0
 10
149.109
 20
170.349
 11
149.098
 21
170.382
  0
LINE
  8
0
 10
149.098
 20
170.382
 11
149.087
 21
170.415
  0
LINE
  8
0
 10
149.087
 20
170.415
 11
149.077
 21
170.449
  0
LINE
  8
0
 10
149.077
 20
170.449
 11
149.068
 21
170.482
  0
LINE
  8
0
 10
149.068
 20
170.482
 11
149.059
 21
170.516
  0
LINE
  8
0
 10
149.059
 20
170.516
 11
149.051
 21
170.55
  0
LINE
  8
0
 10
149.051
 20
170.55
 11
149.044
 21
170.584
  0
LINE
  8
0
 10
149.044
 20
170.584
 11
149.037
 21
170.618
  0
LINE
  8
0
 10
149.037
 20
170.618
 11
149.03
 21
170.653
  0
LINE
  8
0
 10
149.03
 20
170.653
 11
149.025
 21
170.687
  0
LINE
  8
0
 10
149.025
 20
170.687
 11
149.019
 21
170.722
  0
LINE
  8
0
 10
149.019
 20
170.722
 11
149.015
 21
170.756
  0
LINE
  8
0
 10
149.015
 20
170.756
 11
149.011
 21
170.791
  0
LINE
  8
0
 10
149.011
 20
170.791
 11
149.008
 21
170.826
  0
LINE
  8
0
 10
149.008
 20
170.826
 11
149.005
 21
170.86
  0
LINE
  8
0
 10
149.005
 20
170.86
 11
149.003
 21
170.895
  0
LINE
  8
0
 10
149.003
 20
170.895
 11
149.001
 21
170.93
  0
LINE
  8
0
 10
149.001
 20
170.93
 11
149
 21
170.965
  0
LINE
  8
0
 10
149
 20
170.965
 11
149
 21
171
  0
LINE
  8
0
 10
149
 20
171
 11
149
 21
171.035
  0
LINE
  8
0
 10
149
 20
171.035
 11
149.001
 21
171.07
  0
LINE
  8
0
 10
149.001
 20
171.07
 11
149.003
 21
171.105
  0
LINE
  8
0
 10
149.003
 20
171.105
 11
149.005
 21
171.14
  0
LINE
  8
0
 10
149.005
 20
171.14
 11
149.008
 21
171.174
  0
LINE
  8
0
 10
149.008
 20
171.174
 11
149.011
 21
171.209
  0
LINE
  8
0
 10
149.011
 20
171.209
 11
149.015
 21
171.244
  0
LINE
  8
0
 10
149.015
 20
171.244
 11
149.019
 21
171.278
  0
LINE
  8
0
 10
149.019
 20
171.278
 11
149.025
 21
171.313
  0
LINE
  8
0
 10
149.025
 20
171.313
 11
149.03
 21
171.347
  0
LINE
  8
0
 10
149.03
 20
171.347
 11
149.037
 21
171.382
  0
LINE
  8
0
 10
149.037
 20
171.382
 11
149.044
 21
171.416
  0
LINE
  8
0
 10
149.044
 20
171.416
 11
149.051
 21
171.45
  0
LINE
  8
0
 10
149.051
 20
171.45
 11
149.059
 21
171.484
  0
LINE
  8
0
 10
149.059
 20
171.484
 11
149.068
 21
171.518
  0
LINE
  8
0
 10
149.068
 20
171.518
 11
149.077
 21
171.551
  0
LINE
  8
0
 10
149.077
 20
171.551
 11
149.087
 21
171.585
  0
LINE
  8
0
 10
149.087
 20
171.585
 11
149.098
 21
171.618
  0
LINE
  8
0
 10
149.098
 20
171.618
 11
149.109
 21
171.651
  0
LINE
  8
0
 10
149.109
 20
171.651
 11
149.121
 21
171.684
  0
LINE
  8
0
 10
149.121
 20
171.684
 11
149.133
 21
171.717
  0
LINE
  8
0
 10
149.133
 20
171.717
 11
149.146
 21
171.749
  0
LINE
  8
0
 10
149.146
 20
171.749
 11
149.159
 21
171.781
  0
LINE
  8
0
 10
149.159
 20
171.781
 11
149.173
 21
171.813
  0
LINE
  8
0
 10
149.173
 20
171.813
 11
149.187
 21
171.845
  0
LINE
  8
0
 10
149.187
 20
171.845
 11
149.202
 21
171.877
  0
LINE
  8
0
 10
149.202
 20
171.877
 11
149.218
 21
171.908
  0
LINE
  8
0
 10
149.218
 20
171.908
 11
149.234
 21
171.939
  0
LINE
  8
0
 10
149.234
 20
171.939
 11
149.251
 21
171.97
  0
LINE
  8
0
 10
149.251
 20
171.97
 11
149.268
 21
172
  0
LINE
  8
0
 10
149.268
 20
172
 11
149.286
 21
172.03
  0
LINE
  8
0
 10
149.286
 20
172.03
 11
149.304
 21
172.06
  0
LINE
  8
0
 10
149.304
 20
172.06
 11
149.323
 21
172.089
  0
LINE
  8
0
 10
149.323
 20
172.089
 11
149.342
 21
172.118
  0
LINE
  8
0
 10
149.342
 20
172.118
 11
149.362
 21
172.147
  0
LINE
  8
0
 10
149.362
 20
172.147
 11
149.382
 21
172.176
  0
LINE
  8
0
 10
149.382
 20
172.176
 11
149.403
 21
172.204
  0
LINE
  8
0
 10
149.403
 20
172.204
 11
149.424
 21
172.231
  0
LINE
  8
0
 10
149.424
 20
172.231
 11
149.446
 21
172.259
  0
LINE
  8
0
 10
149.446
 20
172.259
 11
149.468
 21
172.286
  0
LINE
  8
0
 10
149.468
 20
172.286
 11
149.491
 21
172.312
  0
LINE
  8
0
 10
149.491
 20
172.312
 11
149.514
 21
172.338
  0
LINE
  8
0
 10
149.514
 20
172.338
 11
149.537
 21
172.364
  0
LINE
  8
0
 10
149.537
 20
172.364
 11
149.561
 21
172.389
  0
LINE
  8
0
 10
149.561
 20
172.389
 11
149.586
 21
172.414
  0
LINE
  8
0
 10
149.586
 20
172.414
 11
149.611
 21
172.439
  0
LINE
  8
0
 10
149.611
 20
172.439
 11
149.636
 21
172.463
  0
LINE
  8
0
 10
149.636
 20
172.463
 11
149.662
 21
172.486
  0
LINE
  8
0
 10
149.662
 20
172.486
 11
149.688
 21
172.509
  0
LINE
  8
0
 10
149.688
 20
172.509
 11
149.714
 21
172.532
  0
LINE
  8
0
 10
149.714
 20
172.532
 11
149.741
 21
172.554
  0
LINE
  8
0
 10
149.741
 20
172.554
 11
149.769
 21
172.576
  0
LINE
  8
0
 10
149.769
 20
172.576
 11
149.796
 21
172.597
  0
LINE
  8
0
 10
149.796
 20
172.597
 11
149.824
 21
172.618
  0
LINE
  8
0
 10
149.824
 20
172.618
 11
149.853
 21
172.638
  0
LINE
  8
0
 10
149.853
 20
172.638
 11
149.882
 21
172.658
  0
LINE
  8
0
 10
149.882
 20
172.658
 11
149.911
 21
172.677
  0
LINE
  8
0
 10
149.911
 20
172.677
 11
149.94
 21
172.696
  0
LINE
  8
0
 10
149.94
 20
172.696
 11
149.97
 21
172.714
  0
LINE
  8
0
 10
149.97
 20
172.714
 11
150
 21
172.732
  0
LINE
  8
0
 10
150
 20
172.732
 11
150.03
 21
172.749
  0
LINE
  8
0
 10
150.03
 20
172.749
 11
150.061
 21
172.766
  0
LINE
  8
0
 10
150.061
 20
172.766
 11
150.092
 21
172.782
  0
LINE
  8
0
 10
150.092
 20
172.782
 11
150.123
 21
172.798
  0
LINE
  8
0
 10
150.123
 20
172.798
 11
150.155
 21
172.813
  0
LINE
  8
0
 10
150.155
 20
172.813
 11
150.187
 21
172.827
  0
LINE
  8
0
 10
150.187
 20
172.827
 11
150.219
 21
172.841
  0
LINE
  8
0
 10
150.219
 20
172.841
 11
150.251
 21
172.854
  0
LINE
  8
0
 10
150.251
 20
172.854
 11
150.283
 21
172.867
  0
LINE
  8
0
 10
150.283
 20
172.867
 11
150.316
 21
172.879
  0
LINE
  8
0
 10
150.316
 20
172.879
 11
150.349
 21
172.891
  0
LINE
  8
0
 10
150.349
 20
172.891
 11
150.382
 21
172.902
  0
LINE
  8
0
 10
150.382
 20
172.902
 11
150.415
 21
172.913
  0
LINE
  8
0
 10
150.415
 20
172.913
 11
150.449
 21
172.923
  0
LINE
  8
0
 10
150.449
 20
172.923
 11
150.482
 21
172.932
  0
LINE
  8
0
 10
150.482
 20
172.932
 11
150.516
 21
172.941
  0
LINE
  8
0
 10
150.516
 20
172.941
 11
150.55
 21
172.949
  0
LINE
  8
0
 10
150.55
 20
172.949
 11
150.584
 21
172.956
  0
LINE
  8
0
 10
150.584
 20
172.956
 11
150.618
 21
172.963
  0
LINE
  8
0
 10
150.618
 20
172.963
 11
150.653
 21
172.97
  0
LINE
  8
0
 10
150.653
 20
172.97
 11
150.687
 21
172.975
  0
LINE
  8
0
 10
150.687
 20
172.975
 11
150.722
 21
172.981
  0
LINE
  8
0
 10
150.722
 20
172.981
 11
150.756
 21
172.985
  0
LINE
  8
0
 10
150.756
 20
172.985
 11
150.791
 21
172.989
  0
LINE
  8
0
 10
150.791
 20
172.989
 11
150.826
 21
172.992
  0
LINE
  8
0
 10
150.826
 20
172.992
 11
150.86
 21
172.995
  0
LINE
  8
0
 10
150.86
 20
172.995
 11
150.895
 21
172.997
  0
LINE
  8
0
 10
150.895
 20
172.997
 11
150.93
 21
172.999
  0
LINE
  8
0
 10
150.93
 20
172.999
 11
150.965
 21
173
  0
LINE
  8
0
 10
150.965
 20
173
 11
151
 21
173
  0
LINE
  8
0
 10
151
 20
173
 11
151.035
 21
173
  0
LINE
  8
0
 10
151.035
 20
173
 11
151.07
 21
172.999
  0
LINE
  8
0
 10
151.07
 20
172.999
 11
151.105
 21
172.997
  0
LINE
  8
0
 10
151.105
 20
172.997
 11
151.14
 21
172.995
  0
LINE
  8
0
 10
151.14
 20
172.995
 11
151.174
 21
172.992
  0
LINE
  8
0
 10
151.174
 20
172.992
 11
151.209
 21
172.989
  0
LINE
  8
0
 10
151.209
 20
172.989
 11
151.244
 21
172.985
  0
LINE
  8
0
 10
151.244
 20
172.985
 11
151.278
 21
172.981
  0
LINE
  8
0
 10
151.278
 20
172.981
 11
151.313
 21
172.975
  0
LINE
  8
0
 10
151.313
 20
172.975
 11
151.347
 21
172.97
  0
LINE
  8
0
 10
151.347
 20
172.97
 11
151.382
 21
172.963
  0
LINE
  8
0
 10
151.382
 20
172.963
 11
151.416
 21
172.956
  0
LINE
  8
0
 10
151.416
 20
172.956
 11
151.45
 21
172.949
  0
LINE
  8
0
 10
151.45
 20
172.949
 11
151.484
 21
172.941
  0
LINE
  8
0
 10
151.484
 20
172.941
 11
151.518
 21
172.932
  0
LINE
  8
0
 10
151.518
 20
172.932
 11
151.551
 21
172.923
  0
LINE
  8
0
 10
151.551
 20
172.923
 11
151.585
 21
172.913
  0
LINE
  8
0
 10
151.585
 20
172.913
 11
151.618
 21
172.902
  0
LINE
  8
0
 10
151.618
 20
172.902
 11
151.651
 21
172.891
  0
LINE
  8
0
 10
151.651
 20
172.891
 11
151.684
 21
172.879
  0
LINE
  8
0
 10
151.684
 20
172.879
 11
151.717
 21
172.867
  0
LINE
  8
0
 10
151.717
 20
172.867
 11
151.749
 21
172.854
  0
LINE
  8
0
 10
151.749
 20
172.854
 11
151.781
 21
172.841
  0
LINE
  8
0
 10
151.781
 20
172.841
 11
151.813
 21
172.827
  0
LINE
  8
0
 10
151.813
 20
172.827
 11
151.845
 21
172.813
  0
LINE
  8
0
 10
151.845
 20
172.813
 11
151.877
 21
172.798
  0
LINE
  8
0
 10
151.877
 20
172.798
 11
151.908
 21
172.782
  0
LINE
  8
0
 10
151.908
 20
172.782
 11
151.939
 21
172.766
  0
LINE
  8
0
 10
151.939
 20
172.766
 11
151.97
 21
172.749
  0
LINE
  8
0
 10
151.97
 20
172.749
 11
152
 21
172.732
  0
LINE
  8
0
 10
152
 20
172.732
 11
152.03
 21
172.714
  0
LINE
  8
0
 10
152.03
 20
172.714
 11
152.06
 21
172.696
  0
LINE
  8
0
 10
152.06
 20
172.696
 11
152.089
 21
172.677
  0
LINE
  8
0
 10
152.089
 20
172.677
 11
152.118
 21
172.658
  0
LINE
  8
0
 10
152.118
 20
172.658
 11
152.147
 21
172.638
  0
LINE
  8
0
 10
152.147
 20
172.638
 11
152.176
 21
172.618
  0
LINE
  8
0
 10
152.176
 20
172.618
 11
152.204
 21
172.597
  0
LINE
  8
0
 10
152.204
 20
172.597
 11
152.231
 21
172.576
  0
LINE
  8
0
 10
152.231
 20
172.576
 11
152.259
 21
172.554
  0
LINE
  8
0
 10
152.259
 20
172.554
 11
152.286
 21
172.532
  0
LINE
  8
0
 10
152.286
 20
172.532
 11
152.312
 21
172.509
  0
LINE
  8
0
 10
152.312
 20
172.509
 11
152.338
 21
172.486
  0
LINE
  8
0
 10
152.338
 20
172.486
 11
152.364
 21
172.463
  0
LINE
  8
0
 10
152.364
 20
172.463
 11
152.389
 21
172.439
  0
LINE
  8
0
 10
152.389
 20
172.439
 11
152.414
 21
172.414
  0
LINE
  8
0
 10
152.414
 20
172.414
 11
152.439
 21
172.389
  0
LINE
  8
0
 10
152.439
 20
172.389
 11
152.463
 21
172.364
  0
LINE
  8
0
 10
152.463
 20
172.364
 11
152.486
 21
172.338
  0
LINE
  8
0
 10
152.486
 20
172.338
 11
152.509
 21
172.312
  0
LINE
  8
0
 10
152.509
 20
172.312
 11
152.532
 21
172.286
  0
LINE
  8
0
 10
152.532
 20
172.286
 11
152.554
 21
172.259
  0
LINE
  8
0
 10
152.554
 20
172.259
 11
152.576
 21
172.231
  0
LINE
  8
0
 10
152.576
 20
172.231
 11
152.597
 21
172.204
  0
LINE
  8
0
 10
152.597
 20
172.204
 11
152.618
 21
172.176
  0
LINE
  8
0
 10
152.618
 20
172.176
 11
152.638
 21
172.147
  0
LINE
  8
0
 10
152.638
 20
172.147
 11
152.658
 21
172.118
  0
LINE
  8
0
 10
152.658
 20
172.118
 11
152.677
 21
172.089
  0
LINE
  8
0
 10
152.677
 20
172.089
 11
152.696
 21
172.06
  0
LINE
  8
0
 10
152.696
 20
172.06
 11
152.714
 21
172.03
  0
LINE
  8
0
 10
152.714
 20
172.03
 11
152.732
 21
172
  0
LINE
  8
0
 10
152.732
 20
172
 11
152.749
 21
171.97
  0
LINE
  8
0
 10
152.749
 20
171.97
 11
152.766
 21
171.939
  0
LINE
  8
0
 10
152.766
 20
171.939
 11
152.782
 21
171.908
  0
LINE
  8
0
 10
152.782
 20
171.908
 11
152.798
 21
171.877
  0
LINE
  8
0
 10
152.798
 20
171.877
 11
152.813
 21
171.845
  0
LINE
  8
0
 10
152.813
 20
171.845
 11
152.827
 21
171.813
  0
LINE
  8
0
 10
152.827
 20
171.813
 11
152.841
 21
171.781
  0
LINE
  8
0
 10
152.841
 20
171.781
 11
152.854
 21
171.749
  0
LINE
  8
0
 10
152.854
 20
171.749
 11
152.867
 21
171.717
  0
LINE
  8
0
 10
152.867
 20
171.717
 11
152.879
 21
171.684
  0
LINE
  8
0
 10
152.879
 20
171.684
 11
152.891
 21
171.651
  0
LINE
  8
0
 10
152.891
 20
171.651
 11
152.902
 21
171.618
  0
LINE
  8
0
 10
152.902
 20
171.618
 11
152.913
 21
171.585
  0
LINE
  8
0
 10
152.913
 20
171.585
 11
152.923
 21
171.551
  0
LINE
  8
0
 10
152.923
 20
171.551
 11
152.932
 21
171.518
  0
LINE
  8
0
 10
152.932
 20
171.518
 11
152.941
 21
171.484
  0
LINE
  8
0
 10
152.941
 20
171.484
 11
152.949
 21
171.45
  0
LINE
  8
0
 10
152.949
 20
171.45
 11
152.956
 21
171.416
  0
LINE
  8
0
 10
152.956
 20
171.416
 11
152.963
 21
171.382
  0
LINE
  8
0
 10
152.963
 20
171.382
 11
152.97
 21
171.347
  0
LINE
  8
0
 10
152.97
 20
171.347
 11
152.975
 21
171.313
  0
LINE
  8
0
 10
152.975
 20
171.313
 11
152.981
 21
171.278
  0
LINE
  8
0
 10
152.981
 20
171.278
 11
152.985
 21
171.244
  0
LINE
  8
0
 10
152.985
 20
171.244
 11
152.989
 21
171.209
  0
LINE
  8
0
 10
152.989
 20
171.209
 11
152.992
 21
171.174
  0
LINE
  8
0
 10
152.992
 20
171.174
 11
152.995
 21
171.14
  0
LINE
  8
0
 10
152.995
 20
171.14
 11
152.997
 21
171.105
  0
LINE
  8
0
 10
152.997
 20
171.105
 11
152.999
 21
171.07
  0
LINE
  8
0
 10
152.999
 20
171.07
 11
153
 21
171.035
  0
LINE
  8
0
 10
153
 20
171.035
 11
153
 21
171
  0
LINE
  8
0
 10
153
 20
171
 11
153
 21
170.965
  0
LINE
  8
0
 10
153
 20
170.965
 11
152.999
 21
170.93
  0
LINE
  8
0
 10
152.999
 20
170.93
 11
152.997
 21
170.895
  0
LINE
  8
0
 10
152.997
 20
170.895
 11
152.995
 21
170.86
  0
LINE
  8
0
 10
152.995
 20
170.86
 11
152.992
 21
170.826
  0
LINE
  8
0
 10
152.992
 20
170.826
 11
152.989
 21
170.791
  0
LINE
  8
0
 10
152.989
 20
170.791
 11
152.985
 21
170.756
  0
LINE
  8
0
 10
152.985
 20
170.756
 11
152.981
 21
170.722
  0
LINE
  8
0
 10
152.981
 20
170.722
 11
152.975
 21
170.687
  0
LINE
  8
0
 10
152.975
 20
170.687
 11
152.97
 21
170.653
  0
LINE
  8
0
 10
152.97
 20
170.653
 11
152.963
 21
170.618
  0
LINE
  8
0
 10
152.963
 20
170.618
 11
152.956
 21
170.584
  0
LINE
  8
0
 10
152.956
 20
170.584
 11
152.949
 21
170.55
  0
LINE
  8
0
 10
152.949
 20
170.55
 11
152.941
 21
170.516
  0
LINE
  8
0
 10
152.941
 20
170.516
 11
152.932
 21
170.482
  0
LINE
  8
0
 10
152.932
 20
170.482
 11
152.923
 21
170.449
  0
LINE
  8
0
 10
152.923
 20
170.449
 11
152.913
 21
170.415
  0
LINE
  8
0
 10
152.913
 20
170.415
 11
152.902
 21
170.382
  0
LINE
  8
0
 10
152.902
 20
170.382
 11
152.891
 21
170.349
  0
LINE
  8
0
 10
152.891
 20
170.349
 11
152.879
 21
170.316
  0
LINE
  8
0
 10
152.879
 20
170.316
 11
152.867
 21
170.283
  0
LINE
  8
0
 10
152.867
 20
170.283
 11
152.854
 21
170.251
  0
LINE
  8
0
 10
152.854
 20
170.251
 11
152.841
 21
170.219
  0
LINE
  8
0
 10
152.841
 20
170.219
 11
152.827
 21
170.187
  0
LINE
  8
0
 10
152.827
 20
170.187
 11
152.813
 21
170.155
  0
LINE
  8
0
 10
152.813
 20
170.155
 11
152.798
 21
170.123
  0
LINE
  8
0
 10
152.798
 20
170.123
 11
152.782
 21
170.092
  0
LINE
  8
0
 10
152.782
 20
170.092
 11
152.766
 21
170.061
  0
LINE
  8
0
 10
152.766
 20
170.061
 11
152.749
 21
170.03
  0
LINE
  8
0
 10
152.749
 20
170.03
 11
152.732
 21
170
  0
LINE
  8
0
 10
152.732
 20
170
 11
152.714
 21
169.97
  0
LINE
  8
0
 10
152.714
 20
169.97
 11
152.696
 21
169.94
  0
LINE
  8
0
 10
152.696
 20
169.94
 11
152.677
 21
169.911
  0
LINE
  8
0
 10
152.677
 20
169.911
 11
152.658
 21
169.882
  0
LINE
  8
0
 10
152.658
 20
169.882
 11
152.638
 21
169.853
  0
LINE
  8
0
 10
152.638
 20
169.853
 11
152.618
 21
169.824
  0
LINE
  8
0
 10
152.618
 20
169.824
 11
152.597
 21
169.796
  0
LINE
  8
0
 10
152.597
 20
169.796
 11
152.576
 21
169.769
  0
LINE
  8
0
 10
152.576
 20
169.769
 11
152.554
 21
169.741
  0
LINE
  8
0
 10
152.554
 20
169.741
 11
152.532
 21
169.714
  0
LINE
  8
0
 10
152.532
 20
169.714
 11
152.509
 21
169.688
  0
LINE
  8
0
 10
152.509
 20
169.688
 11
152.486
 21
169.662
  0
LINE
  8
0
 10
152.486
 20
169.662
 11
152.463
 21
169.636
  0
LINE
  8
0
 10
152.463
 20
169.636
 11
152.439
 21
169.611
  0
LINE
  8
0
 10
152.439
 20
169.611
 11
152.414
 21
169.586
  0
LINE
  8
0
 10
152.414
 20
169.586
 11
152.389
 21
169.561
  0
LINE
  8
0
 10
152.389
 20
169.561
 11
152.364
 21
169.537
  0
LINE
  8
0
 10
152.364
 20
169.537
 11
152.338
 21
169.514
  0
LINE
  8
0
 10
152.338
 20
169.514
 11
152.312
 21
169.491
  0
LINE
  8
0
 10
152.312
 20
169.491
 11
152.286
 21
169.468
  0
LINE
  8
0
 10
152.286
 20
169.468
 11
152.259
 21
169.446
  0
LINE
  8
0
 10
152.259
 20
169.446
 11
152.231
 21
169.424
  0
LINE
  8
0
 10
152.231
 20
169.424
 11
152.204
 21
169.403
  0
LINE
  8
0
 10
152.204
 20
169.403
 11
152.176
 21
169.382
  0
LINE
  8
0
 10
152.176
 20
169.382
 11
152.147
 21
169.362
  0
LINE
  8
0
 10
152.147
 20
169.362
 11
152.118
 21
169.342
  0
LINE
  8
0
 10
152.118
 20
169.342
 11
152.089
 21
169.323
  0
LINE
  8
0
 10
152.089
 20
169.323
 11
152.06
 21
169.304
  0
LINE
  8
0
 10
152.06
 20
169.304
 11
152.03
 21
169.286
  0
LINE
  8
0
 10
152.03
 20
169.286
 11
152
 21
169.268
  0
LINE
  8
0
 10
152
 20
169.268
 11
151.97
 21
169.251
  0
LINE
  8
0
 10
151.97
 20
169.251
 11
151.939
 21
169.234
  0
LINE
  8
0
 10
151.939
 20
169.234
 11
151.908
 21
169.218
  0
LINE
  8
0
 10
151.908
 20
169.218
 11
151.877
 21
169.202
  0
LINE
  8
0
 10
151.877
 20
169.202
 11
151.845
 21
169.187
  0
LINE
  8
0
 10
151.845
 20
169.187
 11
151.813
 21
169.173
  0
LINE
  8
0
 10
151.813
 20
169.173
 11
151.781
 21
169.159
  0
LINE
  8
0
 10
151.781
 20
169.159
 11
151.749
 21
169.146
  0
LINE
  8
0
 10
151.749
 20
169.146
 11
151.717
 21
169.133
  0
LINE
  8
0
 10
151.717
 20
169.133
 11
151.684
 21
169.121
  0
LINE
  8
0
 10
151.684
 20
169.121
 11
151.651
 21
169.109
  0
LINE
  8
0
 10
151.651
 20
169.109
 11
151.618
 21
169.098
  0
LINE
  8
0
 10
151.618
 20
169.098
 11
151.585
 21
169.087
  0
LINE
  8
0
 10
151.585
 20
169.087
 11
151.551
 21
169.077
  0
LINE
  8
0
 10
151.551
 20
169.077
 11
151.518
 21
169.068
  0
LINE
  8
0
 10
151.518
 20
169.068
 11
151.484
 21
169.059
  0
LINE
  8
0
 10
151.484
 20
169.059
 11
151.45
 21
169.051
  0
LINE
  8
0
 10
151.45
 20
169.051
 11
151.416
 21
169.044
  0
LINE
  8
0
 10
151.416
 20
169.044
 11
151.382
 21
169.037
  0
LINE
  8
0
 10
151.382
 20
169.037
 11
151.347
 21
169.03
  0
LINE
  8
0
 10
151.347
 20
169.03
 11
151.313
 21
169.025
  0
LINE
  8
0
 10
151.313
 20
169.025
 11
151.278
 21
169.019
  0
LINE
  8
0
 10
151.278
 20
169.019
 11
151.244
 21
169.015
  0
LINE
  8
0
 10
151.244
 20
169.015
 11
151.209
 21
169.011
  0
LINE
  8
0
 10
151.209
 20
169.011
 11
151.174
 21
169.008
  0
LINE
  8
0
 10
151.174
 20
169.008
 11
151.14
 21
169.005
  0
LINE
  8
0
 10
151.14
 20
169.005
 11
151.105
 21
169.003
  0
LINE
  8
0
 10
151.105
 20
169.003
 11
151.07
 21
169.001
  0
LINE
  8
0
 10
151.07
 20
169.001
 11
151.035
 21
169
  0
LINE
  8
0
 10
151.035
 20
169
 11
151
 21
169
  0
LINE
  8
0
 10
151
 20
169
 11
150.965
 21
169
  0
LINE
  8
0
 10
88.9651
 20
169
 11
88.9302
 21
169.001
  0
LINE
  8
0
 10
88.9302
 20
169.001
 11
88.8953
 21
169.003
  0
LINE
  8
0
 10
88.8953
 20
169.003
 11
88.8605
 21
169.005
  0
LINE
  8
0
 10
88.8605
 20
169.005
 11
88.8257
 21
169.008
  0
LINE
  8
0
 10
88.8257
 20
169.008
 11
88.7909
 21
169.011
  0
LINE
  8
0
 10
88.7909
 20
169.011
 11
88.7563
 21
169.015
  0
LINE
  8
0
 10
88.7563
 20
169.015
 11
88.7216
 21
169.019
  0
LINE
  8
0
 10
88.7216
 20
169.019
 11
88.6871
 21
169.025
  0
LINE
  8
0
 10
88.6871
 20
169.025
 11
88.6527
 21
169.03
  0
LINE
  8
0
 10
88.6527
 20
169.03
 11
88.6184
 21
169.037
  0
LINE
  8
0
 10
88.6184
 20
169.037
 11
88.5842
 21
169.044
  0
LINE
  8
0
 10
88.5842
 20
169.044
 11
88.5501
 21
169.051
  0
LINE
  8
0
 10
88.5501
 20
169.051
 11
88.5162
 21
169.059
  0
LINE
  8
0
 10
88.5162
 20
169.059
 11
88.4824
 21
169.068
  0
LINE
  8
0
 10
88.4824
 20
169.068
 11
88.4487
 21
169.077
  0
LINE
  8
0
 10
88.4487
 20
169.077
 11
88.4153
 21
169.087
  0
LINE
  8
0
 10
88.4153
 20
169.087
 11
88.382
 21
169.098
  0
LINE
  8
0
 10
88.382
 20
169.098
 11
88.3489
 21
169.109
  0
LINE
  8
0
 10
88.3489
 20
169.109
 11
88.3159
 21
169.121
  0
LINE
  8
0
 10
88.3159
 20
169.121
 11
88.2833
 21
169.133
  0
LINE
  8
0
 10
88.2833
 20
169.133
 11
88.2508
 21
169.146
  0
LINE
  8
0
 10
88.2508
 20
169.146
 11
88.2185
 21
169.159
  0
LINE
  8
0
 10
88.2185
 20
169.159
 11
88.1865
 21
169.173
  0
LINE
  8
0
 10
88.1865
 20
169.173
 11
88.1548
 21
169.187
  0
LINE
  8
0
 10
88.1548
 20
169.187
 11
88.1233
 21
169.202
  0
LINE
  8
0
 10
88.1233
 20
169.202
 11
88.092
 21
169.218
  0
LINE
  8
0
 10
88.092
 20
169.218
 11
88.0611
 21
169.234
  0
LINE
  8
0
 10
88.0611
 20
169.234
 11
88.0304
 21
169.251
  0
LINE
  8
0
 10
88.0304
 20
169.251
 11
88
 21
169.268
  0
LINE
  8
0
 10
88
 20
169.268
 11
87.9699
 21
169.286
  0
LINE
  8
0
 10
87.9699
 20
169.286
 11
87.9402
 21
169.304
  0
LINE
  8
0
 10
87.9402
 20
169.304
 11
87.9107
 21
169.323
  0
LINE
  8
0
 10
87.9107
 20
169.323
 11
87.8816
 21
169.342
  0
LINE
  8
0
 10
87.8816
 20
169.342
 11
87.8528
 21
169.362
  0
LINE
  8
0
 10
87.8528
 20
169.362
 11
87.8244
 21
169.382
  0
LINE
  8
0
 10
87.8244
 20
169.382
 11
87.7964
 21
169.403
  0
LINE
  8
0
 10
87.7964
 20
169.403
 11
87.7687
 21
169.424
  0
LINE
  8
0
 10
87.7687
 20
169.424
 11
87.7413
 21
169.446
  0
LINE
  8
0
 10
87.7413
 20
169.446
 11
87.7144
 21
169.468
  0
LINE
  8
0
 10
87.7144
 20
169.468
 11
87.6879
 21
169.491
  0
LINE
  8
0
 10
87.6879
 20
169.491
 11
87.6617
 21
169.514
  0
LINE
  8
0
 10
87.6617
 20
169.514
 11
87.636
 21
169.537
  0
LINE
  8
0
 10
87.636
 20
169.537
 11
87.6107
 21
169.561
  0
LINE
  8
0
 10
87.6107
 20
169.561
 11
87.5858
 21
169.586
  0
LINE
  8
0
 10
87.5858
 20
169.586
 11
87.5613
 21
169.611
  0
LINE
  8
0
 10
87.5613
 20
169.611
 11
87.5373
 21
169.636
  0
LINE
  8
0
 10
87.5373
 20
169.636
 11
87.5137
 21
169.662
  0
LINE
  8
0
 10
87.5137
 20
169.662
 11
87.4906
 21
169.688
  0
LINE
  8
0
 10
87.4906
 20
169.688
 11
87.4679
 21
169.714
  0
LINE
  8
0
 10
87.4679
 20
169.714
 11
87.4457
 21
169.741
  0
LINE
  8
0
 10
87.4457
 20
169.741
 11
87.424
 21
169.769
  0
LINE
  8
0
 10
87.424
 20
169.769
 11
87.4027
 21
169.796
  0
LINE
  8
0
 10
87.4027
 20
169.796
 11
87.382
 21
169.824
  0
LINE
  8
0
 10
87.382
 20
169.824
 11
87.3617
 21
169.853
  0
LINE
  8
0
 10
87.3617
 20
169.853
 11
87.3419
 21
169.882
  0
LINE
  8
0
 10
87.3419
 20
169.882
 11
87.3227
 21
169.911
  0
LINE
  8
0
 10
87.3227
 20
169.911
 11
87.3039
 21
169.94
  0
LINE
  8
0
 10
87.3039
 20
169.94
 11
87.2857
 21
169.97
  0
LINE
  8
0
 10
87.2857
 20
169.97
 11
87.2679
 21
170
  0
LINE
  8
0
 10
87.2679
 20
170
 11
87.2508
 21
170.03
  0
LINE
  8
0
 10
87.2508
 20
170.03
 11
87.2341
 21
170.061
  0
LINE
  8
0
 10
87.2341
 20
170.061
 11
87.218
 21
170.092
  0
LINE
  8
0
 10
87.218
 20
170.092
 11
87.2024
 21
170.123
  0
LINE
  8
0
 10
87.2024
 20
170.123
 11
87.1874
 21
170.155
  0
LINE
  8
0
 10
87.1874
 20
170.155
 11
87.1729
 21
170.187
  0
LINE
  8
0
 10
87.1729
 20
170.187
 11
87.159
 21
170.219
  0
LINE
  8
0
 10
87.159
 20
170.219
 11
87.1456
 21
170.251
  0
LINE
  8
0
 10
87.1456
 20
170.251
 11
87.1328
 21
170.283
  0
LINE
  8
0
 10
87.1328
 20
170.283
 11
87.1206
 21
170.316
  0
LINE
  8
0
 10
87.1206
 20
170.316
 11
87.109
 21
170.349
  0
LINE
  8
0
 10
87.109
 20
170.349
 11
87.0979
 21
170.382
  0
LINE
  8
0
 10
87.0979
 20
170.382
 11
87.0874
 21
170.415
  0
LINE
  8
0
 10
87.0874
 20
170.415
 11
87.0775
 21
170.449
  0
LINE
  8
0
 10
87.0775
 20
170.449
 11
87.0681
 21
170.482
  0
LINE
  8
0
 10
87.0681
 20
170.482
 11
87.0594
 21
170.516
  0
LINE
  8
0
 10
87.0594
 20
170.516
 11
87.0513
 21
170.55
  0
LINE
  8
0
 10
87.0513
 20
170.55
 11
87.0437
 21
170.584
  0
LINE
  8
0
 10
87.0437
 20
170.584
 11
87.0367
 21
170.618
  0
LINE
  8
0
 10
87.0367
 20
170.618
 11
87.0304
 21
170.653
  0
LINE
  8
0
 10
87.0304
 20
170.653
 11
87.0246
 21
170.687
  0
LINE
  8
0
 10
87.0246
 20
170.687
 11
87.0195
 21
170.722
  0
LINE
  8
0
 10
87.0195
 20
170.722
 11
87.0149
 21
170.756
  0
LINE
  8
0
 10
87.0149
 20
170.756
 11
87.011
 21
170.791
  0
LINE
  8
0
 10
87.011
 20
170.791
 11
87.0076
 21
170.826
  0
LINE
  8
0
 10
87.0076
 20
170.826
 11
87.0049
 21
170.86
  0
LINE
  8
0
 10
87.0049
 20
170.86
 11
87.0027
 21
170.895
  0
LINE
  8
0
 10
87.0027
 20
170.895
 11
87.0012
 21
170.93
  0
LINE
  8
0
 10
87.0012
 20
170.93
 11
87.0003
 21
170.965
  0
LINE
  8
0
 10
87.0003
 20
170.965
 11
87
 21
171
  0
LINE
  8
0
 10
87
 20
171
 11
87.0003
 21
171.035
  0
LINE
  8
0
 10
87.0003
 20
171.035
 11
87.0012
 21
171.07
  0
LINE
  8
0
 10
87.0012
 20
171.07
 11
87.0027
 21
171.105
  0
LINE
  8
0
 10
87.0027
 20
171.105
 11
87.0049
 21
171.14
  0
LINE
  8
0
 10
87.0049
 20
171.14
 11
87.0076
 21
171.174
  0
LINE
  8
0
 10
87.0076
 20
171.174
 11
87.011
 21
171.209
  0
LINE
  8
0
 10
87.011
 20
171.209
 11
87.0149
 21
171.244
  0
LINE
  8
0
 10
87.0149
 20
171.244
 11
87.0195
 21
171.278
  0
LINE
  8
0
 10
87.0195
 20
171.278
 11
87.0246
 21
171.313
  0
LINE
  8
0
 10
87.0246
 20
171.313
 11
87.0304
 21
171.347
  0
LINE
  8
0
 10
87.0304
 20
171.347
 11
87.0367
 21
171.382
  0
LINE
  8
0
 10
87.0367
 20
171.382
 11
87.0437
 21
171.416
  0
LINE
  8
0
 10
87.0437
 20
171.416
 11
87.0513
 21
171.45
  0
LINE
  8
0
 10
87.0513
 20
171.45
 11
87.0594
 21
171.484
  0
LINE
  8
0
 10
87.0594
 20
171.484
 11
87.0681
 21
171.518
  0
LINE
  8
0
 10
87.0681
 20
171.518
 11
87.0775
 21
171.551
  0
LINE
  8
0
 10
87.0775
 20
171.551
 11
87.0874
 21
171.585
  0
LINE
  8
0
 10
87.0874
 20
171.585
 11
87.0979
 21
171.618
  0
LINE
  8
0
 10
87.0979
 20
171.618
 11
87.109
 21
171.651
  0
LINE
  8
0
 10
87.109
 20
171.651
 11
87.1206
 21
171.684
  0
LINE
  8
0
 10
87.1206
 20
171.684
 11
87.1328
 21
171.717
  0
LINE
  8
0
 10
87.1328
 20
171.717
 11
87.1456
 21
171.749
  0
LINE
  8
0
 10
87.1456
 20
171.749
 11
87.159
 21
171.781
  0
LINE
  8
0
 10
87.159
 20
171.781
 11
87.1729
 21
171.813
  0
LINE
  8
0
 10
87.1729
 20
171.813
 11
87.1874
 21
171.845
  0
LINE
  8
0
 10
87.1874
 20
171.845
 11
87.2024
 21
171.877
  0
LINE
  8
0
 10
87.2024
 20
171.877
 11
87.218
 21
171.908
  0
LINE
  8
0
 10
87.218
 20
171.908
 11
87.2341
 21
171.939
  0
LINE
  8
0
 10
87.2341
 20
171.939
 11
87.2508
 21
171.97
  0
LINE
  8
0
 10
87.2508
 20
171.97
 11
87.2679
 21
172
  0
LINE
  8
0
 10
87.2679
 20
172
 11
87.2857
 21
172.03
  0
LINE
  8
0
 10
87.2857
 20
172.03
 11
87.3039
 21
172.06
  0
LINE
  8
0
 10
87.3039
 20
172.06
 11
87.3227
 21
172.089
  0
LINE
  8
0
 10
87.3227
 20
172.089
 11
87.3419
 21
172.118
  0
LINE
  8
0
 10
87.3419
 20
172.118
 11
87.3617
 21
172.147
  0
LINE
  8
0
 10
87.3617
 20
172.147
 11
87.382
 21
172.176
  0
LINE
  8
0
 10
87.382
 20
172.176
 11
87.4027
 21
172.204
  0
LINE
  8
0
 10
87.4027
 20
172.204
 11
87.424
 21
172.231
  0
LINE
  8
0
 10
87.424
 20
172.231
 11
87.4457
 21
172.259
  0
LINE
  8
0
 10
87.4457
 20
172.259
 11
87.4679
 21
172.286
  0
LINE
  8
0
 10
87.4679
 20
172.286
 11
87.4906
 21
172.312
  0
LINE
  8
0
 10
87.4906
 20
172.312
 11
87.5137
 21
172.338
  0
LINE
  8
0
 10
87.5137
 20
172.338
 11
87.5373
 21
172.364
  0
LINE
  8
0
 10
87.5373
 20
172.364
 11
87.5613
 21
172.389
  0
LINE
  8
0
 10
87.5613
 20
172.389
 11
87.5858
 21
172.414
  0
LINE
  8
0
 10
87.5858
 20
172.414
 11
87.6107
 21
172.439
  0
LINE
  8
0
 10
87.6107
 20
172.439
 11
87.636
 21
172.463
  0
LINE
  8
0
 10
87.636
 20
172.463
 11
87.6617
 21
172.486
  0
LINE
  8
0
 10
87.6617
 20
172.486
 11
87.6879
 21
172.509
  0
LINE
  8
0
 10
87.6879
 20
172.509
 11
87.7144
 21
172.532
  0
LINE
  8
0
 10
87.7144
 20
172.532
 11
87.7413
 21
172.554
  0
LINE
  8
0
 10
87.7413
 20
172.554
 11
87.7687
 21
172.576
  0
LINE
  8
0
 10
87.7687
 20
172.576
 11
87.7964
 21
172.597
  0
LINE
  8
0
 10
87.7964
 20
172.597
 11
87.8244
 21
172.618
  0
LINE
  8
0
 10
87.8244
 20
172.618
 11
87.8528
 21
172.638
  0
LINE
  8
0
 10
87.8528
 20
172.638
 11
87.8816
 21
172.658
  0
LINE
  8
0
 10
87.8816
 20
172.658
 11
87.9107
 21
172.677
  0
LINE
  8
0
 10
87.9107
 20
172.677
 11
87.9402
 21
172.696
  0
LINE
  8
0
 10
87.9402
 20
172.696
 11
87.9699
 21
172.714
  0
LINE
  8
0
 10
87.9699
 20
172.714
 11
88
 21
172.732
  0
LINE
  8
0
 10
88
 20
172.732
 11
88.0304
 21
172.749
  0
LINE
  8
0
 10
88.0304
 20
172.749
 11
88.0611
 21
172.766
  0
LINE
  8
0
 10
88.0611
 20
172.766
 11
88.092
 21
172.782
  0
LINE
  8
0
 10
88.092
 20
172.782
 11
88.1233
 21
172.798
  0
LINE
  8
0
 10
88.1233
 20
172.798
 11
88.1548
 21
172.813
  0
LINE
  8
0
 10
88.1548
 20
172.813
 11
88.1865
 21
172.827
  0
LINE
  8
0
 10
88.1865
 20
172.827
 11
88.2185
 21
172.841
  0
LINE
  8
0
 10
88.2185
 20
172.841
 11
88.2508
 21
172.854
  0
LINE
  8
0
 10
88.2508
 20
172.854
 11
88.2833
 21
172.867
  0
LINE
  8
0
 10
88.2833
 20
172.867
 11
88.3159
 21
172.879
  0
LINE
  8
0
 10
88.3159
 20
172.879
 11
88.3489
 21
172.891
  0
LINE
  8
0
 10
88.3489
 20
172.891
 11
88.382
 21
172.902
  0
LINE
  8
0
 10
88.382
 20
172.902
 11
88.4153
 21
172.913
  0
LINE
  8
0
 10
88.4153
 20
172.913
 11
88.4487
 21
172.923
  0
LINE
  8
0
 10
88.4487
 20
172.923
 11
88.4824
 21
172.932
  0
LINE
  8
0
 10
88.4824
 20
172.932
 11
88.5162
 21
172.941
  0
LINE
  8
0
 10
88.5162
 20
172.941
 11
88.5501
 21
172.949
  0
LINE
  8
0
 10
88.5501
 20
172.949
 11
88.5842
 21
172.956
  0
LINE
  8
0
 10
88.5842
 20
172.956
 11
88.6184
 21
172.963
  0
LINE
  8
0
 10
88.6184
 20
172.963
 11
88.6527
 21
172.97
  0
LINE
  8
0
 10
88.6527
 20
172.97
 11
88.6871
 21
172.975
  0
LINE
  8
0
 10
88.6871
 20
172.975
 11
88.7216
 21
172.981
  0
LINE
  8
0
 10
88.7216
 20
172.981
 11
88.7563
 21
172.985
  0
LINE
  8
0
 10
88.7563
 20
172.985
 11
88.7909
 21
172.989
  0
LINE
  8
0
 10
88.7909
 20
172.989
 11
88.8257
 21
172.992
  0
LINE
  8
0
 10
88.8257
 20
172.992
 11
88.8605
 21
172.995
  0
LINE
  8
0
 10
88.8605
 20
172.995
 11
88.8953
 21
172.997
  0
LINE
  8
0
 10
88.8953
 20
172.997
 11
88.9302
 21
172.999
  0
LINE
  8
0
 10
88.9302
 20
172.999
 11
88.9651
 21
173
  0
LINE
  8
0
 10
88.9651
 20
173
 11
89
 21
173
  0
LINE
  8
0
 10
89
 20
173
 11
89.0349
 21
173
  0
LINE
  8
0
 10
89.0349
 20
173
 11
89.0698
 21
172.999
  0
LINE
  8
0
 10
89.0698
 20
172.999
 11
89.1047
 21
172.997
  0
LINE
  8
0
 10
89.1047
 20
172.997
 11
89.1395
 21
172.995
  0
LINE
  8
0
 10
89.1395
 20
172.995
 11
89.1743
 21
172.992
  0
LINE
  8
0
 10
89.1743
 20
172.992
 11
89.2091
 21
172.989
  0
LINE
  8
0
 10
89.2091
 20
172.989
 11
89.2437
 21
172.985
  0
LINE
  8
0
 10
89.2437
 20
172.985
 11
89.2783
 21
172.981
  0
LINE
  8
0
 10
89.2783
 20
172.981
 11
89.3129
 21
172.975
  0
LINE
  8
0
 10
89.3129
 20
172.975
 11
89.3473
 21
172.97
  0
LINE
  8
0
 10
89.3473
 20
172.97
 11
89.3816
 21
172.963
  0
LINE
  8
0
 10
89.3816
 20
172.963
 11
89.4158
 21
172.956
  0
LINE
  8
0
 10
89.4158
 20
172.956
 11
89.4499
 21
172.949
  0
LINE
  8
0
 10
89.4499
 20
172.949
 11
89.4838
 21
172.941
  0
LINE
  8
0
 10
89.4838
 20
172.941
 11
89.5176
 21
172.932
  0
LINE
  8
0
 10
89.5176
 20
172.932
 11
89.5513
 21
172.923
  0
LINE
  8
0
 10
89.5513
 20
172.923
 11
89.5847
 21
172.913
  0
LINE
  8
0
 10
89.5847
 20
172.913
 11
89.618
 21
172.902
  0
LINE
  8
0
 10
89.618
 20
172.902
 11
89.6511
 21
172.891
  0
LINE
  8
0
 10
89.6511
 20
172.891
 11
89.684
 21
172.879
  0
LINE
  8
0
 10
89.684
 20
172.879
 11
89.7167
 21
172.867
  0
LINE
  8
0
 10
89.7167
 20
172.867
 11
89.7492
 21
172.854
  0
LINE
  8
0
 10
89.7492
 20
172.854
 11
89.7815
 21
172.841
  0
LINE
  8
0
 10
89.7815
 20
172.841
 11
89.8135
 21
172.827
  0
LINE
  8
0
 10
89.8135
 20
172.827
 11
89.8452
 21
172.813
  0
LINE
  8
0
 10
89.8452
 20
172.813
 11
89.8767
 21
172.798
  0
LINE
  8
0
 10
89.8767
 20
172.798
 11
89.908
 21
172.782
  0
LINE
  8
0
 10
89.908
 20
172.782
 11
89.9389
 21
172.766
  0
LINE
  8
0
 10
89.9389
 20
172.766
 11
89.9696
 21
172.749
  0
LINE
  8
0
 10
89.9696
 20
172.749
 11
90
 21
172.732
  0
LINE
  8
0
 10
90
 20
172.732
 11
90.0301
 21
172.714
  0
LINE
  8
0
 10
90.0301
 20
172.714
 11
90.0598
 21
172.696
  0
LINE
  8
0
 10
90.0598
 20
172.696
 11
90.0893
 21
172.677
  0
LINE
  8
0
 10
90.0893
 20
172.677
 11
90.1184
 21
172.658
  0
LINE
  8
0
 10
90.1184
 20
172.658
 11
90.1472
 21
172.638
  0
LINE
  8
0
 10
90.1472
 20
172.638
 11
90.1756
 21
172.618
  0
LINE
  8
0
 10
90.1756
 20
172.618
 11
90.2036
 21
172.597
  0
LINE
  8
0
 10
90.2036
 20
172.597
 11
90.2313
 21
172.576
  0
LINE
  8
0
 10
90.2313
 20
172.576
 11
90.2586
 21
172.554
  0
LINE
  8
0
 10
90.2586
 20
172.554
 11
90.2856
 21
172.532
  0
LINE
  8
0
 10
90.2856
 20
172.532
 11
90.3121
 21
172.509
  0
LINE
  8
0
 10
90.3121
 20
172.509
 11
90.3383
 21
172.486
  0
LINE
  8
0
 10
90.3383
 20
172.486
 11
90.364
 21
172.463
  0
LINE
  8
0
 10
90.364
 20
172.463
 11
90.3893
 21
172.439
  0
LINE
  8
0
 10
90.3893
 20
172.439
 11
90.4142
 21
172.414
  0
LINE
  8
0
 10
90.4142
 20
172.414
 11
90.4387
 21
172.389
  0
LINE
  8
0
 10
90.4387
 20
172.389
 11
90.4627
 21
172.364
  0
LINE
  8
0
 10
90.4627
 20
172.364
 11
90.4863
 21
172.338
  0
LINE
  8
0
 10
90.4863
 20
172.338
 11
90.5094
 21
172.312
  0
LINE
  8
0
 10
90.5094
 20
172.312
 11
90.5321
 21
172.286
  0
LINE
  8
0
 10
90.5321
 20
172.286
 11
90.5543
 21
172.259
  0
LINE
  8
0
 10
90.5543
 20
172.259
 11
90.576
 21
172.231
  0
LINE
  8
0
 10
90.576
 20
172.231
 11
90.5973
 21
172.204
  0
LINE
  8
0
 10
90.5973
 20
172.204
 11
90.618
 21
172.176
  0
LINE
  8
0
 10
90.618
 20
172.176
 11
90.6383
 21
172.147
  0
LINE
  8
0
 10
90.6383
 20
172.147
 11
90.6581
 21
172.118
  0
LINE
  8
0
 10
90.6581
 20
172.118
 11
90.6773
 21
172.089
  0
LINE
  8
0
 10
90.6773
 20
172.089
 11
90.6961
 21
172.06
  0
LINE
  8
0
 10
90.6961
 20
172.06
 11
90.7143
 21
172.03
  0
LINE
  8
0
 10
90.7143
 20
172.03
 11
90.732
 21
172
  0
LINE
  8
0
 10
90.732
 20
172
 11
90.7492
 21
171.97
  0
LINE
  8
0
 10
90.7492
 20
171.97
 11
90.7659
 21
171.939
  0
LINE
  8
0
 10
90.7659
 20
171.939
 11
90.782
 21
171.908
  0
LINE
  8
0
 10
90.782
 20
171.908
 11
90.7976
 21
171.877
  0
LINE
  8
0
 10
90.7976
 20
171.877
 11
90.8126
 21
171.845
  0
LINE
  8
0
 10
90.8126
 20
171.845
 11
90.8271
 21
171.813
  0
LINE
  8
0
 10
90.8271
 20
171.813
 11
90.841
 21
171.781
  0
LINE
  8
0
 10
90.841
 20
171.781
 11
90.8544
 21
171.749
  0
LINE
  8
0
 10
90.8544
 20
171.749
 11
90.8672
 21
171.717
  0
LINE
  8
0
 10
90.8672
 20
171.717
 11
90.8794
 21
171.684
  0
LINE
  8
0
 10
90.8794
 20
171.684
 11
90.891
 21
171.651
  0
LINE
  8
0
 10
90.891
 20
171.651
 11
90.9021
 21
171.618
  0
LINE
  8
0
 10
90.9021
 20
171.618
 11
90.9126
 21
171.585
  0
LINE
  8
0
 10
90.9126
 20
171.585
 11
90.9225
 21
171.551
  0
LINE
  8
0
 10
90.9225
 20
171.551
 11
90.9319
 21
171.518
  0
LINE
  8
0
 10
90.9319
 20
171.518
 11
90.9406
 21
171.484
  0
LINE
  8
0
 10
90.9406
 20
171.484
 11
90.9487
 21
171.45
  0
LINE
  8
0
 10
90.9487
 20
171.45
 11
90.9563
 21
171.416
  0
LINE
  8
0
 10
90.9563
 20
171.416
 11
90.9633
 21
171.382
  0
LINE
  8
0
 10
90.9633
 20
171.382
 11
90.9696
 21
171.347
  0
LINE
  8
0
 10
90.9696
 20
171.347
 11
90.9754
 21
171.313
  0
LINE
  8
0
 10
90.9754
 20
171.313
 11
90.9805
 21
171.278
  0
LINE
  8
0
 10
90.9805
 20
171.278
 11
90.9851
 21
171.244
  0
LINE
  8
0
 10
90.9851
 20
171.244
 11
90.989
 21
171.209
  0
LINE
  8
0
 10
90.989
 20
171.209
 11
90.9924
 21
171.174
  0
LINE
  8
0
 10
90.9924
 20
171.174
 11
90.9951
 21
171.14
  0
LINE
  8
0
 10
90.9951
 20
171.14
 11
90.9973
 21
171.105
  0
LINE
  8
0
 10
90.9973
 20
171.105
 11
90.9988
 21
171.07
  0
LINE
  8
0
 10
90.9988
 20
171.07
 11
90.9997
 21
171.035
  0
LINE
  8
0
 10
90.9997
 20
171.035
 11
91
 21
171
  0
LINE
  8
0
 10
91
 20
171
 11
90.9997
 21
170.965
  0
LINE
  8
0
 10
90.9997
 20
170.965
 11
90.9988
 21
170.93
  0
LINE
  8
0
 10
90.9988
 20
170.93
 11
90.9973
 21
170.895
  0
LINE
  8
0
 10
90.9973
 20
170.895
 11
90.9951
 21
170.86
  0
LINE
  8
0
 10
90.9951
 20
170.86
 11
90.9924
 21
170.826
  0
LINE
  8
0
 10
90.9924
 20
170.826
 11
90.989
 21
170.791
  0
LINE
  8
0
 10
90.989
 20
170.791
 11
90.9851
 21
170.756
  0
LINE
  8
0
 10
90.9851
 20
170.756
 11
90.9805
 21
170.722
  0
LINE
  8
0
 10
90.9805
 20
170.722
 11
90.9754
 21
170.687
  0
LINE
  8
0
 10
90.9754
 20
170.687
 11
90.9696
 21
170.653
  0
LINE
  8
0
 10
90.9696
 20
170.653
 11
90.9633
 21
170.618
  0
LINE
  8
0
 10
90.9633
 20
170.618
 11
90.9563
 21
170.584
  0
LINE
  8
0
 10
90.9563
 20
170.584
 11
90.9487
 21
170.55
  0
LINE
  8
0
 10
90.9487
 20
170.55
 11
90.9406
 21
170.516
  0
LINE
  8
0
 10
90.9406
 20
170.516
 11
90.9319
 21
170.482
  0
LINE
  8
0
 10
90.9319
 20
170.482
 11
90.9225
 21
170.449
  0
LINE
  8
0
 10
90.9225
 20
170.449
 11
90.9126
 21
170.415
  0
LINE
  8
0
 10
90.9126
 20
170.415
 11
90.9021
 21
170.382
  0
LINE
  8
0
 10
90.9021
 20
170.382
 11
90.891
 21
170.349
  0
LINE
  8
0
 10
90.891
 20
170.349
 11
90.8794
 21
170.316
  0
LINE
  8
0
 10
90.8794
 20
170.316
 11
90.8672
 21
170.283
  0
LINE
  8
0
 10
90.8672
 20
170.283
 11
90.8544
 21
170.251
  0
LINE
  8
0
 10
90.8544
 20
170.251
 11
90.841
 21
170.219
  0
LINE
  8
0
 10
90.841
 20
170.219
 11
90.8271
 21
170.187
  0
LINE
  8
0
 10
90.8271
 20
170.187
 11
90.8126
 21
170.155
  0
LINE
  8
0
 10
90.8126
 20
170.155
 11
90.7976
 21
170.123
  0
LINE
  8
0
 10
90.7976
 20
170.123
 11
90.782
 21
170.092
  0
LINE
  8
0
 10
90.782
 20
170.092
 11
90.7659
 21
170.061
  0
LINE
  8
0
 10
90.7659
 20
170.061
 11
90.7492
 21
170.03
  0
LINE
  8
0
 10
90.7492
 20
170.03
 11
90.732
 21
170
  0
LINE
  8
0
 10
90.732
 20
170
 11
90.7143
 21
169.97
  0
LINE
  8
0
 10
90.7143
 20
169.97
 11
90.6961
 21
169.94
  0
LINE
  8
0
 10
90.6961
 20
169.94
 11
90.6773
 21
169.911
  0
LINE
  8
0
 10
90.6773
 20
169.911
 11
90.6581
 21
169.882
  0
LINE
  8
0
 10
90.6581
 20
169.882
 11
90.6383
 21
169.853
  0
LINE
  8
0
 10
90.6383
 20
169.853
 11
90.618
 21
169.824
  0
LINE
  8
0
 10
90.618
 20
169.824
 11
90.5973
 21
169.796
  0
LINE
  8
0
 10
90.5973
 20
169.796
 11
90.576
 21
169.769
  0
LINE
  8
0
 10
90.576
 20
169.769
 11
90.5543
 21
169.741
  0
LINE
  8
0
 10
90.5543
 20
169.741
 11
90.5321
 21
169.714
  0
LINE
  8
0
 10
90.5321
 20
169.714
 11
90.5094
 21
169.688
  0
LINE
  8
0
 10
90.5094
 20
169.688
 11
90.4863
 21
169.662
  0
LINE
  8
0
 10
90.4863
 20
169.662
 11
90.4627
 21
169.636
  0
LINE
  8
0
 10
90.4627
 20
169.636
 11
90.4387
 21
169.611
  0
LINE
  8
0
 10
90.4387
 20
169.611
 11
90.4142
 21
169.586
  0
LINE
  8
0
 10
90.4142
 20
169.586
 11
90.3893
 21
169.561
  0
LINE
  8
0
 10
90.3893
 20
169.561
 11
90.364
 21
169.537
  0
LINE
  8
0
 10
90.364
 20
169.537
 11
90.3383
 21
169.514
  0
LINE
  8
0
 10
90.3383
 20
169.514
 11
90.3121
 21
169.491
  0
LINE
  8
0
 10
90.3121
 20
169.491
 11
90.2856
 21
169.468
  0
LINE
  8
0
 10
90.2856
 20
169.468
 11
90.2586
 21
169.446
  0
LINE
  8
0
 10
90.2586
 20
169.446
 11
90.2313
 21
169.424
  0
LINE
  8
0
 10
90.2313
 20
169.424
 11
90.2036
 21
169.403
  0
LINE
  8
0
 10
90.2036
 20
169.403
 11
90.1756
 21
169.382
  0
LINE
  8
0
 10
90.1756
 20
169.382
 11
90.1472
 21
169.362
  0
LINE
  8
0
 10
90.1472
 20
169.362
 11
90.1184
 21
169.342
  0
LINE
  8
0
 10
90.1184
 20
169.342
 11
90.0893
 21
169.323
  0
LINE
  8
0
 10
90.0893
 20
169.323
 11
90.0598
 21
169.304
  0
LINE
  8
0
 10
90.0598
 20
169.304
 11
90.0301
 21
169.286
  0
LINE
  8
0
 10
90.0301
 20
169.286
 11
90
 21
169.268
  0
LINE
  8
0
 10
90
 20
169.268
 11
89.9696
 21
169.251
  0
LINE
  8
0
 10
89.9696
 20
169.251
 11
89.9389
 21
169.234
  0
LINE
  8
0
 10
89.9389
 20
169.234
 11
89.908
 21
169.218
  0
LINE
  8
0
 10
89.908
 20
169.218
 11
89.8767
 21
169.202
  0
LINE
  8
0
 10
89.8767
 20
169.202
 11
89.8452
 21
169.187
  0
LINE
  8
0
 10
89.8452
 20
169.187
 11
89.8135
 21
169.173
  0
LINE
  8
0
 10
89.8135
 20
169.173
 11
89.7815
 21
169.159
  0
LINE
  8
0
 10
89.7815
 20
169.159
 11
89.7492
 21
169.146
  0
LINE
  8
0
 10
89.7492
 20
169.146
 11
89.7167
 21
169.133
  0
LINE
  8
0
 10
89.7167
 20
169.133
 11
89.684
 21
169.121
  0
LINE
  8
0
 10
89.684
 20
169.121
 11
89.6511
 21
169.109
  0
LINE
  8
0
 10
89.6511
 20
169.109
 11
89.618
 21
169.098
  0
LINE
  8
0
 10
89.618
 20
169.098
 11
89.5847
 21
169.087
  0
LINE
  8
0
 10
89.5847
 20
169.087
 11
89.5513
 21
169.077
  0
LINE
  8
0
 10
89.5513
 20
169.077
 11
89.5176
 21
169.068
  0
LINE
  8
0
 10
89.5176
 20
169.068
 11
89.4838
 21
169.059
  0
LINE
  8
0
 10
89.4838
 20
169.059
 11
89.4499
 21
169.051
  0
LINE
  8
0
 10
89.4499
 20
169.051
 11
89.4158
 21
169.044
  0
LINE
  8
0
 10
89.4158
 20
169.044
 11
89.3816
 21
169.037
  0
LINE
  8
0
 10
89.3816
 20
169.037
 11
89.3473
 21
169.03
  0
LINE
  8
0
 10
89.3473
 20
169.03
 11
89.3129
 21
169.025
  0
LINE
  8
0
 10
89.3129
 20
169.025
 11
89.2783
 21
169.019
  0
LINE
  8
0
 10
89.2783
 20
169.019
 11
89.2437
 21
169.015
  0
LINE
  8
0
 10
89.2437
 20
169.015
 11
89.2091
 21
169.011
  0
LINE
  8
0
 10
89.2091
 20
169.011
 11
89.1743
 21
169.008
  0
LINE
  8
0
 10
89.1743
 20
169.008
 11
89.1395
 21
169.005
  0
LINE
  8
0
 10
89.1395
 20
169.005
 11
89.1047
 21
169.003
  0
LINE
  8
0
 10
89.1047
 20
169.003
 11
89.0698
 21
169.001
  0
LINE
  8
0
 10
89.0698
 20
169.001
 11
89.0349
 21
169
  0
LINE
  8
0
 10
89.0349
 20
169
 11
89
 21
169
  0
LINE
  8
0
 10
89
 20
169
 11
88.9651
 21
169
  0
LINE
  8
0
 10
162
 20
40
 11
162
 21
160
  0
LINE
  8
0
 10
162
 20
160
 11
200
 21
160
  0
LINE
  8
0
 10
200
 20
160
 11
200
 21
40
  0
LINE
  8
0
 10
200
 20
40
 11
162
 21
40
  0
LINE
  8
0
 10
40
 20
40
 11
40
 21
160
  0
LINE
  8
0
 10
40
 20
160
 11
78
 21
160
  0
LINE
  8
0
 10
78
 20
160
 11
78
 21
40
  0
LINE
  8
0
 10
78
 20
40
 11
40
 21
40
  0
LINE
  8
0
 10
88.9651
 20
20.0003
 11
88.9302
 21
20.0012
  0
LINE
  8
0
 10
88.9302
 20
20.0012
 11
88.8953
 21
20.0027
  0
LINE
  8
0
 10
88.8953
 20
20.0027
 11
88.8605
 21
20.0049
  0
LINE
  8
0
 10
88.8605
 20
20.0049
 11
88.8257
 21
20.0076
  0
LINE
  8
0
 10
88.8257
 20
20.0076
 11
88.7909
 21
20.011
  0
LINE
  8
0
 10
88.7909
 20
20.011
 11
88.7563
 21
20.0149
  0
LINE
  8
0
 10
88.7563
 20
20.0149
 11
88.7216
 21
20.0195
  0
LINE
  8
0
 10
88.7216
 20
20.0195
 11
88.6871
 21
20.0246
  0
LINE
  8
0
 10
88.6871
 20
20.0246
 11
88.6527
 21
20.0304
  0
LINE
  8
0
 10
88.6527
 20
20.0304
 11
88.6184
 21
20.0367
  0
LINE
  8
0
 10
88.6184
 20
20.0367
 11
88.5842
 21
20.0437
  0
LINE
  8
0
 10
88.5842
 20
20.0437
 11
88.5501
 21
20.0513
  0
LINE
  8
0
 10
88.5501
 20
20.0513
 11
88.5162
 21
20.0594
  0
LINE
  8
0
 10
88.5162
 20
20.0594
 11
88.4824
 21
20.0681
  0
LINE
  8
0
 10
88.4824
 20
20.0681
 11
88.4487
 21
20.0775
  0
LINE
  8
0
 10
88.4487
 20
20.0775
 11
88.4153
 21
20.0874
  0
LINE
  8
0
 10
88.4153
 20
20.0874
 11
88.382
 21
20.0979
  0
LINE
  8
0
 10
88.382
 20
20.0979
 11
88.3489
 21
20.109
  0
LINE
  8
0
 10
88.3489
 20
20.109
 11
88.3159
 21
20.1206
  0
LINE
  8
0
 10
88.3159
 20
20.1206
 11
88.2833
 21
20.1328
  0
LINE
  8
0
 10
88.2833
 20
20.1328
 11
88.2508
 21
20.1456
  0
LINE
  8
0
 10
88.2508
 20
20.1456
 11
88.2185
 21
20.159
  0
LINE
  8
0
 10
88.2185
 20
20.159
 11
88.1865
 21
20.1729
  0
LINE
  8
0
 10
88.1865
 20
20.1729
 11
88.1548
 21
20.1874
  0
LINE
  8
0
 10
88.1548
 20
20.1874
 11
88.1233
 21
20.2024
  0
LINE
  8
0
 10
88.1233
 20
20.2024
 11
88.092
 21
20.218
  0
LINE
  8
0
 10
88.092
 20
20.218
 11
88.0611
 21
20.2341
  0
LINE
  8
0
 10
88.0611
 20
20.2341
 11
88.0304
 21
20.2507
  0
LINE
  8
0
 10
88.0304
 20
20.2507
 11
88
 21
20.2679
  0
LINE
  8
0
 10
88
 20
20.2679
 11
87.9699
 21
20.2857
  0
LINE
  8
0
 10
87.9699
 20
20.2857
 11
87.9402
 21
20.3039
  0
LINE
  8
0
 10
87.9402
 20
20.3039
 11
87.9107
 21
20.3226
  0
LINE
  8
0
 10
87.9107
 20
20.3226
 11
87.8816
 21
20.3419
  0
LINE
  8
0
 10
87.8816
 20
20.3419
 11
87.8528
 21
20.3617
  0
LINE
  8
0
 10
87.8528
 20
20.3617
 11
87.8244
 21
20.382
  0
LINE
  8
0
 10
87.8244
 20
20.382
 11
87.7964
 21
20.4027
  0
LINE
  8
0
 10
87.7964
 20
20.4027
 11
87.7687
 21
20.424
  0
LINE
  8
0
 10
87.7687
 20
20.424
 11
87.7413
 21
20.4457
  0
LINE
  8
0
 10
87.7413
 20
20.4457
 11
87.7144
 21
20.4679
  0
LINE
  8
0
 10
87.7144
 20
20.4679
 11
87.6879
 21
20.4906
  0
LINE
  8
0
 10
87.6879
 20
20.4906
 11
87.6617
 21
20.5137
  0
LINE
  8
0
 10
87.6617
 20
20.5137
 11
87.636
 21
20.5373
  0
LINE
  8
0
 10
87.636
 20
20.5373
 11
87.6107
 21
20.5613
  0
LINE
  8
0
 10
87.6107
 20
20.5613
 11
87.5858
 21
20.5858
  0
LINE
  8
0
 10
87.5858
 20
20.5858
 11
87.5613
 21
20.6107
  0
LINE
  8
0
 10
87.5613
 20
20.6107
 11
87.5373
 21
20.636
  0
LINE
  8
0
 10
87.5373
 20
20.636
 11
87.5137
 21
20.6617
  0
LINE
  8
0
 10
87.5137
 20
20.6617
 11
87.4906
 21
20.6879
  0
LINE
  8
0
 10
87.4906
 20
20.6879
 11
87.4679
 21
20.7144
  0
LINE
  8
0
 10
87.4679
 20
20.7144
 11
87.4457
 21
20.7413
  0
LINE
  8
0
 10
87.4457
 20
20.7413
 11
87.424
 21
20.7687
  0
LINE
  8
0
 10
87.424
 20
20.7687
 11
87.4027
 21
20.7964
  0
LINE
  8
0
 10
87.4027
 20
20.7964
 11
87.382
 21
20.8244
  0
LINE
  8
0
 10
87.382
 20
20.8244
 11
87.3617
 21
20.8528
  0
LINE
  8
0
 10
87.3617
 20
20.8528
 11
87.3419
 21
20.8816
  0
LINE
  8
0
 10
87.3419
 20
20.8816
 11
87.3227
 21
20.9107
  0
LINE
  8
0
 10
87.3227
 20
20.9107
 11
87.3039
 21
20.9402
  0
LINE
  8
0
 10
87.3039
 20
20.9402
 11
87.2857
 21
20.9699
  0
LINE
  8
0
 10
87.2857
 20
20.9699
 11
87.2679
 21
21
  0
LINE
  8
0
 10
87.2679
 20
21
 11
87.2508
 21
21.0304
  0
LINE
  8
0
 10
87.2508
 20
21.0304
 11
87.2341
 21
21.0611
  0
LINE
  8
0
 10
87.2341
 20
21.0611
 11
87.218
 21
21.092
  0
LINE
  8
0
 10
87.218
 20
21.092
 11
87.2024
 21
21.1232
  0
LINE
  8
0
 10
87.2024
 20
21.1232
 11
87.1874
 21
21.1548
  0
LINE
  8
0
 10
87.1874
 20
21.1548
 11
87.1729
 21
21.1865
  0
LINE
  8
0
 10
87.1729
 20
21.1865
 11
87.159
 21
21.2185
  0
LINE
  8
0
 10
87.159
 20
21.2185
 11
87.1456
 21
21.2508
  0
LINE
  8
0
 10
87.1456
 20
21.2508
 11
87.1328
 21
21.2833
  0
LINE
  8
0
 10
87.1328
 20
21.2833
 11
87.1206
 21
21.3159
  0
LINE
  8
0
 10
87.1206
 20
21.3159
 11
87.109
 21
21.3489
  0
LINE
  8
0
 10
87.109
 20
21.3489
 11
87.0979
 21
21.382
  0
LINE
  8
0
 10
87.0979
 20
21.382
 11
87.0874
 21
21.4153
  0
LINE
  8
0
 10
87.0874
 20
21.4153
 11
87.0775
 21
21.4487
  0
LINE
  8
0
 10
87.0775
 20
21.4487
 11
87.0681
 21
21.4824
  0
LINE
  8
0
 10
87.0681
 20
21.4824
 11
87.0594
 21
21.5161
  0
LINE
  8
0
 10
87.0594
 20
21.5161
 11
87.0513
 21
21.5501
  0
LINE
  8
0
 10
87.0513
 20
21.5501
 11
87.0437
 21
21.5842
  0
LINE
  8
0
 10
87.0437
 20
21.5842
 11
87.0367
 21
21.6184
  0
LINE
  8
0
 10
87.0367
 20
21.6184
 11
87.0304
 21
21.6527
  0
LINE
  8
0
 10
87.0304
 20
21.6527
 11
87.0246
 21
21.6871
  0
LINE
  8
0
 10
87.0246
 20
21.6871
 11
87.0195
 21
21.7216
  0
LINE
  8
0
 10
87.0195
 20
21.7216
 11
87.0149
 21
21.7563
  0
LINE
  8
0
 10
87.0149
 20
21.7563
 11
87.011
 21
21.7909
  0
LINE
  8
0
 10
87.011
 20
21.7909
 11
87.0076
 21
21.8257
  0
LINE
  8
0
 10
87.0076
 20
21.8257
 11
87.0049
 21
21.8605
  0
LINE
  8
0
 10
87.0049
 20
21.8605
 11
87.0027
 21
21.8953
  0
LINE
  8
0
 10
87.0027
 20
21.8953
 11
87.0012
 21
21.9302
  0
LINE
  8
0
 10
87.0012
 20
21.9302
 11
87.0003
 21
21.9651
  0
LINE
  8
0
 10
87.0003
 20
21.9651
 11
87
 21
22
  0
LINE
  8
0
 10
87
 20
22
 11
87.0003
 21
22.0349
  0
LINE
  8
0
 10
87.0003
 20
22.0349
 11
87.0012
 21
22.0698
  0
LINE
  8
0
 10
87.0012
 20
22.0698
 11
87.0027
 21
22.1047
  0
LINE
  8
0
 10
87.0027
 20
22.1047
 11
87.0049
 21
22.1395
  0
LINE
  8
0
 10
87.0049
 20
22.1395
 11
87.0076
 21
22.1743
  0
LINE
  8
0
 10
87.0076
 20
22.1743
 11
87.011
 21
22.209
  0
LINE
  8
0
 10
87.011
 20
22.209
 11
87.0149
 21
22.2437
  0
LINE
  8
0
 10
87.0149
 20
22.2437
 11
87.0195
 21
22.2783
  0
LINE
  8
0
 10
87.0195
 20
22.2783
 11
87.0246
 21
22.3129
  0
LINE
  8
0
 10
87.0246
 20
22.3129
 11
87.0304
 21
22.3473
  0
LINE
  8
0
 10
87.0304
 20
22.3473
 11
87.0367
 21
22.3816
  0
LINE
  8
0
 10
87.0367
 20
22.3816
 11
87.0437
 21
22.4158
  0
LINE
  8
0
 10
87.0437
 20
22.4158
 11
87.0513
 21
22.4499
  0
LINE
  8
0
 10
87.0513
 20
22.4499
 11
87.0594
 21
22.4838
  0
LINE
  8
0
 10
87.0594
 20
22.4838
 11
87.0681
 21
22.5176
  0
LINE
  8
0
 10
87.0681
 20
22.5176
 11
87.0775
 21
22.5513
  0
LINE
  8
0
 10
87.0775
 20
22.5513
 11
87.0874
 21
22.5847
  0
LINE
  8
0
 10
87.0874
 20
22.5847
 11
87.0979
 21
22.618
  0
LINE
  8
0
 10
87.0979
 20
22.618
 11
87.109
 21
22.6511
  0
LINE
  8
0
 10
87.109
 20
22.6511
 11
87.1206
 21
22.684
  0
LINE
  8
0
 10
87.1206
 20
22.684
 11
87.1328
 21
22.7167
  0
LINE
  8
0
 10
87.1328
 20
22.7167
 11
87.1456
 21
22.7492
  0
LINE
  8
0
 10
87.1456
 20
22.7492
 11
87.159
 21
22.7814
  0
LINE
  8
0
 10
87.159
 20
22.7814
 11
87.1729
 21
22.8135
  0
LINE
  8
0
 10
87.1729
 20
22.8135
 11
87.1874
 21
22.8452
  0
LINE
  8
0
 10
87.1874
 20
22.8452
 11
87.2024
 21
22.8767
  0
LINE
  8
0
 10
87.2024
 20
22.8767
 11
87.218
 21
22.908
  0
LINE
  8
0
 10
87.218
 20
22.908
 11
87.2341
 21
22.9389
  0
LINE
  8
0
 10
87.2341
 20
22.9389
 11
87.2508
 21
22.9696
  0
LINE
  8
0
 10
87.2508
 20
22.9696
 11
87.2679
 21
23
  0
LINE
  8
0
 10
87.2679
 20
23
 11
87.2857
 21
23.0301
  0
LINE
  8
0
 10
87.2857
 20
23.0301
 11
87.3039
 21
23.0598
  0
LINE
  8
0
 10
87.3039
 20
23.0598
 11
87.3227
 21
23.0893
  0
LINE
  8
0
 10
87.3227
 20
23.0893
 11
87.3419
 21
23.1184
  0
LINE
  8
0
 10
87.3419
 20
23.1184
 11
87.3617
 21
23.1471
  0
LINE
  8
0
 10
87.3617
 20
23.1471
 11
87.382
 21
23.1756
  0
LINE
  8
0
 10
87.382
 20
23.1756
 11
87.4027
 21
23.2036
  0
LINE
  8
0
 10
87.4027
 20
23.2036
 11
87.424
 21
23.2313
  0
LINE
  8
0
 10
87.424
 20
23.2313
 11
87.4457
 21
23.2586
  0
LINE
  8
0
 10
87.4457
 20
23.2586
 11
87.4679
 21
23.2856
  0
LINE
  8
0
 10
87.4679
 20
23.2856
 11
87.4906
 21
23.3121
  0
LINE
  8
0
 10
87.4906
 20
23.3121
 11
87.5137
 21
23.3383
  0
LINE
  8
0
 10
87.5137
 20
23.3383
 11
87.5373
 21
23.364
  0
LINE
  8
0
 10
87.5373
 20
23.364
 11
87.5613
 21
23.3893
  0
LINE
  8
0
 10
87.5613
 20
23.3893
 11
87.5858
 21
23.4142
  0
LINE
  8
0
 10
87.5858
 20
23.4142
 11
87.6107
 21
23.4387
  0
LINE
  8
0
 10
87.6107
 20
23.4387
 11
87.636
 21
23.4627
  0
LINE
  8
0
 10
87.636
 20
23.4627
 11
87.6617
 21
23.4863
  0
LINE
  8
0
 10
87.6617
 20
23.4863
 11
87.6879
 21
23.5094
  0
LINE
  8
0
 10
87.6879
 20
23.5094
 11
87.7144
 21
23.5321
  0
LINE
  8
0
 10
87.7144
 20
23.5321
 11
87.7413
 21
23.5543
  0
LINE
  8
0
 10
87.7413
 20
23.5543
 11
87.7687
 21
23.576
  0
LINE
  8
0
 10
87.7687
 20
23.576
 11
87.7964
 21
23.5973
  0
LINE
  8
0
 10
87.7964
 20
23.5973
 11
87.8244
 21
23.618
  0
LINE
  8
0
 10
87.8244
 20
23.618
 11
87.8528
 21
23.6383
  0
LINE
  8
0
 10
87.8528
 20
23.6383
 11
87.8816
 21
23.6581
  0
LINE
  8
0
 10
87.8816
 20
23.6581
 11
87.9107
 21
23.6773
  0
LINE
  8
0
 10
87.9107
 20
23.6773
 11
87.9402
 21
23.6961
  0
LINE
  8
0
 10
87.9402
 20
23.6961
 11
87.9699
 21
23.7143
  0
LINE
  8
0
 10
87.9699
 20
23.7143
 11
88
 21
23.732
  0
LINE
  8
0
 10
88
 20
23.732
 11
88.0304
 21
23.7492
  0
LINE
  8
0
 10
88.0304
 20
23.7492
 11
88.0611
 21
23.7659
  0
LINE
  8
0
 10
88.0611
 20
23.7659
 11
88.092
 21
23.782
  0
LINE
  8
0
 10
88.092
 20
23.782
 11
88.1233
 21
23.7976
  0
LINE
  8
0
 10
88.1233
 20
23.7976
 11
88.1548
 21
23.8126
  0
LINE
  8
0
 10
88.1548
 20
23.8126
 11
88.1865
 21
23.8271
  0
LINE
  8
0
 10
88.1865
 20
23.8271
 11
88.2185
 21
23.841
  0
LINE
  8
0
 10
88.2185
 20
23.841
 11
88.2508
 21
23.8544
  0
LINE
  8
0
 10
88.2508
 20
23.8544
 11
88.2833
 21
23.8672
  0
LINE
  8
0
 10
88.2833
 20
23.8672
 11
88.3159
 21
23.8794
  0
LINE
  8
0
 10
88.3159
 20
23.8794
 11
88.3489
 21
23.891
  0
LINE
  8
0
 10
88.3489
 20
23.891
 11
88.382
 21
23.9021
  0
LINE
  8
0
 10
88.382
 20
23.9021
 11
88.4153
 21
23.9126
  0
LINE
  8
0
 10
88.4153
 20
23.9126
 11
88.4487
 21
23.9225
  0
LINE
  8
0
 10
88.4487
 20
23.9225
 11
88.4824
 21
23.9318
  0
LINE
  8
0
 10
88.4824
 20
23.9318
 11
88.5162
 21
23.9406
  0
LINE
  8
0
 10
88.5162
 20
23.9406
 11
88.5501
 21
23.9487
  0
LINE
  8
0
 10
88.5501
 20
23.9487
 11
88.5842
 21
23.9563
  0
LINE
  8
0
 10
88.5842
 20
23.9563
 11
88.6184
 21
23.9632
  0
LINE
  8
0
 10
88.6184
 20
23.9632
 11
88.6527
 21
23.9696
  0
LINE
  8
0
 10
88.6527
 20
23.9696
 11
88.6871
 21
23.9754
  0
LINE
  8
0
 10
88.6871
 20
23.9754
 11
88.7216
 21
23.9805
  0
LINE
  8
0
 10
88.7216
 20
23.9805
 11
88.7563
 21
23.9851
  0
LINE
  8
0
 10
88.7563
 20
23.9851
 11
88.7909
 21
23.989
  0
LINE
  8
0
 10
88.7909
 20
23.989
 11
88.8257
 21
23.9924
  0
LINE
  8
0
 10
88.8257
 20
23.9924
 11
88.8605
 21
23.9951
  0
LINE
  8
0
 10
88.8605
 20
23.9951
 11
88.8953
 21
23.9973
  0
LINE
  8
0
 10
88.8953
 20
23.9973
 11
88.9302
 21
23.9988
  0
LINE
  8
0
 10
88.9302
 20
23.9988
 11
88.9651
 21
23.9997
  0
LINE
  8
0
 10
88.9651
 20
23.9997
 11
89
 21
24
  0
LINE
  8
0
 10
89
 20
24
 11
89.0349
 21
23.9997
  0
LINE
  8
0
 10
89.0349
 20
23.9997
 11
89.0698
 21
23.9988
  0
LINE
  8
0
 10
89.0698
 20
23.9988
 11
89.1047
 21
23.9973
  0
LINE
  8
0
 10
89.1047
 20
23.9973
 11
89.1395
 21
23.9951
  0
LINE
  8
0
 10
89.1395
 20
23.9951
 11
89.1743
 21
23.9924
  0
LINE
  8
0
 10
89.1743
 20
23.9924
 11
89.2091
 21
23.989
  0
LINE
  8
0
 10
89.2091
 20
23.989
 11
89.2437
 21
23.9851
  0
LINE
  8
0
 10
89.2437
 20
23.9851
 11
89.2783
 21
23.9805
  0
LINE
  8
0
 10
89.2783
 20
23.9805
 11
89.3129
 21
23.9754
  0
LINE
  8
0
 10
89.3129
 20
23.9754
 11
89.3473
 21
23.9696
  0
LINE
  8
0
 10
89.3473
 20
23.9696
 11
89.3816
 21
23.9632
  0
LINE
  8
0
 10
89.3816
 20
23.9632
 11
89.4158
 21
23.9563
  0
LINE
  8
0
 10
89.4158
 20
23.9563
 11
89.4499
 21
23.9487
  0
LINE
  8
0
 10
89.4499
 20
23.9487
 11
89.4838
 21
23.9406
  0
LINE
  8
0
 10
89.4838
 20
23.9406
 11
89.5176
 21
23.9318
  0
LINE
  8
0
 10
89.5176
 20
23.9318
 11
89.5513
 21
23.9225
  0
LINE
  8
0
 10
89.5513
 20
23.9225
 11
89.5847
 21
23.9126
  0
LINE
  8
0
 10
89.5847
 20
23.9126
 11
89.618
 21
23.9021
  0
LINE
  8
0
 10
89.618
 20
23.9021
 11
89.6511
 21
23.891
  0
LINE
  8
0
 10
89.6511
 20
23.891
 11
89.684
 21
23.8794
  0
LINE
  8
0
 10
89.684
 20
23.8794
 11
89.7167
 21
23.8672
  0
LINE
  8
0
 10
89.7167
 20
23.8672
 11
89.7492
 21
23.8544
  0
LINE
  8
0
 10
89.7492
 20
23.8544
 11
89.7815
 21
23.841
  0
LINE
  8
0
 10
89.7815
 20
23.841
 11
89.8135
 21
23.8271
  0
LINE
  8
0
 10
89.8135
 20
23.8271
 11
89.8452
 21
23.8126
  0
LINE
  8
0
 10
89.8452
 20
23.8126
 11
89.8767
 21
23.7976
  0
LINE
  8
0
 10
89.8767
 20
23.7976
 11
89.908
 21
23.782
  0
LINE
  8
0
 10
89.908
 20
23.782
 11
89.9389
 21
23.7659
  0
LINE
  8
0
 10
89.9389
 20
23.7659
 11
89.9696
 21
23.7492
  0
LINE
  8
0
 10
89.9696
 20
23.7492
 11
90
 21
23.732
  0
LINE
  8
0
 10
90
 20
23.732
 11
90.0301
 21
23.7143
  0
LINE
  8
0
 10
90.0301
 20
23.7143
 11
90.0598
 21
23.6961
  0
LINE
  8
0
 10
90.0598
 20
23.6961
 11
90.0893
 21
23.6773
  0
LINE
  8
0
 10
90.0893
 20
23.6773
 11
90.1184
 21
23.6581
  0
LINE
  8
0
 10
90.1184
 20
23.6581
 11
90.1472
 21
23.6383
  0
LINE
  8
0
 10
90.1472
 20
23.6383
 11
90.1756
 21
23.618
  0
LINE
  8
0
 10
90.1756
 20
23.618
 11
90.2036
 21
23.5973
  0
LINE
  8
0
 10
90.2036
 20
23.5973
 11
90.2313
 21
23.576
  0
LINE
  8
0
 10
90.2313
 20
23.576
 11
90.2586
 21
23.5543
  0
LINE
  8
0
 10
90.2586
 20
23.5543
 11
90.2856
 21
23.5321
  0
LINE
  8
0
 10
90.2856
 20
23.5321
 11
90.3121
 21
23.5094
  0
LINE
  8
0
 10
90.3121
 20
23.5094
 11
90.3383
 21
23.4863
  0
LINE
  8
0
 10
90.3383
 20
23.4863
 11
90.364
 21
23.4627
  0
LINE
  8
0
 10
90.364
 20
23.4627
 11
90.3893
 21
23.4387
  0
LINE
  8
0
 10
90.3893
 20
23.4387
 11
90.4142
 21
23.4142
  0
LINE
  8
0
 10
90.4142
 20
23.4142
 11
90.4387
 21
23.3893
  0
LINE
  8
0
 10
90.4387
 20
23.3893
 11
90.4627
 21
23.364
  0
LINE
  8
0
 10
90.4627
 20
23.364
 11
90.4863
 21
23.3383
  0
LINE
  8
0
 10
90.4863
 20
23.3383
 11
90.5094
 21
23.3121
  0
LINE
  8
0
 10
90.5094
 20
23.3121
 11
90.5321
 21
23.2856
  0
LINE
  8
0
 10
90.5321
 20
23.2856
 11
90.5543
 21
23.2586
  0
LINE
  8
0
 10
90.5543
 20
23.2586
 11
90.576
 21
23.2313
  0
LINE
  8
0
 10
90.576
 20
23.2313
 11
90.5973
 21
23.2036
  0
LINE
  8
0
 10
90.5973
 20
23.2036
 11
90.618
 21
23.1756
  0
LINE
  8
0
 10
90.618
 20
23.1756
 11
90.6383
 21
23.1471
  0
LINE
  8
0
 10
90.6383
 20
23.1471
 11
90.6581
 21
23.1184
  0
LINE
  8
0
 10
90.6581
 20
23.1184
 11
90.6773
 21
23.0893
  0
LINE
  8
0
 10
90.6773
 20
23.0893
 11
90.6961
 21
23.0598
  0
LINE
  8
0
 10
90.6961
 20
23.0598
 11
90.7143
 21
23.0301
  0
LINE
  8
0
 10
90.7143
 20
23.0301
 11
90.732
 21
23
  0
LINE
  8
0
 10
90.732
 20
23
 11
90.7492
 21
22.9696
  0
LINE
  8
0
 10
90.7492
 20
22.9696
 11
90.7659
 21
22.9389
  0
LINE
  8
0
 10
90.7659
 20
22.9389
 11
90.782
 21
22.908
  0
LINE
  8
0
 10
90.782
 20
22.908
 11
90.7976
 21
22.8767
  0
LINE
  8
0
 10
90.7976
 20
22.8767
 11
90.8126
 21
22.8452
  0
LINE
  8
0
 10
90.8126
 20
22.8452
 11
90.8271
 21
22.8135
  0
LINE
  8
0
 10
90.8271
 20
22.8135
 11
90.841
 21
22.7814
  0
LINE
  8
0
 10
90.841
 20
22.7814
 11
90.8544
 21
22.7492
  0
LINE
  8
0
 10
90.8544
 20
22.7492
 11
90.8672
 21
22.7167
  0
LINE
  8
0
 10
90.8672
 20
22.7167
 11
90.8794
 21
22.684
  0
LINE
  8
0
 10
90.8794
 20
22.684
 11
90.891
 21
22.6511
  0
LINE
  8
0
 10
90.891
 20
22.6511
 11
90.9021
 21
22.618
  0
LINE
  8
0
 10
90.9021
 20
22.618
 11
90.9126
 21
22.5847
  0
LINE
  8
0
 10
90.9126
 20
22.5847
 11
90.9225
 21
22.5513
  0
LINE
  8
0
 10
90.9225
 20
22.5513
 11
90.9319
 21
22.5176
  0
LINE
  8
0
 10
90.9319
 20
22.5176
 11
90.9406
 21
22.4838
  0
LINE
  8
0
 10
90.9406
 20
22.4838
 11
90.9487
 21
22.4499
  0
LINE
  8
0
 10
90.9487
 20
22.4499
 11
90.9563
 21
22.4158
  0
LINE
  8
0
 10
90.9563
 20
22.4158
 11
90.9633
 21
22.3816
  0
LINE
  8
0
 10
90.9633
 20
22.3816
 11
90.9696
 21
22.3473
  0
LINE
  8
0
 10
90.9696
 20
22.3473
 11
90.9754
 21
22.3129
  0
LINE
  8
0
 10
90.9754
 20
22.3129
 11
90.9805
 21
22.2783
  0
LINE
  8
0
 10
90.9805
 20
22.2783
 11
90.9851
 21
22.2437
  0
LINE
  8
0
 10
90.9851
 20
22.2437
 11
90.989
 21
22.209
  0
LINE
  8
0
 10
90.989
 20
22.209
 11
90.9924
 21
22.1743
  0
LINE
  8
0
 10
90.9924
 20
22.1743
 11
90.9951
 21
22.1395
  0
LINE
  8
0
 10
90.9951
 20
22.1395
 11
90.9973
 21
22.1047
  0
LINE
  8
0
 10
90.9973
 20
22.1047
 11
90.9988
 21
22.0698
  0
LINE
  8
0
 10
90.9988
 20
22.0698
 11
90.9997
 21
22.0349
  0
LINE
  8
0
 10
90.9997
 20
22.0349
 11
91
 21
22
  0
LINE
  8
0
 10
91
 20
22
 11
90.9997
 21
21.9651
  0
LINE
  8
0
 10
90.9997
 20
21.9651
 11
90.9988
 21
21.9302
  0
LINE
  8
0
 10
90.9988
 20
21.9302
 11
90.9973
 21
21.8953
  0
LINE
  8
0
 10
90.9973
 20
21.8953
 11
90.9951
 21
21.8605
  0
LINE
  8
0
 10
90.9951
 20
21.8605
 11
90.9924
 21
21.8257
  0
LINE
  8
0
 10
90.9924
 20
21.8257
 11
90.989
 21
21.7909
  0
LINE
  8
0
 10
90.989
 20
21.7909
 11
90.9851
 21
21.7563
  0
LINE
  8
0
 10
90.9851
 20
21.7563
 11
90.9805
 21
21.7216
  0
LINE
  8
0
 10
90.9805
 20
21.7216
 11
90.9754
 21
21.6871
  0
LINE
  8
0
 10
90.9754
 20
21.6871
 11
90.9696
 21
21.6527
  0
LINE
  8
0
 10
90.9696
 20
21.6527
 11
90.9633
 21
21.6184
  0
LINE
  8
0
 10
90.9633
 20
21.6184
 11
90.9563
 21
21.5842
  0
LINE
  8
0
 10
90.9563
 20
21.5842
 11
90.9487
 21
21.5501
  0
LINE
  8
0
 10
90.9487
 20
21.5501
 11
90.9406
 21
21.5161
  0
LINE
  8
0
 10
90.9406
 20
21.5161
 11
90.9319
 21
21.4824
  0
LINE
  8
0
 10
90.9319
 20
21.4824
 11
90.9225
 21
21.4487
  0
LINE
  8
0
 10
90.9225
 20
21.4487
 11
90.9126
 21
21.4153
  0
LINE
  8
0
 10
90.9126
 20
21.4153
 11
90.9021
 21
21.382
  0
LINE
  8
0
 10
90.9021
 20
21.382
 11
90.891
 21
21.3489
  0
LINE
  8
0
 10
90.891
 20
21.3489
 11
90.8794
 21
21.3159
  0
LINE
  8
0
 10
90.8794
 20
21.3159
 11
90.8672
 21
21.2833
  0
LINE
  8
0
 10
90.8672
 20
21.2833
 11
90.8544
 21
21.2508
  0
LINE
  8
0
 10
90.8544
 20
21.2508
 11
90.841
 21
21.2185
  0
LINE
  8
0
 10
90.841
 20
21.2185
 11
90.8271
 21
21.1865
  0
LINE
  8
0
 10
90.8271
 20
21.1865
 11
90.8126
 21
21.1548
  0
LINE
  8
0
 10
90.8126
 20
21.1548
 11
90.7976
 21
21.1232
  0
LINE
  8
0
 10
90.7976
 20
21.1232
 11
90.782
 21
21.092
  0
LINE
  8
0
 10
90.782
 20
21.092
 11
90.7659
 21
21.0611
  0
LINE
  8
0
 10
90.7659
 20
21.0611
 11
90.7492
 21
21.0304
  0
LINE
  8
0
 10
90.7492
 20
21.0304
 11
90.732
 21
21
  0
LINE
  8
0
 10
90.732
 20
21
 11
90.7143
 21
20.9699
  0
LINE
  8
0
 10
90.7143
 20
20.9699
 11
90.6961
 21
20.9402
  0
LINE
  8
0
 10
90.6961
 20
20.9402
 11
90.6773
 21
20.9107
  0
LINE
  8
0
 10
90.6773
 20
20.9107
 11
90.6581
 21
20.8816
  0
LINE
  8
0
 10
90.6581
 20
20.8816
 11
90.6383
 21
20.8528
  0
LINE
  8
0
 10
90.6383
 20
20.8528
 11
90.618
 21
20.8244
  0
LINE
  8
0
 10
90.618
 20
20.8244
 11
90.5973
 21
20.7964
  0
LINE
  8
0
 10
90.5973
 20
20.7964
 11
90.576
 21
20.7687
  0
LINE
  8
0
 10
90.576
 20
20.7687
 11
90.5543
 21
20.7413
  0
LINE
  8
0
 10
90.5543
 20
20.7413
 11
90.5321
 21
20.7144
  0
LINE
  8
0
 10
90.5321
 20
20.7144
 11
90.5094
 21
20.6879
  0
LINE
  8
0
 10
90.5094
 20
20.6879
 11
90.4863
 21
20.6617
  0
LINE
  8
0
 10
90.4863
 20
20.6617
 11
90.4627
 21
20.636
  0
LINE
  8
0
 10
90.4627
 20
20.636
 11
90.4387
 21
20.6107
  0
LINE
  8
0
 10
90.4387
 20
20.6107
 11
90.4142
 21
20.5858
  0
LINE
  8
0
 10
90.4142
 20
20.5858
 11
90.3893
 21
20.5613
  0
LINE
  8
0
 10
90.3893
 20
20.5613
 11
90.364
 21
20.5373
  0
LINE
  8
0
 10
90.364
 20
20.5373
 11
90.3383
 21
20.5137
  0
LINE
  8
0
 10
90.3383
 20
20.5137
 11
90.3121
 21
20.4906
  0
LINE
  8
0
 10
90.3121
 20
20.4906
 11
90.2856
 21
20.4679
  0
LINE
  8
0
 10
90.2856
 20
20.4679
 11
90.2586
 21
20.4457
  0
LINE
  8
0
 10
90.2586
 20
20.4457
 11
90.2313
 21
20.424
  0
LINE
  8
0
 10
90.2313
 20
20.424
 11
90.2036
 21
20.4027
  0
LINE
  8
0
 10
90.2036
 20
20.4027
 11
90.1756
 21
20.382
  0
LINE
  8
0
 10
90.1756
 20
20.382
 11
90.1472
 21
20.3617
  0
LINE
  8
0
 10
90.1472
 20
20.3617
 11
90.1184
 21
20.3419
  0
LINE
  8
0
 10
90.1184
 20
20.3419
 11
90.0893
 21
20.3226
  0
LINE
  8
0
 10
90.0893
 20
20.3226
 11
90.0598
 21
20.3039
  0
LINE
  8
0
 10
90.0598
 20
20.3039
 11
90.0301
 21
20.2857
  0
LINE
  8
0
 10
90.0301
 20
20.2857
 11
90
 21
20.2679
  0
LINE
  8
0
 10
90
 20
20.2679
 11
89.9696
 21
20.2507
  0
LINE
  8
0
 10
89.9696
 20
20.2507
 11
89.9389
 21
20.2341
  0
LINE
  8
0
 10
89.9389
 20
20.2341
 11
89.908
 21
20.218
  0
LINE
  8
0
 10
89.908
 20
20.218
 11
89.8767
 21
20.2024
  0
LINE
  8
0
 10
89.8767
 20
20.2024
 11
89.8452
 21
20.1874
  0
LINE
  8
0
 10
89.8452
 20
20.1874
 11
89.8135
 21
20.1729
  0
LINE
  8
0
 10
89.8135
 20
20.1729
 11
89.7815
 21
20.159
  0
LINE
  8
0
 10
89.7815
 20
20.159
 11
89.7492
 21
20.1456
  0
LINE
  8
0
 10
89.7492
 20
20.1456
 11
89.7167
 21
20.1328
  0
LINE
  8
0
 10
89.7167
 20
20.1328
 11
89.684
 21
20.1206
  0
LINE
  8
0
 10
89.684
 20
20.1206
 11
89.6511
 21
20.109
  0
LINE
  8
0
 10
89.6511
 20
20.109
 11
89.618
 21
20.0979
  0
LINE
  8
0
 10
89.618
 20
20.0979
 11
89.5847
 21
20.0874
  0
LINE
  8
0
 10
89.5847
 20
20.0874
 11
89.5513
 21
20.0775
  0
LINE
  8
0
 10
89.5513
 20
20.0775
 11
89.5176
 21
20.0681
  0
LINE
  8
0
 10
89.5176
 20
20.0681
 11
89.4838
 21
20.0594
  0
LINE
  8
0
 10
89.4838
 20
20.0594
 11
89.4499
 21
20.0513
  0
LINE
  8
0
 10
89.4499
 20
20.0513
 11
89.4158
 21
20.0437
  0
LINE
  8
0
 10
89.4158
 20
20.0437
 11
89.3816
 21
20.0367
  0
LINE
  8
0
 10
89.3816
 20
20.0367
 11
89.3473
 21
20.0304
  0
LINE
  8
0
 10
89.3473
 20
20.0304
 11
89.3129
 21
20.0246
  0
LINE
  8
0
 10
89.3129
 20
20.0246
 11
89.2783
 21
20.0195
  0
LINE
  8
0
 10
89.2783
 20
20.0195
 11
89.2437
 21
20.0149
  0
LINE
  8
0
 10
89.2437
 20
20.0149
 11
89.2091
 21
20.011
  0
LINE
  8
0
 10
89.2091
 20
20.011
 11
89.1743
 21
20.0076
  0
LINE
  8
0
 10
89.1743
 20
20.0076
 11
89.1395
 21
20.0049
  0
LINE
  8
0
 10
89.1395
 20
20.0049
 11
89.1047
 21
20.0027
  0
LINE
  8
0
 10
89.1047
 20
20.0027
 11
89.0698
 21
20.0012
  0
LINE
  8
0
 10
89.0698
 20
20.0012
 11
89.0349
 21
20.0003
  0
LINE
  8
0
 10
89.0349
 20
20.0003
 11
89
 21
20
  0
LINE
  8
0
 10
89
 20
20
 11
88.9651
 21
20.0003
  0
LINE
  8
0
 10
150.965
 20
20.0003
 11
150.93
 21
20.0012
  0
LINE
  8
0
 10
150.93
 20
20.0012
 11
150.895
 21
20.0027
  0
LINE
  8
0
 10
150.895
 20
20.0027
 11
150.86
 21
20.0049
  0
LINE
  8
0
 10
150.86
 20
20.0049
 11
150.826
 21
20.0076
  0
LINE
  8
0
 10
150.826
 20
20.0076
 11
150.791
 21
20.011
  0
LINE
  8
0
 10
150.791
 20
20.011
 11
150.756
 21
20.0149
  0
LINE
  8
0
 10
150.756
 20
20.0149
 11
150.722
 21
20.0195
  0
LINE
  8
0
 10
150.722
 20
20.0195
 11
150.687
 21
20.0246
  0
LINE
  8
0
 10
150.687
 20
20.0246
 11
150.653
 21
20.0304
  0
LINE
  8
0
 10
150.653
 20
20.0304
 11
150.618
 21
20.0367
  0
LINE
  8
0
 10
150.618
 20
20.0367
 11
150.584
 21
20.0437
  0
LINE
  8
0
 10
150.584
 20
20.0437
 11
150.55
 21
20.0513
  0
LINE
  8
0
 10
150.55
 20
20.0513
 11
150.516
 21
20.0594
  0
LINE
  8
0
 10
150.516
 20
20.0594
 11
150.482
 21
20.0681
  0
LINE
  8
0
 10
150.482
 20
20.0681
 11
150.449
 21
20.0775
  0
LINE
  8
0
 10
150.449
 20
20.0775
 11
150.415
 21
20.0874
  0
LINE
  8
0
 10
150.415
 20
20.0874
 11
150.382
 21
20.0979
  0
LINE
  8
0
 10
150.382
 20
20.0979
 11
150.349
 21
20.109
  0
LINE
  8
0
 10
150.349
 20
20.109
 11
150.316
 21
20.1206
  0
LINE
  8
0
 10
150.316
 20
20.1206
 11
150.283
 21
20.1328
  0
LINE
  8
0
 10
150.283
 20
20.1328
 11
150.251
 21
20.1456
  0
LINE
  8
0
 10
150.251
 20
20.1456
 11
150.219
 21
20.159
  0
LINE
  8
0
 10
150.219
 20
20.159
 11
150.187
 21
20.1729
  0
LINE
  8
0
 10
150.187
 20
20.1729
 11
150.155
 21
20.1874
  0
LINE
  8
0
 10
150.155
 20
20.1874
 11
150.123
 21
20.2024
  0
LINE
  8
0
 10
150.123
 20
20.2024
 11
150.092
 21
20.218
  0
LINE
  8
0
 10
150.092
 20
20.218
 11
150.061
 21
20.2341
  0
LINE
  8
0
 10
150.061
 20
20.2341
 11
150.03
 21
20.2507
  0
LINE
  8
0
 10
150.03
 20
20.2507
 11
150
 21
20.2679
  0
LINE
  8
0
 10
150
 20
20.2679
 11
149.97
 21
20.2857
  0
LINE
  8
0
 10
149.97
 20
20.2857
 11
149.94
 21
20.3039
  0
LINE
  8
0
 10
149.94
 20
20.3039
 11
149.911
 21
20.3226
  0
LINE
  8
0
 10
149.911
 20
20.3226
 11
149.882
 21
20.3419
  0
LINE
  8
0
 10
149.882
 20
20.3419
 11
149.853
 21
20.3617
  0
LINE
  8
0
 10
149.853
 20
20.3617
 11
149.824
 21
20.382
  0
LINE
  8
0
 10
149.824
 20
20.382
 11
149.796
 21
20.4027
  0
LINE
  8
0
 10
149.796
 20
20.4027
 11
149.769
 21
20.424
  0
LINE
  8
0
 10
149.769
 20
20.424
 11
149.741
 21
20.4457
  0
LINE
  8
0
 10
149.741
 20
20.4457
 11
149.714
 21
20.4679
  0
LINE
  8
0
 10
149.714
 20
20.4679
 11
149.688
 21
20.4906
  0
LINE
  8
0
 10
149.688
 20
20.4906
 11
149.662
 21
20.5137
  0
LINE
  8
0
 10
149.662
 20
20.5137
 11
149.636
 21
20.5373
  0
LINE
  8
0
 10
149.636
 20
20.5373
 11
149.611
 21
20.5613
  0
LINE
  8
0
 10
149.611
 20
20.5613
 11
149.586
 21
20.5858
  0
LINE
  8
0
 10
149.586
 20
20.5858
 11
149.561
 21
20.6107
  0
LINE
  8
0
 10
149.561
 20
20.6107
 11
149.537
 21
20.636
  0
LINE
  8
0
 10
149.537
 20
20.636
 11
149.514
 21
20.6617
  0
LINE
  8
0
 10
149.514
 20
20.6617
 11
149.491
 21
20.6879
  0
LINE
  8
0
 10
149.491
 20
20.6879
 11
149.468
 21
20.7144
  0
LINE
  8
0
 10
149.468
 20
20.7144
 11
149.446
 21
20.7413
  0
LINE
  8
0
 10
149.446
 20
20.7413
 11
149.424
 21
20.7687
  0
LINE
  8
0
 10
149.424
 20
20.7687
 11
149.403
 21
20.7964
  0
LINE
  8
0
 10
149.403
 20
20.7964
 11
149.382
 21
20.8244
  0
LINE
  8
0
 10
149.382
 20
20.8244
 11
149.362
 21
20.8528
  0
LINE
  8
0
 10
149.362
 20
20.8528
 11
149.342
 21
20.8816
  0
LINE
  8
0
 10
149.342
 20
20.8816
 11
149.323
 21
20.9107
  0
LINE
  8
0
 10
149.323
 20
20.9107
 11
149.304
 21
20.9402
  0
LINE
  8
0
 10
149.304
 20
20.9402
 11
149.286
 21
20.9699
  0
LINE
  8
0
 10
149.286
 20
20.9699
 11
149.268
 21
21
  0
LINE
  8
0
 10
149.268
 20
21
 11
149.251
 21
21.0304
  0
LINE
  8
0
 10
149.251
 20
21.0304
 11
149.234
 21
21.0611
  0
LINE
  8
0
 10
149.234
 20
21.0611
 11
149.218
 21
21.092
  0
LINE
  8
0
 10
149.218
 20
21.092
 11
149.202
 21
21.1232
  0
LINE
  8
0
 10
149.202
 20
21.1232
 11
149.187
 21
21.1548
  0
LINE
  8
0
 10
149.187
 20
21.1548
 11
149.173
 21
21.1865
  0
LINE
  8
0
 10
149.173
 20
21.1865
 11
149.159
 21
21.2185
  0
LINE
  8
0
 10
149.159
 20
21.2185
 11
149.146
 21
21.2508
  0
LINE
  8
0
 10
149.146
 20
21.2508
 11
149.133
 21
21.2833
  0
LINE
  8
0
 10
149.133
 20
21.2833
 11
149.121
 21
21.3159
  0
LINE
  8
0
 10
149.121
 20
21.3159
 11
149.109
 21
21.3489
  0
LINE
  8
0
 10
149.109
 20
21.3489
 11
149.098
 21
21.382
  0
LINE
  8
0
 10
149.098
 20
21.382
 11
149.087
 21
21.4153
  0
LINE
  8
0
 10
149.087
 20
21.4153
 11
149.077
 21
21.4487
  0
LINE
  8
0
 10
149.077
 20
21.4487
 11
149.068
 21
21.4824
  0
LINE
  8
0
 10
149.068
 20
21.4824
 11
149.059
 21
21.5161
  0
LINE
  8
0
 10
149.059
 20
21.5161
 11
149.051
 21
21.5501
  0
LINE
  8
0
 10
149.051
 20
21.5501
 11
149.044
 21
21.5842
  0
LINE
  8
0
 10
149.044
 20
21.5842
 11
149.037
 21
21.6184
  0
LINE
  8
0
 10
149.037
 20
21.6184
 11
149.03
 21
21.6527
  0
LINE
  8
0
 10
149.03
 20
21.6527
 11
149.025
 21
21.6871
  0
LINE
  8
0
 10
149.025
 20
21.6871
 11
149.019
 21
21.7216
  0
LINE
  8
0
 10
149.019
 20
21.7216
 11
149.015
 21
21.7563
  0
LINE
  8
0
 10
149.015
 20
21.7563
 11
149.011
 21
21.7909
  0
LINE
  8
0
 10
149.011
 20
21.7909
 11
149.008
 21
21.8257
  0
LINE
  8
0
 10
149.008
 20
21.8257
 11
149.005
 21
21.8605
  0
LINE
  8
0
 10
149.005
 20
21.8605
 11
149.003
 21
21.8953
  0
LINE
  8
0
 10
149.003
 20
21.8953
 11
149.001
 21
21.9302
  0
LINE
  8
0
 10
149.001
 20
21.9302
 11
149
 21
21.9651
  0
LINE
  8
0
 10
149
 20
21.9651
 11
149
 21
22
  0
LINE
  8
0
 10
149
 20
22
 11
149
 21
22.0349
  0
LINE
  8
0
 10
149
 20
22.0349
 11
149.001
 21
22.0698
  0
LINE
  8
0
 10
149.001
 20
22.0698
 11
149.003
 21
22.1047
  0
LINE
  8
0
 10
149.003
 20
22.1047
 11
149.005
 21
22.1395
  0
LINE
  8
0
 10
149.005
 20
22.1395
 11
149.008
 21
22.1743
  0
LINE
  8
0
 10
149.008
 20
22.1743
 11
149.011
 21
22.209
  0
LINE
  8
0
 10
149.011
 20
22.209
 11
149.015
 21
22.2437
  0
LINE
  8
0
 10
149.015
 20
22.2437
 11
149.019
 21
22.2783
  0
LINE
  8
0
 10
149.019
 20
22.2783
 11
149.025
 21
22.3129
  0
LINE
  8
0
 10
149.025
 20
22.3129
 11
149.03
 21
22.3473
  0
LINE
  8
0
 10
149.03
 20
22.3473
 11
149.037
 21
22.3816
  0
LINE
  8
0
 10
149.037
 20
22.3816
 11
149.044
 21
22.4158
  0
LINE
  8
0
 10
149.044
 20
22.4158
 11
149.051
 21
22.4499
  0
LINE
  8
0
 10
149.051
 20
22.4499
 11
149.059
 21
22.4838
  0
LINE
  8
0
 10
149.059
 20
22.4838
 11
149.068
 21
22.5176
  0
LINE
  8
0
 10
149.068
 20
22.5176
 11
149.077
 21
22.5513
  0
LINE
  8
0
 10
149.077
 20
22.5513
 11
149.087
 21
22.5847
  0
LINE
  8
0
 10
149.087
 20
22.5847
 11
149.098
 21
22.618
  0
LINE
  8
0
 10
149.098
 20
22.618
 11
149.109
 21
22.6511
  0
LINE
  8
0
 10
149.109
 20
22.6511
 11
149.121
 21
22.684
  0
LINE
  8
0
 10
149.121
 20
22.684
 11
149.133
 21
22.7167
  0
LINE
  8
0
 10
149.133
 20
22.7167
 11
149.146
 21
22.7492
  0
LINE
  8
0
 10
149.146
 20
22.7492
 11
149.159
 21
22.7814
  0
LINE
  8
0
 10
149.159
 20
22.7814
 11
149.173
 21
22.8135
  0
LINE
  8
0
 10
149.173
 20
22.8135
 11
149.187
 21
22.8452
  0
LINE
  8
0
 10
149.187
 20
22.8452
 11
149.202
 21
22.8767
  0
LINE
  8
0
 10
149.202
 20
22.8767
 11
149.218
 21
22.908
  0
LINE
  8
0
 10
149.218
 20
22.908
 11
149.234
 21
22.9389
  0
LINE
  8
0
 10
149.234
 20
22.9389
 11
149.251
 21
22.9696
  0
LINE
  8
0
 10
149.251
 20
22.9696
 11
149.268
 21
23
  0
LINE
  8
0
 10
149.268
 20
23
 11
149.286
 21
23.0301
  0
LINE
  8
0
 10
149.286
 20
23.0301
 11
149.304
 21
23.0598
  0
LINE
  8
0
 10
149.304
 20
23.0598
 11
149.323
 21
23.0893
  0
LINE
  8
0
 10
149.323
 20
23.0893
 11
149.342
 21
23.1184
  0
LINE
  8
0
 10
149.342
 20
23.1184
 11
149.362
 21
23.1471
  0
LINE
  8
0
 10
149.362
 20
23.1471
 11
149.382
 21
23.1756
  0
LINE
  8
0
 10
149.382
 20
23.1756
 11
149.403
 21
23.2036
  0
LINE
  8
0
 10
149.403
 20
23.2036
 11
149.424
 21
23.2313
  0
LINE
  8
0
 10
149.424
 20
23.2313
 11
149.446
 21
23.2586
  0
LINE
  8
0
 10
149.446
 20
23.2586
 11
149.468
 21
23.2856
  0
LINE
  8
0
 10
149.468
 20
23.2856
 11
149.491
 21
23.3121
  0
LINE
  8
0
 10
149.491
 20
23.3121
 11
149.514
 21
23.3383
  0
LINE
  8
0
 10
149.514
 20
23.3383
 11
149.537
 21
23.364
  0
LINE
  8
0
 10
149.537
 20
23.364
 11
149.561
 21
23.3893
  0
LINE
  8
0
 10
149.561
 20
23.3893
 11
149.586
 21
23.4142
  0
LINE
  8
0
 10
149.586
 20
23.4142
 11
149.611
 21
23.4387
  0
LINE
  8
0
 10
149.611
 20
23.4387
 11
149.636
 21
23.4627
  0
LINE
  8
0
 10
149.636
 20
23.4627
 11
149.662
 21
23.4863
  0
LINE
  8
0
 10
149.662
 20
23.4863
 11
149.688
 21
23.5094
  0
LINE
  8
0
 10
149.688
 20
23.5094
 11
149.714
 21
23.5321
  0
LINE
  8
0
 10
149.714
 20
23.5321
 11
149.741
 21
23.5543
  0
LINE
  8
0
 10
149.741
 20
23.5543
 11
149.769
 21
23.576
  0
LINE
  8
0
 10
149.769
 20
23.576
 11
149.796
 21
23.5973
  0
LINE
  8
0
 10
149.796
 20
23.5973
 11
149.824
 21
23.618
  0
LINE
  8
0
 10
149.824
 20
23.618
 11
149.853
 21
23.6383
  0
LINE
  8
0
 10
149.853
 20
23.6383
 11
149.882
 21
23.6581
  0
LINE
  8
0
 10
149.882
 20
23.6581
 11
149.911
 21
23.6773
  0
LINE
  8
0
 10
149.911
 20
23.6773
 11
149.94
 21
23.6961
  0
LINE
  8
0
 10
149.94
 20
23.6961
 11
149.97
 21
23.7143
  0
LINE
  8
0
 10
149.97
 20
23.7143
 11
150
 21
23.732
  0
LINE
  8
0
 10
150
 20
23.732
 11
150.03
 21
23.7492
  0
LINE
  8
0
 10
150.03
 20
23.7492
 11
150.061
 21
23.7659
  0
LINE
  8
0
 10
150.061
 20
23.7659
 11
150.092
 21
23.782
  0
LINE
  8
0
 10
150.092
 20
23.782
 11
150.123
 21
23.7976
  0
LINE
  8
0
 10
150.123
 20
23.7976
 11
150.155
 21
23.8126
  0
LINE
  8
0
 10
150.155
 20
23.8126
 11
150.187
 21
23.8271
  0
LINE
  8
0
 10
150.187
 20
23.8271
 11
150.219
 21
23.841
  0
LINE
  8
0
 10
150.219
 20
23.841
 11
150.251
 21
23.8544
  0
LINE
  8
0
 10
150.251
 20
23.8544
 11
150.283
 21
23.8672
  0
LINE
  8
0
 10
150.283
 20
23.8672
 11
150.316
 21
23.8794
  0
LINE
  8
0
 10
150.316
 20
23.8794
 11
150.349
 21
23.891
  0
LINE
  8
0
 10
150.349
 20
23.891
 11
150.382
 21
23.9021
  0
LINE
  8
0
 10
150.382
 20
23.9021
 11
150.415
 21
23.9126
  0
LINE
  8
0
 10
150.415
 20
23.9126
 11
150.449
 21
23.9225
  0
LINE
  8
0
 10
150.449
 20
23.9225
 11
150.482
 21
23.9318
  0
LINE
  8
0
 10
150.482
 20
23.9318
 11
150.516
 21
23.9406
  0
LINE
  8
0
 10
150.516
 20
23.9406
 11
150.55
 21
23.9487
  0
LINE
  8
0
 10
150.55
 20
23.9487
 11
150.584
 21
23.9563
  0
LINE
  8
0
 10
150.584
 20
23.9563
 11
150.618
 21
23.9632
  0
LINE
  8
0
 10
150.618
 20
23.9632
 11
150.653
 21
23.9696
  0
LINE
  8
0
 10
150.653
 20
23.9696
 11
150.687
 21
23.9754
  0
LINE
  8
0
 10
150.687
 20
23.9754
 11
150.722
 21
23.9805
  0
LINE
  8
0
 10
150.722
 20
23.9805
 11
150.756
 21
23.9851
  0
LINE
  8
0
 10
150.756
 20
23.9851
 11
150.791
 21
23.989
  0
LINE
  8
0
 10
150.791
 20
23.989
 11
150.826
 21
23.9924
  0
LINE
  8
0
 10
150.826
 20
23.9924
 11
150.86
 21
23.9951
  0
LINE
  8
0
 10
150.86
 20
23.9951
 11
150.895
 21
23.9973
  0
LINE
  8
0
 10
150.895
 20
23.9973
 11
150.93
 21
23.9988
  0
LINE
  8
0
 10
150.93
 20
23.9988
 11
150.965
 21
23.9997
  0
LINE
  8
0
 10
150.965
 20
23.9997
 11
151
 21
24
  0
LINE
  8
0
 10
151
 20
24
 11
151.035
 21
23.9997
  0
LINE
  8
0
 10
151.035
 20
23.9997
 11
151.07
 21
23.9988
  0
LINE
  8
0
 10
151.07
 20
23.9988
 11
151.105
 21
23.9973
  0
LINE
  8
0
 10
151.105
 20
23.9973
 11
151.14
 21
23.9951
  0
LINE
  8
0
 10
151.14
 20
23.9951
 11
151.174
 21
23.9924
  0
LINE
  8
0
 10
151.174
 20
23.9924
 11
151.209
 21
23.989
  0
LINE
  8
0
 10
151.209
 20
23.989
 11
151.244
 21
23.9851
  0
LINE
  8
0
 10
151.244
 20
23.9851
 11
151.278
 21
23.9805
  0
LINE
  8
0
 10
151.278
 20
23.9805
 11
151.313
 21
23.9754
  0
LINE
  8
0
 10
151.313
 20
23.9754
 11
151.347
 21
23.9696
  0
LINE
  8
0
 10
151.347
 20
23.9696
 11
151.382
 21
23.9632
  0
LINE
  8
0
 10
151.382
 20
23.9632
 11
151.416
 21
23.9563
  0
LINE
  8
0
 10
151.416
 20
23.9563
 11
151.45
 21
23.9487
  0
LINE
  8
0
 10
151.45
 20
23.9487
 11
151.484
 21
23.9406
  0
LINE
  8
0
 10
151.484
 20
23.9406
 11
151.518
 21
23.9318
  0
LINE
  8
0
 10
151.518
 20
23.9318
 11
151.551
 21
23.9225
  0
LINE
  8
0
 10
151.551
 20
23.9225
 11
151.585
 21
23.9126
  0
LINE
  8
0
 10
151.585
 20
23.9126
 11
151.618
 21
23.9021
  0
LINE
  8
0
 10
151.618
 20
23.9021
 11
151.651
 21
23.891
  0
LINE
  8
0
 10
151.651
 20
23.891
 11
151.684
 21
23.8794
  0
LINE
  8
0
 10
151.684
 20
23.8794
 11
151.717
 21
23.8672
  0
LINE
  8
0
 10
151.717
 20
23.8672
 11
151.749
 21
23.8544
  0
LINE
  8
0
 10
151.749
 20
23.8544
 11
151.781
 21
23.841
  0
LINE
  8
0
 10
151.781
 20
23.841
 11
151.813
 21
23.8271
  0
LINE
  8
0
 10
151.813
 20
23.8271
 11
151.845
 21
23.8126
  0
LINE
  8
0
 10
151.845
 20
23.8126
 11
151.877
 21
23.7976
  0
LINE
  8
0
 10
151.877
 20
23.7976
 11
151.908
 21
23.782
  0
LINE
  8
0
 10
151.908
 20
23.782
 11
151.939
 21
23.7659
  0
LINE
  8
0
 10
151.939
 20
23.7659
 11
151.97
 21
23.7492
  0
LINE
  8
0
 10
151.97
 20
23.7492
 11
152
 21
23.732
  0
LINE
  8
0
 10
152
 20
23.732
 11
152.03
 21
23.7143
  0
LINE
  8
0
 10
152.03
 20
23.7143
 11
152.06
 21
23.6961
  0
LINE
  8
0
 10
152.06
 20
23.6961
 11
152.089
 21
23.6773
  0
LINE
  8
0
 10
152.089
 20
23.6773
 11
152.118
 21
23.6581
  0
LINE
  8
0
 10
152.118
 20
23.6581
 11
152.147
 21
23.6383
  0
LINE
  8
0
 10
152.147
 20
23.6383
 11
152.176
 21
23.618
  0
LINE
  8
0
 10
152.176
 20
23.618
 11
152.204
 21
23.5973
  0
LINE
  8
0
 10
152.204
 20
23.5973
 11
152.231
 21
23.576
  0
LINE
  8
0
 10
152.231
 20
23.576
 11
152.259
 21
23.5543
  0
LINE
  8
0
 10
152.259
 20
23.5543
 11
152.286
 21
23.5321
  0
LINE
  8
0
 10
152.286
 20
23.5321
 11
152.312
 21
23.5094
  0
LINE
  8
0
 10
152.312
 20
23.5094
 11
152.338
 21
23.4863
  0
LINE
  8
0
 10
152.338
 20
23.4863
 11
152.364
 21
23.4627
  0
LINE
  8
0
 10
152.364
 20
23.4627
 11
152.389
 21
23.4387
  0
LINE
  8
0
 10
152.389
 20
23.4387
 11
152.414
 21
23.4142
  0
LINE
  8
0
 10
152.414
 20
23.4142
 11
152.439
 21
23.3893
  0
LINE
  8
0
 10
152.439
 20
23.3893
 11
152.463
 21
23.364
  0
LINE
  8
0
 10
152.463
 20
23.364
 11
152.486
 21
23.3383
  0
LINE
  8
0
 10
152.486
 20
23.3383
 11
152.509
 21
23.3121
  0
LINE
  8
0
 10
152.509
 20
23.3121
 11
152.532
 21
23.2856
  0
LINE
  8
0
 10
152.532
 20
23.2856
 11
152.554
 21
23.2586
  0
LINE
  8
0
 10
152.554
 20
23.2586
 11
152.576
 21
23.2313
  0
LINE
  8
0
 10
152.576
 20
23.2313
 11
152.597
 21
23.2036
  0
LINE
  8
0
 10
152.597
 20
23.2036
 11
152.618
 21
23.1756
  0
LINE
  8
0
 10
152.618
 20
23.1756
 11
152.638
 21
23.1471
  0
LINE
  8
0
 10
152.638
 20
23.1471
 11
152.658
 21
23.1184
  0
LINE
  8
0
 10
152.658
 20
23.1184
 11
152.677
 21
23.0893
  0
LINE
  8
0
 10
152.677
 20
23.0893
 11
152.696
 21
23.0598
  0
LINE
  8
0
 10
152.696
 20
23.0598
 11
152.714
 21
23.0301
  0
LINE
  8
0
 10
152.714
 20
23.0301
 11
152.732
 21
23
  0
LINE
  8
0
 10
152.732
 20
23
 11
152.749
 21
22.9696
  0
LINE
  8
0
 10
152.749
 20
22.9696
 11
152.766
 21
22.9389
  0
LINE
  8
0
 10
152.766
 20
22.9389
 11
152.782
 21
22.908
  0
LINE
  8
0
 10
152.782
 20
22.908
 11
152.798
 21
22.8767
  0
LINE
  8
0
 10
152.798
 20
22.8767
 11
152.813
 21
22.8452
  0
LINE
  8
0
 10
152.813
 20
22.8452
 11
152.827
 21
22.8135
  0
LINE
  8
0
 10
152.827
 20
22.8135
 11
152.841
 21
22.7814
  0
LINE
  8
0
 10
152.841
 20
22.7814
 11
152.854
 21
22.7492
  0
LINE
  8
0
 10
152.854
 20
22.7492
 11
152.867
 21
22.7167
  0
LINE
  8
0
 10
152.867
 20
22.7167
 11
152.879
 21
22.684
  0
LINE
  8
0
 10
152.879
 20
22.684
 11
152.891
 21
22.6511
  0
LINE
  8
0
 10
152.891
 20
22.6511
 11
152.902
 21
22.618
  0
LINE
  8
0
 10
152.902
 20
22.618
 11
152.913
 21
22.5847
  0
LINE
  8
0
 10
152.913
 20
22.5847
 11
152.923
 21
22.5513
  0
LINE
  8
0
 10
152.923
 20
22.5513
 11
152.932
 21
22.5176
  0
LINE
  8
0
 10
152.932
 20
22.5176
 11
152.941
 21
22.4838
  0
LINE
  8
0
 10
152.941
 20
22.4838
 11
152.949
 21
22.4499
  0
LINE
  8
0
 10
152.949
 20
22.4499
 11
152.956
 21
22.4158
  0
LINE
  8
0
 10
152.956
 20
22.4158
 11
152.963
 21
22.3816
  0
LINE
  8
0
 10
152.963
 20
22.3816
 11
152.97
 21
22.3473
  0
LINE
  8
0
 10
152.97
 20
22.3473
 11
152.975
 21
22.3129
  0
LINE
  8
0
 10
152.975
 20
22.3129
 11
152.981
 21
22.2783
  0
LINE
  8
0
 10
152.981
 20
22.2783
 11
152.985
 21
22.2437
  0
LINE
  8
0
 10
152.985
 20
22.2437
 11
152.989
 21
22.209
  0
LINE
  8
0
 10
152.989
 20
22.209
 11
152.992
 21
22.1743
  0
LINE
  8
0
 10
152.992
 20
22.1743
 11
152.995
 21
22.1395
  0
LINE
  8
0
 10
152.995
 20
22.1395
 11
152.997
 21
22.1047
  0
LINE
  8
0
 10
152.997
 20
22.1047
 11
152.999
 21
22.0698
  0
LINE
  8
0
 10
152.999
 20
22.0698
 11
153
 21
22.0349
  0
LINE
  8
0
 10
153
 20
22.0349
 11
153
 21
22
  0
LINE
  8
0
 10
153
 20
22
 11
153
 21
21.9651
  0
LINE
  8
0
 10
153
 20
21.9651
 11
152.999
 21
21.9302
  0
LINE
  8
0
 10
152.999
 20
21.9302
 11
152.997
 21
21.8953
  0
LINE
  8
0
 10
152.997
 20
21.8953
 11
152.995
 21
21.8605
  0
LINE
  8
0
 10
152.995
 20
21.8605
 11
152.992
 21
21.8257
  0
LINE
  8
0
 10
152.992
 20
21.8257
 11
152.989
 21
21.7909
  0
LINE
  8
0
 10
152.989
 20
21.7909
 11
152.985
 21
21.7563
  0
LINE
  8
0
 10
152.985
 20
21.7563
 11
152.981
 21
21.7216
  0
LINE
  8
0
 10
152.981
 20
21.7216
 11
152.975
 21
21.6871
  0
LINE
  8
0
 10
152.975
 20
21.6871
 11
152.97
 21
21.6527
  0
LINE
  8
0
 10
152.97
 20
21.6527
 11
152.963
 21
21.6184
  0
LINE
  8
0
 10
152.963
 20
21.6184
 11
152.956
 21
21.5842
  0
LINE
  8
0
 10
152.956
 20
21.5842
 11
152.949
 21
21.5501
  0
LINE
  8
0
 10
152.949
 20
21.5501
 11
152.941
 21
21.5161
  0
LINE
  8
0
 10
152.941
 20
21.5161
 11
152.932
 21
21.4824
  0
LINE
  8
0
 10
152.932
 20
21.4824
 11
152.923
 21
21.4487
  0
LINE
  8
0
 10
152.923
 20
21.4487
 11
152.913
 21
21.4153
  0
LINE
  8
0
 10
152.913
 20
21.4153
 11
152.902
 21
21.382
  0
LINE
  8
0
 10
152.902
 20
21.382
 11
152.891
 21
21.3489
  0
LINE
  8
0
 10
152.891
 20
21.3489
 11
152.879
 21
21.3159
  0
LINE
  8
0
 10
152.879
 20
21.3159
 11
152.867
 21
21.2833
  0
LINE
  8
0
 10
152.867
 20
21.2833
 11
152.854
 21
21.2508
  0
LINE
  8
0
 10
152.854
 20
21.2508
 11
152.841
 21
21.2185
  0
LINE
  8
0
 10
152.841
 20
21.2185
 11
152.827
 21
21.1865
  0
LINE
  8
0
 10
152.827
 20
21.1865
 11
152.813
 21
21.1548
  0
LINE
  8
0
 10
152.813
 20
21.1548
 11
152.798
 21
21.1232
  0
LINE
  8
0
 10
152.798
 20
21.1232
 11
152.782
 21
21.092
  0
LINE
  8
0
 10
152.782
 20
21.092
 11
152.766
 21
21.0611
  0
LINE
  8
0
 10
152.766
 20
21.0611
 11
152.749
 21
21.0304
  0
LINE
  8
0
 10
152.749
 20
21.0304
 11
152.732
 21
21
  0
LINE
  8
0
 10
152.732
 20
21
 11
152.714
 21
20.9699
  0
LINE
  8
0
 10
152.714
 20
20.9699
 11
152.696
 21
20.9402
  0
LINE
  8
0
 10
152.696
 20
20.9402
 11
152.677
 21
20.9107
  0
LINE
  8
0
 10
152.677
 20
20.9107
 11
152.658
 21
20.8816
  0
LINE
  8
0
 10
152.658
 20
20.8816
 11
152.638
 21
20.8528
  0
LINE
  8
0
 10
152.638
 20
20.8528
 11
152.618
 21
20.8244
  0
LINE
  8
0
 10
152.618
 20
20.8244
 11
152.597
 21
20.7964
  0
LINE
  8
0
 10
152.597
 20
20.7964
 11
152.576
 21
20.7687
  0
LINE
  8
0
 10
152.576
 20
20.7687
 11
152.554
 21
20.7413
  0
LINE
  8
0
 10
152.554
 20
20.7413
 11
152.532
 21
20.7144
  0
LINE
  8
0
 10
152.532
 20
20.7144
 11
152.509
 21
20.6879
  0
LINE
  8
0
 10
152.509
 20
20.6879
 11
152.486
 21
20.6617
  0
LINE
  8
0
 10
152.486
 20
20.6617
 11
152.463
 21
20.636
  0
LINE
  8
0
 10
152.463
 20
20.636
 11
152.439
 21
20.6107
  0
LINE
  8
0
 10
152.439
 20
20.6107
 11
152.414
 21
20.5858
  0
LINE
  8
0
 10
152.414
 20
20.5858
 11
152.389
 21
20.5613
  0
LINE
  8
0
 10
152.389
 20
20.5613
 11
152.364
 21
20.5373
  0
LINE
  8
0
 10
152.364
 20
20.5373
 11
152.338
 21
20.5137
  0
LINE
  8
0
 10
152.338
 20
20.5137
 11
152.312
 21
20.4906
  0
LINE
  8
0
 10
152.312
 20
20.4906
 11
152.286
 21
20.4679
  0
LINE
  8
0
 10
152.286
 20
20.4679
 11
152.259
 21
20.4457
  0
LINE
  8
0
 10
152.259
 20
20.4457
 11
152.231
 21
20.424
  0
LINE
  8
0
 10
152.231
 20
20.424
 11
152.204
 21
20.4027
  0
LINE
  8
0
 10
152.204
 20
20.4027
 11
152.176
 21
20.382
  0
LINE
  8
0
 10
152.176
 20
20.382
 11
152.147
 21
20.3617
  0
LINE
  8
0
 10
152.147
 20
20.3617
 11
152.118
 21
20.3419
  0
LINE
  8
0
 10
152.118
 20
20.3419
 11
152.089
 21
20.3226
  0
LINE
  8
0
 10
152.089
 20
20.3226
 11
152.06
 21
20.3039
  0
LINE
  8
0
 10
152.06
 20
20.3039
 11
152.03
 21
20.2857
  0
LINE
  8
0
 10
152.03
 20
20.2857
 11
152
 21
20.2679
  0
LINE
  8
0
 10
152
 20
20.2679
 11
151.97
 21
20.2507
  0
LINE
  8
0
 10
151.97
 20
20.2507
 11
151.939
 21
20.2341
  0
LINE
  8
0
 10
151.939
 20
20.2341
 11
151.908
 21
20.218
  0
LINE
  8
0
 10
151.908
 20
20.218
 11
151.877
 21
20.2024
  0
LINE
  8
0
 10
151.877
 20
20.2024
 11
151.845
 21
20.1874
  0
LINE
  8
0
 10
151.845
 20
20.1874
 11
151.813
 21
20.1729
  0
LINE
  8
0
 10
151.813
 20
20.1729
 11
151.781
 21
20.159
  0
LINE
  8
0
 10
151.781
 20
20.159
 11
151.749
 21
20.1456
  0
LINE
  8
0
 10
151.749
 20
20.1456
 11
151.717
 21
20.1328
  0
LINE
  8
0
 10
151.717
 20
20.1328
 11
151.684
 21
20.1206
  0
LINE
  8
0
 10
151.684
 20
20.1206
 11
151.651
 21
20.109
  0
LINE
  8
0
 10
151.651
 20
20.109
 11
151.618
 21
20.0979
  0
LINE
  8
0
 10
151.618
 20
20.0979
 11
151.585
 21
20.0874
  0
LINE
  8
0
 10
151.585
 20
20.0874
 11
151.551
 21
20.0775
  0
LINE
  8
0
 10
151.551
 20
20.0775
 11
151.518
 21
20.0681
  0
LINE
  8
0
 10
151.518
 20
20.0681
 11
151.484
 21
20.0594
  0
LINE
  8
0
 10
151.484
 20
20.0594
 11
151.45
 21
20.0513
  0
LINE
  8
0
 10
151.45
 20
20.0513
 11
151.416
 21
20.0437
  0
LINE
  8
0
 10
151.416
 20
20.0437
 11
151.382
 21
20.0367
  0
LINE
  8
0
 10
151.382
 20
20.0367
 11
151.347
 21
20.0304
  0
LINE
  8
0
 10
151.347
 20
20.0304
 11
151.313
 21
20.0246
  0
LINE
  8
0
 10
151.313
 20
20.0246
 11
151.278
 21
20.0195
  0
LINE
  8
0
 10
151.278
 20
20.0195
 11
151.244
 21
20.0149
  0
LINE
  8
0
 10
151.244
 20
20.0149
 11
151.209
 21
20.011
  0
LINE
  8
0
 10
151.209
 20
20.011
 11
151.174
 21
20.0076
  0
LINE
  8
0
 10
151.174
 20
20.0076
 11
151.14
 21
20.0049
  0
LINE
  8
0
 10
151.14
 20
20.0049
 11
151.105
 21
20.0027
  0
LINE
  8
0
 10
151.105
 20
20.0027
 11
151.07
 21
20.0012
  0
LINE
  8
0
 10
151.07
 20
20.0012
 11
151.035
 21
20.0003
  0
LINE
  8
0
 10
151.035
 20
20.0003
 11
151
 21
20
  0
LINE
  8
0
 10
151
 20
20
 11
150.965
 21
20.0003
  0
ENDSEC
  0
SECTION
  2
OBJECTS
  0
DICTIONARY
  0
ENDSEC
  0
EOF
