  0
SECTION
  2
BLOCKS
  0
ENDSEC
  0
SECTION
  2
ENTITIES
  0
LINE
  8
0
 10
2.18155
 20
-124.981
 11
4.36243
 21
-124.924
  0
LINE
  8
0
 10
4.36243
 20
-124.924
 11
6.54199
 21
-124.829
  0
LINE
  8
0
 10
6.54199
 20
-124.829
 11
8.71956
 21
-124.695
  0
LINE
  8
0
 10
8.71956
 20
-124.695
 11
10.8945
 21
-124.524
  0
LINE
  8
0
 10
10.8945
 20
-124.524
 11
13.0661
 21
-124.315
  0
LINE
  8
0
 10
13.0661
 20
-124.315
 11
15.2337
 21
-124.068
  0
LINE
  8
0
 10
15.2337
 20
-124.068
 11
17.3966
 21
-123.784
  0
LINE
  8
0
 10
17.3966
 20
-123.784
 11
19.5543
 21
-123.461
  0
LINE
  8
0
 10
19.5543
 20
-123.461
 11
21.706
 21
-123.101
  0
LINE
  8
0
 10
21.706
 20
-123.101
 11
23.8511
 21
-122.703
  0
LINE
  8
0
 10
23.8511
 20
-122.703
 11
25.989
 21
-122.268
  0
LINE
  8
0
 10
25.989
 20
-122.268
 11
28.1189
 21
-121.796
  0
LINE
  8
0
 10
28.1189
 20
-121.796
 11
30.2402
 21
-121.287
  0
LINE
  8
0
 10
30.2402
 20
-121.287
 11
32.3524
 21
-120.741
  0
LINE
  8
0
 10
32.3524
 20
-120.741
 11
34.4547
 21
-120.158
  0
LINE
  8
0
 10
34.4547
 20
-120.158
 11
36.5465
 21
-119.538
  0
LINE
  8
0
 10
36.5465
 20
-119.538
 11
38.6271
 21
-118.882
  0
LINE
  8
0
 10
38.6271
 20
-118.882
 11
40.696
 21
-118.19
  0
LINE
  8
0
 10
40.696
 20
-118.19
 11
42.7525
 21
-117.462
  0
LINE
  8
0
 10
42.7525
 20
-117.462
 11
44.796
 21
-116.698
  0
LINE
  8
0
 10
44.796
 20
-116.698
 11
46.8258
 21
-115.898
  0
LINE
  8
0
 10
46.8258
 20
-115.898
 11
48.8414
 21
-115.063
  0
LINE
  8
0
 10
48.8414
 20
-115.063
 11
50.8421
 21
-114.193
  0
LINE
  8
0
 10
50.8421
 20
-114.193
 11
52.8273
 21
-113.288
  0
LINE
  8
0
 10
52.8273
 20
-113.288
 11
54.7964
 21
-112.349
  0
LINE
  8
0
 10
54.7964
 20
-112.349
 11
56.7488
 21
-111.376
  0
LINE
  8
0
 10
56.7488
 20
-111.376
 11
58.6839
 21
-110.368
  0
LINE
  8
0
 10
58.6839
 20
-110.368
 11
60.6012
 21
-109.327
  0
LINE
  8
0
 10
60.6012
 20
-109.327
 11
62.5
 21
-108.253
  0
LINE
  8
0
 10
62.5
 20
-108.253
 11
64.3798
 21
-107.146
  0
LINE
  8
0
 10
64.3798
 20
-107.146
 11
66.2399
 21
-106.006
  0
LINE
  8
0
 10
66.2399
 20
-106.006
 11
68.0799
 21
-104.834
  0
LINE
  8
0
 10
68.0799
 20
-104.834
 11
69.8991
 21
-103.63
  0
LINE
  8
0
 10
69.8991
 20
-103.63
 11
71.6971
 21
-102.394
  0
LINE
  8
0
 10
71.6971
 20
-102.394
 11
73.4732
 21
-101.127
  0
LINE
  8
0
 10
73.4732
 20
-101.127
 11
75.2269
 21
-99.8294
  0
LINE
  8
0
 10
75.2269
 20
-99.8294
 11
76.9577
 21
-98.5013
  0
LINE
  8
0
 10
76.9577
 20
-98.5013
 11
78.665
 21
-97.1432
  0
LINE
  8
0
 10
78.665
 20
-97.1432
 11
80.3484
 21
-95.7556
  0
LINE
  8
0
 10
80.3484
 20
-95.7556
 11
82.0074
 21
-94.3387
  0
LINE
  8
0
 10
82.0074
 20
-94.3387
 11
83.6413
 21
-92.8931
  0
LINE
  8
0
 10
83.6413
 20
-92.8931
 11
85.2498
 21
-91.4192
  0
LINE
  8
0
 10
85.2498
 20
-91.4192
 11
86.8323
 21
-89.9175
  0
LINE
  8
0
 10
86.8323
 20
-89.9175
 11
88.3884
 21
-88.3884
  0
LINE
  8
0
 10
88.3884
 20
-88.3884
 11
89.9175
 21
-86.8323
  0
LINE
  8
0
 10
89.9175
 20
-86.8323
 11
91.4192
 21
-85.2498
  0
LINE
  8
0
 10
91.4192
 20
-85.2498
 11
92.8931
 21
-83.6413
  0
LINE
  8
0
 10
92.8931
 20
-83.6413
 11
94.3387
 21
-82.0074
  0
LINE
  8
0
 10
94.3387
 20
-82.0074
 11
95.7556
 21
-80.3484
  0
LINE
  8
0
 10
95.7556
 20
-80.3484
 11
97.1432
 21
-78.665
  0
LINE
  8
0
 10
97.1432
 20
-78.665
 11
98.5013
 21
-76.9577
  0
LINE
  8
0
 10
98.5013
 20
-76.9577
 11
99.8294
 21
-75.2269
  0
LINE
  8
0
 10
99.8294
 20
-75.2269
 11
101.127
 21
-73.4732
  0
LINE
  8
0
 10
101.127
 20
-73.4732
 11
102.394
 21
-71.6971
  0
LINE
  8
0
 10
102.394
 20
-71.6971
 11
103.63
 21
-69.8991
  0
LINE
  8
0
 10
103.63
 20
-69.8991
 11
104.834
 21
-68.0799
  0
LINE
  8
0
 10
104.834
 20
-68.0799
 11
106.006
 21
-66.2399
  0
LINE
  8
0
 10
106.006
 20
-66.2399
 11
107.146
 21
-64.3798
  0
LINE
  8
0
 10
107.146
 20
-64.3798
 11
108.253
 21
-62.5
  0
LINE
  8
0
 10
108.253
 20
-62.5
 11
109.327
 21
-60.6012
  0
LINE
  8
0
 10
109.327
 20
-60.6012
 11
110.368
 21
-58.6839
  0
LINE
  8
0
 10
110.368
 20
-58.6839
 11
111.376
 21
-56.7488
  0
LINE
  8
0
 10
111.376
 20
-56.7488
 11
112.349
 21
-54.7964
  0
LINE
  8
0
 10
112.349
 20
-54.7964
 11
113.288
 21
-52.8273
  0
LINE
  8
0
 10
113.288
 20
-52.8273
 11
114.193
 21
-50.8421
  0
LINE
  8
0
 10
114.193
 20
-50.8421
 11
115.063
 21
-48.8414
  0
LINE
  8
0
 10
115.063
 20
-48.8414
 11
115.898
 21
-46.8258
  0
LINE
  8
0
 10
115.898
 20
-46.8258
 11
116.698
 21
-44.796
  0
LINE
  8
0
 10
116.698
 20
-44.796
 11
117.462
 21
-42.7525
  0
LINE
  8
0
 10
117.462
 20
-42.7525
 11
118.19
 21
-40.696
  0
LINE
  8
0
 10
118.19
 20
-40.696
 11
118.882
 21
-38.6271
  0
LINE
  8
0
 10
118.882
 20
-38.6271
 11
119.538
 21
-36.5465
  0
LINE
  8
0
 10
119.538
 20
-36.5465
 11
120.158
 21
-34.4547
  0
LINE
  8
0
 10
120.158
 20
-34.4547
 11
120.741
 21
-32.3524
  0
LINE
  8
0
 10
120.741
 20
-32.3524
 11
121.287
 21
-30.2402
  0
LINE
  8
0
 10
121.287
 20
-30.2402
 11
121.796
 21
-28.1189
  0
LINE
  8
0
 10
121.796
 20
-28.1189
 11
122.268
 21
-25.989
  0
LINE
  8
0
 10
122.268
 20
-25.989
 11
122.703
 21
-23.8511
  0
LINE
  8
0
 10
122.703
 20
-23.8511
 11
123.101
 21
-21.706
  0
LINE
  8
0
 10
123.101
 20
-21.706
 11
123.461
 21
-19.5543
  0
LINE
  8
0
 10
123.461
 20
-19.5543
 11
123.784
 21
-17.3966
  0
LINE
  8
0
 10
123.784
 20
-17.3966
 11
124.068
 21
-15.2337
  0
LINE
  8
0
 10
124.068
 20
-15.2337
 11
124.315
 21
-13.0661
  0
LINE
  8
0
 10
124.315
 20
-13.0661
 11
124.524
 21
-10.8945
  0
LINE
  8
0
 10
124.524
 20
-10.8945
 11
124.695
 21
-8.71956
  0
LINE
  8
0
 10
124.695
 20
-8.71956
 11
124.829
 21
-6.54199
  0
LINE
  8
0
 10
124.829
 20
-6.54199
 11
124.924
 21
-4.36243
  0
LINE
  8
0
 10
124.924
 20
-4.36243
 11
124.981
 21
-2.18155
  0
LINE
  8
0
 10
124.981
 20
-2.18155
 11
125
 21
0
  0
LINE
  8
0
 10
125
 20
0
 11
124.981
 21
2.18155
  0
LINE
  8
0
 10
124.981
 20
2.18155
 11
124.924
 21
4.36243
  0
LINE
  8
0
 10
124.924
 20
4.36243
 11
124.829
 21
6.54199
  0
LINE
  8
0
 10
124.829
 20
6.54199
 11
124.695
 21
8.71956
  0
LINE
  8
0
 10
124.695
 20
8.71956
 11
124.524
 21
10.8945
  0
LINE
  8
0
 10
124.524
 20
10.8945
 11
124.315
 21
13.0661
  0
LINE
  8
0
 10
124.315
 20
13.0661
 11
124.068
 21
15.2337
  0
LINE
  8
0
 10
124.068
 20
15.2337
 11
123.784
 21
17.3966
  0
LINE
  8
0
 10
123.784
 20
17.3966
 11
123.461
 21
19.5543
  0
LINE
  8
0
 10
123.461
 20
19.5543
 11
123.101
 21
21.706
  0
LINE
  8
0
 10
123.101
 20
21.706
 11
122.703
 21
23.8511
  0
LINE
  8
0
 10
122.703
 20
23.8511
 11
122.268
 21
25.989
  0
LINE
  8
0
 10
122.268
 20
25.989
 11
121.796
 21
28.1189
  0
LINE
  8
0
 10
121.796
 20
28.1189
 11
121.287
 21
30.2402
  0
LINE
  8
0
 10
121.287
 20
30.2402
 11
120.741
 21
32.3524
  0
LINE
  8
0
 10
120.741
 20
32.3524
 11
120.158
 21
34.4547
  0
LINE
  8
0
 10
120.158
 20
34.4547
 11
119.538
 21
36.5465
  0
LINE
  8
0
 10
119.538
 20
36.5465
 11
118.882
 21
38.6271
  0
LINE
  8
0
 10
118.882
 20
38.6271
 11
118.19
 21
40.696
  0
LINE
  8
0
 10
118.19
 20
40.696
 11
117.462
 21
42.7525
  0
LINE
  8
0
 10
117.462
 20
42.7525
 11
116.698
 21
44.796
  0
LINE
  8
0
 10
116.698
 20
44.796
 11
115.898
 21
46.8258
  0
LINE
  8
0
 10
115.898
 20
46.8258
 11
115.063
 21
48.8414
  0
LINE
  8
0
 10
115.063
 20
48.8414
 11
114.193
 21
50.8421
  0
LINE
  8
0
 10
114.193
 20
50.8421
 11
113.288
 21
52.8273
  0
LINE
  8
0
 10
113.288
 20
52.8273
 11
112.349
 21
54.7964
  0
LINE
  8
0
 10
112.349
 20
54.7964
 11
111.376
 21
56.7488
  0
LINE
  8
0
 10
111.376
 20
56.7488
 11
110.368
 21
58.6839
  0
LINE
  8
0
 10
110.368
 20
58.6839
 11
109.327
 21
60.6012
  0
LINE
  8
0
 10
109.327
 20
60.6012
 11
108.253
 21
62.5
  0
LINE
  8
0
 10
108.253
 20
62.5
 11
107.146
 21
64.3798
  0
LINE
  8
0
 10
107.146
 20
64.3798
 11
106.006
 21
66.2399
  0
LINE
  8
0
 10
106.006
 20
66.2399
 11
104.834
 21
68.0799
  0
LINE
  8
0
 10
104.834
 20
68.0799
 11
103.63
 21
69.8991
  0
LINE
  8
0
 10
103.63
 20
69.8991
 11
102.394
 21
71.6971
  0
LINE
  8
0
 10
102.394
 20
71.6971
 11
101.127
 21
73.4732
  0
LINE
  8
0
 10
101.127
 20
73.4732
 11
99.8294
 21
75.2269
  0
LINE
  8
0
 10
99.8294
 20
75.2269
 11
98.5013
 21
76.9577
  0
LINE
  8
0
 10
98.5013
 20
76.9577
 11
97.1432
 21
78.665
  0
LINE
  8
0
 10
97.1432
 20
78.665
 11
95.7556
 21
80.3484
  0
LINE
  8
0
 10
95.7556
 20
80.3484
 11
94.3387
 21
82.0074
  0
LINE
  8
0
 10
94.3387
 20
82.0074
 11
92.8931
 21
83.6413
  0
LINE
  8
0
 10
92.8931
 20
83.6413
 11
91.4192
 21
85.2498
  0
LINE
  8
0
 10
91.4192
 20
85.2498
 11
89.9175
 21
86.8323
  0
LINE
  8
0
 10
89.9175
 20
86.8323
 11
88.3884
 21
88.3884
  0
LINE
  8
0
 10
88.3884
 20
88.3884
 11
86.8323
 21
89.9175
  0
LINE
  8
0
 10
86.8323
 20
89.9175
 11
85.2498
 21
91.4192
  0
LINE
  8
0
 10
85.2498
 20
91.4192
 11
83.6413
 21
92.8931
  0
LINE
  8
0
 10
83.6413
 20
92.8931
 11
82.0074
 21
94.3387
  0
LINE
  8
0
 10
82.0074
 20
94.3387
 11
80.3484
 21
95.7556
  0
LINE
  8
0
 10
80.3484
 20
95.7556
 11
78.665
 21
97.1432
  0
LINE
  8
0
 10
78.665
 20
97.1432
 11
76.9577
 21
98.5013
  0
LINE
  8
0
 10
76.9577
 20
98.5013
 11
75.2269
 21
99.8294
  0
LINE
  8
0
 10
75.2269
 20
99.8294
 11
73.4732
 21
101.127
  0
LINE
  8
0
 10
73.4732
 20
101.127
 11
71.6971
 21
102.394
  0
LINE
  8
0
 10
71.6971
 20
102.394
 11
69.8991
 21
103.63
  0
LINE
  8
0
 10
69.8991
 20
103.63
 11
68.0799
 21
104.834
  0
LINE
  8
0
 10
68.0799
 20
104.834
 11
66.2399
 21
106.006
  0
LINE
  8
0
 10
66.2399
 20
106.006
 11
64.3798
 21
107.146
  0
LINE
  8
0
 10
64.3798
 20
107.146
 11
62.5
 21
108.253
  0
LINE
  8
0
 10
62.5
 20
108.253
 11
60.6012
 21
109.327
  0
LINE
  8
0
 10
60.6012
 20
109.327
 11
58.6839
 21
110.368
  0
LINE
  8
0
 10
58.6839
 20
110.368
 11
56.7488
 21
111.376
  0
LINE
  8
0
 10
56.7488
 20
111.376
 11
54.7964
 21
112.349
  0
LINE
  8
0
 10
54.7964
 20
112.349
 11
52.8273
 21
113.288
  0
LINE
  8
0
 10
52.8273
 20
113.288
 11
50.8421
 21
114.193
  0
LINE
  8
0
 10
50.8421
 20
114.193
 11
48.8414
 21
115.063
  0
LINE
  8
0
 10
48.8414
 20
115.063
 11
46.8258
 21
115.898
  0
LINE
  8
0
 10
46.8258
 20
115.898
 11
44.796
 21
116.698
  0
LINE
  8
0
 10
44.796
 20
116.698
 11
42.7525
 21
117.462
  0
LINE
  8
0
 10
42.7525
 20
117.462
 11
40.696
 21
118.19
  0
LINE
  8
0
 10
40.696
 20
118.19
 11
38.6271
 21
118.882
  0
LINE
  8
0
 10
38.6271
 20
118.882
 11
36.5465
 21
119.538
  0
LINE
  8
0
 10
36.5465
 20
119.538
 11
34.4547
 21
120.158
  0
LINE
  8
0
 10
34.4547
 20
120.158
 11
32.3524
 21
120.741
  0
LINE
  8
0
 10
32.3524
 20
120.741
 11
30.2402
 21
121.287
  0
LINE
  8
0
 10
30.2402
 20
121.287
 11
28.1189
 21
121.796
  0
LINE
  8
0
 10
28.1189
 20
121.796
 11
25.989
 21
122.268
  0
LINE
  8
0
 10
25.989
 20
122.268
 11
23.8511
 21
122.703
  0
LINE
  8
0
 10
23.8511
 20
122.703
 11
21.706
 21
123.101
  0
LINE
  8
0
 10
21.706
 20
123.101
 11
19.5543
 21
123.461
  0
LINE
  8
0
 10
19.5543
 20
123.461
 11
17.3966
 21
123.784
  0
LINE
  8
0
 10
17.3966
 20
123.784
 11
15.2337
 21
124.068
  0
LINE
  8
0
 10
15.2337
 20
124.068
 11
13.0661
 21
124.315
  0
LINE
  8
0
 10
13.0661
 20
124.315
 11
10.8945
 21
124.524
  0
LINE
  8
0
 10
10.8945
 20
124.524
 11
8.71956
 21
124.695
  0
LINE
  8
0
 10
8.71956
 20
124.695
 11
6.54199
 21
124.829
  0
LINE
  8
0
 10
6.54199
 20
124.829
 11
4.36243
 21
124.924
  0
LINE
  8
0
 10
4.36243
 20
124.924
 11
2.18155
 21
124.981
  0
LINE
  8
0
 10
2.18155
 20
124.981
 11
0
 21
125
  0
LINE
  8
0
 10
0
 20
125
 11
-2.18155
 21
124.981
  0
LINE
  8
0
 10
-2.18155
 20
124.981
 11
-4.36243
 21
124.924
  0
LINE
  8
0
 10
-4.36243
 20
124.924
 11
-6.54199
 21
124.829
  0
LINE
  8
0
 10
-6.54199
 20
124.829
 11
-8.71956
 21
124.695
  0
LINE
  8
0
 10
-8.71956
 20
124.695
 11
-10.8945
 21
124.524
  0
LINE
  8
0
 10
-10.8945
 20
124.524
 11
-13.0661
 21
124.315
  0
LINE
  8
0
 10
-13.0661
 20
124.315
 11
-15.2337
 21
124.068
  0
LINE
  8
0
 10
-15.2337
 20
124.068
 11
-17.3966
 21
123.784
  0
LINE
  8
0
 10
-17.3966
 20
123.784
 11
-19.5543
 21
123.461
  0
LINE
  8
0
 10
-19.5543
 20
123.461
 11
-21.706
 21
123.101
  0
LINE
  8
0
 10
-21.706
 20
123.101
 11
-23.8511
 21
122.703
  0
LINE
  8
0
 10
-23.8511
 20
122.703
 11
-25.989
 21
122.268
  0
LINE
  8
0
 10
-25.989
 20
122.268
 11
-28.1189
 21
121.796
  0
LINE
  8
0
 10
-28.1189
 20
121.796
 11
-30.2402
 21
121.287
  0
LINE
  8
0
 10
-30.2402
 20
121.287
 11
-32.3524
 21
120.741
  0
LINE
  8
0
 10
-32.3524
 20
120.741
 11
-34.4547
 21
120.158
  0
LINE
  8
0
 10
-34.4547
 20
120.158
 11
-36.5465
 21
119.538
  0
LINE
  8
0
 10
-36.5465
 20
119.538
 11
-38.6271
 21
118.882
  0
LINE
  8
0
 10
-38.6271
 20
118.882
 11
-40.696
 21
118.19
  0
LINE
  8
0
 10
-40.696
 20
118.19
 11
-42.7525
 21
117.462
  0
LINE
  8
0
 10
-42.7525
 20
117.462
 11
-44.796
 21
116.698
  0
LINE
  8
0
 10
-44.796
 20
116.698
 11
-46.8258
 21
115.898
  0
LINE
  8
0
 10
-46.8258
 20
115.898
 11
-48.8414
 21
115.063
  0
LINE
  8
0
 10
-48.8414
 20
115.063
 11
-50.8421
 21
114.193
  0
LINE
  8
0
 10
-50.8421
 20
114.193
 11
-52.8273
 21
113.288
  0
LINE
  8
0
 10
-52.8273
 20
113.288
 11
-54.7964
 21
112.349
  0
LINE
  8
0
 10
-54.7964
 20
112.349
 11
-56.7488
 21
111.376
  0
LINE
  8
0
 10
-56.7488
 20
111.376
 11
-58.6839
 21
110.368
  0
LINE
  8
0
 10
-58.6839
 20
110.368
 11
-60.6012
 21
109.327
  0
LINE
  8
0
 10
-60.6012
 20
109.327
 11
-62.5
 21
108.253
  0
LINE
  8
0
 10
-62.5
 20
108.253
 11
-64.3798
 21
107.146
  0
LINE
  8
0
 10
-64.3798
 20
107.146
 11
-66.2399
 21
106.006
  0
LINE
  8
0
 10
-66.2399
 20
106.006
 11
-68.0799
 21
104.834
  0
LINE
  8
0
 10
-68.0799
 20
104.834
 11
-69.8991
 21
103.63
  0
LINE
  8
0
 10
-69.8991
 20
103.63
 11
-71.6971
 21
102.394
  0
LINE
  8
0
 10
-71.6971
 20
102.394
 11
-73.4732
 21
101.127
  0
LINE
  8
0
 10
-73.4732
 20
101.127
 11
-75.2269
 21
99.8294
  0
LINE
  8
0
 10
-75.2269
 20
99.8294
 11
-76.9577
 21
98.5013
  0
LINE
  8
0
 10
-76.9577
 20
98.5013
 11
-78.665
 21
97.1432
  0
LINE
  8
0
 10
-78.665
 20
97.1432
 11
-80.3484
 21
95.7556
  0
LINE
  8
0
 10
-80.3484
 20
95.7556
 11
-82.0074
 21
94.3387
  0
LINE
  8
0
 10
-82.0074
 20
94.3387
 11
-83.6413
 21
92.8931
  0
LINE
  8
0
 10
-83.6413
 20
92.8931
 11
-85.2498
 21
91.4192
  0
LINE
  8
0
 10
-85.2498
 20
91.4192
 11
-86.8323
 21
89.9175
  0
LINE
  8
0
 10
-86.8323
 20
89.9175
 11
-88.3884
 21
88.3884
  0
LINE
  8
0
 10
-88.3884
 20
88.3884
 11
-89.9175
 21
86.8323
  0
LINE
  8
0
 10
-89.9175
 20
86.8323
 11
-91.4192
 21
85.2498
  0
LINE
  8
0
 10
-91.4192
 20
85.2498
 11
-92.8931
 21
83.6413
  0
LINE
  8
0
 10
-92.8931
 20
83.6413
 11
-94.3387
 21
82.0074
  0
LINE
  8
0
 10
-94.3387
 20
82.0074
 11
-95.7556
 21
80.3484
  0
LINE
  8
0
 10
-95.7556
 20
80.3484
 11
-97.1432
 21
78.665
  0
LINE
  8
0
 10
-97.1432
 20
78.665
 11
-98.5013
 21
76.9577
  0
LINE
  8
0
 10
-98.5013
 20
76.9577
 11
-99.8294
 21
75.2269
  0
LINE
  8
0
 10
-99.8294
 20
75.2269
 11
-101.127
 21
73.4732
  0
LINE
  8
0
 10
-101.127
 20
73.4732
 11
-102.394
 21
71.6971
  0
LINE
  8
0
 10
-102.394
 20
71.6971
 11
-103.63
 21
69.8991
  0
LINE
  8
0
 10
-103.63
 20
69.8991
 11
-104.834
 21
68.0799
  0
LINE
  8
0
 10
-104.834
 20
68.0799
 11
-106.006
 21
66.2399
  0
LINE
  8
0
 10
-106.006
 20
66.2399
 11
-107.146
 21
64.3798
  0
LINE
  8
0
 10
-107.146
 20
64.3798
 11
-108.253
 21
62.5
  0
LINE
  8
0
 10
-108.253
 20
62.5
 11
-109.327
 21
60.6012
  0
LINE
  8
0
 10
-109.327
 20
60.6012
 11
-110.368
 21
58.6839
  0
LINE
  8
0
 10
-110.368
 20
58.6839
 11
-111.376
 21
56.7488
  0
LINE
  8
0
 10
-111.376
 20
56.7488
 11
-112.349
 21
54.7964
  0
LINE
  8
0
 10
-112.349
 20
54.7964
 11
-113.288
 21
52.8273
  0
LINE
  8
0
 10
-113.288
 20
52.8273
 11
-114.193
 21
50.8421
  0
LINE
  8
0
 10
-114.193
 20
50.8421
 11
-115.063
 21
48.8414
  0
LINE
  8
0
 10
-115.063
 20
48.8414
 11
-115.898
 21
46.8258
  0
LINE
  8
0
 10
-115.898
 20
46.8258
 11
-116.698
 21
44.796
  0
LINE
  8
0
 10
-116.698
 20
44.796
 11
-117.462
 21
42.7525
  0
LINE
  8
0
 10
-117.462
 20
42.7525
 11
-118.19
 21
40.696
  0
LINE
  8
0
 10
-118.19
 20
40.696
 11
-118.882
 21
38.6271
  0
LINE
  8
0
 10
-118.882
 20
38.6271
 11
-119.538
 21
36.5465
  0
LINE
  8
0
 10
-119.538
 20
36.5465
 11
-120.158
 21
34.4547
  0
LINE
  8
0
 10
-120.158
 20
34.4547
 11
-120.741
 21
32.3524
  0
LINE
  8
0
 10
-120.741
 20
32.3524
 11
-121.287
 21
30.2402
  0
LINE
  8
0
 10
-121.287
 20
30.2402
 11
-121.796
 21
28.1189
  0
LINE
  8
0
 10
-121.796
 20
28.1189
 11
-122.268
 21
25.989
  0
LINE
  8
0
 10
-122.268
 20
25.989
 11
-122.703
 21
23.8511
  0
LINE
  8
0
 10
-122.703
 20
23.8511
 11
-123.101
 21
21.706
  0
LINE
  8
0
 10
-123.101
 20
21.706
 11
-123.461
 21
19.5543
  0
LINE
  8
0
 10
-123.461
 20
19.5543
 11
-123.784
 21
17.3966
  0
LINE
  8
0
 10
-123.784
 20
17.3966
 11
-124.068
 21
15.2337
  0
LINE
  8
0
 10
-124.068
 20
15.2337
 11
-124.315
 21
13.0661
  0
LINE
  8
0
 10
-124.315
 20
13.0661
 11
-124.524
 21
10.8945
  0
LINE
  8
0
 10
-124.524
 20
10.8945
 11
-124.695
 21
8.71956
  0
LINE
  8
0
 10
-124.695
 20
8.71956
 11
-124.829
 21
6.54199
  0
LINE
  8
0
 10
-124.829
 20
6.54199
 11
-124.924
 21
4.36243
  0
LINE
  8
0
 10
-124.924
 20
4.36243
 11
-124.981
 21
2.18155
  0
LINE
  8
0
 10
-124.981
 20
2.18155
 11
-125
 21
0
  0
LINE
  8
0
 10
-125
 20
0
 11
-124.981
 21
-2.18155
  0
LINE
  8
0
 10
-124.981
 20
-2.18155
 11
-124.924
 21
-4.36243
  0
LINE
  8
0
 10
-124.924
 20
-4.36243
 11
-124.829
 21
-6.54199
  0
LINE
  8
0
 10
-124.829
 20
-6.54199
 11
-124.695
 21
-8.71956
  0
LINE
  8
0
 10
-124.695
 20
-8.71956
 11
-124.524
 21
-10.8945
  0
LINE
  8
0
 10
-124.524
 20
-10.8945
 11
-124.315
 21
-13.0661
  0
LINE
  8
0
 10
-124.315
 20
-13.0661
 11
-124.068
 21
-15.2337
  0
LINE
  8
0
 10
-124.068
 20
-15.2337
 11
-123.784
 21
-17.3966
  0
LINE
  8
0
 10
-123.784
 20
-17.3966
 11
-123.461
 21
-19.5543
  0
LINE
  8
0
 10
-123.461
 20
-19.5543
 11
-123.101
 21
-21.706
  0
LINE
  8
0
 10
-123.101
 20
-21.706
 11
-122.703
 21
-23.8511
  0
LINE
  8
0
 10
-122.703
 20
-23.8511
 11
-122.268
 21
-25.989
  0
LINE
  8
0
 10
-122.268
 20
-25.989
 11
-121.796
 21
-28.1189
  0
LINE
  8
0
 10
-121.796
 20
-28.1189
 11
-121.287
 21
-30.2402
  0
LINE
  8
0
 10
-121.287
 20
-30.2402
 11
-120.741
 21
-32.3524
  0
LINE
  8
0
 10
-120.741
 20
-32.3524
 11
-120.158
 21
-34.4547
  0
LINE
  8
0
 10
-120.158
 20
-34.4547
 11
-119.538
 21
-36.5465
  0
LINE
  8
0
 10
-119.538
 20
-36.5465
 11
-118.882
 21
-38.6271
  0
LINE
  8
0
 10
-118.882
 20
-38.6271
 11
-118.19
 21
-40.696
  0
LINE
  8
0
 10
-118.19
 20
-40.696
 11
-117.462
 21
-42.7525
  0
LINE
  8
0
 10
-117.462
 20
-42.7525
 11
-116.698
 21
-44.796
  0
LINE
  8
0
 10
-116.698
 20
-44.796
 11
-115.898
 21
-46.8258
  0
LINE
  8
0
 10
-115.898
 20
-46.8258
 11
-115.063
 21
-48.8414
  0
LINE
  8
0
 10
-115.063
 20
-48.8414
 11
-114.193
 21
-50.8421
  0
LINE
  8
0
 10
-114.193
 20
-50.8421
 11
-113.288
 21
-52.8273
  0
LINE
  8
0
 10
-113.288
 20
-52.8273
 11
-112.349
 21
-54.7964
  0
LINE
  8
0
 10
-112.349
 20
-54.7964
 11
-111.376
 21
-56.7488
  0
LINE
  8
0
 10
-111.376
 20
-56.7488
 11
-110.368
 21
-58.6839
  0
LINE
  8
0
 10
-110.368
 20
-58.6839
 11
-109.327
 21
-60.6012
  0
LINE
  8
0
 10
-109.327
 20
-60.6012
 11
-108.253
 21
-62.5
  0
LINE
  8
0
 10
-108.253
 20
-62.5
 11
-107.146
 21
-64.3798
  0
LINE
  8
0
 10
-107.146
 20
-64.3798
 11
-106.006
 21
-66.2399
  0
LINE
  8
0
 10
-106.006
 20
-66.2399
 11
-104.834
 21
-68.0799
  0
LINE
  8
0
 10
-104.834
 20
-68.0799
 11
-103.63
 21
-69.8991
  0
LINE
  8
0
 10
-103.63
 20
-69.8991
 11
-102.394
 21
-71.6971
  0
LINE
  8
0
 10
-102.394
 20
-71.6971
 11
-101.127
 21
-73.4732
  0
LINE
  8
0
 10
-101.127
 20
-73.4732
 11
-99.8294
 21
-75.2269
  0
LINE
  8
0
 10
-99.8294
 20
-75.2269
 11
-98.5013
 21
-76.9577
  0
LINE
  8
0
 10
-98.5013
 20
-76.9577
 11
-97.1432
 21
-78.665
  0
LINE
  8
0
 10
-97.1432
 20
-78.665
 11
-95.7556
 21
-80.3484
  0
LINE
  8
0
 10
-95.7556
 20
-80.3484
 11
-94.3387
 21
-82.0074
  0
LINE
  8
0
 10
-94.3387
 20
-82.0074
 11
-92.8931
 21
-83.6413
  0
LINE
  8
0
 10
-92.8931
 20
-83.6413
 11
-91.4192
 21
-85.2498
  0
LINE
  8
0
 10
-91.4192
 20
-85.2498
 11
-89.9175
 21
-86.8323
  0
LINE
  8
0
 10
-89.9175
 20
-86.8323
 11
-88.3884
 21
-88.3884
  0
LINE
  8
0
 10
-88.3884
 20
-88.3884
 11
-86.8323
 21
-89.9175
  0
LINE
  8
0
 10
-86.8323
 20
-89.9175
 11
-85.2498
 21
-91.4192
  0
LINE
  8
0
 10
-85.2498
 20
-91.4192
 11
-83.6413
 21
-92.8931
  0
LINE
  8
0
 10
-83.6413
 20
-92.8931
 11
-82.0074
 21
-94.3387
  0
LINE
  8
0
 10
-82.0074
 20
-94.3387
 11
-80.3484
 21
-95.7556
  0
LINE
  8
0
 10
-80.3484
 20
-95.7556
 11
-78.665
 21
-97.1432
  0
LINE
  8
0
 10
-78.665
 20
-97.1432
 11
-76.9577
 21
-98.5013
  0
LINE
  8
0
 10
-76.9577
 20
-98.5013
 11
-75.2269
 21
-99.8294
  0
LINE
  8
0
 10
-75.2269
 20
-99.8294
 11
-73.4732
 21
-101.127
  0
LINE
  8
0
 10
-73.4732
 20
-101.127
 11
-71.6971
 21
-102.394
  0
LINE
  8
0
 10
-71.6971
 20
-102.394
 11
-69.8991
 21
-103.63
  0
LINE
  8
0
 10
-69.8991
 20
-103.63
 11
-68.0799
 21
-104.834
  0
LINE
  8
0
 10
-68.0799
 20
-104.834
 11
-66.2399
 21
-106.006
  0
LINE
  8
0
 10
-66.2399
 20
-106.006
 11
-64.3798
 21
-107.146
  0
LINE
  8
0
 10
-64.3798
 20
-107.146
 11
-62.5
 21
-108.253
  0
LINE
  8
0
 10
-62.5
 20
-108.253
 11
-60.6012
 21
-109.327
  0
LINE
  8
0
 10
-60.6012
 20
-109.327
 11
-58.6839
 21
-110.368
  0
LINE
  8
0
 10
-58.6839
 20
-110.368
 11
-56.7488
 21
-111.376
  0
LINE
  8
0
 10
-56.7488
 20
-111.376
 11
-54.7964
 21
-112.349
  0
LINE
  8
0
 10
-54.7964
 20
-112.349
 11
-52.8273
 21
-113.288
  0
LINE
  8
0
 10
-52.8273
 20
-113.288
 11
-50.8421
 21
-114.193
  0
LINE
  8
0
 10
-50.8421
 20
-114.193
 11
-48.8414
 21
-115.063
  0
LINE
  8
0
 10
-48.8414
 20
-115.063
 11
-46.8258
 21
-115.898
  0
LINE
  8
0
 10
-46.8258
 20
-115.898
 11
-44.796
 21
-116.698
  0
LINE
  8
0
 10
-44.796
 20
-116.698
 11
-42.7525
 21
-117.462
  0
LINE
  8
0
 10
-42.7525
 20
-117.462
 11
-40.696
 21
-118.19
  0
LINE
  8
0
 10
-40.696
 20
-118.19
 11
-38.6271
 21
-118.882
  0
LINE
  8
0
 10
-38.6271
 20
-118.882
 11
-36.5465
 21
-119.538
  0
LINE
  8
0
 10
-36.5465
 20
-119.538
 11
-34.4547
 21
-120.158
  0
LINE
  8
0
 10
-34.4547
 20
-120.158
 11
-32.3524
 21
-120.741
  0
LINE
  8
0
 10
-32.3524
 20
-120.741
 11
-30.2402
 21
-121.287
  0
LINE
  8
0
 10
-30.2402
 20
-121.287
 11
-28.1189
 21
-121.796
  0
LINE
  8
0
 10
-28.1189
 20
-121.796
 11
-25.989
 21
-122.268
  0
LINE
  8
0
 10
-25.989
 20
-122.268
 11
-23.8511
 21
-122.703
  0
LINE
  8
0
 10
-23.8511
 20
-122.703
 11
-21.706
 21
-123.101
  0
LINE
  8
0
 10
-21.706
 20
-123.101
 11
-19.5543
 21
-123.461
  0
LINE
  8
0
 10
-19.5543
 20
-123.461
 11
-17.3966
 21
-123.784
  0
LINE
  8
0
 10
-17.3966
 20
-123.784
 11
-15.2337
 21
-124.068
  0
LINE
  8
0
 10
-15.2337
 20
-124.068
 11
-13.0661
 21
-124.315
  0
LINE
  8
0
 10
-13.0661
 20
-124.315
 11
-10.8945
 21
-124.524
  0
LINE
  8
0
 10
-10.8945
 20
-124.524
 11
-8.71956
 21
-124.695
  0
LINE
  8
0
 10
-8.71956
 20
-124.695
 11
-6.54199
 21
-124.829
  0
LINE
  8
0
 10
-6.54199
 20
-124.829
 11
-4.36243
 21
-124.924
  0
LINE
  8
0
 10
-4.36243
 20
-124.924
 11
-2.18155
 21
-124.981
  0
LINE
  8
0
 10
-2.18155
 20
-124.981
 11
0
 21
-125
  0
LINE
  8
0
 10
0
 20
-125
 11
2.18155
 21
-124.981
  0
LINE
  8
0
 10
70
 20
22
 11
70
 21
30
  0
LINE
  8
0
 10
70
 20
30
 11
100
 21
30
  0
LINE
  8
0
 10
100
 20
30
 11
100
 21
22
  0
LINE
  8
0
 10
100
 20
22
 11
70
 21
22
  0
LINE
  8
0
 10
-100
 20
22
 11
-100
 21
30
  0
LINE
  8
0
 10
-100
 20
30
 11
-70
 21
30
  0
LINE
  8
0
 10
-70
 20
30
 11
-70
 21
22
  0
LINE
  8
0
 10
-70
 20
22
 11
-100
 21
22
  0
LINE
  8
0
 10
29.6879
 20
-1.50941
 11
29.6617
 21
-1.48628
  0
LINE
  8
0
 10
29.6617
 20
-1.48628
 11
29.636
 21
-1.46269
  0
LINE
  8
0
 10
29.636
 20
-1.46269
 11
29.6107
 21
-1.43867
  0
LINE
  8
0
 10
29.6107
 20
-1.43867
 11
29.5858
 21
-1.4142
  0
LINE
  8
0
 10
29.5858
 20
-1.4142
 11
29.5613
 21
-1.38931
  0
LINE
  8
0
 10
29.5613
 20
-1.38931
 11
29.5373
 21
-1.36398
  0
LINE
  8
0
 10
29.5373
 20
-1.36398
 11
29.5137
 21
-1.33826
  0
LINE
  8
0
 10
29.5137
 20
-1.33826
 11
29.4906
 21
-1.3121
  0
LINE
  8
0
 10
29.4906
 20
-1.3121
 11
29.4679
 21
-1.28557
  0
LINE
  8
0
 10
29.4679
 20
-1.28557
 11
29.4457
 21
-1.25864
  0
LINE
  8
0
 10
29.4457
 20
-1.25864
 11
29.424
 21
-1.23131
  0
LINE
  8
0
 10
29.424
 20
-1.23131
 11
29.4027
 21
-1.20363
  0
LINE
  8
0
 10
29.4027
 20
-1.20363
 11
29.382
 21
-1.17557
  0
LINE
  8
0
 10
29.382
 20
-1.17557
 11
29.3617
 21
-1.14714
  0
LINE
  8
0
 10
29.3617
 20
-1.14714
 11
29.3419
 21
-1.11838
  0
LINE
  8
0
 10
29.3419
 20
-1.11838
 11
29.3226
 21
-1.08926
  0
LINE
  8
0
 10
29.3226
 20
-1.08926
 11
29.3039
 21
-1.05983
  0
LINE
  8
0
 10
29.3039
 20
-1.05983
 11
29.2857
 21
-1.03008
  0
LINE
  8
0
 10
29.2857
 20
-1.03008
 11
29.2679
 21
-1
  0
LINE
  8
0
 10
29.2679
 20
-1
 11
29.2507
 21
-0.969604
  0
LINE
  8
0
 10
29.2507
 20
-0.969604
 11
29.2341
 21
-0.938934
  0
LINE
  8
0
 10
29.2341
 20
-0.938934
 11
29.218
 21
-0.907974
  0
LINE
  8
0
 10
29.218
 20
-0.907974
 11
29.2024
 21
-0.87674
  0
LINE
  8
0
 10
29.2024
 20
-0.87674
 11
29.1874
 21
-0.84523
  0
LINE
  8
0
 10
29.1874
 20
-0.84523
 11
29.1729
 21
-0.813461
  0
LINE
  8
0
 10
29.1729
 20
-0.813461
 11
29.159
 21
-0.781448
  0
LINE
  8
0
 10
29.159
 20
-0.781448
 11
29.1456
 21
-0.749207
  0
LINE
  8
0
 10
29.1456
 20
-0.749207
 11
29.1328
 21
-0.716736
  0
LINE
  8
0
 10
29.1328
 20
-0.716736
 11
29.1206
 21
-0.684036
  0
LINE
  8
0
 10
29.1206
 20
-0.684036
 11
29.109
 21
-0.651123
  0
LINE
  8
0
 10
29.109
 20
-0.651123
 11
29.0979
 21
-0.618027
  0
LINE
  8
0
 10
29.0979
 20
-0.618027
 11
29.0874
 21
-0.584732
  0
LINE
  8
0
 10
29.0874
 20
-0.584732
 11
29.0775
 21
-0.55127
  0
LINE
  8
0
 10
29.0775
 20
-0.55127
 11
29.0681
 21
-0.517624
  0
LINE
  8
0
 10
29.0681
 20
-0.517624
 11
29.0594
 21
-0.483841
  0
LINE
  8
0
 10
29.0594
 20
-0.483841
 11
29.0513
 21
-0.44989
  0
LINE
  8
0
 10
29.0513
 20
-0.44989
 11
29.0437
 21
-0.415817
  0
LINE
  8
0
 10
29.0437
 20
-0.415817
 11
29.0367
 21
-0.381607
  0
LINE
  8
0
 10
29.0367
 20
-0.381607
 11
29.0304
 21
-0.34729
  0
LINE
  8
0
 10
29.0304
 20
-0.34729
 11
29.0246
 21
-0.312866
  0
LINE
  8
0
 10
29.0246
 20
-0.312866
 11
29.0195
 21
-0.278336
  0
LINE
  8
0
 10
29.0195
 20
-0.278336
 11
29.0149
 21
-0.243729
  0
LINE
  8
0
 10
29.0149
 20
-0.243729
 11
29.011
 21
-0.209045
  0
LINE
  8
0
 10
29.011
 20
-0.209045
 11
29.0076
 21
-0.174301
  0
LINE
  8
0
 10
29.0076
 20
-0.174301
 11
29.0049
 21
-0.139511
  0
LINE
  8
0
 10
29.0049
 20
-0.139511
 11
29.0027
 21
-0.10466
  0
LINE
  8
0
 10
29.0027
 20
-0.10466
 11
29.0012
 21
-0.0697937
  0
LINE
  8
0
 10
29.0012
 20
-0.0697937
 11
29.0003
 21
-0.0348969
  0
LINE
  8
0
 10
29.0003
 20
-0.0348969
 11
29
 21
0
  0
LINE
  8
0
 10
29
 20
0
 11
29.0003
 21
0.0348969
  0
LINE
  8
0
 10
29.0003
 20
0.0348969
 11
29.0012
 21
0.0697937
  0
LINE
  8
0
 10
29.0012
 20
0.0697937
 11
29.0027
 21
0.10466
  0
LINE
  8
0
 10
29.0027
 20
0.10466
 11
29.0049
 21
0.139511
  0
LINE
  8
0
 10
29.0049
 20
0.139511
 11
29.0076
 21
0.174301
  0
LINE
  8
0
 10
29.0076
 20
0.174301
 11
29.011
 21
0.209045
  0
LINE
  8
0
 10
29.011
 20
0.209045
 11
29.0149
 21
0.243729
  0
LINE
  8
0
 10
29.0149
 20
0.243729
 11
29.0195
 21
0.278336
  0
LINE
  8
0
 10
29.0195
 20
0.278336
 11
29.0246
 21
0.312866
  0
LINE
  8
0
 10
29.0246
 20
0.312866
 11
29.0304
 21
0.34729
  0
LINE
  8
0
 10
29.0304
 20
0.34729
 11
29.0367
 21
0.381607
  0
LINE
  8
0
 10
29.0367
 20
0.381607
 11
29.0437
 21
0.415817
  0
LINE
  8
0
 10
29.0437
 20
0.415817
 11
29.0513
 21
0.44989
  0
LINE
  8
0
 10
29.0513
 20
0.44989
 11
29.0594
 21
0.483841
  0
LINE
  8
0
 10
29.0594
 20
0.483841
 11
29.0681
 21
0.517624
  0
LINE
  8
0
 10
29.0681
 20
0.517624
 11
29.0775
 21
0.55127
  0
LINE
  8
0
 10
29.0775
 20
0.55127
 11
29.0874
 21
0.584732
  0
LINE
  8
0
 10
29.0874
 20
0.584732
 11
29.0979
 21
0.618027
  0
LINE
  8
0
 10
29.0979
 20
0.618027
 11
29.109
 21
0.651123
  0
LINE
  8
0
 10
29.109
 20
0.651123
 11
29.1206
 21
0.684036
  0
LINE
  8
0
 10
29.1206
 20
0.684036
 11
29.1328
 21
0.716736
  0
LINE
  8
0
 10
29.1328
 20
0.716736
 11
29.1456
 21
0.749207
  0
LINE
  8
0
 10
29.1456
 20
0.749207
 11
29.159
 21
0.781448
  0
LINE
  8
0
 10
29.159
 20
0.781448
 11
29.1729
 21
0.813461
  0
LINE
  8
0
 10
29.1729
 20
0.813461
 11
29.1874
 21
0.84523
  0
LINE
  8
0
 10
29.1874
 20
0.84523
 11
29.2024
 21
0.87674
  0
LINE
  8
0
 10
29.2024
 20
0.87674
 11
29.218
 21
0.907974
  0
LINE
  8
0
 10
29.218
 20
0.907974
 11
29.2341
 21
0.938934
  0
LINE
  8
0
 10
29.2341
 20
0.938934
 11
29.2507
 21
0.969604
  0
LINE
  8
0
 10
29.2507
 20
0.969604
 11
29.2679
 21
1
  0
LINE
  8
0
 10
29.2679
 20
1
 11
29.2857
 21
1.03008
  0
LINE
  8
0
 10
29.2857
 20
1.03008
 11
29.3039
 21
1.05983
  0
LINE
  8
0
 10
29.3039
 20
1.05983
 11
29.3226
 21
1.08926
  0
LINE
  8
0
 10
29.3226
 20
1.08926
 11
29.3419
 21
1.11838
  0
LINE
  8
0
 10
29.3419
 20
1.11838
 11
29.3617
 21
1.14714
  0
LINE
  8
0
 10
29.3617
 20
1.14714
 11
29.382
 21
1.17557
  0
LINE
  8
0
 10
29.382
 20
1.17557
 11
29.4027
 21
1.20363
  0
LINE
  8
0
 10
29.4027
 20
1.20363
 11
29.424
 21
1.23131
  0
LINE
  8
0
 10
29.424
 20
1.23131
 11
29.4457
 21
1.25864
  0
LINE
  8
0
 10
29.4457
 20
1.25864
 11
29.4679
 21
1.28557
  0
LINE
  8
0
 10
29.4679
 20
1.28557
 11
29.4906
 21
1.3121
  0
LINE
  8
0
 10
29.4906
 20
1.3121
 11
29.5137
 21
1.33826
  0
LINE
  8
0
 10
29.5137
 20
1.33826
 11
29.5373
 21
1.36398
  0
LINE
  8
0
 10
29.5373
 20
1.36398
 11
29.5613
 21
1.38931
  0
LINE
  8
0
 10
29.5613
 20
1.38931
 11
29.5858
 21
1.4142
  0
LINE
  8
0
 10
29.5858
 20
1.4142
 11
29.6107
 21
1.43867
  0
LINE
  8
0
 10
29.6107
 20
1.43867
 11
29.636
 21
1.46269
  0
LINE
  8
0
 10
29.636
 20
1.46269
 11
29.6617
 21
1.48628
  0
LINE
  8
0
 10
29.6617
 20
1.48628
 11
29.6879
 21
1.50941
  0
LINE
  8
0
 10
29.6879
 20
1.50941
 11
29.7144
 21
1.53207
  0
LINE
  8
0
 10
29.7144
 20
1.53207
 11
29.7413
 21
1.55429
  0
LINE
  8
0
 10
29.7413
 20
1.55429
 11
29.7687
 21
1.57602
  0
LINE
  8
0
 10
29.7687
 20
1.57602
 11
29.7964
 21
1.59726
  0
LINE
  8
0
 10
29.7964
 20
1.59726
 11
29.8244
 21
1.61803
  0
LINE
  8
0
 10
29.8244
 20
1.61803
 11
29.8528
 21
1.63829
  0
LINE
  8
0
 10
29.8528
 20
1.63829
 11
29.8816
 21
1.65807
  0
LINE
  8
0
 10
29.8816
 20
1.65807
 11
29.9107
 21
1.67734
  0
LINE
  8
0
 10
29.9107
 20
1.67734
 11
29.9402
 21
1.69609
  0
LINE
  8
0
 10
29.9402
 20
1.69609
 11
29.9699
 21
1.71432
  0
LINE
  8
0
 10
29.9699
 20
1.71432
 11
30
 21
1.73204
  0
LINE
  8
0
 10
30
 20
1.73204
 11
30.0304
 21
1.74924
  0
LINE
  8
0
 10
30.0304
 20
1.74924
 11
30.0611
 21
1.76588
  0
LINE
  8
0
 10
30.0611
 20
1.76588
 11
30.092
 21
1.78201
  0
LINE
  8
0
 10
30.092
 20
1.78201
 11
30.1232
 21
1.79758
  0
LINE
  8
0
 10
30.1232
 20
1.79758
 11
30.1548
 21
1.81261
  0
LINE
  8
0
 10
30.1548
 20
1.81261
 11
30.1865
 21
1.82709
  0
LINE
  8
0
 10
30.1865
 20
1.82709
 11
30.2185
 21
1.841
  0
LINE
  8
0
 10
30.2185
 20
1.841
 11
30.2508
 21
1.85435
  0
LINE
  8
0
 10
30.2508
 20
1.85435
 11
30.2833
 21
1.86716
  0
LINE
  8
0
 10
30.2833
 20
1.86716
 11
30.3159
 21
1.87938
  0
LINE
  8
0
 10
30.3159
 20
1.87938
 11
30.3489
 21
1.89104
  0
LINE
  8
0
 10
30.3489
 20
1.89104
 11
30.382
 21
1.9021
  0
LINE
  8
0
 10
30.382
 20
1.9021
 11
30.4153
 21
1.9126
  0
LINE
  8
0
 10
30.4153
 20
1.9126
 11
30.4487
 21
1.92252
  0
LINE
  8
0
 10
30.4487
 20
1.92252
 11
30.4824
 21
1.93184
  0
LINE
  8
0
 10
30.4824
 20
1.93184
 11
30.5161
 21
1.94058
  0
LINE
  8
0
 10
30.5161
 20
1.94058
 11
30.5501
 21
1.94873
  0
LINE
  8
0
 10
30.5501
 20
1.94873
 11
30.5842
 21
1.95628
  0
LINE
  8
0
 10
30.5842
 20
1.95628
 11
30.6184
 21
1.96324
  0
LINE
  8
0
 10
30.6184
 20
1.96324
 11
30.6527
 21
1.9696
  0
LINE
  8
0
 10
30.6527
 20
1.9696
 11
30.6871
 21
1.97537
  0
LINE
  8
0
 10
30.6871
 20
1.97537
 11
30.7216
 21
1.98053
  0
LINE
  8
0
 10
30.7216
 20
1.98053
 11
30.7563
 21
1.98509
  0
LINE
  8
0
 10
30.7563
 20
1.98509
 11
30.7909
 21
1.98903
  0
LINE
  8
0
 10
30.7909
 20
1.98903
 11
30.8257
 21
1.99239
  0
LINE
  8
0
 10
30.8257
 20
1.99239
 11
30.8605
 21
1.99512
  0
LINE
  8
0
 10
30.8605
 20
1.99512
 11
30.8953
 21
1.99725
  0
LINE
  8
0
 10
30.8953
 20
1.99725
 11
30.9302
 21
1.99878
  0
LINE
  8
0
 10
30.9302
 20
1.99878
 11
30.9651
 21
1.99969
  0
LINE
  8
0
 10
30.9651
 20
1.99969
 11
31
 21
2
  0
LINE
  8
0
 10
31
 20
2
 11
31.0349
 21
1.99969
  0
LINE
  8
0
 10
31.0349
 20
1.99969
 11
31.0698
 21
1.99878
  0
LINE
  8
0
 10
31.0698
 20
1.99878
 11
31.1047
 21
1.99725
  0
LINE
  8
0
 10
31.1047
 20
1.99725
 11
31.1395
 21
1.99512
  0
LINE
  8
0
 10
31.1395
 20
1.99512
 11
31.1743
 21
1.99239
  0
LINE
  8
0
 10
31.1743
 20
1.99239
 11
31.209
 21
1.98903
  0
LINE
  8
0
 10
31.209
 20
1.98903
 11
31.2437
 21
1.98509
  0
LINE
  8
0
 10
31.2437
 20
1.98509
 11
31.2783
 21
1.98053
  0
LINE
  8
0
 10
31.2783
 20
1.98053
 11
31.3129
 21
1.97537
  0
LINE
  8
0
 10
31.3129
 20
1.97537
 11
31.3473
 21
1.9696
  0
LINE
  8
0
 10
31.3473
 20
1.9696
 11
31.3816
 21
1.96324
  0
LINE
  8
0
 10
31.3816
 20
1.96324
 11
31.4158
 21
1.95628
  0
LINE
  8
0
 10
31.4158
 20
1.95628
 11
31.4499
 21
1.94873
  0
LINE
  8
0
 10
31.4499
 20
1.94873
 11
31.4838
 21
1.94058
  0
LINE
  8
0
 10
31.4838
 20
1.94058
 11
31.5176
 21
1.93184
  0
LINE
  8
0
 10
31.5176
 20
1.93184
 11
31.5513
 21
1.92252
  0
LINE
  8
0
 10
31.5513
 20
1.92252
 11
31.5847
 21
1.9126
  0
LINE
  8
0
 10
31.5847
 20
1.9126
 11
31.618
 21
1.9021
  0
LINE
  8
0
 10
31.618
 20
1.9021
 11
31.6511
 21
1.89104
  0
LINE
  8
0
 10
31.6511
 20
1.89104
 11
31.684
 21
1.87938
  0
LINE
  8
0
 10
31.684
 20
1.87938
 11
31.7167
 21
1.86716
  0
LINE
  8
0
 10
31.7167
 20
1.86716
 11
31.7492
 21
1.85435
  0
LINE
  8
0
 10
31.7492
 20
1.85435
 11
31.7814
 21
1.841
  0
LINE
  8
0
 10
31.7814
 20
1.841
 11
31.8135
 21
1.82709
  0
LINE
  8
0
 10
31.8135
 20
1.82709
 11
31.8452
 21
1.81261
  0
LINE
  8
0
 10
31.8452
 20
1.81261
 11
31.8767
 21
1.79758
  0
LINE
  8
0
 10
31.8767
 20
1.79758
 11
31.908
 21
1.78201
  0
LINE
  8
0
 10
31.908
 20
1.78201
 11
31.9389
 21
1.76588
  0
LINE
  8
0
 10
31.9389
 20
1.76588
 11
31.9696
 21
1.74924
  0
LINE
  8
0
 10
31.9696
 20
1.74924
 11
32
 21
1.73204
  0
LINE
  8
0
 10
32
 20
1.73204
 11
32.0301
 21
1.71432
  0
LINE
  8
0
 10
32.0301
 20
1.71432
 11
32.0598
 21
1.69609
  0
LINE
  8
0
 10
32.0598
 20
1.69609
 11
32.0893
 21
1.67734
  0
LINE
  8
0
 10
32.0893
 20
1.67734
 11
32.1184
 21
1.65807
  0
LINE
  8
0
 10
32.1184
 20
1.65807
 11
32.1471
 21
1.63829
  0
LINE
  8
0
 10
32.1471
 20
1.63829
 11
32.1756
 21
1.61803
  0
LINE
  8
0
 10
32.1756
 20
1.61803
 11
32.2036
 21
1.59726
  0
LINE
  8
0
 10
32.2036
 20
1.59726
 11
32.2313
 21
1.57602
  0
LINE
  8
0
 10
32.2313
 20
1.57602
 11
32.2586
 21
1.55429
  0
LINE
  8
0
 10
32.2586
 20
1.55429
 11
32.2856
 21
1.53207
  0
LINE
  8
0
 10
32.2856
 20
1.53207
 11
32.3121
 21
1.50941
  0
LINE
  8
0
 10
32.3121
 20
1.50941
 11
32.3383
 21
1.48628
  0
LINE
  8
0
 10
32.3383
 20
1.48628
 11
32.364
 21
1.46269
  0
LINE
  8
0
 10
32.364
 20
1.46269
 11
32.3893
 21
1.43867
  0
LINE
  8
0
 10
32.3893
 20
1.43867
 11
32.4142
 21
1.4142
  0
LINE
  8
0
 10
32.4142
 20
1.4142
 11
32.4387
 21
1.38931
  0
LINE
  8
0
 10
32.4387
 20
1.38931
 11
32.4627
 21
1.36398
  0
LINE
  8
0
 10
32.4627
 20
1.36398
 11
32.4863
 21
1.33826
  0
LINE
  8
0
 10
32.4863
 20
1.33826
 11
32.5094
 21
1.3121
  0
LINE
  8
0
 10
32.5094
 20
1.3121
 11
32.5321
 21
1.28557
  0
LINE
  8
0
 10
32.5321
 20
1.28557
 11
32.5543
 21
1.25864
  0
LINE
  8
0
 10
32.5543
 20
1.25864
 11
32.576
 21
1.23131
  0
LINE
  8
0
 10
32.576
 20
1.23131
 11
32.5973
 21
1.20363
  0
LINE
  8
0
 10
32.5973
 20
1.20363
 11
32.618
 21
1.17557
  0
LINE
  8
0
 10
32.618
 20
1.17557
 11
32.6383
 21
1.14714
  0
LINE
  8
0
 10
32.6383
 20
1.14714
 11
32.6581
 21
1.11838
  0
LINE
  8
0
 10
32.6581
 20
1.11838
 11
32.6773
 21
1.08926
  0
LINE
  8
0
 10
32.6773
 20
1.08926
 11
32.6961
 21
1.05983
  0
LINE
  8
0
 10
32.6961
 20
1.05983
 11
32.7143
 21
1.03008
  0
LINE
  8
0
 10
32.7143
 20
1.03008
 11
32.732
 21
1
  0
LINE
  8
0
 10
32.732
 20
1
 11
32.7492
 21
0.969604
  0
LINE
  8
0
 10
32.7492
 20
0.969604
 11
32.7659
 21
0.938934
  0
LINE
  8
0
 10
32.7659
 20
0.938934
 11
32.782
 21
0.907974
  0
LINE
  8
0
 10
32.782
 20
0.907974
 11
32.7976
 21
0.87674
  0
LINE
  8
0
 10
32.7976
 20
0.87674
 11
32.8126
 21
0.84523
  0
LINE
  8
0
 10
32.8126
 20
0.84523
 11
32.8271
 21
0.813461
  0
LINE
  8
0
 10
32.8271
 20
0.813461
 11
32.841
 21
0.781448
  0
LINE
  8
0
 10
32.841
 20
0.781448
 11
32.8544
 21
0.749207
  0
LINE
  8
0
 10
32.8544
 20
0.749207
 11
32.8672
 21
0.716736
  0
LINE
  8
0
 10
32.8672
 20
0.716736
 11
32.8794
 21
0.684036
  0
LINE
  8
0
 10
32.8794
 20
0.684036
 11
32.891
 21
0.651123
  0
LINE
  8
0
 10
32.891
 20
0.651123
 11
32.9021
 21
0.618027
  0
LINE
  8
0
 10
32.9021
 20
0.618027
 11
32.9126
 21
0.584732
  0
LINE
  8
0
 10
32.9126
 20
0.584732
 11
32.9225
 21
0.55127
  0
LINE
  8
0
 10
32.9225
 20
0.55127
 11
32.9318
 21
0.517624
  0
LINE
  8
0
 10
32.9318
 20
0.517624
 11
32.9406
 21
0.483841
  0
LINE
  8
0
 10
32.9406
 20
0.483841
 11
32.9487
 21
0.44989
  0
LINE
  8
0
 10
32.9487
 20
0.44989
 11
32.9563
 21
0.415817
  0
LINE
  8
0
 10
32.9563
 20
0.415817
 11
32.9632
 21
0.381607
  0
LINE
  8
0
 10
32.9632
 20
0.381607
 11
32.9696
 21
0.34729
  0
LINE
  8
0
 10
32.9696
 20
0.34729
 11
32.9754
 21
0.312866
  0
LINE
  8
0
 10
32.9754
 20
0.312866
 11
32.9805
 21
0.278336
  0
LINE
  8
0
 10
32.9805
 20
0.278336
 11
32.9851
 21
0.243729
  0
LINE
  8
0
 10
32.9851
 20
0.243729
 11
32.989
 21
0.209045
  0
LINE
  8
0
 10
32.989
 20
0.209045
 11
32.9924
 21
0.174301
  0
LINE
  8
0
 10
32.9924
 20
0.174301
 11
32.9951
 21
0.139511
  0
LINE
  8
0
 10
32.9951
 20
0.139511
 11
32.9973
 21
0.10466
  0
LINE
  8
0
 10
32.9973
 20
0.10466
 11
32.9988
 21
0.0697937
  0
LINE
  8
0
 10
32.9988
 20
0.0697937
 11
32.9997
 21
0.0348969
  0
LINE
  8
0
 10
32.9997
 20
0.0348969
 11
33
 21
0
  0
LINE
  8
0
 10
33
 20
0
 11
32.9997
 21
-0.0348969
  0
LINE
  8
0
 10
32.9997
 20
-0.0348969
 11
32.9988
 21
-0.0697937
  0
LINE
  8
0
 10
32.9988
 20
-0.0697937
 11
32.9973
 21
-0.10466
  0
LINE
  8
0
 10
32.9973
 20
-0.10466
 11
32.9951
 21
-0.139511
  0
LINE
  8
0
 10
32.9951
 20
-0.139511
 11
32.9924
 21
-0.174301
  0
LINE
  8
0
 10
32.9924
 20
-0.174301
 11
32.989
 21
-0.209045
  0
LINE
  8
0
 10
32.989
 20
-0.209045
 11
32.9851
 21
-0.243729
  0
LINE
  8
0
 10
32.9851
 20
-0.243729
 11
32.9805
 21
-0.278336
  0
LINE
  8
0
 10
32.9805
 20
-0.278336
 11
32.9754
 21
-0.312866
  0
LINE
  8
0
 10
32.9754
 20
-0.312866
 11
32.9696
 21
-0.34729
  0
LINE
  8
0
 10
32.9696
 20
-0.34729
 11
32.9632
 21
-0.381607
  0
LINE
  8
0
 10
32.9632
 20
-0.381607
 11
32.9563
 21
-0.415817
  0
LINE
  8
0
 10
32.9563
 20
-0.415817
 11
32.9487
 21
-0.44989
  0
LINE
  8
0
 10
32.9487
 20
-0.44989
 11
32.9406
 21
-0.483841
  0
LINE
  8
0
 10
32.9406
 20
-0.483841
 11
32.9318
 21
-0.517624
  0
LINE
  8
0
 10
32.9318
 20
-0.517624
 11
32.9225
 21
-0.55127
  0
LINE
  8
0
 10
32.9225
 20
-0.55127
 11
32.9126
 21
-0.584732
  0
LINE
  8
0
 10
32.9126
 20
-0.584732
 11
32.9021
 21
-0.618027
  0
LINE
  8
0
 10
32.9021
 20
-0.618027
 11
32.891
 21
-0.651123
  0
LINE
  8
0
 10
32.891
 20
-0.651123
 11
32.8794
 21
-0.684036
  0
LINE
  8
0
 10
32.8794
 20
-0.684036
 11
32.8672
 21
-0.716736
  0
LINE
  8
0
 10
32.8672
 20
-0.716736
 11
32.8544
 21
-0.749207
  0
LINE
  8
0
 10
32.8544
 20
-0.749207
 11
32.841
 21
-0.781448
  0
LINE
  8
0
 10
32.841
 20
-0.781448
 11
32.8271
 21
-0.813461
  0
LINE
  8
0
 10
32.8271
 20
-0.813461
 11
32.8126
 21
-0.84523
  0
LINE
  8
0
 10
32.8126
 20
-0.84523
 11
32.7976
 21
-0.87674
  0
LINE
  8
0
 10
32.7976
 20
-0.87674
 11
32.782
 21
-0.907974
  0
LINE
  8
0
 10
32.782
 20
-0.907974
 11
32.7659
 21
-0.938934
  0
LINE
  8
0
 10
32.7659
 20
-0.938934
 11
32.7492
 21
-0.969604
  0
LINE
  8
0
 10
32.7492
 20
-0.969604
 11
32.732
 21
-1
  0
LINE
  8
0
 10
32.732
 20
-1
 11
32.7143
 21
-1.03008
  0
LINE
  8
0
 10
32.7143
 20
-1.03008
 11
32.6961
 21
-1.05983
  0
LINE
  8
0
 10
32.6961
 20
-1.05983
 11
32.6773
 21
-1.08926
  0
LINE
  8
0
 10
32.6773
 20
-1.08926
 11
32.6581
 21
-1.11838
  0
LINE
  8
0
 10
32.6581
 20
-1.11838
 11
32.6383
 21
-1.14714
  0
LINE
  8
0
 10
32.6383
 20
-1.14714
 11
32.618
 21
-1.17557
  0
LINE
  8
0
 10
32.618
 20
-1.17557
 11
32.5973
 21
-1.20363
  0
LINE
  8
0
 10
32.5973
 20
-1.20363
 11
32.576
 21
-1.23131
  0
LINE
  8
0
 10
32.576
 20
-1.23131
 11
32.5543
 21
-1.25864
  0
LINE
  8
0
 10
32.5543
 20
-1.25864
 11
32.5321
 21
-1.28557
  0
LINE
  8
0
 10
32.5321
 20
-1.28557
 11
32.5094
 21
-1.3121
  0
LINE
  8
0
 10
32.5094
 20
-1.3121
 11
32.4863
 21
-1.33826
  0
LINE
  8
0
 10
32.4863
 20
-1.33826
 11
32.4627
 21
-1.36398
  0
LINE
  8
0
 10
32.4627
 20
-1.36398
 11
32.4387
 21
-1.38931
  0
LINE
  8
0
 10
32.4387
 20
-1.38931
 11
32.4142
 21
-1.4142
  0
LINE
  8
0
 10
32.4142
 20
-1.4142
 11
32.3893
 21
-1.43867
  0
LINE
  8
0
 10
32.3893
 20
-1.43867
 11
32.364
 21
-1.46269
  0
LINE
  8
0
 10
32.364
 20
-1.46269
 11
32.3383
 21
-1.48628
  0
LINE
  8
0
 10
32.3383
 20
-1.48628
 11
32.3121
 21
-1.50941
  0
LINE
  8
0
 10
32.3121
 20
-1.50941
 11
32.2856
 21
-1.53207
  0
LINE
  8
0
 10
32.2856
 20
-1.53207
 11
32.2586
 21
-1.55429
  0
LINE
  8
0
 10
32.2586
 20
-1.55429
 11
32.2313
 21
-1.57602
  0
LINE
  8
0
 10
32.2313
 20
-1.57602
 11
32.2036
 21
-1.59726
  0
LINE
  8
0
 10
32.2036
 20
-1.59726
 11
32.1756
 21
-1.61803
  0
LINE
  8
0
 10
32.1756
 20
-1.61803
 11
32.1471
 21
-1.63829
  0
LINE
  8
0
 10
32.1471
 20
-1.63829
 11
32.1184
 21
-1.65807
  0
LINE
  8
0
 10
32.1184
 20
-1.65807
 11
32.0893
 21
-1.67734
  0
LINE
  8
0
 10
32.0893
 20
-1.67734
 11
32.0598
 21
-1.69609
  0
LINE
  8
0
 10
32.0598
 20
-1.69609
 11
32.0301
 21
-1.71432
  0
LINE
  8
0
 10
32.0301
 20
-1.71432
 11
32
 21
-1.73204
  0
LINE
  8
0
 10
32
 20
-1.73204
 11
31.9696
 21
-1.74924
  0
LINE
  8
0
 10
31.9696
 20
-1.74924
 11
31.9389
 21
-1.76588
  0
LINE
  8
0
 10
31.9389
 20
-1.76588
 11
31.908
 21
-1.78201
  0
LINE
  8
0
 10
31.908
 20
-1.78201
 11
31.8767
 21
-1.79758
  0
LINE
  8
0
 10
31.8767
 20
-1.79758
 11
31.8452
 21
-1.81261
  0
LINE
  8
0
 10
31.8452
 20
-1.81261
 11
31.8135
 21
-1.82709
  0
LINE
  8
0
 10
31.8135
 20
-1.82709
 11
31.7814
 21
-1.841
  0
LINE
  8
0
 10
31.7814
 20
-1.841
 11
31.7492
 21
-1.85435
  0
LINE
  8
0
 10
31.7492
 20
-1.85435
 11
31.7167
 21
-1.86716
  0
LINE
  8
0
 10
31.7167
 20
-1.86716
 11
31.684
 21
-1.87938
  0
LINE
  8
0
 10
31.684
 20
-1.87938
 11
31.6511
 21
-1.89104
  0
LINE
  8
0
 10
31.6511
 20
-1.89104
 11
31.618
 21
-1.9021
  0
LINE
  8
0
 10
31.618
 20
-1.9021
 11
31.5847
 21
-1.9126
  0
LINE
  8
0
 10
31.5847
 20
-1.9126
 11
31.5513
 21
-1.92252
  0
LINE
  8
0
 10
31.5513
 20
-1.92252
 11
31.5176
 21
-1.93184
  0
LINE
  8
0
 10
31.5176
 20
-1.93184
 11
31.4838
 21
-1.94058
  0
LINE
  8
0
 10
31.4838
 20
-1.94058
 11
31.4499
 21
-1.94873
  0
LINE
  8
0
 10
31.4499
 20
-1.94873
 11
31.4158
 21
-1.95628
  0
LINE
  8
0
 10
31.4158
 20
-1.95628
 11
31.3816
 21
-1.96324
  0
LINE
  8
0
 10
31.3816
 20
-1.96324
 11
31.3473
 21
-1.9696
  0
LINE
  8
0
 10
31.3473
 20
-1.9696
 11
31.3129
 21
-1.97537
  0
LINE
  8
0
 10
31.3129
 20
-1.97537
 11
31.2783
 21
-1.98053
  0
LINE
  8
0
 10
31.2783
 20
-1.98053
 11
31.2437
 21
-1.98509
  0
LINE
  8
0
 10
31.2437
 20
-1.98509
 11
31.209
 21
-1.98903
  0
LINE
  8
0
 10
31.209
 20
-1.98903
 11
31.1743
 21
-1.99239
  0
LINE
  8
0
 10
31.1743
 20
-1.99239
 11
31.1395
 21
-1.99512
  0
LINE
  8
0
 10
31.1395
 20
-1.99512
 11
31.1047
 21
-1.99725
  0
LINE
  8
0
 10
31.1047
 20
-1.99725
 11
31.0698
 21
-1.99878
  0
LINE
  8
0
 10
31.0698
 20
-1.99878
 11
31.0349
 21
-1.99969
  0
LINE
  8
0
 10
31.0349
 20
-1.99969
 11
31
 21
-2
  0
LINE
  8
0
 10
31
 20
-2
 11
30.9651
 21
-1.99969
  0
LINE
  8
0
 10
30.9651
 20
-1.99969
 11
30.9302
 21
-1.99878
  0
LINE
  8
0
 10
30.9302
 20
-1.99878
 11
30.8953
 21
-1.99725
  0
LINE
  8
0
 10
30.8953
 20
-1.99725
 11
30.8605
 21
-1.99512
  0
LINE
  8
0
 10
30.8605
 20
-1.99512
 11
30.8257
 21
-1.99239
  0
LINE
  8
0
 10
30.8257
 20
-1.99239
 11
30.7909
 21
-1.98903
  0
LINE
  8
0
 10
30.7909
 20
-1.98903
 11
30.7563
 21
-1.98509
  0
LINE
  8
0
 10
30.7563
 20
-1.98509
 11
30.7216
 21
-1.98053
  0
LINE
  8
0
 10
30.7216
 20
-1.98053
 11
30.6871
 21
-1.97537
  0
LINE
  8
0
 10
30.6871
 20
-1.97537
 11
30.6527
 21
-1.9696
  0
LINE
  8
0
 10
30.6527
 20
-1.9696
 11
30.6184
 21
-1.96324
  0
LINE
  8
0
 10
30.6184
 20
-1.96324
 11
30.5842
 21
-1.95628
  0
LINE
  8
0
 10
30.5842
 20
-1.95628
 11
30.5501
 21
-1.94873
  0
LINE
  8
0
 10
30.5501
 20
-1.94873
 11
30.5161
 21
-1.94058
  0
LINE
  8
0
 10
30.5161
 20
-1.94058
 11
30.4824
 21
-1.93184
  0
LINE
  8
0
 10
30.4824
 20
-1.93184
 11
30.4487
 21
-1.92252
  0
LINE
  8
0
 10
30.4487
 20
-1.92252
 11
30.4153
 21
-1.9126
  0
LINE
  8
0
 10
30.4153
 20
-1.9126
 11
30.382
 21
-1.9021
  0
LINE
  8
0
 10
30.382
 20
-1.9021
 11
30.3489
 21
-1.89104
  0
LINE
  8
0
 10
30.3489
 20
-1.89104
 11
30.3159
 21
-1.87938
  0
LINE
  8
0
 10
30.3159
 20
-1.87938
 11
30.2833
 21
-1.86716
  0
LINE
  8
0
 10
30.2833
 20
-1.86716
 11
30.2508
 21
-1.85435
  0
LINE
  8
0
 10
30.2508
 20
-1.85435
 11
30.2185
 21
-1.841
  0
LINE
  8
0
 10
30.2185
 20
-1.841
 11
30.1865
 21
-1.82709
  0
LINE
  8
0
 10
30.1865
 20
-1.82709
 11
30.1548
 21
-1.81261
  0
LINE
  8
0
 10
30.1548
 20
-1.81261
 11
30.1232
 21
-1.79758
  0
LINE
  8
0
 10
30.1232
 20
-1.79758
 11
30.092
 21
-1.78201
  0
LINE
  8
0
 10
30.092
 20
-1.78201
 11
30.0611
 21
-1.76588
  0
LINE
  8
0
 10
30.0611
 20
-1.76588
 11
30.0304
 21
-1.74924
  0
LINE
  8
0
 10
30.0304
 20
-1.74924
 11
30
 21
-1.73204
  0
LINE
  8
0
 10
30
 20
-1.73204
 11
29.9699
 21
-1.71432
  0
LINE
  8
0
 10
29.9699
 20
-1.71432
 11
29.9402
 21
-1.69609
  0
LINE
  8
0
 10
29.9402
 20
-1.69609
 11
29.9107
 21
-1.67734
  0
LINE
  8
0
 10
29.9107
 20
-1.67734
 11
29.8816
 21
-1.65807
  0
LINE
  8
0
 10
29.8816
 20
-1.65807
 11
29.8528
 21
-1.63829
  0
LINE
  8
0
 10
29.8528
 20
-1.63829
 11
29.8244
 21
-1.61803
  0
LINE
  8
0
 10
29.8244
 20
-1.61803
 11
29.7964
 21
-1.59726
  0
LINE
  8
0
 10
29.7964
 20
-1.59726
 11
29.7687
 21
-1.57602
  0
LINE
  8
0
 10
29.7687
 20
-1.57602
 11
29.7413
 21
-1.55429
  0
LINE
  8
0
 10
29.7413
 20
-1.55429
 11
29.7144
 21
-1.53207
  0
LINE
  8
0
 10
29.7144
 20
-1.53207
 11
29.6879
 21
-1.50941
  0
LINE
  8
0
 10
70
 20
-30
 11
70
 21
-22
  0
LINE
  8
0
 10
70
 20
-22
 11
100
 21
-22
  0
LINE
  8
0
 10
100
 20
-22
 11
100
 21
-30
  0
LINE
  8
0
 10
100
 20
-30
 11
70
 21
-30
  0
LINE
  8
0
 10
-100
 20
-30
 11
-100
 21
-22
  0
LINE
  8
0
 10
-100
 20
-22
 11
-70
 21
-22
  0
LINE
  8
0
 10
-70
 20
-22
 11
-70
 21
-30
  0
LINE
  8
0
 10
-70
 20
-30
 11
-100
 21
-30
  0
LINE
  8
0
 10
-29.7964
 20
1.59726
 11
-29.7687
 21
1.57602
  0
LINE
  8
0
 10
-29.7687
 20
1.57602
 11
-29.7413
 21
1.55429
  0
LINE
  8
0
 10
-29.7413
 20
1.55429
 11
-29.7144
 21
1.53207
  0
LINE
  8
0
 10
-29.7144
 20
1.53207
 11
-29.6879
 21
1.50941
  0
LINE
  8
0
 10
-29.6879
 20
1.50941
 11
-29.6617
 21
1.48628
  0
LINE
  8
0
 10
-29.6617
 20
1.48628
 11
-29.636
 21
1.46269
  0
LINE
  8
0
 10
-29.636
 20
1.46269
 11
-29.6107
 21
1.43867
  0
LINE
  8
0
 10
-29.6107
 20
1.43867
 11
-29.5858
 21
1.4142
  0
LINE
  8
0
 10
-29.5858
 20
1.4142
 11
-29.5613
 21
1.38931
  0
LINE
  8
0
 10
-29.5613
 20
1.38931
 11
-29.5373
 21
1.36398
  0
LINE
  8
0
 10
-29.5373
 20
1.36398
 11
-29.5137
 21
1.33826
  0
LINE
  8
0
 10
-29.5137
 20
1.33826
 11
-29.4906
 21
1.3121
  0
LINE
  8
0
 10
-29.4906
 20
1.3121
 11
-29.4679
 21
1.28557
  0
LINE
  8
0
 10
-29.4679
 20
1.28557
 11
-29.4457
 21
1.25864
  0
LINE
  8
0
 10
-29.4457
 20
1.25864
 11
-29.424
 21
1.23131
  0
LINE
  8
0
 10
-29.424
 20
1.23131
 11
-29.4027
 21
1.20363
  0
LINE
  8
0
 10
-29.4027
 20
1.20363
 11
-29.382
 21
1.17557
  0
LINE
  8
0
 10
-29.382
 20
1.17557
 11
-29.3617
 21
1.14714
  0
LINE
  8
0
 10
-29.3617
 20
1.14714
 11
-29.3419
 21
1.11838
  0
LINE
  8
0
 10
-29.3419
 20
1.11838
 11
-29.3226
 21
1.08926
  0
LINE
  8
0
 10
-29.3226
 20
1.08926
 11
-29.3039
 21
1.05983
  0
LINE
  8
0
 10
-29.3039
 20
1.05983
 11
-29.2857
 21
1.03008
  0
LINE
  8
0
 10
-29.2857
 20
1.03008
 11
-29.2679
 21
1
  0
LINE
  8
0
 10
-29.2679
 20
1
 11
-29.2507
 21
0.969604
  0
LINE
  8
0
 10
-29.2507
 20
0.969604
 11
-29.2341
 21
0.938934
  0
LINE
  8
0
 10
-29.2341
 20
0.938934
 11
-29.218
 21
0.907974
  0
LINE
  8
0
 10
-29.218
 20
0.907974
 11
-29.2024
 21
0.87674
  0
LINE
  8
0
 10
-29.2024
 20
0.87674
 11
-29.1874
 21
0.84523
  0
LINE
  8
0
 10
-29.1874
 20
0.84523
 11
-29.1729
 21
0.813461
  0
LINE
  8
0
 10
-29.1729
 20
0.813461
 11
-29.159
 21
0.781448
  0
LINE
  8
0
 10
-29.159
 20
0.781448
 11
-29.1456
 21
0.749207
  0
LINE
  8
0
 10
-29.1456
 20
0.749207
 11
-29.1328
 21
0.716736
  0
LINE
  8
0
 10
-29.1328
 20
0.716736
 11
-29.1206
 21
0.684036
  0
LINE
  8
0
 10
-29.1206
 20
0.684036
 11
-29.109
 21
0.651123
  0
LINE
  8
0
 10
-29.109
 20
0.651123
 11
-29.0979
 21
0.618027
  0
LINE
  8
0
 10
-29.0979
 20
0.618027
 11
-29.0874
 21
0.584732
  0
LINE
  8
0
 10
-29.0874
 20
0.584732
 11
-29.0775
 21
0.55127
  0
LINE
  8
0
 10
-29.0775
 20
0.55127
 11
-29.0681
 21
0.517624
  0
LINE
  8
0
 10
-29.0681
 20
0.517624
 11
-29.0594
 21
0.483841
  0
LINE
  8
0
 10
-29.0594
 20
0.483841
 11
-29.0513
 21
0.44989
  0
LINE
  8
0
 10
-29.0513
 20
0.44989
 11
-29.0437
 21
0.415817
  0
LINE
  8
0
 10
-29.0437
 20
0.415817
 11
-29.0367
 21
0.381607
  0
LINE
  8
0
 10
-29.0367
 20
0.381607
 11
-29.0304
 21
0.34729
  0
LINE
  8
0
 10
-29.0304
 20
0.34729
 11
-29.0246
 21
0.312866
  0
LINE
  8
0
 10
-29.0246
 20
0.312866
 11
-29.0195
 21
0.278336
  0
LINE
  8
0
 10
-29.0195
 20
0.278336
 11
-29.0149
 21
0.243729
  0
LINE
  8
0
 10
-29.0149
 20
0.243729
 11
-29.011
 21
0.209045
  0
LINE
  8
0
 10
-29.011
 20
0.209045
 11
-29.0076
 21
0.174301
  0
LINE
  8
0
 10
-29.0076
 20
0.174301
 11
-29.0049
 21
0.139511
  0
LINE
  8
0
 10
-29.0049
 20
0.139511
 11
-29.0027
 21
0.10466
  0
LINE
  8
0
 10
-29.0027
 20
0.10466
 11
-29.0012
 21
0.0697937
  0
LINE
  8
0
 10
-29.0012
 20
0.0697937
 11
-29.0003
 21
0.0348969
  0
LINE
  8
0
 10
-29.0003
 20
0.0348969
 11
-29
 21
0
  0
LINE
  8
0
 10
-29
 20
0
 11
-29.0003
 21
-0.0348969
  0
LINE
  8
0
 10
-29.0003
 20
-0.0348969
 11
-29.0012
 21
-0.0697937
  0
LINE
  8
0
 10
-29.0012
 20
-0.0697937
 11
-29.0027
 21
-0.10466
  0
LINE
  8
0
 10
-29.0027
 20
-0.10466
 11
-29.0049
 21
-0.139511
  0
LINE
  8
0
 10
-29.0049
 20
-0.139511
 11
-29.0076
 21
-0.174301
  0
LINE
  8
0
 10
-29.0076
 20
-0.174301
 11
-29.011
 21
-0.209045
  0
LINE
  8
0
 10
-29.011
 20
-0.209045
 11
-29.0149
 21
-0.243729
  0
LINE
  8
0
 10
-29.0149
 20
-0.243729
 11
-29.0195
 21
-0.278336
  0
LINE
  8
0
 10
-29.0195
 20
-0.278336
 11
-29.0246
 21
-0.312866
  0
LINE
  8
0
 10
-29.0246
 20
-0.312866
 11
-29.0304
 21
-0.34729
  0
LINE
  8
0
 10
-29.0304
 20
-0.34729
 11
-29.0367
 21
-0.381607
  0
LINE
  8
0
 10
-29.0367
 20
-0.381607
 11
-29.0437
 21
-0.415817
  0
LINE
  8
0
 10
-29.0437
 20
-0.415817
 11
-29.0513
 21
-0.44989
  0
LINE
  8
0
 10
-29.0513
 20
-0.44989
 11
-29.0594
 21
-0.483841
  0
LINE
  8
0
 10
-29.0594
 20
-0.483841
 11
-29.0681
 21
-0.517624
  0
LINE
  8
0
 10
-29.0681
 20
-0.517624
 11
-29.0775
 21
-0.55127
  0
LINE
  8
0
 10
-29.0775
 20
-0.55127
 11
-29.0874
 21
-0.584732
  0
LINE
  8
0
 10
-29.0874
 20
-0.584732
 11
-29.0979
 21
-0.618027
  0
LINE
  8
0
 10
-29.0979
 20
-0.618027
 11
-29.109
 21
-0.651123
  0
LINE
  8
0
 10
-29.109
 20
-0.651123
 11
-29.1206
 21
-0.684036
  0
LINE
  8
0
 10
-29.1206
 20
-0.684036
 11
-29.1328
 21
-0.716736
  0
LINE
  8
0
 10
-29.1328
 20
-0.716736
 11
-29.1456
 21
-0.749207
  0
LINE
  8
0
 10
-29.1456
 20
-0.749207
 11
-29.159
 21
-0.781448
  0
LINE
  8
0
 10
-29.159
 20
-0.781448
 11
-29.1729
 21
-0.813461
  0
LINE
  8
0
 10
-29.1729
 20
-0.813461
 11
-29.1874
 21
-0.84523
  0
LINE
  8
0
 10
-29.1874
 20
-0.84523
 11
-29.2024
 21
-0.87674
  0
LINE
  8
0
 10
-29.2024
 20
-0.87674
 11
-29.218
 21
-0.907974
  0
LINE
  8
0
 10
-29.218
 20
-0.907974
 11
-29.2341
 21
-0.938934
  0
LINE
  8
0
 10
-29.2341
 20
-0.938934
 11
-29.2507
 21
-0.969604
  0
LINE
  8
0
 10
-29.2507
 20
-0.969604
 11
-29.2679
 21
-1
  0
LINE
  8
0
 10
-29.2679
 20
-1
 11
-29.2857
 21
-1.03008
  0
LINE
  8
0
 10
-29.2857
 20
-1.03008
 11
-29.3039
 21
-1.05983
  0
LINE
  8
0
 10
-29.3039
 20
-1.05983
 11
-29.3226
 21
-1.08926
  0
LINE
  8
0
 10
-29.3226
 20
-1.08926
 11
-29.3419
 21
-1.11838
  0
LINE
  8
0
 10
-29.3419
 20
-1.11838
 11
-29.3617
 21
-1.14714
  0
LINE
  8
0
 10
-29.3617
 20
-1.14714
 11
-29.382
 21
-1.17557
  0
LINE
  8
0
 10
-29.382
 20
-1.17557
 11
-29.4027
 21
-1.20363
  0
LINE
  8
0
 10
-29.4027
 20
-1.20363
 11
-29.424
 21
-1.23131
  0
LINE
  8
0
 10
-29.424
 20
-1.23131
 11
-29.4457
 21
-1.25864
  0
LINE
  8
0
 10
-29.4457
 20
-1.25864
 11
-29.4679
 21
-1.28557
  0
LINE
  8
0
 10
-29.4679
 20
-1.28557
 11
-29.4906
 21
-1.3121
  0
LINE
  8
0
 10
-29.4906
 20
-1.3121
 11
-29.5137
 21
-1.33826
  0
LINE
  8
0
 10
-29.5137
 20
-1.33826
 11
-29.5373
 21
-1.36398
  0
LINE
  8
0
 10
-29.5373
 20
-1.36398
 11
-29.5613
 21
-1.38931
  0
LINE
  8
0
 10
-29.5613
 20
-1.38931
 11
-29.5858
 21
-1.4142
  0
LINE
  8
0
 10
-29.5858
 20
-1.4142
 11
-29.6107
 21
-1.43867
  0
LINE
  8
0
 10
-29.6107
 20
-1.43867
 11
-29.636
 21
-1.46269
  0
LINE
  8
0
 10
-29.636
 20
-1.46269
 11
-29.6617
 21
-1.48628
  0
LINE
  8
0
 10
-29.6617
 20
-1.48628
 11
-29.6879
 21
-1.50941
  0
LINE
  8
0
 10
-29.6879
 20
-1.50941
 11
-29.7144
 21
-1.53207
  0
LINE
  8
0
 10
-29.7144
 20
-1.53207
 11
-29.7413
 21
-1.55429
  0
LINE
  8
0
 10
-29.7413
 20
-1.55429
 11
-29.7687
 21
-1.57602
  0
LINE
  8
0
 10
-29.7687
 20
-1.57602
 11
-29.7964
 21
-1.59726
  0
LINE
  8
0
 10
-29.7964
 20
-1.59726
 11
-29.8244
 21
-1.61803
  0
LINE
  8
0
 10
-29.8244
 20
-1.61803
 11
-29.8528
 21
-1.63829
  0
LINE
  8
0
 10
-29.8528
 20
-1.63829
 11
-29.8816
 21
-1.65807
  0
LINE
  8
0
 10
-29.8816
 20
-1.65807
 11
-29.9107
 21
-1.67734
  0
LINE
  8
0
 10
-29.9107
 20
-1.67734
 11
-29.9402
 21
-1.69609
  0
LINE
  8
0
 10
-29.9402
 20
-1.69609
 11
-29.9699
 21
-1.71432
  0
LINE
  8
0
 10
-29.9699
 20
-1.71432
 11
-30
 21
-1.73204
  0
LINE
  8
0
 10
-30
 20
-1.73204
 11
-30.0304
 21
-1.74924
  0
LINE
  8
0
 10
-30.0304
 20
-1.74924
 11
-30.0611
 21
-1.76588
  0
LINE
  8
0
 10
-30.0611
 20
-1.76588
 11
-30.092
 21
-1.78201
  0
LINE
  8
0
 10
-30.092
 20
-1.78201
 11
-30.1232
 21
-1.79758
  0
LINE
  8
0
 10
-30.1232
 20
-1.79758
 11
-30.1548
 21
-1.81261
  0
LINE
  8
0
 10
-30.1548
 20
-1.81261
 11
-30.1865
 21
-1.82709
  0
LINE
  8
0
 10
-30.1865
 20
-1.82709
 11
-30.2185
 21
-1.841
  0
LINE
  8
0
 10
-30.2185
 20
-1.841
 11
-30.2508
 21
-1.85435
  0
LINE
  8
0
 10
-30.2508
 20
-1.85435
 11
-30.2833
 21
-1.86716
  0
LINE
  8
0
 10
-30.2833
 20
-1.86716
 11
-30.3159
 21
-1.87938
  0
LINE
  8
0
 10
-30.3159
 20
-1.87938
 11
-30.3489
 21
-1.89104
  0
LINE
  8
0
 10
-30.3489
 20
-1.89104
 11
-30.382
 21
-1.9021
  0
LINE
  8
0
 10
-30.382
 20
-1.9021
 11
-30.4153
 21
-1.9126
  0
LINE
  8
0
 10
-30.4153
 20
-1.9126
 11
-30.4487
 21
-1.92252
  0
LINE
  8
0
 10
-30.4487
 20
-1.92252
 11
-30.4824
 21
-1.93184
  0
LINE
  8
0
 10
-30.4824
 20
-1.93184
 11
-30.5161
 21
-1.94058
  0
LINE
  8
0
 10
-30.5161
 20
-1.94058
 11
-30.5501
 21
-1.94873
  0
LINE
  8
0
 10
-30.5501
 20
-1.94873
 11
-30.5842
 21
-1.95628
  0
LINE
  8
0
 10
-30.5842
 20
-1.95628
 11
-30.6184
 21
-1.96324
  0
LINE
  8
0
 10
-30.6184
 20
-1.96324
 11
-30.6527
 21
-1.9696
  0
LINE
  8
0
 10
-30.6527
 20
-1.9696
 11
-30.6871
 21
-1.97537
  0
LINE
  8
0
 10
-30.6871
 20
-1.97537
 11
-30.7216
 21
-1.98053
  0
LINE
  8
0
 10
-30.7216
 20
-1.98053
 11
-30.7563
 21
-1.98509
  0
LINE
  8
0
 10
-30.7563
 20
-1.98509
 11
-30.7909
 21
-1.98903
  0
LINE
  8
0
 10
-30.7909
 20
-1.98903
 11
-30.8257
 21
-1.99239
  0
LINE
  8
0
 10
-30.8257
 20
-1.99239
 11
-30.8605
 21
-1.99512
  0
LINE
  8
0
 10
-30.8605
 20
-1.99512
 11
-30.8953
 21
-1.99725
  0
LINE
  8
0
 10
-30.8953
 20
-1.99725
 11
-30.9302
 21
-1.99878
  0
LINE
  8
0
 10
-30.9302
 20
-1.99878
 11
-30.9651
 21
-1.99969
  0
LINE
  8
0
 10
-30.9651
 20
-1.99969
 11
-31
 21
-2
  0
LINE
  8
0
 10
-31
 20
-2
 11
-31.0349
 21
-1.99969
  0
LINE
  8
0
 10
-31.0349
 20
-1.99969
 11
-31.0698
 21
-1.99878
  0
LINE
  8
0
 10
-31.0698
 20
-1.99878
 11
-31.1047
 21
-1.99725
  0
LINE
  8
0
 10
-31.1047
 20
-1.99725
 11
-31.1395
 21
-1.99512
  0
LINE
  8
0
 10
-31.1395
 20
-1.99512
 11
-31.1743
 21
-1.99239
  0
LINE
  8
0
 10
-31.1743
 20
-1.99239
 11
-31.209
 21
-1.98903
  0
LINE
  8
0
 10
-31.209
 20
-1.98903
 11
-31.2437
 21
-1.98509
  0
LINE
  8
0
 10
-31.2437
 20
-1.98509
 11
-31.2783
 21
-1.98053
  0
LINE
  8
0
 10
-31.2783
 20
-1.98053
 11
-31.3129
 21
-1.97537
  0
LINE
  8
0
 10
-31.3129
 20
-1.97537
 11
-31.3473
 21
-1.9696
  0
LINE
  8
0
 10
-31.3473
 20
-1.9696
 11
-31.3816
 21
-1.96324
  0
LINE
  8
0
 10
-31.3816
 20
-1.96324
 11
-31.4158
 21
-1.95628
  0
LINE
  8
0
 10
-31.4158
 20
-1.95628
 11
-31.4499
 21
-1.94873
  0
LINE
  8
0
 10
-31.4499
 20
-1.94873
 11
-31.4838
 21
-1.94058
  0
LINE
  8
0
 10
-31.4838
 20
-1.94058
 11
-31.5176
 21
-1.93184
  0
LINE
  8
0
 10
-31.5176
 20
-1.93184
 11
-31.5513
 21
-1.92252
  0
LINE
  8
0
 10
-31.5513
 20
-1.92252
 11
-31.5847
 21
-1.9126
  0
LINE
  8
0
 10
-31.5847
 20
-1.9126
 11
-31.618
 21
-1.9021
  0
LINE
  8
0
 10
-31.618
 20
-1.9021
 11
-31.6511
 21
-1.89104
  0
LINE
  8
0
 10
-31.6511
 20
-1.89104
 11
-31.684
 21
-1.87938
  0
LINE
  8
0
 10
-31.684
 20
-1.87938
 11
-31.7167
 21
-1.86716
  0
LINE
  8
0
 10
-31.7167
 20
-1.86716
 11
-31.7492
 21
-1.85435
  0
LINE
  8
0
 10
-31.7492
 20
-1.85435
 11
-31.7814
 21
-1.841
  0
LINE
  8
0
 10
-31.7814
 20
-1.841
 11
-31.8135
 21
-1.82709
  0
LINE
  8
0
 10
-31.8135
 20
-1.82709
 11
-31.8452
 21
-1.81261
  0
LINE
  8
0
 10
-31.8452
 20
-1.81261
 11
-31.8767
 21
-1.79758
  0
LINE
  8
0
 10
-31.8767
 20
-1.79758
 11
-31.908
 21
-1.78201
  0
LINE
  8
0
 10
-31.908
 20
-1.78201
 11
-31.9389
 21
-1.76588
  0
LINE
  8
0
 10
-31.9389
 20
-1.76588
 11
-31.9696
 21
-1.74924
  0
LINE
  8
0
 10
-31.9696
 20
-1.74924
 11
-32
 21
-1.73204
  0
LINE
  8
0
 10
-32
 20
-1.73204
 11
-32.0301
 21
-1.71432
  0
LINE
  8
0
 10
-32.0301
 20
-1.71432
 11
-32.0598
 21
-1.69609
  0
LINE
  8
0
 10
-32.0598
 20
-1.69609
 11
-32.0893
 21
-1.67734
  0
LINE
  8
0
 10
-32.0893
 20
-1.67734
 11
-32.1184
 21
-1.65807
  0
LINE
  8
0
 10
-32.1184
 20
-1.65807
 11
-32.1471
 21
-1.63829
  0
LINE
  8
0
 10
-32.1471
 20
-1.63829
 11
-32.1756
 21
-1.61803
  0
LINE
  8
0
 10
-32.1756
 20
-1.61803
 11
-32.2036
 21
-1.59726
  0
LINE
  8
0
 10
-32.2036
 20
-1.59726
 11
-32.2313
 21
-1.57602
  0
LINE
  8
0
 10
-32.2313
 20
-1.57602
 11
-32.2586
 21
-1.55429
  0
LINE
  8
0
 10
-32.2586
 20
-1.55429
 11
-32.2856
 21
-1.53207
  0
LINE
  8
0
 10
-32.2856
 20
-1.53207
 11
-32.3121
 21
-1.50941
  0
LINE
  8
0
 10
-32.3121
 20
-1.50941
 11
-32.3383
 21
-1.48628
  0
LINE
  8
0
 10
-32.3383
 20
-1.48628
 11
-32.364
 21
-1.46269
  0
LINE
  8
0
 10
-32.364
 20
-1.46269
 11
-32.3893
 21
-1.43867
  0
LINE
  8
0
 10
-32.3893
 20
-1.43867
 11
-32.4142
 21
-1.4142
  0
LINE
  8
0
 10
-32.4142
 20
-1.4142
 11
-32.4387
 21
-1.38931
  0
LINE
  8
0
 10
-32.4387
 20
-1.38931
 11
-32.4627
 21
-1.36398
  0
LINE
  8
0
 10
-32.4627
 20
-1.36398
 11
-32.4863
 21
-1.33826
  0
LINE
  8
0
 10
-32.4863
 20
-1.33826
 11
-32.5094
 21
-1.3121
  0
LINE
  8
0
 10
-32.5094
 20
-1.3121
 11
-32.5321
 21
-1.28557
  0
LINE
  8
0
 10
-32.5321
 20
-1.28557
 11
-32.5543
 21
-1.25864
  0
LINE
  8
0
 10
-32.5543
 20
-1.25864
 11
-32.576
 21
-1.23131
  0
LINE
  8
0
 10
-32.576
 20
-1.23131
 11
-32.5973
 21
-1.20363
  0
LINE
  8
0
 10
-32.5973
 20
-1.20363
 11
-32.618
 21
-1.17557
  0
LINE
  8
0
 10
-32.618
 20
-1.17557
 11
-32.6383
 21
-1.14714
  0
LINE
  8
0
 10
-32.6383
 20
-1.14714
 11
-32.6581
 21
-1.11838
  0
LINE
  8
0
 10
-32.6581
 20
-1.11838
 11
-32.6773
 21
-1.08926
  0
LINE
  8
0
 10
-32.6773
 20
-1.08926
 11
-32.6961
 21
-1.05983
  0
LINE
  8
0
 10
-32.6961
 20
-1.05983
 11
-32.7143
 21
-1.03008
  0
LINE
  8
0
 10
-32.7143
 20
-1.03008
 11
-32.732
 21
-1
  0
LINE
  8
0
 10
-32.732
 20
-1
 11
-32.7492
 21
-0.969604
  0
LINE
  8
0
 10
-32.7492
 20
-0.969604
 11
-32.7659
 21
-0.938934
  0
LINE
  8
0
 10
-32.7659
 20
-0.938934
 11
-32.782
 21
-0.907974
  0
LINE
  8
0
 10
-32.782
 20
-0.907974
 11
-32.7976
 21
-0.87674
  0
LINE
  8
0
 10
-32.7976
 20
-0.87674
 11
-32.8126
 21
-0.84523
  0
LINE
  8
0
 10
-32.8126
 20
-0.84523
 11
-32.8271
 21
-0.813461
  0
LINE
  8
0
 10
-32.8271
 20
-0.813461
 11
-32.841
 21
-0.781448
  0
LINE
  8
0
 10
-32.841
 20
-0.781448
 11
-32.8544
 21
-0.749207
  0
LINE
  8
0
 10
-32.8544
 20
-0.749207
 11
-32.8672
 21
-0.716736
  0
LINE
  8
0
 10
-32.8672
 20
-0.716736
 11
-32.8794
 21
-0.684036
  0
LINE
  8
0
 10
-32.8794
 20
-0.684036
 11
-32.891
 21
-0.651123
  0
LINE
  8
0
 10
-32.891
 20
-0.651123
 11
-32.9021
 21
-0.618027
  0
LINE
  8
0
 10
-32.9021
 20
-0.618027
 11
-32.9126
 21
-0.584732
  0
LINE
  8
0
 10
-32.9126
 20
-0.584732
 11
-32.9225
 21
-0.55127
  0
LINE
  8
0
 10
-32.9225
 20
-0.55127
 11
-32.9318
 21
-0.517624
  0
LINE
  8
0
 10
-32.9318
 20
-0.517624
 11
-32.9406
 21
-0.483841
  0
LINE
  8
0
 10
-32.9406
 20
-0.483841
 11
-32.9487
 21
-0.44989
  0
LINE
  8
0
 10
-32.9487
 20
-0.44989
 11
-32.9563
 21
-0.415817
  0
LINE
  8
0
 10
-32.9563
 20
-0.415817
 11
-32.9632
 21
-0.381607
  0
LINE
  8
0
 10
-32.9632
 20
-0.381607
 11
-32.9696
 21
-0.34729
  0
LINE
  8
0
 10
-32.9696
 20
-0.34729
 11
-32.9754
 21
-0.312866
  0
LINE
  8
0
 10
-32.9754
 20
-0.312866
 11
-32.9805
 21
-0.278336
  0
LINE
  8
0
 10
-32.9805
 20
-0.278336
 11
-32.9851
 21
-0.243729
  0
LINE
  8
0
 10
-32.9851
 20
-0.243729
 11
-32.989
 21
-0.209045
  0
LINE
  8
0
 10
-32.989
 20
-0.209045
 11
-32.9924
 21
-0.174301
  0
LINE
  8
0
 10
-32.9924
 20
-0.174301
 11
-32.9951
 21
-0.139511
  0
LINE
  8
0
 10
-32.9951
 20
-0.139511
 11
-32.9973
 21
-0.10466
  0
LINE
  8
0
 10
-32.9973
 20
-0.10466
 11
-32.9988
 21
-0.0697937
  0
LINE
  8
0
 10
-32.9988
 20
-0.0697937
 11
-32.9997
 21
-0.0348969
  0
LINE
  8
0
 10
-32.9997
 20
-0.0348969
 11
-33
 21
0
  0
LINE
  8
0
 10
-33
 20
0
 11
-32.9997
 21
0.0348969
  0
LINE
  8
0
 10
-32.9997
 20
0.0348969
 11
-32.9988
 21
0.0697937
  0
LINE
  8
0
 10
-32.9988
 20
0.0697937
 11
-32.9973
 21
0.10466
  0
LINE
  8
0
 10
-32.9973
 20
0.10466
 11
-32.9951
 21
0.139511
  0
LINE
  8
0
 10
-32.9951
 20
0.139511
 11
-32.9924
 21
0.174301
  0
LINE
  8
0
 10
-32.9924
 20
0.174301
 11
-32.989
 21
0.209045
  0
LINE
  8
0
 10
-32.989
 20
0.209045
 11
-32.9851
 21
0.243729
  0
LINE
  8
0
 10
-32.9851
 20
0.243729
 11
-32.9805
 21
0.278336
  0
LINE
  8
0
 10
-32.9805
 20
0.278336
 11
-32.9754
 21
0.312866
  0
LINE
  8
0
 10
-32.9754
 20
0.312866
 11
-32.9696
 21
0.34729
  0
LINE
  8
0
 10
-32.9696
 20
0.34729
 11
-32.9632
 21
0.381607
  0
LINE
  8
0
 10
-32.9632
 20
0.381607
 11
-32.9563
 21
0.415817
  0
LINE
  8
0
 10
-32.9563
 20
0.415817
 11
-32.9487
 21
0.44989
  0
LINE
  8
0
 10
-32.9487
 20
0.44989
 11
-32.9406
 21
0.483841
  0
LINE
  8
0
 10
-32.9406
 20
0.483841
 11
-32.9318
 21
0.517624
  0
LINE
  8
0
 10
-32.9318
 20
0.517624
 11
-32.9225
 21
0.55127
  0
LINE
  8
0
 10
-32.9225
 20
0.55127
 11
-32.9126
 21
0.584732
  0
LINE
  8
0
 10
-32.9126
 20
0.584732
 11
-32.9021
 21
0.618027
  0
LINE
  8
0
 10
-32.9021
 20
0.618027
 11
-32.891
 21
0.651123
  0
LINE
  8
0
 10
-32.891
 20
0.651123
 11
-32.8794
 21
0.684036
  0
LINE
  8
0
 10
-32.8794
 20
0.684036
 11
-32.8672
 21
0.716736
  0
LINE
  8
0
 10
-32.8672
 20
0.716736
 11
-32.8544
 21
0.749207
  0
LINE
  8
0
 10
-32.8544
 20
0.749207
 11
-32.841
 21
0.781448
  0
LINE
  8
0
 10
-32.841
 20
0.781448
 11
-32.8271
 21
0.813461
  0
LINE
  8
0
 10
-32.8271
 20
0.813461
 11
-32.8126
 21
0.84523
  0
LINE
  8
0
 10
-32.8126
 20
0.84523
 11
-32.7976
 21
0.87674
  0
LINE
  8
0
 10
-32.7976
 20
0.87674
 11
-32.782
 21
0.907974
  0
LINE
  8
0
 10
-32.782
 20
0.907974
 11
-32.7659
 21
0.938934
  0
LINE
  8
0
 10
-32.7659
 20
0.938934
 11
-32.7492
 21
0.969604
  0
LINE
  8
0
 10
-32.7492
 20
0.969604
 11
-32.732
 21
1
  0
LINE
  8
0
 10
-32.732
 20
1
 11
-32.7143
 21
1.03008
  0
LINE
  8
0
 10
-32.7143
 20
1.03008
 11
-32.6961
 21
1.05983
  0
LINE
  8
0
 10
-32.6961
 20
1.05983
 11
-32.6773
 21
1.08926
  0
LINE
  8
0
 10
-32.6773
 20
1.08926
 11
-32.6581
 21
1.11838
  0
LINE
  8
0
 10
-32.6581
 20
1.11838
 11
-32.6383
 21
1.14714
  0
LINE
  8
0
 10
-32.6383
 20
1.14714
 11
-32.618
 21
1.17557
  0
LINE
  8
0
 10
-32.618
 20
1.17557
 11
-32.5973
 21
1.20363
  0
LINE
  8
0
 10
-32.5973
 20
1.20363
 11
-32.576
 21
1.23131
  0
LINE
  8
0
 10
-32.576
 20
1.23131
 11
-32.5543
 21
1.25864
  0
LINE
  8
0
 10
-32.5543
 20
1.25864
 11
-32.5321
 21
1.28557
  0
LINE
  8
0
 10
-32.5321
 20
1.28557
 11
-32.5094
 21
1.3121
  0
LINE
  8
0
 10
-32.5094
 20
1.3121
 11
-32.4863
 21
1.33826
  0
LINE
  8
0
 10
-32.4863
 20
1.33826
 11
-32.4627
 21
1.36398
  0
LINE
  8
0
 10
-32.4627
 20
1.36398
 11
-32.4387
 21
1.38931
  0
LINE
  8
0
 10
-32.4387
 20
1.38931
 11
-32.4142
 21
1.4142
  0
LINE
  8
0
 10
-32.4142
 20
1.4142
 11
-32.3893
 21
1.43867
  0
LINE
  8
0
 10
-32.3893
 20
1.43867
 11
-32.364
 21
1.46269
  0
LINE
  8
0
 10
-32.364
 20
1.46269
 11
-32.3383
 21
1.48628
  0
LINE
  8
0
 10
-32.3383
 20
1.48628
 11
-32.3121
 21
1.50941
  0
LINE
  8
0
 10
-32.3121
 20
1.50941
 11
-32.2856
 21
1.53207
  0
LINE
  8
0
 10
-32.2856
 20
1.53207
 11
-32.2586
 21
1.55429
  0
LINE
  8
0
 10
-32.2586
 20
1.55429
 11
-32.2313
 21
1.57602
  0
LINE
  8
0
 10
-32.2313
 20
1.57602
 11
-32.2036
 21
1.59726
  0
LINE
  8
0
 10
-32.2036
 20
1.59726
 11
-32.1756
 21
1.61803
  0
LINE
  8
0
 10
-32.1756
 20
1.61803
 11
-32.1471
 21
1.63829
  0
LINE
  8
0
 10
-32.1471
 20
1.63829
 11
-32.1184
 21
1.65807
  0
LINE
  8
0
 10
-32.1184
 20
1.65807
 11
-32.0893
 21
1.67734
  0
LINE
  8
0
 10
-32.0893
 20
1.67734
 11
-32.0598
 21
1.69609
  0
LINE
  8
0
 10
-32.0598
 20
1.69609
 11
-32.0301
 21
1.71432
  0
LINE
  8
0
 10
-32.0301
 20
1.71432
 11
-32
 21
1.73204
  0
LINE
  8
0
 10
-32
 20
1.73204
 11
-31.9696
 21
1.74924
  0
LINE
  8
0
 10
-31.9696
 20
1.74924
 11
-31.9389
 21
1.76588
  0
LINE
  8
0
 10
-31.9389
 20
1.76588
 11
-31.908
 21
1.78201
  0
LINE
  8
0
 10
-31.908
 20
1.78201
 11
-31.8767
 21
1.79758
  0
LINE
  8
0
 10
-31.8767
 20
1.79758
 11
-31.8452
 21
1.81261
  0
LINE
  8
0
 10
-31.8452
 20
1.81261
 11
-31.8135
 21
1.82709
  0
LINE
  8
0
 10
-31.8135
 20
1.82709
 11
-31.7814
 21
1.841
  0
LINE
  8
0
 10
-31.7814
 20
1.841
 11
-31.7492
 21
1.85435
  0
LINE
  8
0
 10
-31.7492
 20
1.85435
 11
-31.7167
 21
1.86716
  0
LINE
  8
0
 10
-31.7167
 20
1.86716
 11
-31.684
 21
1.87938
  0
LINE
  8
0
 10
-31.684
 20
1.87938
 11
-31.6511
 21
1.89104
  0
LINE
  8
0
 10
-31.6511
 20
1.89104
 11
-31.618
 21
1.9021
  0
LINE
  8
0
 10
-31.618
 20
1.9021
 11
-31.5847
 21
1.9126
  0
LINE
  8
0
 10
-31.5847
 20
1.9126
 11
-31.5513
 21
1.92252
  0
LINE
  8
0
 10
-31.5513
 20
1.92252
 11
-31.5176
 21
1.93184
  0
LINE
  8
0
 10
-31.5176
 20
1.93184
 11
-31.4838
 21
1.94058
  0
LINE
  8
0
 10
-31.4838
 20
1.94058
 11
-31.4499
 21
1.94873
  0
LINE
  8
0
 10
-31.4499
 20
1.94873
 11
-31.4158
 21
1.95628
  0
LINE
  8
0
 10
-31.4158
 20
1.95628
 11
-31.3816
 21
1.96324
  0
LINE
  8
0
 10
-31.3816
 20
1.96324
 11
-31.3473
 21
1.9696
  0
LINE
  8
0
 10
-31.3473
 20
1.9696
 11
-31.3129
 21
1.97537
  0
LINE
  8
0
 10
-31.3129
 20
1.97537
 11
-31.2783
 21
1.98053
  0
LINE
  8
0
 10
-31.2783
 20
1.98053
 11
-31.2437
 21
1.98509
  0
LINE
  8
0
 10
-31.2437
 20
1.98509
 11
-31.209
 21
1.98903
  0
LINE
  8
0
 10
-31.209
 20
1.98903
 11
-31.1743
 21
1.99239
  0
LINE
  8
0
 10
-31.1743
 20
1.99239
 11
-31.1395
 21
1.99512
  0
LINE
  8
0
 10
-31.1395
 20
1.99512
 11
-31.1047
 21
1.99725
  0
LINE
  8
0
 10
-31.1047
 20
1.99725
 11
-31.0698
 21
1.99878
  0
LINE
  8
0
 10
-31.0698
 20
1.99878
 11
-31.0349
 21
1.99969
  0
LINE
  8
0
 10
-31.0349
 20
1.99969
 11
-31
 21
2
  0
LINE
  8
0
 10
-31
 20
2
 11
-30.9651
 21
1.99969
  0
LINE
  8
0
 10
-30.9651
 20
1.99969
 11
-30.9302
 21
1.99878
  0
LINE
  8
0
 10
-30.9302
 20
1.99878
 11
-30.8953
 21
1.99725
  0
LINE
  8
0
 10
-30.8953
 20
1.99725
 11
-30.8605
 21
1.99512
  0
LINE
  8
0
 10
-30.8605
 20
1.99512
 11
-30.8257
 21
1.99239
  0
LINE
  8
0
 10
-30.8257
 20
1.99239
 11
-30.7909
 21
1.98903
  0
LINE
  8
0
 10
-30.7909
 20
1.98903
 11
-30.7563
 21
1.98509
  0
LINE
  8
0
 10
-30.7563
 20
1.98509
 11
-30.7216
 21
1.98053
  0
LINE
  8
0
 10
-30.7216
 20
1.98053
 11
-30.6871
 21
1.97537
  0
LINE
  8
0
 10
-30.6871
 20
1.97537
 11
-30.6527
 21
1.9696
  0
LINE
  8
0
 10
-30.6527
 20
1.9696
 11
-30.6184
 21
1.96324
  0
LINE
  8
0
 10
-30.6184
 20
1.96324
 11
-30.5842
 21
1.95628
  0
LINE
  8
0
 10
-30.5842
 20
1.95628
 11
-30.5501
 21
1.94873
  0
LINE
  8
0
 10
-30.5501
 20
1.94873
 11
-30.5161
 21
1.94058
  0
LINE
  8
0
 10
-30.5161
 20
1.94058
 11
-30.4824
 21
1.93184
  0
LINE
  8
0
 10
-30.4824
 20
1.93184
 11
-30.4487
 21
1.92252
  0
LINE
  8
0
 10
-30.4487
 20
1.92252
 11
-30.4153
 21
1.9126
  0
LINE
  8
0
 10
-30.4153
 20
1.9126
 11
-30.382
 21
1.9021
  0
LINE
  8
0
 10
-30.382
 20
1.9021
 11
-30.3489
 21
1.89104
  0
LINE
  8
0
 10
-30.3489
 20
1.89104
 11
-30.3159
 21
1.87938
  0
LINE
  8
0
 10
-30.3159
 20
1.87938
 11
-30.2833
 21
1.86716
  0
LINE
  8
0
 10
-30.2833
 20
1.86716
 11
-30.2508
 21
1.85435
  0
LINE
  8
0
 10
-30.2508
 20
1.85435
 11
-30.2185
 21
1.841
  0
LINE
  8
0
 10
-30.2185
 20
1.841
 11
-30.1865
 21
1.82709
  0
LINE
  8
0
 10
-30.1865
 20
1.82709
 11
-30.1548
 21
1.81261
  0
LINE
  8
0
 10
-30.1548
 20
1.81261
 11
-30.1232
 21
1.79758
  0
LINE
  8
0
 10
-30.1232
 20
1.79758
 11
-30.092
 21
1.78201
  0
LINE
  8
0
 10
-30.092
 20
1.78201
 11
-30.0611
 21
1.76588
  0
LINE
  8
0
 10
-30.0611
 20
1.76588
 11
-30.0304
 21
1.74924
  0
LINE
  8
0
 10
-30.0304
 20
1.74924
 11
-30
 21
1.73204
  0
LINE
  8
0
 10
-30
 20
1.73204
 11
-29.9699
 21
1.71432
  0
LINE
  8
0
 10
-29.9699
 20
1.71432
 11
-29.9402
 21
1.69609
  0
LINE
  8
0
 10
-29.9402
 20
1.69609
 11
-29.9107
 21
1.67734
  0
LINE
  8
0
 10
-29.9107
 20
1.67734
 11
-29.8816
 21
1.65807
  0
LINE
  8
0
 10
-29.8816
 20
1.65807
 11
-29.8528
 21
1.63829
  0
LINE
  8
0
 10
-29.8528
 20
1.63829
 11
-29.8244
 21
1.61803
  0
LINE
  8
0
 10
-29.8244
 20
1.61803
 11
-29.7964
 21
1.59726
  0
ENDSEC
  0
SECTION
  2
OBJECTS
  0
DICTIONARY
  0
ENDSEC
  0
EOF
