  0
SECTION
  2
BLOCKS
  0
ENDSEC
  0
SECTION
  2
ENTITIES
  0
LINE
  8
0
 10
2.75748
 20
-157.976
 11
5.51411
 21
-157.904
  0
LINE
  8
0
 10
5.51411
 20
-157.904
 11
8.26907
 21
-157.783
  0
LINE
  8
0
 10
8.26907
 20
-157.783
 11
11.0215
 21
-157.615
  0
LINE
  8
0
 10
11.0215
 20
-157.615
 11
13.7706
 21
-157.399
  0
LINE
  8
0
 10
13.7706
 20
-157.399
 11
16.5155
 21
-157.134
  0
LINE
  8
0
 10
16.5155
 20
-157.134
 11
19.2554
 21
-156.822
  0
LINE
  8
0
 10
19.2554
 20
-156.822
 11
21.9893
 21
-156.462
  0
LINE
  8
0
 10
21.9893
 20
-156.462
 11
24.7166
 21
-156.055
  0
LINE
  8
0
 10
24.7166
 20
-156.055
 11
27.4364
 21
-155.6
  0
LINE
  8
0
 10
27.4364
 20
-155.6
 11
30.1478
 21
-155.097
  0
LINE
  8
0
 10
30.1478
 20
-155.097
 11
32.85
 21
-154.547
  0
LINE
  8
0
 10
32.85
 20
-154.547
 11
35.5423
 21
-153.95
  0
LINE
  8
0
 10
35.5423
 20
-153.95
 11
38.2236
 21
-153.307
  0
LINE
  8
0
 10
38.2236
 20
-153.307
 11
40.8934
 21
-152.616
  0
LINE
  8
0
 10
40.8934
 20
-152.616
 11
43.5507
 21
-151.879
  0
LINE
  8
0
 10
43.5507
 20
-151.879
 11
46.1947
 21
-151.096
  0
LINE
  8
0
 10
46.1947
 20
-151.096
 11
48.8247
 21
-150.267
  0
LINE
  8
0
 10
48.8247
 20
-150.267
 11
51.4398
 21
-149.392
  0
LINE
  8
0
 10
51.4398
 20
-149.392
 11
54.0392
 21
-148.471
  0
LINE
  8
0
 10
54.0392
 20
-148.471
 11
56.6221
 21
-147.506
  0
LINE
  8
0
 10
56.6221
 20
-147.506
 11
59.1878
 21
-146.495
  0
LINE
  8
0
 10
59.1878
 20
-146.495
 11
61.7355
 21
-145.44
  0
LINE
  8
0
 10
61.7355
 20
-145.44
 11
64.2644
 21
-144.34
  0
LINE
  8
0
 10
64.2644
 20
-144.34
 11
66.7737
 21
-143.197
  0
LINE
  8
0
 10
66.7737
 20
-143.197
 11
69.2626
 21
-142.009
  0
LINE
  8
0
 10
69.2626
 20
-142.009
 11
71.7305
 21
-140.779
  0
LINE
  8
0
 10
71.7305
 20
-140.779
 11
74.1765
 21
-139.506
  0
LINE
  8
0
 10
74.1765
 20
-139.506
 11
76.5999
 21
-138.19
  0
LINE
  8
0
 10
76.5999
 20
-138.19
 11
79
 21
-136.832
  0
LINE
  8
0
 10
79
 20
-136.832
 11
81.376
 21
-135.432
  0
LINE
  8
0
 10
81.376
 20
-135.432
 11
83.7272
 21
-133.992
  0
LINE
  8
0
 10
83.7272
 20
-133.992
 11
86.053
 21
-132.51
  0
LINE
  8
0
 10
86.053
 20
-132.51
 11
88.3525
 21
-130.988
  0
LINE
  8
0
 10
88.3525
 20
-130.988
 11
90.6251
 21
-129.426
  0
LINE
  8
0
 10
90.6251
 20
-129.426
 11
92.8701
 21
-127.825
  0
LINE
  8
0
 10
92.8701
 20
-127.825
 11
95.0868
 21
-126.184
  0
LINE
  8
0
 10
95.0868
 20
-126.184
 11
97.2745
 21
-124.506
  0
LINE
  8
0
 10
97.2745
 20
-124.506
 11
99.4326
 21
-122.789
  0
LINE
  8
0
 10
99.4326
 20
-122.789
 11
101.56
 21
-121.035
  0
LINE
  8
0
 10
101.56
 20
-121.035
 11
103.657
 21
-119.244
  0
LINE
  8
0
 10
103.657
 20
-119.244
 11
105.723
 21
-117.417
  0
LINE
  8
0
 10
105.723
 20
-117.417
 11
107.756
 21
-115.554
  0
LINE
  8
0
 10
107.756
 20
-115.554
 11
109.756
 21
-113.656
  0
LINE
  8
0
 10
109.756
 20
-113.656
 11
111.723
 21
-111.723
  0
LINE
  8
0
 10
111.723
 20
-111.723
 11
113.656
 21
-109.756
  0
LINE
  8
0
 10
113.656
 20
-109.756
 11
115.554
 21
-107.756
  0
LINE
  8
0
 10
115.554
 20
-107.756
 11
117.417
 21
-105.723
  0
LINE
  8
0
 10
117.417
 20
-105.723
 11
119.244
 21
-103.657
  0
LINE
  8
0
 10
119.244
 20
-103.657
 11
121.035
 21
-101.56
  0
LINE
  8
0
 10
121.035
 20
-101.56
 11
122.789
 21
-99.4326
  0
LINE
  8
0
 10
122.789
 20
-99.4326
 11
124.506
 21
-97.2745
  0
LINE
  8
0
 10
124.506
 20
-97.2745
 11
126.184
 21
-95.0868
  0
LINE
  8
0
 10
126.184
 20
-95.0868
 11
127.825
 21
-92.8701
  0
LINE
  8
0
 10
127.825
 20
-92.8701
 11
129.426
 21
-90.6251
  0
LINE
  8
0
 10
129.426
 20
-90.6251
 11
130.988
 21
-88.3525
  0
LINE
  8
0
 10
130.988
 20
-88.3525
 11
132.51
 21
-86.053
  0
LINE
  8
0
 10
132.51
 20
-86.053
 11
133.992
 21
-83.7272
  0
LINE
  8
0
 10
133.992
 20
-83.7272
 11
135.432
 21
-81.376
  0
LINE
  8
0
 10
135.432
 20
-81.376
 11
136.832
 21
-79
  0
LINE
  8
0
 10
136.832
 20
-79
 11
138.19
 21
-76.5999
  0
LINE
  8
0
 10
138.19
 20
-76.5999
 11
139.506
 21
-74.1765
  0
LINE
  8
0
 10
139.506
 20
-74.1765
 11
140.779
 21
-71.7305
  0
LINE
  8
0
 10
140.779
 20
-71.7305
 11
142.009
 21
-69.2626
  0
LINE
  8
0
 10
142.009
 20
-69.2626
 11
143.197
 21
-66.7737
  0
LINE
  8
0
 10
143.197
 20
-66.7737
 11
144.34
 21
-64.2644
  0
LINE
  8
0
 10
144.34
 20
-64.2644
 11
145.44
 21
-61.7355
  0
LINE
  8
0
 10
145.44
 20
-61.7355
 11
146.495
 21
-59.1878
  0
LINE
  8
0
 10
146.495
 20
-59.1878
 11
147.506
 21
-56.6221
  0
LINE
  8
0
 10
147.506
 20
-56.6221
 11
148.471
 21
-54.0392
  0
LINE
  8
0
 10
148.471
 20
-54.0392
 11
149.392
 21
-51.4398
  0
LINE
  8
0
 10
149.392
 20
-51.4398
 11
150.267
 21
-48.8247
  0
LINE
  8
0
 10
150.267
 20
-48.8247
 11
151.096
 21
-46.1947
  0
LINE
  8
0
 10
151.096
 20
-46.1947
 11
151.879
 21
-43.5507
  0
LINE
  8
0
 10
151.879
 20
-43.5507
 11
152.616
 21
-40.8934
  0
LINE
  8
0
 10
152.616
 20
-40.8934
 11
153.307
 21
-38.2236
  0
LINE
  8
0
 10
153.307
 20
-38.2236
 11
153.95
 21
-35.5423
  0
LINE
  8
0
 10
153.95
 20
-35.5423
 11
154.547
 21
-32.85
  0
LINE
  8
0
 10
154.547
 20
-32.85
 11
155.097
 21
-30.1478
  0
LINE
  8
0
 10
155.097
 20
-30.1478
 11
155.6
 21
-27.4364
  0
LINE
  8
0
 10
155.6
 20
-27.4364
 11
156.055
 21
-24.7166
  0
LINE
  8
0
 10
156.055
 20
-24.7166
 11
156.462
 21
-21.9893
  0
LINE
  8
0
 10
156.462
 20
-21.9893
 11
156.822
 21
-19.2554
  0
LINE
  8
0
 10
156.822
 20
-19.2554
 11
157.134
 21
-16.5155
  0
LINE
  8
0
 10
157.134
 20
-16.5155
 11
157.399
 21
-13.7706
  0
LINE
  8
0
 10
157.399
 20
-13.7706
 11
157.615
 21
-11.0215
  0
LINE
  8
0
 10
157.615
 20
-11.0215
 11
157.783
 21
-8.26907
  0
LINE
  8
0
 10
157.783
 20
-8.26907
 11
157.904
 21
-5.51411
  0
LINE
  8
0
 10
157.904
 20
-5.51411
 11
157.976
 21
-2.75748
  0
LINE
  8
0
 10
157.976
 20
-2.75748
 11
158
 21
0
  0
LINE
  8
0
 10
158
 20
0
 11
125
 21
0
  0
LINE
  8
0
 10
125
 20
0
 11
124.981
 21
-2.18155
  0
LINE
  8
0
 10
124.981
 20
-2.18155
 11
124.924
 21
-4.36243
  0
LINE
  8
0
 10
124.924
 20
-4.36243
 11
124.829
 21
-6.54199
  0
LINE
  8
0
 10
124.829
 20
-6.54199
 11
124.695
 21
-8.71956
  0
LINE
  8
0
 10
124.695
 20
-8.71956
 11
124.524
 21
-10.8945
  0
LINE
  8
0
 10
124.524
 20
-10.8945
 11
124.315
 21
-13.0661
  0
LINE
  8
0
 10
124.315
 20
-13.0661
 11
124.068
 21
-15.2337
  0
LINE
  8
0
 10
124.068
 20
-15.2337
 11
123.784
 21
-17.3966
  0
LINE
  8
0
 10
123.784
 20
-17.3966
 11
123.461
 21
-19.5543
  0
LINE
  8
0
 10
123.461
 20
-19.5543
 11
123.101
 21
-21.706
  0
LINE
  8
0
 10
123.101
 20
-21.706
 11
122.703
 21
-23.8511
  0
LINE
  8
0
 10
122.703
 20
-23.8511
 11
122.268
 21
-25.989
  0
LINE
  8
0
 10
122.268
 20
-25.989
 11
121.796
 21
-28.1189
  0
LINE
  8
0
 10
121.796
 20
-28.1189
 11
121.287
 21
-30.2402
  0
LINE
  8
0
 10
121.287
 20
-30.2402
 11
120.741
 21
-32.3524
  0
LINE
  8
0
 10
120.741
 20
-32.3524
 11
120.158
 21
-34.4547
  0
LINE
  8
0
 10
120.158
 20
-34.4547
 11
119.538
 21
-36.5465
  0
LINE
  8
0
 10
119.538
 20
-36.5465
 11
118.882
 21
-38.6271
  0
LINE
  8
0
 10
118.882
 20
-38.6271
 11
118.19
 21
-40.696
  0
LINE
  8
0
 10
118.19
 20
-40.696
 11
117.462
 21
-42.7525
  0
LINE
  8
0
 10
117.462
 20
-42.7525
 11
116.698
 21
-44.796
  0
LINE
  8
0
 10
116.698
 20
-44.796
 11
115.898
 21
-46.8258
  0
LINE
  8
0
 10
115.898
 20
-46.8258
 11
115.063
 21
-48.8414
  0
LINE
  8
0
 10
115.063
 20
-48.8414
 11
114.193
 21
-50.8421
  0
LINE
  8
0
 10
114.193
 20
-50.8421
 11
113.288
 21
-52.8273
  0
LINE
  8
0
 10
113.288
 20
-52.8273
 11
112.349
 21
-54.7964
  0
LINE
  8
0
 10
112.349
 20
-54.7964
 11
111.376
 21
-56.7488
  0
LINE
  8
0
 10
111.376
 20
-56.7488
 11
110.368
 21
-58.6839
  0
LINE
  8
0
 10
110.368
 20
-58.6839
 11
109.327
 21
-60.6012
  0
LINE
  8
0
 10
109.327
 20
-60.6012
 11
108.253
 21
-62.5
  0
LINE
  8
0
 10
108.253
 20
-62.5
 11
107.146
 21
-64.3798
  0
LINE
  8
0
 10
107.146
 20
-64.3798
 11
106.006
 21
-66.2399
  0
LINE
  8
0
 10
106.006
 20
-66.2399
 11
104.834
 21
-68.0799
  0
LINE
  8
0
 10
104.834
 20
-68.0799
 11
103.63
 21
-69.8991
  0
LINE
  8
0
 10
103.63
 20
-69.8991
 11
102.394
 21
-71.6971
  0
LINE
  8
0
 10
102.394
 20
-71.6971
 11
101.127
 21
-73.4732
  0
LINE
  8
0
 10
101.127
 20
-73.4732
 11
99.8294
 21
-75.2269
  0
LINE
  8
0
 10
99.8294
 20
-75.2269
 11
98.5013
 21
-76.9577
  0
LINE
  8
0
 10
98.5013
 20
-76.9577
 11
97.1432
 21
-78.665
  0
LINE
  8
0
 10
97.1432
 20
-78.665
 11
95.7556
 21
-80.3484
  0
LINE
  8
0
 10
95.7556
 20
-80.3484
 11
94.3387
 21
-82.0074
  0
LINE
  8
0
 10
94.3387
 20
-82.0074
 11
92.8931
 21
-83.6413
  0
LINE
  8
0
 10
92.8931
 20
-83.6413
 11
91.4192
 21
-85.2498
  0
LINE
  8
0
 10
91.4192
 20
-85.2498
 11
89.9175
 21
-86.8323
  0
LINE
  8
0
 10
89.9175
 20
-86.8323
 11
88.3884
 21
-88.3884
  0
LINE
  8
0
 10
88.3884
 20
-88.3884
 11
86.8323
 21
-89.9175
  0
LINE
  8
0
 10
86.8323
 20
-89.9175
 11
85.2498
 21
-91.4192
  0
LINE
  8
0
 10
85.2498
 20
-91.4192
 11
83.6413
 21
-92.8931
  0
LINE
  8
0
 10
83.6413
 20
-92.8931
 11
82.0074
 21
-94.3387
  0
LINE
  8
0
 10
82.0074
 20
-94.3387
 11
80.3484
 21
-95.7556
  0
LINE
  8
0
 10
80.3484
 20
-95.7556
 11
78.665
 21
-97.1432
  0
LINE
  8
0
 10
78.665
 20
-97.1432
 11
76.9577
 21
-98.5013
  0
LINE
  8
0
 10
76.9577
 20
-98.5013
 11
75.2269
 21
-99.8294
  0
LINE
  8
0
 10
75.2269
 20
-99.8294
 11
73.4732
 21
-101.127
  0
LINE
  8
0
 10
73.4732
 20
-101.127
 11
71.6971
 21
-102.394
  0
LINE
  8
0
 10
71.6971
 20
-102.394
 11
69.8991
 21
-103.63
  0
LINE
  8
0
 10
69.8991
 20
-103.63
 11
68.0799
 21
-104.834
  0
LINE
  8
0
 10
68.0799
 20
-104.834
 11
66.2399
 21
-106.006
  0
LINE
  8
0
 10
66.2399
 20
-106.006
 11
64.3798
 21
-107.146
  0
LINE
  8
0
 10
64.3798
 20
-107.146
 11
62.5
 21
-108.253
  0
LINE
  8
0
 10
62.5
 20
-108.253
 11
60.6012
 21
-109.327
  0
LINE
  8
0
 10
60.6012
 20
-109.327
 11
58.6839
 21
-110.368
  0
LINE
  8
0
 10
58.6839
 20
-110.368
 11
56.7488
 21
-111.376
  0
LINE
  8
0
 10
56.7488
 20
-111.376
 11
54.7964
 21
-112.349
  0
LINE
  8
0
 10
54.7964
 20
-112.349
 11
52.8273
 21
-113.288
  0
LINE
  8
0
 10
52.8273
 20
-113.288
 11
50.8421
 21
-114.193
  0
LINE
  8
0
 10
50.8421
 20
-114.193
 11
48.8414
 21
-115.063
  0
LINE
  8
0
 10
48.8414
 20
-115.063
 11
46.8258
 21
-115.898
  0
LINE
  8
0
 10
46.8258
 20
-115.898
 11
44.796
 21
-116.698
  0
LINE
  8
0
 10
44.796
 20
-116.698
 11
42.7525
 21
-117.462
  0
LINE
  8
0
 10
42.7525
 20
-117.462
 11
40.696
 21
-118.19
  0
LINE
  8
0
 10
40.696
 20
-118.19
 11
38.6271
 21
-118.882
  0
LINE
  8
0
 10
38.6271
 20
-118.882
 11
36.5465
 21
-119.538
  0
LINE
  8
0
 10
36.5465
 20
-119.538
 11
34.4547
 21
-120.158
  0
LINE
  8
0
 10
34.4547
 20
-120.158
 11
32.3524
 21
-120.741
  0
LINE
  8
0
 10
32.3524
 20
-120.741
 11
30.2402
 21
-121.287
  0
LINE
  8
0
 10
30.2402
 20
-121.287
 11
28.1189
 21
-121.796
  0
LINE
  8
0
 10
28.1189
 20
-121.796
 11
25.989
 21
-122.268
  0
LINE
  8
0
 10
25.989
 20
-122.268
 11
23.8511
 21
-122.703
  0
LINE
  8
0
 10
23.8511
 20
-122.703
 11
21.706
 21
-123.101
  0
LINE
  8
0
 10
21.706
 20
-123.101
 11
19.5543
 21
-123.461
  0
LINE
  8
0
 10
19.5543
 20
-123.461
 11
17.3966
 21
-123.784
  0
LINE
  8
0
 10
17.3966
 20
-123.784
 11
15.2337
 21
-124.068
  0
LINE
  8
0
 10
15.2337
 20
-124.068
 11
13.0661
 21
-124.315
  0
LINE
  8
0
 10
13.0661
 20
-124.315
 11
10.8945
 21
-124.524
  0
LINE
  8
0
 10
10.8945
 20
-124.524
 11
8.71956
 21
-124.695
  0
LINE
  8
0
 10
8.71956
 20
-124.695
 11
6.54199
 21
-124.829
  0
LINE
  8
0
 10
6.54199
 20
-124.829
 11
4.36243
 21
-124.924
  0
LINE
  8
0
 10
4.36243
 20
-124.924
 11
2.18155
 21
-124.981
  0
LINE
  8
0
 10
2.18155
 20
-124.981
 11
0
 21
-125
  0
LINE
  8
0
 10
0
 20
-125
 11
-2.18155
 21
-124.981
  0
LINE
  8
0
 10
-2.18155
 20
-124.981
 11
-4.36243
 21
-124.924
  0
LINE
  8
0
 10
-4.36243
 20
-124.924
 11
-6.54199
 21
-124.829
  0
LINE
  8
0
 10
-6.54199
 20
-124.829
 11
-8.71956
 21
-124.695
  0
LINE
  8
0
 10
-8.71956
 20
-124.695
 11
-10.8945
 21
-124.524
  0
LINE
  8
0
 10
-10.8945
 20
-124.524
 11
-13.0661
 21
-124.315
  0
LINE
  8
0
 10
-13.0661
 20
-124.315
 11
-15.2337
 21
-124.068
  0
LINE
  8
0
 10
-15.2337
 20
-124.068
 11
-17.3966
 21
-123.784
  0
LINE
  8
0
 10
-17.3966
 20
-123.784
 11
-19.5543
 21
-123.461
  0
LINE
  8
0
 10
-19.5543
 20
-123.461
 11
-21.706
 21
-123.101
  0
LINE
  8
0
 10
-21.706
 20
-123.101
 11
-23.8511
 21
-122.703
  0
LINE
  8
0
 10
-23.8511
 20
-122.703
 11
-25.989
 21
-122.268
  0
LINE
  8
0
 10
-25.989
 20
-122.268
 11
-28.1189
 21
-121.796
  0
LINE
  8
0
 10
-28.1189
 20
-121.796
 11
-30.2402
 21
-121.287
  0
LINE
  8
0
 10
-30.2402
 20
-121.287
 11
-32.3524
 21
-120.741
  0
LINE
  8
0
 10
-32.3524
 20
-120.741
 11
-34.4547
 21
-120.158
  0
LINE
  8
0
 10
-34.4547
 20
-120.158
 11
-36.5465
 21
-119.538
  0
LINE
  8
0
 10
-36.5465
 20
-119.538
 11
-38.6271
 21
-118.882
  0
LINE
  8
0
 10
-38.6271
 20
-118.882
 11
-40.696
 21
-118.19
  0
LINE
  8
0
 10
-40.696
 20
-118.19
 11
-42.7525
 21
-117.462
  0
LINE
  8
0
 10
-42.7525
 20
-117.462
 11
-44.796
 21
-116.698
  0
LINE
  8
0
 10
-44.796
 20
-116.698
 11
-46.8258
 21
-115.898
  0
LINE
  8
0
 10
-46.8258
 20
-115.898
 11
-48.8414
 21
-115.063
  0
LINE
  8
0
 10
-48.8414
 20
-115.063
 11
-50.8421
 21
-114.193
  0
LINE
  8
0
 10
-50.8421
 20
-114.193
 11
-52.8273
 21
-113.288
  0
LINE
  8
0
 10
-52.8273
 20
-113.288
 11
-54.7964
 21
-112.349
  0
LINE
  8
0
 10
-54.7964
 20
-112.349
 11
-56.7488
 21
-111.376
  0
LINE
  8
0
 10
-56.7488
 20
-111.376
 11
-58.6839
 21
-110.368
  0
LINE
  8
0
 10
-58.6839
 20
-110.368
 11
-60.6012
 21
-109.327
  0
LINE
  8
0
 10
-60.6012
 20
-109.327
 11
-62.5
 21
-108.253
  0
LINE
  8
0
 10
-62.5
 20
-108.253
 11
-64.3798
 21
-107.146
  0
LINE
  8
0
 10
-64.3798
 20
-107.146
 11
-66.2399
 21
-106.006
  0
LINE
  8
0
 10
-66.2399
 20
-106.006
 11
-68.0799
 21
-104.834
  0
LINE
  8
0
 10
-68.0799
 20
-104.834
 11
-69.8991
 21
-103.63
  0
LINE
  8
0
 10
-69.8991
 20
-103.63
 11
-71.6971
 21
-102.394
  0
LINE
  8
0
 10
-71.6971
 20
-102.394
 11
-73.4732
 21
-101.127
  0
LINE
  8
0
 10
-73.4732
 20
-101.127
 11
-75.2269
 21
-99.8294
  0
LINE
  8
0
 10
-75.2269
 20
-99.8294
 11
-76.9577
 21
-98.5013
  0
LINE
  8
0
 10
-76.9577
 20
-98.5013
 11
-78.665
 21
-97.1432
  0
LINE
  8
0
 10
-78.665
 20
-97.1432
 11
-80.3484
 21
-95.7556
  0
LINE
  8
0
 10
-80.3484
 20
-95.7556
 11
-82.0074
 21
-94.3387
  0
LINE
  8
0
 10
-82.0074
 20
-94.3387
 11
-83.6413
 21
-92.8931
  0
LINE
  8
0
 10
-83.6413
 20
-92.8931
 11
-85.2498
 21
-91.4192
  0
LINE
  8
0
 10
-85.2498
 20
-91.4192
 11
-86.8323
 21
-89.9175
  0
LINE
  8
0
 10
-86.8323
 20
-89.9175
 11
-88.3884
 21
-88.3884
  0
LINE
  8
0
 10
-88.3884
 20
-88.3884
 11
-89.9175
 21
-86.8323
  0
LINE
  8
0
 10
-89.9175
 20
-86.8323
 11
-91.4192
 21
-85.2498
  0
LINE
  8
0
 10
-91.4192
 20
-85.2498
 11
-92.8931
 21
-83.6413
  0
LINE
  8
0
 10
-92.8931
 20
-83.6413
 11
-94.3387
 21
-82.0074
  0
LINE
  8
0
 10
-94.3387
 20
-82.0074
 11
-95.7556
 21
-80.3484
  0
LINE
  8
0
 10
-95.7556
 20
-80.3484
 11
-97.1432
 21
-78.665
  0
LINE
  8
0
 10
-97.1432
 20
-78.665
 11
-98.5013
 21
-76.9577
  0
LINE
  8
0
 10
-98.5013
 20
-76.9577
 11
-99.8294
 21
-75.2269
  0
LINE
  8
0
 10
-99.8294
 20
-75.2269
 11
-101.127
 21
-73.4732
  0
LINE
  8
0
 10
-101.127
 20
-73.4732
 11
-102.394
 21
-71.6971
  0
LINE
  8
0
 10
-102.394
 20
-71.6971
 11
-103.63
 21
-69.8991
  0
LINE
  8
0
 10
-103.63
 20
-69.8991
 11
-104.834
 21
-68.0799
  0
LINE
  8
0
 10
-104.834
 20
-68.0799
 11
-106.006
 21
-66.2399
  0
LINE
  8
0
 10
-106.006
 20
-66.2399
 11
-107.146
 21
-64.3798
  0
LINE
  8
0
 10
-107.146
 20
-64.3798
 11
-108.253
 21
-62.5
  0
LINE
  8
0
 10
-108.253
 20
-62.5
 11
-109.327
 21
-60.6012
  0
LINE
  8
0
 10
-109.327
 20
-60.6012
 11
-110.368
 21
-58.6839
  0
LINE
  8
0
 10
-110.368
 20
-58.6839
 11
-111.376
 21
-56.7488
  0
LINE
  8
0
 10
-111.376
 20
-56.7488
 11
-112.349
 21
-54.7964
  0
LINE
  8
0
 10
-112.349
 20
-54.7964
 11
-113.288
 21
-52.8273
  0
LINE
  8
0
 10
-113.288
 20
-52.8273
 11
-114.193
 21
-50.8421
  0
LINE
  8
0
 10
-114.193
 20
-50.8421
 11
-115.063
 21
-48.8414
  0
LINE
  8
0
 10
-115.063
 20
-48.8414
 11
-115.898
 21
-46.8258
  0
LINE
  8
0
 10
-115.898
 20
-46.8258
 11
-116.698
 21
-44.796
  0
LINE
  8
0
 10
-116.698
 20
-44.796
 11
-117.462
 21
-42.7525
  0
LINE
  8
0
 10
-117.462
 20
-42.7525
 11
-118.19
 21
-40.696
  0
LINE
  8
0
 10
-118.19
 20
-40.696
 11
-118.882
 21
-38.6271
  0
LINE
  8
0
 10
-118.882
 20
-38.6271
 11
-119.538
 21
-36.5465
  0
LINE
  8
0
 10
-119.538
 20
-36.5465
 11
-120.158
 21
-34.4547
  0
LINE
  8
0
 10
-120.158
 20
-34.4547
 11
-120.741
 21
-32.3524
  0
LINE
  8
0
 10
-120.741
 20
-32.3524
 11
-121.287
 21
-30.2402
  0
LINE
  8
0
 10
-121.287
 20
-30.2402
 11
-121.796
 21
-28.1189
  0
LINE
  8
0
 10
-121.796
 20
-28.1189
 11
-122.268
 21
-25.989
  0
LINE
  8
0
 10
-122.268
 20
-25.989
 11
-122.703
 21
-23.8511
  0
LINE
  8
0
 10
-122.703
 20
-23.8511
 11
-123.101
 21
-21.706
  0
LINE
  8
0
 10
-123.101
 20
-21.706
 11
-123.461
 21
-19.5543
  0
LINE
  8
0
 10
-123.461
 20
-19.5543
 11
-123.784
 21
-17.3966
  0
LINE
  8
0
 10
-123.784
 20
-17.3966
 11
-124.068
 21
-15.2337
  0
LINE
  8
0
 10
-124.068
 20
-15.2337
 11
-124.315
 21
-13.0661
  0
LINE
  8
0
 10
-124.315
 20
-13.0661
 11
-124.524
 21
-10.8945
  0
LINE
  8
0
 10
-124.524
 20
-10.8945
 11
-124.695
 21
-8.71956
  0
LINE
  8
0
 10
-124.695
 20
-8.71956
 11
-124.829
 21
-6.54199
  0
LINE
  8
0
 10
-124.829
 20
-6.54199
 11
-124.924
 21
-4.36243
  0
LINE
  8
0
 10
-124.924
 20
-4.36243
 11
-124.981
 21
-2.18155
  0
LINE
  8
0
 10
-124.981
 20
-2.18155
 11
-125
 21
0
  0
LINE
  8
0
 10
-125
 20
0
 11
-158
 21
0
  0
LINE
  8
0
 10
-158
 20
0
 11
-157.976
 21
-2.75748
  0
LINE
  8
0
 10
-157.976
 20
-2.75748
 11
-157.904
 21
-5.51411
  0
LINE
  8
0
 10
-157.904
 20
-5.51411
 11
-157.783
 21
-8.26907
  0
LINE
  8
0
 10
-157.783
 20
-8.26907
 11
-157.615
 21
-11.0215
  0
LINE
  8
0
 10
-157.615
 20
-11.0215
 11
-157.399
 21
-13.7706
  0
LINE
  8
0
 10
-157.399
 20
-13.7706
 11
-157.134
 21
-16.5155
  0
LINE
  8
0
 10
-157.134
 20
-16.5155
 11
-156.822
 21
-19.2554
  0
LINE
  8
0
 10
-156.822
 20
-19.2554
 11
-156.462
 21
-21.9893
  0
LINE
  8
0
 10
-156.462
 20
-21.9893
 11
-156.055
 21
-24.7166
  0
LINE
  8
0
 10
-156.055
 20
-24.7166
 11
-155.6
 21
-27.4364
  0
LINE
  8
0
 10
-155.6
 20
-27.4364
 11
-155.097
 21
-30.1478
  0
LINE
  8
0
 10
-155.097
 20
-30.1478
 11
-154.547
 21
-32.85
  0
LINE
  8
0
 10
-154.547
 20
-32.85
 11
-153.95
 21
-35.5423
  0
LINE
  8
0
 10
-153.95
 20
-35.5423
 11
-153.307
 21
-38.2236
  0
LINE
  8
0
 10
-153.307
 20
-38.2236
 11
-152.616
 21
-40.8934
  0
LINE
  8
0
 10
-152.616
 20
-40.8934
 11
-151.879
 21
-43.5507
  0
LINE
  8
0
 10
-151.879
 20
-43.5507
 11
-151.096
 21
-46.1947
  0
LINE
  8
0
 10
-151.096
 20
-46.1947
 11
-150.267
 21
-48.8247
  0
LINE
  8
0
 10
-150.267
 20
-48.8247
 11
-149.392
 21
-51.4398
  0
LINE
  8
0
 10
-149.392
 20
-51.4398
 11
-148.471
 21
-54.0392
  0
LINE
  8
0
 10
-148.471
 20
-54.0392
 11
-147.506
 21
-56.6221
  0
LINE
  8
0
 10
-147.506
 20
-56.6221
 11
-146.495
 21
-59.1878
  0
LINE
  8
0
 10
-146.495
 20
-59.1878
 11
-145.44
 21
-61.7355
  0
LINE
  8
0
 10
-145.44
 20
-61.7355
 11
-144.34
 21
-64.2644
  0
LINE
  8
0
 10
-144.34
 20
-64.2644
 11
-143.197
 21
-66.7737
  0
LINE
  8
0
 10
-143.197
 20
-66.7737
 11
-142.009
 21
-69.2626
  0
LINE
  8
0
 10
-142.009
 20
-69.2626
 11
-140.779
 21
-71.7305
  0
LINE
  8
0
 10
-140.779
 20
-71.7305
 11
-139.506
 21
-74.1765
  0
LINE
  8
0
 10
-139.506
 20
-74.1765
 11
-138.19
 21
-76.5999
  0
LINE
  8
0
 10
-138.19
 20
-76.5999
 11
-136.832
 21
-79
  0
LINE
  8
0
 10
-136.832
 20
-79
 11
-135.432
 21
-81.376
  0
LINE
  8
0
 10
-135.432
 20
-81.376
 11
-133.992
 21
-83.7272
  0
LINE
  8
0
 10
-133.992
 20
-83.7272
 11
-132.51
 21
-86.053
  0
LINE
  8
0
 10
-132.51
 20
-86.053
 11
-130.988
 21
-88.3525
  0
LINE
  8
0
 10
-130.988
 20
-88.3525
 11
-129.426
 21
-90.6251
  0
LINE
  8
0
 10
-129.426
 20
-90.6251
 11
-127.825
 21
-92.8701
  0
LINE
  8
0
 10
-127.825
 20
-92.8701
 11
-126.184
 21
-95.0868
  0
LINE
  8
0
 10
-126.184
 20
-95.0868
 11
-124.506
 21
-97.2745
  0
LINE
  8
0
 10
-124.506
 20
-97.2745
 11
-122.789
 21
-99.4326
  0
LINE
  8
0
 10
-122.789
 20
-99.4326
 11
-121.035
 21
-101.56
  0
LINE
  8
0
 10
-121.035
 20
-101.56
 11
-119.244
 21
-103.657
  0
LINE
  8
0
 10
-119.244
 20
-103.657
 11
-117.417
 21
-105.723
  0
LINE
  8
0
 10
-117.417
 20
-105.723
 11
-115.554
 21
-107.756
  0
LINE
  8
0
 10
-115.554
 20
-107.756
 11
-113.656
 21
-109.756
  0
LINE
  8
0
 10
-113.656
 20
-109.756
 11
-111.723
 21
-111.723
  0
LINE
  8
0
 10
-111.723
 20
-111.723
 11
-109.756
 21
-113.656
  0
LINE
  8
0
 10
-109.756
 20
-113.656
 11
-107.756
 21
-115.554
  0
LINE
  8
0
 10
-107.756
 20
-115.554
 11
-105.723
 21
-117.417
  0
LINE
  8
0
 10
-105.723
 20
-117.417
 11
-103.657
 21
-119.244
  0
LINE
  8
0
 10
-103.657
 20
-119.244
 11
-101.56
 21
-121.035
  0
LINE
  8
0
 10
-101.56
 20
-121.035
 11
-99.4326
 21
-122.789
  0
LINE
  8
0
 10
-99.4326
 20
-122.789
 11
-97.2745
 21
-124.506
  0
LINE
  8
0
 10
-97.2745
 20
-124.506
 11
-95.0868
 21
-126.184
  0
LINE
  8
0
 10
-95.0868
 20
-126.184
 11
-92.8701
 21
-127.825
  0
LINE
  8
0
 10
-92.8701
 20
-127.825
 11
-90.6251
 21
-129.426
  0
LINE
  8
0
 10
-90.6251
 20
-129.426
 11
-88.3525
 21
-130.988
  0
LINE
  8
0
 10
-88.3525
 20
-130.988
 11
-86.053
 21
-132.51
  0
LINE
  8
0
 10
-86.053
 20
-132.51
 11
-83.7272
 21
-133.992
  0
LINE
  8
0
 10
-83.7272
 20
-133.992
 11
-81.376
 21
-135.432
  0
LINE
  8
0
 10
-81.376
 20
-135.432
 11
-79
 21
-136.832
  0
LINE
  8
0
 10
-79
 20
-136.832
 11
-76.5999
 21
-138.19
  0
LINE
  8
0
 10
-76.5999
 20
-138.19
 11
-74.1765
 21
-139.506
  0
LINE
  8
0
 10
-74.1765
 20
-139.506
 11
-71.7305
 21
-140.779
  0
LINE
  8
0
 10
-71.7305
 20
-140.779
 11
-69.2626
 21
-142.009
  0
LINE
  8
0
 10
-69.2626
 20
-142.009
 11
-66.7737
 21
-143.197
  0
LINE
  8
0
 10
-66.7737
 20
-143.197
 11
-64.2644
 21
-144.34
  0
LINE
  8
0
 10
-64.2644
 20
-144.34
 11
-61.7355
 21
-145.44
  0
LINE
  8
0
 10
-61.7355
 20
-145.44
 11
-59.1878
 21
-146.495
  0
LINE
  8
0
 10
-59.1878
 20
-146.495
 11
-56.6221
 21
-147.506
  0
LINE
  8
0
 10
-56.6221
 20
-147.506
 11
-54.0392
 21
-148.471
  0
LINE
  8
0
 10
-54.0392
 20
-148.471
 11
-51.4398
 21
-149.392
  0
LINE
  8
0
 10
-51.4398
 20
-149.392
 11
-48.8247
 21
-150.267
  0
LINE
  8
0
 10
-48.8247
 20
-150.267
 11
-46.1947
 21
-151.096
  0
LINE
  8
0
 10
-46.1947
 20
-151.096
 11
-43.5507
 21
-151.879
  0
LINE
  8
0
 10
-43.5507
 20
-151.879
 11
-40.8934
 21
-152.616
  0
LINE
  8
0
 10
-40.8934
 20
-152.616
 11
-38.2236
 21
-153.307
  0
LINE
  8
0
 10
-38.2236
 20
-153.307
 11
-35.5423
 21
-153.95
  0
LINE
  8
0
 10
-35.5423
 20
-153.95
 11
-32.85
 21
-154.547
  0
LINE
  8
0
 10
-32.85
 20
-154.547
 11
-30.1478
 21
-155.097
  0
LINE
  8
0
 10
-30.1478
 20
-155.097
 11
-27.4364
 21
-155.6
  0
LINE
  8
0
 10
-27.4364
 20
-155.6
 11
-24.7166
 21
-156.055
  0
LINE
  8
0
 10
-24.7166
 20
-156.055
 11
-21.9893
 21
-156.462
  0
LINE
  8
0
 10
-21.9893
 20
-156.462
 11
-19.2554
 21
-156.822
  0
LINE
  8
0
 10
-19.2554
 20
-156.822
 11
-16.5155
 21
-157.134
  0
LINE
  8
0
 10
-16.5155
 20
-157.134
 11
-13.7706
 21
-157.399
  0
LINE
  8
0
 10
-13.7706
 20
-157.399
 11
-11.0215
 21
-157.615
  0
LINE
  8
0
 10
-11.0215
 20
-157.615
 11
-8.26907
 21
-157.783
  0
LINE
  8
0
 10
-8.26907
 20
-157.783
 11
-5.51411
 21
-157.904
  0
LINE
  8
0
 10
-5.51411
 20
-157.904
 11
-2.75748
 21
-157.976
  0
LINE
  8
0
 10
-2.75748
 20
-157.976
 11
0
 21
-158
  0
LINE
  8
0
 10
0
 20
-158
 11
2.75748
 21
-157.976
  0
ENDSEC
  0
SECTION
  2
OBJECTS
  0
DICTIONARY
  0
ENDSEC
  0
EOF
