<?xml version="1.0" standalone="no"?>
<!DOCTYPE svg PUBLIC "-//W3C//DTD SVG 1.1//EN" "http://www.w3.org/Graphics/SVG/1.1/DTD/svg11.dtd">
<svg width="84mm" height="106mm" viewBox="0 -106 84 106" xmlns="http://www.w3.org/2000/svg" version="1.1">
<title>OpenSCAD Model</title>
<path d="
M 84,-106 L 0,-106 L 0,-0 L 84,-0 z
M 72.9651,-82.0003 L 72.9302,-82.0012 L 72.8953,-82.0027 L 72.8605,-82.0049 L 72.8257,-82.0076 L 72.7909,-82.011
 L 72.7563,-82.0149 L 72.7216,-82.0195 L 72.6871,-82.0246 L 72.6527,-82.0304 L 72.6184,-82.0367 L 72.5842,-82.0437
 L 72.5501,-82.0513 L 72.5162,-82.0594 L 72.4824,-82.0681 L 72.4487,-82.0775 L 72.4153,-82.0874 L 72.382,-82.0979
 L 72.3489,-82.109 L 72.3159,-82.1206 L 72.2833,-82.1328 L 72.2508,-82.1456 L 72.2185,-82.159 L 72.1865,-82.1729
 L 72.1548,-82.1874 L 72.1233,-82.2024 L 72.092,-82.218 L 72.0611,-82.2341 L 72.0304,-82.2508 L 72,-82.2679
 L 71.9699,-82.2857 L 71.9402,-82.3039 L 71.9107,-82.3227 L 71.8816,-82.3419 L 71.8528,-82.3617 L 71.8244,-82.382
 L 71.7964,-82.4027 L 71.7687,-82.424 L 71.7413,-82.4457 L 71.7144,-82.4679 L 71.6879,-82.4906 L 71.6617,-82.5137
 L 71.636,-82.5373 L 71.6107,-82.5613 L 71.5858,-82.5858 L 71.5613,-82.6107 L 71.5373,-82.636 L 71.5137,-82.6617
 L 71.4906,-82.6879 L 71.4679,-82.7144 L 71.4457,-82.7413 L 71.424,-82.7687 L 71.4027,-82.7964 L 71.382,-82.8244
 L 71.3617,-82.8528 L 71.3419,-82.8816 L 71.3227,-82.9107 L 71.3039,-82.9402 L 71.2857,-82.9699 L 71.2679,-83
 L 71.2508,-83.0304 L 71.2341,-83.0611 L 71.218,-83.092 L 71.2024,-83.1233 L 71.1874,-83.1548 L 71.1729,-83.1865
 L 71.159,-83.2185 L 71.1456,-83.2508 L 71.1328,-83.2833 L 71.1206,-83.3159 L 71.109,-83.3489 L 71.0979,-83.382
 L 71.0874,-83.4153 L 71.0775,-83.4487 L 71.0681,-83.4824 L 71.0594,-83.5162 L 71.0513,-83.5501 L 71.0437,-83.5842
 L 71.0367,-83.6184 L 71.0304,-83.6527 L 71.0246,-83.6871 L 71.0195,-83.7216 L 71.0149,-83.7563 L 71.011,-83.7909
 L 71.0076,-83.8257 L 71.0049,-83.8605 L 71.0027,-83.8953 L 71.0012,-83.9302 L 71.0003,-83.9651 L 71,-84
 L 71.0003,-84.0349 L 71.0012,-84.0698 L 71.0027,-84.1047 L 71.0049,-84.1395 L 71.0076,-84.1743 L 71.011,-84.2091
 L 71.0149,-84.2437 L 71.0195,-84.2783 L 71.0246,-84.3129 L 71.0304,-84.3473 L 71.0367,-84.3816 L 71.0437,-84.4158
 L 71.0513,-84.4499 L 71.0594,-84.4838 L 71.0681,-84.5176 L 71.0775,-84.5513 L 71.0874,-84.5847 L 71.0979,-84.618
 L 71.109,-84.6511 L 71.1206,-84.684 L 71.1328,-84.7167 L 71.1456,-84.7492 L 71.159,-84.7815 L 71.1729,-84.8135
 L 71.1874,-84.8452 L 71.2024,-84.8767 L 71.218,-84.908 L 71.2341,-84.9389 L 71.2508,-84.9696 L 71.2679,-85
 L 71.2857,-85.0301 L 71.3039,-85.0598 L 71.3227,-85.0893 L 71.3419,-85.1184 L 71.3617,-85.1472 L 71.382,-85.1756
 L 71.4027,-85.2036 L 71.424,-85.2313 L 71.4457,-85.2586 L 71.4679,-85.2856 L 71.4906,-85.3121 L 71.5137,-85.3383
 L 71.5373,-85.364 L 71.5613,-85.3893 L 71.5858,-85.4142 L 71.6107,-85.4387 L 71.636,-85.4627 L 71.6617,-85.4863
 L 71.6879,-85.5094 L 71.7144,-85.5321 L 71.7413,-85.5543 L 71.7687,-85.576 L 71.7964,-85.5973 L 71.8244,-85.618
 L 71.8528,-85.6383 L 71.8816,-85.6581 L 71.9107,-85.6773 L 71.9402,-85.6961 L 71.9699,-85.7143 L 72,-85.732
 L 72.0304,-85.7492 L 72.0611,-85.7659 L 72.092,-85.782 L 72.1233,-85.7976 L 72.1548,-85.8126 L 72.1865,-85.8271
 L 72.2185,-85.841 L 72.2508,-85.8544 L 72.2833,-85.8672 L 72.3159,-85.8794 L 72.3489,-85.891 L 72.382,-85.9021
 L 72.4153,-85.9126 L 72.4487,-85.9225 L 72.4824,-85.9319 L 72.5162,-85.9406 L 72.5501,-85.9487 L 72.5842,-85.9563
 L 72.6184,-85.9633 L 72.6527,-85.9696 L 72.6871,-85.9754 L 72.7216,-85.9805 L 72.7563,-85.9851 L 72.7909,-85.989
 L 72.8257,-85.9924 L 72.8605,-85.9951 L 72.8953,-85.9973 L 72.9302,-85.9988 L 72.9651,-85.9997 L 73,-86
 L 73.0349,-85.9997 L 73.0698,-85.9988 L 73.1047,-85.9973 L 73.1395,-85.9951 L 73.1743,-85.9924 L 73.2091,-85.989
 L 73.2437,-85.9851 L 73.2783,-85.9805 L 73.3129,-85.9754 L 73.3473,-85.9696 L 73.3816,-85.9633 L 73.4158,-85.9563
 L 73.4499,-85.9487 L 73.4838,-85.9406 L 73.5176,-85.9319 L 73.5513,-85.9225 L 73.5847,-85.9126 L 73.618,-85.9021
 L 73.6511,-85.891 L 73.684,-85.8794 L 73.7167,-85.8672 L 73.7492,-85.8544 L 73.7815,-85.841 L 73.8135,-85.8271
 L 73.8452,-85.8126 L 73.8767,-85.7976 L 73.908,-85.782 L 73.9389,-85.7659 L 73.9696,-85.7492 L 74,-85.732
 L 74.0301,-85.7143 L 74.0598,-85.6961 L 74.0893,-85.6773 L 74.1184,-85.6581 L 74.1472,-85.6383 L 74.1756,-85.618
 L 74.2036,-85.5973 L 74.2313,-85.576 L 74.2586,-85.5543 L 74.2856,-85.5321 L 74.3121,-85.5094 L 74.3383,-85.4863
 L 74.364,-85.4627 L 74.3893,-85.4387 L 74.4142,-85.4142 L 74.4387,-85.3893 L 74.4627,-85.364 L 74.4863,-85.3383
 L 74.5094,-85.3121 L 74.5321,-85.2856 L 74.5543,-85.2586 L 74.576,-85.2313 L 74.5973,-85.2036 L 74.618,-85.1756
 L 74.6383,-85.1472 L 74.6581,-85.1184 L 74.6773,-85.0893 L 74.6961,-85.0598 L 74.7143,-85.0301 L 74.732,-85
 L 74.7492,-84.9696 L 74.7659,-84.9389 L 74.782,-84.908 L 74.7976,-84.8767 L 74.8126,-84.8452 L 74.8271,-84.8135
 L 74.841,-84.7815 L 74.8544,-84.7492 L 74.8672,-84.7167 L 74.8794,-84.684 L 74.891,-84.6511 L 74.9021,-84.618
 L 74.9126,-84.5847 L 74.9225,-84.5513 L 74.9319,-84.5176 L 74.9406,-84.4838 L 74.9487,-84.4499 L 74.9563,-84.4158
 L 74.9633,-84.3816 L 74.9696,-84.3473 L 74.9754,-84.3129 L 74.9805,-84.2783 L 74.9851,-84.2437 L 74.989,-84.2091
 L 74.9924,-84.1743 L 74.9951,-84.1395 L 74.9973,-84.1047 L 74.9988,-84.0698 L 74.9997,-84.0349 L 75,-84
 L 74.9997,-83.9651 L 74.9988,-83.9302 L 74.9973,-83.8953 L 74.9951,-83.8605 L 74.9924,-83.8257 L 74.989,-83.7909
 L 74.9851,-83.7563 L 74.9805,-83.7216 L 74.9754,-83.6871 L 74.9696,-83.6527 L 74.9633,-83.6184 L 74.9563,-83.5842
 L 74.9487,-83.5501 L 74.9406,-83.5162 L 74.9319,-83.4824 L 74.9225,-83.4487 L 74.9126,-83.4153 L 74.9021,-83.382
 L 74.891,-83.3489 L 74.8794,-83.3159 L 74.8672,-83.2833 L 74.8544,-83.2508 L 74.841,-83.2185 L 74.8271,-83.1865
 L 74.8126,-83.1548 L 74.7976,-83.1233 L 74.782,-83.092 L 74.7659,-83.0611 L 74.7492,-83.0304 L 74.732,-83
 L 74.7143,-82.9699 L 74.6961,-82.9402 L 74.6773,-82.9107 L 74.6581,-82.8816 L 74.6383,-82.8528 L 74.618,-82.8244
 L 74.5973,-82.7964 L 74.576,-82.7687 L 74.5543,-82.7413 L 74.5321,-82.7144 L 74.5094,-82.6879 L 74.4863,-82.6617
 L 74.4627,-82.636 L 74.4387,-82.6107 L 74.4142,-82.5858 L 74.3893,-82.5613 L 74.364,-82.5373 L 74.3383,-82.5137
 L 74.3121,-82.4906 L 74.2856,-82.4679 L 74.2586,-82.4457 L 74.2313,-82.424 L 74.2036,-82.4027 L 74.1756,-82.382
 L 74.1472,-82.3617 L 74.1184,-82.3419 L 74.0893,-82.3227 L 74.0598,-82.3039 L 74.0301,-82.2857 L 74,-82.2679
 L 73.9696,-82.2508 L 73.9389,-82.2341 L 73.908,-82.218 L 73.8767,-82.2024 L 73.8452,-82.1874 L 73.8135,-82.1729
 L 73.7815,-82.159 L 73.7492,-82.1456 L 73.7167,-82.1328 L 73.684,-82.1206 L 73.6511,-82.109 L 73.618,-82.0979
 L 73.5847,-82.0874 L 73.5513,-82.0775 L 73.5176,-82.0681 L 73.4838,-82.0594 L 73.4499,-82.0513 L 73.4158,-82.0437
 L 73.3816,-82.0367 L 73.3473,-82.0304 L 73.3129,-82.0246 L 73.2783,-82.0195 L 73.2437,-82.0149 L 73.2091,-82.011
 L 73.1743,-82.0076 L 73.1395,-82.0049 L 73.1047,-82.0027 L 73.0698,-82.0012 L 73.0349,-82.0003 L 73,-82
 z
M 10.9651,-82.0003 L 10.9302,-82.0012 L 10.8953,-82.0027 L 10.8605,-82.0049 L 10.8257,-82.0076 L 10.7909,-82.011
 L 10.7563,-82.0149 L 10.7216,-82.0195 L 10.6871,-82.0246 L 10.6527,-82.0304 L 10.6184,-82.0367 L 10.5842,-82.0437
 L 10.5501,-82.0513 L 10.5161,-82.0594 L 10.4824,-82.0681 L 10.4487,-82.0775 L 10.4153,-82.0874 L 10.382,-82.0979
 L 10.3489,-82.109 L 10.3159,-82.1206 L 10.2832,-82.1328 L 10.2508,-82.1456 L 10.2185,-82.159 L 10.1865,-82.1729
 L 10.1548,-82.1874 L 10.1232,-82.2024 L 10.092,-82.218 L 10.0611,-82.2341 L 10.0304,-82.2508 L 10,-82.2679
 L 9.96991,-82.2857 L 9.94016,-82.3039 L 9.91072,-82.3227 L 9.88161,-82.3419 L 9.85284,-82.3617 L 9.82442,-82.382
 L 9.79636,-82.4027 L 9.76868,-82.424 L 9.74135,-82.4457 L 9.71442,-82.4679 L 9.68788,-82.4906 L 9.66173,-82.5137
 L 9.636,-82.5373 L 9.61067,-82.5613 L 9.58578,-82.5858 L 9.56131,-82.6107 L 9.53729,-82.636 L 9.5137,-82.6617
 L 9.49057,-82.6879 L 9.46791,-82.7144 L 9.44569,-82.7413 L 9.42397,-82.7687 L 9.40273,-82.7964 L 9.38196,-82.8244
 L 9.36169,-82.8528 L 9.34192,-82.8816 L 9.32265,-82.9107 L 9.30389,-82.9402 L 9.28566,-82.9699 L 9.26794,-83
 L 9.25075,-83.0304 L 9.2341,-83.0611 L 9.21797,-83.092 L 9.20241,-83.1233 L 9.18738,-83.1548 L 9.1729,-83.1865
 L 9.15898,-83.2185 L 9.14563,-83.2508 L 9.13283,-83.2833 L 9.12061,-83.3159 L 9.10895,-83.3489 L 9.09789,-83.382
 L 9.08739,-83.4153 L 9.07747,-83.4487 L 9.06815,-83.4824 L 9.0594,-83.5162 L 9.05125,-83.5501 L 9.0437,-83.5842
 L 9.03674,-83.6184 L 9.03038,-83.6527 L 9.02461,-83.6871 L 9.01945,-83.7216 L 9.01489,-83.7563 L 9.01096,-83.7909
 L 9.0076,-83.8257 L 9.00487,-83.8605 L 9.00273,-83.8953 L 9.00121,-83.9302 L 9.00029,-83.9651 L 9,-84
 L 9.00029,-84.0349 L 9.00121,-84.0698 L 9.00273,-84.1047 L 9.00487,-84.1395 L 9.0076,-84.1743 L 9.01096,-84.2091
 L 9.01489,-84.2437 L 9.01945,-84.2783 L 9.02461,-84.3129 L 9.03038,-84.3473 L 9.03674,-84.3816 L 9.0437,-84.4158
 L 9.05125,-84.4499 L 9.0594,-84.4838 L 9.06815,-84.5176 L 9.07747,-84.5513 L 9.08739,-84.5847 L 9.09789,-84.618
 L 9.10895,-84.6511 L 9.12061,-84.684 L 9.13283,-84.7167 L 9.14563,-84.7492 L 9.15898,-84.7815 L 9.1729,-84.8135
 L 9.18738,-84.8452 L 9.20241,-84.8767 L 9.21797,-84.908 L 9.2341,-84.9389 L 9.25075,-84.9696 L 9.26794,-85
 L 9.28566,-85.0301 L 9.30389,-85.0598 L 9.32265,-85.0893 L 9.34192,-85.1184 L 9.36169,-85.1472 L 9.38196,-85.1756
 L 9.40273,-85.2036 L 9.42397,-85.2313 L 9.44569,-85.2586 L 9.46791,-85.2856 L 9.49057,-85.3121 L 9.5137,-85.3383
 L 9.53729,-85.364 L 9.56131,-85.3893 L 9.58578,-85.4142 L 9.61067,-85.4387 L 9.636,-85.4627 L 9.66173,-85.4863
 L 9.68788,-85.5094 L 9.71442,-85.5321 L 9.74135,-85.5543 L 9.76868,-85.576 L 9.79636,-85.5973 L 9.82442,-85.618
 L 9.85284,-85.6383 L 9.88161,-85.6581 L 9.91072,-85.6773 L 9.94016,-85.6961 L 9.96991,-85.7143 L 10,-85.732
 L 10.0304,-85.7492 L 10.0611,-85.7659 L 10.092,-85.782 L 10.1232,-85.7976 L 10.1548,-85.8126 L 10.1865,-85.8271
 L 10.2185,-85.841 L 10.2508,-85.8544 L 10.2832,-85.8672 L 10.3159,-85.8794 L 10.3489,-85.891 L 10.382,-85.9021
 L 10.4153,-85.9126 L 10.4487,-85.9225 L 10.4824,-85.9319 L 10.5161,-85.9406 L 10.5501,-85.9487 L 10.5842,-85.9563
 L 10.6184,-85.9633 L 10.6527,-85.9696 L 10.6871,-85.9754 L 10.7216,-85.9805 L 10.7563,-85.9851 L 10.7909,-85.989
 L 10.8257,-85.9924 L 10.8605,-85.9951 L 10.8953,-85.9973 L 10.9302,-85.9988 L 10.9651,-85.9997 L 11,-86
 L 11.0349,-85.9997 L 11.0698,-85.9988 L 11.1047,-85.9973 L 11.1395,-85.9951 L 11.1743,-85.9924 L 11.209,-85.989
 L 11.2437,-85.9851 L 11.2783,-85.9805 L 11.3129,-85.9754 L 11.3473,-85.9696 L 11.3816,-85.9633 L 11.4158,-85.9563
 L 11.4499,-85.9487 L 11.4838,-85.9406 L 11.5176,-85.9319 L 11.5513,-85.9225 L 11.5847,-85.9126 L 11.618,-85.9021
 L 11.6511,-85.891 L 11.684,-85.8794 L 11.7167,-85.8672 L 11.7492,-85.8544 L 11.7814,-85.841 L 11.8135,-85.8271
 L 11.8452,-85.8126 L 11.8767,-85.7976 L 11.908,-85.782 L 11.9389,-85.7659 L 11.9696,-85.7492 L 12,-85.732
 L 12.0301,-85.7143 L 12.0598,-85.6961 L 12.0893,-85.6773 L 12.1184,-85.6581 L 12.1471,-85.6383 L 12.1756,-85.618
 L 12.2036,-85.5973 L 12.2313,-85.576 L 12.2586,-85.5543 L 12.2856,-85.5321 L 12.3121,-85.5094 L 12.3383,-85.4863
 L 12.364,-85.4627 L 12.3893,-85.4387 L 12.4142,-85.4142 L 12.4387,-85.3893 L 12.4627,-85.364 L 12.4863,-85.3383
 L 12.5094,-85.3121 L 12.5321,-85.2856 L 12.5543,-85.2586 L 12.576,-85.2313 L 12.5973,-85.2036 L 12.618,-85.1756
 L 12.6383,-85.1472 L 12.6581,-85.1184 L 12.6773,-85.0893 L 12.6961,-85.0598 L 12.7143,-85.0301 L 12.732,-85
 L 12.7492,-84.9696 L 12.7659,-84.9389 L 12.782,-84.908 L 12.7976,-84.8767 L 12.8126,-84.8452 L 12.8271,-84.8135
 L 12.841,-84.7815 L 12.8544,-84.7492 L 12.8672,-84.7167 L 12.8794,-84.684 L 12.891,-84.6511 L 12.9021,-84.618
 L 12.9126,-84.5847 L 12.9225,-84.5513 L 12.9318,-84.5176 L 12.9406,-84.4838 L 12.9487,-84.4499 L 12.9563,-84.4158
 L 12.9632,-84.3816 L 12.9696,-84.3473 L 12.9754,-84.3129 L 12.9805,-84.2783 L 12.9851,-84.2437 L 12.989,-84.2091
 L 12.9924,-84.1743 L 12.9951,-84.1395 L 12.9973,-84.1047 L 12.9988,-84.0698 L 12.9997,-84.0349 L 13,-84
 L 12.9997,-83.9651 L 12.9988,-83.9302 L 12.9973,-83.8953 L 12.9951,-83.8605 L 12.9924,-83.8257 L 12.989,-83.7909
 L 12.9851,-83.7563 L 12.9805,-83.7216 L 12.9754,-83.6871 L 12.9696,-83.6527 L 12.9632,-83.6184 L 12.9563,-83.5842
 L 12.9487,-83.5501 L 12.9406,-83.5162 L 12.9318,-83.4824 L 12.9225,-83.4487 L 12.9126,-83.4153 L 12.9021,-83.382
 L 12.891,-83.3489 L 12.8794,-83.3159 L 12.8672,-83.2833 L 12.8544,-83.2508 L 12.841,-83.2185 L 12.8271,-83.1865
 L 12.8126,-83.1548 L 12.7976,-83.1233 L 12.782,-83.092 L 12.7659,-83.0611 L 12.7492,-83.0304 L 12.732,-83
 L 12.7143,-82.9699 L 12.6961,-82.9402 L 12.6773,-82.9107 L 12.6581,-82.8816 L 12.6383,-82.8528 L 12.618,-82.8244
 L 12.5973,-82.7964 L 12.576,-82.7687 L 12.5543,-82.7413 L 12.5321,-82.7144 L 12.5094,-82.6879 L 12.4863,-82.6617
 L 12.4627,-82.636 L 12.4387,-82.6107 L 12.4142,-82.5858 L 12.3893,-82.5613 L 12.364,-82.5373 L 12.3383,-82.5137
 L 12.3121,-82.4906 L 12.2856,-82.4679 L 12.2586,-82.4457 L 12.2313,-82.424 L 12.2036,-82.4027 L 12.1756,-82.382
 L 12.1471,-82.3617 L 12.1184,-82.3419 L 12.0893,-82.3227 L 12.0598,-82.3039 L 12.0301,-82.2857 L 12,-82.2679
 L 11.9696,-82.2508 L 11.9389,-82.2341 L 11.908,-82.218 L 11.8767,-82.2024 L 11.8452,-82.1874 L 11.8135,-82.1729
 L 11.7814,-82.159 L 11.7492,-82.1456 L 11.7167,-82.1328 L 11.684,-82.1206 L 11.6511,-82.109 L 11.618,-82.0979
 L 11.5847,-82.0874 L 11.5513,-82.0775 L 11.5176,-82.0681 L 11.4838,-82.0594 L 11.4499,-82.0513 L 11.4158,-82.0437
 L 11.3816,-82.0367 L 11.3473,-82.0304 L 11.3129,-82.0246 L 11.2783,-82.0195 L 11.2437,-82.0149 L 11.209,-82.011
 L 11.1743,-82.0076 L 11.1395,-82.0049 L 11.1047,-82.0027 L 11.0698,-82.0012 L 11.0349,-82.0003 L 11,-82
 z
M 10.9651,-20.0003 L 10.9302,-20.0012 L 10.8953,-20.0027 L 10.8605,-20.0049 L 10.8257,-20.0076 L 10.7909,-20.011
 L 10.7563,-20.0149 L 10.7216,-20.0195 L 10.6871,-20.0246 L 10.6527,-20.0304 L 10.6184,-20.0367 L 10.5842,-20.0437
 L 10.5501,-20.0513 L 10.5161,-20.0594 L 10.4824,-20.0681 L 10.4487,-20.0775 L 10.4153,-20.0874 L 10.382,-20.0979
 L 10.3489,-20.109 L 10.3159,-20.1206 L 10.2832,-20.1328 L 10.2508,-20.1456 L 10.2185,-20.159 L 10.1865,-20.1729
 L 10.1548,-20.1874 L 10.1232,-20.2024 L 10.092,-20.218 L 10.0611,-20.2341 L 10.0304,-20.2507 L 10,-20.2679
 L 9.96991,-20.2857 L 9.94016,-20.3039 L 9.91072,-20.3226 L 9.88161,-20.3419 L 9.85284,-20.3617 L 9.82442,-20.382
 L 9.79636,-20.4027 L 9.76868,-20.424 L 9.74135,-20.4457 L 9.71442,-20.4679 L 9.68788,-20.4906 L 9.66173,-20.5137
 L 9.636,-20.5373 L 9.61067,-20.5613 L 9.58578,-20.5858 L 9.56131,-20.6107 L 9.53729,-20.636 L 9.5137,-20.6617
 L 9.49057,-20.6879 L 9.46791,-20.7144 L 9.44569,-20.7413 L 9.42397,-20.7687 L 9.40273,-20.7964 L 9.38196,-20.8244
 L 9.36169,-20.8528 L 9.34192,-20.8816 L 9.32265,-20.9107 L 9.30389,-20.9402 L 9.28566,-20.9699 L 9.26794,-21
 L 9.25075,-21.0304 L 9.2341,-21.0611 L 9.21797,-21.092 L 9.20241,-21.1232 L 9.18738,-21.1548 L 9.1729,-21.1865
 L 9.15898,-21.2185 L 9.14563,-21.2508 L 9.13283,-21.2833 L 9.12061,-21.3159 L 9.10895,-21.3489 L 9.09789,-21.382
 L 9.08739,-21.4153 L 9.07747,-21.4487 L 9.06815,-21.4824 L 9.0594,-21.5161 L 9.05125,-21.5501 L 9.0437,-21.5842
 L 9.03674,-21.6184 L 9.03038,-21.6527 L 9.02461,-21.6871 L 9.01945,-21.7216 L 9.01489,-21.7563 L 9.01096,-21.7909
 L 9.0076,-21.8257 L 9.00487,-21.8605 L 9.00273,-21.8953 L 9.00121,-21.9302 L 9.00029,-21.9651 L 9,-22
 L 9.00029,-22.0349 L 9.00121,-22.0698 L 9.00273,-22.1047 L 9.00487,-22.1395 L 9.0076,-22.1743 L 9.01096,-22.209
 L 9.01489,-22.2437 L 9.01945,-22.2783 L 9.02461,-22.3129 L 9.03038,-22.3473 L 9.03674,-22.3816 L 9.0437,-22.4158
 L 9.05125,-22.4499 L 9.0594,-22.4838 L 9.06815,-22.5176 L 9.07747,-22.5513 L 9.08739,-22.5847 L 9.09789,-22.618
 L 9.10895,-22.6511 L 9.12061,-22.684 L 9.13283,-22.7167 L 9.14563,-22.7492 L 9.15898,-22.7814 L 9.1729,-22.8135
 L 9.18738,-22.8452 L 9.20241,-22.8767 L 9.21797,-22.908 L 9.2341,-22.9389 L 9.25075,-22.9696 L 9.26794,-23
 L 9.28566,-23.0301 L 9.30389,-23.0598 L 9.32265,-23.0893 L 9.34192,-23.1184 L 9.36169,-23.1471 L 9.38196,-23.1756
 L 9.40273,-23.2036 L 9.42397,-23.2313 L 9.44569,-23.2586 L 9.46791,-23.2856 L 9.49057,-23.3121 L 9.5137,-23.3383
 L 9.53729,-23.364 L 9.56131,-23.3893 L 9.58578,-23.4142 L 9.61067,-23.4387 L 9.636,-23.4627 L 9.66173,-23.4863
 L 9.68788,-23.5094 L 9.71442,-23.5321 L 9.74135,-23.5543 L 9.76868,-23.576 L 9.79636,-23.5973 L 9.82442,-23.618
 L 9.85284,-23.6383 L 9.88161,-23.6581 L 9.91072,-23.6773 L 9.94016,-23.6961 L 9.96991,-23.7143 L 10,-23.732
 L 10.0304,-23.7492 L 10.0611,-23.7659 L 10.092,-23.782 L 10.1232,-23.7976 L 10.1548,-23.8126 L 10.1865,-23.8271
 L 10.2185,-23.841 L 10.2508,-23.8544 L 10.2832,-23.8672 L 10.3159,-23.8794 L 10.3489,-23.891 L 10.382,-23.9021
 L 10.4153,-23.9126 L 10.4487,-23.9225 L 10.4824,-23.9318 L 10.5161,-23.9406 L 10.5501,-23.9487 L 10.5842,-23.9563
 L 10.6184,-23.9632 L 10.6527,-23.9696 L 10.6871,-23.9754 L 10.7216,-23.9805 L 10.7563,-23.9851 L 10.7909,-23.989
 L 10.8257,-23.9924 L 10.8605,-23.9951 L 10.8953,-23.9973 L 10.9302,-23.9988 L 10.9651,-23.9997 L 11,-24
 L 11.0349,-23.9997 L 11.0698,-23.9988 L 11.1047,-23.9973 L 11.1395,-23.9951 L 11.1743,-23.9924 L 11.209,-23.989
 L 11.2437,-23.9851 L 11.2783,-23.9805 L 11.3129,-23.9754 L 11.3473,-23.9696 L 11.3816,-23.9632 L 11.4158,-23.9563
 L 11.4499,-23.9487 L 11.4838,-23.9406 L 11.5176,-23.9318 L 11.5513,-23.9225 L 11.5847,-23.9126 L 11.618,-23.9021
 L 11.6511,-23.891 L 11.684,-23.8794 L 11.7167,-23.8672 L 11.7492,-23.8544 L 11.7814,-23.841 L 11.8135,-23.8271
 L 11.8452,-23.8126 L 11.8767,-23.7976 L 11.908,-23.782 L 11.9389,-23.7659 L 11.9696,-23.7492 L 12,-23.732
 L 12.0301,-23.7143 L 12.0598,-23.6961 L 12.0893,-23.6773 L 12.1184,-23.6581 L 12.1471,-23.6383 L 12.1756,-23.618
 L 12.2036,-23.5973 L 12.2313,-23.576 L 12.2586,-23.5543 L 12.2856,-23.5321 L 12.3121,-23.5094 L 12.3383,-23.4863
 L 12.364,-23.4627 L 12.3893,-23.4387 L 12.4142,-23.4142 L 12.4387,-23.3893 L 12.4627,-23.364 L 12.4863,-23.3383
 L 12.5094,-23.3121 L 12.5321,-23.2856 L 12.5543,-23.2586 L 12.576,-23.2313 L 12.5973,-23.2036 L 12.618,-23.1756
 L 12.6383,-23.1471 L 12.6581,-23.1184 L 12.6773,-23.0893 L 12.6961,-23.0598 L 12.7143,-23.0301 L 12.732,-23
 L 12.7492,-22.9696 L 12.7659,-22.9389 L 12.782,-22.908 L 12.7976,-22.8767 L 12.8126,-22.8452 L 12.8271,-22.8135
 L 12.841,-22.7814 L 12.8544,-22.7492 L 12.8672,-22.7167 L 12.8794,-22.684 L 12.891,-22.6511 L 12.9021,-22.618
 L 12.9126,-22.5847 L 12.9225,-22.5513 L 12.9318,-22.5176 L 12.9406,-22.4838 L 12.9487,-22.4499 L 12.9563,-22.4158
 L 12.9632,-22.3816 L 12.9696,-22.3473 L 12.9754,-22.3129 L 12.9805,-22.2783 L 12.9851,-22.2437 L 12.989,-22.209
 L 12.9924,-22.1743 L 12.9951,-22.1395 L 12.9973,-22.1047 L 12.9988,-22.0698 L 12.9997,-22.0349 L 13,-22
 L 12.9997,-21.9651 L 12.9988,-21.9302 L 12.9973,-21.8953 L 12.9951,-21.8605 L 12.9924,-21.8257 L 12.989,-21.7909
 L 12.9851,-21.7563 L 12.9805,-21.7216 L 12.9754,-21.6871 L 12.9696,-21.6527 L 12.9632,-21.6184 L 12.9563,-21.5842
 L 12.9487,-21.5501 L 12.9406,-21.5161 L 12.9318,-21.4824 L 12.9225,-21.4487 L 12.9126,-21.4153 L 12.9021,-21.382
 L 12.891,-21.3489 L 12.8794,-21.3159 L 12.8672,-21.2833 L 12.8544,-21.2508 L 12.841,-21.2185 L 12.8271,-21.1865
 L 12.8126,-21.1548 L 12.7976,-21.1232 L 12.782,-21.092 L 12.7659,-21.0611 L 12.7492,-21.0304 L 12.732,-21
 L 12.7143,-20.9699 L 12.6961,-20.9402 L 12.6773,-20.9107 L 12.6581,-20.8816 L 12.6383,-20.8528 L 12.618,-20.8244
 L 12.5973,-20.7964 L 12.576,-20.7687 L 12.5543,-20.7413 L 12.5321,-20.7144 L 12.5094,-20.6879 L 12.4863,-20.6617
 L 12.4627,-20.636 L 12.4387,-20.6107 L 12.4142,-20.5858 L 12.3893,-20.5613 L 12.364,-20.5373 L 12.3383,-20.5137
 L 12.3121,-20.4906 L 12.2856,-20.4679 L 12.2586,-20.4457 L 12.2313,-20.424 L 12.2036,-20.4027 L 12.1756,-20.382
 L 12.1471,-20.3617 L 12.1184,-20.3419 L 12.0893,-20.3226 L 12.0598,-20.3039 L 12.0301,-20.2857 L 12,-20.2679
 L 11.9696,-20.2507 L 11.9389,-20.2341 L 11.908,-20.218 L 11.8767,-20.2024 L 11.8452,-20.1874 L 11.8135,-20.1729
 L 11.7814,-20.159 L 11.7492,-20.1456 L 11.7167,-20.1328 L 11.684,-20.1206 L 11.6511,-20.109 L 11.618,-20.0979
 L 11.5847,-20.0874 L 11.5513,-20.0775 L 11.5176,-20.0681 L 11.4838,-20.0594 L 11.4499,-20.0513 L 11.4158,-20.0437
 L 11.3816,-20.0367 L 11.3473,-20.0304 L 11.3129,-20.0246 L 11.2783,-20.0195 L 11.2437,-20.0149 L 11.209,-20.011
 L 11.1743,-20.0076 L 11.1395,-20.0049 L 11.1047,-20.0027 L 11.0698,-20.0012 L 11.0349,-20.0003 L 11,-20
 z
M 72.9651,-20.0003 L 72.9302,-20.0012 L 72.8953,-20.0027 L 72.8605,-20.0049 L 72.8257,-20.0076 L 72.7909,-20.011
 L 72.7563,-20.0149 L 72.7216,-20.0195 L 72.6871,-20.0246 L 72.6527,-20.0304 L 72.6184,-20.0367 L 72.5842,-20.0437
 L 72.5501,-20.0513 L 72.5162,-20.0594 L 72.4824,-20.0681 L 72.4487,-20.0775 L 72.4153,-20.0874 L 72.382,-20.0979
 L 72.3489,-20.109 L 72.3159,-20.1206 L 72.2833,-20.1328 L 72.2508,-20.1456 L 72.2185,-20.159 L 72.1865,-20.1729
 L 72.1548,-20.1874 L 72.1233,-20.2024 L 72.092,-20.218 L 72.0611,-20.2341 L 72.0304,-20.2507 L 72,-20.2679
 L 71.9699,-20.2857 L 71.9402,-20.3039 L 71.9107,-20.3226 L 71.8816,-20.3419 L 71.8528,-20.3617 L 71.8244,-20.382
 L 71.7964,-20.4027 L 71.7687,-20.424 L 71.7413,-20.4457 L 71.7144,-20.4679 L 71.6879,-20.4906 L 71.6617,-20.5137
 L 71.636,-20.5373 L 71.6107,-20.5613 L 71.5858,-20.5858 L 71.5613,-20.6107 L 71.5373,-20.636 L 71.5137,-20.6617
 L 71.4906,-20.6879 L 71.4679,-20.7144 L 71.4457,-20.7413 L 71.424,-20.7687 L 71.4027,-20.7964 L 71.382,-20.8244
 L 71.3617,-20.8528 L 71.3419,-20.8816 L 71.3227,-20.9107 L 71.3039,-20.9402 L 71.2857,-20.9699 L 71.2679,-21
 L 71.2508,-21.0304 L 71.2341,-21.0611 L 71.218,-21.092 L 71.2024,-21.1232 L 71.1874,-21.1548 L 71.1729,-21.1865
 L 71.159,-21.2185 L 71.1456,-21.2508 L 71.1328,-21.2833 L 71.1206,-21.3159 L 71.109,-21.3489 L 71.0979,-21.382
 L 71.0874,-21.4153 L 71.0775,-21.4487 L 71.0681,-21.4824 L 71.0594,-21.5161 L 71.0513,-21.5501 L 71.0437,-21.5842
 L 71.0367,-21.6184 L 71.0304,-21.6527 L 71.0246,-21.6871 L 71.0195,-21.7216 L 71.0149,-21.7563 L 71.011,-21.7909
 L 71.0076,-21.8257 L 71.0049,-21.8605 L 71.0027,-21.8953 L 71.0012,-21.9302 L 71.0003,-21.9651 L 71,-22
 L 71.0003,-22.0349 L 71.0012,-22.0698 L 71.0027,-22.1047 L 71.0049,-22.1395 L 71.0076,-22.1743 L 71.011,-22.209
 L 71.0149,-22.2437 L 71.0195,-22.2783 L 71.0246,-22.3129 L 71.0304,-22.3473 L 71.0367,-22.3816 L 71.0437,-22.4158
 L 71.0513,-22.4499 L 71.0594,-22.4838 L 71.0681,-22.5176 L 71.0775,-22.5513 L 71.0874,-22.5847 L 71.0979,-22.618
 L 71.109,-22.6511 L 71.1206,-22.684 L 71.1328,-22.7167 L 71.1456,-22.7492 L 71.159,-22.7814 L 71.1729,-22.8135
 L 71.1874,-22.8452 L 71.2024,-22.8767 L 71.218,-22.908 L 71.2341,-22.9389 L 71.2508,-22.9696 L 71.2679,-23
 L 71.2857,-23.0301 L 71.3039,-23.0598 L 71.3227,-23.0893 L 71.3419,-23.1184 L 71.3617,-23.1471 L 71.382,-23.1756
 L 71.4027,-23.2036 L 71.424,-23.2313 L 71.4457,-23.2586 L 71.4679,-23.2856 L 71.4906,-23.3121 L 71.5137,-23.3383
 L 71.5373,-23.364 L 71.5613,-23.3893 L 71.5858,-23.4142 L 71.6107,-23.4387 L 71.636,-23.4627 L 71.6617,-23.4863
 L 71.6879,-23.5094 L 71.7144,-23.5321 L 71.7413,-23.5543 L 71.7687,-23.576 L 71.7964,-23.5973 L 71.8244,-23.618
 L 71.8528,-23.6383 L 71.8816,-23.6581 L 71.9107,-23.6773 L 71.9402,-23.6961 L 71.9699,-23.7143 L 72,-23.732
 L 72.0304,-23.7492 L 72.0611,-23.7659 L 72.092,-23.782 L 72.1233,-23.7976 L 72.1548,-23.8126 L 72.1865,-23.8271
 L 72.2185,-23.841 L 72.2508,-23.8544 L 72.2833,-23.8672 L 72.3159,-23.8794 L 72.3489,-23.891 L 72.382,-23.9021
 L 72.4153,-23.9126 L 72.4487,-23.9225 L 72.4824,-23.9318 L 72.5162,-23.9406 L 72.5501,-23.9487 L 72.5842,-23.9563
 L 72.6184,-23.9632 L 72.6527,-23.9696 L 72.6871,-23.9754 L 72.7216,-23.9805 L 72.7563,-23.9851 L 72.7909,-23.989
 L 72.8257,-23.9924 L 72.8605,-23.9951 L 72.8953,-23.9973 L 72.9302,-23.9988 L 72.9651,-23.9997 L 73,-24
 L 73.0349,-23.9997 L 73.0698,-23.9988 L 73.1047,-23.9973 L 73.1395,-23.9951 L 73.1743,-23.9924 L 73.2091,-23.989
 L 73.2437,-23.9851 L 73.2783,-23.9805 L 73.3129,-23.9754 L 73.3473,-23.9696 L 73.3816,-23.9632 L 73.4158,-23.9563
 L 73.4499,-23.9487 L 73.4838,-23.9406 L 73.5176,-23.9318 L 73.5513,-23.9225 L 73.5847,-23.9126 L 73.618,-23.9021
 L 73.6511,-23.891 L 73.684,-23.8794 L 73.7167,-23.8672 L 73.7492,-23.8544 L 73.7815,-23.841 L 73.8135,-23.8271
 L 73.8452,-23.8126 L 73.8767,-23.7976 L 73.908,-23.782 L 73.9389,-23.7659 L 73.9696,-23.7492 L 74,-23.732
 L 74.0301,-23.7143 L 74.0598,-23.6961 L 74.0893,-23.6773 L 74.1184,-23.6581 L 74.1472,-23.6383 L 74.1756,-23.618
 L 74.2036,-23.5973 L 74.2313,-23.576 L 74.2586,-23.5543 L 74.2856,-23.5321 L 74.3121,-23.5094 L 74.3383,-23.4863
 L 74.364,-23.4627 L 74.3893,-23.4387 L 74.4142,-23.4142 L 74.4387,-23.3893 L 74.4627,-23.364 L 74.4863,-23.3383
 L 74.5094,-23.3121 L 74.5321,-23.2856 L 74.5543,-23.2586 L 74.576,-23.2313 L 74.5973,-23.2036 L 74.618,-23.1756
 L 74.6383,-23.1471 L 74.6581,-23.1184 L 74.6773,-23.0893 L 74.6961,-23.0598 L 74.7143,-23.0301 L 74.732,-23
 L 74.7492,-22.9696 L 74.7659,-22.9389 L 74.782,-22.908 L 74.7976,-22.8767 L 74.8126,-22.8452 L 74.8271,-22.8135
 L 74.841,-22.7814 L 74.8544,-22.7492 L 74.8672,-22.7167 L 74.8794,-22.684 L 74.891,-22.6511 L 74.9021,-22.618
 L 74.9126,-22.5847 L 74.9225,-22.5513 L 74.9319,-22.5176 L 74.9406,-22.4838 L 74.9487,-22.4499 L 74.9563,-22.4158
 L 74.9633,-22.3816 L 74.9696,-22.3473 L 74.9754,-22.3129 L 74.9805,-22.2783 L 74.9851,-22.2437 L 74.989,-22.209
 L 74.9924,-22.1743 L 74.9951,-22.1395 L 74.9973,-22.1047 L 74.9988,-22.0698 L 74.9997,-22.0349 L 75,-22
 L 74.9997,-21.9651 L 74.9988,-21.9302 L 74.9973,-21.8953 L 74.9951,-21.8605 L 74.9924,-21.8257 L 74.989,-21.7909
 L 74.9851,-21.7563 L 74.9805,-21.7216 L 74.9754,-21.6871 L 74.9696,-21.6527 L 74.9633,-21.6184 L 74.9563,-21.5842
 L 74.9487,-21.5501 L 74.9406,-21.5161 L 74.9319,-21.4824 L 74.9225,-21.4487 L 74.9126,-21.4153 L 74.9021,-21.382
 L 74.891,-21.3489 L 74.8794,-21.3159 L 74.8672,-21.2833 L 74.8544,-21.2508 L 74.841,-21.2185 L 74.8271,-21.1865
 L 74.8126,-21.1548 L 74.7976,-21.1232 L 74.782,-21.092 L 74.7659,-21.0611 L 74.7492,-21.0304 L 74.732,-21
 L 74.7143,-20.9699 L 74.6961,-20.9402 L 74.6773,-20.9107 L 74.6581,-20.8816 L 74.6383,-20.8528 L 74.618,-20.8244
 L 74.5973,-20.7964 L 74.576,-20.7687 L 74.5543,-20.7413 L 74.5321,-20.7144 L 74.5094,-20.6879 L 74.4863,-20.6617
 L 74.4627,-20.636 L 74.4387,-20.6107 L 74.4142,-20.5858 L 74.3893,-20.5613 L 74.364,-20.5373 L 74.3383,-20.5137
 L 74.3121,-20.4906 L 74.2856,-20.4679 L 74.2586,-20.4457 L 74.2313,-20.424 L 74.2036,-20.4027 L 74.1756,-20.382
 L 74.1472,-20.3617 L 74.1184,-20.3419 L 74.0893,-20.3226 L 74.0598,-20.3039 L 74.0301,-20.2857 L 74,-20.2679
 L 73.9696,-20.2507 L 73.9389,-20.2341 L 73.908,-20.218 L 73.8767,-20.2024 L 73.8452,-20.1874 L 73.8135,-20.1729
 L 73.7815,-20.159 L 73.7492,-20.1456 L 73.7167,-20.1328 L 73.684,-20.1206 L 73.6511,-20.109 L 73.618,-20.0979
 L 73.5847,-20.0874 L 73.5513,-20.0775 L 73.5176,-20.0681 L 73.4838,-20.0594 L 73.4499,-20.0513 L 73.4158,-20.0437
 L 73.3816,-20.0367 L 73.3473,-20.0304 L 73.3129,-20.0246 L 73.2783,-20.0195 L 73.2437,-20.0149 L 73.2091,-20.011
 L 73.1743,-20.0076 L 73.1395,-20.0049 L 73.1047,-20.0027 L 73.0698,-20.0012 L 73.0349,-20.0003 L 73,-20
 z
" stroke="black" fill="lightgray" stroke-width="0.5"/>
</svg>
