  0
SECTION
  2
BLOCKS
  0
ENDSEC
  0
SECTION
  2
ENTITIES
  0
LINE
  8
0
 10
84
 20
106
 11
0
 21
106
  0
LINE
  8
0
 10
0
 20
106
 11
0
 21
0
  0
LINE
  8
0
 10
0
 20
0
 11
84
 21
0
  0
LINE
  8
0
 10
84
 20
0
 11
84
 21
106
  0
LINE
  8
0
 10
72.9651
 20
82.0003
 11
72.9302
 21
82.0012
  0
LINE
  8
0
 10
72.9302
 20
82.0012
 11
72.8953
 21
82.0027
  0
LINE
  8
0
 10
72.8953
 20
82.0027
 11
72.8605
 21
82.0049
  0
LINE
  8
0
 10
72.8605
 20
82.0049
 11
72.8257
 21
82.0076
  0
LINE
  8
0
 10
72.8257
 20
82.0076
 11
72.7909
 21
82.011
  0
LINE
  8
0
 10
72.7909
 20
82.011
 11
72.7563
 21
82.0149
  0
LINE
  8
0
 10
72.7563
 20
82.0149
 11
72.7216
 21
82.0195
  0
LINE
  8
0
 10
72.7216
 20
82.0195
 11
72.6871
 21
82.0246
  0
LINE
  8
0
 10
72.6871
 20
82.0246
 11
72.6527
 21
82.0304
  0
LINE
  8
0
 10
72.6527
 20
82.0304
 11
72.6184
 21
82.0367
  0
LINE
  8
0
 10
72.6184
 20
82.0367
 11
72.5842
 21
82.0437
  0
LINE
  8
0
 10
72.5842
 20
82.0437
 11
72.5501
 21
82.0513
  0
LINE
  8
0
 10
72.5501
 20
82.0513
 11
72.5162
 21
82.0594
  0
LINE
  8
0
 10
72.5162
 20
82.0594
 11
72.4824
 21
82.0681
  0
LINE
  8
0
 10
72.4824
 20
82.0681
 11
72.4487
 21
82.0775
  0
LINE
  8
0
 10
72.4487
 20
82.0775
 11
72.4153
 21
82.0874
  0
LINE
  8
0
 10
72.4153
 20
82.0874
 11
72.382
 21
82.0979
  0
LINE
  8
0
 10
72.382
 20
82.0979
 11
72.3489
 21
82.109
  0
LINE
  8
0
 10
72.3489
 20
82.109
 11
72.3159
 21
82.1206
  0
LINE
  8
0
 10
72.3159
 20
82.1206
 11
72.2833
 21
82.1328
  0
LINE
  8
0
 10
72.2833
 20
82.1328
 11
72.2508
 21
82.1456
  0
LINE
  8
0
 10
72.2508
 20
82.1456
 11
72.2185
 21
82.159
  0
LINE
  8
0
 10
72.2185
 20
82.159
 11
72.1865
 21
82.1729
  0
LINE
  8
0
 10
72.1865
 20
82.1729
 11
72.1548
 21
82.1874
  0
LINE
  8
0
 10
72.1548
 20
82.1874
 11
72.1233
 21
82.2024
  0
LINE
  8
0
 10
72.1233
 20
82.2024
 11
72.092
 21
82.218
  0
LINE
  8
0
 10
72.092
 20
82.218
 11
72.0611
 21
82.2341
  0
LINE
  8
0
 10
72.0611
 20
82.2341
 11
72.0304
 21
82.2508
  0
LINE
  8
0
 10
72.0304
 20
82.2508
 11
72
 21
82.2679
  0
LINE
  8
0
 10
72
 20
82.2679
 11
71.9699
 21
82.2857
  0
LINE
  8
0
 10
71.9699
 20
82.2857
 11
71.9402
 21
82.3039
  0
LINE
  8
0
 10
71.9402
 20
82.3039
 11
71.9107
 21
82.3227
  0
LINE
  8
0
 10
71.9107
 20
82.3227
 11
71.8816
 21
82.3419
  0
LINE
  8
0
 10
71.8816
 20
82.3419
 11
71.8528
 21
82.3617
  0
LINE
  8
0
 10
71.8528
 20
82.3617
 11
71.8244
 21
82.382
  0
LINE
  8
0
 10
71.8244
 20
82.382
 11
71.7964
 21
82.4027
  0
LINE
  8
0
 10
71.7964
 20
82.4027
 11
71.7687
 21
82.424
  0
LINE
  8
0
 10
71.7687
 20
82.424
 11
71.7413
 21
82.4457
  0
LINE
  8
0
 10
71.7413
 20
82.4457
 11
71.7144
 21
82.4679
  0
LINE
  8
0
 10
71.7144
 20
82.4679
 11
71.6879
 21
82.4906
  0
LINE
  8
0
 10
71.6879
 20
82.4906
 11
71.6617
 21
82.5137
  0
LINE
  8
0
 10
71.6617
 20
82.5137
 11
71.636
 21
82.5373
  0
LINE
  8
0
 10
71.636
 20
82.5373
 11
71.6107
 21
82.5613
  0
LINE
  8
0
 10
71.6107
 20
82.5613
 11
71.5858
 21
82.5858
  0
LINE
  8
0
 10
71.5858
 20
82.5858
 11
71.5613
 21
82.6107
  0
LINE
  8
0
 10
71.5613
 20
82.6107
 11
71.5373
 21
82.636
  0
LINE
  8
0
 10
71.5373
 20
82.636
 11
71.5137
 21
82.6617
  0
LINE
  8
0
 10
71.5137
 20
82.6617
 11
71.4906
 21
82.6879
  0
LINE
  8
0
 10
71.4906
 20
82.6879
 11
71.4679
 21
82.7144
  0
LINE
  8
0
 10
71.4679
 20
82.7144
 11
71.4457
 21
82.7413
  0
LINE
  8
0
 10
71.4457
 20
82.7413
 11
71.424
 21
82.7687
  0
LINE
  8
0
 10
71.424
 20
82.7687
 11
71.4027
 21
82.7964
  0
LINE
  8
0
 10
71.4027
 20
82.7964
 11
71.382
 21
82.8244
  0
LINE
  8
0
 10
71.382
 20
82.8244
 11
71.3617
 21
82.8528
  0
LINE
  8
0
 10
71.3617
 20
82.8528
 11
71.3419
 21
82.8816
  0
LINE
  8
0
 10
71.3419
 20
82.8816
 11
71.3227
 21
82.9107
  0
LINE
  8
0
 10
71.3227
 20
82.9107
 11
71.3039
 21
82.9402
  0
LINE
  8
0
 10
71.3039
 20
82.9402
 11
71.2857
 21
82.9699
  0
LINE
  8
0
 10
71.2857
 20
82.9699
 11
71.2679
 21
83
  0
LINE
  8
0
 10
71.2679
 20
83
 11
71.2508
 21
83.0304
  0
LINE
  8
0
 10
71.2508
 20
83.0304
 11
71.2341
 21
83.0611
  0
LINE
  8
0
 10
71.2341
 20
83.0611
 11
71.218
 21
83.092
  0
LINE
  8
0
 10
71.218
 20
83.092
 11
71.2024
 21
83.1233
  0
LINE
  8
0
 10
71.2024
 20
83.1233
 11
71.1874
 21
83.1548
  0
LINE
  8
0
 10
71.1874
 20
83.1548
 11
71.1729
 21
83.1865
  0
LINE
  8
0
 10
71.1729
 20
83.1865
 11
71.159
 21
83.2185
  0
LINE
  8
0
 10
71.159
 20
83.2185
 11
71.1456
 21
83.2508
  0
LINE
  8
0
 10
71.1456
 20
83.2508
 11
71.1328
 21
83.2833
  0
LINE
  8
0
 10
71.1328
 20
83.2833
 11
71.1206
 21
83.3159
  0
LINE
  8
0
 10
71.1206
 20
83.3159
 11
71.109
 21
83.3489
  0
LINE
  8
0
 10
71.109
 20
83.3489
 11
71.0979
 21
83.382
  0
LINE
  8
0
 10
71.0979
 20
83.382
 11
71.0874
 21
83.4153
  0
LINE
  8
0
 10
71.0874
 20
83.4153
 11
71.0775
 21
83.4487
  0
LINE
  8
0
 10
71.0775
 20
83.4487
 11
71.0681
 21
83.4824
  0
LINE
  8
0
 10
71.0681
 20
83.4824
 11
71.0594
 21
83.5162
  0
LINE
  8
0
 10
71.0594
 20
83.5162
 11
71.0513
 21
83.5501
  0
LINE
  8
0
 10
71.0513
 20
83.5501
 11
71.0437
 21
83.5842
  0
LINE
  8
0
 10
71.0437
 20
83.5842
 11
71.0367
 21
83.6184
  0
LINE
  8
0
 10
71.0367
 20
83.6184
 11
71.0304
 21
83.6527
  0
LINE
  8
0
 10
71.0304
 20
83.6527
 11
71.0246
 21
83.6871
  0
LINE
  8
0
 10
71.0246
 20
83.6871
 11
71.0195
 21
83.7216
  0
LINE
  8
0
 10
71.0195
 20
83.7216
 11
71.0149
 21
83.7563
  0
LINE
  8
0
 10
71.0149
 20
83.7563
 11
71.011
 21
83.7909
  0
LINE
  8
0
 10
71.011
 20
83.7909
 11
71.0076
 21
83.8257
  0
LINE
  8
0
 10
71.0076
 20
83.8257
 11
71.0049
 21
83.8605
  0
LINE
  8
0
 10
71.0049
 20
83.8605
 11
71.0027
 21
83.8953
  0
LINE
  8
0
 10
71.0027
 20
83.8953
 11
71.0012
 21
83.9302
  0
LINE
  8
0
 10
71.0012
 20
83.9302
 11
71.0003
 21
83.9651
  0
LINE
  8
0
 10
71.0003
 20
83.9651
 11
71
 21
84
  0
LINE
  8
0
 10
71
 20
84
 11
71.0003
 21
84.0349
  0
LINE
  8
0
 10
71.0003
 20
84.0349
 11
71.0012
 21
84.0698
  0
LINE
  8
0
 10
71.0012
 20
84.0698
 11
71.0027
 21
84.1047
  0
LINE
  8
0
 10
71.0027
 20
84.1047
 11
71.0049
 21
84.1395
  0
LINE
  8
0
 10
71.0049
 20
84.1395
 11
71.0076
 21
84.1743
  0
LINE
  8
0
 10
71.0076
 20
84.1743
 11
71.011
 21
84.2091
  0
LINE
  8
0
 10
71.011
 20
84.2091
 11
71.0149
 21
84.2437
  0
LINE
  8
0
 10
71.0149
 20
84.2437
 11
71.0195
 21
84.2783
  0
LINE
  8
0
 10
71.0195
 20
84.2783
 11
71.0246
 21
84.3129
  0
LINE
  8
0
 10
71.0246
 20
84.3129
 11
71.0304
 21
84.3473
  0
LINE
  8
0
 10
71.0304
 20
84.3473
 11
71.0367
 21
84.3816
  0
LINE
  8
0
 10
71.0367
 20
84.3816
 11
71.0437
 21
84.4158
  0
LINE
  8
0
 10
71.0437
 20
84.4158
 11
71.0513
 21
84.4499
  0
LINE
  8
0
 10
71.0513
 20
84.4499
 11
71.0594
 21
84.4838
  0
LINE
  8
0
 10
71.0594
 20
84.4838
 11
71.0681
 21
84.5176
  0
LINE
  8
0
 10
71.0681
 20
84.5176
 11
71.0775
 21
84.5513
  0
LINE
  8
0
 10
71.0775
 20
84.5513
 11
71.0874
 21
84.5847
  0
LINE
  8
0
 10
71.0874
 20
84.5847
 11
71.0979
 21
84.618
  0
LINE
  8
0
 10
71.0979
 20
84.618
 11
71.109
 21
84.6511
  0
LINE
  8
0
 10
71.109
 20
84.6511
 11
71.1206
 21
84.684
  0
LINE
  8
0
 10
71.1206
 20
84.684
 11
71.1328
 21
84.7167
  0
LINE
  8
0
 10
71.1328
 20
84.7167
 11
71.1456
 21
84.7492
  0
LINE
  8
0
 10
71.1456
 20
84.7492
 11
71.159
 21
84.7815
  0
LINE
  8
0
 10
71.159
 20
84.7815
 11
71.1729
 21
84.8135
  0
LINE
  8
0
 10
71.1729
 20
84.8135
 11
71.1874
 21
84.8452
  0
LINE
  8
0
 10
71.1874
 20
84.8452
 11
71.2024
 21
84.8767
  0
LINE
  8
0
 10
71.2024
 20
84.8767
 11
71.218
 21
84.908
  0
LINE
  8
0
 10
71.218
 20
84.908
 11
71.2341
 21
84.9389
  0
LINE
  8
0
 10
71.2341
 20
84.9389
 11
71.2508
 21
84.9696
  0
LINE
  8
0
 10
71.2508
 20
84.9696
 11
71.2679
 21
85
  0
LINE
  8
0
 10
71.2679
 20
85
 11
71.2857
 21
85.0301
  0
LINE
  8
0
 10
71.2857
 20
85.0301
 11
71.3039
 21
85.0598
  0
LINE
  8
0
 10
71.3039
 20
85.0598
 11
71.3227
 21
85.0893
  0
LINE
  8
0
 10
71.3227
 20
85.0893
 11
71.3419
 21
85.1184
  0
LINE
  8
0
 10
71.3419
 20
85.1184
 11
71.3617
 21
85.1472
  0
LINE
  8
0
 10
71.3617
 20
85.1472
 11
71.382
 21
85.1756
  0
LINE
  8
0
 10
71.382
 20
85.1756
 11
71.4027
 21
85.2036
  0
LINE
  8
0
 10
71.4027
 20
85.2036
 11
71.424
 21
85.2313
  0
LINE
  8
0
 10
71.424
 20
85.2313
 11
71.4457
 21
85.2586
  0
LINE
  8
0
 10
71.4457
 20
85.2586
 11
71.4679
 21
85.2856
  0
LINE
  8
0
 10
71.4679
 20
85.2856
 11
71.4906
 21
85.3121
  0
LINE
  8
0
 10
71.4906
 20
85.3121
 11
71.5137
 21
85.3383
  0
LINE
  8
0
 10
71.5137
 20
85.3383
 11
71.5373
 21
85.364
  0
LINE
  8
0
 10
71.5373
 20
85.364
 11
71.5613
 21
85.3893
  0
LINE
  8
0
 10
71.5613
 20
85.3893
 11
71.5858
 21
85.4142
  0
LINE
  8
0
 10
71.5858
 20
85.4142
 11
71.6107
 21
85.4387
  0
LINE
  8
0
 10
71.6107
 20
85.4387
 11
71.636
 21
85.4627
  0
LINE
  8
0
 10
71.636
 20
85.4627
 11
71.6617
 21
85.4863
  0
LINE
  8
0
 10
71.6617
 20
85.4863
 11
71.6879
 21
85.5094
  0
LINE
  8
0
 10
71.6879
 20
85.5094
 11
71.7144
 21
85.5321
  0
LINE
  8
0
 10
71.7144
 20
85.5321
 11
71.7413
 21
85.5543
  0
LINE
  8
0
 10
71.7413
 20
85.5543
 11
71.7687
 21
85.576
  0
LINE
  8
0
 10
71.7687
 20
85.576
 11
71.7964
 21
85.5973
  0
LINE
  8
0
 10
71.7964
 20
85.5973
 11
71.8244
 21
85.618
  0
LINE
  8
0
 10
71.8244
 20
85.618
 11
71.8528
 21
85.6383
  0
LINE
  8
0
 10
71.8528
 20
85.6383
 11
71.8816
 21
85.6581
  0
LINE
  8
0
 10
71.8816
 20
85.6581
 11
71.9107
 21
85.6773
  0
LINE
  8
0
 10
71.9107
 20
85.6773
 11
71.9402
 21
85.6961
  0
LINE
  8
0
 10
71.9402
 20
85.6961
 11
71.9699
 21
85.7143
  0
LINE
  8
0
 10
71.9699
 20
85.7143
 11
72
 21
85.732
  0
LINE
  8
0
 10
72
 20
85.732
 11
72.0304
 21
85.7492
  0
LINE
  8
0
 10
72.0304
 20
85.7492
 11
72.0611
 21
85.7659
  0
LINE
  8
0
 10
72.0611
 20
85.7659
 11
72.092
 21
85.782
  0
LINE
  8
0
 10
72.092
 20
85.782
 11
72.1233
 21
85.7976
  0
LINE
  8
0
 10
72.1233
 20
85.7976
 11
72.1548
 21
85.8126
  0
LINE
  8
0
 10
72.1548
 20
85.8126
 11
72.1865
 21
85.8271
  0
LINE
  8
0
 10
72.1865
 20
85.8271
 11
72.2185
 21
85.841
  0
LINE
  8
0
 10
72.2185
 20
85.841
 11
72.2508
 21
85.8544
  0
LINE
  8
0
 10
72.2508
 20
85.8544
 11
72.2833
 21
85.8672
  0
LINE
  8
0
 10
72.2833
 20
85.8672
 11
72.3159
 21
85.8794
  0
LINE
  8
0
 10
72.3159
 20
85.8794
 11
72.3489
 21
85.891
  0
LINE
  8
0
 10
72.3489
 20
85.891
 11
72.382
 21
85.9021
  0
LINE
  8
0
 10
72.382
 20
85.9021
 11
72.4153
 21
85.9126
  0
LINE
  8
0
 10
72.4153
 20
85.9126
 11
72.4487
 21
85.9225
  0
LINE
  8
0
 10
72.4487
 20
85.9225
 11
72.4824
 21
85.9319
  0
LINE
  8
0
 10
72.4824
 20
85.9319
 11
72.5162
 21
85.9406
  0
LINE
  8
0
 10
72.5162
 20
85.9406
 11
72.5501
 21
85.9487
  0
LINE
  8
0
 10
72.5501
 20
85.9487
 11
72.5842
 21
85.9563
  0
LINE
  8
0
 10
72.5842
 20
85.9563
 11
72.6184
 21
85.9633
  0
LINE
  8
0
 10
72.6184
 20
85.9633
 11
72.6527
 21
85.9696
  0
LINE
  8
0
 10
72.6527
 20
85.9696
 11
72.6871
 21
85.9754
  0
LINE
  8
0
 10
72.6871
 20
85.9754
 11
72.7216
 21
85.9805
  0
LINE
  8
0
 10
72.7216
 20
85.9805
 11
72.7563
 21
85.9851
  0
LINE
  8
0
 10
72.7563
 20
85.9851
 11
72.7909
 21
85.989
  0
LINE
  8
0
 10
72.7909
 20
85.989
 11
72.8257
 21
85.9924
  0
LINE
  8
0
 10
72.8257
 20
85.9924
 11
72.8605
 21
85.9951
  0
LINE
  8
0
 10
72.8605
 20
85.9951
 11
72.8953
 21
85.9973
  0
LINE
  8
0
 10
72.8953
 20
85.9973
 11
72.9302
 21
85.9988
  0
LINE
  8
0
 10
72.9302
 20
85.9988
 11
72.9651
 21
85.9997
  0
LINE
  8
0
 10
72.9651
 20
85.9997
 11
73
 21
86
  0
LINE
  8
0
 10
73
 20
86
 11
73.0349
 21
85.9997
  0
LINE
  8
0
 10
73.0349
 20
85.9997
 11
73.0698
 21
85.9988
  0
LINE
  8
0
 10
73.0698
 20
85.9988
 11
73.1047
 21
85.9973
  0
LINE
  8
0
 10
73.1047
 20
85.9973
 11
73.1395
 21
85.9951
  0
LINE
  8
0
 10
73.1395
 20
85.9951
 11
73.1743
 21
85.9924
  0
LINE
  8
0
 10
73.1743
 20
85.9924
 11
73.2091
 21
85.989
  0
LINE
  8
0
 10
73.2091
 20
85.989
 11
73.2437
 21
85.9851
  0
LINE
  8
0
 10
73.2437
 20
85.9851
 11
73.2783
 21
85.9805
  0
LINE
  8
0
 10
73.2783
 20
85.9805
 11
73.3129
 21
85.9754
  0
LINE
  8
0
 10
73.3129
 20
85.9754
 11
73.3473
 21
85.9696
  0
LINE
  8
0
 10
73.3473
 20
85.9696
 11
73.3816
 21
85.9633
  0
LINE
  8
0
 10
73.3816
 20
85.9633
 11
73.4158
 21
85.9563
  0
LINE
  8
0
 10
73.4158
 20
85.9563
 11
73.4499
 21
85.9487
  0
LINE
  8
0
 10
73.4499
 20
85.9487
 11
73.4838
 21
85.9406
  0
LINE
  8
0
 10
73.4838
 20
85.9406
 11
73.5176
 21
85.9319
  0
LINE
  8
0
 10
73.5176
 20
85.9319
 11
73.5513
 21
85.9225
  0
LINE
  8
0
 10
73.5513
 20
85.9225
 11
73.5847
 21
85.9126
  0
LINE
  8
0
 10
73.5847
 20
85.9126
 11
73.618
 21
85.9021
  0
LINE
  8
0
 10
73.618
 20
85.9021
 11
73.6511
 21
85.891
  0
LINE
  8
0
 10
73.6511
 20
85.891
 11
73.684
 21
85.8794
  0
LINE
  8
0
 10
73.684
 20
85.8794
 11
73.7167
 21
85.8672
  0
LINE
  8
0
 10
73.7167
 20
85.8672
 11
73.7492
 21
85.8544
  0
LINE
  8
0
 10
73.7492
 20
85.8544
 11
73.7815
 21
85.841
  0
LINE
  8
0
 10
73.7815
 20
85.841
 11
73.8135
 21
85.8271
  0
LINE
  8
0
 10
73.8135
 20
85.8271
 11
73.8452
 21
85.8126
  0
LINE
  8
0
 10
73.8452
 20
85.8126
 11
73.8767
 21
85.7976
  0
LINE
  8
0
 10
73.8767
 20
85.7976
 11
73.908
 21
85.782
  0
LINE
  8
0
 10
73.908
 20
85.782
 11
73.9389
 21
85.7659
  0
LINE
  8
0
 10
73.9389
 20
85.7659
 11
73.9696
 21
85.7492
  0
LINE
  8
0
 10
73.9696
 20
85.7492
 11
74
 21
85.732
  0
LINE
  8
0
 10
74
 20
85.732
 11
74.0301
 21
85.7143
  0
LINE
  8
0
 10
74.0301
 20
85.7143
 11
74.0598
 21
85.6961
  0
LINE
  8
0
 10
74.0598
 20
85.6961
 11
74.0893
 21
85.6773
  0
LINE
  8
0
 10
74.0893
 20
85.6773
 11
74.1184
 21
85.6581
  0
LINE
  8
0
 10
74.1184
 20
85.6581
 11
74.1472
 21
85.6383
  0
LINE
  8
0
 10
74.1472
 20
85.6383
 11
74.1756
 21
85.618
  0
LINE
  8
0
 10
74.1756
 20
85.618
 11
74.2036
 21
85.5973
  0
LINE
  8
0
 10
74.2036
 20
85.5973
 11
74.2313
 21
85.576
  0
LINE
  8
0
 10
74.2313
 20
85.576
 11
74.2586
 21
85.5543
  0
LINE
  8
0
 10
74.2586
 20
85.5543
 11
74.2856
 21
85.5321
  0
LINE
  8
0
 10
74.2856
 20
85.5321
 11
74.3121
 21
85.5094
  0
LINE
  8
0
 10
74.3121
 20
85.5094
 11
74.3383
 21
85.4863
  0
LINE
  8
0
 10
74.3383
 20
85.4863
 11
74.364
 21
85.4627
  0
LINE
  8
0
 10
74.364
 20
85.4627
 11
74.3893
 21
85.4387
  0
LINE
  8
0
 10
74.3893
 20
85.4387
 11
74.4142
 21
85.4142
  0
LINE
  8
0
 10
74.4142
 20
85.4142
 11
74.4387
 21
85.3893
  0
LINE
  8
0
 10
74.4387
 20
85.3893
 11
74.4627
 21
85.364
  0
LINE
  8
0
 10
74.4627
 20
85.364
 11
74.4863
 21
85.3383
  0
LINE
  8
0
 10
74.4863
 20
85.3383
 11
74.5094
 21
85.3121
  0
LINE
  8
0
 10
74.5094
 20
85.3121
 11
74.5321
 21
85.2856
  0
LINE
  8
0
 10
74.5321
 20
85.2856
 11
74.5543
 21
85.2586
  0
LINE
  8
0
 10
74.5543
 20
85.2586
 11
74.576
 21
85.2313
  0
LINE
  8
0
 10
74.576
 20
85.2313
 11
74.5973
 21
85.2036
  0
LINE
  8
0
 10
74.5973
 20
85.2036
 11
74.618
 21
85.1756
  0
LINE
  8
0
 10
74.618
 20
85.1756
 11
74.6383
 21
85.1472
  0
LINE
  8
0
 10
74.6383
 20
85.1472
 11
74.6581
 21
85.1184
  0
LINE
  8
0
 10
74.6581
 20
85.1184
 11
74.6773
 21
85.0893
  0
LINE
  8
0
 10
74.6773
 20
85.0893
 11
74.6961
 21
85.0598
  0
LINE
  8
0
 10
74.6961
 20
85.0598
 11
74.7143
 21
85.0301
  0
LINE
  8
0
 10
74.7143
 20
85.0301
 11
74.732
 21
85
  0
LINE
  8
0
 10
74.732
 20
85
 11
74.7492
 21
84.9696
  0
LINE
  8
0
 10
74.7492
 20
84.9696
 11
74.7659
 21
84.9389
  0
LINE
  8
0
 10
74.7659
 20
84.9389
 11
74.782
 21
84.908
  0
LINE
  8
0
 10
74.782
 20
84.908
 11
74.7976
 21
84.8767
  0
LINE
  8
0
 10
74.7976
 20
84.8767
 11
74.8126
 21
84.8452
  0
LINE
  8
0
 10
74.8126
 20
84.8452
 11
74.8271
 21
84.8135
  0
LINE
  8
0
 10
74.8271
 20
84.8135
 11
74.841
 21
84.7815
  0
LINE
  8
0
 10
74.841
 20
84.7815
 11
74.8544
 21
84.7492
  0
LINE
  8
0
 10
74.8544
 20
84.7492
 11
74.8672
 21
84.7167
  0
LINE
  8
0
 10
74.8672
 20
84.7167
 11
74.8794
 21
84.684
  0
LINE
  8
0
 10
74.8794
 20
84.684
 11
74.891
 21
84.6511
  0
LINE
  8
0
 10
74.891
 20
84.6511
 11
74.9021
 21
84.618
  0
LINE
  8
0
 10
74.9021
 20
84.618
 11
74.9126
 21
84.5847
  0
LINE
  8
0
 10
74.9126
 20
84.5847
 11
74.9225
 21
84.5513
  0
LINE
  8
0
 10
74.9225
 20
84.5513
 11
74.9319
 21
84.5176
  0
LINE
  8
0
 10
74.9319
 20
84.5176
 11
74.9406
 21
84.4838
  0
LINE
  8
0
 10
74.9406
 20
84.4838
 11
74.9487
 21
84.4499
  0
LINE
  8
0
 10
74.9487
 20
84.4499
 11
74.9563
 21
84.4158
  0
LINE
  8
0
 10
74.9563
 20
84.4158
 11
74.9633
 21
84.3816
  0
LINE
  8
0
 10
74.9633
 20
84.3816
 11
74.9696
 21
84.3473
  0
LINE
  8
0
 10
74.9696
 20
84.3473
 11
74.9754
 21
84.3129
  0
LINE
  8
0
 10
74.9754
 20
84.3129
 11
74.9805
 21
84.2783
  0
LINE
  8
0
 10
74.9805
 20
84.2783
 11
74.9851
 21
84.2437
  0
LINE
  8
0
 10
74.9851
 20
84.2437
 11
74.989
 21
84.2091
  0
LINE
  8
0
 10
74.989
 20
84.2091
 11
74.9924
 21
84.1743
  0
LINE
  8
0
 10
74.9924
 20
84.1743
 11
74.9951
 21
84.1395
  0
LINE
  8
0
 10
74.9951
 20
84.1395
 11
74.9973
 21
84.1047
  0
LINE
  8
0
 10
74.9973
 20
84.1047
 11
74.9988
 21
84.0698
  0
LINE
  8
0
 10
74.9988
 20
84.0698
 11
74.9997
 21
84.0349
  0
LINE
  8
0
 10
74.9997
 20
84.0349
 11
75
 21
84
  0
LINE
  8
0
 10
75
 20
84
 11
74.9997
 21
83.9651
  0
LINE
  8
0
 10
74.9997
 20
83.9651
 11
74.9988
 21
83.9302
  0
LINE
  8
0
 10
74.9988
 20
83.9302
 11
74.9973
 21
83.8953
  0
LINE
  8
0
 10
74.9973
 20
83.8953
 11
74.9951
 21
83.8605
  0
LINE
  8
0
 10
74.9951
 20
83.8605
 11
74.9924
 21
83.8257
  0
LINE
  8
0
 10
74.9924
 20
83.8257
 11
74.989
 21
83.7909
  0
LINE
  8
0
 10
74.989
 20
83.7909
 11
74.9851
 21
83.7563
  0
LINE
  8
0
 10
74.9851
 20
83.7563
 11
74.9805
 21
83.7216
  0
LINE
  8
0
 10
74.9805
 20
83.7216
 11
74.9754
 21
83.6871
  0
LINE
  8
0
 10
74.9754
 20
83.6871
 11
74.9696
 21
83.6527
  0
LINE
  8
0
 10
74.9696
 20
83.6527
 11
74.9633
 21
83.6184
  0
LINE
  8
0
 10
74.9633
 20
83.6184
 11
74.9563
 21
83.5842
  0
LINE
  8
0
 10
74.9563
 20
83.5842
 11
74.9487
 21
83.5501
  0
LINE
  8
0
 10
74.9487
 20
83.5501
 11
74.9406
 21
83.5162
  0
LINE
  8
0
 10
74.9406
 20
83.5162
 11
74.9319
 21
83.4824
  0
LINE
  8
0
 10
74.9319
 20
83.4824
 11
74.9225
 21
83.4487
  0
LINE
  8
0
 10
74.9225
 20
83.4487
 11
74.9126
 21
83.4153
  0
LINE
  8
0
 10
74.9126
 20
83.4153
 11
74.9021
 21
83.382
  0
LINE
  8
0
 10
74.9021
 20
83.382
 11
74.891
 21
83.3489
  0
LINE
  8
0
 10
74.891
 20
83.3489
 11
74.8794
 21
83.3159
  0
LINE
  8
0
 10
74.8794
 20
83.3159
 11
74.8672
 21
83.2833
  0
LINE
  8
0
 10
74.8672
 20
83.2833
 11
74.8544
 21
83.2508
  0
LINE
  8
0
 10
74.8544
 20
83.2508
 11
74.841
 21
83.2185
  0
LINE
  8
0
 10
74.841
 20
83.2185
 11
74.8271
 21
83.1865
  0
LINE
  8
0
 10
74.8271
 20
83.1865
 11
74.8126
 21
83.1548
  0
LINE
  8
0
 10
74.8126
 20
83.1548
 11
74.7976
 21
83.1233
  0
LINE
  8
0
 10
74.7976
 20
83.1233
 11
74.782
 21
83.092
  0
LINE
  8
0
 10
74.782
 20
83.092
 11
74.7659
 21
83.0611
  0
LINE
  8
0
 10
74.7659
 20
83.0611
 11
74.7492
 21
83.0304
  0
LINE
  8
0
 10
74.7492
 20
83.0304
 11
74.732
 21
83
  0
LINE
  8
0
 10
74.732
 20
83
 11
74.7143
 21
82.9699
  0
LINE
  8
0
 10
74.7143
 20
82.9699
 11
74.6961
 21
82.9402
  0
LINE
  8
0
 10
74.6961
 20
82.9402
 11
74.6773
 21
82.9107
  0
LINE
  8
0
 10
74.6773
 20
82.9107
 11
74.6581
 21
82.8816
  0
LINE
  8
0
 10
74.6581
 20
82.8816
 11
74.6383
 21
82.8528
  0
LINE
  8
0
 10
74.6383
 20
82.8528
 11
74.618
 21
82.8244
  0
LINE
  8
0
 10
74.618
 20
82.8244
 11
74.5973
 21
82.7964
  0
LINE
  8
0
 10
74.5973
 20
82.7964
 11
74.576
 21
82.7687
  0
LINE
  8
0
 10
74.576
 20
82.7687
 11
74.5543
 21
82.7413
  0
LINE
  8
0
 10
74.5543
 20
82.7413
 11
74.5321
 21
82.7144
  0
LINE
  8
0
 10
74.5321
 20
82.7144
 11
74.5094
 21
82.6879
  0
LINE
  8
0
 10
74.5094
 20
82.6879
 11
74.4863
 21
82.6617
  0
LINE
  8
0
 10
74.4863
 20
82.6617
 11
74.4627
 21
82.636
  0
LINE
  8
0
 10
74.4627
 20
82.636
 11
74.4387
 21
82.6107
  0
LINE
  8
0
 10
74.4387
 20
82.6107
 11
74.4142
 21
82.5858
  0
LINE
  8
0
 10
74.4142
 20
82.5858
 11
74.3893
 21
82.5613
  0
LINE
  8
0
 10
74.3893
 20
82.5613
 11
74.364
 21
82.5373
  0
LINE
  8
0
 10
74.364
 20
82.5373
 11
74.3383
 21
82.5137
  0
LINE
  8
0
 10
74.3383
 20
82.5137
 11
74.3121
 21
82.4906
  0
LINE
  8
0
 10
74.3121
 20
82.4906
 11
74.2856
 21
82.4679
  0
LINE
  8
0
 10
74.2856
 20
82.4679
 11
74.2586
 21
82.4457
  0
LINE
  8
0
 10
74.2586
 20
82.4457
 11
74.2313
 21
82.424
  0
LINE
  8
0
 10
74.2313
 20
82.424
 11
74.2036
 21
82.4027
  0
LINE
  8
0
 10
74.2036
 20
82.4027
 11
74.1756
 21
82.382
  0
LINE
  8
0
 10
74.1756
 20
82.382
 11
74.1472
 21
82.3617
  0
LINE
  8
0
 10
74.1472
 20
82.3617
 11
74.1184
 21
82.3419
  0
LINE
  8
0
 10
74.1184
 20
82.3419
 11
74.0893
 21
82.3227
  0
LINE
  8
0
 10
74.0893
 20
82.3227
 11
74.0598
 21
82.3039
  0
LINE
  8
0
 10
74.0598
 20
82.3039
 11
74.0301
 21
82.2857
  0
LINE
  8
0
 10
74.0301
 20
82.2857
 11
74
 21
82.2679
  0
LINE
  8
0
 10
74
 20
82.2679
 11
73.9696
 21
82.2508
  0
LINE
  8
0
 10
73.9696
 20
82.2508
 11
73.9389
 21
82.2341
  0
LINE
  8
0
 10
73.9389
 20
82.2341
 11
73.908
 21
82.218
  0
LINE
  8
0
 10
73.908
 20
82.218
 11
73.8767
 21
82.2024
  0
LINE
  8
0
 10
73.8767
 20
82.2024
 11
73.8452
 21
82.1874
  0
LINE
  8
0
 10
73.8452
 20
82.1874
 11
73.8135
 21
82.1729
  0
LINE
  8
0
 10
73.8135
 20
82.1729
 11
73.7815
 21
82.159
  0
LINE
  8
0
 10
73.7815
 20
82.159
 11
73.7492
 21
82.1456
  0
LINE
  8
0
 10
73.7492
 20
82.1456
 11
73.7167
 21
82.1328
  0
LINE
  8
0
 10
73.7167
 20
82.1328
 11
73.684
 21
82.1206
  0
LINE
  8
0
 10
73.684
 20
82.1206
 11
73.6511
 21
82.109
  0
LINE
  8
0
 10
73.6511
 20
82.109
 11
73.618
 21
82.0979
  0
LINE
  8
0
 10
73.618
 20
82.0979
 11
73.5847
 21
82.0874
  0
LINE
  8
0
 10
73.5847
 20
82.0874
 11
73.5513
 21
82.0775
  0
LINE
  8
0
 10
73.5513
 20
82.0775
 11
73.5176
 21
82.0681
  0
LINE
  8
0
 10
73.5176
 20
82.0681
 11
73.4838
 21
82.0594
  0
LINE
  8
0
 10
73.4838
 20
82.0594
 11
73.4499
 21
82.0513
  0
LINE
  8
0
 10
73.4499
 20
82.0513
 11
73.4158
 21
82.0437
  0
LINE
  8
0
 10
73.4158
 20
82.0437
 11
73.3816
 21
82.0367
  0
LINE
  8
0
 10
73.3816
 20
82.0367
 11
73.3473
 21
82.0304
  0
LINE
  8
0
 10
73.3473
 20
82.0304
 11
73.3129
 21
82.0246
  0
LINE
  8
0
 10
73.3129
 20
82.0246
 11
73.2783
 21
82.0195
  0
LINE
  8
0
 10
73.2783
 20
82.0195
 11
73.2437
 21
82.0149
  0
LINE
  8
0
 10
73.2437
 20
82.0149
 11
73.2091
 21
82.011
  0
LINE
  8
0
 10
73.2091
 20
82.011
 11
73.1743
 21
82.0076
  0
LINE
  8
0
 10
73.1743
 20
82.0076
 11
73.1395
 21
82.0049
  0
LINE
  8
0
 10
73.1395
 20
82.0049
 11
73.1047
 21
82.0027
  0
LINE
  8
0
 10
73.1047
 20
82.0027
 11
73.0698
 21
82.0012
  0
LINE
  8
0
 10
73.0698
 20
82.0012
 11
73.0349
 21
82.0003
  0
LINE
  8
0
 10
73.0349
 20
82.0003
 11
73
 21
82
  0
LINE
  8
0
 10
73
 20
82
 11
72.9651
 21
82.0003
  0
LINE
  8
0
 10
10.9651
 20
82.0003
 11
10.9302
 21
82.0012
  0
LINE
  8
0
 10
10.9302
 20
82.0012
 11
10.8953
 21
82.0027
  0
LINE
  8
0
 10
10.8953
 20
82.0027
 11
10.8605
 21
82.0049
  0
LINE
  8
0
 10
10.8605
 20
82.0049
 11
10.8257
 21
82.0076
  0
LINE
  8
0
 10
10.8257
 20
82.0076
 11
10.7909
 21
82.011
  0
LINE
  8
0
 10
10.7909
 20
82.011
 11
10.7563
 21
82.0149
  0
LINE
  8
0
 10
10.7563
 20
82.0149
 11
10.7216
 21
82.0195
  0
LINE
  8
0
 10
10.7216
 20
82.0195
 11
10.6871
 21
82.0246
  0
LINE
  8
0
 10
10.6871
 20
82.0246
 11
10.6527
 21
82.0304
  0
LINE
  8
0
 10
10.6527
 20
82.0304
 11
10.6184
 21
82.0367
  0
LINE
  8
0
 10
10.6184
 20
82.0367
 11
10.5842
 21
82.0437
  0
LINE
  8
0
 10
10.5842
 20
82.0437
 11
10.5501
 21
82.0513
  0
LINE
  8
0
 10
10.5501
 20
82.0513
 11
10.5161
 21
82.0594
  0
LINE
  8
0
 10
10.5161
 20
82.0594
 11
10.4824
 21
82.0681
  0
LINE
  8
0
 10
10.4824
 20
82.0681
 11
10.4487
 21
82.0775
  0
LINE
  8
0
 10
10.4487
 20
82.0775
 11
10.4153
 21
82.0874
  0
LINE
  8
0
 10
10.4153
 20
82.0874
 11
10.382
 21
82.0979
  0
LINE
  8
0
 10
10.382
 20
82.0979
 11
10.3489
 21
82.109
  0
LINE
  8
0
 10
10.3489
 20
82.109
 11
10.3159
 21
82.1206
  0
LINE
  8
0
 10
10.3159
 20
82.1206
 11
10.2832
 21
82.1328
  0
LINE
  8
0
 10
10.2832
 20
82.1328
 11
10.2508
 21
82.1456
  0
LINE
  8
0
 10
10.2508
 20
82.1456
 11
10.2185
 21
82.159
  0
LINE
  8
0
 10
10.2185
 20
82.159
 11
10.1865
 21
82.1729
  0
LINE
  8
0
 10
10.1865
 20
82.1729
 11
10.1548
 21
82.1874
  0
LINE
  8
0
 10
10.1548
 20
82.1874
 11
10.1232
 21
82.2024
  0
LINE
  8
0
 10
10.1232
 20
82.2024
 11
10.092
 21
82.218
  0
LINE
  8
0
 10
10.092
 20
82.218
 11
10.0611
 21
82.2341
  0
LINE
  8
0
 10
10.0611
 20
82.2341
 11
10.0304
 21
82.2508
  0
LINE
  8
0
 10
10.0304
 20
82.2508
 11
10
 21
82.2679
  0
LINE
  8
0
 10
10
 20
82.2679
 11
9.96991
 21
82.2857
  0
LINE
  8
0
 10
9.96991
 20
82.2857
 11
9.94016
 21
82.3039
  0
LINE
  8
0
 10
9.94016
 20
82.3039
 11
9.91072
 21
82.3227
  0
LINE
  8
0
 10
9.91072
 20
82.3227
 11
9.88161
 21
82.3419
  0
LINE
  8
0
 10
9.88161
 20
82.3419
 11
9.85284
 21
82.3617
  0
LINE
  8
0
 10
9.85284
 20
82.3617
 11
9.82442
 21
82.382
  0
LINE
  8
0
 10
9.82442
 20
82.382
 11
9.79636
 21
82.4027
  0
LINE
  8
0
 10
9.79636
 20
82.4027
 11
9.76868
 21
82.424
  0
LINE
  8
0
 10
9.76868
 20
82.424
 11
9.74135
 21
82.4457
  0
LINE
  8
0
 10
9.74135
 20
82.4457
 11
9.71442
 21
82.4679
  0
LINE
  8
0
 10
9.71442
 20
82.4679
 11
9.68788
 21
82.4906
  0
LINE
  8
0
 10
9.68788
 20
82.4906
 11
9.66173
 21
82.5137
  0
LINE
  8
0
 10
9.66173
 20
82.5137
 11
9.636
 21
82.5373
  0
LINE
  8
0
 10
9.636
 20
82.5373
 11
9.61067
 21
82.5613
  0
LINE
  8
0
 10
9.61067
 20
82.5613
 11
9.58578
 21
82.5858
  0
LINE
  8
0
 10
9.58578
 20
82.5858
 11
9.56131
 21
82.6107
  0
LINE
  8
0
 10
9.56131
 20
82.6107
 11
9.53729
 21
82.636
  0
LINE
  8
0
 10
9.53729
 20
82.636
 11
9.5137
 21
82.6617
  0
LINE
  8
0
 10
9.5137
 20
82.6617
 11
9.49057
 21
82.6879
  0
LINE
  8
0
 10
9.49057
 20
82.6879
 11
9.46791
 21
82.7144
  0
LINE
  8
0
 10
9.46791
 20
82.7144
 11
9.44569
 21
82.7413
  0
LINE
  8
0
 10
9.44569
 20
82.7413
 11
9.42397
 21
82.7687
  0
LINE
  8
0
 10
9.42397
 20
82.7687
 11
9.40273
 21
82.7964
  0
LINE
  8
0
 10
9.40273
 20
82.7964
 11
9.38196
 21
82.8244
  0
LINE
  8
0
 10
9.38196
 20
82.8244
 11
9.36169
 21
82.8528
  0
LINE
  8
0
 10
9.36169
 20
82.8528
 11
9.34192
 21
82.8816
  0
LINE
  8
0
 10
9.34192
 20
82.8816
 11
9.32265
 21
82.9107
  0
LINE
  8
0
 10
9.32265
 20
82.9107
 11
9.30389
 21
82.9402
  0
LINE
  8
0
 10
9.30389
 20
82.9402
 11
9.28566
 21
82.9699
  0
LINE
  8
0
 10
9.28566
 20
82.9699
 11
9.26794
 21
83
  0
LINE
  8
0
 10
9.26794
 20
83
 11
9.25075
 21
83.0304
  0
LINE
  8
0
 10
9.25075
 20
83.0304
 11
9.2341
 21
83.0611
  0
LINE
  8
0
 10
9.2341
 20
83.0611
 11
9.21797
 21
83.092
  0
LINE
  8
0
 10
9.21797
 20
83.092
 11
9.20241
 21
83.1233
  0
LINE
  8
0
 10
9.20241
 20
83.1233
 11
9.18738
 21
83.1548
  0
LINE
  8
0
 10
9.18738
 20
83.1548
 11
9.1729
 21
83.1865
  0
LINE
  8
0
 10
9.1729
 20
83.1865
 11
9.15898
 21
83.2185
  0
LINE
  8
0
 10
9.15898
 20
83.2185
 11
9.14563
 21
83.2508
  0
LINE
  8
0
 10
9.14563
 20
83.2508
 11
9.13283
 21
83.2833
  0
LINE
  8
0
 10
9.13283
 20
83.2833
 11
9.12061
 21
83.3159
  0
LINE
  8
0
 10
9.12061
 20
83.3159
 11
9.10895
 21
83.3489
  0
LINE
  8
0
 10
9.10895
 20
83.3489
 11
9.09789
 21
83.382
  0
LINE
  8
0
 10
9.09789
 20
83.382
 11
9.08739
 21
83.4153
  0
LINE
  8
0
 10
9.08739
 20
83.4153
 11
9.07747
 21
83.4487
  0
LINE
  8
0
 10
9.07747
 20
83.4487
 11
9.06815
 21
83.4824
  0
LINE
  8
0
 10
9.06815
 20
83.4824
 11
9.0594
 21
83.5162
  0
LINE
  8
0
 10
9.0594
 20
83.5162
 11
9.05125
 21
83.5501
  0
LINE
  8
0
 10
9.05125
 20
83.5501
 11
9.0437
 21
83.5842
  0
LINE
  8
0
 10
9.0437
 20
83.5842
 11
9.03674
 21
83.6184
  0
LINE
  8
0
 10
9.03674
 20
83.6184
 11
9.03038
 21
83.6527
  0
LINE
  8
0
 10
9.03038
 20
83.6527
 11
9.02461
 21
83.6871
  0
LINE
  8
0
 10
9.02461
 20
83.6871
 11
9.01945
 21
83.7216
  0
LINE
  8
0
 10
9.01945
 20
83.7216
 11
9.01489
 21
83.7563
  0
LINE
  8
0
 10
9.01489
 20
83.7563
 11
9.01096
 21
83.7909
  0
LINE
  8
0
 10
9.01096
 20
83.7909
 11
9.0076
 21
83.8257
  0
LINE
  8
0
 10
9.0076
 20
83.8257
 11
9.00487
 21
83.8605
  0
LINE
  8
0
 10
9.00487
 20
83.8605
 11
9.00273
 21
83.8953
  0
LINE
  8
0
 10
9.00273
 20
83.8953
 11
9.00121
 21
83.9302
  0
LINE
  8
0
 10
9.00121
 20
83.9302
 11
9.00029
 21
83.9651
  0
LINE
  8
0
 10
9.00029
 20
83.9651
 11
9
 21
84
  0
LINE
  8
0
 10
9
 20
84
 11
9.00029
 21
84.0349
  0
LINE
  8
0
 10
9.00029
 20
84.0349
 11
9.00121
 21
84.0698
  0
LINE
  8
0
 10
9.00121
 20
84.0698
 11
9.00273
 21
84.1047
  0
LINE
  8
0
 10
9.00273
 20
84.1047
 11
9.00487
 21
84.1395
  0
LINE
  8
0
 10
9.00487
 20
84.1395
 11
9.0076
 21
84.1743
  0
LINE
  8
0
 10
9.0076
 20
84.1743
 11
9.01096
 21
84.2091
  0
LINE
  8
0
 10
9.01096
 20
84.2091
 11
9.01489
 21
84.2437
  0
LINE
  8
0
 10
9.01489
 20
84.2437
 11
9.01945
 21
84.2783
  0
LINE
  8
0
 10
9.01945
 20
84.2783
 11
9.02461
 21
84.3129
  0
LINE
  8
0
 10
9.02461
 20
84.3129
 11
9.03038
 21
84.3473
  0
LINE
  8
0
 10
9.03038
 20
84.3473
 11
9.03674
 21
84.3816
  0
LINE
  8
0
 10
9.03674
 20
84.3816
 11
9.0437
 21
84.4158
  0
LINE
  8
0
 10
9.0437
 20
84.4158
 11
9.05125
 21
84.4499
  0
LINE
  8
0
 10
9.05125
 20
84.4499
 11
9.0594
 21
84.4838
  0
LINE
  8
0
 10
9.0594
 20
84.4838
 11
9.06815
 21
84.5176
  0
LINE
  8
0
 10
9.06815
 20
84.5176
 11
9.07747
 21
84.5513
  0
LINE
  8
0
 10
9.07747
 20
84.5513
 11
9.08739
 21
84.5847
  0
LINE
  8
0
 10
9.08739
 20
84.5847
 11
9.09789
 21
84.618
  0
LINE
  8
0
 10
9.09789
 20
84.618
 11
9.10895
 21
84.6511
  0
LINE
  8
0
 10
9.10895
 20
84.6511
 11
9.12061
 21
84.684
  0
LINE
  8
0
 10
9.12061
 20
84.684
 11
9.13283
 21
84.7167
  0
LINE
  8
0
 10
9.13283
 20
84.7167
 11
9.14563
 21
84.7492
  0
LINE
  8
0
 10
9.14563
 20
84.7492
 11
9.15898
 21
84.7815
  0
LINE
  8
0
 10
9.15898
 20
84.7815
 11
9.1729
 21
84.8135
  0
LINE
  8
0
 10
9.1729
 20
84.8135
 11
9.18738
 21
84.8452
  0
LINE
  8
0
 10
9.18738
 20
84.8452
 11
9.20241
 21
84.8767
  0
LINE
  8
0
 10
9.20241
 20
84.8767
 11
9.21797
 21
84.908
  0
LINE
  8
0
 10
9.21797
 20
84.908
 11
9.2341
 21
84.9389
  0
LINE
  8
0
 10
9.2341
 20
84.9389
 11
9.25075
 21
84.9696
  0
LINE
  8
0
 10
9.25075
 20
84.9696
 11
9.26794
 21
85
  0
LINE
  8
0
 10
9.26794
 20
85
 11
9.28566
 21
85.0301
  0
LINE
  8
0
 10
9.28566
 20
85.0301
 11
9.30389
 21
85.0598
  0
LINE
  8
0
 10
9.30389
 20
85.0598
 11
9.32265
 21
85.0893
  0
LINE
  8
0
 10
9.32265
 20
85.0893
 11
9.34192
 21
85.1184
  0
LINE
  8
0
 10
9.34192
 20
85.1184
 11
9.36169
 21
85.1472
  0
LINE
  8
0
 10
9.36169
 20
85.1472
 11
9.38196
 21
85.1756
  0
LINE
  8
0
 10
9.38196
 20
85.1756
 11
9.40273
 21
85.2036
  0
LINE
  8
0
 10
9.40273
 20
85.2036
 11
9.42397
 21
85.2313
  0
LINE
  8
0
 10
9.42397
 20
85.2313
 11
9.44569
 21
85.2586
  0
LINE
  8
0
 10
9.44569
 20
85.2586
 11
9.46791
 21
85.2856
  0
LINE
  8
0
 10
9.46791
 20
85.2856
 11
9.49057
 21
85.3121
  0
LINE
  8
0
 10
9.49057
 20
85.3121
 11
9.5137
 21
85.3383
  0
LINE
  8
0
 10
9.5137
 20
85.3383
 11
9.53729
 21
85.364
  0
LINE
  8
0
 10
9.53729
 20
85.364
 11
9.56131
 21
85.3893
  0
LINE
  8
0
 10
9.56131
 20
85.3893
 11
9.58578
 21
85.4142
  0
LINE
  8
0
 10
9.58578
 20
85.4142
 11
9.61067
 21
85.4387
  0
LINE
  8
0
 10
9.61067
 20
85.4387
 11
9.636
 21
85.4627
  0
LINE
  8
0
 10
9.636
 20
85.4627
 11
9.66173
 21
85.4863
  0
LINE
  8
0
 10
9.66173
 20
85.4863
 11
9.68788
 21
85.5094
  0
LINE
  8
0
 10
9.68788
 20
85.5094
 11
9.71442
 21
85.5321
  0
LINE
  8
0
 10
9.71442
 20
85.5321
 11
9.74135
 21
85.5543
  0
LINE
  8
0
 10
9.74135
 20
85.5543
 11
9.76868
 21
85.576
  0
LINE
  8
0
 10
9.76868
 20
85.576
 11
9.79636
 21
85.5973
  0
LINE
  8
0
 10
9.79636
 20
85.5973
 11
9.82442
 21
85.618
  0
LINE
  8
0
 10
9.82442
 20
85.618
 11
9.85284
 21
85.6383
  0
LINE
  8
0
 10
9.85284
 20
85.6383
 11
9.88161
 21
85.6581
  0
LINE
  8
0
 10
9.88161
 20
85.6581
 11
9.91072
 21
85.6773
  0
LINE
  8
0
 10
9.91072
 20
85.6773
 11
9.94016
 21
85.6961
  0
LINE
  8
0
 10
9.94016
 20
85.6961
 11
9.96991
 21
85.7143
  0
LINE
  8
0
 10
9.96991
 20
85.7143
 11
10
 21
85.732
  0
LINE
  8
0
 10
10
 20
85.732
 11
10.0304
 21
85.7492
  0
LINE
  8
0
 10
10.0304
 20
85.7492
 11
10.0611
 21
85.7659
  0
LINE
  8
0
 10
10.0611
 20
85.7659
 11
10.092
 21
85.782
  0
LINE
  8
0
 10
10.092
 20
85.782
 11
10.1232
 21
85.7976
  0
LINE
  8
0
 10
10.1232
 20
85.7976
 11
10.1548
 21
85.8126
  0
LINE
  8
0
 10
10.1548
 20
85.8126
 11
10.1865
 21
85.8271
  0
LINE
  8
0
 10
10.1865
 20
85.8271
 11
10.2185
 21
85.841
  0
LINE
  8
0
 10
10.2185
 20
85.841
 11
10.2508
 21
85.8544
  0
LINE
  8
0
 10
10.2508
 20
85.8544
 11
10.2832
 21
85.8672
  0
LINE
  8
0
 10
10.2832
 20
85.8672
 11
10.3159
 21
85.8794
  0
LINE
  8
0
 10
10.3159
 20
85.8794
 11
10.3489
 21
85.891
  0
LINE
  8
0
 10
10.3489
 20
85.891
 11
10.382
 21
85.9021
  0
LINE
  8
0
 10
10.382
 20
85.9021
 11
10.4153
 21
85.9126
  0
LINE
  8
0
 10
10.4153
 20
85.9126
 11
10.4487
 21
85.9225
  0
LINE
  8
0
 10
10.4487
 20
85.9225
 11
10.4824
 21
85.9319
  0
LINE
  8
0
 10
10.4824
 20
85.9319
 11
10.5161
 21
85.9406
  0
LINE
  8
0
 10
10.5161
 20
85.9406
 11
10.5501
 21
85.9487
  0
LINE
  8
0
 10
10.5501
 20
85.9487
 11
10.5842
 21
85.9563
  0
LINE
  8
0
 10
10.5842
 20
85.9563
 11
10.6184
 21
85.9633
  0
LINE
  8
0
 10
10.6184
 20
85.9633
 11
10.6527
 21
85.9696
  0
LINE
  8
0
 10
10.6527
 20
85.9696
 11
10.6871
 21
85.9754
  0
LINE
  8
0
 10
10.6871
 20
85.9754
 11
10.7216
 21
85.9805
  0
LINE
  8
0
 10
10.7216
 20
85.9805
 11
10.7563
 21
85.9851
  0
LINE
  8
0
 10
10.7563
 20
85.9851
 11
10.7909
 21
85.989
  0
LINE
  8
0
 10
10.7909
 20
85.989
 11
10.8257
 21
85.9924
  0
LINE
  8
0
 10
10.8257
 20
85.9924
 11
10.8605
 21
85.9951
  0
LINE
  8
0
 10
10.8605
 20
85.9951
 11
10.8953
 21
85.9973
  0
LINE
  8
0
 10
10.8953
 20
85.9973
 11
10.9302
 21
85.9988
  0
LINE
  8
0
 10
10.9302
 20
85.9988
 11
10.9651
 21
85.9997
  0
LINE
  8
0
 10
10.9651
 20
85.9997
 11
11
 21
86
  0
LINE
  8
0
 10
11
 20
86
 11
11.0349
 21
85.9997
  0
LINE
  8
0
 10
11.0349
 20
85.9997
 11
11.0698
 21
85.9988
  0
LINE
  8
0
 10
11.0698
 20
85.9988
 11
11.1047
 21
85.9973
  0
LINE
  8
0
 10
11.1047
 20
85.9973
 11
11.1395
 21
85.9951
  0
LINE
  8
0
 10
11.1395
 20
85.9951
 11
11.1743
 21
85.9924
  0
LINE
  8
0
 10
11.1743
 20
85.9924
 11
11.209
 21
85.989
  0
LINE
  8
0
 10
11.209
 20
85.989
 11
11.2437
 21
85.9851
  0
LINE
  8
0
 10
11.2437
 20
85.9851
 11
11.2783
 21
85.9805
  0
LINE
  8
0
 10
11.2783
 20
85.9805
 11
11.3129
 21
85.9754
  0
LINE
  8
0
 10
11.3129
 20
85.9754
 11
11.3473
 21
85.9696
  0
LINE
  8
0
 10
11.3473
 20
85.9696
 11
11.3816
 21
85.9633
  0
LINE
  8
0
 10
11.3816
 20
85.9633
 11
11.4158
 21
85.9563
  0
LINE
  8
0
 10
11.4158
 20
85.9563
 11
11.4499
 21
85.9487
  0
LINE
  8
0
 10
11.4499
 20
85.9487
 11
11.4838
 21
85.9406
  0
LINE
  8
0
 10
11.4838
 20
85.9406
 11
11.5176
 21
85.9319
  0
LINE
  8
0
 10
11.5176
 20
85.9319
 11
11.5513
 21
85.9225
  0
LINE
  8
0
 10
11.5513
 20
85.9225
 11
11.5847
 21
85.9126
  0
LINE
  8
0
 10
11.5847
 20
85.9126
 11
11.618
 21
85.9021
  0
LINE
  8
0
 10
11.618
 20
85.9021
 11
11.6511
 21
85.891
  0
LINE
  8
0
 10
11.6511
 20
85.891
 11
11.684
 21
85.8794
  0
LINE
  8
0
 10
11.684
 20
85.8794
 11
11.7167
 21
85.8672
  0
LINE
  8
0
 10
11.7167
 20
85.8672
 11
11.7492
 21
85.8544
  0
LINE
  8
0
 10
11.7492
 20
85.8544
 11
11.7814
 21
85.841
  0
LINE
  8
0
 10
11.7814
 20
85.841
 11
11.8135
 21
85.8271
  0
LINE
  8
0
 10
11.8135
 20
85.8271
 11
11.8452
 21
85.8126
  0
LINE
  8
0
 10
11.8452
 20
85.8126
 11
11.8767
 21
85.7976
  0
LINE
  8
0
 10
11.8767
 20
85.7976
 11
11.908
 21
85.782
  0
LINE
  8
0
 10
11.908
 20
85.782
 11
11.9389
 21
85.7659
  0
LINE
  8
0
 10
11.9389
 20
85.7659
 11
11.9696
 21
85.7492
  0
LINE
  8
0
 10
11.9696
 20
85.7492
 11
12
 21
85.732
  0
LINE
  8
0
 10
12
 20
85.732
 11
12.0301
 21
85.7143
  0
LINE
  8
0
 10
12.0301
 20
85.7143
 11
12.0598
 21
85.6961
  0
LINE
  8
0
 10
12.0598
 20
85.6961
 11
12.0893
 21
85.6773
  0
LINE
  8
0
 10
12.0893
 20
85.6773
 11
12.1184
 21
85.6581
  0
LINE
  8
0
 10
12.1184
 20
85.6581
 11
12.1471
 21
85.6383
  0
LINE
  8
0
 10
12.1471
 20
85.6383
 11
12.1756
 21
85.618
  0
LINE
  8
0
 10
12.1756
 20
85.618
 11
12.2036
 21
85.5973
  0
LINE
  8
0
 10
12.2036
 20
85.5973
 11
12.2313
 21
85.576
  0
LINE
  8
0
 10
12.2313
 20
85.576
 11
12.2586
 21
85.5543
  0
LINE
  8
0
 10
12.2586
 20
85.5543
 11
12.2856
 21
85.5321
  0
LINE
  8
0
 10
12.2856
 20
85.5321
 11
12.3121
 21
85.5094
  0
LINE
  8
0
 10
12.3121
 20
85.5094
 11
12.3383
 21
85.4863
  0
LINE
  8
0
 10
12.3383
 20
85.4863
 11
12.364
 21
85.4627
  0
LINE
  8
0
 10
12.364
 20
85.4627
 11
12.3893
 21
85.4387
  0
LINE
  8
0
 10
12.3893
 20
85.4387
 11
12.4142
 21
85.4142
  0
LINE
  8
0
 10
12.4142
 20
85.4142
 11
12.4387
 21
85.3893
  0
LINE
  8
0
 10
12.4387
 20
85.3893
 11
12.4627
 21
85.364
  0
LINE
  8
0
 10
12.4627
 20
85.364
 11
12.4863
 21
85.3383
  0
LINE
  8
0
 10
12.4863
 20
85.3383
 11
12.5094
 21
85.3121
  0
LINE
  8
0
 10
12.5094
 20
85.3121
 11
12.5321
 21
85.2856
  0
LINE
  8
0
 10
12.5321
 20
85.2856
 11
12.5543
 21
85.2586
  0
LINE
  8
0
 10
12.5543
 20
85.2586
 11
12.576
 21
85.2313
  0
LINE
  8
0
 10
12.576
 20
85.2313
 11
12.5973
 21
85.2036
  0
LINE
  8
0
 10
12.5973
 20
85.2036
 11
12.618
 21
85.1756
  0
LINE
  8
0
 10
12.618
 20
85.1756
 11
12.6383
 21
85.1472
  0
LINE
  8
0
 10
12.6383
 20
85.1472
 11
12.6581
 21
85.1184
  0
LINE
  8
0
 10
12.6581
 20
85.1184
 11
12.6773
 21
85.0893
  0
LINE
  8
0
 10
12.6773
 20
85.0893
 11
12.6961
 21
85.0598
  0
LINE
  8
0
 10
12.6961
 20
85.0598
 11
12.7143
 21
85.0301
  0
LINE
  8
0
 10
12.7143
 20
85.0301
 11
12.732
 21
85
  0
LINE
  8
0
 10
12.732
 20
85
 11
12.7492
 21
84.9696
  0
LINE
  8
0
 10
12.7492
 20
84.9696
 11
12.7659
 21
84.9389
  0
LINE
  8
0
 10
12.7659
 20
84.9389
 11
12.782
 21
84.908
  0
LINE
  8
0
 10
12.782
 20
84.908
 11
12.7976
 21
84.8767
  0
LINE
  8
0
 10
12.7976
 20
84.8767
 11
12.8126
 21
84.8452
  0
LINE
  8
0
 10
12.8126
 20
84.8452
 11
12.8271
 21
84.8135
  0
LINE
  8
0
 10
12.8271
 20
84.8135
 11
12.841
 21
84.7815
  0
LINE
  8
0
 10
12.841
 20
84.7815
 11
12.8544
 21
84.7492
  0
LINE
  8
0
 10
12.8544
 20
84.7492
 11
12.8672
 21
84.7167
  0
LINE
  8
0
 10
12.8672
 20
84.7167
 11
12.8794
 21
84.684
  0
LINE
  8
0
 10
12.8794
 20
84.684
 11
12.891
 21
84.6511
  0
LINE
  8
0
 10
12.891
 20
84.6511
 11
12.9021
 21
84.618
  0
LINE
  8
0
 10
12.9021
 20
84.618
 11
12.9126
 21
84.5847
  0
LINE
  8
0
 10
12.9126
 20
84.5847
 11
12.9225
 21
84.5513
  0
LINE
  8
0
 10
12.9225
 20
84.5513
 11
12.9318
 21
84.5176
  0
LINE
  8
0
 10
12.9318
 20
84.5176
 11
12.9406
 21
84.4838
  0
LINE
  8
0
 10
12.9406
 20
84.4838
 11
12.9487
 21
84.4499
  0
LINE
  8
0
 10
12.9487
 20
84.4499
 11
12.9563
 21
84.4158
  0
LINE
  8
0
 10
12.9563
 20
84.4158
 11
12.9632
 21
84.3816
  0
LINE
  8
0
 10
12.9632
 20
84.3816
 11
12.9696
 21
84.3473
  0
LINE
  8
0
 10
12.9696
 20
84.3473
 11
12.9754
 21
84.3129
  0
LINE
  8
0
 10
12.9754
 20
84.3129
 11
12.9805
 21
84.2783
  0
LINE
  8
0
 10
12.9805
 20
84.2783
 11
12.9851
 21
84.2437
  0
LINE
  8
0
 10
12.9851
 20
84.2437
 11
12.989
 21
84.2091
  0
LINE
  8
0
 10
12.989
 20
84.2091
 11
12.9924
 21
84.1743
  0
LINE
  8
0
 10
12.9924
 20
84.1743
 11
12.9951
 21
84.1395
  0
LINE
  8
0
 10
12.9951
 20
84.1395
 11
12.9973
 21
84.1047
  0
LINE
  8
0
 10
12.9973
 20
84.1047
 11
12.9988
 21
84.0698
  0
LINE
  8
0
 10
12.9988
 20
84.0698
 11
12.9997
 21
84.0349
  0
LINE
  8
0
 10
12.9997
 20
84.0349
 11
13
 21
84
  0
LINE
  8
0
 10
13
 20
84
 11
12.9997
 21
83.9651
  0
LINE
  8
0
 10
12.9997
 20
83.9651
 11
12.9988
 21
83.9302
  0
LINE
  8
0
 10
12.9988
 20
83.9302
 11
12.9973
 21
83.8953
  0
LINE
  8
0
 10
12.9973
 20
83.8953
 11
12.9951
 21
83.8605
  0
LINE
  8
0
 10
12.9951
 20
83.8605
 11
12.9924
 21
83.8257
  0
LINE
  8
0
 10
12.9924
 20
83.8257
 11
12.989
 21
83.7909
  0
LINE
  8
0
 10
12.989
 20
83.7909
 11
12.9851
 21
83.7563
  0
LINE
  8
0
 10
12.9851
 20
83.7563
 11
12.9805
 21
83.7216
  0
LINE
  8
0
 10
12.9805
 20
83.7216
 11
12.9754
 21
83.6871
  0
LINE
  8
0
 10
12.9754
 20
83.6871
 11
12.9696
 21
83.6527
  0
LINE
  8
0
 10
12.9696
 20
83.6527
 11
12.9632
 21
83.6184
  0
LINE
  8
0
 10
12.9632
 20
83.6184
 11
12.9563
 21
83.5842
  0
LINE
  8
0
 10
12.9563
 20
83.5842
 11
12.9487
 21
83.5501
  0
LINE
  8
0
 10
12.9487
 20
83.5501
 11
12.9406
 21
83.5162
  0
LINE
  8
0
 10
12.9406
 20
83.5162
 11
12.9318
 21
83.4824
  0
LINE
  8
0
 10
12.9318
 20
83.4824
 11
12.9225
 21
83.4487
  0
LINE
  8
0
 10
12.9225
 20
83.4487
 11
12.9126
 21
83.4153
  0
LINE
  8
0
 10
12.9126
 20
83.4153
 11
12.9021
 21
83.382
  0
LINE
  8
0
 10
12.9021
 20
83.382
 11
12.891
 21
83.3489
  0
LINE
  8
0
 10
12.891
 20
83.3489
 11
12.8794
 21
83.3159
  0
LINE
  8
0
 10
12.8794
 20
83.3159
 11
12.8672
 21
83.2833
  0
LINE
  8
0
 10
12.8672
 20
83.2833
 11
12.8544
 21
83.2508
  0
LINE
  8
0
 10
12.8544
 20
83.2508
 11
12.841
 21
83.2185
  0
LINE
  8
0
 10
12.841
 20
83.2185
 11
12.8271
 21
83.1865
  0
LINE
  8
0
 10
12.8271
 20
83.1865
 11
12.8126
 21
83.1548
  0
LINE
  8
0
 10
12.8126
 20
83.1548
 11
12.7976
 21
83.1233
  0
LINE
  8
0
 10
12.7976
 20
83.1233
 11
12.782
 21
83.092
  0
LINE
  8
0
 10
12.782
 20
83.092
 11
12.7659
 21
83.0611
  0
LINE
  8
0
 10
12.7659
 20
83.0611
 11
12.7492
 21
83.0304
  0
LINE
  8
0
 10
12.7492
 20
83.0304
 11
12.732
 21
83
  0
LINE
  8
0
 10
12.732
 20
83
 11
12.7143
 21
82.9699
  0
LINE
  8
0
 10
12.7143
 20
82.9699
 11
12.6961
 21
82.9402
  0
LINE
  8
0
 10
12.6961
 20
82.9402
 11
12.6773
 21
82.9107
  0
LINE
  8
0
 10
12.6773
 20
82.9107
 11
12.6581
 21
82.8816
  0
LINE
  8
0
 10
12.6581
 20
82.8816
 11
12.6383
 21
82.8528
  0
LINE
  8
0
 10
12.6383
 20
82.8528
 11
12.618
 21
82.8244
  0
LINE
  8
0
 10
12.618
 20
82.8244
 11
12.5973
 21
82.7964
  0
LINE
  8
0
 10
12.5973
 20
82.7964
 11
12.576
 21
82.7687
  0
LINE
  8
0
 10
12.576
 20
82.7687
 11
12.5543
 21
82.7413
  0
LINE
  8
0
 10
12.5543
 20
82.7413
 11
12.5321
 21
82.7144
  0
LINE
  8
0
 10
12.5321
 20
82.7144
 11
12.5094
 21
82.6879
  0
LINE
  8
0
 10
12.5094
 20
82.6879
 11
12.4863
 21
82.6617
  0
LINE
  8
0
 10
12.4863
 20
82.6617
 11
12.4627
 21
82.636
  0
LINE
  8
0
 10
12.4627
 20
82.636
 11
12.4387
 21
82.6107
  0
LINE
  8
0
 10
12.4387
 20
82.6107
 11
12.4142
 21
82.5858
  0
LINE
  8
0
 10
12.4142
 20
82.5858
 11
12.3893
 21
82.5613
  0
LINE
  8
0
 10
12.3893
 20
82.5613
 11
12.364
 21
82.5373
  0
LINE
  8
0
 10
12.364
 20
82.5373
 11
12.3383
 21
82.5137
  0
LINE
  8
0
 10
12.3383
 20
82.5137
 11
12.3121
 21
82.4906
  0
LINE
  8
0
 10
12.3121
 20
82.4906
 11
12.2856
 21
82.4679
  0
LINE
  8
0
 10
12.2856
 20
82.4679
 11
12.2586
 21
82.4457
  0
LINE
  8
0
 10
12.2586
 20
82.4457
 11
12.2313
 21
82.424
  0
LINE
  8
0
 10
12.2313
 20
82.424
 11
12.2036
 21
82.4027
  0
LINE
  8
0
 10
12.2036
 20
82.4027
 11
12.1756
 21
82.382
  0
LINE
  8
0
 10
12.1756
 20
82.382
 11
12.1471
 21
82.3617
  0
LINE
  8
0
 10
12.1471
 20
82.3617
 11
12.1184
 21
82.3419
  0
LINE
  8
0
 10
12.1184
 20
82.3419
 11
12.0893
 21
82.3227
  0
LINE
  8
0
 10
12.0893
 20
82.3227
 11
12.0598
 21
82.3039
  0
LINE
  8
0
 10
12.0598
 20
82.3039
 11
12.0301
 21
82.2857
  0
LINE
  8
0
 10
12.0301
 20
82.2857
 11
12
 21
82.2679
  0
LINE
  8
0
 10
12
 20
82.2679
 11
11.9696
 21
82.2508
  0
LINE
  8
0
 10
11.9696
 20
82.2508
 11
11.9389
 21
82.2341
  0
LINE
  8
0
 10
11.9389
 20
82.2341
 11
11.908
 21
82.218
  0
LINE
  8
0
 10
11.908
 20
82.218
 11
11.8767
 21
82.2024
  0
LINE
  8
0
 10
11.8767
 20
82.2024
 11
11.8452
 21
82.1874
  0
LINE
  8
0
 10
11.8452
 20
82.1874
 11
11.8135
 21
82.1729
  0
LINE
  8
0
 10
11.8135
 20
82.1729
 11
11.7814
 21
82.159
  0
LINE
  8
0
 10
11.7814
 20
82.159
 11
11.7492
 21
82.1456
  0
LINE
  8
0
 10
11.7492
 20
82.1456
 11
11.7167
 21
82.1328
  0
LINE
  8
0
 10
11.7167
 20
82.1328
 11
11.684
 21
82.1206
  0
LINE
  8
0
 10
11.684
 20
82.1206
 11
11.6511
 21
82.109
  0
LINE
  8
0
 10
11.6511
 20
82.109
 11
11.618
 21
82.0979
  0
LINE
  8
0
 10
11.618
 20
82.0979
 11
11.5847
 21
82.0874
  0
LINE
  8
0
 10
11.5847
 20
82.0874
 11
11.5513
 21
82.0775
  0
LINE
  8
0
 10
11.5513
 20
82.0775
 11
11.5176
 21
82.0681
  0
LINE
  8
0
 10
11.5176
 20
82.0681
 11
11.4838
 21
82.0594
  0
LINE
  8
0
 10
11.4838
 20
82.0594
 11
11.4499
 21
82.0513
  0
LINE
  8
0
 10
11.4499
 20
82.0513
 11
11.4158
 21
82.0437
  0
LINE
  8
0
 10
11.4158
 20
82.0437
 11
11.3816
 21
82.0367
  0
LINE
  8
0
 10
11.3816
 20
82.0367
 11
11.3473
 21
82.0304
  0
LINE
  8
0
 10
11.3473
 20
82.0304
 11
11.3129
 21
82.0246
  0
LINE
  8
0
 10
11.3129
 20
82.0246
 11
11.2783
 21
82.0195
  0
LINE
  8
0
 10
11.2783
 20
82.0195
 11
11.2437
 21
82.0149
  0
LINE
  8
0
 10
11.2437
 20
82.0149
 11
11.209
 21
82.011
  0
LINE
  8
0
 10
11.209
 20
82.011
 11
11.1743
 21
82.0076
  0
LINE
  8
0
 10
11.1743
 20
82.0076
 11
11.1395
 21
82.0049
  0
LINE
  8
0
 10
11.1395
 20
82.0049
 11
11.1047
 21
82.0027
  0
LINE
  8
0
 10
11.1047
 20
82.0027
 11
11.0698
 21
82.0012
  0
LINE
  8
0
 10
11.0698
 20
82.0012
 11
11.0349
 21
82.0003
  0
LINE
  8
0
 10
11.0349
 20
82.0003
 11
11
 21
82
  0
LINE
  8
0
 10
11
 20
82
 11
10.9651
 21
82.0003
  0
LINE
  8
0
 10
10.9651
 20
20.0003
 11
10.9302
 21
20.0012
  0
LINE
  8
0
 10
10.9302
 20
20.0012
 11
10.8953
 21
20.0027
  0
LINE
  8
0
 10
10.8953
 20
20.0027
 11
10.8605
 21
20.0049
  0
LINE
  8
0
 10
10.8605
 20
20.0049
 11
10.8257
 21
20.0076
  0
LINE
  8
0
 10
10.8257
 20
20.0076
 11
10.7909
 21
20.011
  0
LINE
  8
0
 10
10.7909
 20
20.011
 11
10.7563
 21
20.0149
  0
LINE
  8
0
 10
10.7563
 20
20.0149
 11
10.7216
 21
20.0195
  0
LINE
  8
0
 10
10.7216
 20
20.0195
 11
10.6871
 21
20.0246
  0
LINE
  8
0
 10
10.6871
 20
20.0246
 11
10.6527
 21
20.0304
  0
LINE
  8
0
 10
10.6527
 20
20.0304
 11
10.6184
 21
20.0367
  0
LINE
  8
0
 10
10.6184
 20
20.0367
 11
10.5842
 21
20.0437
  0
LINE
  8
0
 10
10.5842
 20
20.0437
 11
10.5501
 21
20.0513
  0
LINE
  8
0
 10
10.5501
 20
20.0513
 11
10.5161
 21
20.0594
  0
LINE
  8
0
 10
10.5161
 20
20.0594
 11
10.4824
 21
20.0681
  0
LINE
  8
0
 10
10.4824
 20
20.0681
 11
10.4487
 21
20.0775
  0
LINE
  8
0
 10
10.4487
 20
20.0775
 11
10.4153
 21
20.0874
  0
LINE
  8
0
 10
10.4153
 20
20.0874
 11
10.382
 21
20.0979
  0
LINE
  8
0
 10
10.382
 20
20.0979
 11
10.3489
 21
20.109
  0
LINE
  8
0
 10
10.3489
 20
20.109
 11
10.3159
 21
20.1206
  0
LINE
  8
0
 10
10.3159
 20
20.1206
 11
10.2832
 21
20.1328
  0
LINE
  8
0
 10
10.2832
 20
20.1328
 11
10.2508
 21
20.1456
  0
LINE
  8
0
 10
10.2508
 20
20.1456
 11
10.2185
 21
20.159
  0
LINE
  8
0
 10
10.2185
 20
20.159
 11
10.1865
 21
20.1729
  0
LINE
  8
0
 10
10.1865
 20
20.1729
 11
10.1548
 21
20.1874
  0
LINE
  8
0
 10
10.1548
 20
20.1874
 11
10.1232
 21
20.2024
  0
LINE
  8
0
 10
10.1232
 20
20.2024
 11
10.092
 21
20.218
  0
LINE
  8
0
 10
10.092
 20
20.218
 11
10.0611
 21
20.2341
  0
LINE
  8
0
 10
10.0611
 20
20.2341
 11
10.0304
 21
20.2507
  0
LINE
  8
0
 10
10.0304
 20
20.2507
 11
10
 21
20.2679
  0
LINE
  8
0
 10
10
 20
20.2679
 11
9.96991
 21
20.2857
  0
LINE
  8
0
 10
9.96991
 20
20.2857
 11
9.94016
 21
20.3039
  0
LINE
  8
0
 10
9.94016
 20
20.3039
 11
9.91072
 21
20.3226
  0
LINE
  8
0
 10
9.91072
 20
20.3226
 11
9.88161
 21
20.3419
  0
LINE
  8
0
 10
9.88161
 20
20.3419
 11
9.85284
 21
20.3617
  0
LINE
  8
0
 10
9.85284
 20
20.3617
 11
9.82442
 21
20.382
  0
LINE
  8
0
 10
9.82442
 20
20.382
 11
9.79636
 21
20.4027
  0
LINE
  8
0
 10
9.79636
 20
20.4027
 11
9.76868
 21
20.424
  0
LINE
  8
0
 10
9.76868
 20
20.424
 11
9.74135
 21
20.4457
  0
LINE
  8
0
 10
9.74135
 20
20.4457
 11
9.71442
 21
20.4679
  0
LINE
  8
0
 10
9.71442
 20
20.4679
 11
9.68788
 21
20.4906
  0
LINE
  8
0
 10
9.68788
 20
20.4906
 11
9.66173
 21
20.5137
  0
LINE
  8
0
 10
9.66173
 20
20.5137
 11
9.636
 21
20.5373
  0
LINE
  8
0
 10
9.636
 20
20.5373
 11
9.61067
 21
20.5613
  0
LINE
  8
0
 10
9.61067
 20
20.5613
 11
9.58578
 21
20.5858
  0
LINE
  8
0
 10
9.58578
 20
20.5858
 11
9.56131
 21
20.6107
  0
LINE
  8
0
 10
9.56131
 20
20.6107
 11
9.53729
 21
20.636
  0
LINE
  8
0
 10
9.53729
 20
20.636
 11
9.5137
 21
20.6617
  0
LINE
  8
0
 10
9.5137
 20
20.6617
 11
9.49057
 21
20.6879
  0
LINE
  8
0
 10
9.49057
 20
20.6879
 11
9.46791
 21
20.7144
  0
LINE
  8
0
 10
9.46791
 20
20.7144
 11
9.44569
 21
20.7413
  0
LINE
  8
0
 10
9.44569
 20
20.7413
 11
9.42397
 21
20.7687
  0
LINE
  8
0
 10
9.42397
 20
20.7687
 11
9.40273
 21
20.7964
  0
LINE
  8
0
 10
9.40273
 20
20.7964
 11
9.38196
 21
20.8244
  0
LINE
  8
0
 10
9.38196
 20
20.8244
 11
9.36169
 21
20.8528
  0
LINE
  8
0
 10
9.36169
 20
20.8528
 11
9.34192
 21
20.8816
  0
LINE
  8
0
 10
9.34192
 20
20.8816
 11
9.32265
 21
20.9107
  0
LINE
  8
0
 10
9.32265
 20
20.9107
 11
9.30389
 21
20.9402
  0
LINE
  8
0
 10
9.30389
 20
20.9402
 11
9.28566
 21
20.9699
  0
LINE
  8
0
 10
9.28566
 20
20.9699
 11
9.26794
 21
21
  0
LINE
  8
0
 10
9.26794
 20
21
 11
9.25075
 21
21.0304
  0
LINE
  8
0
 10
9.25075
 20
21.0304
 11
9.2341
 21
21.0611
  0
LINE
  8
0
 10
9.2341
 20
21.0611
 11
9.21797
 21
21.092
  0
LINE
  8
0
 10
9.21797
 20
21.092
 11
9.20241
 21
21.1232
  0
LINE
  8
0
 10
9.20241
 20
21.1232
 11
9.18738
 21
21.1548
  0
LINE
  8
0
 10
9.18738
 20
21.1548
 11
9.1729
 21
21.1865
  0
LINE
  8
0
 10
9.1729
 20
21.1865
 11
9.15898
 21
21.2185
  0
LINE
  8
0
 10
9.15898
 20
21.2185
 11
9.14563
 21
21.2508
  0
LINE
  8
0
 10
9.14563
 20
21.2508
 11
9.13283
 21
21.2833
  0
LINE
  8
0
 10
9.13283
 20
21.2833
 11
9.12061
 21
21.3159
  0
LINE
  8
0
 10
9.12061
 20
21.3159
 11
9.10895
 21
21.3489
  0
LINE
  8
0
 10
9.10895
 20
21.3489
 11
9.09789
 21
21.382
  0
LINE
  8
0
 10
9.09789
 20
21.382
 11
9.08739
 21
21.4153
  0
LINE
  8
0
 10
9.08739
 20
21.4153
 11
9.07747
 21
21.4487
  0
LINE
  8
0
 10
9.07747
 20
21.4487
 11
9.06815
 21
21.4824
  0
LINE
  8
0
 10
9.06815
 20
21.4824
 11
9.0594
 21
21.5161
  0
LINE
  8
0
 10
9.0594
 20
21.5161
 11
9.05125
 21
21.5501
  0
LINE
  8
0
 10
9.05125
 20
21.5501
 11
9.0437
 21
21.5842
  0
LINE
  8
0
 10
9.0437
 20
21.5842
 11
9.03674
 21
21.6184
  0
LINE
  8
0
 10
9.03674
 20
21.6184
 11
9.03038
 21
21.6527
  0
LINE
  8
0
 10
9.03038
 20
21.6527
 11
9.02461
 21
21.6871
  0
LINE
  8
0
 10
9.02461
 20
21.6871
 11
9.01945
 21
21.7216
  0
LINE
  8
0
 10
9.01945
 20
21.7216
 11
9.01489
 21
21.7563
  0
LINE
  8
0
 10
9.01489
 20
21.7563
 11
9.01096
 21
21.7909
  0
LINE
  8
0
 10
9.01096
 20
21.7909
 11
9.0076
 21
21.8257
  0
LINE
  8
0
 10
9.0076
 20
21.8257
 11
9.00487
 21
21.8605
  0
LINE
  8
0
 10
9.00487
 20
21.8605
 11
9.00273
 21
21.8953
  0
LINE
  8
0
 10
9.00273
 20
21.8953
 11
9.00121
 21
21.9302
  0
LINE
  8
0
 10
9.00121
 20
21.9302
 11
9.00029
 21
21.9651
  0
LINE
  8
0
 10
9.00029
 20
21.9651
 11
9
 21
22
  0
LINE
  8
0
 10
9
 20
22
 11
9.00029
 21
22.0349
  0
LINE
  8
0
 10
9.00029
 20
22.0349
 11
9.00121
 21
22.0698
  0
LINE
  8
0
 10
9.00121
 20
22.0698
 11
9.00273
 21
22.1047
  0
LINE
  8
0
 10
9.00273
 20
22.1047
 11
9.00487
 21
22.1395
  0
LINE
  8
0
 10
9.00487
 20
22.1395
 11
9.0076
 21
22.1743
  0
LINE
  8
0
 10
9.0076
 20
22.1743
 11
9.01096
 21
22.209
  0
LINE
  8
0
 10
9.01096
 20
22.209
 11
9.01489
 21
22.2437
  0
LINE
  8
0
 10
9.01489
 20
22.2437
 11
9.01945
 21
22.2783
  0
LINE
  8
0
 10
9.01945
 20
22.2783
 11
9.02461
 21
22.3129
  0
LINE
  8
0
 10
9.02461
 20
22.3129
 11
9.03038
 21
22.3473
  0
LINE
  8
0
 10
9.03038
 20
22.3473
 11
9.03674
 21
22.3816
  0
LINE
  8
0
 10
9.03674
 20
22.3816
 11
9.0437
 21
22.4158
  0
LINE
  8
0
 10
9.0437
 20
22.4158
 11
9.05125
 21
22.4499
  0
LINE
  8
0
 10
9.05125
 20
22.4499
 11
9.0594
 21
22.4838
  0
LINE
  8
0
 10
9.0594
 20
22.4838
 11
9.06815
 21
22.5176
  0
LINE
  8
0
 10
9.06815
 20
22.5176
 11
9.07747
 21
22.5513
  0
LINE
  8
0
 10
9.07747
 20
22.5513
 11
9.08739
 21
22.5847
  0
LINE
  8
0
 10
9.08739
 20
22.5847
 11
9.09789
 21
22.618
  0
LINE
  8
0
 10
9.09789
 20
22.618
 11
9.10895
 21
22.6511
  0
LINE
  8
0
 10
9.10895
 20
22.6511
 11
9.12061
 21
22.684
  0
LINE
  8
0
 10
9.12061
 20
22.684
 11
9.13283
 21
22.7167
  0
LINE
  8
0
 10
9.13283
 20
22.7167
 11
9.14563
 21
22.7492
  0
LINE
  8
0
 10
9.14563
 20
22.7492
 11
9.15898
 21
22.7814
  0
LINE
  8
0
 10
9.15898
 20
22.7814
 11
9.1729
 21
22.8135
  0
LINE
  8
0
 10
9.1729
 20
22.8135
 11
9.18738
 21
22.8452
  0
LINE
  8
0
 10
9.18738
 20
22.8452
 11
9.20241
 21
22.8767
  0
LINE
  8
0
 10
9.20241
 20
22.8767
 11
9.21797
 21
22.908
  0
LINE
  8
0
 10
9.21797
 20
22.908
 11
9.2341
 21
22.9389
  0
LINE
  8
0
 10
9.2341
 20
22.9389
 11
9.25075
 21
22.9696
  0
LINE
  8
0
 10
9.25075
 20
22.9696
 11
9.26794
 21
23
  0
LINE
  8
0
 10
9.26794
 20
23
 11
9.28566
 21
23.0301
  0
LINE
  8
0
 10
9.28566
 20
23.0301
 11
9.30389
 21
23.0598
  0
LINE
  8
0
 10
9.30389
 20
23.0598
 11
9.32265
 21
23.0893
  0
LINE
  8
0
 10
9.32265
 20
23.0893
 11
9.34192
 21
23.1184
  0
LINE
  8
0
 10
9.34192
 20
23.1184
 11
9.36169
 21
23.1471
  0
LINE
  8
0
 10
9.36169
 20
23.1471
 11
9.38196
 21
23.1756
  0
LINE
  8
0
 10
9.38196
 20
23.1756
 11
9.40273
 21
23.2036
  0
LINE
  8
0
 10
9.40273
 20
23.2036
 11
9.42397
 21
23.2313
  0
LINE
  8
0
 10
9.42397
 20
23.2313
 11
9.44569
 21
23.2586
  0
LINE
  8
0
 10
9.44569
 20
23.2586
 11
9.46791
 21
23.2856
  0
LINE
  8
0
 10
9.46791
 20
23.2856
 11
9.49057
 21
23.3121
  0
LINE
  8
0
 10
9.49057
 20
23.3121
 11
9.5137
 21
23.3383
  0
LINE
  8
0
 10
9.5137
 20
23.3383
 11
9.53729
 21
23.364
  0
LINE
  8
0
 10
9.53729
 20
23.364
 11
9.56131
 21
23.3893
  0
LINE
  8
0
 10
9.56131
 20
23.3893
 11
9.58578
 21
23.4142
  0
LINE
  8
0
 10
9.58578
 20
23.4142
 11
9.61067
 21
23.4387
  0
LINE
  8
0
 10
9.61067
 20
23.4387
 11
9.636
 21
23.4627
  0
LINE
  8
0
 10
9.636
 20
23.4627
 11
9.66173
 21
23.4863
  0
LINE
  8
0
 10
9.66173
 20
23.4863
 11
9.68788
 21
23.5094
  0
LINE
  8
0
 10
9.68788
 20
23.5094
 11
9.71442
 21
23.5321
  0
LINE
  8
0
 10
9.71442
 20
23.5321
 11
9.74135
 21
23.5543
  0
LINE
  8
0
 10
9.74135
 20
23.5543
 11
9.76868
 21
23.576
  0
LINE
  8
0
 10
9.76868
 20
23.576
 11
9.79636
 21
23.5973
  0
LINE
  8
0
 10
9.79636
 20
23.5973
 11
9.82442
 21
23.618
  0
LINE
  8
0
 10
9.82442
 20
23.618
 11
9.85284
 21
23.6383
  0
LINE
  8
0
 10
9.85284
 20
23.6383
 11
9.88161
 21
23.6581
  0
LINE
  8
0
 10
9.88161
 20
23.6581
 11
9.91072
 21
23.6773
  0
LINE
  8
0
 10
9.91072
 20
23.6773
 11
9.94016
 21
23.6961
  0
LINE
  8
0
 10
9.94016
 20
23.6961
 11
9.96991
 21
23.7143
  0
LINE
  8
0
 10
9.96991
 20
23.7143
 11
10
 21
23.732
  0
LINE
  8
0
 10
10
 20
23.732
 11
10.0304
 21
23.7492
  0
LINE
  8
0
 10
10.0304
 20
23.7492
 11
10.0611
 21
23.7659
  0
LINE
  8
0
 10
10.0611
 20
23.7659
 11
10.092
 21
23.782
  0
LINE
  8
0
 10
10.092
 20
23.782
 11
10.1232
 21
23.7976
  0
LINE
  8
0
 10
10.1232
 20
23.7976
 11
10.1548
 21
23.8126
  0
LINE
  8
0
 10
10.1548
 20
23.8126
 11
10.1865
 21
23.8271
  0
LINE
  8
0
 10
10.1865
 20
23.8271
 11
10.2185
 21
23.841
  0
LINE
  8
0
 10
10.2185
 20
23.841
 11
10.2508
 21
23.8544
  0
LINE
  8
0
 10
10.2508
 20
23.8544
 11
10.2832
 21
23.8672
  0
LINE
  8
0
 10
10.2832
 20
23.8672
 11
10.3159
 21
23.8794
  0
LINE
  8
0
 10
10.3159
 20
23.8794
 11
10.3489
 21
23.891
  0
LINE
  8
0
 10
10.3489
 20
23.891
 11
10.382
 21
23.9021
  0
LINE
  8
0
 10
10.382
 20
23.9021
 11
10.4153
 21
23.9126
  0
LINE
  8
0
 10
10.4153
 20
23.9126
 11
10.4487
 21
23.9225
  0
LINE
  8
0
 10
10.4487
 20
23.9225
 11
10.4824
 21
23.9318
  0
LINE
  8
0
 10
10.4824
 20
23.9318
 11
10.5161
 21
23.9406
  0
LINE
  8
0
 10
10.5161
 20
23.9406
 11
10.5501
 21
23.9487
  0
LINE
  8
0
 10
10.5501
 20
23.9487
 11
10.5842
 21
23.9563
  0
LINE
  8
0
 10
10.5842
 20
23.9563
 11
10.6184
 21
23.9632
  0
LINE
  8
0
 10
10.6184
 20
23.9632
 11
10.6527
 21
23.9696
  0
LINE
  8
0
 10
10.6527
 20
23.9696
 11
10.6871
 21
23.9754
  0
LINE
  8
0
 10
10.6871
 20
23.9754
 11
10.7216
 21
23.9805
  0
LINE
  8
0
 10
10.7216
 20
23.9805
 11
10.7563
 21
23.9851
  0
LINE
  8
0
 10
10.7563
 20
23.9851
 11
10.7909
 21
23.989
  0
LINE
  8
0
 10
10.7909
 20
23.989
 11
10.8257
 21
23.9924
  0
LINE
  8
0
 10
10.8257
 20
23.9924
 11
10.8605
 21
23.9951
  0
LINE
  8
0
 10
10.8605
 20
23.9951
 11
10.8953
 21
23.9973
  0
LINE
  8
0
 10
10.8953
 20
23.9973
 11
10.9302
 21
23.9988
  0
LINE
  8
0
 10
10.9302
 20
23.9988
 11
10.9651
 21
23.9997
  0
LINE
  8
0
 10
10.9651
 20
23.9997
 11
11
 21
24
  0
LINE
  8
0
 10
11
 20
24
 11
11.0349
 21
23.9997
  0
LINE
  8
0
 10
11.0349
 20
23.9997
 11
11.0698
 21
23.9988
  0
LINE
  8
0
 10
11.0698
 20
23.9988
 11
11.1047
 21
23.9973
  0
LINE
  8
0
 10
11.1047
 20
23.9973
 11
11.1395
 21
23.9951
  0
LINE
  8
0
 10
11.1395
 20
23.9951
 11
11.1743
 21
23.9924
  0
LINE
  8
0
 10
11.1743
 20
23.9924
 11
11.209
 21
23.989
  0
LINE
  8
0
 10
11.209
 20
23.989
 11
11.2437
 21
23.9851
  0
LINE
  8
0
 10
11.2437
 20
23.9851
 11
11.2783
 21
23.9805
  0
LINE
  8
0
 10
11.2783
 20
23.9805
 11
11.3129
 21
23.9754
  0
LINE
  8
0
 10
11.3129
 20
23.9754
 11
11.3473
 21
23.9696
  0
LINE
  8
0
 10
11.3473
 20
23.9696
 11
11.3816
 21
23.9632
  0
LINE
  8
0
 10
11.3816
 20
23.9632
 11
11.4158
 21
23.9563
  0
LINE
  8
0
 10
11.4158
 20
23.9563
 11
11.4499
 21
23.9487
  0
LINE
  8
0
 10
11.4499
 20
23.9487
 11
11.4838
 21
23.9406
  0
LINE
  8
0
 10
11.4838
 20
23.9406
 11
11.5176
 21
23.9318
  0
LINE
  8
0
 10
11.5176
 20
23.9318
 11
11.5513
 21
23.9225
  0
LINE
  8
0
 10
11.5513
 20
23.9225
 11
11.5847
 21
23.9126
  0
LINE
  8
0
 10
11.5847
 20
23.9126
 11
11.618
 21
23.9021
  0
LINE
  8
0
 10
11.618
 20
23.9021
 11
11.6511
 21
23.891
  0
LINE
  8
0
 10
11.6511
 20
23.891
 11
11.684
 21
23.8794
  0
LINE
  8
0
 10
11.684
 20
23.8794
 11
11.7167
 21
23.8672
  0
LINE
  8
0
 10
11.7167
 20
23.8672
 11
11.7492
 21
23.8544
  0
LINE
  8
0
 10
11.7492
 20
23.8544
 11
11.7814
 21
23.841
  0
LINE
  8
0
 10
11.7814
 20
23.841
 11
11.8135
 21
23.8271
  0
LINE
  8
0
 10
11.8135
 20
23.8271
 11
11.8452
 21
23.8126
  0
LINE
  8
0
 10
11.8452
 20
23.8126
 11
11.8767
 21
23.7976
  0
LINE
  8
0
 10
11.8767
 20
23.7976
 11
11.908
 21
23.782
  0
LINE
  8
0
 10
11.908
 20
23.782
 11
11.9389
 21
23.7659
  0
LINE
  8
0
 10
11.9389
 20
23.7659
 11
11.9696
 21
23.7492
  0
LINE
  8
0
 10
11.9696
 20
23.7492
 11
12
 21
23.732
  0
LINE
  8
0
 10
12
 20
23.732
 11
12.0301
 21
23.7143
  0
LINE
  8
0
 10
12.0301
 20
23.7143
 11
12.0598
 21
23.6961
  0
LINE
  8
0
 10
12.0598
 20
23.6961
 11
12.0893
 21
23.6773
  0
LINE
  8
0
 10
12.0893
 20
23.6773
 11
12.1184
 21
23.6581
  0
LINE
  8
0
 10
12.1184
 20
23.6581
 11
12.1471
 21
23.6383
  0
LINE
  8
0
 10
12.1471
 20
23.6383
 11
12.1756
 21
23.618
  0
LINE
  8
0
 10
12.1756
 20
23.618
 11
12.2036
 21
23.5973
  0
LINE
  8
0
 10
12.2036
 20
23.5973
 11
12.2313
 21
23.576
  0
LINE
  8
0
 10
12.2313
 20
23.576
 11
12.2586
 21
23.5543
  0
LINE
  8
0
 10
12.2586
 20
23.5543
 11
12.2856
 21
23.5321
  0
LINE
  8
0
 10
12.2856
 20
23.5321
 11
12.3121
 21
23.5094
  0
LINE
  8
0
 10
12.3121
 20
23.5094
 11
12.3383
 21
23.4863
  0
LINE
  8
0
 10
12.3383
 20
23.4863
 11
12.364
 21
23.4627
  0
LINE
  8
0
 10
12.364
 20
23.4627
 11
12.3893
 21
23.4387
  0
LINE
  8
0
 10
12.3893
 20
23.4387
 11
12.4142
 21
23.4142
  0
LINE
  8
0
 10
12.4142
 20
23.4142
 11
12.4387
 21
23.3893
  0
LINE
  8
0
 10
12.4387
 20
23.3893
 11
12.4627
 21
23.364
  0
LINE
  8
0
 10
12.4627
 20
23.364
 11
12.4863
 21
23.3383
  0
LINE
  8
0
 10
12.4863
 20
23.3383
 11
12.5094
 21
23.3121
  0
LINE
  8
0
 10
12.5094
 20
23.3121
 11
12.5321
 21
23.2856
  0
LINE
  8
0
 10
12.5321
 20
23.2856
 11
12.5543
 21
23.2586
  0
LINE
  8
0
 10
12.5543
 20
23.2586
 11
12.576
 21
23.2313
  0
LINE
  8
0
 10
12.576
 20
23.2313
 11
12.5973
 21
23.2036
  0
LINE
  8
0
 10
12.5973
 20
23.2036
 11
12.618
 21
23.1756
  0
LINE
  8
0
 10
12.618
 20
23.1756
 11
12.6383
 21
23.1471
  0
LINE
  8
0
 10
12.6383
 20
23.1471
 11
12.6581
 21
23.1184
  0
LINE
  8
0
 10
12.6581
 20
23.1184
 11
12.6773
 21
23.0893
  0
LINE
  8
0
 10
12.6773
 20
23.0893
 11
12.6961
 21
23.0598
  0
LINE
  8
0
 10
12.6961
 20
23.0598
 11
12.7143
 21
23.0301
  0
LINE
  8
0
 10
12.7143
 20
23.0301
 11
12.732
 21
23
  0
LINE
  8
0
 10
12.732
 20
23
 11
12.7492
 21
22.9696
  0
LINE
  8
0
 10
12.7492
 20
22.9696
 11
12.7659
 21
22.9389
  0
LINE
  8
0
 10
12.7659
 20
22.9389
 11
12.782
 21
22.908
  0
LINE
  8
0
 10
12.782
 20
22.908
 11
12.7976
 21
22.8767
  0
LINE
  8
0
 10
12.7976
 20
22.8767
 11
12.8126
 21
22.8452
  0
LINE
  8
0
 10
12.8126
 20
22.8452
 11
12.8271
 21
22.8135
  0
LINE
  8
0
 10
12.8271
 20
22.8135
 11
12.841
 21
22.7814
  0
LINE
  8
0
 10
12.841
 20
22.7814
 11
12.8544
 21
22.7492
  0
LINE
  8
0
 10
12.8544
 20
22.7492
 11
12.8672
 21
22.7167
  0
LINE
  8
0
 10
12.8672
 20
22.7167
 11
12.8794
 21
22.684
  0
LINE
  8
0
 10
12.8794
 20
22.684
 11
12.891
 21
22.6511
  0
LINE
  8
0
 10
12.891
 20
22.6511
 11
12.9021
 21
22.618
  0
LINE
  8
0
 10
12.9021
 20
22.618
 11
12.9126
 21
22.5847
  0
LINE
  8
0
 10
12.9126
 20
22.5847
 11
12.9225
 21
22.5513
  0
LINE
  8
0
 10
12.9225
 20
22.5513
 11
12.9318
 21
22.5176
  0
LINE
  8
0
 10
12.9318
 20
22.5176
 11
12.9406
 21
22.4838
  0
LINE
  8
0
 10
12.9406
 20
22.4838
 11
12.9487
 21
22.4499
  0
LINE
  8
0
 10
12.9487
 20
22.4499
 11
12.9563
 21
22.4158
  0
LINE
  8
0
 10
12.9563
 20
22.4158
 11
12.9632
 21
22.3816
  0
LINE
  8
0
 10
12.9632
 20
22.3816
 11
12.9696
 21
22.3473
  0
LINE
  8
0
 10
12.9696
 20
22.3473
 11
12.9754
 21
22.3129
  0
LINE
  8
0
 10
12.9754
 20
22.3129
 11
12.9805
 21
22.2783
  0
LINE
  8
0
 10
12.9805
 20
22.2783
 11
12.9851
 21
22.2437
  0
LINE
  8
0
 10
12.9851
 20
22.2437
 11
12.989
 21
22.209
  0
LINE
  8
0
 10
12.989
 20
22.209
 11
12.9924
 21
22.1743
  0
LINE
  8
0
 10
12.9924
 20
22.1743
 11
12.9951
 21
22.1395
  0
LINE
  8
0
 10
12.9951
 20
22.1395
 11
12.9973
 21
22.1047
  0
LINE
  8
0
 10
12.9973
 20
22.1047
 11
12.9988
 21
22.0698
  0
LINE
  8
0
 10
12.9988
 20
22.0698
 11
12.9997
 21
22.0349
  0
LINE
  8
0
 10
12.9997
 20
22.0349
 11
13
 21
22
  0
LINE
  8
0
 10
13
 20
22
 11
12.9997
 21
21.9651
  0
LINE
  8
0
 10
12.9997
 20
21.9651
 11
12.9988
 21
21.9302
  0
LINE
  8
0
 10
12.9988
 20
21.9302
 11
12.9973
 21
21.8953
  0
LINE
  8
0
 10
12.9973
 20
21.8953
 11
12.9951
 21
21.8605
  0
LINE
  8
0
 10
12.9951
 20
21.8605
 11
12.9924
 21
21.8257
  0
LINE
  8
0
 10
12.9924
 20
21.8257
 11
12.989
 21
21.7909
  0
LINE
  8
0
 10
12.989
 20
21.7909
 11
12.9851
 21
21.7563
  0
LINE
  8
0
 10
12.9851
 20
21.7563
 11
12.9805
 21
21.7216
  0
LINE
  8
0
 10
12.9805
 20
21.7216
 11
12.9754
 21
21.6871
  0
LINE
  8
0
 10
12.9754
 20
21.6871
 11
12.9696
 21
21.6527
  0
LINE
  8
0
 10
12.9696
 20
21.6527
 11
12.9632
 21
21.6184
  0
LINE
  8
0
 10
12.9632
 20
21.6184
 11
12.9563
 21
21.5842
  0
LINE
  8
0
 10
12.9563
 20
21.5842
 11
12.9487
 21
21.5501
  0
LINE
  8
0
 10
12.9487
 20
21.5501
 11
12.9406
 21
21.5161
  0
LINE
  8
0
 10
12.9406
 20
21.5161
 11
12.9318
 21
21.4824
  0
LINE
  8
0
 10
12.9318
 20
21.4824
 11
12.9225
 21
21.4487
  0
LINE
  8
0
 10
12.9225
 20
21.4487
 11
12.9126
 21
21.4153
  0
LINE
  8
0
 10
12.9126
 20
21.4153
 11
12.9021
 21
21.382
  0
LINE
  8
0
 10
12.9021
 20
21.382
 11
12.891
 21
21.3489
  0
LINE
  8
0
 10
12.891
 20
21.3489
 11
12.8794
 21
21.3159
  0
LINE
  8
0
 10
12.8794
 20
21.3159
 11
12.8672
 21
21.2833
  0
LINE
  8
0
 10
12.8672
 20
21.2833
 11
12.8544
 21
21.2508
  0
LINE
  8
0
 10
12.8544
 20
21.2508
 11
12.841
 21
21.2185
  0
LINE
  8
0
 10
12.841
 20
21.2185
 11
12.8271
 21
21.1865
  0
LINE
  8
0
 10
12.8271
 20
21.1865
 11
12.8126
 21
21.1548
  0
LINE
  8
0
 10
12.8126
 20
21.1548
 11
12.7976
 21
21.1232
  0
LINE
  8
0
 10
12.7976
 20
21.1232
 11
12.782
 21
21.092
  0
LINE
  8
0
 10
12.782
 20
21.092
 11
12.7659
 21
21.0611
  0
LINE
  8
0
 10
12.7659
 20
21.0611
 11
12.7492
 21
21.0304
  0
LINE
  8
0
 10
12.7492
 20
21.0304
 11
12.732
 21
21
  0
LINE
  8
0
 10
12.732
 20
21
 11
12.7143
 21
20.9699
  0
LINE
  8
0
 10
12.7143
 20
20.9699
 11
12.6961
 21
20.9402
  0
LINE
  8
0
 10
12.6961
 20
20.9402
 11
12.6773
 21
20.9107
  0
LINE
  8
0
 10
12.6773
 20
20.9107
 11
12.6581
 21
20.8816
  0
LINE
  8
0
 10
12.6581
 20
20.8816
 11
12.6383
 21
20.8528
  0
LINE
  8
0
 10
12.6383
 20
20.8528
 11
12.618
 21
20.8244
  0
LINE
  8
0
 10
12.618
 20
20.8244
 11
12.5973
 21
20.7964
  0
LINE
  8
0
 10
12.5973
 20
20.7964
 11
12.576
 21
20.7687
  0
LINE
  8
0
 10
12.576
 20
20.7687
 11
12.5543
 21
20.7413
  0
LINE
  8
0
 10
12.5543
 20
20.7413
 11
12.5321
 21
20.7144
  0
LINE
  8
0
 10
12.5321
 20
20.7144
 11
12.5094
 21
20.6879
  0
LINE
  8
0
 10
12.5094
 20
20.6879
 11
12.4863
 21
20.6617
  0
LINE
  8
0
 10
12.4863
 20
20.6617
 11
12.4627
 21
20.636
  0
LINE
  8
0
 10
12.4627
 20
20.636
 11
12.4387
 21
20.6107
  0
LINE
  8
0
 10
12.4387
 20
20.6107
 11
12.4142
 21
20.5858
  0
LINE
  8
0
 10
12.4142
 20
20.5858
 11
12.3893
 21
20.5613
  0
LINE
  8
0
 10
12.3893
 20
20.5613
 11
12.364
 21
20.5373
  0
LINE
  8
0
 10
12.364
 20
20.5373
 11
12.3383
 21
20.5137
  0
LINE
  8
0
 10
12.3383
 20
20.5137
 11
12.3121
 21
20.4906
  0
LINE
  8
0
 10
12.3121
 20
20.4906
 11
12.2856
 21
20.4679
  0
LINE
  8
0
 10
12.2856
 20
20.4679
 11
12.2586
 21
20.4457
  0
LINE
  8
0
 10
12.2586
 20
20.4457
 11
12.2313
 21
20.424
  0
LINE
  8
0
 10
12.2313
 20
20.424
 11
12.2036
 21
20.4027
  0
LINE
  8
0
 10
12.2036
 20
20.4027
 11
12.1756
 21
20.382
  0
LINE
  8
0
 10
12.1756
 20
20.382
 11
12.1471
 21
20.3617
  0
LINE
  8
0
 10
12.1471
 20
20.3617
 11
12.1184
 21
20.3419
  0
LINE
  8
0
 10
12.1184
 20
20.3419
 11
12.0893
 21
20.3226
  0
LINE
  8
0
 10
12.0893
 20
20.3226
 11
12.0598
 21
20.3039
  0
LINE
  8
0
 10
12.0598
 20
20.3039
 11
12.0301
 21
20.2857
  0
LINE
  8
0
 10
12.0301
 20
20.2857
 11
12
 21
20.2679
  0
LINE
  8
0
 10
12
 20
20.2679
 11
11.9696
 21
20.2507
  0
LINE
  8
0
 10
11.9696
 20
20.2507
 11
11.9389
 21
20.2341
  0
LINE
  8
0
 10
11.9389
 20
20.2341
 11
11.908
 21
20.218
  0
LINE
  8
0
 10
11.908
 20
20.218
 11
11.8767
 21
20.2024
  0
LINE
  8
0
 10
11.8767
 20
20.2024
 11
11.8452
 21
20.1874
  0
LINE
  8
0
 10
11.8452
 20
20.1874
 11
11.8135
 21
20.1729
  0
LINE
  8
0
 10
11.8135
 20
20.1729
 11
11.7814
 21
20.159
  0
LINE
  8
0
 10
11.7814
 20
20.159
 11
11.7492
 21
20.1456
  0
LINE
  8
0
 10
11.7492
 20
20.1456
 11
11.7167
 21
20.1328
  0
LINE
  8
0
 10
11.7167
 20
20.1328
 11
11.684
 21
20.1206
  0
LINE
  8
0
 10
11.684
 20
20.1206
 11
11.6511
 21
20.109
  0
LINE
  8
0
 10
11.6511
 20
20.109
 11
11.618
 21
20.0979
  0
LINE
  8
0
 10
11.618
 20
20.0979
 11
11.5847
 21
20.0874
  0
LINE
  8
0
 10
11.5847
 20
20.0874
 11
11.5513
 21
20.0775
  0
LINE
  8
0
 10
11.5513
 20
20.0775
 11
11.5176
 21
20.0681
  0
LINE
  8
0
 10
11.5176
 20
20.0681
 11
11.4838
 21
20.0594
  0
LINE
  8
0
 10
11.4838
 20
20.0594
 11
11.4499
 21
20.0513
  0
LINE
  8
0
 10
11.4499
 20
20.0513
 11
11.4158
 21
20.0437
  0
LINE
  8
0
 10
11.4158
 20
20.0437
 11
11.3816
 21
20.0367
  0
LINE
  8
0
 10
11.3816
 20
20.0367
 11
11.3473
 21
20.0304
  0
LINE
  8
0
 10
11.3473
 20
20.0304
 11
11.3129
 21
20.0246
  0
LINE
  8
0
 10
11.3129
 20
20.0246
 11
11.2783
 21
20.0195
  0
LINE
  8
0
 10
11.2783
 20
20.0195
 11
11.2437
 21
20.0149
  0
LINE
  8
0
 10
11.2437
 20
20.0149
 11
11.209
 21
20.011
  0
LINE
  8
0
 10
11.209
 20
20.011
 11
11.1743
 21
20.0076
  0
LINE
  8
0
 10
11.1743
 20
20.0076
 11
11.1395
 21
20.0049
  0
LINE
  8
0
 10
11.1395
 20
20.0049
 11
11.1047
 21
20.0027
  0
LINE
  8
0
 10
11.1047
 20
20.0027
 11
11.0698
 21
20.0012
  0
LINE
  8
0
 10
11.0698
 20
20.0012
 11
11.0349
 21
20.0003
  0
LINE
  8
0
 10
11.0349
 20
20.0003
 11
11
 21
20
  0
LINE
  8
0
 10
11
 20
20
 11
10.9651
 21
20.0003
  0
LINE
  8
0
 10
72.9651
 20
20.0003
 11
72.9302
 21
20.0012
  0
LINE
  8
0
 10
72.9302
 20
20.0012
 11
72.8953
 21
20.0027
  0
LINE
  8
0
 10
72.8953
 20
20.0027
 11
72.8605
 21
20.0049
  0
LINE
  8
0
 10
72.8605
 20
20.0049
 11
72.8257
 21
20.0076
  0
LINE
  8
0
 10
72.8257
 20
20.0076
 11
72.7909
 21
20.011
  0
LINE
  8
0
 10
72.7909
 20
20.011
 11
72.7563
 21
20.0149
  0
LINE
  8
0
 10
72.7563
 20
20.0149
 11
72.7216
 21
20.0195
  0
LINE
  8
0
 10
72.7216
 20
20.0195
 11
72.6871
 21
20.0246
  0
LINE
  8
0
 10
72.6871
 20
20.0246
 11
72.6527
 21
20.0304
  0
LINE
  8
0
 10
72.6527
 20
20.0304
 11
72.6184
 21
20.0367
  0
LINE
  8
0
 10
72.6184
 20
20.0367
 11
72.5842
 21
20.0437
  0
LINE
  8
0
 10
72.5842
 20
20.0437
 11
72.5501
 21
20.0513
  0
LINE
  8
0
 10
72.5501
 20
20.0513
 11
72.5162
 21
20.0594
  0
LINE
  8
0
 10
72.5162
 20
20.0594
 11
72.4824
 21
20.0681
  0
LINE
  8
0
 10
72.4824
 20
20.0681
 11
72.4487
 21
20.0775
  0
LINE
  8
0
 10
72.4487
 20
20.0775
 11
72.4153
 21
20.0874
  0
LINE
  8
0
 10
72.4153
 20
20.0874
 11
72.382
 21
20.0979
  0
LINE
  8
0
 10
72.382
 20
20.0979
 11
72.3489
 21
20.109
  0
LINE
  8
0
 10
72.3489
 20
20.109
 11
72.3159
 21
20.1206
  0
LINE
  8
0
 10
72.3159
 20
20.1206
 11
72.2833
 21
20.1328
  0
LINE
  8
0
 10
72.2833
 20
20.1328
 11
72.2508
 21
20.1456
  0
LINE
  8
0
 10
72.2508
 20
20.1456
 11
72.2185
 21
20.159
  0
LINE
  8
0
 10
72.2185
 20
20.159
 11
72.1865
 21
20.1729
  0
LINE
  8
0
 10
72.1865
 20
20.1729
 11
72.1548
 21
20.1874
  0
LINE
  8
0
 10
72.1548
 20
20.1874
 11
72.1233
 21
20.2024
  0
LINE
  8
0
 10
72.1233
 20
20.2024
 11
72.092
 21
20.218
  0
LINE
  8
0
 10
72.092
 20
20.218
 11
72.0611
 21
20.2341
  0
LINE
  8
0
 10
72.0611
 20
20.2341
 11
72.0304
 21
20.2507
  0
LINE
  8
0
 10
72.0304
 20
20.2507
 11
72
 21
20.2679
  0
LINE
  8
0
 10
72
 20
20.2679
 11
71.9699
 21
20.2857
  0
LINE
  8
0
 10
71.9699
 20
20.2857
 11
71.9402
 21
20.3039
  0
LINE
  8
0
 10
71.9402
 20
20.3039
 11
71.9107
 21
20.3226
  0
LINE
  8
0
 10
71.9107
 20
20.3226
 11
71.8816
 21
20.3419
  0
LINE
  8
0
 10
71.8816
 20
20.3419
 11
71.8528
 21
20.3617
  0
LINE
  8
0
 10
71.8528
 20
20.3617
 11
71.8244
 21
20.382
  0
LINE
  8
0
 10
71.8244
 20
20.382
 11
71.7964
 21
20.4027
  0
LINE
  8
0
 10
71.7964
 20
20.4027
 11
71.7687
 21
20.424
  0
LINE
  8
0
 10
71.7687
 20
20.424
 11
71.7413
 21
20.4457
  0
LINE
  8
0
 10
71.7413
 20
20.4457
 11
71.7144
 21
20.4679
  0
LINE
  8
0
 10
71.7144
 20
20.4679
 11
71.6879
 21
20.4906
  0
LINE
  8
0
 10
71.6879
 20
20.4906
 11
71.6617
 21
20.5137
  0
LINE
  8
0
 10
71.6617
 20
20.5137
 11
71.636
 21
20.5373
  0
LINE
  8
0
 10
71.636
 20
20.5373
 11
71.6107
 21
20.5613
  0
LINE
  8
0
 10
71.6107
 20
20.5613
 11
71.5858
 21
20.5858
  0
LINE
  8
0
 10
71.5858
 20
20.5858
 11
71.5613
 21
20.6107
  0
LINE
  8
0
 10
71.5613
 20
20.6107
 11
71.5373
 21
20.636
  0
LINE
  8
0
 10
71.5373
 20
20.636
 11
71.5137
 21
20.6617
  0
LINE
  8
0
 10
71.5137
 20
20.6617
 11
71.4906
 21
20.6879
  0
LINE
  8
0
 10
71.4906
 20
20.6879
 11
71.4679
 21
20.7144
  0
LINE
  8
0
 10
71.4679
 20
20.7144
 11
71.4457
 21
20.7413
  0
LINE
  8
0
 10
71.4457
 20
20.7413
 11
71.424
 21
20.7687
  0
LINE
  8
0
 10
71.424
 20
20.7687
 11
71.4027
 21
20.7964
  0
LINE
  8
0
 10
71.4027
 20
20.7964
 11
71.382
 21
20.8244
  0
LINE
  8
0
 10
71.382
 20
20.8244
 11
71.3617
 21
20.8528
  0
LINE
  8
0
 10
71.3617
 20
20.8528
 11
71.3419
 21
20.8816
  0
LINE
  8
0
 10
71.3419
 20
20.8816
 11
71.3227
 21
20.9107
  0
LINE
  8
0
 10
71.3227
 20
20.9107
 11
71.3039
 21
20.9402
  0
LINE
  8
0
 10
71.3039
 20
20.9402
 11
71.2857
 21
20.9699
  0
LINE
  8
0
 10
71.2857
 20
20.9699
 11
71.2679
 21
21
  0
LINE
  8
0
 10
71.2679
 20
21
 11
71.2508
 21
21.0304
  0
LINE
  8
0
 10
71.2508
 20
21.0304
 11
71.2341
 21
21.0611
  0
LINE
  8
0
 10
71.2341
 20
21.0611
 11
71.218
 21
21.092
  0
LINE
  8
0
 10
71.218
 20
21.092
 11
71.2024
 21
21.1232
  0
LINE
  8
0
 10
71.2024
 20
21.1232
 11
71.1874
 21
21.1548
  0
LINE
  8
0
 10
71.1874
 20
21.1548
 11
71.1729
 21
21.1865
  0
LINE
  8
0
 10
71.1729
 20
21.1865
 11
71.159
 21
21.2185
  0
LINE
  8
0
 10
71.159
 20
21.2185
 11
71.1456
 21
21.2508
  0
LINE
  8
0
 10
71.1456
 20
21.2508
 11
71.1328
 21
21.2833
  0
LINE
  8
0
 10
71.1328
 20
21.2833
 11
71.1206
 21
21.3159
  0
LINE
  8
0
 10
71.1206
 20
21.3159
 11
71.109
 21
21.3489
  0
LINE
  8
0
 10
71.109
 20
21.3489
 11
71.0979
 21
21.382
  0
LINE
  8
0
 10
71.0979
 20
21.382
 11
71.0874
 21
21.4153
  0
LINE
  8
0
 10
71.0874
 20
21.4153
 11
71.0775
 21
21.4487
  0
LINE
  8
0
 10
71.0775
 20
21.4487
 11
71.0681
 21
21.4824
  0
LINE
  8
0
 10
71.0681
 20
21.4824
 11
71.0594
 21
21.5161
  0
LINE
  8
0
 10
71.0594
 20
21.5161
 11
71.0513
 21
21.5501
  0
LINE
  8
0
 10
71.0513
 20
21.5501
 11
71.0437
 21
21.5842
  0
LINE
  8
0
 10
71.0437
 20
21.5842
 11
71.0367
 21
21.6184
  0
LINE
  8
0
 10
71.0367
 20
21.6184
 11
71.0304
 21
21.6527
  0
LINE
  8
0
 10
71.0304
 20
21.6527
 11
71.0246
 21
21.6871
  0
LINE
  8
0
 10
71.0246
 20
21.6871
 11
71.0195
 21
21.7216
  0
LINE
  8
0
 10
71.0195
 20
21.7216
 11
71.0149
 21
21.7563
  0
LINE
  8
0
 10
71.0149
 20
21.7563
 11
71.011
 21
21.7909
  0
LINE
  8
0
 10
71.011
 20
21.7909
 11
71.0076
 21
21.8257
  0
LINE
  8
0
 10
71.0076
 20
21.8257
 11
71.0049
 21
21.8605
  0
LINE
  8
0
 10
71.0049
 20
21.8605
 11
71.0027
 21
21.8953
  0
LINE
  8
0
 10
71.0027
 20
21.8953
 11
71.0012
 21
21.9302
  0
LINE
  8
0
 10
71.0012
 20
21.9302
 11
71.0003
 21
21.9651
  0
LINE
  8
0
 10
71.0003
 20
21.9651
 11
71
 21
22
  0
LINE
  8
0
 10
71
 20
22
 11
71.0003
 21
22.0349
  0
LINE
  8
0
 10
71.0003
 20
22.0349
 11
71.0012
 21
22.0698
  0
LINE
  8
0
 10
71.0012
 20
22.0698
 11
71.0027
 21
22.1047
  0
LINE
  8
0
 10
71.0027
 20
22.1047
 11
71.0049
 21
22.1395
  0
LINE
  8
0
 10
71.0049
 20
22.1395
 11
71.0076
 21
22.1743
  0
LINE
  8
0
 10
71.0076
 20
22.1743
 11
71.011
 21
22.209
  0
LINE
  8
0
 10
71.011
 20
22.209
 11
71.0149
 21
22.2437
  0
LINE
  8
0
 10
71.0149
 20
22.2437
 11
71.0195
 21
22.2783
  0
LINE
  8
0
 10
71.0195
 20
22.2783
 11
71.0246
 21
22.3129
  0
LINE
  8
0
 10
71.0246
 20
22.3129
 11
71.0304
 21
22.3473
  0
LINE
  8
0
 10
71.0304
 20
22.3473
 11
71.0367
 21
22.3816
  0
LINE
  8
0
 10
71.0367
 20
22.3816
 11
71.0437
 21
22.4158
  0
LINE
  8
0
 10
71.0437
 20
22.4158
 11
71.0513
 21
22.4499
  0
LINE
  8
0
 10
71.0513
 20
22.4499
 11
71.0594
 21
22.4838
  0
LINE
  8
0
 10
71.0594
 20
22.4838
 11
71.0681
 21
22.5176
  0
LINE
  8
0
 10
71.0681
 20
22.5176
 11
71.0775
 21
22.5513
  0
LINE
  8
0
 10
71.0775
 20
22.5513
 11
71.0874
 21
22.5847
  0
LINE
  8
0
 10
71.0874
 20
22.5847
 11
71.0979
 21
22.618
  0
LINE
  8
0
 10
71.0979
 20
22.618
 11
71.109
 21
22.6511
  0
LINE
  8
0
 10
71.109
 20
22.6511
 11
71.1206
 21
22.684
  0
LINE
  8
0
 10
71.1206
 20
22.684
 11
71.1328
 21
22.7167
  0
LINE
  8
0
 10
71.1328
 20
22.7167
 11
71.1456
 21
22.7492
  0
LINE
  8
0
 10
71.1456
 20
22.7492
 11
71.159
 21
22.7814
  0
LINE
  8
0
 10
71.159
 20
22.7814
 11
71.1729
 21
22.8135
  0
LINE
  8
0
 10
71.1729
 20
22.8135
 11
71.1874
 21
22.8452
  0
LINE
  8
0
 10
71.1874
 20
22.8452
 11
71.2024
 21
22.8767
  0
LINE
  8
0
 10
71.2024
 20
22.8767
 11
71.218
 21
22.908
  0
LINE
  8
0
 10
71.218
 20
22.908
 11
71.2341
 21
22.9389
  0
LINE
  8
0
 10
71.2341
 20
22.9389
 11
71.2508
 21
22.9696
  0
LINE
  8
0
 10
71.2508
 20
22.9696
 11
71.2679
 21
23
  0
LINE
  8
0
 10
71.2679
 20
23
 11
71.2857
 21
23.0301
  0
LINE
  8
0
 10
71.2857
 20
23.0301
 11
71.3039
 21
23.0598
  0
LINE
  8
0
 10
71.3039
 20
23.0598
 11
71.3227
 21
23.0893
  0
LINE
  8
0
 10
71.3227
 20
23.0893
 11
71.3419
 21
23.1184
  0
LINE
  8
0
 10
71.3419
 20
23.1184
 11
71.3617
 21
23.1471
  0
LINE
  8
0
 10
71.3617
 20
23.1471
 11
71.382
 21
23.1756
  0
LINE
  8
0
 10
71.382
 20
23.1756
 11
71.4027
 21
23.2036
  0
LINE
  8
0
 10
71.4027
 20
23.2036
 11
71.424
 21
23.2313
  0
LINE
  8
0
 10
71.424
 20
23.2313
 11
71.4457
 21
23.2586
  0
LINE
  8
0
 10
71.4457
 20
23.2586
 11
71.4679
 21
23.2856
  0
LINE
  8
0
 10
71.4679
 20
23.2856
 11
71.4906
 21
23.3121
  0
LINE
  8
0
 10
71.4906
 20
23.3121
 11
71.5137
 21
23.3383
  0
LINE
  8
0
 10
71.5137
 20
23.3383
 11
71.5373
 21
23.364
  0
LINE
  8
0
 10
71.5373
 20
23.364
 11
71.5613
 21
23.3893
  0
LINE
  8
0
 10
71.5613
 20
23.3893
 11
71.5858
 21
23.4142
  0
LINE
  8
0
 10
71.5858
 20
23.4142
 11
71.6107
 21
23.4387
  0
LINE
  8
0
 10
71.6107
 20
23.4387
 11
71.636
 21
23.4627
  0
LINE
  8
0
 10
71.636
 20
23.4627
 11
71.6617
 21
23.4863
  0
LINE
  8
0
 10
71.6617
 20
23.4863
 11
71.6879
 21
23.5094
  0
LINE
  8
0
 10
71.6879
 20
23.5094
 11
71.7144
 21
23.5321
  0
LINE
  8
0
 10
71.7144
 20
23.5321
 11
71.7413
 21
23.5543
  0
LINE
  8
0
 10
71.7413
 20
23.5543
 11
71.7687
 21
23.576
  0
LINE
  8
0
 10
71.7687
 20
23.576
 11
71.7964
 21
23.5973
  0
LINE
  8
0
 10
71.7964
 20
23.5973
 11
71.8244
 21
23.618
  0
LINE
  8
0
 10
71.8244
 20
23.618
 11
71.8528
 21
23.6383
  0
LINE
  8
0
 10
71.8528
 20
23.6383
 11
71.8816
 21
23.6581
  0
LINE
  8
0
 10
71.8816
 20
23.6581
 11
71.9107
 21
23.6773
  0
LINE
  8
0
 10
71.9107
 20
23.6773
 11
71.9402
 21
23.6961
  0
LINE
  8
0
 10
71.9402
 20
23.6961
 11
71.9699
 21
23.7143
  0
LINE
  8
0
 10
71.9699
 20
23.7143
 11
72
 21
23.732
  0
LINE
  8
0
 10
72
 20
23.732
 11
72.0304
 21
23.7492
  0
LINE
  8
0
 10
72.0304
 20
23.7492
 11
72.0611
 21
23.7659
  0
LINE
  8
0
 10
72.0611
 20
23.7659
 11
72.092
 21
23.782
  0
LINE
  8
0
 10
72.092
 20
23.782
 11
72.1233
 21
23.7976
  0
LINE
  8
0
 10
72.1233
 20
23.7976
 11
72.1548
 21
23.8126
  0
LINE
  8
0
 10
72.1548
 20
23.8126
 11
72.1865
 21
23.8271
  0
LINE
  8
0
 10
72.1865
 20
23.8271
 11
72.2185
 21
23.841
  0
LINE
  8
0
 10
72.2185
 20
23.841
 11
72.2508
 21
23.8544
  0
LINE
  8
0
 10
72.2508
 20
23.8544
 11
72.2833
 21
23.8672
  0
LINE
  8
0
 10
72.2833
 20
23.8672
 11
72.3159
 21
23.8794
  0
LINE
  8
0
 10
72.3159
 20
23.8794
 11
72.3489
 21
23.891
  0
LINE
  8
0
 10
72.3489
 20
23.891
 11
72.382
 21
23.9021
  0
LINE
  8
0
 10
72.382
 20
23.9021
 11
72.4153
 21
23.9126
  0
LINE
  8
0
 10
72.4153
 20
23.9126
 11
72.4487
 21
23.9225
  0
LINE
  8
0
 10
72.4487
 20
23.9225
 11
72.4824
 21
23.9318
  0
LINE
  8
0
 10
72.4824
 20
23.9318
 11
72.5162
 21
23.9406
  0
LINE
  8
0
 10
72.5162
 20
23.9406
 11
72.5501
 21
23.9487
  0
LINE
  8
0
 10
72.5501
 20
23.9487
 11
72.5842
 21
23.9563
  0
LINE
  8
0
 10
72.5842
 20
23.9563
 11
72.6184
 21
23.9632
  0
LINE
  8
0
 10
72.6184
 20
23.9632
 11
72.6527
 21
23.9696
  0
LINE
  8
0
 10
72.6527
 20
23.9696
 11
72.6871
 21
23.9754
  0
LINE
  8
0
 10
72.6871
 20
23.9754
 11
72.7216
 21
23.9805
  0
LINE
  8
0
 10
72.7216
 20
23.9805
 11
72.7563
 21
23.9851
  0
LINE
  8
0
 10
72.7563
 20
23.9851
 11
72.7909
 21
23.989
  0
LINE
  8
0
 10
72.7909
 20
23.989
 11
72.8257
 21
23.9924
  0
LINE
  8
0
 10
72.8257
 20
23.9924
 11
72.8605
 21
23.9951
  0
LINE
  8
0
 10
72.8605
 20
23.9951
 11
72.8953
 21
23.9973
  0
LINE
  8
0
 10
72.8953
 20
23.9973
 11
72.9302
 21
23.9988
  0
LINE
  8
0
 10
72.9302
 20
23.9988
 11
72.9651
 21
23.9997
  0
LINE
  8
0
 10
72.9651
 20
23.9997
 11
73
 21
24
  0
LINE
  8
0
 10
73
 20
24
 11
73.0349
 21
23.9997
  0
LINE
  8
0
 10
73.0349
 20
23.9997
 11
73.0698
 21
23.9988
  0
LINE
  8
0
 10
73.0698
 20
23.9988
 11
73.1047
 21
23.9973
  0
LINE
  8
0
 10
73.1047
 20
23.9973
 11
73.1395
 21
23.9951
  0
LINE
  8
0
 10
73.1395
 20
23.9951
 11
73.1743
 21
23.9924
  0
LINE
  8
0
 10
73.1743
 20
23.9924
 11
73.2091
 21
23.989
  0
LINE
  8
0
 10
73.2091
 20
23.989
 11
73.2437
 21
23.9851
  0
LINE
  8
0
 10
73.2437
 20
23.9851
 11
73.2783
 21
23.9805
  0
LINE
  8
0
 10
73.2783
 20
23.9805
 11
73.3129
 21
23.9754
  0
LINE
  8
0
 10
73.3129
 20
23.9754
 11
73.3473
 21
23.9696
  0
LINE
  8
0
 10
73.3473
 20
23.9696
 11
73.3816
 21
23.9632
  0
LINE
  8
0
 10
73.3816
 20
23.9632
 11
73.4158
 21
23.9563
  0
LINE
  8
0
 10
73.4158
 20
23.9563
 11
73.4499
 21
23.9487
  0
LINE
  8
0
 10
73.4499
 20
23.9487
 11
73.4838
 21
23.9406
  0
LINE
  8
0
 10
73.4838
 20
23.9406
 11
73.5176
 21
23.9318
  0
LINE
  8
0
 10
73.5176
 20
23.9318
 11
73.5513
 21
23.9225
  0
LINE
  8
0
 10
73.5513
 20
23.9225
 11
73.5847
 21
23.9126
  0
LINE
  8
0
 10
73.5847
 20
23.9126
 11
73.618
 21
23.9021
  0
LINE
  8
0
 10
73.618
 20
23.9021
 11
73.6511
 21
23.891
  0
LINE
  8
0
 10
73.6511
 20
23.891
 11
73.684
 21
23.8794
  0
LINE
  8
0
 10
73.684
 20
23.8794
 11
73.7167
 21
23.8672
  0
LINE
  8
0
 10
73.7167
 20
23.8672
 11
73.7492
 21
23.8544
  0
LINE
  8
0
 10
73.7492
 20
23.8544
 11
73.7815
 21
23.841
  0
LINE
  8
0
 10
73.7815
 20
23.841
 11
73.8135
 21
23.8271
  0
LINE
  8
0
 10
73.8135
 20
23.8271
 11
73.8452
 21
23.8126
  0
LINE
  8
0
 10
73.8452
 20
23.8126
 11
73.8767
 21
23.7976
  0
LINE
  8
0
 10
73.8767
 20
23.7976
 11
73.908
 21
23.782
  0
LINE
  8
0
 10
73.908
 20
23.782
 11
73.9389
 21
23.7659
  0
LINE
  8
0
 10
73.9389
 20
23.7659
 11
73.9696
 21
23.7492
  0
LINE
  8
0
 10
73.9696
 20
23.7492
 11
74
 21
23.732
  0
LINE
  8
0
 10
74
 20
23.732
 11
74.0301
 21
23.7143
  0
LINE
  8
0
 10
74.0301
 20
23.7143
 11
74.0598
 21
23.6961
  0
LINE
  8
0
 10
74.0598
 20
23.6961
 11
74.0893
 21
23.6773
  0
LINE
  8
0
 10
74.0893
 20
23.6773
 11
74.1184
 21
23.6581
  0
LINE
  8
0
 10
74.1184
 20
23.6581
 11
74.1472
 21
23.6383
  0
LINE
  8
0
 10
74.1472
 20
23.6383
 11
74.1756
 21
23.618
  0
LINE
  8
0
 10
74.1756
 20
23.618
 11
74.2036
 21
23.5973
  0
LINE
  8
0
 10
74.2036
 20
23.5973
 11
74.2313
 21
23.576
  0
LINE
  8
0
 10
74.2313
 20
23.576
 11
74.2586
 21
23.5543
  0
LINE
  8
0
 10
74.2586
 20
23.5543
 11
74.2856
 21
23.5321
  0
LINE
  8
0
 10
74.2856
 20
23.5321
 11
74.3121
 21
23.5094
  0
LINE
  8
0
 10
74.3121
 20
23.5094
 11
74.3383
 21
23.4863
  0
LINE
  8
0
 10
74.3383
 20
23.4863
 11
74.364
 21
23.4627
  0
LINE
  8
0
 10
74.364
 20
23.4627
 11
74.3893
 21
23.4387
  0
LINE
  8
0
 10
74.3893
 20
23.4387
 11
74.4142
 21
23.4142
  0
LINE
  8
0
 10
74.4142
 20
23.4142
 11
74.4387
 21
23.3893
  0
LINE
  8
0
 10
74.4387
 20
23.3893
 11
74.4627
 21
23.364
  0
LINE
  8
0
 10
74.4627
 20
23.364
 11
74.4863
 21
23.3383
  0
LINE
  8
0
 10
74.4863
 20
23.3383
 11
74.5094
 21
23.3121
  0
LINE
  8
0
 10
74.5094
 20
23.3121
 11
74.5321
 21
23.2856
  0
LINE
  8
0
 10
74.5321
 20
23.2856
 11
74.5543
 21
23.2586
  0
LINE
  8
0
 10
74.5543
 20
23.2586
 11
74.576
 21
23.2313
  0
LINE
  8
0
 10
74.576
 20
23.2313
 11
74.5973
 21
23.2036
  0
LINE
  8
0
 10
74.5973
 20
23.2036
 11
74.618
 21
23.1756
  0
LINE
  8
0
 10
74.618
 20
23.1756
 11
74.6383
 21
23.1471
  0
LINE
  8
0
 10
74.6383
 20
23.1471
 11
74.6581
 21
23.1184
  0
LINE
  8
0
 10
74.6581
 20
23.1184
 11
74.6773
 21
23.0893
  0
LINE
  8
0
 10
74.6773
 20
23.0893
 11
74.6961
 21
23.0598
  0
LINE
  8
0
 10
74.6961
 20
23.0598
 11
74.7143
 21
23.0301
  0
LINE
  8
0
 10
74.7143
 20
23.0301
 11
74.732
 21
23
  0
LINE
  8
0
 10
74.732
 20
23
 11
74.7492
 21
22.9696
  0
LINE
  8
0
 10
74.7492
 20
22.9696
 11
74.7659
 21
22.9389
  0
LINE
  8
0
 10
74.7659
 20
22.9389
 11
74.782
 21
22.908
  0
LINE
  8
0
 10
74.782
 20
22.908
 11
74.7976
 21
22.8767
  0
LINE
  8
0
 10
74.7976
 20
22.8767
 11
74.8126
 21
22.8452
  0
LINE
  8
0
 10
74.8126
 20
22.8452
 11
74.8271
 21
22.8135
  0
LINE
  8
0
 10
74.8271
 20
22.8135
 11
74.841
 21
22.7814
  0
LINE
  8
0
 10
74.841
 20
22.7814
 11
74.8544
 21
22.7492
  0
LINE
  8
0
 10
74.8544
 20
22.7492
 11
74.8672
 21
22.7167
  0
LINE
  8
0
 10
74.8672
 20
22.7167
 11
74.8794
 21
22.684
  0
LINE
  8
0
 10
74.8794
 20
22.684
 11
74.891
 21
22.6511
  0
LINE
  8
0
 10
74.891
 20
22.6511
 11
74.9021
 21
22.618
  0
LINE
  8
0
 10
74.9021
 20
22.618
 11
74.9126
 21
22.5847
  0
LINE
  8
0
 10
74.9126
 20
22.5847
 11
74.9225
 21
22.5513
  0
LINE
  8
0
 10
74.9225
 20
22.5513
 11
74.9319
 21
22.5176
  0
LINE
  8
0
 10
74.9319
 20
22.5176
 11
74.9406
 21
22.4838
  0
LINE
  8
0
 10
74.9406
 20
22.4838
 11
74.9487
 21
22.4499
  0
LINE
  8
0
 10
74.9487
 20
22.4499
 11
74.9563
 21
22.4158
  0
LINE
  8
0
 10
74.9563
 20
22.4158
 11
74.9633
 21
22.3816
  0
LINE
  8
0
 10
74.9633
 20
22.3816
 11
74.9696
 21
22.3473
  0
LINE
  8
0
 10
74.9696
 20
22.3473
 11
74.9754
 21
22.3129
  0
LINE
  8
0
 10
74.9754
 20
22.3129
 11
74.9805
 21
22.2783
  0
LINE
  8
0
 10
74.9805
 20
22.2783
 11
74.9851
 21
22.2437
  0
LINE
  8
0
 10
74.9851
 20
22.2437
 11
74.989
 21
22.209
  0
LINE
  8
0
 10
74.989
 20
22.209
 11
74.9924
 21
22.1743
  0
LINE
  8
0
 10
74.9924
 20
22.1743
 11
74.9951
 21
22.1395
  0
LINE
  8
0
 10
74.9951
 20
22.1395
 11
74.9973
 21
22.1047
  0
LINE
  8
0
 10
74.9973
 20
22.1047
 11
74.9988
 21
22.0698
  0
LINE
  8
0
 10
74.9988
 20
22.0698
 11
74.9997
 21
22.0349
  0
LINE
  8
0
 10
74.9997
 20
22.0349
 11
75
 21
22
  0
LINE
  8
0
 10
75
 20
22
 11
74.9997
 21
21.9651
  0
LINE
  8
0
 10
74.9997
 20
21.9651
 11
74.9988
 21
21.9302
  0
LINE
  8
0
 10
74.9988
 20
21.9302
 11
74.9973
 21
21.8953
  0
LINE
  8
0
 10
74.9973
 20
21.8953
 11
74.9951
 21
21.8605
  0
LINE
  8
0
 10
74.9951
 20
21.8605
 11
74.9924
 21
21.8257
  0
LINE
  8
0
 10
74.9924
 20
21.8257
 11
74.989
 21
21.7909
  0
LINE
  8
0
 10
74.989
 20
21.7909
 11
74.9851
 21
21.7563
  0
LINE
  8
0
 10
74.9851
 20
21.7563
 11
74.9805
 21
21.7216
  0
LINE
  8
0
 10
74.9805
 20
21.7216
 11
74.9754
 21
21.6871
  0
LINE
  8
0
 10
74.9754
 20
21.6871
 11
74.9696
 21
21.6527
  0
LINE
  8
0
 10
74.9696
 20
21.6527
 11
74.9633
 21
21.6184
  0
LINE
  8
0
 10
74.9633
 20
21.6184
 11
74.9563
 21
21.5842
  0
LINE
  8
0
 10
74.9563
 20
21.5842
 11
74.9487
 21
21.5501
  0
LINE
  8
0
 10
74.9487
 20
21.5501
 11
74.9406
 21
21.5161
  0
LINE
  8
0
 10
74.9406
 20
21.5161
 11
74.9319
 21
21.4824
  0
LINE
  8
0
 10
74.9319
 20
21.4824
 11
74.9225
 21
21.4487
  0
LINE
  8
0
 10
74.9225
 20
21.4487
 11
74.9126
 21
21.4153
  0
LINE
  8
0
 10
74.9126
 20
21.4153
 11
74.9021
 21
21.382
  0
LINE
  8
0
 10
74.9021
 20
21.382
 11
74.891
 21
21.3489
  0
LINE
  8
0
 10
74.891
 20
21.3489
 11
74.8794
 21
21.3159
  0
LINE
  8
0
 10
74.8794
 20
21.3159
 11
74.8672
 21
21.2833
  0
LINE
  8
0
 10
74.8672
 20
21.2833
 11
74.8544
 21
21.2508
  0
LINE
  8
0
 10
74.8544
 20
21.2508
 11
74.841
 21
21.2185
  0
LINE
  8
0
 10
74.841
 20
21.2185
 11
74.8271
 21
21.1865
  0
LINE
  8
0
 10
74.8271
 20
21.1865
 11
74.8126
 21
21.1548
  0
LINE
  8
0
 10
74.8126
 20
21.1548
 11
74.7976
 21
21.1232
  0
LINE
  8
0
 10
74.7976
 20
21.1232
 11
74.782
 21
21.092
  0
LINE
  8
0
 10
74.782
 20
21.092
 11
74.7659
 21
21.0611
  0
LINE
  8
0
 10
74.7659
 20
21.0611
 11
74.7492
 21
21.0304
  0
LINE
  8
0
 10
74.7492
 20
21.0304
 11
74.732
 21
21
  0
LINE
  8
0
 10
74.732
 20
21
 11
74.7143
 21
20.9699
  0
LINE
  8
0
 10
74.7143
 20
20.9699
 11
74.6961
 21
20.9402
  0
LINE
  8
0
 10
74.6961
 20
20.9402
 11
74.6773
 21
20.9107
  0
LINE
  8
0
 10
74.6773
 20
20.9107
 11
74.6581
 21
20.8816
  0
LINE
  8
0
 10
74.6581
 20
20.8816
 11
74.6383
 21
20.8528
  0
LINE
  8
0
 10
74.6383
 20
20.8528
 11
74.618
 21
20.8244
  0
LINE
  8
0
 10
74.618
 20
20.8244
 11
74.5973
 21
20.7964
  0
LINE
  8
0
 10
74.5973
 20
20.7964
 11
74.576
 21
20.7687
  0
LINE
  8
0
 10
74.576
 20
20.7687
 11
74.5543
 21
20.7413
  0
LINE
  8
0
 10
74.5543
 20
20.7413
 11
74.5321
 21
20.7144
  0
LINE
  8
0
 10
74.5321
 20
20.7144
 11
74.5094
 21
20.6879
  0
LINE
  8
0
 10
74.5094
 20
20.6879
 11
74.4863
 21
20.6617
  0
LINE
  8
0
 10
74.4863
 20
20.6617
 11
74.4627
 21
20.636
  0
LINE
  8
0
 10
74.4627
 20
20.636
 11
74.4387
 21
20.6107
  0
LINE
  8
0
 10
74.4387
 20
20.6107
 11
74.4142
 21
20.5858
  0
LINE
  8
0
 10
74.4142
 20
20.5858
 11
74.3893
 21
20.5613
  0
LINE
  8
0
 10
74.3893
 20
20.5613
 11
74.364
 21
20.5373
  0
LINE
  8
0
 10
74.364
 20
20.5373
 11
74.3383
 21
20.5137
  0
LINE
  8
0
 10
74.3383
 20
20.5137
 11
74.3121
 21
20.4906
  0
LINE
  8
0
 10
74.3121
 20
20.4906
 11
74.2856
 21
20.4679
  0
LINE
  8
0
 10
74.2856
 20
20.4679
 11
74.2586
 21
20.4457
  0
LINE
  8
0
 10
74.2586
 20
20.4457
 11
74.2313
 21
20.424
  0
LINE
  8
0
 10
74.2313
 20
20.424
 11
74.2036
 21
20.4027
  0
LINE
  8
0
 10
74.2036
 20
20.4027
 11
74.1756
 21
20.382
  0
LINE
  8
0
 10
74.1756
 20
20.382
 11
74.1472
 21
20.3617
  0
LINE
  8
0
 10
74.1472
 20
20.3617
 11
74.1184
 21
20.3419
  0
LINE
  8
0
 10
74.1184
 20
20.3419
 11
74.0893
 21
20.3226
  0
LINE
  8
0
 10
74.0893
 20
20.3226
 11
74.0598
 21
20.3039
  0
LINE
  8
0
 10
74.0598
 20
20.3039
 11
74.0301
 21
20.2857
  0
LINE
  8
0
 10
74.0301
 20
20.2857
 11
74
 21
20.2679
  0
LINE
  8
0
 10
74
 20
20.2679
 11
73.9696
 21
20.2507
  0
LINE
  8
0
 10
73.9696
 20
20.2507
 11
73.9389
 21
20.2341
  0
LINE
  8
0
 10
73.9389
 20
20.2341
 11
73.908
 21
20.218
  0
LINE
  8
0
 10
73.908
 20
20.218
 11
73.8767
 21
20.2024
  0
LINE
  8
0
 10
73.8767
 20
20.2024
 11
73.8452
 21
20.1874
  0
LINE
  8
0
 10
73.8452
 20
20.1874
 11
73.8135
 21
20.1729
  0
LINE
  8
0
 10
73.8135
 20
20.1729
 11
73.7815
 21
20.159
  0
LINE
  8
0
 10
73.7815
 20
20.159
 11
73.7492
 21
20.1456
  0
LINE
  8
0
 10
73.7492
 20
20.1456
 11
73.7167
 21
20.1328
  0
LINE
  8
0
 10
73.7167
 20
20.1328
 11
73.684
 21
20.1206
  0
LINE
  8
0
 10
73.684
 20
20.1206
 11
73.6511
 21
20.109
  0
LINE
  8
0
 10
73.6511
 20
20.109
 11
73.618
 21
20.0979
  0
LINE
  8
0
 10
73.618
 20
20.0979
 11
73.5847
 21
20.0874
  0
LINE
  8
0
 10
73.5847
 20
20.0874
 11
73.5513
 21
20.0775
  0
LINE
  8
0
 10
73.5513
 20
20.0775
 11
73.5176
 21
20.0681
  0
LINE
  8
0
 10
73.5176
 20
20.0681
 11
73.4838
 21
20.0594
  0
LINE
  8
0
 10
73.4838
 20
20.0594
 11
73.4499
 21
20.0513
  0
LINE
  8
0
 10
73.4499
 20
20.0513
 11
73.4158
 21
20.0437
  0
LINE
  8
0
 10
73.4158
 20
20.0437
 11
73.3816
 21
20.0367
  0
LINE
  8
0
 10
73.3816
 20
20.0367
 11
73.3473
 21
20.0304
  0
LINE
  8
0
 10
73.3473
 20
20.0304
 11
73.3129
 21
20.0246
  0
LINE
  8
0
 10
73.3129
 20
20.0246
 11
73.2783
 21
20.0195
  0
LINE
  8
0
 10
73.2783
 20
20.0195
 11
73.2437
 21
20.0149
  0
LINE
  8
0
 10
73.2437
 20
20.0149
 11
73.2091
 21
20.011
  0
LINE
  8
0
 10
73.2091
 20
20.011
 11
73.1743
 21
20.0076
  0
LINE
  8
0
 10
73.1743
 20
20.0076
 11
73.1395
 21
20.0049
  0
LINE
  8
0
 10
73.1395
 20
20.0049
 11
73.1047
 21
20.0027
  0
LINE
  8
0
 10
73.1047
 20
20.0027
 11
73.0698
 21
20.0012
  0
LINE
  8
0
 10
73.0698
 20
20.0012
 11
73.0349
 21
20.0003
  0
LINE
  8
0
 10
73.0349
 20
20.0003
 11
73
 21
20
  0
LINE
  8
0
 10
73
 20
20
 11
72.9651
 21
20.0003
  0
ENDSEC
  0
SECTION
  2
OBJECTS
  0
DICTIONARY
  0
ENDSEC
  0
EOF
