<?xml version="1.0" standalone="no"?>
<!DOCTYPE svg PUBLIC "-//W3C//DTD SVG 1.1//EN" "http://www.w3.org/Graphics/SVG/1.1/DTD/svg11.dtd">
<svg width="250mm" height="250mm" viewBox="-125 -125 250 250" xmlns="http://www.w3.org/2000/svg" version="1.1">
<title>OpenSCAD Model</title>
<path d="
M 2.18155,124.981 L 4.36243,124.924 L 6.54199,124.829 L 8.71956,124.695 L 10.8945,124.524 L 13.0661,124.315
 L 15.2337,124.068 L 17.3966,123.784 L 19.5543,123.461 L 21.706,123.101 L 23.8511,122.703 L 25.989,122.268
 L 28.1189,121.796 L 30.2402,121.287 L 32.3524,120.741 L 34.4547,120.158 L 36.5465,119.538 L 38.6271,118.882
 L 40.696,118.19 L 42.7525,117.462 L 44.796,116.698 L 46.8258,115.898 L 48.8414,115.063 L 50.8421,114.193
 L 52.8273,113.288 L 54.7964,112.349 L 56.7488,111.376 L 58.6839,110.368 L 60.6012,109.327 L 62.5,108.253
 L 64.3798,107.146 L 66.2399,106.006 L 68.0799,104.834 L 69.8991,103.63 L 71.6971,102.394 L 73.4732,101.127
 L 75.2269,99.8294 L 76.9577,98.5013 L 78.665,97.1432 L 80.3484,95.7556 L 82.0074,94.3387 L 83.6413,92.8931
 L 85.2498,91.4192 L 86.8323,89.9175 L 88.3884,88.3884 L 89.9175,86.8323 L 91.4192,85.2498 L 92.8931,83.6413
 L 94.3387,82.0074 L 95.7556,80.3484 L 97.1432,78.665 L 98.5013,76.9577 L 99.8294,75.2269 L 101.127,73.4732
 L 102.394,71.6971 L 103.63,69.8991 L 104.834,68.0799 L 106.006,66.2399 L 107.146,64.3798 L 108.253,62.5
 L 109.327,60.6012 L 110.368,58.6839 L 111.376,56.7488 L 112.349,54.7964 L 113.288,52.8273 L 114.193,50.8421
 L 115.063,48.8414 L 115.898,46.8258 L 116.698,44.796 L 117.462,42.7525 L 118.19,40.696 L 118.882,38.6271
 L 119.538,36.5465 L 120.158,34.4547 L 120.741,32.3524 L 121.287,30.2402 L 121.796,28.1189 L 122.268,25.989
 L 122.703,23.8511 L 123.101,21.706 L 123.461,19.5543 L 123.784,17.3966 L 124.068,15.2337 L 124.315,13.0661
 L 124.524,10.8945 L 124.695,8.71956 L 124.829,6.54199 L 124.924,4.36243 L 124.981,2.18155 L 125,-0
 L 124.981,-2.18155 L 124.924,-4.36243 L 124.829,-6.54199 L 124.695,-8.71956 L 124.524,-10.8945 L 124.315,-13.0661
 L 124.068,-15.2337 L 123.784,-17.3966 L 123.461,-19.5543 L 123.101,-21.706 L 122.703,-23.8511 L 122.268,-25.989
 L 121.796,-28.1189 L 121.287,-30.2402 L 120.741,-32.3524 L 120.158,-34.4547 L 119.538,-36.5465 L 118.882,-38.6271
 L 118.19,-40.696 L 117.462,-42.7525 L 116.698,-44.796 L 115.898,-46.8258 L 115.063,-48.8414 L 114.193,-50.8421
 L 113.288,-52.8273 L 112.349,-54.7964 L 111.376,-56.7488 L 110.368,-58.6839 L 109.327,-60.6012 L 108.253,-62.5
 L 107.146,-64.3798 L 106.006,-66.2399 L 104.834,-68.0799 L 103.63,-69.8991 L 102.394,-71.6971 L 101.127,-73.4732
 L 99.8294,-75.2269 L 98.5013,-76.9577 L 97.1432,-78.665 L 95.7556,-80.3484 L 94.3387,-82.0074 L 92.8931,-83.6413
 L 91.4192,-85.2498 L 89.9175,-86.8323 L 88.3884,-88.3884 L 86.8323,-89.9175 L 85.2498,-91.4192 L 83.6413,-92.8931
 L 82.0074,-94.3387 L 80.3484,-95.7556 L 78.665,-97.1432 L 76.9577,-98.5013 L 75.2269,-99.8294 L 73.4732,-101.127
 L 71.6971,-102.394 L 69.8991,-103.63 L 68.0799,-104.834 L 66.2399,-106.006 L 64.3798,-107.146 L 62.5,-108.253
 L 60.6012,-109.327 L 58.6839,-110.368 L 56.7488,-111.376 L 54.7964,-112.349 L 52.8273,-113.288 L 50.8421,-114.193
 L 48.8414,-115.063 L 46.8258,-115.898 L 44.796,-116.698 L 42.7525,-117.462 L 40.696,-118.19 L 38.6271,-118.882
 L 36.5465,-119.538 L 34.4547,-120.158 L 32.3524,-120.741 L 30.2402,-121.287 L 28.1189,-121.796 L 25.989,-122.268
 L 23.8511,-122.703 L 21.706,-123.101 L 19.5543,-123.461 L 17.3966,-123.784 L 15.2337,-124.068 L 13.0661,-124.315
 L 10.8945,-124.524 L 8.71956,-124.695 L 6.54199,-124.829 L 4.36243,-124.924 L 2.18155,-124.981 L 0,-125
 L -2.18155,-124.981 L -4.36243,-124.924 L -6.54199,-124.829 L -8.71956,-124.695 L -10.8945,-124.524 L -13.0661,-124.315
 L -15.2337,-124.068 L -17.3966,-123.784 L -19.5543,-123.461 L -21.706,-123.101 L -23.8511,-122.703 L -25.989,-122.268
 L -28.1189,-121.796 L -30.2402,-121.287 L -32.3524,-120.741 L -34.4547,-120.158 L -36.5465,-119.538 L -38.6271,-118.882
 L -40.696,-118.19 L -42.7525,-117.462 L -44.796,-116.698 L -46.8258,-115.898 L -48.8414,-115.063 L -50.8421,-114.193
 L -52.8273,-113.288 L -54.7964,-112.349 L -56.7488,-111.376 L -58.6839,-110.368 L -60.6012,-109.327 L -62.5,-108.253
 L -64.3798,-107.146 L -66.2399,-106.006 L -68.0799,-104.834 L -69.8991,-103.63 L -71.6971,-102.394 L -73.4732,-101.127
 L -75.2269,-99.8294 L -76.9577,-98.5013 L -78.665,-97.1432 L -80.3484,-95.7556 L -82.0074,-94.3387 L -83.6413,-92.8931
 L -85.2498,-91.4192 L -86.8323,-89.9175 L -88.3884,-88.3884 L -89.9175,-86.8323 L -91.4192,-85.2498 L -92.8931,-83.6413
 L -94.3387,-82.0074 L -95.7556,-80.3484 L -97.1432,-78.665 L -98.5013,-76.9577 L -99.8294,-75.2269 L -101.127,-73.4732
 L -102.394,-71.6971 L -103.63,-69.8991 L -104.834,-68.0799 L -106.006,-66.2399 L -107.146,-64.3798 L -108.253,-62.5
 L -109.327,-60.6012 L -110.368,-58.6839 L -111.376,-56.7488 L -112.349,-54.7964 L -113.288,-52.8273 L -114.193,-50.8421
 L -115.063,-48.8414 L -115.898,-46.8258 L -116.698,-44.796 L -117.462,-42.7525 L -118.19,-40.696 L -118.882,-38.6271
 L -119.538,-36.5465 L -120.158,-34.4547 L -120.741,-32.3524 L -121.287,-30.2402 L -121.796,-28.1189 L -122.268,-25.989
 L -122.703,-23.8511 L -123.101,-21.706 L -123.461,-19.5543 L -123.784,-17.3966 L -124.068,-15.2337 L -124.315,-13.0661
 L -124.524,-10.8945 L -124.695,-8.71956 L -124.829,-6.54199 L -124.924,-4.36243 L -124.981,-2.18155 L -125,-0
 L -124.981,2.18155 L -124.924,4.36243 L -124.829,6.54199 L -124.695,8.71956 L -124.524,10.8945 L -124.315,13.0661
 L -124.068,15.2337 L -123.784,17.3966 L -123.461,19.5543 L -123.101,21.706 L -122.703,23.8511 L -122.268,25.989
 L -121.796,28.1189 L -121.287,30.2402 L -120.741,32.3524 L -120.158,34.4547 L -119.538,36.5465 L -118.882,38.6271
 L -118.19,40.696 L -117.462,42.7525 L -116.698,44.796 L -115.898,46.8258 L -115.063,48.8414 L -114.193,50.8421
 L -113.288,52.8273 L -112.349,54.7964 L -111.376,56.7488 L -110.368,58.6839 L -109.327,60.6012 L -108.253,62.5
 L -107.146,64.3798 L -106.006,66.2399 L -104.834,68.0799 L -103.63,69.8991 L -102.394,71.6971 L -101.127,73.4732
 L -99.8294,75.2269 L -98.5013,76.9577 L -97.1432,78.665 L -95.7556,80.3484 L -94.3387,82.0074 L -92.8931,83.6413
 L -91.4192,85.2498 L -89.9175,86.8323 L -88.3884,88.3884 L -86.8323,89.9175 L -85.2498,91.4192 L -83.6413,92.8931
 L -82.0074,94.3387 L -80.3484,95.7556 L -78.665,97.1432 L -76.9577,98.5013 L -75.2269,99.8294 L -73.4732,101.127
 L -71.6971,102.394 L -69.8991,103.63 L -68.0799,104.834 L -66.2399,106.006 L -64.3798,107.146 L -62.5,108.253
 L -60.6012,109.327 L -58.6839,110.368 L -56.7488,111.376 L -54.7964,112.349 L -52.8273,113.288 L -50.8421,114.193
 L -48.8414,115.063 L -46.8258,115.898 L -44.796,116.698 L -42.7525,117.462 L -40.696,118.19 L -38.6271,118.882
 L -36.5465,119.538 L -34.4547,120.158 L -32.3524,120.741 L -30.2402,121.287 L -28.1189,121.796 L -25.989,122.268
 L -23.8511,122.703 L -21.706,123.101 L -19.5543,123.461 L -17.3966,123.784 L -15.2337,124.068 L -13.0661,124.315
 L -10.8945,124.524 L -8.71956,124.695 L -6.54199,124.829 L -4.36243,124.924 L -2.18155,124.981 L 0,125
 z
M -27,-65 L -27,-108 L 27,-108 L 27,-65 z
M -45,-37 L -45,-56 L 45,-56 L 45,-37 z
M 70,-22 L 70,-30 L 100,-30 L 100,-22 z
M -42,22 L -42,-22 L -100,-22 L -100,-30 L -70,-30 L -70,-22
 L 42,-22 L 42,22 z
M -100,30 L -100,22 L -70,22 L -70,30 z
M 70,30 L 70,22 L 100,22 L 100,30 z
" stroke="black" fill="lightgray" stroke-width="0.5"/>
</svg>
