  0
SECTION
  2
BLOCKS
  0
ENDSEC
  0
SECTION
  2
ENTITIES
  0
LINE
  8
0
 10
0.907516
 20
-51.9921
 11
1.81477
 21
-51.9683
  0
LINE
  8
0
 10
1.81477
 20
-51.9683
 11
2.72147
 21
-51.9287
  0
LINE
  8
0
 10
2.72147
 20
-51.9287
 11
3.62733
 21
-51.8733
  0
LINE
  8
0
 10
3.62733
 20
-51.8733
 11
4.53209
 21
-51.8021
  0
LINE
  8
0
 10
4.53209
 20
-51.8021
 11
5.43547
 21
-51.7151
  0
LINE
  8
0
 10
5.43547
 20
-51.7151
 11
6.3372
 21
-51.6124
  0
LINE
  8
0
 10
6.3372
 20
-51.6124
 11
7.237
 21
-51.4939
  0
LINE
  8
0
 10
7.237
 20
-51.4939
 11
8.13458
 21
-51.3598
  0
LINE
  8
0
 10
8.13458
 20
-51.3598
 11
9.02969
 21
-51.21
  0
LINE
  8
0
 10
9.02969
 20
-51.21
 11
9.92206
 21
-51.0446
  0
LINE
  8
0
 10
9.92206
 20
-51.0446
 11
10.8114
 21
-50.8637
  0
LINE
  8
0
 10
10.8114
 20
-50.8637
 11
11.6974
 21
-50.6672
  0
LINE
  8
0
 10
11.6974
 20
-50.6672
 11
12.5799
 21
-50.4554
  0
LINE
  8
0
 10
12.5799
 20
-50.4554
 11
13.4586
 21
-50.2281
  0
LINE
  8
0
 10
13.4586
 20
-50.2281
 11
14.3331
 21
-49.9856
  0
LINE
  8
0
 10
14.3331
 20
-49.9856
 11
15.2033
 21
-49.7278
  0
LINE
  8
0
 10
15.2033
 20
-49.7278
 11
16.0689
 21
-49.4549
  0
LINE
  8
0
 10
16.0689
 20
-49.4549
 11
16.9295
 21
-49.167
  0
LINE
  8
0
 10
16.9295
 20
-49.167
 11
17.785
 21
-48.864
  0
LINE
  8
0
 10
17.785
 20
-48.864
 11
18.6351
 21
-48.5462
  0
LINE
  8
0
 10
18.6351
 20
-48.5462
 11
19.4795
 21
-48.2136
  0
LINE
  8
0
 10
19.4795
 20
-48.2136
 11
20.318
 21
-47.8662
  0
LINE
  8
0
 10
20.318
 20
-47.8662
 11
21.1503
 21
-47.5044
  0
LINE
  8
0
 10
21.1503
 20
-47.5044
 11
21.9762
 21
-47.128
  0
LINE
  8
0
 10
21.9762
 20
-47.128
 11
22.7953
 21
-46.7373
  0
LINE
  8
0
 10
22.7953
 20
-46.7373
 11
23.6075
 21
-46.3323
  0
LINE
  8
0
 10
23.6075
 20
-46.3323
 11
24.4125
 21
-45.9133
  0
LINE
  8
0
 10
24.4125
 20
-45.9133
 11
25.2101
 21
-45.4802
  0
LINE
  8
0
 10
25.2101
 20
-45.4802
 11
26
 21
-45.0333
  0
LINE
  8
0
 10
26
 20
-45.0333
 11
26.782
 21
-44.5727
  0
LINE
  8
0
 10
26.782
 20
-44.5727
 11
27.5558
 21
-44.0985
  0
LINE
  8
0
 10
27.5558
 20
-44.0985
 11
28.3212
 21
-43.6109
  0
LINE
  8
0
 10
28.3212
 20
-43.6109
 11
29.078
 21
-43.11
  0
LINE
  8
0
 10
29.078
 20
-43.11
 11
29.826
 21
-42.5959
  0
LINE
  8
0
 10
29.826
 20
-42.5959
 11
30.5648
 21
-42.0689
  0
LINE
  8
0
 10
30.5648
 20
-42.0689
 11
31.2944
 21
-41.529
  0
LINE
  8
0
 10
31.2944
 20
-41.529
 11
32.0144
 21
-40.9765
  0
LINE
  8
0
 10
32.0144
 20
-40.9765
 11
32.7247
 21
-40.4116
  0
LINE
  8
0
 10
32.7247
 20
-40.4116
 11
33.425
 21
-39.8343
  0
LINE
  8
0
 10
33.425
 20
-39.8343
 11
34.1151
 21
-39.2449
  0
LINE
  8
0
 10
34.1151
 20
-39.2449
 11
34.7948
 21
-38.6435
  0
LINE
  8
0
 10
34.7948
 20
-38.6435
 11
35.4639
 21
-38.0304
  0
LINE
  8
0
 10
35.4639
 20
-38.0304
 11
36.1222
 21
-37.4057
  0
LINE
  8
0
 10
36.1222
 20
-37.4057
 11
36.7695
 21
-36.7695
  0
LINE
  8
0
 10
36.7695
 20
-36.7695
 11
37.4057
 21
-36.1222
  0
LINE
  8
0
 10
37.4057
 20
-36.1222
 11
38.0304
 21
-35.4639
  0
LINE
  8
0
 10
38.0304
 20
-35.4639
 11
38.6435
 21
-34.7948
  0
LINE
  8
0
 10
38.6435
 20
-34.7948
 11
39.2449
 21
-34.1151
  0
LINE
  8
0
 10
39.2449
 20
-34.1151
 11
39.8343
 21
-33.425
  0
LINE
  8
0
 10
39.8343
 20
-33.425
 11
40.4116
 21
-32.7247
  0
LINE
  8
0
 10
40.4116
 20
-32.7247
 11
40.9765
 21
-32.0144
  0
LINE
  8
0
 10
40.9765
 20
-32.0144
 11
41.529
 21
-31.2944
  0
LINE
  8
0
 10
41.529
 20
-31.2944
 11
42.0689
 21
-30.5648
  0
LINE
  8
0
 10
42.0689
 20
-30.5648
 11
42.5959
 21
-29.826
  0
LINE
  8
0
 10
42.5959
 20
-29.826
 11
43.11
 21
-29.078
  0
LINE
  8
0
 10
43.11
 20
-29.078
 11
43.6109
 21
-28.3212
  0
LINE
  8
0
 10
43.6109
 20
-28.3212
 11
44.0985
 21
-27.5558
  0
LINE
  8
0
 10
44.0985
 20
-27.5558
 11
44.5727
 21
-26.782
  0
LINE
  8
0
 10
44.5727
 20
-26.782
 11
45.0333
 21
-26
  0
LINE
  8
0
 10
45.0333
 20
-26
 11
45.4802
 21
-25.2101
  0
LINE
  8
0
 10
45.4802
 20
-25.2101
 11
45.9133
 21
-24.4125
  0
LINE
  8
0
 10
45.9133
 20
-24.4125
 11
46.3323
 21
-23.6075
  0
LINE
  8
0
 10
46.3323
 20
-23.6075
 11
46.7373
 21
-22.7953
  0
LINE
  8
0
 10
46.7373
 20
-22.7953
 11
47.128
 21
-21.9762
  0
LINE
  8
0
 10
47.128
 20
-21.9762
 11
47.5044
 21
-21.1503
  0
LINE
  8
0
 10
47.5044
 20
-21.1503
 11
47.8662
 21
-20.318
  0
LINE
  8
0
 10
47.8662
 20
-20.318
 11
48.2136
 21
-19.4795
  0
LINE
  8
0
 10
48.2136
 20
-19.4795
 11
48.5462
 21
-18.6351
  0
LINE
  8
0
 10
48.5462
 20
-18.6351
 11
48.864
 21
-17.785
  0
LINE
  8
0
 10
48.864
 20
-17.785
 11
49.167
 21
-16.9295
  0
LINE
  8
0
 10
49.167
 20
-16.9295
 11
49.4549
 21
-16.0689
  0
LINE
  8
0
 10
49.4549
 20
-16.0689
 11
49.7278
 21
-15.2033
  0
LINE
  8
0
 10
49.7278
 20
-15.2033
 11
49.9856
 21
-14.3331
  0
LINE
  8
0
 10
49.9856
 20
-14.3331
 11
50.2281
 21
-13.4586
  0
LINE
  8
0
 10
50.2281
 20
-13.4586
 11
50.4554
 21
-12.5799
  0
LINE
  8
0
 10
50.4554
 20
-12.5799
 11
50.6672
 21
-11.6974
  0
LINE
  8
0
 10
50.6672
 20
-11.6974
 11
50.8637
 21
-10.8114
  0
LINE
  8
0
 10
50.8637
 20
-10.8114
 11
51.0446
 21
-9.92206
  0
LINE
  8
0
 10
51.0446
 20
-9.92206
 11
51.21
 21
-9.02969
  0
LINE
  8
0
 10
51.21
 20
-9.02969
 11
51.3598
 21
-8.13458
  0
LINE
  8
0
 10
51.3598
 20
-8.13458
 11
51.4939
 21
-7.237
  0
LINE
  8
0
 10
51.4939
 20
-7.237
 11
51.6124
 21
-6.3372
  0
LINE
  8
0
 10
51.6124
 20
-6.3372
 11
51.7151
 21
-5.43547
  0
LINE
  8
0
 10
51.7151
 20
-5.43547
 11
51.8021
 21
-4.53209
  0
LINE
  8
0
 10
51.8021
 20
-4.53209
 11
51.8733
 21
-3.62733
  0
LINE
  8
0
 10
51.8733
 20
-3.62733
 11
51.9287
 21
-2.72147
  0
LINE
  8
0
 10
51.9287
 20
-2.72147
 11
51.9683
 21
-1.81477
  0
LINE
  8
0
 10
51.9683
 20
-1.81477
 11
51.9921
 21
-0.907516
  0
LINE
  8
0
 10
51.9921
 20
-0.907516
 11
52
 21
0
  0
LINE
  8
0
 10
52
 20
0
 11
51.9921
 21
0.907516
  0
LINE
  8
0
 10
51.9921
 20
0.907516
 11
51.9683
 21
1.81477
  0
LINE
  8
0
 10
51.9683
 20
1.81477
 11
51.9287
 21
2.72147
  0
LINE
  8
0
 10
51.9287
 20
2.72147
 11
51.8733
 21
3.62733
  0
LINE
  8
0
 10
51.8733
 20
3.62733
 11
51.8021
 21
4.53209
  0
LINE
  8
0
 10
51.8021
 20
4.53209
 11
51.7151
 21
5.43547
  0
LINE
  8
0
 10
51.7151
 20
5.43547
 11
51.6124
 21
6.3372
  0
LINE
  8
0
 10
51.6124
 20
6.3372
 11
51.4939
 21
7.237
  0
LINE
  8
0
 10
51.4939
 20
7.237
 11
51.3598
 21
8.13458
  0
LINE
  8
0
 10
51.3598
 20
8.13458
 11
51.21
 21
9.02969
  0
LINE
  8
0
 10
51.21
 20
9.02969
 11
51.0446
 21
9.92206
  0
LINE
  8
0
 10
51.0446
 20
9.92206
 11
50.8637
 21
10.8114
  0
LINE
  8
0
 10
50.8637
 20
10.8114
 11
50.6672
 21
11.6974
  0
LINE
  8
0
 10
50.6672
 20
11.6974
 11
50.4554
 21
12.5799
  0
LINE
  8
0
 10
50.4554
 20
12.5799
 11
50.2281
 21
13.4586
  0
LINE
  8
0
 10
50.2281
 20
13.4586
 11
49.9856
 21
14.3331
  0
LINE
  8
0
 10
49.9856
 20
14.3331
 11
49.7278
 21
15.2033
  0
LINE
  8
0
 10
49.7278
 20
15.2033
 11
49.4549
 21
16.0689
  0
LINE
  8
0
 10
49.4549
 20
16.0689
 11
49.167
 21
16.9295
  0
LINE
  8
0
 10
49.167
 20
16.9295
 11
48.864
 21
17.785
  0
LINE
  8
0
 10
48.864
 20
17.785
 11
48.5462
 21
18.6351
  0
LINE
  8
0
 10
48.5462
 20
18.6351
 11
48.2136
 21
19.4795
  0
LINE
  8
0
 10
48.2136
 20
19.4795
 11
47.8662
 21
20.318
  0
LINE
  8
0
 10
47.8662
 20
20.318
 11
47.5044
 21
21.1503
  0
LINE
  8
0
 10
47.5044
 20
21.1503
 11
47.128
 21
21.9762
  0
LINE
  8
0
 10
47.128
 20
21.9762
 11
46.7373
 21
22.7953
  0
LINE
  8
0
 10
46.7373
 20
22.7953
 11
46.3323
 21
23.6075
  0
LINE
  8
0
 10
46.3323
 20
23.6075
 11
45.9133
 21
24.4125
  0
LINE
  8
0
 10
45.9133
 20
24.4125
 11
45.4802
 21
25.2101
  0
LINE
  8
0
 10
45.4802
 20
25.2101
 11
45.0333
 21
26
  0
LINE
  8
0
 10
45.0333
 20
26
 11
44.5727
 21
26.782
  0
LINE
  8
0
 10
44.5727
 20
26.782
 11
44.0985
 21
27.5558
  0
LINE
  8
0
 10
44.0985
 20
27.5558
 11
43.6109
 21
28.3212
  0
LINE
  8
0
 10
43.6109
 20
28.3212
 11
43.11
 21
29.078
  0
LINE
  8
0
 10
43.11
 20
29.078
 11
42.5959
 21
29.826
  0
LINE
  8
0
 10
42.5959
 20
29.826
 11
42.0689
 21
30.5648
  0
LINE
  8
0
 10
42.0689
 20
30.5648
 11
41.529
 21
31.2944
  0
LINE
  8
0
 10
41.529
 20
31.2944
 11
40.9765
 21
32.0144
  0
LINE
  8
0
 10
40.9765
 20
32.0144
 11
40.4116
 21
32.7247
  0
LINE
  8
0
 10
40.4116
 20
32.7247
 11
39.8343
 21
33.425
  0
LINE
  8
0
 10
39.8343
 20
33.425
 11
39.2449
 21
34.1151
  0
LINE
  8
0
 10
39.2449
 20
34.1151
 11
38.6435
 21
34.7948
  0
LINE
  8
0
 10
38.6435
 20
34.7948
 11
38.0304
 21
35.4639
  0
LINE
  8
0
 10
38.0304
 20
35.4639
 11
37.4057
 21
36.1222
  0
LINE
  8
0
 10
37.4057
 20
36.1222
 11
36.7695
 21
36.7695
  0
LINE
  8
0
 10
36.7695
 20
36.7695
 11
36.1222
 21
37.4057
  0
LINE
  8
0
 10
36.1222
 20
37.4057
 11
35.4639
 21
38.0304
  0
LINE
  8
0
 10
35.4639
 20
38.0304
 11
34.7948
 21
38.6435
  0
LINE
  8
0
 10
34.7948
 20
38.6435
 11
34.1151
 21
39.2449
  0
LINE
  8
0
 10
34.1151
 20
39.2449
 11
33.425
 21
39.8343
  0
LINE
  8
0
 10
33.425
 20
39.8343
 11
32.7247
 21
40.4116
  0
LINE
  8
0
 10
32.7247
 20
40.4116
 11
32.0144
 21
40.9765
  0
LINE
  8
0
 10
32.0144
 20
40.9765
 11
31.2944
 21
41.529
  0
LINE
  8
0
 10
31.2944
 20
41.529
 11
30.5648
 21
42.0689
  0
LINE
  8
0
 10
30.5648
 20
42.0689
 11
29.826
 21
42.5959
  0
LINE
  8
0
 10
29.826
 20
42.5959
 11
29.078
 21
43.11
  0
LINE
  8
0
 10
29.078
 20
43.11
 11
28.3212
 21
43.6109
  0
LINE
  8
0
 10
28.3212
 20
43.6109
 11
27.5558
 21
44.0985
  0
LINE
  8
0
 10
27.5558
 20
44.0985
 11
26.782
 21
44.5727
  0
LINE
  8
0
 10
26.782
 20
44.5727
 11
26
 21
45.0333
  0
LINE
  8
0
 10
26
 20
45.0333
 11
25.2101
 21
45.4802
  0
LINE
  8
0
 10
25.2101
 20
45.4802
 11
24.4125
 21
45.9133
  0
LINE
  8
0
 10
24.4125
 20
45.9133
 11
23.6075
 21
46.3323
  0
LINE
  8
0
 10
23.6075
 20
46.3323
 11
22.7953
 21
46.7373
  0
LINE
  8
0
 10
22.7953
 20
46.7373
 11
21.9762
 21
47.128
  0
LINE
  8
0
 10
21.9762
 20
47.128
 11
21.1503
 21
47.5044
  0
LINE
  8
0
 10
21.1503
 20
47.5044
 11
20.318
 21
47.8662
  0
LINE
  8
0
 10
20.318
 20
47.8662
 11
19.4795
 21
48.2136
  0
LINE
  8
0
 10
19.4795
 20
48.2136
 11
18.6351
 21
48.5462
  0
LINE
  8
0
 10
18.6351
 20
48.5462
 11
17.785
 21
48.864
  0
LINE
  8
0
 10
17.785
 20
48.864
 11
16.9295
 21
49.167
  0
LINE
  8
0
 10
16.9295
 20
49.167
 11
16.0689
 21
49.4549
  0
LINE
  8
0
 10
16.0689
 20
49.4549
 11
15.2033
 21
49.7278
  0
LINE
  8
0
 10
15.2033
 20
49.7278
 11
14.3331
 21
49.9856
  0
LINE
  8
0
 10
14.3331
 20
49.9856
 11
13.4586
 21
50.2281
  0
LINE
  8
0
 10
13.4586
 20
50.2281
 11
12.5799
 21
50.4554
  0
LINE
  8
0
 10
12.5799
 20
50.4554
 11
11.6974
 21
50.6672
  0
LINE
  8
0
 10
11.6974
 20
50.6672
 11
10.8114
 21
50.8637
  0
LINE
  8
0
 10
10.8114
 20
50.8637
 11
9.92206
 21
51.0446
  0
LINE
  8
0
 10
9.92206
 20
51.0446
 11
9.02969
 21
51.21
  0
LINE
  8
0
 10
9.02969
 20
51.21
 11
8.13458
 21
51.3598
  0
LINE
  8
0
 10
8.13458
 20
51.3598
 11
7.237
 21
51.4939
  0
LINE
  8
0
 10
7.237
 20
51.4939
 11
6.3372
 21
51.6124
  0
LINE
  8
0
 10
6.3372
 20
51.6124
 11
5.43547
 21
51.7151
  0
LINE
  8
0
 10
5.43547
 20
51.7151
 11
4.53209
 21
51.8021
  0
LINE
  8
0
 10
4.53209
 20
51.8021
 11
3.62733
 21
51.8733
  0
LINE
  8
0
 10
3.62733
 20
51.8733
 11
2.72147
 21
51.9287
  0
LINE
  8
0
 10
2.72147
 20
51.9287
 11
1.81477
 21
51.9683
  0
LINE
  8
0
 10
1.81477
 20
51.9683
 11
0.907516
 21
51.9921
  0
LINE
  8
0
 10
0.907516
 20
51.9921
 11
0
 21
52
  0
LINE
  8
0
 10
0
 20
52
 11
-0.907516
 21
51.9921
  0
LINE
  8
0
 10
-0.907516
 20
51.9921
 11
-1.81477
 21
51.9683
  0
LINE
  8
0
 10
-1.81477
 20
51.9683
 11
-2.72147
 21
51.9287
  0
LINE
  8
0
 10
-2.72147
 20
51.9287
 11
-3.62733
 21
51.8733
  0
LINE
  8
0
 10
-3.62733
 20
51.8733
 11
-4.53209
 21
51.8021
  0
LINE
  8
0
 10
-4.53209
 20
51.8021
 11
-5.43547
 21
51.7151
  0
LINE
  8
0
 10
-5.43547
 20
51.7151
 11
-6.3372
 21
51.6124
  0
LINE
  8
0
 10
-6.3372
 20
51.6124
 11
-7.237
 21
51.4939
  0
LINE
  8
0
 10
-7.237
 20
51.4939
 11
-8.13458
 21
51.3598
  0
LINE
  8
0
 10
-8.13458
 20
51.3598
 11
-9.02969
 21
51.21
  0
LINE
  8
0
 10
-9.02969
 20
51.21
 11
-9.92206
 21
51.0446
  0
LINE
  8
0
 10
-9.92206
 20
51.0446
 11
-10.8114
 21
50.8637
  0
LINE
  8
0
 10
-10.8114
 20
50.8637
 11
-11.6974
 21
50.6672
  0
LINE
  8
0
 10
-11.6974
 20
50.6672
 11
-12.5799
 21
50.4554
  0
LINE
  8
0
 10
-12.5799
 20
50.4554
 11
-13.4586
 21
50.2281
  0
LINE
  8
0
 10
-13.4586
 20
50.2281
 11
-14.3331
 21
49.9856
  0
LINE
  8
0
 10
-14.3331
 20
49.9856
 11
-15.2033
 21
49.7278
  0
LINE
  8
0
 10
-15.2033
 20
49.7278
 11
-16.0689
 21
49.4549
  0
LINE
  8
0
 10
-16.0689
 20
49.4549
 11
-16.9295
 21
49.167
  0
LINE
  8
0
 10
-16.9295
 20
49.167
 11
-17.785
 21
48.864
  0
LINE
  8
0
 10
-17.785
 20
48.864
 11
-18.6351
 21
48.5462
  0
LINE
  8
0
 10
-18.6351
 20
48.5462
 11
-19.4795
 21
48.2136
  0
LINE
  8
0
 10
-19.4795
 20
48.2136
 11
-20.318
 21
47.8662
  0
LINE
  8
0
 10
-20.318
 20
47.8662
 11
-21.1503
 21
47.5044
  0
LINE
  8
0
 10
-21.1503
 20
47.5044
 11
-21.9762
 21
47.128
  0
LINE
  8
0
 10
-21.9762
 20
47.128
 11
-22.7953
 21
46.7373
  0
LINE
  8
0
 10
-22.7953
 20
46.7373
 11
-23.6075
 21
46.3323
  0
LINE
  8
0
 10
-23.6075
 20
46.3323
 11
-24.4125
 21
45.9133
  0
LINE
  8
0
 10
-24.4125
 20
45.9133
 11
-25.2101
 21
45.4802
  0
LINE
  8
0
 10
-25.2101
 20
45.4802
 11
-26
 21
45.0333
  0
LINE
  8
0
 10
-26
 20
45.0333
 11
-26.782
 21
44.5727
  0
LINE
  8
0
 10
-26.782
 20
44.5727
 11
-27.5558
 21
44.0985
  0
LINE
  8
0
 10
-27.5558
 20
44.0985
 11
-28.3212
 21
43.6109
  0
LINE
  8
0
 10
-28.3212
 20
43.6109
 11
-29.078
 21
43.11
  0
LINE
  8
0
 10
-29.078
 20
43.11
 11
-29.826
 21
42.5959
  0
LINE
  8
0
 10
-29.826
 20
42.5959
 11
-30.5648
 21
42.0689
  0
LINE
  8
0
 10
-30.5648
 20
42.0689
 11
-31.2944
 21
41.529
  0
LINE
  8
0
 10
-31.2944
 20
41.529
 11
-32.0144
 21
40.9765
  0
LINE
  8
0
 10
-32.0144
 20
40.9765
 11
-32.7247
 21
40.4116
  0
LINE
  8
0
 10
-32.7247
 20
40.4116
 11
-33.425
 21
39.8343
  0
LINE
  8
0
 10
-33.425
 20
39.8343
 11
-34.1151
 21
39.2449
  0
LINE
  8
0
 10
-34.1151
 20
39.2449
 11
-34.7948
 21
38.6435
  0
LINE
  8
0
 10
-34.7948
 20
38.6435
 11
-35.4639
 21
38.0304
  0
LINE
  8
0
 10
-35.4639
 20
38.0304
 11
-36.1222
 21
37.4057
  0
LINE
  8
0
 10
-36.1222
 20
37.4057
 11
-36.7695
 21
36.7695
  0
LINE
  8
0
 10
-36.7695
 20
36.7695
 11
-37.4057
 21
36.1222
  0
LINE
  8
0
 10
-37.4057
 20
36.1222
 11
-38.0304
 21
35.4639
  0
LINE
  8
0
 10
-38.0304
 20
35.4639
 11
-38.6435
 21
34.7948
  0
LINE
  8
0
 10
-38.6435
 20
34.7948
 11
-39.2449
 21
34.1151
  0
LINE
  8
0
 10
-39.2449
 20
34.1151
 11
-39.8343
 21
33.425
  0
LINE
  8
0
 10
-39.8343
 20
33.425
 11
-40.4116
 21
32.7247
  0
LINE
  8
0
 10
-40.4116
 20
32.7247
 11
-40.9765
 21
32.0144
  0
LINE
  8
0
 10
-40.9765
 20
32.0144
 11
-41.529
 21
31.2944
  0
LINE
  8
0
 10
-41.529
 20
31.2944
 11
-42.0689
 21
30.5648
  0
LINE
  8
0
 10
-42.0689
 20
30.5648
 11
-42.5959
 21
29.826
  0
LINE
  8
0
 10
-42.5959
 20
29.826
 11
-43.11
 21
29.078
  0
LINE
  8
0
 10
-43.11
 20
29.078
 11
-43.6109
 21
28.3212
  0
LINE
  8
0
 10
-43.6109
 20
28.3212
 11
-44.0985
 21
27.5558
  0
LINE
  8
0
 10
-44.0985
 20
27.5558
 11
-44.5727
 21
26.782
  0
LINE
  8
0
 10
-44.5727
 20
26.782
 11
-45.0333
 21
26
  0
LINE
  8
0
 10
-45.0333
 20
26
 11
-45.4802
 21
25.2101
  0
LINE
  8
0
 10
-45.4802
 20
25.2101
 11
-45.9133
 21
24.4125
  0
LINE
  8
0
 10
-45.9133
 20
24.4125
 11
-46.3323
 21
23.6075
  0
LINE
  8
0
 10
-46.3323
 20
23.6075
 11
-46.7373
 21
22.7953
  0
LINE
  8
0
 10
-46.7373
 20
22.7953
 11
-47.128
 21
21.9762
  0
LINE
  8
0
 10
-47.128
 20
21.9762
 11
-47.5044
 21
21.1503
  0
LINE
  8
0
 10
-47.5044
 20
21.1503
 11
-47.8662
 21
20.318
  0
LINE
  8
0
 10
-47.8662
 20
20.318
 11
-48.2136
 21
19.4795
  0
LINE
  8
0
 10
-48.2136
 20
19.4795
 11
-48.5462
 21
18.6351
  0
LINE
  8
0
 10
-48.5462
 20
18.6351
 11
-48.864
 21
17.785
  0
LINE
  8
0
 10
-48.864
 20
17.785
 11
-49.167
 21
16.9295
  0
LINE
  8
0
 10
-49.167
 20
16.9295
 11
-49.4549
 21
16.0689
  0
LINE
  8
0
 10
-49.4549
 20
16.0689
 11
-49.7278
 21
15.2033
  0
LINE
  8
0
 10
-49.7278
 20
15.2033
 11
-49.9856
 21
14.3331
  0
LINE
  8
0
 10
-49.9856
 20
14.3331
 11
-50.2281
 21
13.4586
  0
LINE
  8
0
 10
-50.2281
 20
13.4586
 11
-50.4554
 21
12.5799
  0
LINE
  8
0
 10
-50.4554
 20
12.5799
 11
-50.6672
 21
11.6974
  0
LINE
  8
0
 10
-50.6672
 20
11.6974
 11
-50.8637
 21
10.8114
  0
LINE
  8
0
 10
-50.8637
 20
10.8114
 11
-51.0446
 21
9.92206
  0
LINE
  8
0
 10
-51.0446
 20
9.92206
 11
-51.21
 21
9.02969
  0
LINE
  8
0
 10
-51.21
 20
9.02969
 11
-51.3598
 21
8.13458
  0
LINE
  8
0
 10
-51.3598
 20
8.13458
 11
-51.4939
 21
7.237
  0
LINE
  8
0
 10
-51.4939
 20
7.237
 11
-51.6124
 21
6.3372
  0
LINE
  8
0
 10
-51.6124
 20
6.3372
 11
-51.7151
 21
5.43547
  0
LINE
  8
0
 10
-51.7151
 20
5.43547
 11
-51.8021
 21
4.53209
  0
LINE
  8
0
 10
-51.8021
 20
4.53209
 11
-51.8733
 21
3.62733
  0
LINE
  8
0
 10
-51.8733
 20
3.62733
 11
-51.9287
 21
2.72147
  0
LINE
  8
0
 10
-51.9287
 20
2.72147
 11
-51.9683
 21
1.81477
  0
LINE
  8
0
 10
-51.9683
 20
1.81477
 11
-51.9921
 21
0.907516
  0
LINE
  8
0
 10
-51.9921
 20
0.907516
 11
-52
 21
0
  0
LINE
  8
0
 10
-52
 20
0
 11
-51.9921
 21
-0.907516
  0
LINE
  8
0
 10
-51.9921
 20
-0.907516
 11
-51.9683
 21
-1.81477
  0
LINE
  8
0
 10
-51.9683
 20
-1.81477
 11
-51.9287
 21
-2.72147
  0
LINE
  8
0
 10
-51.9287
 20
-2.72147
 11
-51.8733
 21
-3.62733
  0
LINE
  8
0
 10
-51.8733
 20
-3.62733
 11
-51.8021
 21
-4.53209
  0
LINE
  8
0
 10
-51.8021
 20
-4.53209
 11
-51.7151
 21
-5.43547
  0
LINE
  8
0
 10
-51.7151
 20
-5.43547
 11
-51.6124
 21
-6.3372
  0
LINE
  8
0
 10
-51.6124
 20
-6.3372
 11
-51.4939
 21
-7.237
  0
LINE
  8
0
 10
-51.4939
 20
-7.237
 11
-51.3598
 21
-8.13458
  0
LINE
  8
0
 10
-51.3598
 20
-8.13458
 11
-51.21
 21
-9.02969
  0
LINE
  8
0
 10
-51.21
 20
-9.02969
 11
-51.0446
 21
-9.92206
  0
LINE
  8
0
 10
-51.0446
 20
-9.92206
 11
-50.8637
 21
-10.8114
  0
LINE
  8
0
 10
-50.8637
 20
-10.8114
 11
-50.6672
 21
-11.6974
  0
LINE
  8
0
 10
-50.6672
 20
-11.6974
 11
-50.4554
 21
-12.5799
  0
LINE
  8
0
 10
-50.4554
 20
-12.5799
 11
-50.2281
 21
-13.4586
  0
LINE
  8
0
 10
-50.2281
 20
-13.4586
 11
-49.9856
 21
-14.3331
  0
LINE
  8
0
 10
-49.9856
 20
-14.3331
 11
-49.7278
 21
-15.2033
  0
LINE
  8
0
 10
-49.7278
 20
-15.2033
 11
-49.4549
 21
-16.0689
  0
LINE
  8
0
 10
-49.4549
 20
-16.0689
 11
-49.167
 21
-16.9295
  0
LINE
  8
0
 10
-49.167
 20
-16.9295
 11
-48.864
 21
-17.785
  0
LINE
  8
0
 10
-48.864
 20
-17.785
 11
-48.5462
 21
-18.6351
  0
LINE
  8
0
 10
-48.5462
 20
-18.6351
 11
-48.2136
 21
-19.4795
  0
LINE
  8
0
 10
-48.2136
 20
-19.4795
 11
-47.8662
 21
-20.318
  0
LINE
  8
0
 10
-47.8662
 20
-20.318
 11
-47.5044
 21
-21.1503
  0
LINE
  8
0
 10
-47.5044
 20
-21.1503
 11
-47.128
 21
-21.9762
  0
LINE
  8
0
 10
-47.128
 20
-21.9762
 11
-46.7373
 21
-22.7953
  0
LINE
  8
0
 10
-46.7373
 20
-22.7953
 11
-46.3323
 21
-23.6075
  0
LINE
  8
0
 10
-46.3323
 20
-23.6075
 11
-45.9133
 21
-24.4125
  0
LINE
  8
0
 10
-45.9133
 20
-24.4125
 11
-45.4802
 21
-25.2101
  0
LINE
  8
0
 10
-45.4802
 20
-25.2101
 11
-45.0333
 21
-26
  0
LINE
  8
0
 10
-45.0333
 20
-26
 11
-44.5727
 21
-26.782
  0
LINE
  8
0
 10
-44.5727
 20
-26.782
 11
-44.0985
 21
-27.5558
  0
LINE
  8
0
 10
-44.0985
 20
-27.5558
 11
-43.6109
 21
-28.3212
  0
LINE
  8
0
 10
-43.6109
 20
-28.3212
 11
-43.11
 21
-29.078
  0
LINE
  8
0
 10
-43.11
 20
-29.078
 11
-42.5959
 21
-29.826
  0
LINE
  8
0
 10
-42.5959
 20
-29.826
 11
-42.0689
 21
-30.5648
  0
LINE
  8
0
 10
-42.0689
 20
-30.5648
 11
-41.529
 21
-31.2944
  0
LINE
  8
0
 10
-41.529
 20
-31.2944
 11
-40.9765
 21
-32.0144
  0
LINE
  8
0
 10
-40.9765
 20
-32.0144
 11
-40.4116
 21
-32.7247
  0
LINE
  8
0
 10
-40.4116
 20
-32.7247
 11
-39.8343
 21
-33.425
  0
LINE
  8
0
 10
-39.8343
 20
-33.425
 11
-39.2449
 21
-34.1151
  0
LINE
  8
0
 10
-39.2449
 20
-34.1151
 11
-38.6435
 21
-34.7948
  0
LINE
  8
0
 10
-38.6435
 20
-34.7948
 11
-38.0304
 21
-35.4639
  0
LINE
  8
0
 10
-38.0304
 20
-35.4639
 11
-37.4057
 21
-36.1222
  0
LINE
  8
0
 10
-37.4057
 20
-36.1222
 11
-36.7695
 21
-36.7695
  0
LINE
  8
0
 10
-36.7695
 20
-36.7695
 11
-36.1222
 21
-37.4057
  0
LINE
  8
0
 10
-36.1222
 20
-37.4057
 11
-35.4639
 21
-38.0304
  0
LINE
  8
0
 10
-35.4639
 20
-38.0304
 11
-34.7948
 21
-38.6435
  0
LINE
  8
0
 10
-34.7948
 20
-38.6435
 11
-34.1151
 21
-39.2449
  0
LINE
  8
0
 10
-34.1151
 20
-39.2449
 11
-33.425
 21
-39.8343
  0
LINE
  8
0
 10
-33.425
 20
-39.8343
 11
-32.7247
 21
-40.4116
  0
LINE
  8
0
 10
-32.7247
 20
-40.4116
 11
-32.0144
 21
-40.9765
  0
LINE
  8
0
 10
-32.0144
 20
-40.9765
 11
-31.2944
 21
-41.529
  0
LINE
  8
0
 10
-31.2944
 20
-41.529
 11
-30.5648
 21
-42.0689
  0
LINE
  8
0
 10
-30.5648
 20
-42.0689
 11
-29.826
 21
-42.5959
  0
LINE
  8
0
 10
-29.826
 20
-42.5959
 11
-29.078
 21
-43.11
  0
LINE
  8
0
 10
-29.078
 20
-43.11
 11
-28.3212
 21
-43.6109
  0
LINE
  8
0
 10
-28.3212
 20
-43.6109
 11
-27.5558
 21
-44.0985
  0
LINE
  8
0
 10
-27.5558
 20
-44.0985
 11
-26.782
 21
-44.5727
  0
LINE
  8
0
 10
-26.782
 20
-44.5727
 11
-26
 21
-45.0333
  0
LINE
  8
0
 10
-26
 20
-45.0333
 11
-25.2101
 21
-45.4802
  0
LINE
  8
0
 10
-25.2101
 20
-45.4802
 11
-24.4125
 21
-45.9133
  0
LINE
  8
0
 10
-24.4125
 20
-45.9133
 11
-23.6075
 21
-46.3323
  0
LINE
  8
0
 10
-23.6075
 20
-46.3323
 11
-22.7953
 21
-46.7373
  0
LINE
  8
0
 10
-22.7953
 20
-46.7373
 11
-21.9762
 21
-47.128
  0
LINE
  8
0
 10
-21.9762
 20
-47.128
 11
-21.1503
 21
-47.5044
  0
LINE
  8
0
 10
-21.1503
 20
-47.5044
 11
-20.318
 21
-47.8662
  0
LINE
  8
0
 10
-20.318
 20
-47.8662
 11
-19.4795
 21
-48.2136
  0
LINE
  8
0
 10
-19.4795
 20
-48.2136
 11
-18.6351
 21
-48.5462
  0
LINE
  8
0
 10
-18.6351
 20
-48.5462
 11
-17.785
 21
-48.864
  0
LINE
  8
0
 10
-17.785
 20
-48.864
 11
-16.9295
 21
-49.167
  0
LINE
  8
0
 10
-16.9295
 20
-49.167
 11
-16.0689
 21
-49.4549
  0
LINE
  8
0
 10
-16.0689
 20
-49.4549
 11
-15.2033
 21
-49.7278
  0
LINE
  8
0
 10
-15.2033
 20
-49.7278
 11
-14.3331
 21
-49.9856
  0
LINE
  8
0
 10
-14.3331
 20
-49.9856
 11
-13.4586
 21
-50.2281
  0
LINE
  8
0
 10
-13.4586
 20
-50.2281
 11
-12.5799
 21
-50.4554
  0
LINE
  8
0
 10
-12.5799
 20
-50.4554
 11
-11.6974
 21
-50.6672
  0
LINE
  8
0
 10
-11.6974
 20
-50.6672
 11
-10.8114
 21
-50.8637
  0
LINE
  8
0
 10
-10.8114
 20
-50.8637
 11
-9.92206
 21
-51.0446
  0
LINE
  8
0
 10
-9.92206
 20
-51.0446
 11
-9.02969
 21
-51.21
  0
LINE
  8
0
 10
-9.02969
 20
-51.21
 11
-8.13458
 21
-51.3598
  0
LINE
  8
0
 10
-8.13458
 20
-51.3598
 11
-7.237
 21
-51.4939
  0
LINE
  8
0
 10
-7.237
 20
-51.4939
 11
-6.3372
 21
-51.6124
  0
LINE
  8
0
 10
-6.3372
 20
-51.6124
 11
-5.43547
 21
-51.7151
  0
LINE
  8
0
 10
-5.43547
 20
-51.7151
 11
-4.53209
 21
-51.8021
  0
LINE
  8
0
 10
-4.53209
 20
-51.8021
 11
-3.62733
 21
-51.8733
  0
LINE
  8
0
 10
-3.62733
 20
-51.8733
 11
-2.72147
 21
-51.9287
  0
LINE
  8
0
 10
-2.72147
 20
-51.9287
 11
-1.81477
 21
-51.9683
  0
LINE
  8
0
 10
-1.81477
 20
-51.9683
 11
-0.907516
 21
-51.9921
  0
LINE
  8
0
 10
-0.907516
 20
-51.9921
 11
0
 21
-52
  0
LINE
  8
0
 10
0
 20
-52
 11
0.907516
 21
-51.9921
  0
LINE
  8
0
 10
-0.349045
 20
-19.9969
 11
-0.697983
 21
-19.9878
  0
LINE
  8
0
 10
-0.697983
 20
-19.9878
 11
-1.04671
 21
-19.9726
  0
LINE
  8
0
 10
-1.04671
 20
-19.9726
 11
-1.39513
 21
-19.9513
  0
LINE
  8
0
 10
-1.39513
 20
-19.9513
 11
-1.7431
 21
-19.9239
  0
LINE
  8
0
 10
-1.7431
 20
-19.9239
 11
-2.09056
 21
-19.8904
  0
LINE
  8
0
 10
-2.09056
 20
-19.8904
 11
-2.43738
 21
-19.8509
  0
LINE
  8
0
 10
-2.43738
 20
-19.8509
 11
-2.78345
 21
-19.8054
  0
LINE
  8
0
 10
-2.78345
 20
-19.8054
 11
-3.12868
 21
-19.7538
  0
LINE
  8
0
 10
-3.12868
 20
-19.7538
 11
-3.47296
 21
-19.6962
  0
LINE
  8
0
 10
-3.47296
 20
-19.6962
 11
-3.81618
 21
-19.6325
  0
LINE
  8
0
 10
-3.81618
 20
-19.6325
 11
-4.15823
 21
-19.5629
  0
LINE
  8
0
 10
-4.15823
 20
-19.5629
 11
-4.49901
 21
-19.4874
  0
LINE
  8
0
 10
-4.49901
 20
-19.4874
 11
-4.83842
 21
-19.4059
  0
LINE
  8
0
 10
-4.83842
 20
-19.4059
 11
-5.17638
 21
-19.3185
  0
LINE
  8
0
 10
-5.17638
 20
-19.3185
 11
-5.51274
 21
-19.2252
  0
LINE
  8
0
 10
-5.51274
 20
-19.2252
 11
-5.84743
 21
-19.1261
  0
LINE
  8
0
 10
-5.84743
 20
-19.1261
 11
-6.18033
 21
-19.0211
  0
LINE
  8
0
 10
-6.18033
 20
-19.0211
 11
-6.51135
 21
-18.9104
  0
LINE
  8
0
 10
-6.51135
 20
-18.9104
 11
-6.84039
 21
-18.7938
  0
LINE
  8
0
 10
-6.84039
 20
-18.7938
 11
-7.16736
 21
-18.6716
  0
LINE
  8
0
 10
-7.16736
 20
-18.6716
 11
-7.49213
 21
-18.5437
  0
LINE
  8
0
 10
-7.49213
 20
-18.5437
 11
-7.81462
 21
-18.4101
  0
LINE
  8
0
 10
-7.81462
 20
-18.4101
 11
-8.13472
 21
-18.2709
  0
LINE
  8
0
 10
-8.13472
 20
-18.2709
 11
-8.45236
 21
-18.1261
  0
LINE
  8
0
 10
-8.45236
 20
-18.1261
 11
-8.76741
 21
-17.9759
  0
LINE
  8
0
 10
-8.76741
 20
-17.9759
 11
-9.0798
 21
-17.8201
  0
LINE
  8
0
 10
-9.0798
 20
-17.8201
 11
-9.38942
 21
-17.659
  0
LINE
  8
0
 10
-9.38942
 20
-17.659
 11
-9.69618
 21
-17.4924
  0
LINE
  8
0
 10
-9.69618
 20
-17.4924
 11
-10
 21
-17.3205
  0
LINE
  8
0
 10
-10
 20
-17.3205
 11
-10.3008
 21
-17.1433
  0
LINE
  8
0
 10
-10.3008
 20
-17.1433
 11
-10.5984
 21
-16.961
  0
LINE
  8
0
 10
-10.5984
 20
-16.961
 11
-10.8928
 21
-16.7734
  0
LINE
  8
0
 10
-10.8928
 20
-16.7734
 11
-11.1839
 21
-16.5807
  0
LINE
  8
0
 10
-11.1839
 20
-16.5807
 11
-11.4715
 21
-16.383
  0
LINE
  8
0
 10
-11.4715
 20
-16.383
 11
-11.7557
 21
-16.1803
  0
LINE
  8
0
 10
-11.7557
 20
-16.1803
 11
-12.0363
 21
-15.9727
  0
LINE
  8
0
 10
-12.0363
 20
-15.9727
 11
-12.3132
 21
-15.7602
  0
LINE
  8
0
 10
-12.3132
 20
-15.7602
 11
-12.5864
 21
-15.5429
  0
LINE
  8
0
 10
-12.5864
 20
-15.5429
 11
-12.8557
 21
-15.3209
  0
LINE
  8
0
 10
-12.8557
 20
-15.3209
 11
-13.1212
 21
-15.0942
  0
LINE
  8
0
 10
-13.1212
 20
-15.0942
 11
-13.3826
 21
-14.8629
  0
LINE
  8
0
 10
-13.3826
 20
-14.8629
 11
-13.64
 21
-14.6271
  0
LINE
  8
0
 10
-13.64
 20
-14.6271
 11
-13.8932
 21
-14.3868
  0
LINE
  8
0
 10
-13.8932
 20
-14.3868
 11
-14.1421
 21
-14.1421
  0
LINE
  8
0
 10
-14.1421
 20
-14.1421
 11
-14.3868
 21
-13.8932
  0
LINE
  8
0
 10
-14.3868
 20
-13.8932
 11
-14.6271
 21
-13.64
  0
LINE
  8
0
 10
-14.6271
 20
-13.64
 11
-14.8629
 21
-13.3826
  0
LINE
  8
0
 10
-14.8629
 20
-13.3826
 11
-15.0942
 21
-13.1212
  0
LINE
  8
0
 10
-15.0942
 20
-13.1212
 11
-15.3209
 21
-12.8557
  0
LINE
  8
0
 10
-15.3209
 20
-12.8557
 11
-15.5429
 21
-12.5864
  0
LINE
  8
0
 10
-15.5429
 20
-12.5864
 11
-15.7602
 21
-12.3132
  0
LINE
  8
0
 10
-15.7602
 20
-12.3132
 11
-15.9727
 21
-12.0363
  0
LINE
  8
0
 10
-15.9727
 20
-12.0363
 11
-16.1803
 21
-11.7557
  0
LINE
  8
0
 10
-16.1803
 20
-11.7557
 11
-16.383
 21
-11.4715
  0
LINE
  8
0
 10
-16.383
 20
-11.4715
 11
-16.5807
 21
-11.1839
  0
LINE
  8
0
 10
-16.5807
 20
-11.1839
 11
-16.7734
 21
-10.8928
  0
LINE
  8
0
 10
-16.7734
 20
-10.8928
 11
-16.961
 21
-10.5984
  0
LINE
  8
0
 10
-16.961
 20
-10.5984
 11
-17.1433
 21
-10.3008
  0
LINE
  8
0
 10
-17.1433
 20
-10.3008
 11
-17.3205
 21
-10
  0
LINE
  8
0
 10
-17.3205
 20
-10
 11
-17.4924
 21
-9.69618
  0
LINE
  8
0
 10
-17.4924
 20
-9.69618
 11
-17.659
 21
-9.38942
  0
LINE
  8
0
 10
-17.659
 20
-9.38942
 11
-17.8201
 21
-9.0798
  0
LINE
  8
0
 10
-17.8201
 20
-9.0798
 11
-17.9759
 21
-8.76741
  0
LINE
  8
0
 10
-17.9759
 20
-8.76741
 11
-18.1261
 21
-8.45236
  0
LINE
  8
0
 10
-18.1261
 20
-8.45236
 11
-18.2709
 21
-8.13472
  0
LINE
  8
0
 10
-18.2709
 20
-8.13472
 11
-18.4101
 21
-7.81462
  0
LINE
  8
0
 10
-18.4101
 20
-7.81462
 11
-18.5437
 21
-7.49213
  0
LINE
  8
0
 10
-18.5437
 20
-7.49213
 11
-18.6716
 21
-7.16736
  0
LINE
  8
0
 10
-18.6716
 20
-7.16736
 11
-18.7938
 21
-6.84039
  0
LINE
  8
0
 10
-18.7938
 20
-6.84039
 11
-18.9104
 21
-6.51135
  0
LINE
  8
0
 10
-18.9104
 20
-6.51135
 11
-19.0211
 21
-6.18033
  0
LINE
  8
0
 10
-19.0211
 20
-6.18033
 11
-19.1261
 21
-5.84743
  0
LINE
  8
0
 10
-19.1261
 20
-5.84743
 11
-19.2252
 21
-5.51274
  0
LINE
  8
0
 10
-19.2252
 20
-5.51274
 11
-19.3185
 21
-5.17638
  0
LINE
  8
0
 10
-19.3185
 20
-5.17638
 11
-19.4059
 21
-4.83842
  0
LINE
  8
0
 10
-19.4059
 20
-4.83842
 11
-19.4874
 21
-4.49901
  0
LINE
  8
0
 10
-19.4874
 20
-4.49901
 11
-19.5629
 21
-4.15823
  0
LINE
  8
0
 10
-19.5629
 20
-4.15823
 11
-19.6325
 21
-3.81618
  0
LINE
  8
0
 10
-19.6325
 20
-3.81618
 11
-19.6962
 21
-3.47296
  0
LINE
  8
0
 10
-19.6962
 20
-3.47296
 11
-19.7538
 21
-3.12868
  0
LINE
  8
0
 10
-19.7538
 20
-3.12868
 11
-19.8054
 21
-2.78345
  0
LINE
  8
0
 10
-19.8054
 20
-2.78345
 11
-19.8509
 21
-2.43738
  0
LINE
  8
0
 10
-19.8509
 20
-2.43738
 11
-19.8904
 21
-2.09056
  0
LINE
  8
0
 10
-19.8904
 20
-2.09056
 11
-19.9239
 21
-1.7431
  0
LINE
  8
0
 10
-19.9239
 20
-1.7431
 11
-19.9513
 21
-1.39513
  0
LINE
  8
0
 10
-19.9513
 20
-1.39513
 11
-19.9726
 21
-1.04671
  0
LINE
  8
0
 10
-19.9726
 20
-1.04671
 11
-19.9878
 21
-0.697983
  0
LINE
  8
0
 10
-19.9878
 20
-0.697983
 11
-19.9969
 21
-0.349045
  0
LINE
  8
0
 10
-19.9969
 20
-0.349045
 11
-20
 21
0
  0
LINE
  8
0
 10
-20
 20
0
 11
-19.9969
 21
0.349045
  0
LINE
  8
0
 10
-19.9969
 20
0.349045
 11
-19.9878
 21
0.697983
  0
LINE
  8
0
 10
-19.9878
 20
0.697983
 11
-19.9726
 21
1.04671
  0
LINE
  8
0
 10
-19.9726
 20
1.04671
 11
-19.9513
 21
1.39513
  0
LINE
  8
0
 10
-19.9513
 20
1.39513
 11
-19.9239
 21
1.7431
  0
LINE
  8
0
 10
-19.9239
 20
1.7431
 11
-19.8904
 21
2.09056
  0
LINE
  8
0
 10
-19.8904
 20
2.09056
 11
-19.8509
 21
2.43738
  0
LINE
  8
0
 10
-19.8509
 20
2.43738
 11
-19.8054
 21
2.78345
  0
LINE
  8
0
 10
-19.8054
 20
2.78345
 11
-19.7538
 21
3.12868
  0
LINE
  8
0
 10
-19.7538
 20
3.12868
 11
-19.6962
 21
3.47296
  0
LINE
  8
0
 10
-19.6962
 20
3.47296
 11
-19.6325
 21
3.81618
  0
LINE
  8
0
 10
-19.6325
 20
3.81618
 11
-19.5629
 21
4.15823
  0
LINE
  8
0
 10
-19.5629
 20
4.15823
 11
-19.4874
 21
4.49901
  0
LINE
  8
0
 10
-19.4874
 20
4.49901
 11
-19.4059
 21
4.83842
  0
LINE
  8
0
 10
-19.4059
 20
4.83842
 11
-19.3185
 21
5.17638
  0
LINE
  8
0
 10
-19.3185
 20
5.17638
 11
-19.2252
 21
5.51274
  0
LINE
  8
0
 10
-19.2252
 20
5.51274
 11
-19.1261
 21
5.84743
  0
LINE
  8
0
 10
-19.1261
 20
5.84743
 11
-19.0211
 21
6.18033
  0
LINE
  8
0
 10
-19.0211
 20
6.18033
 11
-18.9104
 21
6.51135
  0
LINE
  8
0
 10
-18.9104
 20
6.51135
 11
-18.7938
 21
6.84039
  0
LINE
  8
0
 10
-18.7938
 20
6.84039
 11
-18.6716
 21
7.16736
  0
LINE
  8
0
 10
-18.6716
 20
7.16736
 11
-18.5437
 21
7.49213
  0
LINE
  8
0
 10
-18.5437
 20
7.49213
 11
-18.4101
 21
7.81462
  0
LINE
  8
0
 10
-18.4101
 20
7.81462
 11
-18.2709
 21
8.13472
  0
LINE
  8
0
 10
-18.2709
 20
8.13472
 11
-18.1261
 21
8.45236
  0
LINE
  8
0
 10
-18.1261
 20
8.45236
 11
-17.9759
 21
8.76741
  0
LINE
  8
0
 10
-17.9759
 20
8.76741
 11
-17.8201
 21
9.0798
  0
LINE
  8
0
 10
-17.8201
 20
9.0798
 11
-17.659
 21
9.38942
  0
LINE
  8
0
 10
-17.659
 20
9.38942
 11
-17.4924
 21
9.69618
  0
LINE
  8
0
 10
-17.4924
 20
9.69618
 11
-17.3205
 21
10
  0
LINE
  8
0
 10
-17.3205
 20
10
 11
-17.1433
 21
10.3008
  0
LINE
  8
0
 10
-17.1433
 20
10.3008
 11
-16.961
 21
10.5984
  0
LINE
  8
0
 10
-16.961
 20
10.5984
 11
-16.7734
 21
10.8928
  0
LINE
  8
0
 10
-16.7734
 20
10.8928
 11
-16.5807
 21
11.1839
  0
LINE
  8
0
 10
-16.5807
 20
11.1839
 11
-16.383
 21
11.4715
  0
LINE
  8
0
 10
-16.383
 20
11.4715
 11
-16.1803
 21
11.7557
  0
LINE
  8
0
 10
-16.1803
 20
11.7557
 11
-15.9727
 21
12.0363
  0
LINE
  8
0
 10
-15.9727
 20
12.0363
 11
-15.7602
 21
12.3132
  0
LINE
  8
0
 10
-15.7602
 20
12.3132
 11
-15.5429
 21
12.5864
  0
LINE
  8
0
 10
-15.5429
 20
12.5864
 11
-15.3209
 21
12.8557
  0
LINE
  8
0
 10
-15.3209
 20
12.8557
 11
-15.0942
 21
13.1212
  0
LINE
  8
0
 10
-15.0942
 20
13.1212
 11
-14.8629
 21
13.3826
  0
LINE
  8
0
 10
-14.8629
 20
13.3826
 11
-14.6271
 21
13.64
  0
LINE
  8
0
 10
-14.6271
 20
13.64
 11
-14.3868
 21
13.8932
  0
LINE
  8
0
 10
-14.3868
 20
13.8932
 11
-14.1421
 21
14.1421
  0
LINE
  8
0
 10
-14.1421
 20
14.1421
 11
-13.8932
 21
14.3868
  0
LINE
  8
0
 10
-13.8932
 20
14.3868
 11
-13.64
 21
14.6271
  0
LINE
  8
0
 10
-13.64
 20
14.6271
 11
-13.3826
 21
14.8629
  0
LINE
  8
0
 10
-13.3826
 20
14.8629
 11
-13.1212
 21
15.0942
  0
LINE
  8
0
 10
-13.1212
 20
15.0942
 11
-12.8557
 21
15.3209
  0
LINE
  8
0
 10
-12.8557
 20
15.3209
 11
-12.5864
 21
15.5429
  0
LINE
  8
0
 10
-12.5864
 20
15.5429
 11
-12.3132
 21
15.7602
  0
LINE
  8
0
 10
-12.3132
 20
15.7602
 11
-12.0363
 21
15.9727
  0
LINE
  8
0
 10
-12.0363
 20
15.9727
 11
-11.7557
 21
16.1803
  0
LINE
  8
0
 10
-11.7557
 20
16.1803
 11
-11.4715
 21
16.383
  0
LINE
  8
0
 10
-11.4715
 20
16.383
 11
-11.1839
 21
16.5807
  0
LINE
  8
0
 10
-11.1839
 20
16.5807
 11
-10.8928
 21
16.7734
  0
LINE
  8
0
 10
-10.8928
 20
16.7734
 11
-10.5984
 21
16.961
  0
LINE
  8
0
 10
-10.5984
 20
16.961
 11
-10.3008
 21
17.1433
  0
LINE
  8
0
 10
-10.3008
 20
17.1433
 11
-10
 21
17.3205
  0
LINE
  8
0
 10
-10
 20
17.3205
 11
-9.69618
 21
17.4924
  0
LINE
  8
0
 10
-9.69618
 20
17.4924
 11
-9.38942
 21
17.659
  0
LINE
  8
0
 10
-9.38942
 20
17.659
 11
-9.0798
 21
17.8201
  0
LINE
  8
0
 10
-9.0798
 20
17.8201
 11
-8.76741
 21
17.9759
  0
LINE
  8
0
 10
-8.76741
 20
17.9759
 11
-8.45236
 21
18.1261
  0
LINE
  8
0
 10
-8.45236
 20
18.1261
 11
-8.13472
 21
18.2709
  0
LINE
  8
0
 10
-8.13472
 20
18.2709
 11
-7.81462
 21
18.4101
  0
LINE
  8
0
 10
-7.81462
 20
18.4101
 11
-7.49213
 21
18.5437
  0
LINE
  8
0
 10
-7.49213
 20
18.5437
 11
-7.16736
 21
18.6716
  0
LINE
  8
0
 10
-7.16736
 20
18.6716
 11
-6.84039
 21
18.7938
  0
LINE
  8
0
 10
-6.84039
 20
18.7938
 11
-6.51135
 21
18.9104
  0
LINE
  8
0
 10
-6.51135
 20
18.9104
 11
-6.18033
 21
19.0211
  0
LINE
  8
0
 10
-6.18033
 20
19.0211
 11
-5.84743
 21
19.1261
  0
LINE
  8
0
 10
-5.84743
 20
19.1261
 11
-5.51274
 21
19.2252
  0
LINE
  8
0
 10
-5.51274
 20
19.2252
 11
-5.17638
 21
19.3185
  0
LINE
  8
0
 10
-5.17638
 20
19.3185
 11
-4.83842
 21
19.4059
  0
LINE
  8
0
 10
-4.83842
 20
19.4059
 11
-4.49901
 21
19.4874
  0
LINE
  8
0
 10
-4.49901
 20
19.4874
 11
-4.15823
 21
19.5629
  0
LINE
  8
0
 10
-4.15823
 20
19.5629
 11
-3.81618
 21
19.6325
  0
LINE
  8
0
 10
-3.81618
 20
19.6325
 11
-3.47296
 21
19.6962
  0
LINE
  8
0
 10
-3.47296
 20
19.6962
 11
-3.12868
 21
19.7538
  0
LINE
  8
0
 10
-3.12868
 20
19.7538
 11
-2.78345
 21
19.8054
  0
LINE
  8
0
 10
-2.78345
 20
19.8054
 11
-2.43738
 21
19.8509
  0
LINE
  8
0
 10
-2.43738
 20
19.8509
 11
-2.09056
 21
19.8904
  0
LINE
  8
0
 10
-2.09056
 20
19.8904
 11
-1.7431
 21
19.9239
  0
LINE
  8
0
 10
-1.7431
 20
19.9239
 11
-1.39513
 21
19.9513
  0
LINE
  8
0
 10
-1.39513
 20
19.9513
 11
-1.04671
 21
19.9726
  0
LINE
  8
0
 10
-1.04671
 20
19.9726
 11
-0.697983
 21
19.9878
  0
LINE
  8
0
 10
-0.697983
 20
19.9878
 11
-0.349045
 21
19.9969
  0
LINE
  8
0
 10
-0.349045
 20
19.9969
 11
0
 21
20
  0
LINE
  8
0
 10
0
 20
20
 11
0.349045
 21
19.9969
  0
LINE
  8
0
 10
0.349045
 20
19.9969
 11
0.697983
 21
19.9878
  0
LINE
  8
0
 10
0.697983
 20
19.9878
 11
1.04671
 21
19.9726
  0
LINE
  8
0
 10
1.04671
 20
19.9726
 11
1.39513
 21
19.9513
  0
LINE
  8
0
 10
1.39513
 20
19.9513
 11
1.7431
 21
19.9239
  0
LINE
  8
0
 10
1.7431
 20
19.9239
 11
2.09056
 21
19.8904
  0
LINE
  8
0
 10
2.09056
 20
19.8904
 11
2.43738
 21
19.8509
  0
LINE
  8
0
 10
2.43738
 20
19.8509
 11
2.78345
 21
19.8054
  0
LINE
  8
0
 10
2.78345
 20
19.8054
 11
3.12868
 21
19.7538
  0
LINE
  8
0
 10
3.12868
 20
19.7538
 11
3.47296
 21
19.6962
  0
LINE
  8
0
 10
3.47296
 20
19.6962
 11
3.81618
 21
19.6325
  0
LINE
  8
0
 10
3.81618
 20
19.6325
 11
4.15823
 21
19.5629
  0
LINE
  8
0
 10
4.15823
 20
19.5629
 11
4.49901
 21
19.4874
  0
LINE
  8
0
 10
4.49901
 20
19.4874
 11
4.83842
 21
19.4059
  0
LINE
  8
0
 10
4.83842
 20
19.4059
 11
5.17638
 21
19.3185
  0
LINE
  8
0
 10
5.17638
 20
19.3185
 11
5.51274
 21
19.2252
  0
LINE
  8
0
 10
5.51274
 20
19.2252
 11
5.84743
 21
19.1261
  0
LINE
  8
0
 10
5.84743
 20
19.1261
 11
6.18033
 21
19.0211
  0
LINE
  8
0
 10
6.18033
 20
19.0211
 11
6.51135
 21
18.9104
  0
LINE
  8
0
 10
6.51135
 20
18.9104
 11
6.84039
 21
18.7938
  0
LINE
  8
0
 10
6.84039
 20
18.7938
 11
7.16736
 21
18.6716
  0
LINE
  8
0
 10
7.16736
 20
18.6716
 11
7.49213
 21
18.5437
  0
LINE
  8
0
 10
7.49213
 20
18.5437
 11
7.81462
 21
18.4101
  0
LINE
  8
0
 10
7.81462
 20
18.4101
 11
8.13472
 21
18.2709
  0
LINE
  8
0
 10
8.13472
 20
18.2709
 11
8.45236
 21
18.1261
  0
LINE
  8
0
 10
8.45236
 20
18.1261
 11
8.76741
 21
17.9759
  0
LINE
  8
0
 10
8.76741
 20
17.9759
 11
9.0798
 21
17.8201
  0
LINE
  8
0
 10
9.0798
 20
17.8201
 11
9.38942
 21
17.659
  0
LINE
  8
0
 10
9.38942
 20
17.659
 11
9.69618
 21
17.4924
  0
LINE
  8
0
 10
9.69618
 20
17.4924
 11
10
 21
17.3205
  0
LINE
  8
0
 10
10
 20
17.3205
 11
10.3008
 21
17.1433
  0
LINE
  8
0
 10
10.3008
 20
17.1433
 11
10.5984
 21
16.961
  0
LINE
  8
0
 10
10.5984
 20
16.961
 11
10.8928
 21
16.7734
  0
LINE
  8
0
 10
10.8928
 20
16.7734
 11
11.1839
 21
16.5807
  0
LINE
  8
0
 10
11.1839
 20
16.5807
 11
11.4715
 21
16.383
  0
LINE
  8
0
 10
11.4715
 20
16.383
 11
11.7557
 21
16.1803
  0
LINE
  8
0
 10
11.7557
 20
16.1803
 11
12.0363
 21
15.9727
  0
LINE
  8
0
 10
12.0363
 20
15.9727
 11
12.3132
 21
15.7602
  0
LINE
  8
0
 10
12.3132
 20
15.7602
 11
12.5864
 21
15.5429
  0
LINE
  8
0
 10
12.5864
 20
15.5429
 11
12.8557
 21
15.3209
  0
LINE
  8
0
 10
12.8557
 20
15.3209
 11
13.1212
 21
15.0942
  0
LINE
  8
0
 10
13.1212
 20
15.0942
 11
13.3826
 21
14.8629
  0
LINE
  8
0
 10
13.3826
 20
14.8629
 11
13.64
 21
14.6271
  0
LINE
  8
0
 10
13.64
 20
14.6271
 11
13.8932
 21
14.3868
  0
LINE
  8
0
 10
13.8932
 20
14.3868
 11
14.1421
 21
14.1421
  0
LINE
  8
0
 10
14.1421
 20
14.1421
 11
14.3868
 21
13.8932
  0
LINE
  8
0
 10
14.3868
 20
13.8932
 11
14.6271
 21
13.64
  0
LINE
  8
0
 10
14.6271
 20
13.64
 11
14.8629
 21
13.3826
  0
LINE
  8
0
 10
14.8629
 20
13.3826
 11
15.0942
 21
13.1212
  0
LINE
  8
0
 10
15.0942
 20
13.1212
 11
15.3209
 21
12.8557
  0
LINE
  8
0
 10
15.3209
 20
12.8557
 11
15.5429
 21
12.5864
  0
LINE
  8
0
 10
15.5429
 20
12.5864
 11
15.7602
 21
12.3132
  0
LINE
  8
0
 10
15.7602
 20
12.3132
 11
15.9727
 21
12.0363
  0
LINE
  8
0
 10
15.9727
 20
12.0363
 11
16.1803
 21
11.7557
  0
LINE
  8
0
 10
16.1803
 20
11.7557
 11
16.383
 21
11.4715
  0
LINE
  8
0
 10
16.383
 20
11.4715
 11
16.5807
 21
11.1839
  0
LINE
  8
0
 10
16.5807
 20
11.1839
 11
16.7734
 21
10.8928
  0
LINE
  8
0
 10
16.7734
 20
10.8928
 11
16.961
 21
10.5984
  0
LINE
  8
0
 10
16.961
 20
10.5984
 11
17.1433
 21
10.3008
  0
LINE
  8
0
 10
17.1433
 20
10.3008
 11
17.3205
 21
10
  0
LINE
  8
0
 10
17.3205
 20
10
 11
17.4924
 21
9.69618
  0
LINE
  8
0
 10
17.4924
 20
9.69618
 11
17.659
 21
9.38942
  0
LINE
  8
0
 10
17.659
 20
9.38942
 11
17.8201
 21
9.0798
  0
LINE
  8
0
 10
17.8201
 20
9.0798
 11
17.9759
 21
8.76741
  0
LINE
  8
0
 10
17.9759
 20
8.76741
 11
18.1261
 21
8.45236
  0
LINE
  8
0
 10
18.1261
 20
8.45236
 11
18.2709
 21
8.13472
  0
LINE
  8
0
 10
18.2709
 20
8.13472
 11
18.4101
 21
7.81462
  0
LINE
  8
0
 10
18.4101
 20
7.81462
 11
18.5437
 21
7.49213
  0
LINE
  8
0
 10
18.5437
 20
7.49213
 11
18.6716
 21
7.16736
  0
LINE
  8
0
 10
18.6716
 20
7.16736
 11
18.7938
 21
6.84039
  0
LINE
  8
0
 10
18.7938
 20
6.84039
 11
18.9104
 21
6.51135
  0
LINE
  8
0
 10
18.9104
 20
6.51135
 11
19.0211
 21
6.18033
  0
LINE
  8
0
 10
19.0211
 20
6.18033
 11
19.1261
 21
5.84743
  0
LINE
  8
0
 10
19.1261
 20
5.84743
 11
19.2252
 21
5.51274
  0
LINE
  8
0
 10
19.2252
 20
5.51274
 11
19.3185
 21
5.17638
  0
LINE
  8
0
 10
19.3185
 20
5.17638
 11
19.4059
 21
4.83842
  0
LINE
  8
0
 10
19.4059
 20
4.83842
 11
19.4874
 21
4.49901
  0
LINE
  8
0
 10
19.4874
 20
4.49901
 11
19.5629
 21
4.15823
  0
LINE
  8
0
 10
19.5629
 20
4.15823
 11
19.6325
 21
3.81618
  0
LINE
  8
0
 10
19.6325
 20
3.81618
 11
19.6962
 21
3.47296
  0
LINE
  8
0
 10
19.6962
 20
3.47296
 11
19.7538
 21
3.12868
  0
LINE
  8
0
 10
19.7538
 20
3.12868
 11
19.8054
 21
2.78345
  0
LINE
  8
0
 10
19.8054
 20
2.78345
 11
19.8509
 21
2.43738
  0
LINE
  8
0
 10
19.8509
 20
2.43738
 11
19.8904
 21
2.09056
  0
LINE
  8
0
 10
19.8904
 20
2.09056
 11
19.9239
 21
1.7431
  0
LINE
  8
0
 10
19.9239
 20
1.7431
 11
19.9513
 21
1.39513
  0
LINE
  8
0
 10
19.9513
 20
1.39513
 11
19.9726
 21
1.04671
  0
LINE
  8
0
 10
19.9726
 20
1.04671
 11
19.9878
 21
0.697983
  0
LINE
  8
0
 10
19.9878
 20
0.697983
 11
19.9969
 21
0.349045
  0
LINE
  8
0
 10
19.9969
 20
0.349045
 11
20
 21
0
  0
LINE
  8
0
 10
20
 20
0
 11
19.9969
 21
-0.349045
  0
LINE
  8
0
 10
19.9969
 20
-0.349045
 11
19.9878
 21
-0.697983
  0
LINE
  8
0
 10
19.9878
 20
-0.697983
 11
19.9726
 21
-1.04671
  0
LINE
  8
0
 10
19.9726
 20
-1.04671
 11
19.9513
 21
-1.39513
  0
LINE
  8
0
 10
19.9513
 20
-1.39513
 11
19.9239
 21
-1.7431
  0
LINE
  8
0
 10
19.9239
 20
-1.7431
 11
19.8904
 21
-2.09056
  0
LINE
  8
0
 10
19.8904
 20
-2.09056
 11
19.8509
 21
-2.43738
  0
LINE
  8
0
 10
19.8509
 20
-2.43738
 11
19.8054
 21
-2.78345
  0
LINE
  8
0
 10
19.8054
 20
-2.78345
 11
19.7538
 21
-3.12868
  0
LINE
  8
0
 10
19.7538
 20
-3.12868
 11
19.6962
 21
-3.47296
  0
LINE
  8
0
 10
19.6962
 20
-3.47296
 11
19.6325
 21
-3.81618
  0
LINE
  8
0
 10
19.6325
 20
-3.81618
 11
19.5629
 21
-4.15823
  0
LINE
  8
0
 10
19.5629
 20
-4.15823
 11
19.4874
 21
-4.49901
  0
LINE
  8
0
 10
19.4874
 20
-4.49901
 11
19.4059
 21
-4.83842
  0
LINE
  8
0
 10
19.4059
 20
-4.83842
 11
19.3185
 21
-5.17638
  0
LINE
  8
0
 10
19.3185
 20
-5.17638
 11
19.2252
 21
-5.51274
  0
LINE
  8
0
 10
19.2252
 20
-5.51274
 11
19.1261
 21
-5.84743
  0
LINE
  8
0
 10
19.1261
 20
-5.84743
 11
19.0211
 21
-6.18033
  0
LINE
  8
0
 10
19.0211
 20
-6.18033
 11
18.9104
 21
-6.51135
  0
LINE
  8
0
 10
18.9104
 20
-6.51135
 11
18.7938
 21
-6.84039
  0
LINE
  8
0
 10
18.7938
 20
-6.84039
 11
18.6716
 21
-7.16736
  0
LINE
  8
0
 10
18.6716
 20
-7.16736
 11
18.5437
 21
-7.49213
  0
LINE
  8
0
 10
18.5437
 20
-7.49213
 11
18.4101
 21
-7.81462
  0
LINE
  8
0
 10
18.4101
 20
-7.81462
 11
18.2709
 21
-8.13472
  0
LINE
  8
0
 10
18.2709
 20
-8.13472
 11
18.1261
 21
-8.45236
  0
LINE
  8
0
 10
18.1261
 20
-8.45236
 11
17.9759
 21
-8.76741
  0
LINE
  8
0
 10
17.9759
 20
-8.76741
 11
17.8201
 21
-9.0798
  0
LINE
  8
0
 10
17.8201
 20
-9.0798
 11
17.659
 21
-9.38942
  0
LINE
  8
0
 10
17.659
 20
-9.38942
 11
17.4924
 21
-9.69618
  0
LINE
  8
0
 10
17.4924
 20
-9.69618
 11
17.3205
 21
-10
  0
LINE
  8
0
 10
17.3205
 20
-10
 11
17.1433
 21
-10.3008
  0
LINE
  8
0
 10
17.1433
 20
-10.3008
 11
16.961
 21
-10.5984
  0
LINE
  8
0
 10
16.961
 20
-10.5984
 11
16.7734
 21
-10.8928
  0
LINE
  8
0
 10
16.7734
 20
-10.8928
 11
16.5807
 21
-11.1839
  0
LINE
  8
0
 10
16.5807
 20
-11.1839
 11
16.383
 21
-11.4715
  0
LINE
  8
0
 10
16.383
 20
-11.4715
 11
16.1803
 21
-11.7557
  0
LINE
  8
0
 10
16.1803
 20
-11.7557
 11
15.9727
 21
-12.0363
  0
LINE
  8
0
 10
15.9727
 20
-12.0363
 11
15.7602
 21
-12.3132
  0
LINE
  8
0
 10
15.7602
 20
-12.3132
 11
15.5429
 21
-12.5864
  0
LINE
  8
0
 10
15.5429
 20
-12.5864
 11
15.3209
 21
-12.8557
  0
LINE
  8
0
 10
15.3209
 20
-12.8557
 11
15.0942
 21
-13.1212
  0
LINE
  8
0
 10
15.0942
 20
-13.1212
 11
14.8629
 21
-13.3826
  0
LINE
  8
0
 10
14.8629
 20
-13.3826
 11
14.6271
 21
-13.64
  0
LINE
  8
0
 10
14.6271
 20
-13.64
 11
14.3868
 21
-13.8932
  0
LINE
  8
0
 10
14.3868
 20
-13.8932
 11
14.1421
 21
-14.1421
  0
LINE
  8
0
 10
14.1421
 20
-14.1421
 11
13.8932
 21
-14.3868
  0
LINE
  8
0
 10
13.8932
 20
-14.3868
 11
13.64
 21
-14.6271
  0
LINE
  8
0
 10
13.64
 20
-14.6271
 11
13.3826
 21
-14.8629
  0
LINE
  8
0
 10
13.3826
 20
-14.8629
 11
13.1212
 21
-15.0942
  0
LINE
  8
0
 10
13.1212
 20
-15.0942
 11
12.8557
 21
-15.3209
  0
LINE
  8
0
 10
12.8557
 20
-15.3209
 11
12.5864
 21
-15.5429
  0
LINE
  8
0
 10
12.5864
 20
-15.5429
 11
12.3132
 21
-15.7602
  0
LINE
  8
0
 10
12.3132
 20
-15.7602
 11
12.0363
 21
-15.9727
  0
LINE
  8
0
 10
12.0363
 20
-15.9727
 11
11.7557
 21
-16.1803
  0
LINE
  8
0
 10
11.7557
 20
-16.1803
 11
11.4715
 21
-16.383
  0
LINE
  8
0
 10
11.4715
 20
-16.383
 11
11.1839
 21
-16.5807
  0
LINE
  8
0
 10
11.1839
 20
-16.5807
 11
10.8928
 21
-16.7734
  0
LINE
  8
0
 10
10.8928
 20
-16.7734
 11
10.5984
 21
-16.961
  0
LINE
  8
0
 10
10.5984
 20
-16.961
 11
10.3008
 21
-17.1433
  0
LINE
  8
0
 10
10.3008
 20
-17.1433
 11
10
 21
-17.3205
  0
LINE
  8
0
 10
10
 20
-17.3205
 11
9.69618
 21
-17.4924
  0
LINE
  8
0
 10
9.69618
 20
-17.4924
 11
9.38942
 21
-17.659
  0
LINE
  8
0
 10
9.38942
 20
-17.659
 11
9.0798
 21
-17.8201
  0
LINE
  8
0
 10
9.0798
 20
-17.8201
 11
8.76741
 21
-17.9759
  0
LINE
  8
0
 10
8.76741
 20
-17.9759
 11
8.45236
 21
-18.1261
  0
LINE
  8
0
 10
8.45236
 20
-18.1261
 11
8.13472
 21
-18.2709
  0
LINE
  8
0
 10
8.13472
 20
-18.2709
 11
7.81462
 21
-18.4101
  0
LINE
  8
0
 10
7.81462
 20
-18.4101
 11
7.49213
 21
-18.5437
  0
LINE
  8
0
 10
7.49213
 20
-18.5437
 11
7.16736
 21
-18.6716
  0
LINE
  8
0
 10
7.16736
 20
-18.6716
 11
6.84039
 21
-18.7938
  0
LINE
  8
0
 10
6.84039
 20
-18.7938
 11
6.51135
 21
-18.9104
  0
LINE
  8
0
 10
6.51135
 20
-18.9104
 11
6.18033
 21
-19.0211
  0
LINE
  8
0
 10
6.18033
 20
-19.0211
 11
5.84743
 21
-19.1261
  0
LINE
  8
0
 10
5.84743
 20
-19.1261
 11
5.51274
 21
-19.2252
  0
LINE
  8
0
 10
5.51274
 20
-19.2252
 11
5.17638
 21
-19.3185
  0
LINE
  8
0
 10
5.17638
 20
-19.3185
 11
4.83842
 21
-19.4059
  0
LINE
  8
0
 10
4.83842
 20
-19.4059
 11
4.49901
 21
-19.4874
  0
LINE
  8
0
 10
4.49901
 20
-19.4874
 11
4.15823
 21
-19.5629
  0
LINE
  8
0
 10
4.15823
 20
-19.5629
 11
3.81618
 21
-19.6325
  0
LINE
  8
0
 10
3.81618
 20
-19.6325
 11
3.47296
 21
-19.6962
  0
LINE
  8
0
 10
3.47296
 20
-19.6962
 11
3.12868
 21
-19.7538
  0
LINE
  8
0
 10
3.12868
 20
-19.7538
 11
2.78345
 21
-19.8054
  0
LINE
  8
0
 10
2.78345
 20
-19.8054
 11
2.43738
 21
-19.8509
  0
LINE
  8
0
 10
2.43738
 20
-19.8509
 11
2.09056
 21
-19.8904
  0
LINE
  8
0
 10
2.09056
 20
-19.8904
 11
1.7431
 21
-19.9239
  0
LINE
  8
0
 10
1.7431
 20
-19.9239
 11
1.39513
 21
-19.9513
  0
LINE
  8
0
 10
1.39513
 20
-19.9513
 11
1.04671
 21
-19.9726
  0
LINE
  8
0
 10
1.04671
 20
-19.9726
 11
0.697983
 21
-19.9878
  0
LINE
  8
0
 10
0.697983
 20
-19.9878
 11
0.349045
 21
-19.9969
  0
LINE
  8
0
 10
0.349045
 20
-19.9969
 11
0
 21
-20
  0
LINE
  8
0
 10
0
 20
-20
 11
-0.349045
 21
-19.9969
  0
LINE
  8
0
 10
-31.0349
 20
-1.99969
 11
-31.0698
 21
-1.99878
  0
LINE
  8
0
 10
-31.0698
 20
-1.99878
 11
-31.1047
 21
-1.99725
  0
LINE
  8
0
 10
-31.1047
 20
-1.99725
 11
-31.1395
 21
-1.99512
  0
LINE
  8
0
 10
-31.1395
 20
-1.99512
 11
-31.1743
 21
-1.99239
  0
LINE
  8
0
 10
-31.1743
 20
-1.99239
 11
-31.209
 21
-1.98903
  0
LINE
  8
0
 10
-31.209
 20
-1.98903
 11
-31.2437
 21
-1.98509
  0
LINE
  8
0
 10
-31.2437
 20
-1.98509
 11
-31.2783
 21
-1.98053
  0
LINE
  8
0
 10
-31.2783
 20
-1.98053
 11
-31.3129
 21
-1.97537
  0
LINE
  8
0
 10
-31.3129
 20
-1.97537
 11
-31.3473
 21
-1.9696
  0
LINE
  8
0
 10
-31.3473
 20
-1.9696
 11
-31.3816
 21
-1.96324
  0
LINE
  8
0
 10
-31.3816
 20
-1.96324
 11
-31.4158
 21
-1.95628
  0
LINE
  8
0
 10
-31.4158
 20
-1.95628
 11
-31.4499
 21
-1.94873
  0
LINE
  8
0
 10
-31.4499
 20
-1.94873
 11
-31.4838
 21
-1.94058
  0
LINE
  8
0
 10
-31.4838
 20
-1.94058
 11
-31.5176
 21
-1.93184
  0
LINE
  8
0
 10
-31.5176
 20
-1.93184
 11
-31.5513
 21
-1.92252
  0
LINE
  8
0
 10
-31.5513
 20
-1.92252
 11
-31.5847
 21
-1.9126
  0
LINE
  8
0
 10
-31.5847
 20
-1.9126
 11
-31.618
 21
-1.9021
  0
LINE
  8
0
 10
-31.618
 20
-1.9021
 11
-31.6511
 21
-1.89104
  0
LINE
  8
0
 10
-31.6511
 20
-1.89104
 11
-31.684
 21
-1.87938
  0
LINE
  8
0
 10
-31.684
 20
-1.87938
 11
-31.7167
 21
-1.86716
  0
LINE
  8
0
 10
-31.7167
 20
-1.86716
 11
-31.7492
 21
-1.85435
  0
LINE
  8
0
 10
-31.7492
 20
-1.85435
 11
-31.7814
 21
-1.841
  0
LINE
  8
0
 10
-31.7814
 20
-1.841
 11
-31.8135
 21
-1.82709
  0
LINE
  8
0
 10
-31.8135
 20
-1.82709
 11
-31.8452
 21
-1.81261
  0
LINE
  8
0
 10
-31.8452
 20
-1.81261
 11
-31.8767
 21
-1.79758
  0
LINE
  8
0
 10
-31.8767
 20
-1.79758
 11
-31.908
 21
-1.78201
  0
LINE
  8
0
 10
-31.908
 20
-1.78201
 11
-31.9389
 21
-1.76588
  0
LINE
  8
0
 10
-31.9389
 20
-1.76588
 11
-31.9696
 21
-1.74924
  0
LINE
  8
0
 10
-31.9696
 20
-1.74924
 11
-32
 21
-1.73204
  0
LINE
  8
0
 10
-32
 20
-1.73204
 11
-32.0301
 21
-1.71432
  0
LINE
  8
0
 10
-32.0301
 20
-1.71432
 11
-32.0598
 21
-1.69609
  0
LINE
  8
0
 10
-32.0598
 20
-1.69609
 11
-32.0893
 21
-1.67734
  0
LINE
  8
0
 10
-32.0893
 20
-1.67734
 11
-32.1184
 21
-1.65807
  0
LINE
  8
0
 10
-32.1184
 20
-1.65807
 11
-32.1471
 21
-1.63829
  0
LINE
  8
0
 10
-32.1471
 20
-1.63829
 11
-32.1756
 21
-1.61803
  0
LINE
  8
0
 10
-32.1756
 20
-1.61803
 11
-32.2036
 21
-1.59726
  0
LINE
  8
0
 10
-32.2036
 20
-1.59726
 11
-32.2313
 21
-1.57602
  0
LINE
  8
0
 10
-32.2313
 20
-1.57602
 11
-32.2586
 21
-1.55429
  0
LINE
  8
0
 10
-32.2586
 20
-1.55429
 11
-32.2856
 21
-1.53207
  0
LINE
  8
0
 10
-32.2856
 20
-1.53207
 11
-32.3121
 21
-1.50941
  0
LINE
  8
0
 10
-32.3121
 20
-1.50941
 11
-32.3383
 21
-1.48628
  0
LINE
  8
0
 10
-32.3383
 20
-1.48628
 11
-32.364
 21
-1.46269
  0
LINE
  8
0
 10
-32.364
 20
-1.46269
 11
-32.3893
 21
-1.43867
  0
LINE
  8
0
 10
-32.3893
 20
-1.43867
 11
-32.4142
 21
-1.4142
  0
LINE
  8
0
 10
-32.4142
 20
-1.4142
 11
-32.4387
 21
-1.38931
  0
LINE
  8
0
 10
-32.4387
 20
-1.38931
 11
-32.4627
 21
-1.36398
  0
LINE
  8
0
 10
-32.4627
 20
-1.36398
 11
-32.4863
 21
-1.33826
  0
LINE
  8
0
 10
-32.4863
 20
-1.33826
 11
-32.5094
 21
-1.3121
  0
LINE
  8
0
 10
-32.5094
 20
-1.3121
 11
-32.5321
 21
-1.28557
  0
LINE
  8
0
 10
-32.5321
 20
-1.28557
 11
-32.5543
 21
-1.25864
  0
LINE
  8
0
 10
-32.5543
 20
-1.25864
 11
-32.576
 21
-1.23131
  0
LINE
  8
0
 10
-32.576
 20
-1.23131
 11
-32.5973
 21
-1.20363
  0
LINE
  8
0
 10
-32.5973
 20
-1.20363
 11
-32.618
 21
-1.17557
  0
LINE
  8
0
 10
-32.618
 20
-1.17557
 11
-32.6383
 21
-1.14714
  0
LINE
  8
0
 10
-32.6383
 20
-1.14714
 11
-32.6581
 21
-1.11838
  0
LINE
  8
0
 10
-32.6581
 20
-1.11838
 11
-32.6773
 21
-1.08926
  0
LINE
  8
0
 10
-32.6773
 20
-1.08926
 11
-32.6961
 21
-1.05983
  0
LINE
  8
0
 10
-32.6961
 20
-1.05983
 11
-32.7143
 21
-1.03008
  0
LINE
  8
0
 10
-32.7143
 20
-1.03008
 11
-32.732
 21
-1
  0
LINE
  8
0
 10
-32.732
 20
-1
 11
-32.7492
 21
-0.969604
  0
LINE
  8
0
 10
-32.7492
 20
-0.969604
 11
-32.7659
 21
-0.938934
  0
LINE
  8
0
 10
-32.7659
 20
-0.938934
 11
-32.782
 21
-0.907974
  0
LINE
  8
0
 10
-32.782
 20
-0.907974
 11
-32.7976
 21
-0.87674
  0
LINE
  8
0
 10
-32.7976
 20
-0.87674
 11
-32.8126
 21
-0.84523
  0
LINE
  8
0
 10
-32.8126
 20
-0.84523
 11
-32.8271
 21
-0.813461
  0
LINE
  8
0
 10
-32.8271
 20
-0.813461
 11
-32.841
 21
-0.781448
  0
LINE
  8
0
 10
-32.841
 20
-0.781448
 11
-32.8544
 21
-0.749207
  0
LINE
  8
0
 10
-32.8544
 20
-0.749207
 11
-32.8672
 21
-0.716736
  0
LINE
  8
0
 10
-32.8672
 20
-0.716736
 11
-32.8794
 21
-0.684036
  0
LINE
  8
0
 10
-32.8794
 20
-0.684036
 11
-32.891
 21
-0.651123
  0
LINE
  8
0
 10
-32.891
 20
-0.651123
 11
-32.9021
 21
-0.618027
  0
LINE
  8
0
 10
-32.9021
 20
-0.618027
 11
-32.9126
 21
-0.584732
  0
LINE
  8
0
 10
-32.9126
 20
-0.584732
 11
-32.9225
 21
-0.55127
  0
LINE
  8
0
 10
-32.9225
 20
-0.55127
 11
-32.9318
 21
-0.517624
  0
LINE
  8
0
 10
-32.9318
 20
-0.517624
 11
-32.9406
 21
-0.483841
  0
LINE
  8
0
 10
-32.9406
 20
-0.483841
 11
-32.9487
 21
-0.44989
  0
LINE
  8
0
 10
-32.9487
 20
-0.44989
 11
-32.9563
 21
-0.415817
  0
LINE
  8
0
 10
-32.9563
 20
-0.415817
 11
-32.9632
 21
-0.381607
  0
LINE
  8
0
 10
-32.9632
 20
-0.381607
 11
-32.9696
 21
-0.34729
  0
LINE
  8
0
 10
-32.9696
 20
-0.34729
 11
-32.9754
 21
-0.312866
  0
LINE
  8
0
 10
-32.9754
 20
-0.312866
 11
-32.9805
 21
-0.278336
  0
LINE
  8
0
 10
-32.9805
 20
-0.278336
 11
-32.9851
 21
-0.243729
  0
LINE
  8
0
 10
-32.9851
 20
-0.243729
 11
-32.989
 21
-0.209045
  0
LINE
  8
0
 10
-32.989
 20
-0.209045
 11
-32.9924
 21
-0.174301
  0
LINE
  8
0
 10
-32.9924
 20
-0.174301
 11
-32.9951
 21
-0.139511
  0
LINE
  8
0
 10
-32.9951
 20
-0.139511
 11
-32.9973
 21
-0.10466
  0
LINE
  8
0
 10
-32.9973
 20
-0.10466
 11
-32.9988
 21
-0.0697937
  0
LINE
  8
0
 10
-32.9988
 20
-0.0697937
 11
-32.9997
 21
-0.0348969
  0
LINE
  8
0
 10
-32.9997
 20
-0.0348969
 11
-33
 21
0
  0
LINE
  8
0
 10
-33
 20
0
 11
-32.9997
 21
0.0348969
  0
LINE
  8
0
 10
-32.9997
 20
0.0348969
 11
-32.9988
 21
0.0697937
  0
LINE
  8
0
 10
-32.9988
 20
0.0697937
 11
-32.9973
 21
0.10466
  0
LINE
  8
0
 10
-32.9973
 20
0.10466
 11
-32.9951
 21
0.139511
  0
LINE
  8
0
 10
-32.9951
 20
0.139511
 11
-32.9924
 21
0.174301
  0
LINE
  8
0
 10
-32.9924
 20
0.174301
 11
-32.989
 21
0.209045
  0
LINE
  8
0
 10
-32.989
 20
0.209045
 11
-32.9851
 21
0.243729
  0
LINE
  8
0
 10
-32.9851
 20
0.243729
 11
-32.9805
 21
0.278336
  0
LINE
  8
0
 10
-32.9805
 20
0.278336
 11
-32.9754
 21
0.312866
  0
LINE
  8
0
 10
-32.9754
 20
0.312866
 11
-32.9696
 21
0.34729
  0
LINE
  8
0
 10
-32.9696
 20
0.34729
 11
-32.9632
 21
0.381607
  0
LINE
  8
0
 10
-32.9632
 20
0.381607
 11
-32.9563
 21
0.415817
  0
LINE
  8
0
 10
-32.9563
 20
0.415817
 11
-32.9487
 21
0.44989
  0
LINE
  8
0
 10
-32.9487
 20
0.44989
 11
-32.9406
 21
0.483841
  0
LINE
  8
0
 10
-32.9406
 20
0.483841
 11
-32.9318
 21
0.517624
  0
LINE
  8
0
 10
-32.9318
 20
0.517624
 11
-32.9225
 21
0.55127
  0
LINE
  8
0
 10
-32.9225
 20
0.55127
 11
-32.9126
 21
0.584732
  0
LINE
  8
0
 10
-32.9126
 20
0.584732
 11
-32.9021
 21
0.618027
  0
LINE
  8
0
 10
-32.9021
 20
0.618027
 11
-32.891
 21
0.651123
  0
LINE
  8
0
 10
-32.891
 20
0.651123
 11
-32.8794
 21
0.684036
  0
LINE
  8
0
 10
-32.8794
 20
0.684036
 11
-32.8672
 21
0.716736
  0
LINE
  8
0
 10
-32.8672
 20
0.716736
 11
-32.8544
 21
0.749207
  0
LINE
  8
0
 10
-32.8544
 20
0.749207
 11
-32.841
 21
0.781448
  0
LINE
  8
0
 10
-32.841
 20
0.781448
 11
-32.8271
 21
0.813461
  0
LINE
  8
0
 10
-32.8271
 20
0.813461
 11
-32.8126
 21
0.84523
  0
LINE
  8
0
 10
-32.8126
 20
0.84523
 11
-32.7976
 21
0.87674
  0
LINE
  8
0
 10
-32.7976
 20
0.87674
 11
-32.782
 21
0.907974
  0
LINE
  8
0
 10
-32.782
 20
0.907974
 11
-32.7659
 21
0.938934
  0
LINE
  8
0
 10
-32.7659
 20
0.938934
 11
-32.7492
 21
0.969604
  0
LINE
  8
0
 10
-32.7492
 20
0.969604
 11
-32.732
 21
1
  0
LINE
  8
0
 10
-32.732
 20
1
 11
-32.7143
 21
1.03008
  0
LINE
  8
0
 10
-32.7143
 20
1.03008
 11
-32.6961
 21
1.05983
  0
LINE
  8
0
 10
-32.6961
 20
1.05983
 11
-32.6773
 21
1.08926
  0
LINE
  8
0
 10
-32.6773
 20
1.08926
 11
-32.6581
 21
1.11838
  0
LINE
  8
0
 10
-32.6581
 20
1.11838
 11
-32.6383
 21
1.14714
  0
LINE
  8
0
 10
-32.6383
 20
1.14714
 11
-32.618
 21
1.17557
  0
LINE
  8
0
 10
-32.618
 20
1.17557
 11
-32.5973
 21
1.20363
  0
LINE
  8
0
 10
-32.5973
 20
1.20363
 11
-32.576
 21
1.23131
  0
LINE
  8
0
 10
-32.576
 20
1.23131
 11
-32.5543
 21
1.25864
  0
LINE
  8
0
 10
-32.5543
 20
1.25864
 11
-32.5321
 21
1.28557
  0
LINE
  8
0
 10
-32.5321
 20
1.28557
 11
-32.5094
 21
1.3121
  0
LINE
  8
0
 10
-32.5094
 20
1.3121
 11
-32.4863
 21
1.33826
  0
LINE
  8
0
 10
-32.4863
 20
1.33826
 11
-32.4627
 21
1.36398
  0
LINE
  8
0
 10
-32.4627
 20
1.36398
 11
-32.4387
 21
1.38931
  0
LINE
  8
0
 10
-32.4387
 20
1.38931
 11
-32.4142
 21
1.4142
  0
LINE
  8
0
 10
-32.4142
 20
1.4142
 11
-32.3893
 21
1.43867
  0
LINE
  8
0
 10
-32.3893
 20
1.43867
 11
-32.364
 21
1.46269
  0
LINE
  8
0
 10
-32.364
 20
1.46269
 11
-32.3383
 21
1.48628
  0
LINE
  8
0
 10
-32.3383
 20
1.48628
 11
-32.3121
 21
1.50941
  0
LINE
  8
0
 10
-32.3121
 20
1.50941
 11
-32.2856
 21
1.53207
  0
LINE
  8
0
 10
-32.2856
 20
1.53207
 11
-32.2586
 21
1.55429
  0
LINE
  8
0
 10
-32.2586
 20
1.55429
 11
-32.2313
 21
1.57602
  0
LINE
  8
0
 10
-32.2313
 20
1.57602
 11
-32.2036
 21
1.59726
  0
LINE
  8
0
 10
-32.2036
 20
1.59726
 11
-32.1756
 21
1.61803
  0
LINE
  8
0
 10
-32.1756
 20
1.61803
 11
-32.1471
 21
1.63829
  0
LINE
  8
0
 10
-32.1471
 20
1.63829
 11
-32.1184
 21
1.65807
  0
LINE
  8
0
 10
-32.1184
 20
1.65807
 11
-32.0893
 21
1.67734
  0
LINE
  8
0
 10
-32.0893
 20
1.67734
 11
-32.0598
 21
1.69609
  0
LINE
  8
0
 10
-32.0598
 20
1.69609
 11
-32.0301
 21
1.71432
  0
LINE
  8
0
 10
-32.0301
 20
1.71432
 11
-32
 21
1.73204
  0
LINE
  8
0
 10
-32
 20
1.73204
 11
-31.9696
 21
1.74924
  0
LINE
  8
0
 10
-31.9696
 20
1.74924
 11
-31.9389
 21
1.76588
  0
LINE
  8
0
 10
-31.9389
 20
1.76588
 11
-31.908
 21
1.78201
  0
LINE
  8
0
 10
-31.908
 20
1.78201
 11
-31.8767
 21
1.79758
  0
LINE
  8
0
 10
-31.8767
 20
1.79758
 11
-31.8452
 21
1.81261
  0
LINE
  8
0
 10
-31.8452
 20
1.81261
 11
-31.8135
 21
1.82709
  0
LINE
  8
0
 10
-31.8135
 20
1.82709
 11
-31.7814
 21
1.841
  0
LINE
  8
0
 10
-31.7814
 20
1.841
 11
-31.7492
 21
1.85435
  0
LINE
  8
0
 10
-31.7492
 20
1.85435
 11
-31.7167
 21
1.86716
  0
LINE
  8
0
 10
-31.7167
 20
1.86716
 11
-31.684
 21
1.87938
  0
LINE
  8
0
 10
-31.684
 20
1.87938
 11
-31.6511
 21
1.89104
  0
LINE
  8
0
 10
-31.6511
 20
1.89104
 11
-31.618
 21
1.9021
  0
LINE
  8
0
 10
-31.618
 20
1.9021
 11
-31.5847
 21
1.9126
  0
LINE
  8
0
 10
-31.5847
 20
1.9126
 11
-31.5513
 21
1.92252
  0
LINE
  8
0
 10
-31.5513
 20
1.92252
 11
-31.5176
 21
1.93184
  0
LINE
  8
0
 10
-31.5176
 20
1.93184
 11
-31.4838
 21
1.94058
  0
LINE
  8
0
 10
-31.4838
 20
1.94058
 11
-31.4499
 21
1.94873
  0
LINE
  8
0
 10
-31.4499
 20
1.94873
 11
-31.4158
 21
1.95628
  0
LINE
  8
0
 10
-31.4158
 20
1.95628
 11
-31.3816
 21
1.96324
  0
LINE
  8
0
 10
-31.3816
 20
1.96324
 11
-31.3473
 21
1.9696
  0
LINE
  8
0
 10
-31.3473
 20
1.9696
 11
-31.3129
 21
1.97537
  0
LINE
  8
0
 10
-31.3129
 20
1.97537
 11
-31.2783
 21
1.98053
  0
LINE
  8
0
 10
-31.2783
 20
1.98053
 11
-31.2437
 21
1.98509
  0
LINE
  8
0
 10
-31.2437
 20
1.98509
 11
-31.209
 21
1.98903
  0
LINE
  8
0
 10
-31.209
 20
1.98903
 11
-31.1743
 21
1.99239
  0
LINE
  8
0
 10
-31.1743
 20
1.99239
 11
-31.1395
 21
1.99512
  0
LINE
  8
0
 10
-31.1395
 20
1.99512
 11
-31.1047
 21
1.99725
  0
LINE
  8
0
 10
-31.1047
 20
1.99725
 11
-31.0698
 21
1.99878
  0
LINE
  8
0
 10
-31.0698
 20
1.99878
 11
-31.0349
 21
1.99969
  0
LINE
  8
0
 10
-31.0349
 20
1.99969
 11
-31
 21
2
  0
LINE
  8
0
 10
-31
 20
2
 11
-30.9651
 21
1.99969
  0
LINE
  8
0
 10
-30.9651
 20
1.99969
 11
-30.9302
 21
1.99878
  0
LINE
  8
0
 10
-30.9302
 20
1.99878
 11
-30.8953
 21
1.99725
  0
LINE
  8
0
 10
-30.8953
 20
1.99725
 11
-30.8605
 21
1.99512
  0
LINE
  8
0
 10
-30.8605
 20
1.99512
 11
-30.8257
 21
1.99239
  0
LINE
  8
0
 10
-30.8257
 20
1.99239
 11
-30.7909
 21
1.98903
  0
LINE
  8
0
 10
-30.7909
 20
1.98903
 11
-30.7563
 21
1.98509
  0
LINE
  8
0
 10
-30.7563
 20
1.98509
 11
-30.7216
 21
1.98053
  0
LINE
  8
0
 10
-30.7216
 20
1.98053
 11
-30.6871
 21
1.97537
  0
LINE
  8
0
 10
-30.6871
 20
1.97537
 11
-30.6527
 21
1.9696
  0
LINE
  8
0
 10
-30.6527
 20
1.9696
 11
-30.6184
 21
1.96324
  0
LINE
  8
0
 10
-30.6184
 20
1.96324
 11
-30.5842
 21
1.95628
  0
LINE
  8
0
 10
-30.5842
 20
1.95628
 11
-30.5501
 21
1.94873
  0
LINE
  8
0
 10
-30.5501
 20
1.94873
 11
-30.5161
 21
1.94058
  0
LINE
  8
0
 10
-30.5161
 20
1.94058
 11
-30.4824
 21
1.93184
  0
LINE
  8
0
 10
-30.4824
 20
1.93184
 11
-30.4487
 21
1.92252
  0
LINE
  8
0
 10
-30.4487
 20
1.92252
 11
-30.4153
 21
1.9126
  0
LINE
  8
0
 10
-30.4153
 20
1.9126
 11
-30.382
 21
1.9021
  0
LINE
  8
0
 10
-30.382
 20
1.9021
 11
-30.3489
 21
1.89104
  0
LINE
  8
0
 10
-30.3489
 20
1.89104
 11
-30.3159
 21
1.87938
  0
LINE
  8
0
 10
-30.3159
 20
1.87938
 11
-30.2833
 21
1.86716
  0
LINE
  8
0
 10
-30.2833
 20
1.86716
 11
-30.2508
 21
1.85435
  0
LINE
  8
0
 10
-30.2508
 20
1.85435
 11
-30.2185
 21
1.841
  0
LINE
  8
0
 10
-30.2185
 20
1.841
 11
-30.1865
 21
1.82709
  0
LINE
  8
0
 10
-30.1865
 20
1.82709
 11
-30.1548
 21
1.81261
  0
LINE
  8
0
 10
-30.1548
 20
1.81261
 11
-30.1232
 21
1.79758
  0
LINE
  8
0
 10
-30.1232
 20
1.79758
 11
-30.092
 21
1.78201
  0
LINE
  8
0
 10
-30.092
 20
1.78201
 11
-30.0611
 21
1.76588
  0
LINE
  8
0
 10
-30.0611
 20
1.76588
 11
-30.0304
 21
1.74924
  0
LINE
  8
0
 10
-30.0304
 20
1.74924
 11
-30
 21
1.73204
  0
LINE
  8
0
 10
-30
 20
1.73204
 11
-29.9699
 21
1.71432
  0
LINE
  8
0
 10
-29.9699
 20
1.71432
 11
-29.9402
 21
1.69609
  0
LINE
  8
0
 10
-29.9402
 20
1.69609
 11
-29.9107
 21
1.67734
  0
LINE
  8
0
 10
-29.9107
 20
1.67734
 11
-29.8816
 21
1.65807
  0
LINE
  8
0
 10
-29.8816
 20
1.65807
 11
-29.8528
 21
1.63829
  0
LINE
  8
0
 10
-29.8528
 20
1.63829
 11
-29.8244
 21
1.61803
  0
LINE
  8
0
 10
-29.8244
 20
1.61803
 11
-29.7964
 21
1.59726
  0
LINE
  8
0
 10
-29.7964
 20
1.59726
 11
-29.7687
 21
1.57602
  0
LINE
  8
0
 10
-29.7687
 20
1.57602
 11
-29.7413
 21
1.55429
  0
LINE
  8
0
 10
-29.7413
 20
1.55429
 11
-29.7144
 21
1.53207
  0
LINE
  8
0
 10
-29.7144
 20
1.53207
 11
-29.6879
 21
1.50941
  0
LINE
  8
0
 10
-29.6879
 20
1.50941
 11
-29.6617
 21
1.48628
  0
LINE
  8
0
 10
-29.6617
 20
1.48628
 11
-29.636
 21
1.46269
  0
LINE
  8
0
 10
-29.636
 20
1.46269
 11
-29.6107
 21
1.43867
  0
LINE
  8
0
 10
-29.6107
 20
1.43867
 11
-29.5858
 21
1.4142
  0
LINE
  8
0
 10
-29.5858
 20
1.4142
 11
-29.5613
 21
1.38931
  0
LINE
  8
0
 10
-29.5613
 20
1.38931
 11
-29.5373
 21
1.36398
  0
LINE
  8
0
 10
-29.5373
 20
1.36398
 11
-29.5137
 21
1.33826
  0
LINE
  8
0
 10
-29.5137
 20
1.33826
 11
-29.4906
 21
1.3121
  0
LINE
  8
0
 10
-29.4906
 20
1.3121
 11
-29.4679
 21
1.28557
  0
LINE
  8
0
 10
-29.4679
 20
1.28557
 11
-29.4457
 21
1.25864
  0
LINE
  8
0
 10
-29.4457
 20
1.25864
 11
-29.424
 21
1.23131
  0
LINE
  8
0
 10
-29.424
 20
1.23131
 11
-29.4027
 21
1.20363
  0
LINE
  8
0
 10
-29.4027
 20
1.20363
 11
-29.382
 21
1.17557
  0
LINE
  8
0
 10
-29.382
 20
1.17557
 11
-29.3617
 21
1.14714
  0
LINE
  8
0
 10
-29.3617
 20
1.14714
 11
-29.3419
 21
1.11838
  0
LINE
  8
0
 10
-29.3419
 20
1.11838
 11
-29.3226
 21
1.08926
  0
LINE
  8
0
 10
-29.3226
 20
1.08926
 11
-29.3039
 21
1.05983
  0
LINE
  8
0
 10
-29.3039
 20
1.05983
 11
-29.2857
 21
1.03008
  0
LINE
  8
0
 10
-29.2857
 20
1.03008
 11
-29.2679
 21
1
  0
LINE
  8
0
 10
-29.2679
 20
1
 11
-29.2507
 21
0.969604
  0
LINE
  8
0
 10
-29.2507
 20
0.969604
 11
-29.2341
 21
0.938934
  0
LINE
  8
0
 10
-29.2341
 20
0.938934
 11
-29.218
 21
0.907974
  0
LINE
  8
0
 10
-29.218
 20
0.907974
 11
-29.2024
 21
0.87674
  0
LINE
  8
0
 10
-29.2024
 20
0.87674
 11
-29.1874
 21
0.84523
  0
LINE
  8
0
 10
-29.1874
 20
0.84523
 11
-29.1729
 21
0.813461
  0
LINE
  8
0
 10
-29.1729
 20
0.813461
 11
-29.159
 21
0.781448
  0
LINE
  8
0
 10
-29.159
 20
0.781448
 11
-29.1456
 21
0.749207
  0
LINE
  8
0
 10
-29.1456
 20
0.749207
 11
-29.1328
 21
0.716736
  0
LINE
  8
0
 10
-29.1328
 20
0.716736
 11
-29.1206
 21
0.684036
  0
LINE
  8
0
 10
-29.1206
 20
0.684036
 11
-29.109
 21
0.651123
  0
LINE
  8
0
 10
-29.109
 20
0.651123
 11
-29.0979
 21
0.618027
  0
LINE
  8
0
 10
-29.0979
 20
0.618027
 11
-29.0874
 21
0.584732
  0
LINE
  8
0
 10
-29.0874
 20
0.584732
 11
-29.0775
 21
0.55127
  0
LINE
  8
0
 10
-29.0775
 20
0.55127
 11
-29.0681
 21
0.517624
  0
LINE
  8
0
 10
-29.0681
 20
0.517624
 11
-29.0594
 21
0.483841
  0
LINE
  8
0
 10
-29.0594
 20
0.483841
 11
-29.0513
 21
0.44989
  0
LINE
  8
0
 10
-29.0513
 20
0.44989
 11
-29.0437
 21
0.415817
  0
LINE
  8
0
 10
-29.0437
 20
0.415817
 11
-29.0367
 21
0.381607
  0
LINE
  8
0
 10
-29.0367
 20
0.381607
 11
-29.0304
 21
0.34729
  0
LINE
  8
0
 10
-29.0304
 20
0.34729
 11
-29.0246
 21
0.312866
  0
LINE
  8
0
 10
-29.0246
 20
0.312866
 11
-29.0195
 21
0.278336
  0
LINE
  8
0
 10
-29.0195
 20
0.278336
 11
-29.0149
 21
0.243729
  0
LINE
  8
0
 10
-29.0149
 20
0.243729
 11
-29.011
 21
0.209045
  0
LINE
  8
0
 10
-29.011
 20
0.209045
 11
-29.0076
 21
0.174301
  0
LINE
  8
0
 10
-29.0076
 20
0.174301
 11
-29.0049
 21
0.139511
  0
LINE
  8
0
 10
-29.0049
 20
0.139511
 11
-29.0027
 21
0.10466
  0
LINE
  8
0
 10
-29.0027
 20
0.10466
 11
-29.0012
 21
0.0697937
  0
LINE
  8
0
 10
-29.0012
 20
0.0697937
 11
-29.0003
 21
0.0348969
  0
LINE
  8
0
 10
-29.0003
 20
0.0348969
 11
-29
 21
0
  0
LINE
  8
0
 10
-29
 20
0
 11
-29.0003
 21
-0.0348969
  0
LINE
  8
0
 10
-29.0003
 20
-0.0348969
 11
-29.0012
 21
-0.0697937
  0
LINE
  8
0
 10
-29.0012
 20
-0.0697937
 11
-29.0027
 21
-0.10466
  0
LINE
  8
0
 10
-29.0027
 20
-0.10466
 11
-29.0049
 21
-0.139511
  0
LINE
  8
0
 10
-29.0049
 20
-0.139511
 11
-29.0076
 21
-0.174301
  0
LINE
  8
0
 10
-29.0076
 20
-0.174301
 11
-29.011
 21
-0.209045
  0
LINE
  8
0
 10
-29.011
 20
-0.209045
 11
-29.0149
 21
-0.243729
  0
LINE
  8
0
 10
-29.0149
 20
-0.243729
 11
-29.0195
 21
-0.278336
  0
LINE
  8
0
 10
-29.0195
 20
-0.278336
 11
-29.0246
 21
-0.312866
  0
LINE
  8
0
 10
-29.0246
 20
-0.312866
 11
-29.0304
 21
-0.34729
  0
LINE
  8
0
 10
-29.0304
 20
-0.34729
 11
-29.0367
 21
-0.381607
  0
LINE
  8
0
 10
-29.0367
 20
-0.381607
 11
-29.0437
 21
-0.415817
  0
LINE
  8
0
 10
-29.0437
 20
-0.415817
 11
-29.0513
 21
-0.44989
  0
LINE
  8
0
 10
-29.0513
 20
-0.44989
 11
-29.0594
 21
-0.483841
  0
LINE
  8
0
 10
-29.0594
 20
-0.483841
 11
-29.0681
 21
-0.517624
  0
LINE
  8
0
 10
-29.0681
 20
-0.517624
 11
-29.0775
 21
-0.55127
  0
LINE
  8
0
 10
-29.0775
 20
-0.55127
 11
-29.0874
 21
-0.584732
  0
LINE
  8
0
 10
-29.0874
 20
-0.584732
 11
-29.0979
 21
-0.618027
  0
LINE
  8
0
 10
-29.0979
 20
-0.618027
 11
-29.109
 21
-0.651123
  0
LINE
  8
0
 10
-29.109
 20
-0.651123
 11
-29.1206
 21
-0.684036
  0
LINE
  8
0
 10
-29.1206
 20
-0.684036
 11
-29.1328
 21
-0.716736
  0
LINE
  8
0
 10
-29.1328
 20
-0.716736
 11
-29.1456
 21
-0.749207
  0
LINE
  8
0
 10
-29.1456
 20
-0.749207
 11
-29.159
 21
-0.781448
  0
LINE
  8
0
 10
-29.159
 20
-0.781448
 11
-29.1729
 21
-0.813461
  0
LINE
  8
0
 10
-29.1729
 20
-0.813461
 11
-29.1874
 21
-0.84523
  0
LINE
  8
0
 10
-29.1874
 20
-0.84523
 11
-29.2024
 21
-0.87674
  0
LINE
  8
0
 10
-29.2024
 20
-0.87674
 11
-29.218
 21
-0.907974
  0
LINE
  8
0
 10
-29.218
 20
-0.907974
 11
-29.2341
 21
-0.938934
  0
LINE
  8
0
 10
-29.2341
 20
-0.938934
 11
-29.2507
 21
-0.969604
  0
LINE
  8
0
 10
-29.2507
 20
-0.969604
 11
-29.2679
 21
-1
  0
LINE
  8
0
 10
-29.2679
 20
-1
 11
-29.2857
 21
-1.03008
  0
LINE
  8
0
 10
-29.2857
 20
-1.03008
 11
-29.3039
 21
-1.05983
  0
LINE
  8
0
 10
-29.3039
 20
-1.05983
 11
-29.3226
 21
-1.08926
  0
LINE
  8
0
 10
-29.3226
 20
-1.08926
 11
-29.3419
 21
-1.11838
  0
LINE
  8
0
 10
-29.3419
 20
-1.11838
 11
-29.3617
 21
-1.14714
  0
LINE
  8
0
 10
-29.3617
 20
-1.14714
 11
-29.382
 21
-1.17557
  0
LINE
  8
0
 10
-29.382
 20
-1.17557
 11
-29.4027
 21
-1.20363
  0
LINE
  8
0
 10
-29.4027
 20
-1.20363
 11
-29.424
 21
-1.23131
  0
LINE
  8
0
 10
-29.424
 20
-1.23131
 11
-29.4457
 21
-1.25864
  0
LINE
  8
0
 10
-29.4457
 20
-1.25864
 11
-29.4679
 21
-1.28557
  0
LINE
  8
0
 10
-29.4679
 20
-1.28557
 11
-29.4906
 21
-1.3121
  0
LINE
  8
0
 10
-29.4906
 20
-1.3121
 11
-29.5137
 21
-1.33826
  0
LINE
  8
0
 10
-29.5137
 20
-1.33826
 11
-29.5373
 21
-1.36398
  0
LINE
  8
0
 10
-29.5373
 20
-1.36398
 11
-29.5613
 21
-1.38931
  0
LINE
  8
0
 10
-29.5613
 20
-1.38931
 11
-29.5858
 21
-1.4142
  0
LINE
  8
0
 10
-29.5858
 20
-1.4142
 11
-29.6107
 21
-1.43867
  0
LINE
  8
0
 10
-29.6107
 20
-1.43867
 11
-29.636
 21
-1.46269
  0
LINE
  8
0
 10
-29.636
 20
-1.46269
 11
-29.6617
 21
-1.48628
  0
LINE
  8
0
 10
-29.6617
 20
-1.48628
 11
-29.6879
 21
-1.50941
  0
LINE
  8
0
 10
-29.6879
 20
-1.50941
 11
-29.7144
 21
-1.53207
  0
LINE
  8
0
 10
-29.7144
 20
-1.53207
 11
-29.7413
 21
-1.55429
  0
LINE
  8
0
 10
-29.7413
 20
-1.55429
 11
-29.7687
 21
-1.57602
  0
LINE
  8
0
 10
-29.7687
 20
-1.57602
 11
-29.7964
 21
-1.59726
  0
LINE
  8
0
 10
-29.7964
 20
-1.59726
 11
-29.8244
 21
-1.61803
  0
LINE
  8
0
 10
-29.8244
 20
-1.61803
 11
-29.8528
 21
-1.63829
  0
LINE
  8
0
 10
-29.8528
 20
-1.63829
 11
-29.8816
 21
-1.65807
  0
LINE
  8
0
 10
-29.8816
 20
-1.65807
 11
-29.9107
 21
-1.67734
  0
LINE
  8
0
 10
-29.9107
 20
-1.67734
 11
-29.9402
 21
-1.69609
  0
LINE
  8
0
 10
-29.9402
 20
-1.69609
 11
-29.9699
 21
-1.71432
  0
LINE
  8
0
 10
-29.9699
 20
-1.71432
 11
-30
 21
-1.73204
  0
LINE
  8
0
 10
-30
 20
-1.73204
 11
-30.0304
 21
-1.74924
  0
LINE
  8
0
 10
-30.0304
 20
-1.74924
 11
-30.0611
 21
-1.76588
  0
LINE
  8
0
 10
-30.0611
 20
-1.76588
 11
-30.092
 21
-1.78201
  0
LINE
  8
0
 10
-30.092
 20
-1.78201
 11
-30.1232
 21
-1.79758
  0
LINE
  8
0
 10
-30.1232
 20
-1.79758
 11
-30.1548
 21
-1.81261
  0
LINE
  8
0
 10
-30.1548
 20
-1.81261
 11
-30.1865
 21
-1.82709
  0
LINE
  8
0
 10
-30.1865
 20
-1.82709
 11
-30.2185
 21
-1.841
  0
LINE
  8
0
 10
-30.2185
 20
-1.841
 11
-30.2508
 21
-1.85435
  0
LINE
  8
0
 10
-30.2508
 20
-1.85435
 11
-30.2833
 21
-1.86716
  0
LINE
  8
0
 10
-30.2833
 20
-1.86716
 11
-30.3159
 21
-1.87938
  0
LINE
  8
0
 10
-30.3159
 20
-1.87938
 11
-30.3489
 21
-1.89104
  0
LINE
  8
0
 10
-30.3489
 20
-1.89104
 11
-30.382
 21
-1.9021
  0
LINE
  8
0
 10
-30.382
 20
-1.9021
 11
-30.4153
 21
-1.9126
  0
LINE
  8
0
 10
-30.4153
 20
-1.9126
 11
-30.4487
 21
-1.92252
  0
LINE
  8
0
 10
-30.4487
 20
-1.92252
 11
-30.4824
 21
-1.93184
  0
LINE
  8
0
 10
-30.4824
 20
-1.93184
 11
-30.5161
 21
-1.94058
  0
LINE
  8
0
 10
-30.5161
 20
-1.94058
 11
-30.5501
 21
-1.94873
  0
LINE
  8
0
 10
-30.5501
 20
-1.94873
 11
-30.5842
 21
-1.95628
  0
LINE
  8
0
 10
-30.5842
 20
-1.95628
 11
-30.6184
 21
-1.96324
  0
LINE
  8
0
 10
-30.6184
 20
-1.96324
 11
-30.6527
 21
-1.9696
  0
LINE
  8
0
 10
-30.6527
 20
-1.9696
 11
-30.6871
 21
-1.97537
  0
LINE
  8
0
 10
-30.6871
 20
-1.97537
 11
-30.7216
 21
-1.98053
  0
LINE
  8
0
 10
-30.7216
 20
-1.98053
 11
-30.7563
 21
-1.98509
  0
LINE
  8
0
 10
-30.7563
 20
-1.98509
 11
-30.7909
 21
-1.98903
  0
LINE
  8
0
 10
-30.7909
 20
-1.98903
 11
-30.8257
 21
-1.99239
  0
LINE
  8
0
 10
-30.8257
 20
-1.99239
 11
-30.8605
 21
-1.99512
  0
LINE
  8
0
 10
-30.8605
 20
-1.99512
 11
-30.8953
 21
-1.99725
  0
LINE
  8
0
 10
-30.8953
 20
-1.99725
 11
-30.9302
 21
-1.99878
  0
LINE
  8
0
 10
-30.9302
 20
-1.99878
 11
-30.9651
 21
-1.99969
  0
LINE
  8
0
 10
-30.9651
 20
-1.99969
 11
-31
 21
-2
  0
LINE
  8
0
 10
-31
 20
-2
 11
-31.0349
 21
-1.99969
  0
LINE
  8
0
 10
30.9651
 20
-1.99969
 11
30.9302
 21
-1.99878
  0
LINE
  8
0
 10
30.9302
 20
-1.99878
 11
30.8953
 21
-1.99725
  0
LINE
  8
0
 10
30.8953
 20
-1.99725
 11
30.8605
 21
-1.99512
  0
LINE
  8
0
 10
30.8605
 20
-1.99512
 11
30.8257
 21
-1.99239
  0
LINE
  8
0
 10
30.8257
 20
-1.99239
 11
30.7909
 21
-1.98903
  0
LINE
  8
0
 10
30.7909
 20
-1.98903
 11
30.7563
 21
-1.98509
  0
LINE
  8
0
 10
30.7563
 20
-1.98509
 11
30.7216
 21
-1.98053
  0
LINE
  8
0
 10
30.7216
 20
-1.98053
 11
30.6871
 21
-1.97537
  0
LINE
  8
0
 10
30.6871
 20
-1.97537
 11
30.6527
 21
-1.9696
  0
LINE
  8
0
 10
30.6527
 20
-1.9696
 11
30.6184
 21
-1.96324
  0
LINE
  8
0
 10
30.6184
 20
-1.96324
 11
30.5842
 21
-1.95628
  0
LINE
  8
0
 10
30.5842
 20
-1.95628
 11
30.5501
 21
-1.94873
  0
LINE
  8
0
 10
30.5501
 20
-1.94873
 11
30.5161
 21
-1.94058
  0
LINE
  8
0
 10
30.5161
 20
-1.94058
 11
30.4824
 21
-1.93184
  0
LINE
  8
0
 10
30.4824
 20
-1.93184
 11
30.4487
 21
-1.92252
  0
LINE
  8
0
 10
30.4487
 20
-1.92252
 11
30.4153
 21
-1.9126
  0
LINE
  8
0
 10
30.4153
 20
-1.9126
 11
30.382
 21
-1.9021
  0
LINE
  8
0
 10
30.382
 20
-1.9021
 11
30.3489
 21
-1.89104
  0
LINE
  8
0
 10
30.3489
 20
-1.89104
 11
30.3159
 21
-1.87938
  0
LINE
  8
0
 10
30.3159
 20
-1.87938
 11
30.2833
 21
-1.86716
  0
LINE
  8
0
 10
30.2833
 20
-1.86716
 11
30.2508
 21
-1.85435
  0
LINE
  8
0
 10
30.2508
 20
-1.85435
 11
30.2185
 21
-1.841
  0
LINE
  8
0
 10
30.2185
 20
-1.841
 11
30.1865
 21
-1.82709
  0
LINE
  8
0
 10
30.1865
 20
-1.82709
 11
30.1548
 21
-1.81261
  0
LINE
  8
0
 10
30.1548
 20
-1.81261
 11
30.1232
 21
-1.79758
  0
LINE
  8
0
 10
30.1232
 20
-1.79758
 11
30.092
 21
-1.78201
  0
LINE
  8
0
 10
30.092
 20
-1.78201
 11
30.0611
 21
-1.76588
  0
LINE
  8
0
 10
30.0611
 20
-1.76588
 11
30.0304
 21
-1.74924
  0
LINE
  8
0
 10
30.0304
 20
-1.74924
 11
30
 21
-1.73204
  0
LINE
  8
0
 10
30
 20
-1.73204
 11
29.9699
 21
-1.71432
  0
LINE
  8
0
 10
29.9699
 20
-1.71432
 11
29.9402
 21
-1.69609
  0
LINE
  8
0
 10
29.9402
 20
-1.69609
 11
29.9107
 21
-1.67734
  0
LINE
  8
0
 10
29.9107
 20
-1.67734
 11
29.8816
 21
-1.65807
  0
LINE
  8
0
 10
29.8816
 20
-1.65807
 11
29.8528
 21
-1.63829
  0
LINE
  8
0
 10
29.8528
 20
-1.63829
 11
29.8244
 21
-1.61803
  0
LINE
  8
0
 10
29.8244
 20
-1.61803
 11
29.7964
 21
-1.59726
  0
LINE
  8
0
 10
29.7964
 20
-1.59726
 11
29.7687
 21
-1.57602
  0
LINE
  8
0
 10
29.7687
 20
-1.57602
 11
29.7413
 21
-1.55429
  0
LINE
  8
0
 10
29.7413
 20
-1.55429
 11
29.7144
 21
-1.53207
  0
LINE
  8
0
 10
29.7144
 20
-1.53207
 11
29.6879
 21
-1.50941
  0
LINE
  8
0
 10
29.6879
 20
-1.50941
 11
29.6617
 21
-1.48628
  0
LINE
  8
0
 10
29.6617
 20
-1.48628
 11
29.636
 21
-1.46269
  0
LINE
  8
0
 10
29.636
 20
-1.46269
 11
29.6107
 21
-1.43867
  0
LINE
  8
0
 10
29.6107
 20
-1.43867
 11
29.5858
 21
-1.4142
  0
LINE
  8
0
 10
29.5858
 20
-1.4142
 11
29.5613
 21
-1.38931
  0
LINE
  8
0
 10
29.5613
 20
-1.38931
 11
29.5373
 21
-1.36398
  0
LINE
  8
0
 10
29.5373
 20
-1.36398
 11
29.5137
 21
-1.33826
  0
LINE
  8
0
 10
29.5137
 20
-1.33826
 11
29.4906
 21
-1.3121
  0
LINE
  8
0
 10
29.4906
 20
-1.3121
 11
29.4679
 21
-1.28557
  0
LINE
  8
0
 10
29.4679
 20
-1.28557
 11
29.4457
 21
-1.25864
  0
LINE
  8
0
 10
29.4457
 20
-1.25864
 11
29.424
 21
-1.23131
  0
LINE
  8
0
 10
29.424
 20
-1.23131
 11
29.4027
 21
-1.20363
  0
LINE
  8
0
 10
29.4027
 20
-1.20363
 11
29.382
 21
-1.17557
  0
LINE
  8
0
 10
29.382
 20
-1.17557
 11
29.3617
 21
-1.14714
  0
LINE
  8
0
 10
29.3617
 20
-1.14714
 11
29.3419
 21
-1.11838
  0
LINE
  8
0
 10
29.3419
 20
-1.11838
 11
29.3226
 21
-1.08926
  0
LINE
  8
0
 10
29.3226
 20
-1.08926
 11
29.3039
 21
-1.05983
  0
LINE
  8
0
 10
29.3039
 20
-1.05983
 11
29.2857
 21
-1.03008
  0
LINE
  8
0
 10
29.2857
 20
-1.03008
 11
29.2679
 21
-1
  0
LINE
  8
0
 10
29.2679
 20
-1
 11
29.2507
 21
-0.969604
  0
LINE
  8
0
 10
29.2507
 20
-0.969604
 11
29.2341
 21
-0.938934
  0
LINE
  8
0
 10
29.2341
 20
-0.938934
 11
29.218
 21
-0.907974
  0
LINE
  8
0
 10
29.218
 20
-0.907974
 11
29.2024
 21
-0.87674
  0
LINE
  8
0
 10
29.2024
 20
-0.87674
 11
29.1874
 21
-0.84523
  0
LINE
  8
0
 10
29.1874
 20
-0.84523
 11
29.1729
 21
-0.813461
  0
LINE
  8
0
 10
29.1729
 20
-0.813461
 11
29.159
 21
-0.781448
  0
LINE
  8
0
 10
29.159
 20
-0.781448
 11
29.1456
 21
-0.749207
  0
LINE
  8
0
 10
29.1456
 20
-0.749207
 11
29.1328
 21
-0.716736
  0
LINE
  8
0
 10
29.1328
 20
-0.716736
 11
29.1206
 21
-0.684036
  0
LINE
  8
0
 10
29.1206
 20
-0.684036
 11
29.109
 21
-0.651123
  0
LINE
  8
0
 10
29.109
 20
-0.651123
 11
29.0979
 21
-0.618027
  0
LINE
  8
0
 10
29.0979
 20
-0.618027
 11
29.0874
 21
-0.584732
  0
LINE
  8
0
 10
29.0874
 20
-0.584732
 11
29.0775
 21
-0.55127
  0
LINE
  8
0
 10
29.0775
 20
-0.55127
 11
29.0681
 21
-0.517624
  0
LINE
  8
0
 10
29.0681
 20
-0.517624
 11
29.0594
 21
-0.483841
  0
LINE
  8
0
 10
29.0594
 20
-0.483841
 11
29.0513
 21
-0.44989
  0
LINE
  8
0
 10
29.0513
 20
-0.44989
 11
29.0437
 21
-0.415817
  0
LINE
  8
0
 10
29.0437
 20
-0.415817
 11
29.0367
 21
-0.381607
  0
LINE
  8
0
 10
29.0367
 20
-0.381607
 11
29.0304
 21
-0.34729
  0
LINE
  8
0
 10
29.0304
 20
-0.34729
 11
29.0246
 21
-0.312866
  0
LINE
  8
0
 10
29.0246
 20
-0.312866
 11
29.0195
 21
-0.278336
  0
LINE
  8
0
 10
29.0195
 20
-0.278336
 11
29.0149
 21
-0.243729
  0
LINE
  8
0
 10
29.0149
 20
-0.243729
 11
29.011
 21
-0.209045
  0
LINE
  8
0
 10
29.011
 20
-0.209045
 11
29.0076
 21
-0.174301
  0
LINE
  8
0
 10
29.0076
 20
-0.174301
 11
29.0049
 21
-0.139511
  0
LINE
  8
0
 10
29.0049
 20
-0.139511
 11
29.0027
 21
-0.10466
  0
LINE
  8
0
 10
29.0027
 20
-0.10466
 11
29.0012
 21
-0.0697937
  0
LINE
  8
0
 10
29.0012
 20
-0.0697937
 11
29.0003
 21
-0.0348969
  0
LINE
  8
0
 10
29.0003
 20
-0.0348969
 11
29
 21
0
  0
LINE
  8
0
 10
29
 20
0
 11
29.0003
 21
0.0348969
  0
LINE
  8
0
 10
29.0003
 20
0.0348969
 11
29.0012
 21
0.0697937
  0
LINE
  8
0
 10
29.0012
 20
0.0697937
 11
29.0027
 21
0.10466
  0
LINE
  8
0
 10
29.0027
 20
0.10466
 11
29.0049
 21
0.139511
  0
LINE
  8
0
 10
29.0049
 20
0.139511
 11
29.0076
 21
0.174301
  0
LINE
  8
0
 10
29.0076
 20
0.174301
 11
29.011
 21
0.209045
  0
LINE
  8
0
 10
29.011
 20
0.209045
 11
29.0149
 21
0.243729
  0
LINE
  8
0
 10
29.0149
 20
0.243729
 11
29.0195
 21
0.278336
  0
LINE
  8
0
 10
29.0195
 20
0.278336
 11
29.0246
 21
0.312866
  0
LINE
  8
0
 10
29.0246
 20
0.312866
 11
29.0304
 21
0.34729
  0
LINE
  8
0
 10
29.0304
 20
0.34729
 11
29.0367
 21
0.381607
  0
LINE
  8
0
 10
29.0367
 20
0.381607
 11
29.0437
 21
0.415817
  0
LINE
  8
0
 10
29.0437
 20
0.415817
 11
29.0513
 21
0.44989
  0
LINE
  8
0
 10
29.0513
 20
0.44989
 11
29.0594
 21
0.483841
  0
LINE
  8
0
 10
29.0594
 20
0.483841
 11
29.0681
 21
0.517624
  0
LINE
  8
0
 10
29.0681
 20
0.517624
 11
29.0775
 21
0.55127
  0
LINE
  8
0
 10
29.0775
 20
0.55127
 11
29.0874
 21
0.584732
  0
LINE
  8
0
 10
29.0874
 20
0.584732
 11
29.0979
 21
0.618027
  0
LINE
  8
0
 10
29.0979
 20
0.618027
 11
29.109
 21
0.651123
  0
LINE
  8
0
 10
29.109
 20
0.651123
 11
29.1206
 21
0.684036
  0
LINE
  8
0
 10
29.1206
 20
0.684036
 11
29.1328
 21
0.716736
  0
LINE
  8
0
 10
29.1328
 20
0.716736
 11
29.1456
 21
0.749207
  0
LINE
  8
0
 10
29.1456
 20
0.749207
 11
29.159
 21
0.781448
  0
LINE
  8
0
 10
29.159
 20
0.781448
 11
29.1729
 21
0.813461
  0
LINE
  8
0
 10
29.1729
 20
0.813461
 11
29.1874
 21
0.84523
  0
LINE
  8
0
 10
29.1874
 20
0.84523
 11
29.2024
 21
0.87674
  0
LINE
  8
0
 10
29.2024
 20
0.87674
 11
29.218
 21
0.907974
  0
LINE
  8
0
 10
29.218
 20
0.907974
 11
29.2341
 21
0.938934
  0
LINE
  8
0
 10
29.2341
 20
0.938934
 11
29.2507
 21
0.969604
  0
LINE
  8
0
 10
29.2507
 20
0.969604
 11
29.2679
 21
1
  0
LINE
  8
0
 10
29.2679
 20
1
 11
29.2857
 21
1.03008
  0
LINE
  8
0
 10
29.2857
 20
1.03008
 11
29.3039
 21
1.05983
  0
LINE
  8
0
 10
29.3039
 20
1.05983
 11
29.3226
 21
1.08926
  0
LINE
  8
0
 10
29.3226
 20
1.08926
 11
29.3419
 21
1.11838
  0
LINE
  8
0
 10
29.3419
 20
1.11838
 11
29.3617
 21
1.14714
  0
LINE
  8
0
 10
29.3617
 20
1.14714
 11
29.382
 21
1.17557
  0
LINE
  8
0
 10
29.382
 20
1.17557
 11
29.4027
 21
1.20363
  0
LINE
  8
0
 10
29.4027
 20
1.20363
 11
29.424
 21
1.23131
  0
LINE
  8
0
 10
29.424
 20
1.23131
 11
29.4457
 21
1.25864
  0
LINE
  8
0
 10
29.4457
 20
1.25864
 11
29.4679
 21
1.28557
  0
LINE
  8
0
 10
29.4679
 20
1.28557
 11
29.4906
 21
1.3121
  0
LINE
  8
0
 10
29.4906
 20
1.3121
 11
29.5137
 21
1.33826
  0
LINE
  8
0
 10
29.5137
 20
1.33826
 11
29.5373
 21
1.36398
  0
LINE
  8
0
 10
29.5373
 20
1.36398
 11
29.5613
 21
1.38931
  0
LINE
  8
0
 10
29.5613
 20
1.38931
 11
29.5858
 21
1.4142
  0
LINE
  8
0
 10
29.5858
 20
1.4142
 11
29.6107
 21
1.43867
  0
LINE
  8
0
 10
29.6107
 20
1.43867
 11
29.636
 21
1.46269
  0
LINE
  8
0
 10
29.636
 20
1.46269
 11
29.6617
 21
1.48628
  0
LINE
  8
0
 10
29.6617
 20
1.48628
 11
29.6879
 21
1.50941
  0
LINE
  8
0
 10
29.6879
 20
1.50941
 11
29.7144
 21
1.53207
  0
LINE
  8
0
 10
29.7144
 20
1.53207
 11
29.7413
 21
1.55429
  0
LINE
  8
0
 10
29.7413
 20
1.55429
 11
29.7687
 21
1.57602
  0
LINE
  8
0
 10
29.7687
 20
1.57602
 11
29.7964
 21
1.59726
  0
LINE
  8
0
 10
29.7964
 20
1.59726
 11
29.8244
 21
1.61803
  0
LINE
  8
0
 10
29.8244
 20
1.61803
 11
29.8528
 21
1.63829
  0
LINE
  8
0
 10
29.8528
 20
1.63829
 11
29.8816
 21
1.65807
  0
LINE
  8
0
 10
29.8816
 20
1.65807
 11
29.9107
 21
1.67734
  0
LINE
  8
0
 10
29.9107
 20
1.67734
 11
29.9402
 21
1.69609
  0
LINE
  8
0
 10
29.9402
 20
1.69609
 11
29.9699
 21
1.71432
  0
LINE
  8
0
 10
29.9699
 20
1.71432
 11
30
 21
1.73204
  0
LINE
  8
0
 10
30
 20
1.73204
 11
30.0304
 21
1.74924
  0
LINE
  8
0
 10
30.0304
 20
1.74924
 11
30.0611
 21
1.76588
  0
LINE
  8
0
 10
30.0611
 20
1.76588
 11
30.092
 21
1.78201
  0
LINE
  8
0
 10
30.092
 20
1.78201
 11
30.1232
 21
1.79758
  0
LINE
  8
0
 10
30.1232
 20
1.79758
 11
30.1548
 21
1.81261
  0
LINE
  8
0
 10
30.1548
 20
1.81261
 11
30.1865
 21
1.82709
  0
LINE
  8
0
 10
30.1865
 20
1.82709
 11
30.2185
 21
1.841
  0
LINE
  8
0
 10
30.2185
 20
1.841
 11
30.2508
 21
1.85435
  0
LINE
  8
0
 10
30.2508
 20
1.85435
 11
30.2833
 21
1.86716
  0
LINE
  8
0
 10
30.2833
 20
1.86716
 11
30.3159
 21
1.87938
  0
LINE
  8
0
 10
30.3159
 20
1.87938
 11
30.3489
 21
1.89104
  0
LINE
  8
0
 10
30.3489
 20
1.89104
 11
30.382
 21
1.9021
  0
LINE
  8
0
 10
30.382
 20
1.9021
 11
30.4153
 21
1.9126
  0
LINE
  8
0
 10
30.4153
 20
1.9126
 11
30.4487
 21
1.92252
  0
LINE
  8
0
 10
30.4487
 20
1.92252
 11
30.4824
 21
1.93184
  0
LINE
  8
0
 10
30.4824
 20
1.93184
 11
30.5161
 21
1.94058
  0
LINE
  8
0
 10
30.5161
 20
1.94058
 11
30.5501
 21
1.94873
  0
LINE
  8
0
 10
30.5501
 20
1.94873
 11
30.5842
 21
1.95628
  0
LINE
  8
0
 10
30.5842
 20
1.95628
 11
30.6184
 21
1.96324
  0
LINE
  8
0
 10
30.6184
 20
1.96324
 11
30.6527
 21
1.9696
  0
LINE
  8
0
 10
30.6527
 20
1.9696
 11
30.6871
 21
1.97537
  0
LINE
  8
0
 10
30.6871
 20
1.97537
 11
30.7216
 21
1.98053
  0
LINE
  8
0
 10
30.7216
 20
1.98053
 11
30.7563
 21
1.98509
  0
LINE
  8
0
 10
30.7563
 20
1.98509
 11
30.7909
 21
1.98903
  0
LINE
  8
0
 10
30.7909
 20
1.98903
 11
30.8257
 21
1.99239
  0
LINE
  8
0
 10
30.8257
 20
1.99239
 11
30.8605
 21
1.99512
  0
LINE
  8
0
 10
30.8605
 20
1.99512
 11
30.8953
 21
1.99725
  0
LINE
  8
0
 10
30.8953
 20
1.99725
 11
30.9302
 21
1.99878
  0
LINE
  8
0
 10
30.9302
 20
1.99878
 11
30.9651
 21
1.99969
  0
LINE
  8
0
 10
30.9651
 20
1.99969
 11
31
 21
2
  0
LINE
  8
0
 10
31
 20
2
 11
31.0349
 21
1.99969
  0
LINE
  8
0
 10
31.0349
 20
1.99969
 11
31.0698
 21
1.99878
  0
LINE
  8
0
 10
31.0698
 20
1.99878
 11
31.1047
 21
1.99725
  0
LINE
  8
0
 10
31.1047
 20
1.99725
 11
31.1395
 21
1.99512
  0
LINE
  8
0
 10
31.1395
 20
1.99512
 11
31.1743
 21
1.99239
  0
LINE
  8
0
 10
31.1743
 20
1.99239
 11
31.209
 21
1.98903
  0
LINE
  8
0
 10
31.209
 20
1.98903
 11
31.2437
 21
1.98509
  0
LINE
  8
0
 10
31.2437
 20
1.98509
 11
31.2783
 21
1.98053
  0
LINE
  8
0
 10
31.2783
 20
1.98053
 11
31.3129
 21
1.97537
  0
LINE
  8
0
 10
31.3129
 20
1.97537
 11
31.3473
 21
1.9696
  0
LINE
  8
0
 10
31.3473
 20
1.9696
 11
31.3816
 21
1.96324
  0
LINE
  8
0
 10
31.3816
 20
1.96324
 11
31.4158
 21
1.95628
  0
LINE
  8
0
 10
31.4158
 20
1.95628
 11
31.4499
 21
1.94873
  0
LINE
  8
0
 10
31.4499
 20
1.94873
 11
31.4838
 21
1.94058
  0
LINE
  8
0
 10
31.4838
 20
1.94058
 11
31.5176
 21
1.93184
  0
LINE
  8
0
 10
31.5176
 20
1.93184
 11
31.5513
 21
1.92252
  0
LINE
  8
0
 10
31.5513
 20
1.92252
 11
31.5847
 21
1.9126
  0
LINE
  8
0
 10
31.5847
 20
1.9126
 11
31.618
 21
1.9021
  0
LINE
  8
0
 10
31.618
 20
1.9021
 11
31.6511
 21
1.89104
  0
LINE
  8
0
 10
31.6511
 20
1.89104
 11
31.684
 21
1.87938
  0
LINE
  8
0
 10
31.684
 20
1.87938
 11
31.7167
 21
1.86716
  0
LINE
  8
0
 10
31.7167
 20
1.86716
 11
31.7492
 21
1.85435
  0
LINE
  8
0
 10
31.7492
 20
1.85435
 11
31.7814
 21
1.841
  0
LINE
  8
0
 10
31.7814
 20
1.841
 11
31.8135
 21
1.82709
  0
LINE
  8
0
 10
31.8135
 20
1.82709
 11
31.8452
 21
1.81261
  0
LINE
  8
0
 10
31.8452
 20
1.81261
 11
31.8767
 21
1.79758
  0
LINE
  8
0
 10
31.8767
 20
1.79758
 11
31.908
 21
1.78201
  0
LINE
  8
0
 10
31.908
 20
1.78201
 11
31.9389
 21
1.76588
  0
LINE
  8
0
 10
31.9389
 20
1.76588
 11
31.9696
 21
1.74924
  0
LINE
  8
0
 10
31.9696
 20
1.74924
 11
32
 21
1.73204
  0
LINE
  8
0
 10
32
 20
1.73204
 11
32.0301
 21
1.71432
  0
LINE
  8
0
 10
32.0301
 20
1.71432
 11
32.0598
 21
1.69609
  0
LINE
  8
0
 10
32.0598
 20
1.69609
 11
32.0893
 21
1.67734
  0
LINE
  8
0
 10
32.0893
 20
1.67734
 11
32.1184
 21
1.65807
  0
LINE
  8
0
 10
32.1184
 20
1.65807
 11
32.1471
 21
1.63829
  0
LINE
  8
0
 10
32.1471
 20
1.63829
 11
32.1756
 21
1.61803
  0
LINE
  8
0
 10
32.1756
 20
1.61803
 11
32.2036
 21
1.59726
  0
LINE
  8
0
 10
32.2036
 20
1.59726
 11
32.2313
 21
1.57602
  0
LINE
  8
0
 10
32.2313
 20
1.57602
 11
32.2586
 21
1.55429
  0
LINE
  8
0
 10
32.2586
 20
1.55429
 11
32.2856
 21
1.53207
  0
LINE
  8
0
 10
32.2856
 20
1.53207
 11
32.3121
 21
1.50941
  0
LINE
  8
0
 10
32.3121
 20
1.50941
 11
32.3383
 21
1.48628
  0
LINE
  8
0
 10
32.3383
 20
1.48628
 11
32.364
 21
1.46269
  0
LINE
  8
0
 10
32.364
 20
1.46269
 11
32.3893
 21
1.43867
  0
LINE
  8
0
 10
32.3893
 20
1.43867
 11
32.4142
 21
1.4142
  0
LINE
  8
0
 10
32.4142
 20
1.4142
 11
32.4387
 21
1.38931
  0
LINE
  8
0
 10
32.4387
 20
1.38931
 11
32.4627
 21
1.36398
  0
LINE
  8
0
 10
32.4627
 20
1.36398
 11
32.4863
 21
1.33826
  0
LINE
  8
0
 10
32.4863
 20
1.33826
 11
32.5094
 21
1.3121
  0
LINE
  8
0
 10
32.5094
 20
1.3121
 11
32.5321
 21
1.28557
  0
LINE
  8
0
 10
32.5321
 20
1.28557
 11
32.5543
 21
1.25864
  0
LINE
  8
0
 10
32.5543
 20
1.25864
 11
32.576
 21
1.23131
  0
LINE
  8
0
 10
32.576
 20
1.23131
 11
32.5973
 21
1.20363
  0
LINE
  8
0
 10
32.5973
 20
1.20363
 11
32.618
 21
1.17557
  0
LINE
  8
0
 10
32.618
 20
1.17557
 11
32.6383
 21
1.14714
  0
LINE
  8
0
 10
32.6383
 20
1.14714
 11
32.6581
 21
1.11838
  0
LINE
  8
0
 10
32.6581
 20
1.11838
 11
32.6773
 21
1.08926
  0
LINE
  8
0
 10
32.6773
 20
1.08926
 11
32.6961
 21
1.05983
  0
LINE
  8
0
 10
32.6961
 20
1.05983
 11
32.7143
 21
1.03008
  0
LINE
  8
0
 10
32.7143
 20
1.03008
 11
32.732
 21
1
  0
LINE
  8
0
 10
32.732
 20
1
 11
32.7492
 21
0.969604
  0
LINE
  8
0
 10
32.7492
 20
0.969604
 11
32.7659
 21
0.938934
  0
LINE
  8
0
 10
32.7659
 20
0.938934
 11
32.782
 21
0.907974
  0
LINE
  8
0
 10
32.782
 20
0.907974
 11
32.7976
 21
0.87674
  0
LINE
  8
0
 10
32.7976
 20
0.87674
 11
32.8126
 21
0.84523
  0
LINE
  8
0
 10
32.8126
 20
0.84523
 11
32.8271
 21
0.813461
  0
LINE
  8
0
 10
32.8271
 20
0.813461
 11
32.841
 21
0.781448
  0
LINE
  8
0
 10
32.841
 20
0.781448
 11
32.8544
 21
0.749207
  0
LINE
  8
0
 10
32.8544
 20
0.749207
 11
32.8672
 21
0.716736
  0
LINE
  8
0
 10
32.8672
 20
0.716736
 11
32.8794
 21
0.684036
  0
LINE
  8
0
 10
32.8794
 20
0.684036
 11
32.891
 21
0.651123
  0
LINE
  8
0
 10
32.891
 20
0.651123
 11
32.9021
 21
0.618027
  0
LINE
  8
0
 10
32.9021
 20
0.618027
 11
32.9126
 21
0.584732
  0
LINE
  8
0
 10
32.9126
 20
0.584732
 11
32.9225
 21
0.55127
  0
LINE
  8
0
 10
32.9225
 20
0.55127
 11
32.9318
 21
0.517624
  0
LINE
  8
0
 10
32.9318
 20
0.517624
 11
32.9406
 21
0.483841
  0
LINE
  8
0
 10
32.9406
 20
0.483841
 11
32.9487
 21
0.44989
  0
LINE
  8
0
 10
32.9487
 20
0.44989
 11
32.9563
 21
0.415817
  0
LINE
  8
0
 10
32.9563
 20
0.415817
 11
32.9632
 21
0.381607
  0
LINE
  8
0
 10
32.9632
 20
0.381607
 11
32.9696
 21
0.34729
  0
LINE
  8
0
 10
32.9696
 20
0.34729
 11
32.9754
 21
0.312866
  0
LINE
  8
0
 10
32.9754
 20
0.312866
 11
32.9805
 21
0.278336
  0
LINE
  8
0
 10
32.9805
 20
0.278336
 11
32.9851
 21
0.243729
  0
LINE
  8
0
 10
32.9851
 20
0.243729
 11
32.989
 21
0.209045
  0
LINE
  8
0
 10
32.989
 20
0.209045
 11
32.9924
 21
0.174301
  0
LINE
  8
0
 10
32.9924
 20
0.174301
 11
32.9951
 21
0.139511
  0
LINE
  8
0
 10
32.9951
 20
0.139511
 11
32.9973
 21
0.10466
  0
LINE
  8
0
 10
32.9973
 20
0.10466
 11
32.9988
 21
0.0697937
  0
LINE
  8
0
 10
32.9988
 20
0.0697937
 11
32.9997
 21
0.0348969
  0
LINE
  8
0
 10
32.9997
 20
0.0348969
 11
33
 21
0
  0
LINE
  8
0
 10
33
 20
0
 11
32.9997
 21
-0.0348969
  0
LINE
  8
0
 10
32.9997
 20
-0.0348969
 11
32.9988
 21
-0.0697937
  0
LINE
  8
0
 10
32.9988
 20
-0.0697937
 11
32.9973
 21
-0.10466
  0
LINE
  8
0
 10
32.9973
 20
-0.10466
 11
32.9951
 21
-0.139511
  0
LINE
  8
0
 10
32.9951
 20
-0.139511
 11
32.9924
 21
-0.174301
  0
LINE
  8
0
 10
32.9924
 20
-0.174301
 11
32.989
 21
-0.209045
  0
LINE
  8
0
 10
32.989
 20
-0.209045
 11
32.9851
 21
-0.243729
  0
LINE
  8
0
 10
32.9851
 20
-0.243729
 11
32.9805
 21
-0.278336
  0
LINE
  8
0
 10
32.9805
 20
-0.278336
 11
32.9754
 21
-0.312866
  0
LINE
  8
0
 10
32.9754
 20
-0.312866
 11
32.9696
 21
-0.34729
  0
LINE
  8
0
 10
32.9696
 20
-0.34729
 11
32.9632
 21
-0.381607
  0
LINE
  8
0
 10
32.9632
 20
-0.381607
 11
32.9563
 21
-0.415817
  0
LINE
  8
0
 10
32.9563
 20
-0.415817
 11
32.9487
 21
-0.44989
  0
LINE
  8
0
 10
32.9487
 20
-0.44989
 11
32.9406
 21
-0.483841
  0
LINE
  8
0
 10
32.9406
 20
-0.483841
 11
32.9318
 21
-0.517624
  0
LINE
  8
0
 10
32.9318
 20
-0.517624
 11
32.9225
 21
-0.55127
  0
LINE
  8
0
 10
32.9225
 20
-0.55127
 11
32.9126
 21
-0.584732
  0
LINE
  8
0
 10
32.9126
 20
-0.584732
 11
32.9021
 21
-0.618027
  0
LINE
  8
0
 10
32.9021
 20
-0.618027
 11
32.891
 21
-0.651123
  0
LINE
  8
0
 10
32.891
 20
-0.651123
 11
32.8794
 21
-0.684036
  0
LINE
  8
0
 10
32.8794
 20
-0.684036
 11
32.8672
 21
-0.716736
  0
LINE
  8
0
 10
32.8672
 20
-0.716736
 11
32.8544
 21
-0.749207
  0
LINE
  8
0
 10
32.8544
 20
-0.749207
 11
32.841
 21
-0.781448
  0
LINE
  8
0
 10
32.841
 20
-0.781448
 11
32.8271
 21
-0.813461
  0
LINE
  8
0
 10
32.8271
 20
-0.813461
 11
32.8126
 21
-0.84523
  0
LINE
  8
0
 10
32.8126
 20
-0.84523
 11
32.7976
 21
-0.87674
  0
LINE
  8
0
 10
32.7976
 20
-0.87674
 11
32.782
 21
-0.907974
  0
LINE
  8
0
 10
32.782
 20
-0.907974
 11
32.7659
 21
-0.938934
  0
LINE
  8
0
 10
32.7659
 20
-0.938934
 11
32.7492
 21
-0.969604
  0
LINE
  8
0
 10
32.7492
 20
-0.969604
 11
32.732
 21
-1
  0
LINE
  8
0
 10
32.732
 20
-1
 11
32.7143
 21
-1.03008
  0
LINE
  8
0
 10
32.7143
 20
-1.03008
 11
32.6961
 21
-1.05983
  0
LINE
  8
0
 10
32.6961
 20
-1.05983
 11
32.6773
 21
-1.08926
  0
LINE
  8
0
 10
32.6773
 20
-1.08926
 11
32.6581
 21
-1.11838
  0
LINE
  8
0
 10
32.6581
 20
-1.11838
 11
32.6383
 21
-1.14714
  0
LINE
  8
0
 10
32.6383
 20
-1.14714
 11
32.618
 21
-1.17557
  0
LINE
  8
0
 10
32.618
 20
-1.17557
 11
32.5973
 21
-1.20363
  0
LINE
  8
0
 10
32.5973
 20
-1.20363
 11
32.576
 21
-1.23131
  0
LINE
  8
0
 10
32.576
 20
-1.23131
 11
32.5543
 21
-1.25864
  0
LINE
  8
0
 10
32.5543
 20
-1.25864
 11
32.5321
 21
-1.28557
  0
LINE
  8
0
 10
32.5321
 20
-1.28557
 11
32.5094
 21
-1.3121
  0
LINE
  8
0
 10
32.5094
 20
-1.3121
 11
32.4863
 21
-1.33826
  0
LINE
  8
0
 10
32.4863
 20
-1.33826
 11
32.4627
 21
-1.36398
  0
LINE
  8
0
 10
32.4627
 20
-1.36398
 11
32.4387
 21
-1.38931
  0
LINE
  8
0
 10
32.4387
 20
-1.38931
 11
32.4142
 21
-1.4142
  0
LINE
  8
0
 10
32.4142
 20
-1.4142
 11
32.3893
 21
-1.43867
  0
LINE
  8
0
 10
32.3893
 20
-1.43867
 11
32.364
 21
-1.46269
  0
LINE
  8
0
 10
32.364
 20
-1.46269
 11
32.3383
 21
-1.48628
  0
LINE
  8
0
 10
32.3383
 20
-1.48628
 11
32.3121
 21
-1.50941
  0
LINE
  8
0
 10
32.3121
 20
-1.50941
 11
32.2856
 21
-1.53207
  0
LINE
  8
0
 10
32.2856
 20
-1.53207
 11
32.2586
 21
-1.55429
  0
LINE
  8
0
 10
32.2586
 20
-1.55429
 11
32.2313
 21
-1.57602
  0
LINE
  8
0
 10
32.2313
 20
-1.57602
 11
32.2036
 21
-1.59726
  0
LINE
  8
0
 10
32.2036
 20
-1.59726
 11
32.1756
 21
-1.61803
  0
LINE
  8
0
 10
32.1756
 20
-1.61803
 11
32.1471
 21
-1.63829
  0
LINE
  8
0
 10
32.1471
 20
-1.63829
 11
32.1184
 21
-1.65807
  0
LINE
  8
0
 10
32.1184
 20
-1.65807
 11
32.0893
 21
-1.67734
  0
LINE
  8
0
 10
32.0893
 20
-1.67734
 11
32.0598
 21
-1.69609
  0
LINE
  8
0
 10
32.0598
 20
-1.69609
 11
32.0301
 21
-1.71432
  0
LINE
  8
0
 10
32.0301
 20
-1.71432
 11
32
 21
-1.73204
  0
LINE
  8
0
 10
32
 20
-1.73204
 11
31.9696
 21
-1.74924
  0
LINE
  8
0
 10
31.9696
 20
-1.74924
 11
31.9389
 21
-1.76588
  0
LINE
  8
0
 10
31.9389
 20
-1.76588
 11
31.908
 21
-1.78201
  0
LINE
  8
0
 10
31.908
 20
-1.78201
 11
31.8767
 21
-1.79758
  0
LINE
  8
0
 10
31.8767
 20
-1.79758
 11
31.8452
 21
-1.81261
  0
LINE
  8
0
 10
31.8452
 20
-1.81261
 11
31.8135
 21
-1.82709
  0
LINE
  8
0
 10
31.8135
 20
-1.82709
 11
31.7814
 21
-1.841
  0
LINE
  8
0
 10
31.7814
 20
-1.841
 11
31.7492
 21
-1.85435
  0
LINE
  8
0
 10
31.7492
 20
-1.85435
 11
31.7167
 21
-1.86716
  0
LINE
  8
0
 10
31.7167
 20
-1.86716
 11
31.684
 21
-1.87938
  0
LINE
  8
0
 10
31.684
 20
-1.87938
 11
31.6511
 21
-1.89104
  0
LINE
  8
0
 10
31.6511
 20
-1.89104
 11
31.618
 21
-1.9021
  0
LINE
  8
0
 10
31.618
 20
-1.9021
 11
31.5847
 21
-1.9126
  0
LINE
  8
0
 10
31.5847
 20
-1.9126
 11
31.5513
 21
-1.92252
  0
LINE
  8
0
 10
31.5513
 20
-1.92252
 11
31.5176
 21
-1.93184
  0
LINE
  8
0
 10
31.5176
 20
-1.93184
 11
31.4838
 21
-1.94058
  0
LINE
  8
0
 10
31.4838
 20
-1.94058
 11
31.4499
 21
-1.94873
  0
LINE
  8
0
 10
31.4499
 20
-1.94873
 11
31.4158
 21
-1.95628
  0
LINE
  8
0
 10
31.4158
 20
-1.95628
 11
31.3816
 21
-1.96324
  0
LINE
  8
0
 10
31.3816
 20
-1.96324
 11
31.3473
 21
-1.9696
  0
LINE
  8
0
 10
31.3473
 20
-1.9696
 11
31.3129
 21
-1.97537
  0
LINE
  8
0
 10
31.3129
 20
-1.97537
 11
31.2783
 21
-1.98053
  0
LINE
  8
0
 10
31.2783
 20
-1.98053
 11
31.2437
 21
-1.98509
  0
LINE
  8
0
 10
31.2437
 20
-1.98509
 11
31.209
 21
-1.98903
  0
LINE
  8
0
 10
31.209
 20
-1.98903
 11
31.1743
 21
-1.99239
  0
LINE
  8
0
 10
31.1743
 20
-1.99239
 11
31.1395
 21
-1.99512
  0
LINE
  8
0
 10
31.1395
 20
-1.99512
 11
31.1047
 21
-1.99725
  0
LINE
  8
0
 10
31.1047
 20
-1.99725
 11
31.0698
 21
-1.99878
  0
LINE
  8
0
 10
31.0698
 20
-1.99878
 11
31.0349
 21
-1.99969
  0
LINE
  8
0
 10
31.0349
 20
-1.99969
 11
31
 21
-2
  0
LINE
  8
0
 10
31
 20
-2
 11
30.9651
 21
-1.99969
  0
ENDSEC
  0
SECTION
  2
OBJECTS
  0
DICTIONARY
  0
ENDSEC
  0
EOF
