<?xml version="1.0" standalone="no"?>
<!DOCTYPE svg PUBLIC "-//W3C//DTD SVG 1.1//EN" "http://www.w3.org/Graphics/SVG/1.1/DTD/svg11.dtd">
<svg width="250mm" height="250mm" viewBox="-125 -125 250 250" xmlns="http://www.w3.org/2000/svg" version="1.1">
<title>OpenSCAD Model</title>
<path d="
M 2.18155,124.981 L 4.36243,124.924 L 6.54199,124.829 L 8.71956,124.695 L 10.8945,124.524 L 13.0661,124.315
 L 15.2337,124.068 L 17.3966,123.784 L 19.5543,123.461 L 21.706,123.101 L 23.8511,122.703 L 25.989,122.268
 L 28.1189,121.796 L 30.2402,121.287 L 32.3524,120.741 L 34.4547,120.158 L 36.5465,119.538 L 38.6271,118.882
 L 40.696,118.19 L 42.7525,117.462 L 44.796,116.698 L 46.8258,115.898 L 48.8414,115.063 L 50.8421,114.193
 L 52.8273,113.288 L 54.7964,112.349 L 56.7488,111.376 L 58.6839,110.368 L 60.6012,109.327 L 62.5,108.253
 L 64.3798,107.146 L 66.2399,106.006 L 68.0799,104.834 L 69.8991,103.63 L 71.6971,102.394 L 73.4732,101.127
 L 75.2269,99.8294 L 76.9577,98.5013 L 78.665,97.1432 L 80.3484,95.7556 L 82.0074,94.3387 L 83.6413,92.8931
 L 85.2498,91.4192 L 86.8323,89.9175 L 88.3884,88.3884 L 89.9175,86.8323 L 91.4192,85.2498 L 92.8931,83.6413
 L 94.3387,82.0074 L 95.7556,80.3484 L 97.1432,78.665 L 98.5013,76.9577 L 99.8294,75.2269 L 101.127,73.4732
 L 102.394,71.6971 L 103.63,69.8991 L 104.834,68.0799 L 106.006,66.2399 L 107.146,64.3798 L 108.253,62.5
 L 109.327,60.6012 L 110.368,58.6839 L 111.376,56.7488 L 112.349,54.7964 L 113.288,52.8273 L 114.193,50.8421
 L 115.063,48.8414 L 115.898,46.8258 L 116.698,44.796 L 117.462,42.7525 L 118.19,40.696 L 118.882,38.6271
 L 119.538,36.5465 L 120.158,34.4547 L 120.741,32.3524 L 121.287,30.2402 L 121.796,28.1189 L 122.268,25.989
 L 122.703,23.8511 L 123.101,21.706 L 123.461,19.5543 L 123.784,17.3966 L 124.068,15.2337 L 124.315,13.0661
 L 124.524,10.8945 L 124.695,8.71956 L 124.829,6.54199 L 124.924,4.36243 L 124.981,2.18155 L 125,-0
 L 124.981,-2.18155 L 124.924,-4.36243 L 124.829,-6.54199 L 124.695,-8.71956 L 124.524,-10.8945 L 124.315,-13.0661
 L 124.068,-15.2337 L 123.784,-17.3966 L 123.461,-19.5543 L 123.101,-21.706 L 122.703,-23.8511 L 122.268,-25.989
 L 121.796,-28.1189 L 121.287,-30.2402 L 120.741,-32.3524 L 120.158,-34.4547 L 119.538,-36.5465 L 118.882,-38.6271
 L 118.19,-40.696 L 117.462,-42.7525 L 116.698,-44.796 L 115.898,-46.8258 L 115.063,-48.8414 L 114.193,-50.8421
 L 113.288,-52.8273 L 112.349,-54.7964 L 111.376,-56.7488 L 110.368,-58.6839 L 109.327,-60.6012 L 108.253,-62.5
 L 107.146,-64.3798 L 106.006,-66.2399 L 104.834,-68.0799 L 103.63,-69.8991 L 102.394,-71.6971 L 101.127,-73.4732
 L 99.8294,-75.2269 L 98.5013,-76.9577 L 97.1432,-78.665 L 95.7556,-80.3484 L 94.3387,-82.0074 L 92.8931,-83.6413
 L 91.4192,-85.2498 L 89.9175,-86.8323 L 88.3884,-88.3884 L 86.8323,-89.9175 L 85.2498,-91.4192 L 83.6413,-92.8931
 L 82.0074,-94.3387 L 80.3484,-95.7556 L 78.665,-97.1432 L 76.9577,-98.5013 L 75.2269,-99.8294 L 73.4732,-101.127
 L 71.6971,-102.394 L 69.8991,-103.63 L 68.0799,-104.834 L 66.2399,-106.006 L 64.3798,-107.146 L 62.5,-108.253
 L 60.6012,-109.327 L 58.6839,-110.368 L 56.7488,-111.376 L 54.7964,-112.349 L 52.8273,-113.288 L 50.8421,-114.193
 L 48.8414,-115.063 L 46.8258,-115.898 L 44.796,-116.698 L 42.7525,-117.462 L 40.696,-118.19 L 38.6271,-118.882
 L 36.5465,-119.538 L 34.4547,-120.158 L 32.3524,-120.741 L 30.2402,-121.287 L 28.1189,-121.796 L 25.989,-122.268
 L 23.8511,-122.703 L 21.706,-123.101 L 19.5543,-123.461 L 17.3966,-123.784 L 15.2337,-124.068 L 13.0661,-124.315
 L 10.8945,-124.524 L 8.71956,-124.695 L 6.54199,-124.829 L 4.36243,-124.924 L 2.18155,-124.981 L 0,-125
 L -2.18155,-124.981 L -4.36243,-124.924 L -6.54199,-124.829 L -8.71956,-124.695 L -10.8945,-124.524 L -13.0661,-124.315
 L -15.2337,-124.068 L -17.3966,-123.784 L -19.5543,-123.461 L -21.706,-123.101 L -23.8511,-122.703 L -25.989,-122.268
 L -28.1189,-121.796 L -30.2402,-121.287 L -32.3524,-120.741 L -34.4547,-120.158 L -36.5465,-119.538 L -38.6271,-118.882
 L -40.696,-118.19 L -42.7525,-117.462 L -44.796,-116.698 L -46.8258,-115.898 L -48.8414,-115.063 L -50.8421,-114.193
 L -52.8273,-113.288 L -54.7964,-112.349 L -56.7488,-111.376 L -58.6839,-110.368 L -60.6012,-109.327 L -62.5,-108.253
 L -64.3798,-107.146 L -66.2399,-106.006 L -68.0799,-104.834 L -69.8991,-103.63 L -71.6971,-102.394 L -73.4732,-101.127
 L -75.2269,-99.8294 L -76.9577,-98.5013 L -78.665,-97.1432 L -80.3484,-95.7556 L -82.0074,-94.3387 L -83.6413,-92.8931
 L -85.2498,-91.4192 L -86.8323,-89.9175 L -88.3884,-88.3884 L -89.9175,-86.8323 L -91.4192,-85.2498 L -92.8931,-83.6413
 L -94.3387,-82.0074 L -95.7556,-80.3484 L -97.1432,-78.665 L -98.5013,-76.9577 L -99.8294,-75.2269 L -101.127,-73.4732
 L -102.394,-71.6971 L -103.63,-69.8991 L -104.834,-68.0799 L -106.006,-66.2399 L -107.146,-64.3798 L -108.253,-62.5
 L -109.327,-60.6012 L -110.368,-58.6839 L -111.376,-56.7488 L -112.349,-54.7964 L -113.288,-52.8273 L -114.193,-50.8421
 L -115.063,-48.8414 L -115.898,-46.8258 L -116.698,-44.796 L -117.462,-42.7525 L -118.19,-40.696 L -118.882,-38.6271
 L -119.538,-36.5465 L -120.158,-34.4547 L -120.741,-32.3524 L -121.287,-30.2402 L -121.796,-28.1189 L -122.268,-25.989
 L -122.703,-23.8511 L -123.101,-21.706 L -123.461,-19.5543 L -123.784,-17.3966 L -124.068,-15.2337 L -124.315,-13.0661
 L -124.524,-10.8945 L -124.695,-8.71956 L -124.829,-6.54199 L -124.924,-4.36243 L -124.981,-2.18155 L -125,-0
 L -124.981,2.18155 L -124.924,4.36243 L -124.829,6.54199 L -124.695,8.71956 L -124.524,10.8945 L -124.315,13.0661
 L -124.068,15.2337 L -123.784,17.3966 L -123.461,19.5543 L -123.101,21.706 L -122.703,23.8511 L -122.268,25.989
 L -121.796,28.1189 L -121.287,30.2402 L -120.741,32.3524 L -120.158,34.4547 L -119.538,36.5465 L -118.882,38.6271
 L -118.19,40.696 L -117.462,42.7525 L -116.698,44.796 L -115.898,46.8258 L -115.063,48.8414 L -114.193,50.8421
 L -113.288,52.8273 L -112.349,54.7964 L -111.376,56.7488 L -110.368,58.6839 L -109.327,60.6012 L -108.253,62.5
 L -107.146,64.3798 L -106.006,66.2399 L -104.834,68.0799 L -103.63,69.8991 L -102.394,71.6971 L -101.127,73.4732
 L -99.8294,75.2269 L -98.5013,76.9577 L -97.1432,78.665 L -95.7556,80.3484 L -94.3387,82.0074 L -92.8931,83.6413
 L -91.4192,85.2498 L -89.9175,86.8323 L -88.3884,88.3884 L -86.8323,89.9175 L -85.2498,91.4192 L -83.6413,92.8931
 L -82.0074,94.3387 L -80.3484,95.7556 L -78.665,97.1432 L -76.9577,98.5013 L -75.2269,99.8294 L -73.4732,101.127
 L -71.6971,102.394 L -69.8991,103.63 L -68.0799,104.834 L -66.2399,106.006 L -64.3798,107.146 L -62.5,108.253
 L -60.6012,109.327 L -58.6839,110.368 L -56.7488,111.376 L -54.7964,112.349 L -52.8273,113.288 L -50.8421,114.193
 L -48.8414,115.063 L -46.8258,115.898 L -44.796,116.698 L -42.7525,117.462 L -40.696,118.19 L -38.6271,118.882
 L -36.5465,119.538 L -34.4547,120.158 L -32.3524,120.741 L -30.2402,121.287 L -28.1189,121.796 L -25.989,122.268
 L -23.8511,122.703 L -21.706,123.101 L -19.5543,123.461 L -17.3966,123.784 L -15.2337,124.068 L -13.0661,124.315
 L -10.8945,124.524 L -8.71956,124.695 L -6.54199,124.829 L -4.36243,124.924 L -2.18155,124.981 L 0,125
 z
M -27,-65 L -27,-108 L 27,-108 L 27,-65 z
M 35,-105 L 35,-107 L 40,-107 L 40,-105 z
M -40,-105 L -40,-107 L -35,-107 L -35,-105 z
M -70.1745,-50.0015 L -70.349,-50.0061 L -70.5234,-50.0137 L -70.6976,-50.0244 L -70.8716,-50.038 L -71.0453,-50.0548
 L -71.2187,-50.0745 L -71.3917,-50.0973 L -71.5643,-50.1231 L -71.7365,-50.1519 L -71.9081,-50.1837 L -72.0791,-50.2185
 L -72.2495,-50.2563 L -72.4192,-50.297 L -72.5882,-50.3407 L -72.7564,-50.3874 L -72.9237,-50.437 L -73.0902,-50.4894
 L -73.2557,-50.5448 L -73.4202,-50.6031 L -73.5837,-50.6642 L -73.7461,-50.7281 L -73.9073,-50.795 L -74.0674,-50.8645
 L -74.2262,-50.9369 L -74.3837,-51.0121 L -74.5399,-51.0899 L -74.6947,-51.1705 L -74.8481,-51.2538 L -75,-51.3397
 L -75.1504,-51.4283 L -75.2992,-51.5195 L -75.4464,-51.6133 L -75.5919,-51.7096 L -75.7358,-51.8085 L -75.8779,-51.9098
 L -76.0181,-52.0136 L -76.1566,-52.1199 L -76.2932,-52.2285 L -76.4279,-52.3396 L -76.5606,-52.4529 L -76.6913,-52.5685
 L -76.82,-52.6865 L -76.9466,-52.8066 L -77.0711,-52.9289 L -77.1934,-53.0534 L -77.3135,-53.18 L -77.4314,-53.3087
 L -77.5471,-53.4394 L -77.6604,-53.5721 L -77.7715,-53.7068 L -77.8801,-53.8434 L -77.9864,-53.9818 L -78.0902,-54.1221
 L -78.1915,-54.2642 L -78.2904,-54.4081 L -78.3867,-54.5536 L -78.4805,-54.7008 L -78.5717,-54.8496 L -78.6602,-55
 L -78.7462,-55.1519 L -78.8295,-55.3053 L -78.9101,-55.4601 L -78.9879,-55.6163 L -79.0631,-55.7738 L -79.1355,-55.9326
 L -79.205,-56.0927 L -79.2718,-56.2539 L -79.3358,-56.4163 L -79.3969,-56.5798 L -79.4552,-56.7443 L -79.5106,-56.9098
 L -79.563,-57.0763 L -79.6126,-57.2436 L -79.6593,-57.4118 L -79.703,-57.5808 L -79.7437,-57.7505 L -79.7815,-57.9209
 L -79.8163,-58.0919 L -79.8481,-58.2635 L -79.8769,-58.4357 L -79.9027,-58.6083 L -79.9255,-58.7813 L -79.9452,-58.9547
 L -79.9619,-59.1284 L -79.9756,-59.3024 L -79.9863,-59.4766 L -79.9939,-59.651 L -79.9985,-59.8255 L -80,-60
 L -79.9985,-60.1745 L -79.9939,-60.349 L -79.9863,-60.5234 L -79.9756,-60.6976 L -79.9619,-60.8716 L -79.9452,-61.0453
 L -79.9255,-61.2187 L -79.9027,-61.3917 L -79.8769,-61.5643 L -79.8481,-61.7365 L -79.8163,-61.9081 L -79.7815,-62.0791
 L -79.7437,-62.2495 L -79.703,-62.4192 L -79.6593,-62.5882 L -79.6126,-62.7564 L -79.563,-62.9237 L -79.5106,-63.0902
 L -79.4552,-63.2557 L -79.3969,-63.4202 L -79.3358,-63.5837 L -79.2718,-63.7461 L -79.205,-63.9073 L -79.1355,-64.0674
 L -79.0631,-64.2262 L -78.9879,-64.3837 L -78.9101,-64.5399 L -78.8295,-64.6947 L -78.7462,-64.8481 L -78.6602,-65
 L -78.5717,-65.1504 L -78.4805,-65.2992 L -78.3867,-65.4464 L -78.2904,-65.5919 L -78.1915,-65.7358 L -78.0902,-65.8779
 L -77.9864,-66.0181 L -77.8801,-66.1566 L -77.7715,-66.2932 L -77.6604,-66.4279 L -77.5471,-66.5606 L -77.4314,-66.6913
 L -77.3135,-66.82 L -77.1934,-66.9466 L -77.0711,-67.0711 L -76.9466,-67.1934 L -76.82,-67.3135 L -76.6913,-67.4314
 L -76.5606,-67.5471 L -76.4279,-67.6604 L -76.2932,-67.7715 L -76.1566,-67.8801 L -76.0181,-67.9864 L -75.8779,-68.0902
 L -75.7358,-68.1915 L -75.5919,-68.2904 L -75.4464,-68.3867 L -75.2992,-68.4805 L -75.1504,-68.5717 L -75,-68.6602
 L -74.8481,-68.7462 L -74.6947,-68.8295 L -74.5399,-68.9101 L -74.3837,-68.9879 L -74.2262,-69.0631 L -74.0674,-69.1355
 L -73.9073,-69.205 L -73.7461,-69.2718 L -73.5837,-69.3358 L -73.4202,-69.3969 L -73.2557,-69.4552 L -73.0902,-69.5106
 L -72.9237,-69.563 L -72.7564,-69.6126 L -72.5882,-69.6593 L -72.4192,-69.703 L -72.2495,-69.7437 L -72.0791,-69.7815
 L -71.9081,-69.8163 L -71.7365,-69.8481 L -71.5643,-69.8769 L -71.3917,-69.9027 L -71.2187,-69.9255 L -71.0453,-69.9452
 L -70.8716,-69.9619 L -70.6976,-69.9756 L -70.5234,-69.9863 L -70.349,-69.9939 L -70.1745,-69.9985 L -70,-70
 L -69.8255,-69.9985 L -69.651,-69.9939 L -69.4766,-69.9863 L -69.3024,-69.9756 L -69.1284,-69.9619 L -68.9547,-69.9452
 L -68.7813,-69.9255 L -68.6083,-69.9027 L -68.4357,-69.8769 L -68.2635,-69.8481 L -68.0919,-69.8163 L -67.9209,-69.7815
 L -67.7505,-69.7437 L -67.5808,-69.703 L -67.4118,-69.6593 L -67.2436,-69.6126 L -67.0763,-69.563 L -66.9098,-69.5106
 L -66.7443,-69.4552 L -66.5798,-69.3969 L -66.4163,-69.3358 L -66.2539,-69.2718 L -66.0927,-69.205 L -65.9326,-69.1355
 L -65.7738,-69.0631 L -65.6163,-68.9879 L -65.4601,-68.9101 L -65.3053,-68.8295 L -65.1519,-68.7462 L -65,-68.6602
 L -64.8496,-68.5717 L -64.7008,-68.4805 L -64.5536,-68.3867 L -64.4081,-68.2904 L -64.2642,-68.1915 L -64.1221,-68.0902
 L -63.9818,-67.9864 L -63.8434,-67.8801 L -63.7068,-67.7715 L -63.5721,-67.6604 L -63.4394,-67.5471 L -63.3087,-67.4314
 L -63.18,-67.3135 L -63.0534,-67.1934 L -62.9289,-67.0711 L -62.8066,-66.9466 L -62.6865,-66.82 L -62.5685,-66.6913
 L -62.4529,-66.5606 L -62.3396,-66.4279 L -62.2285,-66.2932 L -62.1199,-66.1566 L -62.0136,-66.0181 L -61.9098,-65.8779
 L -61.8085,-65.7358 L -61.7096,-65.5919 L -61.6133,-65.4464 L -61.5195,-65.2992 L -61.4283,-65.1504 L -61.3397,-65
 L -61.2538,-64.8481 L -61.1705,-64.6947 L -61.0899,-64.5399 L -61.0121,-64.3837 L -60.9369,-64.2262 L -60.8645,-64.0674
 L -60.795,-63.9073 L -60.7281,-63.7461 L -60.6642,-63.5837 L -60.6031,-63.4202 L -60.5448,-63.2557 L -60.4894,-63.0902
 L -60.437,-62.9237 L -60.3874,-62.7564 L -60.3407,-62.5882 L -60.297,-62.4192 L -60.2563,-62.2495 L -60.2185,-62.0791
 L -60.1837,-61.9081 L -60.1519,-61.7365 L -60.1231,-61.5643 L -60.0973,-61.3917 L -60.0745,-61.2187 L -60.0548,-61.0453
 L -60.038,-60.8716 L -60.0244,-60.6976 L -60.0137,-60.5234 L -60.0061,-60.349 L -60.0015,-60.1745 L -60,-60
 L -60.0015,-59.8255 L -60.0061,-59.651 L -60.0137,-59.4766 L -60.0244,-59.3024 L -60.038,-59.1284 L -60.0548,-58.9547
 L -60.0745,-58.7813 L -60.0973,-58.6083 L -60.1231,-58.4357 L -60.1519,-58.2635 L -60.1837,-58.0919 L -60.2185,-57.9209
 L -60.2563,-57.7505 L -60.297,-57.5808 L -60.3407,-57.4118 L -60.3874,-57.2436 L -60.437,-57.0763 L -60.4894,-56.9098
 L -60.5448,-56.7443 L -60.6031,-56.5798 L -60.6642,-56.4163 L -60.7281,-56.2539 L -60.795,-56.0927 L -60.8645,-55.9326
 L -60.9369,-55.7738 L -61.0121,-55.6163 L -61.0899,-55.4601 L -61.1705,-55.3053 L -61.2538,-55.1519 L -61.3397,-55
 L -61.4283,-54.8496 L -61.5195,-54.7008 L -61.6133,-54.5536 L -61.7096,-54.4081 L -61.8085,-54.2642 L -61.9098,-54.1221
 L -62.0136,-53.9818 L -62.1199,-53.8434 L -62.2285,-53.7068 L -62.3396,-53.5721 L -62.4529,-53.4394 L -62.5685,-53.3087
 L -62.6865,-53.18 L -62.8066,-53.0534 L -62.9289,-52.9289 L -63.0534,-52.8066 L -63.18,-52.6865 L -63.3087,-52.5685
 L -63.4394,-52.4529 L -63.5721,-52.3396 L -63.7068,-52.2285 L -63.8434,-52.1199 L -63.9818,-52.0136 L -64.1221,-51.9098
 L -64.2642,-51.8085 L -64.4081,-51.7096 L -64.5536,-51.6133 L -64.7008,-51.5195 L -64.8496,-51.4283 L -65,-51.3397
 L -65.1519,-51.2538 L -65.3053,-51.1705 L -65.4601,-51.0899 L -65.6163,-51.0121 L -65.7738,-50.9369 L -65.9326,-50.8645
 L -66.0927,-50.795 L -66.2539,-50.7281 L -66.4163,-50.6642 L -66.5798,-50.6031 L -66.7443,-50.5448 L -66.9098,-50.4894
 L -67.0763,-50.437 L -67.2436,-50.3874 L -67.4118,-50.3407 L -67.5808,-50.297 L -67.7505,-50.2563 L -67.9209,-50.2185
 L -68.0919,-50.1837 L -68.2635,-50.1519 L -68.4357,-50.1231 L -68.6083,-50.0973 L -68.7813,-50.0745 L -68.9547,-50.0548
 L -69.1284,-50.038 L -69.3024,-50.0244 L -69.4766,-50.0137 L -69.651,-50.0061 L -69.8255,-50.0015 L -70,-50
 z
M 35,-65 L 35,-67 L 40,-67 L 40,-65 z
M -40,-65 L -40,-67 L -35,-67 L -35,-65 z
M -45,-37 L -45,-56 L 45,-56 L 45,-37 z
M -100,-22 L -100,-30 L -70,-30 L -70,-22 z
M 70,-22 L 70,-30 L 100,-30 L 100,-22 z
M -42,22 L -42,-22 L 42,-22 L 42,22 z
M -100,30 L -100,22 L -70,22 L -70,30 z
M 70,30 L 70,22 L 100,22 L 100,30 z
" stroke="black" fill="lightgray" stroke-width="0.5"/>
</svg>
