solid OpenSCAD_Model
  facet normal -0.0871544 0 0.996195
    outer loop
      vertex 5.6 0 8.5
      vertex 6.03412 -3.07817 8.53798
      vertex 6.03412 0 8.53798
    endloop
  endfacet
  facet normal -0.0871544 0 0.996195
    outer loop
      vertex 6.03412 -3.07817 8.53798
      vertex 5.6 0 8.5
      vertex 5.6 -3.31597 8.5
    endloop
  endfacet
  facet normal -0.965935 0 -0.258783
    outer loop
      vertex 8.06202 -1.96734 11.4341
      vertex 7.94923 0 11.8551
      vertex 8.06202 0 11.4341
    endloop
  endfacet
  facet normal -0.965935 -0 -0.258783
    outer loop
      vertex 7.94923 0 11.8551
      vertex 8.06202 -1.96734 11.4341
      vertex 7.94923 -2.02912 11.8551
    endloop
  endfacet
  facet normal -0.996194 0 -0.0871584
    outer loop
      vertex 8.1 -1.94653 11
      vertex 8.06202 0 11.4341
      vertex 8.1 0 11
    endloop
  endfacet
  facet normal -0.996194 -0 -0.0871584
    outer loop
      vertex 8.06202 0 11.4341
      vertex 8.1 -1.94653 11
      vertex 8.06202 -1.96734 11.4341
    endloop
  endfacet
  facet normal -0.906286 0 -0.422666
    outer loop
      vertex 7.94923 -2.02912 11.8551
      vertex 7.76506 0 12.25
      vertex 7.94923 0 11.8551
    endloop
  endfacet
  facet normal -0.906286 -0 -0.422666
    outer loop
      vertex 7.76506 0 12.25
      vertex 7.94923 -2.02912 11.8551
      vertex 7.76506 -2.13 12.25
    endloop
  endfacet
  facet normal 0.0872 0 -0.996191
    outer loop
      vertex 5.16588 0 13.462
      vertex 5.6 -3.31597 13.5
      vertex 5.16588 -3.55377 13.462
    endloop
  endfacet
  facet normal 0.0872 0 -0.996191
    outer loop
      vertex 5.6 -3.31597 13.5
      vertex 5.16588 0 13.462
      vertex 5.6 0 13.5
    endloop
  endfacet
  facet normal 0.965935 0 -0.258783
    outer loop
      vertex 3.25077 -4.60282 11.8551
      vertex 3.13798 0 11.4341
      vertex 3.25077 0 11.8551
    endloop
  endfacet
  facet normal 0.965935 0 -0.258783
    outer loop
      vertex 3.13798 0 11.4341
      vertex 3.25077 -4.60282 11.8551
      vertex 3.13798 -4.6646 11.4341
    endloop
  endfacet
  facet normal 0.258824 0 0.965925
    outer loop
      vertex 4.74495 0 8.65077
      vertex 5.16588 -3.55377 8.53798
      vertex 5.16588 0 8.53798
    endloop
  endfacet
  facet normal 0.258824 0 0.965925
    outer loop
      vertex 5.16588 -3.55377 8.53798
      vertex 4.74495 0 8.65077
      vertex 4.74495 -3.78435 8.65077
    endloop
  endfacet
  facet normal 0.819155 0 0.573572
    outer loop
      vertex 3.43494 0 9.75
      vertex 3.68489 -4.36502 9.39303
      vertex 3.68489 0 9.39303
    endloop
  endfacet
  facet normal 0.819155 0 0.573572
    outer loop
      vertex 3.68489 -4.36502 9.39303
      vertex 3.43494 0 9.75
      vertex 3.43494 -4.50194 9.75
    endloop
  endfacet
  facet normal 0.965935 0 0.258783
    outer loop
      vertex 3.13798 0 10.5659
      vertex 3.25077 -4.60282 10.1449
      vertex 3.25077 0 10.1449
    endloop
  endfacet
  facet normal 0.965935 0 0.258783
    outer loop
      vertex 3.25077 -4.60282 10.1449
      vertex 3.13798 0 10.5659
      vertex 3.13798 -4.6646 10.5659
    endloop
  endfacet
  facet normal -0.707107 0 0.707107
    outer loop
      vertex 7.20697 0 9.08489
      vertex 7.51511 -2.26692 9.39303
      vertex 7.51511 0 9.39303
    endloop
  endfacet
  facet normal -0.707107 0 0.707107
    outer loop
      vertex 7.51511 -2.26692 9.39303
      vertex 7.20697 0 9.08489
      vertex 7.20697 -2.43571 9.08489
    endloop
  endfacet
  facet normal -0.819178 0 -0.573539
    outer loop
      vertex 7.76506 -2.13 12.25
      vertex 7.51511 0 12.607
      vertex 7.76506 0 12.25
    endloop
  endfacet
  facet normal -0.819178 -0 -0.573539
    outer loop
      vertex 7.51511 0 12.607
      vertex 7.76506 -2.13 12.25
      vertex 7.51511 -2.26692 12.607
    endloop
  endfacet
  facet normal -0.258845 -0 -0.965919
    outer loop
      vertex 6.03412 0 13.462
      vertex 6.45505 -2.8476 13.3492
      vertex 6.03412 -3.07817 13.462
    endloop
  endfacet
  facet normal -0.258845 0 -0.965919
    outer loop
      vertex 6.45505 -2.8476 13.3492
      vertex 6.03412 0 13.462
      vertex 6.45505 0 13.3492
    endloop
  endfacet
  facet normal 0.906286 0 -0.422666
    outer loop
      vertex 3.43494 -4.50194 12.25
      vertex 3.25077 0 11.8551
      vertex 3.43494 0 12.25
    endloop
  endfacet
  facet normal 0.906286 0 -0.422666
    outer loop
      vertex 3.25077 0 11.8551
      vertex 3.43494 -4.50194 12.25
      vertex 3.25077 -4.60282 11.8551
    endloop
  endfacet
  facet normal 0.996194 0 -0.0871584
    outer loop
      vertex 3.13798 -4.6646 11.4341
      vertex 3.1 0 11
      vertex 3.13798 0 11.4341
    endloop
  endfacet
  facet normal 0.996194 0 -0.0871584
    outer loop
      vertex 3.1 0 11
      vertex 3.13798 -4.6646 11.4341
      vertex 3.1 -4.68541 11
    endloop
  endfacet
  facet normal 0.573572 0 0.819155
    outer loop
      vertex 3.99303 0 9.08489
      vertex 4.35 -4.00069 8.83494
      vertex 4.35 0 8.83494
    endloop
  endfacet
  facet normal 0.573572 0 0.819155
    outer loop
      vertex 4.35 -4.00069 8.83494
      vertex 3.99303 0 9.08489
      vertex 3.99303 -4.19623 9.08489
    endloop
  endfacet
  facet normal -0.996194 0 0.0871584
    outer loop
      vertex 8.06202 0 10.5659
      vertex 8.1 -1.94653 11
      vertex 8.1 0 11
    endloop
  endfacet
  facet normal -0.996194 0 0.0871584
    outer loop
      vertex 8.1 -1.94653 11
      vertex 8.06202 0 10.5659
      vertex 8.06202 -1.96734 10.5659
    endloop
  endfacet
  facet normal -0.819155 0 0.573572
    outer loop
      vertex 7.51511 0 9.39303
      vertex 7.76506 -2.13 9.75
      vertex 7.76506 0 9.75
    endloop
  endfacet
  facet normal -0.819155 0 0.573572
    outer loop
      vertex 7.76506 -2.13 9.75
      vertex 7.51511 0 9.39303
      vertex 7.51511 -2.26692 9.39303
    endloop
  endfacet
  facet normal 0.42249 0 -0.906368
    outer loop
      vertex 4.35 0 13.1651
      vertex 4.74495 -3.78435 13.3492
      vertex 4.35 -4.00069 13.1651
    endloop
  endfacet
  facet normal 0.42249 0 -0.906368
    outer loop
      vertex 4.74495 -3.78435 13.3492
      vertex 4.35 0 13.1651
      vertex 4.74495 0 13.3492
    endloop
  endfacet
  facet normal 0.996194 0 0.0871584
    outer loop
      vertex 3.1 0 11
      vertex 3.13798 -4.6646 10.5659
      vertex 3.13798 0 10.5659
    endloop
  endfacet
  facet normal 0.996194 0 0.0871584
    outer loop
      vertex 3.13798 -4.6646 10.5659
      vertex 3.1 0 11
      vertex 3.1 -4.68541 11
    endloop
  endfacet
  facet normal -0.42249 -0 -0.906368
    outer loop
      vertex 6.45505 0 13.3492
      vertex 6.85 -2.63125 13.1651
      vertex 6.45505 -2.8476 13.3492
    endloop
  endfacet
  facet normal -0.42249 0 -0.906368
    outer loop
      vertex 6.85 -2.63125 13.1651
      vertex 6.45505 0 13.3492
      vertex 6.85 0 13.1651
    endloop
  endfacet
  facet normal 0.707061 0 -0.707153
    outer loop
      vertex 3.99303 -4.19623 12.9151
      vertex 3.68489 0 12.607
      vertex 3.99303 0 12.9151
    endloop
  endfacet
  facet normal 0.707061 0 -0.707153
    outer loop
      vertex 3.68489 0 12.607
      vertex 3.99303 -4.19623 12.9151
      vertex 3.68489 -4.36502 12.607
    endloop
  endfacet
  facet normal -0.707061 0 -0.707153
    outer loop
      vertex 7.51511 -2.26692 12.607
      vertex 7.20697 0 12.9151
      vertex 7.51511 0 12.607
    endloop
  endfacet
  facet normal -0.707061 -0 -0.707153
    outer loop
      vertex 7.20697 0 12.9151
      vertex 7.51511 -2.26692 12.607
      vertex 7.20697 -2.43571 12.9151
    endloop
  endfacet
  facet normal 0.573649 0 -0.819101
    outer loop
      vertex 3.99303 0 12.9151
      vertex 4.35 -4.00069 13.1651
      vertex 3.99303 -4.19623 12.9151
    endloop
  endfacet
  facet normal 0.573649 0 -0.819101
    outer loop
      vertex 4.35 -4.00069 13.1651
      vertex 3.99303 0 12.9151
      vertex 4.35 0 13.1651
    endloop
  endfacet
  facet normal -0.573649 -0 -0.819101
    outer loop
      vertex 6.85 0 13.1651
      vertex 7.20697 -2.43571 12.9151
      vertex 6.85 -2.63125 13.1651
    endloop
  endfacet
  facet normal -0.573649 0 -0.819101
    outer loop
      vertex 7.20697 -2.43571 12.9151
      vertex 6.85 0 13.1651
      vertex 7.20697 0 12.9151
    endloop
  endfacet
  facet normal -0.422622 0 0.906306
    outer loop
      vertex 6.45505 0 8.65077
      vertex 6.85 -2.63125 8.83494
      vertex 6.85 0 8.83494
    endloop
  endfacet
  facet normal -0.422622 0 0.906306
    outer loop
      vertex 6.85 -2.63125 8.83494
      vertex 6.45505 0 8.65077
      vertex 6.45505 -2.8476 8.65077
    endloop
  endfacet
  facet normal 0.258845 0 -0.965919
    outer loop
      vertex 4.74495 0 13.3492
      vertex 5.16588 -3.55377 13.462
      vertex 4.74495 -3.78435 13.3492
    endloop
  endfacet
  facet normal 0.258845 0 -0.965919
    outer loop
      vertex 5.16588 -3.55377 13.462
      vertex 4.74495 0 13.3492
      vertex 5.16588 0 13.462
    endloop
  endfacet
  facet normal -0.906286 0 0.422666
    outer loop
      vertex 7.76506 0 9.75
      vertex 7.94923 -2.02912 10.1449
      vertex 7.94923 0 10.1449
    endloop
  endfacet
  facet normal -0.906286 0 0.422666
    outer loop
      vertex 7.94923 -2.02912 10.1449
      vertex 7.76506 0 9.75
      vertex 7.76506 -2.13 9.75
    endloop
  endfacet
  facet normal -0.573572 0 0.819155
    outer loop
      vertex 6.85 0 8.83494
      vertex 7.20697 -2.43571 9.08489
      vertex 7.20697 0 9.08489
    endloop
  endfacet
  facet normal -0.573572 0 0.819155
    outer loop
      vertex 7.20697 -2.43571 9.08489
      vertex 6.85 0 8.83494
      vertex 6.85 -2.63125 8.83494
    endloop
  endfacet
  facet normal 0.707107 0 0.707107
    outer loop
      vertex 3.68489 0 9.39303
      vertex 3.99303 -4.19623 9.08489
      vertex 3.99303 0 9.08489
    endloop
  endfacet
  facet normal 0.707107 0 0.707107
    outer loop
      vertex 3.99303 -4.19623 9.08489
      vertex 3.68489 0 9.39303
      vertex 3.68489 -4.36502 9.39303
    endloop
  endfacet
  facet normal 0.906286 0 0.422666
    outer loop
      vertex 3.25077 0 10.1449
      vertex 3.43494 -4.50194 9.75
      vertex 3.43494 0 9.75
    endloop
  endfacet
  facet normal 0.906286 0 0.422666
    outer loop
      vertex 3.43494 -4.50194 9.75
      vertex 3.25077 0 10.1449
      vertex 3.25077 -4.60282 10.1449
    endloop
  endfacet
  facet normal -0.258824 0 0.965925
    outer loop
      vertex 6.03412 0 8.53798
      vertex 6.45505 -2.8476 8.65077
      vertex 6.45505 0 8.65077
    endloop
  endfacet
  facet normal -0.258824 0 0.965925
    outer loop
      vertex 6.45505 -2.8476 8.65077
      vertex 6.03412 0 8.53798
      vertex 6.03412 -3.07817 8.53798
    endloop
  endfacet
  facet normal -0.0872 -0 -0.996191
    outer loop
      vertex 5.6 0 13.5
      vertex 6.03412 -3.07817 13.462
      vertex 5.6 -3.31597 13.5
    endloop
  endfacet
  facet normal -0.0872 0 -0.996191
    outer loop
      vertex 6.03412 -3.07817 13.462
      vertex 5.6 0 13.5
      vertex 6.03412 0 13.462
    endloop
  endfacet
  facet normal 0.422622 0 0.906306
    outer loop
      vertex 4.35 0 8.83494
      vertex 4.74495 -3.78435 8.65077
      vertex 4.74495 0 8.65077
    endloop
  endfacet
  facet normal 0.422622 0 0.906306
    outer loop
      vertex 4.74495 -3.78435 8.65077
      vertex 4.35 0 8.83494
      vertex 4.35 -4.00069 8.83494
    endloop
  endfacet
  facet normal 0 -1 0
    outer loop
      vertex 5.6 0 12.5
      vertex 5.6 0 13.5
      vertex 5.16588 0 13.462
    endloop
  endfacet
  facet normal 0 -1 0
    outer loop
      vertex 5.33953 0 12.4772
      vertex 5.16588 0 13.462
      vertex 4.74495 0 13.3492
    endloop
  endfacet
  facet normal 0 -1 0
    outer loop
      vertex 5.6 0 13.5
      vertex 5.6 0 12.5
      vertex 6.03412 0 13.462
    endloop
  endfacet
  facet normal 0 -1 0
    outer loop
      vertex 5.08697 0 12.4095
      vertex 4.74495 0 13.3492
      vertex 4.35 0 13.1651
    endloop
  endfacet
  facet normal 0 -1 0
    outer loop
      vertex 5.86047 0 12.4772
      vertex 6.03412 0 13.462
      vertex 5.6 0 12.5
    endloop
  endfacet
  facet normal 0 -1 0
    outer loop
      vertex 4.85 0 12.299
      vertex 4.35 0 13.1651
      vertex 3.99303 0 12.9151
    endloop
  endfacet
  facet normal 0 -1 -0
    outer loop
      vertex 6.03412 0 13.462
      vertex 5.86047 0 12.4772
      vertex 6.45505 0 13.3492
    endloop
  endfacet
  facet normal 0 -1 0
    outer loop
      vertex 4.63582 0 12.1491
      vertex 3.99303 0 12.9151
      vertex 3.68489 0 12.607
    endloop
  endfacet
  facet normal 0 -1 0
    outer loop
      vertex 6.11303 0 12.4095
      vertex 6.45505 0 13.3492
      vertex 5.86047 0 12.4772
    endloop
  endfacet
  facet normal 0 -1 -0
    outer loop
      vertex 6.45505 0 13.3492
      vertex 6.11303 0 12.4095
      vertex 6.85 0 13.1651
    endloop
  endfacet
  facet normal 0 -1 0
    outer loop
      vertex 5.16588 0 13.462
      vertex 5.33953 0 12.4772
      vertex 5.6 0 12.5
    endloop
  endfacet
  facet normal 0 -1 0
    outer loop
      vertex 4.74495 0 13.3492
      vertex 5.08697 0 12.4095
      vertex 5.33953 0 12.4772
    endloop
  endfacet
  facet normal 0 -1 0
    outer loop
      vertex 4.35 0 13.1651
      vertex 4.85 0 12.299
      vertex 5.08697 0 12.4095
    endloop
  endfacet
  facet normal 0 -1 0
    outer loop
      vertex 4.45093 0 11.9642
      vertex 3.68489 0 12.607
      vertex 3.43494 0 12.25
    endloop
  endfacet
  facet normal 0 -1 0
    outer loop
      vertex 3.99303 0 12.9151
      vertex 4.63582 0 12.1491
      vertex 4.85 0 12.299
    endloop
  endfacet
  facet normal 0 -1 0
    outer loop
      vertex 3.68489 0 12.607
      vertex 4.45093 0 11.9642
      vertex 4.63582 0 12.1491
    endloop
  endfacet
  facet normal 0 -1 0
    outer loop
      vertex 4.30096 0 11.75
      vertex 3.43494 0 12.25
      vertex 3.25077 0 11.8551
    endloop
  endfacet
  facet normal 0 -1 0
    outer loop
      vertex 3.43494 0 12.25
      vertex 4.30096 0 11.75
      vertex 4.45093 0 11.9642
    endloop
  endfacet
  facet normal 0 -1 0
    outer loop
      vertex 3.25077 0 11.8551
      vertex 4.19046 0 11.513
      vertex 4.30096 0 11.75
    endloop
  endfacet
  facet normal 0 -1 0
    outer loop
      vertex 3.13798 0 11.4341
      vertex 4.19046 0 11.513
      vertex 3.25077 0 11.8551
    endloop
  endfacet
  facet normal 0 -1 0
    outer loop
      vertex 3.13798 0 11.4341
      vertex 4.12279 0 11.2605
      vertex 4.19046 0 11.513
    endloop
  endfacet
  facet normal 0 -1 0
    outer loop
      vertex 3.1 0 11
      vertex 4.12279 0 11.2605
      vertex 3.13798 0 11.4341
    endloop
  endfacet
  facet normal 0 -1 0
    outer loop
      vertex 3.1 0 11
      vertex 4.1 0 11
      vertex 4.12279 0 11.2605
    endloop
  endfacet
  facet normal 0 -1 0
    outer loop
      vertex 3.1 0 11
      vertex 4.12279 0 10.7395
      vertex 4.1 0 11
    endloop
  endfacet
  facet normal 0 -1 0
    outer loop
      vertex 3.13798 0 10.5659
      vertex 4.12279 0 10.7395
      vertex 3.1 0 11
    endloop
  endfacet
  facet normal 0 -1 0
    outer loop
      vertex 3.13798 0 10.5659
      vertex 4.19046 0 10.487
      vertex 4.12279 0 10.7395
    endloop
  endfacet
  facet normal 0 -1 0
    outer loop
      vertex 3.25077 0 10.1449
      vertex 4.19046 0 10.487
      vertex 3.13798 0 10.5659
    endloop
  endfacet
  facet normal 0 -1 -0
    outer loop
      vertex 4.19046 0 10.487
      vertex 3.25077 0 10.1449
      vertex 4.30096 0 10.25
    endloop
  endfacet
  facet normal 0 -1 0
    outer loop
      vertex 3.43494 0 9.75
      vertex 4.30096 0 10.25
      vertex 3.25077 0 10.1449
    endloop
  endfacet
  facet normal 0 -1 -0
    outer loop
      vertex 4.30096 0 10.25
      vertex 3.43494 0 9.75
      vertex 4.45093 0 10.0358
    endloop
  endfacet
  facet normal 0 -1 0
    outer loop
      vertex 3.68489 0 9.39303
      vertex 4.45093 0 10.0358
      vertex 3.43494 0 9.75
    endloop
  endfacet
  facet normal 0 -1 -0
    outer loop
      vertex 4.45093 0 10.0358
      vertex 3.68489 0 9.39303
      vertex 4.63582 0 9.85093
    endloop
  endfacet
  facet normal 0 -1 0
    outer loop
      vertex 3.99303 0 9.08489
      vertex 4.63582 0 9.85093
      vertex 3.68489 0 9.39303
    endloop
  endfacet
  facet normal 0 -1 -0
    outer loop
      vertex 4.63582 0 9.85093
      vertex 3.99303 0 9.08489
      vertex 4.85 0 9.70096
    endloop
  endfacet
  facet normal 0 -1 -0
    outer loop
      vertex 4.85 0 9.70096
      vertex 4.35 0 8.83494
      vertex 5.08697 0 9.59046
    endloop
  endfacet
  facet normal 0 -1 0
    outer loop
      vertex 4.35 0 8.83494
      vertex 4.85 0 9.70096
      vertex 3.99303 0 9.08489
    endloop
  endfacet
  facet normal 0 -1 0
    outer loop
      vertex 6.35 0 12.299
      vertex 6.85 0 13.1651
      vertex 6.11303 0 12.4095
    endloop
  endfacet
  facet normal 0 -1 -0
    outer loop
      vertex 6.85 0 13.1651
      vertex 6.35 0 12.299
      vertex 7.20697 0 12.9151
    endloop
  endfacet
  facet normal 0 -1 0
    outer loop
      vertex 6.56418 0 12.1491
      vertex 7.20697 0 12.9151
      vertex 6.35 0 12.299
    endloop
  endfacet
  facet normal 0 -1 -0
    outer loop
      vertex 7.20697 0 12.9151
      vertex 6.56418 0 12.1491
      vertex 7.51511 0 12.607
    endloop
  endfacet
  facet normal 0 -1 0
    outer loop
      vertex 6.74907 0 11.9642
      vertex 7.51511 0 12.607
      vertex 6.56418 0 12.1491
    endloop
  endfacet
  facet normal 0 -1 -0
    outer loop
      vertex 7.51511 0 12.607
      vertex 6.74907 0 11.9642
      vertex 7.76506 0 12.25
    endloop
  endfacet
  facet normal 0 -1 0
    outer loop
      vertex 6.89904 0 11.75
      vertex 7.76506 0 12.25
      vertex 6.74907 0 11.9642
    endloop
  endfacet
  facet normal 0 -1 -0
    outer loop
      vertex 7.76506 0 12.25
      vertex 6.89904 0 11.75
      vertex 7.94923 0 11.8551
    endloop
  endfacet
  facet normal 0 -1 0
    outer loop
      vertex 7.00954 0 11.513
      vertex 7.94923 0 11.8551
      vertex 6.89904 0 11.75
    endloop
  endfacet
  facet normal 0 -1 0
    outer loop
      vertex 7.00954 0 11.513
      vertex 8.06202 0 11.4341
      vertex 7.94923 0 11.8551
    endloop
  endfacet
  facet normal 0 -1 0
    outer loop
      vertex 7.07721 0 11.2605
      vertex 8.06202 0 11.4341
      vertex 7.00954 0 11.513
    endloop
  endfacet
  facet normal 0 -1 0
    outer loop
      vertex 7.1 0 11
      vertex 8.06202 0 11.4341
      vertex 7.07721 0 11.2605
    endloop
  endfacet
  facet normal 0 -1 0
    outer loop
      vertex 7.1 0 11
      vertex 8.1 0 11
      vertex 8.06202 0 11.4341
    endloop
  endfacet
  facet normal 0 -1 0
    outer loop
      vertex 7.07721 0 10.7395
      vertex 8.1 0 11
      vertex 7.1 0 11
    endloop
  endfacet
  facet normal 0 -1 0
    outer loop
      vertex 7.07721 0 10.7395
      vertex 8.06202 0 10.5659
      vertex 8.1 0 11
    endloop
  endfacet
  facet normal 0 -1 0
    outer loop
      vertex 7.00954 0 10.487
      vertex 8.06202 0 10.5659
      vertex 7.07721 0 10.7395
    endloop
  endfacet
  facet normal 0 -1 0
    outer loop
      vertex 7.94923 0 10.1449
      vertex 7.00954 0 10.487
      vertex 6.89904 0 10.25
    endloop
  endfacet
  facet normal 0 -1 0
    outer loop
      vertex 7.00954 0 10.487
      vertex 7.94923 0 10.1449
      vertex 8.06202 0 10.5659
    endloop
  endfacet
  facet normal 0 -1 0
    outer loop
      vertex 7.76506 0 9.75
      vertex 6.89904 0 10.25
      vertex 6.74907 0 10.0358
    endloop
  endfacet
  facet normal 0 -1 0
    outer loop
      vertex 7.51511 0 9.39303
      vertex 6.74907 0 10.0358
      vertex 6.56418 0 9.85093
    endloop
  endfacet
  facet normal 0 -1 0
    outer loop
      vertex 6.89904 0 10.25
      vertex 7.76506 0 9.75
      vertex 7.94923 0 10.1449
    endloop
  endfacet
  facet normal 0 -1 0
    outer loop
      vertex 7.20697 0 9.08489
      vertex 6.56418 0 9.85093
      vertex 6.35 0 9.70096
    endloop
  endfacet
  facet normal 0 -1 0
    outer loop
      vertex 6.85 0 8.83494
      vertex 6.35 0 9.70096
      vertex 6.11303 0 9.59046
    endloop
  endfacet
  facet normal 0 -1 0
    outer loop
      vertex 6.45505 0 8.65077
      vertex 6.11303 0 9.59046
      vertex 5.86047 0 9.52279
    endloop
  endfacet
  facet normal 0 -1 0
    outer loop
      vertex 6.74907 0 10.0358
      vertex 7.51511 0 9.39303
      vertex 7.76506 0 9.75
    endloop
  endfacet
  facet normal 0 -1 0
    outer loop
      vertex 6.03412 0 8.53798
      vertex 5.86047 0 9.52279
      vertex 5.6 0 9.5
    endloop
  endfacet
  facet normal 0 -1 0
    outer loop
      vertex 4.74495 0 8.65077
      vertex 5.08697 0 9.59046
      vertex 4.35 0 8.83494
    endloop
  endfacet
  facet normal 0 -1 -0
    outer loop
      vertex 5.08697 0 9.59046
      vertex 4.74495 0 8.65077
      vertex 5.33953 0 9.52279
    endloop
  endfacet
  facet normal 0 -1 0
    outer loop
      vertex 6.56418 0 9.85093
      vertex 7.20697 0 9.08489
      vertex 7.51511 0 9.39303
    endloop
  endfacet
  facet normal 0 -1 0
    outer loop
      vertex 5.16588 0 8.53798
      vertex 5.33953 0 9.52279
      vertex 4.74495 0 8.65077
    endloop
  endfacet
  facet normal 0 -1 0
    outer loop
      vertex 6.35 0 9.70096
      vertex 6.85 0 8.83494
      vertex 7.20697 0 9.08489
    endloop
  endfacet
  facet normal 0 -1 -0
    outer loop
      vertex 5.33953 0 9.52279
      vertex 5.16588 0 8.53798
      vertex 5.6 0 9.5
    endloop
  endfacet
  facet normal 0 -1 0
    outer loop
      vertex 6.11303 0 9.59046
      vertex 6.45505 0 8.65077
      vertex 6.85 0 8.83494
    endloop
  endfacet
  facet normal 0 -1 0
    outer loop
      vertex 5.6 0 8.5
      vertex 5.6 0 9.5
      vertex 5.16588 0 8.53798
    endloop
  endfacet
  facet normal 0 -1 0
    outer loop
      vertex 5.86047 0 9.52279
      vertex 6.03412 0 8.53798
      vertex 6.45505 0 8.65077
    endloop
  endfacet
  facet normal 0 -1 0
    outer loop
      vertex 5.6 0 9.5
      vertex 5.6 0 8.5
      vertex 6.03412 0 8.53798
    endloop
  endfacet
  facet normal 0.0871544 0 0.996195
    outer loop
      vertex 5.16588 0 8.53798
      vertex 5.6 -3.31597 8.5
      vertex 5.6 0 8.5
    endloop
  endfacet
  facet normal 0.0871544 0 0.996195
    outer loop
      vertex 5.6 -3.31597 8.5
      vertex 5.16588 0 8.53798
      vertex 5.16588 -3.55377 8.53798
    endloop
  endfacet
  facet normal 0.819178 0 -0.573539
    outer loop
      vertex 3.68489 -4.36502 12.607
      vertex 3.43494 0 12.25
      vertex 3.68489 0 12.607
    endloop
  endfacet
  facet normal 0.819178 0 -0.573539
    outer loop
      vertex 3.43494 0 12.25
      vertex 3.68489 -4.36502 12.607
      vertex 3.43494 -4.50194 12.25
    endloop
  endfacet
  facet normal -0.965935 0 0.258783
    outer loop
      vertex 7.94923 0 10.1449
      vertex 8.06202 -1.96734 10.5659
      vertex 8.06202 0 10.5659
    endloop
  endfacet
  facet normal -0.965935 0 0.258783
    outer loop
      vertex 8.06202 -1.96734 10.5659
      vertex 7.94923 0 10.1449
      vertex 7.94923 -2.02912 10.1449
    endloop
  endfacet
  facet normal -0.965914 0 0.258865
    outer loop
      vertex 7.00954 0 10.487
      vertex 7.07721 5.6 10.7395
      vertex 7.00954 5.6 10.487
    endloop
  endfacet
  facet normal -0.965914 0 0.258865
    outer loop
      vertex 7.07721 5.6 10.7395
      vertex 7.00954 0 10.487
      vertex 7.07721 0 10.7395
    endloop
  endfacet
  facet normal -0.965914 0 -0.258865
    outer loop
      vertex 7.07721 0 11.2605
      vertex 7.00954 5.6 11.513
      vertex 7.07721 5.6 11.2605
    endloop
  endfacet
  facet normal -0.965914 -0 -0.258865
    outer loop
      vertex 7.00954 5.6 11.513
      vertex 7.07721 0 11.2605
      vertex 7.00954 0 11.513
    endloop
  endfacet
  facet normal -0.996195 0 -0.0871527
    outer loop
      vertex 7.1 0 11
      vertex 7.07721 5.6 11.2605
      vertex 7.1 5.6 11
    endloop
  endfacet
  facet normal -0.996195 -0 -0.0871527
    outer loop
      vertex 7.07721 5.6 11.2605
      vertex 7.1 0 11
      vertex 7.07721 0 11.2605
    endloop
  endfacet
  facet normal -0.90633 0 -0.422571
    outer loop
      vertex 7.00954 0 11.513
      vertex 6.89904 5.6 11.75
      vertex 7.00954 5.6 11.513
    endloop
  endfacet
  facet normal -0.90633 -0 -0.422571
    outer loop
      vertex 6.89904 5.6 11.75
      vertex 7.00954 0 11.513
      vertex 6.89904 0 11.75
    endloop
  endfacet
  facet normal 0.965914 -0 0.258865
    outer loop
      vertex 4.12279 0 10.7395
      vertex 4.19046 5.6 10.487
      vertex 4.12279 5.6 10.7395
    endloop
  endfacet
  facet normal 0.965914 0 0.258865
    outer loop
      vertex 4.19046 5.6 10.487
      vertex 4.12279 0 10.7395
      vertex 4.19046 0 10.487
    endloop
  endfacet
  facet normal 0.819178 0 -0.573539
    outer loop
      vertex 4.45093 0 11.9642
      vertex 4.30096 5.6 11.75
      vertex 4.45093 5.6 11.9642
    endloop
  endfacet
  facet normal 0.819178 0 -0.573539
    outer loop
      vertex 4.30096 5.6 11.75
      vertex 4.45093 0 11.9642
      vertex 4.30096 0 11.75
    endloop
  endfacet
  facet normal 0.422615 0 -0.906309
    outer loop
      vertex 4.85 0 12.299
      vertex 5.08697 5.6 12.4095
      vertex 5.08697 0 12.4095
    endloop
  endfacet
  facet normal 0.422615 0 -0.906309
    outer loop
      vertex 5.08697 5.6 12.4095
      vertex 4.85 0 12.299
      vertex 4.85 5.6 12.299
    endloop
  endfacet
  facet normal 0.573575 0 0.819153
    outer loop
      vertex 4.63582 5.6 9.85093
      vertex 4.85 0 9.70096
      vertex 4.85 5.6 9.70096
    endloop
  endfacet
  facet normal 0.573575 0 0.819153
    outer loop
      vertex 4.85 0 9.70096
      vertex 4.63582 5.6 9.85093
      vertex 4.63582 0 9.85093
    endloop
  endfacet
  facet normal 0.0871627 0 0.996194
    outer loop
      vertex 5.33953 5.6 9.52279
      vertex 5.6 0 9.5
      vertex 5.6 5.6 9.5
    endloop
  endfacet
  facet normal 0.0871627 0 0.996194
    outer loop
      vertex 5.6 0 9.5
      vertex 5.33953 5.6 9.52279
      vertex 5.33953 0 9.52279
    endloop
  endfacet
  facet normal -0.0871627 0 0.996194
    outer loop
      vertex 5.6 5.6 9.5
      vertex 5.86047 0 9.52279
      vertex 5.86047 5.6 9.52279
    endloop
  endfacet
  facet normal -0.0871627 0 0.996194
    outer loop
      vertex 5.86047 0 9.52279
      vertex 5.6 5.6 9.5
      vertex 5.6 0 9.5
    endloop
  endfacet
  facet normal -0.90633 0 0.422571
    outer loop
      vertex 6.89904 0 10.25
      vertex 7.00954 5.6 10.487
      vertex 6.89904 5.6 10.25
    endloop
  endfacet
  facet normal -0.90633 0 0.422571
    outer loop
      vertex 7.00954 5.6 10.487
      vertex 6.89904 0 10.25
      vertex 7.00954 0 10.487
    endloop
  endfacet
  facet normal -0.707126 0 -0.707088
    outer loop
      vertex 6.74907 0 11.9642
      vertex 6.56418 5.6 12.1491
      vertex 6.74907 5.6 11.9642
    endloop
  endfacet
  facet normal -0.707126 -0 -0.707088
    outer loop
      vertex 6.56418 5.6 12.1491
      vertex 6.74907 0 11.9642
      vertex 6.56418 0 12.1491
    endloop
  endfacet
  facet normal -0.707069 0 0.707145
    outer loop
      vertex 6.56418 0 9.85093
      vertex 6.74907 5.6 10.0358
      vertex 6.56418 5.6 9.85093
    endloop
  endfacet
  facet normal -0.707069 0 0.707145
    outer loop
      vertex 6.74907 5.6 10.0358
      vertex 6.56418 0 9.85093
      vertex 6.74907 0 10.0358
    endloop
  endfacet
  facet normal 0.996195 0 -0.0871527
    outer loop
      vertex 4.12279 0 11.2605
      vertex 4.1 5.6 11
      vertex 4.12279 5.6 11.2605
    endloop
  endfacet
  facet normal 0.996195 0 -0.0871527
    outer loop
      vertex 4.1 5.6 11
      vertex 4.12279 0 11.2605
      vertex 4.1 0 11
    endloop
  endfacet
  facet normal -0.258915 0 -0.9659
    outer loop
      vertex 5.86047 0 12.4772
      vertex 6.11303 5.6 12.4095
      vertex 6.11303 0 12.4095
    endloop
  endfacet
  facet normal -0.258915 0 -0.9659
    outer loop
      vertex 6.11303 5.6 12.4095
      vertex 5.86047 0 12.4772
      vertex 5.86047 5.6 12.4772
    endloop
  endfacet
  facet normal 0.996195 -0 0.0871527
    outer loop
      vertex 4.1 0 11
      vertex 4.12279 5.6 10.7395
      vertex 4.1 5.6 11
    endloop
  endfacet
  facet normal 0.996195 0 0.0871527
    outer loop
      vertex 4.12279 5.6 10.7395
      vertex 4.1 0 11
      vertex 4.12279 0 10.7395
    endloop
  endfacet
  facet normal -0.819178 0 0.573539
    outer loop
      vertex 6.74907 0 10.0358
      vertex 6.89904 5.6 10.25
      vertex 6.74907 5.6 10.0358
    endloop
  endfacet
  facet normal -0.819178 0 0.573539
    outer loop
      vertex 6.89904 5.6 10.25
      vertex 6.74907 0 10.0358
      vertex 6.89904 0 10.25
    endloop
  endfacet
  facet normal 0.258807 0 0.965929
    outer loop
      vertex 5.08697 5.6 9.59046
      vertex 5.33953 0 9.52279
      vertex 5.33953 5.6 9.52279
    endloop
  endfacet
  facet normal 0.258807 0 0.965929
    outer loop
      vertex 5.33953 0 9.52279
      vertex 5.08697 5.6 9.59046
      vertex 5.08697 0 9.59046
    endloop
  endfacet
  facet normal -0.422615 0 0.906309
    outer loop
      vertex 6.11303 5.6 9.59046
      vertex 6.35 0 9.70096
      vertex 6.35 5.6 9.70096
    endloop
  endfacet
  facet normal -0.422615 0 0.906309
    outer loop
      vertex 6.35 0 9.70096
      vertex 6.11303 5.6 9.59046
      vertex 6.11303 0 9.59046
    endloop
  endfacet
  facet normal 0.573396 0 -0.819279
    outer loop
      vertex 4.63582 0 12.1491
      vertex 4.85 5.6 12.299
      vertex 4.85 0 12.299
    endloop
  endfacet
  facet normal 0.573396 0 -0.819279
    outer loop
      vertex 4.85 5.6 12.299
      vertex 4.63582 0 12.1491
      vertex 4.63582 5.6 12.1491
    endloop
  endfacet
  facet normal -0.819178 0 -0.573539
    outer loop
      vertex 6.89904 0 11.75
      vertex 6.74907 5.6 11.9642
      vertex 6.89904 5.6 11.75
    endloop
  endfacet
  facet normal -0.819178 -0 -0.573539
    outer loop
      vertex 6.74907 5.6 11.9642
      vertex 6.89904 0 11.75
      vertex 6.74907 0 11.9642
    endloop
  endfacet
  facet normal -0.422615 0 -0.906309
    outer loop
      vertex 6.11303 0 12.4095
      vertex 6.35 5.6 12.299
      vertex 6.35 0 12.299
    endloop
  endfacet
  facet normal -0.422615 0 -0.906309
    outer loop
      vertex 6.35 5.6 12.299
      vertex 6.11303 0 12.4095
      vertex 6.11303 5.6 12.4095
    endloop
  endfacet
  facet normal -0.258807 0 0.965929
    outer loop
      vertex 5.86047 5.6 9.52279
      vertex 6.11303 0 9.59046
      vertex 6.11303 5.6 9.59046
    endloop
  endfacet
  facet normal -0.258807 0 0.965929
    outer loop
      vertex 6.11303 0 9.59046
      vertex 5.86047 5.6 9.52279
      vertex 5.86047 0 9.52279
    endloop
  endfacet
  facet normal -0.573575 0 0.819153
    outer loop
      vertex 6.35 5.6 9.70096
      vertex 6.56418 0 9.85093
      vertex 6.56418 5.6 9.85093
    endloop
  endfacet
  facet normal -0.573575 0 0.819153
    outer loop
      vertex 6.56418 0 9.85093
      vertex 6.35 5.6 9.70096
      vertex 6.35 0 9.70096
    endloop
  endfacet
  facet normal -0.996195 0 0.0871527
    outer loop
      vertex 7.07721 0 10.7395
      vertex 7.1 5.6 11
      vertex 7.07721 5.6 10.7395
    endloop
  endfacet
  facet normal -0.996195 0 0.0871527
    outer loop
      vertex 7.1 5.6 11
      vertex 7.07721 0 10.7395
      vertex 7.1 0 11
    endloop
  endfacet
  facet normal -0.573396 0 -0.819279
    outer loop
      vertex 6.35 0 12.299
      vertex 6.56418 5.6 12.1491
      vertex 6.56418 0 12.1491
    endloop
  endfacet
  facet normal -0.573396 0 -0.819279
    outer loop
      vertex 6.56418 5.6 12.1491
      vertex 6.35 0 12.299
      vertex 6.35 5.6 12.299
    endloop
  endfacet
  facet normal -0.0872006 0 -0.996191
    outer loop
      vertex 5.6 0 12.5
      vertex 5.86047 5.6 12.4772
      vertex 5.86047 0 12.4772
    endloop
  endfacet
  facet normal -0.0872006 0 -0.996191
    outer loop
      vertex 5.86047 5.6 12.4772
      vertex 5.6 0 12.5
      vertex 5.6 5.6 12.5
    endloop
  endfacet
  facet normal 0.90633 0 -0.422571
    outer loop
      vertex 4.30096 0 11.75
      vertex 4.19046 5.6 11.513
      vertex 4.30096 5.6 11.75
    endloop
  endfacet
  facet normal 0.90633 0 -0.422571
    outer loop
      vertex 4.19046 5.6 11.513
      vertex 4.30096 0 11.75
      vertex 4.19046 0 11.513
    endloop
  endfacet
  facet normal 0.258915 0 -0.9659
    outer loop
      vertex 5.08697 0 12.4095
      vertex 5.33953 5.6 12.4772
      vertex 5.33953 0 12.4772
    endloop
  endfacet
  facet normal 0.258915 0 -0.9659
    outer loop
      vertex 5.33953 5.6 12.4772
      vertex 5.08697 0 12.4095
      vertex 5.08697 5.6 12.4095
    endloop
  endfacet
  facet normal 0.0872006 0 -0.996191
    outer loop
      vertex 5.33953 0 12.4772
      vertex 5.6 5.6 12.5
      vertex 5.6 0 12.5
    endloop
  endfacet
  facet normal 0.0872006 0 -0.996191
    outer loop
      vertex 5.6 5.6 12.5
      vertex 5.33953 0 12.4772
      vertex 5.33953 5.6 12.4772
    endloop
  endfacet
  facet normal 0.90633 -0 0.422571
    outer loop
      vertex 4.19046 0 10.487
      vertex 4.30096 5.6 10.25
      vertex 4.19046 5.6 10.487
    endloop
  endfacet
  facet normal 0.90633 0 0.422571
    outer loop
      vertex 4.30096 5.6 10.25
      vertex 4.19046 0 10.487
      vertex 4.30096 0 10.25
    endloop
  endfacet
  facet normal 0.819178 -0 0.573539
    outer loop
      vertex 4.30096 0 10.25
      vertex 4.45093 5.6 10.0358
      vertex 4.30096 5.6 10.25
    endloop
  endfacet
  facet normal 0.819178 0 0.573539
    outer loop
      vertex 4.45093 5.6 10.0358
      vertex 4.30096 0 10.25
      vertex 4.45093 0 10.0358
    endloop
  endfacet
  facet normal 0.707069 -0 0.707145
    outer loop
      vertex 4.45093 0 10.0358
      vertex 4.63582 5.6 9.85093
      vertex 4.45093 5.6 10.0358
    endloop
  endfacet
  facet normal 0.707069 0 0.707145
    outer loop
      vertex 4.63582 5.6 9.85093
      vertex 4.45093 0 10.0358
      vertex 4.63582 0 9.85093
    endloop
  endfacet
  facet normal 0.422615 0 0.906309
    outer loop
      vertex 4.85 5.6 9.70096
      vertex 5.08697 0 9.59046
      vertex 5.08697 5.6 9.59046
    endloop
  endfacet
  facet normal 0.422615 0 0.906309
    outer loop
      vertex 5.08697 0 9.59046
      vertex 4.85 5.6 9.70096
      vertex 4.85 0 9.70096
    endloop
  endfacet
  facet normal 0.965914 0 -0.258865
    outer loop
      vertex 4.19046 0 11.513
      vertex 4.12279 5.6 11.2605
      vertex 4.19046 5.6 11.513
    endloop
  endfacet
  facet normal 0.965914 0 -0.258865
    outer loop
      vertex 4.12279 5.6 11.2605
      vertex 4.19046 0 11.513
      vertex 4.12279 0 11.2605
    endloop
  endfacet
  facet normal 0.707126 0 -0.707088
    outer loop
      vertex 4.63582 0 12.1491
      vertex 4.45093 5.6 11.9642
      vertex 4.63582 5.6 12.1491
    endloop
  endfacet
  facet normal 0.707126 0 -0.707088
    outer loop
      vertex 4.45093 5.6 11.9642
      vertex 4.63582 0 12.1491
      vertex 4.45093 0 11.9642
    endloop
  endfacet
  facet normal 0.48042 -0.877039 -5.68765e-08
    outer loop
      vertex 6.03412 -3.07817 13.462
      vertex 2.8 -4.84974 22
      vertex 5.6 -3.31597 13.5
    endloop
  endfacet
  facet normal 0.48042 -0.877039 -5.36884e-08
    outer loop
      vertex 2.8 -4.84974 22
      vertex 5.16588 -3.55377 13.462
      vertex 5.6 -3.31597 13.5
    endloop
  endfacet
  facet normal 0.480427 -0.877034 2.71651e-06
    outer loop
      vertex 2.8 -4.84974 22
      vertex 4.74495 -3.78435 13.3492
      vertex 5.16588 -3.55377 13.462
    endloop
  endfacet
  facet normal 0.480414 -0.877042 -1.23086e-06
    outer loop
      vertex 2.8 -4.84974 22
      vertex 4.35 -4.00069 13.1651
      vertex 4.74495 -3.78435 13.3492
    endloop
  endfacet
  facet normal 0.480421 -0.877038 4.01581e-07
    outer loop
      vertex 2.8 -4.84974 22
      vertex 3.99303 -4.19623 12.9151
      vertex 4.35 -4.00069 13.1651
    endloop
  endfacet
  facet normal 0.480417 -0.87704 -2.87372e-07
    outer loop
      vertex 2.8 -4.84974 22
      vertex 3.68489 -4.36502 12.607
      vertex 3.99303 -4.19623 12.9151
    endloop
  endfacet
  facet normal 0.480428 -0.877034 1.11117e-06
    outer loop
      vertex 2.8 -4.84974 22
      vertex 3.43494 -4.50194 12.25
      vertex 3.68489 -4.36502 12.607
    endloop
  endfacet
  facet normal 0.480407 -0.877045 -6.76643e-07
    outer loop
      vertex 2.8 -4.84974 22
      vertex 3.25077 -4.60282 11.8551
      vertex 3.43494 -4.50194 12.25
    endloop
  endfacet
  facet normal 0.480402 -0.877049 -1.00997e-06
    outer loop
      vertex 2.8 -4.84974 22
      vertex 3.13798 -4.6646 11.4341
      vertex 3.25077 -4.60282 11.8551
    endloop
  endfacet
  facet normal 0.480493 -0.876999 2.79514e-06
    outer loop
      vertex 2.8 -4.84974 22
      vertex 3.1 -4.68541 11
      vertex 3.13798 -4.6646 11.4341
    endloop
  endfacet
  facet normal 0.48042 -0.877039 5.36892e-08
    outer loop
      vertex 5.16588 -3.55377 8.53798
      vertex 2.8 -4.84974 0
      vertex 5.6 -3.31597 8.5
    endloop
  endfacet
  facet normal 0.480427 -0.877034 -2.71654e-06
    outer loop
      vertex 4.74495 -3.78435 8.65077
      vertex 2.8 -4.84974 0
      vertex 5.16588 -3.55377 8.53798
    endloop
  endfacet
  facet normal 0.480414 -0.877042 1.23082e-06
    outer loop
      vertex 4.35 -4.00069 8.83494
      vertex 2.8 -4.84974 0
      vertex 4.74495 -3.78435 8.65077
    endloop
  endfacet
  facet normal 0.480421 -0.877038 -4.01588e-07
    outer loop
      vertex 3.99303 -4.19623 9.08489
      vertex 2.8 -4.84974 0
      vertex 4.35 -4.00069 8.83494
    endloop
  endfacet
  facet normal 0.480417 -0.87704 2.87368e-07
    outer loop
      vertex 3.68489 -4.36502 9.39303
      vertex 2.8 -4.84974 0
      vertex 3.99303 -4.19623 9.08489
    endloop
  endfacet
  facet normal 0.480428 -0.877034 -1.11118e-06
    outer loop
      vertex 3.43494 -4.50194 9.75
      vertex 2.8 -4.84974 0
      vertex 3.68489 -4.36502 9.39303
    endloop
  endfacet
  facet normal 0.480407 -0.877045 6.76643e-07
    outer loop
      vertex 3.25077 -4.60282 10.1449
      vertex 2.8 -4.84974 0
      vertex 3.43494 -4.50194 9.75
    endloop
  endfacet
  facet normal 0.480402 -0.877049 1.00997e-06
    outer loop
      vertex 3.13798 -4.6646 10.5659
      vertex 2.8 -4.84974 0
      vertex 3.25077 -4.60282 10.1449
    endloop
  endfacet
  facet normal 0.480493 -0.876999 -2.79514e-06
    outer loop
      vertex 3.1 -4.68541 11
      vertex 2.8 -4.84974 0
      vertex 3.13798 -4.6646 10.5659
    endloop
  endfacet
  facet normal 0.480414 -0.877042 0
    outer loop
      vertex 2.8 -4.84974 0
      vertex 3.1 -4.68541 11
      vertex 2.8 -4.84974 22
    endloop
  endfacet
  facet normal 0.480411 -0.877043 -4.32173e-06
    outer loop
      vertex 6.45505 -2.8476 13.3492
      vertex 2.8 -4.84974 22
      vertex 6.03412 -3.07817 13.462
    endloop
  endfacet
  facet normal 0.48042 -0.877039 5.08306e-07
    outer loop
      vertex 2.8 -4.84974 22
      vertex 6.45505 -2.8476 13.3492
      vertex 16.4 2.6 22
    endloop
  endfacet
  facet normal 0.480427 -0.877035 -1.00803e-05
    outer loop
      vertex 6.85 -2.63125 13.1651
      vertex 16.4 2.6 22
      vertex 6.45505 -2.8476 13.3492
    endloop
  endfacet
  facet normal 0.480421 -0.877038 -1.21673e-06
    outer loop
      vertex 7.20697 -2.43571 12.9151
      vertex 16.4 2.6 22
      vertex 6.85 -2.63125 13.1651
    endloop
  endfacet
  facet normal 0.480418 -0.87704 1.89145e-06
    outer loop
      vertex 7.51511 -2.26692 12.607
      vertex 16.4 2.6 22
      vertex 7.20697 -2.43571 12.9151
    endloop
  endfacet
  facet normal 0.480424 -0.877036 -5.16159e-06
    outer loop
      vertex 7.76506 -2.13 12.25
      vertex 16.4 2.6 22
      vertex 7.51511 -2.26692 12.607
    endloop
  endfacet
  facet normal 0.480415 -0.877041 5.28234e-06
    outer loop
      vertex 7.94923 -2.02912 11.8551
      vertex 16.4 2.6 22
      vertex 7.76506 -2.13 12.25
    endloop
  endfacet
  facet normal 0.480415 -0.877041 5.57227e-06
    outer loop
      vertex 8.06202 -1.96734 11.4341
      vertex 16.4 2.6 22
      vertex 7.94923 -2.02912 11.8551
    endloop
  endfacet
  facet normal 0.48043 -0.877033 -9.98801e-06
    outer loop
      vertex 8.1 -1.94653 11
      vertex 16.4 2.6 22
      vertex 8.06202 -1.96734 11.4341
    endloop
  endfacet
  facet normal 0.48043 -0.877033 9.98801e-06
    outer loop
      vertex 16.4 2.6 0
      vertex 8.1 -1.94653 11
      vertex 8.06202 -1.96734 10.5659
    endloop
  endfacet
  facet normal 0.480415 -0.877041 -5.57227e-06
    outer loop
      vertex 16.4 2.6 0
      vertex 8.06202 -1.96734 10.5659
      vertex 7.94923 -2.02912 10.1449
    endloop
  endfacet
  facet normal 0.480415 -0.877041 -5.28234e-06
    outer loop
      vertex 16.4 2.6 0
      vertex 7.94923 -2.02912 10.1449
      vertex 7.76506 -2.13 9.75
    endloop
  endfacet
  facet normal 0.480424 -0.877036 5.16183e-06
    outer loop
      vertex 16.4 2.6 0
      vertex 7.76506 -2.13 9.75
      vertex 7.51511 -2.26692 9.39303
    endloop
  endfacet
  facet normal 0.48042 -0.877039 5.68756e-08
    outer loop
      vertex 2.8 -4.84974 0
      vertex 6.03412 -3.07817 8.53798
      vertex 5.6 -3.31597 8.5
    endloop
  endfacet
  facet normal 0.480411 -0.877043 4.32169e-06
    outer loop
      vertex 2.8 -4.84974 0
      vertex 6.45505 -2.8476 8.65077
      vertex 6.03412 -3.07817 8.53798
    endloop
  endfacet
  facet normal 0.48042 -0.877039 -5.08308e-07
    outer loop
      vertex 16.4 2.6 0
      vertex 6.45505 -2.8476 8.65077
      vertex 2.8 -4.84974 0
    endloop
  endfacet
  facet normal 0.480427 -0.877035 1.00789e-05
    outer loop
      vertex 6.45505 -2.8476 8.65077
      vertex 16.4 2.6 0
      vertex 6.85 -2.63125 8.83494
    endloop
  endfacet
  facet normal 0.480421 -0.877038 1.21683e-06
    outer loop
      vertex 6.85 -2.63125 8.83494
      vertex 16.4 2.6 0
      vertex 7.20697 -2.43571 9.08489
    endloop
  endfacet
  facet normal 0.480418 -0.87704 -1.89133e-06
    outer loop
      vertex 7.20697 -2.43571 9.08489
      vertex 16.4 2.6 0
      vertex 7.51511 -2.26692 9.39303
    endloop
  endfacet
  facet normal 0.48042 -0.877039 0
    outer loop
      vertex 8.1 -1.94653 11
      vertex 16.4 2.6 0
      vertex 16.4 2.6 22
    endloop
  endfacet
  facet normal -0.906307 -0.42262 0
    outer loop
      vertex -4.84974 -2.8 0
      vertex -5.26228 -1.91531 22
      vertex -5.26228 -1.91531 0
    endloop
  endfacet
  facet normal -0.906307 -0.42262 0
    outer loop
      vertex -5.26228 -1.91531 22
      vertex -4.84974 -2.8 0
      vertex -4.84974 -2.8 22
    endloop
  endfacet
  facet normal 0.258815 -0.965927 0
    outer loop
      vertex 0.972429 -5.51492 0
      vertex 1.91531 -5.26228 22
      vertex 0.972429 -5.51492 22
    endloop
  endfacet
  facet normal 0.258815 -0.965927 0
    outer loop
      vertex 1.91531 -5.26228 22
      vertex 0.972429 -5.51492 0
      vertex 1.91531 -5.26228 0
    endloop
  endfacet
  facet normal -0.573574 -0.819153 0
    outer loop
      vertex -3.59961 -4.28985 0
      vertex -2.8 -4.84974 22
      vertex -3.59961 -4.28985 22
    endloop
  endfacet
  facet normal -0.573574 -0.819153 -0
    outer loop
      vertex -2.8 -4.84974 22
      vertex -3.59961 -4.28985 0
      vertex -2.8 -4.84974 0
    endloop
  endfacet
  facet normal 1 -0 0
    outer loop
      vertex 16.4 2.6 22
      vertex 16.4 5.6 0
      vertex 16.4 5.6 22
    endloop
  endfacet
  facet normal 1 0 0
    outer loop
      vertex 16.4 5.6 0
      vertex 16.4 2.6 22
      vertex 16.4 2.6 0
    endloop
  endfacet
  facet normal 0 1 0
    outer loop
      vertex 16.4 5.6 22
      vertex 5.6 5.6 12.5
      vertex -5.6 5.6 22
    endloop
  endfacet
  facet normal 0 1 0
    outer loop
      vertex 16.4 5.6 22
      vertex 5.86047 5.6 12.4772
      vertex 5.6 5.6 12.5
    endloop
  endfacet
  facet normal 0 1 0
    outer loop
      vertex 16.4 5.6 22
      vertex 6.11303 5.6 12.4095
      vertex 5.86047 5.6 12.4772
    endloop
  endfacet
  facet normal 0 1 0
    outer loop
      vertex 16.4 5.6 22
      vertex 6.35 5.6 12.299
      vertex 6.11303 5.6 12.4095
    endloop
  endfacet
  facet normal 0 1 0
    outer loop
      vertex 16.4 5.6 22
      vertex 6.56418 5.6 12.1491
      vertex 6.35 5.6 12.299
    endloop
  endfacet
  facet normal 0 1 0
    outer loop
      vertex 16.4 5.6 22
      vertex 6.74907 5.6 11.9642
      vertex 6.56418 5.6 12.1491
    endloop
  endfacet
  facet normal 0 1 0
    outer loop
      vertex 16.4 5.6 22
      vertex 6.89904 5.6 11.75
      vertex 6.74907 5.6 11.9642
    endloop
  endfacet
  facet normal 0 1 0
    outer loop
      vertex 16.4 5.6 22
      vertex 7.00954 5.6 11.513
      vertex 6.89904 5.6 11.75
    endloop
  endfacet
  facet normal 0 1 0
    outer loop
      vertex 16.4 5.6 22
      vertex 7.07721 5.6 11.2605
      vertex 7.00954 5.6 11.513
    endloop
  endfacet
  facet normal 0 1 0
    outer loop
      vertex 16.4 5.6 22
      vertex 7.1 5.6 11
      vertex 7.07721 5.6 11.2605
    endloop
  endfacet
  facet normal 0 1 -0
    outer loop
      vertex 16.4 5.6 0
      vertex 7.1 5.6 11
      vertex 16.4 5.6 22
    endloop
  endfacet
  facet normal 0 1 0
    outer loop
      vertex 7.1 5.6 11
      vertex 16.4 5.6 0
      vertex 7.07721 5.6 10.7395
    endloop
  endfacet
  facet normal 0 1 0
    outer loop
      vertex 7.07721 5.6 10.7395
      vertex 16.4 5.6 0
      vertex 7.00954 5.6 10.487
    endloop
  endfacet
  facet normal 0 1 0
    outer loop
      vertex 7.00954 5.6 10.487
      vertex 16.4 5.6 0
      vertex 6.89904 5.6 10.25
    endloop
  endfacet
  facet normal 0 1 0
    outer loop
      vertex 5.86047 5.6 9.52279
      vertex 16.4 5.6 0
      vertex 5.6 5.6 9.5
    endloop
  endfacet
  facet normal 0 1 0
    outer loop
      vertex 6.11303 5.6 9.59046
      vertex 16.4 5.6 0
      vertex 5.86047 5.6 9.52279
    endloop
  endfacet
  facet normal 0 1 0
    outer loop
      vertex 6.35 5.6 9.70096
      vertex 16.4 5.6 0
      vertex 6.11303 5.6 9.59046
    endloop
  endfacet
  facet normal 0 1 0
    outer loop
      vertex 6.56418 5.6 9.85093
      vertex 16.4 5.6 0
      vertex 6.35 5.6 9.70096
    endloop
  endfacet
  facet normal 0 1 0
    outer loop
      vertex 6.74907 5.6 10.0358
      vertex 16.4 5.6 0
      vertex 6.56418 5.6 9.85093
    endloop
  endfacet
  facet normal 0 1 0
    outer loop
      vertex 6.89904 5.6 10.25
      vertex 16.4 5.6 0
      vertex 6.74907 5.6 10.0358
    endloop
  endfacet
  facet normal 0 1 -0
    outer loop
      vertex 5.33953 5.6 12.4772
      vertex -5.6 5.6 22
      vertex 5.6 5.6 12.5
    endloop
  endfacet
  facet normal 0 1 -0
    outer loop
      vertex 5.08697 5.6 12.4095
      vertex -5.6 5.6 22
      vertex 5.33953 5.6 12.4772
    endloop
  endfacet
  facet normal 0 1 -0
    outer loop
      vertex 4.85 5.6 12.299
      vertex -5.6 5.6 22
      vertex 5.08697 5.6 12.4095
    endloop
  endfacet
  facet normal 0 1 -0
    outer loop
      vertex 4.63582 5.6 12.1491
      vertex -5.6 5.6 22
      vertex 4.85 5.6 12.299
    endloop
  endfacet
  facet normal 0 1 -0
    outer loop
      vertex 4.45093 5.6 11.9642
      vertex -5.6 5.6 22
      vertex 4.63582 5.6 12.1491
    endloop
  endfacet
  facet normal 0 1 -0
    outer loop
      vertex 4.30096 5.6 11.75
      vertex -5.6 5.6 22
      vertex 4.45093 5.6 11.9642
    endloop
  endfacet
  facet normal 0 1 -0
    outer loop
      vertex 4.19046 5.6 11.513
      vertex -5.6 5.6 22
      vertex 4.30096 5.6 11.75
    endloop
  endfacet
  facet normal 0 1 -0
    outer loop
      vertex 4.12279 5.6 11.2605
      vertex -5.6 5.6 22
      vertex 4.19046 5.6 11.513
    endloop
  endfacet
  facet normal 0 1 -0
    outer loop
      vertex 4.1 5.6 11
      vertex -5.6 5.6 22
      vertex 4.12279 5.6 11.2605
    endloop
  endfacet
  facet normal 0 1 0
    outer loop
      vertex -5.6 5.6 0
      vertex 4.1 5.6 11
      vertex 4.12279 5.6 10.7395
    endloop
  endfacet
  facet normal 0 1 0
    outer loop
      vertex -5.6 5.6 0
      vertex 4.12279 5.6 10.7395
      vertex 4.19046 5.6 10.487
    endloop
  endfacet
  facet normal 0 1 0
    outer loop
      vertex -5.6 5.6 0
      vertex 4.19046 5.6 10.487
      vertex 4.30096 5.6 10.25
    endloop
  endfacet
  facet normal 0 1 0
    outer loop
      vertex -5.6 5.6 0
      vertex 4.30096 5.6 10.25
      vertex 4.45093 5.6 10.0358
    endloop
  endfacet
  facet normal 0 1 0
    outer loop
      vertex -5.6 5.6 0
      vertex 5.6 5.6 9.5
      vertex 16.4 5.6 0
    endloop
  endfacet
  facet normal 0 1 0
    outer loop
      vertex 5.6 5.6 9.5
      vertex -5.6 5.6 0
      vertex 5.33953 5.6 9.52279
    endloop
  endfacet
  facet normal 0 1 0
    outer loop
      vertex 5.33953 5.6 9.52279
      vertex -5.6 5.6 0
      vertex 5.08697 5.6 9.59046
    endloop
  endfacet
  facet normal 0 1 0
    outer loop
      vertex 5.08697 5.6 9.59046
      vertex -5.6 5.6 0
      vertex 4.85 5.6 9.70096
    endloop
  endfacet
  facet normal 0 1 0
    outer loop
      vertex 4.1 5.6 11
      vertex -5.6 5.6 0
      vertex -5.6 5.6 22
    endloop
  endfacet
  facet normal 0 1 0
    outer loop
      vertex 4.63582 5.6 9.85093
      vertex -5.6 5.6 0
      vertex 4.45093 5.6 10.0358
    endloop
  endfacet
  facet normal 0 1 0
    outer loop
      vertex 4.85 5.6 9.70096
      vertex -5.6 5.6 0
      vertex 4.63582 5.6 9.85093
    endloop
  endfacet
  facet normal 0.42262 -0.906307 0
    outer loop
      vertex 1.91531 -5.26228 0
      vertex 2.8 -4.84974 22
      vertex 1.91531 -5.26228 22
    endloop
  endfacet
  facet normal 0.42262 -0.906307 0
    outer loop
      vertex 2.8 -4.84974 22
      vertex 1.91531 -5.26228 0
      vertex 2.8 -4.84974 0
    endloop
  endfacet
  facet normal -0.965927 -0.258815 0
    outer loop
      vertex -5.26228 -1.91531 0
      vertex -5.51492 -0.972429 22
      vertex -5.51492 -0.972429 0
    endloop
  endfacet
  facet normal -0.965927 -0.258815 0
    outer loop
      vertex -5.51492 -0.972429 22
      vertex -5.26228 -1.91531 0
      vertex -5.26228 -1.91531 22
    endloop
  endfacet
  facet normal -0.42262 -0.906307 0
    outer loop
      vertex -2.8 -4.84974 0
      vertex -1.91531 -5.26228 22
      vertex -2.8 -4.84974 22
    endloop
  endfacet
  facet normal -0.42262 -0.906307 -0
    outer loop
      vertex -1.91531 -5.26228 22
      vertex -2.8 -4.84974 0
      vertex -1.91531 -5.26228 0
    endloop
  endfacet
  facet normal -0.258815 -0.965927 0
    outer loop
      vertex -1.91531 -5.26228 0
      vertex -0.972429 -5.51492 22
      vertex -1.91531 -5.26228 22
    endloop
  endfacet
  facet normal -0.258815 -0.965927 -0
    outer loop
      vertex -0.972429 -5.51492 22
      vertex -1.91531 -5.26228 0
      vertex -0.972429 -5.51492 0
    endloop
  endfacet
  facet normal 0.0871593 -0.996194 0
    outer loop
      vertex 0 -5.6 0
      vertex 0.972429 -5.51492 22
      vertex 0 -5.6 22
    endloop
  endfacet
  facet normal 0.0871593 -0.996194 0
    outer loop
      vertex 0.972429 -5.51492 22
      vertex 0 -5.6 0
      vertex 0.972429 -5.51492 0
    endloop
  endfacet
  facet normal -1 0 0
    outer loop
      vertex -5.6 0 0
      vertex -5.6 5.6 22
      vertex -5.6 5.6 0
    endloop
  endfacet
  facet normal -1 -0 0
    outer loop
      vertex -5.6 5.6 22
      vertex -5.6 0 0
      vertex -5.6 0 22
    endloop
  endfacet
  facet normal -0.996194 -0.0871593 0
    outer loop
      vertex -5.51492 -0.972429 0
      vertex -5.6 0 22
      vertex -5.6 0 0
    endloop
  endfacet
  facet normal -0.996194 -0.0871593 0
    outer loop
      vertex -5.6 0 22
      vertex -5.51492 -0.972429 0
      vertex -5.51492 -0.972429 22
    endloop
  endfacet
  facet normal -0.819153 -0.573574 0
    outer loop
      vertex -4.28985 -3.59961 0
      vertex -4.84974 -2.8 22
      vertex -4.84974 -2.8 0
    endloop
  endfacet
  facet normal -0.819153 -0.573574 0
    outer loop
      vertex -4.84974 -2.8 22
      vertex -4.28985 -3.59961 0
      vertex -4.28985 -3.59961 22
    endloop
  endfacet
  facet normal 0 0 -1
    outer loop
      vertex 16.4 2.6 0
      vertex 2.5605 -0.451485 0
      vertex 2.6 0 0
    endloop
  endfacet
  facet normal 0 0 -1
    outer loop
      vertex 2.8 -4.84974 0
      vertex 2.4432 -0.889252 0
      vertex 2.5605 -0.451485 0
    endloop
  endfacet
  facet normal 0 0 -1
    outer loop
      vertex 2.8 -4.84974 0
      vertex 2.25167 -1.3 0
      vertex 2.4432 -0.889252 0
    endloop
  endfacet
  facet normal 0 0 -1
    outer loop
      vertex 2.8 -4.84974 0
      vertex 1.99172 -1.67125 0
      vertex 2.25167 -1.3 0
    endloop
  endfacet
  facet normal 0 0 -1
    outer loop
      vertex 1.3 -2.25167 0
      vertex 2.8 -4.84974 0
      vertex 1.91531 -5.26228 0
    endloop
  endfacet
  facet normal 0 0 -1
    outer loop
      vertex 2.8 -4.84974 0
      vertex 1.67125 -1.99172 0
      vertex 1.99172 -1.67125 0
    endloop
  endfacet
  facet normal 0 0 -1
    outer loop
      vertex 2.8 -4.84974 0
      vertex 1.3 -2.25167 0
      vertex 1.67125 -1.99172 0
    endloop
  endfacet
  facet normal 0 0 -1
    outer loop
      vertex 0.889252 -2.4432 0
      vertex 1.91531 -5.26228 0
      vertex 0.972429 -5.51492 0
    endloop
  endfacet
  facet normal 0 0 -1
    outer loop
      vertex 1.91531 -5.26228 0
      vertex 0.889252 -2.4432 0
      vertex 1.3 -2.25167 0
    endloop
  endfacet
  facet normal 0 0 -1
    outer loop
      vertex 0.972429 -5.51492 0
      vertex 0.451485 -2.5605 0
      vertex 0.889252 -2.4432 0
    endloop
  endfacet
  facet normal 0 0 -1
    outer loop
      vertex 0 -5.6 0
      vertex 0.451485 -2.5605 0
      vertex 0.972429 -5.51492 0
    endloop
  endfacet
  facet normal 0 0 -1
    outer loop
      vertex 0 -5.6 0
      vertex 0 -2.6 0
      vertex 0.451485 -2.5605 0
    endloop
  endfacet
  facet normal 0 0 -1
    outer loop
      vertex 0 -5.6 0
      vertex -0.451485 -2.5605 0
      vertex 0 -2.6 0
    endloop
  endfacet
  facet normal 0 0 -1
    outer loop
      vertex -0.972429 -5.51492 0
      vertex -0.451485 -2.5605 0
      vertex 0 -5.6 0
    endloop
  endfacet
  facet normal -0 0 -1
    outer loop
      vertex -0.451485 -2.5605 0
      vertex -0.972429 -5.51492 0
      vertex -0.889252 -2.4432 0
    endloop
  endfacet
  facet normal 0 0 -1
    outer loop
      vertex -1.91531 -5.26228 0
      vertex -0.889252 -2.4432 0
      vertex -0.972429 -5.51492 0
    endloop
  endfacet
  facet normal -0 0 -1
    outer loop
      vertex -0.889252 -2.4432 0
      vertex -1.91531 -5.26228 0
      vertex -1.3 -2.25167 0
    endloop
  endfacet
  facet normal 0 0 -1
    outer loop
      vertex -2.8 -4.84974 0
      vertex -1.3 -2.25167 0
      vertex -1.91531 -5.26228 0
    endloop
  endfacet
  facet normal -0 0 -1
    outer loop
      vertex -1.3 -2.25167 0
      vertex -2.8 -4.84974 0
      vertex -1.67125 -1.99172 0
    endloop
  endfacet
  facet normal 0 0 -1
    outer loop
      vertex -3.59961 -4.28985 0
      vertex -1.67125 -1.99172 0
      vertex -2.8 -4.84974 0
    endloop
  endfacet
  facet normal -0 0 -1
    outer loop
      vertex -1.67125 -1.99172 0
      vertex -3.59961 -4.28985 0
      vertex -1.99172 -1.67125 0
    endloop
  endfacet
  facet normal 0 0 -1
    outer loop
      vertex -4.28985 -3.59961 0
      vertex -1.99172 -1.67125 0
      vertex -3.59961 -4.28985 0
    endloop
  endfacet
  facet normal 0 0 -1
    outer loop
      vertex -4.84974 -2.8 0
      vertex -2.25167 -1.3 0
      vertex -4.28985 -3.59961 0
    endloop
  endfacet
  facet normal -0 0 -1
    outer loop
      vertex -1.99172 -1.67125 0
      vertex -4.28985 -3.59961 0
      vertex -2.25167 -1.3 0
    endloop
  endfacet
  facet normal 0 0 -1
    outer loop
      vertex 2.5605 -0.451485 0
      vertex 16.4 2.6 0
      vertex 2.8 -4.84974 0
    endloop
  endfacet
  facet normal 0 0 -1
    outer loop
      vertex 2.5605 0.451485 0
      vertex 16.4 2.6 0
      vertex 2.6 0 0
    endloop
  endfacet
  facet normal 0 0 -1
    outer loop
      vertex 2.4432 0.889252 0
      vertex 16.4 2.6 0
      vertex 2.5605 0.451485 0
    endloop
  endfacet
  facet normal -0 0 -1
    outer loop
      vertex 16.4 2.6 0
      vertex 2.4432 0.889252 0
      vertex 16.4 5.6 0
    endloop
  endfacet
  facet normal 0 0 -1
    outer loop
      vertex 2.25167 1.3 0
      vertex 16.4 5.6 0
      vertex 2.4432 0.889252 0
    endloop
  endfacet
  facet normal 0 0 -1
    outer loop
      vertex 1.99172 1.67125 0
      vertex 16.4 5.6 0
      vertex 2.25167 1.3 0
    endloop
  endfacet
  facet normal 0 0 -1
    outer loop
      vertex 1.67125 1.99172 0
      vertex 16.4 5.6 0
      vertex 1.99172 1.67125 0
    endloop
  endfacet
  facet normal 0 0 -1
    outer loop
      vertex 1.3 2.25167 0
      vertex 16.4 5.6 0
      vertex 1.67125 1.99172 0
    endloop
  endfacet
  facet normal 0 0 -1
    outer loop
      vertex 0.889252 2.4432 0
      vertex 16.4 5.6 0
      vertex 1.3 2.25167 0
    endloop
  endfacet
  facet normal 0 0 -1
    outer loop
      vertex 0.451485 2.5605 0
      vertex 16.4 5.6 0
      vertex 0.889252 2.4432 0
    endloop
  endfacet
  facet normal 0 0 -1
    outer loop
      vertex -5.6 5.6 0
      vertex 0.451485 2.5605 0
      vertex 0 2.6 0
    endloop
  endfacet
  facet normal 0 0 -1
    outer loop
      vertex -5.6 5.6 0
      vertex 0 2.6 0
      vertex -0.451485 2.5605 0
    endloop
  endfacet
  facet normal -0 0 -1
    outer loop
      vertex -2.25167 -1.3 0
      vertex -4.84974 -2.8 0
      vertex -2.4432 -0.889252 0
    endloop
  endfacet
  facet normal 0 0 -1
    outer loop
      vertex -5.26228 -1.91531 0
      vertex -2.4432 -0.889252 0
      vertex -4.84974 -2.8 0
    endloop
  endfacet
  facet normal -0 0 -1
    outer loop
      vertex -2.4432 -0.889252 0
      vertex -5.26228 -1.91531 0
      vertex -2.5605 -0.451485 0
    endloop
  endfacet
  facet normal 0 0 -1
    outer loop
      vertex -5.51492 -0.972429 0
      vertex -2.5605 -0.451485 0
      vertex -5.26228 -1.91531 0
    endloop
  endfacet
  facet normal -0 0 -1
    outer loop
      vertex -2.5605 -0.451485 0
      vertex -5.51492 -0.972429 0
      vertex -2.6 0 0
    endloop
  endfacet
  facet normal 0 0 -1
    outer loop
      vertex -5.6 0 0
      vertex -2.6 0 0
      vertex -5.51492 -0.972429 0
    endloop
  endfacet
  facet normal 0 0 -1
    outer loop
      vertex -2.6 0 0
      vertex -5.6 0 0
      vertex -2.5605 0.451485 0
    endloop
  endfacet
  facet normal -0 0 -1
    outer loop
      vertex -2.5605 0.451485 0
      vertex -5.6 0 0
      vertex -2.4432 0.889252 0
    endloop
  endfacet
  facet normal -0 0 -1
    outer loop
      vertex -2.4432 0.889252 0
      vertex -5.6 0 0
      vertex -2.25167 1.3 0
    endloop
  endfacet
  facet normal 0 0 -1
    outer loop
      vertex -5.6 5.6 0
      vertex -2.25167 1.3 0
      vertex -5.6 0 0
    endloop
  endfacet
  facet normal 0 0 -1
    outer loop
      vertex -2.25167 1.3 0
      vertex -5.6 5.6 0
      vertex -1.99172 1.67125 0
    endloop
  endfacet
  facet normal 0 0 -1
    outer loop
      vertex -1.99172 1.67125 0
      vertex -5.6 5.6 0
      vertex -1.67125 1.99172 0
    endloop
  endfacet
  facet normal 0 0 -1
    outer loop
      vertex 0.451485 2.5605 0
      vertex -5.6 5.6 0
      vertex 16.4 5.6 0
    endloop
  endfacet
  facet normal 0 0 -1
    outer loop
      vertex -0.889252 2.4432 0
      vertex -5.6 5.6 0
      vertex -0.451485 2.5605 0
    endloop
  endfacet
  facet normal 0 0 -1
    outer loop
      vertex -1.3 2.25167 0
      vertex -5.6 5.6 0
      vertex -0.889252 2.4432 0
    endloop
  endfacet
  facet normal 0 0 -1
    outer loop
      vertex -1.67125 1.99172 0
      vertex -5.6 5.6 0
      vertex -1.3 2.25167 0
    endloop
  endfacet
  facet normal 0 0 1
    outer loop
      vertex 2.4432 0.889252 22
      vertex 16.4 2.6 22
      vertex 16.4 5.6 22
    endloop
  endfacet
  facet normal 0 0 1
    outer loop
      vertex 16.4 2.6 22
      vertex 2.6 0 22
      vertex 2.5605 -0.451485 22
    endloop
  endfacet
  facet normal 0 0 1
    outer loop
      vertex 16.4 2.6 22
      vertex 2.5605 0.451485 22
      vertex 2.6 0 22
    endloop
  endfacet
  facet normal 0 0 1
    outer loop
      vertex 16.4 2.6 22
      vertex 2.4432 0.889252 22
      vertex 2.5605 0.451485 22
    endloop
  endfacet
  facet normal 0 0 1
    outer loop
      vertex 16.4 5.6 22
      vertex 2.25167 1.3 22
      vertex 2.4432 0.889252 22
    endloop
  endfacet
  facet normal 0 0 1
    outer loop
      vertex 16.4 5.6 22
      vertex 1.99172 1.67125 22
      vertex 2.25167 1.3 22
    endloop
  endfacet
  facet normal 0 0 1
    outer loop
      vertex 16.4 5.6 22
      vertex 1.67125 1.99172 22
      vertex 1.99172 1.67125 22
    endloop
  endfacet
  facet normal 0 0 1
    outer loop
      vertex 16.4 5.6 22
      vertex 1.3 2.25167 22
      vertex 1.67125 1.99172 22
    endloop
  endfacet
  facet normal 0 0 1
    outer loop
      vertex 16.4 5.6 22
      vertex 0.889252 2.4432 22
      vertex 1.3 2.25167 22
    endloop
  endfacet
  facet normal 0 0 1
    outer loop
      vertex 16.4 5.6 22
      vertex 0.451485 2.5605 22
      vertex 0.889252 2.4432 22
    endloop
  endfacet
  facet normal -0 0 1
    outer loop
      vertex -5.6 5.6 22
      vertex 0.451485 2.5605 22
      vertex 16.4 5.6 22
    endloop
  endfacet
  facet normal 0 0 1
    outer loop
      vertex 0.451485 2.5605 22
      vertex -5.6 5.6 22
      vertex 0 2.6 22
    endloop
  endfacet
  facet normal 0 0 1
    outer loop
      vertex -1.67125 -1.99172 22
      vertex -3.59961 -4.28985 22
      vertex -2.8 -4.84974 22
    endloop
  endfacet
  facet normal 0 0 1
    outer loop
      vertex -5.6 0 22
      vertex -2.6 0 22
      vertex -2.5605 0.451485 22
    endloop
  endfacet
  facet normal 0 0 1
    outer loop
      vertex -2.5605 -0.451485 22
      vertex -4.28985 -3.59961 22
      vertex -3.59961 -4.28985 22
    endloop
  endfacet
  facet normal 0 0 1
    outer loop
      vertex -5.6 0 22
      vertex -2.5605 0.451485 22
      vertex -2.4432 0.889252 22
    endloop
  endfacet
  facet normal 0 0 1
    outer loop
      vertex -2.5605 -0.451485 22
      vertex -4.84974 -2.8 22
      vertex -4.28985 -3.59961 22
    endloop
  endfacet
  facet normal 0 0 1
    outer loop
      vertex -5.6 0 22
      vertex -2.4432 0.889252 22
      vertex -2.25167 1.3 22
    endloop
  endfacet
  facet normal 0 0 1
    outer loop
      vertex -2.5605 -0.451485 22
      vertex -5.26228 -1.91531 22
      vertex -4.84974 -2.8 22
    endloop
  endfacet
  facet normal 0 0 1
    outer loop
      vertex -5.6 5.6 22
      vertex -2.25167 1.3 22
      vertex -1.99172 1.67125 22
    endloop
  endfacet
  facet normal 0 0 1
    outer loop
      vertex -2.5605 -0.451485 22
      vertex -5.51492 -0.972429 22
      vertex -5.26228 -1.91531 22
    endloop
  endfacet
  facet normal 0 0 1
    outer loop
      vertex -5.6 5.6 22
      vertex -1.99172 1.67125 22
      vertex -1.67125 1.99172 22
    endloop
  endfacet
  facet normal 0 0 1
    outer loop
      vertex 0 2.6 22
      vertex -5.6 5.6 22
      vertex -0.451485 2.5605 22
    endloop
  endfacet
  facet normal 0 0 1
    outer loop
      vertex -5.6 5.6 22
      vertex -0.889252 2.4432 22
      vertex -0.451485 2.5605 22
    endloop
  endfacet
  facet normal 0 0 1
    outer loop
      vertex -5.6 5.6 22
      vertex -1.3 2.25167 22
      vertex -0.889252 2.4432 22
    endloop
  endfacet
  facet normal 0 0 1
    outer loop
      vertex -5.6 5.6 22
      vertex -1.67125 1.99172 22
      vertex -1.3 2.25167 22
    endloop
  endfacet
  facet normal 0 0 1
    outer loop
      vertex -2.25167 1.3 22
      vertex -5.6 5.6 22
      vertex -5.6 0 22
    endloop
  endfacet
  facet normal 0 0 1
    outer loop
      vertex -2.6 0 22
      vertex -5.6 0 22
      vertex -5.51492 -0.972429 22
    endloop
  endfacet
  facet normal 0 0 1
    outer loop
      vertex 16.4 2.6 22
      vertex 2.5605 -0.451485 22
      vertex 2.8 -4.84974 22
    endloop
  endfacet
  facet normal -0 0 1
    outer loop
      vertex 2.4432 -0.889252 22
      vertex 2.8 -4.84974 22
      vertex 2.5605 -0.451485 22
    endloop
  endfacet
  facet normal -0 0 1
    outer loop
      vertex 2.25167 -1.3 22
      vertex 2.8 -4.84974 22
      vertex 2.4432 -0.889252 22
    endloop
  endfacet
  facet normal -0 0 1
    outer loop
      vertex 1.99172 -1.67125 22
      vertex 2.8 -4.84974 22
      vertex 2.25167 -1.3 22
    endloop
  endfacet
  facet normal -0 0 1
    outer loop
      vertex 1.67125 -1.99172 22
      vertex 2.8 -4.84974 22
      vertex 1.99172 -1.67125 22
    endloop
  endfacet
  facet normal -0 0 1
    outer loop
      vertex 1.3 -2.25167 22
      vertex 2.8 -4.84974 22
      vertex 1.67125 -1.99172 22
    endloop
  endfacet
  facet normal 0 0 1
    outer loop
      vertex 2.8 -4.84974 22
      vertex 1.3 -2.25167 22
      vertex 1.91531 -5.26228 22
    endloop
  endfacet
  facet normal -0 0 1
    outer loop
      vertex 0.889252 -2.4432 22
      vertex 1.91531 -5.26228 22
      vertex 1.3 -2.25167 22
    endloop
  endfacet
  facet normal 0 0 1
    outer loop
      vertex 1.91531 -5.26228 22
      vertex 0.889252 -2.4432 22
      vertex 0.972429 -5.51492 22
    endloop
  endfacet
  facet normal -0 0 1
    outer loop
      vertex 0.451485 -2.5605 22
      vertex 0.972429 -5.51492 22
      vertex 0.889252 -2.4432 22
    endloop
  endfacet
  facet normal -0 0 1
    outer loop
      vertex 0 -2.6 22
      vertex 0.972429 -5.51492 22
      vertex 0.451485 -2.5605 22
    endloop
  endfacet
  facet normal 0 0 1
    outer loop
      vertex 0 -2.6 22
      vertex 0 -5.6 22
      vertex 0.972429 -5.51492 22
    endloop
  endfacet
  facet normal 0 0 1
    outer loop
      vertex -0.451485 -2.5605 22
      vertex 0 -5.6 22
      vertex 0 -2.6 22
    endloop
  endfacet
  facet normal 0 0 1
    outer loop
      vertex -0.972429 -5.51492 22
      vertex -0.451485 -2.5605 22
      vertex -0.889252 -2.4432 22
    endloop
  endfacet
  facet normal 0 0 1
    outer loop
      vertex -0.451485 -2.5605 22
      vertex -0.972429 -5.51492 22
      vertex 0 -5.6 22
    endloop
  endfacet
  facet normal 0 0 1
    outer loop
      vertex -1.91531 -5.26228 22
      vertex -0.889252 -2.4432 22
      vertex -1.3 -2.25167 22
    endloop
  endfacet
  facet normal 0 0 1
    outer loop
      vertex -2.8 -4.84974 22
      vertex -1.3 -2.25167 22
      vertex -1.67125 -1.99172 22
    endloop
  endfacet
  facet normal 0 0 1
    outer loop
      vertex -0.889252 -2.4432 22
      vertex -1.91531 -5.26228 22
      vertex -0.972429 -5.51492 22
    endloop
  endfacet
  facet normal 0 0 1
    outer loop
      vertex -3.59961 -4.28985 22
      vertex -1.67125 -1.99172 22
      vertex -1.99172 -1.67125 22
    endloop
  endfacet
  facet normal 0 0 1
    outer loop
      vertex -3.59961 -4.28985 22
      vertex -1.99172 -1.67125 22
      vertex -2.25167 -1.3 22
    endloop
  endfacet
  facet normal 0 0 1
    outer loop
      vertex -3.59961 -4.28985 22
      vertex -2.25167 -1.3 22
      vertex -2.4432 -0.889252 22
    endloop
  endfacet
  facet normal 0 0 1
    outer loop
      vertex -3.59961 -4.28985 22
      vertex -2.4432 -0.889252 22
      vertex -2.5605 -0.451485 22
    endloop
  endfacet
  facet normal 0 0 1
    outer loop
      vertex -1.3 -2.25167 22
      vertex -2.8 -4.84974 22
      vertex -1.91531 -5.26228 22
    endloop
  endfacet
  facet normal 0 0 1
    outer loop
      vertex -5.51492 -0.972429 22
      vertex -2.5605 -0.451485 22
      vertex -2.6 0 22
    endloop
  endfacet
  facet normal -0.0871593 -0.996194 0
    outer loop
      vertex -0.972429 -5.51492 0
      vertex 0 -5.6 22
      vertex -0.972429 -5.51492 22
    endloop
  endfacet
  facet normal -0.0871593 -0.996194 -0
    outer loop
      vertex 0 -5.6 22
      vertex -0.972429 -5.51492 0
      vertex 0 -5.6 0
    endloop
  endfacet
  facet normal -0.707107 -0.707107 0
    outer loop
      vertex -3.59961 -4.28985 0
      vertex -4.28985 -3.59961 22
      vertex -4.28985 -3.59961 0
    endloop
  endfacet
  facet normal -0.707107 -0.707107 0
    outer loop
      vertex -4.28985 -3.59961 22
      vertex -3.59961 -4.28985 0
      vertex -3.59961 -4.28985 22
    endloop
  endfacet
  facet normal -0.25882 -0.965925 0
    outer loop
      vertex 0.451485 2.5605 0
      vertex 0.889252 2.4432 22
      vertex 0.451485 2.5605 22
    endloop
  endfacet
  facet normal -0.25882 -0.965925 -0
    outer loop
      vertex 0.889252 2.4432 22
      vertex 0.451485 2.5605 0
      vertex 0.889252 2.4432 0
    endloop
  endfacet
  facet normal 0.25882 -0.965925 0
    outer loop
      vertex -0.889252 2.4432 0
      vertex -0.451485 2.5605 22
      vertex -0.889252 2.4432 22
    endloop
  endfacet
  facet normal 0.25882 -0.965925 0
    outer loop
      vertex -0.451485 2.5605 22
      vertex -0.889252 2.4432 0
      vertex -0.451485 2.5605 0
    endloop
  endfacet
  facet normal 0.996195 0.0871561 0
    outer loop
      vertex -2.5605 -0.451485 22
      vertex -2.6 0 0
      vertex -2.6 0 22
    endloop
  endfacet
  facet normal 0.996195 0.0871561 0
    outer loop
      vertex -2.6 0 0
      vertex -2.5605 -0.451485 22
      vertex -2.5605 -0.451485 0
    endloop
  endfacet
  facet normal 0.707107 -0.707107 0
    outer loop
      vertex -1.99172 1.67125 22
      vertex -1.67125 1.99172 0
      vertex -1.67125 1.99172 22
    endloop
  endfacet
  facet normal 0.707107 -0.707107 0
    outer loop
      vertex -1.67125 1.99172 0
      vertex -1.99172 1.67125 22
      vertex -1.99172 1.67125 0
    endloop
  endfacet
  facet normal -0.996195 0.0871561 0
    outer loop
      vertex 2.5605 -0.451485 0
      vertex 2.6 0 22
      vertex 2.6 0 0
    endloop
  endfacet
  facet normal -0.996195 0.0871561 0
    outer loop
      vertex 2.6 0 22
      vertex 2.5605 -0.451485 0
      vertex 2.5605 -0.451485 22
    endloop
  endfacet
  facet normal -0.906312 -0.422609 0
    outer loop
      vertex 2.4432 0.889252 0
      vertex 2.25167 1.3 22
      vertex 2.25167 1.3 0
    endloop
  endfacet
  facet normal -0.906312 -0.422609 0
    outer loop
      vertex 2.25167 1.3 22
      vertex 2.4432 0.889252 0
      vertex 2.4432 0.889252 22
    endloop
  endfacet
  facet normal -0.707107 0.707107 0
    outer loop
      vertex 1.67125 -1.99172 0
      vertex 1.99172 -1.67125 22
      vertex 1.99172 -1.67125 0
    endloop
  endfacet
  facet normal -0.707107 0.707107 0
    outer loop
      vertex 1.99172 -1.67125 22
      vertex 1.67125 -1.99172 0
      vertex 1.67125 -1.99172 22
    endloop
  endfacet
  facet normal 0.965925 -0.25882 0
    outer loop
      vertex -2.5605 0.451485 22
      vertex -2.4432 0.889252 0
      vertex -2.4432 0.889252 22
    endloop
  endfacet
  facet normal 0.965925 -0.25882 0
    outer loop
      vertex -2.4432 0.889252 0
      vertex -2.5605 0.451485 22
      vertex -2.5605 0.451485 0
    endloop
  endfacet
  facet normal 0.996195 -0.0871561 0
    outer loop
      vertex -2.6 0 22
      vertex -2.5605 0.451485 0
      vertex -2.5605 0.451485 22
    endloop
  endfacet
  facet normal 0.996195 -0.0871561 0
    outer loop
      vertex -2.5605 0.451485 0
      vertex -2.6 0 22
      vertex -2.6 0 0
    endloop
  endfacet
  facet normal -0.996195 -0.0871561 0
    outer loop
      vertex 2.6 0 0
      vertex 2.5605 0.451485 22
      vertex 2.5605 0.451485 0
    endloop
  endfacet
  facet normal -0.996195 -0.0871561 0
    outer loop
      vertex 2.5605 0.451485 22
      vertex 2.6 0 0
      vertex 2.6 0 22
    endloop
  endfacet
  facet normal -0.422609 -0.906312 0
    outer loop
      vertex 0.889252 2.4432 0
      vertex 1.3 2.25167 22
      vertex 0.889252 2.4432 22
    endloop
  endfacet
  facet normal -0.422609 -0.906312 -0
    outer loop
      vertex 1.3 2.25167 22
      vertex 0.889252 2.4432 0
      vertex 1.3 2.25167 0
    endloop
  endfacet
  facet normal -0.965925 -0.25882 0
    outer loop
      vertex 2.5605 0.451485 0
      vertex 2.4432 0.889252 22
      vertex 2.4432 0.889252 0
    endloop
  endfacet
  facet normal -0.965925 -0.25882 0
    outer loop
      vertex 2.4432 0.889252 22
      vertex 2.5605 0.451485 0
      vertex 2.5605 0.451485 22
    endloop
  endfacet
  facet normal -0.965925 0.25882 0
    outer loop
      vertex 2.4432 -0.889252 0
      vertex 2.5605 -0.451485 22
      vertex 2.5605 -0.451485 0
    endloop
  endfacet
  facet normal -0.965925 0.25882 0
    outer loop
      vertex 2.5605 -0.451485 22
      vertex 2.4432 -0.889252 0
      vertex 2.4432 -0.889252 22
    endloop
  endfacet
  facet normal -0.906312 0.422609 0
    outer loop
      vertex 2.25167 -1.3 0
      vertex 2.4432 -0.889252 22
      vertex 2.4432 -0.889252 0
    endloop
  endfacet
  facet normal -0.906312 0.422609 0
    outer loop
      vertex 2.4432 -0.889252 22
      vertex 2.25167 -1.3 0
      vertex 2.25167 -1.3 22
    endloop
  endfacet
  facet normal -0.573573 -0.819154 0
    outer loop
      vertex 1.3 2.25167 0
      vertex 1.67125 1.99172 22
      vertex 1.3 2.25167 22
    endloop
  endfacet
  facet normal -0.573573 -0.819154 -0
    outer loop
      vertex 1.67125 1.99172 22
      vertex 1.3 2.25167 0
      vertex 1.67125 1.99172 0
    endloop
  endfacet
  facet normal 0.422609 -0.906312 0
    outer loop
      vertex -1.3 2.25167 0
      vertex -0.889252 2.4432 22
      vertex -1.3 2.25167 22
    endloop
  endfacet
  facet normal 0.422609 -0.906312 0
    outer loop
      vertex -0.889252 2.4432 22
      vertex -1.3 2.25167 0
      vertex -0.889252 2.4432 0
    endloop
  endfacet
  facet normal 0.707107 0.707107 0
    outer loop
      vertex -1.67125 -1.99172 22
      vertex -1.99172 -1.67125 0
      vertex -1.99172 -1.67125 22
    endloop
  endfacet
  facet normal 0.707107 0.707107 0
    outer loop
      vertex -1.99172 -1.67125 0
      vertex -1.67125 -1.99172 22
      vertex -1.67125 -1.99172 0
    endloop
  endfacet
  facet normal 0.422609 0.906312 -0
    outer loop
      vertex -0.889252 -2.4432 0
      vertex -1.3 -2.25167 22
      vertex -0.889252 -2.4432 22
    endloop
  endfacet
  facet normal 0.422609 0.906312 0
    outer loop
      vertex -1.3 -2.25167 22
      vertex -0.889252 -2.4432 0
      vertex -1.3 -2.25167 0
    endloop
  endfacet
  facet normal 0.25882 0.965925 -0
    outer loop
      vertex -0.451485 -2.5605 0
      vertex -0.889252 -2.4432 22
      vertex -0.451485 -2.5605 22
    endloop
  endfacet
  facet normal 0.25882 0.965925 0
    outer loop
      vertex -0.889252 -2.4432 22
      vertex -0.451485 -2.5605 0
      vertex -0.889252 -2.4432 0
    endloop
  endfacet
  facet normal -0.707107 -0.707107 0
    outer loop
      vertex 1.99172 1.67125 0
      vertex 1.67125 1.99172 22
      vertex 1.67125 1.99172 0
    endloop
  endfacet
  facet normal -0.707107 -0.707107 0
    outer loop
      vertex 1.67125 1.99172 22
      vertex 1.99172 1.67125 0
      vertex 1.99172 1.67125 22
    endloop
  endfacet
  facet normal -0.0871561 0.996195 0
    outer loop
      vertex 0.451485 -2.5605 0
      vertex 0 -2.6 22
      vertex 0.451485 -2.5605 22
    endloop
  endfacet
  facet normal -0.0871561 0.996195 0
    outer loop
      vertex 0 -2.6 22
      vertex 0.451485 -2.5605 0
      vertex 0 -2.6 0
    endloop
  endfacet
  facet normal -0.819154 -0.573573 0
    outer loop
      vertex 2.25167 1.3 0
      vertex 1.99172 1.67125 22
      vertex 1.99172 1.67125 0
    endloop
  endfacet
  facet normal -0.819154 -0.573573 0
    outer loop
      vertex 1.99172 1.67125 22
      vertex 2.25167 1.3 0
      vertex 2.25167 1.3 22
    endloop
  endfacet
  facet normal -0.0871561 -0.996195 0
    outer loop
      vertex 0 2.6 0
      vertex 0.451485 2.5605 22
      vertex 0 2.6 22
    endloop
  endfacet
  facet normal -0.0871561 -0.996195 -0
    outer loop
      vertex 0.451485 2.5605 22
      vertex 0 2.6 0
      vertex 0.451485 2.5605 0
    endloop
  endfacet
  facet normal -0.573573 0.819154 0
    outer loop
      vertex 1.67125 -1.99172 0
      vertex 1.3 -2.25167 22
      vertex 1.67125 -1.99172 22
    endloop
  endfacet
  facet normal -0.573573 0.819154 0
    outer loop
      vertex 1.3 -2.25167 22
      vertex 1.67125 -1.99172 0
      vertex 1.3 -2.25167 0
    endloop
  endfacet
  facet normal 0.819154 -0.573573 0
    outer loop
      vertex -2.25167 1.3 22
      vertex -1.99172 1.67125 0
      vertex -1.99172 1.67125 22
    endloop
  endfacet
  facet normal 0.819154 -0.573573 0
    outer loop
      vertex -1.99172 1.67125 0
      vertex -2.25167 1.3 22
      vertex -2.25167 1.3 0
    endloop
  endfacet
  facet normal 0.906312 -0.422609 0
    outer loop
      vertex -2.4432 0.889252 22
      vertex -2.25167 1.3 0
      vertex -2.25167 1.3 22
    endloop
  endfacet
  facet normal 0.906312 -0.422609 0
    outer loop
      vertex -2.25167 1.3 0
      vertex -2.4432 0.889252 22
      vertex -2.4432 0.889252 0
    endloop
  endfacet
  facet normal 0.573573 -0.819154 0
    outer loop
      vertex -1.67125 1.99172 0
      vertex -1.3 2.25167 22
      vertex -1.67125 1.99172 22
    endloop
  endfacet
  facet normal 0.573573 -0.819154 0
    outer loop
      vertex -1.3 2.25167 22
      vertex -1.67125 1.99172 0
      vertex -1.3 2.25167 0
    endloop
  endfacet
  facet normal -0.819154 0.573573 0
    outer loop
      vertex 1.99172 -1.67125 0
      vertex 2.25167 -1.3 22
      vertex 2.25167 -1.3 0
    endloop
  endfacet
  facet normal -0.819154 0.573573 0
    outer loop
      vertex 2.25167 -1.3 22
      vertex 1.99172 -1.67125 0
      vertex 1.99172 -1.67125 22
    endloop
  endfacet
  facet normal 0.965925 0.25882 0
    outer loop
      vertex -2.4432 -0.889252 22
      vertex -2.5605 -0.451485 0
      vertex -2.5605 -0.451485 22
    endloop
  endfacet
  facet normal 0.965925 0.25882 0
    outer loop
      vertex -2.5605 -0.451485 0
      vertex -2.4432 -0.889252 22
      vertex -2.4432 -0.889252 0
    endloop
  endfacet
  facet normal 0.906312 0.422609 0
    outer loop
      vertex -2.25167 -1.3 22
      vertex -2.4432 -0.889252 0
      vertex -2.4432 -0.889252 22
    endloop
  endfacet
  facet normal 0.906312 0.422609 0
    outer loop
      vertex -2.4432 -0.889252 0
      vertex -2.25167 -1.3 22
      vertex -2.25167 -1.3 0
    endloop
  endfacet
  facet normal -0.25882 0.965925 0
    outer loop
      vertex 0.889252 -2.4432 0
      vertex 0.451485 -2.5605 22
      vertex 0.889252 -2.4432 22
    endloop
  endfacet
  facet normal -0.25882 0.965925 0
    outer loop
      vertex 0.451485 -2.5605 22
      vertex 0.889252 -2.4432 0
      vertex 0.451485 -2.5605 0
    endloop
  endfacet
  facet normal -0.422609 0.906312 0
    outer loop
      vertex 1.3 -2.25167 0
      vertex 0.889252 -2.4432 22
      vertex 1.3 -2.25167 22
    endloop
  endfacet
  facet normal -0.422609 0.906312 0
    outer loop
      vertex 0.889252 -2.4432 22
      vertex 1.3 -2.25167 0
      vertex 0.889252 -2.4432 0
    endloop
  endfacet
  facet normal 0.819154 0.573573 0
    outer loop
      vertex -1.99172 -1.67125 22
      vertex -2.25167 -1.3 0
      vertex -2.25167 -1.3 22
    endloop
  endfacet
  facet normal 0.819154 0.573573 0
    outer loop
      vertex -2.25167 -1.3 0
      vertex -1.99172 -1.67125 22
      vertex -1.99172 -1.67125 0
    endloop
  endfacet
  facet normal 0.0871561 -0.996195 0
    outer loop
      vertex -0.451485 2.5605 0
      vertex 0 2.6 22
      vertex -0.451485 2.5605 22
    endloop
  endfacet
  facet normal 0.0871561 -0.996195 0
    outer loop
      vertex 0 2.6 22
      vertex -0.451485 2.5605 0
      vertex 0 2.6 0
    endloop
  endfacet
  facet normal 0.573573 0.819154 -0
    outer loop
      vertex -1.3 -2.25167 0
      vertex -1.67125 -1.99172 22
      vertex -1.3 -2.25167 22
    endloop
  endfacet
  facet normal 0.573573 0.819154 0
    outer loop
      vertex -1.67125 -1.99172 22
      vertex -1.3 -2.25167 0
      vertex -1.67125 -1.99172 0
    endloop
  endfacet
  facet normal 0.0871561 0.996195 -0
    outer loop
      vertex 0 -2.6 0
      vertex -0.451485 -2.5605 22
      vertex 0 -2.6 22
    endloop
  endfacet
  facet normal 0.0871561 0.996195 0
    outer loop
      vertex -0.451485 -2.5605 22
      vertex 0 -2.6 0
      vertex -0.451485 -2.5605 0
    endloop
  endfacet
endsolid OpenSCAD_Model
