solid OpenSCAD_Model
  facet normal -0.0871544 0 0.996195
    outer loop
      vertex 4.85 0 6.5
      vertex 5.28412 -2.58733 6.53798
      vertex 5.28412 0 6.53798
    endloop
  endfacet
  facet normal -0.0871544 0 0.996195
    outer loop
      vertex 5.28412 -2.58733 6.53798
      vertex 4.85 0 6.5
      vertex 4.85 -2.83222 6.5
    endloop
  endfacet
  facet normal -0.965925 0 -0.258824
    outer loop
      vertex 7.31202 -1.44334 9.43412
      vertex 7.19923 0 9.85505
      vertex 7.31202 0 9.43412
    endloop
  endfacet
  facet normal -0.965925 -0 -0.258824
    outer loop
      vertex 7.19923 0 9.85505
      vertex 7.31202 -1.44334 9.43412
      vertex 7.19923 -1.50697 9.85505
    endloop
  endfacet
  facet normal -0.996195 0 -0.0871544
    outer loop
      vertex 7.35 -1.42192 9
      vertex 7.31202 0 9.43412
      vertex 7.35 0 9
    endloop
  endfacet
  facet normal -0.996195 -0 -0.0871544
    outer loop
      vertex 7.31202 0 9.43412
      vertex 7.35 -1.42192 9
      vertex 7.31202 -1.44334 9.43412
    endloop
  endfacet
  facet normal -0.906306 0 -0.422622
    outer loop
      vertex 7.19923 -1.50697 9.85505
      vertex 7.01506 0 10.25
      vertex 7.19923 0 9.85505
    endloop
  endfacet
  facet normal -0.906306 -0 -0.422622
    outer loop
      vertex 7.01506 0 10.25
      vertex 7.19923 -1.50697 9.85505
      vertex 7.01506 -1.61086 10.25
    endloop
  endfacet
  facet normal 0.965925 0 0.258824
    outer loop
      vertex 2.38798 0 8.56588
      vertex 2.50077 -4.15748 8.14495
      vertex 2.50077 0 8.14495
    endloop
  endfacet
  facet normal 0.965926 7.20292e-07 0.258817
    outer loop
      vertex 2.38798 0 8.56588
      vertex 2.425 -4.20022 8.42773
      vertex 2.50077 -4.15748 8.14495
    endloop
  endfacet
  facet normal 0.965921 0 0.258837
    outer loop
      vertex 2.425 -4.20022 8.42773
      vertex 2.38798 0 8.56588
      vertex 2.38798 -4.21748 8.56588
    endloop
  endfacet
  facet normal -0.42249 -0 -0.906368
    outer loop
      vertex 5.70505 0 11.3492
      vertex 6.1 -2.12707 11.1651
      vertex 5.70505 -2.34987 11.3492
    endloop
  endfacet
  facet normal -0.42249 0 -0.906368
    outer loop
      vertex 6.1 -2.12707 11.1651
      vertex 5.70505 0 11.3492
      vertex 6.1 0 11.1651
    endloop
  endfacet
  facet normal 0.573572 0 0.819155
    outer loop
      vertex 3.24303 0 7.08489
      vertex 3.6 -3.53738 6.83494
      vertex 3.6 0 6.83494
    endloop
  endfacet
  facet normal 0.573572 0 0.819155
    outer loop
      vertex 3.6 -3.53738 6.83494
      vertex 3.24303 0 7.08489
      vertex 3.24303 -3.73875 7.08489
    endloop
  endfacet
  facet normal 0.258845 0 -0.965919
    outer loop
      vertex 3.99495 0 11.3492
      vertex 4.41588 -3.07712 11.462
      vertex 3.99495 -3.31458 11.3492
    endloop
  endfacet
  facet normal 0.258845 0 -0.965919
    outer loop
      vertex 4.41588 -3.07712 11.462
      vertex 3.99495 0 11.3492
      vertex 4.41588 0 11.462
    endloop
  endfacet
  facet normal 0.996195 0 -0.0871544
    outer loop
      vertex 2.38798 -4.21748 9.43412
      vertex 2.35 0 9
      vertex 2.38798 0 9.43412
    endloop
  endfacet
  facet normal 0.996195 0 -0.0871544
    outer loop
      vertex 2.35 0 9
      vertex 2.38798 -4.21748 9.43412
      vertex 2.35 -4.2352 9
    endloop
  endfacet
  facet normal 0.573649 0 -0.819101
    outer loop
      vertex 3.24303 0 10.9151
      vertex 3.6 -3.53738 11.1651
      vertex 3.24303 -3.73875 10.9151
    endloop
  endfacet
  facet normal 0.573649 0 -0.819101
    outer loop
      vertex 3.6 -3.53738 11.1651
      vertex 3.24303 0 10.9151
      vertex 3.6 0 11.1651
    endloop
  endfacet
  facet normal -0.819178 0 -0.573539
    outer loop
      vertex 7.01506 -1.61086 10.25
      vertex 6.76511 0 10.607
      vertex 7.01506 0 10.25
    endloop
  endfacet
  facet normal -0.819178 -0 -0.573539
    outer loop
      vertex 6.76511 0 10.607
      vertex 7.01506 -1.61086 10.25
      vertex 6.76511 -1.75187 10.607
    endloop
  endfacet
  facet normal -0.707107 0 0.707107
    outer loop
      vertex 6.45697 0 7.08489
      vertex 6.76511 -1.75187 7.39303
      vertex 6.76511 0 7.39303
    endloop
  endfacet
  facet normal -0.707107 0 0.707107
    outer loop
      vertex 6.76511 -1.75187 7.39303
      vertex 6.45697 0 7.08489
      vertex 6.45697 -1.9257 7.08489
    endloop
  endfacet
  facet normal -0.0872 -0 -0.996191
    outer loop
      vertex 4.85 0 11.5
      vertex 5.28412 -2.58733 11.462
      vertex 4.85 -2.83222 11.5
    endloop
  endfacet
  facet normal -0.0872 0 -0.996191
    outer loop
      vertex 5.28412 -2.58733 11.462
      vertex 4.85 0 11.5
      vertex 5.28412 0 11.462
    endloop
  endfacet
  facet normal 0.0872 0 -0.996191
    outer loop
      vertex 4.41588 0 11.462
      vertex 4.85 -2.83222 11.5
      vertex 4.41588 -3.07712 11.462
    endloop
  endfacet
  facet normal 0.0872 0 -0.996191
    outer loop
      vertex 4.85 -2.83222 11.5
      vertex 4.41588 0 11.462
      vertex 4.85 0 11.5
    endloop
  endfacet
  facet normal -0.573572 0 0.819155
    outer loop
      vertex 6.1 0 6.83494
      vertex 6.45697 -1.9257 7.08489
      vertex 6.45697 0 7.08489
    endloop
  endfacet
  facet normal -0.573572 0 0.819155
    outer loop
      vertex 6.45697 -1.9257 7.08489
      vertex 6.1 0 6.83494
      vertex 6.1 -2.12707 6.83494
    endloop
  endfacet
  facet normal -0.996195 0 0.0871544
    outer loop
      vertex 7.31202 0 8.56588
      vertex 7.35 -1.42192 9
      vertex 7.35 0 9
    endloop
  endfacet
  facet normal -0.996195 0 0.0871544
    outer loop
      vertex 7.35 -1.42192 9
      vertex 7.31202 0 8.56588
      vertex 7.31202 -1.44334 8.56588
    endloop
  endfacet
  facet normal -0.906306 0 0.422622
    outer loop
      vertex 7.01506 0 7.75
      vertex 7.19923 -1.50697 8.14495
      vertex 7.19923 0 8.14495
    endloop
  endfacet
  facet normal -0.906306 0 0.422622
    outer loop
      vertex 7.19923 -1.50697 8.14495
      vertex 7.01506 0 7.75
      vertex 7.01506 -1.61086 7.75
    endloop
  endfacet
  facet normal -0.258824 0 0.965925
    outer loop
      vertex 5.28412 0 6.53798
      vertex 5.70505 -2.34987 6.65077
      vertex 5.70505 0 6.65077
    endloop
  endfacet
  facet normal -0.258824 0 0.965925
    outer loop
      vertex 5.70505 -2.34987 6.65077
      vertex 5.28412 0 6.53798
      vertex 5.28412 -2.58733 6.53798
    endloop
  endfacet
  facet normal 0.996195 0 0.0871544
    outer loop
      vertex 2.35 0 9
      vertex 2.38798 -4.21748 8.56588
      vertex 2.38798 0 8.56588
    endloop
  endfacet
  facet normal 0.996195 0 0.0871544
    outer loop
      vertex 2.38798 -4.21748 8.56588
      vertex 2.35 0 9
      vertex 2.35 -4.2352 9
    endloop
  endfacet
  facet normal -0.819155 0 0.573572
    outer loop
      vertex 6.76511 0 7.39303
      vertex 7.01506 -1.61086 7.75
      vertex 7.01506 0 7.75
    endloop
  endfacet
  facet normal -0.819155 0 0.573572
    outer loop
      vertex 7.01506 -1.61086 7.75
      vertex 6.76511 0 7.39303
      vertex 6.76511 -1.75187 7.39303
    endloop
  endfacet
  facet normal 0.819178 0 -0.573539
    outer loop
      vertex 2.93489 -3.91258 10.607
      vertex 2.68494 0 10.25
      vertex 2.93489 0 10.607
    endloop
  endfacet
  facet normal 0.819178 0 -0.573539
    outer loop
      vertex 2.68494 0 10.25
      vertex 2.93489 -3.91258 10.607
      vertex 2.68494 -4.05359 10.25
    endloop
  endfacet
  facet normal 0.965925 0 -0.258824
    outer loop
      vertex 2.50077 -4.15748 9.85505
      vertex 2.38798 0 9.43412
      vertex 2.50077 0 9.85505
    endloop
  endfacet
  facet normal 0.965926 7.20292e-07 -0.258817
    outer loop
      vertex 2.425 -4.20022 9.57227
      vertex 2.38798 0 9.43412
      vertex 2.50077 -4.15748 9.85505
    endloop
  endfacet
  facet normal 0.965921 0 -0.258837
    outer loop
      vertex 2.38798 0 9.43412
      vertex 2.425 -4.20022 9.57227
      vertex 2.38798 -4.21748 9.43412
    endloop
  endfacet
  facet normal 0.42249 0 -0.906368
    outer loop
      vertex 3.6 0 11.1651
      vertex 3.99495 -3.31458 11.3492
      vertex 3.6 -3.53738 11.1651
    endloop
  endfacet
  facet normal 0.42249 0 -0.906368
    outer loop
      vertex 3.99495 -3.31458 11.3492
      vertex 3.6 0 11.1651
      vertex 3.99495 0 11.3492
    endloop
  endfacet
  facet normal -0.707061 0 -0.707153
    outer loop
      vertex 6.76511 -1.75187 10.607
      vertex 6.45697 0 10.9151
      vertex 6.76511 0 10.607
    endloop
  endfacet
  facet normal -0.707061 -0 -0.707153
    outer loop
      vertex 6.45697 0 10.9151
      vertex 6.76511 -1.75187 10.607
      vertex 6.45697 -1.9257 10.9151
    endloop
  endfacet
  facet normal 0.707107 0 0.707107
    outer loop
      vertex 2.93489 0 7.39303
      vertex 3.24303 -3.73875 7.08489
      vertex 3.24303 0 7.08489
    endloop
  endfacet
  facet normal 0.707107 0 0.707107
    outer loop
      vertex 3.24303 -3.73875 7.08489
      vertex 2.93489 0 7.39303
      vertex 2.93489 -3.91258 7.39303
    endloop
  endfacet
  facet normal -0.965925 0 0.258824
    outer loop
      vertex 7.19923 0 8.14495
      vertex 7.31202 -1.44334 8.56588
      vertex 7.31202 0 8.56588
    endloop
  endfacet
  facet normal -0.965925 0 0.258824
    outer loop
      vertex 7.31202 -1.44334 8.56588
      vertex 7.19923 0 8.14495
      vertex 7.19923 -1.50697 8.14495
    endloop
  endfacet
  facet normal -0.573649 -0 -0.819101
    outer loop
      vertex 6.1 0 11.1651
      vertex 6.45697 -1.9257 10.9151
      vertex 6.1 -2.12707 11.1651
    endloop
  endfacet
  facet normal -0.573649 0 -0.819101
    outer loop
      vertex 6.45697 -1.9257 10.9151
      vertex 6.1 0 11.1651
      vertex 6.45697 0 10.9151
    endloop
  endfacet
  facet normal 0.906306 0 0.422622
    outer loop
      vertex 2.50077 0 8.14495
      vertex 2.68494 -4.05359 7.75
      vertex 2.68494 0 7.75
    endloop
  endfacet
  facet normal 0.906306 0 0.422622
    outer loop
      vertex 2.68494 -4.05359 7.75
      vertex 2.50077 0 8.14495
      vertex 2.50077 -4.15748 8.14495
    endloop
  endfacet
  facet normal 0.422622 0 0.906306
    outer loop
      vertex 3.6 0 6.83494
      vertex 3.99495 -3.31458 6.65077
      vertex 3.99495 0 6.65077
    endloop
  endfacet
  facet normal 0.422622 0 0.906306
    outer loop
      vertex 3.99495 -3.31458 6.65077
      vertex 3.6 0 6.83494
      vertex 3.6 -3.53738 6.83494
    endloop
  endfacet
  facet normal -0.258845 -0 -0.965919
    outer loop
      vertex 5.28412 0 11.462
      vertex 5.70505 -2.34987 11.3492
      vertex 5.28412 -2.58733 11.462
    endloop
  endfacet
  facet normal -0.258845 0 -0.965919
    outer loop
      vertex 5.70505 -2.34987 11.3492
      vertex 5.28412 0 11.462
      vertex 5.70505 0 11.3492
    endloop
  endfacet
  facet normal 0.819155 0 0.573572
    outer loop
      vertex 2.68494 0 7.75
      vertex 2.93489 -3.91258 7.39303
      vertex 2.93489 0 7.39303
    endloop
  endfacet
  facet normal 0.819155 0 0.573572
    outer loop
      vertex 2.93489 -3.91258 7.39303
      vertex 2.68494 0 7.75
      vertex 2.68494 -4.05359 7.75
    endloop
  endfacet
  facet normal 0.258824 0 0.965925
    outer loop
      vertex 3.99495 0 6.65077
      vertex 4.41588 -3.07712 6.53798
      vertex 4.41588 0 6.53798
    endloop
  endfacet
  facet normal 0.258824 0 0.965925
    outer loop
      vertex 4.41588 -3.07712 6.53798
      vertex 3.99495 0 6.65077
      vertex 3.99495 -3.31458 6.65077
    endloop
  endfacet
  facet normal -0.422622 0 0.906306
    outer loop
      vertex 5.70505 0 6.65077
      vertex 6.1 -2.12707 6.83494
      vertex 6.1 0 6.83494
    endloop
  endfacet
  facet normal -0.422622 0 0.906306
    outer loop
      vertex 6.1 -2.12707 6.83494
      vertex 5.70505 0 6.65077
      vertex 5.70505 -2.34987 6.65077
    endloop
  endfacet
  facet normal 0 -1 0
    outer loop
      vertex 4.85 0 10.5
      vertex 4.85 0 11.5
      vertex 4.41588 0 11.462
    endloop
  endfacet
  facet normal 0 -1 0
    outer loop
      vertex 4.58953 0 10.4772
      vertex 4.41588 0 11.462
      vertex 3.99495 0 11.3492
    endloop
  endfacet
  facet normal 0 -1 0
    outer loop
      vertex 4.85 0 11.5
      vertex 4.85 0 10.5
      vertex 5.28412 0 11.462
    endloop
  endfacet
  facet normal 0 -1 0
    outer loop
      vertex 4.33697 0 10.4095
      vertex 3.99495 0 11.3492
      vertex 3.6 0 11.1651
    endloop
  endfacet
  facet normal 0 -1 0
    outer loop
      vertex 5.11047 0 10.4772
      vertex 5.28412 0 11.462
      vertex 4.85 0 10.5
    endloop
  endfacet
  facet normal 0 -1 0
    outer loop
      vertex 4.1 0 10.299
      vertex 3.6 0 11.1651
      vertex 3.24303 0 10.9151
    endloop
  endfacet
  facet normal 0 -1 -0
    outer loop
      vertex 5.28412 0 11.462
      vertex 5.11047 0 10.4772
      vertex 5.70505 0 11.3492
    endloop
  endfacet
  facet normal 0 -1 0
    outer loop
      vertex 3.88582 0 10.1491
      vertex 3.24303 0 10.9151
      vertex 2.93489 0 10.607
    endloop
  endfacet
  facet normal 0 -1 0
    outer loop
      vertex 5.36303 0 10.4095
      vertex 5.70505 0 11.3492
      vertex 5.11047 0 10.4772
    endloop
  endfacet
  facet normal 0 -1 -0
    outer loop
      vertex 5.70505 0 11.3492
      vertex 5.36303 0 10.4095
      vertex 6.1 0 11.1651
    endloop
  endfacet
  facet normal 0 -1 0
    outer loop
      vertex 4.41588 0 11.462
      vertex 4.58953 0 10.4772
      vertex 4.85 0 10.5
    endloop
  endfacet
  facet normal 0 -1 0
    outer loop
      vertex 3.99495 0 11.3492
      vertex 4.33697 0 10.4095
      vertex 4.58953 0 10.4772
    endloop
  endfacet
  facet normal 0 -1 0
    outer loop
      vertex 3.6 0 11.1651
      vertex 4.1 0 10.299
      vertex 4.33697 0 10.4095
    endloop
  endfacet
  facet normal 0 -1 0
    outer loop
      vertex 3.70093 0 9.96418
      vertex 2.93489 0 10.607
      vertex 2.68494 0 10.25
    endloop
  endfacet
  facet normal 0 -1 0
    outer loop
      vertex 3.24303 0 10.9151
      vertex 3.88582 0 10.1491
      vertex 4.1 0 10.299
    endloop
  endfacet
  facet normal 0 -1 0
    outer loop
      vertex 2.93489 0 10.607
      vertex 3.70093 0 9.96418
      vertex 3.88582 0 10.1491
    endloop
  endfacet
  facet normal 0 -1 0
    outer loop
      vertex 3.55096 0 9.75
      vertex 2.68494 0 10.25
      vertex 2.50077 0 9.85505
    endloop
  endfacet
  facet normal 0 -1 0
    outer loop
      vertex 2.68494 0 10.25
      vertex 3.55096 0 9.75
      vertex 3.70093 0 9.96418
    endloop
  endfacet
  facet normal 0 -1 0
    outer loop
      vertex 2.50077 0 9.85505
      vertex 3.44046 0 9.51303
      vertex 3.55096 0 9.75
    endloop
  endfacet
  facet normal 0 -1 0
    outer loop
      vertex 2.38798 0 9.43412
      vertex 3.44046 0 9.51303
      vertex 2.50077 0 9.85505
    endloop
  endfacet
  facet normal 0 -1 0
    outer loop
      vertex 2.38798 0 9.43412
      vertex 3.37279 0 9.26047
      vertex 3.44046 0 9.51303
    endloop
  endfacet
  facet normal 0 -1 0
    outer loop
      vertex 2.35 0 9
      vertex 3.37279 0 9.26047
      vertex 2.38798 0 9.43412
    endloop
  endfacet
  facet normal 0 -1 0
    outer loop
      vertex 2.35 0 9
      vertex 3.35 0 9
      vertex 3.37279 0 9.26047
    endloop
  endfacet
  facet normal 0 -1 0
    outer loop
      vertex 2.35 0 9
      vertex 3.37279 0 8.73953
      vertex 3.35 0 9
    endloop
  endfacet
  facet normal 0 -1 0
    outer loop
      vertex 2.38798 0 8.56588
      vertex 3.37279 0 8.73953
      vertex 2.35 0 9
    endloop
  endfacet
  facet normal 0 -1 0
    outer loop
      vertex 2.38798 0 8.56588
      vertex 3.44046 0 8.48697
      vertex 3.37279 0 8.73953
    endloop
  endfacet
  facet normal 0 -1 0
    outer loop
      vertex 2.50077 0 8.14495
      vertex 3.44046 0 8.48697
      vertex 2.38798 0 8.56588
    endloop
  endfacet
  facet normal 0 -1 -0
    outer loop
      vertex 3.44046 0 8.48697
      vertex 2.50077 0 8.14495
      vertex 3.55096 0 8.25
    endloop
  endfacet
  facet normal 0 -1 0
    outer loop
      vertex 2.68494 0 7.75
      vertex 3.55096 0 8.25
      vertex 2.50077 0 8.14495
    endloop
  endfacet
  facet normal 0 -1 -0
    outer loop
      vertex 3.55096 0 8.25
      vertex 2.68494 0 7.75
      vertex 3.70093 0 8.03582
    endloop
  endfacet
  facet normal 0 -1 0
    outer loop
      vertex 2.93489 0 7.39303
      vertex 3.70093 0 8.03582
      vertex 2.68494 0 7.75
    endloop
  endfacet
  facet normal 0 -1 -0
    outer loop
      vertex 3.70093 0 8.03582
      vertex 2.93489 0 7.39303
      vertex 3.88582 0 7.85093
    endloop
  endfacet
  facet normal 0 -1 0
    outer loop
      vertex 3.24303 0 7.08489
      vertex 3.88582 0 7.85093
      vertex 2.93489 0 7.39303
    endloop
  endfacet
  facet normal 0 -1 -0
    outer loop
      vertex 3.88582 0 7.85093
      vertex 3.24303 0 7.08489
      vertex 4.1 0 7.70096
    endloop
  endfacet
  facet normal 0 -1 -0
    outer loop
      vertex 4.1 0 7.70096
      vertex 3.6 0 6.83494
      vertex 4.33697 0 7.59046
    endloop
  endfacet
  facet normal 0 -1 0
    outer loop
      vertex 3.6 0 6.83494
      vertex 4.1 0 7.70096
      vertex 3.24303 0 7.08489
    endloop
  endfacet
  facet normal 0 -1 0
    outer loop
      vertex 5.6 0 10.299
      vertex 6.1 0 11.1651
      vertex 5.36303 0 10.4095
    endloop
  endfacet
  facet normal 0 -1 -0
    outer loop
      vertex 6.1 0 11.1651
      vertex 5.6 0 10.299
      vertex 6.45697 0 10.9151
    endloop
  endfacet
  facet normal 0 -1 0
    outer loop
      vertex 5.81418 0 10.1491
      vertex 6.45697 0 10.9151
      vertex 5.6 0 10.299
    endloop
  endfacet
  facet normal 0 -1 -0
    outer loop
      vertex 6.45697 0 10.9151
      vertex 5.81418 0 10.1491
      vertex 6.76511 0 10.607
    endloop
  endfacet
  facet normal 0 -1 0
    outer loop
      vertex 5.99907 0 9.96418
      vertex 6.76511 0 10.607
      vertex 5.81418 0 10.1491
    endloop
  endfacet
  facet normal 0 -1 -0
    outer loop
      vertex 6.76511 0 10.607
      vertex 5.99907 0 9.96418
      vertex 7.01506 0 10.25
    endloop
  endfacet
  facet normal 0 -1 0
    outer loop
      vertex 6.14904 0 9.75
      vertex 7.01506 0 10.25
      vertex 5.99907 0 9.96418
    endloop
  endfacet
  facet normal 0 -1 -0
    outer loop
      vertex 7.01506 0 10.25
      vertex 6.14904 0 9.75
      vertex 7.19923 0 9.85505
    endloop
  endfacet
  facet normal 0 -1 0
    outer loop
      vertex 6.25954 0 9.51303
      vertex 7.19923 0 9.85505
      vertex 6.14904 0 9.75
    endloop
  endfacet
  facet normal 0 -1 0
    outer loop
      vertex 6.25954 0 9.51303
      vertex 7.31202 0 9.43412
      vertex 7.19923 0 9.85505
    endloop
  endfacet
  facet normal 0 -1 0
    outer loop
      vertex 6.32721 0 9.26047
      vertex 7.31202 0 9.43412
      vertex 6.25954 0 9.51303
    endloop
  endfacet
  facet normal 0 -1 0
    outer loop
      vertex 6.35 0 9
      vertex 7.31202 0 9.43412
      vertex 6.32721 0 9.26047
    endloop
  endfacet
  facet normal 0 -1 0
    outer loop
      vertex 6.35 0 9
      vertex 7.35 0 9
      vertex 7.31202 0 9.43412
    endloop
  endfacet
  facet normal 0 -1 0
    outer loop
      vertex 6.32721 0 8.73953
      vertex 7.35 0 9
      vertex 6.35 0 9
    endloop
  endfacet
  facet normal 0 -1 0
    outer loop
      vertex 6.32721 0 8.73953
      vertex 7.31202 0 8.56588
      vertex 7.35 0 9
    endloop
  endfacet
  facet normal 0 -1 0
    outer loop
      vertex 6.25954 0 8.48697
      vertex 7.31202 0 8.56588
      vertex 6.32721 0 8.73953
    endloop
  endfacet
  facet normal 0 -1 0
    outer loop
      vertex 7.19923 0 8.14495
      vertex 6.25954 0 8.48697
      vertex 6.14904 0 8.25
    endloop
  endfacet
  facet normal 0 -1 0
    outer loop
      vertex 6.25954 0 8.48697
      vertex 7.19923 0 8.14495
      vertex 7.31202 0 8.56588
    endloop
  endfacet
  facet normal 0 -1 0
    outer loop
      vertex 7.01506 0 7.75
      vertex 6.14904 0 8.25
      vertex 5.99907 0 8.03582
    endloop
  endfacet
  facet normal 0 -1 0
    outer loop
      vertex 6.76511 0 7.39303
      vertex 5.99907 0 8.03582
      vertex 5.81418 0 7.85093
    endloop
  endfacet
  facet normal 0 -1 0
    outer loop
      vertex 6.14904 0 8.25
      vertex 7.01506 0 7.75
      vertex 7.19923 0 8.14495
    endloop
  endfacet
  facet normal 0 -1 0
    outer loop
      vertex 6.45697 0 7.08489
      vertex 5.81418 0 7.85093
      vertex 5.6 0 7.70096
    endloop
  endfacet
  facet normal 0 -1 0
    outer loop
      vertex 6.1 0 6.83494
      vertex 5.6 0 7.70096
      vertex 5.36303 0 7.59046
    endloop
  endfacet
  facet normal 0 -1 0
    outer loop
      vertex 5.70505 0 6.65077
      vertex 5.36303 0 7.59046
      vertex 5.11047 0 7.52279
    endloop
  endfacet
  facet normal 0 -1 0
    outer loop
      vertex 5.99907 0 8.03582
      vertex 6.76511 0 7.39303
      vertex 7.01506 0 7.75
    endloop
  endfacet
  facet normal 0 -1 0
    outer loop
      vertex 5.28412 0 6.53798
      vertex 5.11047 0 7.52279
      vertex 4.85 0 7.5
    endloop
  endfacet
  facet normal 0 -1 0
    outer loop
      vertex 3.99495 0 6.65077
      vertex 4.33697 0 7.59046
      vertex 3.6 0 6.83494
    endloop
  endfacet
  facet normal 0 -1 -0
    outer loop
      vertex 4.33697 0 7.59046
      vertex 3.99495 0 6.65077
      vertex 4.58953 0 7.52279
    endloop
  endfacet
  facet normal 0 -1 0
    outer loop
      vertex 5.81418 0 7.85093
      vertex 6.45697 0 7.08489
      vertex 6.76511 0 7.39303
    endloop
  endfacet
  facet normal 0 -1 0
    outer loop
      vertex 4.41588 0 6.53798
      vertex 4.58953 0 7.52279
      vertex 3.99495 0 6.65077
    endloop
  endfacet
  facet normal 0 -1 0
    outer loop
      vertex 5.6 0 7.70096
      vertex 6.1 0 6.83494
      vertex 6.45697 0 7.08489
    endloop
  endfacet
  facet normal 0 -1 -0
    outer loop
      vertex 4.58953 0 7.52279
      vertex 4.41588 0 6.53798
      vertex 4.85 0 7.5
    endloop
  endfacet
  facet normal 0 -1 0
    outer loop
      vertex 5.36303 0 7.59046
      vertex 5.70505 0 6.65077
      vertex 6.1 0 6.83494
    endloop
  endfacet
  facet normal 0 -1 0
    outer loop
      vertex 4.85 0 6.5
      vertex 4.85 0 7.5
      vertex 4.41588 0 6.53798
    endloop
  endfacet
  facet normal 0 -1 0
    outer loop
      vertex 5.11047 0 7.52279
      vertex 5.28412 0 6.53798
      vertex 5.70505 0 6.65077
    endloop
  endfacet
  facet normal 0 -1 0
    outer loop
      vertex 4.85 0 7.5
      vertex 4.85 0 6.5
      vertex 5.28412 0 6.53798
    endloop
  endfacet
  facet normal 0.906306 0 -0.422622
    outer loop
      vertex 2.68494 -4.05359 10.25
      vertex 2.50077 0 9.85505
      vertex 2.68494 0 10.25
    endloop
  endfacet
  facet normal 0.906306 0 -0.422622
    outer loop
      vertex 2.50077 0 9.85505
      vertex 2.68494 -4.05359 10.25
      vertex 2.50077 -4.15748 9.85505
    endloop
  endfacet
  facet normal 0.0871544 0 0.996195
    outer loop
      vertex 4.41588 0 6.53798
      vertex 4.85 -2.83222 6.5
      vertex 4.85 0 6.5
    endloop
  endfacet
  facet normal 0.0871544 0 0.996195
    outer loop
      vertex 4.85 -2.83222 6.5
      vertex 4.41588 0 6.53798
      vertex 4.41588 -3.07712 6.53798
    endloop
  endfacet
  facet normal 0.707061 0 -0.707153
    outer loop
      vertex 3.24303 -3.73875 10.9151
      vertex 2.93489 0 10.607
      vertex 3.24303 0 10.9151
    endloop
  endfacet
  facet normal 0.707061 0 -0.707153
    outer loop
      vertex 2.93489 0 10.607
      vertex 3.24303 -3.73875 10.9151
      vertex 2.93489 -3.91258 10.607
    endloop
  endfacet
  facet normal -0.965929 0 0.258807
    outer loop
      vertex 6.25954 0 8.48697
      vertex 6.32721 4.85 8.73953
      vertex 6.25954 4.85 8.48697
    endloop
  endfacet
  facet normal -0.965929 0 0.258807
    outer loop
      vertex 6.32721 4.85 8.73953
      vertex 6.25954 0 8.48697
      vertex 6.32721 0 8.73953
    endloop
  endfacet
  facet normal -0.965929 0 -0.258807
    outer loop
      vertex 6.32721 0 9.26047
      vertex 6.25954 4.85 9.51303
      vertex 6.32721 4.85 9.26047
    endloop
  endfacet
  facet normal -0.965929 -0 -0.258807
    outer loop
      vertex 6.25954 4.85 9.51303
      vertex 6.32721 0 9.26047
      vertex 6.25954 0 9.51303
    endloop
  endfacet
  facet normal -0.996194 0 -0.0871627
    outer loop
      vertex 6.35 0 9
      vertex 6.32721 4.85 9.26047
      vertex 6.35 4.85 9
    endloop
  endfacet
  facet normal -0.996194 -0 -0.0871627
    outer loop
      vertex 6.32721 4.85 9.26047
      vertex 6.35 0 9
      vertex 6.32721 0 9.26047
    endloop
  endfacet
  facet normal -0.906309 0 -0.422615
    outer loop
      vertex 6.25954 0 9.51303
      vertex 6.14904 4.85 9.75
      vertex 6.25954 4.85 9.51303
    endloop
  endfacet
  facet normal -0.906309 -0 -0.422615
    outer loop
      vertex 6.14904 4.85 9.75
      vertex 6.25954 0 9.51303
      vertex 6.14904 0 9.75
    endloop
  endfacet
  facet normal 0.965929 -0 0.258807
    outer loop
      vertex 3.37279 0 8.73953
      vertex 3.44046 4.85 8.48697
      vertex 3.37279 4.85 8.73953
    endloop
  endfacet
  facet normal 0.965929 0 0.258807
    outer loop
      vertex 3.44046 4.85 8.48697
      vertex 3.37279 0 8.73953
      vertex 3.44046 0 8.48697
    endloop
  endfacet
  facet normal 0.819153 0 -0.573575
    outer loop
      vertex 3.70093 0 9.96418
      vertex 3.55096 4.85 9.75
      vertex 3.70093 4.85 9.96418
    endloop
  endfacet
  facet normal 0.819153 0 -0.573575
    outer loop
      vertex 3.55096 4.85 9.75
      vertex 3.70093 0 9.96418
      vertex 3.55096 0 9.75
    endloop
  endfacet
  facet normal 0.422615 0 -0.906309
    outer loop
      vertex 4.1 0 10.299
      vertex 4.33697 4.85 10.4095
      vertex 4.33697 0 10.4095
    endloop
  endfacet
  facet normal 0.422615 0 -0.906309
    outer loop
      vertex 4.33697 4.85 10.4095
      vertex 4.1 0 10.299
      vertex 4.1 4.85 10.299
    endloop
  endfacet
  facet normal 0.573575 0 0.819153
    outer loop
      vertex 3.88582 4.85 7.85093
      vertex 4.1 0 7.70096
      vertex 4.1 4.85 7.70096
    endloop
  endfacet
  facet normal 0.573575 0 0.819153
    outer loop
      vertex 4.1 0 7.70096
      vertex 3.88582 4.85 7.85093
      vertex 3.88582 0 7.85093
    endloop
  endfacet
  facet normal 0.0871627 0 0.996194
    outer loop
      vertex 4.58953 4.85 7.52279
      vertex 4.85 0 7.5
      vertex 4.85 4.85 7.5
    endloop
  endfacet
  facet normal 0.0871627 0 0.996194
    outer loop
      vertex 4.85 0 7.5
      vertex 4.58953 4.85 7.52279
      vertex 4.58953 0 7.52279
    endloop
  endfacet
  facet normal -0.0871627 0 0.996194
    outer loop
      vertex 4.85 4.85 7.5
      vertex 5.11047 0 7.52279
      vertex 5.11047 4.85 7.52279
    endloop
  endfacet
  facet normal -0.0871627 0 0.996194
    outer loop
      vertex 5.11047 0 7.52279
      vertex 4.85 4.85 7.5
      vertex 4.85 0 7.5
    endloop
  endfacet
  facet normal -0.906309 0 0.422615
    outer loop
      vertex 6.14904 0 8.25
      vertex 6.25954 4.85 8.48697
      vertex 6.14904 4.85 8.25
    endloop
  endfacet
  facet normal -0.906309 0 0.422615
    outer loop
      vertex 6.25954 4.85 8.48697
      vertex 6.14904 0 8.25
      vertex 6.25954 0 8.48697
    endloop
  endfacet
  facet normal -0.707164 0 -0.707049
    outer loop
      vertex 5.99907 0 9.96418
      vertex 5.81418 4.85 10.1491
      vertex 5.99907 4.85 9.96418
    endloop
  endfacet
  facet normal -0.707164 -0 -0.707049
    outer loop
      vertex 5.81418 4.85 10.1491
      vertex 5.99907 0 9.96418
      vertex 5.81418 0 10.1491
    endloop
  endfacet
  facet normal -0.707107 0 0.707107
    outer loop
      vertex 5.81418 0 7.85093
      vertex 5.99907 4.85 8.03582
      vertex 5.81418 4.85 7.85093
    endloop
  endfacet
  facet normal -0.707107 0 0.707107
    outer loop
      vertex 5.99907 4.85 8.03582
      vertex 5.81418 0 7.85093
      vertex 5.99907 0 8.03582
    endloop
  endfacet
  facet normal 0.996194 0 -0.0871627
    outer loop
      vertex 3.37279 0 9.26047
      vertex 3.35 4.85 9
      vertex 3.37279 4.85 9.26047
    endloop
  endfacet
  facet normal 0.996194 0 -0.0871627
    outer loop
      vertex 3.35 4.85 9
      vertex 3.37279 0 9.26047
      vertex 3.35 0 9
    endloop
  endfacet
  facet normal -0.258915 0 -0.9659
    outer loop
      vertex 5.11047 0 10.4772
      vertex 5.36303 4.85 10.4095
      vertex 5.36303 0 10.4095
    endloop
  endfacet
  facet normal -0.258915 0 -0.9659
    outer loop
      vertex 5.36303 4.85 10.4095
      vertex 5.11047 0 10.4772
      vertex 5.11047 4.85 10.4772
    endloop
  endfacet
  facet normal 0.996194 -0 0.0871627
    outer loop
      vertex 3.35 0 9
      vertex 3.37279 4.85 8.73953
      vertex 3.35 4.85 9
    endloop
  endfacet
  facet normal 0.996194 0 0.0871627
    outer loop
      vertex 3.37279 4.85 8.73953
      vertex 3.35 0 9
      vertex 3.37279 0 8.73953
    endloop
  endfacet
  facet normal -0.819153 0 0.573575
    outer loop
      vertex 5.99907 0 8.03582
      vertex 6.14904 4.85 8.25
      vertex 5.99907 4.85 8.03582
    endloop
  endfacet
  facet normal -0.819153 0 0.573575
    outer loop
      vertex 6.14904 4.85 8.25
      vertex 5.99907 0 8.03582
      vertex 6.14904 0 8.25
    endloop
  endfacet
  facet normal 0.258807 0 0.965929
    outer loop
      vertex 4.33697 4.85 7.59046
      vertex 4.58953 0 7.52279
      vertex 4.58953 4.85 7.52279
    endloop
  endfacet
  facet normal 0.258807 0 0.965929
    outer loop
      vertex 4.58953 0 7.52279
      vertex 4.33697 4.85 7.59046
      vertex 4.33697 0 7.59046
    endloop
  endfacet
  facet normal -0.422615 0 0.906309
    outer loop
      vertex 5.36303 4.85 7.59046
      vertex 5.6 0 7.70096
      vertex 5.6 4.85 7.70096
    endloop
  endfacet
  facet normal -0.422615 0 0.906309
    outer loop
      vertex 5.6 0 7.70096
      vertex 5.36303 4.85 7.59046
      vertex 5.36303 0 7.59046
    endloop
  endfacet
  facet normal 0.573396 0 -0.819279
    outer loop
      vertex 3.88582 0 10.1491
      vertex 4.1 4.85 10.299
      vertex 4.1 0 10.299
    endloop
  endfacet
  facet normal 0.573396 0 -0.819279
    outer loop
      vertex 4.1 4.85 10.299
      vertex 3.88582 0 10.1491
      vertex 3.88582 4.85 10.1491
    endloop
  endfacet
  facet normal -0.819153 0 -0.573575
    outer loop
      vertex 6.14904 0 9.75
      vertex 5.99907 4.85 9.96418
      vertex 6.14904 4.85 9.75
    endloop
  endfacet
  facet normal -0.819153 -0 -0.573575
    outer loop
      vertex 5.99907 4.85 9.96418
      vertex 6.14904 0 9.75
      vertex 5.99907 0 9.96418
    endloop
  endfacet
  facet normal -0.422615 0 -0.906309
    outer loop
      vertex 5.36303 0 10.4095
      vertex 5.6 4.85 10.299
      vertex 5.6 0 10.299
    endloop
  endfacet
  facet normal -0.422615 0 -0.906309
    outer loop
      vertex 5.6 4.85 10.299
      vertex 5.36303 0 10.4095
      vertex 5.36303 4.85 10.4095
    endloop
  endfacet
  facet normal -0.258807 0 0.965929
    outer loop
      vertex 5.11047 4.85 7.52279
      vertex 5.36303 0 7.59046
      vertex 5.36303 4.85 7.59046
    endloop
  endfacet
  facet normal -0.258807 0 0.965929
    outer loop
      vertex 5.36303 0 7.59046
      vertex 5.11047 4.85 7.52279
      vertex 5.11047 0 7.52279
    endloop
  endfacet
  facet normal -0.573575 0 0.819153
    outer loop
      vertex 5.6 4.85 7.70096
      vertex 5.81418 0 7.85093
      vertex 5.81418 4.85 7.85093
    endloop
  endfacet
  facet normal -0.573575 0 0.819153
    outer loop
      vertex 5.81418 0 7.85093
      vertex 5.6 4.85 7.70096
      vertex 5.6 0 7.70096
    endloop
  endfacet
  facet normal -0.996194 0 0.0871627
    outer loop
      vertex 6.32721 0 8.73953
      vertex 6.35 4.85 9
      vertex 6.32721 4.85 8.73953
    endloop
  endfacet
  facet normal -0.996194 0 0.0871627
    outer loop
      vertex 6.35 4.85 9
      vertex 6.32721 0 8.73953
      vertex 6.35 0 9
    endloop
  endfacet
  facet normal -0.573396 0 -0.819279
    outer loop
      vertex 5.6 0 10.299
      vertex 5.81418 4.85 10.1491
      vertex 5.81418 0 10.1491
    endloop
  endfacet
  facet normal -0.573396 0 -0.819279
    outer loop
      vertex 5.81418 4.85 10.1491
      vertex 5.6 0 10.299
      vertex 5.6 4.85 10.299
    endloop
  endfacet
  facet normal -0.0872006 0 -0.996191
    outer loop
      vertex 4.85 0 10.5
      vertex 5.11047 4.85 10.4772
      vertex 5.11047 0 10.4772
    endloop
  endfacet
  facet normal -0.0872006 0 -0.996191
    outer loop
      vertex 5.11047 4.85 10.4772
      vertex 4.85 0 10.5
      vertex 4.85 4.85 10.5
    endloop
  endfacet
  facet normal 0.906309 0 -0.422615
    outer loop
      vertex 3.55096 0 9.75
      vertex 3.44046 4.85 9.51303
      vertex 3.55096 4.85 9.75
    endloop
  endfacet
  facet normal 0.906309 0 -0.422615
    outer loop
      vertex 3.44046 4.85 9.51303
      vertex 3.55096 0 9.75
      vertex 3.44046 0 9.51303
    endloop
  endfacet
  facet normal 0.258915 0 -0.9659
    outer loop
      vertex 4.33697 0 10.4095
      vertex 4.58953 4.85 10.4772
      vertex 4.58953 0 10.4772
    endloop
  endfacet
  facet normal 0.258915 0 -0.9659
    outer loop
      vertex 4.58953 4.85 10.4772
      vertex 4.33697 0 10.4095
      vertex 4.33697 4.85 10.4095
    endloop
  endfacet
  facet normal 0.0872006 0 -0.996191
    outer loop
      vertex 4.58953 0 10.4772
      vertex 4.85 4.85 10.5
      vertex 4.85 0 10.5
    endloop
  endfacet
  facet normal 0.0872006 0 -0.996191
    outer loop
      vertex 4.85 4.85 10.5
      vertex 4.58953 0 10.4772
      vertex 4.58953 4.85 10.4772
    endloop
  endfacet
  facet normal 0.906309 -0 0.422615
    outer loop
      vertex 3.44046 0 8.48697
      vertex 3.55096 4.85 8.25
      vertex 3.44046 4.85 8.48697
    endloop
  endfacet
  facet normal 0.906309 0 0.422615
    outer loop
      vertex 3.55096 4.85 8.25
      vertex 3.44046 0 8.48697
      vertex 3.55096 0 8.25
    endloop
  endfacet
  facet normal 0.819153 -0 0.573575
    outer loop
      vertex 3.55096 0 8.25
      vertex 3.70093 4.85 8.03582
      vertex 3.55096 4.85 8.25
    endloop
  endfacet
  facet normal 0.819153 0 0.573575
    outer loop
      vertex 3.70093 4.85 8.03582
      vertex 3.55096 0 8.25
      vertex 3.70093 0 8.03582
    endloop
  endfacet
  facet normal 0.707107 -0 0.707107
    outer loop
      vertex 3.70093 0 8.03582
      vertex 3.88582 4.85 7.85093
      vertex 3.70093 4.85 8.03582
    endloop
  endfacet
  facet normal 0.707107 0 0.707107
    outer loop
      vertex 3.88582 4.85 7.85093
      vertex 3.70093 0 8.03582
      vertex 3.88582 0 7.85093
    endloop
  endfacet
  facet normal 0.422615 0 0.906309
    outer loop
      vertex 4.1 4.85 7.70096
      vertex 4.33697 0 7.59046
      vertex 4.33697 4.85 7.59046
    endloop
  endfacet
  facet normal 0.422615 0 0.906309
    outer loop
      vertex 4.33697 0 7.59046
      vertex 4.1 4.85 7.70096
      vertex 4.1 0 7.70096
    endloop
  endfacet
  facet normal 0.965929 0 -0.258807
    outer loop
      vertex 3.44046 0 9.51303
      vertex 3.37279 4.85 9.26047
      vertex 3.44046 4.85 9.51303
    endloop
  endfacet
  facet normal 0.965929 0 -0.258807
    outer loop
      vertex 3.37279 4.85 9.26047
      vertex 3.44046 0 9.51303
      vertex 3.37279 0 9.26047
    endloop
  endfacet
  facet normal 0.707164 0 -0.707049
    outer loop
      vertex 3.88582 0 10.1491
      vertex 3.70093 4.85 9.96418
      vertex 3.88582 4.85 10.1491
    endloop
  endfacet
  facet normal 0.707164 0 -0.707049
    outer loop
      vertex 3.70093 4.85 9.96418
      vertex 3.88582 0 10.1491
      vertex 3.70093 0 9.96418
    endloop
  endfacet
  facet normal -0.25882 -0.965926 0
    outer loop
      vertex -1.6588 -4.55751 0
      vertex -0.842194 -4.77632 18
      vertex -1.6588 -4.55751 18
    endloop
  endfacet
  facet normal -0.25882 -0.965926 -0
    outer loop
      vertex -0.842194 -4.77632 18
      vertex -1.6588 -4.55751 0
      vertex -0.842194 -4.77632 0
    endloop
  endfacet
  facet normal -1 0 0
    outer loop
      vertex -4.85 0 0
      vertex -4.85 4.85 18
      vertex -4.85 4.85 0
    endloop
  endfacet
  facet normal -1 -0 0
    outer loop
      vertex -4.85 4.85 18
      vertex -4.85 0 0
      vertex -4.85 0 18
    endloop
  endfacet
  facet normal 0 1 0
    outer loop
      vertex 13.15 4.85 18
      vertex 4.85 4.85 10.5
      vertex -4.85 4.85 18
    endloop
  endfacet
  facet normal 0 1 0
    outer loop
      vertex 13.15 4.85 18
      vertex 5.11047 4.85 10.4772
      vertex 4.85 4.85 10.5
    endloop
  endfacet
  facet normal 0 1 0
    outer loop
      vertex 13.15 4.85 18
      vertex 5.36303 4.85 10.4095
      vertex 5.11047 4.85 10.4772
    endloop
  endfacet
  facet normal 0 1 0
    outer loop
      vertex 13.15 4.85 18
      vertex 5.6 4.85 10.299
      vertex 5.36303 4.85 10.4095
    endloop
  endfacet
  facet normal 0 1 0
    outer loop
      vertex 13.15 4.85 18
      vertex 5.81418 4.85 10.1491
      vertex 5.6 4.85 10.299
    endloop
  endfacet
  facet normal 0 1 0
    outer loop
      vertex 13.15 4.85 18
      vertex 5.99907 4.85 9.96418
      vertex 5.81418 4.85 10.1491
    endloop
  endfacet
  facet normal 0 1 0
    outer loop
      vertex 13.15 4.85 18
      vertex 6.14904 4.85 9.75
      vertex 5.99907 4.85 9.96418
    endloop
  endfacet
  facet normal 0 1 0
    outer loop
      vertex 13.15 4.85 18
      vertex 6.25954 4.85 9.51303
      vertex 6.14904 4.85 9.75
    endloop
  endfacet
  facet normal 0 1 0
    outer loop
      vertex 13.15 4.85 18
      vertex 6.32721 4.85 9.26047
      vertex 6.25954 4.85 9.51303
    endloop
  endfacet
  facet normal 0 1 0
    outer loop
      vertex 13.15 4.85 18
      vertex 6.35 4.85 9
      vertex 6.32721 4.85 9.26047
    endloop
  endfacet
  facet normal 0 1 -0
    outer loop
      vertex 13.15 4.85 0
      vertex 6.35 4.85 9
      vertex 13.15 4.85 18
    endloop
  endfacet
  facet normal 0 1 0
    outer loop
      vertex 6.35 4.85 9
      vertex 13.15 4.85 0
      vertex 6.32721 4.85 8.73953
    endloop
  endfacet
  facet normal 0 1 0
    outer loop
      vertex 6.32721 4.85 8.73953
      vertex 13.15 4.85 0
      vertex 6.25954 4.85 8.48697
    endloop
  endfacet
  facet normal 0 1 0
    outer loop
      vertex 6.25954 4.85 8.48697
      vertex 13.15 4.85 0
      vertex 6.14904 4.85 8.25
    endloop
  endfacet
  facet normal 0 1 0
    outer loop
      vertex 5.11047 4.85 7.52279
      vertex 13.15 4.85 0
      vertex 4.85 4.85 7.5
    endloop
  endfacet
  facet normal 0 1 0
    outer loop
      vertex 5.36303 4.85 7.59046
      vertex 13.15 4.85 0
      vertex 5.11047 4.85 7.52279
    endloop
  endfacet
  facet normal 0 1 0
    outer loop
      vertex 5.6 4.85 7.70096
      vertex 13.15 4.85 0
      vertex 5.36303 4.85 7.59046
    endloop
  endfacet
  facet normal 0 1 0
    outer loop
      vertex 5.81418 4.85 7.85093
      vertex 13.15 4.85 0
      vertex 5.6 4.85 7.70096
    endloop
  endfacet
  facet normal 0 1 0
    outer loop
      vertex 5.99907 4.85 8.03582
      vertex 13.15 4.85 0
      vertex 5.81418 4.85 7.85093
    endloop
  endfacet
  facet normal 0 1 0
    outer loop
      vertex 6.14904 4.85 8.25
      vertex 13.15 4.85 0
      vertex 5.99907 4.85 8.03582
    endloop
  endfacet
  facet normal 0 1 -0
    outer loop
      vertex 4.58953 4.85 10.4772
      vertex -4.85 4.85 18
      vertex 4.85 4.85 10.5
    endloop
  endfacet
  facet normal 0 1 -0
    outer loop
      vertex 4.33697 4.85 10.4095
      vertex -4.85 4.85 18
      vertex 4.58953 4.85 10.4772
    endloop
  endfacet
  facet normal 0 1 -0
    outer loop
      vertex 4.1 4.85 10.299
      vertex -4.85 4.85 18
      vertex 4.33697 4.85 10.4095
    endloop
  endfacet
  facet normal 0 1 -0
    outer loop
      vertex 3.88582 4.85 10.1491
      vertex -4.85 4.85 18
      vertex 4.1 4.85 10.299
    endloop
  endfacet
  facet normal 0 1 -0
    outer loop
      vertex 3.70093 4.85 9.96418
      vertex -4.85 4.85 18
      vertex 3.88582 4.85 10.1491
    endloop
  endfacet
  facet normal 0 1 -0
    outer loop
      vertex 3.55096 4.85 9.75
      vertex -4.85 4.85 18
      vertex 3.70093 4.85 9.96418
    endloop
  endfacet
  facet normal 0 1 -0
    outer loop
      vertex 3.44046 4.85 9.51303
      vertex -4.85 4.85 18
      vertex 3.55096 4.85 9.75
    endloop
  endfacet
  facet normal 0 1 -0
    outer loop
      vertex 3.37279 4.85 9.26047
      vertex -4.85 4.85 18
      vertex 3.44046 4.85 9.51303
    endloop
  endfacet
  facet normal 0 1 -0
    outer loop
      vertex 3.35 4.85 9
      vertex -4.85 4.85 18
      vertex 3.37279 4.85 9.26047
    endloop
  endfacet
  facet normal 0 1 0
    outer loop
      vertex -4.85 4.85 0
      vertex 3.35 4.85 9
      vertex 3.37279 4.85 8.73953
    endloop
  endfacet
  facet normal 0 1 0
    outer loop
      vertex -4.85 4.85 0
      vertex 3.37279 4.85 8.73953
      vertex 3.44046 4.85 8.48697
    endloop
  endfacet
  facet normal 0 1 0
    outer loop
      vertex -4.85 4.85 0
      vertex 3.44046 4.85 8.48697
      vertex 3.55096 4.85 8.25
    endloop
  endfacet
  facet normal 0 1 0
    outer loop
      vertex -4.85 4.85 0
      vertex 3.55096 4.85 8.25
      vertex 3.70093 4.85 8.03582
    endloop
  endfacet
  facet normal 0 1 0
    outer loop
      vertex -4.85 4.85 0
      vertex 4.85 4.85 7.5
      vertex 13.15 4.85 0
    endloop
  endfacet
  facet normal 0 1 0
    outer loop
      vertex 4.85 4.85 7.5
      vertex -4.85 4.85 0
      vertex 4.58953 4.85 7.52279
    endloop
  endfacet
  facet normal 0 1 0
    outer loop
      vertex 4.58953 4.85 7.52279
      vertex -4.85 4.85 0
      vertex 4.33697 4.85 7.59046
    endloop
  endfacet
  facet normal 0 1 0
    outer loop
      vertex 4.33697 4.85 7.59046
      vertex -4.85 4.85 0
      vertex 4.1 4.85 7.70096
    endloop
  endfacet
  facet normal 0 1 0
    outer loop
      vertex 3.35 4.85 9
      vertex -4.85 4.85 0
      vertex -4.85 4.85 18
    endloop
  endfacet
  facet normal 0 1 0
    outer loop
      vertex 3.88582 4.85 7.85093
      vertex -4.85 4.85 0
      vertex 3.70093 4.85 8.03582
    endloop
  endfacet
  facet normal 0 1 0
    outer loop
      vertex 4.1 4.85 7.70096
      vertex -4.85 4.85 0
      vertex 3.88582 4.85 7.85093
    endloop
  endfacet
  facet normal 0.0871529 -0.996195 0
    outer loop
      vertex 0 -4.85 0
      vertex 0.842194 -4.77632 18
      vertex 0 -4.85 18
    endloop
  endfacet
  facet normal 0.0871529 -0.996195 0
    outer loop
      vertex 0.842194 -4.77632 18
      vertex 0 -4.85 0
      vertex 0.842194 -4.77632 0
    endloop
  endfacet
  facet normal 0.491339 -0.870968 -1.89505e-06
    outer loop
      vertex 4.41588 -3.07712 6.53798
      vertex 2.425 -4.20022 0
      vertex 4.85 -2.83222 6.5
    endloop
  endfacet
  facet normal 0.49134 -0.870968 -2.30627e-06
    outer loop
      vertex 3.99495 -3.31458 6.65077
      vertex 2.425 -4.20022 0
      vertex 4.41588 -3.07712 6.53798
    endloop
  endfacet
  facet normal 0.491334 -0.870971 -4.00857e-07
    outer loop
      vertex 3.6 -3.53738 6.83494
      vertex 2.425 -4.20022 0
      vertex 3.99495 -3.31458 6.65077
    endloop
  endfacet
  facet normal 0.491326 -0.870976 1.35249e-06
    outer loop
      vertex 3.24303 -3.73875 7.08489
      vertex 2.425 -4.20022 0
      vertex 3.6 -3.53738 6.83494
    endloop
  endfacet
  facet normal 0.491337 -0.87097 -2.82228e-07
    outer loop
      vertex 2.93489 -3.91258 7.39303
      vertex 2.425 -4.20022 0
      vertex 3.24303 -3.73875 7.08489
    endloop
  endfacet
  facet normal 0.491353 -0.870961 -1.70377e-06
    outer loop
      vertex 2.68494 -4.05359 7.75
      vertex 2.425 -4.20022 0
      vertex 2.93489 -3.91258 7.39303
    endloop
  endfacet
  facet normal 0.491318 -0.87098 -1.81883e-07
    outer loop
      vertex 2.50077 -4.15748 8.14495
      vertex 2.425 -4.20022 0
      vertex 2.68494 -4.05359 7.75
    endloop
  endfacet
  facet normal 0.491303 -0.870989 0
    outer loop
      vertex 2.425 -4.20022 0
      vertex 2.50077 -4.15748 8.14495
      vertex 2.425 -4.20022 8.42773
    endloop
  endfacet
  facet normal 0.491324 -0.870977 -5.71477e-06
    outer loop
      vertex 5.28412 -2.58733 11.462
      vertex 2.425 -4.20022 18
      vertex 4.85 -2.83222 11.5
    endloop
  endfacet
  facet normal 0.491339 -0.870968 1.89501e-06
    outer loop
      vertex 2.425 -4.20022 18
      vertex 4.41588 -3.07712 11.462
      vertex 4.85 -2.83222 11.5
    endloop
  endfacet
  facet normal 0.49134 -0.870968 2.30624e-06
    outer loop
      vertex 2.425 -4.20022 18
      vertex 3.99495 -3.31458 11.3492
      vertex 4.41588 -3.07712 11.462
    endloop
  endfacet
  facet normal 0.491334 -0.870971 4.00871e-07
    outer loop
      vertex 2.425 -4.20022 18
      vertex 3.6 -3.53738 11.1651
      vertex 3.99495 -3.31458 11.3492
    endloop
  endfacet
  facet normal 0.491326 -0.870976 -1.35247e-06
    outer loop
      vertex 2.425 -4.20022 18
      vertex 3.24303 -3.73875 10.9151
      vertex 3.6 -3.53738 11.1651
    endloop
  endfacet
  facet normal 0.491337 -0.87097 2.82231e-07
    outer loop
      vertex 2.425 -4.20022 18
      vertex 2.93489 -3.91258 10.607
      vertex 3.24303 -3.73875 10.9151
    endloop
  endfacet
  facet normal 0.491353 -0.870961 1.70377e-06
    outer loop
      vertex 2.425 -4.20022 18
      vertex 2.68494 -4.05359 10.25
      vertex 2.93489 -3.91258 10.607
    endloop
  endfacet
  facet normal 0.491318 -0.87098 1.81883e-07
    outer loop
      vertex 2.425 -4.20022 18
      vertex 2.50077 -4.15748 9.85505
      vertex 2.68494 -4.05359 10.25
    endloop
  endfacet
  facet normal 0.491303 -0.870989 0
    outer loop
      vertex 2.50077 -4.15748 9.85505
      vertex 2.425 -4.20022 18
      vertex 2.425 -4.20022 9.57227
    endloop
  endfacet
  facet normal 0.491341 -0.870967 4.60572e-06
    outer loop
      vertex 5.70505 -2.34987 11.3492
      vertex 2.425 -4.20022 18
      vertex 5.28412 -2.58733 11.462
    endloop
  endfacet
  facet normal 0.491335 -0.870971 2.48617e-07
    outer loop
      vertex 2.425 -4.20022 18
      vertex 5.70505 -2.34987 11.3492
      vertex 13.15 1.85 18
    endloop
  endfacet
  facet normal 0.491334 -0.870971 8.27209e-07
    outer loop
      vertex 6.1 -2.12707 11.1651
      vertex 13.15 1.85 18
      vertex 5.70505 -2.34987 11.3492
    endloop
  endfacet
  facet normal 0.491329 -0.870974 7.49818e-06
    outer loop
      vertex 6.45697 -1.9257 10.9151
      vertex 13.15 1.85 18
      vertex 6.1 -2.12707 11.1651
    endloop
  endfacet
  facet normal 0.491336 -0.87097 -1.06826e-06
    outer loop
      vertex 6.76511 -1.75187 10.607
      vertex 13.15 1.85 18
      vertex 6.45697 -1.9257 10.9151
    endloop
  endfacet
  facet normal 0.491344 -0.870966 -9.69294e-06
    outer loop
      vertex 7.01506 -1.61086 10.25
      vertex 13.15 1.85 18
      vertex 6.76511 -1.75187 10.607
    endloop
  endfacet
  facet normal 0.491329 -0.870974 6.25911e-06
    outer loop
      vertex 7.19923 -1.50697 9.85505
      vertex 13.15 1.85 18
      vertex 7.01506 -1.61086 10.25
    endloop
  endfacet
  facet normal 0.491339 -0.870968 -3.77764e-06
    outer loop
      vertex 7.31202 -1.44334 9.43412
      vertex 13.15 1.85 18
      vertex 7.19923 -1.50697 9.85505
    endloop
  endfacet
  facet normal 0.491324 -0.870977 9.60046e-06
    outer loop
      vertex 7.35 -1.42192 9
      vertex 13.15 1.85 18
      vertex 7.31202 -1.44334 9.43412
    endloop
  endfacet
  facet normal 0.491324 -0.870977 -9.60046e-06
    outer loop
      vertex 13.15 1.85 0
      vertex 7.35 -1.42192 9
      vertex 7.31202 -1.44334 8.56588
    endloop
  endfacet
  facet normal 0.491339 -0.870968 3.77764e-06
    outer loop
      vertex 13.15 1.85 0
      vertex 7.31202 -1.44334 8.56588
      vertex 7.19923 -1.50697 8.14495
    endloop
  endfacet
  facet normal 0.491329 -0.870974 -6.25911e-06
    outer loop
      vertex 13.15 1.85 0
      vertex 7.19923 -1.50697 8.14495
      vertex 7.01506 -1.61086 7.75
    endloop
  endfacet
  facet normal 0.491324 -0.870977 5.71467e-06
    outer loop
      vertex 2.425 -4.20022 0
      vertex 5.28412 -2.58733 6.53798
      vertex 4.85 -2.83222 6.5
    endloop
  endfacet
  facet normal 0.491341 -0.870967 -4.60568e-06
    outer loop
      vertex 2.425 -4.20022 0
      vertex 5.70505 -2.34987 6.65077
      vertex 5.28412 -2.58733 6.53798
    endloop
  endfacet
  facet normal 0.491335 -0.870971 -2.48619e-07
    outer loop
      vertex 13.15 1.85 0
      vertex 5.70505 -2.34987 6.65077
      vertex 2.425 -4.20022 0
    endloop
  endfacet
  facet normal 0.491334 -0.870971 -8.27103e-07
    outer loop
      vertex 5.70505 -2.34987 6.65077
      vertex 13.15 1.85 0
      vertex 6.1 -2.12707 6.83494
    endloop
  endfacet
  facet normal 0.491329 -0.870974 -7.49878e-06
    outer loop
      vertex 6.1 -2.12707 6.83494
      vertex 13.15 1.85 0
      vertex 6.45697 -1.9257 7.08489
    endloop
  endfacet
  facet normal 0.491336 -0.87097 1.0682e-06
    outer loop
      vertex 6.45697 -1.9257 7.08489
      vertex 13.15 1.85 0
      vertex 6.76511 -1.75187 7.39303
    endloop
  endfacet
  facet normal 0.491344 -0.870966 9.69337e-06
    outer loop
      vertex 6.76511 -1.75187 7.39303
      vertex 13.15 1.85 0
      vertex 7.01506 -1.61086 7.75
    endloop
  endfacet
  facet normal 0.491335 -0.87097 0
    outer loop
      vertex 7.35 -1.42192 9
      vertex 13.15 1.85 0
      vertex 13.15 1.85 18
    endloop
  endfacet
  facet normal -0.707107 -0.707107 0
    outer loop
      vertex -3.11752 -3.71531 0
      vertex -3.71531 -3.11752 18
      vertex -3.71531 -3.11752 0
    endloop
  endfacet
  facet normal -0.707107 -0.707107 0
    outer loop
      vertex -3.71531 -3.11752 18
      vertex -3.11752 -3.71531 0
      vertex -3.11752 -3.71531 18
    endloop
  endfacet
  facet normal -0.906305 -0.422623 0
    outer loop
      vertex -4.20022 -2.425 0
      vertex -4.55751 -1.6588 18
      vertex -4.55751 -1.6588 0
    endloop
  endfacet
  facet normal -0.906305 -0.422623 0
    outer loop
      vertex -4.55751 -1.6588 18
      vertex -4.20022 -2.425 0
      vertex -4.20022 -2.425 18
    endloop
  endfacet
  facet normal -0.422623 -0.906305 0
    outer loop
      vertex -2.425 -4.20022 0
      vertex -1.6588 -4.55751 18
      vertex -2.425 -4.20022 18
    endloop
  endfacet
  facet normal -0.422623 -0.906305 -0
    outer loop
      vertex -1.6588 -4.55751 18
      vertex -2.425 -4.20022 0
      vertex -1.6588 -4.55751 0
    endloop
  endfacet
  facet normal 1 -0 0
    outer loop
      vertex 13.15 1.85 18
      vertex 13.15 4.85 0
      vertex 13.15 4.85 18
    endloop
  endfacet
  facet normal 1 0 0
    outer loop
      vertex 13.15 4.85 0
      vertex 13.15 1.85 18
      vertex 13.15 1.85 0
    endloop
  endfacet
  facet normal -0.573578 -0.819151 0
    outer loop
      vertex -3.11752 -3.71531 0
      vertex -2.425 -4.20022 18
      vertex -3.11752 -3.71531 18
    endloop
  endfacet
  facet normal -0.573578 -0.819151 -0
    outer loop
      vertex -2.425 -4.20022 18
      vertex -3.11752 -3.71531 0
      vertex -2.425 -4.20022 0
    endloop
  endfacet
  facet normal -0.819151 -0.573578 0
    outer loop
      vertex -3.71531 -3.11752 0
      vertex -4.20022 -2.425 18
      vertex -4.20022 -2.425 0
    endloop
  endfacet
  facet normal -0.819151 -0.573578 0
    outer loop
      vertex -4.20022 -2.425 18
      vertex -3.71531 -3.11752 0
      vertex -3.71531 -3.11752 18
    endloop
  endfacet
  facet normal -0.996195 -0.0871529 0
    outer loop
      vertex -4.77632 -0.842194 0
      vertex -4.85 0 18
      vertex -4.85 0 0
    endloop
  endfacet
  facet normal -0.996195 -0.0871529 0
    outer loop
      vertex -4.85 0 18
      vertex -4.77632 -0.842194 0
      vertex -4.77632 -0.842194 18
    endloop
  endfacet
  facet normal -0.0871529 -0.996195 0
    outer loop
      vertex -0.842194 -4.77632 0
      vertex 0 -4.85 18
      vertex -0.842194 -4.77632 18
    endloop
  endfacet
  facet normal -0.0871529 -0.996195 -0
    outer loop
      vertex 0 -4.85 18
      vertex -0.842194 -4.77632 0
      vertex 0 -4.85 0
    endloop
  endfacet
  facet normal 0.25882 -0.965926 0
    outer loop
      vertex 0.842194 -4.77632 0
      vertex 1.6588 -4.55751 18
      vertex 0.842194 -4.77632 18
    endloop
  endfacet
  facet normal 0.25882 -0.965926 0
    outer loop
      vertex 1.6588 -4.55751 18
      vertex 0.842194 -4.77632 0
      vertex 1.6588 -4.55751 0
    endloop
  endfacet
  facet normal 0.422623 -0.906305 0
    outer loop
      vertex 1.6588 -4.55751 18
      vertex 2.425 -4.20022 9.57227
      vertex 2.425 -4.20022 18
    endloop
  endfacet
  facet normal 0.422579 -0.906326 -4.91029e-06
    outer loop
      vertex 1.6588 -4.55751 18
      vertex 2.38798 -4.21748 9.43412
      vertex 2.425 -4.20022 9.57227
    endloop
  endfacet
  facet normal 0.422718 -0.906261 9.50222e-06
    outer loop
      vertex 1.6588 -4.55751 18
      vertex 2.35 -4.2352 9
      vertex 2.38798 -4.21748 9.43412
    endloop
  endfacet
  facet normal 0.422616 -0.906309 0
    outer loop
      vertex 1.6588 -4.55751 0
      vertex 2.35 -4.2352 9
      vertex 1.6588 -4.55751 18
    endloop
  endfacet
  facet normal 0.422718 -0.906261 -9.50222e-06
    outer loop
      vertex 1.6588 -4.55751 0
      vertex 2.38798 -4.21748 8.56588
      vertex 2.35 -4.2352 9
    endloop
  endfacet
  facet normal 0.422579 -0.906326 4.91029e-06
    outer loop
      vertex 1.6588 -4.55751 0
      vertex 2.425 -4.20022 8.42773
      vertex 2.38798 -4.21748 8.56588
    endloop
  endfacet
  facet normal 0.422623 -0.906305 0
    outer loop
      vertex 2.425 -4.20022 8.42773
      vertex 1.6588 -4.55751 0
      vertex 2.425 -4.20022 0
    endloop
  endfacet
  facet normal 0 0 1
    outer loop
      vertex 1.73843 0.632737 18
      vertex 13.15 1.85 18
      vertex 13.15 4.85 18
    endloop
  endfacet
  facet normal 0 0 1
    outer loop
      vertex 13.15 1.85 18
      vertex 1.85 0 18
      vertex 1.82189 -0.321249 18
    endloop
  endfacet
  facet normal 0 0 1
    outer loop
      vertex 13.15 1.85 18
      vertex 1.82189 0.321249 18
      vertex 1.85 0 18
    endloop
  endfacet
  facet normal 0 0 1
    outer loop
      vertex 13.15 1.85 18
      vertex 1.73843 0.632737 18
      vertex 1.82189 0.321249 18
    endloop
  endfacet
  facet normal 0 0 1
    outer loop
      vertex 13.15 4.85 18
      vertex 1.60215 0.924999 18
      vertex 1.73843 0.632737 18
    endloop
  endfacet
  facet normal 0 0 1
    outer loop
      vertex 13.15 4.85 18
      vertex 1.41718 1.18916 18
      vertex 1.60215 0.924999 18
    endloop
  endfacet
  facet normal 0 0 1
    outer loop
      vertex 13.15 4.85 18
      vertex 1.18916 1.41718 18
      vertex 1.41718 1.18916 18
    endloop
  endfacet
  facet normal 0 0 1
    outer loop
      vertex 13.15 4.85 18
      vertex 0.924999 1.60215 18
      vertex 1.18916 1.41718 18
    endloop
  endfacet
  facet normal 0 0 1
    outer loop
      vertex 13.15 4.85 18
      vertex 0.632737 1.73843 18
      vertex 0.924999 1.60215 18
    endloop
  endfacet
  facet normal -0 0 1
    outer loop
      vertex -4.85 4.85 18
      vertex 0.632737 1.73843 18
      vertex 13.15 4.85 18
    endloop
  endfacet
  facet normal 0 0 1
    outer loop
      vertex 0.632737 1.73843 18
      vertex -4.85 4.85 18
      vertex 0.321249 1.82189 18
    endloop
  endfacet
  facet normal 0 0 1
    outer loop
      vertex 0.321249 1.82189 18
      vertex -4.85 4.85 18
      vertex 0 1.85 18
    endloop
  endfacet
  facet normal 0 0 1
    outer loop
      vertex -4.85 0 18
      vertex -1.85 0 18
      vertex -1.82189 0.321249 18
    endloop
  endfacet
  facet normal 0 0 1
    outer loop
      vertex -1.85 0 18
      vertex -3.11752 -3.71531 18
      vertex -2.425 -4.20022 18
    endloop
  endfacet
  facet normal 0 0 1
    outer loop
      vertex -4.85 0 18
      vertex -1.82189 0.321249 18
      vertex -1.73843 0.632737 18
    endloop
  endfacet
  facet normal 0 0 1
    outer loop
      vertex -1.85 0 18
      vertex -3.71531 -3.11752 18
      vertex -3.11752 -3.71531 18
    endloop
  endfacet
  facet normal 0 0 1
    outer loop
      vertex -4.85 0 18
      vertex -1.73843 0.632737 18
      vertex -1.60215 0.924999 18
    endloop
  endfacet
  facet normal 0 0 1
    outer loop
      vertex -1.85 0 18
      vertex -4.20022 -2.425 18
      vertex -3.71531 -3.11752 18
    endloop
  endfacet
  facet normal 0 0 1
    outer loop
      vertex -4.85 4.85 18
      vertex -1.60215 0.924999 18
      vertex -1.41718 1.18916 18
    endloop
  endfacet
  facet normal 0 0 1
    outer loop
      vertex -1.85 0 18
      vertex -4.55751 -1.6588 18
      vertex -4.20022 -2.425 18
    endloop
  endfacet
  facet normal 0 0 1
    outer loop
      vertex -4.85 4.85 18
      vertex -1.41718 1.18916 18
      vertex -1.18916 1.41718 18
    endloop
  endfacet
  facet normal 0 0 1
    outer loop
      vertex -1.85 0 18
      vertex -4.77632 -0.842194 18
      vertex -4.55751 -1.6588 18
    endloop
  endfacet
  facet normal 0 0 1
    outer loop
      vertex -4.85 4.85 18
      vertex -1.18916 1.41718 18
      vertex -0.924999 1.60215 18
    endloop
  endfacet
  facet normal 0 0 1
    outer loop
      vertex 0 1.85 18
      vertex -4.85 4.85 18
      vertex -0.321249 1.82189 18
    endloop
  endfacet
  facet normal 0 0 1
    outer loop
      vertex -4.85 4.85 18
      vertex -0.632737 1.73843 18
      vertex -0.321249 1.82189 18
    endloop
  endfacet
  facet normal 0 0 1
    outer loop
      vertex -4.85 4.85 18
      vertex -0.924999 1.60215 18
      vertex -0.632737 1.73843 18
    endloop
  endfacet
  facet normal 0 0 1
    outer loop
      vertex -1.60215 0.924999 18
      vertex -4.85 4.85 18
      vertex -4.85 0 18
    endloop
  endfacet
  facet normal 0 0 1
    outer loop
      vertex -1.85 0 18
      vertex -4.85 0 18
      vertex -4.77632 -0.842194 18
    endloop
  endfacet
  facet normal 0 0 1
    outer loop
      vertex 13.15 1.85 18
      vertex 1.82189 -0.321249 18
      vertex 2.425 -4.20022 18
    endloop
  endfacet
  facet normal -0 0 1
    outer loop
      vertex 1.73843 -0.632737 18
      vertex 2.425 -4.20022 18
      vertex 1.82189 -0.321249 18
    endloop
  endfacet
  facet normal -0 0 1
    outer loop
      vertex 1.60215 -0.924999 18
      vertex 2.425 -4.20022 18
      vertex 1.73843 -0.632737 18
    endloop
  endfacet
  facet normal -0 0 1
    outer loop
      vertex 1.41718 -1.18916 18
      vertex 2.425 -4.20022 18
      vertex 1.60215 -0.924999 18
    endloop
  endfacet
  facet normal -0 0 1
    outer loop
      vertex 1.18916 -1.41718 18
      vertex 2.425 -4.20022 18
      vertex 1.41718 -1.18916 18
    endloop
  endfacet
  facet normal -0 0 1
    outer loop
      vertex 0.924999 -1.60215 18
      vertex 2.425 -4.20022 18
      vertex 1.18916 -1.41718 18
    endloop
  endfacet
  facet normal 0 0 1
    outer loop
      vertex 2.425 -4.20022 18
      vertex 0.924999 -1.60215 18
      vertex 1.6588 -4.55751 18
    endloop
  endfacet
  facet normal -0 0 1
    outer loop
      vertex 0.632737 -1.73843 18
      vertex 1.6588 -4.55751 18
      vertex 0.924999 -1.60215 18
    endloop
  endfacet
  facet normal 0 0 1
    outer loop
      vertex 1.6588 -4.55751 18
      vertex 0.632737 -1.73843 18
      vertex 0.842194 -4.77632 18
    endloop
  endfacet
  facet normal -0 0 1
    outer loop
      vertex 0.321249 -1.82189 18
      vertex 0.842194 -4.77632 18
      vertex 0.632737 -1.73843 18
    endloop
  endfacet
  facet normal -0 0 1
    outer loop
      vertex 0 -1.85 18
      vertex 0.842194 -4.77632 18
      vertex 0.321249 -1.82189 18
    endloop
  endfacet
  facet normal 0 0 1
    outer loop
      vertex 0 -1.85 18
      vertex 0 -4.85 18
      vertex 0.842194 -4.77632 18
    endloop
  endfacet
  facet normal 0 0 1
    outer loop
      vertex -0.321249 -1.82189 18
      vertex 0 -4.85 18
      vertex 0 -1.85 18
    endloop
  endfacet
  facet normal 0 0 1
    outer loop
      vertex -0.842194 -4.77632 18
      vertex -0.321249 -1.82189 18
      vertex -0.632737 -1.73843 18
    endloop
  endfacet
  facet normal 0 0 1
    outer loop
      vertex -0.321249 -1.82189 18
      vertex -0.842194 -4.77632 18
      vertex 0 -4.85 18
    endloop
  endfacet
  facet normal 0 0 1
    outer loop
      vertex -1.6588 -4.55751 18
      vertex -0.632737 -1.73843 18
      vertex -0.924999 -1.60215 18
    endloop
  endfacet
  facet normal 0 0 1
    outer loop
      vertex -2.425 -4.20022 18
      vertex -0.924999 -1.60215 18
      vertex -1.18916 -1.41718 18
    endloop
  endfacet
  facet normal 0 0 1
    outer loop
      vertex -2.425 -4.20022 18
      vertex -1.18916 -1.41718 18
      vertex -1.41718 -1.18916 18
    endloop
  endfacet
  facet normal 0 0 1
    outer loop
      vertex -2.425 -4.20022 18
      vertex -1.41718 -1.18916 18
      vertex -1.60215 -0.924999 18
    endloop
  endfacet
  facet normal 0 0 1
    outer loop
      vertex -0.632737 -1.73843 18
      vertex -1.6588 -4.55751 18
      vertex -0.842194 -4.77632 18
    endloop
  endfacet
  facet normal 0 0 1
    outer loop
      vertex -2.425 -4.20022 18
      vertex -1.60215 -0.924999 18
      vertex -1.73843 -0.632737 18
    endloop
  endfacet
  facet normal 0 0 1
    outer loop
      vertex -2.425 -4.20022 18
      vertex -1.73843 -0.632737 18
      vertex -1.82189 -0.321249 18
    endloop
  endfacet
  facet normal 0 0 1
    outer loop
      vertex -2.425 -4.20022 18
      vertex -1.82189 -0.321249 18
      vertex -1.85 0 18
    endloop
  endfacet
  facet normal 0 0 1
    outer loop
      vertex -0.924999 -1.60215 18
      vertex -2.425 -4.20022 18
      vertex -1.6588 -4.55751 18
    endloop
  endfacet
  facet normal -0.965926 -0.25882 0
    outer loop
      vertex -4.55751 -1.6588 0
      vertex -4.77632 -0.842194 18
      vertex -4.77632 -0.842194 0
    endloop
  endfacet
  facet normal -0.965926 -0.25882 0
    outer loop
      vertex -4.77632 -0.842194 18
      vertex -4.55751 -1.6588 0
      vertex -4.55751 -1.6588 18
    endloop
  endfacet
  facet normal 0 0 -1
    outer loop
      vertex 13.15 1.85 0
      vertex 1.82189 -0.321249 0
      vertex 1.85 0 0
    endloop
  endfacet
  facet normal 0 0 -1
    outer loop
      vertex 2.425 -4.20022 0
      vertex 1.73843 -0.632737 0
      vertex 1.82189 -0.321249 0
    endloop
  endfacet
  facet normal 0 0 -1
    outer loop
      vertex 0.924999 -1.60215 0
      vertex 2.425 -4.20022 0
      vertex 1.6588 -4.55751 0
    endloop
  endfacet
  facet normal 0 0 -1
    outer loop
      vertex 2.425 -4.20022 0
      vertex 1.60215 -0.924999 0
      vertex 1.73843 -0.632737 0
    endloop
  endfacet
  facet normal 0 0 -1
    outer loop
      vertex 2.425 -4.20022 0
      vertex 1.41718 -1.18916 0
      vertex 1.60215 -0.924999 0
    endloop
  endfacet
  facet normal 0 0 -1
    outer loop
      vertex 2.425 -4.20022 0
      vertex 1.18916 -1.41718 0
      vertex 1.41718 -1.18916 0
    endloop
  endfacet
  facet normal 0 0 -1
    outer loop
      vertex 2.425 -4.20022 0
      vertex 0.924999 -1.60215 0
      vertex 1.18916 -1.41718 0
    endloop
  endfacet
  facet normal 0 0 -1
    outer loop
      vertex 0.632737 -1.73843 0
      vertex 1.6588 -4.55751 0
      vertex 0.842194 -4.77632 0
    endloop
  endfacet
  facet normal 0 0 -1
    outer loop
      vertex 1.6588 -4.55751 0
      vertex 0.632737 -1.73843 0
      vertex 0.924999 -1.60215 0
    endloop
  endfacet
  facet normal 0 0 -1
    outer loop
      vertex 0.842194 -4.77632 0
      vertex 0.321249 -1.82189 0
      vertex 0.632737 -1.73843 0
    endloop
  endfacet
  facet normal 0 0 -1
    outer loop
      vertex 0 -4.85 0
      vertex 0.321249 -1.82189 0
      vertex 0.842194 -4.77632 0
    endloop
  endfacet
  facet normal 0 0 -1
    outer loop
      vertex 0 -4.85 0
      vertex 0 -1.85 0
      vertex 0.321249 -1.82189 0
    endloop
  endfacet
  facet normal 0 0 -1
    outer loop
      vertex 0 -4.85 0
      vertex -0.321249 -1.82189 0
      vertex 0 -1.85 0
    endloop
  endfacet
  facet normal 0 0 -1
    outer loop
      vertex -0.842194 -4.77632 0
      vertex -0.321249 -1.82189 0
      vertex 0 -4.85 0
    endloop
  endfacet
  facet normal -0 0 -1
    outer loop
      vertex -0.321249 -1.82189 0
      vertex -0.842194 -4.77632 0
      vertex -0.632737 -1.73843 0
    endloop
  endfacet
  facet normal 0 0 -1
    outer loop
      vertex -1.6588 -4.55751 0
      vertex -0.632737 -1.73843 0
      vertex -0.842194 -4.77632 0
    endloop
  endfacet
  facet normal -0 0 -1
    outer loop
      vertex -0.632737 -1.73843 0
      vertex -1.6588 -4.55751 0
      vertex -0.924999 -1.60215 0
    endloop
  endfacet
  facet normal 0 0 -1
    outer loop
      vertex -2.425 -4.20022 0
      vertex -0.924999 -1.60215 0
      vertex -1.6588 -4.55751 0
    endloop
  endfacet
  facet normal -0 0 -1
    outer loop
      vertex -0.924999 -1.60215 0
      vertex -2.425 -4.20022 0
      vertex -1.18916 -1.41718 0
    endloop
  endfacet
  facet normal 0 0 -1
    outer loop
      vertex -3.11752 -3.71531 0
      vertex -1.18916 -1.41718 0
      vertex -2.425 -4.20022 0
    endloop
  endfacet
  facet normal -0 0 -1
    outer loop
      vertex -1.18916 -1.41718 0
      vertex -3.11752 -3.71531 0
      vertex -1.41718 -1.18916 0
    endloop
  endfacet
  facet normal 0 0 -1
    outer loop
      vertex -3.71531 -3.11752 0
      vertex -1.41718 -1.18916 0
      vertex -3.11752 -3.71531 0
    endloop
  endfacet
  facet normal -0 0 -1
    outer loop
      vertex -1.41718 -1.18916 0
      vertex -3.71531 -3.11752 0
      vertex -1.60215 -0.924999 0
    endloop
  endfacet
  facet normal 0 0 -1
    outer loop
      vertex -4.20022 -2.425 0
      vertex -1.60215 -0.924999 0
      vertex -3.71531 -3.11752 0
    endloop
  endfacet
  facet normal 0 0 -1
    outer loop
      vertex 1.82189 -0.321249 0
      vertex 13.15 1.85 0
      vertex 2.425 -4.20022 0
    endloop
  endfacet
  facet normal 0 0 -1
    outer loop
      vertex 1.82189 0.321249 0
      vertex 13.15 1.85 0
      vertex 1.85 0 0
    endloop
  endfacet
  facet normal 0 0 -1
    outer loop
      vertex 1.73843 0.632737 0
      vertex 13.15 1.85 0
      vertex 1.82189 0.321249 0
    endloop
  endfacet
  facet normal -0 0 -1
    outer loop
      vertex 13.15 1.85 0
      vertex 1.73843 0.632737 0
      vertex 13.15 4.85 0
    endloop
  endfacet
  facet normal 0 0 -1
    outer loop
      vertex 1.60215 0.924999 0
      vertex 13.15 4.85 0
      vertex 1.73843 0.632737 0
    endloop
  endfacet
  facet normal 0 0 -1
    outer loop
      vertex 1.41718 1.18916 0
      vertex 13.15 4.85 0
      vertex 1.60215 0.924999 0
    endloop
  endfacet
  facet normal 0 0 -1
    outer loop
      vertex 1.18916 1.41718 0
      vertex 13.15 4.85 0
      vertex 1.41718 1.18916 0
    endloop
  endfacet
  facet normal 0 0 -1
    outer loop
      vertex 0.924999 1.60215 0
      vertex 13.15 4.85 0
      vertex 1.18916 1.41718 0
    endloop
  endfacet
  facet normal 0 0 -1
    outer loop
      vertex 0.632737 1.73843 0
      vertex 13.15 4.85 0
      vertex 0.924999 1.60215 0
    endloop
  endfacet
  facet normal 0 0 -1
    outer loop
      vertex -4.85 4.85 0
      vertex 0.632737 1.73843 0
      vertex 0.321249 1.82189 0
    endloop
  endfacet
  facet normal 0 0 -1
    outer loop
      vertex -4.85 4.85 0
      vertex 0.321249 1.82189 0
      vertex 0 1.85 0
    endloop
  endfacet
  facet normal 0 0 -1
    outer loop
      vertex -4.85 4.85 0
      vertex 0 1.85 0
      vertex -0.321249 1.82189 0
    endloop
  endfacet
  facet normal -0 0 -1
    outer loop
      vertex -1.60215 -0.924999 0
      vertex -4.20022 -2.425 0
      vertex -1.73843 -0.632737 0
    endloop
  endfacet
  facet normal 0 0 -1
    outer loop
      vertex -4.55751 -1.6588 0
      vertex -1.73843 -0.632737 0
      vertex -4.20022 -2.425 0
    endloop
  endfacet
  facet normal -0 0 -1
    outer loop
      vertex -1.73843 -0.632737 0
      vertex -4.55751 -1.6588 0
      vertex -1.82189 -0.321249 0
    endloop
  endfacet
  facet normal 0 0 -1
    outer loop
      vertex -4.77632 -0.842194 0
      vertex -1.82189 -0.321249 0
      vertex -4.55751 -1.6588 0
    endloop
  endfacet
  facet normal -0 0 -1
    outer loop
      vertex -1.82189 -0.321249 0
      vertex -4.77632 -0.842194 0
      vertex -1.85 0 0
    endloop
  endfacet
  facet normal 0 0 -1
    outer loop
      vertex -4.85 0 0
      vertex -1.85 0 0
      vertex -4.77632 -0.842194 0
    endloop
  endfacet
  facet normal 0 0 -1
    outer loop
      vertex -1.85 0 0
      vertex -4.85 0 0
      vertex -1.82189 0.321249 0
    endloop
  endfacet
  facet normal -0 0 -1
    outer loop
      vertex -1.82189 0.321249 0
      vertex -4.85 0 0
      vertex -1.73843 0.632737 0
    endloop
  endfacet
  facet normal -0 0 -1
    outer loop
      vertex -1.73843 0.632737 0
      vertex -4.85 0 0
      vertex -1.60215 0.924999 0
    endloop
  endfacet
  facet normal 0 0 -1
    outer loop
      vertex -4.85 4.85 0
      vertex -1.60215 0.924999 0
      vertex -4.85 0 0
    endloop
  endfacet
  facet normal 0 0 -1
    outer loop
      vertex -1.60215 0.924999 0
      vertex -4.85 4.85 0
      vertex -1.41718 1.18916 0
    endloop
  endfacet
  facet normal 0 0 -1
    outer loop
      vertex -1.41718 1.18916 0
      vertex -4.85 4.85 0
      vertex -1.18916 1.41718 0
    endloop
  endfacet
  facet normal 0 0 -1
    outer loop
      vertex -1.18916 1.41718 0
      vertex -4.85 4.85 0
      vertex -0.924999 1.60215 0
    endloop
  endfacet
  facet normal 0 0 -1
    outer loop
      vertex 0.632737 1.73843 0
      vertex -4.85 4.85 0
      vertex 13.15 4.85 0
    endloop
  endfacet
  facet normal 0 0 -1
    outer loop
      vertex -0.632737 1.73843 0
      vertex -4.85 4.85 0
      vertex -0.321249 1.82189 0
    endloop
  endfacet
  facet normal 0 0 -1
    outer loop
      vertex -0.924999 1.60215 0
      vertex -4.85 4.85 0
      vertex -0.632737 1.73843 0
    endloop
  endfacet
  facet normal -0.707107 0.707107 0
    outer loop
      vertex 1.18916 -1.41718 0
      vertex 1.41718 -1.18916 18
      vertex 1.41718 -1.18916 0
    endloop
  endfacet
  facet normal -0.707107 0.707107 0
    outer loop
      vertex 1.41718 -1.18916 18
      vertex 1.18916 -1.41718 0
      vertex 1.18916 -1.41718 18
    endloop
  endfacet
  facet normal 0.422608 0.906313 -0
    outer loop
      vertex -0.632737 -1.73843 0
      vertex -0.924999 -1.60215 18
      vertex -0.632737 -1.73843 18
    endloop
  endfacet
  facet normal 0.422608 0.906313 0
    outer loop
      vertex -0.924999 -1.60215 18
      vertex -0.632737 -1.73843 0
      vertex -0.924999 -1.60215 0
    endloop
  endfacet
  facet normal -0.965928 -0.25881 0
    outer loop
      vertex 1.82189 0.321249 0
      vertex 1.73843 0.632737 18
      vertex 1.73843 0.632737 0
    endloop
  endfacet
  facet normal -0.965928 -0.25881 0
    outer loop
      vertex 1.73843 0.632737 18
      vertex 1.82189 0.321249 0
      vertex 1.82189 0.321249 18
    endloop
  endfacet
  facet normal -0.25881 0.965928 0
    outer loop
      vertex 0.632737 -1.73843 0
      vertex 0.321249 -1.82189 18
      vertex 0.632737 -1.73843 18
    endloop
  endfacet
  facet normal -0.25881 0.965928 0
    outer loop
      vertex 0.321249 -1.82189 18
      vertex 0.632737 -1.73843 0
      vertex 0.321249 -1.82189 0
    endloop
  endfacet
  facet normal 0.965928 -0.25881 0
    outer loop
      vertex -1.82189 0.321249 18
      vertex -1.73843 0.632737 0
      vertex -1.73843 0.632737 18
    endloop
  endfacet
  facet normal 0.965928 -0.25881 0
    outer loop
      vertex -1.73843 0.632737 0
      vertex -1.82189 0.321249 18
      vertex -1.82189 0.321249 0
    endloop
  endfacet
  facet normal -0.707107 -0.707107 0
    outer loop
      vertex 1.41718 1.18916 0
      vertex 1.18916 1.41718 18
      vertex 1.18916 1.41718 0
    endloop
  endfacet
  facet normal -0.707107 -0.707107 0
    outer loop
      vertex 1.18916 1.41718 18
      vertex 1.41718 1.18916 0
      vertex 1.41718 1.18916 18
    endloop
  endfacet
  facet normal -0.819148 0.573582 0
    outer loop
      vertex 1.41718 -1.18916 0
      vertex 1.60215 -0.924999 18
      vertex 1.60215 -0.924999 0
    endloop
  endfacet
  facet normal -0.819148 0.573582 0
    outer loop
      vertex 1.60215 -0.924999 18
      vertex 1.41718 -1.18916 0
      vertex 1.41718 -1.18916 18
    endloop
  endfacet
  facet normal 0.573582 -0.819148 0
    outer loop
      vertex -1.18916 1.41718 0
      vertex -0.924999 1.60215 18
      vertex -1.18916 1.41718 18
    endloop
  endfacet
  facet normal 0.573582 -0.819148 0
    outer loop
      vertex -0.924999 1.60215 18
      vertex -1.18916 1.41718 0
      vertex -0.924999 1.60215 0
    endloop
  endfacet
  facet normal -0.0871691 0.996194 0
    outer loop
      vertex 0.321249 -1.82189 0
      vertex 0 -1.85 18
      vertex 0.321249 -1.82189 18
    endloop
  endfacet
  facet normal -0.0871691 0.996194 0
    outer loop
      vertex 0 -1.85 18
      vertex 0.321249 -1.82189 0
      vertex 0 -1.85 0
    endloop
  endfacet
  facet normal 0.996194 -0.0871691 0
    outer loop
      vertex -1.85 0 18
      vertex -1.82189 0.321249 0
      vertex -1.82189 0.321249 18
    endloop
  endfacet
  facet normal 0.996194 -0.0871691 0
    outer loop
      vertex -1.82189 0.321249 0
      vertex -1.85 0 18
      vertex -1.85 0 0
    endloop
  endfacet
  facet normal 0.996194 0.0871691 0
    outer loop
      vertex -1.82189 -0.321249 18
      vertex -1.85 0 0
      vertex -1.85 0 18
    endloop
  endfacet
  facet normal 0.996194 0.0871691 0
    outer loop
      vertex -1.85 0 0
      vertex -1.82189 -0.321249 18
      vertex -1.82189 -0.321249 0
    endloop
  endfacet
  facet normal -0.422608 0.906313 0
    outer loop
      vertex 0.924999 -1.60215 0
      vertex 0.632737 -1.73843 18
      vertex 0.924999 -1.60215 18
    endloop
  endfacet
  facet normal -0.422608 0.906313 0
    outer loop
      vertex 0.632737 -1.73843 18
      vertex 0.924999 -1.60215 0
      vertex 0.632737 -1.73843 0
    endloop
  endfacet
  facet normal -0.422608 -0.906313 0
    outer loop
      vertex 0.632737 1.73843 0
      vertex 0.924999 1.60215 18
      vertex 0.632737 1.73843 18
    endloop
  endfacet
  facet normal -0.422608 -0.906313 -0
    outer loop
      vertex 0.924999 1.60215 18
      vertex 0.632737 1.73843 0
      vertex 0.924999 1.60215 0
    endloop
  endfacet
  facet normal -0.996194 -0.0871691 0
    outer loop
      vertex 1.85 0 0
      vertex 1.82189 0.321249 18
      vertex 1.82189 0.321249 0
    endloop
  endfacet
  facet normal -0.996194 -0.0871691 0
    outer loop
      vertex 1.82189 0.321249 18
      vertex 1.85 0 0
      vertex 1.85 0 18
    endloop
  endfacet
  facet normal -0.25881 -0.965928 0
    outer loop
      vertex 0.321249 1.82189 0
      vertex 0.632737 1.73843 18
      vertex 0.321249 1.82189 18
    endloop
  endfacet
  facet normal -0.25881 -0.965928 -0
    outer loop
      vertex 0.632737 1.73843 18
      vertex 0.321249 1.82189 0
      vertex 0.632737 1.73843 0
    endloop
  endfacet
  facet normal 0.965928 0.25881 0
    outer loop
      vertex -1.73843 -0.632737 18
      vertex -1.82189 -0.321249 0
      vertex -1.82189 -0.321249 18
    endloop
  endfacet
  facet normal 0.965928 0.25881 0
    outer loop
      vertex -1.82189 -0.321249 0
      vertex -1.73843 -0.632737 18
      vertex -1.73843 -0.632737 0
    endloop
  endfacet
  facet normal 0.707107 0.707107 0
    outer loop
      vertex -1.18916 -1.41718 18
      vertex -1.41718 -1.18916 0
      vertex -1.41718 -1.18916 18
    endloop
  endfacet
  facet normal 0.707107 0.707107 0
    outer loop
      vertex -1.41718 -1.18916 0
      vertex -1.18916 -1.41718 18
      vertex -1.18916 -1.41718 0
    endloop
  endfacet
  facet normal 0.0871691 -0.996194 0
    outer loop
      vertex -0.321249 1.82189 0
      vertex 0 1.85 18
      vertex -0.321249 1.82189 18
    endloop
  endfacet
  facet normal 0.0871691 -0.996194 0
    outer loop
      vertex 0 1.85 18
      vertex -0.321249 1.82189 0
      vertex 0 1.85 0
    endloop
  endfacet
  facet normal -0.906313 -0.422608 0
    outer loop
      vertex 1.73843 0.632737 0
      vertex 1.60215 0.924999 18
      vertex 1.60215 0.924999 0
    endloop
  endfacet
  facet normal -0.906313 -0.422608 0
    outer loop
      vertex 1.60215 0.924999 18
      vertex 1.73843 0.632737 0
      vertex 1.73843 0.632737 18
    endloop
  endfacet
  facet normal 0.707107 -0.707107 0
    outer loop
      vertex -1.41718 1.18916 18
      vertex -1.18916 1.41718 0
      vertex -1.18916 1.41718 18
    endloop
  endfacet
  facet normal 0.707107 -0.707107 0
    outer loop
      vertex -1.18916 1.41718 0
      vertex -1.41718 1.18916 18
      vertex -1.41718 1.18916 0
    endloop
  endfacet
  facet normal -0.906313 0.422608 0
    outer loop
      vertex 1.60215 -0.924999 0
      vertex 1.73843 -0.632737 18
      vertex 1.73843 -0.632737 0
    endloop
  endfacet
  facet normal -0.906313 0.422608 0
    outer loop
      vertex 1.73843 -0.632737 18
      vertex 1.60215 -0.924999 0
      vertex 1.60215 -0.924999 18
    endloop
  endfacet
  facet normal 0.25881 0.965928 -0
    outer loop
      vertex -0.321249 -1.82189 0
      vertex -0.632737 -1.73843 18
      vertex -0.321249 -1.82189 18
    endloop
  endfacet
  facet normal 0.25881 0.965928 0
    outer loop
      vertex -0.632737 -1.73843 18
      vertex -0.321249 -1.82189 0
      vertex -0.632737 -1.73843 0
    endloop
  endfacet
  facet normal -0.819148 -0.573582 0
    outer loop
      vertex 1.60215 0.924999 0
      vertex 1.41718 1.18916 18
      vertex 1.41718 1.18916 0
    endloop
  endfacet
  facet normal -0.819148 -0.573582 0
    outer loop
      vertex 1.41718 1.18916 18
      vertex 1.60215 0.924999 0
      vertex 1.60215 0.924999 18
    endloop
  endfacet
  facet normal -0.573582 -0.819148 0
    outer loop
      vertex 0.924999 1.60215 0
      vertex 1.18916 1.41718 18
      vertex 0.924999 1.60215 18
    endloop
  endfacet
  facet normal -0.573582 -0.819148 -0
    outer loop
      vertex 1.18916 1.41718 18
      vertex 0.924999 1.60215 0
      vertex 1.18916 1.41718 0
    endloop
  endfacet
  facet normal 0.906313 -0.422608 0
    outer loop
      vertex -1.73843 0.632737 18
      vertex -1.60215 0.924999 0
      vertex -1.60215 0.924999 18
    endloop
  endfacet
  facet normal 0.906313 -0.422608 0
    outer loop
      vertex -1.60215 0.924999 0
      vertex -1.73843 0.632737 18
      vertex -1.73843 0.632737 0
    endloop
  endfacet
  facet normal 0.422608 -0.906313 0
    outer loop
      vertex -0.924999 1.60215 0
      vertex -0.632737 1.73843 18
      vertex -0.924999 1.60215 18
    endloop
  endfacet
  facet normal 0.422608 -0.906313 0
    outer loop
      vertex -0.632737 1.73843 18
      vertex -0.924999 1.60215 0
      vertex -0.632737 1.73843 0
    endloop
  endfacet
  facet normal 0.25881 -0.965928 0
    outer loop
      vertex -0.632737 1.73843 0
      vertex -0.321249 1.82189 18
      vertex -0.632737 1.73843 18
    endloop
  endfacet
  facet normal 0.25881 -0.965928 0
    outer loop
      vertex -0.321249 1.82189 18
      vertex -0.632737 1.73843 0
      vertex -0.321249 1.82189 0
    endloop
  endfacet
  facet normal 0.906313 0.422608 0
    outer loop
      vertex -1.60215 -0.924999 18
      vertex -1.73843 -0.632737 0
      vertex -1.73843 -0.632737 18
    endloop
  endfacet
  facet normal 0.906313 0.422608 0
    outer loop
      vertex -1.73843 -0.632737 0
      vertex -1.60215 -0.924999 18
      vertex -1.60215 -0.924999 0
    endloop
  endfacet
  facet normal 0.819148 0.573582 0
    outer loop
      vertex -1.41718 -1.18916 18
      vertex -1.60215 -0.924999 0
      vertex -1.60215 -0.924999 18
    endloop
  endfacet
  facet normal 0.819148 0.573582 0
    outer loop
      vertex -1.60215 -0.924999 0
      vertex -1.41718 -1.18916 18
      vertex -1.41718 -1.18916 0
    endloop
  endfacet
  facet normal -0.996194 0.0871691 0
    outer loop
      vertex 1.82189 -0.321249 0
      vertex 1.85 0 18
      vertex 1.85 0 0
    endloop
  endfacet
  facet normal -0.996194 0.0871691 0
    outer loop
      vertex 1.85 0 18
      vertex 1.82189 -0.321249 0
      vertex 1.82189 -0.321249 18
    endloop
  endfacet
  facet normal -0.573582 0.819148 0
    outer loop
      vertex 1.18916 -1.41718 0
      vertex 0.924999 -1.60215 18
      vertex 1.18916 -1.41718 18
    endloop
  endfacet
  facet normal -0.573582 0.819148 0
    outer loop
      vertex 0.924999 -1.60215 18
      vertex 1.18916 -1.41718 0
      vertex 0.924999 -1.60215 0
    endloop
  endfacet
  facet normal -0.965928 0.25881 0
    outer loop
      vertex 1.73843 -0.632737 0
      vertex 1.82189 -0.321249 18
      vertex 1.82189 -0.321249 0
    endloop
  endfacet
  facet normal -0.965928 0.25881 0
    outer loop
      vertex 1.82189 -0.321249 18
      vertex 1.73843 -0.632737 0
      vertex 1.73843 -0.632737 18
    endloop
  endfacet
  facet normal -0.0871691 -0.996194 0
    outer loop
      vertex 0 1.85 0
      vertex 0.321249 1.82189 18
      vertex 0 1.85 18
    endloop
  endfacet
  facet normal -0.0871691 -0.996194 -0
    outer loop
      vertex 0.321249 1.82189 18
      vertex 0 1.85 0
      vertex 0.321249 1.82189 0
    endloop
  endfacet
  facet normal 0.819148 -0.573582 0
    outer loop
      vertex -1.60215 0.924999 18
      vertex -1.41718 1.18916 0
      vertex -1.41718 1.18916 18
    endloop
  endfacet
  facet normal 0.819148 -0.573582 0
    outer loop
      vertex -1.41718 1.18916 0
      vertex -1.60215 0.924999 18
      vertex -1.60215 0.924999 0
    endloop
  endfacet
  facet normal 0.0871691 0.996194 -0
    outer loop
      vertex 0 -1.85 0
      vertex -0.321249 -1.82189 18
      vertex 0 -1.85 18
    endloop
  endfacet
  facet normal 0.0871691 0.996194 0
    outer loop
      vertex -0.321249 -1.82189 18
      vertex 0 -1.85 0
      vertex -0.321249 -1.82189 0
    endloop
  endfacet
  facet normal 0.573582 0.819148 -0
    outer loop
      vertex -0.924999 -1.60215 0
      vertex -1.18916 -1.41718 18
      vertex -0.924999 -1.60215 18
    endloop
  endfacet
  facet normal 0.573582 0.819148 0
    outer loop
      vertex -1.18916 -1.41718 18
      vertex -0.924999 -1.60215 0
      vertex -1.18916 -1.41718 0
    endloop
  endfacet
endsolid OpenSCAD_Model
