solid OpenSCAD_Model
  facet normal -0.965934 0 0.258788
    outer loop
      vertex 8.41908 0 9.97394
      vertex 8.55442 -1.69761 10.4791
      vertex 8.55442 0 10.4791
    endloop
  endfacet
  facet normal -0.965934 0 0.258788
    outer loop
      vertex 8.55442 -1.69761 10.4791
      vertex 8.41908 0 9.97394
      vertex 8.41908 -1.77175 9.97394
    endloop
  endfacet
  facet normal -0.965939 0 -0.258769
    outer loop
      vertex 8.55442 -1.69761 11.5209
      vertex 8.41908 0 12.0261
      vertex 8.55442 0 11.5209
    endloop
  endfacet
  facet normal -0.965939 -0 -0.258769
    outer loop
      vertex 8.41908 0 12.0261
      vertex 8.55442 -1.69761 11.5209
      vertex 8.41908 -1.77175 12.0261
    endloop
  endfacet
  facet normal -0.996194 0 -0.0871693
    outer loop
      vertex 8.6 -1.67265 11
      vertex 8.55442 0 11.5209
      vertex 8.6 0 11
    endloop
  endfacet
  facet normal -0.996194 -0 -0.0871693
    outer loop
      vertex 8.55442 0 11.5209
      vertex 8.6 -1.67265 11
      vertex 8.55442 -1.69761 11.5209
    endloop
  endfacet
  facet normal -0.906295 0 -0.422645
    outer loop
      vertex 8.41908 -1.77175 12.0261
      vertex 8.19808 0 12.5
      vertex 8.41908 0 12.0261
    endloop
  endfacet
  facet normal -0.906295 -0 -0.422645
    outer loop
      vertex 8.19808 0 12.5
      vertex 8.41908 -1.77175 12.0261
      vertex 8.19808 -1.89281 12.5
    endloop
  endfacet
  facet normal 0.965934 0 0.258788
    outer loop
      vertex 2.64558 0 10.4791
      vertex 2.78092 -4.85864 9.97394
      vertex 2.78092 0 9.97394
    endloop
  endfacet
  facet normal 0.965934 0 0.258788
    outer loop
      vertex 2.78092 -4.85864 9.97394
      vertex 2.64558 0 10.4791
      vertex 2.64558 -4.92175 10.4791
    endloop
  endfacet
  facet normal 0.819169 0 -0.573552
    outer loop
      vertex 3.30187 -4.57483 12.9284
      vertex 3.00192 0 12.5
      vertex 3.30187 0 12.9284
    endloop
  endfacet
  facet normal 0.819169 0 -0.573552
    outer loop
      vertex 3.00192 0 12.5
      vertex 3.30187 -4.57483 12.9284
      vertex 3.00192 -4.73913 12.5
    endloop
  endfacet
  facet normal 0.422615 0 -0.906309
    outer loop
      vertex 4.1 0 13.5981
      vertex 4.57394 -3.87802 13.8191
      vertex 4.1 -4.13763 13.5981
    endloop
  endfacet
  facet normal 0.422615 0 -0.906309
    outer loop
      vertex 4.57394 -3.87802 13.8191
      vertex 4.1 0 13.5981
      vertex 4.57394 0 13.8191
    endloop
  endfacet
  facet normal 0.573588 0 0.819144
    outer loop
      vertex 3.67164 0 8.70187
      vertex 4.1 -4.13763 8.40192
      vertex 4.1 0 8.40192
    endloop
  endfacet
  facet normal 0.573588 0 0.819144
    outer loop
      vertex 4.1 -4.13763 8.40192
      vertex 3.67164 0 8.70187
      vertex 3.67164 -4.37228 8.70187
    endloop
  endfacet
  facet normal 0.0871627 0 0.996194
    outer loop
      vertex 5.07906 0 8.04558
      vertex 5.6 -3.31597 8
      vertex 5.6 0 8
    endloop
  endfacet
  facet normal 0.0871627 0 0.996194
    outer loop
      vertex 5.6 -3.31597 8
      vertex 5.07906 0 8.04558
      vertex 5.07906 -3.60133 8.04558
    endloop
  endfacet
  facet normal -0.0871627 0 0.996194
    outer loop
      vertex 5.6 0 8
      vertex 6.12094 -3.03061 8.04558
      vertex 6.12094 0 8.04558
    endloop
  endfacet
  facet normal -0.0871627 0 0.996194
    outer loop
      vertex 6.12094 -3.03061 8.04558
      vertex 5.6 0 8
      vertex 5.6 -3.31597 8
    endloop
  endfacet
  facet normal -0.906309 0 0.422615
    outer loop
      vertex 8.19808 0 9.5
      vertex 8.41908 -1.77175 9.97394
      vertex 8.41908 0 9.97394
    endloop
  endfacet
  facet normal -0.906309 0 0.422615
    outer loop
      vertex 8.41908 -1.77175 9.97394
      vertex 8.19808 0 9.5
      vertex 8.19808 -1.89281 9.5
    endloop
  endfacet
  facet normal -0.70704 0 -0.707174
    outer loop
      vertex 7.89813 -2.05711 12.9284
      vertex 7.52836 0 13.2981
      vertex 7.89813 0 12.9284
    endloop
  endfacet
  facet normal -0.70704 -0 -0.707174
    outer loop
      vertex 7.52836 0 13.2981
      vertex 7.89813 -2.05711 12.9284
      vertex 7.52836 -2.25966 13.2981
    endloop
  endfacet
  facet normal -0.707107 0 0.707107
    outer loop
      vertex 7.52836 0 8.70187
      vertex 7.89813 -2.05711 9.07164
      vertex 7.89813 0 9.07164
    endloop
  endfacet
  facet normal -0.707107 0 0.707107
    outer loop
      vertex 7.89813 -2.05711 9.07164
      vertex 7.52836 0 8.70187
      vertex 7.52836 -2.25966 8.70187
    endloop
  endfacet
  facet normal 0.996194 0 -0.0871693
    outer loop
      vertex 2.64558 -4.92175 11.5209
      vertex 2.6 0 11
      vertex 2.64558 0 11.5209
    endloop
  endfacet
  facet normal 0.996194 0 -0.0871693
    outer loop
      vertex 2.6 0 11
      vertex 2.64558 -4.92175 11.5209
      vertex 2.6 -4.943 11
    endloop
  endfacet
  facet normal -0.258736 -0 -0.965948
    outer loop
      vertex 6.12094 0 13.9544
      vertex 6.62606 -2.75392 13.8191
      vertex 6.12094 -3.03061 13.9544
    endloop
  endfacet
  facet normal -0.258736 0 -0.965948
    outer loop
      vertex 6.62606 -2.75392 13.8191
      vertex 6.12094 0 13.9544
      vertex 6.62606 0 13.8191
    endloop
  endfacet
  facet normal 0.996194 0 0.0871693
    outer loop
      vertex 2.6 0 11
      vertex 2.64558 -4.92175 10.4791
      vertex 2.64558 0 10.4791
    endloop
  endfacet
  facet normal 0.996194 0 0.0871693
    outer loop
      vertex 2.64558 -4.92175 10.4791
      vertex 2.6 0 11
      vertex 2.6 -4.943 11
    endloop
  endfacet
  facet normal -0.819144 0 0.573588
    outer loop
      vertex 7.89813 0 9.07164
      vertex 8.19808 -1.89281 9.5
      vertex 8.19808 0 9.5
    endloop
  endfacet
  facet normal -0.819144 0 0.573588
    outer loop
      vertex 8.19808 -1.89281 9.5
      vertex 7.89813 0 9.07164
      vertex 7.89813 -2.05711 9.07164
    endloop
  endfacet
  facet normal 0.258807 0 0.965929
    outer loop
      vertex 4.57394 0 8.18092
      vertex 5.07906 -3.60133 8.04558
      vertex 5.07906 0 8.04558
    endloop
  endfacet
  facet normal 0.258807 0 0.965929
    outer loop
      vertex 5.07906 -3.60133 8.04558
      vertex 4.57394 0 8.18092
      vertex 4.57394 -3.87802 8.18092
    endloop
  endfacet
  facet normal -0.422615 0 0.906309
    outer loop
      vertex 6.62606 0 8.18092
      vertex 7.1 -2.49431 8.40192
      vertex 7.1 0 8.40192
    endloop
  endfacet
  facet normal -0.422615 0 0.906309
    outer loop
      vertex 7.1 -2.49431 8.40192
      vertex 6.62606 0 8.18092
      vertex 6.62606 -2.75392 8.18092
    endloop
  endfacet
  facet normal 0.573652 0 -0.819099
    outer loop
      vertex 3.67164 0 13.2981
      vertex 4.1 -4.13763 13.5981
      vertex 3.67164 -4.37228 13.2981
    endloop
  endfacet
  facet normal 0.573652 0 -0.819099
    outer loop
      vertex 4.1 -4.13763 13.5981
      vertex 3.67164 0 13.2981
      vertex 4.1 0 13.5981
    endloop
  endfacet
  facet normal -0.819169 0 -0.573552
    outer loop
      vertex 8.19808 -1.89281 12.5
      vertex 7.89813 0 12.9284
      vertex 8.19808 0 12.5
    endloop
  endfacet
  facet normal -0.819169 -0 -0.573552
    outer loop
      vertex 7.89813 0 12.9284
      vertex 8.19808 -1.89281 12.5
      vertex 7.89813 -2.05711 12.9284
    endloop
  endfacet
  facet normal -0.422615 -0 -0.906309
    outer loop
      vertex 6.62606 0 13.8191
      vertex 7.1 -2.49431 13.5981
      vertex 6.62606 -2.75392 13.8191
    endloop
  endfacet
  facet normal -0.422615 0 -0.906309
    outer loop
      vertex 7.1 -2.49431 13.5981
      vertex 6.62606 0 13.8191
      vertex 7.1 0 13.5981
    endloop
  endfacet
  facet normal -0.258807 0 0.965929
    outer loop
      vertex 6.12094 0 8.04558
      vertex 6.62606 -2.75392 8.18092
      vertex 6.62606 0 8.18092
    endloop
  endfacet
  facet normal -0.258807 0 0.965929
    outer loop
      vertex 6.62606 -2.75392 8.18092
      vertex 6.12094 0 8.04558
      vertex 6.12094 -3.03061 8.04558
    endloop
  endfacet
  facet normal -0.573588 0 0.819144
    outer loop
      vertex 7.1 0 8.40192
      vertex 7.52836 -2.25966 8.70187
      vertex 7.52836 0 8.70187
    endloop
  endfacet
  facet normal -0.573588 0 0.819144
    outer loop
      vertex 7.52836 -2.25966 8.70187
      vertex 7.1 0 8.40192
      vertex 7.1 -2.49431 8.40192
    endloop
  endfacet
  facet normal -0.573652 -0 -0.819099
    outer loop
      vertex 7.1 0 13.5981
      vertex 7.52836 -2.25966 13.2981
      vertex 7.1 -2.49431 13.5981
    endloop
  endfacet
  facet normal -0.573652 0 -0.819099
    outer loop
      vertex 7.52836 -2.25966 13.2981
      vertex 7.1 0 13.5981
      vertex 7.52836 0 13.2981
    endloop
  endfacet
  facet normal -0.0872006 -0 -0.996191
    outer loop
      vertex 5.6 0 14
      vertex 6.12094 -3.03061 13.9544
      vertex 5.6 -3.31597 14
    endloop
  endfacet
  facet normal -0.0872006 0 -0.996191
    outer loop
      vertex 6.12094 -3.03061 13.9544
      vertex 5.6 0 14
      vertex 6.12094 0 13.9544
    endloop
  endfacet
  facet normal 0.906295 0 -0.422645
    outer loop
      vertex 3.00192 -4.73913 12.5
      vertex 2.78092 0 12.0261
      vertex 3.00192 0 12.5
    endloop
  endfacet
  facet normal 0.906301 1.3402e-06 -0.422634
    outer loop
      vertex 2.8 -4.84974 12.067
      vertex 2.78092 0 12.0261
      vertex 3.00192 -4.73913 12.5
    endloop
  endfacet
  facet normal 0.90624 0 -0.422764
    outer loop
      vertex 2.78092 0 12.0261
      vertex 2.8 -4.84974 12.067
      vertex 2.78092 -4.85864 12.0261
    endloop
  endfacet
  facet normal 0 -1 0
    outer loop
      vertex 5.6 0 12.6
      vertex 5.6 0 14
      vertex 5.07906 0 13.9544
    endloop
  endfacet
  facet normal 0 -1 0
    outer loop
      vertex 5.32216 0 12.5757
      vertex 5.07906 0 13.9544
      vertex 4.57394 0 13.8191
    endloop
  endfacet
  facet normal 0 -1 0
    outer loop
      vertex 5.6 0 14
      vertex 5.6 0 12.6
      vertex 6.12094 0 13.9544
    endloop
  endfacet
  facet normal 0 -1 0
    outer loop
      vertex 5.05277 0 12.5035
      vertex 4.57394 0 13.8191
      vertex 4.1 0 13.5981
    endloop
  endfacet
  facet normal 0 -1 0
    outer loop
      vertex 5.87784 0 12.5757
      vertex 6.12094 0 13.9544
      vertex 5.6 0 12.6
    endloop
  endfacet
  facet normal 0 -1 0
    outer loop
      vertex 4.8 0 12.3856
      vertex 4.1 0 13.5981
      vertex 3.67164 0 13.2981
    endloop
  endfacet
  facet normal 0 -1 -0
    outer loop
      vertex 6.12094 0 13.9544
      vertex 5.87784 0 12.5757
      vertex 6.62606 0 13.8191
    endloop
  endfacet
  facet normal 0 -1 0
    outer loop
      vertex 4.57154 0 12.2257
      vertex 3.67164 0 13.2981
      vertex 3.30187 0 12.9284
    endloop
  endfacet
  facet normal 0 -1 0
    outer loop
      vertex 6.14723 0 12.5035
      vertex 6.62606 0 13.8191
      vertex 5.87784 0 12.5757
    endloop
  endfacet
  facet normal 0 -1 -0
    outer loop
      vertex 6.62606 0 13.8191
      vertex 6.14723 0 12.5035
      vertex 7.1 0 13.5981
    endloop
  endfacet
  facet normal 0 -1 0
    outer loop
      vertex 5.07906 0 13.9544
      vertex 5.32216 0 12.5757
      vertex 5.6 0 12.6
    endloop
  endfacet
  facet normal 0 -1 0
    outer loop
      vertex 4.57394 0 13.8191
      vertex 5.05277 0 12.5035
      vertex 5.32216 0 12.5757
    endloop
  endfacet
  facet normal 0 -1 0
    outer loop
      vertex 4.37433 0 12.0285
      vertex 3.30187 0 12.9284
      vertex 3.00192 0 12.5
    endloop
  endfacet
  facet normal 0 -1 0
    outer loop
      vertex 4.1 0 13.5981
      vertex 4.8 0 12.3856
      vertex 5.05277 0 12.5035
    endloop
  endfacet
  facet normal 0 -1 0
    outer loop
      vertex 3.67164 0 13.2981
      vertex 4.57154 0 12.2257
      vertex 4.8 0 12.3856
    endloop
  endfacet
  facet normal 0 -1 0
    outer loop
      vertex 3.30187 0 12.9284
      vertex 4.37433 0 12.0285
      vertex 4.57154 0 12.2257
    endloop
  endfacet
  facet normal 0 -1 0
    outer loop
      vertex 4.21436 0 11.8
      vertex 3.00192 0 12.5
      vertex 2.78092 0 12.0261
    endloop
  endfacet
  facet normal 0 -1 0
    outer loop
      vertex 3.00192 0 12.5
      vertex 4.21436 0 11.8
      vertex 4.37433 0 12.0285
    endloop
  endfacet
  facet normal 0 -1 0
    outer loop
      vertex 2.78092 0 12.0261
      vertex 4.09649 0 11.5472
      vertex 4.21436 0 11.8
    endloop
  endfacet
  facet normal 0 -1 0
    outer loop
      vertex 2.64558 0 11.5209
      vertex 4.09649 0 11.5472
      vertex 2.78092 0 12.0261
    endloop
  endfacet
  facet normal 0 -1 0
    outer loop
      vertex 2.64558 0 11.5209
      vertex 4.02431 0 11.2778
      vertex 4.09649 0 11.5472
    endloop
  endfacet
  facet normal 0 -1 0
    outer loop
      vertex 2.6 0 11
      vertex 4.02431 0 11.2778
      vertex 2.64558 0 11.5209
    endloop
  endfacet
  facet normal 0 -1 0
    outer loop
      vertex 2.6 0 11
      vertex 4 0 11
      vertex 4.02431 0 11.2778
    endloop
  endfacet
  facet normal 0 -1 0
    outer loop
      vertex 2.6 0 11
      vertex 4.02431 0 10.7222
      vertex 4 0 11
    endloop
  endfacet
  facet normal 0 -1 0
    outer loop
      vertex 2.64558 0 10.4791
      vertex 4.02431 0 10.7222
      vertex 2.6 0 11
    endloop
  endfacet
  facet normal 0 -1 0
    outer loop
      vertex 2.64558 0 10.4791
      vertex 4.09649 0 10.4528
      vertex 4.02431 0 10.7222
    endloop
  endfacet
  facet normal 0 -1 0
    outer loop
      vertex 2.78092 0 9.97394
      vertex 4.09649 0 10.4528
      vertex 2.64558 0 10.4791
    endloop
  endfacet
  facet normal 0 -1 -0
    outer loop
      vertex 4.09649 0 10.4528
      vertex 2.78092 0 9.97394
      vertex 4.21436 0 10.2
    endloop
  endfacet
  facet normal 0 -1 0
    outer loop
      vertex 3.00192 0 9.5
      vertex 4.21436 0 10.2
      vertex 2.78092 0 9.97394
    endloop
  endfacet
  facet normal 0 -1 -0
    outer loop
      vertex 4.21436 0 10.2
      vertex 3.00192 0 9.5
      vertex 4.37433 0 9.97154
    endloop
  endfacet
  facet normal 0 -1 0
    outer loop
      vertex 3.30187 0 9.07164
      vertex 4.37433 0 9.97154
      vertex 3.00192 0 9.5
    endloop
  endfacet
  facet normal 0 -1 -0
    outer loop
      vertex 4.37433 0 9.97154
      vertex 3.30187 0 9.07164
      vertex 4.57154 0 9.77433
    endloop
  endfacet
  facet normal 0 -1 0
    outer loop
      vertex 3.67164 0 8.70187
      vertex 4.57154 0 9.77433
      vertex 3.30187 0 9.07164
    endloop
  endfacet
  facet normal 0 -1 -0
    outer loop
      vertex 4.57154 0 9.77433
      vertex 3.67164 0 8.70187
      vertex 4.8 0 9.61436
    endloop
  endfacet
  facet normal 0 -1 0
    outer loop
      vertex 4.1 0 8.40192
      vertex 4.8 0 9.61436
      vertex 3.67164 0 8.70187
    endloop
  endfacet
  facet normal 0 -1 -0
    outer loop
      vertex 4.8 0 9.61436
      vertex 4.1 0 8.40192
      vertex 5.05277 0 9.49649
    endloop
  endfacet
  facet normal 0 -1 0
    outer loop
      vertex 6.4 0 12.3856
      vertex 7.1 0 13.5981
      vertex 6.14723 0 12.5035
    endloop
  endfacet
  facet normal 0 -1 -0
    outer loop
      vertex 7.1 0 13.5981
      vertex 6.4 0 12.3856
      vertex 7.52836 0 13.2981
    endloop
  endfacet
  facet normal 0 -1 0
    outer loop
      vertex 6.62846 0 12.2257
      vertex 7.52836 0 13.2981
      vertex 6.4 0 12.3856
    endloop
  endfacet
  facet normal 0 -1 -0
    outer loop
      vertex 7.52836 0 13.2981
      vertex 6.62846 0 12.2257
      vertex 7.89813 0 12.9284
    endloop
  endfacet
  facet normal 0 -1 0
    outer loop
      vertex 6.82567 0 12.0285
      vertex 7.89813 0 12.9284
      vertex 6.62846 0 12.2257
    endloop
  endfacet
  facet normal 0 -1 -0
    outer loop
      vertex 7.89813 0 12.9284
      vertex 6.82567 0 12.0285
      vertex 8.19808 0 12.5
    endloop
  endfacet
  facet normal 0 -1 0
    outer loop
      vertex 6.98564 0 11.8
      vertex 8.19808 0 12.5
      vertex 6.82567 0 12.0285
    endloop
  endfacet
  facet normal 0 -1 -0
    outer loop
      vertex 8.19808 0 12.5
      vertex 6.98564 0 11.8
      vertex 8.41908 0 12.0261
    endloop
  endfacet
  facet normal 0 -1 0
    outer loop
      vertex 7.10351 0 11.5472
      vertex 8.41908 0 12.0261
      vertex 6.98564 0 11.8
    endloop
  endfacet
  facet normal 0 -1 0
    outer loop
      vertex 7.10351 0 11.5472
      vertex 8.55442 0 11.5209
      vertex 8.41908 0 12.0261
    endloop
  endfacet
  facet normal 0 -1 0
    outer loop
      vertex 7.17569 0 11.2778
      vertex 8.55442 0 11.5209
      vertex 7.10351 0 11.5472
    endloop
  endfacet
  facet normal 0 -1 0
    outer loop
      vertex 7.2 0 11
      vertex 8.55442 0 11.5209
      vertex 7.17569 0 11.2778
    endloop
  endfacet
  facet normal 0 -1 0
    outer loop
      vertex 7.2 0 11
      vertex 8.6 0 11
      vertex 8.55442 0 11.5209
    endloop
  endfacet
  facet normal 0 -1 0
    outer loop
      vertex 7.17569 0 10.7222
      vertex 8.6 0 11
      vertex 7.2 0 11
    endloop
  endfacet
  facet normal 0 -1 0
    outer loop
      vertex 7.17569 0 10.7222
      vertex 8.55442 0 10.4791
      vertex 8.6 0 11
    endloop
  endfacet
  facet normal 0 -1 0
    outer loop
      vertex 7.10351 0 10.4528
      vertex 8.55442 0 10.4791
      vertex 7.17569 0 10.7222
    endloop
  endfacet
  facet normal 0 -1 0
    outer loop
      vertex 8.41908 0 9.97394
      vertex 7.10351 0 10.4528
      vertex 6.98564 0 10.2
    endloop
  endfacet
  facet normal 0 -1 0
    outer loop
      vertex 7.10351 0 10.4528
      vertex 8.41908 0 9.97394
      vertex 8.55442 0 10.4791
    endloop
  endfacet
  facet normal 0 -1 0
    outer loop
      vertex 8.19808 0 9.5
      vertex 6.98564 0 10.2
      vertex 6.82567 0 9.97154
    endloop
  endfacet
  facet normal 0 -1 0
    outer loop
      vertex 7.89813 0 9.07164
      vertex 6.82567 0 9.97154
      vertex 6.62846 0 9.77433
    endloop
  endfacet
  facet normal 0 -1 0
    outer loop
      vertex 7.52836 0 8.70187
      vertex 6.62846 0 9.77433
      vertex 6.4 0 9.61436
    endloop
  endfacet
  facet normal 0 -1 0
    outer loop
      vertex 6.98564 0 10.2
      vertex 8.19808 0 9.5
      vertex 8.41908 0 9.97394
    endloop
  endfacet
  facet normal 0 -1 0
    outer loop
      vertex 7.1 0 8.40192
      vertex 6.4 0 9.61436
      vertex 6.14723 0 9.49649
    endloop
  endfacet
  facet normal 0 -1 0
    outer loop
      vertex 6.62606 0 8.18092
      vertex 6.14723 0 9.49649
      vertex 5.87784 0 9.42431
    endloop
  endfacet
  facet normal 0 -1 0
    outer loop
      vertex 6.12094 0 8.04558
      vertex 5.87784 0 9.42431
      vertex 5.6 0 9.4
    endloop
  endfacet
  facet normal 0 -1 0
    outer loop
      vertex 4.57394 0 8.18092
      vertex 5.05277 0 9.49649
      vertex 4.1 0 8.40192
    endloop
  endfacet
  facet normal 0 -1 0
    outer loop
      vertex 6.82567 0 9.97154
      vertex 7.89813 0 9.07164
      vertex 8.19808 0 9.5
    endloop
  endfacet
  facet normal 0 -1 -0
    outer loop
      vertex 5.05277 0 9.49649
      vertex 4.57394 0 8.18092
      vertex 5.32216 0 9.42431
    endloop
  endfacet
  facet normal 0 -1 0
    outer loop
      vertex 6.62846 0 9.77433
      vertex 7.52836 0 8.70187
      vertex 7.89813 0 9.07164
    endloop
  endfacet
  facet normal 0 -1 0
    outer loop
      vertex 5.07906 0 8.04558
      vertex 5.32216 0 9.42431
      vertex 4.57394 0 8.18092
    endloop
  endfacet
  facet normal 0 -1 0
    outer loop
      vertex 6.4 0 9.61436
      vertex 7.1 0 8.40192
      vertex 7.52836 0 8.70187
    endloop
  endfacet
  facet normal 0 -1 -0
    outer loop
      vertex 5.32216 0 9.42431
      vertex 5.07906 0 8.04558
      vertex 5.6 0 9.4
    endloop
  endfacet
  facet normal 0 -1 0
    outer loop
      vertex 6.14723 0 9.49649
      vertex 6.62606 0 8.18092
      vertex 7.1 0 8.40192
    endloop
  endfacet
  facet normal 0 -1 0
    outer loop
      vertex 5.6 0 8
      vertex 5.6 0 9.4
      vertex 5.07906 0 8.04558
    endloop
  endfacet
  facet normal 0 -1 0
    outer loop
      vertex 5.87784 0 9.42431
      vertex 6.12094 0 8.04558
      vertex 6.62606 0 8.18092
    endloop
  endfacet
  facet normal 0 -1 0
    outer loop
      vertex 5.6 0 9.4
      vertex 5.6 0 8
      vertex 6.12094 0 8.04558
    endloop
  endfacet
  facet normal -0.996194 0 0.0871693
    outer loop
      vertex 8.55442 0 10.4791
      vertex 8.6 -1.67265 11
      vertex 8.6 0 11
    endloop
  endfacet
  facet normal -0.996194 0 0.0871693
    outer loop
      vertex 8.6 -1.67265 11
      vertex 8.55442 0 10.4791
      vertex 8.55442 -1.69761 10.4791
    endloop
  endfacet
  facet normal 0.258736 0 -0.965948
    outer loop
      vertex 4.57394 0 13.8191
      vertex 5.07906 -3.60133 13.9544
      vertex 4.57394 -3.87802 13.8191
    endloop
  endfacet
  facet normal 0.258736 0 -0.965948
    outer loop
      vertex 5.07906 -3.60133 13.9544
      vertex 4.57394 0 13.8191
      vertex 5.07906 0 13.9544
    endloop
  endfacet
  facet normal 0.0872006 0 -0.996191
    outer loop
      vertex 5.07906 0 13.9544
      vertex 5.6 -3.31597 14
      vertex 5.07906 -3.60133 13.9544
    endloop
  endfacet
  facet normal 0.0872006 0 -0.996191
    outer loop
      vertex 5.6 -3.31597 14
      vertex 5.07906 0 13.9544
      vertex 5.6 0 14
    endloop
  endfacet
  facet normal 0.906309 0 0.422615
    outer loop
      vertex 2.78092 0 9.97394
      vertex 3.00192 -4.73913 9.5
      vertex 3.00192 0 9.5
    endloop
  endfacet
  facet normal 0.906312 7.17089e-07 0.422609
    outer loop
      vertex 2.78092 0 9.97394
      vertex 2.8 -4.84974 9.93303
      vertex 3.00192 -4.73913 9.5
    endloop
  endfacet
  facet normal 0.906279 0 0.422679
    outer loop
      vertex 2.8 -4.84974 9.93303
      vertex 2.78092 0 9.97394
      vertex 2.78092 -4.85864 9.97394
    endloop
  endfacet
  facet normal 0.819144 0 0.573588
    outer loop
      vertex 3.00192 0 9.5
      vertex 3.30187 -4.57483 9.07164
      vertex 3.30187 0 9.07164
    endloop
  endfacet
  facet normal 0.819144 0 0.573588
    outer loop
      vertex 3.30187 -4.57483 9.07164
      vertex 3.00192 0 9.5
      vertex 3.00192 -4.73913 9.5
    endloop
  endfacet
  facet normal 0.707107 0 0.707107
    outer loop
      vertex 3.30187 0 9.07164
      vertex 3.67164 -4.37228 8.70187
      vertex 3.67164 0 8.70187
    endloop
  endfacet
  facet normal 0.707107 0 0.707107
    outer loop
      vertex 3.67164 -4.37228 8.70187
      vertex 3.30187 0 9.07164
      vertex 3.30187 -4.57483 9.07164
    endloop
  endfacet
  facet normal 0.965939 0 -0.258769
    outer loop
      vertex 2.78092 -4.85864 12.0261
      vertex 2.64558 0 11.5209
      vertex 2.78092 0 12.0261
    endloop
  endfacet
  facet normal 0.965939 0 -0.258769
    outer loop
      vertex 2.64558 0 11.5209
      vertex 2.78092 -4.85864 12.0261
      vertex 2.64558 -4.92175 11.5209
    endloop
  endfacet
  facet normal 0.422615 0 0.906309
    outer loop
      vertex 4.1 0 8.40192
      vertex 4.57394 -3.87802 8.18092
      vertex 4.57394 0 8.18092
    endloop
  endfacet
  facet normal 0.422615 0 0.906309
    outer loop
      vertex 4.57394 -3.87802 8.18092
      vertex 4.1 0 8.40192
      vertex 4.1 -4.13763 8.40192
    endloop
  endfacet
  facet normal 0.70704 0 -0.707174
    outer loop
      vertex 3.67164 -4.37228 13.2981
      vertex 3.30187 0 12.9284
      vertex 3.67164 0 13.2981
    endloop
  endfacet
  facet normal 0.70704 0 -0.707174
    outer loop
      vertex 3.30187 0 12.9284
      vertex 3.67164 -4.37228 13.2981
      vertex 3.30187 -4.57483 12.9284
    endloop
  endfacet
  facet normal 0.258876 0 -0.96591
    outer loop
      vertex 5.05277 0 12.5035
      vertex 5.32216 5.6 12.5757
      vertex 5.32216 0 12.5757
    endloop
  endfacet
  facet normal 0.258876 0 -0.96591
    outer loop
      vertex 5.32216 5.6 12.5757
      vertex 5.05277 0 12.5035
      vertex 5.05277 5.6 12.5035
    endloop
  endfacet
  facet normal -0.965931 0 -0.258801
    outer loop
      vertex 7.17569 0 11.2778
      vertex 7.10351 5.6 11.5472
      vertex 7.17569 5.6 11.2778
    endloop
  endfacet
  facet normal -0.965931 -0 -0.258801
    outer loop
      vertex 7.10351 5.6 11.5472
      vertex 7.17569 0 11.2778
      vertex 7.10351 0 11.5472
    endloop
  endfacet
  facet normal -0.996193 0 -0.0871758
    outer loop
      vertex 7.2 0 11
      vertex 7.17569 5.6 11.2778
      vertex 7.2 5.6 11
    endloop
  endfacet
  facet normal -0.996193 -0 -0.0871758
    outer loop
      vertex 7.17569 5.6 11.2778
      vertex 7.2 0 11
      vertex 7.17569 0 11.2778
    endloop
  endfacet
  facet normal -0.906325 0 -0.422581
    outer loop
      vertex 7.10351 0 11.5472
      vertex 6.98564 5.6 11.8
      vertex 7.10351 5.6 11.5472
    endloop
  endfacet
  facet normal -0.906325 -0 -0.422581
    outer loop
      vertex 6.98564 5.6 11.8
      vertex 7.10351 0 11.5472
      vertex 6.98564 0 11.8
    endloop
  endfacet
  facet normal 0.906325 -0 0.422581
    outer loop
      vertex 4.09649 0 10.4528
      vertex 4.21436 5.6 10.2
      vertex 4.09649 5.6 10.4528
    endloop
  endfacet
  facet normal 0.906325 0 0.422581
    outer loop
      vertex 4.21436 5.6 10.2
      vertex 4.09649 0 10.4528
      vertex 4.21436 0 10.2
    endloop
  endfacet
  facet normal -0.906325 0 0.422581
    outer loop
      vertex 6.98564 0 10.2
      vertex 7.10351 5.6 10.4528
      vertex 6.98564 5.6 10.2
    endloop
  endfacet
  facet normal -0.906325 0 0.422581
    outer loop
      vertex 7.10351 5.6 10.4528
      vertex 6.98564 0 10.2
      vertex 7.10351 0 10.4528
    endloop
  endfacet
  facet normal -0.819151 0 0.573578
    outer loop
      vertex 6.82567 0 9.97154
      vertex 6.98564 5.6 10.2
      vertex 6.82567 5.6 9.97154
    endloop
  endfacet
  facet normal -0.819151 0 0.573578
    outer loop
      vertex 6.98564 5.6 10.2
      vertex 6.82567 0 9.97154
      vertex 6.98564 0 10.2
    endloop
  endfacet
  facet normal -0.996193 0 0.0871758
    outer loop
      vertex 7.17569 0 10.7222
      vertex 7.2 5.6 11
      vertex 7.17569 5.6 10.7222
    endloop
  endfacet
  facet normal -0.996193 0 0.0871758
    outer loop
      vertex 7.2 5.6 11
      vertex 7.17569 0 10.7222
      vertex 7.2 0 11
    endloop
  endfacet
  facet normal -0.819198 0 -0.57351
    outer loop
      vertex 6.98564 0 11.8
      vertex 6.82567 5.6 12.0285
      vertex 6.98564 5.6 11.8
    endloop
  endfacet
  facet normal -0.819198 -0 -0.57351
    outer loop
      vertex 6.82567 5.6 12.0285
      vertex 6.98564 0 11.8
      vertex 6.82567 0 12.0285
    endloop
  endfacet
  facet normal 0.965931 -0 0.258801
    outer loop
      vertex 4.02431 0 10.7222
      vertex 4.09649 5.6 10.4528
      vertex 4.02431 5.6 10.7222
    endloop
  endfacet
  facet normal 0.965931 0 0.258801
    outer loop
      vertex 4.09649 5.6 10.4528
      vertex 4.02431 0 10.7222
      vertex 4.09649 0 10.4528
    endloop
  endfacet
  facet normal 0.707089 0 -0.707125
    outer loop
      vertex 4.57154 0 12.2257
      vertex 4.37433 5.6 12.0285
      vertex 4.57154 5.6 12.2257
    endloop
  endfacet
  facet normal 0.707089 0 -0.707125
    outer loop
      vertex 4.37433 5.6 12.0285
      vertex 4.57154 0 12.2257
      vertex 4.37433 0 12.0285
    endloop
  endfacet
  facet normal 0.0871278 0 -0.996197
    outer loop
      vertex 5.32216 0 12.5757
      vertex 5.6 5.6 12.6
      vertex 5.6 0 12.6
    endloop
  endfacet
  facet normal 0.0871278 0 -0.996197
    outer loop
      vertex 5.6 5.6 12.6
      vertex 5.32216 0 12.5757
      vertex 5.32216 5.6 12.5757
    endloop
  endfacet
  facet normal 0.573409 0 -0.819269
    outer loop
      vertex 4.57154 0 12.2257
      vertex 4.8 5.6 12.3856
      vertex 4.8 0 12.3856
    endloop
  endfacet
  facet normal 0.573409 0 -0.819269
    outer loop
      vertex 4.8 5.6 12.3856
      vertex 4.57154 0 12.2257
      vertex 4.57154 5.6 12.2257
    endloop
  endfacet
  facet normal 0.422711 0 -0.906265
    outer loop
      vertex 4.8 0 12.3856
      vertex 5.05277 5.6 12.5035
      vertex 5.05277 0 12.5035
    endloop
  endfacet
  facet normal 0.422711 0 -0.906265
    outer loop
      vertex 5.05277 5.6 12.5035
      vertex 4.8 0 12.3856
      vertex 4.8 5.6 12.3856
    endloop
  endfacet
  facet normal -0.422622 0 0.906306
    outer loop
      vertex 6.14723 5.6 9.49649
      vertex 6.4 0 9.61436
      vertex 6.4 5.6 9.61436
    endloop
  endfacet
  facet normal -0.422622 0 0.906306
    outer loop
      vertex 6.4 0 9.61436
      vertex 6.14723 5.6 9.49649
      vertex 6.14723 0 9.49649
    endloop
  endfacet
  facet normal 0.996193 -0 0.0871758
    outer loop
      vertex 4 0 11
      vertex 4.02431 5.6 10.7222
      vertex 4 5.6 11
    endloop
  endfacet
  facet normal 0.996193 0 0.0871758
    outer loop
      vertex 4.02431 5.6 10.7222
      vertex 4 0 11
      vertex 4.02431 0 10.7222
    endloop
  endfacet
  facet normal -0.258876 0 -0.96591
    outer loop
      vertex 5.87784 0 12.5757
      vertex 6.14723 5.6 12.5035
      vertex 6.14723 0 12.5035
    endloop
  endfacet
  facet normal -0.258876 0 -0.96591
    outer loop
      vertex 6.14723 5.6 12.5035
      vertex 5.87784 0 12.5757
      vertex 5.87784 5.6 12.5757
    endloop
  endfacet
  facet normal -0.573578 0 0.819151
    outer loop
      vertex 6.4 5.6 9.61436
      vertex 6.62846 0 9.77433
      vertex 6.62846 5.6 9.77433
    endloop
  endfacet
  facet normal -0.573578 0 0.819151
    outer loop
      vertex 6.62846 0 9.77433
      vertex 6.4 5.6 9.61436
      vertex 6.4 0 9.61436
    endloop
  endfacet
  facet normal 0.965931 0 -0.258801
    outer loop
      vertex 4.09649 0 11.5472
      vertex 4.02431 5.6 11.2778
      vertex 4.09649 5.6 11.5472
    endloop
  endfacet
  facet normal 0.965931 0 -0.258801
    outer loop
      vertex 4.02431 5.6 11.2778
      vertex 4.09649 0 11.5472
      vertex 4.02431 0 11.2778
    endloop
  endfacet
  facet normal -0.422711 0 -0.906265
    outer loop
      vertex 6.14723 0 12.5035
      vertex 6.4 5.6 12.3856
      vertex 6.4 0 12.3856
    endloop
  endfacet
  facet normal -0.422711 0 -0.906265
    outer loop
      vertex 6.4 5.6 12.3856
      vertex 6.14723 0 12.5035
      vertex 6.14723 5.6 12.5035
    endloop
  endfacet
  facet normal 0.819198 0 -0.57351
    outer loop
      vertex 4.37433 0 12.0285
      vertex 4.21436 5.6 11.8
      vertex 4.37433 5.6 12.0285
    endloop
  endfacet
  facet normal 0.819198 0 -0.57351
    outer loop
      vertex 4.21436 5.6 11.8
      vertex 4.37433 0 12.0285
      vertex 4.21436 0 11.8
    endloop
  endfacet
  facet normal 0.819151 -0 0.573578
    outer loop
      vertex 4.21436 0 10.2
      vertex 4.37433 5.6 9.97154
      vertex 4.21436 5.6 10.2
    endloop
  endfacet
  facet normal 0.819151 0 0.573578
    outer loop
      vertex 4.37433 5.6 9.97154
      vertex 4.21436 0 10.2
      vertex 4.37433 0 9.97154
    endloop
  endfacet
  facet normal -0.25881 0 0.965928
    outer loop
      vertex 5.87784 5.6 9.42431
      vertex 6.14723 0 9.49649
      vertex 6.14723 5.6 9.49649
    endloop
  endfacet
  facet normal -0.25881 0 0.965928
    outer loop
      vertex 6.14723 0 9.49649
      vertex 5.87784 5.6 9.42431
      vertex 5.87784 0 9.42431
    endloop
  endfacet
  facet normal -0.707107 0 0.707107
    outer loop
      vertex 6.62846 0 9.77433
      vertex 6.82567 5.6 9.97154
      vertex 6.62846 5.6 9.77433
    endloop
  endfacet
  facet normal -0.707107 0 0.707107
    outer loop
      vertex 6.82567 5.6 9.97154
      vertex 6.62846 0 9.77433
      vertex 6.82567 0 9.97154
    endloop
  endfacet
  facet normal -0.707089 0 -0.707125
    outer loop
      vertex 6.82567 0 12.0285
      vertex 6.62846 5.6 12.2257
      vertex 6.82567 5.6 12.0285
    endloop
  endfacet
  facet normal -0.707089 -0 -0.707125
    outer loop
      vertex 6.62846 5.6 12.2257
      vertex 6.82567 0 12.0285
      vertex 6.62846 0 12.2257
    endloop
  endfacet
  facet normal -0.965931 0 0.258801
    outer loop
      vertex 7.10351 0 10.4528
      vertex 7.17569 5.6 10.7222
      vertex 7.10351 5.6 10.4528
    endloop
  endfacet
  facet normal -0.965931 0 0.258801
    outer loop
      vertex 7.17569 5.6 10.7222
      vertex 7.10351 0 10.4528
      vertex 7.17569 0 10.7222
    endloop
  endfacet
  facet normal -0.573409 0 -0.819269
    outer loop
      vertex 6.4 0 12.3856
      vertex 6.62846 5.6 12.2257
      vertex 6.62846 0 12.2257
    endloop
  endfacet
  facet normal -0.573409 0 -0.819269
    outer loop
      vertex 6.62846 5.6 12.2257
      vertex 6.4 0 12.3856
      vertex 6.4 5.6 12.3856
    endloop
  endfacet
  facet normal 0.707107 -0 0.707107
    outer loop
      vertex 4.37433 0 9.97154
      vertex 4.57154 5.6 9.77433
      vertex 4.37433 5.6 9.97154
    endloop
  endfacet
  facet normal 0.707107 0 0.707107
    outer loop
      vertex 4.57154 5.6 9.77433
      vertex 4.37433 0 9.97154
      vertex 4.57154 0 9.77433
    endloop
  endfacet
  facet normal 0.906325 0 -0.422581
    outer loop
      vertex 4.21436 0 11.8
      vertex 4.09649 5.6 11.5472
      vertex 4.21436 5.6 11.8
    endloop
  endfacet
  facet normal 0.906325 0 -0.422581
    outer loop
      vertex 4.09649 5.6 11.5472
      vertex 4.21436 0 11.8
      vertex 4.09649 0 11.5472
    endloop
  endfacet
  facet normal 0.573578 0 0.819151
    outer loop
      vertex 4.57154 5.6 9.77433
      vertex 4.8 0 9.61436
      vertex 4.8 5.6 9.61436
    endloop
  endfacet
  facet normal 0.573578 0 0.819151
    outer loop
      vertex 4.8 0 9.61436
      vertex 4.57154 5.6 9.77433
      vertex 4.57154 0 9.77433
    endloop
  endfacet
  facet normal -0.0871634 0 0.996194
    outer loop
      vertex 5.6 5.6 9.4
      vertex 5.87784 0 9.42431
      vertex 5.87784 5.6 9.42431
    endloop
  endfacet
  facet normal -0.0871634 0 0.996194
    outer loop
      vertex 5.87784 0 9.42431
      vertex 5.6 5.6 9.4
      vertex 5.6 0 9.4
    endloop
  endfacet
  facet normal -0.0871278 0 -0.996197
    outer loop
      vertex 5.6 0 12.6
      vertex 5.87784 5.6 12.5757
      vertex 5.87784 0 12.5757
    endloop
  endfacet
  facet normal -0.0871278 0 -0.996197
    outer loop
      vertex 5.87784 5.6 12.5757
      vertex 5.6 0 12.6
      vertex 5.6 5.6 12.6
    endloop
  endfacet
  facet normal 0.0871634 0 0.996194
    outer loop
      vertex 5.32216 5.6 9.42431
      vertex 5.6 0 9.4
      vertex 5.6 5.6 9.4
    endloop
  endfacet
  facet normal 0.0871634 0 0.996194
    outer loop
      vertex 5.6 0 9.4
      vertex 5.32216 5.6 9.42431
      vertex 5.32216 0 9.42431
    endloop
  endfacet
  facet normal 0.25881 0 0.965928
    outer loop
      vertex 5.05277 5.6 9.49649
      vertex 5.32216 0 9.42431
      vertex 5.32216 5.6 9.42431
    endloop
  endfacet
  facet normal 0.25881 0 0.965928
    outer loop
      vertex 5.32216 0 9.42431
      vertex 5.05277 5.6 9.49649
      vertex 5.05277 0 9.49649
    endloop
  endfacet
  facet normal 0.996193 0 -0.0871758
    outer loop
      vertex 4.02431 0 11.2778
      vertex 4 5.6 11
      vertex 4.02431 5.6 11.2778
    endloop
  endfacet
  facet normal 0.996193 0 -0.0871758
    outer loop
      vertex 4 5.6 11
      vertex 4.02431 0 11.2778
      vertex 4 0 11
    endloop
  endfacet
  facet normal 0.422622 0 0.906306
    outer loop
      vertex 4.8 5.6 9.61436
      vertex 5.05277 0 9.49649
      vertex 5.05277 5.6 9.49649
    endloop
  endfacet
  facet normal 0.422622 0 0.906306
    outer loop
      vertex 5.05277 0 9.49649
      vertex 4.8 5.6 9.61436
      vertex 4.8 0 9.61436
    endloop
  endfacet
  facet normal -0.42262 -0.906307 0
    outer loop
      vertex -2.8 -4.84974 0
      vertex -1.91531 -5.26228 22
      vertex -2.8 -4.84974 22
    endloop
  endfacet
  facet normal -0.42262 -0.906307 -0
    outer loop
      vertex -1.91531 -5.26228 22
      vertex -2.8 -4.84974 0
      vertex -1.91531 -5.26228 0
    endloop
  endfacet
  facet normal -0.707107 -0.707107 0
    outer loop
      vertex -3.59961 -4.28985 0
      vertex -4.28985 -3.59961 22
      vertex -4.28985 -3.59961 0
    endloop
  endfacet
  facet normal -0.707107 -0.707107 0
    outer loop
      vertex -4.28985 -3.59961 22
      vertex -3.59961 -4.28985 0
      vertex -3.59961 -4.28985 22
    endloop
  endfacet
  facet normal 0 1 0
    outer loop
      vertex 16.4 5.6 22
      vertex 5.6 5.6 12.6
      vertex -5.6 5.6 22
    endloop
  endfacet
  facet normal 0 1 0
    outer loop
      vertex 16.4 5.6 22
      vertex 5.87784 5.6 12.5757
      vertex 5.6 5.6 12.6
    endloop
  endfacet
  facet normal 0 1 0
    outer loop
      vertex 16.4 5.6 22
      vertex 6.14723 5.6 12.5035
      vertex 5.87784 5.6 12.5757
    endloop
  endfacet
  facet normal 0 1 0
    outer loop
      vertex 16.4 5.6 22
      vertex 6.4 5.6 12.3856
      vertex 6.14723 5.6 12.5035
    endloop
  endfacet
  facet normal 0 1 0
    outer loop
      vertex 16.4 5.6 22
      vertex 6.62846 5.6 12.2257
      vertex 6.4 5.6 12.3856
    endloop
  endfacet
  facet normal 0 1 0
    outer loop
      vertex 16.4 5.6 22
      vertex 6.82567 5.6 12.0285
      vertex 6.62846 5.6 12.2257
    endloop
  endfacet
  facet normal 0 1 0
    outer loop
      vertex 16.4 5.6 22
      vertex 6.98564 5.6 11.8
      vertex 6.82567 5.6 12.0285
    endloop
  endfacet
  facet normal 0 1 0
    outer loop
      vertex 16.4 5.6 22
      vertex 7.10351 5.6 11.5472
      vertex 6.98564 5.6 11.8
    endloop
  endfacet
  facet normal 0 1 0
    outer loop
      vertex 16.4 5.6 22
      vertex 7.17569 5.6 11.2778
      vertex 7.10351 5.6 11.5472
    endloop
  endfacet
  facet normal 0 1 0
    outer loop
      vertex 16.4 5.6 22
      vertex 7.2 5.6 11
      vertex 7.17569 5.6 11.2778
    endloop
  endfacet
  facet normal 0 1 -0
    outer loop
      vertex 16.4 5.6 0
      vertex 7.2 5.6 11
      vertex 16.4 5.6 22
    endloop
  endfacet
  facet normal 0 1 0
    outer loop
      vertex 7.2 5.6 11
      vertex 16.4 5.6 0
      vertex 7.17569 5.6 10.7222
    endloop
  endfacet
  facet normal 0 1 0
    outer loop
      vertex 7.17569 5.6 10.7222
      vertex 16.4 5.6 0
      vertex 7.10351 5.6 10.4528
    endloop
  endfacet
  facet normal 0 1 0
    outer loop
      vertex 7.10351 5.6 10.4528
      vertex 16.4 5.6 0
      vertex 6.98564 5.6 10.2
    endloop
  endfacet
  facet normal 0 1 0
    outer loop
      vertex 5.87784 5.6 9.42431
      vertex 16.4 5.6 0
      vertex 5.6 5.6 9.4
    endloop
  endfacet
  facet normal 0 1 0
    outer loop
      vertex 6.14723 5.6 9.49649
      vertex 16.4 5.6 0
      vertex 5.87784 5.6 9.42431
    endloop
  endfacet
  facet normal 0 1 0
    outer loop
      vertex 6.4 5.6 9.61436
      vertex 16.4 5.6 0
      vertex 6.14723 5.6 9.49649
    endloop
  endfacet
  facet normal 0 1 0
    outer loop
      vertex 6.62846 5.6 9.77433
      vertex 16.4 5.6 0
      vertex 6.4 5.6 9.61436
    endloop
  endfacet
  facet normal 0 1 0
    outer loop
      vertex 6.82567 5.6 9.97154
      vertex 16.4 5.6 0
      vertex 6.62846 5.6 9.77433
    endloop
  endfacet
  facet normal 0 1 0
    outer loop
      vertex 6.98564 5.6 10.2
      vertex 16.4 5.6 0
      vertex 6.82567 5.6 9.97154
    endloop
  endfacet
  facet normal 0 1 -0
    outer loop
      vertex 5.32216 5.6 12.5757
      vertex -5.6 5.6 22
      vertex 5.6 5.6 12.6
    endloop
  endfacet
  facet normal 0 1 -0
    outer loop
      vertex 5.05277 5.6 12.5035
      vertex -5.6 5.6 22
      vertex 5.32216 5.6 12.5757
    endloop
  endfacet
  facet normal 0 1 -0
    outer loop
      vertex 4.8 5.6 12.3856
      vertex -5.6 5.6 22
      vertex 5.05277 5.6 12.5035
    endloop
  endfacet
  facet normal 0 1 -0
    outer loop
      vertex 4.57154 5.6 12.2257
      vertex -5.6 5.6 22
      vertex 4.8 5.6 12.3856
    endloop
  endfacet
  facet normal 0 1 -0
    outer loop
      vertex 4.37433 5.6 12.0285
      vertex -5.6 5.6 22
      vertex 4.57154 5.6 12.2257
    endloop
  endfacet
  facet normal 0 1 -0
    outer loop
      vertex 4.21436 5.6 11.8
      vertex -5.6 5.6 22
      vertex 4.37433 5.6 12.0285
    endloop
  endfacet
  facet normal 0 1 -0
    outer loop
      vertex 4.09649 5.6 11.5472
      vertex -5.6 5.6 22
      vertex 4.21436 5.6 11.8
    endloop
  endfacet
  facet normal 0 1 -0
    outer loop
      vertex 4.02431 5.6 11.2778
      vertex -5.6 5.6 22
      vertex 4.09649 5.6 11.5472
    endloop
  endfacet
  facet normal 0 1 -0
    outer loop
      vertex 4 5.6 11
      vertex -5.6 5.6 22
      vertex 4.02431 5.6 11.2778
    endloop
  endfacet
  facet normal 0 1 0
    outer loop
      vertex -5.6 5.6 0
      vertex 4 5.6 11
      vertex 4.02431 5.6 10.7222
    endloop
  endfacet
  facet normal 0 1 0
    outer loop
      vertex -5.6 5.6 0
      vertex 4.02431 5.6 10.7222
      vertex 4.09649 5.6 10.4528
    endloop
  endfacet
  facet normal 0 1 0
    outer loop
      vertex -5.6 5.6 0
      vertex 4.09649 5.6 10.4528
      vertex 4.21436 5.6 10.2
    endloop
  endfacet
  facet normal 0 1 0
    outer loop
      vertex -5.6 5.6 0
      vertex 4.21436 5.6 10.2
      vertex 4.37433 5.6 9.97154
    endloop
  endfacet
  facet normal 0 1 0
    outer loop
      vertex -5.6 5.6 0
      vertex 5.6 5.6 9.4
      vertex 16.4 5.6 0
    endloop
  endfacet
  facet normal 0 1 0
    outer loop
      vertex 5.6 5.6 9.4
      vertex -5.6 5.6 0
      vertex 5.32216 5.6 9.42431
    endloop
  endfacet
  facet normal 0 1 0
    outer loop
      vertex 5.32216 5.6 9.42431
      vertex -5.6 5.6 0
      vertex 5.05277 5.6 9.49649
    endloop
  endfacet
  facet normal 0 1 0
    outer loop
      vertex 5.05277 5.6 9.49649
      vertex -5.6 5.6 0
      vertex 4.8 5.6 9.61436
    endloop
  endfacet
  facet normal 0 1 0
    outer loop
      vertex 4 5.6 11
      vertex -5.6 5.6 0
      vertex -5.6 5.6 22
    endloop
  endfacet
  facet normal 0 1 0
    outer loop
      vertex 4.57154 5.6 9.77433
      vertex -5.6 5.6 0
      vertex 4.37433 5.6 9.97154
    endloop
  endfacet
  facet normal 0 1 0
    outer loop
      vertex 4.8 5.6 9.61436
      vertex -5.6 5.6 0
      vertex 4.57154 5.6 9.77433
    endloop
  endfacet
  facet normal -1 0 0
    outer loop
      vertex -5.6 0 0
      vertex -5.6 5.6 22
      vertex -5.6 5.6 0
    endloop
  endfacet
  facet normal -1 -0 0
    outer loop
      vertex -5.6 5.6 22
      vertex -5.6 0 0
      vertex -5.6 0 22
    endloop
  endfacet
  facet normal 0.0871593 -0.996194 0
    outer loop
      vertex 0 -5.6 0
      vertex 0.972429 -5.51492 22
      vertex 0 -5.6 22
    endloop
  endfacet
  facet normal 0.0871593 -0.996194 0
    outer loop
      vertex 0.972429 -5.51492 22
      vertex 0 -5.6 0
      vertex 0.972429 -5.51492 0
    endloop
  endfacet
  facet normal -0.996194 -0.0871593 0
    outer loop
      vertex -5.51492 -0.972429 0
      vertex -5.6 0 22
      vertex -5.6 0 0
    endloop
  endfacet
  facet normal -0.996194 -0.0871593 0
    outer loop
      vertex -5.6 0 22
      vertex -5.51492 -0.972429 0
      vertex -5.51492 -0.972429 22
    endloop
  endfacet
  facet normal -0.965927 -0.258815 0
    outer loop
      vertex -5.26228 -1.91531 0
      vertex -5.51492 -0.972429 22
      vertex -5.51492 -0.972429 0
    endloop
  endfacet
  facet normal -0.965927 -0.258815 0
    outer loop
      vertex -5.51492 -0.972429 22
      vertex -5.26228 -1.91531 0
      vertex -5.26228 -1.91531 22
    endloop
  endfacet
  facet normal -0.906307 -0.42262 0
    outer loop
      vertex -4.84974 -2.8 0
      vertex -5.26228 -1.91531 22
      vertex -5.26228 -1.91531 0
    endloop
  endfacet
  facet normal -0.906307 -0.42262 0
    outer loop
      vertex -5.26228 -1.91531 22
      vertex -4.84974 -2.8 0
      vertex -4.84974 -2.8 22
    endloop
  endfacet
  facet normal 0.42262 -0.906307 0
    outer loop
      vertex 1.91531 -5.26228 22
      vertex 2.8 -4.84974 12.067
      vertex 2.8 -4.84974 22
    endloop
  endfacet
  facet normal 0.422712 -0.906264 9.94899e-06
    outer loop
      vertex 1.91531 -5.26228 22
      vertex 2.78092 -4.85864 12.0261
      vertex 2.8 -4.84974 12.067
    endloop
  endfacet
  facet normal 0.422618 -0.906308 4.81762e-09
    outer loop
      vertex 1.91531 -5.26228 22
      vertex 2.64558 -4.92175 11.5209
      vertex 2.78092 -4.85864 12.0261
    endloop
  endfacet
  facet normal 0.422579 -0.906326 -3.29549e-06
    outer loop
      vertex 1.91531 -5.26228 22
      vertex 2.6 -4.943 11
      vertex 2.64558 -4.92175 11.5209
    endloop
  endfacet
  facet normal 0.422622 -0.906306 0
    outer loop
      vertex 1.91531 -5.26228 0
      vertex 2.6 -4.943 11
      vertex 1.91531 -5.26228 22
    endloop
  endfacet
  facet normal 0.422579 -0.906326 3.29549e-06
    outer loop
      vertex 1.91531 -5.26228 0
      vertex 2.64558 -4.92175 10.4791
      vertex 2.6 -4.943 11
    endloop
  endfacet
  facet normal 0.422618 -0.906308 -4.8177e-09
    outer loop
      vertex 1.91531 -5.26228 0
      vertex 2.78092 -4.85864 9.97394
      vertex 2.64558 -4.92175 10.4791
    endloop
  endfacet
  facet normal 0.422712 -0.906264 -9.94857e-06
    outer loop
      vertex 1.91531 -5.26228 0
      vertex 2.8 -4.84974 9.93303
      vertex 2.78092 -4.85864 9.97394
    endloop
  endfacet
  facet normal 0.42262 -0.906307 0
    outer loop
      vertex 2.8 -4.84974 9.93303
      vertex 1.91531 -5.26228 0
      vertex 2.8 -4.84974 0
    endloop
  endfacet
  facet normal -0.573574 -0.819153 0
    outer loop
      vertex -3.59961 -4.28985 0
      vertex -2.8 -4.84974 22
      vertex -3.59961 -4.28985 22
    endloop
  endfacet
  facet normal -0.573574 -0.819153 -0
    outer loop
      vertex -2.8 -4.84974 22
      vertex -3.59961 -4.28985 0
      vertex -2.8 -4.84974 0
    endloop
  endfacet
  facet normal -0.0871593 -0.996194 0
    outer loop
      vertex -0.972429 -5.51492 0
      vertex 0 -5.6 22
      vertex -0.972429 -5.51492 22
    endloop
  endfacet
  facet normal -0.0871593 -0.996194 -0
    outer loop
      vertex 0 -5.6 22
      vertex -0.972429 -5.51492 0
      vertex 0 -5.6 0
    endloop
  endfacet
  facet normal 1 -0 0
    outer loop
      vertex 16.4 2.6 22
      vertex 16.4 5.6 0
      vertex 16.4 5.6 22
    endloop
  endfacet
  facet normal 1 0 0
    outer loop
      vertex 16.4 5.6 0
      vertex 16.4 2.6 22
      vertex 16.4 2.6 0
    endloop
  endfacet
  facet normal 0 0 -1
    outer loop
      vertex 16.4 2.6 0
      vertex 2.5605 -0.451485 0
      vertex 2.6 0 0
    endloop
  endfacet
  facet normal 0 0 -1
    outer loop
      vertex 2.8 -4.84974 0
      vertex 2.4432 -0.889252 0
      vertex 2.5605 -0.451485 0
    endloop
  endfacet
  facet normal 0 0 -1
    outer loop
      vertex 2.8 -4.84974 0
      vertex 2.25167 -1.3 0
      vertex 2.4432 -0.889252 0
    endloop
  endfacet
  facet normal 0 0 -1
    outer loop
      vertex 2.8 -4.84974 0
      vertex 1.99172 -1.67125 0
      vertex 2.25167 -1.3 0
    endloop
  endfacet
  facet normal 0 0 -1
    outer loop
      vertex 1.3 -2.25167 0
      vertex 2.8 -4.84974 0
      vertex 1.91531 -5.26228 0
    endloop
  endfacet
  facet normal 0 0 -1
    outer loop
      vertex 2.8 -4.84974 0
      vertex 1.67125 -1.99172 0
      vertex 1.99172 -1.67125 0
    endloop
  endfacet
  facet normal 0 0 -1
    outer loop
      vertex 2.8 -4.84974 0
      vertex 1.3 -2.25167 0
      vertex 1.67125 -1.99172 0
    endloop
  endfacet
  facet normal 0 0 -1
    outer loop
      vertex 0.889252 -2.4432 0
      vertex 1.91531 -5.26228 0
      vertex 0.972429 -5.51492 0
    endloop
  endfacet
  facet normal 0 0 -1
    outer loop
      vertex 1.91531 -5.26228 0
      vertex 0.889252 -2.4432 0
      vertex 1.3 -2.25167 0
    endloop
  endfacet
  facet normal 0 0 -1
    outer loop
      vertex 0.972429 -5.51492 0
      vertex 0.451485 -2.5605 0
      vertex 0.889252 -2.4432 0
    endloop
  endfacet
  facet normal 0 0 -1
    outer loop
      vertex 0 -5.6 0
      vertex 0.451485 -2.5605 0
      vertex 0.972429 -5.51492 0
    endloop
  endfacet
  facet normal 0 0 -1
    outer loop
      vertex 0 -5.6 0
      vertex 0 -2.6 0
      vertex 0.451485 -2.5605 0
    endloop
  endfacet
  facet normal 0 0 -1
    outer loop
      vertex 0 -5.6 0
      vertex -0.451485 -2.5605 0
      vertex 0 -2.6 0
    endloop
  endfacet
  facet normal 0 0 -1
    outer loop
      vertex -0.972429 -5.51492 0
      vertex -0.451485 -2.5605 0
      vertex 0 -5.6 0
    endloop
  endfacet
  facet normal -0 0 -1
    outer loop
      vertex -0.451485 -2.5605 0
      vertex -0.972429 -5.51492 0
      vertex -0.889252 -2.4432 0
    endloop
  endfacet
  facet normal 0 0 -1
    outer loop
      vertex -1.91531 -5.26228 0
      vertex -0.889252 -2.4432 0
      vertex -0.972429 -5.51492 0
    endloop
  endfacet
  facet normal -0 0 -1
    outer loop
      vertex -0.889252 -2.4432 0
      vertex -1.91531 -5.26228 0
      vertex -1.3 -2.25167 0
    endloop
  endfacet
  facet normal 0 0 -1
    outer loop
      vertex -2.8 -4.84974 0
      vertex -1.3 -2.25167 0
      vertex -1.91531 -5.26228 0
    endloop
  endfacet
  facet normal -0 0 -1
    outer loop
      vertex -1.3 -2.25167 0
      vertex -2.8 -4.84974 0
      vertex -1.67125 -1.99172 0
    endloop
  endfacet
  facet normal 0 0 -1
    outer loop
      vertex -3.59961 -4.28985 0
      vertex -1.67125 -1.99172 0
      vertex -2.8 -4.84974 0
    endloop
  endfacet
  facet normal -0 0 -1
    outer loop
      vertex -1.67125 -1.99172 0
      vertex -3.59961 -4.28985 0
      vertex -1.99172 -1.67125 0
    endloop
  endfacet
  facet normal 0 0 -1
    outer loop
      vertex -4.28985 -3.59961 0
      vertex -1.99172 -1.67125 0
      vertex -3.59961 -4.28985 0
    endloop
  endfacet
  facet normal 0 0 -1
    outer loop
      vertex -4.84974 -2.8 0
      vertex -2.25167 -1.3 0
      vertex -4.28985 -3.59961 0
    endloop
  endfacet
  facet normal -0 0 -1
    outer loop
      vertex -1.99172 -1.67125 0
      vertex -4.28985 -3.59961 0
      vertex -2.25167 -1.3 0
    endloop
  endfacet
  facet normal 0 0 -1
    outer loop
      vertex 2.5605 -0.451485 0
      vertex 16.4 2.6 0
      vertex 2.8 -4.84974 0
    endloop
  endfacet
  facet normal 0 0 -1
    outer loop
      vertex 2.5605 0.451485 0
      vertex 16.4 2.6 0
      vertex 2.6 0 0
    endloop
  endfacet
  facet normal 0 0 -1
    outer loop
      vertex 2.4432 0.889252 0
      vertex 16.4 2.6 0
      vertex 2.5605 0.451485 0
    endloop
  endfacet
  facet normal -0 0 -1
    outer loop
      vertex 16.4 2.6 0
      vertex 2.4432 0.889252 0
      vertex 16.4 5.6 0
    endloop
  endfacet
  facet normal 0 0 -1
    outer loop
      vertex 2.25167 1.3 0
      vertex 16.4 5.6 0
      vertex 2.4432 0.889252 0
    endloop
  endfacet
  facet normal 0 0 -1
    outer loop
      vertex 1.99172 1.67125 0
      vertex 16.4 5.6 0
      vertex 2.25167 1.3 0
    endloop
  endfacet
  facet normal 0 0 -1
    outer loop
      vertex 1.67125 1.99172 0
      vertex 16.4 5.6 0
      vertex 1.99172 1.67125 0
    endloop
  endfacet
  facet normal 0 0 -1
    outer loop
      vertex 1.3 2.25167 0
      vertex 16.4 5.6 0
      vertex 1.67125 1.99172 0
    endloop
  endfacet
  facet normal 0 0 -1
    outer loop
      vertex 0.889252 2.4432 0
      vertex 16.4 5.6 0
      vertex 1.3 2.25167 0
    endloop
  endfacet
  facet normal 0 0 -1
    outer loop
      vertex 0.451485 2.5605 0
      vertex 16.4 5.6 0
      vertex 0.889252 2.4432 0
    endloop
  endfacet
  facet normal 0 0 -1
    outer loop
      vertex -5.6 5.6 0
      vertex 0.451485 2.5605 0
      vertex 0 2.6 0
    endloop
  endfacet
  facet normal 0 0 -1
    outer loop
      vertex -5.6 5.6 0
      vertex 0 2.6 0
      vertex -0.451485 2.5605 0
    endloop
  endfacet
  facet normal -0 0 -1
    outer loop
      vertex -2.25167 -1.3 0
      vertex -4.84974 -2.8 0
      vertex -2.4432 -0.889252 0
    endloop
  endfacet
  facet normal 0 0 -1
    outer loop
      vertex -5.26228 -1.91531 0
      vertex -2.4432 -0.889252 0
      vertex -4.84974 -2.8 0
    endloop
  endfacet
  facet normal -0 0 -1
    outer loop
      vertex -2.4432 -0.889252 0
      vertex -5.26228 -1.91531 0
      vertex -2.5605 -0.451485 0
    endloop
  endfacet
  facet normal 0 0 -1
    outer loop
      vertex -5.51492 -0.972429 0
      vertex -2.5605 -0.451485 0
      vertex -5.26228 -1.91531 0
    endloop
  endfacet
  facet normal -0 0 -1
    outer loop
      vertex -2.5605 -0.451485 0
      vertex -5.51492 -0.972429 0
      vertex -2.6 0 0
    endloop
  endfacet
  facet normal 0 0 -1
    outer loop
      vertex -5.6 0 0
      vertex -2.6 0 0
      vertex -5.51492 -0.972429 0
    endloop
  endfacet
  facet normal 0 0 -1
    outer loop
      vertex -2.6 0 0
      vertex -5.6 0 0
      vertex -2.5605 0.451485 0
    endloop
  endfacet
  facet normal -0 0 -1
    outer loop
      vertex -2.5605 0.451485 0
      vertex -5.6 0 0
      vertex -2.4432 0.889252 0
    endloop
  endfacet
  facet normal -0 0 -1
    outer loop
      vertex -2.4432 0.889252 0
      vertex -5.6 0 0
      vertex -2.25167 1.3 0
    endloop
  endfacet
  facet normal 0 0 -1
    outer loop
      vertex -5.6 5.6 0
      vertex -2.25167 1.3 0
      vertex -5.6 0 0
    endloop
  endfacet
  facet normal 0 0 -1
    outer loop
      vertex -2.25167 1.3 0
      vertex -5.6 5.6 0
      vertex -1.99172 1.67125 0
    endloop
  endfacet
  facet normal 0 0 -1
    outer loop
      vertex -1.99172 1.67125 0
      vertex -5.6 5.6 0
      vertex -1.67125 1.99172 0
    endloop
  endfacet
  facet normal 0 0 -1
    outer loop
      vertex 0.451485 2.5605 0
      vertex -5.6 5.6 0
      vertex 16.4 5.6 0
    endloop
  endfacet
  facet normal 0 0 -1
    outer loop
      vertex -0.889252 2.4432 0
      vertex -5.6 5.6 0
      vertex -0.451485 2.5605 0
    endloop
  endfacet
  facet normal 0 0 -1
    outer loop
      vertex -1.3 2.25167 0
      vertex -5.6 5.6 0
      vertex -0.889252 2.4432 0
    endloop
  endfacet
  facet normal 0 0 -1
    outer loop
      vertex -1.67125 1.99172 0
      vertex -5.6 5.6 0
      vertex -1.3 2.25167 0
    endloop
  endfacet
  facet normal -0.258815 -0.965927 0
    outer loop
      vertex -1.91531 -5.26228 0
      vertex -0.972429 -5.51492 22
      vertex -1.91531 -5.26228 22
    endloop
  endfacet
  facet normal -0.258815 -0.965927 -0
    outer loop
      vertex -0.972429 -5.51492 22
      vertex -1.91531 -5.26228 0
      vertex -0.972429 -5.51492 0
    endloop
  endfacet
  facet normal -0.819153 -0.573574 0
    outer loop
      vertex -4.28985 -3.59961 0
      vertex -4.84974 -2.8 22
      vertex -4.84974 -2.8 0
    endloop
  endfacet
  facet normal -0.819153 -0.573574 0
    outer loop
      vertex -4.84974 -2.8 22
      vertex -4.28985 -3.59961 0
      vertex -4.28985 -3.59961 22
    endloop
  endfacet
  facet normal 0.258815 -0.965927 0
    outer loop
      vertex 0.972429 -5.51492 0
      vertex 1.91531 -5.26228 22
      vertex 0.972429 -5.51492 22
    endloop
  endfacet
  facet normal 0.258815 -0.965927 0
    outer loop
      vertex 1.91531 -5.26228 22
      vertex 0.972429 -5.51492 0
      vertex 1.91531 -5.26228 0
    endloop
  endfacet
  facet normal 0.480422 -0.877037 -1.19579e-06
    outer loop
      vertex 5.07906 -3.60133 8.04558
      vertex 2.8 -4.84974 0
      vertex 5.6 -3.31597 8
    endloop
  endfacet
  facet normal 0.480417 -0.87704 7.51749e-07
    outer loop
      vertex 4.57394 -3.87802 8.18092
      vertex 2.8 -4.84974 0
      vertex 5.07906 -3.60133 8.04558
    endloop
  endfacet
  facet normal 0.480417 -0.87704 9.06642e-07
    outer loop
      vertex 4.1 -4.13763 8.40192
      vertex 2.8 -4.84974 0
      vertex 4.57394 -3.87802 8.18092
    endloop
  endfacet
  facet normal 0.480427 -0.877035 -1.22253e-06
    outer loop
      vertex 3.67164 -4.37228 8.70187
      vertex 2.8 -4.84974 0
      vertex 4.1 -4.13763 8.40192
    endloop
  endfacet
  facet normal 0.480418 -0.877039 -7.37804e-08
    outer loop
      vertex 3.30187 -4.57483 9.07164
      vertex 2.8 -4.84974 0
      vertex 3.67164 -4.37228 8.70187
    endloop
  endfacet
  facet normal 0.480409 -0.877045 6.01471e-07
    outer loop
      vertex 3.00192 -4.73913 9.5
      vertex 2.8 -4.84974 0
      vertex 3.30187 -4.57483 9.07164
    endloop
  endfacet
  facet normal 0.480431 -0.877033 0
    outer loop
      vertex 2.8 -4.84974 0
      vertex 3.00192 -4.73913 9.5
      vertex 2.8 -4.84974 9.93303
    endloop
  endfacet
  facet normal 0.480423 -0.877037 1.27136e-06
    outer loop
      vertex 6.12094 -3.03061 13.9544
      vertex 2.8 -4.84974 22
      vertex 5.6 -3.31597 14
    endloop
  endfacet
  facet normal 0.480422 -0.877037 1.19578e-06
    outer loop
      vertex 2.8 -4.84974 22
      vertex 5.07906 -3.60133 13.9544
      vertex 5.6 -3.31597 14
    endloop
  endfacet
  facet normal 0.480417 -0.87704 -7.51763e-07
    outer loop
      vertex 2.8 -4.84974 22
      vertex 4.57394 -3.87802 13.8191
      vertex 5.07906 -3.60133 13.9544
    endloop
  endfacet
  facet normal 0.480417 -0.87704 -9.06644e-07
    outer loop
      vertex 2.8 -4.84974 22
      vertex 4.1 -4.13763 13.5981
      vertex 4.57394 -3.87802 13.8191
    endloop
  endfacet
  facet normal 0.480427 -0.877035 1.22252e-06
    outer loop
      vertex 2.8 -4.84974 22
      vertex 3.67164 -4.37228 13.2981
      vertex 4.1 -4.13763 13.5981
    endloop
  endfacet
  facet normal 0.480418 -0.877039 7.37814e-08
    outer loop
      vertex 2.8 -4.84974 22
      vertex 3.30187 -4.57483 12.9284
      vertex 3.67164 -4.37228 13.2981
    endloop
  endfacet
  facet normal 0.480409 -0.877045 -6.01469e-07
    outer loop
      vertex 2.8 -4.84974 22
      vertex 3.00192 -4.73913 12.5
      vertex 3.30187 -4.57483 12.9284
    endloop
  endfacet
  facet normal 0.480431 -0.877033 0
    outer loop
      vertex 3.00192 -4.73913 12.5
      vertex 2.8 -4.84974 22
      vertex 2.8 -4.84974 12.067
    endloop
  endfacet
  facet normal 0.480417 -0.87704 -1.9549e-06
    outer loop
      vertex 6.62606 -2.75392 13.8191
      vertex 2.8 -4.84974 22
      vertex 6.12094 -3.03061 13.9544
    endloop
  endfacet
  facet normal 0.48042 -0.877039 1.76889e-09
    outer loop
      vertex 2.8 -4.84974 22
      vertex 6.62606 -2.75392 13.8191
      vertex 16.4 2.6 22
    endloop
  endfacet
  facet normal 0.480418 -0.87704 3.52737e-06
    outer loop
      vertex 7.1 -2.49431 13.5981
      vertex 16.4 2.6 22
      vertex 6.62606 -2.75392 13.8191
    endloop
  endfacet
  facet normal 0.480424 -0.877036 -6.36508e-06
    outer loop
      vertex 7.52836 -2.25966 13.2981
      vertex 16.4 2.6 22
      vertex 7.1 -2.49431 13.5981
    endloop
  endfacet
  facet normal 0.480419 -0.877039 7.82371e-07
    outer loop
      vertex 7.89813 -2.05711 12.9284
      vertex 16.4 2.6 22
      vertex 7.52836 -2.25966 13.2981
    endloop
  endfacet
  facet normal 0.480415 -0.877041 5.91337e-06
    outer loop
      vertex 8.19808 -1.89281 12.5
      vertex 16.4 2.6 22
      vertex 7.89813 -2.05711 12.9284
    endloop
  endfacet
  facet normal 0.480422 -0.877038 -1.96686e-06
    outer loop
      vertex 8.41908 -1.77175 12.0261
      vertex 16.4 2.6 22
      vertex 8.19808 -1.89281 12.5
    endloop
  endfacet
  facet normal 0.480425 -0.877036 -5.33927e-06
    outer loop
      vertex 8.55442 -1.69761 11.5209
      vertex 16.4 2.6 22
      vertex 8.41908 -1.77175 12.0261
    endloop
  endfacet
  facet normal 0.480408 -0.877045 1.14112e-05
    outer loop
      vertex 8.6 -1.67265 11
      vertex 16.4 2.6 22
      vertex 8.55442 -1.69761 11.5209
    endloop
  endfacet
  facet normal 0.480408 -0.877045 -1.14112e-05
    outer loop
      vertex 16.4 2.6 0
      vertex 8.6 -1.67265 11
      vertex 8.55442 -1.69761 10.4791
    endloop
  endfacet
  facet normal 0.480425 -0.877036 5.33958e-06
    outer loop
      vertex 16.4 2.6 0
      vertex 8.55442 -1.69761 10.4791
      vertex 8.41908 -1.77175 9.97394
    endloop
  endfacet
  facet normal 0.480422 -0.877038 1.96675e-06
    outer loop
      vertex 16.4 2.6 0
      vertex 8.41908 -1.77175 9.97394
      vertex 8.19808 -1.89281 9.5
    endloop
  endfacet
  facet normal 0.480423 -0.877037 -1.27135e-06
    outer loop
      vertex 2.8 -4.84974 0
      vertex 6.12094 -3.03061 8.04558
      vertex 5.6 -3.31597 8
    endloop
  endfacet
  facet normal 0.480417 -0.87704 1.95498e-06
    outer loop
      vertex 2.8 -4.84974 0
      vertex 6.62606 -2.75392 8.18092
      vertex 6.12094 -3.03061 8.04558
    endloop
  endfacet
  facet normal 0.48042 -0.877039 -1.76889e-09
    outer loop
      vertex 16.4 2.6 0
      vertex 6.62606 -2.75392 8.18092
      vertex 2.8 -4.84974 0
    endloop
  endfacet
  facet normal 0.480418 -0.87704 -3.52736e-06
    outer loop
      vertex 6.62606 -2.75392 8.18092
      vertex 16.4 2.6 0
      vertex 7.1 -2.49431 8.40192
    endloop
  endfacet
  facet normal 0.480424 -0.877036 6.36554e-06
    outer loop
      vertex 7.1 -2.49431 8.40192
      vertex 16.4 2.6 0
      vertex 7.52836 -2.25966 8.70187
    endloop
  endfacet
  facet normal 0.480419 -0.877039 -7.82298e-07
    outer loop
      vertex 7.52836 -2.25966 8.70187
      vertex 16.4 2.6 0
      vertex 7.89813 -2.05711 9.07164
    endloop
  endfacet
  facet normal 0.480415 -0.877041 -5.91368e-06
    outer loop
      vertex 7.89813 -2.05711 9.07164
      vertex 16.4 2.6 0
      vertex 8.19808 -1.89281 9.5
    endloop
  endfacet
  facet normal 0.48042 -0.877038 0
    outer loop
      vertex 8.6 -1.67265 11
      vertex 16.4 2.6 0
      vertex 16.4 2.6 22
    endloop
  endfacet
  facet normal 0 0 1
    outer loop
      vertex 2.4432 0.889252 22
      vertex 16.4 2.6 22
      vertex 16.4 5.6 22
    endloop
  endfacet
  facet normal 0 0 1
    outer loop
      vertex 16.4 2.6 22
      vertex 2.6 0 22
      vertex 2.5605 -0.451485 22
    endloop
  endfacet
  facet normal 0 0 1
    outer loop
      vertex 16.4 2.6 22
      vertex 2.5605 0.451485 22
      vertex 2.6 0 22
    endloop
  endfacet
  facet normal 0 0 1
    outer loop
      vertex 16.4 2.6 22
      vertex 2.4432 0.889252 22
      vertex 2.5605 0.451485 22
    endloop
  endfacet
  facet normal 0 0 1
    outer loop
      vertex 16.4 5.6 22
      vertex 2.25167 1.3 22
      vertex 2.4432 0.889252 22
    endloop
  endfacet
  facet normal 0 0 1
    outer loop
      vertex 16.4 5.6 22
      vertex 1.99172 1.67125 22
      vertex 2.25167 1.3 22
    endloop
  endfacet
  facet normal 0 0 1
    outer loop
      vertex 16.4 5.6 22
      vertex 1.67125 1.99172 22
      vertex 1.99172 1.67125 22
    endloop
  endfacet
  facet normal 0 0 1
    outer loop
      vertex 16.4 5.6 22
      vertex 1.3 2.25167 22
      vertex 1.67125 1.99172 22
    endloop
  endfacet
  facet normal 0 0 1
    outer loop
      vertex 16.4 5.6 22
      vertex 0.889252 2.4432 22
      vertex 1.3 2.25167 22
    endloop
  endfacet
  facet normal 0 0 1
    outer loop
      vertex 16.4 5.6 22
      vertex 0.451485 2.5605 22
      vertex 0.889252 2.4432 22
    endloop
  endfacet
  facet normal -0 0 1
    outer loop
      vertex -5.6 5.6 22
      vertex 0.451485 2.5605 22
      vertex 16.4 5.6 22
    endloop
  endfacet
  facet normal 0 0 1
    outer loop
      vertex 0.451485 2.5605 22
      vertex -5.6 5.6 22
      vertex 0 2.6 22
    endloop
  endfacet
  facet normal 0 0 1
    outer loop
      vertex -1.67125 -1.99172 22
      vertex -3.59961 -4.28985 22
      vertex -2.8 -4.84974 22
    endloop
  endfacet
  facet normal 0 0 1
    outer loop
      vertex -5.6 0 22
      vertex -2.6 0 22
      vertex -2.5605 0.451485 22
    endloop
  endfacet
  facet normal 0 0 1
    outer loop
      vertex -2.5605 -0.451485 22
      vertex -4.28985 -3.59961 22
      vertex -3.59961 -4.28985 22
    endloop
  endfacet
  facet normal 0 0 1
    outer loop
      vertex -5.6 0 22
      vertex -2.5605 0.451485 22
      vertex -2.4432 0.889252 22
    endloop
  endfacet
  facet normal 0 0 1
    outer loop
      vertex -2.5605 -0.451485 22
      vertex -4.84974 -2.8 22
      vertex -4.28985 -3.59961 22
    endloop
  endfacet
  facet normal 0 0 1
    outer loop
      vertex -5.6 0 22
      vertex -2.4432 0.889252 22
      vertex -2.25167 1.3 22
    endloop
  endfacet
  facet normal 0 0 1
    outer loop
      vertex -2.5605 -0.451485 22
      vertex -5.26228 -1.91531 22
      vertex -4.84974 -2.8 22
    endloop
  endfacet
  facet normal 0 0 1
    outer loop
      vertex -5.6 5.6 22
      vertex -2.25167 1.3 22
      vertex -1.99172 1.67125 22
    endloop
  endfacet
  facet normal 0 0 1
    outer loop
      vertex -2.5605 -0.451485 22
      vertex -5.51492 -0.972429 22
      vertex -5.26228 -1.91531 22
    endloop
  endfacet
  facet normal 0 0 1
    outer loop
      vertex -5.6 5.6 22
      vertex -1.99172 1.67125 22
      vertex -1.67125 1.99172 22
    endloop
  endfacet
  facet normal 0 0 1
    outer loop
      vertex 0 2.6 22
      vertex -5.6 5.6 22
      vertex -0.451485 2.5605 22
    endloop
  endfacet
  facet normal 0 0 1
    outer loop
      vertex -5.6 5.6 22
      vertex -0.889252 2.4432 22
      vertex -0.451485 2.5605 22
    endloop
  endfacet
  facet normal 0 0 1
    outer loop
      vertex -5.6 5.6 22
      vertex -1.3 2.25167 22
      vertex -0.889252 2.4432 22
    endloop
  endfacet
  facet normal 0 0 1
    outer loop
      vertex -5.6 5.6 22
      vertex -1.67125 1.99172 22
      vertex -1.3 2.25167 22
    endloop
  endfacet
  facet normal 0 0 1
    outer loop
      vertex -2.25167 1.3 22
      vertex -5.6 5.6 22
      vertex -5.6 0 22
    endloop
  endfacet
  facet normal 0 0 1
    outer loop
      vertex -2.6 0 22
      vertex -5.6 0 22
      vertex -5.51492 -0.972429 22
    endloop
  endfacet
  facet normal 0 0 1
    outer loop
      vertex 16.4 2.6 22
      vertex 2.5605 -0.451485 22
      vertex 2.8 -4.84974 22
    endloop
  endfacet
  facet normal -0 0 1
    outer loop
      vertex 2.4432 -0.889252 22
      vertex 2.8 -4.84974 22
      vertex 2.5605 -0.451485 22
    endloop
  endfacet
  facet normal -0 0 1
    outer loop
      vertex 2.25167 -1.3 22
      vertex 2.8 -4.84974 22
      vertex 2.4432 -0.889252 22
    endloop
  endfacet
  facet normal -0 0 1
    outer loop
      vertex 1.99172 -1.67125 22
      vertex 2.8 -4.84974 22
      vertex 2.25167 -1.3 22
    endloop
  endfacet
  facet normal -0 0 1
    outer loop
      vertex 1.67125 -1.99172 22
      vertex 2.8 -4.84974 22
      vertex 1.99172 -1.67125 22
    endloop
  endfacet
  facet normal -0 0 1
    outer loop
      vertex 1.3 -2.25167 22
      vertex 2.8 -4.84974 22
      vertex 1.67125 -1.99172 22
    endloop
  endfacet
  facet normal 0 0 1
    outer loop
      vertex 2.8 -4.84974 22
      vertex 1.3 -2.25167 22
      vertex 1.91531 -5.26228 22
    endloop
  endfacet
  facet normal -0 0 1
    outer loop
      vertex 0.889252 -2.4432 22
      vertex 1.91531 -5.26228 22
      vertex 1.3 -2.25167 22
    endloop
  endfacet
  facet normal 0 0 1
    outer loop
      vertex 1.91531 -5.26228 22
      vertex 0.889252 -2.4432 22
      vertex 0.972429 -5.51492 22
    endloop
  endfacet
  facet normal -0 0 1
    outer loop
      vertex 0.451485 -2.5605 22
      vertex 0.972429 -5.51492 22
      vertex 0.889252 -2.4432 22
    endloop
  endfacet
  facet normal -0 0 1
    outer loop
      vertex 0 -2.6 22
      vertex 0.972429 -5.51492 22
      vertex 0.451485 -2.5605 22
    endloop
  endfacet
  facet normal 0 0 1
    outer loop
      vertex 0 -2.6 22
      vertex 0 -5.6 22
      vertex 0.972429 -5.51492 22
    endloop
  endfacet
  facet normal 0 0 1
    outer loop
      vertex -0.451485 -2.5605 22
      vertex 0 -5.6 22
      vertex 0 -2.6 22
    endloop
  endfacet
  facet normal 0 0 1
    outer loop
      vertex -0.972429 -5.51492 22
      vertex -0.451485 -2.5605 22
      vertex -0.889252 -2.4432 22
    endloop
  endfacet
  facet normal 0 0 1
    outer loop
      vertex -0.451485 -2.5605 22
      vertex -0.972429 -5.51492 22
      vertex 0 -5.6 22
    endloop
  endfacet
  facet normal 0 0 1
    outer loop
      vertex -1.91531 -5.26228 22
      vertex -0.889252 -2.4432 22
      vertex -1.3 -2.25167 22
    endloop
  endfacet
  facet normal 0 0 1
    outer loop
      vertex -2.8 -4.84974 22
      vertex -1.3 -2.25167 22
      vertex -1.67125 -1.99172 22
    endloop
  endfacet
  facet normal 0 0 1
    outer loop
      vertex -0.889252 -2.4432 22
      vertex -1.91531 -5.26228 22
      vertex -0.972429 -5.51492 22
    endloop
  endfacet
  facet normal 0 0 1
    outer loop
      vertex -3.59961 -4.28985 22
      vertex -1.67125 -1.99172 22
      vertex -1.99172 -1.67125 22
    endloop
  endfacet
  facet normal 0 0 1
    outer loop
      vertex -3.59961 -4.28985 22
      vertex -1.99172 -1.67125 22
      vertex -2.25167 -1.3 22
    endloop
  endfacet
  facet normal 0 0 1
    outer loop
      vertex -3.59961 -4.28985 22
      vertex -2.25167 -1.3 22
      vertex -2.4432 -0.889252 22
    endloop
  endfacet
  facet normal 0 0 1
    outer loop
      vertex -3.59961 -4.28985 22
      vertex -2.4432 -0.889252 22
      vertex -2.5605 -0.451485 22
    endloop
  endfacet
  facet normal 0 0 1
    outer loop
      vertex -1.3 -2.25167 22
      vertex -2.8 -4.84974 22
      vertex -1.91531 -5.26228 22
    endloop
  endfacet
  facet normal 0 0 1
    outer loop
      vertex -5.51492 -0.972429 22
      vertex -2.5605 -0.451485 22
      vertex -2.6 0 22
    endloop
  endfacet
  facet normal -0.25882 -0.965925 0
    outer loop
      vertex 0.451485 2.5605 0
      vertex 0.889252 2.4432 22
      vertex 0.451485 2.5605 22
    endloop
  endfacet
  facet normal -0.25882 -0.965925 -0
    outer loop
      vertex 0.889252 2.4432 22
      vertex 0.451485 2.5605 0
      vertex 0.889252 2.4432 0
    endloop
  endfacet
  facet normal 0.25882 -0.965925 0
    outer loop
      vertex -0.889252 2.4432 0
      vertex -0.451485 2.5605 22
      vertex -0.889252 2.4432 22
    endloop
  endfacet
  facet normal 0.25882 -0.965925 0
    outer loop
      vertex -0.451485 2.5605 22
      vertex -0.889252 2.4432 0
      vertex -0.451485 2.5605 0
    endloop
  endfacet
  facet normal -0.819154 0.573573 0
    outer loop
      vertex 1.99172 -1.67125 0
      vertex 2.25167 -1.3 22
      vertex 2.25167 -1.3 0
    endloop
  endfacet
  facet normal -0.819154 0.573573 0
    outer loop
      vertex 2.25167 -1.3 22
      vertex 1.99172 -1.67125 0
      vertex 1.99172 -1.67125 22
    endloop
  endfacet
  facet normal 0.965925 0.25882 0
    outer loop
      vertex -2.4432 -0.889252 22
      vertex -2.5605 -0.451485 0
      vertex -2.5605 -0.451485 22
    endloop
  endfacet
  facet normal 0.965925 0.25882 0
    outer loop
      vertex -2.5605 -0.451485 0
      vertex -2.4432 -0.889252 22
      vertex -2.4432 -0.889252 0
    endloop
  endfacet
  facet normal 0.996195 0.0871561 0
    outer loop
      vertex -2.5605 -0.451485 22
      vertex -2.6 0 0
      vertex -2.6 0 22
    endloop
  endfacet
  facet normal 0.996195 0.0871561 0
    outer loop
      vertex -2.6 0 0
      vertex -2.5605 -0.451485 22
      vertex -2.5605 -0.451485 0
    endloop
  endfacet
  facet normal 0.707107 -0.707107 0
    outer loop
      vertex -1.99172 1.67125 22
      vertex -1.67125 1.99172 0
      vertex -1.67125 1.99172 22
    endloop
  endfacet
  facet normal 0.707107 -0.707107 0
    outer loop
      vertex -1.67125 1.99172 0
      vertex -1.99172 1.67125 22
      vertex -1.99172 1.67125 0
    endloop
  endfacet
  facet normal -0.996195 0.0871561 0
    outer loop
      vertex 2.5605 -0.451485 0
      vertex 2.6 0 22
      vertex 2.6 0 0
    endloop
  endfacet
  facet normal -0.996195 0.0871561 0
    outer loop
      vertex 2.6 0 22
      vertex 2.5605 -0.451485 0
      vertex 2.5605 -0.451485 22
    endloop
  endfacet
  facet normal -0.906312 -0.422609 0
    outer loop
      vertex 2.4432 0.889252 0
      vertex 2.25167 1.3 22
      vertex 2.25167 1.3 0
    endloop
  endfacet
  facet normal -0.906312 -0.422609 0
    outer loop
      vertex 2.25167 1.3 22
      vertex 2.4432 0.889252 0
      vertex 2.4432 0.889252 22
    endloop
  endfacet
  facet normal -0.707107 0.707107 0
    outer loop
      vertex 1.67125 -1.99172 0
      vertex 1.99172 -1.67125 22
      vertex 1.99172 -1.67125 0
    endloop
  endfacet
  facet normal -0.707107 0.707107 0
    outer loop
      vertex 1.99172 -1.67125 22
      vertex 1.67125 -1.99172 0
      vertex 1.67125 -1.99172 22
    endloop
  endfacet
  facet normal 0.965925 -0.25882 0
    outer loop
      vertex -2.5605 0.451485 22
      vertex -2.4432 0.889252 0
      vertex -2.4432 0.889252 22
    endloop
  endfacet
  facet normal 0.965925 -0.25882 0
    outer loop
      vertex -2.4432 0.889252 0
      vertex -2.5605 0.451485 22
      vertex -2.5605 0.451485 0
    endloop
  endfacet
  facet normal 0.996195 -0.0871561 0
    outer loop
      vertex -2.6 0 22
      vertex -2.5605 0.451485 0
      vertex -2.5605 0.451485 22
    endloop
  endfacet
  facet normal 0.996195 -0.0871561 0
    outer loop
      vertex -2.5605 0.451485 0
      vertex -2.6 0 22
      vertex -2.6 0 0
    endloop
  endfacet
  facet normal -0.996195 -0.0871561 0
    outer loop
      vertex 2.6 0 0
      vertex 2.5605 0.451485 22
      vertex 2.5605 0.451485 0
    endloop
  endfacet
  facet normal -0.996195 -0.0871561 0
    outer loop
      vertex 2.5605 0.451485 22
      vertex 2.6 0 0
      vertex 2.6 0 22
    endloop
  endfacet
  facet normal -0.422609 -0.906312 0
    outer loop
      vertex 0.889252 2.4432 0
      vertex 1.3 2.25167 22
      vertex 0.889252 2.4432 22
    endloop
  endfacet
  facet normal -0.422609 -0.906312 -0
    outer loop
      vertex 1.3 2.25167 22
      vertex 0.889252 2.4432 0
      vertex 1.3 2.25167 0
    endloop
  endfacet
  facet normal -0.965925 -0.25882 0
    outer loop
      vertex 2.5605 0.451485 0
      vertex 2.4432 0.889252 22
      vertex 2.4432 0.889252 0
    endloop
  endfacet
  facet normal -0.965925 -0.25882 0
    outer loop
      vertex 2.4432 0.889252 22
      vertex 2.5605 0.451485 0
      vertex 2.5605 0.451485 22
    endloop
  endfacet
  facet normal -0.906312 0.422609 0
    outer loop
      vertex 2.25167 -1.3 0
      vertex 2.4432 -0.889252 22
      vertex 2.4432 -0.889252 0
    endloop
  endfacet
  facet normal -0.906312 0.422609 0
    outer loop
      vertex 2.4432 -0.889252 22
      vertex 2.25167 -1.3 0
      vertex 2.25167 -1.3 22
    endloop
  endfacet
  facet normal -0.573573 -0.819154 0
    outer loop
      vertex 1.3 2.25167 0
      vertex 1.67125 1.99172 22
      vertex 1.3 2.25167 22
    endloop
  endfacet
  facet normal -0.573573 -0.819154 -0
    outer loop
      vertex 1.67125 1.99172 22
      vertex 1.3 2.25167 0
      vertex 1.67125 1.99172 0
    endloop
  endfacet
  facet normal 0.422609 -0.906312 0
    outer loop
      vertex -1.3 2.25167 0
      vertex -0.889252 2.4432 22
      vertex -1.3 2.25167 22
    endloop
  endfacet
  facet normal 0.422609 -0.906312 0
    outer loop
      vertex -0.889252 2.4432 22
      vertex -1.3 2.25167 0
      vertex -0.889252 2.4432 0
    endloop
  endfacet
  facet normal 0.707107 0.707107 0
    outer loop
      vertex -1.67125 -1.99172 22
      vertex -1.99172 -1.67125 0
      vertex -1.99172 -1.67125 22
    endloop
  endfacet
  facet normal 0.707107 0.707107 0
    outer loop
      vertex -1.99172 -1.67125 0
      vertex -1.67125 -1.99172 22
      vertex -1.67125 -1.99172 0
    endloop
  endfacet
  facet normal 0.422609 0.906312 -0
    outer loop
      vertex -0.889252 -2.4432 0
      vertex -1.3 -2.25167 22
      vertex -0.889252 -2.4432 22
    endloop
  endfacet
  facet normal 0.422609 0.906312 0
    outer loop
      vertex -1.3 -2.25167 22
      vertex -0.889252 -2.4432 0
      vertex -1.3 -2.25167 0
    endloop
  endfacet
  facet normal 0.25882 0.965925 -0
    outer loop
      vertex -0.451485 -2.5605 0
      vertex -0.889252 -2.4432 22
      vertex -0.451485 -2.5605 22
    endloop
  endfacet
  facet normal 0.25882 0.965925 0
    outer loop
      vertex -0.889252 -2.4432 22
      vertex -0.451485 -2.5605 0
      vertex -0.889252 -2.4432 0
    endloop
  endfacet
  facet normal -0.707107 -0.707107 0
    outer loop
      vertex 1.99172 1.67125 0
      vertex 1.67125 1.99172 22
      vertex 1.67125 1.99172 0
    endloop
  endfacet
  facet normal -0.707107 -0.707107 0
    outer loop
      vertex 1.67125 1.99172 22
      vertex 1.99172 1.67125 0
      vertex 1.99172 1.67125 22
    endloop
  endfacet
  facet normal -0.965925 0.25882 0
    outer loop
      vertex 2.4432 -0.889252 0
      vertex 2.5605 -0.451485 22
      vertex 2.5605 -0.451485 0
    endloop
  endfacet
  facet normal -0.965925 0.25882 0
    outer loop
      vertex 2.5605 -0.451485 22
      vertex 2.4432 -0.889252 0
      vertex 2.4432 -0.889252 22
    endloop
  endfacet
  facet normal -0.0871561 0.996195 0
    outer loop
      vertex 0.451485 -2.5605 0
      vertex 0 -2.6 22
      vertex 0.451485 -2.5605 22
    endloop
  endfacet
  facet normal -0.0871561 0.996195 0
    outer loop
      vertex 0 -2.6 22
      vertex 0.451485 -2.5605 0
      vertex 0 -2.6 0
    endloop
  endfacet
  facet normal -0.819154 -0.573573 0
    outer loop
      vertex 2.25167 1.3 0
      vertex 1.99172 1.67125 22
      vertex 1.99172 1.67125 0
    endloop
  endfacet
  facet normal -0.819154 -0.573573 0
    outer loop
      vertex 1.99172 1.67125 22
      vertex 2.25167 1.3 0
      vertex 2.25167 1.3 22
    endloop
  endfacet
  facet normal -0.0871561 -0.996195 0
    outer loop
      vertex 0 2.6 0
      vertex 0.451485 2.5605 22
      vertex 0 2.6 22
    endloop
  endfacet
  facet normal -0.0871561 -0.996195 -0
    outer loop
      vertex 0.451485 2.5605 22
      vertex 0 2.6 0
      vertex 0.451485 2.5605 0
    endloop
  endfacet
  facet normal -0.573573 0.819154 0
    outer loop
      vertex 1.67125 -1.99172 0
      vertex 1.3 -2.25167 22
      vertex 1.67125 -1.99172 22
    endloop
  endfacet
  facet normal -0.573573 0.819154 0
    outer loop
      vertex 1.3 -2.25167 22
      vertex 1.67125 -1.99172 0
      vertex 1.3 -2.25167 0
    endloop
  endfacet
  facet normal 0.819154 -0.573573 0
    outer loop
      vertex -2.25167 1.3 22
      vertex -1.99172 1.67125 0
      vertex -1.99172 1.67125 22
    endloop
  endfacet
  facet normal 0.819154 -0.573573 0
    outer loop
      vertex -1.99172 1.67125 0
      vertex -2.25167 1.3 22
      vertex -2.25167 1.3 0
    endloop
  endfacet
  facet normal 0.906312 -0.422609 0
    outer loop
      vertex -2.4432 0.889252 22
      vertex -2.25167 1.3 0
      vertex -2.25167 1.3 22
    endloop
  endfacet
  facet normal 0.906312 -0.422609 0
    outer loop
      vertex -2.25167 1.3 0
      vertex -2.4432 0.889252 22
      vertex -2.4432 0.889252 0
    endloop
  endfacet
  facet normal 0.573573 -0.819154 0
    outer loop
      vertex -1.67125 1.99172 0
      vertex -1.3 2.25167 22
      vertex -1.67125 1.99172 22
    endloop
  endfacet
  facet normal 0.573573 -0.819154 0
    outer loop
      vertex -1.3 2.25167 22
      vertex -1.67125 1.99172 0
      vertex -1.3 2.25167 0
    endloop
  endfacet
  facet normal 0.906312 0.422609 0
    outer loop
      vertex -2.25167 -1.3 22
      vertex -2.4432 -0.889252 0
      vertex -2.4432 -0.889252 22
    endloop
  endfacet
  facet normal 0.906312 0.422609 0
    outer loop
      vertex -2.4432 -0.889252 0
      vertex -2.25167 -1.3 22
      vertex -2.25167 -1.3 0
    endloop
  endfacet
  facet normal -0.25882 0.965925 0
    outer loop
      vertex 0.889252 -2.4432 0
      vertex 0.451485 -2.5605 22
      vertex 0.889252 -2.4432 22
    endloop
  endfacet
  facet normal -0.25882 0.965925 0
    outer loop
      vertex 0.451485 -2.5605 22
      vertex 0.889252 -2.4432 0
      vertex 0.451485 -2.5605 0
    endloop
  endfacet
  facet normal -0.422609 0.906312 0
    outer loop
      vertex 1.3 -2.25167 0
      vertex 0.889252 -2.4432 22
      vertex 1.3 -2.25167 22
    endloop
  endfacet
  facet normal -0.422609 0.906312 0
    outer loop
      vertex 0.889252 -2.4432 22
      vertex 1.3 -2.25167 0
      vertex 0.889252 -2.4432 0
    endloop
  endfacet
  facet normal 0.819154 0.573573 0
    outer loop
      vertex -1.99172 -1.67125 22
      vertex -2.25167 -1.3 0
      vertex -2.25167 -1.3 22
    endloop
  endfacet
  facet normal 0.819154 0.573573 0
    outer loop
      vertex -2.25167 -1.3 0
      vertex -1.99172 -1.67125 22
      vertex -1.99172 -1.67125 0
    endloop
  endfacet
  facet normal 0.0871561 -0.996195 0
    outer loop
      vertex -0.451485 2.5605 0
      vertex 0 2.6 22
      vertex -0.451485 2.5605 22
    endloop
  endfacet
  facet normal 0.0871561 -0.996195 0
    outer loop
      vertex 0 2.6 22
      vertex -0.451485 2.5605 0
      vertex 0 2.6 0
    endloop
  endfacet
  facet normal 0.573573 0.819154 -0
    outer loop
      vertex -1.3 -2.25167 0
      vertex -1.67125 -1.99172 22
      vertex -1.3 -2.25167 22
    endloop
  endfacet
  facet normal 0.573573 0.819154 0
    outer loop
      vertex -1.67125 -1.99172 22
      vertex -1.3 -2.25167 0
      vertex -1.67125 -1.99172 0
    endloop
  endfacet
  facet normal 0.0871561 0.996195 -0
    outer loop
      vertex 0 -2.6 0
      vertex -0.451485 -2.5605 22
      vertex 0 -2.6 22
    endloop
  endfacet
  facet normal 0.0871561 0.996195 0
    outer loop
      vertex -0.451485 -2.5605 22
      vertex 0 -2.6 0
      vertex -0.451485 -2.5605 0
    endloop
  endfacet
endsolid OpenSCAD_Model
