  0
SECTION
  2
BLOCKS
  0
ENDSEC
  0
SECTION
  2
ENTITIES
  0
LINE
  8
0
 10
85.2
 20
85.2
 11
0
 21
85.2
  0
LINE
  8
0
 10
0
 20
85.2
 11
0
 21
0
  0
LINE
  8
0
 10
0
 20
0
 11
85.2
 21
0
  0
LINE
  8
0
 10
85.2
 20
0
 11
85.2
 21
85.2
  0
LINE
  8
0
 10
42.0328
 20
10.1049
 11
41.4658
 21
10.1198
  0
LINE
  8
0
 10
41.4658
 20
10.1198
 11
40.8991
 21
10.1445
  0
LINE
  8
0
 10
40.8991
 20
10.1445
 11
40.3329
 21
10.1792
  0
LINE
  8
0
 10
40.3329
 20
10.1792
 11
39.7674
 21
10.2237
  0
LINE
  8
0
 10
39.7674
 20
10.2237
 11
39.2028
 21
10.278
  0
LINE
  8
0
 10
39.2028
 20
10.278
 11
38.6392
 21
10.3422
  0
LINE
  8
0
 10
38.6392
 20
10.3422
 11
38.0769
 21
10.4163
  0
LINE
  8
0
 10
38.0769
 20
10.4163
 11
37.5159
 21
10.5001
  0
LINE
  8
0
 10
37.5159
 20
10.5001
 11
36.9564
 21
10.5937
  0
LINE
  8
0
 10
36.9564
 20
10.5937
 11
36.3987
 21
10.6971
  0
LINE
  8
0
 10
36.3987
 20
10.6971
 11
35.8429
 21
10.8102
  0
LINE
  8
0
 10
35.8429
 20
10.8102
 11
35.2891
 21
10.933
  0
LINE
  8
0
 10
35.2891
 20
10.933
 11
34.7375
 21
11.0654
  0
LINE
  8
0
 10
34.7375
 20
11.0654
 11
34.1884
 21
11.2074
  0
LINE
  8
0
 10
34.1884
 20
11.2074
 11
33.6418
 21
11.359
  0
LINE
  8
0
 10
33.6418
 20
11.359
 11
33.0979
 21
11.5201
  0
LINE
  8
0
 10
33.0979
 20
11.5201
 11
32.5569
 21
11.6907
  0
LINE
  8
0
 10
32.5569
 20
11.6907
 11
32.019
 21
11.8706
  0
LINE
  8
0
 10
32.019
 20
11.8706
 11
31.4843
 21
12.06
  0
LINE
  8
0
 10
31.4843
 20
12.06
 11
30.953
 21
12.2586
  0
LINE
  8
0
 10
30.953
 20
12.2586
 11
30.4253
 21
12.4665
  0
LINE
  8
0
 10
30.4253
 20
12.4665
 11
29.9012
 21
12.6836
  0
LINE
  8
0
 10
29.9012
 20
12.6836
 11
29.3811
 21
12.9098
  0
LINE
  8
0
 10
29.3811
 20
12.9098
 11
28.8649
 21
13.145
  0
LINE
  8
0
 10
28.8649
 20
13.145
 11
28.3529
 21
13.3892
  0
LINE
  8
0
 10
28.3529
 20
13.3892
 11
27.8453
 21
13.6423
  0
LINE
  8
0
 10
27.8453
 20
13.6423
 11
27.3422
 21
13.9042
  0
LINE
  8
0
 10
27.3422
 20
13.9042
 11
26.8437
 21
14.1749
  0
LINE
  8
0
 10
26.8437
 20
14.1749
 11
26.35
 21
14.4542
  0
LINE
  8
0
 10
26.35
 20
14.4542
 11
25.8613
 21
14.7421
  0
LINE
  8
0
 10
25.8613
 20
14.7421
 11
25.3776
 21
15.0384
  0
LINE
  8
0
 10
25.3776
 20
15.0384
 11
24.8992
 21
15.3432
  0
LINE
  8
0
 10
24.8992
 20
15.3432
 11
24.4262
 21
15.6563
  0
LINE
  8
0
 10
24.4262
 20
15.6563
 11
23.9588
 21
15.9776
  0
LINE
  8
0
 10
23.9588
 20
15.9776
 11
23.497
 21
16.3069
  0
LINE
  8
0
 10
23.497
 20
16.3069
 11
23.041
 21
16.6443
  0
LINE
  8
0
 10
23.041
 20
16.6443
 11
22.591
 21
16.9896
  0
LINE
  8
0
 10
22.591
 20
16.9896
 11
22.1471
 21
17.3427
  0
LINE
  8
0
 10
22.1471
 20
17.3427
 11
21.7094
 21
17.7036
  0
LINE
  8
0
 10
21.7094
 20
17.7036
 11
21.2781
 21
18.0719
  0
LINE
  8
0
 10
21.2781
 20
18.0719
 11
20.8532
 21
18.4478
  0
LINE
  8
0
 10
20.8532
 20
18.4478
 11
20.435
 21
18.831
  0
LINE
  8
0
 10
20.435
 20
18.831
 11
20.0236
 21
19.2215
  0
LINE
  8
0
 10
20.0236
 20
19.2215
 11
19.619
 21
19.619
  0
LINE
  8
0
 10
19.619
 20
19.619
 11
19.2215
 21
20.0236
  0
LINE
  8
0
 10
19.2215
 20
20.0236
 11
18.831
 21
20.435
  0
LINE
  8
0
 10
18.831
 20
20.435
 11
18.4478
 21
20.8532
  0
LINE
  8
0
 10
18.4478
 20
20.8532
 11
18.0719
 21
21.2781
  0
LINE
  8
0
 10
18.0719
 20
21.2781
 11
17.7036
 21
21.7094
  0
LINE
  8
0
 10
17.7036
 20
21.7094
 11
17.3427
 21
22.1471
  0
LINE
  8
0
 10
17.3427
 20
22.1471
 11
16.9896
 21
22.591
  0
LINE
  8
0
 10
16.9896
 20
22.591
 11
16.6443
 21
23.041
  0
LINE
  8
0
 10
16.6443
 20
23.041
 11
16.3069
 21
23.497
  0
LINE
  8
0
 10
16.3069
 20
23.497
 11
15.9776
 21
23.9588
  0
LINE
  8
0
 10
15.9776
 20
23.9588
 11
15.6563
 21
24.4262
  0
LINE
  8
0
 10
15.6563
 20
24.4262
 11
15.3432
 21
24.8992
  0
LINE
  8
0
 10
15.3432
 20
24.8992
 11
15.0384
 21
25.3776
  0
LINE
  8
0
 10
15.0384
 20
25.3776
 11
14.7421
 21
25.8613
  0
LINE
  8
0
 10
14.7421
 20
25.8613
 11
14.4542
 21
26.35
  0
LINE
  8
0
 10
14.4542
 20
26.35
 11
14.1749
 21
26.8437
  0
LINE
  8
0
 10
14.1749
 20
26.8437
 11
13.9042
 21
27.3422
  0
LINE
  8
0
 10
13.9042
 20
27.3422
 11
13.6423
 21
27.8453
  0
LINE
  8
0
 10
13.6423
 20
27.8453
 11
13.3892
 21
28.3529
  0
LINE
  8
0
 10
13.3892
 20
28.3529
 11
13.145
 21
28.8649
  0
LINE
  8
0
 10
13.145
 20
28.8649
 11
12.9098
 21
29.3811
  0
LINE
  8
0
 10
12.9098
 20
29.3811
 11
12.6836
 21
29.9012
  0
LINE
  8
0
 10
12.6836
 20
29.9012
 11
12.4665
 21
30.4253
  0
LINE
  8
0
 10
12.4665
 20
30.4253
 11
12.2586
 21
30.953
  0
LINE
  8
0
 10
12.2586
 20
30.953
 11
12.06
 21
31.4843
  0
LINE
  8
0
 10
12.06
 20
31.4843
 11
11.8706
 21
32.019
  0
LINE
  8
0
 10
11.8706
 20
32.019
 11
11.6907
 21
32.5569
  0
LINE
  8
0
 10
11.6907
 20
32.5569
 11
11.5201
 21
33.0979
  0
LINE
  8
0
 10
11.5201
 20
33.0979
 11
11.359
 21
33.6418
  0
LINE
  8
0
 10
11.359
 20
33.6418
 11
11.2074
 21
34.1884
  0
LINE
  8
0
 10
11.2074
 20
34.1884
 11
11.0654
 21
34.7375
  0
LINE
  8
0
 10
11.0654
 20
34.7375
 11
10.933
 21
35.2891
  0
LINE
  8
0
 10
10.933
 20
35.2891
 11
10.8102
 21
35.8429
  0
LINE
  8
0
 10
10.8102
 20
35.8429
 11
10.6971
 21
36.3987
  0
LINE
  8
0
 10
10.6971
 20
36.3987
 11
10.5937
 21
36.9564
  0
LINE
  8
0
 10
10.5937
 20
36.9564
 11
10.5001
 21
37.5159
  0
LINE
  8
0
 10
10.5001
 20
37.5159
 11
10.4163
 21
38.0769
  0
LINE
  8
0
 10
10.4163
 20
38.0769
 11
10.3422
 21
38.6392
  0
LINE
  8
0
 10
10.3422
 20
38.6392
 11
10.278
 21
39.2028
  0
LINE
  8
0
 10
10.278
 20
39.2028
 11
10.2237
 21
39.7674
  0
LINE
  8
0
 10
10.2237
 20
39.7674
 11
10.1792
 21
40.3329
  0
LINE
  8
0
 10
10.1792
 20
40.3329
 11
10.1445
 21
40.8991
  0
LINE
  8
0
 10
10.1445
 20
40.8991
 11
10.1198
 21
41.4658
  0
LINE
  8
0
 10
10.1198
 20
41.4658
 11
10.1049
 21
42.0328
  0
LINE
  8
0
 10
10.1049
 20
42.0328
 11
10.1
 21
42.6
  0
LINE
  8
0
 10
10.1
 20
42.6
 11
10.1049
 21
43.1672
  0
LINE
  8
0
 10
10.1049
 20
43.1672
 11
10.1198
 21
43.7342
  0
LINE
  8
0
 10
10.1198
 20
43.7342
 11
10.1445
 21
44.3009
  0
LINE
  8
0
 10
10.1445
 20
44.3009
 11
10.1792
 21
44.8671
  0
LINE
  8
0
 10
10.1792
 20
44.8671
 11
10.2237
 21
45.4326
  0
LINE
  8
0
 10
10.2237
 20
45.4326
 11
10.278
 21
45.9972
  0
LINE
  8
0
 10
10.278
 20
45.9972
 11
10.3422
 21
46.5607
  0
LINE
  8
0
 10
10.3422
 20
46.5607
 11
10.4163
 21
47.1231
  0
LINE
  8
0
 10
10.4163
 20
47.1231
 11
10.5001
 21
47.6841
  0
LINE
  8
0
 10
10.5001
 20
47.6841
 11
10.5937
 21
48.2436
  0
LINE
  8
0
 10
10.5937
 20
48.2436
 11
10.6971
 21
48.8013
  0
LINE
  8
0
 10
10.6971
 20
48.8013
 11
10.8102
 21
49.3571
  0
LINE
  8
0
 10
10.8102
 20
49.3571
 11
10.933
 21
49.9109
  0
LINE
  8
0
 10
10.933
 20
49.9109
 11
11.0654
 21
50.4624
  0
LINE
  8
0
 10
11.0654
 20
50.4624
 11
11.2074
 21
51.0116
  0
LINE
  8
0
 10
11.2074
 20
51.0116
 11
11.359
 21
51.5582
  0
LINE
  8
0
 10
11.359
 20
51.5582
 11
11.5201
 21
52.1021
  0
LINE
  8
0
 10
11.5201
 20
52.1021
 11
11.6907
 21
52.6431
  0
LINE
  8
0
 10
11.6907
 20
52.6431
 11
11.8706
 21
53.181
  0
LINE
  8
0
 10
11.8706
 20
53.181
 11
12.06
 21
53.7157
  0
LINE
  8
0
 10
12.06
 20
53.7157
 11
12.2586
 21
54.2469
  0
LINE
  8
0
 10
12.2586
 20
54.2469
 11
12.4665
 21
54.7747
  0
LINE
  8
0
 10
12.4665
 20
54.7747
 11
12.6836
 21
55.2988
  0
LINE
  8
0
 10
12.6836
 20
55.2988
 11
12.9098
 21
55.8189
  0
LINE
  8
0
 10
12.9098
 20
55.8189
 11
13.145
 21
56.3351
  0
LINE
  8
0
 10
13.145
 20
56.3351
 11
13.3892
 21
56.8471
  0
LINE
  8
0
 10
13.3892
 20
56.8471
 11
13.6423
 21
57.3547
  0
LINE
  8
0
 10
13.6423
 20
57.3547
 11
13.9042
 21
57.8578
  0
LINE
  8
0
 10
13.9042
 20
57.8578
 11
14.1749
 21
58.3563
  0
LINE
  8
0
 10
14.1749
 20
58.3563
 11
14.4542
 21
58.85
  0
LINE
  8
0
 10
14.4542
 20
58.85
 11
14.7421
 21
59.3387
  0
LINE
  8
0
 10
14.7421
 20
59.3387
 11
15.0384
 21
59.8224
  0
LINE
  8
0
 10
15.0384
 20
59.8224
 11
15.3432
 21
60.3008
  0
LINE
  8
0
 10
15.3432
 20
60.3008
 11
15.6563
 21
60.7738
  0
LINE
  8
0
 10
15.6563
 20
60.7738
 11
15.9776
 21
61.2412
  0
LINE
  8
0
 10
15.9776
 20
61.2412
 11
16.3069
 21
61.703
  0
LINE
  8
0
 10
16.3069
 20
61.703
 11
16.6443
 21
62.159
  0
LINE
  8
0
 10
16.6443
 20
62.159
 11
16.9896
 21
62.609
  0
LINE
  8
0
 10
16.9896
 20
62.609
 11
17.3427
 21
63.0529
  0
LINE
  8
0
 10
17.3427
 20
63.0529
 11
17.7036
 21
63.4906
  0
LINE
  8
0
 10
17.7036
 20
63.4906
 11
18.0719
 21
63.9219
  0
LINE
  8
0
 10
18.0719
 20
63.9219
 11
18.4478
 21
64.3467
  0
LINE
  8
0
 10
18.4478
 20
64.3467
 11
18.831
 21
64.7649
  0
LINE
  8
0
 10
18.831
 20
64.7649
 11
19.2215
 21
65.1764
  0
LINE
  8
0
 10
19.2215
 20
65.1764
 11
19.619
 21
65.581
  0
LINE
  8
0
 10
19.619
 20
65.581
 11
20.0236
 21
65.9785
  0
LINE
  8
0
 10
20.0236
 20
65.9785
 11
20.435
 21
66.369
  0
LINE
  8
0
 10
20.435
 20
66.369
 11
20.8532
 21
66.7522
  0
LINE
  8
0
 10
20.8532
 20
66.7522
 11
21.2781
 21
67.1281
  0
LINE
  8
0
 10
21.2781
 20
67.1281
 11
21.7094
 21
67.4964
  0
LINE
  8
0
 10
21.7094
 20
67.4964
 11
22.1471
 21
67.8572
  0
LINE
  8
0
 10
22.1471
 20
67.8572
 11
22.591
 21
68.2103
  0
LINE
  8
0
 10
22.591
 20
68.2103
 11
23.041
 21
68.5556
  0
LINE
  8
0
 10
23.041
 20
68.5556
 11
23.497
 21
68.8931
  0
LINE
  8
0
 10
23.497
 20
68.8931
 11
23.9588
 21
69.2224
  0
LINE
  8
0
 10
23.9588
 20
69.2224
 11
24.4262
 21
69.5437
  0
LINE
  8
0
 10
24.4262
 20
69.5437
 11
24.8992
 21
69.8568
  0
LINE
  8
0
 10
24.8992
 20
69.8568
 11
25.3776
 21
70.1616
  0
LINE
  8
0
 10
25.3776
 20
70.1616
 11
25.8613
 21
70.4579
  0
LINE
  8
0
 10
25.8613
 20
70.4579
 11
26.35
 21
70.7458
  0
LINE
  8
0
 10
26.35
 20
70.7458
 11
26.8437
 21
71.0251
  0
LINE
  8
0
 10
26.8437
 20
71.0251
 11
27.3422
 21
71.2958
  0
LINE
  8
0
 10
27.3422
 20
71.2958
 11
27.8453
 21
71.5577
  0
LINE
  8
0
 10
27.8453
 20
71.5577
 11
28.3529
 21
71.8108
  0
LINE
  8
0
 10
28.3529
 20
71.8108
 11
28.8649
 21
72.055
  0
LINE
  8
0
 10
28.8649
 20
72.055
 11
29.3811
 21
72.2902
  0
LINE
  8
0
 10
29.3811
 20
72.2902
 11
29.9012
 21
72.5164
  0
LINE
  8
0
 10
29.9012
 20
72.5164
 11
30.4253
 21
72.7335
  0
LINE
  8
0
 10
30.4253
 20
72.7335
 11
30.953
 21
72.9414
  0
LINE
  8
0
 10
30.953
 20
72.9414
 11
31.4843
 21
73.14
  0
LINE
  8
0
 10
31.4843
 20
73.14
 11
32.019
 21
73.3293
  0
LINE
  8
0
 10
32.019
 20
73.3293
 11
32.5569
 21
73.5093
  0
LINE
  8
0
 10
32.5569
 20
73.5093
 11
33.0979
 21
73.6799
  0
LINE
  8
0
 10
33.0979
 20
73.6799
 11
33.6418
 21
73.841
  0
LINE
  8
0
 10
33.6418
 20
73.841
 11
34.1884
 21
73.9926
  0
LINE
  8
0
 10
34.1884
 20
73.9926
 11
34.7375
 21
74.1346
  0
LINE
  8
0
 10
34.7375
 20
74.1346
 11
35.2891
 21
74.267
  0
LINE
  8
0
 10
35.2891
 20
74.267
 11
35.8429
 21
74.3898
  0
LINE
  8
0
 10
35.8429
 20
74.3898
 11
36.3987
 21
74.5029
  0
LINE
  8
0
 10
36.3987
 20
74.5029
 11
36.9564
 21
74.6062
  0
LINE
  8
0
 10
36.9564
 20
74.6062
 11
37.5159
 21
74.6999
  0
LINE
  8
0
 10
37.5159
 20
74.6999
 11
38.0769
 21
74.7837
  0
LINE
  8
0
 10
38.0769
 20
74.7837
 11
38.6392
 21
74.8577
  0
LINE
  8
0
 10
38.6392
 20
74.8577
 11
39.2028
 21
74.922
  0
LINE
  8
0
 10
39.2028
 20
74.922
 11
39.7674
 21
74.9763
  0
LINE
  8
0
 10
39.7674
 20
74.9763
 11
40.3329
 21
75.0208
  0
LINE
  8
0
 10
40.3329
 20
75.0208
 11
40.8991
 21
75.0555
  0
LINE
  8
0
 10
40.8991
 20
75.0555
 11
41.4658
 21
75.0802
  0
LINE
  8
0
 10
41.4658
 20
75.0802
 11
42.0328
 21
75.095
  0
LINE
  8
0
 10
42.0328
 20
75.095
 11
42.6
 21
75.1
  0
LINE
  8
0
 10
42.6
 20
75.1
 11
43.1672
 21
75.095
  0
LINE
  8
0
 10
43.1672
 20
75.095
 11
43.7342
 21
75.0802
  0
LINE
  8
0
 10
43.7342
 20
75.0802
 11
44.3009
 21
75.0555
  0
LINE
  8
0
 10
44.3009
 20
75.0555
 11
44.8671
 21
75.0208
  0
LINE
  8
0
 10
44.8671
 20
75.0208
 11
45.4326
 21
74.9763
  0
LINE
  8
0
 10
45.4326
 20
74.9763
 11
45.9972
 21
74.922
  0
LINE
  8
0
 10
45.9972
 20
74.922
 11
46.5607
 21
74.8577
  0
LINE
  8
0
 10
46.5607
 20
74.8577
 11
47.1231
 21
74.7837
  0
LINE
  8
0
 10
47.1231
 20
74.7837
 11
47.6841
 21
74.6999
  0
LINE
  8
0
 10
47.6841
 20
74.6999
 11
48.2436
 21
74.6062
  0
LINE
  8
0
 10
48.2436
 20
74.6062
 11
48.8013
 21
74.5029
  0
LINE
  8
0
 10
48.8013
 20
74.5029
 11
49.3571
 21
74.3898
  0
LINE
  8
0
 10
49.3571
 20
74.3898
 11
49.9109
 21
74.267
  0
LINE
  8
0
 10
49.9109
 20
74.267
 11
50.4624
 21
74.1346
  0
LINE
  8
0
 10
50.4624
 20
74.1346
 11
51.0116
 21
73.9926
  0
LINE
  8
0
 10
51.0116
 20
73.9926
 11
51.5582
 21
73.841
  0
LINE
  8
0
 10
51.5582
 20
73.841
 11
52.1021
 21
73.6799
  0
LINE
  8
0
 10
52.1021
 20
73.6799
 11
52.6431
 21
73.5093
  0
LINE
  8
0
 10
52.6431
 20
73.5093
 11
53.181
 21
73.3293
  0
LINE
  8
0
 10
53.181
 20
73.3293
 11
53.7157
 21
73.14
  0
LINE
  8
0
 10
53.7157
 20
73.14
 11
54.2469
 21
72.9414
  0
LINE
  8
0
 10
54.2469
 20
72.9414
 11
54.7747
 21
72.7335
  0
LINE
  8
0
 10
54.7747
 20
72.7335
 11
55.2988
 21
72.5164
  0
LINE
  8
0
 10
55.2988
 20
72.5164
 11
55.8189
 21
72.2902
  0
LINE
  8
0
 10
55.8189
 20
72.2902
 11
56.3351
 21
72.055
  0
LINE
  8
0
 10
56.3351
 20
72.055
 11
56.8471
 21
71.8108
  0
LINE
  8
0
 10
56.8471
 20
71.8108
 11
57.3547
 21
71.5577
  0
LINE
  8
0
 10
57.3547
 20
71.5577
 11
57.8578
 21
71.2958
  0
LINE
  8
0
 10
57.8578
 20
71.2958
 11
58.3563
 21
71.0251
  0
LINE
  8
0
 10
58.3563
 20
71.0251
 11
58.85
 21
70.7458
  0
LINE
  8
0
 10
58.85
 20
70.7458
 11
59.3387
 21
70.4579
  0
LINE
  8
0
 10
59.3387
 20
70.4579
 11
59.8224
 21
70.1616
  0
LINE
  8
0
 10
59.8224
 20
70.1616
 11
60.3008
 21
69.8568
  0
LINE
  8
0
 10
60.3008
 20
69.8568
 11
60.7738
 21
69.5437
  0
LINE
  8
0
 10
60.7738
 20
69.5437
 11
61.2412
 21
69.2224
  0
LINE
  8
0
 10
61.2412
 20
69.2224
 11
61.703
 21
68.8931
  0
LINE
  8
0
 10
61.703
 20
68.8931
 11
62.159
 21
68.5556
  0
LINE
  8
0
 10
62.159
 20
68.5556
 11
62.609
 21
68.2103
  0
LINE
  8
0
 10
62.609
 20
68.2103
 11
63.0529
 21
67.8572
  0
LINE
  8
0
 10
63.0529
 20
67.8572
 11
63.4906
 21
67.4964
  0
LINE
  8
0
 10
63.4906
 20
67.4964
 11
63.9219
 21
67.1281
  0
LINE
  8
0
 10
63.9219
 20
67.1281
 11
64.3467
 21
66.7522
  0
LINE
  8
0
 10
64.3467
 20
66.7522
 11
64.7649
 21
66.369
  0
LINE
  8
0
 10
64.7649
 20
66.369
 11
65.1764
 21
65.9785
  0
LINE
  8
0
 10
65.1764
 20
65.9785
 11
65.581
 21
65.581
  0
LINE
  8
0
 10
65.581
 20
65.581
 11
65.9785
 21
65.1764
  0
LINE
  8
0
 10
65.9785
 20
65.1764
 11
66.369
 21
64.7649
  0
LINE
  8
0
 10
66.369
 20
64.7649
 11
66.7522
 21
64.3467
  0
LINE
  8
0
 10
66.7522
 20
64.3467
 11
67.1281
 21
63.9219
  0
LINE
  8
0
 10
67.1281
 20
63.9219
 11
67.4964
 21
63.4906
  0
LINE
  8
0
 10
67.4964
 20
63.4906
 11
67.8572
 21
63.0529
  0
LINE
  8
0
 10
67.8572
 20
63.0529
 11
68.2103
 21
62.609
  0
LINE
  8
0
 10
68.2103
 20
62.609
 11
68.5556
 21
62.159
  0
LINE
  8
0
 10
68.5556
 20
62.159
 11
68.8931
 21
61.703
  0
LINE
  8
0
 10
68.8931
 20
61.703
 11
69.2224
 21
61.2412
  0
LINE
  8
0
 10
69.2224
 20
61.2412
 11
69.5437
 21
60.7738
  0
LINE
  8
0
 10
69.5437
 20
60.7738
 11
69.8568
 21
60.3008
  0
LINE
  8
0
 10
69.8568
 20
60.3008
 11
70.1616
 21
59.8224
  0
LINE
  8
0
 10
70.1616
 20
59.8224
 11
70.4579
 21
59.3387
  0
LINE
  8
0
 10
70.4579
 20
59.3387
 11
70.7458
 21
58.85
  0
LINE
  8
0
 10
70.7458
 20
58.85
 11
71.0251
 21
58.3563
  0
LINE
  8
0
 10
71.0251
 20
58.3563
 11
71.2958
 21
57.8578
  0
LINE
  8
0
 10
71.2958
 20
57.8578
 11
71.5577
 21
57.3547
  0
LINE
  8
0
 10
71.5577
 20
57.3547
 11
71.8108
 21
56.8471
  0
LINE
  8
0
 10
71.8108
 20
56.8471
 11
72.055
 21
56.3351
  0
LINE
  8
0
 10
72.055
 20
56.3351
 11
72.2902
 21
55.8189
  0
LINE
  8
0
 10
72.2902
 20
55.8189
 11
72.5164
 21
55.2988
  0
LINE
  8
0
 10
72.5164
 20
55.2988
 11
72.7335
 21
54.7747
  0
LINE
  8
0
 10
72.7335
 20
54.7747
 11
72.9414
 21
54.2469
  0
LINE
  8
0
 10
72.9414
 20
54.2469
 11
73.14
 21
53.7157
  0
LINE
  8
0
 10
73.14
 20
53.7157
 11
73.3293
 21
53.181
  0
LINE
  8
0
 10
73.3293
 20
53.181
 11
73.5093
 21
52.6431
  0
LINE
  8
0
 10
73.5093
 20
52.6431
 11
73.6799
 21
52.1021
  0
LINE
  8
0
 10
73.6799
 20
52.1021
 11
73.841
 21
51.5582
  0
LINE
  8
0
 10
73.841
 20
51.5582
 11
73.9926
 21
51.0116
  0
LINE
  8
0
 10
73.9926
 20
51.0116
 11
74.1346
 21
50.4624
  0
LINE
  8
0
 10
74.1346
 20
50.4624
 11
74.267
 21
49.9109
  0
LINE
  8
0
 10
74.267
 20
49.9109
 11
74.3898
 21
49.3571
  0
LINE
  8
0
 10
74.3898
 20
49.3571
 11
74.5029
 21
48.8013
  0
LINE
  8
0
 10
74.5029
 20
48.8013
 11
74.6062
 21
48.2436
  0
LINE
  8
0
 10
74.6062
 20
48.2436
 11
74.6999
 21
47.6841
  0
LINE
  8
0
 10
74.6999
 20
47.6841
 11
74.7837
 21
47.1231
  0
LINE
  8
0
 10
74.7837
 20
47.1231
 11
74.8577
 21
46.5607
  0
LINE
  8
0
 10
74.8577
 20
46.5607
 11
74.922
 21
45.9972
  0
LINE
  8
0
 10
74.922
 20
45.9972
 11
74.9763
 21
45.4326
  0
LINE
  8
0
 10
74.9763
 20
45.4326
 11
75.0208
 21
44.8671
  0
LINE
  8
0
 10
75.0208
 20
44.8671
 11
75.0555
 21
44.3009
  0
LINE
  8
0
 10
75.0555
 20
44.3009
 11
75.0802
 21
43.7342
  0
LINE
  8
0
 10
75.0802
 20
43.7342
 11
75.095
 21
43.1672
  0
LINE
  8
0
 10
75.095
 20
43.1672
 11
75.1
 21
42.6
  0
LINE
  8
0
 10
75.1
 20
42.6
 11
75.095
 21
42.0328
  0
LINE
  8
0
 10
75.095
 20
42.0328
 11
75.0802
 21
41.4658
  0
LINE
  8
0
 10
75.0802
 20
41.4658
 11
75.0555
 21
40.8991
  0
LINE
  8
0
 10
75.0555
 20
40.8991
 11
75.0208
 21
40.3329
  0
LINE
  8
0
 10
75.0208
 20
40.3329
 11
74.9763
 21
39.7674
  0
LINE
  8
0
 10
74.9763
 20
39.7674
 11
74.922
 21
39.2028
  0
LINE
  8
0
 10
74.922
 20
39.2028
 11
74.8577
 21
38.6392
  0
LINE
  8
0
 10
74.8577
 20
38.6392
 11
74.7837
 21
38.0769
  0
LINE
  8
0
 10
74.7837
 20
38.0769
 11
74.6999
 21
37.5159
  0
LINE
  8
0
 10
74.6999
 20
37.5159
 11
74.6062
 21
36.9564
  0
LINE
  8
0
 10
74.6062
 20
36.9564
 11
74.5029
 21
36.3987
  0
LINE
  8
0
 10
74.5029
 20
36.3987
 11
74.3898
 21
35.8429
  0
LINE
  8
0
 10
74.3898
 20
35.8429
 11
74.267
 21
35.2891
  0
LINE
  8
0
 10
74.267
 20
35.2891
 11
74.1346
 21
34.7375
  0
LINE
  8
0
 10
74.1346
 20
34.7375
 11
73.9926
 21
34.1884
  0
LINE
  8
0
 10
73.9926
 20
34.1884
 11
73.841
 21
33.6418
  0
LINE
  8
0
 10
73.841
 20
33.6418
 11
73.6799
 21
33.0979
  0
LINE
  8
0
 10
73.6799
 20
33.0979
 11
73.5093
 21
32.5569
  0
LINE
  8
0
 10
73.5093
 20
32.5569
 11
73.3293
 21
32.019
  0
LINE
  8
0
 10
73.3293
 20
32.019
 11
73.14
 21
31.4843
  0
LINE
  8
0
 10
73.14
 20
31.4843
 11
72.9414
 21
30.953
  0
LINE
  8
0
 10
72.9414
 20
30.953
 11
72.7335
 21
30.4253
  0
LINE
  8
0
 10
72.7335
 20
30.4253
 11
72.5164
 21
29.9012
  0
LINE
  8
0
 10
72.5164
 20
29.9012
 11
72.2902
 21
29.3811
  0
LINE
  8
0
 10
72.2902
 20
29.3811
 11
72.055
 21
28.8649
  0
LINE
  8
0
 10
72.055
 20
28.8649
 11
71.8108
 21
28.3529
  0
LINE
  8
0
 10
71.8108
 20
28.3529
 11
71.5577
 21
27.8453
  0
LINE
  8
0
 10
71.5577
 20
27.8453
 11
71.2958
 21
27.3422
  0
LINE
  8
0
 10
71.2958
 20
27.3422
 11
71.0251
 21
26.8437
  0
LINE
  8
0
 10
71.0251
 20
26.8437
 11
70.7458
 21
26.35
  0
LINE
  8
0
 10
70.7458
 20
26.35
 11
70.4579
 21
25.8613
  0
LINE
  8
0
 10
70.4579
 20
25.8613
 11
70.1616
 21
25.3776
  0
LINE
  8
0
 10
70.1616
 20
25.3776
 11
69.8568
 21
24.8992
  0
LINE
  8
0
 10
69.8568
 20
24.8992
 11
69.5437
 21
24.4262
  0
LINE
  8
0
 10
69.5437
 20
24.4262
 11
69.2224
 21
23.9588
  0
LINE
  8
0
 10
69.2224
 20
23.9588
 11
68.8931
 21
23.497
  0
LINE
  8
0
 10
68.8931
 20
23.497
 11
68.5556
 21
23.041
  0
LINE
  8
0
 10
68.5556
 20
23.041
 11
68.2103
 21
22.591
  0
LINE
  8
0
 10
68.2103
 20
22.591
 11
67.8572
 21
22.1471
  0
LINE
  8
0
 10
67.8572
 20
22.1471
 11
67.4964
 21
21.7094
  0
LINE
  8
0
 10
67.4964
 20
21.7094
 11
67.1281
 21
21.2781
  0
LINE
  8
0
 10
67.1281
 20
21.2781
 11
66.7522
 21
20.8532
  0
LINE
  8
0
 10
66.7522
 20
20.8532
 11
66.369
 21
20.435
  0
LINE
  8
0
 10
66.369
 20
20.435
 11
65.9785
 21
20.0236
  0
LINE
  8
0
 10
65.9785
 20
20.0236
 11
65.581
 21
19.619
  0
LINE
  8
0
 10
65.581
 20
19.619
 11
65.1764
 21
19.2215
  0
LINE
  8
0
 10
65.1764
 20
19.2215
 11
64.7649
 21
18.831
  0
LINE
  8
0
 10
64.7649
 20
18.831
 11
64.3467
 21
18.4478
  0
LINE
  8
0
 10
64.3467
 20
18.4478
 11
63.9219
 21
18.0719
  0
LINE
  8
0
 10
63.9219
 20
18.0719
 11
63.4906
 21
17.7036
  0
LINE
  8
0
 10
63.4906
 20
17.7036
 11
63.0529
 21
17.3427
  0
LINE
  8
0
 10
63.0529
 20
17.3427
 11
62.609
 21
16.9896
  0
LINE
  8
0
 10
62.609
 20
16.9896
 11
62.159
 21
16.6443
  0
LINE
  8
0
 10
62.159
 20
16.6443
 11
61.703
 21
16.3069
  0
LINE
  8
0
 10
61.703
 20
16.3069
 11
61.2412
 21
15.9776
  0
LINE
  8
0
 10
61.2412
 20
15.9776
 11
60.7738
 21
15.6563
  0
LINE
  8
0
 10
60.7738
 20
15.6563
 11
60.3008
 21
15.3432
  0
LINE
  8
0
 10
60.3008
 20
15.3432
 11
59.8224
 21
15.0384
  0
LINE
  8
0
 10
59.8224
 20
15.0384
 11
59.3387
 21
14.7421
  0
LINE
  8
0
 10
59.3387
 20
14.7421
 11
58.85
 21
14.4542
  0
LINE
  8
0
 10
58.85
 20
14.4542
 11
58.3563
 21
14.1749
  0
LINE
  8
0
 10
58.3563
 20
14.1749
 11
57.8578
 21
13.9042
  0
LINE
  8
0
 10
57.8578
 20
13.9042
 11
57.3547
 21
13.6423
  0
LINE
  8
0
 10
57.3547
 20
13.6423
 11
56.8471
 21
13.3892
  0
LINE
  8
0
 10
56.8471
 20
13.3892
 11
56.3351
 21
13.145
  0
LINE
  8
0
 10
56.3351
 20
13.145
 11
55.8189
 21
12.9098
  0
LINE
  8
0
 10
55.8189
 20
12.9098
 11
55.2988
 21
12.6836
  0
LINE
  8
0
 10
55.2988
 20
12.6836
 11
54.7747
 21
12.4665
  0
LINE
  8
0
 10
54.7747
 20
12.4665
 11
54.2469
 21
12.2586
  0
LINE
  8
0
 10
54.2469
 20
12.2586
 11
53.7157
 21
12.06
  0
LINE
  8
0
 10
53.7157
 20
12.06
 11
53.181
 21
11.8706
  0
LINE
  8
0
 10
53.181
 20
11.8706
 11
52.6431
 21
11.6907
  0
LINE
  8
0
 10
52.6431
 20
11.6907
 11
52.1021
 21
11.5201
  0
LINE
  8
0
 10
52.1021
 20
11.5201
 11
51.5582
 21
11.359
  0
LINE
  8
0
 10
51.5582
 20
11.359
 11
51.0116
 21
11.2074
  0
LINE
  8
0
 10
51.0116
 20
11.2074
 11
50.4624
 21
11.0654
  0
LINE
  8
0
 10
50.4624
 20
11.0654
 11
49.9109
 21
10.933
  0
LINE
  8
0
 10
49.9109
 20
10.933
 11
49.3571
 21
10.8102
  0
LINE
  8
0
 10
49.3571
 20
10.8102
 11
48.8013
 21
10.6971
  0
LINE
  8
0
 10
48.8013
 20
10.6971
 11
48.2436
 21
10.5937
  0
LINE
  8
0
 10
48.2436
 20
10.5937
 11
47.6841
 21
10.5001
  0
LINE
  8
0
 10
47.6841
 20
10.5001
 11
47.1231
 21
10.4163
  0
LINE
  8
0
 10
47.1231
 20
10.4163
 11
46.5607
 21
10.3422
  0
LINE
  8
0
 10
46.5607
 20
10.3422
 11
45.9972
 21
10.278
  0
LINE
  8
0
 10
45.9972
 20
10.278
 11
45.4326
 21
10.2237
  0
LINE
  8
0
 10
45.4326
 20
10.2237
 11
44.8671
 21
10.1792
  0
LINE
  8
0
 10
44.8671
 20
10.1792
 11
44.3009
 21
10.1445
  0
LINE
  8
0
 10
44.3009
 20
10.1445
 11
43.7342
 21
10.1198
  0
LINE
  8
0
 10
43.7342
 20
10.1198
 11
43.1672
 21
10.1049
  0
LINE
  8
0
 10
43.1672
 20
10.1049
 11
42.6
 21
10.1
  0
LINE
  8
0
 10
42.6
 20
10.1
 11
42.0328
 21
10.1049
  0
ENDSEC
  0
SECTION
  2
OBJECTS
  0
DICTIONARY
  0
ENDSEC
  0
EOF
