<?xml version="1.0" standalone="no"?>
<!DOCTYPE svg PUBLIC "-//W3C//DTD SVG 1.1//EN" "http://www.w3.org/Graphics/SVG/1.1/DTD/svg11.dtd">
<svg width="86mm" height="86mm" viewBox="0 -86 86 86" xmlns="http://www.w3.org/2000/svg" version="1.1">
<title>OpenSCAD Model</title>
<path d="
M 85.2,-85.2 L 0,-85.2 L 0,-0 L 85.2,-0 z
M 42.0328,-10.1049 L 41.4658,-10.1198 L 40.8991,-10.1445 L 40.3329,-10.1792 L 39.7674,-10.2237 L 39.2028,-10.278
 L 38.6392,-10.3422 L 38.0769,-10.4163 L 37.5159,-10.5001 L 36.9564,-10.5937 L 36.3987,-10.6971 L 35.8429,-10.8102
 L 35.2891,-10.933 L 34.7375,-11.0654 L 34.1884,-11.2074 L 33.6418,-11.359 L 33.0979,-11.5201 L 32.5569,-11.6907
 L 32.019,-11.8706 L 31.4843,-12.06 L 30.953,-12.2586 L 30.4253,-12.4665 L 29.9012,-12.6836 L 29.3811,-12.9098
 L 28.8649,-13.145 L 28.3529,-13.3892 L 27.8453,-13.6423 L 27.3422,-13.9042 L 26.8437,-14.1749 L 26.35,-14.4542
 L 25.8613,-14.7421 L 25.3776,-15.0384 L 24.8992,-15.3432 L 24.4262,-15.6563 L 23.9588,-15.9776 L 23.497,-16.3069
 L 23.041,-16.6443 L 22.591,-16.9896 L 22.1471,-17.3427 L 21.7094,-17.7036 L 21.2781,-18.0719 L 20.8532,-18.4478
 L 20.435,-18.831 L 20.0236,-19.2215 L 19.619,-19.619 L 19.2215,-20.0236 L 18.831,-20.435 L 18.4478,-20.8532
 L 18.0719,-21.2781 L 17.7036,-21.7094 L 17.3427,-22.1471 L 16.9896,-22.591 L 16.6443,-23.041 L 16.3069,-23.497
 L 15.9776,-23.9588 L 15.6563,-24.4262 L 15.3432,-24.8992 L 15.0384,-25.3776 L 14.7421,-25.8613 L 14.4542,-26.35
 L 14.1749,-26.8437 L 13.9042,-27.3422 L 13.6423,-27.8453 L 13.3892,-28.3529 L 13.145,-28.8649 L 12.9098,-29.3811
 L 12.6836,-29.9012 L 12.4665,-30.4253 L 12.2586,-30.953 L 12.06,-31.4843 L 11.8706,-32.019 L 11.6907,-32.5569
 L 11.5201,-33.0979 L 11.359,-33.6418 L 11.2074,-34.1884 L 11.0654,-34.7375 L 10.933,-35.2891 L 10.8102,-35.8429
 L 10.6971,-36.3987 L 10.5937,-36.9564 L 10.5001,-37.5159 L 10.4163,-38.0769 L 10.3422,-38.6392 L 10.278,-39.2028
 L 10.2237,-39.7674 L 10.1792,-40.3329 L 10.1445,-40.8991 L 10.1198,-41.4658 L 10.1049,-42.0328 L 10.1,-42.6
 L 10.1049,-43.1672 L 10.1198,-43.7342 L 10.1445,-44.3009 L 10.1792,-44.8671 L 10.2237,-45.4326 L 10.278,-45.9972
 L 10.3422,-46.5607 L 10.4163,-47.1231 L 10.5001,-47.6841 L 10.5937,-48.2436 L 10.6971,-48.8013 L 10.8102,-49.3571
 L 10.933,-49.9109 L 11.0654,-50.4624 L 11.2074,-51.0116 L 11.359,-51.5582 L 11.5201,-52.1021 L 11.6907,-52.6431
 L 11.8706,-53.181 L 12.06,-53.7157 L 12.2586,-54.2469 L 12.4665,-54.7747 L 12.6836,-55.2988 L 12.9098,-55.8189
 L 13.145,-56.3351 L 13.3892,-56.8471 L 13.6423,-57.3547 L 13.9042,-57.8578 L 14.1749,-58.3563 L 14.4542,-58.85
 L 14.7421,-59.3387 L 15.0384,-59.8224 L 15.3432,-60.3008 L 15.6563,-60.7738 L 15.9776,-61.2412 L 16.3069,-61.703
 L 16.6443,-62.159 L 16.9896,-62.609 L 17.3427,-63.0529 L 17.7036,-63.4906 L 18.0719,-63.9219 L 18.4478,-64.3467
 L 18.831,-64.7649 L 19.2215,-65.1764 L 19.619,-65.581 L 20.0236,-65.9785 L 20.435,-66.369 L 20.8532,-66.7522
 L 21.2781,-67.1281 L 21.7094,-67.4964 L 22.1471,-67.8572 L 22.591,-68.2103 L 23.041,-68.5556 L 23.497,-68.8931
 L 23.9588,-69.2224 L 24.4262,-69.5437 L 24.8992,-69.8568 L 25.3776,-70.1616 L 25.8613,-70.4579 L 26.35,-70.7458
 L 26.8437,-71.0251 L 27.3422,-71.2958 L 27.8453,-71.5577 L 28.3529,-71.8108 L 28.8649,-72.055 L 29.3811,-72.2902
 L 29.9012,-72.5164 L 30.4253,-72.7335 L 30.953,-72.9414 L 31.4843,-73.14 L 32.019,-73.3293 L 32.5569,-73.5093
 L 33.0979,-73.6799 L 33.6418,-73.841 L 34.1884,-73.9926 L 34.7375,-74.1346 L 35.2891,-74.267 L 35.8429,-74.3898
 L 36.3987,-74.5029 L 36.9564,-74.6062 L 37.5159,-74.6999 L 38.0769,-74.7837 L 38.6392,-74.8577 L 39.2028,-74.922
 L 39.7674,-74.9763 L 40.3329,-75.0208 L 40.8991,-75.0555 L 41.4658,-75.0802 L 42.0328,-75.095 L 42.6,-75.1
 L 43.1672,-75.095 L 43.7342,-75.0802 L 44.3009,-75.0555 L 44.8671,-75.0208 L 45.4326,-74.9763 L 45.9972,-74.922
 L 46.5607,-74.8577 L 47.1231,-74.7837 L 47.6841,-74.6999 L 48.2436,-74.6062 L 48.8013,-74.5029 L 49.3571,-74.3898
 L 49.9109,-74.267 L 50.4624,-74.1346 L 51.0116,-73.9926 L 51.5582,-73.841 L 52.1021,-73.6799 L 52.6431,-73.5093
 L 53.181,-73.3293 L 53.7157,-73.14 L 54.2469,-72.9414 L 54.7747,-72.7335 L 55.2988,-72.5164 L 55.8189,-72.2902
 L 56.3351,-72.055 L 56.8471,-71.8108 L 57.3547,-71.5577 L 57.8578,-71.2958 L 58.3563,-71.0251 L 58.85,-70.7458
 L 59.3387,-70.4579 L 59.8224,-70.1616 L 60.3008,-69.8568 L 60.7738,-69.5437 L 61.2412,-69.2224 L 61.703,-68.8931
 L 62.159,-68.5556 L 62.609,-68.2103 L 63.0529,-67.8572 L 63.4906,-67.4964 L 63.9219,-67.1281 L 64.3467,-66.7522
 L 64.7649,-66.369 L 65.1764,-65.9785 L 65.581,-65.581 L 65.9785,-65.1764 L 66.369,-64.7649 L 66.7522,-64.3467
 L 67.1281,-63.9219 L 67.4964,-63.4906 L 67.8572,-63.0529 L 68.2103,-62.609 L 68.5556,-62.159 L 68.8931,-61.703
 L 69.2224,-61.2412 L 69.5437,-60.7738 L 69.8568,-60.3008 L 70.1616,-59.8224 L 70.4579,-59.3387 L 70.7458,-58.85
 L 71.0251,-58.3563 L 71.2958,-57.8578 L 71.5577,-57.3547 L 71.8108,-56.8471 L 72.055,-56.3351 L 72.2902,-55.8189
 L 72.5164,-55.2988 L 72.7335,-54.7747 L 72.9414,-54.2469 L 73.14,-53.7157 L 73.3293,-53.181 L 73.5093,-52.6431
 L 73.6799,-52.1021 L 73.841,-51.5582 L 73.9926,-51.0116 L 74.1346,-50.4624 L 74.267,-49.9109 L 74.3898,-49.3571
 L 74.5029,-48.8013 L 74.6062,-48.2436 L 74.6999,-47.6841 L 74.7837,-47.1231 L 74.8577,-46.5607 L 74.922,-45.9972
 L 74.9763,-45.4326 L 75.0208,-44.8671 L 75.0555,-44.3009 L 75.0802,-43.7342 L 75.095,-43.1672 L 75.1,-42.6
 L 75.095,-42.0328 L 75.0802,-41.4658 L 75.0555,-40.8991 L 75.0208,-40.3329 L 74.9763,-39.7674 L 74.922,-39.2028
 L 74.8577,-38.6392 L 74.7837,-38.0769 L 74.6999,-37.5159 L 74.6062,-36.9564 L 74.5029,-36.3987 L 74.3898,-35.8429
 L 74.267,-35.2891 L 74.1346,-34.7375 L 73.9926,-34.1884 L 73.841,-33.6418 L 73.6799,-33.0979 L 73.5093,-32.5569
 L 73.3293,-32.019 L 73.14,-31.4843 L 72.9414,-30.953 L 72.7335,-30.4253 L 72.5164,-29.9012 L 72.2902,-29.3811
 L 72.055,-28.8649 L 71.8108,-28.3529 L 71.5577,-27.8453 L 71.2958,-27.3422 L 71.0251,-26.8437 L 70.7458,-26.35
 L 70.4579,-25.8613 L 70.1616,-25.3776 L 69.8568,-24.8992 L 69.5437,-24.4262 L 69.2224,-23.9588 L 68.8931,-23.497
 L 68.5556,-23.041 L 68.2103,-22.591 L 67.8572,-22.1471 L 67.4964,-21.7094 L 67.1281,-21.2781 L 66.7522,-20.8532
 L 66.369,-20.435 L 65.9785,-20.0236 L 65.581,-19.619 L 65.1764,-19.2215 L 64.7649,-18.831 L 64.3467,-18.4478
 L 63.9219,-18.0719 L 63.4906,-17.7036 L 63.0529,-17.3427 L 62.609,-16.9896 L 62.159,-16.6443 L 61.703,-16.3069
 L 61.2412,-15.9776 L 60.7738,-15.6563 L 60.3008,-15.3432 L 59.8224,-15.0384 L 59.3387,-14.7421 L 58.85,-14.4542
 L 58.3563,-14.1749 L 57.8578,-13.9042 L 57.3547,-13.6423 L 56.8471,-13.3892 L 56.3351,-13.145 L 55.8189,-12.9098
 L 55.2988,-12.6836 L 54.7747,-12.4665 L 54.2469,-12.2586 L 53.7157,-12.06 L 53.181,-11.8706 L 52.6431,-11.6907
 L 52.1021,-11.5201 L 51.5582,-11.359 L 51.0116,-11.2074 L 50.4624,-11.0654 L 49.9109,-10.933 L 49.3571,-10.8102
 L 48.8013,-10.6971 L 48.2436,-10.5937 L 47.6841,-10.5001 L 47.1231,-10.4163 L 46.5607,-10.3422 L 45.9972,-10.278
 L 45.4326,-10.2237 L 44.8671,-10.1792 L 44.3009,-10.1445 L 43.7342,-10.1198 L 43.1672,-10.1049 L 42.6,-10.1
 z
" stroke="black" fill="lightgray" stroke-width="0.5"/>
</svg>
