<?xml version="1.0" standalone="no"?>
<!DOCTYPE svg PUBLIC "-//W3C//DTD SVG 1.1//EN" "http://www.w3.org/Graphics/SVG/1.1/DTD/svg11.dtd">
<svg width="95mm" height="95mm" viewBox="0 -95 95 95" xmlns="http://www.w3.org/2000/svg" version="1.1">
<title>OpenSCAD Model</title>
<path d="
M 91.6946,-0.0607605 L 92.3681,-0.241226 L 93,-0.535889 L 93.5712,-0.935822 L 94.0642,-1.42885 L 94.4641,-2
 L 94.7588,-2.63191 L 94.9392,-3.3054 L 95,-4 L 95,-91 L 94.9392,-91.6946 L 94.7588,-92.3681
 L 94.4641,-93 L 94.0642,-93.5712 L 93.5712,-94.0642 L 93,-94.4641 L 92.3681,-94.7588 L 91.6946,-94.9392
 L 91,-95 L 4,-95 L 3.3054,-94.9392 L 2.63191,-94.7588 L 2,-94.4641 L 1.42885,-94.0642
 L 0.935822,-93.5712 L 0.535889,-93 L 0.241226,-92.3681 L 0.0607605,-91.6946 L 0,-91 L 0,-74
 L 4,-74 L 4,-82 L 33,-82 L 33,-0 L 91,-0 z
M 13.8263,-89.0152 L 13.658,-89.0603 L 13.5,-89.134 L 13.3572,-89.2339 L 13.2339,-89.3572 L 13.134,-89.5
 L 13.0603,-89.658 L 13.0152,-89.8264 L 13,-90 L 13.0152,-90.1736 L 13.0603,-90.342 L 13.134,-90.5
 L 13.2339,-90.6428 L 13.3572,-90.766 L 13.5,-90.866 L 13.658,-90.9397 L 13.8263,-90.9848 L 14,-91
 L 14.1736,-90.9848 L 14.342,-90.9397 L 14.5,-90.866 L 14.6428,-90.766 L 14.766,-90.6428 L 14.866,-90.5
 L 14.9397,-90.342 L 14.9848,-90.1736 L 15,-90 L 14.9848,-89.8264 L 14.9397,-89.658 L 14.866,-89.5
 L 14.766,-89.3572 L 14.6428,-89.2339 L 14.5,-89.134 L 14.342,-89.0603 L 14.1736,-89.0152 L 14,-89
 z
M 80.8264,-89.0152 L 80.658,-89.0603 L 80.5,-89.134 L 80.3572,-89.2339 L 80.2339,-89.3572 L 80.134,-89.5
 L 80.0603,-89.658 L 80.0152,-89.8264 L 80,-90 L 80.0152,-90.1736 L 80.0603,-90.342 L 80.134,-90.5
 L 80.2339,-90.6428 L 80.3572,-90.766 L 80.5,-90.866 L 80.658,-90.9397 L 80.8264,-90.9848 L 81,-91
 L 81.1736,-90.9848 L 81.342,-90.9397 L 81.5,-90.866 L 81.6428,-90.766 L 81.766,-90.6428 L 81.866,-90.5
 L 81.9397,-90.342 L 81.9848,-90.1736 L 82,-90 L 81.9848,-89.8264 L 81.9397,-89.658 L 81.866,-89.5
 L 81.766,-89.3572 L 81.6428,-89.2339 L 81.5,-89.134 L 81.342,-89.0603 L 81.1736,-89.0152 L 81,-89
 z
M 56.4,-55.3 L 56.4,-59.3 L 52.4,-59.3 L 52.4,-76.5 L 56.4,-76.5 L 56.4,-80.5
 L 65.4,-80.5 L 65.4,-76.5 L 69.4,-76.5 L 69.4,-80.5 L 72.5,-80.5 L 72.5,-78.5
 L 76.5,-78.5 L 76.5,-57.3 L 72.5,-57.3 L 72.5,-55.3 L 69.4,-55.3 L 69.4,-59.3
 L 65.4,-59.3 L 65.4,-55.3 z
M 54.2784,-77.8106 L 54.1606,-77.8422 L 54.05,-77.8938 L 53.95,-77.9638 L 53.8638,-78.05 L 53.7938,-78.15
 L 53.7422,-78.2606 L 53.7106,-78.3784 L 53.7,-78.5 L 53.7106,-78.6216 L 53.7422,-78.7394 L 53.7938,-78.85
 L 53.8638,-78.95 L 53.95,-79.0362 L 54.05,-79.1062 L 54.1606,-79.1578 L 54.2784,-79.1894 L 54.4,-79.2
 L 54.5215,-79.1894 L 54.6394,-79.1578 L 54.75,-79.1062 L 54.8499,-79.0362 L 54.9362,-78.95 L 55.0062,-78.85
 L 55.0578,-78.7394 L 55.0894,-78.6216 L 55.1,-78.5 L 55.0894,-78.3784 L 55.0578,-78.2606 L 55.0062,-78.15
 L 54.9362,-78.05 L 54.8499,-77.9638 L 54.75,-77.8938 L 54.6394,-77.8422 L 54.5215,-77.8106 L 54.4,-77.8
 z
M 67.2784,-77.8106 L 67.1606,-77.8422 L 67.05,-77.8938 L 66.95,-77.9638 L 66.8638,-78.05 L 66.7938,-78.15
 L 66.7422,-78.2606 L 66.7106,-78.3784 L 66.7,-78.5 L 66.7106,-78.6216 L 66.7422,-78.7394 L 66.7938,-78.85
 L 66.8638,-78.95 L 66.95,-79.0362 L 67.05,-79.1062 L 67.1606,-79.1578 L 67.2784,-79.1894 L 67.4,-79.2
 L 67.5215,-79.1894 L 67.6394,-79.1578 L 67.75,-79.1062 L 67.8499,-79.0362 L 67.9362,-78.95 L 68.0062,-78.85
 L 68.0578,-78.7394 L 68.0894,-78.6216 L 68.1,-78.5 L 68.0894,-78.3784 L 68.0578,-78.2606 L 68.0062,-78.15
 L 67.9362,-78.05 L 67.8499,-77.9638 L 67.75,-77.8938 L 67.6394,-77.8422 L 67.5215,-77.8106 L 67.4,-77.8
 z
M 39.335,-63.5644 L 39.1751,-63.6073 L 39.025,-63.6773 L 38.8893,-63.7722 L 38.7722,-63.8893 L 38.6773,-64.025
 L 38.6073,-64.1751 L 38.5644,-64.335 L 38.55,-64.5 L 38.5644,-64.665 L 38.6073,-64.8249 L 38.6773,-64.975
 L 38.7722,-65.1106 L 38.8893,-65.2277 L 39.025,-65.3227 L 39.1751,-65.3927 L 39.335,-65.4356 L 39.5,-65.45
 L 39.665,-65.4356 L 39.8249,-65.3927 L 39.975,-65.3227 L 40.1106,-65.2277 L 40.2277,-65.1106 L 40.3227,-64.975
 L 40.3927,-64.8249 L 40.4356,-64.665 L 40.45,-64.5 L 40.4356,-64.335 L 40.3927,-64.1751 L 40.3227,-64.025
 L 40.2277,-63.8893 L 40.1106,-63.7722 L 39.975,-63.6773 L 39.8249,-63.6073 L 39.665,-63.5644 L 39.5,-63.55
 z
M 54.2784,-56.6106 L 54.1606,-56.6422 L 54.05,-56.6938 L 53.95,-56.7638 L 53.8638,-56.85 L 53.7938,-56.95
 L 53.7422,-57.0606 L 53.7106,-57.1784 L 53.7,-57.3 L 53.7106,-57.4216 L 53.7422,-57.5394 L 53.7938,-57.65
 L 53.8638,-57.7499 L 53.95,-57.8362 L 54.05,-57.9062 L 54.1606,-57.9578 L 54.2784,-57.9894 L 54.4,-58
 L 54.5215,-57.9894 L 54.6394,-57.9578 L 54.75,-57.9062 L 54.8499,-57.8362 L 54.9362,-57.7499 L 55.0062,-57.65
 L 55.0578,-57.5394 L 55.0894,-57.4216 L 55.1,-57.3 L 55.0894,-57.1784 L 55.0578,-57.0606 L 55.0062,-56.95
 L 54.9362,-56.85 L 54.8499,-56.7638 L 54.75,-56.6938 L 54.6394,-56.6422 L 54.5215,-56.6106 L 54.4,-56.6
 z
M 67.2784,-56.6106 L 67.1606,-56.6422 L 67.05,-56.6938 L 66.95,-56.7638 L 66.8638,-56.85 L 66.7938,-56.95
 L 66.7422,-57.0606 L 66.7106,-57.1784 L 66.7,-57.3 L 66.7106,-57.4216 L 66.7422,-57.5394 L 66.7938,-57.65
 L 66.8638,-57.7499 L 66.95,-57.8362 L 67.05,-57.9062 L 67.1606,-57.9578 L 67.2784,-57.9894 L 67.4,-58
 L 67.5215,-57.9894 L 67.6394,-57.9578 L 67.75,-57.9062 L 67.8499,-57.8362 L 67.9362,-57.7499 L 68.0062,-57.65
 L 68.0578,-57.5394 L 68.0894,-57.4216 L 68.1,-57.3 L 68.0894,-57.1784 L 68.0578,-57.0606 L 68.0062,-56.95
 L 67.9362,-56.85 L 67.8499,-56.7638 L 67.75,-56.6938 L 67.6394,-56.6422 L 67.5215,-56.6106 L 67.4,-56.6
 z
M 39.335,-5.56442 L 39.1751,-5.60728 L 39.025,-5.67726 L 38.8893,-5.77225 L 38.7722,-5.88934 L 38.6773,-6.02499
 L 38.6073,-6.17508 L 38.5644,-6.33502 L 38.55,-6.5 L 38.5644,-6.66496 L 38.6073,-6.82491 L 38.6773,-6.97499
 L 38.7722,-7.11064 L 38.8893,-7.22774 L 39.025,-7.32272 L 39.1751,-7.3927 L 39.335,-7.43556 L 39.5,-7.45
 L 39.665,-7.43556 L 39.8249,-7.3927 L 39.975,-7.32272 L 40.1106,-7.22774 L 40.2277,-7.11064 L 40.3227,-6.97499
 L 40.3927,-6.82491 L 40.4356,-6.66496 L 40.45,-6.5 L 40.4356,-6.33502 L 40.3927,-6.17508 L 40.3227,-6.02499
 L 40.2277,-5.88934 L 40.1106,-5.77225 L 39.975,-5.67726 L 39.8249,-5.60728 L 39.665,-5.56442 L 39.5,-5.54999
 z
M 62.335,-5.56442 L 62.1751,-5.60728 L 62.025,-5.67726 L 61.8893,-5.77225 L 61.7722,-5.88934 L 61.6773,-6.02499
 L 61.6073,-6.17508 L 61.5644,-6.33502 L 61.55,-6.5 L 61.5644,-6.66496 L 61.6073,-6.82491 L 61.6773,-6.97499
 L 61.7722,-7.11064 L 61.8893,-7.22774 L 62.025,-7.32272 L 62.1751,-7.3927 L 62.335,-7.43556 L 62.5,-7.45
 L 62.665,-7.43556 L 62.8249,-7.3927 L 62.975,-7.32272 L 63.1106,-7.22774 L 63.2277,-7.11064 L 63.3227,-6.97499
 L 63.3927,-6.82491 L 63.4356,-6.66496 L 63.45,-6.5 L 63.4356,-6.33502 L 63.3927,-6.17508 L 63.3227,-6.02499
 L 63.2277,-5.88934 L 63.1106,-5.77225 L 62.975,-5.67726 L 62.8249,-5.60728 L 62.665,-5.56442 L 62.5,-5.54999
 z
M 80.8264,-4.01518 L 80.658,-4.0603 L 80.5,-4.13397 L 80.3572,-4.23395 L 80.2339,-4.35721 L 80.134,-4.5
 L 80.0603,-4.65797 L 80.0152,-4.82634 L 80,-5 L 80.0152,-5.17365 L 80.0603,-5.34201 L 80.134,-5.5
 L 80.2339,-5.64278 L 80.3572,-5.76604 L 80.5,-5.86601 L 80.658,-5.93968 L 80.8264,-5.9848 L 81,-6
 L 81.1736,-5.9848 L 81.342,-5.93968 L 81.5,-5.86601 L 81.6428,-5.76604 L 81.766,-5.64278 L 81.866,-5.5
 L 81.9397,-5.34201 L 81.9848,-5.17365 L 82,-5 L 81.9848,-4.82634 L 81.9397,-4.65797 L 81.866,-4.5
 L 81.766,-4.35721 L 81.6428,-4.23395 L 81.5,-4.13397 L 81.342,-4.0603 L 81.1736,-4.01518 L 81,-4
 z
" stroke="black" fill="lightgray" stroke-width="0.5"/>
</svg>
