<?xml version="1.0" standalone="no"?>
<!DOCTYPE svg PUBLIC "-//W3C//DTD SVG 1.1//EN" "http://www.w3.org/Graphics/SVG/1.1/DTD/svg11.dtd">
<svg width="95mm" height="95mm" viewBox="0 -95 95 95" xmlns="http://www.w3.org/2000/svg" version="1.1">
<title>OpenSCAD Model</title>
<path d="
M 86.7,-8 L 94.7,-8 L 94.7,-86.7 L 86.7,-86.7 L 86.7,-94.7 L 8,-94.7
 L 8,-86.7 L 0,-86.7 L 0,-74 L 4,-74 L 4,-82 L 33,-82
 L 33,-0 L 86.7,-0 z
M 56.1,-55 L 56.1,-59 L 52.1,-59 L 52.1,-76.2 L 56.1,-76.2 L 56.1,-80.2
 L 65.1,-80.2 L 65.1,-76.2 L 69.1,-76.2 L 69.1,-80.2 L 72.2,-80.2 L 72.2,-78.2
 L 76.2,-78.2 L 76.2,-57 L 72.2,-57 L 72.2,-55 L 69.1,-55 L 69.1,-59
 L 65.1,-59 L 65.1,-55 z
M 53.9784,-77.5106 L 53.8606,-77.5422 L 53.75,-77.5938 L 53.65,-77.6638 L 53.5638,-77.75 L 53.4938,-77.85
 L 53.4422,-77.9606 L 53.4106,-78.0784 L 53.4,-78.2 L 53.4106,-78.3215 L 53.4422,-78.4394 L 53.4938,-78.55
 L 53.5638,-78.6499 L 53.65,-78.7362 L 53.75,-78.8062 L 53.8606,-78.8578 L 53.9784,-78.8894 L 54.1,-78.9
 L 54.2215,-78.8894 L 54.3394,-78.8578 L 54.45,-78.8062 L 54.5499,-78.7362 L 54.6362,-78.6499 L 54.7062,-78.55
 L 54.7578,-78.4394 L 54.7894,-78.3215 L 54.8,-78.2 L 54.7894,-78.0784 L 54.7578,-77.9606 L 54.7062,-77.85
 L 54.6362,-77.75 L 54.5499,-77.6638 L 54.45,-77.5938 L 54.3394,-77.5422 L 54.2215,-77.5106 L 54.1,-77.5
 z
M 66.9784,-77.5106 L 66.8606,-77.5422 L 66.75,-77.5938 L 66.65,-77.6638 L 66.5638,-77.75 L 66.4938,-77.85
 L 66.4422,-77.9606 L 66.4106,-78.0784 L 66.4,-78.2 L 66.4106,-78.3215 L 66.4422,-78.4394 L 66.4938,-78.55
 L 66.5638,-78.6499 L 66.65,-78.7362 L 66.75,-78.8062 L 66.8606,-78.8578 L 66.9784,-78.8894 L 67.1,-78.9
 L 67.2215,-78.8894 L 67.3394,-78.8578 L 67.45,-78.8062 L 67.5499,-78.7362 L 67.6362,-78.6499 L 67.7062,-78.55
 L 67.7578,-78.4394 L 67.7894,-78.3215 L 67.8,-78.2 L 67.7894,-78.0784 L 67.7578,-77.9606 L 67.7062,-77.85
 L 67.6362,-77.75 L 67.5499,-77.6638 L 67.45,-77.5938 L 67.3394,-77.5422 L 67.2215,-77.5106 L 67.1,-77.5
 z
M 39.035,-63.5644 L 38.8751,-63.6073 L 38.725,-63.6773 L 38.5893,-63.7722 L 38.4723,-63.8893 L 38.3773,-64.025
 L 38.3073,-64.1751 L 38.2644,-64.335 L 38.25,-64.5 L 38.2644,-64.665 L 38.3073,-64.8249 L 38.3773,-64.975
 L 38.4723,-65.1106 L 38.5893,-65.2277 L 38.725,-65.3227 L 38.8751,-65.3927 L 39.035,-65.4356 L 39.2,-65.45
 L 39.365,-65.4356 L 39.5249,-65.3927 L 39.675,-65.3227 L 39.8106,-65.2277 L 39.9277,-65.1106 L 40.0227,-64.975
 L 40.0927,-64.8249 L 40.1356,-64.665 L 40.15,-64.5 L 40.1356,-64.335 L 40.0927,-64.1751 L 40.0227,-64.025
 L 39.9277,-63.8893 L 39.8106,-63.7722 L 39.675,-63.6773 L 39.5249,-63.6073 L 39.365,-63.5644 L 39.2,-63.55
 z
M 66.9784,-56.3106 L 66.8606,-56.3422 L 66.75,-56.3938 L 66.65,-56.4638 L 66.5638,-56.55 L 66.4938,-56.65
 L 66.4422,-56.7606 L 66.4106,-56.8784 L 66.4,-57 L 66.4106,-57.1216 L 66.4422,-57.2394 L 66.4938,-57.35
 L 66.5638,-57.45 L 66.65,-57.5362 L 66.75,-57.6062 L 66.8606,-57.6578 L 66.9784,-57.6894 L 67.1,-57.7
 L 67.2215,-57.6894 L 67.3394,-57.6578 L 67.45,-57.6062 L 67.5499,-57.5362 L 67.6362,-57.45 L 67.7062,-57.35
 L 67.7578,-57.2394 L 67.7894,-57.1216 L 67.8,-57 L 67.7894,-56.8784 L 67.7578,-56.7606 L 67.7062,-56.65
 L 67.6362,-56.55 L 67.5499,-56.4638 L 67.45,-56.3938 L 67.3394,-56.3422 L 67.2215,-56.3106 L 67.1,-56.3
 z
M 53.9784,-56.3106 L 53.8606,-56.3422 L 53.75,-56.3938 L 53.65,-56.4638 L 53.5638,-56.55 L 53.4938,-56.65
 L 53.4422,-56.7606 L 53.4106,-56.8784 L 53.4,-57 L 53.4106,-57.1216 L 53.4422,-57.2394 L 53.4938,-57.35
 L 53.5638,-57.45 L 53.65,-57.5362 L 53.75,-57.6062 L 53.8606,-57.6578 L 53.9784,-57.6894 L 54.1,-57.7
 L 54.2215,-57.6894 L 54.3394,-57.6578 L 54.45,-57.6062 L 54.5499,-57.5362 L 54.6362,-57.45 L 54.7062,-57.35
 L 54.7578,-57.2394 L 54.7894,-57.1216 L 54.8,-57 L 54.7894,-56.8784 L 54.7578,-56.7606 L 54.7062,-56.65
 L 54.6362,-56.55 L 54.5499,-56.4638 L 54.45,-56.3938 L 54.3394,-56.3422 L 54.2215,-56.3106 L 54.1,-56.3
 z
M 39.035,-5.56442 L 38.8751,-5.60728 L 38.725,-5.67726 L 38.5893,-5.77225 L 38.4723,-5.88934 L 38.3773,-6.02499
 L 38.3073,-6.17508 L 38.2644,-6.33502 L 38.25,-6.5 L 38.2644,-6.66496 L 38.3073,-6.82491 L 38.3773,-6.97499
 L 38.4723,-7.11064 L 38.5893,-7.22774 L 38.725,-7.32272 L 38.8751,-7.3927 L 39.035,-7.43556 L 39.2,-7.45
 L 39.365,-7.43556 L 39.5249,-7.3927 L 39.675,-7.32272 L 39.8106,-7.22774 L 39.9277,-7.11064 L 40.0227,-6.97499
 L 40.0927,-6.82491 L 40.1356,-6.66496 L 40.15,-6.5 L 40.1356,-6.33502 L 40.0927,-6.17508 L 40.0227,-6.02499
 L 39.9277,-5.88934 L 39.8106,-5.77225 L 39.675,-5.67726 L 39.5249,-5.60728 L 39.365,-5.56442 L 39.2,-5.54999
 z
M 62.035,-5.56442 L 61.8751,-5.60728 L 61.725,-5.67726 L 61.5893,-5.77225 L 61.4723,-5.88934 L 61.3773,-6.02499
 L 61.3073,-6.17508 L 61.2644,-6.33502 L 61.25,-6.5 L 61.2644,-6.66496 L 61.3073,-6.82491 L 61.3773,-6.97499
 L 61.4723,-7.11064 L 61.5893,-7.22774 L 61.725,-7.32272 L 61.8751,-7.3927 L 62.035,-7.43556 L 62.2,-7.45
 L 62.365,-7.43556 L 62.5249,-7.3927 L 62.675,-7.32272 L 62.8106,-7.22774 L 62.9277,-7.11064 L 63.0227,-6.97499
 L 63.0927,-6.82491 L 63.1356,-6.66496 L 63.15,-6.5 L 63.1356,-6.33502 L 63.0927,-6.17508 L 63.0227,-6.02499
 L 62.9277,-5.88934 L 62.8106,-5.77225 L 62.675,-5.67726 L 62.5249,-5.60728 L 62.365,-5.56442 L 62.2,-5.54999
 z
" stroke="black" fill="lightgray" stroke-width="0.5"/>
</svg>
