  0
SECTION
  2
BLOCKS
  0
ENDSEC
  0
SECTION
  2
ENTITIES
  0
LINE
  8
0
 10
86.7
 20
8
 11
94.7
 21
8
  0
LINE
  8
0
 10
94.7
 20
8
 11
94.7
 21
86.7
  0
LINE
  8
0
 10
94.7
 20
86.7
 11
86.7
 21
86.7
  0
LINE
  8
0
 10
86.7
 20
86.7
 11
86.7
 21
94.7
  0
LINE
  8
0
 10
86.7
 20
94.7
 11
8
 21
94.7
  0
LINE
  8
0
 10
8
 20
94.7
 11
8
 21
86.7
  0
LINE
  8
0
 10
8
 20
86.7
 11
0
 21
86.7
  0
LINE
  8
0
 10
0
 20
86.7
 11
0
 21
74
  0
LINE
  8
0
 10
0
 20
74
 11
4
 21
74
  0
LINE
  8
0
 10
4
 20
74
 11
4
 21
82
  0
LINE
  8
0
 10
4
 20
82
 11
33
 21
82
  0
LINE
  8
0
 10
33
 20
82
 11
33
 21
0
  0
LINE
  8
0
 10
33
 20
0
 11
86.7
 21
0
  0
LINE
  8
0
 10
86.7
 20
0
 11
86.7
 21
8
  0
LINE
  8
0
 10
56.1
 20
55
 11
56.1
 21
59
  0
LINE
  8
0
 10
56.1
 20
59
 11
52.1
 21
59
  0
LINE
  8
0
 10
52.1
 20
59
 11
52.1
 21
76.2
  0
LINE
  8
0
 10
52.1
 20
76.2
 11
56.1
 21
76.2
  0
LINE
  8
0
 10
56.1
 20
76.2
 11
56.1
 21
80.2
  0
LINE
  8
0
 10
56.1
 20
80.2
 11
65.1
 21
80.2
  0
LINE
  8
0
 10
65.1
 20
80.2
 11
65.1
 21
76.2
  0
LINE
  8
0
 10
65.1
 20
76.2
 11
69.1
 21
76.2
  0
LINE
  8
0
 10
69.1
 20
76.2
 11
69.1
 21
80.2
  0
LINE
  8
0
 10
69.1
 20
80.2
 11
72.2
 21
80.2
  0
LINE
  8
0
 10
72.2
 20
80.2
 11
72.2
 21
78.2
  0
LINE
  8
0
 10
72.2
 20
78.2
 11
76.2
 21
78.2
  0
LINE
  8
0
 10
76.2
 20
78.2
 11
76.2
 21
57
  0
LINE
  8
0
 10
76.2
 20
57
 11
72.2
 21
57
  0
LINE
  8
0
 10
72.2
 20
57
 11
72.2
 21
55
  0
LINE
  8
0
 10
72.2
 20
55
 11
69.1
 21
55
  0
LINE
  8
0
 10
69.1
 20
55
 11
69.1
 21
59
  0
LINE
  8
0
 10
69.1
 20
59
 11
65.1
 21
59
  0
LINE
  8
0
 10
65.1
 20
59
 11
65.1
 21
55
  0
LINE
  8
0
 10
65.1
 20
55
 11
56.1
 21
55
  0
LINE
  8
0
 10
53.9784
 20
77.5106
 11
53.8606
 21
77.5422
  0
LINE
  8
0
 10
53.8606
 20
77.5422
 11
53.75
 21
77.5938
  0
LINE
  8
0
 10
53.75
 20
77.5938
 11
53.65
 21
77.6638
  0
LINE
  8
0
 10
53.65
 20
77.6638
 11
53.5638
 21
77.75
  0
LINE
  8
0
 10
53.5638
 20
77.75
 11
53.4938
 21
77.85
  0
LINE
  8
0
 10
53.4938
 20
77.85
 11
53.4422
 21
77.9606
  0
LINE
  8
0
 10
53.4422
 20
77.9606
 11
53.4106
 21
78.0784
  0
LINE
  8
0
 10
53.4106
 20
78.0784
 11
53.4
 21
78.2
  0
LINE
  8
0
 10
53.4
 20
78.2
 11
53.4106
 21
78.3215
  0
LINE
  8
0
 10
53.4106
 20
78.3215
 11
53.4422
 21
78.4394
  0
LINE
  8
0
 10
53.4422
 20
78.4394
 11
53.4938
 21
78.55
  0
LINE
  8
0
 10
53.4938
 20
78.55
 11
53.5638
 21
78.6499
  0
LINE
  8
0
 10
53.5638
 20
78.6499
 11
53.65
 21
78.7362
  0
LINE
  8
0
 10
53.65
 20
78.7362
 11
53.75
 21
78.8062
  0
LINE
  8
0
 10
53.75
 20
78.8062
 11
53.8606
 21
78.8578
  0
LINE
  8
0
 10
53.8606
 20
78.8578
 11
53.9784
 21
78.8894
  0
LINE
  8
0
 10
53.9784
 20
78.8894
 11
54.1
 21
78.9
  0
LINE
  8
0
 10
54.1
 20
78.9
 11
54.2215
 21
78.8894
  0
LINE
  8
0
 10
54.2215
 20
78.8894
 11
54.3394
 21
78.8578
  0
LINE
  8
0
 10
54.3394
 20
78.8578
 11
54.45
 21
78.8062
  0
LINE
  8
0
 10
54.45
 20
78.8062
 11
54.5499
 21
78.7362
  0
LINE
  8
0
 10
54.5499
 20
78.7362
 11
54.6362
 21
78.6499
  0
LINE
  8
0
 10
54.6362
 20
78.6499
 11
54.7062
 21
78.55
  0
LINE
  8
0
 10
54.7062
 20
78.55
 11
54.7578
 21
78.4394
  0
LINE
  8
0
 10
54.7578
 20
78.4394
 11
54.7894
 21
78.3215
  0
LINE
  8
0
 10
54.7894
 20
78.3215
 11
54.8
 21
78.2
  0
LINE
  8
0
 10
54.8
 20
78.2
 11
54.7894
 21
78.0784
  0
LINE
  8
0
 10
54.7894
 20
78.0784
 11
54.7578
 21
77.9606
  0
LINE
  8
0
 10
54.7578
 20
77.9606
 11
54.7062
 21
77.85
  0
LINE
  8
0
 10
54.7062
 20
77.85
 11
54.6362
 21
77.75
  0
LINE
  8
0
 10
54.6362
 20
77.75
 11
54.5499
 21
77.6638
  0
LINE
  8
0
 10
54.5499
 20
77.6638
 11
54.45
 21
77.5938
  0
LINE
  8
0
 10
54.45
 20
77.5938
 11
54.3394
 21
77.5422
  0
LINE
  8
0
 10
54.3394
 20
77.5422
 11
54.2215
 21
77.5106
  0
LINE
  8
0
 10
54.2215
 20
77.5106
 11
54.1
 21
77.5
  0
LINE
  8
0
 10
54.1
 20
77.5
 11
53.9784
 21
77.5106
  0
LINE
  8
0
 10
66.9784
 20
77.5106
 11
66.8606
 21
77.5422
  0
LINE
  8
0
 10
66.8606
 20
77.5422
 11
66.75
 21
77.5938
  0
LINE
  8
0
 10
66.75
 20
77.5938
 11
66.65
 21
77.6638
  0
LINE
  8
0
 10
66.65
 20
77.6638
 11
66.5638
 21
77.75
  0
LINE
  8
0
 10
66.5638
 20
77.75
 11
66.4938
 21
77.85
  0
LINE
  8
0
 10
66.4938
 20
77.85
 11
66.4422
 21
77.9606
  0
LINE
  8
0
 10
66.4422
 20
77.9606
 11
66.4106
 21
78.0784
  0
LINE
  8
0
 10
66.4106
 20
78.0784
 11
66.4
 21
78.2
  0
LINE
  8
0
 10
66.4
 20
78.2
 11
66.4106
 21
78.3215
  0
LINE
  8
0
 10
66.4106
 20
78.3215
 11
66.4422
 21
78.4394
  0
LINE
  8
0
 10
66.4422
 20
78.4394
 11
66.4938
 21
78.55
  0
LINE
  8
0
 10
66.4938
 20
78.55
 11
66.5638
 21
78.6499
  0
LINE
  8
0
 10
66.5638
 20
78.6499
 11
66.65
 21
78.7362
  0
LINE
  8
0
 10
66.65
 20
78.7362
 11
66.75
 21
78.8062
  0
LINE
  8
0
 10
66.75
 20
78.8062
 11
66.8606
 21
78.8578
  0
LINE
  8
0
 10
66.8606
 20
78.8578
 11
66.9784
 21
78.8894
  0
LINE
  8
0
 10
66.9784
 20
78.8894
 11
67.1
 21
78.9
  0
LINE
  8
0
 10
67.1
 20
78.9
 11
67.2215
 21
78.8894
  0
LINE
  8
0
 10
67.2215
 20
78.8894
 11
67.3394
 21
78.8578
  0
LINE
  8
0
 10
67.3394
 20
78.8578
 11
67.45
 21
78.8062
  0
LINE
  8
0
 10
67.45
 20
78.8062
 11
67.5499
 21
78.7362
  0
LINE
  8
0
 10
67.5499
 20
78.7362
 11
67.6362
 21
78.6499
  0
LINE
  8
0
 10
67.6362
 20
78.6499
 11
67.7062
 21
78.55
  0
LINE
  8
0
 10
67.7062
 20
78.55
 11
67.7578
 21
78.4394
  0
LINE
  8
0
 10
67.7578
 20
78.4394
 11
67.7894
 21
78.3215
  0
LINE
  8
0
 10
67.7894
 20
78.3215
 11
67.8
 21
78.2
  0
LINE
  8
0
 10
67.8
 20
78.2
 11
67.7894
 21
78.0784
  0
LINE
  8
0
 10
67.7894
 20
78.0784
 11
67.7578
 21
77.9606
  0
LINE
  8
0
 10
67.7578
 20
77.9606
 11
67.7062
 21
77.85
  0
LINE
  8
0
 10
67.7062
 20
77.85
 11
67.6362
 21
77.75
  0
LINE
  8
0
 10
67.6362
 20
77.75
 11
67.5499
 21
77.6638
  0
LINE
  8
0
 10
67.5499
 20
77.6638
 11
67.45
 21
77.5938
  0
LINE
  8
0
 10
67.45
 20
77.5938
 11
67.3394
 21
77.5422
  0
LINE
  8
0
 10
67.3394
 20
77.5422
 11
67.2215
 21
77.5106
  0
LINE
  8
0
 10
67.2215
 20
77.5106
 11
67.1
 21
77.5
  0
LINE
  8
0
 10
67.1
 20
77.5
 11
66.9784
 21
77.5106
  0
LINE
  8
0
 10
39.035
 20
63.5644
 11
38.8751
 21
63.6073
  0
LINE
  8
0
 10
38.8751
 20
63.6073
 11
38.725
 21
63.6773
  0
LINE
  8
0
 10
38.725
 20
63.6773
 11
38.5893
 21
63.7722
  0
LINE
  8
0
 10
38.5893
 20
63.7722
 11
38.4723
 21
63.8893
  0
LINE
  8
0
 10
38.4723
 20
63.8893
 11
38.3773
 21
64.025
  0
LINE
  8
0
 10
38.3773
 20
64.025
 11
38.3073
 21
64.1751
  0
LINE
  8
0
 10
38.3073
 20
64.1751
 11
38.2644
 21
64.335
  0
LINE
  8
0
 10
38.2644
 20
64.335
 11
38.25
 21
64.5
  0
LINE
  8
0
 10
38.25
 20
64.5
 11
38.2644
 21
64.665
  0
LINE
  8
0
 10
38.2644
 20
64.665
 11
38.3073
 21
64.8249
  0
LINE
  8
0
 10
38.3073
 20
64.8249
 11
38.3773
 21
64.975
  0
LINE
  8
0
 10
38.3773
 20
64.975
 11
38.4723
 21
65.1106
  0
LINE
  8
0
 10
38.4723
 20
65.1106
 11
38.5893
 21
65.2277
  0
LINE
  8
0
 10
38.5893
 20
65.2277
 11
38.725
 21
65.3227
  0
LINE
  8
0
 10
38.725
 20
65.3227
 11
38.8751
 21
65.3927
  0
LINE
  8
0
 10
38.8751
 20
65.3927
 11
39.035
 21
65.4356
  0
LINE
  8
0
 10
39.035
 20
65.4356
 11
39.2
 21
65.45
  0
LINE
  8
0
 10
39.2
 20
65.45
 11
39.365
 21
65.4356
  0
LINE
  8
0
 10
39.365
 20
65.4356
 11
39.5249
 21
65.3927
  0
LINE
  8
0
 10
39.5249
 20
65.3927
 11
39.675
 21
65.3227
  0
LINE
  8
0
 10
39.675
 20
65.3227
 11
39.8106
 21
65.2277
  0
LINE
  8
0
 10
39.8106
 20
65.2277
 11
39.9277
 21
65.1106
  0
LINE
  8
0
 10
39.9277
 20
65.1106
 11
40.0227
 21
64.975
  0
LINE
  8
0
 10
40.0227
 20
64.975
 11
40.0927
 21
64.8249
  0
LINE
  8
0
 10
40.0927
 20
64.8249
 11
40.1356
 21
64.665
  0
LINE
  8
0
 10
40.1356
 20
64.665
 11
40.15
 21
64.5
  0
LINE
  8
0
 10
40.15
 20
64.5
 11
40.1356
 21
64.335
  0
LINE
  8
0
 10
40.1356
 20
64.335
 11
40.0927
 21
64.1751
  0
LINE
  8
0
 10
40.0927
 20
64.1751
 11
40.0227
 21
64.025
  0
LINE
  8
0
 10
40.0227
 20
64.025
 11
39.9277
 21
63.8893
  0
LINE
  8
0
 10
39.9277
 20
63.8893
 11
39.8106
 21
63.7722
  0
LINE
  8
0
 10
39.8106
 20
63.7722
 11
39.675
 21
63.6773
  0
LINE
  8
0
 10
39.675
 20
63.6773
 11
39.5249
 21
63.6073
  0
LINE
  8
0
 10
39.5249
 20
63.6073
 11
39.365
 21
63.5644
  0
LINE
  8
0
 10
39.365
 20
63.5644
 11
39.2
 21
63.55
  0
LINE
  8
0
 10
39.2
 20
63.55
 11
39.035
 21
63.5644
  0
LINE
  8
0
 10
66.9784
 20
56.3106
 11
66.8606
 21
56.3422
  0
LINE
  8
0
 10
66.8606
 20
56.3422
 11
66.75
 21
56.3938
  0
LINE
  8
0
 10
66.75
 20
56.3938
 11
66.65
 21
56.4638
  0
LINE
  8
0
 10
66.65
 20
56.4638
 11
66.5638
 21
56.55
  0
LINE
  8
0
 10
66.5638
 20
56.55
 11
66.4938
 21
56.65
  0
LINE
  8
0
 10
66.4938
 20
56.65
 11
66.4422
 21
56.7606
  0
LINE
  8
0
 10
66.4422
 20
56.7606
 11
66.4106
 21
56.8784
  0
LINE
  8
0
 10
66.4106
 20
56.8784
 11
66.4
 21
57
  0
LINE
  8
0
 10
66.4
 20
57
 11
66.4106
 21
57.1216
  0
LINE
  8
0
 10
66.4106
 20
57.1216
 11
66.4422
 21
57.2394
  0
LINE
  8
0
 10
66.4422
 20
57.2394
 11
66.4938
 21
57.35
  0
LINE
  8
0
 10
66.4938
 20
57.35
 11
66.5638
 21
57.45
  0
LINE
  8
0
 10
66.5638
 20
57.45
 11
66.65
 21
57.5362
  0
LINE
  8
0
 10
66.65
 20
57.5362
 11
66.75
 21
57.6062
  0
LINE
  8
0
 10
66.75
 20
57.6062
 11
66.8606
 21
57.6578
  0
LINE
  8
0
 10
66.8606
 20
57.6578
 11
66.9784
 21
57.6894
  0
LINE
  8
0
 10
66.9784
 20
57.6894
 11
67.1
 21
57.7
  0
LINE
  8
0
 10
67.1
 20
57.7
 11
67.2215
 21
57.6894
  0
LINE
  8
0
 10
67.2215
 20
57.6894
 11
67.3394
 21
57.6578
  0
LINE
  8
0
 10
67.3394
 20
57.6578
 11
67.45
 21
57.6062
  0
LINE
  8
0
 10
67.45
 20
57.6062
 11
67.5499
 21
57.5362
  0
LINE
  8
0
 10
67.5499
 20
57.5362
 11
67.6362
 21
57.45
  0
LINE
  8
0
 10
67.6362
 20
57.45
 11
67.7062
 21
57.35
  0
LINE
  8
0
 10
67.7062
 20
57.35
 11
67.7578
 21
57.2394
  0
LINE
  8
0
 10
67.7578
 20
57.2394
 11
67.7894
 21
57.1216
  0
LINE
  8
0
 10
67.7894
 20
57.1216
 11
67.8
 21
57
  0
LINE
  8
0
 10
67.8
 20
57
 11
67.7894
 21
56.8784
  0
LINE
  8
0
 10
67.7894
 20
56.8784
 11
67.7578
 21
56.7606
  0
LINE
  8
0
 10
67.7578
 20
56.7606
 11
67.7062
 21
56.65
  0
LINE
  8
0
 10
67.7062
 20
56.65
 11
67.6362
 21
56.55
  0
LINE
  8
0
 10
67.6362
 20
56.55
 11
67.5499
 21
56.4638
  0
LINE
  8
0
 10
67.5499
 20
56.4638
 11
67.45
 21
56.3938
  0
LINE
  8
0
 10
67.45
 20
56.3938
 11
67.3394
 21
56.3422
  0
LINE
  8
0
 10
67.3394
 20
56.3422
 11
67.2215
 21
56.3106
  0
LINE
  8
0
 10
67.2215
 20
56.3106
 11
67.1
 21
56.3
  0
LINE
  8
0
 10
67.1
 20
56.3
 11
66.9784
 21
56.3106
  0
LINE
  8
0
 10
53.9784
 20
56.3106
 11
53.8606
 21
56.3422
  0
LINE
  8
0
 10
53.8606
 20
56.3422
 11
53.75
 21
56.3938
  0
LINE
  8
0
 10
53.75
 20
56.3938
 11
53.65
 21
56.4638
  0
LINE
  8
0
 10
53.65
 20
56.4638
 11
53.5638
 21
56.55
  0
LINE
  8
0
 10
53.5638
 20
56.55
 11
53.4938
 21
56.65
  0
LINE
  8
0
 10
53.4938
 20
56.65
 11
53.4422
 21
56.7606
  0
LINE
  8
0
 10
53.4422
 20
56.7606
 11
53.4106
 21
56.8784
  0
LINE
  8
0
 10
53.4106
 20
56.8784
 11
53.4
 21
57
  0
LINE
  8
0
 10
53.4
 20
57
 11
53.4106
 21
57.1216
  0
LINE
  8
0
 10
53.4106
 20
57.1216
 11
53.4422
 21
57.2394
  0
LINE
  8
0
 10
53.4422
 20
57.2394
 11
53.4938
 21
57.35
  0
LINE
  8
0
 10
53.4938
 20
57.35
 11
53.5638
 21
57.45
  0
LINE
  8
0
 10
53.5638
 20
57.45
 11
53.65
 21
57.5362
  0
LINE
  8
0
 10
53.65
 20
57.5362
 11
53.75
 21
57.6062
  0
LINE
  8
0
 10
53.75
 20
57.6062
 11
53.8606
 21
57.6578
  0
LINE
  8
0
 10
53.8606
 20
57.6578
 11
53.9784
 21
57.6894
  0
LINE
  8
0
 10
53.9784
 20
57.6894
 11
54.1
 21
57.7
  0
LINE
  8
0
 10
54.1
 20
57.7
 11
54.2215
 21
57.6894
  0
LINE
  8
0
 10
54.2215
 20
57.6894
 11
54.3394
 21
57.6578
  0
LINE
  8
0
 10
54.3394
 20
57.6578
 11
54.45
 21
57.6062
  0
LINE
  8
0
 10
54.45
 20
57.6062
 11
54.5499
 21
57.5362
  0
LINE
  8
0
 10
54.5499
 20
57.5362
 11
54.6362
 21
57.45
  0
LINE
  8
0
 10
54.6362
 20
57.45
 11
54.7062
 21
57.35
  0
LINE
  8
0
 10
54.7062
 20
57.35
 11
54.7578
 21
57.2394
  0
LINE
  8
0
 10
54.7578
 20
57.2394
 11
54.7894
 21
57.1216
  0
LINE
  8
0
 10
54.7894
 20
57.1216
 11
54.8
 21
57
  0
LINE
  8
0
 10
54.8
 20
57
 11
54.7894
 21
56.8784
  0
LINE
  8
0
 10
54.7894
 20
56.8784
 11
54.7578
 21
56.7606
  0
LINE
  8
0
 10
54.7578
 20
56.7606
 11
54.7062
 21
56.65
  0
LINE
  8
0
 10
54.7062
 20
56.65
 11
54.6362
 21
56.55
  0
LINE
  8
0
 10
54.6362
 20
56.55
 11
54.5499
 21
56.4638
  0
LINE
  8
0
 10
54.5499
 20
56.4638
 11
54.45
 21
56.3938
  0
LINE
  8
0
 10
54.45
 20
56.3938
 11
54.3394
 21
56.3422
  0
LINE
  8
0
 10
54.3394
 20
56.3422
 11
54.2215
 21
56.3106
  0
LINE
  8
0
 10
54.2215
 20
56.3106
 11
54.1
 21
56.3
  0
LINE
  8
0
 10
54.1
 20
56.3
 11
53.9784
 21
56.3106
  0
LINE
  8
0
 10
39.035
 20
5.56442
 11
38.8751
 21
5.60728
  0
LINE
  8
0
 10
38.8751
 20
5.60728
 11
38.725
 21
5.67726
  0
LINE
  8
0
 10
38.725
 20
5.67726
 11
38.5893
 21
5.77225
  0
LINE
  8
0
 10
38.5893
 20
5.77225
 11
38.4723
 21
5.88934
  0
LINE
  8
0
 10
38.4723
 20
5.88934
 11
38.3773
 21
6.02499
  0
LINE
  8
0
 10
38.3773
 20
6.02499
 11
38.3073
 21
6.17508
  0
LINE
  8
0
 10
38.3073
 20
6.17508
 11
38.2644
 21
6.33502
  0
LINE
  8
0
 10
38.2644
 20
6.33502
 11
38.25
 21
6.5
  0
LINE
  8
0
 10
38.25
 20
6.5
 11
38.2644
 21
6.66496
  0
LINE
  8
0
 10
38.2644
 20
6.66496
 11
38.3073
 21
6.82491
  0
LINE
  8
0
 10
38.3073
 20
6.82491
 11
38.3773
 21
6.97499
  0
LINE
  8
0
 10
38.3773
 20
6.97499
 11
38.4723
 21
7.11064
  0
LINE
  8
0
 10
38.4723
 20
7.11064
 11
38.5893
 21
7.22774
  0
LINE
  8
0
 10
38.5893
 20
7.22774
 11
38.725
 21
7.32272
  0
LINE
  8
0
 10
38.725
 20
7.32272
 11
38.8751
 21
7.3927
  0
LINE
  8
0
 10
38.8751
 20
7.3927
 11
39.035
 21
7.43556
  0
LINE
  8
0
 10
39.035
 20
7.43556
 11
39.2
 21
7.45
  0
LINE
  8
0
 10
39.2
 20
7.45
 11
39.365
 21
7.43556
  0
LINE
  8
0
 10
39.365
 20
7.43556
 11
39.5249
 21
7.3927
  0
LINE
  8
0
 10
39.5249
 20
7.3927
 11
39.675
 21
7.32272
  0
LINE
  8
0
 10
39.675
 20
7.32272
 11
39.8106
 21
7.22774
  0
LINE
  8
0
 10
39.8106
 20
7.22774
 11
39.9277
 21
7.11064
  0
LINE
  8
0
 10
39.9277
 20
7.11064
 11
40.0227
 21
6.97499
  0
LINE
  8
0
 10
40.0227
 20
6.97499
 11
40.0927
 21
6.82491
  0
LINE
  8
0
 10
40.0927
 20
6.82491
 11
40.1356
 21
6.66496
  0
LINE
  8
0
 10
40.1356
 20
6.66496
 11
40.15
 21
6.5
  0
LINE
  8
0
 10
40.15
 20
6.5
 11
40.1356
 21
6.33502
  0
LINE
  8
0
 10
40.1356
 20
6.33502
 11
40.0927
 21
6.17508
  0
LINE
  8
0
 10
40.0927
 20
6.17508
 11
40.0227
 21
6.02499
  0
LINE
  8
0
 10
40.0227
 20
6.02499
 11
39.9277
 21
5.88934
  0
LINE
  8
0
 10
39.9277
 20
5.88934
 11
39.8106
 21
5.77225
  0
LINE
  8
0
 10
39.8106
 20
5.77225
 11
39.675
 21
5.67726
  0
LINE
  8
0
 10
39.675
 20
5.67726
 11
39.5249
 21
5.60728
  0
LINE
  8
0
 10
39.5249
 20
5.60728
 11
39.365
 21
5.56442
  0
LINE
  8
0
 10
39.365
 20
5.56442
 11
39.2
 21
5.54999
  0
LINE
  8
0
 10
39.2
 20
5.54999
 11
39.035
 21
5.56442
  0
LINE
  8
0
 10
62.035
 20
5.56442
 11
61.8751
 21
5.60728
  0
LINE
  8
0
 10
61.8751
 20
5.60728
 11
61.725
 21
5.67726
  0
LINE
  8
0
 10
61.725
 20
5.67726
 11
61.5893
 21
5.77225
  0
LINE
  8
0
 10
61.5893
 20
5.77225
 11
61.4723
 21
5.88934
  0
LINE
  8
0
 10
61.4723
 20
5.88934
 11
61.3773
 21
6.02499
  0
LINE
  8
0
 10
61.3773
 20
6.02499
 11
61.3073
 21
6.17508
  0
LINE
  8
0
 10
61.3073
 20
6.17508
 11
61.2644
 21
6.33502
  0
LINE
  8
0
 10
61.2644
 20
6.33502
 11
61.25
 21
6.5
  0
LINE
  8
0
 10
61.25
 20
6.5
 11
61.2644
 21
6.66496
  0
LINE
  8
0
 10
61.2644
 20
6.66496
 11
61.3073
 21
6.82491
  0
LINE
  8
0
 10
61.3073
 20
6.82491
 11
61.3773
 21
6.97499
  0
LINE
  8
0
 10
61.3773
 20
6.97499
 11
61.4723
 21
7.11064
  0
LINE
  8
0
 10
61.4723
 20
7.11064
 11
61.5893
 21
7.22774
  0
LINE
  8
0
 10
61.5893
 20
7.22774
 11
61.725
 21
7.32272
  0
LINE
  8
0
 10
61.725
 20
7.32272
 11
61.8751
 21
7.3927
  0
LINE
  8
0
 10
61.8751
 20
7.3927
 11
62.035
 21
7.43556
  0
LINE
  8
0
 10
62.035
 20
7.43556
 11
62.2
 21
7.45
  0
LINE
  8
0
 10
62.2
 20
7.45
 11
62.365
 21
7.43556
  0
LINE
  8
0
 10
62.365
 20
7.43556
 11
62.5249
 21
7.3927
  0
LINE
  8
0
 10
62.5249
 20
7.3927
 11
62.675
 21
7.32272
  0
LINE
  8
0
 10
62.675
 20
7.32272
 11
62.8106
 21
7.22774
  0
LINE
  8
0
 10
62.8106
 20
7.22774
 11
62.9277
 21
7.11064
  0
LINE
  8
0
 10
62.9277
 20
7.11064
 11
63.0227
 21
6.97499
  0
LINE
  8
0
 10
63.0227
 20
6.97499
 11
63.0927
 21
6.82491
  0
LINE
  8
0
 10
63.0927
 20
6.82491
 11
63.1356
 21
6.66496
  0
LINE
  8
0
 10
63.1356
 20
6.66496
 11
63.15
 21
6.5
  0
LINE
  8
0
 10
63.15
 20
6.5
 11
63.1356
 21
6.33502
  0
LINE
  8
0
 10
63.1356
 20
6.33502
 11
63.0927
 21
6.17508
  0
LINE
  8
0
 10
63.0927
 20
6.17508
 11
63.0227
 21
6.02499
  0
LINE
  8
0
 10
63.0227
 20
6.02499
 11
62.9277
 21
5.88934
  0
LINE
  8
0
 10
62.9277
 20
5.88934
 11
62.8106
 21
5.77225
  0
LINE
  8
0
 10
62.8106
 20
5.77225
 11
62.675
 21
5.67726
  0
LINE
  8
0
 10
62.675
 20
5.67726
 11
62.5249
 21
5.60728
  0
LINE
  8
0
 10
62.5249
 20
5.60728
 11
62.365
 21
5.56442
  0
LINE
  8
0
 10
62.365
 20
5.56442
 11
62.2
 21
5.54999
  0
LINE
  8
0
 10
62.2
 20
5.54999
 11
62.035
 21
5.56442
  0
ENDSEC
  0
SECTION
  2
OBJECTS
  0
DICTIONARY
  0
ENDSEC
  0
EOF
