  0
SECTION
  2
BLOCKS
  0
ENDSEC
  0
SECTION
  2
ENTITIES
  0
LINE
  8
0
 10
0.296677
 20
-16.9974
 11
0.593277
 21
-16.9896
  0
LINE
  8
0
 10
0.593277
 20
-16.9896
 11
0.889709
 21
-16.9767
  0
LINE
  8
0
 10
0.889709
 20
-16.9767
 11
1.18585
 21
-16.9586
  0
LINE
  8
0
 10
1.18585
 20
-16.9586
 11
1.48164
 21
-16.9353
  0
LINE
  8
0
 10
1.48164
 20
-16.9353
 11
1.77698
 21
-16.9069
  0
LINE
  8
0
 10
1.77698
 20
-16.9069
 11
2.07178
 21
-16.8733
  0
LINE
  8
0
 10
2.07178
 20
-16.8733
 11
2.36594
 21
-16.8345
  0
LINE
  8
0
 10
2.36594
 20
-16.8345
 11
2.65938
 21
-16.7907
  0
LINE
  8
0
 10
2.65938
 20
-16.7907
 11
2.95201
 21
-16.7417
  0
LINE
  8
0
 10
2.95201
 20
-16.7417
 11
3.24374
 21
-16.6877
  0
LINE
  8
0
 10
3.24374
 20
-16.6877
 11
3.53448
 21
-16.6285
  0
LINE
  8
0
 10
3.53448
 20
-16.6285
 11
3.82416
 21
-16.5643
  0
LINE
  8
0
 10
3.82416
 20
-16.5643
 11
4.11267
 21
-16.495
  0
LINE
  8
0
 10
4.11267
 20
-16.495
 11
4.39992
 21
-16.4207
  0
LINE
  8
0
 10
4.39992
 20
-16.4207
 11
4.68582
 21
-16.3414
  0
LINE
  8
0
 10
4.68582
 20
-16.3414
 11
4.97031
 21
-16.2572
  0
LINE
  8
0
 10
4.97031
 20
-16.2572
 11
5.25328
 21
-16.168
  0
LINE
  8
0
 10
5.25328
 20
-16.168
 11
5.53465
 21
-16.0738
  0
LINE
  8
0
 10
5.53465
 20
-16.0738
 11
5.81433
 21
-15.9748
  0
LINE
  8
0
 10
5.81433
 20
-15.9748
 11
6.09225
 21
-15.8709
  0
LINE
  8
0
 10
6.09225
 20
-15.8709
 11
6.3683
 21
-15.7621
  0
LINE
  8
0
 10
6.3683
 20
-15.7621
 11
6.64243
 21
-15.6486
  0
LINE
  8
0
 10
6.64243
 20
-15.6486
 11
6.91452
 21
-15.5303
  0
LINE
  8
0
 10
6.91452
 20
-15.5303
 11
7.18451
 21
-15.4072
  0
LINE
  8
0
 10
7.18451
 20
-15.4072
 11
7.4523
 21
-15.2795
  0
LINE
  8
0
 10
7.4523
 20
-15.2795
 11
7.71783
 21
-15.1471
  0
LINE
  8
0
 10
7.71783
 20
-15.1471
 11
7.981
 21
-15.0101
  0
LINE
  8
0
 10
7.981
 20
-15.0101
 11
8.24176
 21
-14.8685
  0
LINE
  8
0
 10
8.24176
 20
-14.8685
 11
8.5
 21
-14.7224
  0
LINE
  8
0
 10
8.5
 20
-14.7224
 11
8.75565
 21
-14.5718
  0
LINE
  8
0
 10
8.75565
 20
-14.5718
 11
9.00862
 21
-14.4168
  0
LINE
  8
0
 10
9.00862
 20
-14.4168
 11
9.25885
 21
-14.2574
  0
LINE
  8
0
 10
9.25885
 20
-14.2574
 11
9.50627
 21
-14.0936
  0
LINE
  8
0
 10
9.50627
 20
-14.0936
 11
9.75079
 21
-13.9256
  0
LINE
  8
0
 10
9.75079
 20
-13.9256
 11
9.99234
 21
-13.7533
  0
LINE
  8
0
 10
9.99234
 20
-13.7533
 11
10.2309
 21
-13.5768
  0
LINE
  8
0
 10
10.2309
 20
-13.5768
 11
10.4662
 21
-13.3962
  0
LINE
  8
0
 10
10.4662
 20
-13.3962
 11
10.6984
 21
-13.2115
  0
LINE
  8
0
 10
10.6984
 20
-13.2115
 11
10.9274
 21
-13.0228
  0
LINE
  8
0
 10
10.9274
 20
-13.0228
 11
11.153
 21
-12.83
  0
LINE
  8
0
 10
11.153
 20
-12.83
 11
11.3752
 21
-12.6335
  0
LINE
  8
0
 10
11.3752
 20
-12.6335
 11
11.594
 21
-12.433
  0
LINE
  8
0
 10
11.594
 20
-12.433
 11
11.8092
 21
-12.2288
  0
LINE
  8
0
 10
11.8092
 20
-12.2288
 11
12.0208
 21
-12.0208
  0
LINE
  8
0
 10
12.0208
 20
-12.0208
 11
12.2288
 21
-11.8092
  0
LINE
  8
0
 10
12.2288
 20
-11.8092
 11
12.433
 21
-11.594
  0
LINE
  8
0
 10
12.433
 20
-11.594
 11
12.6335
 21
-11.3752
  0
LINE
  8
0
 10
12.6335
 20
-11.3752
 11
12.83
 21
-11.153
  0
LINE
  8
0
 10
12.83
 20
-11.153
 11
13.0228
 21
-10.9274
  0
LINE
  8
0
 10
13.0228
 20
-10.9274
 11
13.2115
 21
-10.6984
  0
LINE
  8
0
 10
13.2115
 20
-10.6984
 11
13.3962
 21
-10.4662
  0
LINE
  8
0
 10
13.3962
 20
-10.4662
 11
13.5768
 21
-10.2309
  0
LINE
  8
0
 10
13.5768
 20
-10.2309
 11
13.7533
 21
-9.99234
  0
LINE
  8
0
 10
13.7533
 20
-9.99234
 11
13.9256
 21
-9.75079
  0
LINE
  8
0
 10
13.9256
 20
-9.75079
 11
14.0936
 21
-9.50627
  0
LINE
  8
0
 10
14.0936
 20
-9.50627
 11
14.2574
 21
-9.25885
  0
LINE
  8
0
 10
14.2574
 20
-9.25885
 11
14.4168
 21
-9.00862
  0
LINE
  8
0
 10
14.4168
 20
-9.00862
 11
14.5718
 21
-8.75565
  0
LINE
  8
0
 10
14.5718
 20
-8.75565
 11
14.7224
 21
-8.5
  0
LINE
  8
0
 10
14.7224
 20
-8.5
 11
14.8685
 21
-8.24176
  0
LINE
  8
0
 10
14.8685
 20
-8.24176
 11
15.0101
 21
-7.981
  0
LINE
  8
0
 10
15.0101
 20
-7.981
 11
15.1471
 21
-7.71783
  0
LINE
  8
0
 10
15.1471
 20
-7.71783
 11
15.2795
 21
-7.4523
  0
LINE
  8
0
 10
15.2795
 20
-7.4523
 11
15.4072
 21
-7.18451
  0
LINE
  8
0
 10
15.4072
 20
-7.18451
 11
15.5303
 21
-6.91452
  0
LINE
  8
0
 10
15.5303
 20
-6.91452
 11
15.6486
 21
-6.64243
  0
LINE
  8
0
 10
15.6486
 20
-6.64243
 11
15.7621
 21
-6.3683
  0
LINE
  8
0
 10
15.7621
 20
-6.3683
 11
15.8709
 21
-6.09225
  0
LINE
  8
0
 10
15.8709
 20
-6.09225
 11
15.9748
 21
-5.81433
  0
LINE
  8
0
 10
15.9748
 20
-5.81433
 11
16.0738
 21
-5.53465
  0
LINE
  8
0
 10
16.0738
 20
-5.53465
 11
16.168
 21
-5.25328
  0
LINE
  8
0
 10
16.168
 20
-5.25328
 11
16.2572
 21
-4.97031
  0
LINE
  8
0
 10
16.2572
 20
-4.97031
 11
16.3414
 21
-4.68582
  0
LINE
  8
0
 10
16.3414
 20
-4.68582
 11
16.4207
 21
-4.39992
  0
LINE
  8
0
 10
16.4207
 20
-4.39992
 11
16.495
 21
-4.11267
  0
LINE
  8
0
 10
16.495
 20
-4.11267
 11
16.5643
 21
-3.82416
  0
LINE
  8
0
 10
16.5643
 20
-3.82416
 11
16.6285
 21
-3.53448
  0
LINE
  8
0
 10
16.6285
 20
-3.53448
 11
16.6877
 21
-3.24374
  0
LINE
  8
0
 10
16.6877
 20
-3.24374
 11
16.7417
 21
-2.95201
  0
LINE
  8
0
 10
16.7417
 20
-2.95201
 11
16.7907
 21
-2.65938
  0
LINE
  8
0
 10
16.7907
 20
-2.65938
 11
16.8345
 21
-2.36594
  0
LINE
  8
0
 10
16.8345
 20
-2.36594
 11
16.8733
 21
-2.07178
  0
LINE
  8
0
 10
16.8733
 20
-2.07178
 11
16.9069
 21
-1.77698
  0
LINE
  8
0
 10
16.9069
 20
-1.77698
 11
16.9353
 21
-1.48164
  0
LINE
  8
0
 10
16.9353
 20
-1.48164
 11
16.9586
 21
-1.18585
  0
LINE
  8
0
 10
16.9586
 20
-1.18585
 11
16.9767
 21
-0.889709
  0
LINE
  8
0
 10
16.9767
 20
-0.889709
 11
16.9896
 21
-0.593277
  0
LINE
  8
0
 10
16.9896
 20
-0.593277
 11
16.9974
 21
-0.296677
  0
LINE
  8
0
 10
16.9974
 20
-0.296677
 11
17
 21
0
  0
LINE
  8
0
 10
17
 20
0
 11
16.9974
 21
0.296677
  0
LINE
  8
0
 10
16.9974
 20
0.296677
 11
16.9896
 21
0.593277
  0
LINE
  8
0
 10
16.9896
 20
0.593277
 11
16.9767
 21
0.889709
  0
LINE
  8
0
 10
16.9767
 20
0.889709
 11
16.9586
 21
1.18585
  0
LINE
  8
0
 10
16.9586
 20
1.18585
 11
16.9353
 21
1.48164
  0
LINE
  8
0
 10
16.9353
 20
1.48164
 11
16.9069
 21
1.77698
  0
LINE
  8
0
 10
16.9069
 20
1.77698
 11
16.8733
 21
2.07178
  0
LINE
  8
0
 10
16.8733
 20
2.07178
 11
16.8345
 21
2.36594
  0
LINE
  8
0
 10
16.8345
 20
2.36594
 11
16.7907
 21
2.65938
  0
LINE
  8
0
 10
16.7907
 20
2.65938
 11
16.7417
 21
2.95201
  0
LINE
  8
0
 10
16.7417
 20
2.95201
 11
16.6877
 21
3.24374
  0
LINE
  8
0
 10
16.6877
 20
3.24374
 11
16.6285
 21
3.53448
  0
LINE
  8
0
 10
16.6285
 20
3.53448
 11
16.5643
 21
3.82416
  0
LINE
  8
0
 10
16.5643
 20
3.82416
 11
16.495
 21
4.11267
  0
LINE
  8
0
 10
16.495
 20
4.11267
 11
16.4207
 21
4.39992
  0
LINE
  8
0
 10
16.4207
 20
4.39992
 11
16.3414
 21
4.68582
  0
LINE
  8
0
 10
16.3414
 20
4.68582
 11
16.2572
 21
4.97031
  0
LINE
  8
0
 10
16.2572
 20
4.97031
 11
16.168
 21
5.25328
  0
LINE
  8
0
 10
16.168
 20
5.25328
 11
16.0738
 21
5.53465
  0
LINE
  8
0
 10
16.0738
 20
5.53465
 11
15.9748
 21
5.81433
  0
LINE
  8
0
 10
15.9748
 20
5.81433
 11
15.8709
 21
6.09225
  0
LINE
  8
0
 10
15.8709
 20
6.09225
 11
15.7621
 21
6.3683
  0
LINE
  8
0
 10
15.7621
 20
6.3683
 11
15.6486
 21
6.64243
  0
LINE
  8
0
 10
15.6486
 20
6.64243
 11
15.5303
 21
6.91452
  0
LINE
  8
0
 10
15.5303
 20
6.91452
 11
15.4072
 21
7.18451
  0
LINE
  8
0
 10
15.4072
 20
7.18451
 11
15.2795
 21
7.4523
  0
LINE
  8
0
 10
15.2795
 20
7.4523
 11
15.1471
 21
7.71783
  0
LINE
  8
0
 10
15.1471
 20
7.71783
 11
15.0101
 21
7.981
  0
LINE
  8
0
 10
15.0101
 20
7.981
 11
14.8685
 21
8.24176
  0
LINE
  8
0
 10
14.8685
 20
8.24176
 11
14.7224
 21
8.5
  0
LINE
  8
0
 10
14.7224
 20
8.5
 11
14.5718
 21
8.75565
  0
LINE
  8
0
 10
14.5718
 20
8.75565
 11
14.4168
 21
9.00862
  0
LINE
  8
0
 10
14.4168
 20
9.00862
 11
14.2574
 21
9.25885
  0
LINE
  8
0
 10
14.2574
 20
9.25885
 11
14.0936
 21
9.50627
  0
LINE
  8
0
 10
14.0936
 20
9.50627
 11
13.9256
 21
9.75079
  0
LINE
  8
0
 10
13.9256
 20
9.75079
 11
13.7533
 21
9.99234
  0
LINE
  8
0
 10
13.7533
 20
9.99234
 11
13.5768
 21
10.2309
  0
LINE
  8
0
 10
13.5768
 20
10.2309
 11
13.3962
 21
10.4662
  0
LINE
  8
0
 10
13.3962
 20
10.4662
 11
13.2115
 21
10.6984
  0
LINE
  8
0
 10
13.2115
 20
10.6984
 11
13.0228
 21
10.9274
  0
LINE
  8
0
 10
13.0228
 20
10.9274
 11
12.83
 21
11.153
  0
LINE
  8
0
 10
12.83
 20
11.153
 11
12.6335
 21
11.3752
  0
LINE
  8
0
 10
12.6335
 20
11.3752
 11
12.433
 21
11.594
  0
LINE
  8
0
 10
12.433
 20
11.594
 11
12.2288
 21
11.8092
  0
LINE
  8
0
 10
12.2288
 20
11.8092
 11
12.0208
 21
12.0208
  0
LINE
  8
0
 10
12.0208
 20
12.0208
 11
11.8092
 21
12.2288
  0
LINE
  8
0
 10
11.8092
 20
12.2288
 11
11.594
 21
12.433
  0
LINE
  8
0
 10
11.594
 20
12.433
 11
11.3752
 21
12.6335
  0
LINE
  8
0
 10
11.3752
 20
12.6335
 11
11.153
 21
12.83
  0
LINE
  8
0
 10
11.153
 20
12.83
 11
10.9274
 21
13.0228
  0
LINE
  8
0
 10
10.9274
 20
13.0228
 11
10.6984
 21
13.2115
  0
LINE
  8
0
 10
10.6984
 20
13.2115
 11
10.4662
 21
13.3962
  0
LINE
  8
0
 10
10.4662
 20
13.3962
 11
10.2309
 21
13.5768
  0
LINE
  8
0
 10
10.2309
 20
13.5768
 11
9.99234
 21
13.7533
  0
LINE
  8
0
 10
9.99234
 20
13.7533
 11
9.75079
 21
13.9256
  0
LINE
  8
0
 10
9.75079
 20
13.9256
 11
9.50627
 21
14.0936
  0
LINE
  8
0
 10
9.50627
 20
14.0936
 11
9.25885
 21
14.2574
  0
LINE
  8
0
 10
9.25885
 20
14.2574
 11
9.00862
 21
14.4168
  0
LINE
  8
0
 10
9.00862
 20
14.4168
 11
8.75565
 21
14.5718
  0
LINE
  8
0
 10
8.75565
 20
14.5718
 11
8.5
 21
14.7224
  0
LINE
  8
0
 10
8.5
 20
14.7224
 11
8.24176
 21
14.8685
  0
LINE
  8
0
 10
8.24176
 20
14.8685
 11
7.981
 21
15.0101
  0
LINE
  8
0
 10
7.981
 20
15.0101
 11
7.71783
 21
15.1471
  0
LINE
  8
0
 10
7.71783
 20
15.1471
 11
7.4523
 21
15.2795
  0
LINE
  8
0
 10
7.4523
 20
15.2795
 11
7.18451
 21
15.4072
  0
LINE
  8
0
 10
7.18451
 20
15.4072
 11
6.91452
 21
15.5303
  0
LINE
  8
0
 10
6.91452
 20
15.5303
 11
6.64243
 21
15.6486
  0
LINE
  8
0
 10
6.64243
 20
15.6486
 11
6.3683
 21
15.7621
  0
LINE
  8
0
 10
6.3683
 20
15.7621
 11
6.09225
 21
15.8709
  0
LINE
  8
0
 10
6.09225
 20
15.8709
 11
5.81433
 21
15.9748
  0
LINE
  8
0
 10
5.81433
 20
15.9748
 11
5.53465
 21
16.0738
  0
LINE
  8
0
 10
5.53465
 20
16.0738
 11
5.25328
 21
16.168
  0
LINE
  8
0
 10
5.25328
 20
16.168
 11
4.97031
 21
16.2572
  0
LINE
  8
0
 10
4.97031
 20
16.2572
 11
4.68582
 21
16.3414
  0
LINE
  8
0
 10
4.68582
 20
16.3414
 11
4.39992
 21
16.4207
  0
LINE
  8
0
 10
4.39992
 20
16.4207
 11
4.11267
 21
16.495
  0
LINE
  8
0
 10
4.11267
 20
16.495
 11
3.82416
 21
16.5643
  0
LINE
  8
0
 10
3.82416
 20
16.5643
 11
3.53448
 21
16.6285
  0
LINE
  8
0
 10
3.53448
 20
16.6285
 11
3.24374
 21
16.6877
  0
LINE
  8
0
 10
3.24374
 20
16.6877
 11
2.95201
 21
16.7417
  0
LINE
  8
0
 10
2.95201
 20
16.7417
 11
2.65938
 21
16.7907
  0
LINE
  8
0
 10
2.65938
 20
16.7907
 11
2.36594
 21
16.8345
  0
LINE
  8
0
 10
2.36594
 20
16.8345
 11
2.07178
 21
16.8733
  0
LINE
  8
0
 10
2.07178
 20
16.8733
 11
1.77698
 21
16.9069
  0
LINE
  8
0
 10
1.77698
 20
16.9069
 11
1.48164
 21
16.9353
  0
LINE
  8
0
 10
1.48164
 20
16.9353
 11
1.18585
 21
16.9586
  0
LINE
  8
0
 10
1.18585
 20
16.9586
 11
0.889709
 21
16.9767
  0
LINE
  8
0
 10
0.889709
 20
16.9767
 11
0.593277
 21
16.9896
  0
LINE
  8
0
 10
0.593277
 20
16.9896
 11
0.296677
 21
16.9974
  0
LINE
  8
0
 10
0.296677
 20
16.9974
 11
0
 21
17
  0
LINE
  8
0
 10
0
 20
17
 11
-0.296677
 21
16.9974
  0
LINE
  8
0
 10
-0.296677
 20
16.9974
 11
-0.593277
 21
16.9896
  0
LINE
  8
0
 10
-0.593277
 20
16.9896
 11
-0.889709
 21
16.9767
  0
LINE
  8
0
 10
-0.889709
 20
16.9767
 11
-1.18585
 21
16.9586
  0
LINE
  8
0
 10
-1.18585
 20
16.9586
 11
-1.48164
 21
16.9353
  0
LINE
  8
0
 10
-1.48164
 20
16.9353
 11
-1.77698
 21
16.9069
  0
LINE
  8
0
 10
-1.77698
 20
16.9069
 11
-2.07178
 21
16.8733
  0
LINE
  8
0
 10
-2.07178
 20
16.8733
 11
-2.36594
 21
16.8345
  0
LINE
  8
0
 10
-2.36594
 20
16.8345
 11
-2.65938
 21
16.7907
  0
LINE
  8
0
 10
-2.65938
 20
16.7907
 11
-2.95201
 21
16.7417
  0
LINE
  8
0
 10
-2.95201
 20
16.7417
 11
-3.24374
 21
16.6877
  0
LINE
  8
0
 10
-3.24374
 20
16.6877
 11
-3.53448
 21
16.6285
  0
LINE
  8
0
 10
-3.53448
 20
16.6285
 11
-3.82416
 21
16.5643
  0
LINE
  8
0
 10
-3.82416
 20
16.5643
 11
-4.11267
 21
16.495
  0
LINE
  8
0
 10
-4.11267
 20
16.495
 11
-4.39992
 21
16.4207
  0
LINE
  8
0
 10
-4.39992
 20
16.4207
 11
-4.68582
 21
16.3414
  0
LINE
  8
0
 10
-4.68582
 20
16.3414
 11
-4.97031
 21
16.2572
  0
LINE
  8
0
 10
-4.97031
 20
16.2572
 11
-5.25328
 21
16.168
  0
LINE
  8
0
 10
-5.25328
 20
16.168
 11
-5.53465
 21
16.0738
  0
LINE
  8
0
 10
-5.53465
 20
16.0738
 11
-5.81433
 21
15.9748
  0
LINE
  8
0
 10
-5.81433
 20
15.9748
 11
-6.09225
 21
15.8709
  0
LINE
  8
0
 10
-6.09225
 20
15.8709
 11
-6.3683
 21
15.7621
  0
LINE
  8
0
 10
-6.3683
 20
15.7621
 11
-6.64243
 21
15.6486
  0
LINE
  8
0
 10
-6.64243
 20
15.6486
 11
-6.91452
 21
15.5303
  0
LINE
  8
0
 10
-6.91452
 20
15.5303
 11
-7.18451
 21
15.4072
  0
LINE
  8
0
 10
-7.18451
 20
15.4072
 11
-7.4523
 21
15.2795
  0
LINE
  8
0
 10
-7.4523
 20
15.2795
 11
-7.71783
 21
15.1471
  0
LINE
  8
0
 10
-7.71783
 20
15.1471
 11
-7.981
 21
15.0101
  0
LINE
  8
0
 10
-7.981
 20
15.0101
 11
-8.24176
 21
14.8685
  0
LINE
  8
0
 10
-8.24176
 20
14.8685
 11
-8.5
 21
14.7224
  0
LINE
  8
0
 10
-8.5
 20
14.7224
 11
-8.75565
 21
14.5718
  0
LINE
  8
0
 10
-8.75565
 20
14.5718
 11
-9.00862
 21
14.4168
  0
LINE
  8
0
 10
-9.00862
 20
14.4168
 11
-9.25885
 21
14.2574
  0
LINE
  8
0
 10
-9.25885
 20
14.2574
 11
-9.50627
 21
14.0936
  0
LINE
  8
0
 10
-9.50627
 20
14.0936
 11
-9.75079
 21
13.9256
  0
LINE
  8
0
 10
-9.75079
 20
13.9256
 11
-9.99234
 21
13.7533
  0
LINE
  8
0
 10
-9.99234
 20
13.7533
 11
-10.2309
 21
13.5768
  0
LINE
  8
0
 10
-10.2309
 20
13.5768
 11
-10.4662
 21
13.3962
  0
LINE
  8
0
 10
-10.4662
 20
13.3962
 11
-10.6984
 21
13.2115
  0
LINE
  8
0
 10
-10.6984
 20
13.2115
 11
-10.9274
 21
13.0228
  0
LINE
  8
0
 10
-10.9274
 20
13.0228
 11
-11.153
 21
12.83
  0
LINE
  8
0
 10
-11.153
 20
12.83
 11
-11.3752
 21
12.6335
  0
LINE
  8
0
 10
-11.3752
 20
12.6335
 11
-11.594
 21
12.433
  0
LINE
  8
0
 10
-11.594
 20
12.433
 11
-11.8092
 21
12.2288
  0
LINE
  8
0
 10
-11.8092
 20
12.2288
 11
-12.0208
 21
12.0208
  0
LINE
  8
0
 10
-12.0208
 20
12.0208
 11
-12.2288
 21
11.8092
  0
LINE
  8
0
 10
-12.2288
 20
11.8092
 11
-12.433
 21
11.594
  0
LINE
  8
0
 10
-12.433
 20
11.594
 11
-12.6335
 21
11.3752
  0
LINE
  8
0
 10
-12.6335
 20
11.3752
 11
-12.83
 21
11.153
  0
LINE
  8
0
 10
-12.83
 20
11.153
 11
-13.0228
 21
10.9274
  0
LINE
  8
0
 10
-13.0228
 20
10.9274
 11
-13.2115
 21
10.6984
  0
LINE
  8
0
 10
-13.2115
 20
10.6984
 11
-13.3962
 21
10.4662
  0
LINE
  8
0
 10
-13.3962
 20
10.4662
 11
-13.5768
 21
10.2309
  0
LINE
  8
0
 10
-13.5768
 20
10.2309
 11
-13.7533
 21
9.99234
  0
LINE
  8
0
 10
-13.7533
 20
9.99234
 11
-13.9256
 21
9.75079
  0
LINE
  8
0
 10
-13.9256
 20
9.75079
 11
-14.0936
 21
9.50627
  0
LINE
  8
0
 10
-14.0936
 20
9.50627
 11
-14.2574
 21
9.25885
  0
LINE
  8
0
 10
-14.2574
 20
9.25885
 11
-14.4168
 21
9.00862
  0
LINE
  8
0
 10
-14.4168
 20
9.00862
 11
-14.5718
 21
8.75565
  0
LINE
  8
0
 10
-14.5718
 20
8.75565
 11
-14.7224
 21
8.5
  0
LINE
  8
0
 10
-14.7224
 20
8.5
 11
-14.8685
 21
8.24176
  0
LINE
  8
0
 10
-14.8685
 20
8.24176
 11
-15.0101
 21
7.981
  0
LINE
  8
0
 10
-15.0101
 20
7.981
 11
-15.1471
 21
7.71783
  0
LINE
  8
0
 10
-15.1471
 20
7.71783
 11
-15.2795
 21
7.4523
  0
LINE
  8
0
 10
-15.2795
 20
7.4523
 11
-15.4072
 21
7.18451
  0
LINE
  8
0
 10
-15.4072
 20
7.18451
 11
-15.5303
 21
6.91452
  0
LINE
  8
0
 10
-15.5303
 20
6.91452
 11
-15.6486
 21
6.64243
  0
LINE
  8
0
 10
-15.6486
 20
6.64243
 11
-15.7621
 21
6.3683
  0
LINE
  8
0
 10
-15.7621
 20
6.3683
 11
-15.8709
 21
6.09225
  0
LINE
  8
0
 10
-15.8709
 20
6.09225
 11
-15.9748
 21
5.81433
  0
LINE
  8
0
 10
-15.9748
 20
5.81433
 11
-16.0738
 21
5.53465
  0
LINE
  8
0
 10
-16.0738
 20
5.53465
 11
-16.168
 21
5.25328
  0
LINE
  8
0
 10
-16.168
 20
5.25328
 11
-16.2572
 21
4.97031
  0
LINE
  8
0
 10
-16.2572
 20
4.97031
 11
-16.3414
 21
4.68582
  0
LINE
  8
0
 10
-16.3414
 20
4.68582
 11
-16.4207
 21
4.39992
  0
LINE
  8
0
 10
-16.4207
 20
4.39992
 11
-16.495
 21
4.11267
  0
LINE
  8
0
 10
-16.495
 20
4.11267
 11
-16.5643
 21
3.82416
  0
LINE
  8
0
 10
-16.5643
 20
3.82416
 11
-16.6285
 21
3.53448
  0
LINE
  8
0
 10
-16.6285
 20
3.53448
 11
-16.6877
 21
3.24374
  0
LINE
  8
0
 10
-16.6877
 20
3.24374
 11
-16.7417
 21
2.95201
  0
LINE
  8
0
 10
-16.7417
 20
2.95201
 11
-16.7907
 21
2.65938
  0
LINE
  8
0
 10
-16.7907
 20
2.65938
 11
-16.8345
 21
2.36594
  0
LINE
  8
0
 10
-16.8345
 20
2.36594
 11
-16.8733
 21
2.07178
  0
LINE
  8
0
 10
-16.8733
 20
2.07178
 11
-16.9069
 21
1.77698
  0
LINE
  8
0
 10
-16.9069
 20
1.77698
 11
-16.9353
 21
1.48164
  0
LINE
  8
0
 10
-16.9353
 20
1.48164
 11
-16.9586
 21
1.18585
  0
LINE
  8
0
 10
-16.9586
 20
1.18585
 11
-16.9767
 21
0.889709
  0
LINE
  8
0
 10
-16.9767
 20
0.889709
 11
-16.9896
 21
0.593277
  0
LINE
  8
0
 10
-16.9896
 20
0.593277
 11
-16.9974
 21
0.296677
  0
LINE
  8
0
 10
-16.9974
 20
0.296677
 11
-17
 21
0
  0
LINE
  8
0
 10
-17
 20
0
 11
-16.9974
 21
-0.296677
  0
LINE
  8
0
 10
-16.9974
 20
-0.296677
 11
-16.9896
 21
-0.593277
  0
LINE
  8
0
 10
-16.9896
 20
-0.593277
 11
-16.9767
 21
-0.889709
  0
LINE
  8
0
 10
-16.9767
 20
-0.889709
 11
-16.9586
 21
-1.18585
  0
LINE
  8
0
 10
-16.9586
 20
-1.18585
 11
-16.9353
 21
-1.48164
  0
LINE
  8
0
 10
-16.9353
 20
-1.48164
 11
-16.9069
 21
-1.77698
  0
LINE
  8
0
 10
-16.9069
 20
-1.77698
 11
-16.8733
 21
-2.07178
  0
LINE
  8
0
 10
-16.8733
 20
-2.07178
 11
-16.8345
 21
-2.36594
  0
LINE
  8
0
 10
-16.8345
 20
-2.36594
 11
-16.7907
 21
-2.65938
  0
LINE
  8
0
 10
-16.7907
 20
-2.65938
 11
-16.7417
 21
-2.95201
  0
LINE
  8
0
 10
-16.7417
 20
-2.95201
 11
-16.6877
 21
-3.24374
  0
LINE
  8
0
 10
-16.6877
 20
-3.24374
 11
-16.6285
 21
-3.53448
  0
LINE
  8
0
 10
-16.6285
 20
-3.53448
 11
-16.5643
 21
-3.82416
  0
LINE
  8
0
 10
-16.5643
 20
-3.82416
 11
-16.495
 21
-4.11267
  0
LINE
  8
0
 10
-16.495
 20
-4.11267
 11
-16.4207
 21
-4.39992
  0
LINE
  8
0
 10
-16.4207
 20
-4.39992
 11
-16.3414
 21
-4.68582
  0
LINE
  8
0
 10
-16.3414
 20
-4.68582
 11
-16.2572
 21
-4.97031
  0
LINE
  8
0
 10
-16.2572
 20
-4.97031
 11
-16.168
 21
-5.25328
  0
LINE
  8
0
 10
-16.168
 20
-5.25328
 11
-16.0738
 21
-5.53465
  0
LINE
  8
0
 10
-16.0738
 20
-5.53465
 11
-15.9748
 21
-5.81433
  0
LINE
  8
0
 10
-15.9748
 20
-5.81433
 11
-15.8709
 21
-6.09225
  0
LINE
  8
0
 10
-15.8709
 20
-6.09225
 11
-15.7621
 21
-6.3683
  0
LINE
  8
0
 10
-15.7621
 20
-6.3683
 11
-15.6486
 21
-6.64243
  0
LINE
  8
0
 10
-15.6486
 20
-6.64243
 11
-15.5303
 21
-6.91452
  0
LINE
  8
0
 10
-15.5303
 20
-6.91452
 11
-15.4072
 21
-7.18451
  0
LINE
  8
0
 10
-15.4072
 20
-7.18451
 11
-15.2795
 21
-7.4523
  0
LINE
  8
0
 10
-15.2795
 20
-7.4523
 11
-15.1471
 21
-7.71783
  0
LINE
  8
0
 10
-15.1471
 20
-7.71783
 11
-15.0101
 21
-7.981
  0
LINE
  8
0
 10
-15.0101
 20
-7.981
 11
-14.8685
 21
-8.24176
  0
LINE
  8
0
 10
-14.8685
 20
-8.24176
 11
-14.7224
 21
-8.5
  0
LINE
  8
0
 10
-14.7224
 20
-8.5
 11
-14.5718
 21
-8.75565
  0
LINE
  8
0
 10
-14.5718
 20
-8.75565
 11
-14.4168
 21
-9.00862
  0
LINE
  8
0
 10
-14.4168
 20
-9.00862
 11
-14.2574
 21
-9.25885
  0
LINE
  8
0
 10
-14.2574
 20
-9.25885
 11
-14.0936
 21
-9.50627
  0
LINE
  8
0
 10
-14.0936
 20
-9.50627
 11
-13.9256
 21
-9.75079
  0
LINE
  8
0
 10
-13.9256
 20
-9.75079
 11
-13.7533
 21
-9.99234
  0
LINE
  8
0
 10
-13.7533
 20
-9.99234
 11
-13.5768
 21
-10.2309
  0
LINE
  8
0
 10
-13.5768
 20
-10.2309
 11
-13.3962
 21
-10.4662
  0
LINE
  8
0
 10
-13.3962
 20
-10.4662
 11
-13.2115
 21
-10.6984
  0
LINE
  8
0
 10
-13.2115
 20
-10.6984
 11
-13.0228
 21
-10.9274
  0
LINE
  8
0
 10
-13.0228
 20
-10.9274
 11
-12.83
 21
-11.153
  0
LINE
  8
0
 10
-12.83
 20
-11.153
 11
-12.6335
 21
-11.3752
  0
LINE
  8
0
 10
-12.6335
 20
-11.3752
 11
-12.433
 21
-11.594
  0
LINE
  8
0
 10
-12.433
 20
-11.594
 11
-12.2288
 21
-11.8092
  0
LINE
  8
0
 10
-12.2288
 20
-11.8092
 11
-12.0208
 21
-12.0208
  0
LINE
  8
0
 10
-12.0208
 20
-12.0208
 11
-11.8092
 21
-12.2288
  0
LINE
  8
0
 10
-11.8092
 20
-12.2288
 11
-11.594
 21
-12.433
  0
LINE
  8
0
 10
-11.594
 20
-12.433
 11
-11.3752
 21
-12.6335
  0
LINE
  8
0
 10
-11.3752
 20
-12.6335
 11
-11.153
 21
-12.83
  0
LINE
  8
0
 10
-11.153
 20
-12.83
 11
-10.9274
 21
-13.0228
  0
LINE
  8
0
 10
-10.9274
 20
-13.0228
 11
-10.6984
 21
-13.2115
  0
LINE
  8
0
 10
-10.6984
 20
-13.2115
 11
-10.4662
 21
-13.3962
  0
LINE
  8
0
 10
-10.4662
 20
-13.3962
 11
-10.2309
 21
-13.5768
  0
LINE
  8
0
 10
-10.2309
 20
-13.5768
 11
-9.99234
 21
-13.7533
  0
LINE
  8
0
 10
-9.99234
 20
-13.7533
 11
-9.75079
 21
-13.9256
  0
LINE
  8
0
 10
-9.75079
 20
-13.9256
 11
-9.50627
 21
-14.0936
  0
LINE
  8
0
 10
-9.50627
 20
-14.0936
 11
-9.25885
 21
-14.2574
  0
LINE
  8
0
 10
-9.25885
 20
-14.2574
 11
-9.00862
 21
-14.4168
  0
LINE
  8
0
 10
-9.00862
 20
-14.4168
 11
-8.75565
 21
-14.5718
  0
LINE
  8
0
 10
-8.75565
 20
-14.5718
 11
-8.5
 21
-14.7224
  0
LINE
  8
0
 10
-8.5
 20
-14.7224
 11
-8.24176
 21
-14.8685
  0
LINE
  8
0
 10
-8.24176
 20
-14.8685
 11
-7.981
 21
-15.0101
  0
LINE
  8
0
 10
-7.981
 20
-15.0101
 11
-7.71783
 21
-15.1471
  0
LINE
  8
0
 10
-7.71783
 20
-15.1471
 11
-7.4523
 21
-15.2795
  0
LINE
  8
0
 10
-7.4523
 20
-15.2795
 11
-7.18451
 21
-15.4072
  0
LINE
  8
0
 10
-7.18451
 20
-15.4072
 11
-6.91452
 21
-15.5303
  0
LINE
  8
0
 10
-6.91452
 20
-15.5303
 11
-6.64243
 21
-15.6486
  0
LINE
  8
0
 10
-6.64243
 20
-15.6486
 11
-6.3683
 21
-15.7621
  0
LINE
  8
0
 10
-6.3683
 20
-15.7621
 11
-6.09225
 21
-15.8709
  0
LINE
  8
0
 10
-6.09225
 20
-15.8709
 11
-5.81433
 21
-15.9748
  0
LINE
  8
0
 10
-5.81433
 20
-15.9748
 11
-5.53465
 21
-16.0738
  0
LINE
  8
0
 10
-5.53465
 20
-16.0738
 11
-5.25328
 21
-16.168
  0
LINE
  8
0
 10
-5.25328
 20
-16.168
 11
-4.97031
 21
-16.2572
  0
LINE
  8
0
 10
-4.97031
 20
-16.2572
 11
-4.68582
 21
-16.3414
  0
LINE
  8
0
 10
-4.68582
 20
-16.3414
 11
-4.39992
 21
-16.4207
  0
LINE
  8
0
 10
-4.39992
 20
-16.4207
 11
-4.11267
 21
-16.495
  0
LINE
  8
0
 10
-4.11267
 20
-16.495
 11
-3.82416
 21
-16.5643
  0
LINE
  8
0
 10
-3.82416
 20
-16.5643
 11
-3.53448
 21
-16.6285
  0
LINE
  8
0
 10
-3.53448
 20
-16.6285
 11
-3.24374
 21
-16.6877
  0
LINE
  8
0
 10
-3.24374
 20
-16.6877
 11
-2.95201
 21
-16.7417
  0
LINE
  8
0
 10
-2.95201
 20
-16.7417
 11
-2.65938
 21
-16.7907
  0
LINE
  8
0
 10
-2.65938
 20
-16.7907
 11
-2.36594
 21
-16.8345
  0
LINE
  8
0
 10
-2.36594
 20
-16.8345
 11
-2.07178
 21
-16.8733
  0
LINE
  8
0
 10
-2.07178
 20
-16.8733
 11
-1.77698
 21
-16.9069
  0
LINE
  8
0
 10
-1.77698
 20
-16.9069
 11
-1.48164
 21
-16.9353
  0
LINE
  8
0
 10
-1.48164
 20
-16.9353
 11
-1.18585
 21
-16.9586
  0
LINE
  8
0
 10
-1.18585
 20
-16.9586
 11
-0.889709
 21
-16.9767
  0
LINE
  8
0
 10
-0.889709
 20
-16.9767
 11
-0.593277
 21
-16.9896
  0
LINE
  8
0
 10
-0.593277
 20
-16.9896
 11
-0.296677
 21
-16.9974
  0
LINE
  8
0
 10
-0.296677
 20
-16.9974
 11
0
 21
-17
  0
LINE
  8
0
 10
0
 20
-17
 11
0.296677
 21
-16.9974
  0
LINE
  8
0
 10
36.2967
 20
-16.9974
 11
36.5933
 21
-16.9896
  0
LINE
  8
0
 10
36.5933
 20
-16.9896
 11
36.8897
 21
-16.9767
  0
LINE
  8
0
 10
36.8897
 20
-16.9767
 11
37.1859
 21
-16.9586
  0
LINE
  8
0
 10
37.1859
 20
-16.9586
 11
37.4816
 21
-16.9353
  0
LINE
  8
0
 10
37.4816
 20
-16.9353
 11
37.777
 21
-16.9069
  0
LINE
  8
0
 10
37.777
 20
-16.9069
 11
38.0718
 21
-16.8733
  0
LINE
  8
0
 10
38.0718
 20
-16.8733
 11
38.3659
 21
-16.8345
  0
LINE
  8
0
 10
38.3659
 20
-16.8345
 11
38.6594
 21
-16.7907
  0
LINE
  8
0
 10
38.6594
 20
-16.7907
 11
38.952
 21
-16.7417
  0
LINE
  8
0
 10
38.952
 20
-16.7417
 11
39.2437
 21
-16.6877
  0
LINE
  8
0
 10
39.2437
 20
-16.6877
 11
39.5345
 21
-16.6285
  0
LINE
  8
0
 10
39.5345
 20
-16.6285
 11
39.8242
 21
-16.5643
  0
LINE
  8
0
 10
39.8242
 20
-16.5643
 11
40.1127
 21
-16.495
  0
LINE
  8
0
 10
40.1127
 20
-16.495
 11
40.3999
 21
-16.4207
  0
LINE
  8
0
 10
40.3999
 20
-16.4207
 11
40.6858
 21
-16.3414
  0
LINE
  8
0
 10
40.6858
 20
-16.3414
 11
40.9703
 21
-16.2572
  0
LINE
  8
0
 10
40.9703
 20
-16.2572
 11
41.2533
 21
-16.168
  0
LINE
  8
0
 10
41.2533
 20
-16.168
 11
41.5347
 21
-16.0738
  0
LINE
  8
0
 10
41.5347
 20
-16.0738
 11
41.8143
 21
-15.9748
  0
LINE
  8
0
 10
41.8143
 20
-15.9748
 11
42.0923
 21
-15.8709
  0
LINE
  8
0
 10
42.0923
 20
-15.8709
 11
42.3683
 21
-15.7621
  0
LINE
  8
0
 10
42.3683
 20
-15.7621
 11
42.6424
 21
-15.6486
  0
LINE
  8
0
 10
42.6424
 20
-15.6486
 11
42.9145
 21
-15.5303
  0
LINE
  8
0
 10
42.9145
 20
-15.5303
 11
43.1845
 21
-15.4072
  0
LINE
  8
0
 10
43.1845
 20
-15.4072
 11
43.4523
 21
-15.2795
  0
LINE
  8
0
 10
43.4523
 20
-15.2795
 11
43.7178
 21
-15.1471
  0
LINE
  8
0
 10
43.7178
 20
-15.1471
 11
43.981
 21
-15.0101
  0
LINE
  8
0
 10
43.981
 20
-15.0101
 11
44.2418
 21
-14.8685
  0
LINE
  8
0
 10
44.2418
 20
-14.8685
 11
44.5
 21
-14.7224
  0
LINE
  8
0
 10
44.5
 20
-14.7224
 11
44.7556
 21
-14.5718
  0
LINE
  8
0
 10
44.7556
 20
-14.5718
 11
45.0086
 21
-14.4168
  0
LINE
  8
0
 10
45.0086
 20
-14.4168
 11
45.2589
 21
-14.2574
  0
LINE
  8
0
 10
45.2589
 20
-14.2574
 11
45.5063
 21
-14.0936
  0
LINE
  8
0
 10
45.5063
 20
-14.0936
 11
45.7508
 21
-13.9256
  0
LINE
  8
0
 10
45.7508
 20
-13.9256
 11
45.9923
 21
-13.7533
  0
LINE
  8
0
 10
45.9923
 20
-13.7533
 11
46.2309
 21
-13.5768
  0
LINE
  8
0
 10
46.2309
 20
-13.5768
 11
46.4662
 21
-13.3962
  0
LINE
  8
0
 10
46.4662
 20
-13.3962
 11
46.6984
 21
-13.2115
  0
LINE
  8
0
 10
46.6984
 20
-13.2115
 11
46.9274
 21
-13.0228
  0
LINE
  8
0
 10
46.9274
 20
-13.0228
 11
47.153
 21
-12.83
  0
LINE
  8
0
 10
47.153
 20
-12.83
 11
47.3752
 21
-12.6335
  0
LINE
  8
0
 10
47.3752
 20
-12.6335
 11
47.594
 21
-12.433
  0
LINE
  8
0
 10
47.594
 20
-12.433
 11
47.8092
 21
-12.2288
  0
LINE
  8
0
 10
47.8092
 20
-12.2288
 11
48.0208
 21
-12.0208
  0
LINE
  8
0
 10
48.0208
 20
-12.0208
 11
48.2288
 21
-11.8092
  0
LINE
  8
0
 10
48.2288
 20
-11.8092
 11
48.433
 21
-11.594
  0
LINE
  8
0
 10
48.433
 20
-11.594
 11
48.6335
 21
-11.3752
  0
LINE
  8
0
 10
48.6335
 20
-11.3752
 11
48.83
 21
-11.153
  0
LINE
  8
0
 10
48.83
 20
-11.153
 11
49.0228
 21
-10.9274
  0
LINE
  8
0
 10
49.0228
 20
-10.9274
 11
49.2115
 21
-10.6984
  0
LINE
  8
0
 10
49.2115
 20
-10.6984
 11
49.3962
 21
-10.4662
  0
LINE
  8
0
 10
49.3962
 20
-10.4662
 11
49.5768
 21
-10.2309
  0
LINE
  8
0
 10
49.5768
 20
-10.2309
 11
49.7533
 21
-9.99234
  0
LINE
  8
0
 10
49.7533
 20
-9.99234
 11
49.9256
 21
-9.75079
  0
LINE
  8
0
 10
49.9256
 20
-9.75079
 11
50.0936
 21
-9.50627
  0
LINE
  8
0
 10
50.0936
 20
-9.50627
 11
50.2574
 21
-9.25885
  0
LINE
  8
0
 10
50.2574
 20
-9.25885
 11
50.4168
 21
-9.00862
  0
LINE
  8
0
 10
50.4168
 20
-9.00862
 11
50.5718
 21
-8.75565
  0
LINE
  8
0
 10
50.5718
 20
-8.75565
 11
50.7224
 21
-8.5
  0
LINE
  8
0
 10
50.7224
 20
-8.5
 11
50.8685
 21
-8.24176
  0
LINE
  8
0
 10
50.8685
 20
-8.24176
 11
51.0101
 21
-7.981
  0
LINE
  8
0
 10
51.0101
 20
-7.981
 11
51.1471
 21
-7.71783
  0
LINE
  8
0
 10
51.1471
 20
-7.71783
 11
51.2795
 21
-7.4523
  0
LINE
  8
0
 10
51.2795
 20
-7.4523
 11
51.4072
 21
-7.18451
  0
LINE
  8
0
 10
51.4072
 20
-7.18451
 11
51.5303
 21
-6.91452
  0
LINE
  8
0
 10
51.5303
 20
-6.91452
 11
51.6486
 21
-6.64243
  0
LINE
  8
0
 10
51.6486
 20
-6.64243
 11
51.7621
 21
-6.3683
  0
LINE
  8
0
 10
51.7621
 20
-6.3683
 11
51.8709
 21
-6.09225
  0
LINE
  8
0
 10
51.8709
 20
-6.09225
 11
51.9748
 21
-5.81433
  0
LINE
  8
0
 10
51.9748
 20
-5.81433
 11
52.0738
 21
-5.53465
  0
LINE
  8
0
 10
52.0738
 20
-5.53465
 11
52.168
 21
-5.25328
  0
LINE
  8
0
 10
52.168
 20
-5.25328
 11
52.2572
 21
-4.97031
  0
LINE
  8
0
 10
52.2572
 20
-4.97031
 11
52.3414
 21
-4.68582
  0
LINE
  8
0
 10
52.3414
 20
-4.68582
 11
52.4207
 21
-4.39992
  0
LINE
  8
0
 10
52.4207
 20
-4.39992
 11
52.495
 21
-4.11267
  0
LINE
  8
0
 10
52.495
 20
-4.11267
 11
52.5643
 21
-3.82416
  0
LINE
  8
0
 10
52.5643
 20
-3.82416
 11
52.6285
 21
-3.53448
  0
LINE
  8
0
 10
52.6285
 20
-3.53448
 11
52.6877
 21
-3.24374
  0
LINE
  8
0
 10
52.6877
 20
-3.24374
 11
52.7417
 21
-2.95201
  0
LINE
  8
0
 10
52.7417
 20
-2.95201
 11
52.7907
 21
-2.65938
  0
LINE
  8
0
 10
52.7907
 20
-2.65938
 11
52.8345
 21
-2.36594
  0
LINE
  8
0
 10
52.8345
 20
-2.36594
 11
52.8733
 21
-2.07178
  0
LINE
  8
0
 10
52.8733
 20
-2.07178
 11
52.9069
 21
-1.77698
  0
LINE
  8
0
 10
52.9069
 20
-1.77698
 11
52.9353
 21
-1.48164
  0
LINE
  8
0
 10
52.9353
 20
-1.48164
 11
52.9586
 21
-1.18585
  0
LINE
  8
0
 10
52.9586
 20
-1.18585
 11
52.9767
 21
-0.889709
  0
LINE
  8
0
 10
52.9767
 20
-0.889709
 11
52.9896
 21
-0.593277
  0
LINE
  8
0
 10
52.9896
 20
-0.593277
 11
52.9974
 21
-0.296677
  0
LINE
  8
0
 10
52.9974
 20
-0.296677
 11
53
 21
0
  0
LINE
  8
0
 10
53
 20
0
 11
52.9974
 21
0.296677
  0
LINE
  8
0
 10
52.9974
 20
0.296677
 11
52.9896
 21
0.593277
  0
LINE
  8
0
 10
52.9896
 20
0.593277
 11
52.9767
 21
0.889709
  0
LINE
  8
0
 10
52.9767
 20
0.889709
 11
52.9586
 21
1.18585
  0
LINE
  8
0
 10
52.9586
 20
1.18585
 11
52.9353
 21
1.48164
  0
LINE
  8
0
 10
52.9353
 20
1.48164
 11
52.9069
 21
1.77698
  0
LINE
  8
0
 10
52.9069
 20
1.77698
 11
52.8733
 21
2.07178
  0
LINE
  8
0
 10
52.8733
 20
2.07178
 11
52.8345
 21
2.36594
  0
LINE
  8
0
 10
52.8345
 20
2.36594
 11
52.7907
 21
2.65938
  0
LINE
  8
0
 10
52.7907
 20
2.65938
 11
52.7417
 21
2.95201
  0
LINE
  8
0
 10
52.7417
 20
2.95201
 11
52.6877
 21
3.24374
  0
LINE
  8
0
 10
52.6877
 20
3.24374
 11
52.6285
 21
3.53448
  0
LINE
  8
0
 10
52.6285
 20
3.53448
 11
52.5643
 21
3.82416
  0
LINE
  8
0
 10
52.5643
 20
3.82416
 11
52.495
 21
4.11267
  0
LINE
  8
0
 10
52.495
 20
4.11267
 11
52.4207
 21
4.39992
  0
LINE
  8
0
 10
52.4207
 20
4.39992
 11
52.3414
 21
4.68582
  0
LINE
  8
0
 10
52.3414
 20
4.68582
 11
52.2572
 21
4.97031
  0
LINE
  8
0
 10
52.2572
 20
4.97031
 11
52.168
 21
5.25328
  0
LINE
  8
0
 10
52.168
 20
5.25328
 11
52.0738
 21
5.53465
  0
LINE
  8
0
 10
52.0738
 20
5.53465
 11
51.9748
 21
5.81433
  0
LINE
  8
0
 10
51.9748
 20
5.81433
 11
51.8709
 21
6.09225
  0
LINE
  8
0
 10
51.8709
 20
6.09225
 11
51.7621
 21
6.3683
  0
LINE
  8
0
 10
51.7621
 20
6.3683
 11
51.6486
 21
6.64243
  0
LINE
  8
0
 10
51.6486
 20
6.64243
 11
51.5303
 21
6.91452
  0
LINE
  8
0
 10
51.5303
 20
6.91452
 11
51.4072
 21
7.18451
  0
LINE
  8
0
 10
51.4072
 20
7.18451
 11
51.2795
 21
7.4523
  0
LINE
  8
0
 10
51.2795
 20
7.4523
 11
51.1471
 21
7.71783
  0
LINE
  8
0
 10
51.1471
 20
7.71783
 11
51.0101
 21
7.981
  0
LINE
  8
0
 10
51.0101
 20
7.981
 11
50.8685
 21
8.24176
  0
LINE
  8
0
 10
50.8685
 20
8.24176
 11
50.7224
 21
8.5
  0
LINE
  8
0
 10
50.7224
 20
8.5
 11
50.5718
 21
8.75565
  0
LINE
  8
0
 10
50.5718
 20
8.75565
 11
50.4168
 21
9.00862
  0
LINE
  8
0
 10
50.4168
 20
9.00862
 11
50.2574
 21
9.25885
  0
LINE
  8
0
 10
50.2574
 20
9.25885
 11
50.0936
 21
9.50627
  0
LINE
  8
0
 10
50.0936
 20
9.50627
 11
49.9256
 21
9.75079
  0
LINE
  8
0
 10
49.9256
 20
9.75079
 11
49.7533
 21
9.99234
  0
LINE
  8
0
 10
49.7533
 20
9.99234
 11
49.5768
 21
10.2309
  0
LINE
  8
0
 10
49.5768
 20
10.2309
 11
49.3962
 21
10.4662
  0
LINE
  8
0
 10
49.3962
 20
10.4662
 11
49.2115
 21
10.6984
  0
LINE
  8
0
 10
49.2115
 20
10.6984
 11
49.0228
 21
10.9274
  0
LINE
  8
0
 10
49.0228
 20
10.9274
 11
48.83
 21
11.153
  0
LINE
  8
0
 10
48.83
 20
11.153
 11
48.6335
 21
11.3752
  0
LINE
  8
0
 10
48.6335
 20
11.3752
 11
48.433
 21
11.594
  0
LINE
  8
0
 10
48.433
 20
11.594
 11
48.2288
 21
11.8092
  0
LINE
  8
0
 10
48.2288
 20
11.8092
 11
48.0208
 21
12.0208
  0
LINE
  8
0
 10
48.0208
 20
12.0208
 11
47.8092
 21
12.2288
  0
LINE
  8
0
 10
47.8092
 20
12.2288
 11
47.594
 21
12.433
  0
LINE
  8
0
 10
47.594
 20
12.433
 11
47.3752
 21
12.6335
  0
LINE
  8
0
 10
47.3752
 20
12.6335
 11
47.153
 21
12.83
  0
LINE
  8
0
 10
47.153
 20
12.83
 11
46.9274
 21
13.0228
  0
LINE
  8
0
 10
46.9274
 20
13.0228
 11
46.6984
 21
13.2115
  0
LINE
  8
0
 10
46.6984
 20
13.2115
 11
46.4662
 21
13.3962
  0
LINE
  8
0
 10
46.4662
 20
13.3962
 11
46.2309
 21
13.5768
  0
LINE
  8
0
 10
46.2309
 20
13.5768
 11
45.9923
 21
13.7533
  0
LINE
  8
0
 10
45.9923
 20
13.7533
 11
45.7508
 21
13.9256
  0
LINE
  8
0
 10
45.7508
 20
13.9256
 11
45.5063
 21
14.0936
  0
LINE
  8
0
 10
45.5063
 20
14.0936
 11
45.2589
 21
14.2574
  0
LINE
  8
0
 10
45.2589
 20
14.2574
 11
45.0086
 21
14.4168
  0
LINE
  8
0
 10
45.0086
 20
14.4168
 11
44.7556
 21
14.5718
  0
LINE
  8
0
 10
44.7556
 20
14.5718
 11
44.5
 21
14.7224
  0
LINE
  8
0
 10
44.5
 20
14.7224
 11
44.2418
 21
14.8685
  0
LINE
  8
0
 10
44.2418
 20
14.8685
 11
43.981
 21
15.0101
  0
LINE
  8
0
 10
43.981
 20
15.0101
 11
43.7178
 21
15.1471
  0
LINE
  8
0
 10
43.7178
 20
15.1471
 11
43.4523
 21
15.2795
  0
LINE
  8
0
 10
43.4523
 20
15.2795
 11
43.1845
 21
15.4072
  0
LINE
  8
0
 10
43.1845
 20
15.4072
 11
42.9145
 21
15.5303
  0
LINE
  8
0
 10
42.9145
 20
15.5303
 11
42.6424
 21
15.6486
  0
LINE
  8
0
 10
42.6424
 20
15.6486
 11
42.3683
 21
15.7621
  0
LINE
  8
0
 10
42.3683
 20
15.7621
 11
42.0923
 21
15.8709
  0
LINE
  8
0
 10
42.0923
 20
15.8709
 11
41.8143
 21
15.9748
  0
LINE
  8
0
 10
41.8143
 20
15.9748
 11
41.5347
 21
16.0738
  0
LINE
  8
0
 10
41.5347
 20
16.0738
 11
41.2533
 21
16.168
  0
LINE
  8
0
 10
41.2533
 20
16.168
 11
40.9703
 21
16.2572
  0
LINE
  8
0
 10
40.9703
 20
16.2572
 11
40.6858
 21
16.3414
  0
LINE
  8
0
 10
40.6858
 20
16.3414
 11
40.3999
 21
16.4207
  0
LINE
  8
0
 10
40.3999
 20
16.4207
 11
40.1127
 21
16.495
  0
LINE
  8
0
 10
40.1127
 20
16.495
 11
39.8242
 21
16.5643
  0
LINE
  8
0
 10
39.8242
 20
16.5643
 11
39.5345
 21
16.6285
  0
LINE
  8
0
 10
39.5345
 20
16.6285
 11
39.2437
 21
16.6877
  0
LINE
  8
0
 10
39.2437
 20
16.6877
 11
38.952
 21
16.7417
  0
LINE
  8
0
 10
38.952
 20
16.7417
 11
38.6594
 21
16.7907
  0
LINE
  8
0
 10
38.6594
 20
16.7907
 11
38.3659
 21
16.8345
  0
LINE
  8
0
 10
38.3659
 20
16.8345
 11
38.0718
 21
16.8733
  0
LINE
  8
0
 10
38.0718
 20
16.8733
 11
37.777
 21
16.9069
  0
LINE
  8
0
 10
37.777
 20
16.9069
 11
37.4816
 21
16.9353
  0
LINE
  8
0
 10
37.4816
 20
16.9353
 11
37.1859
 21
16.9586
  0
LINE
  8
0
 10
37.1859
 20
16.9586
 11
36.8897
 21
16.9767
  0
LINE
  8
0
 10
36.8897
 20
16.9767
 11
36.5933
 21
16.9896
  0
LINE
  8
0
 10
36.5933
 20
16.9896
 11
36.2967
 21
16.9974
  0
LINE
  8
0
 10
36.2967
 20
16.9974
 11
36
 21
17
  0
LINE
  8
0
 10
36
 20
17
 11
35.7033
 21
16.9974
  0
LINE
  8
0
 10
35.7033
 20
16.9974
 11
35.4067
 21
16.9896
  0
LINE
  8
0
 10
35.4067
 20
16.9896
 11
35.1103
 21
16.9767
  0
LINE
  8
0
 10
35.1103
 20
16.9767
 11
34.8141
 21
16.9586
  0
LINE
  8
0
 10
34.8141
 20
16.9586
 11
34.5184
 21
16.9353
  0
LINE
  8
0
 10
34.5184
 20
16.9353
 11
34.223
 21
16.9069
  0
LINE
  8
0
 10
34.223
 20
16.9069
 11
33.9282
 21
16.8733
  0
LINE
  8
0
 10
33.9282
 20
16.8733
 11
33.6341
 21
16.8345
  0
LINE
  8
0
 10
33.6341
 20
16.8345
 11
33.3406
 21
16.7907
  0
LINE
  8
0
 10
33.3406
 20
16.7907
 11
33.048
 21
16.7417
  0
LINE
  8
0
 10
33.048
 20
16.7417
 11
32.7563
 21
16.6877
  0
LINE
  8
0
 10
32.7563
 20
16.6877
 11
32.4655
 21
16.6285
  0
LINE
  8
0
 10
32.4655
 20
16.6285
 11
32.1758
 21
16.5643
  0
LINE
  8
0
 10
32.1758
 20
16.5643
 11
31.8873
 21
16.495
  0
LINE
  8
0
 10
31.8873
 20
16.495
 11
31.6001
 21
16.4207
  0
LINE
  8
0
 10
31.6001
 20
16.4207
 11
31.3142
 21
16.3414
  0
LINE
  8
0
 10
31.3142
 20
16.3414
 11
31.0297
 21
16.2572
  0
LINE
  8
0
 10
31.0297
 20
16.2572
 11
30.7467
 21
16.168
  0
LINE
  8
0
 10
30.7467
 20
16.168
 11
30.4653
 21
16.0738
  0
LINE
  8
0
 10
30.4653
 20
16.0738
 11
30.1857
 21
15.9748
  0
LINE
  8
0
 10
30.1857
 20
15.9748
 11
29.9077
 21
15.8709
  0
LINE
  8
0
 10
29.9077
 20
15.8709
 11
29.6317
 21
15.7621
  0
LINE
  8
0
 10
29.6317
 20
15.7621
 11
29.3576
 21
15.6486
  0
LINE
  8
0
 10
29.3576
 20
15.6486
 11
29.0855
 21
15.5303
  0
LINE
  8
0
 10
29.0855
 20
15.5303
 11
28.8155
 21
15.4072
  0
LINE
  8
0
 10
28.8155
 20
15.4072
 11
28.5477
 21
15.2795
  0
LINE
  8
0
 10
28.5477
 20
15.2795
 11
28.2822
 21
15.1471
  0
LINE
  8
0
 10
28.2822
 20
15.1471
 11
28.019
 21
15.0101
  0
LINE
  8
0
 10
28.019
 20
15.0101
 11
27.7582
 21
14.8685
  0
LINE
  8
0
 10
27.7582
 20
14.8685
 11
27.5
 21
14.7224
  0
LINE
  8
0
 10
27.5
 20
14.7224
 11
27.2444
 21
14.5718
  0
LINE
  8
0
 10
27.2444
 20
14.5718
 11
26.9914
 21
14.4168
  0
LINE
  8
0
 10
26.9914
 20
14.4168
 11
26.7411
 21
14.2574
  0
LINE
  8
0
 10
26.7411
 20
14.2574
 11
26.4937
 21
14.0936
  0
LINE
  8
0
 10
26.4937
 20
14.0936
 11
26.2492
 21
13.9256
  0
LINE
  8
0
 10
26.2492
 20
13.9256
 11
26.0077
 21
13.7533
  0
LINE
  8
0
 10
26.0077
 20
13.7533
 11
25.7691
 21
13.5768
  0
LINE
  8
0
 10
25.7691
 20
13.5768
 11
25.5338
 21
13.3962
  0
LINE
  8
0
 10
25.5338
 20
13.3962
 11
25.3016
 21
13.2115
  0
LINE
  8
0
 10
25.3016
 20
13.2115
 11
25.0726
 21
13.0228
  0
LINE
  8
0
 10
25.0726
 20
13.0228
 11
24.847
 21
12.83
  0
LINE
  8
0
 10
24.847
 20
12.83
 11
24.6248
 21
12.6335
  0
LINE
  8
0
 10
24.6248
 20
12.6335
 11
24.406
 21
12.433
  0
LINE
  8
0
 10
24.406
 20
12.433
 11
24.1908
 21
12.2288
  0
LINE
  8
0
 10
24.1908
 20
12.2288
 11
23.9792
 21
12.0208
  0
LINE
  8
0
 10
23.9792
 20
12.0208
 11
23.7712
 21
11.8092
  0
LINE
  8
0
 10
23.7712
 20
11.8092
 11
23.567
 21
11.594
  0
LINE
  8
0
 10
23.567
 20
11.594
 11
23.3665
 21
11.3752
  0
LINE
  8
0
 10
23.3665
 20
11.3752
 11
23.17
 21
11.153
  0
LINE
  8
0
 10
23.17
 20
11.153
 11
22.9772
 21
10.9274
  0
LINE
  8
0
 10
22.9772
 20
10.9274
 11
22.7885
 21
10.6984
  0
LINE
  8
0
 10
22.7885
 20
10.6984
 11
22.6038
 21
10.4662
  0
LINE
  8
0
 10
22.6038
 20
10.4662
 11
22.4232
 21
10.2309
  0
LINE
  8
0
 10
22.4232
 20
10.2309
 11
22.2467
 21
9.99234
  0
LINE
  8
0
 10
22.2467
 20
9.99234
 11
22.0744
 21
9.75079
  0
LINE
  8
0
 10
22.0744
 20
9.75079
 11
21.9064
 21
9.50627
  0
LINE
  8
0
 10
21.9064
 20
9.50627
 11
21.7426
 21
9.25885
  0
LINE
  8
0
 10
21.7426
 20
9.25885
 11
21.5832
 21
9.00862
  0
LINE
  8
0
 10
21.5832
 20
9.00862
 11
21.4282
 21
8.75565
  0
LINE
  8
0
 10
21.4282
 20
8.75565
 11
21.2776
 21
8.5
  0
LINE
  8
0
 10
21.2776
 20
8.5
 11
21.1315
 21
8.24176
  0
LINE
  8
0
 10
21.1315
 20
8.24176
 11
20.9899
 21
7.981
  0
LINE
  8
0
 10
20.9899
 20
7.981
 11
20.8529
 21
7.71783
  0
LINE
  8
0
 10
20.8529
 20
7.71783
 11
20.7205
 21
7.4523
  0
LINE
  8
0
 10
20.7205
 20
7.4523
 11
20.5928
 21
7.18451
  0
LINE
  8
0
 10
20.5928
 20
7.18451
 11
20.4697
 21
6.91452
  0
LINE
  8
0
 10
20.4697
 20
6.91452
 11
20.3514
 21
6.64243
  0
LINE
  8
0
 10
20.3514
 20
6.64243
 11
20.2379
 21
6.3683
  0
LINE
  8
0
 10
20.2379
 20
6.3683
 11
20.1291
 21
6.09225
  0
LINE
  8
0
 10
20.1291
 20
6.09225
 11
20.0252
 21
5.81433
  0
LINE
  8
0
 10
20.0252
 20
5.81433
 11
19.9262
 21
5.53465
  0
LINE
  8
0
 10
19.9262
 20
5.53465
 11
19.832
 21
5.25328
  0
LINE
  8
0
 10
19.832
 20
5.25328
 11
19.7428
 21
4.97031
  0
LINE
  8
0
 10
19.7428
 20
4.97031
 11
19.6586
 21
4.68582
  0
LINE
  8
0
 10
19.6586
 20
4.68582
 11
19.5793
 21
4.39992
  0
LINE
  8
0
 10
19.5793
 20
4.39992
 11
19.505
 21
4.11267
  0
LINE
  8
0
 10
19.505
 20
4.11267
 11
19.4357
 21
3.82416
  0
LINE
  8
0
 10
19.4357
 20
3.82416
 11
19.3715
 21
3.53448
  0
LINE
  8
0
 10
19.3715
 20
3.53448
 11
19.3123
 21
3.24374
  0
LINE
  8
0
 10
19.3123
 20
3.24374
 11
19.2583
 21
2.95201
  0
LINE
  8
0
 10
19.2583
 20
2.95201
 11
19.2093
 21
2.65938
  0
LINE
  8
0
 10
19.2093
 20
2.65938
 11
19.1655
 21
2.36594
  0
LINE
  8
0
 10
19.1655
 20
2.36594
 11
19.1267
 21
2.07178
  0
LINE
  8
0
 10
19.1267
 20
2.07178
 11
19.0931
 21
1.77698
  0
LINE
  8
0
 10
19.0931
 20
1.77698
 11
19.0647
 21
1.48164
  0
LINE
  8
0
 10
19.0647
 20
1.48164
 11
19.0414
 21
1.18585
  0
LINE
  8
0
 10
19.0414
 20
1.18585
 11
19.0233
 21
0.889709
  0
LINE
  8
0
 10
19.0233
 20
0.889709
 11
19.0104
 21
0.593277
  0
LINE
  8
0
 10
19.0104
 20
0.593277
 11
19.0026
 21
0.296677
  0
LINE
  8
0
 10
19.0026
 20
0.296677
 11
19
 21
0
  0
LINE
  8
0
 10
19
 20
0
 11
19.0026
 21
-0.296677
  0
LINE
  8
0
 10
19.0026
 20
-0.296677
 11
19.0104
 21
-0.593277
  0
LINE
  8
0
 10
19.0104
 20
-0.593277
 11
19.0233
 21
-0.889709
  0
LINE
  8
0
 10
19.0233
 20
-0.889709
 11
19.0414
 21
-1.18585
  0
LINE
  8
0
 10
19.0414
 20
-1.18585
 11
19.0647
 21
-1.48164
  0
LINE
  8
0
 10
19.0647
 20
-1.48164
 11
19.0931
 21
-1.77698
  0
LINE
  8
0
 10
19.0931
 20
-1.77698
 11
19.1267
 21
-2.07178
  0
LINE
  8
0
 10
19.1267
 20
-2.07178
 11
19.1655
 21
-2.36594
  0
LINE
  8
0
 10
19.1655
 20
-2.36594
 11
19.2093
 21
-2.65938
  0
LINE
  8
0
 10
19.2093
 20
-2.65938
 11
19.2583
 21
-2.95201
  0
LINE
  8
0
 10
19.2583
 20
-2.95201
 11
19.3123
 21
-3.24374
  0
LINE
  8
0
 10
19.3123
 20
-3.24374
 11
19.3715
 21
-3.53448
  0
LINE
  8
0
 10
19.3715
 20
-3.53448
 11
19.4357
 21
-3.82416
  0
LINE
  8
0
 10
19.4357
 20
-3.82416
 11
19.505
 21
-4.11267
  0
LINE
  8
0
 10
19.505
 20
-4.11267
 11
19.5793
 21
-4.39992
  0
LINE
  8
0
 10
19.5793
 20
-4.39992
 11
19.6586
 21
-4.68582
  0
LINE
  8
0
 10
19.6586
 20
-4.68582
 11
19.7428
 21
-4.97031
  0
LINE
  8
0
 10
19.7428
 20
-4.97031
 11
19.832
 21
-5.25328
  0
LINE
  8
0
 10
19.832
 20
-5.25328
 11
19.9262
 21
-5.53465
  0
LINE
  8
0
 10
19.9262
 20
-5.53465
 11
20.0252
 21
-5.81433
  0
LINE
  8
0
 10
20.0252
 20
-5.81433
 11
20.1291
 21
-6.09225
  0
LINE
  8
0
 10
20.1291
 20
-6.09225
 11
20.2379
 21
-6.3683
  0
LINE
  8
0
 10
20.2379
 20
-6.3683
 11
20.3514
 21
-6.64243
  0
LINE
  8
0
 10
20.3514
 20
-6.64243
 11
20.4697
 21
-6.91452
  0
LINE
  8
0
 10
20.4697
 20
-6.91452
 11
20.5928
 21
-7.18451
  0
LINE
  8
0
 10
20.5928
 20
-7.18451
 11
20.7205
 21
-7.4523
  0
LINE
  8
0
 10
20.7205
 20
-7.4523
 11
20.8529
 21
-7.71783
  0
LINE
  8
0
 10
20.8529
 20
-7.71783
 11
20.9899
 21
-7.981
  0
LINE
  8
0
 10
20.9899
 20
-7.981
 11
21.1315
 21
-8.24176
  0
LINE
  8
0
 10
21.1315
 20
-8.24176
 11
21.2776
 21
-8.5
  0
LINE
  8
0
 10
21.2776
 20
-8.5
 11
21.4282
 21
-8.75565
  0
LINE
  8
0
 10
21.4282
 20
-8.75565
 11
21.5832
 21
-9.00862
  0
LINE
  8
0
 10
21.5832
 20
-9.00862
 11
21.7426
 21
-9.25885
  0
LINE
  8
0
 10
21.7426
 20
-9.25885
 11
21.9064
 21
-9.50627
  0
LINE
  8
0
 10
21.9064
 20
-9.50627
 11
22.0744
 21
-9.75079
  0
LINE
  8
0
 10
22.0744
 20
-9.75079
 11
22.2467
 21
-9.99234
  0
LINE
  8
0
 10
22.2467
 20
-9.99234
 11
22.4232
 21
-10.2309
  0
LINE
  8
0
 10
22.4232
 20
-10.2309
 11
22.6038
 21
-10.4662
  0
LINE
  8
0
 10
22.6038
 20
-10.4662
 11
22.7885
 21
-10.6984
  0
LINE
  8
0
 10
22.7885
 20
-10.6984
 11
22.9772
 21
-10.9274
  0
LINE
  8
0
 10
22.9772
 20
-10.9274
 11
23.17
 21
-11.153
  0
LINE
  8
0
 10
23.17
 20
-11.153
 11
23.3665
 21
-11.3752
  0
LINE
  8
0
 10
23.3665
 20
-11.3752
 11
23.567
 21
-11.594
  0
LINE
  8
0
 10
23.567
 20
-11.594
 11
23.7712
 21
-11.8092
  0
LINE
  8
0
 10
23.7712
 20
-11.8092
 11
23.9792
 21
-12.0208
  0
LINE
  8
0
 10
23.9792
 20
-12.0208
 11
24.1908
 21
-12.2288
  0
LINE
  8
0
 10
24.1908
 20
-12.2288
 11
24.406
 21
-12.433
  0
LINE
  8
0
 10
24.406
 20
-12.433
 11
24.6248
 21
-12.6335
  0
LINE
  8
0
 10
24.6248
 20
-12.6335
 11
24.847
 21
-12.83
  0
LINE
  8
0
 10
24.847
 20
-12.83
 11
25.0726
 21
-13.0228
  0
LINE
  8
0
 10
25.0726
 20
-13.0228
 11
25.3016
 21
-13.2115
  0
LINE
  8
0
 10
25.3016
 20
-13.2115
 11
25.5338
 21
-13.3962
  0
LINE
  8
0
 10
25.5338
 20
-13.3962
 11
25.7691
 21
-13.5768
  0
LINE
  8
0
 10
25.7691
 20
-13.5768
 11
26.0077
 21
-13.7533
  0
LINE
  8
0
 10
26.0077
 20
-13.7533
 11
26.2492
 21
-13.9256
  0
LINE
  8
0
 10
26.2492
 20
-13.9256
 11
26.4937
 21
-14.0936
  0
LINE
  8
0
 10
26.4937
 20
-14.0936
 11
26.7411
 21
-14.2574
  0
LINE
  8
0
 10
26.7411
 20
-14.2574
 11
26.9914
 21
-14.4168
  0
LINE
  8
0
 10
26.9914
 20
-14.4168
 11
27.2444
 21
-14.5718
  0
LINE
  8
0
 10
27.2444
 20
-14.5718
 11
27.5
 21
-14.7224
  0
LINE
  8
0
 10
27.5
 20
-14.7224
 11
27.7582
 21
-14.8685
  0
LINE
  8
0
 10
27.7582
 20
-14.8685
 11
28.019
 21
-15.0101
  0
LINE
  8
0
 10
28.019
 20
-15.0101
 11
28.2822
 21
-15.1471
  0
LINE
  8
0
 10
28.2822
 20
-15.1471
 11
28.5477
 21
-15.2795
  0
LINE
  8
0
 10
28.5477
 20
-15.2795
 11
28.8155
 21
-15.4072
  0
LINE
  8
0
 10
28.8155
 20
-15.4072
 11
29.0855
 21
-15.5303
  0
LINE
  8
0
 10
29.0855
 20
-15.5303
 11
29.3576
 21
-15.6486
  0
LINE
  8
0
 10
29.3576
 20
-15.6486
 11
29.6317
 21
-15.7621
  0
LINE
  8
0
 10
29.6317
 20
-15.7621
 11
29.9077
 21
-15.8709
  0
LINE
  8
0
 10
29.9077
 20
-15.8709
 11
30.1857
 21
-15.9748
  0
LINE
  8
0
 10
30.1857
 20
-15.9748
 11
30.4653
 21
-16.0738
  0
LINE
  8
0
 10
30.4653
 20
-16.0738
 11
30.7467
 21
-16.168
  0
LINE
  8
0
 10
30.7467
 20
-16.168
 11
31.0297
 21
-16.2572
  0
LINE
  8
0
 10
31.0297
 20
-16.2572
 11
31.3142
 21
-16.3414
  0
LINE
  8
0
 10
31.3142
 20
-16.3414
 11
31.6001
 21
-16.4207
  0
LINE
  8
0
 10
31.6001
 20
-16.4207
 11
31.8873
 21
-16.495
  0
LINE
  8
0
 10
31.8873
 20
-16.495
 11
32.1758
 21
-16.5643
  0
LINE
  8
0
 10
32.1758
 20
-16.5643
 11
32.4655
 21
-16.6285
  0
LINE
  8
0
 10
32.4655
 20
-16.6285
 11
32.7563
 21
-16.6877
  0
LINE
  8
0
 10
32.7563
 20
-16.6877
 11
33.048
 21
-16.7417
  0
LINE
  8
0
 10
33.048
 20
-16.7417
 11
33.3406
 21
-16.7907
  0
LINE
  8
0
 10
33.3406
 20
-16.7907
 11
33.6341
 21
-16.8345
  0
LINE
  8
0
 10
33.6341
 20
-16.8345
 11
33.9282
 21
-16.8733
  0
LINE
  8
0
 10
33.9282
 20
-16.8733
 11
34.223
 21
-16.9069
  0
LINE
  8
0
 10
34.223
 20
-16.9069
 11
34.5184
 21
-16.9353
  0
LINE
  8
0
 10
34.5184
 20
-16.9353
 11
34.8141
 21
-16.9586
  0
LINE
  8
0
 10
34.8141
 20
-16.9586
 11
35.1103
 21
-16.9767
  0
LINE
  8
0
 10
35.1103
 20
-16.9767
 11
35.4067
 21
-16.9896
  0
LINE
  8
0
 10
35.4067
 20
-16.9896
 11
35.7033
 21
-16.9974
  0
LINE
  8
0
 10
35.7033
 20
-16.9974
 11
36
 21
-17
  0
LINE
  8
0
 10
36
 20
-17
 11
36.2967
 21
-16.9974
  0
LINE
  8
0
 10
35.7906
 20
-11.9982
 11
35.5812
 21
-11.9927
  0
LINE
  8
0
 10
35.5812
 20
-11.9927
 11
35.372
 21
-11.9836
  0
LINE
  8
0
 10
35.372
 20
-11.9836
 11
35.1629
 21
-11.9708
  0
LINE
  8
0
 10
35.1629
 20
-11.9708
 11
34.9541
 21
-11.9543
  0
LINE
  8
0
 10
34.9541
 20
-11.9543
 11
34.7457
 21
-11.9342
  0
LINE
  8
0
 10
34.7457
 20
-11.9342
 11
34.5376
 21
-11.9106
  0
LINE
  8
0
 10
34.5376
 20
-11.9106
 11
34.3299
 21
-11.8832
  0
LINE
  8
0
 10
34.3299
 20
-11.8832
 11
34.1228
 21
-11.8522
  0
LINE
  8
0
 10
34.1228
 20
-11.8522
 11
33.9162
 21
-11.8177
  0
LINE
  8
0
 10
33.9162
 20
-11.8177
 11
33.7103
 21
-11.7795
  0
LINE
  8
0
 10
33.7103
 20
-11.7795
 11
33.5051
 21
-11.7378
  0
LINE
  8
0
 10
33.5051
 20
-11.7378
 11
33.3006
 21
-11.6924
  0
LINE
  8
0
 10
33.3006
 20
-11.6924
 11
33.0969
 21
-11.6435
  0
LINE
  8
0
 10
33.0969
 20
-11.6435
 11
32.8942
 21
-11.5911
  0
LINE
  8
0
 10
32.8942
 20
-11.5911
 11
32.6924
 21
-11.5351
  0
LINE
  8
0
 10
32.6924
 20
-11.5351
 11
32.4915
 21
-11.4756
  0
LINE
  8
0
 10
32.4915
 20
-11.4756
 11
32.2918
 21
-11.4127
  0
LINE
  8
0
 10
32.2918
 20
-11.4127
 11
32.0932
 21
-11.3462
  0
LINE
  8
0
 10
32.0932
 20
-11.3462
 11
31.8958
 21
-11.2763
  0
LINE
  8
0
 10
31.8958
 20
-11.2763
 11
31.6996
 21
-11.203
  0
LINE
  8
0
 10
31.6996
 20
-11.203
 11
31.5047
 21
-11.1262
  0
LINE
  8
0
 10
31.5047
 20
-11.1262
 11
31.3112
 21
-11.0461
  0
LINE
  8
0
 10
31.3112
 20
-11.0461
 11
31.1192
 21
-10.9625
  0
LINE
  8
0
 10
31.1192
 20
-10.9625
 11
30.9286
 21
-10.8757
  0
LINE
  8
0
 10
30.9286
 20
-10.8757
 11
30.7395
 21
-10.7855
  0
LINE
  8
0
 10
30.7395
 20
-10.7855
 11
30.5521
 21
-10.6921
  0
LINE
  8
0
 10
30.5521
 20
-10.6921
 11
30.3663
 21
-10.5954
  0
LINE
  8
0
 10
30.3663
 20
-10.5954
 11
30.1823
 21
-10.4954
  0
LINE
  8
0
 10
30.1823
 20
-10.4954
 11
30
 21
-10.3923
  0
LINE
  8
0
 10
30
 20
-10.3923
 11
29.8195
 21
-10.286
  0
LINE
  8
0
 10
29.8195
 20
-10.286
 11
29.641
 21
-10.1766
  0
LINE
  8
0
 10
29.641
 20
-10.1766
 11
29.4643
 21
-10.064
  0
LINE
  8
0
 10
29.4643
 20
-10.064
 11
29.2897
 21
-9.94844
  0
LINE
  8
0
 10
29.2897
 20
-9.94844
 11
29.1171
 21
-9.82982
  0
LINE
  8
0
 10
29.1171
 20
-9.82982
 11
28.9466
 21
-9.70819
  0
LINE
  8
0
 10
28.9466
 20
-9.70819
 11
28.7782
 21
-9.58362
  0
LINE
  8
0
 10
28.7782
 20
-9.58362
 11
28.6121
 21
-9.45612
  0
LINE
  8
0
 10
28.6121
 20
-9.45612
 11
28.4482
 21
-9.32574
  0
LINE
  8
0
 10
28.4482
 20
-9.32574
 11
28.2866
 21
-9.19252
  0
LINE
  8
0
 10
28.2866
 20
-9.19252
 11
28.1273
 21
-9.0565
  0
LINE
  8
0
 10
28.1273
 20
-9.0565
 11
27.9704
 21
-8.91772
  0
LINE
  8
0
 10
27.9704
 20
-8.91772
 11
27.816
 21
-8.77623
  0
LINE
  8
0
 10
27.816
 20
-8.77623
 11
27.6641
 21
-8.63206
  0
LINE
  8
0
 10
27.6641
 20
-8.63206
 11
27.5147
 21
-8.48528
  0
LINE
  8
0
 10
27.5147
 20
-8.48528
 11
27.3679
 21
-8.33589
  0
LINE
  8
0
 10
27.3679
 20
-8.33589
 11
27.2238
 21
-8.18398
  0
LINE
  8
0
 10
27.2238
 20
-8.18398
 11
27.0823
 21
-8.02956
  0
LINE
  8
0
 10
27.0823
 20
-8.02956
 11
26.9435
 21
-7.8727
  0
LINE
  8
0
 10
26.9435
 20
-7.8727
 11
26.8075
 21
-7.71344
  0
LINE
  8
0
 10
26.8075
 20
-7.71344
 11
26.6743
 21
-7.55183
  0
LINE
  8
0
 10
26.6743
 20
-7.55183
 11
26.5439
 21
-7.38792
  0
LINE
  8
0
 10
26.5439
 20
-7.38792
 11
26.4164
 21
-7.22177
  0
LINE
  8
0
 10
26.4164
 20
-7.22177
 11
26.2918
 21
-7.05342
  0
LINE
  8
0
 10
26.2918
 20
-7.05342
 11
26.1702
 21
-6.8829
  0
LINE
  8
0
 10
26.1702
 20
-6.8829
 11
26.0516
 21
-6.71031
  0
LINE
  8
0
 10
26.0516
 20
-6.71031
 11
25.936
 21
-6.53566
  0
LINE
  8
0
 10
25.936
 20
-6.53566
 11
25.8234
 21
-6.35902
  0
LINE
  8
0
 10
25.8234
 20
-6.35902
 11
25.714
 21
-6.18045
  0
LINE
  8
0
 10
25.714
 20
-6.18045
 11
25.6077
 21
-6
  0
LINE
  8
0
 10
25.6077
 20
-6
 11
25.5046
 21
-5.8177
  0
LINE
  8
0
 10
25.5046
 20
-5.8177
 11
25.4046
 21
-5.63365
  0
LINE
  8
0
 10
25.4046
 20
-5.63365
 11
25.3079
 21
-5.44788
  0
LINE
  8
0
 10
25.3079
 20
-5.44788
 11
25.2145
 21
-5.26045
  0
LINE
  8
0
 10
25.2145
 20
-5.26045
 11
25.1243
 21
-5.07141
  0
LINE
  8
0
 10
25.1243
 20
-5.07141
 11
25.0375
 21
-4.88083
  0
LINE
  8
0
 10
25.0375
 20
-4.88083
 11
24.9539
 21
-4.68877
  0
LINE
  8
0
 10
24.9539
 20
-4.68877
 11
24.8738
 21
-4.49527
  0
LINE
  8
0
 10
24.8738
 20
-4.49527
 11
24.797
 21
-4.30042
  0
LINE
  8
0
 10
24.797
 20
-4.30042
 11
24.7237
 21
-4.10423
  0
LINE
  8
0
 10
24.7237
 20
-4.10423
 11
24.6538
 21
-3.90681
  0
LINE
  8
0
 10
24.6538
 20
-3.90681
 11
24.5873
 21
-3.70819
  0
LINE
  8
0
 10
24.5873
 20
-3.70819
 11
24.5244
 21
-3.50845
  0
LINE
  8
0
 10
24.5244
 20
-3.50845
 11
24.4649
 21
-3.30765
  0
LINE
  8
0
 10
24.4649
 20
-3.30765
 11
24.4089
 21
-3.10582
  0
LINE
  8
0
 10
24.4089
 20
-3.10582
 11
24.3565
 21
-2.90306
  0
LINE
  8
0
 10
24.3565
 20
-2.90306
 11
24.3076
 21
-2.6994
  0
LINE
  8
0
 10
24.3076
 20
-2.6994
 11
24.2622
 21
-2.49493
  0
LINE
  8
0
 10
24.2622
 20
-2.49493
 11
24.2205
 21
-2.2897
  0
LINE
  8
0
 10
24.2205
 20
-2.2897
 11
24.1823
 21
-2.08377
  0
LINE
  8
0
 10
24.1823
 20
-2.08377
 11
24.1478
 21
-1.87721
  0
LINE
  8
0
 10
24.1478
 20
-1.87721
 11
24.1168
 21
-1.67007
  0
LINE
  8
0
 10
24.1168
 20
-1.67007
 11
24.0894
 21
-1.46242
  0
LINE
  8
0
 10
24.0894
 20
-1.46242
 11
24.0658
 21
-1.25433
  0
LINE
  8
0
 10
24.0658
 20
-1.25433
 11
24.0457
 21
-1.04587
  0
LINE
  8
0
 10
24.0457
 20
-1.04587
 11
24.0292
 21
-0.837067
  0
LINE
  8
0
 10
24.0292
 20
-0.837067
 11
24.0164
 21
-0.628021
  0
LINE
  8
0
 10
24.0164
 20
-0.628021
 11
24.0073
 21
-0.418793
  0
LINE
  8
0
 10
24.0073
 20
-0.418793
 11
24.0018
 21
-0.209427
  0
LINE
  8
0
 10
24.0018
 20
-0.209427
 11
24
 21
0
  0
LINE
  8
0
 10
24
 20
0
 11
24.0018
 21
0.209427
  0
LINE
  8
0
 10
24.0018
 20
0.209427
 11
24.0073
 21
0.418793
  0
LINE
  8
0
 10
24.0073
 20
0.418793
 11
24.0164
 21
0.628021
  0
LINE
  8
0
 10
24.0164
 20
0.628021
 11
24.0292
 21
0.837067
  0
LINE
  8
0
 10
24.0292
 20
0.837067
 11
24.0457
 21
1.04587
  0
LINE
  8
0
 10
24.0457
 20
1.04587
 11
24.0658
 21
1.25433
  0
LINE
  8
0
 10
24.0658
 20
1.25433
 11
24.0894
 21
1.46242
  0
LINE
  8
0
 10
24.0894
 20
1.46242
 11
24.1168
 21
1.67007
  0
LINE
  8
0
 10
24.1168
 20
1.67007
 11
24.1478
 21
1.87721
  0
LINE
  8
0
 10
24.1478
 20
1.87721
 11
24.1823
 21
2.08377
  0
LINE
  8
0
 10
24.1823
 20
2.08377
 11
24.2205
 21
2.2897
  0
LINE
  8
0
 10
24.2205
 20
2.2897
 11
24.2622
 21
2.49493
  0
LINE
  8
0
 10
24.2622
 20
2.49493
 11
24.3076
 21
2.6994
  0
LINE
  8
0
 10
24.3076
 20
2.6994
 11
24.3565
 21
2.90306
  0
LINE
  8
0
 10
24.3565
 20
2.90306
 11
24.4089
 21
3.10582
  0
LINE
  8
0
 10
24.4089
 20
3.10582
 11
24.4649
 21
3.30765
  0
LINE
  8
0
 10
24.4649
 20
3.30765
 11
24.5244
 21
3.50845
  0
LINE
  8
0
 10
24.5244
 20
3.50845
 11
24.5873
 21
3.70819
  0
LINE
  8
0
 10
24.5873
 20
3.70819
 11
24.6538
 21
3.90681
  0
LINE
  8
0
 10
24.6538
 20
3.90681
 11
24.7237
 21
4.10423
  0
LINE
  8
0
 10
24.7237
 20
4.10423
 11
24.797
 21
4.30042
  0
LINE
  8
0
 10
24.797
 20
4.30042
 11
24.8738
 21
4.49527
  0
LINE
  8
0
 10
24.8738
 20
4.49527
 11
24.9539
 21
4.68877
  0
LINE
  8
0
 10
24.9539
 20
4.68877
 11
25.0375
 21
4.88083
  0
LINE
  8
0
 10
25.0375
 20
4.88083
 11
25.1243
 21
5.07141
  0
LINE
  8
0
 10
25.1243
 20
5.07141
 11
25.2145
 21
5.26045
  0
LINE
  8
0
 10
25.2145
 20
5.26045
 11
25.3079
 21
5.44788
  0
LINE
  8
0
 10
25.3079
 20
5.44788
 11
25.4046
 21
5.63365
  0
LINE
  8
0
 10
25.4046
 20
5.63365
 11
25.5046
 21
5.8177
  0
LINE
  8
0
 10
25.5046
 20
5.8177
 11
25.6077
 21
6
  0
LINE
  8
0
 10
25.6077
 20
6
 11
25.714
 21
6.18045
  0
LINE
  8
0
 10
25.714
 20
6.18045
 11
25.8234
 21
6.35902
  0
LINE
  8
0
 10
25.8234
 20
6.35902
 11
25.936
 21
6.53566
  0
LINE
  8
0
 10
25.936
 20
6.53566
 11
26.0516
 21
6.71031
  0
LINE
  8
0
 10
26.0516
 20
6.71031
 11
26.1702
 21
6.8829
  0
LINE
  8
0
 10
26.1702
 20
6.8829
 11
26.2918
 21
7.05342
  0
LINE
  8
0
 10
26.2918
 20
7.05342
 11
26.4164
 21
7.22177
  0
LINE
  8
0
 10
26.4164
 20
7.22177
 11
26.5439
 21
7.38792
  0
LINE
  8
0
 10
26.5439
 20
7.38792
 11
26.6743
 21
7.55183
  0
LINE
  8
0
 10
26.6743
 20
7.55183
 11
26.8075
 21
7.71344
  0
LINE
  8
0
 10
26.8075
 20
7.71344
 11
26.9435
 21
7.8727
  0
LINE
  8
0
 10
26.9435
 20
7.8727
 11
27.0823
 21
8.02956
  0
LINE
  8
0
 10
27.0823
 20
8.02956
 11
27.2238
 21
8.18398
  0
LINE
  8
0
 10
27.2238
 20
8.18398
 11
27.3679
 21
8.33589
  0
LINE
  8
0
 10
27.3679
 20
8.33589
 11
27.5147
 21
8.48528
  0
LINE
  8
0
 10
27.5147
 20
8.48528
 11
27.6641
 21
8.63206
  0
LINE
  8
0
 10
27.6641
 20
8.63206
 11
27.816
 21
8.77623
  0
LINE
  8
0
 10
27.816
 20
8.77623
 11
27.9704
 21
8.91772
  0
LINE
  8
0
 10
27.9704
 20
8.91772
 11
28.1273
 21
9.0565
  0
LINE
  8
0
 10
28.1273
 20
9.0565
 11
28.2866
 21
9.19252
  0
LINE
  8
0
 10
28.2866
 20
9.19252
 11
28.4482
 21
9.32574
  0
LINE
  8
0
 10
28.4482
 20
9.32574
 11
28.6121
 21
9.45612
  0
LINE
  8
0
 10
28.6121
 20
9.45612
 11
28.7782
 21
9.58362
  0
LINE
  8
0
 10
28.7782
 20
9.58362
 11
28.9466
 21
9.70819
  0
LINE
  8
0
 10
28.9466
 20
9.70819
 11
29.1171
 21
9.82982
  0
LINE
  8
0
 10
29.1171
 20
9.82982
 11
29.2897
 21
9.94844
  0
LINE
  8
0
 10
29.2897
 20
9.94844
 11
29.4643
 21
10.064
  0
LINE
  8
0
 10
29.4643
 20
10.064
 11
29.641
 21
10.1766
  0
LINE
  8
0
 10
29.641
 20
10.1766
 11
29.8195
 21
10.286
  0
LINE
  8
0
 10
29.8195
 20
10.286
 11
30
 21
10.3923
  0
LINE
  8
0
 10
30
 20
10.3923
 11
30.1823
 21
10.4954
  0
LINE
  8
0
 10
30.1823
 20
10.4954
 11
30.3663
 21
10.5954
  0
LINE
  8
0
 10
30.3663
 20
10.5954
 11
30.5521
 21
10.6921
  0
LINE
  8
0
 10
30.5521
 20
10.6921
 11
30.7395
 21
10.7855
  0
LINE
  8
0
 10
30.7395
 20
10.7855
 11
30.9286
 21
10.8757
  0
LINE
  8
0
 10
30.9286
 20
10.8757
 11
31.1192
 21
10.9625
  0
LINE
  8
0
 10
31.1192
 20
10.9625
 11
31.3112
 21
11.0461
  0
LINE
  8
0
 10
31.3112
 20
11.0461
 11
31.5047
 21
11.1262
  0
LINE
  8
0
 10
31.5047
 20
11.1262
 11
31.6996
 21
11.203
  0
LINE
  8
0
 10
31.6996
 20
11.203
 11
31.8958
 21
11.2763
  0
LINE
  8
0
 10
31.8958
 20
11.2763
 11
32.0932
 21
11.3462
  0
LINE
  8
0
 10
32.0932
 20
11.3462
 11
32.2918
 21
11.4127
  0
LINE
  8
0
 10
32.2918
 20
11.4127
 11
32.4915
 21
11.4756
  0
LINE
  8
0
 10
32.4915
 20
11.4756
 11
32.6924
 21
11.5351
  0
LINE
  8
0
 10
32.6924
 20
11.5351
 11
32.8942
 21
11.5911
  0
LINE
  8
0
 10
32.8942
 20
11.5911
 11
33.0969
 21
11.6435
  0
LINE
  8
0
 10
33.0969
 20
11.6435
 11
33.3006
 21
11.6924
  0
LINE
  8
0
 10
33.3006
 20
11.6924
 11
33.5051
 21
11.7378
  0
LINE
  8
0
 10
33.5051
 20
11.7378
 11
33.7103
 21
11.7795
  0
LINE
  8
0
 10
33.7103
 20
11.7795
 11
33.9162
 21
11.8177
  0
LINE
  8
0
 10
33.9162
 20
11.8177
 11
34.1228
 21
11.8522
  0
LINE
  8
0
 10
34.1228
 20
11.8522
 11
34.3299
 21
11.8832
  0
LINE
  8
0
 10
34.3299
 20
11.8832
 11
34.5376
 21
11.9106
  0
LINE
  8
0
 10
34.5376
 20
11.9106
 11
34.7457
 21
11.9342
  0
LINE
  8
0
 10
34.7457
 20
11.9342
 11
34.9541
 21
11.9543
  0
LINE
  8
0
 10
34.9541
 20
11.9543
 11
35.1629
 21
11.9708
  0
LINE
  8
0
 10
35.1629
 20
11.9708
 11
35.372
 21
11.9836
  0
LINE
  8
0
 10
35.372
 20
11.9836
 11
35.5812
 21
11.9927
  0
LINE
  8
0
 10
35.5812
 20
11.9927
 11
35.7906
 21
11.9982
  0
LINE
  8
0
 10
35.7906
 20
11.9982
 11
36
 21
12
  0
LINE
  8
0
 10
36
 20
12
 11
36.2094
 21
11.9982
  0
LINE
  8
0
 10
36.2094
 20
11.9982
 11
36.4188
 21
11.9927
  0
LINE
  8
0
 10
36.4188
 20
11.9927
 11
36.628
 21
11.9836
  0
LINE
  8
0
 10
36.628
 20
11.9836
 11
36.8371
 21
11.9708
  0
LINE
  8
0
 10
36.8371
 20
11.9708
 11
37.0459
 21
11.9543
  0
LINE
  8
0
 10
37.0459
 20
11.9543
 11
37.2543
 21
11.9342
  0
LINE
  8
0
 10
37.2543
 20
11.9342
 11
37.4624
 21
11.9106
  0
LINE
  8
0
 10
37.4624
 20
11.9106
 11
37.6701
 21
11.8832
  0
LINE
  8
0
 10
37.6701
 20
11.8832
 11
37.8772
 21
11.8522
  0
LINE
  8
0
 10
37.8772
 20
11.8522
 11
38.0838
 21
11.8177
  0
LINE
  8
0
 10
38.0838
 20
11.8177
 11
38.2897
 21
11.7795
  0
LINE
  8
0
 10
38.2897
 20
11.7795
 11
38.4949
 21
11.7378
  0
LINE
  8
0
 10
38.4949
 20
11.7378
 11
38.6994
 21
11.6924
  0
LINE
  8
0
 10
38.6994
 20
11.6924
 11
38.9031
 21
11.6435
  0
LINE
  8
0
 10
38.9031
 20
11.6435
 11
39.1058
 21
11.5911
  0
LINE
  8
0
 10
39.1058
 20
11.5911
 11
39.3076
 21
11.5351
  0
LINE
  8
0
 10
39.3076
 20
11.5351
 11
39.5085
 21
11.4756
  0
LINE
  8
0
 10
39.5085
 20
11.4756
 11
39.7082
 21
11.4127
  0
LINE
  8
0
 10
39.7082
 20
11.4127
 11
39.9068
 21
11.3462
  0
LINE
  8
0
 10
39.9068
 20
11.3462
 11
40.1042
 21
11.2763
  0
LINE
  8
0
 10
40.1042
 20
11.2763
 11
40.3004
 21
11.203
  0
LINE
  8
0
 10
40.3004
 20
11.203
 11
40.4953
 21
11.1262
  0
LINE
  8
0
 10
40.4953
 20
11.1262
 11
40.6888
 21
11.0461
  0
LINE
  8
0
 10
40.6888
 20
11.0461
 11
40.8808
 21
10.9625
  0
LINE
  8
0
 10
40.8808
 20
10.9625
 11
41.0714
 21
10.8757
  0
LINE
  8
0
 10
41.0714
 20
10.8757
 11
41.2605
 21
10.7855
  0
LINE
  8
0
 10
41.2605
 20
10.7855
 11
41.4479
 21
10.6921
  0
LINE
  8
0
 10
41.4479
 20
10.6921
 11
41.6337
 21
10.5954
  0
LINE
  8
0
 10
41.6337
 20
10.5954
 11
41.8177
 21
10.4954
  0
LINE
  8
0
 10
41.8177
 20
10.4954
 11
42
 21
10.3923
  0
LINE
  8
0
 10
42
 20
10.3923
 11
42.1805
 21
10.286
  0
LINE
  8
0
 10
42.1805
 20
10.286
 11
42.359
 21
10.1766
  0
LINE
  8
0
 10
42.359
 20
10.1766
 11
42.5357
 21
10.064
  0
LINE
  8
0
 10
42.5357
 20
10.064
 11
42.7103
 21
9.94844
  0
LINE
  8
0
 10
42.7103
 20
9.94844
 11
42.8829
 21
9.82982
  0
LINE
  8
0
 10
42.8829
 20
9.82982
 11
43.0534
 21
9.70819
  0
LINE
  8
0
 10
43.0534
 20
9.70819
 11
43.2218
 21
9.58362
  0
LINE
  8
0
 10
43.2218
 20
9.58362
 11
43.3879
 21
9.45612
  0
LINE
  8
0
 10
43.3879
 20
9.45612
 11
43.5518
 21
9.32574
  0
LINE
  8
0
 10
43.5518
 20
9.32574
 11
43.7134
 21
9.19252
  0
LINE
  8
0
 10
43.7134
 20
9.19252
 11
43.8727
 21
9.0565
  0
LINE
  8
0
 10
43.8727
 20
9.0565
 11
44.0296
 21
8.91772
  0
LINE
  8
0
 10
44.0296
 20
8.91772
 11
44.184
 21
8.77623
  0
LINE
  8
0
 10
44.184
 20
8.77623
 11
44.3359
 21
8.63206
  0
LINE
  8
0
 10
44.3359
 20
8.63206
 11
44.4853
 21
8.48528
  0
LINE
  8
0
 10
44.4853
 20
8.48528
 11
44.6321
 21
8.33589
  0
LINE
  8
0
 10
44.6321
 20
8.33589
 11
44.7762
 21
8.18398
  0
LINE
  8
0
 10
44.7762
 20
8.18398
 11
44.9177
 21
8.02956
  0
LINE
  8
0
 10
44.9177
 20
8.02956
 11
45.0565
 21
7.8727
  0
LINE
  8
0
 10
45.0565
 20
7.8727
 11
45.1925
 21
7.71344
  0
LINE
  8
0
 10
45.1925
 20
7.71344
 11
45.3257
 21
7.55183
  0
LINE
  8
0
 10
45.3257
 20
7.55183
 11
45.4561
 21
7.38792
  0
LINE
  8
0
 10
45.4561
 20
7.38792
 11
45.5836
 21
7.22177
  0
LINE
  8
0
 10
45.5836
 20
7.22177
 11
45.7082
 21
7.05342
  0
LINE
  8
0
 10
45.7082
 20
7.05342
 11
45.8298
 21
6.8829
  0
LINE
  8
0
 10
45.8298
 20
6.8829
 11
45.9484
 21
6.71031
  0
LINE
  8
0
 10
45.9484
 20
6.71031
 11
46.064
 21
6.53566
  0
LINE
  8
0
 10
46.064
 20
6.53566
 11
46.1766
 21
6.35902
  0
LINE
  8
0
 10
46.1766
 20
6.35902
 11
46.286
 21
6.18045
  0
LINE
  8
0
 10
46.286
 20
6.18045
 11
46.3923
 21
6
  0
LINE
  8
0
 10
46.3923
 20
6
 11
46.4954
 21
5.8177
  0
LINE
  8
0
 10
46.4954
 20
5.8177
 11
46.5954
 21
5.63365
  0
LINE
  8
0
 10
46.5954
 20
5.63365
 11
46.6921
 21
5.44788
  0
LINE
  8
0
 10
46.6921
 20
5.44788
 11
46.7855
 21
5.26045
  0
LINE
  8
0
 10
46.7855
 20
5.26045
 11
46.8757
 21
5.07141
  0
LINE
  8
0
 10
46.8757
 20
5.07141
 11
46.9625
 21
4.88083
  0
LINE
  8
0
 10
46.9625
 20
4.88083
 11
47.0461
 21
4.68877
  0
LINE
  8
0
 10
47.0461
 20
4.68877
 11
47.1262
 21
4.49527
  0
LINE
  8
0
 10
47.1262
 20
4.49527
 11
47.203
 21
4.30042
  0
LINE
  8
0
 10
47.203
 20
4.30042
 11
47.2763
 21
4.10423
  0
LINE
  8
0
 10
47.2763
 20
4.10423
 11
47.3462
 21
3.90681
  0
LINE
  8
0
 10
47.3462
 20
3.90681
 11
47.4127
 21
3.70819
  0
LINE
  8
0
 10
47.4127
 20
3.70819
 11
47.4756
 21
3.50845
  0
LINE
  8
0
 10
47.4756
 20
3.50845
 11
47.5351
 21
3.30765
  0
LINE
  8
0
 10
47.5351
 20
3.30765
 11
47.5911
 21
3.10582
  0
LINE
  8
0
 10
47.5911
 20
3.10582
 11
47.6435
 21
2.90306
  0
LINE
  8
0
 10
47.6435
 20
2.90306
 11
47.6924
 21
2.6994
  0
LINE
  8
0
 10
47.6924
 20
2.6994
 11
47.7378
 21
2.49493
  0
LINE
  8
0
 10
47.7378
 20
2.49493
 11
47.7795
 21
2.2897
  0
LINE
  8
0
 10
47.7795
 20
2.2897
 11
47.8177
 21
2.08377
  0
LINE
  8
0
 10
47.8177
 20
2.08377
 11
47.8522
 21
1.87721
  0
LINE
  8
0
 10
47.8522
 20
1.87721
 11
47.8832
 21
1.67007
  0
LINE
  8
0
 10
47.8832
 20
1.67007
 11
47.9106
 21
1.46242
  0
LINE
  8
0
 10
47.9106
 20
1.46242
 11
47.9342
 21
1.25433
  0
LINE
  8
0
 10
47.9342
 20
1.25433
 11
47.9543
 21
1.04587
  0
LINE
  8
0
 10
47.9543
 20
1.04587
 11
47.9708
 21
0.837067
  0
LINE
  8
0
 10
47.9708
 20
0.837067
 11
47.9836
 21
0.628021
  0
LINE
  8
0
 10
47.9836
 20
0.628021
 11
47.9927
 21
0.418793
  0
LINE
  8
0
 10
47.9927
 20
0.418793
 11
47.9982
 21
0.209427
  0
LINE
  8
0
 10
47.9982
 20
0.209427
 11
48
 21
0
  0
LINE
  8
0
 10
48
 20
0
 11
47.9982
 21
-0.209427
  0
LINE
  8
0
 10
47.9982
 20
-0.209427
 11
47.9927
 21
-0.418793
  0
LINE
  8
0
 10
47.9927
 20
-0.418793
 11
47.9836
 21
-0.628021
  0
LINE
  8
0
 10
47.9836
 20
-0.628021
 11
47.9708
 21
-0.837067
  0
LINE
  8
0
 10
47.9708
 20
-0.837067
 11
47.9543
 21
-1.04587
  0
LINE
  8
0
 10
47.9543
 20
-1.04587
 11
47.9342
 21
-1.25433
  0
LINE
  8
0
 10
47.9342
 20
-1.25433
 11
47.9106
 21
-1.46242
  0
LINE
  8
0
 10
47.9106
 20
-1.46242
 11
47.8832
 21
-1.67007
  0
LINE
  8
0
 10
47.8832
 20
-1.67007
 11
47.8522
 21
-1.87721
  0
LINE
  8
0
 10
47.8522
 20
-1.87721
 11
47.8177
 21
-2.08377
  0
LINE
  8
0
 10
47.8177
 20
-2.08377
 11
47.7795
 21
-2.2897
  0
LINE
  8
0
 10
47.7795
 20
-2.2897
 11
47.7378
 21
-2.49493
  0
LINE
  8
0
 10
47.7378
 20
-2.49493
 11
47.6924
 21
-2.6994
  0
LINE
  8
0
 10
47.6924
 20
-2.6994
 11
47.6435
 21
-2.90306
  0
LINE
  8
0
 10
47.6435
 20
-2.90306
 11
47.5911
 21
-3.10582
  0
LINE
  8
0
 10
47.5911
 20
-3.10582
 11
47.5351
 21
-3.30765
  0
LINE
  8
0
 10
47.5351
 20
-3.30765
 11
47.4756
 21
-3.50845
  0
LINE
  8
0
 10
47.4756
 20
-3.50845
 11
47.4127
 21
-3.70819
  0
LINE
  8
0
 10
47.4127
 20
-3.70819
 11
47.3462
 21
-3.90681
  0
LINE
  8
0
 10
47.3462
 20
-3.90681
 11
47.2763
 21
-4.10423
  0
LINE
  8
0
 10
47.2763
 20
-4.10423
 11
47.203
 21
-4.30042
  0
LINE
  8
0
 10
47.203
 20
-4.30042
 11
47.1262
 21
-4.49527
  0
LINE
  8
0
 10
47.1262
 20
-4.49527
 11
47.0461
 21
-4.68877
  0
LINE
  8
0
 10
47.0461
 20
-4.68877
 11
46.9625
 21
-4.88083
  0
LINE
  8
0
 10
46.9625
 20
-4.88083
 11
46.8757
 21
-5.07141
  0
LINE
  8
0
 10
46.8757
 20
-5.07141
 11
46.7855
 21
-5.26045
  0
LINE
  8
0
 10
46.7855
 20
-5.26045
 11
46.6921
 21
-5.44788
  0
LINE
  8
0
 10
46.6921
 20
-5.44788
 11
46.5954
 21
-5.63365
  0
LINE
  8
0
 10
46.5954
 20
-5.63365
 11
46.4954
 21
-5.8177
  0
LINE
  8
0
 10
46.4954
 20
-5.8177
 11
46.3923
 21
-6
  0
LINE
  8
0
 10
46.3923
 20
-6
 11
46.286
 21
-6.18045
  0
LINE
  8
0
 10
46.286
 20
-6.18045
 11
46.1766
 21
-6.35902
  0
LINE
  8
0
 10
46.1766
 20
-6.35902
 11
46.064
 21
-6.53566
  0
LINE
  8
0
 10
46.064
 20
-6.53566
 11
45.9484
 21
-6.71031
  0
LINE
  8
0
 10
45.9484
 20
-6.71031
 11
45.8298
 21
-6.8829
  0
LINE
  8
0
 10
45.8298
 20
-6.8829
 11
45.7082
 21
-7.05342
  0
LINE
  8
0
 10
45.7082
 20
-7.05342
 11
45.5836
 21
-7.22177
  0
LINE
  8
0
 10
45.5836
 20
-7.22177
 11
45.4561
 21
-7.38792
  0
LINE
  8
0
 10
45.4561
 20
-7.38792
 11
45.3257
 21
-7.55183
  0
LINE
  8
0
 10
45.3257
 20
-7.55183
 11
45.1925
 21
-7.71344
  0
LINE
  8
0
 10
45.1925
 20
-7.71344
 11
45.0565
 21
-7.8727
  0
LINE
  8
0
 10
45.0565
 20
-7.8727
 11
44.9177
 21
-8.02956
  0
LINE
  8
0
 10
44.9177
 20
-8.02956
 11
44.7762
 21
-8.18398
  0
LINE
  8
0
 10
44.7762
 20
-8.18398
 11
44.6321
 21
-8.33589
  0
LINE
  8
0
 10
44.6321
 20
-8.33589
 11
44.4853
 21
-8.48528
  0
LINE
  8
0
 10
44.4853
 20
-8.48528
 11
44.3359
 21
-8.63206
  0
LINE
  8
0
 10
44.3359
 20
-8.63206
 11
44.184
 21
-8.77623
  0
LINE
  8
0
 10
44.184
 20
-8.77623
 11
44.0296
 21
-8.91772
  0
LINE
  8
0
 10
44.0296
 20
-8.91772
 11
43.8727
 21
-9.0565
  0
LINE
  8
0
 10
43.8727
 20
-9.0565
 11
43.7134
 21
-9.19252
  0
LINE
  8
0
 10
43.7134
 20
-9.19252
 11
43.5518
 21
-9.32574
  0
LINE
  8
0
 10
43.5518
 20
-9.32574
 11
43.3879
 21
-9.45612
  0
LINE
  8
0
 10
43.3879
 20
-9.45612
 11
43.2218
 21
-9.58362
  0
LINE
  8
0
 10
43.2218
 20
-9.58362
 11
43.0534
 21
-9.70819
  0
LINE
  8
0
 10
43.0534
 20
-9.70819
 11
42.8829
 21
-9.82982
  0
LINE
  8
0
 10
42.8829
 20
-9.82982
 11
42.7103
 21
-9.94844
  0
LINE
  8
0
 10
42.7103
 20
-9.94844
 11
42.5357
 21
-10.064
  0
LINE
  8
0
 10
42.5357
 20
-10.064
 11
42.359
 21
-10.1766
  0
LINE
  8
0
 10
42.359
 20
-10.1766
 11
42.1805
 21
-10.286
  0
LINE
  8
0
 10
42.1805
 20
-10.286
 11
42
 21
-10.3923
  0
LINE
  8
0
 10
42
 20
-10.3923
 11
41.8177
 21
-10.4954
  0
LINE
  8
0
 10
41.8177
 20
-10.4954
 11
41.6337
 21
-10.5954
  0
LINE
  8
0
 10
41.6337
 20
-10.5954
 11
41.4479
 21
-10.6921
  0
LINE
  8
0
 10
41.4479
 20
-10.6921
 11
41.2605
 21
-10.7855
  0
LINE
  8
0
 10
41.2605
 20
-10.7855
 11
41.0714
 21
-10.8757
  0
LINE
  8
0
 10
41.0714
 20
-10.8757
 11
40.8808
 21
-10.9625
  0
LINE
  8
0
 10
40.8808
 20
-10.9625
 11
40.6888
 21
-11.0461
  0
LINE
  8
0
 10
40.6888
 20
-11.0461
 11
40.4953
 21
-11.1262
  0
LINE
  8
0
 10
40.4953
 20
-11.1262
 11
40.3004
 21
-11.203
  0
LINE
  8
0
 10
40.3004
 20
-11.203
 11
40.1042
 21
-11.2763
  0
LINE
  8
0
 10
40.1042
 20
-11.2763
 11
39.9068
 21
-11.3462
  0
LINE
  8
0
 10
39.9068
 20
-11.3462
 11
39.7082
 21
-11.4127
  0
LINE
  8
0
 10
39.7082
 20
-11.4127
 11
39.5085
 21
-11.4756
  0
LINE
  8
0
 10
39.5085
 20
-11.4756
 11
39.3076
 21
-11.5351
  0
LINE
  8
0
 10
39.3076
 20
-11.5351
 11
39.1058
 21
-11.5911
  0
LINE
  8
0
 10
39.1058
 20
-11.5911
 11
38.9031
 21
-11.6435
  0
LINE
  8
0
 10
38.9031
 20
-11.6435
 11
38.6994
 21
-11.6924
  0
LINE
  8
0
 10
38.6994
 20
-11.6924
 11
38.4949
 21
-11.7378
  0
LINE
  8
0
 10
38.4949
 20
-11.7378
 11
38.2897
 21
-11.7795
  0
LINE
  8
0
 10
38.2897
 20
-11.7795
 11
38.0838
 21
-11.8177
  0
LINE
  8
0
 10
38.0838
 20
-11.8177
 11
37.8772
 21
-11.8522
  0
LINE
  8
0
 10
37.8772
 20
-11.8522
 11
37.6701
 21
-11.8832
  0
LINE
  8
0
 10
37.6701
 20
-11.8832
 11
37.4624
 21
-11.9106
  0
LINE
  8
0
 10
37.4624
 20
-11.9106
 11
37.2543
 21
-11.9342
  0
LINE
  8
0
 10
37.2543
 20
-11.9342
 11
37.0459
 21
-11.9543
  0
LINE
  8
0
 10
37.0459
 20
-11.9543
 11
36.8371
 21
-11.9708
  0
LINE
  8
0
 10
36.8371
 20
-11.9708
 11
36.628
 21
-11.9836
  0
LINE
  8
0
 10
36.628
 20
-11.9836
 11
36.4188
 21
-11.9927
  0
LINE
  8
0
 10
36.4188
 20
-11.9927
 11
36.2094
 21
-11.9982
  0
LINE
  8
0
 10
36.2094
 20
-11.9982
 11
36
 21
-12
  0
LINE
  8
0
 10
36
 20
-12
 11
35.7906
 21
-11.9982
  0
LINE
  8
0
 10
-28.8255
 20
-9.99847
 11
-28.651
 21
-9.9939
  0
LINE
  8
0
 10
-28.651
 20
-9.9939
 11
-28.4767
 21
-9.98628
  0
LINE
  8
0
 10
-28.4767
 20
-9.98628
 11
-28.3024
 21
-9.97563
  0
LINE
  8
0
 10
-28.3024
 20
-9.97563
 11
-28.1284
 21
-9.96194
  0
LINE
  8
0
 10
-28.1284
 20
-9.96194
 11
-27.9547
 21
-9.94521
  0
LINE
  8
0
 10
-27.9547
 20
-9.94521
 11
-27.7813
 21
-9.92546
  0
LINE
  8
0
 10
-27.7813
 20
-9.92546
 11
-27.6083
 21
-9.90268
  0
LINE
  8
0
 10
-27.6083
 20
-9.90268
 11
-27.4357
 21
-9.87688
  0
LINE
  8
0
 10
-27.4357
 20
-9.87688
 11
-27.2635
 21
-9.84807
  0
LINE
  8
0
 10
-27.2635
 20
-9.84807
 11
-27.0919
 21
-9.81627
  0
LINE
  8
0
 10
-27.0919
 20
-9.81627
 11
-26.9209
 21
-9.78146
  0
LINE
  8
0
 10
-26.9209
 20
-9.78146
 11
-26.7505
 21
-9.7437
  0
LINE
  8
0
 10
-26.7505
 20
-9.7437
 11
-26.5808
 21
-9.70296
  0
LINE
  8
0
 10
-26.5808
 20
-9.70296
 11
-26.4118
 21
-9.65926
  0
LINE
  8
0
 10
-26.4118
 20
-9.65926
 11
-26.2436
 21
-9.61261
  0
LINE
  8
0
 10
-26.2436
 20
-9.61261
 11
-26.0763
 21
-9.56303
  0
LINE
  8
0
 10
-26.0763
 20
-9.56303
 11
-25.9098
 21
-9.51056
  0
LINE
  8
0
 10
-25.9098
 20
-9.51056
 11
-25.7443
 21
-9.45518
  0
LINE
  8
0
 10
-25.7443
 20
-9.45518
 11
-25.5798
 21
-9.39691
  0
LINE
  8
0
 10
-25.5798
 20
-9.39691
 11
-25.4163
 21
-9.3358
  0
LINE
  8
0
 10
-25.4163
 20
-9.3358
 11
-25.2539
 21
-9.27184
  0
LINE
  8
0
 10
-25.2539
 20
-9.27184
 11
-25.0927
 21
-9.20505
  0
LINE
  8
0
 10
-25.0927
 20
-9.20505
 11
-24.9326
 21
-9.13545
  0
LINE
  8
0
 10
-24.9326
 20
-9.13545
 11
-24.7738
 21
-9.06306
  0
LINE
  8
0
 10
-24.7738
 20
-9.06306
 11
-24.6163
 21
-8.98793
  0
LINE
  8
0
 10
-24.6163
 20
-8.98793
 11
-24.4601
 21
-8.91006
  0
LINE
  8
0
 10
-24.4601
 20
-8.91006
 11
-24.3053
 21
-8.82947
  0
LINE
  8
0
 10
-24.3053
 20
-8.82947
 11
-24.1519
 21
-8.74619
  0
LINE
  8
0
 10
-24.1519
 20
-8.74619
 11
-24
 21
-8.66025
  0
LINE
  8
0
 10
-24
 20
-8.66025
 11
-23.8496
 21
-8.57167
  0
LINE
  8
0
 10
-23.8496
 20
-8.57167
 11
-23.7008
 21
-8.48047
  0
LINE
  8
0
 10
-23.7008
 20
-8.48047
 11
-23.5536
 21
-8.3867
  0
LINE
  8
0
 10
-23.5536
 20
-8.3867
 11
-23.4081
 21
-8.29037
  0
LINE
  8
0
 10
-23.4081
 20
-8.29037
 11
-23.2642
 21
-8.19151
  0
LINE
  8
0
 10
-23.2642
 20
-8.19151
 11
-23.1222
 21
-8.09016
  0
LINE
  8
0
 10
-23.1222
 20
-8.09016
 11
-22.9819
 21
-7.98634
  0
LINE
  8
0
 10
-22.9819
 20
-7.98634
 11
-22.8434
 21
-7.8801
  0
LINE
  8
0
 10
-22.8434
 20
-7.8801
 11
-22.7068
 21
-7.77145
  0
LINE
  8
0
 10
-22.7068
 20
-7.77145
 11
-22.5721
 21
-7.66043
  0
LINE
  8
0
 10
-22.5721
 20
-7.66043
 11
-22.4394
 21
-7.54709
  0
LINE
  8
0
 10
-22.4394
 20
-7.54709
 11
-22.3087
 21
-7.43144
  0
LINE
  8
0
 10
-22.3087
 20
-7.43144
 11
-22.18
 21
-7.31352
  0
LINE
  8
0
 10
-22.18
 20
-7.31352
 11
-22.0534
 21
-7.19339
  0
LINE
  8
0
 10
-22.0534
 20
-7.19339
 11
-21.9289
 21
-7.07106
  0
LINE
  8
0
 10
-21.9289
 20
-7.07106
 11
-21.8066
 21
-6.94658
  0
LINE
  8
0
 10
-21.8066
 20
-6.94658
 11
-21.6865
 21
-6.81998
  0
LINE
  8
0
 10
-21.6865
 20
-6.81998
 11
-21.5686
 21
-6.6913
  0
LINE
  8
0
 10
-21.5686
 20
-6.6913
 11
-21.4529
 21
-6.56058
  0
LINE
  8
0
 10
-21.4529
 20
-6.56058
 11
-21.3396
 21
-6.42787
  0
LINE
  8
0
 10
-21.3396
 20
-6.42787
 11
-21.2285
 21
-6.2932
  0
LINE
  8
0
 10
-21.2285
 20
-6.2932
 11
-21.1199
 21
-6.1566
  0
LINE
  8
0
 10
-21.1199
 20
-6.1566
 11
-21.0137
 21
-6.01814
  0
LINE
  8
0
 10
-21.0137
 20
-6.01814
 11
-20.9098
 21
-5.87784
  0
LINE
  8
0
 10
-20.9098
 20
-5.87784
 11
-20.8085
 21
-5.73576
  0
LINE
  8
0
 10
-20.8085
 20
-5.73576
 11
-20.7096
 21
-5.59192
  0
LINE
  8
0
 10
-20.7096
 20
-5.59192
 11
-20.6133
 21
-5.44638
  0
LINE
  8
0
 10
-20.6133
 20
-5.44638
 11
-20.5195
 21
-5.29918
  0
LINE
  8
0
 10
-20.5195
 20
-5.29918
 11
-20.4283
 21
-5.15038
  0
LINE
  8
0
 10
-20.4283
 20
-5.15038
 11
-20.3398
 21
-5
  0
LINE
  8
0
 10
-20.3398
 20
-5
 11
-20.2538
 21
-4.84808
  0
LINE
  8
0
 10
-20.2538
 20
-4.84808
 11
-20.1705
 21
-4.6947
  0
LINE
  8
0
 10
-20.1705
 20
-4.6947
 11
-20.0899
 21
-4.5399
  0
LINE
  8
0
 10
-20.0899
 20
-4.5399
 11
-20.0121
 21
-4.3837
  0
LINE
  8
0
 10
-20.0121
 20
-4.3837
 11
-19.9369
 21
-4.22618
  0
LINE
  8
0
 10
-19.9369
 20
-4.22618
 11
-19.8645
 21
-4.06735
  0
LINE
  8
0
 10
-19.8645
 20
-4.06735
 11
-19.795
 21
-3.9073
  0
LINE
  8
0
 10
-19.795
 20
-3.9073
 11
-19.7282
 21
-3.74606
  0
LINE
  8
0
 10
-19.7282
 20
-3.74606
 11
-19.6642
 21
-3.58368
  0
LINE
  8
0
 10
-19.6642
 20
-3.58368
 11
-19.6031
 21
-3.4202
  0
LINE
  8
0
 10
-19.6031
 20
-3.4202
 11
-19.5448
 21
-3.25568
  0
LINE
  8
0
 10
-19.5448
 20
-3.25568
 11
-19.4894
 21
-3.09016
  0
LINE
  8
0
 10
-19.4894
 20
-3.09016
 11
-19.437
 21
-2.92371
  0
LINE
  8
0
 10
-19.437
 20
-2.92371
 11
-19.3874
 21
-2.75636
  0
LINE
  8
0
 10
-19.3874
 20
-2.75636
 11
-19.3407
 21
-2.58818
  0
LINE
  8
0
 10
-19.3407
 20
-2.58818
 11
-19.297
 21
-2.4192
  0
LINE
  8
0
 10
-19.297
 20
-2.4192
 11
-19.2563
 21
-2.2495
  0
LINE
  8
0
 10
-19.2563
 20
-2.2495
 11
-19.2185
 21
-2.07912
  0
LINE
  8
0
 10
-19.2185
 20
-2.07912
 11
-19.1837
 21
-1.90808
  0
LINE
  8
0
 10
-19.1837
 20
-1.90808
 11
-19.1519
 21
-1.73648
  0
LINE
  8
0
 10
-19.1519
 20
-1.73648
 11
-19.1231
 21
-1.56433
  0
LINE
  8
0
 10
-19.1231
 20
-1.56433
 11
-19.0973
 21
-1.39172
  0
LINE
  8
0
 10
-19.0973
 20
-1.39172
 11
-19.0745
 21
-1.21869
  0
LINE
  8
0
 10
-19.0745
 20
-1.21869
 11
-19.0548
 21
-1.04527
  0
LINE
  8
0
 10
-19.0548
 20
-1.04527
 11
-19.0381
 21
-0.871552
  0
LINE
  8
0
 10
-19.0381
 20
-0.871552
 11
-19.0244
 21
-0.697556
  0
LINE
  8
0
 10
-19.0244
 20
-0.697556
 11
-19.0137
 21
-0.523346
  0
LINE
  8
0
 10
-19.0137
 20
-0.523346
 11
-19.0061
 21
-0.348984
  0
LINE
  8
0
 10
-19.0061
 20
-0.348984
 11
-19.0015
 21
-0.174515
  0
LINE
  8
0
 10
-19.0015
 20
-0.174515
 11
-19
 21
0
  0
LINE
  8
0
 10
-19
 20
0
 11
-19.0015
 21
0.174515
  0
LINE
  8
0
 10
-19.0015
 20
0.174515
 11
-19.0061
 21
0.348984
  0
LINE
  8
0
 10
-19.0061
 20
0.348984
 11
-19.0137
 21
0.523346
  0
LINE
  8
0
 10
-19.0137
 20
0.523346
 11
-19.0244
 21
0.697556
  0
LINE
  8
0
 10
-19.0244
 20
0.697556
 11
-19.0381
 21
0.871552
  0
LINE
  8
0
 10
-19.0381
 20
0.871552
 11
-19.0548
 21
1.04527
  0
LINE
  8
0
 10
-19.0548
 20
1.04527
 11
-19.0745
 21
1.21869
  0
LINE
  8
0
 10
-19.0745
 20
1.21869
 11
-19.0973
 21
1.39172
  0
LINE
  8
0
 10
-19.0973
 20
1.39172
 11
-19.1231
 21
1.56433
  0
LINE
  8
0
 10
-19.1231
 20
1.56433
 11
-19.1519
 21
1.73648
  0
LINE
  8
0
 10
-19.1519
 20
1.73648
 11
-19.1837
 21
1.90808
  0
LINE
  8
0
 10
-19.1837
 20
1.90808
 11
-19.2185
 21
2.07912
  0
LINE
  8
0
 10
-19.2185
 20
2.07912
 11
-19.2563
 21
2.2495
  0
LINE
  8
0
 10
-19.2563
 20
2.2495
 11
-19.297
 21
2.4192
  0
LINE
  8
0
 10
-19.297
 20
2.4192
 11
-19.3407
 21
2.58818
  0
LINE
  8
0
 10
-19.3407
 20
2.58818
 11
-19.3874
 21
2.75636
  0
LINE
  8
0
 10
-19.3874
 20
2.75636
 11
-19.437
 21
2.92371
  0
LINE
  8
0
 10
-19.437
 20
2.92371
 11
-19.4894
 21
3.09016
  0
LINE
  8
0
 10
-19.4894
 20
3.09016
 11
-19.5448
 21
3.25568
  0
LINE
  8
0
 10
-19.5448
 20
3.25568
 11
-19.6031
 21
3.4202
  0
LINE
  8
0
 10
-19.6031
 20
3.4202
 11
-19.6642
 21
3.58368
  0
LINE
  8
0
 10
-19.6642
 20
3.58368
 11
-19.7282
 21
3.74606
  0
LINE
  8
0
 10
-19.7282
 20
3.74606
 11
-19.795
 21
3.9073
  0
LINE
  8
0
 10
-19.795
 20
3.9073
 11
-19.8645
 21
4.06735
  0
LINE
  8
0
 10
-19.8645
 20
4.06735
 11
-19.9369
 21
4.22618
  0
LINE
  8
0
 10
-19.9369
 20
4.22618
 11
-20.0121
 21
4.3837
  0
LINE
  8
0
 10
-20.0121
 20
4.3837
 11
-20.0899
 21
4.5399
  0
LINE
  8
0
 10
-20.0899
 20
4.5399
 11
-20.1705
 21
4.6947
  0
LINE
  8
0
 10
-20.1705
 20
4.6947
 11
-20.2538
 21
4.84808
  0
LINE
  8
0
 10
-20.2538
 20
4.84808
 11
-20.3398
 21
5
  0
LINE
  8
0
 10
-20.3398
 20
5
 11
-20.4283
 21
5.15038
  0
LINE
  8
0
 10
-20.4283
 20
5.15038
 11
-20.5195
 21
5.29918
  0
LINE
  8
0
 10
-20.5195
 20
5.29918
 11
-20.6133
 21
5.44638
  0
LINE
  8
0
 10
-20.6133
 20
5.44638
 11
-20.7096
 21
5.59192
  0
LINE
  8
0
 10
-20.7096
 20
5.59192
 11
-20.8085
 21
5.73576
  0
LINE
  8
0
 10
-20.8085
 20
5.73576
 11
-20.9098
 21
5.87784
  0
LINE
  8
0
 10
-20.9098
 20
5.87784
 11
-21.0137
 21
6.01814
  0
LINE
  8
0
 10
-21.0137
 20
6.01814
 11
-21.1199
 21
6.1566
  0
LINE
  8
0
 10
-21.1199
 20
6.1566
 11
-21.2285
 21
6.2932
  0
LINE
  8
0
 10
-21.2285
 20
6.2932
 11
-21.3396
 21
6.42787
  0
LINE
  8
0
 10
-21.3396
 20
6.42787
 11
-21.4529
 21
6.56058
  0
LINE
  8
0
 10
-21.4529
 20
6.56058
 11
-21.5686
 21
6.6913
  0
LINE
  8
0
 10
-21.5686
 20
6.6913
 11
-21.6865
 21
6.81998
  0
LINE
  8
0
 10
-21.6865
 20
6.81998
 11
-21.8066
 21
6.94658
  0
LINE
  8
0
 10
-21.8066
 20
6.94658
 11
-21.9289
 21
7.07106
  0
LINE
  8
0
 10
-21.9289
 20
7.07106
 11
-22.0534
 21
7.19339
  0
LINE
  8
0
 10
-22.0534
 20
7.19339
 11
-22.18
 21
7.31352
  0
LINE
  8
0
 10
-22.18
 20
7.31352
 11
-22.3087
 21
7.43144
  0
LINE
  8
0
 10
-22.3087
 20
7.43144
 11
-22.4394
 21
7.54709
  0
LINE
  8
0
 10
-22.4394
 20
7.54709
 11
-22.5721
 21
7.66043
  0
LINE
  8
0
 10
-22.5721
 20
7.66043
 11
-22.7068
 21
7.77145
  0
LINE
  8
0
 10
-22.7068
 20
7.77145
 11
-22.8434
 21
7.8801
  0
LINE
  8
0
 10
-22.8434
 20
7.8801
 11
-22.9819
 21
7.98634
  0
LINE
  8
0
 10
-22.9819
 20
7.98634
 11
-23.1222
 21
8.09016
  0
LINE
  8
0
 10
-23.1222
 20
8.09016
 11
-23.2642
 21
8.19151
  0
LINE
  8
0
 10
-23.2642
 20
8.19151
 11
-23.4081
 21
8.29037
  0
LINE
  8
0
 10
-23.4081
 20
8.29037
 11
-23.5536
 21
8.3867
  0
LINE
  8
0
 10
-23.5536
 20
8.3867
 11
-23.7008
 21
8.48047
  0
LINE
  8
0
 10
-23.7008
 20
8.48047
 11
-23.8496
 21
8.57167
  0
LINE
  8
0
 10
-23.8496
 20
8.57167
 11
-24
 21
8.66025
  0
LINE
  8
0
 10
-24
 20
8.66025
 11
-24.1519
 21
8.74619
  0
LINE
  8
0
 10
-24.1519
 20
8.74619
 11
-24.3053
 21
8.82947
  0
LINE
  8
0
 10
-24.3053
 20
8.82947
 11
-24.4601
 21
8.91006
  0
LINE
  8
0
 10
-24.4601
 20
8.91006
 11
-24.6163
 21
8.98793
  0
LINE
  8
0
 10
-24.6163
 20
8.98793
 11
-24.7738
 21
9.06306
  0
LINE
  8
0
 10
-24.7738
 20
9.06306
 11
-24.9326
 21
9.13545
  0
LINE
  8
0
 10
-24.9326
 20
9.13545
 11
-25.0927
 21
9.20505
  0
LINE
  8
0
 10
-25.0927
 20
9.20505
 11
-25.2539
 21
9.27184
  0
LINE
  8
0
 10
-25.2539
 20
9.27184
 11
-25.4163
 21
9.3358
  0
LINE
  8
0
 10
-25.4163
 20
9.3358
 11
-25.5798
 21
9.39691
  0
LINE
  8
0
 10
-25.5798
 20
9.39691
 11
-25.7443
 21
9.45518
  0
LINE
  8
0
 10
-25.7443
 20
9.45518
 11
-25.9098
 21
9.51056
  0
LINE
  8
0
 10
-25.9098
 20
9.51056
 11
-26.0763
 21
9.56303
  0
LINE
  8
0
 10
-26.0763
 20
9.56303
 11
-26.2436
 21
9.61261
  0
LINE
  8
0
 10
-26.2436
 20
9.61261
 11
-26.4118
 21
9.65926
  0
LINE
  8
0
 10
-26.4118
 20
9.65926
 11
-26.5808
 21
9.70296
  0
LINE
  8
0
 10
-26.5808
 20
9.70296
 11
-26.7505
 21
9.7437
  0
LINE
  8
0
 10
-26.7505
 20
9.7437
 11
-26.9209
 21
9.78146
  0
LINE
  8
0
 10
-26.9209
 20
9.78146
 11
-27.0919
 21
9.81627
  0
LINE
  8
0
 10
-27.0919
 20
9.81627
 11
-27.2635
 21
9.84807
  0
LINE
  8
0
 10
-27.2635
 20
9.84807
 11
-27.4357
 21
9.87688
  0
LINE
  8
0
 10
-27.4357
 20
9.87688
 11
-27.6083
 21
9.90268
  0
LINE
  8
0
 10
-27.6083
 20
9.90268
 11
-27.7813
 21
9.92546
  0
LINE
  8
0
 10
-27.7813
 20
9.92546
 11
-27.9547
 21
9.94521
  0
LINE
  8
0
 10
-27.9547
 20
9.94521
 11
-28.1284
 21
9.96194
  0
LINE
  8
0
 10
-28.1284
 20
9.96194
 11
-28.3024
 21
9.97563
  0
LINE
  8
0
 10
-28.3024
 20
9.97563
 11
-28.4767
 21
9.98628
  0
LINE
  8
0
 10
-28.4767
 20
9.98628
 11
-28.651
 21
9.9939
  0
LINE
  8
0
 10
-28.651
 20
9.9939
 11
-28.8255
 21
9.99847
  0
LINE
  8
0
 10
-28.8255
 20
9.99847
 11
-29
 21
10
  0
LINE
  8
0
 10
-29
 20
10
 11
-29.1745
 21
9.99847
  0
LINE
  8
0
 10
-29.1745
 20
9.99847
 11
-29.349
 21
9.9939
  0
LINE
  8
0
 10
-29.349
 20
9.9939
 11
-29.5233
 21
9.98628
  0
LINE
  8
0
 10
-29.5233
 20
9.98628
 11
-29.6976
 21
9.97563
  0
LINE
  8
0
 10
-29.6976
 20
9.97563
 11
-29.8716
 21
9.96194
  0
LINE
  8
0
 10
-29.8716
 20
9.96194
 11
-30.0453
 21
9.94521
  0
LINE
  8
0
 10
-30.0453
 20
9.94521
 11
-30.2187
 21
9.92546
  0
LINE
  8
0
 10
-30.2187
 20
9.92546
 11
-30.3917
 21
9.90268
  0
LINE
  8
0
 10
-30.3917
 20
9.90268
 11
-30.5643
 21
9.87688
  0
LINE
  8
0
 10
-30.5643
 20
9.87688
 11
-30.7365
 21
9.84807
  0
LINE
  8
0
 10
-30.7365
 20
9.84807
 11
-30.9081
 21
9.81627
  0
LINE
  8
0
 10
-30.9081
 20
9.81627
 11
-31.0791
 21
9.78146
  0
LINE
  8
0
 10
-31.0791
 20
9.78146
 11
-31.2495
 21
9.7437
  0
LINE
  8
0
 10
-31.2495
 20
9.7437
 11
-31.4192
 21
9.70296
  0
LINE
  8
0
 10
-31.4192
 20
9.70296
 11
-31.5882
 21
9.65926
  0
LINE
  8
0
 10
-31.5882
 20
9.65926
 11
-31.7564
 21
9.61261
  0
LINE
  8
0
 10
-31.7564
 20
9.61261
 11
-31.9237
 21
9.56303
  0
LINE
  8
0
 10
-31.9237
 20
9.56303
 11
-32.0902
 21
9.51056
  0
LINE
  8
0
 10
-32.0902
 20
9.51056
 11
-32.2557
 21
9.45518
  0
LINE
  8
0
 10
-32.2557
 20
9.45518
 11
-32.4202
 21
9.39691
  0
LINE
  8
0
 10
-32.4202
 20
9.39691
 11
-32.5837
 21
9.3358
  0
LINE
  8
0
 10
-32.5837
 20
9.3358
 11
-32.7461
 21
9.27184
  0
LINE
  8
0
 10
-32.7461
 20
9.27184
 11
-32.9073
 21
9.20505
  0
LINE
  8
0
 10
-32.9073
 20
9.20505
 11
-33.0674
 21
9.13545
  0
LINE
  8
0
 10
-33.0674
 20
9.13545
 11
-33.2262
 21
9.06306
  0
LINE
  8
0
 10
-33.2262
 20
9.06306
 11
-33.3837
 21
8.98793
  0
LINE
  8
0
 10
-33.3837
 20
8.98793
 11
-33.5399
 21
8.91006
  0
LINE
  8
0
 10
-33.5399
 20
8.91006
 11
-33.6947
 21
8.82947
  0
LINE
  8
0
 10
-33.6947
 20
8.82947
 11
-33.8481
 21
8.74619
  0
LINE
  8
0
 10
-33.8481
 20
8.74619
 11
-34
 21
8.66025
  0
LINE
  8
0
 10
-34
 20
8.66025
 11
-34.1504
 21
8.57167
  0
LINE
  8
0
 10
-34.1504
 20
8.57167
 11
-34.2992
 21
8.48047
  0
LINE
  8
0
 10
-34.2992
 20
8.48047
 11
-34.4464
 21
8.3867
  0
LINE
  8
0
 10
-34.4464
 20
8.3867
 11
-34.5919
 21
8.29037
  0
LINE
  8
0
 10
-34.5919
 20
8.29037
 11
-34.7358
 21
8.19151
  0
LINE
  8
0
 10
-34.7358
 20
8.19151
 11
-34.8778
 21
8.09016
  0
LINE
  8
0
 10
-34.8778
 20
8.09016
 11
-35.0181
 21
7.98634
  0
LINE
  8
0
 10
-35.0181
 20
7.98634
 11
-35.1566
 21
7.8801
  0
LINE
  8
0
 10
-35.1566
 20
7.8801
 11
-35.2932
 21
7.77145
  0
LINE
  8
0
 10
-35.2932
 20
7.77145
 11
-35.4279
 21
7.66043
  0
LINE
  8
0
 10
-35.4279
 20
7.66043
 11
-35.5606
 21
7.54709
  0
LINE
  8
0
 10
-35.5606
 20
7.54709
 11
-35.6913
 21
7.43144
  0
LINE
  8
0
 10
-35.6913
 20
7.43144
 11
-35.82
 21
7.31352
  0
LINE
  8
0
 10
-35.82
 20
7.31352
 11
-35.9466
 21
7.19339
  0
LINE
  8
0
 10
-35.9466
 20
7.19339
 11
-36.0711
 21
7.07106
  0
LINE
  8
0
 10
-36.0711
 20
7.07106
 11
-36.1934
 21
6.94658
  0
LINE
  8
0
 10
-36.1934
 20
6.94658
 11
-36.3135
 21
6.81998
  0
LINE
  8
0
 10
-36.3135
 20
6.81998
 11
-36.4314
 21
6.6913
  0
LINE
  8
0
 10
-36.4314
 20
6.6913
 11
-36.5471
 21
6.56058
  0
LINE
  8
0
 10
-36.5471
 20
6.56058
 11
-36.6604
 21
6.42787
  0
LINE
  8
0
 10
-36.6604
 20
6.42787
 11
-36.7715
 21
6.2932
  0
LINE
  8
0
 10
-36.7715
 20
6.2932
 11
-36.8801
 21
6.1566
  0
LINE
  8
0
 10
-36.8801
 20
6.1566
 11
-36.9863
 21
6.01814
  0
LINE
  8
0
 10
-36.9863
 20
6.01814
 11
-37.0902
 21
5.87784
  0
LINE
  8
0
 10
-37.0902
 20
5.87784
 11
-37.1915
 21
5.73576
  0
LINE
  8
0
 10
-37.1915
 20
5.73576
 11
-37.2904
 21
5.59192
  0
LINE
  8
0
 10
-37.2904
 20
5.59192
 11
-37.3867
 21
5.44638
  0
LINE
  8
0
 10
-37.3867
 20
5.44638
 11
-37.4805
 21
5.29918
  0
LINE
  8
0
 10
-37.4805
 20
5.29918
 11
-37.5717
 21
5.15038
  0
LINE
  8
0
 10
-37.5717
 20
5.15038
 11
-37.6602
 21
5
  0
LINE
  8
0
 10
-37.6602
 20
5
 11
-37.7462
 21
4.84808
  0
LINE
  8
0
 10
-37.7462
 20
4.84808
 11
-37.8295
 21
4.6947
  0
LINE
  8
0
 10
-37.8295
 20
4.6947
 11
-37.9101
 21
4.5399
  0
LINE
  8
0
 10
-37.9101
 20
4.5399
 11
-37.9879
 21
4.3837
  0
LINE
  8
0
 10
-37.9879
 20
4.3837
 11
-38.0631
 21
4.22618
  0
LINE
  8
0
 10
-38.0631
 20
4.22618
 11
-38.1355
 21
4.06735
  0
LINE
  8
0
 10
-38.1355
 20
4.06735
 11
-38.205
 21
3.9073
  0
LINE
  8
0
 10
-38.205
 20
3.9073
 11
-38.2718
 21
3.74606
  0
LINE
  8
0
 10
-38.2718
 20
3.74606
 11
-38.3358
 21
3.58368
  0
LINE
  8
0
 10
-38.3358
 20
3.58368
 11
-38.3969
 21
3.4202
  0
LINE
  8
0
 10
-38.3969
 20
3.4202
 11
-38.4552
 21
3.25568
  0
LINE
  8
0
 10
-38.4552
 20
3.25568
 11
-38.5106
 21
3.09016
  0
LINE
  8
0
 10
-38.5106
 20
3.09016
 11
-38.563
 21
2.92371
  0
LINE
  8
0
 10
-38.563
 20
2.92371
 11
-38.6126
 21
2.75636
  0
LINE
  8
0
 10
-38.6126
 20
2.75636
 11
-38.6593
 21
2.58818
  0
LINE
  8
0
 10
-38.6593
 20
2.58818
 11
-38.703
 21
2.4192
  0
LINE
  8
0
 10
-38.703
 20
2.4192
 11
-38.7437
 21
2.2495
  0
LINE
  8
0
 10
-38.7437
 20
2.2495
 11
-38.7815
 21
2.07912
  0
LINE
  8
0
 10
-38.7815
 20
2.07912
 11
-38.8163
 21
1.90808
  0
LINE
  8
0
 10
-38.8163
 20
1.90808
 11
-38.8481
 21
1.73648
  0
LINE
  8
0
 10
-38.8481
 20
1.73648
 11
-38.8769
 21
1.56433
  0
LINE
  8
0
 10
-38.8769
 20
1.56433
 11
-38.9027
 21
1.39172
  0
LINE
  8
0
 10
-38.9027
 20
1.39172
 11
-38.9255
 21
1.21869
  0
LINE
  8
0
 10
-38.9255
 20
1.21869
 11
-38.9452
 21
1.04527
  0
LINE
  8
0
 10
-38.9452
 20
1.04527
 11
-38.9619
 21
0.871552
  0
LINE
  8
0
 10
-38.9619
 20
0.871552
 11
-38.9756
 21
0.697556
  0
LINE
  8
0
 10
-38.9756
 20
0.697556
 11
-38.9863
 21
0.523346
  0
LINE
  8
0
 10
-38.9863
 20
0.523346
 11
-38.9939
 21
0.348984
  0
LINE
  8
0
 10
-38.9939
 20
0.348984
 11
-38.9985
 21
0.174515
  0
LINE
  8
0
 10
-38.9985
 20
0.174515
 11
-39
 21
0
  0
LINE
  8
0
 10
-39
 20
0
 11
-38.9985
 21
-0.174515
  0
LINE
  8
0
 10
-38.9985
 20
-0.174515
 11
-38.9939
 21
-0.348984
  0
LINE
  8
0
 10
-38.9939
 20
-0.348984
 11
-38.9863
 21
-0.523346
  0
LINE
  8
0
 10
-38.9863
 20
-0.523346
 11
-38.9756
 21
-0.697556
  0
LINE
  8
0
 10
-38.9756
 20
-0.697556
 11
-38.9619
 21
-0.871552
  0
LINE
  8
0
 10
-38.9619
 20
-0.871552
 11
-38.9452
 21
-1.04527
  0
LINE
  8
0
 10
-38.9452
 20
-1.04527
 11
-38.9255
 21
-1.21869
  0
LINE
  8
0
 10
-38.9255
 20
-1.21869
 11
-38.9027
 21
-1.39172
  0
LINE
  8
0
 10
-38.9027
 20
-1.39172
 11
-38.8769
 21
-1.56433
  0
LINE
  8
0
 10
-38.8769
 20
-1.56433
 11
-38.8481
 21
-1.73648
  0
LINE
  8
0
 10
-38.8481
 20
-1.73648
 11
-38.8163
 21
-1.90808
  0
LINE
  8
0
 10
-38.8163
 20
-1.90808
 11
-38.7815
 21
-2.07912
  0
LINE
  8
0
 10
-38.7815
 20
-2.07912
 11
-38.7437
 21
-2.2495
  0
LINE
  8
0
 10
-38.7437
 20
-2.2495
 11
-38.703
 21
-2.4192
  0
LINE
  8
0
 10
-38.703
 20
-2.4192
 11
-38.6593
 21
-2.58818
  0
LINE
  8
0
 10
-38.6593
 20
-2.58818
 11
-38.6126
 21
-2.75636
  0
LINE
  8
0
 10
-38.6126
 20
-2.75636
 11
-38.563
 21
-2.92371
  0
LINE
  8
0
 10
-38.563
 20
-2.92371
 11
-38.5106
 21
-3.09016
  0
LINE
  8
0
 10
-38.5106
 20
-3.09016
 11
-38.4552
 21
-3.25568
  0
LINE
  8
0
 10
-38.4552
 20
-3.25568
 11
-38.3969
 21
-3.4202
  0
LINE
  8
0
 10
-38.3969
 20
-3.4202
 11
-38.3358
 21
-3.58368
  0
LINE
  8
0
 10
-38.3358
 20
-3.58368
 11
-38.2718
 21
-3.74606
  0
LINE
  8
0
 10
-38.2718
 20
-3.74606
 11
-38.205
 21
-3.9073
  0
LINE
  8
0
 10
-38.205
 20
-3.9073
 11
-38.1355
 21
-4.06735
  0
LINE
  8
0
 10
-38.1355
 20
-4.06735
 11
-38.0631
 21
-4.22618
  0
LINE
  8
0
 10
-38.0631
 20
-4.22618
 11
-37.9879
 21
-4.3837
  0
LINE
  8
0
 10
-37.9879
 20
-4.3837
 11
-37.9101
 21
-4.5399
  0
LINE
  8
0
 10
-37.9101
 20
-4.5399
 11
-37.8295
 21
-4.6947
  0
LINE
  8
0
 10
-37.8295
 20
-4.6947
 11
-37.7462
 21
-4.84808
  0
LINE
  8
0
 10
-37.7462
 20
-4.84808
 11
-37.6602
 21
-5
  0
LINE
  8
0
 10
-37.6602
 20
-5
 11
-37.5717
 21
-5.15038
  0
LINE
  8
0
 10
-37.5717
 20
-5.15038
 11
-37.4805
 21
-5.29918
  0
LINE
  8
0
 10
-37.4805
 20
-5.29918
 11
-37.3867
 21
-5.44638
  0
LINE
  8
0
 10
-37.3867
 20
-5.44638
 11
-37.2904
 21
-5.59192
  0
LINE
  8
0
 10
-37.2904
 20
-5.59192
 11
-37.1915
 21
-5.73576
  0
LINE
  8
0
 10
-37.1915
 20
-5.73576
 11
-37.0902
 21
-5.87784
  0
LINE
  8
0
 10
-37.0902
 20
-5.87784
 11
-36.9863
 21
-6.01814
  0
LINE
  8
0
 10
-36.9863
 20
-6.01814
 11
-36.8801
 21
-6.1566
  0
LINE
  8
0
 10
-36.8801
 20
-6.1566
 11
-36.7715
 21
-6.2932
  0
LINE
  8
0
 10
-36.7715
 20
-6.2932
 11
-36.6604
 21
-6.42787
  0
LINE
  8
0
 10
-36.6604
 20
-6.42787
 11
-36.5471
 21
-6.56058
  0
LINE
  8
0
 10
-36.5471
 20
-6.56058
 11
-36.4314
 21
-6.6913
  0
LINE
  8
0
 10
-36.4314
 20
-6.6913
 11
-36.3135
 21
-6.81998
  0
LINE
  8
0
 10
-36.3135
 20
-6.81998
 11
-36.1934
 21
-6.94658
  0
LINE
  8
0
 10
-36.1934
 20
-6.94658
 11
-36.0711
 21
-7.07106
  0
LINE
  8
0
 10
-36.0711
 20
-7.07106
 11
-35.9466
 21
-7.19339
  0
LINE
  8
0
 10
-35.9466
 20
-7.19339
 11
-35.82
 21
-7.31352
  0
LINE
  8
0
 10
-35.82
 20
-7.31352
 11
-35.6913
 21
-7.43144
  0
LINE
  8
0
 10
-35.6913
 20
-7.43144
 11
-35.5606
 21
-7.54709
  0
LINE
  8
0
 10
-35.5606
 20
-7.54709
 11
-35.4279
 21
-7.66043
  0
LINE
  8
0
 10
-35.4279
 20
-7.66043
 11
-35.2932
 21
-7.77145
  0
LINE
  8
0
 10
-35.2932
 20
-7.77145
 11
-35.1566
 21
-7.8801
  0
LINE
  8
0
 10
-35.1566
 20
-7.8801
 11
-35.0181
 21
-7.98634
  0
LINE
  8
0
 10
-35.0181
 20
-7.98634
 11
-34.8778
 21
-8.09016
  0
LINE
  8
0
 10
-34.8778
 20
-8.09016
 11
-34.7358
 21
-8.19151
  0
LINE
  8
0
 10
-34.7358
 20
-8.19151
 11
-34.5919
 21
-8.29037
  0
LINE
  8
0
 10
-34.5919
 20
-8.29037
 11
-34.4464
 21
-8.3867
  0
LINE
  8
0
 10
-34.4464
 20
-8.3867
 11
-34.2992
 21
-8.48047
  0
LINE
  8
0
 10
-34.2992
 20
-8.48047
 11
-34.1504
 21
-8.57167
  0
LINE
  8
0
 10
-34.1504
 20
-8.57167
 11
-34
 21
-8.66025
  0
LINE
  8
0
 10
-34
 20
-8.66025
 11
-33.8481
 21
-8.74619
  0
LINE
  8
0
 10
-33.8481
 20
-8.74619
 11
-33.6947
 21
-8.82947
  0
LINE
  8
0
 10
-33.6947
 20
-8.82947
 11
-33.5399
 21
-8.91006
  0
LINE
  8
0
 10
-33.5399
 20
-8.91006
 11
-33.3837
 21
-8.98793
  0
LINE
  8
0
 10
-33.3837
 20
-8.98793
 11
-33.2262
 21
-9.06306
  0
LINE
  8
0
 10
-33.2262
 20
-9.06306
 11
-33.0674
 21
-9.13545
  0
LINE
  8
0
 10
-33.0674
 20
-9.13545
 11
-32.9073
 21
-9.20505
  0
LINE
  8
0
 10
-32.9073
 20
-9.20505
 11
-32.7461
 21
-9.27184
  0
LINE
  8
0
 10
-32.7461
 20
-9.27184
 11
-32.5837
 21
-9.3358
  0
LINE
  8
0
 10
-32.5837
 20
-9.3358
 11
-32.4202
 21
-9.39691
  0
LINE
  8
0
 10
-32.4202
 20
-9.39691
 11
-32.2557
 21
-9.45518
  0
LINE
  8
0
 10
-32.2557
 20
-9.45518
 11
-32.0902
 21
-9.51056
  0
LINE
  8
0
 10
-32.0902
 20
-9.51056
 11
-31.9237
 21
-9.56303
  0
LINE
  8
0
 10
-31.9237
 20
-9.56303
 11
-31.7564
 21
-9.61261
  0
LINE
  8
0
 10
-31.7564
 20
-9.61261
 11
-31.5882
 21
-9.65926
  0
LINE
  8
0
 10
-31.5882
 20
-9.65926
 11
-31.4192
 21
-9.70296
  0
LINE
  8
0
 10
-31.4192
 20
-9.70296
 11
-31.2495
 21
-9.7437
  0
LINE
  8
0
 10
-31.2495
 20
-9.7437
 11
-31.0791
 21
-9.78146
  0
LINE
  8
0
 10
-31.0791
 20
-9.78146
 11
-30.9081
 21
-9.81627
  0
LINE
  8
0
 10
-30.9081
 20
-9.81627
 11
-30.7365
 21
-9.84807
  0
LINE
  8
0
 10
-30.7365
 20
-9.84807
 11
-30.5643
 21
-9.87688
  0
LINE
  8
0
 10
-30.5643
 20
-9.87688
 11
-30.3917
 21
-9.90268
  0
LINE
  8
0
 10
-30.3917
 20
-9.90268
 11
-30.2187
 21
-9.92546
  0
LINE
  8
0
 10
-30.2187
 20
-9.92546
 11
-30.0453
 21
-9.94521
  0
LINE
  8
0
 10
-30.0453
 20
-9.94521
 11
-29.8716
 21
-9.96194
  0
LINE
  8
0
 10
-29.8716
 20
-9.96194
 11
-29.6976
 21
-9.97563
  0
LINE
  8
0
 10
-29.6976
 20
-9.97563
 11
-29.5233
 21
-9.98628
  0
LINE
  8
0
 10
-29.5233
 20
-9.98628
 11
-29.349
 21
-9.9939
  0
LINE
  8
0
 10
-29.349
 20
-9.9939
 11
-29.1745
 21
-9.99847
  0
LINE
  8
0
 10
-29.1745
 20
-9.99847
 11
-29
 21
-10
  0
LINE
  8
0
 10
-29
 20
-10
 11
-28.8255
 21
-9.99847
  0
LINE
  8
0
 10
-29.1047
 20
-5.99908
 11
-29.2094
 21
-5.99634
  0
LINE
  8
0
 10
-29.2094
 20
-5.99634
 11
-29.314
 21
-5.99178
  0
LINE
  8
0
 10
-29.314
 20
-5.99178
 11
-29.4185
 21
-5.98538
  0
LINE
  8
0
 10
-29.4185
 20
-5.98538
 11
-29.5229
 21
-5.97716
  0
LINE
  8
0
 10
-29.5229
 20
-5.97716
 11
-29.6272
 21
-5.96712
  0
LINE
  8
0
 10
-29.6272
 20
-5.96712
 11
-29.7312
 21
-5.95528
  0
LINE
  8
0
 10
-29.7312
 20
-5.95528
 11
-29.835
 21
-5.9416
  0
LINE
  8
0
 10
-29.835
 20
-5.9416
 11
-29.9386
 21
-5.92612
  0
LINE
  8
0
 10
-29.9386
 20
-5.92612
 11
-30.0419
 21
-5.90884
  0
LINE
  8
0
 10
-30.0419
 20
-5.90884
 11
-30.1449
 21
-5.88976
  0
LINE
  8
0
 10
-30.1449
 20
-5.88976
 11
-30.2475
 21
-5.86888
  0
LINE
  8
0
 10
-30.2475
 20
-5.86888
 11
-30.3497
 21
-5.84621
  0
LINE
  8
0
 10
-30.3497
 20
-5.84621
 11
-30.4515
 21
-5.82176
  0
LINE
  8
0
 10
-30.4515
 20
-5.82176
 11
-30.5529
 21
-5.79555
  0
LINE
  8
0
 10
-30.5529
 20
-5.79555
 11
-30.6538
 21
-5.76756
  0
LINE
  8
0
 10
-30.6538
 20
-5.76756
 11
-30.7542
 21
-5.73782
  0
LINE
  8
0
 10
-30.7542
 20
-5.73782
 11
-30.8541
 21
-5.70633
  0
LINE
  8
0
 10
-30.8541
 20
-5.70633
 11
-30.9534
 21
-5.67311
  0
LINE
  8
0
 10
-30.9534
 20
-5.67311
 11
-31.0521
 21
-5.63815
  0
LINE
  8
0
 10
-31.0521
 20
-5.63815
 11
-31.1502
 21
-5.60147
  0
LINE
  8
0
 10
-31.1502
 20
-5.60147
 11
-31.2476
 21
-5.5631
  0
LINE
  8
0
 10
-31.2476
 20
-5.5631
 11
-31.3444
 21
-5.52303
  0
LINE
  8
0
 10
-31.3444
 20
-5.52303
 11
-31.4404
 21
-5.48126
  0
LINE
  8
0
 10
-31.4404
 20
-5.48126
 11
-31.5357
 21
-5.43784
  0
LINE
  8
0
 10
-31.5357
 20
-5.43784
 11
-31.6302
 21
-5.39276
  0
LINE
  8
0
 10
-31.6302
 20
-5.39276
 11
-31.7239
 21
-5.34604
  0
LINE
  8
0
 10
-31.7239
 20
-5.34604
 11
-31.8168
 21
-5.29768
  0
LINE
  8
0
 10
-31.8168
 20
-5.29768
 11
-31.9088
 21
-5.24771
  0
LINE
  8
0
 10
-31.9088
 20
-5.24771
 11
-32
 21
-5.19615
  0
LINE
  8
0
 10
-32
 20
-5.19615
 11
-32.0902
 21
-5.14299
  0
LINE
  8
0
 10
-32.0902
 20
-5.14299
 11
-32.1795
 21
-5.08829
  0
LINE
  8
0
 10
-32.1795
 20
-5.08829
 11
-32.2678
 21
-5.03201
  0
LINE
  8
0
 10
-32.2678
 20
-5.03201
 11
-32.3551
 21
-4.97421
  0
LINE
  8
0
 10
-32.3551
 20
-4.97421
 11
-32.4415
 21
-4.9149
  0
LINE
  8
0
 10
-32.4415
 20
-4.9149
 11
-32.5267
 21
-4.8541
  0
LINE
  8
0
 10
-32.5267
 20
-4.8541
 11
-32.6109
 21
-4.79181
  0
LINE
  8
0
 10
-32.6109
 20
-4.79181
 11
-32.694
 21
-4.72806
  0
LINE
  8
0
 10
-32.694
 20
-4.72806
 11
-32.7759
 21
-4.66287
  0
LINE
  8
0
 10
-32.7759
 20
-4.66287
 11
-32.8567
 21
-4.59625
  0
LINE
  8
0
 10
-32.8567
 20
-4.59625
 11
-32.9363
 21
-4.52824
  0
LINE
  8
0
 10
-32.9363
 20
-4.52824
 11
-33.0148
 21
-4.45886
  0
LINE
  8
0
 10
-33.0148
 20
-4.45886
 11
-33.092
 21
-4.38811
  0
LINE
  8
0
 10
-33.092
 20
-4.38811
 11
-33.1679
 21
-4.31602
  0
LINE
  8
0
 10
-33.1679
 20
-4.31602
 11
-33.2426
 21
-4.24263
  0
LINE
  8
0
 10
-33.2426
 20
-4.24263
 11
-33.316
 21
-4.16794
  0
LINE
  8
0
 10
-33.316
 20
-4.16794
 11
-33.3881
 21
-4.09198
  0
LINE
  8
0
 10
-33.3881
 20
-4.09198
 11
-33.4589
 21
-4.01477
  0
LINE
  8
0
 10
-33.4589
 20
-4.01477
 11
-33.5282
 21
-3.93634
  0
LINE
  8
0
 10
-33.5282
 20
-3.93634
 11
-33.5963
 21
-3.85672
  0
LINE
  8
0
 10
-33.5963
 20
-3.85672
 11
-33.6629
 21
-3.77591
  0
LINE
  8
0
 10
-33.6629
 20
-3.77591
 11
-33.7281
 21
-3.69395
  0
LINE
  8
0
 10
-33.7281
 20
-3.69395
 11
-33.7918
 21
-3.61089
  0
LINE
  8
0
 10
-33.7918
 20
-3.61089
 11
-33.8541
 21
-3.5267
  0
LINE
  8
0
 10
-33.8541
 20
-3.5267
 11
-33.9149
 21
-3.44145
  0
LINE
  8
0
 10
-33.9149
 20
-3.44145
 11
-33.9742
 21
-3.35515
  0
LINE
  8
0
 10
-33.9742
 20
-3.35515
 11
-34.032
 21
-3.26782
  0
LINE
  8
0
 10
-34.032
 20
-3.26782
 11
-34.0883
 21
-3.1795
  0
LINE
  8
0
 10
-34.0883
 20
-3.1795
 11
-34.143
 21
-3.09023
  0
LINE
  8
0
 10
-34.143
 20
-3.09023
 11
-34.1962
 21
-3
  0
LINE
  8
0
 10
-34.1962
 20
-3
 11
-34.2477
 21
-2.90884
  0
LINE
  8
0
 10
-34.2477
 20
-2.90884
 11
-34.2977
 21
-2.81682
  0
LINE
  8
0
 10
-34.2977
 20
-2.81682
 11
-34.346
 21
-2.72394
  0
LINE
  8
0
 10
-34.346
 20
-2.72394
 11
-34.3928
 21
-2.63022
  0
LINE
  8
0
 10
-34.3928
 20
-2.63022
 11
-34.4378
 21
-2.53571
  0
LINE
  8
0
 10
-34.4378
 20
-2.53571
 11
-34.4813
 21
-2.44041
  0
LINE
  8
0
 10
-34.4813
 20
-2.44041
 11
-34.523
 21
-2.34438
  0
LINE
  8
0
 10
-34.523
 20
-2.34438
 11
-34.5631
 21
-2.24763
  0
LINE
  8
0
 10
-34.5631
 20
-2.24763
 11
-34.6015
 21
-2.15021
  0
LINE
  8
0
 10
-34.6015
 20
-2.15021
 11
-34.6382
 21
-2.05211
  0
LINE
  8
0
 10
-34.6382
 20
-2.05211
 11
-34.6731
 21
-1.9534
  0
LINE
  8
0
 10
-34.6731
 20
-1.9534
 11
-34.7063
 21
-1.8541
  0
LINE
  8
0
 10
-34.7063
 20
-1.8541
 11
-34.7378
 21
-1.75423
  0
LINE
  8
0
 10
-34.7378
 20
-1.75423
 11
-34.7676
 21
-1.65382
  0
LINE
  8
0
 10
-34.7676
 20
-1.65382
 11
-34.7955
 21
-1.5529
  0
LINE
  8
0
 10
-34.7955
 20
-1.5529
 11
-34.8218
 21
-1.45152
  0
LINE
  8
0
 10
-34.8218
 20
-1.45152
 11
-34.8462
 21
-1.3497
  0
LINE
  8
0
 10
-34.8462
 20
-1.3497
 11
-34.8689
 21
-1.24747
  0
LINE
  8
0
 10
-34.8689
 20
-1.24747
 11
-34.8898
 21
-1.14485
  0
LINE
  8
0
 10
-34.8898
 20
-1.14485
 11
-34.9088
 21
-1.04189
  0
LINE
  8
0
 10
-34.9088
 20
-1.04189
 11
-34.9261
 21
-0.938599
  0
LINE
  8
0
 10
-34.9261
 20
-0.938599
 11
-34.9416
 21
-0.835037
  0
LINE
  8
0
 10
-34.9416
 20
-0.835037
 11
-34.9553
 21
-0.731201
  0
LINE
  8
0
 10
-34.9553
 20
-0.731201
 11
-34.9671
 21
-0.627167
  0
LINE
  8
0
 10
-34.9671
 20
-0.627167
 11
-34.9772
 21
-0.522934
  0
LINE
  8
0
 10
-34.9772
 20
-0.522934
 11
-34.9854
 21
-0.418533
  0
LINE
  8
0
 10
-34.9854
 20
-0.418533
 11
-34.9918
 21
-0.314011
  0
LINE
  8
0
 10
-34.9918
 20
-0.314011
 11
-34.9963
 21
-0.209396
  0
LINE
  8
0
 10
-34.9963
 20
-0.209396
 11
-34.9991
 21
-0.104706
  0
LINE
  8
0
 10
-34.9991
 20
-0.104706
 11
-35
 21
0
  0
LINE
  8
0
 10
-35
 20
0
 11
-34.9991
 21
0.104706
  0
LINE
  8
0
 10
-34.9991
 20
0.104706
 11
-34.9963
 21
0.209396
  0
LINE
  8
0
 10
-34.9963
 20
0.209396
 11
-34.9918
 21
0.314011
  0
LINE
  8
0
 10
-34.9918
 20
0.314011
 11
-34.9854
 21
0.418533
  0
LINE
  8
0
 10
-34.9854
 20
0.418533
 11
-34.9772
 21
0.522934
  0
LINE
  8
0
 10
-34.9772
 20
0.522934
 11
-34.9671
 21
0.627167
  0
LINE
  8
0
 10
-34.9671
 20
0.627167
 11
-34.9553
 21
0.731201
  0
LINE
  8
0
 10
-34.9553
 20
0.731201
 11
-34.9416
 21
0.835037
  0
LINE
  8
0
 10
-34.9416
 20
0.835037
 11
-34.9261
 21
0.938599
  0
LINE
  8
0
 10
-34.9261
 20
0.938599
 11
-34.9088
 21
1.04189
  0
LINE
  8
0
 10
-34.9088
 20
1.04189
 11
-34.8898
 21
1.14485
  0
LINE
  8
0
 10
-34.8898
 20
1.14485
 11
-34.8689
 21
1.24747
  0
LINE
  8
0
 10
-34.8689
 20
1.24747
 11
-34.8462
 21
1.3497
  0
LINE
  8
0
 10
-34.8462
 20
1.3497
 11
-34.8218
 21
1.45152
  0
LINE
  8
0
 10
-34.8218
 20
1.45152
 11
-34.7955
 21
1.5529
  0
LINE
  8
0
 10
-34.7955
 20
1.5529
 11
-34.7676
 21
1.65382
  0
LINE
  8
0
 10
-34.7676
 20
1.65382
 11
-34.7378
 21
1.75423
  0
LINE
  8
0
 10
-34.7378
 20
1.75423
 11
-34.7063
 21
1.8541
  0
LINE
  8
0
 10
-34.7063
 20
1.8541
 11
-34.6731
 21
1.9534
  0
LINE
  8
0
 10
-34.6731
 20
1.9534
 11
-34.6382
 21
2.05211
  0
LINE
  8
0
 10
-34.6382
 20
2.05211
 11
-34.6015
 21
2.15021
  0
LINE
  8
0
 10
-34.6015
 20
2.15021
 11
-34.5631
 21
2.24763
  0
LINE
  8
0
 10
-34.5631
 20
2.24763
 11
-34.523
 21
2.34438
  0
LINE
  8
0
 10
-34.523
 20
2.34438
 11
-34.4813
 21
2.44041
  0
LINE
  8
0
 10
-34.4813
 20
2.44041
 11
-34.4378
 21
2.53571
  0
LINE
  8
0
 10
-34.4378
 20
2.53571
 11
-34.3928
 21
2.63022
  0
LINE
  8
0
 10
-34.3928
 20
2.63022
 11
-34.346
 21
2.72394
  0
LINE
  8
0
 10
-34.346
 20
2.72394
 11
-34.2977
 21
2.81682
  0
LINE
  8
0
 10
-34.2977
 20
2.81682
 11
-34.2477
 21
2.90884
  0
LINE
  8
0
 10
-34.2477
 20
2.90884
 11
-34.1962
 21
3
  0
LINE
  8
0
 10
-34.1962
 20
3
 11
-34.143
 21
3.09023
  0
LINE
  8
0
 10
-34.143
 20
3.09023
 11
-34.0883
 21
3.1795
  0
LINE
  8
0
 10
-34.0883
 20
3.1795
 11
-34.032
 21
3.26782
  0
LINE
  8
0
 10
-34.032
 20
3.26782
 11
-33.9742
 21
3.35515
  0
LINE
  8
0
 10
-33.9742
 20
3.35515
 11
-33.9149
 21
3.44145
  0
LINE
  8
0
 10
-33.9149
 20
3.44145
 11
-33.8541
 21
3.5267
  0
LINE
  8
0
 10
-33.8541
 20
3.5267
 11
-33.7918
 21
3.61089
  0
LINE
  8
0
 10
-33.7918
 20
3.61089
 11
-33.7281
 21
3.69395
  0
LINE
  8
0
 10
-33.7281
 20
3.69395
 11
-33.6629
 21
3.77591
  0
LINE
  8
0
 10
-33.6629
 20
3.77591
 11
-33.5963
 21
3.85672
  0
LINE
  8
0
 10
-33.5963
 20
3.85672
 11
-33.5282
 21
3.93634
  0
LINE
  8
0
 10
-33.5282
 20
3.93634
 11
-33.4589
 21
4.01477
  0
LINE
  8
0
 10
-33.4589
 20
4.01477
 11
-33.3881
 21
4.09198
  0
LINE
  8
0
 10
-33.3881
 20
4.09198
 11
-33.316
 21
4.16794
  0
LINE
  8
0
 10
-33.316
 20
4.16794
 11
-33.2426
 21
4.24263
  0
LINE
  8
0
 10
-33.2426
 20
4.24263
 11
-33.1679
 21
4.31602
  0
LINE
  8
0
 10
-33.1679
 20
4.31602
 11
-33.092
 21
4.38811
  0
LINE
  8
0
 10
-33.092
 20
4.38811
 11
-33.0148
 21
4.45886
  0
LINE
  8
0
 10
-33.0148
 20
4.45886
 11
-32.9363
 21
4.52824
  0
LINE
  8
0
 10
-32.9363
 20
4.52824
 11
-32.8567
 21
4.59625
  0
LINE
  8
0
 10
-32.8567
 20
4.59625
 11
-32.7759
 21
4.66287
  0
LINE
  8
0
 10
-32.7759
 20
4.66287
 11
-32.694
 21
4.72806
  0
LINE
  8
0
 10
-32.694
 20
4.72806
 11
-32.6109
 21
4.79181
  0
LINE
  8
0
 10
-32.6109
 20
4.79181
 11
-32.5267
 21
4.8541
  0
LINE
  8
0
 10
-32.5267
 20
4.8541
 11
-32.4415
 21
4.9149
  0
LINE
  8
0
 10
-32.4415
 20
4.9149
 11
-32.3551
 21
4.97421
  0
LINE
  8
0
 10
-32.3551
 20
4.97421
 11
-32.2678
 21
5.03201
  0
LINE
  8
0
 10
-32.2678
 20
5.03201
 11
-32.1795
 21
5.08829
  0
LINE
  8
0
 10
-32.1795
 20
5.08829
 11
-32.0902
 21
5.14299
  0
LINE
  8
0
 10
-32.0902
 20
5.14299
 11
-32
 21
5.19615
  0
LINE
  8
0
 10
-32
 20
5.19615
 11
-31.9088
 21
5.24771
  0
LINE
  8
0
 10
-31.9088
 20
5.24771
 11
-31.8168
 21
5.29768
  0
LINE
  8
0
 10
-31.8168
 20
5.29768
 11
-31.7239
 21
5.34604
  0
LINE
  8
0
 10
-31.7239
 20
5.34604
 11
-31.6302
 21
5.39276
  0
LINE
  8
0
 10
-31.6302
 20
5.39276
 11
-31.5357
 21
5.43784
  0
LINE
  8
0
 10
-31.5357
 20
5.43784
 11
-31.4404
 21
5.48126
  0
LINE
  8
0
 10
-31.4404
 20
5.48126
 11
-31.3444
 21
5.52303
  0
LINE
  8
0
 10
-31.3444
 20
5.52303
 11
-31.2476
 21
5.5631
  0
LINE
  8
0
 10
-31.2476
 20
5.5631
 11
-31.1502
 21
5.60147
  0
LINE
  8
0
 10
-31.1502
 20
5.60147
 11
-31.0521
 21
5.63815
  0
LINE
  8
0
 10
-31.0521
 20
5.63815
 11
-30.9534
 21
5.67311
  0
LINE
  8
0
 10
-30.9534
 20
5.67311
 11
-30.8541
 21
5.70633
  0
LINE
  8
0
 10
-30.8541
 20
5.70633
 11
-30.7542
 21
5.73782
  0
LINE
  8
0
 10
-30.7542
 20
5.73782
 11
-30.6538
 21
5.76756
  0
LINE
  8
0
 10
-30.6538
 20
5.76756
 11
-30.5529
 21
5.79555
  0
LINE
  8
0
 10
-30.5529
 20
5.79555
 11
-30.4515
 21
5.82176
  0
LINE
  8
0
 10
-30.4515
 20
5.82176
 11
-30.3497
 21
5.84621
  0
LINE
  8
0
 10
-30.3497
 20
5.84621
 11
-30.2475
 21
5.86888
  0
LINE
  8
0
 10
-30.2475
 20
5.86888
 11
-30.1449
 21
5.88976
  0
LINE
  8
0
 10
-30.1449
 20
5.88976
 11
-30.0419
 21
5.90884
  0
LINE
  8
0
 10
-30.0419
 20
5.90884
 11
-29.9386
 21
5.92612
  0
LINE
  8
0
 10
-29.9386
 20
5.92612
 11
-29.835
 21
5.9416
  0
LINE
  8
0
 10
-29.835
 20
5.9416
 11
-29.7312
 21
5.95528
  0
LINE
  8
0
 10
-29.7312
 20
5.95528
 11
-29.6272
 21
5.96712
  0
LINE
  8
0
 10
-29.6272
 20
5.96712
 11
-29.5229
 21
5.97716
  0
LINE
  8
0
 10
-29.5229
 20
5.97716
 11
-29.4185
 21
5.98538
  0
LINE
  8
0
 10
-29.4185
 20
5.98538
 11
-29.314
 21
5.99178
  0
LINE
  8
0
 10
-29.314
 20
5.99178
 11
-29.2094
 21
5.99634
  0
LINE
  8
0
 10
-29.2094
 20
5.99634
 11
-29.1047
 21
5.99908
  0
LINE
  8
0
 10
-29.1047
 20
5.99908
 11
-29
 21
6
  0
LINE
  8
0
 10
-29
 20
6
 11
-28.8953
 21
5.99908
  0
LINE
  8
0
 10
-28.8953
 20
5.99908
 11
-28.7906
 21
5.99634
  0
LINE
  8
0
 10
-28.7906
 20
5.99634
 11
-28.686
 21
5.99178
  0
LINE
  8
0
 10
-28.686
 20
5.99178
 11
-28.5815
 21
5.98538
  0
LINE
  8
0
 10
-28.5815
 20
5.98538
 11
-28.4771
 21
5.97716
  0
LINE
  8
0
 10
-28.4771
 20
5.97716
 11
-28.3728
 21
5.96712
  0
LINE
  8
0
 10
-28.3728
 20
5.96712
 11
-28.2688
 21
5.95528
  0
LINE
  8
0
 10
-28.2688
 20
5.95528
 11
-28.165
 21
5.9416
  0
LINE
  8
0
 10
-28.165
 20
5.9416
 11
-28.0614
 21
5.92612
  0
LINE
  8
0
 10
-28.0614
 20
5.92612
 11
-27.9581
 21
5.90884
  0
LINE
  8
0
 10
-27.9581
 20
5.90884
 11
-27.8551
 21
5.88976
  0
LINE
  8
0
 10
-27.8551
 20
5.88976
 11
-27.7525
 21
5.86888
  0
LINE
  8
0
 10
-27.7525
 20
5.86888
 11
-27.6503
 21
5.84621
  0
LINE
  8
0
 10
-27.6503
 20
5.84621
 11
-27.5485
 21
5.82176
  0
LINE
  8
0
 10
-27.5485
 20
5.82176
 11
-27.4471
 21
5.79555
  0
LINE
  8
0
 10
-27.4471
 20
5.79555
 11
-27.3462
 21
5.76756
  0
LINE
  8
0
 10
-27.3462
 20
5.76756
 11
-27.2458
 21
5.73782
  0
LINE
  8
0
 10
-27.2458
 20
5.73782
 11
-27.1459
 21
5.70633
  0
LINE
  8
0
 10
-27.1459
 20
5.70633
 11
-27.0466
 21
5.67311
  0
LINE
  8
0
 10
-27.0466
 20
5.67311
 11
-26.9479
 21
5.63815
  0
LINE
  8
0
 10
-26.9479
 20
5.63815
 11
-26.8498
 21
5.60147
  0
LINE
  8
0
 10
-26.8498
 20
5.60147
 11
-26.7524
 21
5.5631
  0
LINE
  8
0
 10
-26.7524
 20
5.5631
 11
-26.6556
 21
5.52303
  0
LINE
  8
0
 10
-26.6556
 20
5.52303
 11
-26.5596
 21
5.48126
  0
LINE
  8
0
 10
-26.5596
 20
5.48126
 11
-26.4643
 21
5.43784
  0
LINE
  8
0
 10
-26.4643
 20
5.43784
 11
-26.3698
 21
5.39276
  0
LINE
  8
0
 10
-26.3698
 20
5.39276
 11
-26.2761
 21
5.34604
  0
LINE
  8
0
 10
-26.2761
 20
5.34604
 11
-26.1832
 21
5.29768
  0
LINE
  8
0
 10
-26.1832
 20
5.29768
 11
-26.0912
 21
5.24771
  0
LINE
  8
0
 10
-26.0912
 20
5.24771
 11
-26
 21
5.19615
  0
LINE
  8
0
 10
-26
 20
5.19615
 11
-25.9098
 21
5.14299
  0
LINE
  8
0
 10
-25.9098
 20
5.14299
 11
-25.8205
 21
5.08829
  0
LINE
  8
0
 10
-25.8205
 20
5.08829
 11
-25.7322
 21
5.03201
  0
LINE
  8
0
 10
-25.7322
 20
5.03201
 11
-25.6449
 21
4.97421
  0
LINE
  8
0
 10
-25.6449
 20
4.97421
 11
-25.5585
 21
4.9149
  0
LINE
  8
0
 10
-25.5585
 20
4.9149
 11
-25.4733
 21
4.8541
  0
LINE
  8
0
 10
-25.4733
 20
4.8541
 11
-25.3891
 21
4.79181
  0
LINE
  8
0
 10
-25.3891
 20
4.79181
 11
-25.306
 21
4.72806
  0
LINE
  8
0
 10
-25.306
 20
4.72806
 11
-25.2241
 21
4.66287
  0
LINE
  8
0
 10
-25.2241
 20
4.66287
 11
-25.1433
 21
4.59625
  0
LINE
  8
0
 10
-25.1433
 20
4.59625
 11
-25.0637
 21
4.52824
  0
LINE
  8
0
 10
-25.0637
 20
4.52824
 11
-24.9852
 21
4.45886
  0
LINE
  8
0
 10
-24.9852
 20
4.45886
 11
-24.908
 21
4.38811
  0
LINE
  8
0
 10
-24.908
 20
4.38811
 11
-24.8321
 21
4.31602
  0
LINE
  8
0
 10
-24.8321
 20
4.31602
 11
-24.7574
 21
4.24263
  0
LINE
  8
0
 10
-24.7574
 20
4.24263
 11
-24.684
 21
4.16794
  0
LINE
  8
0
 10
-24.684
 20
4.16794
 11
-24.6119
 21
4.09198
  0
LINE
  8
0
 10
-24.6119
 20
4.09198
 11
-24.5411
 21
4.01477
  0
LINE
  8
0
 10
-24.5411
 20
4.01477
 11
-24.4718
 21
3.93634
  0
LINE
  8
0
 10
-24.4718
 20
3.93634
 11
-24.4037
 21
3.85672
  0
LINE
  8
0
 10
-24.4037
 20
3.85672
 11
-24.3371
 21
3.77591
  0
LINE
  8
0
 10
-24.3371
 20
3.77591
 11
-24.2719
 21
3.69395
  0
LINE
  8
0
 10
-24.2719
 20
3.69395
 11
-24.2082
 21
3.61089
  0
LINE
  8
0
 10
-24.2082
 20
3.61089
 11
-24.1459
 21
3.5267
  0
LINE
  8
0
 10
-24.1459
 20
3.5267
 11
-24.0851
 21
3.44145
  0
LINE
  8
0
 10
-24.0851
 20
3.44145
 11
-24.0258
 21
3.35515
  0
LINE
  8
0
 10
-24.0258
 20
3.35515
 11
-23.968
 21
3.26782
  0
LINE
  8
0
 10
-23.968
 20
3.26782
 11
-23.9117
 21
3.1795
  0
LINE
  8
0
 10
-23.9117
 20
3.1795
 11
-23.857
 21
3.09023
  0
LINE
  8
0
 10
-23.857
 20
3.09023
 11
-23.8038
 21
3
  0
LINE
  8
0
 10
-23.8038
 20
3
 11
-23.7523
 21
2.90884
  0
LINE
  8
0
 10
-23.7523
 20
2.90884
 11
-23.7023
 21
2.81682
  0
LINE
  8
0
 10
-23.7023
 20
2.81682
 11
-23.654
 21
2.72394
  0
LINE
  8
0
 10
-23.654
 20
2.72394
 11
-23.6072
 21
2.63022
  0
LINE
  8
0
 10
-23.6072
 20
2.63022
 11
-23.5622
 21
2.53571
  0
LINE
  8
0
 10
-23.5622
 20
2.53571
 11
-23.5187
 21
2.44041
  0
LINE
  8
0
 10
-23.5187
 20
2.44041
 11
-23.477
 21
2.34438
  0
LINE
  8
0
 10
-23.477
 20
2.34438
 11
-23.4369
 21
2.24763
  0
LINE
  8
0
 10
-23.4369
 20
2.24763
 11
-23.3985
 21
2.15021
  0
LINE
  8
0
 10
-23.3985
 20
2.15021
 11
-23.3618
 21
2.05211
  0
LINE
  8
0
 10
-23.3618
 20
2.05211
 11
-23.3269
 21
1.9534
  0
LINE
  8
0
 10
-23.3269
 20
1.9534
 11
-23.2937
 21
1.8541
  0
LINE
  8
0
 10
-23.2937
 20
1.8541
 11
-23.2622
 21
1.75423
  0
LINE
  8
0
 10
-23.2622
 20
1.75423
 11
-23.2324
 21
1.65382
  0
LINE
  8
0
 10
-23.2324
 20
1.65382
 11
-23.2045
 21
1.5529
  0
LINE
  8
0
 10
-23.2045
 20
1.5529
 11
-23.1782
 21
1.45152
  0
LINE
  8
0
 10
-23.1782
 20
1.45152
 11
-23.1538
 21
1.3497
  0
LINE
  8
0
 10
-23.1538
 20
1.3497
 11
-23.1311
 21
1.24747
  0
LINE
  8
0
 10
-23.1311
 20
1.24747
 11
-23.1102
 21
1.14485
  0
LINE
  8
0
 10
-23.1102
 20
1.14485
 11
-23.0912
 21
1.04189
  0
LINE
  8
0
 10
-23.0912
 20
1.04189
 11
-23.0739
 21
0.938599
  0
LINE
  8
0
 10
-23.0739
 20
0.938599
 11
-23.0584
 21
0.835037
  0
LINE
  8
0
 10
-23.0584
 20
0.835037
 11
-23.0447
 21
0.731201
  0
LINE
  8
0
 10
-23.0447
 20
0.731201
 11
-23.0329
 21
0.627167
  0
LINE
  8
0
 10
-23.0329
 20
0.627167
 11
-23.0228
 21
0.522934
  0
LINE
  8
0
 10
-23.0228
 20
0.522934
 11
-23.0146
 21
0.418533
  0
LINE
  8
0
 10
-23.0146
 20
0.418533
 11
-23.0082
 21
0.314011
  0
LINE
  8
0
 10
-23.0082
 20
0.314011
 11
-23.0037
 21
0.209396
  0
LINE
  8
0
 10
-23.0037
 20
0.209396
 11
-23.0009
 21
0.104706
  0
LINE
  8
0
 10
-23.0009
 20
0.104706
 11
-23
 21
0
  0
LINE
  8
0
 10
-23
 20
0
 11
-23.0009
 21
-0.104706
  0
LINE
  8
0
 10
-23.0009
 20
-0.104706
 11
-23.0037
 21
-0.209396
  0
LINE
  8
0
 10
-23.0037
 20
-0.209396
 11
-23.0082
 21
-0.314011
  0
LINE
  8
0
 10
-23.0082
 20
-0.314011
 11
-23.0146
 21
-0.418533
  0
LINE
  8
0
 10
-23.0146
 20
-0.418533
 11
-23.0228
 21
-0.522934
  0
LINE
  8
0
 10
-23.0228
 20
-0.522934
 11
-23.0329
 21
-0.627167
  0
LINE
  8
0
 10
-23.0329
 20
-0.627167
 11
-23.0447
 21
-0.731201
  0
LINE
  8
0
 10
-23.0447
 20
-0.731201
 11
-23.0584
 21
-0.835037
  0
LINE
  8
0
 10
-23.0584
 20
-0.835037
 11
-23.0739
 21
-0.938599
  0
LINE
  8
0
 10
-23.0739
 20
-0.938599
 11
-23.0912
 21
-1.04189
  0
LINE
  8
0
 10
-23.0912
 20
-1.04189
 11
-23.1102
 21
-1.14485
  0
LINE
  8
0
 10
-23.1102
 20
-1.14485
 11
-23.1311
 21
-1.24747
  0
LINE
  8
0
 10
-23.1311
 20
-1.24747
 11
-23.1538
 21
-1.3497
  0
LINE
  8
0
 10
-23.1538
 20
-1.3497
 11
-23.1782
 21
-1.45152
  0
LINE
  8
0
 10
-23.1782
 20
-1.45152
 11
-23.2045
 21
-1.5529
  0
LINE
  8
0
 10
-23.2045
 20
-1.5529
 11
-23.2324
 21
-1.65382
  0
LINE
  8
0
 10
-23.2324
 20
-1.65382
 11
-23.2622
 21
-1.75423
  0
LINE
  8
0
 10
-23.2622
 20
-1.75423
 11
-23.2937
 21
-1.8541
  0
LINE
  8
0
 10
-23.2937
 20
-1.8541
 11
-23.3269
 21
-1.9534
  0
LINE
  8
0
 10
-23.3269
 20
-1.9534
 11
-23.3618
 21
-2.05211
  0
LINE
  8
0
 10
-23.3618
 20
-2.05211
 11
-23.3985
 21
-2.15021
  0
LINE
  8
0
 10
-23.3985
 20
-2.15021
 11
-23.4369
 21
-2.24763
  0
LINE
  8
0
 10
-23.4369
 20
-2.24763
 11
-23.477
 21
-2.34438
  0
LINE
  8
0
 10
-23.477
 20
-2.34438
 11
-23.5187
 21
-2.44041
  0
LINE
  8
0
 10
-23.5187
 20
-2.44041
 11
-23.5622
 21
-2.53571
  0
LINE
  8
0
 10
-23.5622
 20
-2.53571
 11
-23.6072
 21
-2.63022
  0
LINE
  8
0
 10
-23.6072
 20
-2.63022
 11
-23.654
 21
-2.72394
  0
LINE
  8
0
 10
-23.654
 20
-2.72394
 11
-23.7023
 21
-2.81682
  0
LINE
  8
0
 10
-23.7023
 20
-2.81682
 11
-23.7523
 21
-2.90884
  0
LINE
  8
0
 10
-23.7523
 20
-2.90884
 11
-23.8038
 21
-3
  0
LINE
  8
0
 10
-23.8038
 20
-3
 11
-23.857
 21
-3.09023
  0
LINE
  8
0
 10
-23.857
 20
-3.09023
 11
-23.9117
 21
-3.1795
  0
LINE
  8
0
 10
-23.9117
 20
-3.1795
 11
-23.968
 21
-3.26782
  0
LINE
  8
0
 10
-23.968
 20
-3.26782
 11
-24.0258
 21
-3.35515
  0
LINE
  8
0
 10
-24.0258
 20
-3.35515
 11
-24.0851
 21
-3.44145
  0
LINE
  8
0
 10
-24.0851
 20
-3.44145
 11
-24.1459
 21
-3.5267
  0
LINE
  8
0
 10
-24.1459
 20
-3.5267
 11
-24.2082
 21
-3.61089
  0
LINE
  8
0
 10
-24.2082
 20
-3.61089
 11
-24.2719
 21
-3.69395
  0
LINE
  8
0
 10
-24.2719
 20
-3.69395
 11
-24.3371
 21
-3.77591
  0
LINE
  8
0
 10
-24.3371
 20
-3.77591
 11
-24.4037
 21
-3.85672
  0
LINE
  8
0
 10
-24.4037
 20
-3.85672
 11
-24.4718
 21
-3.93634
  0
LINE
  8
0
 10
-24.4718
 20
-3.93634
 11
-24.5411
 21
-4.01477
  0
LINE
  8
0
 10
-24.5411
 20
-4.01477
 11
-24.6119
 21
-4.09198
  0
LINE
  8
0
 10
-24.6119
 20
-4.09198
 11
-24.684
 21
-4.16794
  0
LINE
  8
0
 10
-24.684
 20
-4.16794
 11
-24.7574
 21
-4.24263
  0
LINE
  8
0
 10
-24.7574
 20
-4.24263
 11
-24.8321
 21
-4.31602
  0
LINE
  8
0
 10
-24.8321
 20
-4.31602
 11
-24.908
 21
-4.38811
  0
LINE
  8
0
 10
-24.908
 20
-4.38811
 11
-24.9852
 21
-4.45886
  0
LINE
  8
0
 10
-24.9852
 20
-4.45886
 11
-25.0637
 21
-4.52824
  0
LINE
  8
0
 10
-25.0637
 20
-4.52824
 11
-25.1433
 21
-4.59625
  0
LINE
  8
0
 10
-25.1433
 20
-4.59625
 11
-25.2241
 21
-4.66287
  0
LINE
  8
0
 10
-25.2241
 20
-4.66287
 11
-25.306
 21
-4.72806
  0
LINE
  8
0
 10
-25.306
 20
-4.72806
 11
-25.3891
 21
-4.79181
  0
LINE
  8
0
 10
-25.3891
 20
-4.79181
 11
-25.4733
 21
-4.8541
  0
LINE
  8
0
 10
-25.4733
 20
-4.8541
 11
-25.5585
 21
-4.9149
  0
LINE
  8
0
 10
-25.5585
 20
-4.9149
 11
-25.6449
 21
-4.97421
  0
LINE
  8
0
 10
-25.6449
 20
-4.97421
 11
-25.7322
 21
-5.03201
  0
LINE
  8
0
 10
-25.7322
 20
-5.03201
 11
-25.8205
 21
-5.08829
  0
LINE
  8
0
 10
-25.8205
 20
-5.08829
 11
-25.9098
 21
-5.14299
  0
LINE
  8
0
 10
-25.9098
 20
-5.14299
 11
-26
 21
-5.19615
  0
LINE
  8
0
 10
-26
 20
-5.19615
 11
-26.0912
 21
-5.24771
  0
LINE
  8
0
 10
-26.0912
 20
-5.24771
 11
-26.1832
 21
-5.29768
  0
LINE
  8
0
 10
-26.1832
 20
-5.29768
 11
-26.2761
 21
-5.34604
  0
LINE
  8
0
 10
-26.2761
 20
-5.34604
 11
-26.3698
 21
-5.39276
  0
LINE
  8
0
 10
-26.3698
 20
-5.39276
 11
-26.4643
 21
-5.43784
  0
LINE
  8
0
 10
-26.4643
 20
-5.43784
 11
-26.5596
 21
-5.48126
  0
LINE
  8
0
 10
-26.5596
 20
-5.48126
 11
-26.6556
 21
-5.52303
  0
LINE
  8
0
 10
-26.6556
 20
-5.52303
 11
-26.7524
 21
-5.5631
  0
LINE
  8
0
 10
-26.7524
 20
-5.5631
 11
-26.8498
 21
-5.60147
  0
LINE
  8
0
 10
-26.8498
 20
-5.60147
 11
-26.9479
 21
-5.63815
  0
LINE
  8
0
 10
-26.9479
 20
-5.63815
 11
-27.0466
 21
-5.67311
  0
LINE
  8
0
 10
-27.0466
 20
-5.67311
 11
-27.1459
 21
-5.70633
  0
LINE
  8
0
 10
-27.1459
 20
-5.70633
 11
-27.2458
 21
-5.73782
  0
LINE
  8
0
 10
-27.2458
 20
-5.73782
 11
-27.3462
 21
-5.76756
  0
LINE
  8
0
 10
-27.3462
 20
-5.76756
 11
-27.4471
 21
-5.79555
  0
LINE
  8
0
 10
-27.4471
 20
-5.79555
 11
-27.5485
 21
-5.82176
  0
LINE
  8
0
 10
-27.5485
 20
-5.82176
 11
-27.6503
 21
-5.84621
  0
LINE
  8
0
 10
-27.6503
 20
-5.84621
 11
-27.7525
 21
-5.86888
  0
LINE
  8
0
 10
-27.7525
 20
-5.86888
 11
-27.8551
 21
-5.88976
  0
LINE
  8
0
 10
-27.8551
 20
-5.88976
 11
-27.9581
 21
-5.90884
  0
LINE
  8
0
 10
-27.9581
 20
-5.90884
 11
-28.0614
 21
-5.92612
  0
LINE
  8
0
 10
-28.0614
 20
-5.92612
 11
-28.165
 21
-5.9416
  0
LINE
  8
0
 10
-28.165
 20
-5.9416
 11
-28.2688
 21
-5.95528
  0
LINE
  8
0
 10
-28.2688
 20
-5.95528
 11
-28.3728
 21
-5.96712
  0
LINE
  8
0
 10
-28.3728
 20
-5.96712
 11
-28.4771
 21
-5.97716
  0
LINE
  8
0
 10
-28.4771
 20
-5.97716
 11
-28.5815
 21
-5.98538
  0
LINE
  8
0
 10
-28.5815
 20
-5.98538
 11
-28.686
 21
-5.99178
  0
LINE
  8
0
 10
-28.686
 20
-5.99178
 11
-28.7906
 21
-5.99634
  0
LINE
  8
0
 10
-28.7906
 20
-5.99634
 11
-28.8953
 21
-5.99908
  0
LINE
  8
0
 10
-28.8953
 20
-5.99908
 11
-29
 21
-6
  0
LINE
  8
0
 10
-29
 20
-6
 11
-29.1047
 21
-5.99908
  0
ENDSEC
  0
SECTION
  2
OBJECTS
  0
DICTIONARY
  0
ENDSEC
  0
EOF
