<?xml version="1.0" standalone="no"?>
<!DOCTYPE svg PUBLIC "-//W3C//DTD SVG 1.1//EN" "http://www.w3.org/Graphics/SVG/1.1/DTD/svg11.dtd">
<svg width="92mm" height="34mm" viewBox="-39 -17 92 34" xmlns="http://www.w3.org/2000/svg" version="1.1">
<title>OpenSCAD Model</title>
<path d="
M 0.296677,16.9974 L 0.593277,16.9896 L 0.889709,16.9767 L 1.18585,16.9586 L 1.48164,16.9353 L 1.77698,16.9069
 L 2.07178,16.8733 L 2.36594,16.8345 L 2.65938,16.7907 L 2.95201,16.7417 L 3.24374,16.6877 L 3.53448,16.6285
 L 3.82416,16.5643 L 4.11267,16.495 L 4.39992,16.4207 L 4.68582,16.3414 L 4.97031,16.2572 L 5.25328,16.168
 L 5.53465,16.0738 L 5.81433,15.9748 L 6.09225,15.8709 L 6.3683,15.7621 L 6.64243,15.6486 L 6.91452,15.5303
 L 7.18451,15.4072 L 7.4523,15.2795 L 7.71783,15.1471 L 7.981,15.0101 L 8.24176,14.8685 L 8.5,14.7224
 L 8.75565,14.5718 L 9.00862,14.4168 L 9.25885,14.2574 L 9.50627,14.0936 L 9.75079,13.9256 L 9.99234,13.7533
 L 10.2309,13.5768 L 10.4662,13.3962 L 10.6984,13.2115 L 10.9274,13.0228 L 11.153,12.83 L 11.3752,12.6335
 L 11.594,12.433 L 11.8092,12.2288 L 12.0208,12.0208 L 12.2288,11.8092 L 12.433,11.594 L 12.6335,11.3752
 L 12.83,11.153 L 13.0228,10.9274 L 13.2115,10.6984 L 13.3962,10.4662 L 13.5768,10.2309 L 13.7533,9.99234
 L 13.9256,9.75079 L 14.0936,9.50627 L 14.2574,9.25885 L 14.4168,9.00862 L 14.5718,8.75565 L 14.7224,8.5
 L 14.8685,8.24176 L 15.0101,7.981 L 15.1471,7.71783 L 15.2795,7.4523 L 15.4072,7.18451 L 15.5303,6.91452
 L 15.6486,6.64243 L 15.7621,6.3683 L 15.8709,6.09225 L 15.9748,5.81433 L 16.0738,5.53465 L 16.168,5.25328
 L 16.2572,4.97031 L 16.3414,4.68582 L 16.4207,4.39992 L 16.495,4.11267 L 16.5643,3.82416 L 16.6285,3.53448
 L 16.6877,3.24374 L 16.7417,2.95201 L 16.7907,2.65938 L 16.8345,2.36594 L 16.8733,2.07178 L 16.9069,1.77698
 L 16.9353,1.48164 L 16.9586,1.18585 L 16.9767,0.889709 L 16.9896,0.593277 L 16.9974,0.296677 L 17,-0
 L 16.9974,-0.296677 L 16.9896,-0.593277 L 16.9767,-0.889709 L 16.9586,-1.18585 L 16.9353,-1.48164 L 16.9069,-1.77698
 L 16.8733,-2.07178 L 16.8345,-2.36594 L 16.7907,-2.65938 L 16.7417,-2.95201 L 16.6877,-3.24374 L 16.6285,-3.53448
 L 16.5643,-3.82416 L 16.495,-4.11267 L 16.4207,-4.39992 L 16.3414,-4.68582 L 16.2572,-4.97031 L 16.168,-5.25328
 L 16.0738,-5.53465 L 15.9748,-5.81433 L 15.8709,-6.09225 L 15.7621,-6.3683 L 15.6486,-6.64243 L 15.5303,-6.91452
 L 15.4072,-7.18451 L 15.2795,-7.4523 L 15.1471,-7.71783 L 15.0101,-7.981 L 14.8685,-8.24176 L 14.7224,-8.5
 L 14.5718,-8.75565 L 14.4168,-9.00862 L 14.2574,-9.25885 L 14.0936,-9.50627 L 13.9256,-9.75079 L 13.7533,-9.99234
 L 13.5768,-10.2309 L 13.3962,-10.4662 L 13.2115,-10.6984 L 13.0228,-10.9274 L 12.83,-11.153 L 12.6335,-11.3752
 L 12.433,-11.594 L 12.2288,-11.8092 L 12.0208,-12.0208 L 11.8092,-12.2288 L 11.594,-12.433 L 11.3752,-12.6335
 L 11.153,-12.83 L 10.9274,-13.0228 L 10.6984,-13.2115 L 10.4662,-13.3962 L 10.2309,-13.5768 L 9.99234,-13.7533
 L 9.75079,-13.9256 L 9.50627,-14.0936 L 9.25885,-14.2574 L 9.00862,-14.4168 L 8.75565,-14.5718 L 8.5,-14.7224
 L 8.24176,-14.8685 L 7.981,-15.0101 L 7.71783,-15.1471 L 7.4523,-15.2795 L 7.18451,-15.4072 L 6.91452,-15.5303
 L 6.64243,-15.6486 L 6.3683,-15.7621 L 6.09225,-15.8709 L 5.81433,-15.9748 L 5.53465,-16.0738 L 5.25328,-16.168
 L 4.97031,-16.2572 L 4.68582,-16.3414 L 4.39992,-16.4207 L 4.11267,-16.495 L 3.82416,-16.5643 L 3.53448,-16.6285
 L 3.24374,-16.6877 L 2.95201,-16.7417 L 2.65938,-16.7907 L 2.36594,-16.8345 L 2.07178,-16.8733 L 1.77698,-16.9069
 L 1.48164,-16.9353 L 1.18585,-16.9586 L 0.889709,-16.9767 L 0.593277,-16.9896 L 0.296677,-16.9974 L 0,-17
 L -0.296677,-16.9974 L -0.593277,-16.9896 L -0.889709,-16.9767 L -1.18585,-16.9586 L -1.48164,-16.9353 L -1.77698,-16.9069
 L -2.07178,-16.8733 L -2.36594,-16.8345 L -2.65938,-16.7907 L -2.95201,-16.7417 L -3.24374,-16.6877 L -3.53448,-16.6285
 L -3.82416,-16.5643 L -4.11267,-16.495 L -4.39992,-16.4207 L -4.68582,-16.3414 L -4.97031,-16.2572 L -5.25328,-16.168
 L -5.53465,-16.0738 L -5.81433,-15.9748 L -6.09225,-15.8709 L -6.3683,-15.7621 L -6.64243,-15.6486 L -6.91452,-15.5303
 L -7.18451,-15.4072 L -7.4523,-15.2795 L -7.71783,-15.1471 L -7.981,-15.0101 L -8.24176,-14.8685 L -8.5,-14.7224
 L -8.75565,-14.5718 L -9.00862,-14.4168 L -9.25885,-14.2574 L -9.50627,-14.0936 L -9.75079,-13.9256 L -9.99234,-13.7533
 L -10.2309,-13.5768 L -10.4662,-13.3962 L -10.6984,-13.2115 L -10.9274,-13.0228 L -11.153,-12.83 L -11.3752,-12.6335
 L -11.594,-12.433 L -11.8092,-12.2288 L -12.0208,-12.0208 L -12.2288,-11.8092 L -12.433,-11.594 L -12.6335,-11.3752
 L -12.83,-11.153 L -13.0228,-10.9274 L -13.2115,-10.6984 L -13.3962,-10.4662 L -13.5768,-10.2309 L -13.7533,-9.99234
 L -13.9256,-9.75079 L -14.0936,-9.50627 L -14.2574,-9.25885 L -14.4168,-9.00862 L -14.5718,-8.75565 L -14.7224,-8.5
 L -14.8685,-8.24176 L -15.0101,-7.981 L -15.1471,-7.71783 L -15.2795,-7.4523 L -15.4072,-7.18451 L -15.5303,-6.91452
 L -15.6486,-6.64243 L -15.7621,-6.3683 L -15.8709,-6.09225 L -15.9748,-5.81433 L -16.0738,-5.53465 L -16.168,-5.25328
 L -16.2572,-4.97031 L -16.3414,-4.68582 L -16.4207,-4.39992 L -16.495,-4.11267 L -16.5643,-3.82416 L -16.6285,-3.53448
 L -16.6877,-3.24374 L -16.7417,-2.95201 L -16.7907,-2.65938 L -16.8345,-2.36594 L -16.8733,-2.07178 L -16.9069,-1.77698
 L -16.9353,-1.48164 L -16.9586,-1.18585 L -16.9767,-0.889709 L -16.9896,-0.593277 L -16.9974,-0.296677 L -17,-0
 L -16.9974,0.296677 L -16.9896,0.593277 L -16.9767,0.889709 L -16.9586,1.18585 L -16.9353,1.48164 L -16.9069,1.77698
 L -16.8733,2.07178 L -16.8345,2.36594 L -16.7907,2.65938 L -16.7417,2.95201 L -16.6877,3.24374 L -16.6285,3.53448
 L -16.5643,3.82416 L -16.495,4.11267 L -16.4207,4.39992 L -16.3414,4.68582 L -16.2572,4.97031 L -16.168,5.25328
 L -16.0738,5.53465 L -15.9748,5.81433 L -15.8709,6.09225 L -15.7621,6.3683 L -15.6486,6.64243 L -15.5303,6.91452
 L -15.4072,7.18451 L -15.2795,7.4523 L -15.1471,7.71783 L -15.0101,7.981 L -14.8685,8.24176 L -14.7224,8.5
 L -14.5718,8.75565 L -14.4168,9.00862 L -14.2574,9.25885 L -14.0936,9.50627 L -13.9256,9.75079 L -13.7533,9.99234
 L -13.5768,10.2309 L -13.3962,10.4662 L -13.2115,10.6984 L -13.0228,10.9274 L -12.83,11.153 L -12.6335,11.3752
 L -12.433,11.594 L -12.2288,11.8092 L -12.0208,12.0208 L -11.8092,12.2288 L -11.594,12.433 L -11.3752,12.6335
 L -11.153,12.83 L -10.9274,13.0228 L -10.6984,13.2115 L -10.4662,13.3962 L -10.2309,13.5768 L -9.99234,13.7533
 L -9.75079,13.9256 L -9.50627,14.0936 L -9.25885,14.2574 L -9.00862,14.4168 L -8.75565,14.5718 L -8.5,14.7224
 L -8.24176,14.8685 L -7.981,15.0101 L -7.71783,15.1471 L -7.4523,15.2795 L -7.18451,15.4072 L -6.91452,15.5303
 L -6.64243,15.6486 L -6.3683,15.7621 L -6.09225,15.8709 L -5.81433,15.9748 L -5.53465,16.0738 L -5.25328,16.168
 L -4.97031,16.2572 L -4.68582,16.3414 L -4.39992,16.4207 L -4.11267,16.495 L -3.82416,16.5643 L -3.53448,16.6285
 L -3.24374,16.6877 L -2.95201,16.7417 L -2.65938,16.7907 L -2.36594,16.8345 L -2.07178,16.8733 L -1.77698,16.9069
 L -1.48164,16.9353 L -1.18585,16.9586 L -0.889709,16.9767 L -0.593277,16.9896 L -0.296677,16.9974 L 0,17
 z
M 36.2967,16.9974 L 36.5933,16.9896 L 36.8897,16.9767 L 37.1859,16.9586 L 37.4816,16.9353 L 37.777,16.9069
 L 38.0718,16.8733 L 38.3659,16.8345 L 38.6594,16.7907 L 38.952,16.7417 L 39.2437,16.6877 L 39.5345,16.6285
 L 39.8242,16.5643 L 40.1127,16.495 L 40.3999,16.4207 L 40.6858,16.3414 L 40.9703,16.2572 L 41.2533,16.168
 L 41.5347,16.0738 L 41.8143,15.9748 L 42.0923,15.8709 L 42.3683,15.7621 L 42.6424,15.6486 L 42.9145,15.5303
 L 43.1845,15.4072 L 43.4523,15.2795 L 43.7178,15.1471 L 43.981,15.0101 L 44.2418,14.8685 L 44.5,14.7224
 L 44.7556,14.5718 L 45.0086,14.4168 L 45.2589,14.2574 L 45.5063,14.0936 L 45.7508,13.9256 L 45.9923,13.7533
 L 46.2309,13.5768 L 46.4662,13.3962 L 46.6984,13.2115 L 46.9274,13.0228 L 47.153,12.83 L 47.3752,12.6335
 L 47.594,12.433 L 47.8092,12.2288 L 48.0208,12.0208 L 48.2288,11.8092 L 48.433,11.594 L 48.6335,11.3752
 L 48.83,11.153 L 49.0228,10.9274 L 49.2115,10.6984 L 49.3962,10.4662 L 49.5768,10.2309 L 49.7533,9.99234
 L 49.9256,9.75079 L 50.0936,9.50627 L 50.2574,9.25885 L 50.4168,9.00862 L 50.5718,8.75565 L 50.7224,8.5
 L 50.8685,8.24176 L 51.0101,7.981 L 51.1471,7.71783 L 51.2795,7.4523 L 51.4072,7.18451 L 51.5303,6.91452
 L 51.6486,6.64243 L 51.7621,6.3683 L 51.8709,6.09225 L 51.9748,5.81433 L 52.0738,5.53465 L 52.168,5.25328
 L 52.2572,4.97031 L 52.3414,4.68582 L 52.4207,4.39992 L 52.495,4.11267 L 52.5643,3.82416 L 52.6285,3.53448
 L 52.6877,3.24374 L 52.7417,2.95201 L 52.7907,2.65938 L 52.8345,2.36594 L 52.8733,2.07178 L 52.9069,1.77698
 L 52.9353,1.48164 L 52.9586,1.18585 L 52.9767,0.889709 L 52.9896,0.593277 L 52.9974,0.296677 L 53,-0
 L 52.9974,-0.296677 L 52.9896,-0.593277 L 52.9767,-0.889709 L 52.9586,-1.18585 L 52.9353,-1.48164 L 52.9069,-1.77698
 L 52.8733,-2.07178 L 52.8345,-2.36594 L 52.7907,-2.65938 L 52.7417,-2.95201 L 52.6877,-3.24374 L 52.6285,-3.53448
 L 52.5643,-3.82416 L 52.495,-4.11267 L 52.4207,-4.39992 L 52.3414,-4.68582 L 52.2572,-4.97031 L 52.168,-5.25328
 L 52.0738,-5.53465 L 51.9748,-5.81433 L 51.8709,-6.09225 L 51.7621,-6.3683 L 51.6486,-6.64243 L 51.5303,-6.91452
 L 51.4072,-7.18451 L 51.2795,-7.4523 L 51.1471,-7.71783 L 51.0101,-7.981 L 50.8685,-8.24176 L 50.7224,-8.5
 L 50.5718,-8.75565 L 50.4168,-9.00862 L 50.2574,-9.25885 L 50.0936,-9.50627 L 49.9256,-9.75079 L 49.7533,-9.99234
 L 49.5768,-10.2309 L 49.3962,-10.4662 L 49.2115,-10.6984 L 49.0228,-10.9274 L 48.83,-11.153 L 48.6335,-11.3752
 L 48.433,-11.594 L 48.2288,-11.8092 L 48.0208,-12.0208 L 47.8092,-12.2288 L 47.594,-12.433 L 47.3752,-12.6335
 L 47.153,-12.83 L 46.9274,-13.0228 L 46.6984,-13.2115 L 46.4662,-13.3962 L 46.2309,-13.5768 L 45.9923,-13.7533
 L 45.7508,-13.9256 L 45.5063,-14.0936 L 45.2589,-14.2574 L 45.0086,-14.4168 L 44.7556,-14.5718 L 44.5,-14.7224
 L 44.2418,-14.8685 L 43.981,-15.0101 L 43.7178,-15.1471 L 43.4523,-15.2795 L 43.1845,-15.4072 L 42.9145,-15.5303
 L 42.6424,-15.6486 L 42.3683,-15.7621 L 42.0923,-15.8709 L 41.8143,-15.9748 L 41.5347,-16.0738 L 41.2533,-16.168
 L 40.9703,-16.2572 L 40.6858,-16.3414 L 40.3999,-16.4207 L 40.1127,-16.495 L 39.8242,-16.5643 L 39.5345,-16.6285
 L 39.2437,-16.6877 L 38.952,-16.7417 L 38.6594,-16.7907 L 38.3659,-16.8345 L 38.0718,-16.8733 L 37.777,-16.9069
 L 37.4816,-16.9353 L 37.1859,-16.9586 L 36.8897,-16.9767 L 36.5933,-16.9896 L 36.2967,-16.9974 L 36,-17
 L 35.7033,-16.9974 L 35.4067,-16.9896 L 35.1103,-16.9767 L 34.8141,-16.9586 L 34.5184,-16.9353 L 34.223,-16.9069
 L 33.9282,-16.8733 L 33.6341,-16.8345 L 33.3406,-16.7907 L 33.048,-16.7417 L 32.7563,-16.6877 L 32.4655,-16.6285
 L 32.1758,-16.5643 L 31.8873,-16.495 L 31.6001,-16.4207 L 31.3142,-16.3414 L 31.0297,-16.2572 L 30.7467,-16.168
 L 30.4653,-16.0738 L 30.1857,-15.9748 L 29.9077,-15.8709 L 29.6317,-15.7621 L 29.3576,-15.6486 L 29.0855,-15.5303
 L 28.8155,-15.4072 L 28.5477,-15.2795 L 28.2822,-15.1471 L 28.019,-15.0101 L 27.7582,-14.8685 L 27.5,-14.7224
 L 27.2444,-14.5718 L 26.9914,-14.4168 L 26.7411,-14.2574 L 26.4937,-14.0936 L 26.2492,-13.9256 L 26.0077,-13.7533
 L 25.7691,-13.5768 L 25.5338,-13.3962 L 25.3016,-13.2115 L 25.0726,-13.0228 L 24.847,-12.83 L 24.6248,-12.6335
 L 24.406,-12.433 L 24.1908,-12.2288 L 23.9792,-12.0208 L 23.7712,-11.8092 L 23.567,-11.594 L 23.3665,-11.3752
 L 23.17,-11.153 L 22.9772,-10.9274 L 22.7885,-10.6984 L 22.6038,-10.4662 L 22.4232,-10.2309 L 22.2467,-9.99234
 L 22.0744,-9.75079 L 21.9064,-9.50627 L 21.7426,-9.25885 L 21.5832,-9.00862 L 21.4282,-8.75565 L 21.2776,-8.5
 L 21.1315,-8.24176 L 20.9899,-7.981 L 20.8529,-7.71783 L 20.7205,-7.4523 L 20.5928,-7.18451 L 20.4697,-6.91452
 L 20.3514,-6.64243 L 20.2379,-6.3683 L 20.1291,-6.09225 L 20.0252,-5.81433 L 19.9262,-5.53465 L 19.832,-5.25328
 L 19.7428,-4.97031 L 19.6586,-4.68582 L 19.5793,-4.39992 L 19.505,-4.11267 L 19.4357,-3.82416 L 19.3715,-3.53448
 L 19.3123,-3.24374 L 19.2583,-2.95201 L 19.2093,-2.65938 L 19.1655,-2.36594 L 19.1267,-2.07178 L 19.0931,-1.77698
 L 19.0647,-1.48164 L 19.0414,-1.18585 L 19.0233,-0.889709 L 19.0104,-0.593277 L 19.0026,-0.296677 L 19,-0
 L 19.0026,0.296677 L 19.0104,0.593277 L 19.0233,0.889709 L 19.0414,1.18585 L 19.0647,1.48164 L 19.0931,1.77698
 L 19.1267,2.07178 L 19.1655,2.36594 L 19.2093,2.65938 L 19.2583,2.95201 L 19.3123,3.24374 L 19.3715,3.53448
 L 19.4357,3.82416 L 19.505,4.11267 L 19.5793,4.39992 L 19.6586,4.68582 L 19.7428,4.97031 L 19.832,5.25328
 L 19.9262,5.53465 L 20.0252,5.81433 L 20.1291,6.09225 L 20.2379,6.3683 L 20.3514,6.64243 L 20.4697,6.91452
 L 20.5928,7.18451 L 20.7205,7.4523 L 20.8529,7.71783 L 20.9899,7.981 L 21.1315,8.24176 L 21.2776,8.5
 L 21.4282,8.75565 L 21.5832,9.00862 L 21.7426,9.25885 L 21.9064,9.50627 L 22.0744,9.75079 L 22.2467,9.99234
 L 22.4232,10.2309 L 22.6038,10.4662 L 22.7885,10.6984 L 22.9772,10.9274 L 23.17,11.153 L 23.3665,11.3752
 L 23.567,11.594 L 23.7712,11.8092 L 23.9792,12.0208 L 24.1908,12.2288 L 24.406,12.433 L 24.6248,12.6335
 L 24.847,12.83 L 25.0726,13.0228 L 25.3016,13.2115 L 25.5338,13.3962 L 25.7691,13.5768 L 26.0077,13.7533
 L 26.2492,13.9256 L 26.4937,14.0936 L 26.7411,14.2574 L 26.9914,14.4168 L 27.2444,14.5718 L 27.5,14.7224
 L 27.7582,14.8685 L 28.019,15.0101 L 28.2822,15.1471 L 28.5477,15.2795 L 28.8155,15.4072 L 29.0855,15.5303
 L 29.3576,15.6486 L 29.6317,15.7621 L 29.9077,15.8709 L 30.1857,15.9748 L 30.4653,16.0738 L 30.7467,16.168
 L 31.0297,16.2572 L 31.3142,16.3414 L 31.6001,16.4207 L 31.8873,16.495 L 32.1758,16.5643 L 32.4655,16.6285
 L 32.7563,16.6877 L 33.048,16.7417 L 33.3406,16.7907 L 33.6341,16.8345 L 33.9282,16.8733 L 34.223,16.9069
 L 34.5184,16.9353 L 34.8141,16.9586 L 35.1103,16.9767 L 35.4067,16.9896 L 35.7033,16.9974 L 36,17
 z
M 35.7906,11.9982 L 35.5812,11.9927 L 35.372,11.9836 L 35.1629,11.9708 L 34.9541,11.9543 L 34.7457,11.9342
 L 34.5376,11.9106 L 34.3299,11.8832 L 34.1228,11.8522 L 33.9162,11.8177 L 33.7103,11.7795 L 33.5051,11.7378
 L 33.3006,11.6924 L 33.0969,11.6435 L 32.8942,11.5911 L 32.6924,11.5351 L 32.4915,11.4756 L 32.2918,11.4127
 L 32.0932,11.3462 L 31.8958,11.2763 L 31.6996,11.203 L 31.5047,11.1262 L 31.3112,11.0461 L 31.1192,10.9625
 L 30.9286,10.8757 L 30.7395,10.7855 L 30.5521,10.6921 L 30.3663,10.5954 L 30.1823,10.4954 L 30,10.3923
 L 29.8195,10.286 L 29.641,10.1766 L 29.4643,10.064 L 29.2897,9.94844 L 29.1171,9.82982 L 28.9466,9.70819
 L 28.7782,9.58362 L 28.6121,9.45612 L 28.4482,9.32574 L 28.2866,9.19252 L 28.1273,9.0565 L 27.9704,8.91772
 L 27.816,8.77623 L 27.6641,8.63206 L 27.5147,8.48528 L 27.3679,8.33589 L 27.2238,8.18398 L 27.0823,8.02956
 L 26.9435,7.8727 L 26.8075,7.71344 L 26.6743,7.55183 L 26.5439,7.38792 L 26.4164,7.22177 L 26.2918,7.05342
 L 26.1702,6.8829 L 26.0516,6.71031 L 25.936,6.53566 L 25.8234,6.35902 L 25.714,6.18045 L 25.6077,6
 L 25.5046,5.8177 L 25.4046,5.63365 L 25.3079,5.44788 L 25.2145,5.26045 L 25.1243,5.07141 L 25.0375,4.88083
 L 24.9539,4.68877 L 24.8738,4.49527 L 24.797,4.30042 L 24.7237,4.10423 L 24.6538,3.90681 L 24.5873,3.70819
 L 24.5244,3.50845 L 24.4649,3.30765 L 24.4089,3.10582 L 24.3565,2.90306 L 24.3076,2.6994 L 24.2622,2.49493
 L 24.2205,2.2897 L 24.1823,2.08377 L 24.1478,1.87721 L 24.1168,1.67007 L 24.0894,1.46242 L 24.0658,1.25433
 L 24.0457,1.04587 L 24.0292,0.837067 L 24.0164,0.628021 L 24.0073,0.418793 L 24.0018,0.209427 L 24,-0
 L 24.0018,-0.209427 L 24.0073,-0.418793 L 24.0164,-0.628021 L 24.0292,-0.837067 L 24.0457,-1.04587 L 24.0658,-1.25433
 L 24.0894,-1.46242 L 24.1168,-1.67007 L 24.1478,-1.87721 L 24.1823,-2.08377 L 24.2205,-2.2897 L 24.2622,-2.49493
 L 24.3076,-2.6994 L 24.3565,-2.90306 L 24.4089,-3.10582 L 24.4649,-3.30765 L 24.5244,-3.50845 L 24.5873,-3.70819
 L 24.6538,-3.90681 L 24.7237,-4.10423 L 24.797,-4.30042 L 24.8738,-4.49527 L 24.9539,-4.68877 L 25.0375,-4.88083
 L 25.1243,-5.07141 L 25.2145,-5.26045 L 25.3079,-5.44788 L 25.4046,-5.63365 L 25.5046,-5.8177 L 25.6077,-6
 L 25.714,-6.18045 L 25.8234,-6.35902 L 25.936,-6.53566 L 26.0516,-6.71031 L 26.1702,-6.8829 L 26.2918,-7.05342
 L 26.4164,-7.22177 L 26.5439,-7.38792 L 26.6743,-7.55183 L 26.8075,-7.71344 L 26.9435,-7.8727 L 27.0823,-8.02956
 L 27.2238,-8.18398 L 27.3679,-8.33589 L 27.5147,-8.48528 L 27.6641,-8.63206 L 27.816,-8.77623 L 27.9704,-8.91772
 L 28.1273,-9.0565 L 28.2866,-9.19252 L 28.4482,-9.32574 L 28.6121,-9.45612 L 28.7782,-9.58362 L 28.9466,-9.70819
 L 29.1171,-9.82982 L 29.2897,-9.94844 L 29.4643,-10.064 L 29.641,-10.1766 L 29.8195,-10.286 L 30,-10.3923
 L 30.1823,-10.4954 L 30.3663,-10.5954 L 30.5521,-10.6921 L 30.7395,-10.7855 L 30.9286,-10.8757 L 31.1192,-10.9625
 L 31.3112,-11.0461 L 31.5047,-11.1262 L 31.6996,-11.203 L 31.8958,-11.2763 L 32.0932,-11.3462 L 32.2918,-11.4127
 L 32.4915,-11.4756 L 32.6924,-11.5351 L 32.8942,-11.5911 L 33.0969,-11.6435 L 33.3006,-11.6924 L 33.5051,-11.7378
 L 33.7103,-11.7795 L 33.9162,-11.8177 L 34.1228,-11.8522 L 34.3299,-11.8832 L 34.5376,-11.9106 L 34.7457,-11.9342
 L 34.9541,-11.9543 L 35.1629,-11.9708 L 35.372,-11.9836 L 35.5812,-11.9927 L 35.7906,-11.9982 L 36,-12
 L 36.2094,-11.9982 L 36.4188,-11.9927 L 36.628,-11.9836 L 36.8371,-11.9708 L 37.0459,-11.9543 L 37.2543,-11.9342
 L 37.4624,-11.9106 L 37.6701,-11.8832 L 37.8772,-11.8522 L 38.0838,-11.8177 L 38.2897,-11.7795 L 38.4949,-11.7378
 L 38.6994,-11.6924 L 38.9031,-11.6435 L 39.1058,-11.5911 L 39.3076,-11.5351 L 39.5085,-11.4756 L 39.7082,-11.4127
 L 39.9068,-11.3462 L 40.1042,-11.2763 L 40.3004,-11.203 L 40.4953,-11.1262 L 40.6888,-11.0461 L 40.8808,-10.9625
 L 41.0714,-10.8757 L 41.2605,-10.7855 L 41.4479,-10.6921 L 41.6337,-10.5954 L 41.8177,-10.4954 L 42,-10.3923
 L 42.1805,-10.286 L 42.359,-10.1766 L 42.5357,-10.064 L 42.7103,-9.94844 L 42.8829,-9.82982 L 43.0534,-9.70819
 L 43.2218,-9.58362 L 43.3879,-9.45612 L 43.5518,-9.32574 L 43.7134,-9.19252 L 43.8727,-9.0565 L 44.0296,-8.91772
 L 44.184,-8.77623 L 44.3359,-8.63206 L 44.4853,-8.48528 L 44.6321,-8.33589 L 44.7762,-8.18398 L 44.9177,-8.02956
 L 45.0565,-7.8727 L 45.1925,-7.71344 L 45.3257,-7.55183 L 45.4561,-7.38792 L 45.5836,-7.22177 L 45.7082,-7.05342
 L 45.8298,-6.8829 L 45.9484,-6.71031 L 46.064,-6.53566 L 46.1766,-6.35902 L 46.286,-6.18045 L 46.3923,-6
 L 46.4954,-5.8177 L 46.5954,-5.63365 L 46.6921,-5.44788 L 46.7855,-5.26045 L 46.8757,-5.07141 L 46.9625,-4.88083
 L 47.0461,-4.68877 L 47.1262,-4.49527 L 47.203,-4.30042 L 47.2763,-4.10423 L 47.3462,-3.90681 L 47.4127,-3.70819
 L 47.4756,-3.50845 L 47.5351,-3.30765 L 47.5911,-3.10582 L 47.6435,-2.90306 L 47.6924,-2.6994 L 47.7378,-2.49493
 L 47.7795,-2.2897 L 47.8177,-2.08377 L 47.8522,-1.87721 L 47.8832,-1.67007 L 47.9106,-1.46242 L 47.9342,-1.25433
 L 47.9543,-1.04587 L 47.9708,-0.837067 L 47.9836,-0.628021 L 47.9927,-0.418793 L 47.9982,-0.209427 L 48,-0
 L 47.9982,0.209427 L 47.9927,0.418793 L 47.9836,0.628021 L 47.9708,0.837067 L 47.9543,1.04587 L 47.9342,1.25433
 L 47.9106,1.46242 L 47.8832,1.67007 L 47.8522,1.87721 L 47.8177,2.08377 L 47.7795,2.2897 L 47.7378,2.49493
 L 47.6924,2.6994 L 47.6435,2.90306 L 47.5911,3.10582 L 47.5351,3.30765 L 47.4756,3.50845 L 47.4127,3.70819
 L 47.3462,3.90681 L 47.2763,4.10423 L 47.203,4.30042 L 47.1262,4.49527 L 47.0461,4.68877 L 46.9625,4.88083
 L 46.8757,5.07141 L 46.7855,5.26045 L 46.6921,5.44788 L 46.5954,5.63365 L 46.4954,5.8177 L 46.3923,6
 L 46.286,6.18045 L 46.1766,6.35902 L 46.064,6.53566 L 45.9484,6.71031 L 45.8298,6.8829 L 45.7082,7.05342
 L 45.5836,7.22177 L 45.4561,7.38792 L 45.3257,7.55183 L 45.1925,7.71344 L 45.0565,7.8727 L 44.9177,8.02956
 L 44.7762,8.18398 L 44.6321,8.33589 L 44.4853,8.48528 L 44.3359,8.63206 L 44.184,8.77623 L 44.0296,8.91772
 L 43.8727,9.0565 L 43.7134,9.19252 L 43.5518,9.32574 L 43.3879,9.45612 L 43.2218,9.58362 L 43.0534,9.70819
 L 42.8829,9.82982 L 42.7103,9.94844 L 42.5357,10.064 L 42.359,10.1766 L 42.1805,10.286 L 42,10.3923
 L 41.8177,10.4954 L 41.6337,10.5954 L 41.4479,10.6921 L 41.2605,10.7855 L 41.0714,10.8757 L 40.8808,10.9625
 L 40.6888,11.0461 L 40.4953,11.1262 L 40.3004,11.203 L 40.1042,11.2763 L 39.9068,11.3462 L 39.7082,11.4127
 L 39.5085,11.4756 L 39.3076,11.5351 L 39.1058,11.5911 L 38.9031,11.6435 L 38.6994,11.6924 L 38.4949,11.7378
 L 38.2897,11.7795 L 38.0838,11.8177 L 37.8772,11.8522 L 37.6701,11.8832 L 37.4624,11.9106 L 37.2543,11.9342
 L 37.0459,11.9543 L 36.8371,11.9708 L 36.628,11.9836 L 36.4188,11.9927 L 36.2094,11.9982 L 36,12
 z
M -28.8255,9.99847 L -28.651,9.9939 L -28.4767,9.98628 L -28.3024,9.97563 L -28.1284,9.96194 L -27.9547,9.94521
 L -27.7813,9.92546 L -27.6083,9.90268 L -27.4357,9.87688 L -27.2635,9.84807 L -27.0919,9.81627 L -26.9209,9.78146
 L -26.7505,9.7437 L -26.5808,9.70296 L -26.4118,9.65926 L -26.2436,9.61261 L -26.0763,9.56303 L -25.9098,9.51056
 L -25.7443,9.45518 L -25.5798,9.39691 L -25.4163,9.3358 L -25.2539,9.27184 L -25.0927,9.20505 L -24.9326,9.13545
 L -24.7738,9.06306 L -24.6163,8.98793 L -24.4601,8.91006 L -24.3053,8.82947 L -24.1519,8.74619 L -24,8.66025
 L -23.8496,8.57167 L -23.7008,8.48047 L -23.5536,8.3867 L -23.4081,8.29037 L -23.2642,8.19151 L -23.1222,8.09016
 L -22.9819,7.98634 L -22.8434,7.8801 L -22.7068,7.77145 L -22.5721,7.66043 L -22.4394,7.54709 L -22.3087,7.43144
 L -22.18,7.31352 L -22.0534,7.19339 L -21.9289,7.07106 L -21.8066,6.94658 L -21.6865,6.81998 L -21.5686,6.6913
 L -21.4529,6.56058 L -21.3396,6.42787 L -21.2285,6.2932 L -21.1199,6.1566 L -21.0137,6.01814 L -20.9098,5.87784
 L -20.8085,5.73576 L -20.7096,5.59192 L -20.6133,5.44638 L -20.5195,5.29918 L -20.4283,5.15038 L -20.3398,5
 L -20.2538,4.84808 L -20.1705,4.6947 L -20.0899,4.5399 L -20.0121,4.3837 L -19.9369,4.22618 L -19.8645,4.06735
 L -19.795,3.9073 L -19.7282,3.74606 L -19.6642,3.58368 L -19.6031,3.4202 L -19.5448,3.25568 L -19.4894,3.09016
 L -19.437,2.92371 L -19.3874,2.75636 L -19.3407,2.58818 L -19.297,2.4192 L -19.2563,2.2495 L -19.2185,2.07912
 L -19.1837,1.90808 L -19.1519,1.73648 L -19.1231,1.56433 L -19.0973,1.39172 L -19.0745,1.21869 L -19.0548,1.04527
 L -19.0381,0.871552 L -19.0244,0.697556 L -19.0137,0.523346 L -19.0061,0.348984 L -19.0015,0.174515 L -19,-0
 L -19.0015,-0.174515 L -19.0061,-0.348984 L -19.0137,-0.523346 L -19.0244,-0.697556 L -19.0381,-0.871552 L -19.0548,-1.04527
 L -19.0745,-1.21869 L -19.0973,-1.39172 L -19.1231,-1.56433 L -19.1519,-1.73648 L -19.1837,-1.90808 L -19.2185,-2.07912
 L -19.2563,-2.2495 L -19.297,-2.4192 L -19.3407,-2.58818 L -19.3874,-2.75636 L -19.437,-2.92371 L -19.4894,-3.09016
 L -19.5448,-3.25568 L -19.6031,-3.4202 L -19.6642,-3.58368 L -19.7282,-3.74606 L -19.795,-3.9073 L -19.8645,-4.06735
 L -19.9369,-4.22618 L -20.0121,-4.3837 L -20.0899,-4.5399 L -20.1705,-4.6947 L -20.2538,-4.84808 L -20.3398,-5
 L -20.4283,-5.15038 L -20.5195,-5.29918 L -20.6133,-5.44638 L -20.7096,-5.59192 L -20.8085,-5.73576 L -20.9098,-5.87784
 L -21.0137,-6.01814 L -21.1199,-6.1566 L -21.2285,-6.2932 L -21.3396,-6.42787 L -21.4529,-6.56058 L -21.5686,-6.6913
 L -21.6865,-6.81998 L -21.8066,-6.94658 L -21.9289,-7.07106 L -22.0534,-7.19339 L -22.18,-7.31352 L -22.3087,-7.43144
 L -22.4394,-7.54709 L -22.5721,-7.66043 L -22.7068,-7.77145 L -22.8434,-7.8801 L -22.9819,-7.98634 L -23.1222,-8.09016
 L -23.2642,-8.19151 L -23.4081,-8.29037 L -23.5536,-8.3867 L -23.7008,-8.48047 L -23.8496,-8.57167 L -24,-8.66025
 L -24.1519,-8.74619 L -24.3053,-8.82947 L -24.4601,-8.91006 L -24.6163,-8.98793 L -24.7738,-9.06306 L -24.9326,-9.13545
 L -25.0927,-9.20505 L -25.2539,-9.27184 L -25.4163,-9.3358 L -25.5798,-9.39691 L -25.7443,-9.45518 L -25.9098,-9.51056
 L -26.0763,-9.56303 L -26.2436,-9.61261 L -26.4118,-9.65926 L -26.5808,-9.70296 L -26.7505,-9.7437 L -26.9209,-9.78146
 L -27.0919,-9.81627 L -27.2635,-9.84807 L -27.4357,-9.87688 L -27.6083,-9.90268 L -27.7813,-9.92546 L -27.9547,-9.94521
 L -28.1284,-9.96194 L -28.3024,-9.97563 L -28.4767,-9.98628 L -28.651,-9.9939 L -28.8255,-9.99847 L -29,-10
 L -29.1745,-9.99847 L -29.349,-9.9939 L -29.5233,-9.98628 L -29.6976,-9.97563 L -29.8716,-9.96194 L -30.0453,-9.94521
 L -30.2187,-9.92546 L -30.3917,-9.90268 L -30.5643,-9.87688 L -30.7365,-9.84807 L -30.9081,-9.81627 L -31.0791,-9.78146
 L -31.2495,-9.7437 L -31.4192,-9.70296 L -31.5882,-9.65926 L -31.7564,-9.61261 L -31.9237,-9.56303 L -32.0902,-9.51056
 L -32.2557,-9.45518 L -32.4202,-9.39691 L -32.5837,-9.3358 L -32.7461,-9.27184 L -32.9073,-9.20505 L -33.0674,-9.13545
 L -33.2262,-9.06306 L -33.3837,-8.98793 L -33.5399,-8.91006 L -33.6947,-8.82947 L -33.8481,-8.74619 L -34,-8.66025
 L -34.1504,-8.57167 L -34.2992,-8.48047 L -34.4464,-8.3867 L -34.5919,-8.29037 L -34.7358,-8.19151 L -34.8778,-8.09016
 L -35.0181,-7.98634 L -35.1566,-7.8801 L -35.2932,-7.77145 L -35.4279,-7.66043 L -35.5606,-7.54709 L -35.6913,-7.43144
 L -35.82,-7.31352 L -35.9466,-7.19339 L -36.0711,-7.07106 L -36.1934,-6.94658 L -36.3135,-6.81998 L -36.4314,-6.6913
 L -36.5471,-6.56058 L -36.6604,-6.42787 L -36.7715,-6.2932 L -36.8801,-6.1566 L -36.9863,-6.01814 L -37.0902,-5.87784
 L -37.1915,-5.73576 L -37.2904,-5.59192 L -37.3867,-5.44638 L -37.4805,-5.29918 L -37.5717,-5.15038 L -37.6602,-5
 L -37.7462,-4.84808 L -37.8295,-4.6947 L -37.9101,-4.5399 L -37.9879,-4.3837 L -38.0631,-4.22618 L -38.1355,-4.06735
 L -38.205,-3.9073 L -38.2718,-3.74606 L -38.3358,-3.58368 L -38.3969,-3.4202 L -38.4552,-3.25568 L -38.5106,-3.09016
 L -38.563,-2.92371 L -38.6126,-2.75636 L -38.6593,-2.58818 L -38.703,-2.4192 L -38.7437,-2.2495 L -38.7815,-2.07912
 L -38.8163,-1.90808 L -38.8481,-1.73648 L -38.8769,-1.56433 L -38.9027,-1.39172 L -38.9255,-1.21869 L -38.9452,-1.04527
 L -38.9619,-0.871552 L -38.9756,-0.697556 L -38.9863,-0.523346 L -38.9939,-0.348984 L -38.9985,-0.174515 L -39,-0
 L -38.9985,0.174515 L -38.9939,0.348984 L -38.9863,0.523346 L -38.9756,0.697556 L -38.9619,0.871552 L -38.9452,1.04527
 L -38.9255,1.21869 L -38.9027,1.39172 L -38.8769,1.56433 L -38.8481,1.73648 L -38.8163,1.90808 L -38.7815,2.07912
 L -38.7437,2.2495 L -38.703,2.4192 L -38.6593,2.58818 L -38.6126,2.75636 L -38.563,2.92371 L -38.5106,3.09016
 L -38.4552,3.25568 L -38.3969,3.4202 L -38.3358,3.58368 L -38.2718,3.74606 L -38.205,3.9073 L -38.1355,4.06735
 L -38.0631,4.22618 L -37.9879,4.3837 L -37.9101,4.5399 L -37.8295,4.6947 L -37.7462,4.84808 L -37.6602,5
 L -37.5717,5.15038 L -37.4805,5.29918 L -37.3867,5.44638 L -37.2904,5.59192 L -37.1915,5.73576 L -37.0902,5.87784
 L -36.9863,6.01814 L -36.8801,6.1566 L -36.7715,6.2932 L -36.6604,6.42787 L -36.5471,6.56058 L -36.4314,6.6913
 L -36.3135,6.81998 L -36.1934,6.94658 L -36.0711,7.07106 L -35.9466,7.19339 L -35.82,7.31352 L -35.6913,7.43144
 L -35.5606,7.54709 L -35.4279,7.66043 L -35.2932,7.77145 L -35.1566,7.8801 L -35.0181,7.98634 L -34.8778,8.09016
 L -34.7358,8.19151 L -34.5919,8.29037 L -34.4464,8.3867 L -34.2992,8.48047 L -34.1504,8.57167 L -34,8.66025
 L -33.8481,8.74619 L -33.6947,8.82947 L -33.5399,8.91006 L -33.3837,8.98793 L -33.2262,9.06306 L -33.0674,9.13545
 L -32.9073,9.20505 L -32.7461,9.27184 L -32.5837,9.3358 L -32.4202,9.39691 L -32.2557,9.45518 L -32.0902,9.51056
 L -31.9237,9.56303 L -31.7564,9.61261 L -31.5882,9.65926 L -31.4192,9.70296 L -31.2495,9.7437 L -31.0791,9.78146
 L -30.9081,9.81627 L -30.7365,9.84807 L -30.5643,9.87688 L -30.3917,9.90268 L -30.2187,9.92546 L -30.0453,9.94521
 L -29.8716,9.96194 L -29.6976,9.97563 L -29.5233,9.98628 L -29.349,9.9939 L -29.1745,9.99847 L -29,10
 z
M -29.1047,5.99908 L -29.2094,5.99634 L -29.314,5.99178 L -29.4185,5.98538 L -29.5229,5.97716 L -29.6272,5.96712
 L -29.7312,5.95528 L -29.835,5.9416 L -29.9386,5.92612 L -30.0419,5.90884 L -30.1449,5.88976 L -30.2475,5.86888
 L -30.3497,5.84621 L -30.4515,5.82176 L -30.5529,5.79555 L -30.6538,5.76756 L -30.7542,5.73782 L -30.8541,5.70633
 L -30.9534,5.67311 L -31.0521,5.63815 L -31.1502,5.60147 L -31.2476,5.5631 L -31.3444,5.52303 L -31.4404,5.48126
 L -31.5357,5.43784 L -31.6302,5.39276 L -31.7239,5.34604 L -31.8168,5.29768 L -31.9088,5.24771 L -32,5.19615
 L -32.0902,5.14299 L -32.1795,5.08829 L -32.2678,5.03201 L -32.3551,4.97421 L -32.4415,4.9149 L -32.5267,4.8541
 L -32.6109,4.79181 L -32.694,4.72806 L -32.7759,4.66287 L -32.8567,4.59625 L -32.9363,4.52824 L -33.0148,4.45886
 L -33.092,4.38811 L -33.1679,4.31602 L -33.2426,4.24263 L -33.316,4.16794 L -33.3881,4.09198 L -33.4589,4.01477
 L -33.5282,3.93634 L -33.5963,3.85672 L -33.6629,3.77591 L -33.7281,3.69395 L -33.7918,3.61089 L -33.8541,3.5267
 L -33.9149,3.44145 L -33.9742,3.35515 L -34.032,3.26782 L -34.0883,3.1795 L -34.143,3.09023 L -34.1962,3
 L -34.2477,2.90884 L -34.2977,2.81682 L -34.346,2.72394 L -34.3928,2.63022 L -34.4378,2.53571 L -34.4813,2.44041
 L -34.523,2.34438 L -34.5631,2.24763 L -34.6015,2.15021 L -34.6382,2.05211 L -34.6731,1.9534 L -34.7063,1.8541
 L -34.7378,1.75423 L -34.7676,1.65382 L -34.7955,1.5529 L -34.8218,1.45152 L -34.8462,1.3497 L -34.8689,1.24747
 L -34.8898,1.14485 L -34.9088,1.04189 L -34.9261,0.938599 L -34.9416,0.835037 L -34.9553,0.731201 L -34.9671,0.627167
 L -34.9772,0.522934 L -34.9854,0.418533 L -34.9918,0.314011 L -34.9963,0.209396 L -34.9991,0.104706 L -35,-0
 L -34.9991,-0.104706 L -34.9963,-0.209396 L -34.9918,-0.314011 L -34.9854,-0.418533 L -34.9772,-0.522934 L -34.9671,-0.627167
 L -34.9553,-0.731201 L -34.9416,-0.835037 L -34.9261,-0.938599 L -34.9088,-1.04189 L -34.8898,-1.14485 L -34.8689,-1.24747
 L -34.8462,-1.3497 L -34.8218,-1.45152 L -34.7955,-1.5529 L -34.7676,-1.65382 L -34.7378,-1.75423 L -34.7063,-1.8541
 L -34.6731,-1.9534 L -34.6382,-2.05211 L -34.6015,-2.15021 L -34.5631,-2.24763 L -34.523,-2.34438 L -34.4813,-2.44041
 L -34.4378,-2.53571 L -34.3928,-2.63022 L -34.346,-2.72394 L -34.2977,-2.81682 L -34.2477,-2.90884 L -34.1962,-3
 L -34.143,-3.09023 L -34.0883,-3.1795 L -34.032,-3.26782 L -33.9742,-3.35515 L -33.9149,-3.44145 L -33.8541,-3.5267
 L -33.7918,-3.61089 L -33.7281,-3.69395 L -33.6629,-3.77591 L -33.5963,-3.85672 L -33.5282,-3.93634 L -33.4589,-4.01477
 L -33.3881,-4.09198 L -33.316,-4.16794 L -33.2426,-4.24263 L -33.1679,-4.31602 L -33.092,-4.38811 L -33.0148,-4.45886
 L -32.9363,-4.52824 L -32.8567,-4.59625 L -32.7759,-4.66287 L -32.694,-4.72806 L -32.6109,-4.79181 L -32.5267,-4.8541
 L -32.4415,-4.9149 L -32.3551,-4.97421 L -32.2678,-5.03201 L -32.1795,-5.08829 L -32.0902,-5.14299 L -32,-5.19615
 L -31.9088,-5.24771 L -31.8168,-5.29768 L -31.7239,-5.34604 L -31.6302,-5.39276 L -31.5357,-5.43784 L -31.4404,-5.48126
 L -31.3444,-5.52303 L -31.2476,-5.5631 L -31.1502,-5.60147 L -31.0521,-5.63815 L -30.9534,-5.67311 L -30.8541,-5.70633
 L -30.7542,-5.73782 L -30.6538,-5.76756 L -30.5529,-5.79555 L -30.4515,-5.82176 L -30.3497,-5.84621 L -30.2475,-5.86888
 L -30.1449,-5.88976 L -30.0419,-5.90884 L -29.9386,-5.92612 L -29.835,-5.9416 L -29.7312,-5.95528 L -29.6272,-5.96712
 L -29.5229,-5.97716 L -29.4185,-5.98538 L -29.314,-5.99178 L -29.2094,-5.99634 L -29.1047,-5.99908 L -29,-6
 L -28.8953,-5.99908 L -28.7906,-5.99634 L -28.686,-5.99178 L -28.5815,-5.98538 L -28.4771,-5.97716 L -28.3728,-5.96712
 L -28.2688,-5.95528 L -28.165,-5.9416 L -28.0614,-5.92612 L -27.9581,-5.90884 L -27.8551,-5.88976 L -27.7525,-5.86888
 L -27.6503,-5.84621 L -27.5485,-5.82176 L -27.4471,-5.79555 L -27.3462,-5.76756 L -27.2458,-5.73782 L -27.1459,-5.70633
 L -27.0466,-5.67311 L -26.9479,-5.63815 L -26.8498,-5.60147 L -26.7524,-5.5631 L -26.6556,-5.52303 L -26.5596,-5.48126
 L -26.4643,-5.43784 L -26.3698,-5.39276 L -26.2761,-5.34604 L -26.1832,-5.29768 L -26.0912,-5.24771 L -26,-5.19615
 L -25.9098,-5.14299 L -25.8205,-5.08829 L -25.7322,-5.03201 L -25.6449,-4.97421 L -25.5585,-4.9149 L -25.4733,-4.8541
 L -25.3891,-4.79181 L -25.306,-4.72806 L -25.2241,-4.66287 L -25.1433,-4.59625 L -25.0637,-4.52824 L -24.9852,-4.45886
 L -24.908,-4.38811 L -24.8321,-4.31602 L -24.7574,-4.24263 L -24.684,-4.16794 L -24.6119,-4.09198 L -24.5411,-4.01477
 L -24.4718,-3.93634 L -24.4037,-3.85672 L -24.3371,-3.77591 L -24.2719,-3.69395 L -24.2082,-3.61089 L -24.1459,-3.5267
 L -24.0851,-3.44145 L -24.0258,-3.35515 L -23.968,-3.26782 L -23.9117,-3.1795 L -23.857,-3.09023 L -23.8038,-3
 L -23.7523,-2.90884 L -23.7023,-2.81682 L -23.654,-2.72394 L -23.6072,-2.63022 L -23.5622,-2.53571 L -23.5187,-2.44041
 L -23.477,-2.34438 L -23.4369,-2.24763 L -23.3985,-2.15021 L -23.3618,-2.05211 L -23.3269,-1.9534 L -23.2937,-1.8541
 L -23.2622,-1.75423 L -23.2324,-1.65382 L -23.2045,-1.5529 L -23.1782,-1.45152 L -23.1538,-1.3497 L -23.1311,-1.24747
 L -23.1102,-1.14485 L -23.0912,-1.04189 L -23.0739,-0.938599 L -23.0584,-0.835037 L -23.0447,-0.731201 L -23.0329,-0.627167
 L -23.0228,-0.522934 L -23.0146,-0.418533 L -23.0082,-0.314011 L -23.0037,-0.209396 L -23.0009,-0.104706 L -23,-0
 L -23.0009,0.104706 L -23.0037,0.209396 L -23.0082,0.314011 L -23.0146,0.418533 L -23.0228,0.522934 L -23.0329,0.627167
 L -23.0447,0.731201 L -23.0584,0.835037 L -23.0739,0.938599 L -23.0912,1.04189 L -23.1102,1.14485 L -23.1311,1.24747
 L -23.1538,1.3497 L -23.1782,1.45152 L -23.2045,1.5529 L -23.2324,1.65382 L -23.2622,1.75423 L -23.2937,1.8541
 L -23.3269,1.9534 L -23.3618,2.05211 L -23.3985,2.15021 L -23.4369,2.24763 L -23.477,2.34438 L -23.5187,2.44041
 L -23.5622,2.53571 L -23.6072,2.63022 L -23.654,2.72394 L -23.7023,2.81682 L -23.7523,2.90884 L -23.8038,3
 L -23.857,3.09023 L -23.9117,3.1795 L -23.968,3.26782 L -24.0258,3.35515 L -24.0851,3.44145 L -24.1459,3.5267
 L -24.2082,3.61089 L -24.2719,3.69395 L -24.3371,3.77591 L -24.4037,3.85672 L -24.4718,3.93634 L -24.5411,4.01477
 L -24.6119,4.09198 L -24.684,4.16794 L -24.7574,4.24263 L -24.8321,4.31602 L -24.908,4.38811 L -24.9852,4.45886
 L -25.0637,4.52824 L -25.1433,4.59625 L -25.2241,4.66287 L -25.306,4.72806 L -25.3891,4.79181 L -25.4733,4.8541
 L -25.5585,4.9149 L -25.6449,4.97421 L -25.7322,5.03201 L -25.8205,5.08829 L -25.9098,5.14299 L -26,5.19615
 L -26.0912,5.24771 L -26.1832,5.29768 L -26.2761,5.34604 L -26.3698,5.39276 L -26.4643,5.43784 L -26.5596,5.48126
 L -26.6556,5.52303 L -26.7524,5.5631 L -26.8498,5.60147 L -26.9479,5.63815 L -27.0466,5.67311 L -27.1459,5.70633
 L -27.2458,5.73782 L -27.3462,5.76756 L -27.4471,5.79555 L -27.5485,5.82176 L -27.6503,5.84621 L -27.7525,5.86888
 L -27.8551,5.88976 L -27.9581,5.90884 L -28.0614,5.92612 L -28.165,5.9416 L -28.2688,5.95528 L -28.3728,5.96712
 L -28.4771,5.97716 L -28.5815,5.98538 L -28.686,5.99178 L -28.7906,5.99634 L -28.8953,5.99908 L -29,6
 z
" stroke="black" fill="lightgray" stroke-width="0.5"/>
</svg>
