  0
SECTION
  2
BLOCKS
  0
ENDSEC
  0
SECTION
  2
ENTITIES
  0
LINE
  8
0
 10
88.1047
 20
0.000900269
 11
88.2094
 21
0.00364685
  0
LINE
  8
0
 10
88.2094
 20
0.00364685
 11
88.314
 21
0.00820923
  0
LINE
  8
0
 10
88.314
 20
0.00820923
 11
88.4185
 21
0.0146027
  0
LINE
  8
0
 10
88.4185
 20
0.0146027
 11
88.5229
 21
0.0228271
  0
LINE
  8
0
 10
88.5229
 20
0.0228271
 11
88.6272
 21
0.0328674
  0
LINE
  8
0
 10
88.6272
 20
0.0328674
 11
88.7312
 21
0.0447083
  0
LINE
  8
0
 10
88.7312
 20
0.0447083
 11
88.835
 21
0.0583801
  0
LINE
  8
0
 10
88.835
 20
0.0583801
 11
88.9386
 21
0.0738678
  0
LINE
  8
0
 10
88.9386
 20
0.0738678
 11
89.0419
 21
0.0911407
  0
LINE
  8
0
 10
89.0419
 20
0.0911407
 11
89.1449
 21
0.110229
  0
LINE
  8
0
 10
89.1449
 20
0.110229
 11
89.2475
 21
0.131104
  0
LINE
  8
0
 10
89.2475
 20
0.131104
 11
89.3497
 21
0.153778
  0
LINE
  8
0
 10
89.3497
 20
0.153778
 11
89.4515
 21
0.178223
  0
LINE
  8
0
 10
89.4515
 20
0.178223
 11
89.5529
 21
0.204437
  0
LINE
  8
0
 10
89.5529
 20
0.204437
 11
89.6538
 21
0.232422
  0
LINE
  8
0
 10
89.6538
 20
0.232422
 11
89.7542
 21
0.262161
  0
LINE
  8
0
 10
89.7542
 20
0.262161
 11
89.8541
 21
0.293655
  0
LINE
  8
0
 10
89.8541
 20
0.293655
 11
89.9534
 21
0.326874
  0
LINE
  8
0
 10
89.9534
 20
0.326874
 11
90.0521
 21
0.361832
  0
LINE
  8
0
 10
90.0521
 20
0.361832
 11
90.1502
 21
0.398514
  0
LINE
  8
0
 10
90.1502
 20
0.398514
 11
90.2476
 21
0.43689
  0
LINE
  8
0
 10
90.2476
 20
0.43689
 11
90.3444
 21
0.476959
  0
LINE
  8
0
 10
90.3444
 20
0.476959
 11
90.4404
 21
0.518723
  0
LINE
  8
0
 10
90.4404
 20
0.518723
 11
90.5357
 21
0.562149
  0
LINE
  8
0
 10
90.5357
 20
0.562149
 11
90.6302
 21
0.607224
  0
LINE
  8
0
 10
90.6302
 20
0.607224
 11
90.7239
 21
0.653946
  0
LINE
  8
0
 10
90.7239
 20
0.653946
 11
90.8168
 21
0.702301
  0
LINE
  8
0
 10
90.8168
 20
0.702301
 11
90.9088
 21
0.752274
  0
LINE
  8
0
 10
90.9088
 20
0.752274
 11
91
 21
0.803833
  0
LINE
  8
0
 10
91
 20
0.803833
 11
91.0902
 21
0.856995
  0
LINE
  8
0
 10
91.0902
 20
0.856995
 11
91.1795
 21
0.911697
  0
LINE
  8
0
 10
91.1795
 20
0.911697
 11
91.2678
 21
0.967972
  0
LINE
  8
0
 10
91.2678
 20
0.967972
 11
91.3551
 21
1.02577
  0
LINE
  8
0
 10
91.3551
 20
1.02577
 11
91.4415
 21
1.08508
  0
LINE
  8
0
 10
91.4415
 20
1.08508
 11
91.5267
 21
1.14589
  0
LINE
  8
0
 10
91.5267
 20
1.14589
 11
91.6109
 21
1.20818
  0
LINE
  8
0
 10
91.6109
 20
1.20818
 11
91.694
 21
1.27193
  0
LINE
  8
0
 10
91.694
 20
1.27193
 11
91.7759
 21
1.33711
  0
LINE
  8
0
 10
91.7759
 20
1.33711
 11
91.8567
 21
1.40373
  0
LINE
  8
0
 10
91.8567
 20
1.40373
 11
91.9363
 21
1.47174
  0
LINE
  8
0
 10
91.9363
 20
1.47174
 11
92.0148
 21
1.54112
  0
LINE
  8
0
 10
92.0148
 20
1.54112
 11
92.092
 21
1.61188
  0
LINE
  8
0
 10
92.092
 20
1.61188
 11
92.1679
 21
1.68396
  0
LINE
  8
0
 10
92.1679
 20
1.68396
 11
92.2426
 21
1.75735
  0
LINE
  8
0
 10
92.2426
 20
1.75735
 11
92.316
 21
1.83205
  0
LINE
  8
0
 10
92.316
 20
1.83205
 11
92.3881
 21
1.908
  0
LINE
  8
0
 10
92.3881
 20
1.908
 11
92.4589
 21
1.98521
  0
LINE
  8
0
 10
92.4589
 20
1.98521
 11
92.5282
 21
2.06364
  0
LINE
  8
0
 10
92.5282
 20
2.06364
 11
92.5963
 21
2.14326
  0
LINE
  8
0
 10
92.5963
 20
2.14326
 11
92.6629
 21
2.22408
  0
LINE
  8
0
 10
92.6629
 20
2.22408
 11
92.7281
 21
2.30603
  0
LINE
  8
0
 10
92.7281
 20
2.30603
 11
92.7918
 21
2.3891
  0
LINE
  8
0
 10
92.7918
 20
2.3891
 11
92.8541
 21
2.47328
  0
LINE
  8
0
 10
92.8541
 20
2.47328
 11
92.9149
 21
2.55853
  0
LINE
  8
0
 10
92.9149
 20
2.55853
 11
92.9742
 21
2.64484
  0
LINE
  8
0
 10
92.9742
 20
2.64484
 11
93.032
 21
2.73216
  0
LINE
  8
0
 10
93.032
 20
2.73216
 11
93.0883
 21
2.82048
  0
LINE
  8
0
 10
93.0883
 20
2.82048
 11
93.143
 21
2.90976
  0
LINE
  8
0
 10
93.143
 20
2.90976
 11
93.1962
 21
3
  0
LINE
  8
0
 10
93.1962
 20
3
 11
93.2477
 21
3.09114
  0
LINE
  8
0
 10
93.2477
 20
3.09114
 11
93.2977
 21
3.18317
  0
LINE
  8
0
 10
93.2977
 20
3.18317
 11
93.346
 21
3.27605
  0
LINE
  8
0
 10
93.346
 20
3.27605
 11
93.3928
 21
3.36977
  0
LINE
  8
0
 10
93.3928
 20
3.36977
 11
93.4378
 21
3.46428
  0
LINE
  8
0
 10
93.4378
 20
3.46428
 11
93.4813
 21
3.55957
  0
LINE
  8
0
 10
93.4813
 20
3.55957
 11
93.523
 21
3.65561
  0
LINE
  8
0
 10
93.523
 20
3.65561
 11
93.5631
 21
3.75235
  0
LINE
  8
0
 10
93.5631
 20
3.75235
 11
93.6015
 21
3.84978
  0
LINE
  8
0
 10
93.6015
 20
3.84978
 11
93.6382
 21
3.94788
  0
LINE
  8
0
 10
93.6382
 20
3.94788
 11
93.6731
 21
4.04659
  0
LINE
  8
0
 10
93.6731
 20
4.04659
 11
93.7063
 21
4.14589
  0
LINE
  8
0
 10
93.7063
 20
4.14589
 11
93.7378
 21
4.24576
  0
LINE
  8
0
 10
93.7378
 20
4.24576
 11
93.7676
 21
4.34616
  0
LINE
  8
0
 10
93.7676
 20
4.34616
 11
93.7955
 21
4.44708
  0
LINE
  8
0
 10
93.7955
 20
4.44708
 11
93.8218
 21
4.54846
  0
LINE
  8
0
 10
93.8218
 20
4.54846
 11
93.8462
 21
4.65028
  0
LINE
  8
0
 10
93.8462
 20
4.65028
 11
93.8689
 21
4.75252
  0
LINE
  8
0
 10
93.8689
 20
4.75252
 11
93.8898
 21
4.85513
  0
LINE
  8
0
 10
93.8898
 20
4.85513
 11
93.9088
 21
4.9581
  0
LINE
  8
0
 10
93.9088
 20
4.9581
 11
93.9261
 21
5.06139
  0
LINE
  8
0
 10
93.9261
 20
5.06139
 11
93.9416
 21
5.16495
  0
LINE
  8
0
 10
93.9416
 20
5.16495
 11
93.9553
 21
5.26878
  0
LINE
  8
0
 10
93.9553
 20
5.26878
 11
93.9671
 21
5.37282
  0
LINE
  8
0
 10
93.9671
 20
5.37282
 11
93.9772
 21
5.47705
  0
LINE
  8
0
 10
93.9772
 20
5.47705
 11
93.9854
 21
5.58145
  0
LINE
  8
0
 10
93.9854
 20
5.58145
 11
93.9918
 21
5.68597
  0
LINE
  8
0
 10
93.9918
 20
5.68597
 11
93.9963
 21
5.79059
  0
LINE
  8
0
 10
93.9963
 20
5.79059
 11
93.9991
 21
5.89528
  0
LINE
  8
0
 10
93.9991
 20
5.89528
 11
94
 21
6
  0
LINE
  8
0
 10
94
 20
6
 11
94
 21
88
  0
LINE
  8
0
 10
94
 20
88
 11
93.9991
 21
88.1047
  0
LINE
  8
0
 10
93.9991
 20
88.1047
 11
93.9963
 21
88.2094
  0
LINE
  8
0
 10
93.9963
 20
88.2094
 11
93.9918
 21
88.314
  0
LINE
  8
0
 10
93.9918
 20
88.314
 11
93.9854
 21
88.4185
  0
LINE
  8
0
 10
93.9854
 20
88.4185
 11
93.9772
 21
88.5229
  0
LINE
  8
0
 10
93.9772
 20
88.5229
 11
93.9671
 21
88.6272
  0
LINE
  8
0
 10
93.9671
 20
88.6272
 11
93.9553
 21
88.7312
  0
LINE
  8
0
 10
93.9553
 20
88.7312
 11
93.9416
 21
88.835
  0
LINE
  8
0
 10
93.9416
 20
88.835
 11
93.9261
 21
88.9386
  0
LINE
  8
0
 10
93.9261
 20
88.9386
 11
93.9088
 21
89.0419
  0
LINE
  8
0
 10
93.9088
 20
89.0419
 11
93.8898
 21
89.1449
  0
LINE
  8
0
 10
93.8898
 20
89.1449
 11
93.8689
 21
89.2475
  0
LINE
  8
0
 10
93.8689
 20
89.2475
 11
93.8462
 21
89.3497
  0
LINE
  8
0
 10
93.8462
 20
89.3497
 11
93.8218
 21
89.4515
  0
LINE
  8
0
 10
93.8218
 20
89.4515
 11
93.7955
 21
89.5529
  0
LINE
  8
0
 10
93.7955
 20
89.5529
 11
93.7676
 21
89.6538
  0
LINE
  8
0
 10
93.7676
 20
89.6538
 11
93.7378
 21
89.7542
  0
LINE
  8
0
 10
93.7378
 20
89.7542
 11
93.7063
 21
89.8541
  0
LINE
  8
0
 10
93.7063
 20
89.8541
 11
93.6731
 21
89.9534
  0
LINE
  8
0
 10
93.6731
 20
89.9534
 11
93.6382
 21
90.0521
  0
LINE
  8
0
 10
93.6382
 20
90.0521
 11
93.6015
 21
90.1502
  0
LINE
  8
0
 10
93.6015
 20
90.1502
 11
93.5631
 21
90.2476
  0
LINE
  8
0
 10
93.5631
 20
90.2476
 11
93.523
 21
90.3444
  0
LINE
  8
0
 10
93.523
 20
90.3444
 11
93.4813
 21
90.4404
  0
LINE
  8
0
 10
93.4813
 20
90.4404
 11
93.4378
 21
90.5357
  0
LINE
  8
0
 10
93.4378
 20
90.5357
 11
93.3928
 21
90.6302
  0
LINE
  8
0
 10
93.3928
 20
90.6302
 11
93.346
 21
90.7239
  0
LINE
  8
0
 10
93.346
 20
90.7239
 11
93.2977
 21
90.8168
  0
LINE
  8
0
 10
93.2977
 20
90.8168
 11
93.2477
 21
90.9088
  0
LINE
  8
0
 10
93.2477
 20
90.9088
 11
93.1962
 21
91
  0
LINE
  8
0
 10
93.1962
 20
91
 11
93.143
 21
91.0902
  0
LINE
  8
0
 10
93.143
 20
91.0902
 11
93.0883
 21
91.1795
  0
LINE
  8
0
 10
93.0883
 20
91.1795
 11
93.032
 21
91.2678
  0
LINE
  8
0
 10
93.032
 20
91.2678
 11
92.9742
 21
91.3551
  0
LINE
  8
0
 10
92.9742
 20
91.3551
 11
92.9149
 21
91.4415
  0
LINE
  8
0
 10
92.9149
 20
91.4415
 11
92.8541
 21
91.5267
  0
LINE
  8
0
 10
92.8541
 20
91.5267
 11
92.7918
 21
91.6109
  0
LINE
  8
0
 10
92.7918
 20
91.6109
 11
92.7281
 21
91.694
  0
LINE
  8
0
 10
92.7281
 20
91.694
 11
92.6629
 21
91.7759
  0
LINE
  8
0
 10
92.6629
 20
91.7759
 11
92.5963
 21
91.8567
  0
LINE
  8
0
 10
92.5963
 20
91.8567
 11
92.5282
 21
91.9363
  0
LINE
  8
0
 10
92.5282
 20
91.9363
 11
92.4589
 21
92.0148
  0
LINE
  8
0
 10
92.4589
 20
92.0148
 11
92.3881
 21
92.092
  0
LINE
  8
0
 10
92.3881
 20
92.092
 11
92.316
 21
92.1679
  0
LINE
  8
0
 10
92.316
 20
92.1679
 11
92.2426
 21
92.2426
  0
LINE
  8
0
 10
92.2426
 20
92.2426
 11
92.1679
 21
92.316
  0
LINE
  8
0
 10
92.1679
 20
92.316
 11
92.092
 21
92.3881
  0
LINE
  8
0
 10
92.092
 20
92.3881
 11
92.0148
 21
92.4589
  0
LINE
  8
0
 10
92.0148
 20
92.4589
 11
91.9363
 21
92.5282
  0
LINE
  8
0
 10
91.9363
 20
92.5282
 11
91.8567
 21
92.5963
  0
LINE
  8
0
 10
91.8567
 20
92.5963
 11
91.7759
 21
92.6629
  0
LINE
  8
0
 10
91.7759
 20
92.6629
 11
91.694
 21
92.7281
  0
LINE
  8
0
 10
91.694
 20
92.7281
 11
91.6109
 21
92.7918
  0
LINE
  8
0
 10
91.6109
 20
92.7918
 11
91.5267
 21
92.8541
  0
LINE
  8
0
 10
91.5267
 20
92.8541
 11
91.4415
 21
92.9149
  0
LINE
  8
0
 10
91.4415
 20
92.9149
 11
91.3551
 21
92.9742
  0
LINE
  8
0
 10
91.3551
 20
92.9742
 11
91.2678
 21
93.032
  0
LINE
  8
0
 10
91.2678
 20
93.032
 11
91.1795
 21
93.0883
  0
LINE
  8
0
 10
91.1795
 20
93.0883
 11
91.0902
 21
93.143
  0
LINE
  8
0
 10
91.0902
 20
93.143
 11
91
 21
93.1962
  0
LINE
  8
0
 10
91
 20
93.1962
 11
90.9088
 21
93.2477
  0
LINE
  8
0
 10
90.9088
 20
93.2477
 11
90.8168
 21
93.2977
  0
LINE
  8
0
 10
90.8168
 20
93.2977
 11
90.7239
 21
93.346
  0
LINE
  8
0
 10
90.7239
 20
93.346
 11
90.6302
 21
93.3928
  0
LINE
  8
0
 10
90.6302
 20
93.3928
 11
90.5357
 21
93.4378
  0
LINE
  8
0
 10
90.5357
 20
93.4378
 11
90.4404
 21
93.4813
  0
LINE
  8
0
 10
90.4404
 20
93.4813
 11
90.3444
 21
93.523
  0
LINE
  8
0
 10
90.3444
 20
93.523
 11
90.2476
 21
93.5631
  0
LINE
  8
0
 10
90.2476
 20
93.5631
 11
90.1502
 21
93.6015
  0
LINE
  8
0
 10
90.1502
 20
93.6015
 11
90.0521
 21
93.6382
  0
LINE
  8
0
 10
90.0521
 20
93.6382
 11
89.9534
 21
93.6731
  0
LINE
  8
0
 10
89.9534
 20
93.6731
 11
89.8541
 21
93.7063
  0
LINE
  8
0
 10
89.8541
 20
93.7063
 11
89.7542
 21
93.7378
  0
LINE
  8
0
 10
89.7542
 20
93.7378
 11
89.6538
 21
93.7676
  0
LINE
  8
0
 10
89.6538
 20
93.7676
 11
89.5529
 21
93.7955
  0
LINE
  8
0
 10
89.5529
 20
93.7955
 11
89.4515
 21
93.8218
  0
LINE
  8
0
 10
89.4515
 20
93.8218
 11
89.3497
 21
93.8462
  0
LINE
  8
0
 10
89.3497
 20
93.8462
 11
89.2475
 21
93.8689
  0
LINE
  8
0
 10
89.2475
 20
93.8689
 11
89.1449
 21
93.8898
  0
LINE
  8
0
 10
89.1449
 20
93.8898
 11
89.0419
 21
93.9088
  0
LINE
  8
0
 10
89.0419
 20
93.9088
 11
88.9386
 21
93.9261
  0
LINE
  8
0
 10
88.9386
 20
93.9261
 11
88.835
 21
93.9416
  0
LINE
  8
0
 10
88.835
 20
93.9416
 11
88.7312
 21
93.9553
  0
LINE
  8
0
 10
88.7312
 20
93.9553
 11
88.6272
 21
93.9671
  0
LINE
  8
0
 10
88.6272
 20
93.9671
 11
88.5229
 21
93.9772
  0
LINE
  8
0
 10
88.5229
 20
93.9772
 11
88.4185
 21
93.9854
  0
LINE
  8
0
 10
88.4185
 20
93.9854
 11
88.314
 21
93.9918
  0
LINE
  8
0
 10
88.314
 20
93.9918
 11
88.2094
 21
93.9963
  0
LINE
  8
0
 10
88.2094
 20
93.9963
 11
88.1047
 21
93.9991
  0
LINE
  8
0
 10
88.1047
 20
93.9991
 11
88
 21
94
  0
LINE
  8
0
 10
88
 20
94
 11
6
 21
94
  0
LINE
  8
0
 10
6
 20
94
 11
5.89528
 21
93.9991
  0
LINE
  8
0
 10
5.89528
 20
93.9991
 11
5.79059
 21
93.9963
  0
LINE
  8
0
 10
5.79059
 20
93.9963
 11
5.68597
 21
93.9918
  0
LINE
  8
0
 10
5.68597
 20
93.9918
 11
5.58145
 21
93.9854
  0
LINE
  8
0
 10
5.58145
 20
93.9854
 11
5.47705
 21
93.9772
  0
LINE
  8
0
 10
5.47705
 20
93.9772
 11
5.37282
 21
93.9671
  0
LINE
  8
0
 10
5.37282
 20
93.9671
 11
5.26878
 21
93.9553
  0
LINE
  8
0
 10
5.26878
 20
93.9553
 11
5.16495
 21
93.9416
  0
LINE
  8
0
 10
5.16495
 20
93.9416
 11
5.06139
 21
93.9261
  0
LINE
  8
0
 10
5.06139
 20
93.9261
 11
4.9581
 21
93.9088
  0
LINE
  8
0
 10
4.9581
 20
93.9088
 11
4.85513
 21
93.8898
  0
LINE
  8
0
 10
4.85513
 20
93.8898
 11
4.75252
 21
93.8689
  0
LINE
  8
0
 10
4.75252
 20
93.8689
 11
4.65028
 21
93.8462
  0
LINE
  8
0
 10
4.65028
 20
93.8462
 11
4.54846
 21
93.8218
  0
LINE
  8
0
 10
4.54846
 20
93.8218
 11
4.44708
 21
93.7955
  0
LINE
  8
0
 10
4.44708
 20
93.7955
 11
4.34616
 21
93.7676
  0
LINE
  8
0
 10
4.34616
 20
93.7676
 11
4.24576
 21
93.7378
  0
LINE
  8
0
 10
4.24576
 20
93.7378
 11
4.14589
 21
93.7063
  0
LINE
  8
0
 10
4.14589
 20
93.7063
 11
4.04659
 21
93.6731
  0
LINE
  8
0
 10
4.04659
 20
93.6731
 11
3.94788
 21
93.6382
  0
LINE
  8
0
 10
3.94788
 20
93.6382
 11
3.84978
 21
93.6015
  0
LINE
  8
0
 10
3.84978
 20
93.6015
 11
3.75235
 21
93.5631
  0
LINE
  8
0
 10
3.75235
 20
93.5631
 11
3.65561
 21
93.523
  0
LINE
  8
0
 10
3.65561
 20
93.523
 11
3.55957
 21
93.4813
  0
LINE
  8
0
 10
3.55957
 20
93.4813
 11
3.46428
 21
93.4378
  0
LINE
  8
0
 10
3.46428
 20
93.4378
 11
3.36977
 21
93.3928
  0
LINE
  8
0
 10
3.36977
 20
93.3928
 11
3.27605
 21
93.346
  0
LINE
  8
0
 10
3.27605
 20
93.346
 11
3.18317
 21
93.2977
  0
LINE
  8
0
 10
3.18317
 20
93.2977
 11
3.09114
 21
93.2477
  0
LINE
  8
0
 10
3.09114
 20
93.2477
 11
3
 21
93.1962
  0
LINE
  8
0
 10
3
 20
93.1962
 11
2.90976
 21
93.143
  0
LINE
  8
0
 10
2.90976
 20
93.143
 11
2.82048
 21
93.0883
  0
LINE
  8
0
 10
2.82048
 20
93.0883
 11
2.73216
 21
93.032
  0
LINE
  8
0
 10
2.73216
 20
93.032
 11
2.64484
 21
92.9742
  0
LINE
  8
0
 10
2.64484
 20
92.9742
 11
2.55853
 21
92.9149
  0
LINE
  8
0
 10
2.55853
 20
92.9149
 11
2.47328
 21
92.8541
  0
LINE
  8
0
 10
2.47328
 20
92.8541
 11
2.3891
 21
92.7918
  0
LINE
  8
0
 10
2.3891
 20
92.7918
 11
2.30603
 21
92.7281
  0
LINE
  8
0
 10
2.30603
 20
92.7281
 11
2.22408
 21
92.6629
  0
LINE
  8
0
 10
2.22408
 20
92.6629
 11
2.14326
 21
92.5963
  0
LINE
  8
0
 10
2.14326
 20
92.5963
 11
2.06364
 21
92.5282
  0
LINE
  8
0
 10
2.06364
 20
92.5282
 11
1.98521
 21
92.4589
  0
LINE
  8
0
 10
1.98521
 20
92.4589
 11
1.908
 21
92.3881
  0
LINE
  8
0
 10
1.908
 20
92.3881
 11
1.83205
 21
92.316
  0
LINE
  8
0
 10
1.83205
 20
92.316
 11
1.75735
 21
92.2426
  0
LINE
  8
0
 10
1.75735
 20
92.2426
 11
1.68396
 21
92.1679
  0
LINE
  8
0
 10
1.68396
 20
92.1679
 11
1.61188
 21
92.092
  0
LINE
  8
0
 10
1.61188
 20
92.092
 11
1.54112
 21
92.0148
  0
LINE
  8
0
 10
1.54112
 20
92.0148
 11
1.47174
 21
91.9363
  0
LINE
  8
0
 10
1.47174
 20
91.9363
 11
1.40373
 21
91.8567
  0
LINE
  8
0
 10
1.40373
 20
91.8567
 11
1.33711
 21
91.7759
  0
LINE
  8
0
 10
1.33711
 20
91.7759
 11
1.27193
 21
91.694
  0
LINE
  8
0
 10
1.27193
 20
91.694
 11
1.20818
 21
91.6109
  0
LINE
  8
0
 10
1.20818
 20
91.6109
 11
1.14589
 21
91.5267
  0
LINE
  8
0
 10
1.14589
 20
91.5267
 11
1.08508
 21
91.4415
  0
LINE
  8
0
 10
1.08508
 20
91.4415
 11
1.02577
 21
91.3551
  0
LINE
  8
0
 10
1.02577
 20
91.3551
 11
0.967972
 21
91.2678
  0
LINE
  8
0
 10
0.967972
 20
91.2678
 11
0.911697
 21
91.1795
  0
LINE
  8
0
 10
0.911697
 20
91.1795
 11
0.856995
 21
91.0902
  0
LINE
  8
0
 10
0.856995
 20
91.0902
 11
0.803833
 21
91
  0
LINE
  8
0
 10
0.803833
 20
91
 11
0.752274
 21
90.9088
  0
LINE
  8
0
 10
0.752274
 20
90.9088
 11
0.702301
 21
90.8168
  0
LINE
  8
0
 10
0.702301
 20
90.8168
 11
0.653946
 21
90.7239
  0
LINE
  8
0
 10
0.653946
 20
90.7239
 11
0.607224
 21
90.6302
  0
LINE
  8
0
 10
0.607224
 20
90.6302
 11
0.562149
 21
90.5357
  0
LINE
  8
0
 10
0.562149
 20
90.5357
 11
0.518723
 21
90.4404
  0
LINE
  8
0
 10
0.518723
 20
90.4404
 11
0.476959
 21
90.3444
  0
LINE
  8
0
 10
0.476959
 20
90.3444
 11
0.43689
 21
90.2476
  0
LINE
  8
0
 10
0.43689
 20
90.2476
 11
0.398514
 21
90.1502
  0
LINE
  8
0
 10
0.398514
 20
90.1502
 11
0.361832
 21
90.0521
  0
LINE
  8
0
 10
0.361832
 20
90.0521
 11
0.326874
 21
89.9534
  0
LINE
  8
0
 10
0.326874
 20
89.9534
 11
0.293655
 21
89.8541
  0
LINE
  8
0
 10
0.293655
 20
89.8541
 11
0.262161
 21
89.7542
  0
LINE
  8
0
 10
0.262161
 20
89.7542
 11
0.232422
 21
89.6538
  0
LINE
  8
0
 10
0.232422
 20
89.6538
 11
0.204437
 21
89.5529
  0
LINE
  8
0
 10
0.204437
 20
89.5529
 11
0.178223
 21
89.4515
  0
LINE
  8
0
 10
0.178223
 20
89.4515
 11
0.153778
 21
89.3497
  0
LINE
  8
0
 10
0.153778
 20
89.3497
 11
0.131104
 21
89.2475
  0
LINE
  8
0
 10
0.131104
 20
89.2475
 11
0.110229
 21
89.1449
  0
LINE
  8
0
 10
0.110229
 20
89.1449
 11
0.0911407
 21
89.0419
  0
LINE
  8
0
 10
0.0911407
 20
89.0419
 11
0.0738678
 21
88.9386
  0
LINE
  8
0
 10
0.0738678
 20
88.9386
 11
0.0583801
 21
88.835
  0
LINE
  8
0
 10
0.0583801
 20
88.835
 11
0.0447083
 21
88.7312
  0
LINE
  8
0
 10
0.0447083
 20
88.7312
 11
0.0328674
 21
88.6272
  0
LINE
  8
0
 10
0.0328674
 20
88.6272
 11
0.0228271
 21
88.5229
  0
LINE
  8
0
 10
0.0228271
 20
88.5229
 11
0.0146027
 21
88.4185
  0
LINE
  8
0
 10
0.0146027
 20
88.4185
 11
0.00820923
 21
88.314
  0
LINE
  8
0
 10
0.00820923
 20
88.314
 11
0.00364685
 21
88.2094
  0
LINE
  8
0
 10
0.00364685
 20
88.2094
 11
0.000900269
 21
88.1047
  0
LINE
  8
0
 10
0.000900269
 20
88.1047
 11
0
 21
88
  0
LINE
  8
0
 10
0
 20
88
 11
0
 21
6
  0
LINE
  8
0
 10
0
 20
6
 11
0.000900269
 21
5.89528
  0
LINE
  8
0
 10
0.000900269
 20
5.89528
 11
0.00364685
 21
5.79059
  0
LINE
  8
0
 10
0.00364685
 20
5.79059
 11
0.00820923
 21
5.68597
  0
LINE
  8
0
 10
0.00820923
 20
5.68597
 11
0.0146027
 21
5.58145
  0
LINE
  8
0
 10
0.0146027
 20
5.58145
 11
0.0228271
 21
5.47705
  0
LINE
  8
0
 10
0.0228271
 20
5.47705
 11
0.0328674
 21
5.37282
  0
LINE
  8
0
 10
0.0328674
 20
5.37282
 11
0.0447083
 21
5.26878
  0
LINE
  8
0
 10
0.0447083
 20
5.26878
 11
0.0583801
 21
5.16495
  0
LINE
  8
0
 10
0.0583801
 20
5.16495
 11
0.0738678
 21
5.06139
  0
LINE
  8
0
 10
0.0738678
 20
5.06139
 11
0.0911407
 21
4.9581
  0
LINE
  8
0
 10
0.0911407
 20
4.9581
 11
0.110229
 21
4.85513
  0
LINE
  8
0
 10
0.110229
 20
4.85513
 11
0.131104
 21
4.75252
  0
LINE
  8
0
 10
0.131104
 20
4.75252
 11
0.153778
 21
4.65028
  0
LINE
  8
0
 10
0.153778
 20
4.65028
 11
0.178223
 21
4.54846
  0
LINE
  8
0
 10
0.178223
 20
4.54846
 11
0.204437
 21
4.44708
  0
LINE
  8
0
 10
0.204437
 20
4.44708
 11
0.232422
 21
4.34616
  0
LINE
  8
0
 10
0.232422
 20
4.34616
 11
0.262161
 21
4.24576
  0
LINE
  8
0
 10
0.262161
 20
4.24576
 11
0.293655
 21
4.14589
  0
LINE
  8
0
 10
0.293655
 20
4.14589
 11
0.326874
 21
4.04659
  0
LINE
  8
0
 10
0.326874
 20
4.04659
 11
0.361832
 21
3.94788
  0
LINE
  8
0
 10
0.361832
 20
3.94788
 11
0.398514
 21
3.84978
  0
LINE
  8
0
 10
0.398514
 20
3.84978
 11
0.43689
 21
3.75235
  0
LINE
  8
0
 10
0.43689
 20
3.75235
 11
0.476959
 21
3.65561
  0
LINE
  8
0
 10
0.476959
 20
3.65561
 11
0.518723
 21
3.55957
  0
LINE
  8
0
 10
0.518723
 20
3.55957
 11
0.562149
 21
3.46428
  0
LINE
  8
0
 10
0.562149
 20
3.46428
 11
0.607224
 21
3.36977
  0
LINE
  8
0
 10
0.607224
 20
3.36977
 11
0.653946
 21
3.27605
  0
LINE
  8
0
 10
0.653946
 20
3.27605
 11
0.702301
 21
3.18317
  0
LINE
  8
0
 10
0.702301
 20
3.18317
 11
0.752274
 21
3.09114
  0
LINE
  8
0
 10
0.752274
 20
3.09114
 11
0.803833
 21
3
  0
LINE
  8
0
 10
0.803833
 20
3
 11
0.856995
 21
2.90976
  0
LINE
  8
0
 10
0.856995
 20
2.90976
 11
0.911697
 21
2.82048
  0
LINE
  8
0
 10
0.911697
 20
2.82048
 11
0.967972
 21
2.73216
  0
LINE
  8
0
 10
0.967972
 20
2.73216
 11
1.02577
 21
2.64484
  0
LINE
  8
0
 10
1.02577
 20
2.64484
 11
1.08508
 21
2.55853
  0
LINE
  8
0
 10
1.08508
 20
2.55853
 11
1.14589
 21
2.47328
  0
LINE
  8
0
 10
1.14589
 20
2.47328
 11
1.20818
 21
2.3891
  0
LINE
  8
0
 10
1.20818
 20
2.3891
 11
1.27193
 21
2.30603
  0
LINE
  8
0
 10
1.27193
 20
2.30603
 11
1.33711
 21
2.22408
  0
LINE
  8
0
 10
1.33711
 20
2.22408
 11
1.40373
 21
2.14326
  0
LINE
  8
0
 10
1.40373
 20
2.14326
 11
1.47174
 21
2.06364
  0
LINE
  8
0
 10
1.47174
 20
2.06364
 11
1.54112
 21
1.98521
  0
LINE
  8
0
 10
1.54112
 20
1.98521
 11
1.61188
 21
1.908
  0
LINE
  8
0
 10
1.61188
 20
1.908
 11
1.68396
 21
1.83205
  0
LINE
  8
0
 10
1.68396
 20
1.83205
 11
1.75735
 21
1.75735
  0
LINE
  8
0
 10
1.75735
 20
1.75735
 11
1.83205
 21
1.68396
  0
LINE
  8
0
 10
1.83205
 20
1.68396
 11
1.908
 21
1.61188
  0
LINE
  8
0
 10
1.908
 20
1.61188
 11
1.98521
 21
1.54112
  0
LINE
  8
0
 10
1.98521
 20
1.54112
 11
2.06364
 21
1.47174
  0
LINE
  8
0
 10
2.06364
 20
1.47174
 11
2.14326
 21
1.40373
  0
LINE
  8
0
 10
2.14326
 20
1.40373
 11
2.22408
 21
1.33711
  0
LINE
  8
0
 10
2.22408
 20
1.33711
 11
2.30603
 21
1.27193
  0
LINE
  8
0
 10
2.30603
 20
1.27193
 11
2.3891
 21
1.20818
  0
LINE
  8
0
 10
2.3891
 20
1.20818
 11
2.47328
 21
1.14589
  0
LINE
  8
0
 10
2.47328
 20
1.14589
 11
2.55853
 21
1.08508
  0
LINE
  8
0
 10
2.55853
 20
1.08508
 11
2.64484
 21
1.02577
  0
LINE
  8
0
 10
2.64484
 20
1.02577
 11
2.73216
 21
0.967972
  0
LINE
  8
0
 10
2.73216
 20
0.967972
 11
2.82048
 21
0.911697
  0
LINE
  8
0
 10
2.82048
 20
0.911697
 11
2.90976
 21
0.856995
  0
LINE
  8
0
 10
2.90976
 20
0.856995
 11
3
 21
0.803833
  0
LINE
  8
0
 10
3
 20
0.803833
 11
3.09114
 21
0.752274
  0
LINE
  8
0
 10
3.09114
 20
0.752274
 11
3.18317
 21
0.702301
  0
LINE
  8
0
 10
3.18317
 20
0.702301
 11
3.27605
 21
0.653946
  0
LINE
  8
0
 10
3.27605
 20
0.653946
 11
3.36977
 21
0.607224
  0
LINE
  8
0
 10
3.36977
 20
0.607224
 11
3.46428
 21
0.562149
  0
LINE
  8
0
 10
3.46428
 20
0.562149
 11
3.55957
 21
0.518723
  0
LINE
  8
0
 10
3.55957
 20
0.518723
 11
3.65561
 21
0.476959
  0
LINE
  8
0
 10
3.65561
 20
0.476959
 11
3.75235
 21
0.43689
  0
LINE
  8
0
 10
3.75235
 20
0.43689
 11
3.84978
 21
0.398514
  0
LINE
  8
0
 10
3.84978
 20
0.398514
 11
3.94788
 21
0.361832
  0
LINE
  8
0
 10
3.94788
 20
0.361832
 11
4.04659
 21
0.326874
  0
LINE
  8
0
 10
4.04659
 20
0.326874
 11
4.14589
 21
0.293655
  0
LINE
  8
0
 10
4.14589
 20
0.293655
 11
4.24576
 21
0.262161
  0
LINE
  8
0
 10
4.24576
 20
0.262161
 11
4.34616
 21
0.232422
  0
LINE
  8
0
 10
4.34616
 20
0.232422
 11
4.44708
 21
0.204437
  0
LINE
  8
0
 10
4.44708
 20
0.204437
 11
4.54846
 21
0.178223
  0
LINE
  8
0
 10
4.54846
 20
0.178223
 11
4.65028
 21
0.153778
  0
LINE
  8
0
 10
4.65028
 20
0.153778
 11
4.75252
 21
0.131104
  0
LINE
  8
0
 10
4.75252
 20
0.131104
 11
4.85513
 21
0.110229
  0
LINE
  8
0
 10
4.85513
 20
0.110229
 11
4.9581
 21
0.0911407
  0
LINE
  8
0
 10
4.9581
 20
0.0911407
 11
5.06139
 21
0.0738678
  0
LINE
  8
0
 10
5.06139
 20
0.0738678
 11
5.16495
 21
0.0583801
  0
LINE
  8
0
 10
5.16495
 20
0.0583801
 11
5.26878
 21
0.0447083
  0
LINE
  8
0
 10
5.26878
 20
0.0447083
 11
5.37282
 21
0.0328674
  0
LINE
  8
0
 10
5.37282
 20
0.0328674
 11
5.47705
 21
0.0228271
  0
LINE
  8
0
 10
5.47705
 20
0.0228271
 11
5.58145
 21
0.0146027
  0
LINE
  8
0
 10
5.58145
 20
0.0146027
 11
5.68597
 21
0.00820923
  0
LINE
  8
0
 10
5.68597
 20
0.00820923
 11
5.79059
 21
0.00364685
  0
LINE
  8
0
 10
5.79059
 20
0.00364685
 11
5.89528
 21
0.000900269
  0
LINE
  8
0
 10
5.89528
 20
0.000900269
 11
6
 21
0
  0
LINE
  8
0
 10
6
 20
0
 11
88
 21
0
  0
LINE
  8
0
 10
88
 20
0
 11
88.1047
 21
0.000900269
  0
LINE
  8
0
 10
12.9782
 20
79.7502
 11
12.9564
 21
79.7507
  0
LINE
  8
0
 10
12.9564
 20
79.7507
 11
12.9346
 21
79.7517
  0
LINE
  8
0
 10
12.9346
 20
79.7517
 11
12.9128
 21
79.753
  0
LINE
  8
0
 10
12.9128
 20
79.753
 11
12.8911
 21
79.7547
  0
LINE
  8
0
 10
12.8911
 20
79.7547
 11
12.8693
 21
79.7568
  0
LINE
  8
0
 10
12.8693
 20
79.7568
 11
12.8477
 21
79.7593
  0
LINE
  8
0
 10
12.8477
 20
79.7593
 11
12.826
 21
79.7622
  0
LINE
  8
0
 10
12.826
 20
79.7622
 11
12.8044
 21
79.7654
  0
LINE
  8
0
 10
12.8044
 20
79.7654
 11
12.7829
 21
79.769
  0
LINE
  8
0
 10
12.7829
 20
79.769
 11
12.7615
 21
79.773
  0
LINE
  8
0
 10
12.7615
 20
79.773
 11
12.7401
 21
79.7773
  0
LINE
  8
0
 10
12.7401
 20
79.7773
 11
12.7188
 21
79.782
  0
LINE
  8
0
 10
12.7188
 20
79.782
 11
12.6976
 21
79.7871
  0
LINE
  8
0
 10
12.6976
 20
79.7871
 11
12.6765
 21
79.7926
  0
LINE
  8
0
 10
12.6765
 20
79.7926
 11
12.6554
 21
79.7984
  0
LINE
  8
0
 10
12.6554
 20
79.7984
 11
12.6345
 21
79.8046
  0
LINE
  8
0
 10
12.6345
 20
79.8046
 11
12.6137
 21
79.8112
  0
LINE
  8
0
 10
12.6137
 20
79.8112
 11
12.593
 21
79.8181
  0
LINE
  8
0
 10
12.593
 20
79.8181
 11
12.5725
 21
79.8254
  0
LINE
  8
0
 10
12.5725
 20
79.8254
 11
12.552
 21
79.833
  0
LINE
  8
0
 10
12.552
 20
79.833
 11
12.5317
 21
79.841
  0
LINE
  8
0
 10
12.5317
 20
79.841
 11
12.5116
 21
79.8494
  0
LINE
  8
0
 10
12.5116
 20
79.8494
 11
12.4916
 21
79.8581
  0
LINE
  8
0
 10
12.4916
 20
79.8581
 11
12.4717
 21
79.8671
  0
LINE
  8
0
 10
12.4717
 20
79.8671
 11
12.452
 21
79.8765
  0
LINE
  8
0
 10
12.452
 20
79.8765
 11
12.4325
 21
79.8862
  0
LINE
  8
0
 10
12.4325
 20
79.8862
 11
12.4131
 21
79.8963
  0
LINE
  8
0
 10
12.4131
 20
79.8963
 11
12.394
 21
79.9067
  0
LINE
  8
0
 10
12.394
 20
79.9067
 11
12.375
 21
79.9175
  0
LINE
  8
0
 10
12.375
 20
79.9175
 11
12.3562
 21
79.9285
  0
LINE
  8
0
 10
12.3562
 20
79.9285
 11
12.3376
 21
79.9399
  0
LINE
  8
0
 10
12.3376
 20
79.9399
 11
12.3192
 21
79.9517
  0
LINE
  8
0
 10
12.3192
 20
79.9517
 11
12.301
 21
79.9637
  0
LINE
  8
0
 10
12.301
 20
79.9637
 11
12.283
 21
79.9761
  0
LINE
  8
0
 10
12.283
 20
79.9761
 11
12.2653
 21
79.9887
  0
LINE
  8
0
 10
12.2653
 20
79.9887
 11
12.2477
 21
80.0017
  0
LINE
  8
0
 10
12.2477
 20
80.0017
 11
12.2304
 21
80.015
  0
LINE
  8
0
 10
12.2304
 20
80.015
 11
12.2133
 21
80.0286
  0
LINE
  8
0
 10
12.2133
 20
80.0286
 11
12.1965
 21
80.0424
  0
LINE
  8
0
 10
12.1965
 20
80.0424
 11
12.1799
 21
80.0566
  0
LINE
  8
0
 10
12.1799
 20
80.0566
 11
12.1636
 21
80.0711
  0
LINE
  8
0
 10
12.1636
 20
80.0711
 11
12.1475
 21
80.0858
  0
LINE
  8
0
 10
12.1475
 20
80.0858
 11
12.1317
 21
80.1008
  0
LINE
  8
0
 10
12.1317
 20
80.1008
 11
12.1161
 21
80.1161
  0
LINE
  8
0
 10
12.1161
 20
80.1161
 11
12.1008
 21
80.1317
  0
LINE
  8
0
 10
12.1008
 20
80.1317
 11
12.0858
 21
80.1475
  0
LINE
  8
0
 10
12.0858
 20
80.1475
 11
12.0711
 21
80.1636
  0
LINE
  8
0
 10
12.0711
 20
80.1636
 11
12.0566
 21
80.1799
  0
LINE
  8
0
 10
12.0566
 20
80.1799
 11
12.0424
 21
80.1965
  0
LINE
  8
0
 10
12.0424
 20
80.1965
 11
12.0286
 21
80.2133
  0
LINE
  8
0
 10
12.0286
 20
80.2133
 11
12.015
 21
80.2304
  0
LINE
  8
0
 10
12.015
 20
80.2304
 11
12.0017
 21
80.2477
  0
LINE
  8
0
 10
12.0017
 20
80.2477
 11
11.9887
 21
80.2653
  0
LINE
  8
0
 10
11.9887
 20
80.2653
 11
11.9761
 21
80.283
  0
LINE
  8
0
 10
11.9761
 20
80.283
 11
11.9637
 21
80.301
  0
LINE
  8
0
 10
11.9637
 20
80.301
 11
11.9517
 21
80.3192
  0
LINE
  8
0
 10
11.9517
 20
80.3192
 11
11.9399
 21
80.3376
  0
LINE
  8
0
 10
11.9399
 20
80.3376
 11
11.9285
 21
80.3562
  0
LINE
  8
0
 10
11.9285
 20
80.3562
 11
11.9175
 21
80.375
  0
LINE
  8
0
 10
11.9175
 20
80.375
 11
11.9067
 21
80.394
  0
LINE
  8
0
 10
11.9067
 20
80.394
 11
11.8963
 21
80.4131
  0
LINE
  8
0
 10
11.8963
 20
80.4131
 11
11.8862
 21
80.4325
  0
LINE
  8
0
 10
11.8862
 20
80.4325
 11
11.8765
 21
80.452
  0
LINE
  8
0
 10
11.8765
 20
80.452
 11
11.8671
 21
80.4717
  0
LINE
  8
0
 10
11.8671
 20
80.4717
 11
11.8581
 21
80.4916
  0
LINE
  8
0
 10
11.8581
 20
80.4916
 11
11.8494
 21
80.5116
  0
LINE
  8
0
 10
11.8494
 20
80.5116
 11
11.841
 21
80.5317
  0
LINE
  8
0
 10
11.841
 20
80.5317
 11
11.833
 21
80.552
  0
LINE
  8
0
 10
11.833
 20
80.552
 11
11.8254
 21
80.5725
  0
LINE
  8
0
 10
11.8254
 20
80.5725
 11
11.8181
 21
80.593
  0
LINE
  8
0
 10
11.8181
 20
80.593
 11
11.8112
 21
80.6137
  0
LINE
  8
0
 10
11.8112
 20
80.6137
 11
11.8046
 21
80.6345
  0
LINE
  8
0
 10
11.8046
 20
80.6345
 11
11.7984
 21
80.6554
  0
LINE
  8
0
 10
11.7984
 20
80.6554
 11
11.7926
 21
80.6765
  0
LINE
  8
0
 10
11.7926
 20
80.6765
 11
11.7871
 21
80.6976
  0
LINE
  8
0
 10
11.7871
 20
80.6976
 11
11.782
 21
80.7188
  0
LINE
  8
0
 10
11.782
 20
80.7188
 11
11.7773
 21
80.7401
  0
LINE
  8
0
 10
11.7773
 20
80.7401
 11
11.773
 21
80.7615
  0
LINE
  8
0
 10
11.773
 20
80.7615
 11
11.769
 21
80.7829
  0
LINE
  8
0
 10
11.769
 20
80.7829
 11
11.7654
 21
80.8044
  0
LINE
  8
0
 10
11.7654
 20
80.8044
 11
11.7622
 21
80.826
  0
LINE
  8
0
 10
11.7622
 20
80.826
 11
11.7593
 21
80.8477
  0
LINE
  8
0
 10
11.7593
 20
80.8477
 11
11.7568
 21
80.8693
  0
LINE
  8
0
 10
11.7568
 20
80.8693
 11
11.7547
 21
80.8911
  0
LINE
  8
0
 10
11.7547
 20
80.8911
 11
11.753
 21
80.9128
  0
LINE
  8
0
 10
11.753
 20
80.9128
 11
11.7517
 21
80.9346
  0
LINE
  8
0
 10
11.7517
 20
80.9346
 11
11.7507
 21
80.9564
  0
LINE
  8
0
 10
11.7507
 20
80.9564
 11
11.7502
 21
80.9782
  0
LINE
  8
0
 10
11.7502
 20
80.9782
 11
11.75
 21
81
  0
LINE
  8
0
 10
11.75
 20
81
 11
11.7502
 21
81.0218
  0
LINE
  8
0
 10
11.7502
 20
81.0218
 11
11.7507
 21
81.0436
  0
LINE
  8
0
 10
11.7507
 20
81.0436
 11
11.7517
 21
81.0654
  0
LINE
  8
0
 10
11.7517
 20
81.0654
 11
11.753
 21
81.0872
  0
LINE
  8
0
 10
11.753
 20
81.0872
 11
11.7547
 21
81.1089
  0
LINE
  8
0
 10
11.7547
 20
81.1089
 11
11.7568
 21
81.1306
  0
LINE
  8
0
 10
11.7568
 20
81.1306
 11
11.7593
 21
81.1523
  0
LINE
  8
0
 10
11.7593
 20
81.1523
 11
11.7622
 21
81.174
  0
LINE
  8
0
 10
11.7622
 20
81.174
 11
11.7654
 21
81.1955
  0
LINE
  8
0
 10
11.7654
 20
81.1955
 11
11.769
 21
81.2171
  0
LINE
  8
0
 10
11.769
 20
81.2171
 11
11.773
 21
81.2385
  0
LINE
  8
0
 10
11.773
 20
81.2385
 11
11.7773
 21
81.2599
  0
LINE
  8
0
 10
11.7773
 20
81.2599
 11
11.782
 21
81.2812
  0
LINE
  8
0
 10
11.782
 20
81.2812
 11
11.7871
 21
81.3024
  0
LINE
  8
0
 10
11.7871
 20
81.3024
 11
11.7926
 21
81.3235
  0
LINE
  8
0
 10
11.7926
 20
81.3235
 11
11.7984
 21
81.3445
  0
LINE
  8
0
 10
11.7984
 20
81.3445
 11
11.8046
 21
81.3655
  0
LINE
  8
0
 10
11.8046
 20
81.3655
 11
11.8112
 21
81.3863
  0
LINE
  8
0
 10
11.8112
 20
81.3863
 11
11.8181
 21
81.407
  0
LINE
  8
0
 10
11.8181
 20
81.407
 11
11.8254
 21
81.4275
  0
LINE
  8
0
 10
11.8254
 20
81.4275
 11
11.833
 21
81.448
  0
LINE
  8
0
 10
11.833
 20
81.448
 11
11.841
 21
81.4682
  0
LINE
  8
0
 10
11.841
 20
81.4682
 11
11.8494
 21
81.4884
  0
LINE
  8
0
 10
11.8494
 20
81.4884
 11
11.8581
 21
81.5084
  0
LINE
  8
0
 10
11.8581
 20
81.5084
 11
11.8671
 21
81.5283
  0
LINE
  8
0
 10
11.8671
 20
81.5283
 11
11.8765
 21
81.548
  0
LINE
  8
0
 10
11.8765
 20
81.548
 11
11.8862
 21
81.5675
  0
LINE
  8
0
 10
11.8862
 20
81.5675
 11
11.8963
 21
81.5868
  0
LINE
  8
0
 10
11.8963
 20
81.5868
 11
11.9067
 21
81.606
  0
LINE
  8
0
 10
11.9067
 20
81.606
 11
11.9175
 21
81.625
  0
LINE
  8
0
 10
11.9175
 20
81.625
 11
11.9285
 21
81.6438
  0
LINE
  8
0
 10
11.9285
 20
81.6438
 11
11.9399
 21
81.6624
  0
LINE
  8
0
 10
11.9399
 20
81.6624
 11
11.9517
 21
81.6808
  0
LINE
  8
0
 10
11.9517
 20
81.6808
 11
11.9637
 21
81.699
  0
LINE
  8
0
 10
11.9637
 20
81.699
 11
11.9761
 21
81.717
  0
LINE
  8
0
 10
11.9761
 20
81.717
 11
11.9887
 21
81.7347
  0
LINE
  8
0
 10
11.9887
 20
81.7347
 11
12.0017
 21
81.7523
  0
LINE
  8
0
 10
12.0017
 20
81.7523
 11
12.015
 21
81.7696
  0
LINE
  8
0
 10
12.015
 20
81.7696
 11
12.0286
 21
81.7866
  0
LINE
  8
0
 10
12.0286
 20
81.7866
 11
12.0424
 21
81.8035
  0
LINE
  8
0
 10
12.0424
 20
81.8035
 11
12.0566
 21
81.8201
  0
LINE
  8
0
 10
12.0566
 20
81.8201
 11
12.0711
 21
81.8364
  0
LINE
  8
0
 10
12.0711
 20
81.8364
 11
12.0858
 21
81.8525
  0
LINE
  8
0
 10
12.0858
 20
81.8525
 11
12.1008
 21
81.8683
  0
LINE
  8
0
 10
12.1008
 20
81.8683
 11
12.1161
 21
81.8839
  0
LINE
  8
0
 10
12.1161
 20
81.8839
 11
12.1317
 21
81.8992
  0
LINE
  8
0
 10
12.1317
 20
81.8992
 11
12.1475
 21
81.9142
  0
LINE
  8
0
 10
12.1475
 20
81.9142
 11
12.1636
 21
81.9289
  0
LINE
  8
0
 10
12.1636
 20
81.9289
 11
12.1799
 21
81.9434
  0
LINE
  8
0
 10
12.1799
 20
81.9434
 11
12.1965
 21
81.9576
  0
LINE
  8
0
 10
12.1965
 20
81.9576
 11
12.2133
 21
81.9714
  0
LINE
  8
0
 10
12.2133
 20
81.9714
 11
12.2304
 21
81.985
  0
LINE
  8
0
 10
12.2304
 20
81.985
 11
12.2477
 21
81.9983
  0
LINE
  8
0
 10
12.2477
 20
81.9983
 11
12.2653
 21
82.0113
  0
LINE
  8
0
 10
12.2653
 20
82.0113
 11
12.283
 21
82.0239
  0
LINE
  8
0
 10
12.283
 20
82.0239
 11
12.301
 21
82.0363
  0
LINE
  8
0
 10
12.301
 20
82.0363
 11
12.3192
 21
82.0483
  0
LINE
  8
0
 10
12.3192
 20
82.0483
 11
12.3376
 21
82.0601
  0
LINE
  8
0
 10
12.3376
 20
82.0601
 11
12.3562
 21
82.0715
  0
LINE
  8
0
 10
12.3562
 20
82.0715
 11
12.375
 21
82.0825
  0
LINE
  8
0
 10
12.375
 20
82.0825
 11
12.394
 21
82.0933
  0
LINE
  8
0
 10
12.394
 20
82.0933
 11
12.4131
 21
82.1037
  0
LINE
  8
0
 10
12.4131
 20
82.1037
 11
12.4325
 21
82.1138
  0
LINE
  8
0
 10
12.4325
 20
82.1138
 11
12.452
 21
82.1235
  0
LINE
  8
0
 10
12.452
 20
82.1235
 11
12.4717
 21
82.1329
  0
LINE
  8
0
 10
12.4717
 20
82.1329
 11
12.4916
 21
82.1419
  0
LINE
  8
0
 10
12.4916
 20
82.1419
 11
12.5116
 21
82.1506
  0
LINE
  8
0
 10
12.5116
 20
82.1506
 11
12.5317
 21
82.159
  0
LINE
  8
0
 10
12.5317
 20
82.159
 11
12.552
 21
82.167
  0
LINE
  8
0
 10
12.552
 20
82.167
 11
12.5725
 21
82.1746
  0
LINE
  8
0
 10
12.5725
 20
82.1746
 11
12.593
 21
82.1819
  0
LINE
  8
0
 10
12.593
 20
82.1819
 11
12.6137
 21
82.1888
  0
LINE
  8
0
 10
12.6137
 20
82.1888
 11
12.6345
 21
82.1954
  0
LINE
  8
0
 10
12.6345
 20
82.1954
 11
12.6554
 21
82.2016
  0
LINE
  8
0
 10
12.6554
 20
82.2016
 11
12.6765
 21
82.2074
  0
LINE
  8
0
 10
12.6765
 20
82.2074
 11
12.6976
 21
82.2129
  0
LINE
  8
0
 10
12.6976
 20
82.2129
 11
12.7188
 21
82.218
  0
LINE
  8
0
 10
12.7188
 20
82.218
 11
12.7401
 21
82.2227
  0
LINE
  8
0
 10
12.7401
 20
82.2227
 11
12.7615
 21
82.227
  0
LINE
  8
0
 10
12.7615
 20
82.227
 11
12.7829
 21
82.231
  0
LINE
  8
0
 10
12.7829
 20
82.231
 11
12.8044
 21
82.2346
  0
LINE
  8
0
 10
12.8044
 20
82.2346
 11
12.826
 21
82.2378
  0
LINE
  8
0
 10
12.826
 20
82.2378
 11
12.8477
 21
82.2407
  0
LINE
  8
0
 10
12.8477
 20
82.2407
 11
12.8693
 21
82.2431
  0
LINE
  8
0
 10
12.8693
 20
82.2431
 11
12.8911
 21
82.2452
  0
LINE
  8
0
 10
12.8911
 20
82.2452
 11
12.9128
 21
82.2469
  0
LINE
  8
0
 10
12.9128
 20
82.2469
 11
12.9346
 21
82.2483
  0
LINE
  8
0
 10
12.9346
 20
82.2483
 11
12.9564
 21
82.2492
  0
LINE
  8
0
 10
12.9564
 20
82.2492
 11
12.9782
 21
82.2498
  0
LINE
  8
0
 10
12.9782
 20
82.2498
 11
13
 21
82.25
  0
LINE
  8
0
 10
13
 20
82.25
 11
13.0218
 21
82.2498
  0
LINE
  8
0
 10
13.0218
 20
82.2498
 11
13.0436
 21
82.2492
  0
LINE
  8
0
 10
13.0436
 20
82.2492
 11
13.0654
 21
82.2483
  0
LINE
  8
0
 10
13.0654
 20
82.2483
 11
13.0872
 21
82.2469
  0
LINE
  8
0
 10
13.0872
 20
82.2469
 11
13.1089
 21
82.2452
  0
LINE
  8
0
 10
13.1089
 20
82.2452
 11
13.1306
 21
82.2431
  0
LINE
  8
0
 10
13.1306
 20
82.2431
 11
13.1523
 21
82.2407
  0
LINE
  8
0
 10
13.1523
 20
82.2407
 11
13.174
 21
82.2378
  0
LINE
  8
0
 10
13.174
 20
82.2378
 11
13.1955
 21
82.2346
  0
LINE
  8
0
 10
13.1955
 20
82.2346
 11
13.2171
 21
82.231
  0
LINE
  8
0
 10
13.2171
 20
82.231
 11
13.2385
 21
82.227
  0
LINE
  8
0
 10
13.2385
 20
82.227
 11
13.2599
 21
82.2227
  0
LINE
  8
0
 10
13.2599
 20
82.2227
 11
13.2812
 21
82.218
  0
LINE
  8
0
 10
13.2812
 20
82.218
 11
13.3024
 21
82.2129
  0
LINE
  8
0
 10
13.3024
 20
82.2129
 11
13.3235
 21
82.2074
  0
LINE
  8
0
 10
13.3235
 20
82.2074
 11
13.3445
 21
82.2016
  0
LINE
  8
0
 10
13.3445
 20
82.2016
 11
13.3655
 21
82.1954
  0
LINE
  8
0
 10
13.3655
 20
82.1954
 11
13.3863
 21
82.1888
  0
LINE
  8
0
 10
13.3863
 20
82.1888
 11
13.407
 21
82.1819
  0
LINE
  8
0
 10
13.407
 20
82.1819
 11
13.4275
 21
82.1746
  0
LINE
  8
0
 10
13.4275
 20
82.1746
 11
13.448
 21
82.167
  0
LINE
  8
0
 10
13.448
 20
82.167
 11
13.4682
 21
82.159
  0
LINE
  8
0
 10
13.4682
 20
82.159
 11
13.4884
 21
82.1506
  0
LINE
  8
0
 10
13.4884
 20
82.1506
 11
13.5084
 21
82.1419
  0
LINE
  8
0
 10
13.5084
 20
82.1419
 11
13.5283
 21
82.1329
  0
LINE
  8
0
 10
13.5283
 20
82.1329
 11
13.548
 21
82.1235
  0
LINE
  8
0
 10
13.548
 20
82.1235
 11
13.5675
 21
82.1138
  0
LINE
  8
0
 10
13.5675
 20
82.1138
 11
13.5868
 21
82.1037
  0
LINE
  8
0
 10
13.5868
 20
82.1037
 11
13.606
 21
82.0933
  0
LINE
  8
0
 10
13.606
 20
82.0933
 11
13.625
 21
82.0825
  0
LINE
  8
0
 10
13.625
 20
82.0825
 11
13.6438
 21
82.0715
  0
LINE
  8
0
 10
13.6438
 20
82.0715
 11
13.6624
 21
82.0601
  0
LINE
  8
0
 10
13.6624
 20
82.0601
 11
13.6808
 21
82.0483
  0
LINE
  8
0
 10
13.6808
 20
82.0483
 11
13.699
 21
82.0363
  0
LINE
  8
0
 10
13.699
 20
82.0363
 11
13.717
 21
82.0239
  0
LINE
  8
0
 10
13.717
 20
82.0239
 11
13.7347
 21
82.0113
  0
LINE
  8
0
 10
13.7347
 20
82.0113
 11
13.7523
 21
81.9983
  0
LINE
  8
0
 10
13.7523
 20
81.9983
 11
13.7696
 21
81.985
  0
LINE
  8
0
 10
13.7696
 20
81.985
 11
13.7866
 21
81.9714
  0
LINE
  8
0
 10
13.7866
 20
81.9714
 11
13.8035
 21
81.9576
  0
LINE
  8
0
 10
13.8035
 20
81.9576
 11
13.8201
 21
81.9434
  0
LINE
  8
0
 10
13.8201
 20
81.9434
 11
13.8364
 21
81.9289
  0
LINE
  8
0
 10
13.8364
 20
81.9289
 11
13.8525
 21
81.9142
  0
LINE
  8
0
 10
13.8525
 20
81.9142
 11
13.8683
 21
81.8992
  0
LINE
  8
0
 10
13.8683
 20
81.8992
 11
13.8839
 21
81.8839
  0
LINE
  8
0
 10
13.8839
 20
81.8839
 11
13.8992
 21
81.8683
  0
LINE
  8
0
 10
13.8992
 20
81.8683
 11
13.9142
 21
81.8525
  0
LINE
  8
0
 10
13.9142
 20
81.8525
 11
13.9289
 21
81.8364
  0
LINE
  8
0
 10
13.9289
 20
81.8364
 11
13.9434
 21
81.8201
  0
LINE
  8
0
 10
13.9434
 20
81.8201
 11
13.9576
 21
81.8035
  0
LINE
  8
0
 10
13.9576
 20
81.8035
 11
13.9714
 21
81.7866
  0
LINE
  8
0
 10
13.9714
 20
81.7866
 11
13.985
 21
81.7696
  0
LINE
  8
0
 10
13.985
 20
81.7696
 11
13.9983
 21
81.7523
  0
LINE
  8
0
 10
13.9983
 20
81.7523
 11
14.0113
 21
81.7347
  0
LINE
  8
0
 10
14.0113
 20
81.7347
 11
14.0239
 21
81.717
  0
LINE
  8
0
 10
14.0239
 20
81.717
 11
14.0363
 21
81.699
  0
LINE
  8
0
 10
14.0363
 20
81.699
 11
14.0483
 21
81.6808
  0
LINE
  8
0
 10
14.0483
 20
81.6808
 11
14.0601
 21
81.6624
  0
LINE
  8
0
 10
14.0601
 20
81.6624
 11
14.0715
 21
81.6438
  0
LINE
  8
0
 10
14.0715
 20
81.6438
 11
14.0825
 21
81.625
  0
LINE
  8
0
 10
14.0825
 20
81.625
 11
14.0933
 21
81.606
  0
LINE
  8
0
 10
14.0933
 20
81.606
 11
14.1037
 21
81.5868
  0
LINE
  8
0
 10
14.1037
 20
81.5868
 11
14.1138
 21
81.5675
  0
LINE
  8
0
 10
14.1138
 20
81.5675
 11
14.1235
 21
81.548
  0
LINE
  8
0
 10
14.1235
 20
81.548
 11
14.1329
 21
81.5283
  0
LINE
  8
0
 10
14.1329
 20
81.5283
 11
14.1419
 21
81.5084
  0
LINE
  8
0
 10
14.1419
 20
81.5084
 11
14.1506
 21
81.4884
  0
LINE
  8
0
 10
14.1506
 20
81.4884
 11
14.159
 21
81.4682
  0
LINE
  8
0
 10
14.159
 20
81.4682
 11
14.167
 21
81.448
  0
LINE
  8
0
 10
14.167
 20
81.448
 11
14.1746
 21
81.4275
  0
LINE
  8
0
 10
14.1746
 20
81.4275
 11
14.1819
 21
81.407
  0
LINE
  8
0
 10
14.1819
 20
81.407
 11
14.1888
 21
81.3863
  0
LINE
  8
0
 10
14.1888
 20
81.3863
 11
14.1954
 21
81.3655
  0
LINE
  8
0
 10
14.1954
 20
81.3655
 11
14.2016
 21
81.3445
  0
LINE
  8
0
 10
14.2016
 20
81.3445
 11
14.2074
 21
81.3235
  0
LINE
  8
0
 10
14.2074
 20
81.3235
 11
14.2129
 21
81.3024
  0
LINE
  8
0
 10
14.2129
 20
81.3024
 11
14.218
 21
81.2812
  0
LINE
  8
0
 10
14.218
 20
81.2812
 11
14.2227
 21
81.2599
  0
LINE
  8
0
 10
14.2227
 20
81.2599
 11
14.227
 21
81.2385
  0
LINE
  8
0
 10
14.227
 20
81.2385
 11
14.231
 21
81.2171
  0
LINE
  8
0
 10
14.231
 20
81.2171
 11
14.2346
 21
81.1955
  0
LINE
  8
0
 10
14.2346
 20
81.1955
 11
14.2378
 21
81.174
  0
LINE
  8
0
 10
14.2378
 20
81.174
 11
14.2407
 21
81.1523
  0
LINE
  8
0
 10
14.2407
 20
81.1523
 11
14.2431
 21
81.1306
  0
LINE
  8
0
 10
14.2431
 20
81.1306
 11
14.2452
 21
81.1089
  0
LINE
  8
0
 10
14.2452
 20
81.1089
 11
14.2469
 21
81.0872
  0
LINE
  8
0
 10
14.2469
 20
81.0872
 11
14.2483
 21
81.0654
  0
LINE
  8
0
 10
14.2483
 20
81.0654
 11
14.2492
 21
81.0436
  0
LINE
  8
0
 10
14.2492
 20
81.0436
 11
14.2498
 21
81.0218
  0
LINE
  8
0
 10
14.2498
 20
81.0218
 11
14.25
 21
81
  0
LINE
  8
0
 10
14.25
 20
81
 11
14.2498
 21
80.9782
  0
LINE
  8
0
 10
14.2498
 20
80.9782
 11
14.2492
 21
80.9564
  0
LINE
  8
0
 10
14.2492
 20
80.9564
 11
14.2483
 21
80.9346
  0
LINE
  8
0
 10
14.2483
 20
80.9346
 11
14.2469
 21
80.9128
  0
LINE
  8
0
 10
14.2469
 20
80.9128
 11
14.2452
 21
80.8911
  0
LINE
  8
0
 10
14.2452
 20
80.8911
 11
14.2431
 21
80.8693
  0
LINE
  8
0
 10
14.2431
 20
80.8693
 11
14.2407
 21
80.8477
  0
LINE
  8
0
 10
14.2407
 20
80.8477
 11
14.2378
 21
80.826
  0
LINE
  8
0
 10
14.2378
 20
80.826
 11
14.2346
 21
80.8044
  0
LINE
  8
0
 10
14.2346
 20
80.8044
 11
14.231
 21
80.7829
  0
LINE
  8
0
 10
14.231
 20
80.7829
 11
14.227
 21
80.7615
  0
LINE
  8
0
 10
14.227
 20
80.7615
 11
14.2227
 21
80.7401
  0
LINE
  8
0
 10
14.2227
 20
80.7401
 11
14.218
 21
80.7188
  0
LINE
  8
0
 10
14.218
 20
80.7188
 11
14.2129
 21
80.6976
  0
LINE
  8
0
 10
14.2129
 20
80.6976
 11
14.2074
 21
80.6765
  0
LINE
  8
0
 10
14.2074
 20
80.6765
 11
14.2016
 21
80.6554
  0
LINE
  8
0
 10
14.2016
 20
80.6554
 11
14.1954
 21
80.6345
  0
LINE
  8
0
 10
14.1954
 20
80.6345
 11
14.1888
 21
80.6137
  0
LINE
  8
0
 10
14.1888
 20
80.6137
 11
14.1819
 21
80.593
  0
LINE
  8
0
 10
14.1819
 20
80.593
 11
14.1746
 21
80.5725
  0
LINE
  8
0
 10
14.1746
 20
80.5725
 11
14.167
 21
80.552
  0
LINE
  8
0
 10
14.167
 20
80.552
 11
14.159
 21
80.5317
  0
LINE
  8
0
 10
14.159
 20
80.5317
 11
14.1506
 21
80.5116
  0
LINE
  8
0
 10
14.1506
 20
80.5116
 11
14.1419
 21
80.4916
  0
LINE
  8
0
 10
14.1419
 20
80.4916
 11
14.1329
 21
80.4717
  0
LINE
  8
0
 10
14.1329
 20
80.4717
 11
14.1235
 21
80.452
  0
LINE
  8
0
 10
14.1235
 20
80.452
 11
14.1138
 21
80.4325
  0
LINE
  8
0
 10
14.1138
 20
80.4325
 11
14.1037
 21
80.4131
  0
LINE
  8
0
 10
14.1037
 20
80.4131
 11
14.0933
 21
80.394
  0
LINE
  8
0
 10
14.0933
 20
80.394
 11
14.0825
 21
80.375
  0
LINE
  8
0
 10
14.0825
 20
80.375
 11
14.0715
 21
80.3562
  0
LINE
  8
0
 10
14.0715
 20
80.3562
 11
14.0601
 21
80.3376
  0
LINE
  8
0
 10
14.0601
 20
80.3376
 11
14.0483
 21
80.3192
  0
LINE
  8
0
 10
14.0483
 20
80.3192
 11
14.0363
 21
80.301
  0
LINE
  8
0
 10
14.0363
 20
80.301
 11
14.0239
 21
80.283
  0
LINE
  8
0
 10
14.0239
 20
80.283
 11
14.0113
 21
80.2653
  0
LINE
  8
0
 10
14.0113
 20
80.2653
 11
13.9983
 21
80.2477
  0
LINE
  8
0
 10
13.9983
 20
80.2477
 11
13.985
 21
80.2304
  0
LINE
  8
0
 10
13.985
 20
80.2304
 11
13.9714
 21
80.2133
  0
LINE
  8
0
 10
13.9714
 20
80.2133
 11
13.9576
 21
80.1965
  0
LINE
  8
0
 10
13.9576
 20
80.1965
 11
13.9434
 21
80.1799
  0
LINE
  8
0
 10
13.9434
 20
80.1799
 11
13.9289
 21
80.1636
  0
LINE
  8
0
 10
13.9289
 20
80.1636
 11
13.9142
 21
80.1475
  0
LINE
  8
0
 10
13.9142
 20
80.1475
 11
13.8992
 21
80.1317
  0
LINE
  8
0
 10
13.8992
 20
80.1317
 11
13.8839
 21
80.1161
  0
LINE
  8
0
 10
13.8839
 20
80.1161
 11
13.8683
 21
80.1008
  0
LINE
  8
0
 10
13.8683
 20
80.1008
 11
13.8525
 21
80.0858
  0
LINE
  8
0
 10
13.8525
 20
80.0858
 11
13.8364
 21
80.0711
  0
LINE
  8
0
 10
13.8364
 20
80.0711
 11
13.8201
 21
80.0566
  0
LINE
  8
0
 10
13.8201
 20
80.0566
 11
13.8035
 21
80.0424
  0
LINE
  8
0
 10
13.8035
 20
80.0424
 11
13.7866
 21
80.0286
  0
LINE
  8
0
 10
13.7866
 20
80.0286
 11
13.7696
 21
80.015
  0
LINE
  8
0
 10
13.7696
 20
80.015
 11
13.7523
 21
80.0017
  0
LINE
  8
0
 10
13.7523
 20
80.0017
 11
13.7347
 21
79.9887
  0
LINE
  8
0
 10
13.7347
 20
79.9887
 11
13.717
 21
79.9761
  0
LINE
  8
0
 10
13.717
 20
79.9761
 11
13.699
 21
79.9637
  0
LINE
  8
0
 10
13.699
 20
79.9637
 11
13.6808
 21
79.9517
  0
LINE
  8
0
 10
13.6808
 20
79.9517
 11
13.6624
 21
79.9399
  0
LINE
  8
0
 10
13.6624
 20
79.9399
 11
13.6438
 21
79.9285
  0
LINE
  8
0
 10
13.6438
 20
79.9285
 11
13.625
 21
79.9175
  0
LINE
  8
0
 10
13.625
 20
79.9175
 11
13.606
 21
79.9067
  0
LINE
  8
0
 10
13.606
 20
79.9067
 11
13.5868
 21
79.8963
  0
LINE
  8
0
 10
13.5868
 20
79.8963
 11
13.5675
 21
79.8862
  0
LINE
  8
0
 10
13.5675
 20
79.8862
 11
13.548
 21
79.8765
  0
LINE
  8
0
 10
13.548
 20
79.8765
 11
13.5283
 21
79.8671
  0
LINE
  8
0
 10
13.5283
 20
79.8671
 11
13.5084
 21
79.8581
  0
LINE
  8
0
 10
13.5084
 20
79.8581
 11
13.4884
 21
79.8494
  0
LINE
  8
0
 10
13.4884
 20
79.8494
 11
13.4682
 21
79.841
  0
LINE
  8
0
 10
13.4682
 20
79.841
 11
13.448
 21
79.833
  0
LINE
  8
0
 10
13.448
 20
79.833
 11
13.4275
 21
79.8254
  0
LINE
  8
0
 10
13.4275
 20
79.8254
 11
13.407
 21
79.8181
  0
LINE
  8
0
 10
13.407
 20
79.8181
 11
13.3863
 21
79.8112
  0
LINE
  8
0
 10
13.3863
 20
79.8112
 11
13.3655
 21
79.8046
  0
LINE
  8
0
 10
13.3655
 20
79.8046
 11
13.3445
 21
79.7984
  0
LINE
  8
0
 10
13.3445
 20
79.7984
 11
13.3235
 21
79.7926
  0
LINE
  8
0
 10
13.3235
 20
79.7926
 11
13.3024
 21
79.7871
  0
LINE
  8
0
 10
13.3024
 20
79.7871
 11
13.2812
 21
79.782
  0
LINE
  8
0
 10
13.2812
 20
79.782
 11
13.2599
 21
79.7773
  0
LINE
  8
0
 10
13.2599
 20
79.7773
 11
13.2385
 21
79.773
  0
LINE
  8
0
 10
13.2385
 20
79.773
 11
13.2171
 21
79.769
  0
LINE
  8
0
 10
13.2171
 20
79.769
 11
13.1955
 21
79.7654
  0
LINE
  8
0
 10
13.1955
 20
79.7654
 11
13.174
 21
79.7622
  0
LINE
  8
0
 10
13.174
 20
79.7622
 11
13.1523
 21
79.7593
  0
LINE
  8
0
 10
13.1523
 20
79.7593
 11
13.1306
 21
79.7568
  0
LINE
  8
0
 10
13.1306
 20
79.7568
 11
13.1089
 21
79.7547
  0
LINE
  8
0
 10
13.1089
 20
79.7547
 11
13.0872
 21
79.753
  0
LINE
  8
0
 10
13.0872
 20
79.753
 11
13.0654
 21
79.7517
  0
LINE
  8
0
 10
13.0654
 20
79.7517
 11
13.0436
 21
79.7507
  0
LINE
  8
0
 10
13.0436
 20
79.7507
 11
13.0218
 21
79.7502
  0
LINE
  8
0
 10
13.0218
 20
79.7502
 11
13
 21
79.75
  0
LINE
  8
0
 10
13
 20
79.75
 11
12.9782
 21
79.7502
  0
LINE
  8
0
 10
80.9782
 20
79.7502
 11
80.9564
 21
79.7507
  0
LINE
  8
0
 10
80.9564
 20
79.7507
 11
80.9346
 21
79.7517
  0
LINE
  8
0
 10
80.9346
 20
79.7517
 11
80.9128
 21
79.753
  0
LINE
  8
0
 10
80.9128
 20
79.753
 11
80.8911
 21
79.7547
  0
LINE
  8
0
 10
80.8911
 20
79.7547
 11
80.8693
 21
79.7568
  0
LINE
  8
0
 10
80.8693
 20
79.7568
 11
80.8477
 21
79.7593
  0
LINE
  8
0
 10
80.8477
 20
79.7593
 11
80.826
 21
79.7622
  0
LINE
  8
0
 10
80.826
 20
79.7622
 11
80.8044
 21
79.7654
  0
LINE
  8
0
 10
80.8044
 20
79.7654
 11
80.7829
 21
79.769
  0
LINE
  8
0
 10
80.7829
 20
79.769
 11
80.7615
 21
79.773
  0
LINE
  8
0
 10
80.7615
 20
79.773
 11
80.7401
 21
79.7773
  0
LINE
  8
0
 10
80.7401
 20
79.7773
 11
80.7188
 21
79.782
  0
LINE
  8
0
 10
80.7188
 20
79.782
 11
80.6976
 21
79.7871
  0
LINE
  8
0
 10
80.6976
 20
79.7871
 11
80.6765
 21
79.7926
  0
LINE
  8
0
 10
80.6765
 20
79.7926
 11
80.6554
 21
79.7984
  0
LINE
  8
0
 10
80.6554
 20
79.7984
 11
80.6345
 21
79.8046
  0
LINE
  8
0
 10
80.6345
 20
79.8046
 11
80.6137
 21
79.8112
  0
LINE
  8
0
 10
80.6137
 20
79.8112
 11
80.593
 21
79.8181
  0
LINE
  8
0
 10
80.593
 20
79.8181
 11
80.5725
 21
79.8254
  0
LINE
  8
0
 10
80.5725
 20
79.8254
 11
80.552
 21
79.833
  0
LINE
  8
0
 10
80.552
 20
79.833
 11
80.5317
 21
79.841
  0
LINE
  8
0
 10
80.5317
 20
79.841
 11
80.5116
 21
79.8494
  0
LINE
  8
0
 10
80.5116
 20
79.8494
 11
80.4916
 21
79.8581
  0
LINE
  8
0
 10
80.4916
 20
79.8581
 11
80.4717
 21
79.8671
  0
LINE
  8
0
 10
80.4717
 20
79.8671
 11
80.452
 21
79.8765
  0
LINE
  8
0
 10
80.452
 20
79.8765
 11
80.4325
 21
79.8862
  0
LINE
  8
0
 10
80.4325
 20
79.8862
 11
80.4131
 21
79.8963
  0
LINE
  8
0
 10
80.4131
 20
79.8963
 11
80.394
 21
79.9067
  0
LINE
  8
0
 10
80.394
 20
79.9067
 11
80.375
 21
79.9175
  0
LINE
  8
0
 10
80.375
 20
79.9175
 11
80.3562
 21
79.9285
  0
LINE
  8
0
 10
80.3562
 20
79.9285
 11
80.3376
 21
79.9399
  0
LINE
  8
0
 10
80.3376
 20
79.9399
 11
80.3192
 21
79.9517
  0
LINE
  8
0
 10
80.3192
 20
79.9517
 11
80.301
 21
79.9637
  0
LINE
  8
0
 10
80.301
 20
79.9637
 11
80.283
 21
79.9761
  0
LINE
  8
0
 10
80.283
 20
79.9761
 11
80.2653
 21
79.9887
  0
LINE
  8
0
 10
80.2653
 20
79.9887
 11
80.2477
 21
80.0017
  0
LINE
  8
0
 10
80.2477
 20
80.0017
 11
80.2304
 21
80.015
  0
LINE
  8
0
 10
80.2304
 20
80.015
 11
80.2133
 21
80.0286
  0
LINE
  8
0
 10
80.2133
 20
80.0286
 11
80.1965
 21
80.0424
  0
LINE
  8
0
 10
80.1965
 20
80.0424
 11
80.1799
 21
80.0566
  0
LINE
  8
0
 10
80.1799
 20
80.0566
 11
80.1636
 21
80.0711
  0
LINE
  8
0
 10
80.1636
 20
80.0711
 11
80.1475
 21
80.0858
  0
LINE
  8
0
 10
80.1475
 20
80.0858
 11
80.1317
 21
80.1008
  0
LINE
  8
0
 10
80.1317
 20
80.1008
 11
80.1161
 21
80.1161
  0
LINE
  8
0
 10
80.1161
 20
80.1161
 11
80.1008
 21
80.1317
  0
LINE
  8
0
 10
80.1008
 20
80.1317
 11
80.0858
 21
80.1475
  0
LINE
  8
0
 10
80.0858
 20
80.1475
 11
80.0711
 21
80.1636
  0
LINE
  8
0
 10
80.0711
 20
80.1636
 11
80.0566
 21
80.1799
  0
LINE
  8
0
 10
80.0566
 20
80.1799
 11
80.0424
 21
80.1965
  0
LINE
  8
0
 10
80.0424
 20
80.1965
 11
80.0286
 21
80.2133
  0
LINE
  8
0
 10
80.0286
 20
80.2133
 11
80.015
 21
80.2304
  0
LINE
  8
0
 10
80.015
 20
80.2304
 11
80.0017
 21
80.2477
  0
LINE
  8
0
 10
80.0017
 20
80.2477
 11
79.9887
 21
80.2653
  0
LINE
  8
0
 10
79.9887
 20
80.2653
 11
79.9761
 21
80.283
  0
LINE
  8
0
 10
79.9761
 20
80.283
 11
79.9637
 21
80.301
  0
LINE
  8
0
 10
79.9637
 20
80.301
 11
79.9517
 21
80.3192
  0
LINE
  8
0
 10
79.9517
 20
80.3192
 11
79.9399
 21
80.3376
  0
LINE
  8
0
 10
79.9399
 20
80.3376
 11
79.9285
 21
80.3562
  0
LINE
  8
0
 10
79.9285
 20
80.3562
 11
79.9175
 21
80.375
  0
LINE
  8
0
 10
79.9175
 20
80.375
 11
79.9067
 21
80.394
  0
LINE
  8
0
 10
79.9067
 20
80.394
 11
79.8963
 21
80.4131
  0
LINE
  8
0
 10
79.8963
 20
80.4131
 11
79.8862
 21
80.4325
  0
LINE
  8
0
 10
79.8862
 20
80.4325
 11
79.8765
 21
80.452
  0
LINE
  8
0
 10
79.8765
 20
80.452
 11
79.8671
 21
80.4717
  0
LINE
  8
0
 10
79.8671
 20
80.4717
 11
79.8581
 21
80.4916
  0
LINE
  8
0
 10
79.8581
 20
80.4916
 11
79.8494
 21
80.5116
  0
LINE
  8
0
 10
79.8494
 20
80.5116
 11
79.841
 21
80.5317
  0
LINE
  8
0
 10
79.841
 20
80.5317
 11
79.833
 21
80.552
  0
LINE
  8
0
 10
79.833
 20
80.552
 11
79.8254
 21
80.5725
  0
LINE
  8
0
 10
79.8254
 20
80.5725
 11
79.8181
 21
80.593
  0
LINE
  8
0
 10
79.8181
 20
80.593
 11
79.8112
 21
80.6137
  0
LINE
  8
0
 10
79.8112
 20
80.6137
 11
79.8046
 21
80.6345
  0
LINE
  8
0
 10
79.8046
 20
80.6345
 11
79.7984
 21
80.6554
  0
LINE
  8
0
 10
79.7984
 20
80.6554
 11
79.7926
 21
80.6765
  0
LINE
  8
0
 10
79.7926
 20
80.6765
 11
79.7871
 21
80.6976
  0
LINE
  8
0
 10
79.7871
 20
80.6976
 11
79.782
 21
80.7188
  0
LINE
  8
0
 10
79.782
 20
80.7188
 11
79.7773
 21
80.7401
  0
LINE
  8
0
 10
79.7773
 20
80.7401
 11
79.773
 21
80.7615
  0
LINE
  8
0
 10
79.773
 20
80.7615
 11
79.769
 21
80.7829
  0
LINE
  8
0
 10
79.769
 20
80.7829
 11
79.7654
 21
80.8044
  0
LINE
  8
0
 10
79.7654
 20
80.8044
 11
79.7622
 21
80.826
  0
LINE
  8
0
 10
79.7622
 20
80.826
 11
79.7593
 21
80.8477
  0
LINE
  8
0
 10
79.7593
 20
80.8477
 11
79.7568
 21
80.8693
  0
LINE
  8
0
 10
79.7568
 20
80.8693
 11
79.7547
 21
80.8911
  0
LINE
  8
0
 10
79.7547
 20
80.8911
 11
79.753
 21
80.9128
  0
LINE
  8
0
 10
79.753
 20
80.9128
 11
79.7517
 21
80.9346
  0
LINE
  8
0
 10
79.7517
 20
80.9346
 11
79.7507
 21
80.9564
  0
LINE
  8
0
 10
79.7507
 20
80.9564
 11
79.7502
 21
80.9782
  0
LINE
  8
0
 10
79.7502
 20
80.9782
 11
79.75
 21
81
  0
LINE
  8
0
 10
79.75
 20
81
 11
79.7502
 21
81.0218
  0
LINE
  8
0
 10
79.7502
 20
81.0218
 11
79.7507
 21
81.0436
  0
LINE
  8
0
 10
79.7507
 20
81.0436
 11
79.7517
 21
81.0654
  0
LINE
  8
0
 10
79.7517
 20
81.0654
 11
79.753
 21
81.0872
  0
LINE
  8
0
 10
79.753
 20
81.0872
 11
79.7547
 21
81.1089
  0
LINE
  8
0
 10
79.7547
 20
81.1089
 11
79.7568
 21
81.1306
  0
LINE
  8
0
 10
79.7568
 20
81.1306
 11
79.7593
 21
81.1523
  0
LINE
  8
0
 10
79.7593
 20
81.1523
 11
79.7622
 21
81.174
  0
LINE
  8
0
 10
79.7622
 20
81.174
 11
79.7654
 21
81.1955
  0
LINE
  8
0
 10
79.7654
 20
81.1955
 11
79.769
 21
81.2171
  0
LINE
  8
0
 10
79.769
 20
81.2171
 11
79.773
 21
81.2385
  0
LINE
  8
0
 10
79.773
 20
81.2385
 11
79.7773
 21
81.2599
  0
LINE
  8
0
 10
79.7773
 20
81.2599
 11
79.782
 21
81.2812
  0
LINE
  8
0
 10
79.782
 20
81.2812
 11
79.7871
 21
81.3024
  0
LINE
  8
0
 10
79.7871
 20
81.3024
 11
79.7926
 21
81.3235
  0
LINE
  8
0
 10
79.7926
 20
81.3235
 11
79.7984
 21
81.3445
  0
LINE
  8
0
 10
79.7984
 20
81.3445
 11
79.8046
 21
81.3655
  0
LINE
  8
0
 10
79.8046
 20
81.3655
 11
79.8112
 21
81.3863
  0
LINE
  8
0
 10
79.8112
 20
81.3863
 11
79.8181
 21
81.407
  0
LINE
  8
0
 10
79.8181
 20
81.407
 11
79.8254
 21
81.4275
  0
LINE
  8
0
 10
79.8254
 20
81.4275
 11
79.833
 21
81.448
  0
LINE
  8
0
 10
79.833
 20
81.448
 11
79.841
 21
81.4682
  0
LINE
  8
0
 10
79.841
 20
81.4682
 11
79.8494
 21
81.4884
  0
LINE
  8
0
 10
79.8494
 20
81.4884
 11
79.8581
 21
81.5084
  0
LINE
  8
0
 10
79.8581
 20
81.5084
 11
79.8671
 21
81.5283
  0
LINE
  8
0
 10
79.8671
 20
81.5283
 11
79.8765
 21
81.548
  0
LINE
  8
0
 10
79.8765
 20
81.548
 11
79.8862
 21
81.5675
  0
LINE
  8
0
 10
79.8862
 20
81.5675
 11
79.8963
 21
81.5868
  0
LINE
  8
0
 10
79.8963
 20
81.5868
 11
79.9067
 21
81.606
  0
LINE
  8
0
 10
79.9067
 20
81.606
 11
79.9175
 21
81.625
  0
LINE
  8
0
 10
79.9175
 20
81.625
 11
79.9285
 21
81.6438
  0
LINE
  8
0
 10
79.9285
 20
81.6438
 11
79.9399
 21
81.6624
  0
LINE
  8
0
 10
79.9399
 20
81.6624
 11
79.9517
 21
81.6808
  0
LINE
  8
0
 10
79.9517
 20
81.6808
 11
79.9637
 21
81.699
  0
LINE
  8
0
 10
79.9637
 20
81.699
 11
79.9761
 21
81.717
  0
LINE
  8
0
 10
79.9761
 20
81.717
 11
79.9887
 21
81.7347
  0
LINE
  8
0
 10
79.9887
 20
81.7347
 11
80.0017
 21
81.7523
  0
LINE
  8
0
 10
80.0017
 20
81.7523
 11
80.015
 21
81.7696
  0
LINE
  8
0
 10
80.015
 20
81.7696
 11
80.0286
 21
81.7866
  0
LINE
  8
0
 10
80.0286
 20
81.7866
 11
80.0424
 21
81.8035
  0
LINE
  8
0
 10
80.0424
 20
81.8035
 11
80.0566
 21
81.8201
  0
LINE
  8
0
 10
80.0566
 20
81.8201
 11
80.0711
 21
81.8364
  0
LINE
  8
0
 10
80.0711
 20
81.8364
 11
80.0858
 21
81.8525
  0
LINE
  8
0
 10
80.0858
 20
81.8525
 11
80.1008
 21
81.8683
  0
LINE
  8
0
 10
80.1008
 20
81.8683
 11
80.1161
 21
81.8839
  0
LINE
  8
0
 10
80.1161
 20
81.8839
 11
80.1317
 21
81.8992
  0
LINE
  8
0
 10
80.1317
 20
81.8992
 11
80.1475
 21
81.9142
  0
LINE
  8
0
 10
80.1475
 20
81.9142
 11
80.1636
 21
81.9289
  0
LINE
  8
0
 10
80.1636
 20
81.9289
 11
80.1799
 21
81.9434
  0
LINE
  8
0
 10
80.1799
 20
81.9434
 11
80.1965
 21
81.9576
  0
LINE
  8
0
 10
80.1965
 20
81.9576
 11
80.2133
 21
81.9714
  0
LINE
  8
0
 10
80.2133
 20
81.9714
 11
80.2304
 21
81.985
  0
LINE
  8
0
 10
80.2304
 20
81.985
 11
80.2477
 21
81.9983
  0
LINE
  8
0
 10
80.2477
 20
81.9983
 11
80.2653
 21
82.0113
  0
LINE
  8
0
 10
80.2653
 20
82.0113
 11
80.283
 21
82.0239
  0
LINE
  8
0
 10
80.283
 20
82.0239
 11
80.301
 21
82.0363
  0
LINE
  8
0
 10
80.301
 20
82.0363
 11
80.3192
 21
82.0483
  0
LINE
  8
0
 10
80.3192
 20
82.0483
 11
80.3376
 21
82.0601
  0
LINE
  8
0
 10
80.3376
 20
82.0601
 11
80.3562
 21
82.0715
  0
LINE
  8
0
 10
80.3562
 20
82.0715
 11
80.375
 21
82.0825
  0
LINE
  8
0
 10
80.375
 20
82.0825
 11
80.394
 21
82.0933
  0
LINE
  8
0
 10
80.394
 20
82.0933
 11
80.4131
 21
82.1037
  0
LINE
  8
0
 10
80.4131
 20
82.1037
 11
80.4325
 21
82.1138
  0
LINE
  8
0
 10
80.4325
 20
82.1138
 11
80.452
 21
82.1235
  0
LINE
  8
0
 10
80.452
 20
82.1235
 11
80.4717
 21
82.1329
  0
LINE
  8
0
 10
80.4717
 20
82.1329
 11
80.4916
 21
82.1419
  0
LINE
  8
0
 10
80.4916
 20
82.1419
 11
80.5116
 21
82.1506
  0
LINE
  8
0
 10
80.5116
 20
82.1506
 11
80.5317
 21
82.159
  0
LINE
  8
0
 10
80.5317
 20
82.159
 11
80.552
 21
82.167
  0
LINE
  8
0
 10
80.552
 20
82.167
 11
80.5725
 21
82.1746
  0
LINE
  8
0
 10
80.5725
 20
82.1746
 11
80.593
 21
82.1819
  0
LINE
  8
0
 10
80.593
 20
82.1819
 11
80.6137
 21
82.1888
  0
LINE
  8
0
 10
80.6137
 20
82.1888
 11
80.6345
 21
82.1954
  0
LINE
  8
0
 10
80.6345
 20
82.1954
 11
80.6554
 21
82.2016
  0
LINE
  8
0
 10
80.6554
 20
82.2016
 11
80.6765
 21
82.2074
  0
LINE
  8
0
 10
80.6765
 20
82.2074
 11
80.6976
 21
82.2129
  0
LINE
  8
0
 10
80.6976
 20
82.2129
 11
80.7188
 21
82.218
  0
LINE
  8
0
 10
80.7188
 20
82.218
 11
80.7401
 21
82.2227
  0
LINE
  8
0
 10
80.7401
 20
82.2227
 11
80.7615
 21
82.227
  0
LINE
  8
0
 10
80.7615
 20
82.227
 11
80.7829
 21
82.231
  0
LINE
  8
0
 10
80.7829
 20
82.231
 11
80.8044
 21
82.2346
  0
LINE
  8
0
 10
80.8044
 20
82.2346
 11
80.826
 21
82.2378
  0
LINE
  8
0
 10
80.826
 20
82.2378
 11
80.8477
 21
82.2407
  0
LINE
  8
0
 10
80.8477
 20
82.2407
 11
80.8693
 21
82.2431
  0
LINE
  8
0
 10
80.8693
 20
82.2431
 11
80.8911
 21
82.2452
  0
LINE
  8
0
 10
80.8911
 20
82.2452
 11
80.9128
 21
82.2469
  0
LINE
  8
0
 10
80.9128
 20
82.2469
 11
80.9346
 21
82.2483
  0
LINE
  8
0
 10
80.9346
 20
82.2483
 11
80.9564
 21
82.2492
  0
LINE
  8
0
 10
80.9564
 20
82.2492
 11
80.9782
 21
82.2498
  0
LINE
  8
0
 10
80.9782
 20
82.2498
 11
81
 21
82.25
  0
LINE
  8
0
 10
81
 20
82.25
 11
81.0218
 21
82.2498
  0
LINE
  8
0
 10
81.0218
 20
82.2498
 11
81.0436
 21
82.2492
  0
LINE
  8
0
 10
81.0436
 20
82.2492
 11
81.0654
 21
82.2483
  0
LINE
  8
0
 10
81.0654
 20
82.2483
 11
81.0872
 21
82.2469
  0
LINE
  8
0
 10
81.0872
 20
82.2469
 11
81.1089
 21
82.2452
  0
LINE
  8
0
 10
81.1089
 20
82.2452
 11
81.1306
 21
82.2431
  0
LINE
  8
0
 10
81.1306
 20
82.2431
 11
81.1523
 21
82.2407
  0
LINE
  8
0
 10
81.1523
 20
82.2407
 11
81.174
 21
82.2378
  0
LINE
  8
0
 10
81.174
 20
82.2378
 11
81.1955
 21
82.2346
  0
LINE
  8
0
 10
81.1955
 20
82.2346
 11
81.2171
 21
82.231
  0
LINE
  8
0
 10
81.2171
 20
82.231
 11
81.2385
 21
82.227
  0
LINE
  8
0
 10
81.2385
 20
82.227
 11
81.2599
 21
82.2227
  0
LINE
  8
0
 10
81.2599
 20
82.2227
 11
81.2812
 21
82.218
  0
LINE
  8
0
 10
81.2812
 20
82.218
 11
81.3024
 21
82.2129
  0
LINE
  8
0
 10
81.3024
 20
82.2129
 11
81.3235
 21
82.2074
  0
LINE
  8
0
 10
81.3235
 20
82.2074
 11
81.3445
 21
82.2016
  0
LINE
  8
0
 10
81.3445
 20
82.2016
 11
81.3655
 21
82.1954
  0
LINE
  8
0
 10
81.3655
 20
82.1954
 11
81.3863
 21
82.1888
  0
LINE
  8
0
 10
81.3863
 20
82.1888
 11
81.407
 21
82.1819
  0
LINE
  8
0
 10
81.407
 20
82.1819
 11
81.4275
 21
82.1746
  0
LINE
  8
0
 10
81.4275
 20
82.1746
 11
81.448
 21
82.167
  0
LINE
  8
0
 10
81.448
 20
82.167
 11
81.4682
 21
82.159
  0
LINE
  8
0
 10
81.4682
 20
82.159
 11
81.4884
 21
82.1506
  0
LINE
  8
0
 10
81.4884
 20
82.1506
 11
81.5084
 21
82.1419
  0
LINE
  8
0
 10
81.5084
 20
82.1419
 11
81.5283
 21
82.1329
  0
LINE
  8
0
 10
81.5283
 20
82.1329
 11
81.548
 21
82.1235
  0
LINE
  8
0
 10
81.548
 20
82.1235
 11
81.5675
 21
82.1138
  0
LINE
  8
0
 10
81.5675
 20
82.1138
 11
81.5868
 21
82.1037
  0
LINE
  8
0
 10
81.5868
 20
82.1037
 11
81.606
 21
82.0933
  0
LINE
  8
0
 10
81.606
 20
82.0933
 11
81.625
 21
82.0825
  0
LINE
  8
0
 10
81.625
 20
82.0825
 11
81.6438
 21
82.0715
  0
LINE
  8
0
 10
81.6438
 20
82.0715
 11
81.6624
 21
82.0601
  0
LINE
  8
0
 10
81.6624
 20
82.0601
 11
81.6808
 21
82.0483
  0
LINE
  8
0
 10
81.6808
 20
82.0483
 11
81.699
 21
82.0363
  0
LINE
  8
0
 10
81.699
 20
82.0363
 11
81.717
 21
82.0239
  0
LINE
  8
0
 10
81.717
 20
82.0239
 11
81.7347
 21
82.0113
  0
LINE
  8
0
 10
81.7347
 20
82.0113
 11
81.7523
 21
81.9983
  0
LINE
  8
0
 10
81.7523
 20
81.9983
 11
81.7696
 21
81.985
  0
LINE
  8
0
 10
81.7696
 20
81.985
 11
81.7866
 21
81.9714
  0
LINE
  8
0
 10
81.7866
 20
81.9714
 11
81.8035
 21
81.9576
  0
LINE
  8
0
 10
81.8035
 20
81.9576
 11
81.8201
 21
81.9434
  0
LINE
  8
0
 10
81.8201
 20
81.9434
 11
81.8364
 21
81.9289
  0
LINE
  8
0
 10
81.8364
 20
81.9289
 11
81.8525
 21
81.9142
  0
LINE
  8
0
 10
81.8525
 20
81.9142
 11
81.8683
 21
81.8992
  0
LINE
  8
0
 10
81.8683
 20
81.8992
 11
81.8839
 21
81.8839
  0
LINE
  8
0
 10
81.8839
 20
81.8839
 11
81.8992
 21
81.8683
  0
LINE
  8
0
 10
81.8992
 20
81.8683
 11
81.9142
 21
81.8525
  0
LINE
  8
0
 10
81.9142
 20
81.8525
 11
81.9289
 21
81.8364
  0
LINE
  8
0
 10
81.9289
 20
81.8364
 11
81.9434
 21
81.8201
  0
LINE
  8
0
 10
81.9434
 20
81.8201
 11
81.9576
 21
81.8035
  0
LINE
  8
0
 10
81.9576
 20
81.8035
 11
81.9714
 21
81.7866
  0
LINE
  8
0
 10
81.9714
 20
81.7866
 11
81.985
 21
81.7696
  0
LINE
  8
0
 10
81.985
 20
81.7696
 11
81.9983
 21
81.7523
  0
LINE
  8
0
 10
81.9983
 20
81.7523
 11
82.0113
 21
81.7347
  0
LINE
  8
0
 10
82.0113
 20
81.7347
 11
82.0239
 21
81.717
  0
LINE
  8
0
 10
82.0239
 20
81.717
 11
82.0363
 21
81.699
  0
LINE
  8
0
 10
82.0363
 20
81.699
 11
82.0483
 21
81.6808
  0
LINE
  8
0
 10
82.0483
 20
81.6808
 11
82.0601
 21
81.6624
  0
LINE
  8
0
 10
82.0601
 20
81.6624
 11
82.0715
 21
81.6438
  0
LINE
  8
0
 10
82.0715
 20
81.6438
 11
82.0825
 21
81.625
  0
LINE
  8
0
 10
82.0825
 20
81.625
 11
82.0933
 21
81.606
  0
LINE
  8
0
 10
82.0933
 20
81.606
 11
82.1037
 21
81.5868
  0
LINE
  8
0
 10
82.1037
 20
81.5868
 11
82.1138
 21
81.5675
  0
LINE
  8
0
 10
82.1138
 20
81.5675
 11
82.1235
 21
81.548
  0
LINE
  8
0
 10
82.1235
 20
81.548
 11
82.1329
 21
81.5283
  0
LINE
  8
0
 10
82.1329
 20
81.5283
 11
82.1419
 21
81.5084
  0
LINE
  8
0
 10
82.1419
 20
81.5084
 11
82.1506
 21
81.4884
  0
LINE
  8
0
 10
82.1506
 20
81.4884
 11
82.159
 21
81.4682
  0
LINE
  8
0
 10
82.159
 20
81.4682
 11
82.167
 21
81.448
  0
LINE
  8
0
 10
82.167
 20
81.448
 11
82.1746
 21
81.4275
  0
LINE
  8
0
 10
82.1746
 20
81.4275
 11
82.1819
 21
81.407
  0
LINE
  8
0
 10
82.1819
 20
81.407
 11
82.1888
 21
81.3863
  0
LINE
  8
0
 10
82.1888
 20
81.3863
 11
82.1954
 21
81.3655
  0
LINE
  8
0
 10
82.1954
 20
81.3655
 11
82.2016
 21
81.3445
  0
LINE
  8
0
 10
82.2016
 20
81.3445
 11
82.2074
 21
81.3235
  0
LINE
  8
0
 10
82.2074
 20
81.3235
 11
82.2129
 21
81.3024
  0
LINE
  8
0
 10
82.2129
 20
81.3024
 11
82.218
 21
81.2812
  0
LINE
  8
0
 10
82.218
 20
81.2812
 11
82.2227
 21
81.2599
  0
LINE
  8
0
 10
82.2227
 20
81.2599
 11
82.227
 21
81.2385
  0
LINE
  8
0
 10
82.227
 20
81.2385
 11
82.231
 21
81.2171
  0
LINE
  8
0
 10
82.231
 20
81.2171
 11
82.2346
 21
81.1955
  0
LINE
  8
0
 10
82.2346
 20
81.1955
 11
82.2378
 21
81.174
  0
LINE
  8
0
 10
82.2378
 20
81.174
 11
82.2407
 21
81.1523
  0
LINE
  8
0
 10
82.2407
 20
81.1523
 11
82.2431
 21
81.1306
  0
LINE
  8
0
 10
82.2431
 20
81.1306
 11
82.2452
 21
81.1089
  0
LINE
  8
0
 10
82.2452
 20
81.1089
 11
82.2469
 21
81.0872
  0
LINE
  8
0
 10
82.2469
 20
81.0872
 11
82.2483
 21
81.0654
  0
LINE
  8
0
 10
82.2483
 20
81.0654
 11
82.2492
 21
81.0436
  0
LINE
  8
0
 10
82.2492
 20
81.0436
 11
82.2498
 21
81.0218
  0
LINE
  8
0
 10
82.2498
 20
81.0218
 11
82.25
 21
81
  0
LINE
  8
0
 10
82.25
 20
81
 11
82.2498
 21
80.9782
  0
LINE
  8
0
 10
82.2498
 20
80.9782
 11
82.2492
 21
80.9564
  0
LINE
  8
0
 10
82.2492
 20
80.9564
 11
82.2483
 21
80.9346
  0
LINE
  8
0
 10
82.2483
 20
80.9346
 11
82.2469
 21
80.9128
  0
LINE
  8
0
 10
82.2469
 20
80.9128
 11
82.2452
 21
80.8911
  0
LINE
  8
0
 10
82.2452
 20
80.8911
 11
82.2431
 21
80.8693
  0
LINE
  8
0
 10
82.2431
 20
80.8693
 11
82.2407
 21
80.8477
  0
LINE
  8
0
 10
82.2407
 20
80.8477
 11
82.2378
 21
80.826
  0
LINE
  8
0
 10
82.2378
 20
80.826
 11
82.2346
 21
80.8044
  0
LINE
  8
0
 10
82.2346
 20
80.8044
 11
82.231
 21
80.7829
  0
LINE
  8
0
 10
82.231
 20
80.7829
 11
82.227
 21
80.7615
  0
LINE
  8
0
 10
82.227
 20
80.7615
 11
82.2227
 21
80.7401
  0
LINE
  8
0
 10
82.2227
 20
80.7401
 11
82.218
 21
80.7188
  0
LINE
  8
0
 10
82.218
 20
80.7188
 11
82.2129
 21
80.6976
  0
LINE
  8
0
 10
82.2129
 20
80.6976
 11
82.2074
 21
80.6765
  0
LINE
  8
0
 10
82.2074
 20
80.6765
 11
82.2016
 21
80.6554
  0
LINE
  8
0
 10
82.2016
 20
80.6554
 11
82.1954
 21
80.6345
  0
LINE
  8
0
 10
82.1954
 20
80.6345
 11
82.1888
 21
80.6137
  0
LINE
  8
0
 10
82.1888
 20
80.6137
 11
82.1819
 21
80.593
  0
LINE
  8
0
 10
82.1819
 20
80.593
 11
82.1746
 21
80.5725
  0
LINE
  8
0
 10
82.1746
 20
80.5725
 11
82.167
 21
80.552
  0
LINE
  8
0
 10
82.167
 20
80.552
 11
82.159
 21
80.5317
  0
LINE
  8
0
 10
82.159
 20
80.5317
 11
82.1506
 21
80.5116
  0
LINE
  8
0
 10
82.1506
 20
80.5116
 11
82.1419
 21
80.4916
  0
LINE
  8
0
 10
82.1419
 20
80.4916
 11
82.1329
 21
80.4717
  0
LINE
  8
0
 10
82.1329
 20
80.4717
 11
82.1235
 21
80.452
  0
LINE
  8
0
 10
82.1235
 20
80.452
 11
82.1138
 21
80.4325
  0
LINE
  8
0
 10
82.1138
 20
80.4325
 11
82.1037
 21
80.4131
  0
LINE
  8
0
 10
82.1037
 20
80.4131
 11
82.0933
 21
80.394
  0
LINE
  8
0
 10
82.0933
 20
80.394
 11
82.0825
 21
80.375
  0
LINE
  8
0
 10
82.0825
 20
80.375
 11
82.0715
 21
80.3562
  0
LINE
  8
0
 10
82.0715
 20
80.3562
 11
82.0601
 21
80.3376
  0
LINE
  8
0
 10
82.0601
 20
80.3376
 11
82.0483
 21
80.3192
  0
LINE
  8
0
 10
82.0483
 20
80.3192
 11
82.0363
 21
80.301
  0
LINE
  8
0
 10
82.0363
 20
80.301
 11
82.0239
 21
80.283
  0
LINE
  8
0
 10
82.0239
 20
80.283
 11
82.0113
 21
80.2653
  0
LINE
  8
0
 10
82.0113
 20
80.2653
 11
81.9983
 21
80.2477
  0
LINE
  8
0
 10
81.9983
 20
80.2477
 11
81.985
 21
80.2304
  0
LINE
  8
0
 10
81.985
 20
80.2304
 11
81.9714
 21
80.2133
  0
LINE
  8
0
 10
81.9714
 20
80.2133
 11
81.9576
 21
80.1965
  0
LINE
  8
0
 10
81.9576
 20
80.1965
 11
81.9434
 21
80.1799
  0
LINE
  8
0
 10
81.9434
 20
80.1799
 11
81.9289
 21
80.1636
  0
LINE
  8
0
 10
81.9289
 20
80.1636
 11
81.9142
 21
80.1475
  0
LINE
  8
0
 10
81.9142
 20
80.1475
 11
81.8992
 21
80.1317
  0
LINE
  8
0
 10
81.8992
 20
80.1317
 11
81.8839
 21
80.1161
  0
LINE
  8
0
 10
81.8839
 20
80.1161
 11
81.8683
 21
80.1008
  0
LINE
  8
0
 10
81.8683
 20
80.1008
 11
81.8525
 21
80.0858
  0
LINE
  8
0
 10
81.8525
 20
80.0858
 11
81.8364
 21
80.0711
  0
LINE
  8
0
 10
81.8364
 20
80.0711
 11
81.8201
 21
80.0566
  0
LINE
  8
0
 10
81.8201
 20
80.0566
 11
81.8035
 21
80.0424
  0
LINE
  8
0
 10
81.8035
 20
80.0424
 11
81.7866
 21
80.0286
  0
LINE
  8
0
 10
81.7866
 20
80.0286
 11
81.7696
 21
80.015
  0
LINE
  8
0
 10
81.7696
 20
80.015
 11
81.7523
 21
80.0017
  0
LINE
  8
0
 10
81.7523
 20
80.0017
 11
81.7347
 21
79.9887
  0
LINE
  8
0
 10
81.7347
 20
79.9887
 11
81.717
 21
79.9761
  0
LINE
  8
0
 10
81.717
 20
79.9761
 11
81.699
 21
79.9637
  0
LINE
  8
0
 10
81.699
 20
79.9637
 11
81.6808
 21
79.9517
  0
LINE
  8
0
 10
81.6808
 20
79.9517
 11
81.6624
 21
79.9399
  0
LINE
  8
0
 10
81.6624
 20
79.9399
 11
81.6438
 21
79.9285
  0
LINE
  8
0
 10
81.6438
 20
79.9285
 11
81.625
 21
79.9175
  0
LINE
  8
0
 10
81.625
 20
79.9175
 11
81.606
 21
79.9067
  0
LINE
  8
0
 10
81.606
 20
79.9067
 11
81.5868
 21
79.8963
  0
LINE
  8
0
 10
81.5868
 20
79.8963
 11
81.5675
 21
79.8862
  0
LINE
  8
0
 10
81.5675
 20
79.8862
 11
81.548
 21
79.8765
  0
LINE
  8
0
 10
81.548
 20
79.8765
 11
81.5283
 21
79.8671
  0
LINE
  8
0
 10
81.5283
 20
79.8671
 11
81.5084
 21
79.8581
  0
LINE
  8
0
 10
81.5084
 20
79.8581
 11
81.4884
 21
79.8494
  0
LINE
  8
0
 10
81.4884
 20
79.8494
 11
81.4682
 21
79.841
  0
LINE
  8
0
 10
81.4682
 20
79.841
 11
81.448
 21
79.833
  0
LINE
  8
0
 10
81.448
 20
79.833
 11
81.4275
 21
79.8254
  0
LINE
  8
0
 10
81.4275
 20
79.8254
 11
81.407
 21
79.8181
  0
LINE
  8
0
 10
81.407
 20
79.8181
 11
81.3863
 21
79.8112
  0
LINE
  8
0
 10
81.3863
 20
79.8112
 11
81.3655
 21
79.8046
  0
LINE
  8
0
 10
81.3655
 20
79.8046
 11
81.3445
 21
79.7984
  0
LINE
  8
0
 10
81.3445
 20
79.7984
 11
81.3235
 21
79.7926
  0
LINE
  8
0
 10
81.3235
 20
79.7926
 11
81.3024
 21
79.7871
  0
LINE
  8
0
 10
81.3024
 20
79.7871
 11
81.2812
 21
79.782
  0
LINE
  8
0
 10
81.2812
 20
79.782
 11
81.2599
 21
79.7773
  0
LINE
  8
0
 10
81.2599
 20
79.7773
 11
81.2385
 21
79.773
  0
LINE
  8
0
 10
81.2385
 20
79.773
 11
81.2171
 21
79.769
  0
LINE
  8
0
 10
81.2171
 20
79.769
 11
81.1955
 21
79.7654
  0
LINE
  8
0
 10
81.1955
 20
79.7654
 11
81.174
 21
79.7622
  0
LINE
  8
0
 10
81.174
 20
79.7622
 11
81.1523
 21
79.7593
  0
LINE
  8
0
 10
81.1523
 20
79.7593
 11
81.1306
 21
79.7568
  0
LINE
  8
0
 10
81.1306
 20
79.7568
 11
81.1089
 21
79.7547
  0
LINE
  8
0
 10
81.1089
 20
79.7547
 11
81.0872
 21
79.753
  0
LINE
  8
0
 10
81.0872
 20
79.753
 11
81.0654
 21
79.7517
  0
LINE
  8
0
 10
81.0654
 20
79.7517
 11
81.0436
 21
79.7507
  0
LINE
  8
0
 10
81.0436
 20
79.7507
 11
81.0218
 21
79.7502
  0
LINE
  8
0
 10
81.0218
 20
79.7502
 11
81
 21
79.75
  0
LINE
  8
0
 10
81
 20
79.75
 11
80.9782
 21
79.7502
  0
LINE
  8
0
 10
12.9782
 20
11.7502
 11
12.9564
 21
11.7507
  0
LINE
  8
0
 10
12.9564
 20
11.7507
 11
12.9346
 21
11.7517
  0
LINE
  8
0
 10
12.9346
 20
11.7517
 11
12.9128
 21
11.753
  0
LINE
  8
0
 10
12.9128
 20
11.753
 11
12.8911
 21
11.7547
  0
LINE
  8
0
 10
12.8911
 20
11.7547
 11
12.8693
 21
11.7568
  0
LINE
  8
0
 10
12.8693
 20
11.7568
 11
12.8477
 21
11.7593
  0
LINE
  8
0
 10
12.8477
 20
11.7593
 11
12.826
 21
11.7622
  0
LINE
  8
0
 10
12.826
 20
11.7622
 11
12.8044
 21
11.7654
  0
LINE
  8
0
 10
12.8044
 20
11.7654
 11
12.7829
 21
11.769
  0
LINE
  8
0
 10
12.7829
 20
11.769
 11
12.7615
 21
11.773
  0
LINE
  8
0
 10
12.7615
 20
11.773
 11
12.7401
 21
11.7773
  0
LINE
  8
0
 10
12.7401
 20
11.7773
 11
12.7188
 21
11.782
  0
LINE
  8
0
 10
12.7188
 20
11.782
 11
12.6976
 21
11.7871
  0
LINE
  8
0
 10
12.6976
 20
11.7871
 11
12.6765
 21
11.7926
  0
LINE
  8
0
 10
12.6765
 20
11.7926
 11
12.6554
 21
11.7984
  0
LINE
  8
0
 10
12.6554
 20
11.7984
 11
12.6345
 21
11.8046
  0
LINE
  8
0
 10
12.6345
 20
11.8046
 11
12.6137
 21
11.8112
  0
LINE
  8
0
 10
12.6137
 20
11.8112
 11
12.593
 21
11.8181
  0
LINE
  8
0
 10
12.593
 20
11.8181
 11
12.5725
 21
11.8254
  0
LINE
  8
0
 10
12.5725
 20
11.8254
 11
12.552
 21
11.833
  0
LINE
  8
0
 10
12.552
 20
11.833
 11
12.5317
 21
11.841
  0
LINE
  8
0
 10
12.5317
 20
11.841
 11
12.5116
 21
11.8494
  0
LINE
  8
0
 10
12.5116
 20
11.8494
 11
12.4916
 21
11.8581
  0
LINE
  8
0
 10
12.4916
 20
11.8581
 11
12.4717
 21
11.8671
  0
LINE
  8
0
 10
12.4717
 20
11.8671
 11
12.452
 21
11.8765
  0
LINE
  8
0
 10
12.452
 20
11.8765
 11
12.4325
 21
11.8862
  0
LINE
  8
0
 10
12.4325
 20
11.8862
 11
12.4131
 21
11.8963
  0
LINE
  8
0
 10
12.4131
 20
11.8963
 11
12.394
 21
11.9067
  0
LINE
  8
0
 10
12.394
 20
11.9067
 11
12.375
 21
11.9175
  0
LINE
  8
0
 10
12.375
 20
11.9175
 11
12.3562
 21
11.9285
  0
LINE
  8
0
 10
12.3562
 20
11.9285
 11
12.3376
 21
11.9399
  0
LINE
  8
0
 10
12.3376
 20
11.9399
 11
12.3192
 21
11.9517
  0
LINE
  8
0
 10
12.3192
 20
11.9517
 11
12.301
 21
11.9637
  0
LINE
  8
0
 10
12.301
 20
11.9637
 11
12.283
 21
11.9761
  0
LINE
  8
0
 10
12.283
 20
11.9761
 11
12.2653
 21
11.9887
  0
LINE
  8
0
 10
12.2653
 20
11.9887
 11
12.2477
 21
12.0017
  0
LINE
  8
0
 10
12.2477
 20
12.0017
 11
12.2304
 21
12.015
  0
LINE
  8
0
 10
12.2304
 20
12.015
 11
12.2133
 21
12.0286
  0
LINE
  8
0
 10
12.2133
 20
12.0286
 11
12.1965
 21
12.0424
  0
LINE
  8
0
 10
12.1965
 20
12.0424
 11
12.1799
 21
12.0566
  0
LINE
  8
0
 10
12.1799
 20
12.0566
 11
12.1636
 21
12.0711
  0
LINE
  8
0
 10
12.1636
 20
12.0711
 11
12.1475
 21
12.0858
  0
LINE
  8
0
 10
12.1475
 20
12.0858
 11
12.1317
 21
12.1008
  0
LINE
  8
0
 10
12.1317
 20
12.1008
 11
12.1161
 21
12.1161
  0
LINE
  8
0
 10
12.1161
 20
12.1161
 11
12.1008
 21
12.1317
  0
LINE
  8
0
 10
12.1008
 20
12.1317
 11
12.0858
 21
12.1475
  0
LINE
  8
0
 10
12.0858
 20
12.1475
 11
12.0711
 21
12.1636
  0
LINE
  8
0
 10
12.0711
 20
12.1636
 11
12.0566
 21
12.1799
  0
LINE
  8
0
 10
12.0566
 20
12.1799
 11
12.0424
 21
12.1965
  0
LINE
  8
0
 10
12.0424
 20
12.1965
 11
12.0286
 21
12.2133
  0
LINE
  8
0
 10
12.0286
 20
12.2133
 11
12.015
 21
12.2304
  0
LINE
  8
0
 10
12.015
 20
12.2304
 11
12.0017
 21
12.2477
  0
LINE
  8
0
 10
12.0017
 20
12.2477
 11
11.9887
 21
12.2653
  0
LINE
  8
0
 10
11.9887
 20
12.2653
 11
11.9761
 21
12.283
  0
LINE
  8
0
 10
11.9761
 20
12.283
 11
11.9637
 21
12.301
  0
LINE
  8
0
 10
11.9637
 20
12.301
 11
11.9517
 21
12.3192
  0
LINE
  8
0
 10
11.9517
 20
12.3192
 11
11.9399
 21
12.3376
  0
LINE
  8
0
 10
11.9399
 20
12.3376
 11
11.9285
 21
12.3562
  0
LINE
  8
0
 10
11.9285
 20
12.3562
 11
11.9175
 21
12.375
  0
LINE
  8
0
 10
11.9175
 20
12.375
 11
11.9067
 21
12.394
  0
LINE
  8
0
 10
11.9067
 20
12.394
 11
11.8963
 21
12.4131
  0
LINE
  8
0
 10
11.8963
 20
12.4131
 11
11.8862
 21
12.4325
  0
LINE
  8
0
 10
11.8862
 20
12.4325
 11
11.8765
 21
12.452
  0
LINE
  8
0
 10
11.8765
 20
12.452
 11
11.8671
 21
12.4717
  0
LINE
  8
0
 10
11.8671
 20
12.4717
 11
11.8581
 21
12.4916
  0
LINE
  8
0
 10
11.8581
 20
12.4916
 11
11.8494
 21
12.5116
  0
LINE
  8
0
 10
11.8494
 20
12.5116
 11
11.841
 21
12.5317
  0
LINE
  8
0
 10
11.841
 20
12.5317
 11
11.833
 21
12.552
  0
LINE
  8
0
 10
11.833
 20
12.552
 11
11.8254
 21
12.5725
  0
LINE
  8
0
 10
11.8254
 20
12.5725
 11
11.8181
 21
12.593
  0
LINE
  8
0
 10
11.8181
 20
12.593
 11
11.8112
 21
12.6137
  0
LINE
  8
0
 10
11.8112
 20
12.6137
 11
11.8046
 21
12.6345
  0
LINE
  8
0
 10
11.8046
 20
12.6345
 11
11.7984
 21
12.6554
  0
LINE
  8
0
 10
11.7984
 20
12.6554
 11
11.7926
 21
12.6765
  0
LINE
  8
0
 10
11.7926
 20
12.6765
 11
11.7871
 21
12.6976
  0
LINE
  8
0
 10
11.7871
 20
12.6976
 11
11.782
 21
12.7188
  0
LINE
  8
0
 10
11.782
 20
12.7188
 11
11.7773
 21
12.7401
  0
LINE
  8
0
 10
11.7773
 20
12.7401
 11
11.773
 21
12.7615
  0
LINE
  8
0
 10
11.773
 20
12.7615
 11
11.769
 21
12.7829
  0
LINE
  8
0
 10
11.769
 20
12.7829
 11
11.7654
 21
12.8044
  0
LINE
  8
0
 10
11.7654
 20
12.8044
 11
11.7622
 21
12.826
  0
LINE
  8
0
 10
11.7622
 20
12.826
 11
11.7593
 21
12.8477
  0
LINE
  8
0
 10
11.7593
 20
12.8477
 11
11.7568
 21
12.8693
  0
LINE
  8
0
 10
11.7568
 20
12.8693
 11
11.7547
 21
12.8911
  0
LINE
  8
0
 10
11.7547
 20
12.8911
 11
11.753
 21
12.9128
  0
LINE
  8
0
 10
11.753
 20
12.9128
 11
11.7517
 21
12.9346
  0
LINE
  8
0
 10
11.7517
 20
12.9346
 11
11.7507
 21
12.9564
  0
LINE
  8
0
 10
11.7507
 20
12.9564
 11
11.7502
 21
12.9782
  0
LINE
  8
0
 10
11.7502
 20
12.9782
 11
11.75
 21
13
  0
LINE
  8
0
 10
11.75
 20
13
 11
11.7502
 21
13.0218
  0
LINE
  8
0
 10
11.7502
 20
13.0218
 11
11.7507
 21
13.0436
  0
LINE
  8
0
 10
11.7507
 20
13.0436
 11
11.7517
 21
13.0654
  0
LINE
  8
0
 10
11.7517
 20
13.0654
 11
11.753
 21
13.0872
  0
LINE
  8
0
 10
11.753
 20
13.0872
 11
11.7547
 21
13.1089
  0
LINE
  8
0
 10
11.7547
 20
13.1089
 11
11.7568
 21
13.1306
  0
LINE
  8
0
 10
11.7568
 20
13.1306
 11
11.7593
 21
13.1523
  0
LINE
  8
0
 10
11.7593
 20
13.1523
 11
11.7622
 21
13.174
  0
LINE
  8
0
 10
11.7622
 20
13.174
 11
11.7654
 21
13.1955
  0
LINE
  8
0
 10
11.7654
 20
13.1955
 11
11.769
 21
13.2171
  0
LINE
  8
0
 10
11.769
 20
13.2171
 11
11.773
 21
13.2385
  0
LINE
  8
0
 10
11.773
 20
13.2385
 11
11.7773
 21
13.2599
  0
LINE
  8
0
 10
11.7773
 20
13.2599
 11
11.782
 21
13.2812
  0
LINE
  8
0
 10
11.782
 20
13.2812
 11
11.7871
 21
13.3024
  0
LINE
  8
0
 10
11.7871
 20
13.3024
 11
11.7926
 21
13.3235
  0
LINE
  8
0
 10
11.7926
 20
13.3235
 11
11.7984
 21
13.3445
  0
LINE
  8
0
 10
11.7984
 20
13.3445
 11
11.8046
 21
13.3655
  0
LINE
  8
0
 10
11.8046
 20
13.3655
 11
11.8112
 21
13.3863
  0
LINE
  8
0
 10
11.8112
 20
13.3863
 11
11.8181
 21
13.407
  0
LINE
  8
0
 10
11.8181
 20
13.407
 11
11.8254
 21
13.4275
  0
LINE
  8
0
 10
11.8254
 20
13.4275
 11
11.833
 21
13.448
  0
LINE
  8
0
 10
11.833
 20
13.448
 11
11.841
 21
13.4682
  0
LINE
  8
0
 10
11.841
 20
13.4682
 11
11.8494
 21
13.4884
  0
LINE
  8
0
 10
11.8494
 20
13.4884
 11
11.8581
 21
13.5084
  0
LINE
  8
0
 10
11.8581
 20
13.5084
 11
11.8671
 21
13.5283
  0
LINE
  8
0
 10
11.8671
 20
13.5283
 11
11.8765
 21
13.548
  0
LINE
  8
0
 10
11.8765
 20
13.548
 11
11.8862
 21
13.5675
  0
LINE
  8
0
 10
11.8862
 20
13.5675
 11
11.8963
 21
13.5868
  0
LINE
  8
0
 10
11.8963
 20
13.5868
 11
11.9067
 21
13.606
  0
LINE
  8
0
 10
11.9067
 20
13.606
 11
11.9175
 21
13.625
  0
LINE
  8
0
 10
11.9175
 20
13.625
 11
11.9285
 21
13.6438
  0
LINE
  8
0
 10
11.9285
 20
13.6438
 11
11.9399
 21
13.6624
  0
LINE
  8
0
 10
11.9399
 20
13.6624
 11
11.9517
 21
13.6808
  0
LINE
  8
0
 10
11.9517
 20
13.6808
 11
11.9637
 21
13.699
  0
LINE
  8
0
 10
11.9637
 20
13.699
 11
11.9761
 21
13.717
  0
LINE
  8
0
 10
11.9761
 20
13.717
 11
11.9887
 21
13.7347
  0
LINE
  8
0
 10
11.9887
 20
13.7347
 11
12.0017
 21
13.7523
  0
LINE
  8
0
 10
12.0017
 20
13.7523
 11
12.015
 21
13.7696
  0
LINE
  8
0
 10
12.015
 20
13.7696
 11
12.0286
 21
13.7866
  0
LINE
  8
0
 10
12.0286
 20
13.7866
 11
12.0424
 21
13.8035
  0
LINE
  8
0
 10
12.0424
 20
13.8035
 11
12.0566
 21
13.8201
  0
LINE
  8
0
 10
12.0566
 20
13.8201
 11
12.0711
 21
13.8364
  0
LINE
  8
0
 10
12.0711
 20
13.8364
 11
12.0858
 21
13.8525
  0
LINE
  8
0
 10
12.0858
 20
13.8525
 11
12.1008
 21
13.8683
  0
LINE
  8
0
 10
12.1008
 20
13.8683
 11
12.1161
 21
13.8839
  0
LINE
  8
0
 10
12.1161
 20
13.8839
 11
12.1317
 21
13.8992
  0
LINE
  8
0
 10
12.1317
 20
13.8992
 11
12.1475
 21
13.9142
  0
LINE
  8
0
 10
12.1475
 20
13.9142
 11
12.1636
 21
13.9289
  0
LINE
  8
0
 10
12.1636
 20
13.9289
 11
12.1799
 21
13.9434
  0
LINE
  8
0
 10
12.1799
 20
13.9434
 11
12.1965
 21
13.9576
  0
LINE
  8
0
 10
12.1965
 20
13.9576
 11
12.2133
 21
13.9714
  0
LINE
  8
0
 10
12.2133
 20
13.9714
 11
12.2304
 21
13.985
  0
LINE
  8
0
 10
12.2304
 20
13.985
 11
12.2477
 21
13.9983
  0
LINE
  8
0
 10
12.2477
 20
13.9983
 11
12.2653
 21
14.0113
  0
LINE
  8
0
 10
12.2653
 20
14.0113
 11
12.283
 21
14.0239
  0
LINE
  8
0
 10
12.283
 20
14.0239
 11
12.301
 21
14.0363
  0
LINE
  8
0
 10
12.301
 20
14.0363
 11
12.3192
 21
14.0483
  0
LINE
  8
0
 10
12.3192
 20
14.0483
 11
12.3376
 21
14.0601
  0
LINE
  8
0
 10
12.3376
 20
14.0601
 11
12.3562
 21
14.0715
  0
LINE
  8
0
 10
12.3562
 20
14.0715
 11
12.375
 21
14.0825
  0
LINE
  8
0
 10
12.375
 20
14.0825
 11
12.394
 21
14.0933
  0
LINE
  8
0
 10
12.394
 20
14.0933
 11
12.4131
 21
14.1037
  0
LINE
  8
0
 10
12.4131
 20
14.1037
 11
12.4325
 21
14.1138
  0
LINE
  8
0
 10
12.4325
 20
14.1138
 11
12.452
 21
14.1235
  0
LINE
  8
0
 10
12.452
 20
14.1235
 11
12.4717
 21
14.1329
  0
LINE
  8
0
 10
12.4717
 20
14.1329
 11
12.4916
 21
14.1419
  0
LINE
  8
0
 10
12.4916
 20
14.1419
 11
12.5116
 21
14.1506
  0
LINE
  8
0
 10
12.5116
 20
14.1506
 11
12.5317
 21
14.159
  0
LINE
  8
0
 10
12.5317
 20
14.159
 11
12.552
 21
14.167
  0
LINE
  8
0
 10
12.552
 20
14.167
 11
12.5725
 21
14.1746
  0
LINE
  8
0
 10
12.5725
 20
14.1746
 11
12.593
 21
14.1819
  0
LINE
  8
0
 10
12.593
 20
14.1819
 11
12.6137
 21
14.1888
  0
LINE
  8
0
 10
12.6137
 20
14.1888
 11
12.6345
 21
14.1954
  0
LINE
  8
0
 10
12.6345
 20
14.1954
 11
12.6554
 21
14.2016
  0
LINE
  8
0
 10
12.6554
 20
14.2016
 11
12.6765
 21
14.2074
  0
LINE
  8
0
 10
12.6765
 20
14.2074
 11
12.6976
 21
14.2129
  0
LINE
  8
0
 10
12.6976
 20
14.2129
 11
12.7188
 21
14.218
  0
LINE
  8
0
 10
12.7188
 20
14.218
 11
12.7401
 21
14.2227
  0
LINE
  8
0
 10
12.7401
 20
14.2227
 11
12.7615
 21
14.227
  0
LINE
  8
0
 10
12.7615
 20
14.227
 11
12.7829
 21
14.231
  0
LINE
  8
0
 10
12.7829
 20
14.231
 11
12.8044
 21
14.2346
  0
LINE
  8
0
 10
12.8044
 20
14.2346
 11
12.826
 21
14.2378
  0
LINE
  8
0
 10
12.826
 20
14.2378
 11
12.8477
 21
14.2407
  0
LINE
  8
0
 10
12.8477
 20
14.2407
 11
12.8693
 21
14.2431
  0
LINE
  8
0
 10
12.8693
 20
14.2431
 11
12.8911
 21
14.2452
  0
LINE
  8
0
 10
12.8911
 20
14.2452
 11
12.9128
 21
14.2469
  0
LINE
  8
0
 10
12.9128
 20
14.2469
 11
12.9346
 21
14.2483
  0
LINE
  8
0
 10
12.9346
 20
14.2483
 11
12.9564
 21
14.2492
  0
LINE
  8
0
 10
12.9564
 20
14.2492
 11
12.9782
 21
14.2498
  0
LINE
  8
0
 10
12.9782
 20
14.2498
 11
13
 21
14.25
  0
LINE
  8
0
 10
13
 20
14.25
 11
13.0218
 21
14.2498
  0
LINE
  8
0
 10
13.0218
 20
14.2498
 11
13.0436
 21
14.2492
  0
LINE
  8
0
 10
13.0436
 20
14.2492
 11
13.0654
 21
14.2483
  0
LINE
  8
0
 10
13.0654
 20
14.2483
 11
13.0872
 21
14.2469
  0
LINE
  8
0
 10
13.0872
 20
14.2469
 11
13.1089
 21
14.2452
  0
LINE
  8
0
 10
13.1089
 20
14.2452
 11
13.1306
 21
14.2431
  0
LINE
  8
0
 10
13.1306
 20
14.2431
 11
13.1523
 21
14.2407
  0
LINE
  8
0
 10
13.1523
 20
14.2407
 11
13.174
 21
14.2378
  0
LINE
  8
0
 10
13.174
 20
14.2378
 11
13.1955
 21
14.2346
  0
LINE
  8
0
 10
13.1955
 20
14.2346
 11
13.2171
 21
14.231
  0
LINE
  8
0
 10
13.2171
 20
14.231
 11
13.2385
 21
14.227
  0
LINE
  8
0
 10
13.2385
 20
14.227
 11
13.2599
 21
14.2227
  0
LINE
  8
0
 10
13.2599
 20
14.2227
 11
13.2812
 21
14.218
  0
LINE
  8
0
 10
13.2812
 20
14.218
 11
13.3024
 21
14.2129
  0
LINE
  8
0
 10
13.3024
 20
14.2129
 11
13.3235
 21
14.2074
  0
LINE
  8
0
 10
13.3235
 20
14.2074
 11
13.3445
 21
14.2016
  0
LINE
  8
0
 10
13.3445
 20
14.2016
 11
13.3655
 21
14.1954
  0
LINE
  8
0
 10
13.3655
 20
14.1954
 11
13.3863
 21
14.1888
  0
LINE
  8
0
 10
13.3863
 20
14.1888
 11
13.407
 21
14.1819
  0
LINE
  8
0
 10
13.407
 20
14.1819
 11
13.4275
 21
14.1746
  0
LINE
  8
0
 10
13.4275
 20
14.1746
 11
13.448
 21
14.167
  0
LINE
  8
0
 10
13.448
 20
14.167
 11
13.4682
 21
14.159
  0
LINE
  8
0
 10
13.4682
 20
14.159
 11
13.4884
 21
14.1506
  0
LINE
  8
0
 10
13.4884
 20
14.1506
 11
13.5084
 21
14.1419
  0
LINE
  8
0
 10
13.5084
 20
14.1419
 11
13.5283
 21
14.1329
  0
LINE
  8
0
 10
13.5283
 20
14.1329
 11
13.548
 21
14.1235
  0
LINE
  8
0
 10
13.548
 20
14.1235
 11
13.5675
 21
14.1138
  0
LINE
  8
0
 10
13.5675
 20
14.1138
 11
13.5868
 21
14.1037
  0
LINE
  8
0
 10
13.5868
 20
14.1037
 11
13.606
 21
14.0933
  0
LINE
  8
0
 10
13.606
 20
14.0933
 11
13.625
 21
14.0825
  0
LINE
  8
0
 10
13.625
 20
14.0825
 11
13.6438
 21
14.0715
  0
LINE
  8
0
 10
13.6438
 20
14.0715
 11
13.6624
 21
14.0601
  0
LINE
  8
0
 10
13.6624
 20
14.0601
 11
13.6808
 21
14.0483
  0
LINE
  8
0
 10
13.6808
 20
14.0483
 11
13.699
 21
14.0363
  0
LINE
  8
0
 10
13.699
 20
14.0363
 11
13.717
 21
14.0239
  0
LINE
  8
0
 10
13.717
 20
14.0239
 11
13.7347
 21
14.0113
  0
LINE
  8
0
 10
13.7347
 20
14.0113
 11
13.7523
 21
13.9983
  0
LINE
  8
0
 10
13.7523
 20
13.9983
 11
13.7696
 21
13.985
  0
LINE
  8
0
 10
13.7696
 20
13.985
 11
13.7866
 21
13.9714
  0
LINE
  8
0
 10
13.7866
 20
13.9714
 11
13.8035
 21
13.9576
  0
LINE
  8
0
 10
13.8035
 20
13.9576
 11
13.8201
 21
13.9434
  0
LINE
  8
0
 10
13.8201
 20
13.9434
 11
13.8364
 21
13.9289
  0
LINE
  8
0
 10
13.8364
 20
13.9289
 11
13.8525
 21
13.9142
  0
LINE
  8
0
 10
13.8525
 20
13.9142
 11
13.8683
 21
13.8992
  0
LINE
  8
0
 10
13.8683
 20
13.8992
 11
13.8839
 21
13.8839
  0
LINE
  8
0
 10
13.8839
 20
13.8839
 11
13.8992
 21
13.8683
  0
LINE
  8
0
 10
13.8992
 20
13.8683
 11
13.9142
 21
13.8525
  0
LINE
  8
0
 10
13.9142
 20
13.8525
 11
13.9289
 21
13.8364
  0
LINE
  8
0
 10
13.9289
 20
13.8364
 11
13.9434
 21
13.8201
  0
LINE
  8
0
 10
13.9434
 20
13.8201
 11
13.9576
 21
13.8035
  0
LINE
  8
0
 10
13.9576
 20
13.8035
 11
13.9714
 21
13.7866
  0
LINE
  8
0
 10
13.9714
 20
13.7866
 11
13.985
 21
13.7696
  0
LINE
  8
0
 10
13.985
 20
13.7696
 11
13.9983
 21
13.7523
  0
LINE
  8
0
 10
13.9983
 20
13.7523
 11
14.0113
 21
13.7347
  0
LINE
  8
0
 10
14.0113
 20
13.7347
 11
14.0239
 21
13.717
  0
LINE
  8
0
 10
14.0239
 20
13.717
 11
14.0363
 21
13.699
  0
LINE
  8
0
 10
14.0363
 20
13.699
 11
14.0483
 21
13.6808
  0
LINE
  8
0
 10
14.0483
 20
13.6808
 11
14.0601
 21
13.6624
  0
LINE
  8
0
 10
14.0601
 20
13.6624
 11
14.0715
 21
13.6438
  0
LINE
  8
0
 10
14.0715
 20
13.6438
 11
14.0825
 21
13.625
  0
LINE
  8
0
 10
14.0825
 20
13.625
 11
14.0933
 21
13.606
  0
LINE
  8
0
 10
14.0933
 20
13.606
 11
14.1037
 21
13.5868
  0
LINE
  8
0
 10
14.1037
 20
13.5868
 11
14.1138
 21
13.5675
  0
LINE
  8
0
 10
14.1138
 20
13.5675
 11
14.1235
 21
13.548
  0
LINE
  8
0
 10
14.1235
 20
13.548
 11
14.1329
 21
13.5283
  0
LINE
  8
0
 10
14.1329
 20
13.5283
 11
14.1419
 21
13.5084
  0
LINE
  8
0
 10
14.1419
 20
13.5084
 11
14.1506
 21
13.4884
  0
LINE
  8
0
 10
14.1506
 20
13.4884
 11
14.159
 21
13.4682
  0
LINE
  8
0
 10
14.159
 20
13.4682
 11
14.167
 21
13.448
  0
LINE
  8
0
 10
14.167
 20
13.448
 11
14.1746
 21
13.4275
  0
LINE
  8
0
 10
14.1746
 20
13.4275
 11
14.1819
 21
13.407
  0
LINE
  8
0
 10
14.1819
 20
13.407
 11
14.1888
 21
13.3863
  0
LINE
  8
0
 10
14.1888
 20
13.3863
 11
14.1954
 21
13.3655
  0
LINE
  8
0
 10
14.1954
 20
13.3655
 11
14.2016
 21
13.3445
  0
LINE
  8
0
 10
14.2016
 20
13.3445
 11
14.2074
 21
13.3235
  0
LINE
  8
0
 10
14.2074
 20
13.3235
 11
14.2129
 21
13.3024
  0
LINE
  8
0
 10
14.2129
 20
13.3024
 11
14.218
 21
13.2812
  0
LINE
  8
0
 10
14.218
 20
13.2812
 11
14.2227
 21
13.2599
  0
LINE
  8
0
 10
14.2227
 20
13.2599
 11
14.227
 21
13.2385
  0
LINE
  8
0
 10
14.227
 20
13.2385
 11
14.231
 21
13.2171
  0
LINE
  8
0
 10
14.231
 20
13.2171
 11
14.2346
 21
13.1955
  0
LINE
  8
0
 10
14.2346
 20
13.1955
 11
14.2378
 21
13.174
  0
LINE
  8
0
 10
14.2378
 20
13.174
 11
14.2407
 21
13.1523
  0
LINE
  8
0
 10
14.2407
 20
13.1523
 11
14.2431
 21
13.1306
  0
LINE
  8
0
 10
14.2431
 20
13.1306
 11
14.2452
 21
13.1089
  0
LINE
  8
0
 10
14.2452
 20
13.1089
 11
14.2469
 21
13.0872
  0
LINE
  8
0
 10
14.2469
 20
13.0872
 11
14.2483
 21
13.0654
  0
LINE
  8
0
 10
14.2483
 20
13.0654
 11
14.2492
 21
13.0436
  0
LINE
  8
0
 10
14.2492
 20
13.0436
 11
14.2498
 21
13.0218
  0
LINE
  8
0
 10
14.2498
 20
13.0218
 11
14.25
 21
13
  0
LINE
  8
0
 10
14.25
 20
13
 11
14.2498
 21
12.9782
  0
LINE
  8
0
 10
14.2498
 20
12.9782
 11
14.2492
 21
12.9564
  0
LINE
  8
0
 10
14.2492
 20
12.9564
 11
14.2483
 21
12.9346
  0
LINE
  8
0
 10
14.2483
 20
12.9346
 11
14.2469
 21
12.9128
  0
LINE
  8
0
 10
14.2469
 20
12.9128
 11
14.2452
 21
12.8911
  0
LINE
  8
0
 10
14.2452
 20
12.8911
 11
14.2431
 21
12.8693
  0
LINE
  8
0
 10
14.2431
 20
12.8693
 11
14.2407
 21
12.8477
  0
LINE
  8
0
 10
14.2407
 20
12.8477
 11
14.2378
 21
12.826
  0
LINE
  8
0
 10
14.2378
 20
12.826
 11
14.2346
 21
12.8044
  0
LINE
  8
0
 10
14.2346
 20
12.8044
 11
14.231
 21
12.7829
  0
LINE
  8
0
 10
14.231
 20
12.7829
 11
14.227
 21
12.7615
  0
LINE
  8
0
 10
14.227
 20
12.7615
 11
14.2227
 21
12.7401
  0
LINE
  8
0
 10
14.2227
 20
12.7401
 11
14.218
 21
12.7188
  0
LINE
  8
0
 10
14.218
 20
12.7188
 11
14.2129
 21
12.6976
  0
LINE
  8
0
 10
14.2129
 20
12.6976
 11
14.2074
 21
12.6765
  0
LINE
  8
0
 10
14.2074
 20
12.6765
 11
14.2016
 21
12.6554
  0
LINE
  8
0
 10
14.2016
 20
12.6554
 11
14.1954
 21
12.6345
  0
LINE
  8
0
 10
14.1954
 20
12.6345
 11
14.1888
 21
12.6137
  0
LINE
  8
0
 10
14.1888
 20
12.6137
 11
14.1819
 21
12.593
  0
LINE
  8
0
 10
14.1819
 20
12.593
 11
14.1746
 21
12.5725
  0
LINE
  8
0
 10
14.1746
 20
12.5725
 11
14.167
 21
12.552
  0
LINE
  8
0
 10
14.167
 20
12.552
 11
14.159
 21
12.5317
  0
LINE
  8
0
 10
14.159
 20
12.5317
 11
14.1506
 21
12.5116
  0
LINE
  8
0
 10
14.1506
 20
12.5116
 11
14.1419
 21
12.4916
  0
LINE
  8
0
 10
14.1419
 20
12.4916
 11
14.1329
 21
12.4717
  0
LINE
  8
0
 10
14.1329
 20
12.4717
 11
14.1235
 21
12.452
  0
LINE
  8
0
 10
14.1235
 20
12.452
 11
14.1138
 21
12.4325
  0
LINE
  8
0
 10
14.1138
 20
12.4325
 11
14.1037
 21
12.4131
  0
LINE
  8
0
 10
14.1037
 20
12.4131
 11
14.0933
 21
12.394
  0
LINE
  8
0
 10
14.0933
 20
12.394
 11
14.0825
 21
12.375
  0
LINE
  8
0
 10
14.0825
 20
12.375
 11
14.0715
 21
12.3562
  0
LINE
  8
0
 10
14.0715
 20
12.3562
 11
14.0601
 21
12.3376
  0
LINE
  8
0
 10
14.0601
 20
12.3376
 11
14.0483
 21
12.3192
  0
LINE
  8
0
 10
14.0483
 20
12.3192
 11
14.0363
 21
12.301
  0
LINE
  8
0
 10
14.0363
 20
12.301
 11
14.0239
 21
12.283
  0
LINE
  8
0
 10
14.0239
 20
12.283
 11
14.0113
 21
12.2653
  0
LINE
  8
0
 10
14.0113
 20
12.2653
 11
13.9983
 21
12.2477
  0
LINE
  8
0
 10
13.9983
 20
12.2477
 11
13.985
 21
12.2304
  0
LINE
  8
0
 10
13.985
 20
12.2304
 11
13.9714
 21
12.2133
  0
LINE
  8
0
 10
13.9714
 20
12.2133
 11
13.9576
 21
12.1965
  0
LINE
  8
0
 10
13.9576
 20
12.1965
 11
13.9434
 21
12.1799
  0
LINE
  8
0
 10
13.9434
 20
12.1799
 11
13.9289
 21
12.1636
  0
LINE
  8
0
 10
13.9289
 20
12.1636
 11
13.9142
 21
12.1475
  0
LINE
  8
0
 10
13.9142
 20
12.1475
 11
13.8992
 21
12.1317
  0
LINE
  8
0
 10
13.8992
 20
12.1317
 11
13.8839
 21
12.1161
  0
LINE
  8
0
 10
13.8839
 20
12.1161
 11
13.8683
 21
12.1008
  0
LINE
  8
0
 10
13.8683
 20
12.1008
 11
13.8525
 21
12.0858
  0
LINE
  8
0
 10
13.8525
 20
12.0858
 11
13.8364
 21
12.0711
  0
LINE
  8
0
 10
13.8364
 20
12.0711
 11
13.8201
 21
12.0566
  0
LINE
  8
0
 10
13.8201
 20
12.0566
 11
13.8035
 21
12.0424
  0
LINE
  8
0
 10
13.8035
 20
12.0424
 11
13.7866
 21
12.0286
  0
LINE
  8
0
 10
13.7866
 20
12.0286
 11
13.7696
 21
12.015
  0
LINE
  8
0
 10
13.7696
 20
12.015
 11
13.7523
 21
12.0017
  0
LINE
  8
0
 10
13.7523
 20
12.0017
 11
13.7347
 21
11.9887
  0
LINE
  8
0
 10
13.7347
 20
11.9887
 11
13.717
 21
11.9761
  0
LINE
  8
0
 10
13.717
 20
11.9761
 11
13.699
 21
11.9637
  0
LINE
  8
0
 10
13.699
 20
11.9637
 11
13.6808
 21
11.9517
  0
LINE
  8
0
 10
13.6808
 20
11.9517
 11
13.6624
 21
11.9399
  0
LINE
  8
0
 10
13.6624
 20
11.9399
 11
13.6438
 21
11.9285
  0
LINE
  8
0
 10
13.6438
 20
11.9285
 11
13.625
 21
11.9175
  0
LINE
  8
0
 10
13.625
 20
11.9175
 11
13.606
 21
11.9067
  0
LINE
  8
0
 10
13.606
 20
11.9067
 11
13.5868
 21
11.8963
  0
LINE
  8
0
 10
13.5868
 20
11.8963
 11
13.5675
 21
11.8862
  0
LINE
  8
0
 10
13.5675
 20
11.8862
 11
13.548
 21
11.8765
  0
LINE
  8
0
 10
13.548
 20
11.8765
 11
13.5283
 21
11.8671
  0
LINE
  8
0
 10
13.5283
 20
11.8671
 11
13.5084
 21
11.8581
  0
LINE
  8
0
 10
13.5084
 20
11.8581
 11
13.4884
 21
11.8494
  0
LINE
  8
0
 10
13.4884
 20
11.8494
 11
13.4682
 21
11.841
  0
LINE
  8
0
 10
13.4682
 20
11.841
 11
13.448
 21
11.833
  0
LINE
  8
0
 10
13.448
 20
11.833
 11
13.4275
 21
11.8254
  0
LINE
  8
0
 10
13.4275
 20
11.8254
 11
13.407
 21
11.8181
  0
LINE
  8
0
 10
13.407
 20
11.8181
 11
13.3863
 21
11.8112
  0
LINE
  8
0
 10
13.3863
 20
11.8112
 11
13.3655
 21
11.8046
  0
LINE
  8
0
 10
13.3655
 20
11.8046
 11
13.3445
 21
11.7984
  0
LINE
  8
0
 10
13.3445
 20
11.7984
 11
13.3235
 21
11.7926
  0
LINE
  8
0
 10
13.3235
 20
11.7926
 11
13.3024
 21
11.7871
  0
LINE
  8
0
 10
13.3024
 20
11.7871
 11
13.2812
 21
11.782
  0
LINE
  8
0
 10
13.2812
 20
11.782
 11
13.2599
 21
11.7773
  0
LINE
  8
0
 10
13.2599
 20
11.7773
 11
13.2385
 21
11.773
  0
LINE
  8
0
 10
13.2385
 20
11.773
 11
13.2171
 21
11.769
  0
LINE
  8
0
 10
13.2171
 20
11.769
 11
13.1955
 21
11.7654
  0
LINE
  8
0
 10
13.1955
 20
11.7654
 11
13.174
 21
11.7622
  0
LINE
  8
0
 10
13.174
 20
11.7622
 11
13.1523
 21
11.7593
  0
LINE
  8
0
 10
13.1523
 20
11.7593
 11
13.1306
 21
11.7568
  0
LINE
  8
0
 10
13.1306
 20
11.7568
 11
13.1089
 21
11.7547
  0
LINE
  8
0
 10
13.1089
 20
11.7547
 11
13.0872
 21
11.753
  0
LINE
  8
0
 10
13.0872
 20
11.753
 11
13.0654
 21
11.7517
  0
LINE
  8
0
 10
13.0654
 20
11.7517
 11
13.0436
 21
11.7507
  0
LINE
  8
0
 10
13.0436
 20
11.7507
 11
13.0218
 21
11.7502
  0
LINE
  8
0
 10
13.0218
 20
11.7502
 11
13
 21
11.75
  0
LINE
  8
0
 10
13
 20
11.75
 11
12.9782
 21
11.7502
  0
LINE
  8
0
 10
80.9782
 20
11.7502
 11
80.9564
 21
11.7507
  0
LINE
  8
0
 10
80.9564
 20
11.7507
 11
80.9346
 21
11.7517
  0
LINE
  8
0
 10
80.9346
 20
11.7517
 11
80.9128
 21
11.753
  0
LINE
  8
0
 10
80.9128
 20
11.753
 11
80.8911
 21
11.7547
  0
LINE
  8
0
 10
80.8911
 20
11.7547
 11
80.8693
 21
11.7568
  0
LINE
  8
0
 10
80.8693
 20
11.7568
 11
80.8477
 21
11.7593
  0
LINE
  8
0
 10
80.8477
 20
11.7593
 11
80.826
 21
11.7622
  0
LINE
  8
0
 10
80.826
 20
11.7622
 11
80.8044
 21
11.7654
  0
LINE
  8
0
 10
80.8044
 20
11.7654
 11
80.7829
 21
11.769
  0
LINE
  8
0
 10
80.7829
 20
11.769
 11
80.7615
 21
11.773
  0
LINE
  8
0
 10
80.7615
 20
11.773
 11
80.7401
 21
11.7773
  0
LINE
  8
0
 10
80.7401
 20
11.7773
 11
80.7188
 21
11.782
  0
LINE
  8
0
 10
80.7188
 20
11.782
 11
80.6976
 21
11.7871
  0
LINE
  8
0
 10
80.6976
 20
11.7871
 11
80.6765
 21
11.7926
  0
LINE
  8
0
 10
80.6765
 20
11.7926
 11
80.6554
 21
11.7984
  0
LINE
  8
0
 10
80.6554
 20
11.7984
 11
80.6345
 21
11.8046
  0
LINE
  8
0
 10
80.6345
 20
11.8046
 11
80.6137
 21
11.8112
  0
LINE
  8
0
 10
80.6137
 20
11.8112
 11
80.593
 21
11.8181
  0
LINE
  8
0
 10
80.593
 20
11.8181
 11
80.5725
 21
11.8254
  0
LINE
  8
0
 10
80.5725
 20
11.8254
 11
80.552
 21
11.833
  0
LINE
  8
0
 10
80.552
 20
11.833
 11
80.5317
 21
11.841
  0
LINE
  8
0
 10
80.5317
 20
11.841
 11
80.5116
 21
11.8494
  0
LINE
  8
0
 10
80.5116
 20
11.8494
 11
80.4916
 21
11.8581
  0
LINE
  8
0
 10
80.4916
 20
11.8581
 11
80.4717
 21
11.8671
  0
LINE
  8
0
 10
80.4717
 20
11.8671
 11
80.452
 21
11.8765
  0
LINE
  8
0
 10
80.452
 20
11.8765
 11
80.4325
 21
11.8862
  0
LINE
  8
0
 10
80.4325
 20
11.8862
 11
80.4131
 21
11.8963
  0
LINE
  8
0
 10
80.4131
 20
11.8963
 11
80.394
 21
11.9067
  0
LINE
  8
0
 10
80.394
 20
11.9067
 11
80.375
 21
11.9175
  0
LINE
  8
0
 10
80.375
 20
11.9175
 11
80.3562
 21
11.9285
  0
LINE
  8
0
 10
80.3562
 20
11.9285
 11
80.3376
 21
11.9399
  0
LINE
  8
0
 10
80.3376
 20
11.9399
 11
80.3192
 21
11.9517
  0
LINE
  8
0
 10
80.3192
 20
11.9517
 11
80.301
 21
11.9637
  0
LINE
  8
0
 10
80.301
 20
11.9637
 11
80.283
 21
11.9761
  0
LINE
  8
0
 10
80.283
 20
11.9761
 11
80.2653
 21
11.9887
  0
LINE
  8
0
 10
80.2653
 20
11.9887
 11
80.2477
 21
12.0017
  0
LINE
  8
0
 10
80.2477
 20
12.0017
 11
80.2304
 21
12.015
  0
LINE
  8
0
 10
80.2304
 20
12.015
 11
80.2133
 21
12.0286
  0
LINE
  8
0
 10
80.2133
 20
12.0286
 11
80.1965
 21
12.0424
  0
LINE
  8
0
 10
80.1965
 20
12.0424
 11
80.1799
 21
12.0566
  0
LINE
  8
0
 10
80.1799
 20
12.0566
 11
80.1636
 21
12.0711
  0
LINE
  8
0
 10
80.1636
 20
12.0711
 11
80.1475
 21
12.0858
  0
LINE
  8
0
 10
80.1475
 20
12.0858
 11
80.1317
 21
12.1008
  0
LINE
  8
0
 10
80.1317
 20
12.1008
 11
80.1161
 21
12.1161
  0
LINE
  8
0
 10
80.1161
 20
12.1161
 11
80.1008
 21
12.1317
  0
LINE
  8
0
 10
80.1008
 20
12.1317
 11
80.0858
 21
12.1475
  0
LINE
  8
0
 10
80.0858
 20
12.1475
 11
80.0711
 21
12.1636
  0
LINE
  8
0
 10
80.0711
 20
12.1636
 11
80.0566
 21
12.1799
  0
LINE
  8
0
 10
80.0566
 20
12.1799
 11
80.0424
 21
12.1965
  0
LINE
  8
0
 10
80.0424
 20
12.1965
 11
80.0286
 21
12.2133
  0
LINE
  8
0
 10
80.0286
 20
12.2133
 11
80.015
 21
12.2304
  0
LINE
  8
0
 10
80.015
 20
12.2304
 11
80.0017
 21
12.2477
  0
LINE
  8
0
 10
80.0017
 20
12.2477
 11
79.9887
 21
12.2653
  0
LINE
  8
0
 10
79.9887
 20
12.2653
 11
79.9761
 21
12.283
  0
LINE
  8
0
 10
79.9761
 20
12.283
 11
79.9637
 21
12.301
  0
LINE
  8
0
 10
79.9637
 20
12.301
 11
79.9517
 21
12.3192
  0
LINE
  8
0
 10
79.9517
 20
12.3192
 11
79.9399
 21
12.3376
  0
LINE
  8
0
 10
79.9399
 20
12.3376
 11
79.9285
 21
12.3562
  0
LINE
  8
0
 10
79.9285
 20
12.3562
 11
79.9175
 21
12.375
  0
LINE
  8
0
 10
79.9175
 20
12.375
 11
79.9067
 21
12.394
  0
LINE
  8
0
 10
79.9067
 20
12.394
 11
79.8963
 21
12.4131
  0
LINE
  8
0
 10
79.8963
 20
12.4131
 11
79.8862
 21
12.4325
  0
LINE
  8
0
 10
79.8862
 20
12.4325
 11
79.8765
 21
12.452
  0
LINE
  8
0
 10
79.8765
 20
12.452
 11
79.8671
 21
12.4717
  0
LINE
  8
0
 10
79.8671
 20
12.4717
 11
79.8581
 21
12.4916
  0
LINE
  8
0
 10
79.8581
 20
12.4916
 11
79.8494
 21
12.5116
  0
LINE
  8
0
 10
79.8494
 20
12.5116
 11
79.841
 21
12.5317
  0
LINE
  8
0
 10
79.841
 20
12.5317
 11
79.833
 21
12.552
  0
LINE
  8
0
 10
79.833
 20
12.552
 11
79.8254
 21
12.5725
  0
LINE
  8
0
 10
79.8254
 20
12.5725
 11
79.8181
 21
12.593
  0
LINE
  8
0
 10
79.8181
 20
12.593
 11
79.8112
 21
12.6137
  0
LINE
  8
0
 10
79.8112
 20
12.6137
 11
79.8046
 21
12.6345
  0
LINE
  8
0
 10
79.8046
 20
12.6345
 11
79.7984
 21
12.6554
  0
LINE
  8
0
 10
79.7984
 20
12.6554
 11
79.7926
 21
12.6765
  0
LINE
  8
0
 10
79.7926
 20
12.6765
 11
79.7871
 21
12.6976
  0
LINE
  8
0
 10
79.7871
 20
12.6976
 11
79.782
 21
12.7188
  0
LINE
  8
0
 10
79.782
 20
12.7188
 11
79.7773
 21
12.7401
  0
LINE
  8
0
 10
79.7773
 20
12.7401
 11
79.773
 21
12.7615
  0
LINE
  8
0
 10
79.773
 20
12.7615
 11
79.769
 21
12.7829
  0
LINE
  8
0
 10
79.769
 20
12.7829
 11
79.7654
 21
12.8044
  0
LINE
  8
0
 10
79.7654
 20
12.8044
 11
79.7622
 21
12.826
  0
LINE
  8
0
 10
79.7622
 20
12.826
 11
79.7593
 21
12.8477
  0
LINE
  8
0
 10
79.7593
 20
12.8477
 11
79.7568
 21
12.8693
  0
LINE
  8
0
 10
79.7568
 20
12.8693
 11
79.7547
 21
12.8911
  0
LINE
  8
0
 10
79.7547
 20
12.8911
 11
79.753
 21
12.9128
  0
LINE
  8
0
 10
79.753
 20
12.9128
 11
79.7517
 21
12.9346
  0
LINE
  8
0
 10
79.7517
 20
12.9346
 11
79.7507
 21
12.9564
  0
LINE
  8
0
 10
79.7507
 20
12.9564
 11
79.7502
 21
12.9782
  0
LINE
  8
0
 10
79.7502
 20
12.9782
 11
79.75
 21
13
  0
LINE
  8
0
 10
79.75
 20
13
 11
79.7502
 21
13.0218
  0
LINE
  8
0
 10
79.7502
 20
13.0218
 11
79.7507
 21
13.0436
  0
LINE
  8
0
 10
79.7507
 20
13.0436
 11
79.7517
 21
13.0654
  0
LINE
  8
0
 10
79.7517
 20
13.0654
 11
79.753
 21
13.0872
  0
LINE
  8
0
 10
79.753
 20
13.0872
 11
79.7547
 21
13.1089
  0
LINE
  8
0
 10
79.7547
 20
13.1089
 11
79.7568
 21
13.1306
  0
LINE
  8
0
 10
79.7568
 20
13.1306
 11
79.7593
 21
13.1523
  0
LINE
  8
0
 10
79.7593
 20
13.1523
 11
79.7622
 21
13.174
  0
LINE
  8
0
 10
79.7622
 20
13.174
 11
79.7654
 21
13.1955
  0
LINE
  8
0
 10
79.7654
 20
13.1955
 11
79.769
 21
13.2171
  0
LINE
  8
0
 10
79.769
 20
13.2171
 11
79.773
 21
13.2385
  0
LINE
  8
0
 10
79.773
 20
13.2385
 11
79.7773
 21
13.2599
  0
LINE
  8
0
 10
79.7773
 20
13.2599
 11
79.782
 21
13.2812
  0
LINE
  8
0
 10
79.782
 20
13.2812
 11
79.7871
 21
13.3024
  0
LINE
  8
0
 10
79.7871
 20
13.3024
 11
79.7926
 21
13.3235
  0
LINE
  8
0
 10
79.7926
 20
13.3235
 11
79.7984
 21
13.3445
  0
LINE
  8
0
 10
79.7984
 20
13.3445
 11
79.8046
 21
13.3655
  0
LINE
  8
0
 10
79.8046
 20
13.3655
 11
79.8112
 21
13.3863
  0
LINE
  8
0
 10
79.8112
 20
13.3863
 11
79.8181
 21
13.407
  0
LINE
  8
0
 10
79.8181
 20
13.407
 11
79.8254
 21
13.4275
  0
LINE
  8
0
 10
79.8254
 20
13.4275
 11
79.833
 21
13.448
  0
LINE
  8
0
 10
79.833
 20
13.448
 11
79.841
 21
13.4682
  0
LINE
  8
0
 10
79.841
 20
13.4682
 11
79.8494
 21
13.4884
  0
LINE
  8
0
 10
79.8494
 20
13.4884
 11
79.8581
 21
13.5084
  0
LINE
  8
0
 10
79.8581
 20
13.5084
 11
79.8671
 21
13.5283
  0
LINE
  8
0
 10
79.8671
 20
13.5283
 11
79.8765
 21
13.548
  0
LINE
  8
0
 10
79.8765
 20
13.548
 11
79.8862
 21
13.5675
  0
LINE
  8
0
 10
79.8862
 20
13.5675
 11
79.8963
 21
13.5868
  0
LINE
  8
0
 10
79.8963
 20
13.5868
 11
79.9067
 21
13.606
  0
LINE
  8
0
 10
79.9067
 20
13.606
 11
79.9175
 21
13.625
  0
LINE
  8
0
 10
79.9175
 20
13.625
 11
79.9285
 21
13.6438
  0
LINE
  8
0
 10
79.9285
 20
13.6438
 11
79.9399
 21
13.6624
  0
LINE
  8
0
 10
79.9399
 20
13.6624
 11
79.9517
 21
13.6808
  0
LINE
  8
0
 10
79.9517
 20
13.6808
 11
79.9637
 21
13.699
  0
LINE
  8
0
 10
79.9637
 20
13.699
 11
79.9761
 21
13.717
  0
LINE
  8
0
 10
79.9761
 20
13.717
 11
79.9887
 21
13.7347
  0
LINE
  8
0
 10
79.9887
 20
13.7347
 11
80.0017
 21
13.7523
  0
LINE
  8
0
 10
80.0017
 20
13.7523
 11
80.015
 21
13.7696
  0
LINE
  8
0
 10
80.015
 20
13.7696
 11
80.0286
 21
13.7866
  0
LINE
  8
0
 10
80.0286
 20
13.7866
 11
80.0424
 21
13.8035
  0
LINE
  8
0
 10
80.0424
 20
13.8035
 11
80.0566
 21
13.8201
  0
LINE
  8
0
 10
80.0566
 20
13.8201
 11
80.0711
 21
13.8364
  0
LINE
  8
0
 10
80.0711
 20
13.8364
 11
80.0858
 21
13.8525
  0
LINE
  8
0
 10
80.0858
 20
13.8525
 11
80.1008
 21
13.8683
  0
LINE
  8
0
 10
80.1008
 20
13.8683
 11
80.1161
 21
13.8839
  0
LINE
  8
0
 10
80.1161
 20
13.8839
 11
80.1317
 21
13.8992
  0
LINE
  8
0
 10
80.1317
 20
13.8992
 11
80.1475
 21
13.9142
  0
LINE
  8
0
 10
80.1475
 20
13.9142
 11
80.1636
 21
13.9289
  0
LINE
  8
0
 10
80.1636
 20
13.9289
 11
80.1799
 21
13.9434
  0
LINE
  8
0
 10
80.1799
 20
13.9434
 11
80.1965
 21
13.9576
  0
LINE
  8
0
 10
80.1965
 20
13.9576
 11
80.2133
 21
13.9714
  0
LINE
  8
0
 10
80.2133
 20
13.9714
 11
80.2304
 21
13.985
  0
LINE
  8
0
 10
80.2304
 20
13.985
 11
80.2477
 21
13.9983
  0
LINE
  8
0
 10
80.2477
 20
13.9983
 11
80.2653
 21
14.0113
  0
LINE
  8
0
 10
80.2653
 20
14.0113
 11
80.283
 21
14.0239
  0
LINE
  8
0
 10
80.283
 20
14.0239
 11
80.301
 21
14.0363
  0
LINE
  8
0
 10
80.301
 20
14.0363
 11
80.3192
 21
14.0483
  0
LINE
  8
0
 10
80.3192
 20
14.0483
 11
80.3376
 21
14.0601
  0
LINE
  8
0
 10
80.3376
 20
14.0601
 11
80.3562
 21
14.0715
  0
LINE
  8
0
 10
80.3562
 20
14.0715
 11
80.375
 21
14.0825
  0
LINE
  8
0
 10
80.375
 20
14.0825
 11
80.394
 21
14.0933
  0
LINE
  8
0
 10
80.394
 20
14.0933
 11
80.4131
 21
14.1037
  0
LINE
  8
0
 10
80.4131
 20
14.1037
 11
80.4325
 21
14.1138
  0
LINE
  8
0
 10
80.4325
 20
14.1138
 11
80.452
 21
14.1235
  0
LINE
  8
0
 10
80.452
 20
14.1235
 11
80.4717
 21
14.1329
  0
LINE
  8
0
 10
80.4717
 20
14.1329
 11
80.4916
 21
14.1419
  0
LINE
  8
0
 10
80.4916
 20
14.1419
 11
80.5116
 21
14.1506
  0
LINE
  8
0
 10
80.5116
 20
14.1506
 11
80.5317
 21
14.159
  0
LINE
  8
0
 10
80.5317
 20
14.159
 11
80.552
 21
14.167
  0
LINE
  8
0
 10
80.552
 20
14.167
 11
80.5725
 21
14.1746
  0
LINE
  8
0
 10
80.5725
 20
14.1746
 11
80.593
 21
14.1819
  0
LINE
  8
0
 10
80.593
 20
14.1819
 11
80.6137
 21
14.1888
  0
LINE
  8
0
 10
80.6137
 20
14.1888
 11
80.6345
 21
14.1954
  0
LINE
  8
0
 10
80.6345
 20
14.1954
 11
80.6554
 21
14.2016
  0
LINE
  8
0
 10
80.6554
 20
14.2016
 11
80.6765
 21
14.2074
  0
LINE
  8
0
 10
80.6765
 20
14.2074
 11
80.6976
 21
14.2129
  0
LINE
  8
0
 10
80.6976
 20
14.2129
 11
80.7188
 21
14.218
  0
LINE
  8
0
 10
80.7188
 20
14.218
 11
80.7401
 21
14.2227
  0
LINE
  8
0
 10
80.7401
 20
14.2227
 11
80.7615
 21
14.227
  0
LINE
  8
0
 10
80.7615
 20
14.227
 11
80.7829
 21
14.231
  0
LINE
  8
0
 10
80.7829
 20
14.231
 11
80.8044
 21
14.2346
  0
LINE
  8
0
 10
80.8044
 20
14.2346
 11
80.826
 21
14.2378
  0
LINE
  8
0
 10
80.826
 20
14.2378
 11
80.8477
 21
14.2407
  0
LINE
  8
0
 10
80.8477
 20
14.2407
 11
80.8693
 21
14.2431
  0
LINE
  8
0
 10
80.8693
 20
14.2431
 11
80.8911
 21
14.2452
  0
LINE
  8
0
 10
80.8911
 20
14.2452
 11
80.9128
 21
14.2469
  0
LINE
  8
0
 10
80.9128
 20
14.2469
 11
80.9346
 21
14.2483
  0
LINE
  8
0
 10
80.9346
 20
14.2483
 11
80.9564
 21
14.2492
  0
LINE
  8
0
 10
80.9564
 20
14.2492
 11
80.9782
 21
14.2498
  0
LINE
  8
0
 10
80.9782
 20
14.2498
 11
81
 21
14.25
  0
LINE
  8
0
 10
81
 20
14.25
 11
81.0218
 21
14.2498
  0
LINE
  8
0
 10
81.0218
 20
14.2498
 11
81.0436
 21
14.2492
  0
LINE
  8
0
 10
81.0436
 20
14.2492
 11
81.0654
 21
14.2483
  0
LINE
  8
0
 10
81.0654
 20
14.2483
 11
81.0872
 21
14.2469
  0
LINE
  8
0
 10
81.0872
 20
14.2469
 11
81.1089
 21
14.2452
  0
LINE
  8
0
 10
81.1089
 20
14.2452
 11
81.1306
 21
14.2431
  0
LINE
  8
0
 10
81.1306
 20
14.2431
 11
81.1523
 21
14.2407
  0
LINE
  8
0
 10
81.1523
 20
14.2407
 11
81.174
 21
14.2378
  0
LINE
  8
0
 10
81.174
 20
14.2378
 11
81.1955
 21
14.2346
  0
LINE
  8
0
 10
81.1955
 20
14.2346
 11
81.2171
 21
14.231
  0
LINE
  8
0
 10
81.2171
 20
14.231
 11
81.2385
 21
14.227
  0
LINE
  8
0
 10
81.2385
 20
14.227
 11
81.2599
 21
14.2227
  0
LINE
  8
0
 10
81.2599
 20
14.2227
 11
81.2812
 21
14.218
  0
LINE
  8
0
 10
81.2812
 20
14.218
 11
81.3024
 21
14.2129
  0
LINE
  8
0
 10
81.3024
 20
14.2129
 11
81.3235
 21
14.2074
  0
LINE
  8
0
 10
81.3235
 20
14.2074
 11
81.3445
 21
14.2016
  0
LINE
  8
0
 10
81.3445
 20
14.2016
 11
81.3655
 21
14.1954
  0
LINE
  8
0
 10
81.3655
 20
14.1954
 11
81.3863
 21
14.1888
  0
LINE
  8
0
 10
81.3863
 20
14.1888
 11
81.407
 21
14.1819
  0
LINE
  8
0
 10
81.407
 20
14.1819
 11
81.4275
 21
14.1746
  0
LINE
  8
0
 10
81.4275
 20
14.1746
 11
81.448
 21
14.167
  0
LINE
  8
0
 10
81.448
 20
14.167
 11
81.4682
 21
14.159
  0
LINE
  8
0
 10
81.4682
 20
14.159
 11
81.4884
 21
14.1506
  0
LINE
  8
0
 10
81.4884
 20
14.1506
 11
81.5084
 21
14.1419
  0
LINE
  8
0
 10
81.5084
 20
14.1419
 11
81.5283
 21
14.1329
  0
LINE
  8
0
 10
81.5283
 20
14.1329
 11
81.548
 21
14.1235
  0
LINE
  8
0
 10
81.548
 20
14.1235
 11
81.5675
 21
14.1138
  0
LINE
  8
0
 10
81.5675
 20
14.1138
 11
81.5868
 21
14.1037
  0
LINE
  8
0
 10
81.5868
 20
14.1037
 11
81.606
 21
14.0933
  0
LINE
  8
0
 10
81.606
 20
14.0933
 11
81.625
 21
14.0825
  0
LINE
  8
0
 10
81.625
 20
14.0825
 11
81.6438
 21
14.0715
  0
LINE
  8
0
 10
81.6438
 20
14.0715
 11
81.6624
 21
14.0601
  0
LINE
  8
0
 10
81.6624
 20
14.0601
 11
81.6808
 21
14.0483
  0
LINE
  8
0
 10
81.6808
 20
14.0483
 11
81.699
 21
14.0363
  0
LINE
  8
0
 10
81.699
 20
14.0363
 11
81.717
 21
14.0239
  0
LINE
  8
0
 10
81.717
 20
14.0239
 11
81.7347
 21
14.0113
  0
LINE
  8
0
 10
81.7347
 20
14.0113
 11
81.7523
 21
13.9983
  0
LINE
  8
0
 10
81.7523
 20
13.9983
 11
81.7696
 21
13.985
  0
LINE
  8
0
 10
81.7696
 20
13.985
 11
81.7866
 21
13.9714
  0
LINE
  8
0
 10
81.7866
 20
13.9714
 11
81.8035
 21
13.9576
  0
LINE
  8
0
 10
81.8035
 20
13.9576
 11
81.8201
 21
13.9434
  0
LINE
  8
0
 10
81.8201
 20
13.9434
 11
81.8364
 21
13.9289
  0
LINE
  8
0
 10
81.8364
 20
13.9289
 11
81.8525
 21
13.9142
  0
LINE
  8
0
 10
81.8525
 20
13.9142
 11
81.8683
 21
13.8992
  0
LINE
  8
0
 10
81.8683
 20
13.8992
 11
81.8839
 21
13.8839
  0
LINE
  8
0
 10
81.8839
 20
13.8839
 11
81.8992
 21
13.8683
  0
LINE
  8
0
 10
81.8992
 20
13.8683
 11
81.9142
 21
13.8525
  0
LINE
  8
0
 10
81.9142
 20
13.8525
 11
81.9289
 21
13.8364
  0
LINE
  8
0
 10
81.9289
 20
13.8364
 11
81.9434
 21
13.8201
  0
LINE
  8
0
 10
81.9434
 20
13.8201
 11
81.9576
 21
13.8035
  0
LINE
  8
0
 10
81.9576
 20
13.8035
 11
81.9714
 21
13.7866
  0
LINE
  8
0
 10
81.9714
 20
13.7866
 11
81.985
 21
13.7696
  0
LINE
  8
0
 10
81.985
 20
13.7696
 11
81.9983
 21
13.7523
  0
LINE
  8
0
 10
81.9983
 20
13.7523
 11
82.0113
 21
13.7347
  0
LINE
  8
0
 10
82.0113
 20
13.7347
 11
82.0239
 21
13.717
  0
LINE
  8
0
 10
82.0239
 20
13.717
 11
82.0363
 21
13.699
  0
LINE
  8
0
 10
82.0363
 20
13.699
 11
82.0483
 21
13.6808
  0
LINE
  8
0
 10
82.0483
 20
13.6808
 11
82.0601
 21
13.6624
  0
LINE
  8
0
 10
82.0601
 20
13.6624
 11
82.0715
 21
13.6438
  0
LINE
  8
0
 10
82.0715
 20
13.6438
 11
82.0825
 21
13.625
  0
LINE
  8
0
 10
82.0825
 20
13.625
 11
82.0933
 21
13.606
  0
LINE
  8
0
 10
82.0933
 20
13.606
 11
82.1037
 21
13.5868
  0
LINE
  8
0
 10
82.1037
 20
13.5868
 11
82.1138
 21
13.5675
  0
LINE
  8
0
 10
82.1138
 20
13.5675
 11
82.1235
 21
13.548
  0
LINE
  8
0
 10
82.1235
 20
13.548
 11
82.1329
 21
13.5283
  0
LINE
  8
0
 10
82.1329
 20
13.5283
 11
82.1419
 21
13.5084
  0
LINE
  8
0
 10
82.1419
 20
13.5084
 11
82.1506
 21
13.4884
  0
LINE
  8
0
 10
82.1506
 20
13.4884
 11
82.159
 21
13.4682
  0
LINE
  8
0
 10
82.159
 20
13.4682
 11
82.167
 21
13.448
  0
LINE
  8
0
 10
82.167
 20
13.448
 11
82.1746
 21
13.4275
  0
LINE
  8
0
 10
82.1746
 20
13.4275
 11
82.1819
 21
13.407
  0
LINE
  8
0
 10
82.1819
 20
13.407
 11
82.1888
 21
13.3863
  0
LINE
  8
0
 10
82.1888
 20
13.3863
 11
82.1954
 21
13.3655
  0
LINE
  8
0
 10
82.1954
 20
13.3655
 11
82.2016
 21
13.3445
  0
LINE
  8
0
 10
82.2016
 20
13.3445
 11
82.2074
 21
13.3235
  0
LINE
  8
0
 10
82.2074
 20
13.3235
 11
82.2129
 21
13.3024
  0
LINE
  8
0
 10
82.2129
 20
13.3024
 11
82.218
 21
13.2812
  0
LINE
  8
0
 10
82.218
 20
13.2812
 11
82.2227
 21
13.2599
  0
LINE
  8
0
 10
82.2227
 20
13.2599
 11
82.227
 21
13.2385
  0
LINE
  8
0
 10
82.227
 20
13.2385
 11
82.231
 21
13.2171
  0
LINE
  8
0
 10
82.231
 20
13.2171
 11
82.2346
 21
13.1955
  0
LINE
  8
0
 10
82.2346
 20
13.1955
 11
82.2378
 21
13.174
  0
LINE
  8
0
 10
82.2378
 20
13.174
 11
82.2407
 21
13.1523
  0
LINE
  8
0
 10
82.2407
 20
13.1523
 11
82.2431
 21
13.1306
  0
LINE
  8
0
 10
82.2431
 20
13.1306
 11
82.2452
 21
13.1089
  0
LINE
  8
0
 10
82.2452
 20
13.1089
 11
82.2469
 21
13.0872
  0
LINE
  8
0
 10
82.2469
 20
13.0872
 11
82.2483
 21
13.0654
  0
LINE
  8
0
 10
82.2483
 20
13.0654
 11
82.2492
 21
13.0436
  0
LINE
  8
0
 10
82.2492
 20
13.0436
 11
82.2498
 21
13.0218
  0
LINE
  8
0
 10
82.2498
 20
13.0218
 11
82.25
 21
13
  0
LINE
  8
0
 10
82.25
 20
13
 11
82.2498
 21
12.9782
  0
LINE
  8
0
 10
82.2498
 20
12.9782
 11
82.2492
 21
12.9564
  0
LINE
  8
0
 10
82.2492
 20
12.9564
 11
82.2483
 21
12.9346
  0
LINE
  8
0
 10
82.2483
 20
12.9346
 11
82.2469
 21
12.9128
  0
LINE
  8
0
 10
82.2469
 20
12.9128
 11
82.2452
 21
12.8911
  0
LINE
  8
0
 10
82.2452
 20
12.8911
 11
82.2431
 21
12.8693
  0
LINE
  8
0
 10
82.2431
 20
12.8693
 11
82.2407
 21
12.8477
  0
LINE
  8
0
 10
82.2407
 20
12.8477
 11
82.2378
 21
12.826
  0
LINE
  8
0
 10
82.2378
 20
12.826
 11
82.2346
 21
12.8044
  0
LINE
  8
0
 10
82.2346
 20
12.8044
 11
82.231
 21
12.7829
  0
LINE
  8
0
 10
82.231
 20
12.7829
 11
82.227
 21
12.7615
  0
LINE
  8
0
 10
82.227
 20
12.7615
 11
82.2227
 21
12.7401
  0
LINE
  8
0
 10
82.2227
 20
12.7401
 11
82.218
 21
12.7188
  0
LINE
  8
0
 10
82.218
 20
12.7188
 11
82.2129
 21
12.6976
  0
LINE
  8
0
 10
82.2129
 20
12.6976
 11
82.2074
 21
12.6765
  0
LINE
  8
0
 10
82.2074
 20
12.6765
 11
82.2016
 21
12.6554
  0
LINE
  8
0
 10
82.2016
 20
12.6554
 11
82.1954
 21
12.6345
  0
LINE
  8
0
 10
82.1954
 20
12.6345
 11
82.1888
 21
12.6137
  0
LINE
  8
0
 10
82.1888
 20
12.6137
 11
82.1819
 21
12.593
  0
LINE
  8
0
 10
82.1819
 20
12.593
 11
82.1746
 21
12.5725
  0
LINE
  8
0
 10
82.1746
 20
12.5725
 11
82.167
 21
12.552
  0
LINE
  8
0
 10
82.167
 20
12.552
 11
82.159
 21
12.5317
  0
LINE
  8
0
 10
82.159
 20
12.5317
 11
82.1506
 21
12.5116
  0
LINE
  8
0
 10
82.1506
 20
12.5116
 11
82.1419
 21
12.4916
  0
LINE
  8
0
 10
82.1419
 20
12.4916
 11
82.1329
 21
12.4717
  0
LINE
  8
0
 10
82.1329
 20
12.4717
 11
82.1235
 21
12.452
  0
LINE
  8
0
 10
82.1235
 20
12.452
 11
82.1138
 21
12.4325
  0
LINE
  8
0
 10
82.1138
 20
12.4325
 11
82.1037
 21
12.4131
  0
LINE
  8
0
 10
82.1037
 20
12.4131
 11
82.0933
 21
12.394
  0
LINE
  8
0
 10
82.0933
 20
12.394
 11
82.0825
 21
12.375
  0
LINE
  8
0
 10
82.0825
 20
12.375
 11
82.0715
 21
12.3562
  0
LINE
  8
0
 10
82.0715
 20
12.3562
 11
82.0601
 21
12.3376
  0
LINE
  8
0
 10
82.0601
 20
12.3376
 11
82.0483
 21
12.3192
  0
LINE
  8
0
 10
82.0483
 20
12.3192
 11
82.0363
 21
12.301
  0
LINE
  8
0
 10
82.0363
 20
12.301
 11
82.0239
 21
12.283
  0
LINE
  8
0
 10
82.0239
 20
12.283
 11
82.0113
 21
12.2653
  0
LINE
  8
0
 10
82.0113
 20
12.2653
 11
81.9983
 21
12.2477
  0
LINE
  8
0
 10
81.9983
 20
12.2477
 11
81.985
 21
12.2304
  0
LINE
  8
0
 10
81.985
 20
12.2304
 11
81.9714
 21
12.2133
  0
LINE
  8
0
 10
81.9714
 20
12.2133
 11
81.9576
 21
12.1965
  0
LINE
  8
0
 10
81.9576
 20
12.1965
 11
81.9434
 21
12.1799
  0
LINE
  8
0
 10
81.9434
 20
12.1799
 11
81.9289
 21
12.1636
  0
LINE
  8
0
 10
81.9289
 20
12.1636
 11
81.9142
 21
12.1475
  0
LINE
  8
0
 10
81.9142
 20
12.1475
 11
81.8992
 21
12.1317
  0
LINE
  8
0
 10
81.8992
 20
12.1317
 11
81.8839
 21
12.1161
  0
LINE
  8
0
 10
81.8839
 20
12.1161
 11
81.8683
 21
12.1008
  0
LINE
  8
0
 10
81.8683
 20
12.1008
 11
81.8525
 21
12.0858
  0
LINE
  8
0
 10
81.8525
 20
12.0858
 11
81.8364
 21
12.0711
  0
LINE
  8
0
 10
81.8364
 20
12.0711
 11
81.8201
 21
12.0566
  0
LINE
  8
0
 10
81.8201
 20
12.0566
 11
81.8035
 21
12.0424
  0
LINE
  8
0
 10
81.8035
 20
12.0424
 11
81.7866
 21
12.0286
  0
LINE
  8
0
 10
81.7866
 20
12.0286
 11
81.7696
 21
12.015
  0
LINE
  8
0
 10
81.7696
 20
12.015
 11
81.7523
 21
12.0017
  0
LINE
  8
0
 10
81.7523
 20
12.0017
 11
81.7347
 21
11.9887
  0
LINE
  8
0
 10
81.7347
 20
11.9887
 11
81.717
 21
11.9761
  0
LINE
  8
0
 10
81.717
 20
11.9761
 11
81.699
 21
11.9637
  0
LINE
  8
0
 10
81.699
 20
11.9637
 11
81.6808
 21
11.9517
  0
LINE
  8
0
 10
81.6808
 20
11.9517
 11
81.6624
 21
11.9399
  0
LINE
  8
0
 10
81.6624
 20
11.9399
 11
81.6438
 21
11.9285
  0
LINE
  8
0
 10
81.6438
 20
11.9285
 11
81.625
 21
11.9175
  0
LINE
  8
0
 10
81.625
 20
11.9175
 11
81.606
 21
11.9067
  0
LINE
  8
0
 10
81.606
 20
11.9067
 11
81.5868
 21
11.8963
  0
LINE
  8
0
 10
81.5868
 20
11.8963
 11
81.5675
 21
11.8862
  0
LINE
  8
0
 10
81.5675
 20
11.8862
 11
81.548
 21
11.8765
  0
LINE
  8
0
 10
81.548
 20
11.8765
 11
81.5283
 21
11.8671
  0
LINE
  8
0
 10
81.5283
 20
11.8671
 11
81.5084
 21
11.8581
  0
LINE
  8
0
 10
81.5084
 20
11.8581
 11
81.4884
 21
11.8494
  0
LINE
  8
0
 10
81.4884
 20
11.8494
 11
81.4682
 21
11.841
  0
LINE
  8
0
 10
81.4682
 20
11.841
 11
81.448
 21
11.833
  0
LINE
  8
0
 10
81.448
 20
11.833
 11
81.4275
 21
11.8254
  0
LINE
  8
0
 10
81.4275
 20
11.8254
 11
81.407
 21
11.8181
  0
LINE
  8
0
 10
81.407
 20
11.8181
 11
81.3863
 21
11.8112
  0
LINE
  8
0
 10
81.3863
 20
11.8112
 11
81.3655
 21
11.8046
  0
LINE
  8
0
 10
81.3655
 20
11.8046
 11
81.3445
 21
11.7984
  0
LINE
  8
0
 10
81.3445
 20
11.7984
 11
81.3235
 21
11.7926
  0
LINE
  8
0
 10
81.3235
 20
11.7926
 11
81.3024
 21
11.7871
  0
LINE
  8
0
 10
81.3024
 20
11.7871
 11
81.2812
 21
11.782
  0
LINE
  8
0
 10
81.2812
 20
11.782
 11
81.2599
 21
11.7773
  0
LINE
  8
0
 10
81.2599
 20
11.7773
 11
81.2385
 21
11.773
  0
LINE
  8
0
 10
81.2385
 20
11.773
 11
81.2171
 21
11.769
  0
LINE
  8
0
 10
81.2171
 20
11.769
 11
81.1955
 21
11.7654
  0
LINE
  8
0
 10
81.1955
 20
11.7654
 11
81.174
 21
11.7622
  0
LINE
  8
0
 10
81.174
 20
11.7622
 11
81.1523
 21
11.7593
  0
LINE
  8
0
 10
81.1523
 20
11.7593
 11
81.1306
 21
11.7568
  0
LINE
  8
0
 10
81.1306
 20
11.7568
 11
81.1089
 21
11.7547
  0
LINE
  8
0
 10
81.1089
 20
11.7547
 11
81.0872
 21
11.753
  0
LINE
  8
0
 10
81.0872
 20
11.753
 11
81.0654
 21
11.7517
  0
LINE
  8
0
 10
81.0654
 20
11.7517
 11
81.0436
 21
11.7507
  0
LINE
  8
0
 10
81.0436
 20
11.7507
 11
81.0218
 21
11.7502
  0
LINE
  8
0
 10
81.0218
 20
11.7502
 11
81
 21
11.75
  0
LINE
  8
0
 10
81
 20
11.75
 11
80.9782
 21
11.7502
  0
ENDSEC
  0
SECTION
  2
OBJECTS
  0
DICTIONARY
  0
ENDSEC
  0
EOF
