<?xml version="1.0" standalone="no"?>
<!DOCTYPE svg PUBLIC "-//W3C//DTD SVG 1.1//EN" "http://www.w3.org/Graphics/SVG/1.1/DTD/svg11.dtd">
<svg width="74mm" height="34mm" viewBox="-17 -17 74 34" xmlns="http://www.w3.org/2000/svg" version="1.1">
<title>OpenSCAD Model</title>
<path d="
M 0.296677,16.9974 L 0.593277,16.9896 L 0.889709,16.9767 L 1.18585,16.9586 L 1.48164,16.9353 L 1.77698,16.9069
 L 2.07178,16.8733 L 2.36594,16.8345 L 2.65938,16.7907 L 2.95201,16.7417 L 3.24374,16.6877 L 3.53448,16.6285
 L 3.82416,16.5643 L 4.11267,16.495 L 4.39992,16.4207 L 4.68582,16.3414 L 4.97031,16.2572 L 5.25328,16.168
 L 5.53465,16.0738 L 5.81433,15.9748 L 6.09225,15.8709 L 6.3683,15.7621 L 6.64243,15.6486 L 6.91452,15.5303
 L 7.18451,15.4072 L 7.4523,15.2795 L 7.71783,15.1471 L 7.981,15.0101 L 8.24176,14.8685 L 8.5,14.7224
 L 8.75565,14.5718 L 9.00862,14.4168 L 9.25885,14.2574 L 9.50627,14.0936 L 9.75079,13.9256 L 9.99234,13.7533
 L 10.2309,13.5768 L 10.4662,13.3962 L 10.6984,13.2115 L 10.9274,13.0228 L 11.153,12.83 L 11.3752,12.6335
 L 11.594,12.433 L 11.8092,12.2288 L 12.0208,12.0208 L 12.2288,11.8092 L 12.433,11.594 L 12.6335,11.3752
 L 12.83,11.153 L 13.0228,10.9274 L 13.2115,10.6984 L 13.3962,10.4662 L 13.5768,10.2309 L 13.7533,9.99234
 L 13.9256,9.75079 L 14.0936,9.50627 L 14.2574,9.25885 L 14.4168,9.00862 L 14.5718,8.75565 L 14.7224,8.5
 L 14.8685,8.24176 L 15.0101,7.981 L 15.1471,7.71783 L 15.2795,7.4523 L 15.4072,7.18451 L 15.5303,6.91452
 L 15.6486,6.64243 L 15.7621,6.3683 L 15.8709,6.09225 L 15.9748,5.81433 L 16.0738,5.53465 L 16.168,5.25328
 L 16.2572,4.97031 L 16.3414,4.68582 L 16.4207,4.39992 L 16.495,4.11267 L 16.5643,3.82416 L 16.6285,3.53448
 L 16.6877,3.24374 L 16.7417,2.95201 L 16.7907,2.65938 L 16.8345,2.36594 L 16.8733,2.07178 L 16.9069,1.77698
 L 16.9353,1.48164 L 16.9586,1.18585 L 16.9767,0.889709 L 16.9896,0.593277 L 16.9974,0.296677 L 17,-0
 L 16.9974,-0.296677 L 16.9896,-0.593277 L 16.9767,-0.889709 L 16.9586,-1.18585 L 16.9353,-1.48164 L 16.9069,-1.77698
 L 16.8733,-2.07178 L 16.8345,-2.36594 L 16.7907,-2.65938 L 16.7417,-2.95201 L 16.6877,-3.24374 L 16.6285,-3.53448
 L 16.5643,-3.82416 L 16.495,-4.11267 L 16.4207,-4.39992 L 16.3414,-4.68582 L 16.2572,-4.97031 L 16.168,-5.25328
 L 16.0738,-5.53465 L 15.9748,-5.81433 L 15.8709,-6.09225 L 15.7621,-6.3683 L 15.6486,-6.64243 L 15.5303,-6.91452
 L 15.4072,-7.18451 L 15.2795,-7.4523 L 15.1471,-7.71783 L 15.0101,-7.981 L 14.8685,-8.24176 L 14.7224,-8.5
 L 14.5718,-8.75565 L 14.4168,-9.00862 L 14.2574,-9.25885 L 14.0936,-9.50627 L 13.9256,-9.75079 L 13.7533,-9.99234
 L 13.5768,-10.2309 L 13.3962,-10.4662 L 13.2115,-10.6984 L 13.0228,-10.9274 L 12.83,-11.153 L 12.6335,-11.3752
 L 12.433,-11.594 L 12.2288,-11.8092 L 12.0208,-12.0208 L 11.8092,-12.2288 L 11.594,-12.433 L 11.3752,-12.6335
 L 11.153,-12.83 L 10.9274,-13.0228 L 10.6984,-13.2115 L 10.4662,-13.3962 L 10.2309,-13.5768 L 9.99234,-13.7533
 L 9.75079,-13.9256 L 9.50627,-14.0936 L 9.25885,-14.2574 L 9.00862,-14.4168 L 8.75565,-14.5718 L 8.5,-14.7224
 L 8.24176,-14.8685 L 7.981,-15.0101 L 7.71783,-15.1471 L 7.4523,-15.2795 L 7.18451,-15.4072 L 6.91452,-15.5303
 L 6.64243,-15.6486 L 6.3683,-15.7621 L 6.09225,-15.8709 L 5.81433,-15.9748 L 5.53465,-16.0738 L 5.25328,-16.168
 L 4.97031,-16.2572 L 4.68582,-16.3414 L 4.39992,-16.4207 L 4.11267,-16.495 L 3.82416,-16.5643 L 3.53448,-16.6285
 L 3.24374,-16.6877 L 2.95201,-16.7417 L 2.65938,-16.7907 L 2.36594,-16.8345 L 2.07178,-16.8733 L 1.77698,-16.9069
 L 1.48164,-16.9353 L 1.18585,-16.9586 L 0.889709,-16.9767 L 0.593277,-16.9896 L 0.296677,-16.9974 L 0,-17
 L -0.296677,-16.9974 L -0.593277,-16.9896 L -0.889709,-16.9767 L -1.18585,-16.9586 L -1.48164,-16.9353 L -1.77698,-16.9069
 L -2.07178,-16.8733 L -2.36594,-16.8345 L -2.65938,-16.7907 L -2.95201,-16.7417 L -3.24374,-16.6877 L -3.53448,-16.6285
 L -3.82416,-16.5643 L -4.11267,-16.495 L -4.39992,-16.4207 L -4.68582,-16.3414 L -4.97031,-16.2572 L -5.25328,-16.168
 L -5.53465,-16.0738 L -5.81433,-15.9748 L -6.09225,-15.8709 L -6.3683,-15.7621 L -6.64243,-15.6486 L -6.91452,-15.5303
 L -7.18451,-15.4072 L -7.4523,-15.2795 L -7.71783,-15.1471 L -7.981,-15.0101 L -8.24176,-14.8685 L -8.5,-14.7224
 L -8.75565,-14.5718 L -9.00862,-14.4168 L -9.25885,-14.2574 L -9.50627,-14.0936 L -9.75079,-13.9256 L -9.99234,-13.7533
 L -10.2309,-13.5768 L -10.4662,-13.3962 L -10.6984,-13.2115 L -10.9274,-13.0228 L -11.153,-12.83 L -11.3752,-12.6335
 L -11.594,-12.433 L -11.8092,-12.2288 L -12.0208,-12.0208 L -12.2288,-11.8092 L -12.433,-11.594 L -12.6335,-11.3752
 L -12.83,-11.153 L -13.0228,-10.9274 L -13.2115,-10.6984 L -13.3962,-10.4662 L -13.5768,-10.2309 L -13.7533,-9.99234
 L -13.9256,-9.75079 L -14.0936,-9.50627 L -14.2574,-9.25885 L -14.4168,-9.00862 L -14.5718,-8.75565 L -14.7224,-8.5
 L -14.8685,-8.24176 L -15.0101,-7.981 L -15.1471,-7.71783 L -15.2795,-7.4523 L -15.4072,-7.18451 L -15.5303,-6.91452
 L -15.6486,-6.64243 L -15.7621,-6.3683 L -15.8709,-6.09225 L -15.9748,-5.81433 L -16.0738,-5.53465 L -16.168,-5.25328
 L -16.2572,-4.97031 L -16.3414,-4.68582 L -16.4207,-4.39992 L -16.495,-4.11267 L -16.5643,-3.82416 L -16.6285,-3.53448
 L -16.6877,-3.24374 L -16.7417,-2.95201 L -16.7907,-2.65938 L -16.8345,-2.36594 L -16.8733,-2.07178 L -16.9069,-1.77698
 L -16.9353,-1.48164 L -16.9586,-1.18585 L -16.9767,-0.889709 L -16.9896,-0.593277 L -16.9974,-0.296677 L -17,-0
 L -16.9974,0.296677 L -16.9896,0.593277 L -16.9767,0.889709 L -16.9586,1.18585 L -16.9353,1.48164 L -16.9069,1.77698
 L -16.8733,2.07178 L -16.8345,2.36594 L -16.7907,2.65938 L -16.7417,2.95201 L -16.6877,3.24374 L -16.6285,3.53448
 L -16.5643,3.82416 L -16.495,4.11267 L -16.4207,4.39992 L -16.3414,4.68582 L -16.2572,4.97031 L -16.168,5.25328
 L -16.0738,5.53465 L -15.9748,5.81433 L -15.8709,6.09225 L -15.7621,6.3683 L -15.6486,6.64243 L -15.5303,6.91452
 L -15.4072,7.18451 L -15.2795,7.4523 L -15.1471,7.71783 L -15.0101,7.981 L -14.8685,8.24176 L -14.7224,8.5
 L -14.5718,8.75565 L -14.4168,9.00862 L -14.2574,9.25885 L -14.0936,9.50627 L -13.9256,9.75079 L -13.7533,9.99234
 L -13.5768,10.2309 L -13.3962,10.4662 L -13.2115,10.6984 L -13.0228,10.9274 L -12.83,11.153 L -12.6335,11.3752
 L -12.433,11.594 L -12.2288,11.8092 L -12.0208,12.0208 L -11.8092,12.2288 L -11.594,12.433 L -11.3752,12.6335
 L -11.153,12.83 L -10.9274,13.0228 L -10.6984,13.2115 L -10.4662,13.3962 L -10.2309,13.5768 L -9.99234,13.7533
 L -9.75079,13.9256 L -9.50627,14.0936 L -9.25885,14.2574 L -9.00862,14.4168 L -8.75565,14.5718 L -8.5,14.7224
 L -8.24176,14.8685 L -7.981,15.0101 L -7.71783,15.1471 L -7.4523,15.2795 L -7.18451,15.4072 L -6.91452,15.5303
 L -6.64243,15.6486 L -6.3683,15.7621 L -6.09225,15.8709 L -5.81433,15.9748 L -5.53465,16.0738 L -5.25328,16.168
 L -4.97031,16.2572 L -4.68582,16.3414 L -4.39992,16.4207 L -4.11267,16.495 L -3.82416,16.5643 L -3.53448,16.6285
 L -3.24374,16.6877 L -2.95201,16.7417 L -2.65938,16.7907 L -2.36594,16.8345 L -2.07178,16.8733 L -1.77698,16.9069
 L -1.48164,16.9353 L -1.18585,16.9586 L -0.889709,16.9767 L -0.593277,16.9896 L -0.296677,16.9974 L 0,17
 z
M 40.2967,16.9974 L 40.5933,16.9896 L 40.8897,16.9767 L 41.1859,16.9586 L 41.4816,16.9353 L 41.777,16.9069
 L 42.0718,16.8733 L 42.3659,16.8345 L 42.6594,16.7907 L 42.952,16.7417 L 43.2437,16.6877 L 43.5345,16.6285
 L 43.8242,16.5643 L 44.1127,16.495 L 44.3999,16.4207 L 44.6858,16.3414 L 44.9703,16.2572 L 45.2533,16.168
 L 45.5347,16.0738 L 45.8143,15.9748 L 46.0923,15.8709 L 46.3683,15.7621 L 46.6424,15.6486 L 46.9145,15.5303
 L 47.1845,15.4072 L 47.4523,15.2795 L 47.7178,15.1471 L 47.981,15.0101 L 48.2418,14.8685 L 48.5,14.7224
 L 48.7556,14.5718 L 49.0086,14.4168 L 49.2589,14.2574 L 49.5063,14.0936 L 49.7508,13.9256 L 49.9923,13.7533
 L 50.2309,13.5768 L 50.4662,13.3962 L 50.6984,13.2115 L 50.9274,13.0228 L 51.153,12.83 L 51.3752,12.6335
 L 51.594,12.433 L 51.8092,12.2288 L 52.0208,12.0208 L 52.2288,11.8092 L 52.433,11.594 L 52.6335,11.3752
 L 52.83,11.153 L 53.0228,10.9274 L 53.2115,10.6984 L 53.3962,10.4662 L 53.5768,10.2309 L 53.7533,9.99234
 L 53.9256,9.75079 L 54.0936,9.50627 L 54.2574,9.25885 L 54.4168,9.00862 L 54.5718,8.75565 L 54.7224,8.5
 L 54.8685,8.24176 L 55.0101,7.981 L 55.1471,7.71783 L 55.2795,7.4523 L 55.4072,7.18451 L 55.5303,6.91452
 L 55.6486,6.64243 L 55.7621,6.3683 L 55.8709,6.09225 L 55.9748,5.81433 L 56.0738,5.53465 L 56.168,5.25328
 L 56.2572,4.97031 L 56.3414,4.68582 L 56.4207,4.39992 L 56.495,4.11267 L 56.5643,3.82416 L 56.6285,3.53448
 L 56.6877,3.24374 L 56.7417,2.95201 L 56.7907,2.65938 L 56.8345,2.36594 L 56.8733,2.07178 L 56.9069,1.77698
 L 56.9353,1.48164 L 56.9586,1.18585 L 56.9767,0.889709 L 56.9896,0.593277 L 56.9974,0.296677 L 57,-0
 L 56.9974,-0.296677 L 56.9896,-0.593277 L 56.9767,-0.889709 L 56.9586,-1.18585 L 56.9353,-1.48164 L 56.9069,-1.77698
 L 56.8733,-2.07178 L 56.8345,-2.36594 L 56.7907,-2.65938 L 56.7417,-2.95201 L 56.6877,-3.24374 L 56.6285,-3.53448
 L 56.5643,-3.82416 L 56.495,-4.11267 L 56.4207,-4.39992 L 56.3414,-4.68582 L 56.2572,-4.97031 L 56.168,-5.25328
 L 56.0738,-5.53465 L 55.9748,-5.81433 L 55.8709,-6.09225 L 55.7621,-6.3683 L 55.6486,-6.64243 L 55.5303,-6.91452
 L 55.4072,-7.18451 L 55.2795,-7.4523 L 55.1471,-7.71783 L 55.0101,-7.981 L 54.8685,-8.24176 L 54.7224,-8.5
 L 54.5718,-8.75565 L 54.4168,-9.00862 L 54.2574,-9.25885 L 54.0936,-9.50627 L 53.9256,-9.75079 L 53.7533,-9.99234
 L 53.5768,-10.2309 L 53.3962,-10.4662 L 53.2115,-10.6984 L 53.0228,-10.9274 L 52.83,-11.153 L 52.6335,-11.3752
 L 52.433,-11.594 L 52.2288,-11.8092 L 52.0208,-12.0208 L 51.8092,-12.2288 L 51.594,-12.433 L 51.3752,-12.6335
 L 51.153,-12.83 L 50.9274,-13.0228 L 50.6984,-13.2115 L 50.4662,-13.3962 L 50.2309,-13.5768 L 49.9923,-13.7533
 L 49.7508,-13.9256 L 49.5063,-14.0936 L 49.2589,-14.2574 L 49.0086,-14.4168 L 48.7556,-14.5718 L 48.5,-14.7224
 L 48.2418,-14.8685 L 47.981,-15.0101 L 47.7178,-15.1471 L 47.4523,-15.2795 L 47.1845,-15.4072 L 46.9145,-15.5303
 L 46.6424,-15.6486 L 46.3683,-15.7621 L 46.0923,-15.8709 L 45.8143,-15.9748 L 45.5347,-16.0738 L 45.2533,-16.168
 L 44.9703,-16.2572 L 44.6858,-16.3414 L 44.3999,-16.4207 L 44.1127,-16.495 L 43.8242,-16.5643 L 43.5345,-16.6285
 L 43.2437,-16.6877 L 42.952,-16.7417 L 42.6594,-16.7907 L 42.3659,-16.8345 L 42.0718,-16.8733 L 41.777,-16.9069
 L 41.4816,-16.9353 L 41.1859,-16.9586 L 40.8897,-16.9767 L 40.5933,-16.9896 L 40.2967,-16.9974 L 40,-17
 L 39.7033,-16.9974 L 39.4067,-16.9896 L 39.1103,-16.9767 L 38.8141,-16.9586 L 38.5184,-16.9353 L 38.223,-16.9069
 L 37.9282,-16.8733 L 37.6341,-16.8345 L 37.3406,-16.7907 L 37.048,-16.7417 L 36.7563,-16.6877 L 36.4655,-16.6285
 L 36.1758,-16.5643 L 35.8873,-16.495 L 35.6001,-16.4207 L 35.3142,-16.3414 L 35.0297,-16.2572 L 34.7467,-16.168
 L 34.4653,-16.0738 L 34.1857,-15.9748 L 33.9077,-15.8709 L 33.6317,-15.7621 L 33.3576,-15.6486 L 33.0855,-15.5303
 L 32.8155,-15.4072 L 32.5477,-15.2795 L 32.2822,-15.1471 L 32.019,-15.0101 L 31.7582,-14.8685 L 31.5,-14.7224
 L 31.2444,-14.5718 L 30.9914,-14.4168 L 30.7411,-14.2574 L 30.4937,-14.0936 L 30.2492,-13.9256 L 30.0077,-13.7533
 L 29.7691,-13.5768 L 29.5338,-13.3962 L 29.3016,-13.2115 L 29.0726,-13.0228 L 28.847,-12.83 L 28.6248,-12.6335
 L 28.406,-12.433 L 28.1908,-12.2288 L 27.9792,-12.0208 L 27.7712,-11.8092 L 27.567,-11.594 L 27.3665,-11.3752
 L 27.17,-11.153 L 26.9772,-10.9274 L 26.7885,-10.6984 L 26.6038,-10.4662 L 26.4232,-10.2309 L 26.2467,-9.99234
 L 26.0744,-9.75079 L 25.9064,-9.50627 L 25.7426,-9.25885 L 25.5832,-9.00862 L 25.4282,-8.75565 L 25.2776,-8.5
 L 25.1315,-8.24176 L 24.9899,-7.981 L 24.8529,-7.71783 L 24.7205,-7.4523 L 24.5928,-7.18451 L 24.4697,-6.91452
 L 24.3514,-6.64243 L 24.2379,-6.3683 L 24.1291,-6.09225 L 24.0252,-5.81433 L 23.9262,-5.53465 L 23.832,-5.25328
 L 23.7428,-4.97031 L 23.6586,-4.68582 L 23.5793,-4.39992 L 23.505,-4.11267 L 23.4357,-3.82416 L 23.3715,-3.53448
 L 23.3123,-3.24374 L 23.2583,-2.95201 L 23.2093,-2.65938 L 23.1655,-2.36594 L 23.1267,-2.07178 L 23.0931,-1.77698
 L 23.0647,-1.48164 L 23.0414,-1.18585 L 23.0233,-0.889709 L 23.0104,-0.593277 L 23.0026,-0.296677 L 23,-0
 L 23.0026,0.296677 L 23.0104,0.593277 L 23.0233,0.889709 L 23.0414,1.18585 L 23.0647,1.48164 L 23.0931,1.77698
 L 23.1267,2.07178 L 23.1655,2.36594 L 23.2093,2.65938 L 23.2583,2.95201 L 23.3123,3.24374 L 23.3715,3.53448
 L 23.4357,3.82416 L 23.505,4.11267 L 23.5793,4.39992 L 23.6586,4.68582 L 23.7428,4.97031 L 23.832,5.25328
 L 23.9262,5.53465 L 24.0252,5.81433 L 24.1291,6.09225 L 24.2379,6.3683 L 24.3514,6.64243 L 24.4697,6.91452
 L 24.5928,7.18451 L 24.7205,7.4523 L 24.8529,7.71783 L 24.9899,7.981 L 25.1315,8.24176 L 25.2776,8.5
 L 25.4282,8.75565 L 25.5832,9.00862 L 25.7426,9.25885 L 25.9064,9.50627 L 26.0744,9.75079 L 26.2467,9.99234
 L 26.4232,10.2309 L 26.6038,10.4662 L 26.7885,10.6984 L 26.9772,10.9274 L 27.17,11.153 L 27.3665,11.3752
 L 27.567,11.594 L 27.7712,11.8092 L 27.9792,12.0208 L 28.1908,12.2288 L 28.406,12.433 L 28.6248,12.6335
 L 28.847,12.83 L 29.0726,13.0228 L 29.3016,13.2115 L 29.5338,13.3962 L 29.7691,13.5768 L 30.0077,13.7533
 L 30.2492,13.9256 L 30.4937,14.0936 L 30.7411,14.2574 L 30.9914,14.4168 L 31.2444,14.5718 L 31.5,14.7224
 L 31.7582,14.8685 L 32.019,15.0101 L 32.2822,15.1471 L 32.5477,15.2795 L 32.8155,15.4072 L 33.0855,15.5303
 L 33.3576,15.6486 L 33.6317,15.7621 L 33.9077,15.8709 L 34.1857,15.9748 L 34.4653,16.0738 L 34.7467,16.168
 L 35.0297,16.2572 L 35.3142,16.3414 L 35.6001,16.4207 L 35.8873,16.495 L 36.1758,16.5643 L 36.4655,16.6285
 L 36.7563,16.6877 L 37.048,16.7417 L 37.3406,16.7907 L 37.6341,16.8345 L 37.9282,16.8733 L 38.223,16.9069
 L 38.5184,16.9353 L 38.8141,16.9586 L 39.1103,16.9767 L 39.4067,16.9896 L 39.7033,16.9974 L 40,17
 z
M 39.7906,11.9982 L 39.5812,11.9927 L 39.372,11.9836 L 39.1629,11.9708 L 38.9541,11.9543 L 38.7457,11.9342
 L 38.5376,11.9106 L 38.3299,11.8832 L 38.1228,11.8522 L 37.9162,11.8177 L 37.7103,11.7795 L 37.5051,11.7378
 L 37.3006,11.6924 L 37.0969,11.6435 L 36.8942,11.5911 L 36.6924,11.5351 L 36.4915,11.4756 L 36.2918,11.4127
 L 36.0932,11.3462 L 35.8958,11.2763 L 35.6996,11.203 L 35.5047,11.1262 L 35.3112,11.0461 L 35.1192,10.9625
 L 34.9286,10.8757 L 34.7395,10.7855 L 34.5521,10.6921 L 34.3663,10.5954 L 34.1823,10.4954 L 34,10.3923
 L 33.8195,10.286 L 33.641,10.1766 L 33.4643,10.064 L 33.2897,9.94844 L 33.1171,9.82982 L 32.9466,9.70819
 L 32.7782,9.58362 L 32.6121,9.45612 L 32.4482,9.32574 L 32.2866,9.19252 L 32.1273,9.0565 L 31.9704,8.91772
 L 31.816,8.77623 L 31.6641,8.63206 L 31.5147,8.48528 L 31.3679,8.33589 L 31.2238,8.18398 L 31.0823,8.02956
 L 30.9435,7.8727 L 30.8075,7.71344 L 30.6743,7.55183 L 30.5439,7.38792 L 30.4164,7.22177 L 30.2918,7.05342
 L 30.1702,6.8829 L 30.0516,6.71031 L 29.936,6.53566 L 29.8234,6.35902 L 29.714,6.18045 L 29.6077,6
 L 29.5046,5.8177 L 29.4046,5.63365 L 29.3079,5.44788 L 29.2145,5.26045 L 29.1243,5.07141 L 29.0375,4.88083
 L 28.9539,4.68877 L 28.8738,4.49527 L 28.797,4.30042 L 28.7237,4.10423 L 28.6538,3.90681 L 28.5873,3.70819
 L 28.5244,3.50845 L 28.4649,3.30765 L 28.4089,3.10582 L 28.3565,2.90306 L 28.3076,2.6994 L 28.2622,2.49493
 L 28.2205,2.2897 L 28.1823,2.08377 L 28.1478,1.87721 L 28.1168,1.67007 L 28.0894,1.46242 L 28.0658,1.25433
 L 28.0457,1.04587 L 28.0292,0.837067 L 28.0164,0.628021 L 28.0073,0.418793 L 28.0018,0.209427 L 28,-0
 L 28.0018,-0.209427 L 28.0073,-0.418793 L 28.0164,-0.628021 L 28.0292,-0.837067 L 28.0457,-1.04587 L 28.0658,-1.25433
 L 28.0894,-1.46242 L 28.1168,-1.67007 L 28.1478,-1.87721 L 28.1823,-2.08377 L 28.2205,-2.2897 L 28.2622,-2.49493
 L 28.3076,-2.6994 L 28.3565,-2.90306 L 28.4089,-3.10582 L 28.4649,-3.30765 L 28.5244,-3.50845 L 28.5873,-3.70819
 L 28.6538,-3.90681 L 28.7237,-4.10423 L 28.797,-4.30042 L 28.8738,-4.49527 L 28.9539,-4.68877 L 29.0375,-4.88083
 L 29.1243,-5.07141 L 29.2145,-5.26045 L 29.3079,-5.44788 L 29.4046,-5.63365 L 29.5046,-5.8177 L 29.6077,-6
 L 29.714,-6.18045 L 29.8234,-6.35902 L 29.936,-6.53566 L 30.0516,-6.71031 L 30.1702,-6.8829 L 30.2918,-7.05342
 L 30.4164,-7.22177 L 30.5439,-7.38792 L 30.6743,-7.55183 L 30.8075,-7.71344 L 30.9435,-7.8727 L 31.0823,-8.02956
 L 31.2238,-8.18398 L 31.3679,-8.33589 L 31.5147,-8.48528 L 31.6641,-8.63206 L 31.816,-8.77623 L 31.9704,-8.91772
 L 32.1273,-9.0565 L 32.2866,-9.19252 L 32.4482,-9.32574 L 32.6121,-9.45612 L 32.7782,-9.58362 L 32.9466,-9.70819
 L 33.1171,-9.82982 L 33.2897,-9.94844 L 33.4643,-10.064 L 33.641,-10.1766 L 33.8195,-10.286 L 34,-10.3923
 L 34.1823,-10.4954 L 34.3663,-10.5954 L 34.5521,-10.6921 L 34.7395,-10.7855 L 34.9286,-10.8757 L 35.1192,-10.9625
 L 35.3112,-11.0461 L 35.5047,-11.1262 L 35.6996,-11.203 L 35.8958,-11.2763 L 36.0932,-11.3462 L 36.2918,-11.4127
 L 36.4915,-11.4756 L 36.6924,-11.5351 L 36.8942,-11.5911 L 37.0969,-11.6435 L 37.3006,-11.6924 L 37.5051,-11.7378
 L 37.7103,-11.7795 L 37.9162,-11.8177 L 38.1228,-11.8522 L 38.3299,-11.8832 L 38.5376,-11.9106 L 38.7457,-11.9342
 L 38.9541,-11.9543 L 39.1629,-11.9708 L 39.372,-11.9836 L 39.5812,-11.9927 L 39.7906,-11.9982 L 40,-12
 L 40.2094,-11.9982 L 40.4188,-11.9927 L 40.628,-11.9836 L 40.8371,-11.9708 L 41.0459,-11.9543 L 41.2543,-11.9342
 L 41.4624,-11.9106 L 41.6701,-11.8832 L 41.8772,-11.8522 L 42.0838,-11.8177 L 42.2897,-11.7795 L 42.4949,-11.7378
 L 42.6994,-11.6924 L 42.9031,-11.6435 L 43.1058,-11.5911 L 43.3076,-11.5351 L 43.5085,-11.4756 L 43.7082,-11.4127
 L 43.9068,-11.3462 L 44.1042,-11.2763 L 44.3004,-11.203 L 44.4953,-11.1262 L 44.6888,-11.0461 L 44.8808,-10.9625
 L 45.0714,-10.8757 L 45.2605,-10.7855 L 45.4479,-10.6921 L 45.6337,-10.5954 L 45.8177,-10.4954 L 46,-10.3923
 L 46.1805,-10.286 L 46.359,-10.1766 L 46.5357,-10.064 L 46.7103,-9.94844 L 46.8829,-9.82982 L 47.0534,-9.70819
 L 47.2218,-9.58362 L 47.3879,-9.45612 L 47.5518,-9.32574 L 47.7134,-9.19252 L 47.8727,-9.0565 L 48.0296,-8.91772
 L 48.184,-8.77623 L 48.3359,-8.63206 L 48.4853,-8.48528 L 48.6321,-8.33589 L 48.7762,-8.18398 L 48.9177,-8.02956
 L 49.0565,-7.8727 L 49.1925,-7.71344 L 49.3257,-7.55183 L 49.4561,-7.38792 L 49.5836,-7.22177 L 49.7082,-7.05342
 L 49.8298,-6.8829 L 49.9484,-6.71031 L 50.064,-6.53566 L 50.1766,-6.35902 L 50.286,-6.18045 L 50.3923,-6
 L 50.4954,-5.8177 L 50.5954,-5.63365 L 50.6921,-5.44788 L 50.7855,-5.26045 L 50.8757,-5.07141 L 50.9625,-4.88083
 L 51.0461,-4.68877 L 51.1262,-4.49527 L 51.203,-4.30042 L 51.2763,-4.10423 L 51.3462,-3.90681 L 51.4127,-3.70819
 L 51.4756,-3.50845 L 51.5351,-3.30765 L 51.5911,-3.10582 L 51.6435,-2.90306 L 51.6924,-2.6994 L 51.7378,-2.49493
 L 51.7795,-2.2897 L 51.8177,-2.08377 L 51.8522,-1.87721 L 51.8832,-1.67007 L 51.9106,-1.46242 L 51.9342,-1.25433
 L 51.9543,-1.04587 L 51.9708,-0.837067 L 51.9836,-0.628021 L 51.9927,-0.418793 L 51.9982,-0.209427 L 52,-0
 L 51.9982,0.209427 L 51.9927,0.418793 L 51.9836,0.628021 L 51.9708,0.837067 L 51.9543,1.04587 L 51.9342,1.25433
 L 51.9106,1.46242 L 51.8832,1.67007 L 51.8522,1.87721 L 51.8177,2.08377 L 51.7795,2.2897 L 51.7378,2.49493
 L 51.6924,2.6994 L 51.6435,2.90306 L 51.5911,3.10582 L 51.5351,3.30765 L 51.4756,3.50845 L 51.4127,3.70819
 L 51.3462,3.90681 L 51.2763,4.10423 L 51.203,4.30042 L 51.1262,4.49527 L 51.0461,4.68877 L 50.9625,4.88083
 L 50.8757,5.07141 L 50.7855,5.26045 L 50.6921,5.44788 L 50.5954,5.63365 L 50.4954,5.8177 L 50.3923,6
 L 50.286,6.18045 L 50.1766,6.35902 L 50.064,6.53566 L 49.9484,6.71031 L 49.8298,6.8829 L 49.7082,7.05342
 L 49.5836,7.22177 L 49.4561,7.38792 L 49.3257,7.55183 L 49.1925,7.71344 L 49.0565,7.8727 L 48.9177,8.02956
 L 48.7762,8.18398 L 48.6321,8.33589 L 48.4853,8.48528 L 48.3359,8.63206 L 48.184,8.77623 L 48.0296,8.91772
 L 47.8727,9.0565 L 47.7134,9.19252 L 47.5518,9.32574 L 47.3879,9.45612 L 47.2218,9.58362 L 47.0534,9.70819
 L 46.8829,9.82982 L 46.7103,9.94844 L 46.5357,10.064 L 46.359,10.1766 L 46.1805,10.286 L 46,10.3923
 L 45.8177,10.4954 L 45.6337,10.5954 L 45.4479,10.6921 L 45.2605,10.7855 L 45.0714,10.8757 L 44.8808,10.9625
 L 44.6888,11.0461 L 44.4953,11.1262 L 44.3004,11.203 L 44.1042,11.2763 L 43.9068,11.3462 L 43.7082,11.4127
 L 43.5085,11.4756 L 43.3076,11.5351 L 43.1058,11.5911 L 42.9031,11.6435 L 42.6994,11.6924 L 42.4949,11.7378
 L 42.2897,11.7795 L 42.0838,11.8177 L 41.8772,11.8522 L 41.6701,11.8832 L 41.4624,11.9106 L 41.2543,11.9342
 L 41.0459,11.9543 L 40.8371,11.9708 L 40.628,11.9836 L 40.4188,11.9927 L 40.2094,11.9982 L 40,12
 z
" stroke="black" fill="lightgray" stroke-width="0.5"/>
</svg>
