<?xml version="1.0" standalone="no"?>
<!DOCTYPE svg PUBLIC "-//W3C//DTD SVG 1.1//EN" "http://www.w3.org/Graphics/SVG/1.1/DTD/svg11.dtd">
<svg width="94mm" height="94mm" viewBox="0 -94 94 94" xmlns="http://www.w3.org/2000/svg" version="1.1">
<title>OpenSCAD Model</title>
<path d="
M 8,-45 L 27,-45 L 27,-76 L 48,-76 L 48,-45 L 65,-45
 L 65,-0 L 88,-0 L 88.1047,-0.000900269 L 88.2094,-0.00364685 L 88.314,-0.00820923 L 88.4185,-0.0146027
 L 88.5229,-0.0228271 L 88.6272,-0.0328674 L 88.7312,-0.0447083 L 88.835,-0.0583801 L 88.9386,-0.0738678 L 89.0419,-0.0911407
 L 89.1449,-0.110229 L 89.2475,-0.131104 L 89.3497,-0.153778 L 89.4515,-0.178223 L 89.5529,-0.204437 L 89.6538,-0.232422
 L 89.7542,-0.262161 L 89.8541,-0.293655 L 89.9534,-0.326874 L 90.0521,-0.361832 L 90.1502,-0.398514 L 90.2476,-0.43689
 L 90.3444,-0.476959 L 90.4404,-0.518723 L 90.5357,-0.562149 L 90.6302,-0.607224 L 90.7239,-0.653946 L 90.8168,-0.702301
 L 90.9088,-0.752274 L 91,-0.803833 L 91.0902,-0.856995 L 91.1795,-0.911697 L 91.2678,-0.967972 L 91.3551,-1.02577
 L 91.4415,-1.08508 L 91.5267,-1.14589 L 91.6109,-1.20818 L 91.694,-1.27193 L 91.7759,-1.33711 L 91.8567,-1.40373
 L 91.9363,-1.47174 L 92.0148,-1.54112 L 92.092,-1.61188 L 92.1679,-1.68396 L 92.2426,-1.75735 L 92.316,-1.83205
 L 92.3881,-1.908 L 92.4589,-1.98521 L 92.5282,-2.06364 L 92.5963,-2.14326 L 92.6629,-2.22408 L 92.7281,-2.30603
 L 92.7918,-2.3891 L 92.8541,-2.47328 L 92.9149,-2.55853 L 92.9742,-2.64484 L 93.032,-2.73216 L 93.0883,-2.82048
 L 93.143,-2.90976 L 93.1962,-3 L 93.2477,-3.09114 L 93.2977,-3.18317 L 93.346,-3.27605 L 93.3928,-3.36977
 L 93.4378,-3.46428 L 93.4813,-3.55957 L 93.523,-3.65561 L 93.5631,-3.75235 L 93.6015,-3.84978 L 93.6382,-3.94788
 L 93.6731,-4.04659 L 93.7063,-4.14589 L 93.7378,-4.24576 L 93.7676,-4.34616 L 93.7955,-4.44708 L 93.8218,-4.54846
 L 93.8462,-4.65028 L 93.8689,-4.75252 L 93.8898,-4.85513 L 93.9088,-4.9581 L 93.9261,-5.06139 L 93.9416,-5.16495
 L 93.9553,-5.26878 L 93.9671,-5.37282 L 93.9772,-5.47705 L 93.9854,-5.58145 L 93.9918,-5.68597 L 93.9963,-5.79059
 L 93.9991,-5.89528 L 94,-6 L 94,-88 L 93.9991,-88.1047 L 93.9963,-88.2094 L 93.9918,-88.314
 L 93.9854,-88.4185 L 93.9772,-88.5229 L 93.9671,-88.6272 L 93.9553,-88.7312 L 93.9416,-88.835 L 93.9261,-88.9386
 L 93.9088,-89.0419 L 93.8898,-89.1449 L 93.8689,-89.2475 L 93.8462,-89.3497 L 93.8218,-89.4515 L 93.7955,-89.5529
 L 93.7676,-89.6538 L 93.7378,-89.7542 L 93.7063,-89.8541 L 93.6731,-89.9534 L 93.6382,-90.0521 L 93.6015,-90.1502
 L 93.5631,-90.2476 L 93.523,-90.3444 L 93.4813,-90.4404 L 93.4378,-90.5357 L 93.3928,-90.6302 L 93.346,-90.7239
 L 93.2977,-90.8168 L 93.2477,-90.9088 L 93.1962,-91 L 93.143,-91.0902 L 93.0883,-91.1795 L 93.032,-91.2678
 L 92.9742,-91.3551 L 92.9149,-91.4415 L 92.8541,-91.5267 L 92.7918,-91.6109 L 92.7281,-91.694 L 92.6629,-91.7759
 L 92.5963,-91.8567 L 92.5282,-91.9363 L 92.4589,-92.0148 L 92.3881,-92.092 L 92.316,-92.1679 L 92.2426,-92.2426
 L 92.1679,-92.316 L 92.092,-92.3881 L 92.0148,-92.4589 L 91.9363,-92.5282 L 91.8567,-92.5963 L 91.7759,-92.6629
 L 91.694,-92.7281 L 91.6109,-92.7918 L 91.5267,-92.8541 L 91.4415,-92.9149 L 91.3551,-92.9742 L 91.2678,-93.032
 L 91.1795,-93.0883 L 91.0902,-93.143 L 91,-93.1962 L 90.9088,-93.2477 L 90.8168,-93.2977 L 90.7239,-93.346
 L 90.6302,-93.3928 L 90.5357,-93.4378 L 90.4404,-93.4813 L 90.3444,-93.523 L 90.2476,-93.5631 L 90.1502,-93.6015
 L 90.0521,-93.6382 L 89.9534,-93.6731 L 89.8541,-93.7063 L 89.7542,-93.7378 L 89.6538,-93.7676 L 89.5529,-93.7955
 L 89.4515,-93.8218 L 89.3497,-93.8462 L 89.2475,-93.8689 L 89.1449,-93.8898 L 89.0419,-93.9088 L 88.9386,-93.9261
 L 88.835,-93.9416 L 88.7312,-93.9553 L 88.6272,-93.9671 L 88.5229,-93.9772 L 88.4185,-93.9854 L 88.314,-93.9918
 L 88.2094,-93.9963 L 88.1047,-93.9991 L 88,-94 L 6,-94 L 5.89528,-93.9991 L 5.79059,-93.9963
 L 5.68597,-93.9918 L 5.58145,-93.9854 L 5.47705,-93.9772 L 5.37282,-93.9671 L 5.26878,-93.9553 L 5.16495,-93.9416
 L 5.06139,-93.9261 L 4.9581,-93.9088 L 4.85513,-93.8898 L 4.75252,-93.8689 L 4.65028,-93.8462 L 4.54846,-93.8218
 L 4.44708,-93.7955 L 4.34616,-93.7676 L 4.24576,-93.7378 L 4.14589,-93.7063 L 4.04659,-93.6731 L 3.94788,-93.6382
 L 3.84978,-93.6015 L 3.75235,-93.5631 L 3.65561,-93.523 L 3.55957,-93.4813 L 3.46428,-93.4378 L 3.36977,-93.3928
 L 3.27605,-93.346 L 3.18317,-93.2977 L 3.09114,-93.2477 L 3,-93.1962 L 2.90976,-93.143 L 2.82048,-93.0883
 L 2.73216,-93.032 L 2.64484,-92.9742 L 2.55853,-92.9149 L 2.47328,-92.8541 L 2.3891,-92.7918 L 2.30603,-92.7281
 L 2.22408,-92.6629 L 2.14326,-92.5963 L 2.06364,-92.5282 L 1.98521,-92.4589 L 1.908,-92.3881 L 1.83205,-92.316
 L 1.75735,-92.2426 L 1.68396,-92.1679 L 1.61188,-92.092 L 1.54112,-92.0148 L 1.47174,-91.9363 L 1.40373,-91.8567
 L 1.33711,-91.7759 L 1.27193,-91.694 L 1.20818,-91.6109 L 1.14589,-91.5267 L 1.08508,-91.4415 L 1.02577,-91.3551
 L 0.967972,-91.2678 L 0.911697,-91.1795 L 0.856995,-91.0902 L 0.803833,-91 L 0.752274,-90.9088 L 0.702301,-90.8168
 L 0.653946,-90.7239 L 0.607224,-90.6302 L 0.562149,-90.5357 L 0.518723,-90.4404 L 0.476959,-90.3444 L 0.43689,-90.2476
 L 0.398514,-90.1502 L 0.361832,-90.0521 L 0.326874,-89.9534 L 0.293655,-89.8541 L 0.262161,-89.7542 L 0.232422,-89.6538
 L 0.204437,-89.5529 L 0.178223,-89.4515 L 0.153778,-89.3497 L 0.131104,-89.2475 L 0.110229,-89.1449 L 0.0911407,-89.0419
 L 0.0738678,-88.9386 L 0.0583801,-88.835 L 0.0447083,-88.7312 L 0.0328674,-88.6272 L 0.0228271,-88.5229 L 0.0146027,-88.4185
 L 0.00820923,-88.314 L 0.00364685,-88.2094 L 0.000900269,-88.1047 L 0,-88 L 0,-6 L 0.000900269,-5.89528
 L 0.00364685,-5.79059 L 0.00820923,-5.68597 L 0.0146027,-5.58145 L 0.0228271,-5.47705 L 0.0328674,-5.37282 L 0.0447083,-5.26878
 L 0.0583801,-5.16495 L 0.0738678,-5.06139 L 0.0911407,-4.9581 L 0.110229,-4.85513 L 0.131104,-4.75252 L 0.153778,-4.65028
 L 0.178223,-4.54846 L 0.204437,-4.44708 L 0.232422,-4.34616 L 0.262161,-4.24576 L 0.293655,-4.14589 L 0.326874,-4.04659
 L 0.361832,-3.94788 L 0.398514,-3.84978 L 0.43689,-3.75235 L 0.476959,-3.65561 L 0.518723,-3.55957 L 0.562149,-3.46428
 L 0.607224,-3.36977 L 0.653946,-3.27605 L 0.702301,-3.18317 L 0.752274,-3.09114 L 0.803833,-3 L 0.856995,-2.90976
 L 0.911697,-2.82048 L 0.967972,-2.73216 L 1.02577,-2.64484 L 1.08508,-2.55853 L 1.14589,-2.47328 L 1.20818,-2.3891
 L 1.27193,-2.30603 L 1.33711,-2.22408 L 1.40373,-2.14326 L 1.47174,-2.06364 L 1.54112,-1.98521 L 1.61188,-1.908
 L 1.68396,-1.83205 L 1.75735,-1.75735 L 1.83205,-1.68396 L 1.908,-1.61188 L 1.98521,-1.54112 L 2.06364,-1.47174
 L 2.14326,-1.40373 L 2.22408,-1.33711 L 2.30603,-1.27193 L 2.3891,-1.20818 L 2.47328,-1.14589 L 2.55853,-1.08508
 L 2.64484,-1.02577 L 2.73216,-0.967972 L 2.82048,-0.911697 L 2.90976,-0.856995 L 3,-0.803833 L 3.09114,-0.752274
 L 3.18317,-0.702301 L 3.27605,-0.653946 L 3.36977,-0.607224 L 3.46428,-0.562149 L 3.55957,-0.518723 L 3.65561,-0.476959
 L 3.75235,-0.43689 L 3.84978,-0.398514 L 3.94788,-0.361832 L 4.04659,-0.326874 L 4.14589,-0.293655 L 4.24576,-0.262161
 L 4.34616,-0.232422 L 4.44708,-0.204437 L 4.54846,-0.178223 L 4.65028,-0.153778 L 4.75252,-0.131104 L 4.85513,-0.110229
 L 4.9581,-0.0911407 L 5.06139,-0.0738678 L 5.16495,-0.0583801 L 5.26878,-0.0447083 L 5.37282,-0.0328674 L 5.47705,-0.0228271
 L 5.58145,-0.0146027 L 5.68597,-0.00820923 L 5.79059,-0.00364685 L 5.89528,-0.000900269 L 6,-0 L 8,-0
 z
M 56.4,-76.5 L 56.4,-80.5 L 72.5,-80.5 L 72.5,-78.5 L 76.5,-78.5 L 76.5,-57.3
 L 72.5,-57.3 L 72.5,-55.3 L 56.4,-55.3 L 56.4,-59.3 L 52.4,-59.3 L 52.4,-76.5
 z
" stroke="black" fill="lightgray" stroke-width="0.5"/>
</svg>
