  0
SECTION
  2
BLOCKS
  0
ENDSEC
  0
SECTION
  2
ENTITIES
  0
LINE
  8
0
 10
8
 20
45
 11
27
 21
45
  0
LINE
  8
0
 10
27
 20
45
 11
27
 21
76
  0
LINE
  8
0
 10
27
 20
76
 11
48
 21
76
  0
LINE
  8
0
 10
48
 20
76
 11
48
 21
45
  0
LINE
  8
0
 10
48
 20
45
 11
65
 21
45
  0
LINE
  8
0
 10
65
 20
45
 11
65
 21
0
  0
LINE
  8
0
 10
65
 20
0
 11
88
 21
0
  0
LINE
  8
0
 10
88
 20
0
 11
88.1047
 21
0.000900269
  0
LINE
  8
0
 10
88.1047
 20
0.000900269
 11
88.2094
 21
0.00364685
  0
LINE
  8
0
 10
88.2094
 20
0.00364685
 11
88.314
 21
0.00820923
  0
LINE
  8
0
 10
88.314
 20
0.00820923
 11
88.4185
 21
0.0146027
  0
LINE
  8
0
 10
88.4185
 20
0.0146027
 11
88.5229
 21
0.0228271
  0
LINE
  8
0
 10
88.5229
 20
0.0228271
 11
88.6272
 21
0.0328674
  0
LINE
  8
0
 10
88.6272
 20
0.0328674
 11
88.7312
 21
0.0447083
  0
LINE
  8
0
 10
88.7312
 20
0.0447083
 11
88.835
 21
0.0583801
  0
LINE
  8
0
 10
88.835
 20
0.0583801
 11
88.9386
 21
0.0738678
  0
LINE
  8
0
 10
88.9386
 20
0.0738678
 11
89.0419
 21
0.0911407
  0
LINE
  8
0
 10
89.0419
 20
0.0911407
 11
89.1449
 21
0.110229
  0
LINE
  8
0
 10
89.1449
 20
0.110229
 11
89.2475
 21
0.131104
  0
LINE
  8
0
 10
89.2475
 20
0.131104
 11
89.3497
 21
0.153778
  0
LINE
  8
0
 10
89.3497
 20
0.153778
 11
89.4515
 21
0.178223
  0
LINE
  8
0
 10
89.4515
 20
0.178223
 11
89.5529
 21
0.204437
  0
LINE
  8
0
 10
89.5529
 20
0.204437
 11
89.6538
 21
0.232422
  0
LINE
  8
0
 10
89.6538
 20
0.232422
 11
89.7542
 21
0.262161
  0
LINE
  8
0
 10
89.7542
 20
0.262161
 11
89.8541
 21
0.293655
  0
LINE
  8
0
 10
89.8541
 20
0.293655
 11
89.9534
 21
0.326874
  0
LINE
  8
0
 10
89.9534
 20
0.326874
 11
90.0521
 21
0.361832
  0
LINE
  8
0
 10
90.0521
 20
0.361832
 11
90.1502
 21
0.398514
  0
LINE
  8
0
 10
90.1502
 20
0.398514
 11
90.2476
 21
0.43689
  0
LINE
  8
0
 10
90.2476
 20
0.43689
 11
90.3444
 21
0.476959
  0
LINE
  8
0
 10
90.3444
 20
0.476959
 11
90.4404
 21
0.518723
  0
LINE
  8
0
 10
90.4404
 20
0.518723
 11
90.5357
 21
0.562149
  0
LINE
  8
0
 10
90.5357
 20
0.562149
 11
90.6302
 21
0.607224
  0
LINE
  8
0
 10
90.6302
 20
0.607224
 11
90.7239
 21
0.653946
  0
LINE
  8
0
 10
90.7239
 20
0.653946
 11
90.8168
 21
0.702301
  0
LINE
  8
0
 10
90.8168
 20
0.702301
 11
90.9088
 21
0.752274
  0
LINE
  8
0
 10
90.9088
 20
0.752274
 11
91
 21
0.803833
  0
LINE
  8
0
 10
91
 20
0.803833
 11
91.0902
 21
0.856995
  0
LINE
  8
0
 10
91.0902
 20
0.856995
 11
91.1795
 21
0.911697
  0
LINE
  8
0
 10
91.1795
 20
0.911697
 11
91.2678
 21
0.967972
  0
LINE
  8
0
 10
91.2678
 20
0.967972
 11
91.3551
 21
1.02577
  0
LINE
  8
0
 10
91.3551
 20
1.02577
 11
91.4415
 21
1.08508
  0
LINE
  8
0
 10
91.4415
 20
1.08508
 11
91.5267
 21
1.14589
  0
LINE
  8
0
 10
91.5267
 20
1.14589
 11
91.6109
 21
1.20818
  0
LINE
  8
0
 10
91.6109
 20
1.20818
 11
91.694
 21
1.27193
  0
LINE
  8
0
 10
91.694
 20
1.27193
 11
91.7759
 21
1.33711
  0
LINE
  8
0
 10
91.7759
 20
1.33711
 11
91.8567
 21
1.40373
  0
LINE
  8
0
 10
91.8567
 20
1.40373
 11
91.9363
 21
1.47174
  0
LINE
  8
0
 10
91.9363
 20
1.47174
 11
92.0148
 21
1.54112
  0
LINE
  8
0
 10
92.0148
 20
1.54112
 11
92.092
 21
1.61188
  0
LINE
  8
0
 10
92.092
 20
1.61188
 11
92.1679
 21
1.68396
  0
LINE
  8
0
 10
92.1679
 20
1.68396
 11
92.2426
 21
1.75735
  0
LINE
  8
0
 10
92.2426
 20
1.75735
 11
92.316
 21
1.83205
  0
LINE
  8
0
 10
92.316
 20
1.83205
 11
92.3881
 21
1.908
  0
LINE
  8
0
 10
92.3881
 20
1.908
 11
92.4589
 21
1.98521
  0
LINE
  8
0
 10
92.4589
 20
1.98521
 11
92.5282
 21
2.06364
  0
LINE
  8
0
 10
92.5282
 20
2.06364
 11
92.5963
 21
2.14326
  0
LINE
  8
0
 10
92.5963
 20
2.14326
 11
92.6629
 21
2.22408
  0
LINE
  8
0
 10
92.6629
 20
2.22408
 11
92.7281
 21
2.30603
  0
LINE
  8
0
 10
92.7281
 20
2.30603
 11
92.7918
 21
2.3891
  0
LINE
  8
0
 10
92.7918
 20
2.3891
 11
92.8541
 21
2.47328
  0
LINE
  8
0
 10
92.8541
 20
2.47328
 11
92.9149
 21
2.55853
  0
LINE
  8
0
 10
92.9149
 20
2.55853
 11
92.9742
 21
2.64484
  0
LINE
  8
0
 10
92.9742
 20
2.64484
 11
93.032
 21
2.73216
  0
LINE
  8
0
 10
93.032
 20
2.73216
 11
93.0883
 21
2.82048
  0
LINE
  8
0
 10
93.0883
 20
2.82048
 11
93.143
 21
2.90976
  0
LINE
  8
0
 10
93.143
 20
2.90976
 11
93.1962
 21
3
  0
LINE
  8
0
 10
93.1962
 20
3
 11
93.2477
 21
3.09114
  0
LINE
  8
0
 10
93.2477
 20
3.09114
 11
93.2977
 21
3.18317
  0
LINE
  8
0
 10
93.2977
 20
3.18317
 11
93.346
 21
3.27605
  0
LINE
  8
0
 10
93.346
 20
3.27605
 11
93.3928
 21
3.36977
  0
LINE
  8
0
 10
93.3928
 20
3.36977
 11
93.4378
 21
3.46428
  0
LINE
  8
0
 10
93.4378
 20
3.46428
 11
93.4813
 21
3.55957
  0
LINE
  8
0
 10
93.4813
 20
3.55957
 11
93.523
 21
3.65561
  0
LINE
  8
0
 10
93.523
 20
3.65561
 11
93.5631
 21
3.75235
  0
LINE
  8
0
 10
93.5631
 20
3.75235
 11
93.6015
 21
3.84978
  0
LINE
  8
0
 10
93.6015
 20
3.84978
 11
93.6382
 21
3.94788
  0
LINE
  8
0
 10
93.6382
 20
3.94788
 11
93.6731
 21
4.04659
  0
LINE
  8
0
 10
93.6731
 20
4.04659
 11
93.7063
 21
4.14589
  0
LINE
  8
0
 10
93.7063
 20
4.14589
 11
93.7378
 21
4.24576
  0
LINE
  8
0
 10
93.7378
 20
4.24576
 11
93.7676
 21
4.34616
  0
LINE
  8
0
 10
93.7676
 20
4.34616
 11
93.7955
 21
4.44708
  0
LINE
  8
0
 10
93.7955
 20
4.44708
 11
93.8218
 21
4.54846
  0
LINE
  8
0
 10
93.8218
 20
4.54846
 11
93.8462
 21
4.65028
  0
LINE
  8
0
 10
93.8462
 20
4.65028
 11
93.8689
 21
4.75252
  0
LINE
  8
0
 10
93.8689
 20
4.75252
 11
93.8898
 21
4.85513
  0
LINE
  8
0
 10
93.8898
 20
4.85513
 11
93.9088
 21
4.9581
  0
LINE
  8
0
 10
93.9088
 20
4.9581
 11
93.9261
 21
5.06139
  0
LINE
  8
0
 10
93.9261
 20
5.06139
 11
93.9416
 21
5.16495
  0
LINE
  8
0
 10
93.9416
 20
5.16495
 11
93.9553
 21
5.26878
  0
LINE
  8
0
 10
93.9553
 20
5.26878
 11
93.9671
 21
5.37282
  0
LINE
  8
0
 10
93.9671
 20
5.37282
 11
93.9772
 21
5.47705
  0
LINE
  8
0
 10
93.9772
 20
5.47705
 11
93.9854
 21
5.58145
  0
LINE
  8
0
 10
93.9854
 20
5.58145
 11
93.9918
 21
5.68597
  0
LINE
  8
0
 10
93.9918
 20
5.68597
 11
93.9963
 21
5.79059
  0
LINE
  8
0
 10
93.9963
 20
5.79059
 11
93.9991
 21
5.89528
  0
LINE
  8
0
 10
93.9991
 20
5.89528
 11
94
 21
6
  0
LINE
  8
0
 10
94
 20
6
 11
94
 21
88
  0
LINE
  8
0
 10
94
 20
88
 11
93.9991
 21
88.1047
  0
LINE
  8
0
 10
93.9991
 20
88.1047
 11
93.9963
 21
88.2094
  0
LINE
  8
0
 10
93.9963
 20
88.2094
 11
93.9918
 21
88.314
  0
LINE
  8
0
 10
93.9918
 20
88.314
 11
93.9854
 21
88.4185
  0
LINE
  8
0
 10
93.9854
 20
88.4185
 11
93.9772
 21
88.5229
  0
LINE
  8
0
 10
93.9772
 20
88.5229
 11
93.9671
 21
88.6272
  0
LINE
  8
0
 10
93.9671
 20
88.6272
 11
93.9553
 21
88.7312
  0
LINE
  8
0
 10
93.9553
 20
88.7312
 11
93.9416
 21
88.835
  0
LINE
  8
0
 10
93.9416
 20
88.835
 11
93.9261
 21
88.9386
  0
LINE
  8
0
 10
93.9261
 20
88.9386
 11
93.9088
 21
89.0419
  0
LINE
  8
0
 10
93.9088
 20
89.0419
 11
93.8898
 21
89.1449
  0
LINE
  8
0
 10
93.8898
 20
89.1449
 11
93.8689
 21
89.2475
  0
LINE
  8
0
 10
93.8689
 20
89.2475
 11
93.8462
 21
89.3497
  0
LINE
  8
0
 10
93.8462
 20
89.3497
 11
93.8218
 21
89.4515
  0
LINE
  8
0
 10
93.8218
 20
89.4515
 11
93.7955
 21
89.5529
  0
LINE
  8
0
 10
93.7955
 20
89.5529
 11
93.7676
 21
89.6538
  0
LINE
  8
0
 10
93.7676
 20
89.6538
 11
93.7378
 21
89.7542
  0
LINE
  8
0
 10
93.7378
 20
89.7542
 11
93.7063
 21
89.8541
  0
LINE
  8
0
 10
93.7063
 20
89.8541
 11
93.6731
 21
89.9534
  0
LINE
  8
0
 10
93.6731
 20
89.9534
 11
93.6382
 21
90.0521
  0
LINE
  8
0
 10
93.6382
 20
90.0521
 11
93.6015
 21
90.1502
  0
LINE
  8
0
 10
93.6015
 20
90.1502
 11
93.5631
 21
90.2476
  0
LINE
  8
0
 10
93.5631
 20
90.2476
 11
93.523
 21
90.3444
  0
LINE
  8
0
 10
93.523
 20
90.3444
 11
93.4813
 21
90.4404
  0
LINE
  8
0
 10
93.4813
 20
90.4404
 11
93.4378
 21
90.5357
  0
LINE
  8
0
 10
93.4378
 20
90.5357
 11
93.3928
 21
90.6302
  0
LINE
  8
0
 10
93.3928
 20
90.6302
 11
93.346
 21
90.7239
  0
LINE
  8
0
 10
93.346
 20
90.7239
 11
93.2977
 21
90.8168
  0
LINE
  8
0
 10
93.2977
 20
90.8168
 11
93.2477
 21
90.9088
  0
LINE
  8
0
 10
93.2477
 20
90.9088
 11
93.1962
 21
91
  0
LINE
  8
0
 10
93.1962
 20
91
 11
93.143
 21
91.0902
  0
LINE
  8
0
 10
93.143
 20
91.0902
 11
93.0883
 21
91.1795
  0
LINE
  8
0
 10
93.0883
 20
91.1795
 11
93.032
 21
91.2678
  0
LINE
  8
0
 10
93.032
 20
91.2678
 11
92.9742
 21
91.3551
  0
LINE
  8
0
 10
92.9742
 20
91.3551
 11
92.9149
 21
91.4415
  0
LINE
  8
0
 10
92.9149
 20
91.4415
 11
92.8541
 21
91.5267
  0
LINE
  8
0
 10
92.8541
 20
91.5267
 11
92.7918
 21
91.6109
  0
LINE
  8
0
 10
92.7918
 20
91.6109
 11
92.7281
 21
91.694
  0
LINE
  8
0
 10
92.7281
 20
91.694
 11
92.6629
 21
91.7759
  0
LINE
  8
0
 10
92.6629
 20
91.7759
 11
92.5963
 21
91.8567
  0
LINE
  8
0
 10
92.5963
 20
91.8567
 11
92.5282
 21
91.9363
  0
LINE
  8
0
 10
92.5282
 20
91.9363
 11
92.4589
 21
92.0148
  0
LINE
  8
0
 10
92.4589
 20
92.0148
 11
92.3881
 21
92.092
  0
LINE
  8
0
 10
92.3881
 20
92.092
 11
92.316
 21
92.1679
  0
LINE
  8
0
 10
92.316
 20
92.1679
 11
92.2426
 21
92.2426
  0
LINE
  8
0
 10
92.2426
 20
92.2426
 11
92.1679
 21
92.316
  0
LINE
  8
0
 10
92.1679
 20
92.316
 11
92.092
 21
92.3881
  0
LINE
  8
0
 10
92.092
 20
92.3881
 11
92.0148
 21
92.4589
  0
LINE
  8
0
 10
92.0148
 20
92.4589
 11
91.9363
 21
92.5282
  0
LINE
  8
0
 10
91.9363
 20
92.5282
 11
91.8567
 21
92.5963
  0
LINE
  8
0
 10
91.8567
 20
92.5963
 11
91.7759
 21
92.6629
  0
LINE
  8
0
 10
91.7759
 20
92.6629
 11
91.694
 21
92.7281
  0
LINE
  8
0
 10
91.694
 20
92.7281
 11
91.6109
 21
92.7918
  0
LINE
  8
0
 10
91.6109
 20
92.7918
 11
91.5267
 21
92.8541
  0
LINE
  8
0
 10
91.5267
 20
92.8541
 11
91.4415
 21
92.9149
  0
LINE
  8
0
 10
91.4415
 20
92.9149
 11
91.3551
 21
92.9742
  0
LINE
  8
0
 10
91.3551
 20
92.9742
 11
91.2678
 21
93.032
  0
LINE
  8
0
 10
91.2678
 20
93.032
 11
91.1795
 21
93.0883
  0
LINE
  8
0
 10
91.1795
 20
93.0883
 11
91.0902
 21
93.143
  0
LINE
  8
0
 10
91.0902
 20
93.143
 11
91
 21
93.1962
  0
LINE
  8
0
 10
91
 20
93.1962
 11
90.9088
 21
93.2477
  0
LINE
  8
0
 10
90.9088
 20
93.2477
 11
90.8168
 21
93.2977
  0
LINE
  8
0
 10
90.8168
 20
93.2977
 11
90.7239
 21
93.346
  0
LINE
  8
0
 10
90.7239
 20
93.346
 11
90.6302
 21
93.3928
  0
LINE
  8
0
 10
90.6302
 20
93.3928
 11
90.5357
 21
93.4378
  0
LINE
  8
0
 10
90.5357
 20
93.4378
 11
90.4404
 21
93.4813
  0
LINE
  8
0
 10
90.4404
 20
93.4813
 11
90.3444
 21
93.523
  0
LINE
  8
0
 10
90.3444
 20
93.523
 11
90.2476
 21
93.5631
  0
LINE
  8
0
 10
90.2476
 20
93.5631
 11
90.1502
 21
93.6015
  0
LINE
  8
0
 10
90.1502
 20
93.6015
 11
90.0521
 21
93.6382
  0
LINE
  8
0
 10
90.0521
 20
93.6382
 11
89.9534
 21
93.6731
  0
LINE
  8
0
 10
89.9534
 20
93.6731
 11
89.8541
 21
93.7063
  0
LINE
  8
0
 10
89.8541
 20
93.7063
 11
89.7542
 21
93.7378
  0
LINE
  8
0
 10
89.7542
 20
93.7378
 11
89.6538
 21
93.7676
  0
LINE
  8
0
 10
89.6538
 20
93.7676
 11
89.5529
 21
93.7955
  0
LINE
  8
0
 10
89.5529
 20
93.7955
 11
89.4515
 21
93.8218
  0
LINE
  8
0
 10
89.4515
 20
93.8218
 11
89.3497
 21
93.8462
  0
LINE
  8
0
 10
89.3497
 20
93.8462
 11
89.2475
 21
93.8689
  0
LINE
  8
0
 10
89.2475
 20
93.8689
 11
89.1449
 21
93.8898
  0
LINE
  8
0
 10
89.1449
 20
93.8898
 11
89.0419
 21
93.9088
  0
LINE
  8
0
 10
89.0419
 20
93.9088
 11
88.9386
 21
93.9261
  0
LINE
  8
0
 10
88.9386
 20
93.9261
 11
88.835
 21
93.9416
  0
LINE
  8
0
 10
88.835
 20
93.9416
 11
88.7312
 21
93.9553
  0
LINE
  8
0
 10
88.7312
 20
93.9553
 11
88.6272
 21
93.9671
  0
LINE
  8
0
 10
88.6272
 20
93.9671
 11
88.5229
 21
93.9772
  0
LINE
  8
0
 10
88.5229
 20
93.9772
 11
88.4185
 21
93.9854
  0
LINE
  8
0
 10
88.4185
 20
93.9854
 11
88.314
 21
93.9918
  0
LINE
  8
0
 10
88.314
 20
93.9918
 11
88.2094
 21
93.9963
  0
LINE
  8
0
 10
88.2094
 20
93.9963
 11
88.1047
 21
93.9991
  0
LINE
  8
0
 10
88.1047
 20
93.9991
 11
88
 21
94
  0
LINE
  8
0
 10
88
 20
94
 11
6
 21
94
  0
LINE
  8
0
 10
6
 20
94
 11
5.89528
 21
93.9991
  0
LINE
  8
0
 10
5.89528
 20
93.9991
 11
5.79059
 21
93.9963
  0
LINE
  8
0
 10
5.79059
 20
93.9963
 11
5.68597
 21
93.9918
  0
LINE
  8
0
 10
5.68597
 20
93.9918
 11
5.58145
 21
93.9854
  0
LINE
  8
0
 10
5.58145
 20
93.9854
 11
5.47705
 21
93.9772
  0
LINE
  8
0
 10
5.47705
 20
93.9772
 11
5.37282
 21
93.9671
  0
LINE
  8
0
 10
5.37282
 20
93.9671
 11
5.26878
 21
93.9553
  0
LINE
  8
0
 10
5.26878
 20
93.9553
 11
5.16495
 21
93.9416
  0
LINE
  8
0
 10
5.16495
 20
93.9416
 11
5.06139
 21
93.9261
  0
LINE
  8
0
 10
5.06139
 20
93.9261
 11
4.9581
 21
93.9088
  0
LINE
  8
0
 10
4.9581
 20
93.9088
 11
4.85513
 21
93.8898
  0
LINE
  8
0
 10
4.85513
 20
93.8898
 11
4.75252
 21
93.8689
  0
LINE
  8
0
 10
4.75252
 20
93.8689
 11
4.65028
 21
93.8462
  0
LINE
  8
0
 10
4.65028
 20
93.8462
 11
4.54846
 21
93.8218
  0
LINE
  8
0
 10
4.54846
 20
93.8218
 11
4.44708
 21
93.7955
  0
LINE
  8
0
 10
4.44708
 20
93.7955
 11
4.34616
 21
93.7676
  0
LINE
  8
0
 10
4.34616
 20
93.7676
 11
4.24576
 21
93.7378
  0
LINE
  8
0
 10
4.24576
 20
93.7378
 11
4.14589
 21
93.7063
  0
LINE
  8
0
 10
4.14589
 20
93.7063
 11
4.04659
 21
93.6731
  0
LINE
  8
0
 10
4.04659
 20
93.6731
 11
3.94788
 21
93.6382
  0
LINE
  8
0
 10
3.94788
 20
93.6382
 11
3.84978
 21
93.6015
  0
LINE
  8
0
 10
3.84978
 20
93.6015
 11
3.75235
 21
93.5631
  0
LINE
  8
0
 10
3.75235
 20
93.5631
 11
3.65561
 21
93.523
  0
LINE
  8
0
 10
3.65561
 20
93.523
 11
3.55957
 21
93.4813
  0
LINE
  8
0
 10
3.55957
 20
93.4813
 11
3.46428
 21
93.4378
  0
LINE
  8
0
 10
3.46428
 20
93.4378
 11
3.36977
 21
93.3928
  0
LINE
  8
0
 10
3.36977
 20
93.3928
 11
3.27605
 21
93.346
  0
LINE
  8
0
 10
3.27605
 20
93.346
 11
3.18317
 21
93.2977
  0
LINE
  8
0
 10
3.18317
 20
93.2977
 11
3.09114
 21
93.2477
  0
LINE
  8
0
 10
3.09114
 20
93.2477
 11
3
 21
93.1962
  0
LINE
  8
0
 10
3
 20
93.1962
 11
2.90976
 21
93.143
  0
LINE
  8
0
 10
2.90976
 20
93.143
 11
2.82048
 21
93.0883
  0
LINE
  8
0
 10
2.82048
 20
93.0883
 11
2.73216
 21
93.032
  0
LINE
  8
0
 10
2.73216
 20
93.032
 11
2.64484
 21
92.9742
  0
LINE
  8
0
 10
2.64484
 20
92.9742
 11
2.55853
 21
92.9149
  0
LINE
  8
0
 10
2.55853
 20
92.9149
 11
2.47328
 21
92.8541
  0
LINE
  8
0
 10
2.47328
 20
92.8541
 11
2.3891
 21
92.7918
  0
LINE
  8
0
 10
2.3891
 20
92.7918
 11
2.30603
 21
92.7281
  0
LINE
  8
0
 10
2.30603
 20
92.7281
 11
2.22408
 21
92.6629
  0
LINE
  8
0
 10
2.22408
 20
92.6629
 11
2.14326
 21
92.5963
  0
LINE
  8
0
 10
2.14326
 20
92.5963
 11
2.06364
 21
92.5282
  0
LINE
  8
0
 10
2.06364
 20
92.5282
 11
1.98521
 21
92.4589
  0
LINE
  8
0
 10
1.98521
 20
92.4589
 11
1.908
 21
92.3881
  0
LINE
  8
0
 10
1.908
 20
92.3881
 11
1.83205
 21
92.316
  0
LINE
  8
0
 10
1.83205
 20
92.316
 11
1.75735
 21
92.2426
  0
LINE
  8
0
 10
1.75735
 20
92.2426
 11
1.68396
 21
92.1679
  0
LINE
  8
0
 10
1.68396
 20
92.1679
 11
1.61188
 21
92.092
  0
LINE
  8
0
 10
1.61188
 20
92.092
 11
1.54112
 21
92.0148
  0
LINE
  8
0
 10
1.54112
 20
92.0148
 11
1.47174
 21
91.9363
  0
LINE
  8
0
 10
1.47174
 20
91.9363
 11
1.40373
 21
91.8567
  0
LINE
  8
0
 10
1.40373
 20
91.8567
 11
1.33711
 21
91.7759
  0
LINE
  8
0
 10
1.33711
 20
91.7759
 11
1.27193
 21
91.694
  0
LINE
  8
0
 10
1.27193
 20
91.694
 11
1.20818
 21
91.6109
  0
LINE
  8
0
 10
1.20818
 20
91.6109
 11
1.14589
 21
91.5267
  0
LINE
  8
0
 10
1.14589
 20
91.5267
 11
1.08508
 21
91.4415
  0
LINE
  8
0
 10
1.08508
 20
91.4415
 11
1.02577
 21
91.3551
  0
LINE
  8
0
 10
1.02577
 20
91.3551
 11
0.967972
 21
91.2678
  0
LINE
  8
0
 10
0.967972
 20
91.2678
 11
0.911697
 21
91.1795
  0
LINE
  8
0
 10
0.911697
 20
91.1795
 11
0.856995
 21
91.0902
  0
LINE
  8
0
 10
0.856995
 20
91.0902
 11
0.803833
 21
91
  0
LINE
  8
0
 10
0.803833
 20
91
 11
0.752274
 21
90.9088
  0
LINE
  8
0
 10
0.752274
 20
90.9088
 11
0.702301
 21
90.8168
  0
LINE
  8
0
 10
0.702301
 20
90.8168
 11
0.653946
 21
90.7239
  0
LINE
  8
0
 10
0.653946
 20
90.7239
 11
0.607224
 21
90.6302
  0
LINE
  8
0
 10
0.607224
 20
90.6302
 11
0.562149
 21
90.5357
  0
LINE
  8
0
 10
0.562149
 20
90.5357
 11
0.518723
 21
90.4404
  0
LINE
  8
0
 10
0.518723
 20
90.4404
 11
0.476959
 21
90.3444
  0
LINE
  8
0
 10
0.476959
 20
90.3444
 11
0.43689
 21
90.2476
  0
LINE
  8
0
 10
0.43689
 20
90.2476
 11
0.398514
 21
90.1502
  0
LINE
  8
0
 10
0.398514
 20
90.1502
 11
0.361832
 21
90.0521
  0
LINE
  8
0
 10
0.361832
 20
90.0521
 11
0.326874
 21
89.9534
  0
LINE
  8
0
 10
0.326874
 20
89.9534
 11
0.293655
 21
89.8541
  0
LINE
  8
0
 10
0.293655
 20
89.8541
 11
0.262161
 21
89.7542
  0
LINE
  8
0
 10
0.262161
 20
89.7542
 11
0.232422
 21
89.6538
  0
LINE
  8
0
 10
0.232422
 20
89.6538
 11
0.204437
 21
89.5529
  0
LINE
  8
0
 10
0.204437
 20
89.5529
 11
0.178223
 21
89.4515
  0
LINE
  8
0
 10
0.178223
 20
89.4515
 11
0.153778
 21
89.3497
  0
LINE
  8
0
 10
0.153778
 20
89.3497
 11
0.131104
 21
89.2475
  0
LINE
  8
0
 10
0.131104
 20
89.2475
 11
0.110229
 21
89.1449
  0
LINE
  8
0
 10
0.110229
 20
89.1449
 11
0.0911407
 21
89.0419
  0
LINE
  8
0
 10
0.0911407
 20
89.0419
 11
0.0738678
 21
88.9386
  0
LINE
  8
0
 10
0.0738678
 20
88.9386
 11
0.0583801
 21
88.835
  0
LINE
  8
0
 10
0.0583801
 20
88.835
 11
0.0447083
 21
88.7312
  0
LINE
  8
0
 10
0.0447083
 20
88.7312
 11
0.0328674
 21
88.6272
  0
LINE
  8
0
 10
0.0328674
 20
88.6272
 11
0.0228271
 21
88.5229
  0
LINE
  8
0
 10
0.0228271
 20
88.5229
 11
0.0146027
 21
88.4185
  0
LINE
  8
0
 10
0.0146027
 20
88.4185
 11
0.00820923
 21
88.314
  0
LINE
  8
0
 10
0.00820923
 20
88.314
 11
0.00364685
 21
88.2094
  0
LINE
  8
0
 10
0.00364685
 20
88.2094
 11
0.000900269
 21
88.1047
  0
LINE
  8
0
 10
0.000900269
 20
88.1047
 11
0
 21
88
  0
LINE
  8
0
 10
0
 20
88
 11
0
 21
6
  0
LINE
  8
0
 10
0
 20
6
 11
0.000900269
 21
5.89528
  0
LINE
  8
0
 10
0.000900269
 20
5.89528
 11
0.00364685
 21
5.79059
  0
LINE
  8
0
 10
0.00364685
 20
5.79059
 11
0.00820923
 21
5.68597
  0
LINE
  8
0
 10
0.00820923
 20
5.68597
 11
0.0146027
 21
5.58145
  0
LINE
  8
0
 10
0.0146027
 20
5.58145
 11
0.0228271
 21
5.47705
  0
LINE
  8
0
 10
0.0228271
 20
5.47705
 11
0.0328674
 21
5.37282
  0
LINE
  8
0
 10
0.0328674
 20
5.37282
 11
0.0447083
 21
5.26878
  0
LINE
  8
0
 10
0.0447083
 20
5.26878
 11
0.0583801
 21
5.16495
  0
LINE
  8
0
 10
0.0583801
 20
5.16495
 11
0.0738678
 21
5.06139
  0
LINE
  8
0
 10
0.0738678
 20
5.06139
 11
0.0911407
 21
4.9581
  0
LINE
  8
0
 10
0.0911407
 20
4.9581
 11
0.110229
 21
4.85513
  0
LINE
  8
0
 10
0.110229
 20
4.85513
 11
0.131104
 21
4.75252
  0
LINE
  8
0
 10
0.131104
 20
4.75252
 11
0.153778
 21
4.65028
  0
LINE
  8
0
 10
0.153778
 20
4.65028
 11
0.178223
 21
4.54846
  0
LINE
  8
0
 10
0.178223
 20
4.54846
 11
0.204437
 21
4.44708
  0
LINE
  8
0
 10
0.204437
 20
4.44708
 11
0.232422
 21
4.34616
  0
LINE
  8
0
 10
0.232422
 20
4.34616
 11
0.262161
 21
4.24576
  0
LINE
  8
0
 10
0.262161
 20
4.24576
 11
0.293655
 21
4.14589
  0
LINE
  8
0
 10
0.293655
 20
4.14589
 11
0.326874
 21
4.04659
  0
LINE
  8
0
 10
0.326874
 20
4.04659
 11
0.361832
 21
3.94788
  0
LINE
  8
0
 10
0.361832
 20
3.94788
 11
0.398514
 21
3.84978
  0
LINE
  8
0
 10
0.398514
 20
3.84978
 11
0.43689
 21
3.75235
  0
LINE
  8
0
 10
0.43689
 20
3.75235
 11
0.476959
 21
3.65561
  0
LINE
  8
0
 10
0.476959
 20
3.65561
 11
0.518723
 21
3.55957
  0
LINE
  8
0
 10
0.518723
 20
3.55957
 11
0.562149
 21
3.46428
  0
LINE
  8
0
 10
0.562149
 20
3.46428
 11
0.607224
 21
3.36977
  0
LINE
  8
0
 10
0.607224
 20
3.36977
 11
0.653946
 21
3.27605
  0
LINE
  8
0
 10
0.653946
 20
3.27605
 11
0.702301
 21
3.18317
  0
LINE
  8
0
 10
0.702301
 20
3.18317
 11
0.752274
 21
3.09114
  0
LINE
  8
0
 10
0.752274
 20
3.09114
 11
0.803833
 21
3
  0
LINE
  8
0
 10
0.803833
 20
3
 11
0.856995
 21
2.90976
  0
LINE
  8
0
 10
0.856995
 20
2.90976
 11
0.911697
 21
2.82048
  0
LINE
  8
0
 10
0.911697
 20
2.82048
 11
0.967972
 21
2.73216
  0
LINE
  8
0
 10
0.967972
 20
2.73216
 11
1.02577
 21
2.64484
  0
LINE
  8
0
 10
1.02577
 20
2.64484
 11
1.08508
 21
2.55853
  0
LINE
  8
0
 10
1.08508
 20
2.55853
 11
1.14589
 21
2.47328
  0
LINE
  8
0
 10
1.14589
 20
2.47328
 11
1.20818
 21
2.3891
  0
LINE
  8
0
 10
1.20818
 20
2.3891
 11
1.27193
 21
2.30603
  0
LINE
  8
0
 10
1.27193
 20
2.30603
 11
1.33711
 21
2.22408
  0
LINE
  8
0
 10
1.33711
 20
2.22408
 11
1.40373
 21
2.14326
  0
LINE
  8
0
 10
1.40373
 20
2.14326
 11
1.47174
 21
2.06364
  0
LINE
  8
0
 10
1.47174
 20
2.06364
 11
1.54112
 21
1.98521
  0
LINE
  8
0
 10
1.54112
 20
1.98521
 11
1.61188
 21
1.908
  0
LINE
  8
0
 10
1.61188
 20
1.908
 11
1.68396
 21
1.83205
  0
LINE
  8
0
 10
1.68396
 20
1.83205
 11
1.75735
 21
1.75735
  0
LINE
  8
0
 10
1.75735
 20
1.75735
 11
1.83205
 21
1.68396
  0
LINE
  8
0
 10
1.83205
 20
1.68396
 11
1.908
 21
1.61188
  0
LINE
  8
0
 10
1.908
 20
1.61188
 11
1.98521
 21
1.54112
  0
LINE
  8
0
 10
1.98521
 20
1.54112
 11
2.06364
 21
1.47174
  0
LINE
  8
0
 10
2.06364
 20
1.47174
 11
2.14326
 21
1.40373
  0
LINE
  8
0
 10
2.14326
 20
1.40373
 11
2.22408
 21
1.33711
  0
LINE
  8
0
 10
2.22408
 20
1.33711
 11
2.30603
 21
1.27193
  0
LINE
  8
0
 10
2.30603
 20
1.27193
 11
2.3891
 21
1.20818
  0
LINE
  8
0
 10
2.3891
 20
1.20818
 11
2.47328
 21
1.14589
  0
LINE
  8
0
 10
2.47328
 20
1.14589
 11
2.55853
 21
1.08508
  0
LINE
  8
0
 10
2.55853
 20
1.08508
 11
2.64484
 21
1.02577
  0
LINE
  8
0
 10
2.64484
 20
1.02577
 11
2.73216
 21
0.967972
  0
LINE
  8
0
 10
2.73216
 20
0.967972
 11
2.82048
 21
0.911697
  0
LINE
  8
0
 10
2.82048
 20
0.911697
 11
2.90976
 21
0.856995
  0
LINE
  8
0
 10
2.90976
 20
0.856995
 11
3
 21
0.803833
  0
LINE
  8
0
 10
3
 20
0.803833
 11
3.09114
 21
0.752274
  0
LINE
  8
0
 10
3.09114
 20
0.752274
 11
3.18317
 21
0.702301
  0
LINE
  8
0
 10
3.18317
 20
0.702301
 11
3.27605
 21
0.653946
  0
LINE
  8
0
 10
3.27605
 20
0.653946
 11
3.36977
 21
0.607224
  0
LINE
  8
0
 10
3.36977
 20
0.607224
 11
3.46428
 21
0.562149
  0
LINE
  8
0
 10
3.46428
 20
0.562149
 11
3.55957
 21
0.518723
  0
LINE
  8
0
 10
3.55957
 20
0.518723
 11
3.65561
 21
0.476959
  0
LINE
  8
0
 10
3.65561
 20
0.476959
 11
3.75235
 21
0.43689
  0
LINE
  8
0
 10
3.75235
 20
0.43689
 11
3.84978
 21
0.398514
  0
LINE
  8
0
 10
3.84978
 20
0.398514
 11
3.94788
 21
0.361832
  0
LINE
  8
0
 10
3.94788
 20
0.361832
 11
4.04659
 21
0.326874
  0
LINE
  8
0
 10
4.04659
 20
0.326874
 11
4.14589
 21
0.293655
  0
LINE
  8
0
 10
4.14589
 20
0.293655
 11
4.24576
 21
0.262161
  0
LINE
  8
0
 10
4.24576
 20
0.262161
 11
4.34616
 21
0.232422
  0
LINE
  8
0
 10
4.34616
 20
0.232422
 11
4.44708
 21
0.204437
  0
LINE
  8
0
 10
4.44708
 20
0.204437
 11
4.54846
 21
0.178223
  0
LINE
  8
0
 10
4.54846
 20
0.178223
 11
4.65028
 21
0.153778
  0
LINE
  8
0
 10
4.65028
 20
0.153778
 11
4.75252
 21
0.131104
  0
LINE
  8
0
 10
4.75252
 20
0.131104
 11
4.85513
 21
0.110229
  0
LINE
  8
0
 10
4.85513
 20
0.110229
 11
4.9581
 21
0.0911407
  0
LINE
  8
0
 10
4.9581
 20
0.0911407
 11
5.06139
 21
0.0738678
  0
LINE
  8
0
 10
5.06139
 20
0.0738678
 11
5.16495
 21
0.0583801
  0
LINE
  8
0
 10
5.16495
 20
0.0583801
 11
5.26878
 21
0.0447083
  0
LINE
  8
0
 10
5.26878
 20
0.0447083
 11
5.37282
 21
0.0328674
  0
LINE
  8
0
 10
5.37282
 20
0.0328674
 11
5.47705
 21
0.0228271
  0
LINE
  8
0
 10
5.47705
 20
0.0228271
 11
5.58145
 21
0.0146027
  0
LINE
  8
0
 10
5.58145
 20
0.0146027
 11
5.68597
 21
0.00820923
  0
LINE
  8
0
 10
5.68597
 20
0.00820923
 11
5.79059
 21
0.00364685
  0
LINE
  8
0
 10
5.79059
 20
0.00364685
 11
5.89528
 21
0.000900269
  0
LINE
  8
0
 10
5.89528
 20
0.000900269
 11
6
 21
0
  0
LINE
  8
0
 10
6
 20
0
 11
8
 21
0
  0
LINE
  8
0
 10
8
 20
0
 11
8
 21
45
  0
LINE
  8
0
 10
56.4
 20
76.5
 11
56.4
 21
80.5
  0
LINE
  8
0
 10
56.4
 20
80.5
 11
72.5
 21
80.5
  0
LINE
  8
0
 10
72.5
 20
80.5
 11
72.5
 21
78.5
  0
LINE
  8
0
 10
72.5
 20
78.5
 11
76.5
 21
78.5
  0
LINE
  8
0
 10
76.5
 20
78.5
 11
76.5
 21
57.3
  0
LINE
  8
0
 10
76.5
 20
57.3
 11
72.5
 21
57.3
  0
LINE
  8
0
 10
72.5
 20
57.3
 11
72.5
 21
55.3
  0
LINE
  8
0
 10
72.5
 20
55.3
 11
56.4
 21
55.3
  0
LINE
  8
0
 10
56.4
 20
55.3
 11
56.4
 21
59.3
  0
LINE
  8
0
 10
56.4
 20
59.3
 11
52.4
 21
59.3
  0
LINE
  8
0
 10
52.4
 20
59.3
 11
52.4
 21
76.5
  0
LINE
  8
0
 10
52.4
 20
76.5
 11
56.4
 21
76.5
  0
ENDSEC
  0
SECTION
  2
OBJECTS
  0
DICTIONARY
  0
ENDSEC
  0
EOF
