  0
SECTION
  2
BLOCKS
  0
ENDSEC
  0
SECTION
  2
ENTITIES
  0
LINE
  8
0
 10
88.1047
 20
0.000900269
 11
88.2094
 21
0.00364685
  0
LINE
  8
0
 10
88.2094
 20
0.00364685
 11
88.314
 21
0.00820923
  0
LINE
  8
0
 10
88.314
 20
0.00820923
 11
88.4185
 21
0.0146027
  0
LINE
  8
0
 10
88.4185
 20
0.0146027
 11
88.5229
 21
0.0228271
  0
LINE
  8
0
 10
88.5229
 20
0.0228271
 11
88.6272
 21
0.0328674
  0
LINE
  8
0
 10
88.6272
 20
0.0328674
 11
88.7312
 21
0.0447083
  0
LINE
  8
0
 10
88.7312
 20
0.0447083
 11
88.835
 21
0.0583801
  0
LINE
  8
0
 10
88.835
 20
0.0583801
 11
88.9386
 21
0.0738678
  0
LINE
  8
0
 10
88.9386
 20
0.0738678
 11
89.0419
 21
0.0911407
  0
LINE
  8
0
 10
89.0419
 20
0.0911407
 11
89.1449
 21
0.110229
  0
LINE
  8
0
 10
89.1449
 20
0.110229
 11
89.2475
 21
0.131104
  0
LINE
  8
0
 10
89.2475
 20
0.131104
 11
89.3497
 21
0.153778
  0
LINE
  8
0
 10
89.3497
 20
0.153778
 11
89.4515
 21
0.178223
  0
LINE
  8
0
 10
89.4515
 20
0.178223
 11
89.5529
 21
0.204437
  0
LINE
  8
0
 10
89.5529
 20
0.204437
 11
89.6538
 21
0.232422
  0
LINE
  8
0
 10
89.6538
 20
0.232422
 11
89.7542
 21
0.262161
  0
LINE
  8
0
 10
89.7542
 20
0.262161
 11
89.8541
 21
0.293655
  0
LINE
  8
0
 10
89.8541
 20
0.293655
 11
89.9534
 21
0.326874
  0
LINE
  8
0
 10
89.9534
 20
0.326874
 11
90.0521
 21
0.361832
  0
LINE
  8
0
 10
90.0521
 20
0.361832
 11
90.1502
 21
0.398514
  0
LINE
  8
0
 10
90.1502
 20
0.398514
 11
90.2476
 21
0.43689
  0
LINE
  8
0
 10
90.2476
 20
0.43689
 11
90.3444
 21
0.476959
  0
LINE
  8
0
 10
90.3444
 20
0.476959
 11
90.4404
 21
0.518723
  0
LINE
  8
0
 10
90.4404
 20
0.518723
 11
90.5357
 21
0.562149
  0
LINE
  8
0
 10
90.5357
 20
0.562149
 11
90.6302
 21
0.607224
  0
LINE
  8
0
 10
90.6302
 20
0.607224
 11
90.7239
 21
0.653946
  0
LINE
  8
0
 10
90.7239
 20
0.653946
 11
90.8168
 21
0.702301
  0
LINE
  8
0
 10
90.8168
 20
0.702301
 11
90.9088
 21
0.752274
  0
LINE
  8
0
 10
90.9088
 20
0.752274
 11
91
 21
0.803833
  0
LINE
  8
0
 10
91
 20
0.803833
 11
91.0902
 21
0.856995
  0
LINE
  8
0
 10
91.0902
 20
0.856995
 11
91.1795
 21
0.911697
  0
LINE
  8
0
 10
91.1795
 20
0.911697
 11
91.2678
 21
0.967972
  0
LINE
  8
0
 10
91.2678
 20
0.967972
 11
91.3551
 21
1.02577
  0
LINE
  8
0
 10
91.3551
 20
1.02577
 11
91.4415
 21
1.08508
  0
LINE
  8
0
 10
91.4415
 20
1.08508
 11
91.5267
 21
1.14589
  0
LINE
  8
0
 10
91.5267
 20
1.14589
 11
91.6109
 21
1.20818
  0
LINE
  8
0
 10
91.6109
 20
1.20818
 11
91.694
 21
1.27193
  0
LINE
  8
0
 10
91.694
 20
1.27193
 11
91.7759
 21
1.33711
  0
LINE
  8
0
 10
91.7759
 20
1.33711
 11
91.8567
 21
1.40373
  0
LINE
  8
0
 10
91.8567
 20
1.40373
 11
91.9363
 21
1.47174
  0
LINE
  8
0
 10
91.9363
 20
1.47174
 11
92.0148
 21
1.54112
  0
LINE
  8
0
 10
92.0148
 20
1.54112
 11
92.092
 21
1.61188
  0
LINE
  8
0
 10
92.092
 20
1.61188
 11
92.1679
 21
1.68396
  0
LINE
  8
0
 10
92.1679
 20
1.68396
 11
92.2426
 21
1.75735
  0
LINE
  8
0
 10
92.2426
 20
1.75735
 11
92.316
 21
1.83205
  0
LINE
  8
0
 10
92.316
 20
1.83205
 11
92.3881
 21
1.908
  0
LINE
  8
0
 10
92.3881
 20
1.908
 11
92.4589
 21
1.98521
  0
LINE
  8
0
 10
92.4589
 20
1.98521
 11
92.5282
 21
2.06364
  0
LINE
  8
0
 10
92.5282
 20
2.06364
 11
92.5963
 21
2.14326
  0
LINE
  8
0
 10
92.5963
 20
2.14326
 11
92.6629
 21
2.22408
  0
LINE
  8
0
 10
92.6629
 20
2.22408
 11
92.7281
 21
2.30603
  0
LINE
  8
0
 10
92.7281
 20
2.30603
 11
92.7918
 21
2.3891
  0
LINE
  8
0
 10
92.7918
 20
2.3891
 11
92.8541
 21
2.47328
  0
LINE
  8
0
 10
92.8541
 20
2.47328
 11
92.9149
 21
2.55853
  0
LINE
  8
0
 10
92.9149
 20
2.55853
 11
92.9742
 21
2.64484
  0
LINE
  8
0
 10
92.9742
 20
2.64484
 11
93.032
 21
2.73216
  0
LINE
  8
0
 10
93.032
 20
2.73216
 11
93.0883
 21
2.82048
  0
LINE
  8
0
 10
93.0883
 20
2.82048
 11
93.143
 21
2.90976
  0
LINE
  8
0
 10
93.143
 20
2.90976
 11
93.1962
 21
3
  0
LINE
  8
0
 10
93.1962
 20
3
 11
93.2477
 21
3.09114
  0
LINE
  8
0
 10
93.2477
 20
3.09114
 11
93.2977
 21
3.18317
  0
LINE
  8
0
 10
93.2977
 20
3.18317
 11
93.346
 21
3.27605
  0
LINE
  8
0
 10
93.346
 20
3.27605
 11
93.3928
 21
3.36977
  0
LINE
  8
0
 10
93.3928
 20
3.36977
 11
93.4378
 21
3.46428
  0
LINE
  8
0
 10
93.4378
 20
3.46428
 11
93.4813
 21
3.55957
  0
LINE
  8
0
 10
93.4813
 20
3.55957
 11
93.523
 21
3.65561
  0
LINE
  8
0
 10
93.523
 20
3.65561
 11
93.5631
 21
3.75235
  0
LINE
  8
0
 10
93.5631
 20
3.75235
 11
93.6015
 21
3.84978
  0
LINE
  8
0
 10
93.6015
 20
3.84978
 11
93.6382
 21
3.94788
  0
LINE
  8
0
 10
93.6382
 20
3.94788
 11
93.6731
 21
4.04659
  0
LINE
  8
0
 10
93.6731
 20
4.04659
 11
93.7063
 21
4.14589
  0
LINE
  8
0
 10
93.7063
 20
4.14589
 11
93.7378
 21
4.24576
  0
LINE
  8
0
 10
93.7378
 20
4.24576
 11
93.7676
 21
4.34616
  0
LINE
  8
0
 10
93.7676
 20
4.34616
 11
93.7955
 21
4.44708
  0
LINE
  8
0
 10
93.7955
 20
4.44708
 11
93.8218
 21
4.54846
  0
LINE
  8
0
 10
93.8218
 20
4.54846
 11
93.8462
 21
4.65028
  0
LINE
  8
0
 10
93.8462
 20
4.65028
 11
93.8689
 21
4.75252
  0
LINE
  8
0
 10
93.8689
 20
4.75252
 11
93.8898
 21
4.85513
  0
LINE
  8
0
 10
93.8898
 20
4.85513
 11
93.9088
 21
4.9581
  0
LINE
  8
0
 10
93.9088
 20
4.9581
 11
93.9261
 21
5.06139
  0
LINE
  8
0
 10
93.9261
 20
5.06139
 11
93.9416
 21
5.16495
  0
LINE
  8
0
 10
93.9416
 20
5.16495
 11
93.9553
 21
5.26878
  0
LINE
  8
0
 10
93.9553
 20
5.26878
 11
93.9671
 21
5.37282
  0
LINE
  8
0
 10
93.9671
 20
5.37282
 11
93.9772
 21
5.47705
  0
LINE
  8
0
 10
93.9772
 20
5.47705
 11
93.9854
 21
5.58145
  0
LINE
  8
0
 10
93.9854
 20
5.58145
 11
93.9918
 21
5.68597
  0
LINE
  8
0
 10
93.9918
 20
5.68597
 11
93.9963
 21
5.79059
  0
LINE
  8
0
 10
93.9963
 20
5.79059
 11
93.9991
 21
5.89528
  0
LINE
  8
0
 10
93.9991
 20
5.89528
 11
94
 21
6
  0
LINE
  8
0
 10
94
 20
6
 11
94
 21
88
  0
LINE
  8
0
 10
94
 20
88
 11
93.9991
 21
88.1047
  0
LINE
  8
0
 10
93.9991
 20
88.1047
 11
93.9963
 21
88.2094
  0
LINE
  8
0
 10
93.9963
 20
88.2094
 11
93.9918
 21
88.314
  0
LINE
  8
0
 10
93.9918
 20
88.314
 11
93.9854
 21
88.4185
  0
LINE
  8
0
 10
93.9854
 20
88.4185
 11
93.9772
 21
88.5229
  0
LINE
  8
0
 10
93.9772
 20
88.5229
 11
93.9671
 21
88.6272
  0
LINE
  8
0
 10
93.9671
 20
88.6272
 11
93.9553
 21
88.7312
  0
LINE
  8
0
 10
93.9553
 20
88.7312
 11
93.9416
 21
88.835
  0
LINE
  8
0
 10
93.9416
 20
88.835
 11
93.9261
 21
88.9386
  0
LINE
  8
0
 10
93.9261
 20
88.9386
 11
93.9088
 21
89.0419
  0
LINE
  8
0
 10
93.9088
 20
89.0419
 11
93.8898
 21
89.1449
  0
LINE
  8
0
 10
93.8898
 20
89.1449
 11
93.8689
 21
89.2475
  0
LINE
  8
0
 10
93.8689
 20
89.2475
 11
93.8462
 21
89.3497
  0
LINE
  8
0
 10
93.8462
 20
89.3497
 11
93.8218
 21
89.4515
  0
LINE
  8
0
 10
93.8218
 20
89.4515
 11
93.7955
 21
89.5529
  0
LINE
  8
0
 10
93.7955
 20
89.5529
 11
93.7676
 21
89.6538
  0
LINE
  8
0
 10
93.7676
 20
89.6538
 11
93.7378
 21
89.7542
  0
LINE
  8
0
 10
93.7378
 20
89.7542
 11
93.7063
 21
89.8541
  0
LINE
  8
0
 10
93.7063
 20
89.8541
 11
93.6731
 21
89.9534
  0
LINE
  8
0
 10
93.6731
 20
89.9534
 11
93.6382
 21
90.0521
  0
LINE
  8
0
 10
93.6382
 20
90.0521
 11
93.6015
 21
90.1502
  0
LINE
  8
0
 10
93.6015
 20
90.1502
 11
93.5631
 21
90.2476
  0
LINE
  8
0
 10
93.5631
 20
90.2476
 11
93.523
 21
90.3444
  0
LINE
  8
0
 10
93.523
 20
90.3444
 11
93.4813
 21
90.4404
  0
LINE
  8
0
 10
93.4813
 20
90.4404
 11
93.4378
 21
90.5357
  0
LINE
  8
0
 10
93.4378
 20
90.5357
 11
93.3928
 21
90.6302
  0
LINE
  8
0
 10
93.3928
 20
90.6302
 11
93.346
 21
90.7239
  0
LINE
  8
0
 10
93.346
 20
90.7239
 11
93.2977
 21
90.8168
  0
LINE
  8
0
 10
93.2977
 20
90.8168
 11
93.2477
 21
90.9088
  0
LINE
  8
0
 10
93.2477
 20
90.9088
 11
93.1962
 21
91
  0
LINE
  8
0
 10
93.1962
 20
91
 11
93.143
 21
91.0902
  0
LINE
  8
0
 10
93.143
 20
91.0902
 11
93.0883
 21
91.1795
  0
LINE
  8
0
 10
93.0883
 20
91.1795
 11
93.032
 21
91.2678
  0
LINE
  8
0
 10
93.032
 20
91.2678
 11
92.9742
 21
91.3551
  0
LINE
  8
0
 10
92.9742
 20
91.3551
 11
92.9149
 21
91.4415
  0
LINE
  8
0
 10
92.9149
 20
91.4415
 11
92.8541
 21
91.5267
  0
LINE
  8
0
 10
92.8541
 20
91.5267
 11
92.7918
 21
91.6109
  0
LINE
  8
0
 10
92.7918
 20
91.6109
 11
92.7281
 21
91.694
  0
LINE
  8
0
 10
92.7281
 20
91.694
 11
92.6629
 21
91.7759
  0
LINE
  8
0
 10
92.6629
 20
91.7759
 11
92.5963
 21
91.8567
  0
LINE
  8
0
 10
92.5963
 20
91.8567
 11
92.5282
 21
91.9363
  0
LINE
  8
0
 10
92.5282
 20
91.9363
 11
92.4589
 21
92.0148
  0
LINE
  8
0
 10
92.4589
 20
92.0148
 11
92.3881
 21
92.092
  0
LINE
  8
0
 10
92.3881
 20
92.092
 11
92.316
 21
92.1679
  0
LINE
  8
0
 10
92.316
 20
92.1679
 11
92.2426
 21
92.2426
  0
LINE
  8
0
 10
92.2426
 20
92.2426
 11
92.1679
 21
92.316
  0
LINE
  8
0
 10
92.1679
 20
92.316
 11
92.092
 21
92.3881
  0
LINE
  8
0
 10
92.092
 20
92.3881
 11
92.0148
 21
92.4589
  0
LINE
  8
0
 10
92.0148
 20
92.4589
 11
91.9363
 21
92.5282
  0
LINE
  8
0
 10
91.9363
 20
92.5282
 11
91.8567
 21
92.5963
  0
LINE
  8
0
 10
91.8567
 20
92.5963
 11
91.7759
 21
92.6629
  0
LINE
  8
0
 10
91.7759
 20
92.6629
 11
91.694
 21
92.7281
  0
LINE
  8
0
 10
91.694
 20
92.7281
 11
91.6109
 21
92.7918
  0
LINE
  8
0
 10
91.6109
 20
92.7918
 11
91.5267
 21
92.8541
  0
LINE
  8
0
 10
91.5267
 20
92.8541
 11
91.4415
 21
92.9149
  0
LINE
  8
0
 10
91.4415
 20
92.9149
 11
91.3551
 21
92.9742
  0
LINE
  8
0
 10
91.3551
 20
92.9742
 11
91.2678
 21
93.032
  0
LINE
  8
0
 10
91.2678
 20
93.032
 11
91.1795
 21
93.0883
  0
LINE
  8
0
 10
91.1795
 20
93.0883
 11
91.0902
 21
93.143
  0
LINE
  8
0
 10
91.0902
 20
93.143
 11
91
 21
93.1962
  0
LINE
  8
0
 10
91
 20
93.1962
 11
90.9088
 21
93.2477
  0
LINE
  8
0
 10
90.9088
 20
93.2477
 11
90.8168
 21
93.2977
  0
LINE
  8
0
 10
90.8168
 20
93.2977
 11
90.7239
 21
93.346
  0
LINE
  8
0
 10
90.7239
 20
93.346
 11
90.6302
 21
93.3928
  0
LINE
  8
0
 10
90.6302
 20
93.3928
 11
90.5357
 21
93.4378
  0
LINE
  8
0
 10
90.5357
 20
93.4378
 11
90.4404
 21
93.4813
  0
LINE
  8
0
 10
90.4404
 20
93.4813
 11
90.3444
 21
93.523
  0
LINE
  8
0
 10
90.3444
 20
93.523
 11
90.2476
 21
93.5631
  0
LINE
  8
0
 10
90.2476
 20
93.5631
 11
90.1502
 21
93.6015
  0
LINE
  8
0
 10
90.1502
 20
93.6015
 11
90.0521
 21
93.6382
  0
LINE
  8
0
 10
90.0521
 20
93.6382
 11
89.9534
 21
93.6731
  0
LINE
  8
0
 10
89.9534
 20
93.6731
 11
89.8541
 21
93.7063
  0
LINE
  8
0
 10
89.8541
 20
93.7063
 11
89.7542
 21
93.7378
  0
LINE
  8
0
 10
89.7542
 20
93.7378
 11
89.6538
 21
93.7676
  0
LINE
  8
0
 10
89.6538
 20
93.7676
 11
89.5529
 21
93.7955
  0
LINE
  8
0
 10
89.5529
 20
93.7955
 11
89.4515
 21
93.8218
  0
LINE
  8
0
 10
89.4515
 20
93.8218
 11
89.3497
 21
93.8462
  0
LINE
  8
0
 10
89.3497
 20
93.8462
 11
89.2475
 21
93.8689
  0
LINE
  8
0
 10
89.2475
 20
93.8689
 11
89.1449
 21
93.8898
  0
LINE
  8
0
 10
89.1449
 20
93.8898
 11
89.0419
 21
93.9088
  0
LINE
  8
0
 10
89.0419
 20
93.9088
 11
88.9386
 21
93.9261
  0
LINE
  8
0
 10
88.9386
 20
93.9261
 11
88.835
 21
93.9416
  0
LINE
  8
0
 10
88.835
 20
93.9416
 11
88.7312
 21
93.9553
  0
LINE
  8
0
 10
88.7312
 20
93.9553
 11
88.6272
 21
93.9671
  0
LINE
  8
0
 10
88.6272
 20
93.9671
 11
88.5229
 21
93.9772
  0
LINE
  8
0
 10
88.5229
 20
93.9772
 11
88.4185
 21
93.9854
  0
LINE
  8
0
 10
88.4185
 20
93.9854
 11
88.314
 21
93.9918
  0
LINE
  8
0
 10
88.314
 20
93.9918
 11
88.2094
 21
93.9963
  0
LINE
  8
0
 10
88.2094
 20
93.9963
 11
88.1047
 21
93.9991
  0
LINE
  8
0
 10
88.1047
 20
93.9991
 11
88
 21
94
  0
LINE
  8
0
 10
88
 20
94
 11
6
 21
94
  0
LINE
  8
0
 10
6
 20
94
 11
5.89528
 21
93.9991
  0
LINE
  8
0
 10
5.89528
 20
93.9991
 11
5.79059
 21
93.9963
  0
LINE
  8
0
 10
5.79059
 20
93.9963
 11
5.68597
 21
93.9918
  0
LINE
  8
0
 10
5.68597
 20
93.9918
 11
5.58145
 21
93.9854
  0
LINE
  8
0
 10
5.58145
 20
93.9854
 11
5.47705
 21
93.9772
  0
LINE
  8
0
 10
5.47705
 20
93.9772
 11
5.37282
 21
93.9671
  0
LINE
  8
0
 10
5.37282
 20
93.9671
 11
5.26878
 21
93.9553
  0
LINE
  8
0
 10
5.26878
 20
93.9553
 11
5.16495
 21
93.9416
  0
LINE
  8
0
 10
5.16495
 20
93.9416
 11
5.06139
 21
93.9261
  0
LINE
  8
0
 10
5.06139
 20
93.9261
 11
4.9581
 21
93.9088
  0
LINE
  8
0
 10
4.9581
 20
93.9088
 11
4.85513
 21
93.8898
  0
LINE
  8
0
 10
4.85513
 20
93.8898
 11
4.75252
 21
93.8689
  0
LINE
  8
0
 10
4.75252
 20
93.8689
 11
4.65028
 21
93.8462
  0
LINE
  8
0
 10
4.65028
 20
93.8462
 11
4.54846
 21
93.8218
  0
LINE
  8
0
 10
4.54846
 20
93.8218
 11
4.44708
 21
93.7955
  0
LINE
  8
0
 10
4.44708
 20
93.7955
 11
4.34616
 21
93.7676
  0
LINE
  8
0
 10
4.34616
 20
93.7676
 11
4.24576
 21
93.7378
  0
LINE
  8
0
 10
4.24576
 20
93.7378
 11
4.14589
 21
93.7063
  0
LINE
  8
0
 10
4.14589
 20
93.7063
 11
4.04659
 21
93.6731
  0
LINE
  8
0
 10
4.04659
 20
93.6731
 11
3.94788
 21
93.6382
  0
LINE
  8
0
 10
3.94788
 20
93.6382
 11
3.84978
 21
93.6015
  0
LINE
  8
0
 10
3.84978
 20
93.6015
 11
3.75235
 21
93.5631
  0
LINE
  8
0
 10
3.75235
 20
93.5631
 11
3.65561
 21
93.523
  0
LINE
  8
0
 10
3.65561
 20
93.523
 11
3.55957
 21
93.4813
  0
LINE
  8
0
 10
3.55957
 20
93.4813
 11
3.46428
 21
93.4378
  0
LINE
  8
0
 10
3.46428
 20
93.4378
 11
3.36977
 21
93.3928
  0
LINE
  8
0
 10
3.36977
 20
93.3928
 11
3.27605
 21
93.346
  0
LINE
  8
0
 10
3.27605
 20
93.346
 11
3.18317
 21
93.2977
  0
LINE
  8
0
 10
3.18317
 20
93.2977
 11
3.09114
 21
93.2477
  0
LINE
  8
0
 10
3.09114
 20
93.2477
 11
3
 21
93.1962
  0
LINE
  8
0
 10
3
 20
93.1962
 11
2.90976
 21
93.143
  0
LINE
  8
0
 10
2.90976
 20
93.143
 11
2.82048
 21
93.0883
  0
LINE
  8
0
 10
2.82048
 20
93.0883
 11
2.73216
 21
93.032
  0
LINE
  8
0
 10
2.73216
 20
93.032
 11
2.64484
 21
92.9742
  0
LINE
  8
0
 10
2.64484
 20
92.9742
 11
2.55853
 21
92.9149
  0
LINE
  8
0
 10
2.55853
 20
92.9149
 11
2.47328
 21
92.8541
  0
LINE
  8
0
 10
2.47328
 20
92.8541
 11
2.3891
 21
92.7918
  0
LINE
  8
0
 10
2.3891
 20
92.7918
 11
2.30603
 21
92.7281
  0
LINE
  8
0
 10
2.30603
 20
92.7281
 11
2.22408
 21
92.6629
  0
LINE
  8
0
 10
2.22408
 20
92.6629
 11
2.14326
 21
92.5963
  0
LINE
  8
0
 10
2.14326
 20
92.5963
 11
2.06364
 21
92.5282
  0
LINE
  8
0
 10
2.06364
 20
92.5282
 11
1.98521
 21
92.4589
  0
LINE
  8
0
 10
1.98521
 20
92.4589
 11
1.908
 21
92.3881
  0
LINE
  8
0
 10
1.908
 20
92.3881
 11
1.83205
 21
92.316
  0
LINE
  8
0
 10
1.83205
 20
92.316
 11
1.75735
 21
92.2426
  0
LINE
  8
0
 10
1.75735
 20
92.2426
 11
1.68396
 21
92.1679
  0
LINE
  8
0
 10
1.68396
 20
92.1679
 11
1.61188
 21
92.092
  0
LINE
  8
0
 10
1.61188
 20
92.092
 11
1.54112
 21
92.0148
  0
LINE
  8
0
 10
1.54112
 20
92.0148
 11
1.47174
 21
91.9363
  0
LINE
  8
0
 10
1.47174
 20
91.9363
 11
1.40373
 21
91.8567
  0
LINE
  8
0
 10
1.40373
 20
91.8567
 11
1.33711
 21
91.7759
  0
LINE
  8
0
 10
1.33711
 20
91.7759
 11
1.27193
 21
91.694
  0
LINE
  8
0
 10
1.27193
 20
91.694
 11
1.20818
 21
91.6109
  0
LINE
  8
0
 10
1.20818
 20
91.6109
 11
1.14589
 21
91.5267
  0
LINE
  8
0
 10
1.14589
 20
91.5267
 11
1.08508
 21
91.4415
  0
LINE
  8
0
 10
1.08508
 20
91.4415
 11
1.02577
 21
91.3551
  0
LINE
  8
0
 10
1.02577
 20
91.3551
 11
0.967972
 21
91.2678
  0
LINE
  8
0
 10
0.967972
 20
91.2678
 11
0.911697
 21
91.1795
  0
LINE
  8
0
 10
0.911697
 20
91.1795
 11
0.856995
 21
91.0902
  0
LINE
  8
0
 10
0.856995
 20
91.0902
 11
0.803833
 21
91
  0
LINE
  8
0
 10
0.803833
 20
91
 11
0.752274
 21
90.9088
  0
LINE
  8
0
 10
0.752274
 20
90.9088
 11
0.702301
 21
90.8168
  0
LINE
  8
0
 10
0.702301
 20
90.8168
 11
0.653946
 21
90.7239
  0
LINE
  8
0
 10
0.653946
 20
90.7239
 11
0.607224
 21
90.6302
  0
LINE
  8
0
 10
0.607224
 20
90.6302
 11
0.562149
 21
90.5357
  0
LINE
  8
0
 10
0.562149
 20
90.5357
 11
0.518723
 21
90.4404
  0
LINE
  8
0
 10
0.518723
 20
90.4404
 11
0.476959
 21
90.3444
  0
LINE
  8
0
 10
0.476959
 20
90.3444
 11
0.43689
 21
90.2476
  0
LINE
  8
0
 10
0.43689
 20
90.2476
 11
0.398514
 21
90.1502
  0
LINE
  8
0
 10
0.398514
 20
90.1502
 11
0.361832
 21
90.0521
  0
LINE
  8
0
 10
0.361832
 20
90.0521
 11
0.326874
 21
89.9534
  0
LINE
  8
0
 10
0.326874
 20
89.9534
 11
0.293655
 21
89.8541
  0
LINE
  8
0
 10
0.293655
 20
89.8541
 11
0.262161
 21
89.7542
  0
LINE
  8
0
 10
0.262161
 20
89.7542
 11
0.232422
 21
89.6538
  0
LINE
  8
0
 10
0.232422
 20
89.6538
 11
0.204437
 21
89.5529
  0
LINE
  8
0
 10
0.204437
 20
89.5529
 11
0.178223
 21
89.4515
  0
LINE
  8
0
 10
0.178223
 20
89.4515
 11
0.153778
 21
89.3497
  0
LINE
  8
0
 10
0.153778
 20
89.3497
 11
0.131104
 21
89.2475
  0
LINE
  8
0
 10
0.131104
 20
89.2475
 11
0.110229
 21
89.1449
  0
LINE
  8
0
 10
0.110229
 20
89.1449
 11
0.0911407
 21
89.0419
  0
LINE
  8
0
 10
0.0911407
 20
89.0419
 11
0.0738678
 21
88.9386
  0
LINE
  8
0
 10
0.0738678
 20
88.9386
 11
0.0583801
 21
88.835
  0
LINE
  8
0
 10
0.0583801
 20
88.835
 11
0.0447083
 21
88.7312
  0
LINE
  8
0
 10
0.0447083
 20
88.7312
 11
0.0328674
 21
88.6272
  0
LINE
  8
0
 10
0.0328674
 20
88.6272
 11
0.0228271
 21
88.5229
  0
LINE
  8
0
 10
0.0228271
 20
88.5229
 11
0.0146027
 21
88.4185
  0
LINE
  8
0
 10
0.0146027
 20
88.4185
 11
0.00820923
 21
88.314
  0
LINE
  8
0
 10
0.00820923
 20
88.314
 11
0.00364685
 21
88.2094
  0
LINE
  8
0
 10
0.00364685
 20
88.2094
 11
0.000900269
 21
88.1047
  0
LINE
  8
0
 10
0.000900269
 20
88.1047
 11
0
 21
88
  0
LINE
  8
0
 10
0
 20
88
 11
0
 21
6
  0
LINE
  8
0
 10
0
 20
6
 11
0.000900269
 21
5.89528
  0
LINE
  8
0
 10
0.000900269
 20
5.89528
 11
0.00364685
 21
5.79059
  0
LINE
  8
0
 10
0.00364685
 20
5.79059
 11
0.00820923
 21
5.68597
  0
LINE
  8
0
 10
0.00820923
 20
5.68597
 11
0.0146027
 21
5.58145
  0
LINE
  8
0
 10
0.0146027
 20
5.58145
 11
0.0228271
 21
5.47705
  0
LINE
  8
0
 10
0.0228271
 20
5.47705
 11
0.0328674
 21
5.37282
  0
LINE
  8
0
 10
0.0328674
 20
5.37282
 11
0.0447083
 21
5.26878
  0
LINE
  8
0
 10
0.0447083
 20
5.26878
 11
0.0583801
 21
5.16495
  0
LINE
  8
0
 10
0.0583801
 20
5.16495
 11
0.0738678
 21
5.06139
  0
LINE
  8
0
 10
0.0738678
 20
5.06139
 11
0.0911407
 21
4.9581
  0
LINE
  8
0
 10
0.0911407
 20
4.9581
 11
0.110229
 21
4.85513
  0
LINE
  8
0
 10
0.110229
 20
4.85513
 11
0.131104
 21
4.75252
  0
LINE
  8
0
 10
0.131104
 20
4.75252
 11
0.153778
 21
4.65028
  0
LINE
  8
0
 10
0.153778
 20
4.65028
 11
0.178223
 21
4.54846
  0
LINE
  8
0
 10
0.178223
 20
4.54846
 11
0.204437
 21
4.44708
  0
LINE
  8
0
 10
0.204437
 20
4.44708
 11
0.232422
 21
4.34616
  0
LINE
  8
0
 10
0.232422
 20
4.34616
 11
0.262161
 21
4.24576
  0
LINE
  8
0
 10
0.262161
 20
4.24576
 11
0.293655
 21
4.14589
  0
LINE
  8
0
 10
0.293655
 20
4.14589
 11
0.326874
 21
4.04659
  0
LINE
  8
0
 10
0.326874
 20
4.04659
 11
0.361832
 21
3.94788
  0
LINE
  8
0
 10
0.361832
 20
3.94788
 11
0.398514
 21
3.84978
  0
LINE
  8
0
 10
0.398514
 20
3.84978
 11
0.43689
 21
3.75235
  0
LINE
  8
0
 10
0.43689
 20
3.75235
 11
0.476959
 21
3.65561
  0
LINE
  8
0
 10
0.476959
 20
3.65561
 11
0.518723
 21
3.55957
  0
LINE
  8
0
 10
0.518723
 20
3.55957
 11
0.562149
 21
3.46428
  0
LINE
  8
0
 10
0.562149
 20
3.46428
 11
0.607224
 21
3.36977
  0
LINE
  8
0
 10
0.607224
 20
3.36977
 11
0.653946
 21
3.27605
  0
LINE
  8
0
 10
0.653946
 20
3.27605
 11
0.702301
 21
3.18317
  0
LINE
  8
0
 10
0.702301
 20
3.18317
 11
0.752274
 21
3.09114
  0
LINE
  8
0
 10
0.752274
 20
3.09114
 11
0.803833
 21
3
  0
LINE
  8
0
 10
0.803833
 20
3
 11
0.856995
 21
2.90976
  0
LINE
  8
0
 10
0.856995
 20
2.90976
 11
0.911697
 21
2.82048
  0
LINE
  8
0
 10
0.911697
 20
2.82048
 11
0.967972
 21
2.73216
  0
LINE
  8
0
 10
0.967972
 20
2.73216
 11
1.02577
 21
2.64484
  0
LINE
  8
0
 10
1.02577
 20
2.64484
 11
1.08508
 21
2.55853
  0
LINE
  8
0
 10
1.08508
 20
2.55853
 11
1.14589
 21
2.47328
  0
LINE
  8
0
 10
1.14589
 20
2.47328
 11
1.20818
 21
2.3891
  0
LINE
  8
0
 10
1.20818
 20
2.3891
 11
1.27193
 21
2.30603
  0
LINE
  8
0
 10
1.27193
 20
2.30603
 11
1.33711
 21
2.22408
  0
LINE
  8
0
 10
1.33711
 20
2.22408
 11
1.40373
 21
2.14326
  0
LINE
  8
0
 10
1.40373
 20
2.14326
 11
1.47174
 21
2.06364
  0
LINE
  8
0
 10
1.47174
 20
2.06364
 11
1.54112
 21
1.98521
  0
LINE
  8
0
 10
1.54112
 20
1.98521
 11
1.61188
 21
1.908
  0
LINE
  8
0
 10
1.61188
 20
1.908
 11
1.68396
 21
1.83205
  0
LINE
  8
0
 10
1.68396
 20
1.83205
 11
1.75735
 21
1.75735
  0
LINE
  8
0
 10
1.75735
 20
1.75735
 11
1.83205
 21
1.68396
  0
LINE
  8
0
 10
1.83205
 20
1.68396
 11
1.908
 21
1.61188
  0
LINE
  8
0
 10
1.908
 20
1.61188
 11
1.98521
 21
1.54112
  0
LINE
  8
0
 10
1.98521
 20
1.54112
 11
2.06364
 21
1.47174
  0
LINE
  8
0
 10
2.06364
 20
1.47174
 11
2.14326
 21
1.40373
  0
LINE
  8
0
 10
2.14326
 20
1.40373
 11
2.22408
 21
1.33711
  0
LINE
  8
0
 10
2.22408
 20
1.33711
 11
2.30603
 21
1.27193
  0
LINE
  8
0
 10
2.30603
 20
1.27193
 11
2.3891
 21
1.20818
  0
LINE
  8
0
 10
2.3891
 20
1.20818
 11
2.47328
 21
1.14589
  0
LINE
  8
0
 10
2.47328
 20
1.14589
 11
2.55853
 21
1.08508
  0
LINE
  8
0
 10
2.55853
 20
1.08508
 11
2.64484
 21
1.02577
  0
LINE
  8
0
 10
2.64484
 20
1.02577
 11
2.73216
 21
0.967972
  0
LINE
  8
0
 10
2.73216
 20
0.967972
 11
2.82048
 21
0.911697
  0
LINE
  8
0
 10
2.82048
 20
0.911697
 11
2.90976
 21
0.856995
  0
LINE
  8
0
 10
2.90976
 20
0.856995
 11
3
 21
0.803833
  0
LINE
  8
0
 10
3
 20
0.803833
 11
3.09114
 21
0.752274
  0
LINE
  8
0
 10
3.09114
 20
0.752274
 11
3.18317
 21
0.702301
  0
LINE
  8
0
 10
3.18317
 20
0.702301
 11
3.27605
 21
0.653946
  0
LINE
  8
0
 10
3.27605
 20
0.653946
 11
3.36977
 21
0.607224
  0
LINE
  8
0
 10
3.36977
 20
0.607224
 11
3.46428
 21
0.562149
  0
LINE
  8
0
 10
3.46428
 20
0.562149
 11
3.55957
 21
0.518723
  0
LINE
  8
0
 10
3.55957
 20
0.518723
 11
3.65561
 21
0.476959
  0
LINE
  8
0
 10
3.65561
 20
0.476959
 11
3.75235
 21
0.43689
  0
LINE
  8
0
 10
3.75235
 20
0.43689
 11
3.84978
 21
0.398514
  0
LINE
  8
0
 10
3.84978
 20
0.398514
 11
3.94788
 21
0.361832
  0
LINE
  8
0
 10
3.94788
 20
0.361832
 11
4.04659
 21
0.326874
  0
LINE
  8
0
 10
4.04659
 20
0.326874
 11
4.14589
 21
0.293655
  0
LINE
  8
0
 10
4.14589
 20
0.293655
 11
4.24576
 21
0.262161
  0
LINE
  8
0
 10
4.24576
 20
0.262161
 11
4.34616
 21
0.232422
  0
LINE
  8
0
 10
4.34616
 20
0.232422
 11
4.44708
 21
0.204437
  0
LINE
  8
0
 10
4.44708
 20
0.204437
 11
4.54846
 21
0.178223
  0
LINE
  8
0
 10
4.54846
 20
0.178223
 11
4.65028
 21
0.153778
  0
LINE
  8
0
 10
4.65028
 20
0.153778
 11
4.75252
 21
0.131104
  0
LINE
  8
0
 10
4.75252
 20
0.131104
 11
4.85513
 21
0.110229
  0
LINE
  8
0
 10
4.85513
 20
0.110229
 11
4.9581
 21
0.0911407
  0
LINE
  8
0
 10
4.9581
 20
0.0911407
 11
5.06139
 21
0.0738678
  0
LINE
  8
0
 10
5.06139
 20
0.0738678
 11
5.16495
 21
0.0583801
  0
LINE
  8
0
 10
5.16495
 20
0.0583801
 11
5.26878
 21
0.0447083
  0
LINE
  8
0
 10
5.26878
 20
0.0447083
 11
5.37282
 21
0.0328674
  0
LINE
  8
0
 10
5.37282
 20
0.0328674
 11
5.47705
 21
0.0228271
  0
LINE
  8
0
 10
5.47705
 20
0.0228271
 11
5.58145
 21
0.0146027
  0
LINE
  8
0
 10
5.58145
 20
0.0146027
 11
5.68597
 21
0.00820923
  0
LINE
  8
0
 10
5.68597
 20
0.00820923
 11
5.79059
 21
0.00364685
  0
LINE
  8
0
 10
5.79059
 20
0.00364685
 11
5.89528
 21
0.000900269
  0
LINE
  8
0
 10
5.89528
 20
0.000900269
 11
6
 21
0
  0
LINE
  8
0
 10
6
 20
0
 11
88
 21
0
  0
LINE
  8
0
 10
88
 20
0
 11
88.1047
 21
0.000900269
  0
LINE
  8
0
 10
13.4782
 20
79.2502
 11
13.4564
 21
79.2507
  0
LINE
  8
0
 10
13.4564
 20
79.2507
 11
13.4346
 21
79.2517
  0
LINE
  8
0
 10
13.4346
 20
79.2517
 11
13.4128
 21
79.253
  0
LINE
  8
0
 10
13.4128
 20
79.253
 11
13.3911
 21
79.2547
  0
LINE
  8
0
 10
13.3911
 20
79.2547
 11
13.3693
 21
79.2568
  0
LINE
  8
0
 10
13.3693
 20
79.2568
 11
13.3477
 21
79.2593
  0
LINE
  8
0
 10
13.3477
 20
79.2593
 11
13.326
 21
79.2622
  0
LINE
  8
0
 10
13.326
 20
79.2622
 11
13.3044
 21
79.2654
  0
LINE
  8
0
 10
13.3044
 20
79.2654
 11
13.2829
 21
79.269
  0
LINE
  8
0
 10
13.2829
 20
79.269
 11
13.2615
 21
79.273
  0
LINE
  8
0
 10
13.2615
 20
79.273
 11
13.2401
 21
79.2773
  0
LINE
  8
0
 10
13.2401
 20
79.2773
 11
13.2188
 21
79.282
  0
LINE
  8
0
 10
13.2188
 20
79.282
 11
13.1976
 21
79.2871
  0
LINE
  8
0
 10
13.1976
 20
79.2871
 11
13.1765
 21
79.2926
  0
LINE
  8
0
 10
13.1765
 20
79.2926
 11
13.1554
 21
79.2984
  0
LINE
  8
0
 10
13.1554
 20
79.2984
 11
13.1345
 21
79.3046
  0
LINE
  8
0
 10
13.1345
 20
79.3046
 11
13.1137
 21
79.3112
  0
LINE
  8
0
 10
13.1137
 20
79.3112
 11
13.093
 21
79.3181
  0
LINE
  8
0
 10
13.093
 20
79.3181
 11
13.0725
 21
79.3254
  0
LINE
  8
0
 10
13.0725
 20
79.3254
 11
13.052
 21
79.333
  0
LINE
  8
0
 10
13.052
 20
79.333
 11
13.0317
 21
79.341
  0
LINE
  8
0
 10
13.0317
 20
79.341
 11
13.0116
 21
79.3494
  0
LINE
  8
0
 10
13.0116
 20
79.3494
 11
12.9916
 21
79.3581
  0
LINE
  8
0
 10
12.9916
 20
79.3581
 11
12.9717
 21
79.3671
  0
LINE
  8
0
 10
12.9717
 20
79.3671
 11
12.952
 21
79.3765
  0
LINE
  8
0
 10
12.952
 20
79.3765
 11
12.9325
 21
79.3862
  0
LINE
  8
0
 10
12.9325
 20
79.3862
 11
12.9131
 21
79.3963
  0
LINE
  8
0
 10
12.9131
 20
79.3963
 11
12.894
 21
79.4067
  0
LINE
  8
0
 10
12.894
 20
79.4067
 11
12.875
 21
79.4175
  0
LINE
  8
0
 10
12.875
 20
79.4175
 11
12.8562
 21
79.4285
  0
LINE
  8
0
 10
12.8562
 20
79.4285
 11
12.8376
 21
79.4399
  0
LINE
  8
0
 10
12.8376
 20
79.4399
 11
12.8192
 21
79.4517
  0
LINE
  8
0
 10
12.8192
 20
79.4517
 11
12.801
 21
79.4637
  0
LINE
  8
0
 10
12.801
 20
79.4637
 11
12.783
 21
79.4761
  0
LINE
  8
0
 10
12.783
 20
79.4761
 11
12.7653
 21
79.4887
  0
LINE
  8
0
 10
12.7653
 20
79.4887
 11
12.7477
 21
79.5017
  0
LINE
  8
0
 10
12.7477
 20
79.5017
 11
12.7304
 21
79.515
  0
LINE
  8
0
 10
12.7304
 20
79.515
 11
12.7133
 21
79.5286
  0
LINE
  8
0
 10
12.7133
 20
79.5286
 11
12.6965
 21
79.5424
  0
LINE
  8
0
 10
12.6965
 20
79.5424
 11
12.6799
 21
79.5566
  0
LINE
  8
0
 10
12.6799
 20
79.5566
 11
12.6636
 21
79.5711
  0
LINE
  8
0
 10
12.6636
 20
79.5711
 11
12.6475
 21
79.5858
  0
LINE
  8
0
 10
12.6475
 20
79.5858
 11
12.6317
 21
79.6008
  0
LINE
  8
0
 10
12.6317
 20
79.6008
 11
12.6161
 21
79.6161
  0
LINE
  8
0
 10
12.6161
 20
79.6161
 11
12.6008
 21
79.6317
  0
LINE
  8
0
 10
12.6008
 20
79.6317
 11
12.5858
 21
79.6475
  0
LINE
  8
0
 10
12.5858
 20
79.6475
 11
12.5711
 21
79.6636
  0
LINE
  8
0
 10
12.5711
 20
79.6636
 11
12.5566
 21
79.6799
  0
LINE
  8
0
 10
12.5566
 20
79.6799
 11
12.5424
 21
79.6965
  0
LINE
  8
0
 10
12.5424
 20
79.6965
 11
12.5286
 21
79.7133
  0
LINE
  8
0
 10
12.5286
 20
79.7133
 11
12.515
 21
79.7304
  0
LINE
  8
0
 10
12.515
 20
79.7304
 11
12.5017
 21
79.7477
  0
LINE
  8
0
 10
12.5017
 20
79.7477
 11
12.4887
 21
79.7653
  0
LINE
  8
0
 10
12.4887
 20
79.7653
 11
12.4761
 21
79.783
  0
LINE
  8
0
 10
12.4761
 20
79.783
 11
12.4637
 21
79.801
  0
LINE
  8
0
 10
12.4637
 20
79.801
 11
12.4517
 21
79.8192
  0
LINE
  8
0
 10
12.4517
 20
79.8192
 11
12.4399
 21
79.8376
  0
LINE
  8
0
 10
12.4399
 20
79.8376
 11
12.4285
 21
79.8562
  0
LINE
  8
0
 10
12.4285
 20
79.8562
 11
12.4175
 21
79.875
  0
LINE
  8
0
 10
12.4175
 20
79.875
 11
12.4067
 21
79.894
  0
LINE
  8
0
 10
12.4067
 20
79.894
 11
12.3963
 21
79.9131
  0
LINE
  8
0
 10
12.3963
 20
79.9131
 11
12.3862
 21
79.9325
  0
LINE
  8
0
 10
12.3862
 20
79.9325
 11
12.3765
 21
79.952
  0
LINE
  8
0
 10
12.3765
 20
79.952
 11
12.3671
 21
79.9717
  0
LINE
  8
0
 10
12.3671
 20
79.9717
 11
12.3581
 21
79.9916
  0
LINE
  8
0
 10
12.3581
 20
79.9916
 11
12.3494
 21
80.0116
  0
LINE
  8
0
 10
12.3494
 20
80.0116
 11
12.341
 21
80.0317
  0
LINE
  8
0
 10
12.341
 20
80.0317
 11
12.333
 21
80.052
  0
LINE
  8
0
 10
12.333
 20
80.052
 11
12.3254
 21
80.0725
  0
LINE
  8
0
 10
12.3254
 20
80.0725
 11
12.3181
 21
80.093
  0
LINE
  8
0
 10
12.3181
 20
80.093
 11
12.3112
 21
80.1137
  0
LINE
  8
0
 10
12.3112
 20
80.1137
 11
12.3046
 21
80.1345
  0
LINE
  8
0
 10
12.3046
 20
80.1345
 11
12.2984
 21
80.1554
  0
LINE
  8
0
 10
12.2984
 20
80.1554
 11
12.2926
 21
80.1765
  0
LINE
  8
0
 10
12.2926
 20
80.1765
 11
12.2871
 21
80.1976
  0
LINE
  8
0
 10
12.2871
 20
80.1976
 11
12.282
 21
80.2188
  0
LINE
  8
0
 10
12.282
 20
80.2188
 11
12.2773
 21
80.2401
  0
LINE
  8
0
 10
12.2773
 20
80.2401
 11
12.273
 21
80.2615
  0
LINE
  8
0
 10
12.273
 20
80.2615
 11
12.269
 21
80.2829
  0
LINE
  8
0
 10
12.269
 20
80.2829
 11
12.2654
 21
80.3044
  0
LINE
  8
0
 10
12.2654
 20
80.3044
 11
12.2622
 21
80.326
  0
LINE
  8
0
 10
12.2622
 20
80.326
 11
12.2593
 21
80.3477
  0
LINE
  8
0
 10
12.2593
 20
80.3477
 11
12.2568
 21
80.3693
  0
LINE
  8
0
 10
12.2568
 20
80.3693
 11
12.2547
 21
80.3911
  0
LINE
  8
0
 10
12.2547
 20
80.3911
 11
12.253
 21
80.4128
  0
LINE
  8
0
 10
12.253
 20
80.4128
 11
12.2517
 21
80.4346
  0
LINE
  8
0
 10
12.2517
 20
80.4346
 11
12.2507
 21
80.4564
  0
LINE
  8
0
 10
12.2507
 20
80.4564
 11
12.2502
 21
80.4782
  0
LINE
  8
0
 10
12.2502
 20
80.4782
 11
12.25
 21
80.5
  0
LINE
  8
0
 10
12.25
 20
80.5
 11
12.2502
 21
80.5218
  0
LINE
  8
0
 10
12.2502
 20
80.5218
 11
12.2507
 21
80.5436
  0
LINE
  8
0
 10
12.2507
 20
80.5436
 11
12.2517
 21
80.5654
  0
LINE
  8
0
 10
12.2517
 20
80.5654
 11
12.253
 21
80.5872
  0
LINE
  8
0
 10
12.253
 20
80.5872
 11
12.2547
 21
80.6089
  0
LINE
  8
0
 10
12.2547
 20
80.6089
 11
12.2568
 21
80.6306
  0
LINE
  8
0
 10
12.2568
 20
80.6306
 11
12.2593
 21
80.6523
  0
LINE
  8
0
 10
12.2593
 20
80.6523
 11
12.2622
 21
80.674
  0
LINE
  8
0
 10
12.2622
 20
80.674
 11
12.2654
 21
80.6955
  0
LINE
  8
0
 10
12.2654
 20
80.6955
 11
12.269
 21
80.7171
  0
LINE
  8
0
 10
12.269
 20
80.7171
 11
12.273
 21
80.7385
  0
LINE
  8
0
 10
12.273
 20
80.7385
 11
12.2773
 21
80.7599
  0
LINE
  8
0
 10
12.2773
 20
80.7599
 11
12.282
 21
80.7812
  0
LINE
  8
0
 10
12.282
 20
80.7812
 11
12.2871
 21
80.8024
  0
LINE
  8
0
 10
12.2871
 20
80.8024
 11
12.2926
 21
80.8235
  0
LINE
  8
0
 10
12.2926
 20
80.8235
 11
12.2984
 21
80.8445
  0
LINE
  8
0
 10
12.2984
 20
80.8445
 11
12.3046
 21
80.8655
  0
LINE
  8
0
 10
12.3046
 20
80.8655
 11
12.3112
 21
80.8863
  0
LINE
  8
0
 10
12.3112
 20
80.8863
 11
12.3181
 21
80.907
  0
LINE
  8
0
 10
12.3181
 20
80.907
 11
12.3254
 21
80.9275
  0
LINE
  8
0
 10
12.3254
 20
80.9275
 11
12.333
 21
80.948
  0
LINE
  8
0
 10
12.333
 20
80.948
 11
12.341
 21
80.9682
  0
LINE
  8
0
 10
12.341
 20
80.9682
 11
12.3494
 21
80.9884
  0
LINE
  8
0
 10
12.3494
 20
80.9884
 11
12.3581
 21
81.0084
  0
LINE
  8
0
 10
12.3581
 20
81.0084
 11
12.3671
 21
81.0283
  0
LINE
  8
0
 10
12.3671
 20
81.0283
 11
12.3765
 21
81.048
  0
LINE
  8
0
 10
12.3765
 20
81.048
 11
12.3862
 21
81.0675
  0
LINE
  8
0
 10
12.3862
 20
81.0675
 11
12.3963
 21
81.0868
  0
LINE
  8
0
 10
12.3963
 20
81.0868
 11
12.4067
 21
81.106
  0
LINE
  8
0
 10
12.4067
 20
81.106
 11
12.4175
 21
81.125
  0
LINE
  8
0
 10
12.4175
 20
81.125
 11
12.4285
 21
81.1438
  0
LINE
  8
0
 10
12.4285
 20
81.1438
 11
12.4399
 21
81.1624
  0
LINE
  8
0
 10
12.4399
 20
81.1624
 11
12.4517
 21
81.1808
  0
LINE
  8
0
 10
12.4517
 20
81.1808
 11
12.4637
 21
81.199
  0
LINE
  8
0
 10
12.4637
 20
81.199
 11
12.4761
 21
81.217
  0
LINE
  8
0
 10
12.4761
 20
81.217
 11
12.4887
 21
81.2347
  0
LINE
  8
0
 10
12.4887
 20
81.2347
 11
12.5017
 21
81.2523
  0
LINE
  8
0
 10
12.5017
 20
81.2523
 11
12.515
 21
81.2696
  0
LINE
  8
0
 10
12.515
 20
81.2696
 11
12.5286
 21
81.2866
  0
LINE
  8
0
 10
12.5286
 20
81.2866
 11
12.5424
 21
81.3035
  0
LINE
  8
0
 10
12.5424
 20
81.3035
 11
12.5566
 21
81.3201
  0
LINE
  8
0
 10
12.5566
 20
81.3201
 11
12.5711
 21
81.3364
  0
LINE
  8
0
 10
12.5711
 20
81.3364
 11
12.5858
 21
81.3525
  0
LINE
  8
0
 10
12.5858
 20
81.3525
 11
12.6008
 21
81.3683
  0
LINE
  8
0
 10
12.6008
 20
81.3683
 11
12.6161
 21
81.3839
  0
LINE
  8
0
 10
12.6161
 20
81.3839
 11
12.6317
 21
81.3992
  0
LINE
  8
0
 10
12.6317
 20
81.3992
 11
12.6475
 21
81.4142
  0
LINE
  8
0
 10
12.6475
 20
81.4142
 11
12.6636
 21
81.4289
  0
LINE
  8
0
 10
12.6636
 20
81.4289
 11
12.6799
 21
81.4434
  0
LINE
  8
0
 10
12.6799
 20
81.4434
 11
12.6965
 21
81.4576
  0
LINE
  8
0
 10
12.6965
 20
81.4576
 11
12.7133
 21
81.4714
  0
LINE
  8
0
 10
12.7133
 20
81.4714
 11
12.7304
 21
81.485
  0
LINE
  8
0
 10
12.7304
 20
81.485
 11
12.7477
 21
81.4983
  0
LINE
  8
0
 10
12.7477
 20
81.4983
 11
12.7653
 21
81.5113
  0
LINE
  8
0
 10
12.7653
 20
81.5113
 11
12.783
 21
81.5239
  0
LINE
  8
0
 10
12.783
 20
81.5239
 11
12.801
 21
81.5363
  0
LINE
  8
0
 10
12.801
 20
81.5363
 11
12.8192
 21
81.5483
  0
LINE
  8
0
 10
12.8192
 20
81.5483
 11
12.8376
 21
81.5601
  0
LINE
  8
0
 10
12.8376
 20
81.5601
 11
12.8562
 21
81.5715
  0
LINE
  8
0
 10
12.8562
 20
81.5715
 11
12.875
 21
81.5825
  0
LINE
  8
0
 10
12.875
 20
81.5825
 11
12.894
 21
81.5933
  0
LINE
  8
0
 10
12.894
 20
81.5933
 11
12.9131
 21
81.6037
  0
LINE
  8
0
 10
12.9131
 20
81.6037
 11
12.9325
 21
81.6138
  0
LINE
  8
0
 10
12.9325
 20
81.6138
 11
12.952
 21
81.6235
  0
LINE
  8
0
 10
12.952
 20
81.6235
 11
12.9717
 21
81.6329
  0
LINE
  8
0
 10
12.9717
 20
81.6329
 11
12.9916
 21
81.6419
  0
LINE
  8
0
 10
12.9916
 20
81.6419
 11
13.0116
 21
81.6506
  0
LINE
  8
0
 10
13.0116
 20
81.6506
 11
13.0317
 21
81.659
  0
LINE
  8
0
 10
13.0317
 20
81.659
 11
13.052
 21
81.667
  0
LINE
  8
0
 10
13.052
 20
81.667
 11
13.0725
 21
81.6746
  0
LINE
  8
0
 10
13.0725
 20
81.6746
 11
13.093
 21
81.6819
  0
LINE
  8
0
 10
13.093
 20
81.6819
 11
13.1137
 21
81.6888
  0
LINE
  8
0
 10
13.1137
 20
81.6888
 11
13.1345
 21
81.6954
  0
LINE
  8
0
 10
13.1345
 20
81.6954
 11
13.1554
 21
81.7016
  0
LINE
  8
0
 10
13.1554
 20
81.7016
 11
13.1765
 21
81.7074
  0
LINE
  8
0
 10
13.1765
 20
81.7074
 11
13.1976
 21
81.7129
  0
LINE
  8
0
 10
13.1976
 20
81.7129
 11
13.2188
 21
81.718
  0
LINE
  8
0
 10
13.2188
 20
81.718
 11
13.2401
 21
81.7227
  0
LINE
  8
0
 10
13.2401
 20
81.7227
 11
13.2615
 21
81.727
  0
LINE
  8
0
 10
13.2615
 20
81.727
 11
13.2829
 21
81.731
  0
LINE
  8
0
 10
13.2829
 20
81.731
 11
13.3044
 21
81.7346
  0
LINE
  8
0
 10
13.3044
 20
81.7346
 11
13.326
 21
81.7378
  0
LINE
  8
0
 10
13.326
 20
81.7378
 11
13.3477
 21
81.7407
  0
LINE
  8
0
 10
13.3477
 20
81.7407
 11
13.3693
 21
81.7431
  0
LINE
  8
0
 10
13.3693
 20
81.7431
 11
13.3911
 21
81.7452
  0
LINE
  8
0
 10
13.3911
 20
81.7452
 11
13.4128
 21
81.7469
  0
LINE
  8
0
 10
13.4128
 20
81.7469
 11
13.4346
 21
81.7483
  0
LINE
  8
0
 10
13.4346
 20
81.7483
 11
13.4564
 21
81.7492
  0
LINE
  8
0
 10
13.4564
 20
81.7492
 11
13.4782
 21
81.7498
  0
LINE
  8
0
 10
13.4782
 20
81.7498
 11
13.5
 21
81.75
  0
LINE
  8
0
 10
13.5
 20
81.75
 11
13.5218
 21
81.7498
  0
LINE
  8
0
 10
13.5218
 20
81.7498
 11
13.5436
 21
81.7492
  0
LINE
  8
0
 10
13.5436
 20
81.7492
 11
13.5654
 21
81.7483
  0
LINE
  8
0
 10
13.5654
 20
81.7483
 11
13.5872
 21
81.7469
  0
LINE
  8
0
 10
13.5872
 20
81.7469
 11
13.6089
 21
81.7452
  0
LINE
  8
0
 10
13.6089
 20
81.7452
 11
13.6306
 21
81.7431
  0
LINE
  8
0
 10
13.6306
 20
81.7431
 11
13.6523
 21
81.7407
  0
LINE
  8
0
 10
13.6523
 20
81.7407
 11
13.674
 21
81.7378
  0
LINE
  8
0
 10
13.674
 20
81.7378
 11
13.6955
 21
81.7346
  0
LINE
  8
0
 10
13.6955
 20
81.7346
 11
13.7171
 21
81.731
  0
LINE
  8
0
 10
13.7171
 20
81.731
 11
13.7385
 21
81.727
  0
LINE
  8
0
 10
13.7385
 20
81.727
 11
13.7599
 21
81.7227
  0
LINE
  8
0
 10
13.7599
 20
81.7227
 11
13.7812
 21
81.718
  0
LINE
  8
0
 10
13.7812
 20
81.718
 11
13.8024
 21
81.7129
  0
LINE
  8
0
 10
13.8024
 20
81.7129
 11
13.8235
 21
81.7074
  0
LINE
  8
0
 10
13.8235
 20
81.7074
 11
13.8445
 21
81.7016
  0
LINE
  8
0
 10
13.8445
 20
81.7016
 11
13.8655
 21
81.6954
  0
LINE
  8
0
 10
13.8655
 20
81.6954
 11
13.8863
 21
81.6888
  0
LINE
  8
0
 10
13.8863
 20
81.6888
 11
13.907
 21
81.6819
  0
LINE
  8
0
 10
13.907
 20
81.6819
 11
13.9275
 21
81.6746
  0
LINE
  8
0
 10
13.9275
 20
81.6746
 11
13.948
 21
81.667
  0
LINE
  8
0
 10
13.948
 20
81.667
 11
13.9682
 21
81.659
  0
LINE
  8
0
 10
13.9682
 20
81.659
 11
13.9884
 21
81.6506
  0
LINE
  8
0
 10
13.9884
 20
81.6506
 11
14.0084
 21
81.6419
  0
LINE
  8
0
 10
14.0084
 20
81.6419
 11
14.0283
 21
81.6329
  0
LINE
  8
0
 10
14.0283
 20
81.6329
 11
14.048
 21
81.6235
  0
LINE
  8
0
 10
14.048
 20
81.6235
 11
14.0675
 21
81.6138
  0
LINE
  8
0
 10
14.0675
 20
81.6138
 11
14.0868
 21
81.6037
  0
LINE
  8
0
 10
14.0868
 20
81.6037
 11
14.106
 21
81.5933
  0
LINE
  8
0
 10
14.106
 20
81.5933
 11
14.125
 21
81.5825
  0
LINE
  8
0
 10
14.125
 20
81.5825
 11
14.1438
 21
81.5715
  0
LINE
  8
0
 10
14.1438
 20
81.5715
 11
14.1624
 21
81.5601
  0
LINE
  8
0
 10
14.1624
 20
81.5601
 11
14.1808
 21
81.5483
  0
LINE
  8
0
 10
14.1808
 20
81.5483
 11
14.199
 21
81.5363
  0
LINE
  8
0
 10
14.199
 20
81.5363
 11
14.217
 21
81.5239
  0
LINE
  8
0
 10
14.217
 20
81.5239
 11
14.2347
 21
81.5113
  0
LINE
  8
0
 10
14.2347
 20
81.5113
 11
14.2523
 21
81.4983
  0
LINE
  8
0
 10
14.2523
 20
81.4983
 11
14.2696
 21
81.485
  0
LINE
  8
0
 10
14.2696
 20
81.485
 11
14.2866
 21
81.4714
  0
LINE
  8
0
 10
14.2866
 20
81.4714
 11
14.3035
 21
81.4576
  0
LINE
  8
0
 10
14.3035
 20
81.4576
 11
14.3201
 21
81.4434
  0
LINE
  8
0
 10
14.3201
 20
81.4434
 11
14.3364
 21
81.4289
  0
LINE
  8
0
 10
14.3364
 20
81.4289
 11
14.3525
 21
81.4142
  0
LINE
  8
0
 10
14.3525
 20
81.4142
 11
14.3683
 21
81.3992
  0
LINE
  8
0
 10
14.3683
 20
81.3992
 11
14.3839
 21
81.3839
  0
LINE
  8
0
 10
14.3839
 20
81.3839
 11
14.3992
 21
81.3683
  0
LINE
  8
0
 10
14.3992
 20
81.3683
 11
14.4142
 21
81.3525
  0
LINE
  8
0
 10
14.4142
 20
81.3525
 11
14.4289
 21
81.3364
  0
LINE
  8
0
 10
14.4289
 20
81.3364
 11
14.4434
 21
81.3201
  0
LINE
  8
0
 10
14.4434
 20
81.3201
 11
14.4576
 21
81.3035
  0
LINE
  8
0
 10
14.4576
 20
81.3035
 11
14.4714
 21
81.2866
  0
LINE
  8
0
 10
14.4714
 20
81.2866
 11
14.485
 21
81.2696
  0
LINE
  8
0
 10
14.485
 20
81.2696
 11
14.4983
 21
81.2523
  0
LINE
  8
0
 10
14.4983
 20
81.2523
 11
14.5113
 21
81.2347
  0
LINE
  8
0
 10
14.5113
 20
81.2347
 11
14.5239
 21
81.217
  0
LINE
  8
0
 10
14.5239
 20
81.217
 11
14.5363
 21
81.199
  0
LINE
  8
0
 10
14.5363
 20
81.199
 11
14.5483
 21
81.1808
  0
LINE
  8
0
 10
14.5483
 20
81.1808
 11
14.5601
 21
81.1624
  0
LINE
  8
0
 10
14.5601
 20
81.1624
 11
14.5715
 21
81.1438
  0
LINE
  8
0
 10
14.5715
 20
81.1438
 11
14.5825
 21
81.125
  0
LINE
  8
0
 10
14.5825
 20
81.125
 11
14.5933
 21
81.106
  0
LINE
  8
0
 10
14.5933
 20
81.106
 11
14.6037
 21
81.0868
  0
LINE
  8
0
 10
14.6037
 20
81.0868
 11
14.6138
 21
81.0675
  0
LINE
  8
0
 10
14.6138
 20
81.0675
 11
14.6235
 21
81.048
  0
LINE
  8
0
 10
14.6235
 20
81.048
 11
14.6329
 21
81.0283
  0
LINE
  8
0
 10
14.6329
 20
81.0283
 11
14.6419
 21
81.0084
  0
LINE
  8
0
 10
14.6419
 20
81.0084
 11
14.6506
 21
80.9884
  0
LINE
  8
0
 10
14.6506
 20
80.9884
 11
14.659
 21
80.9682
  0
LINE
  8
0
 10
14.659
 20
80.9682
 11
14.667
 21
80.948
  0
LINE
  8
0
 10
14.667
 20
80.948
 11
14.6746
 21
80.9275
  0
LINE
  8
0
 10
14.6746
 20
80.9275
 11
14.6819
 21
80.907
  0
LINE
  8
0
 10
14.6819
 20
80.907
 11
14.6888
 21
80.8863
  0
LINE
  8
0
 10
14.6888
 20
80.8863
 11
14.6954
 21
80.8655
  0
LINE
  8
0
 10
14.6954
 20
80.8655
 11
14.7016
 21
80.8445
  0
LINE
  8
0
 10
14.7016
 20
80.8445
 11
14.7074
 21
80.8235
  0
LINE
  8
0
 10
14.7074
 20
80.8235
 11
14.7129
 21
80.8024
  0
LINE
  8
0
 10
14.7129
 20
80.8024
 11
14.718
 21
80.7812
  0
LINE
  8
0
 10
14.718
 20
80.7812
 11
14.7227
 21
80.7599
  0
LINE
  8
0
 10
14.7227
 20
80.7599
 11
14.727
 21
80.7385
  0
LINE
  8
0
 10
14.727
 20
80.7385
 11
14.731
 21
80.7171
  0
LINE
  8
0
 10
14.731
 20
80.7171
 11
14.7346
 21
80.6955
  0
LINE
  8
0
 10
14.7346
 20
80.6955
 11
14.7378
 21
80.674
  0
LINE
  8
0
 10
14.7378
 20
80.674
 11
14.7407
 21
80.6523
  0
LINE
  8
0
 10
14.7407
 20
80.6523
 11
14.7431
 21
80.6306
  0
LINE
  8
0
 10
14.7431
 20
80.6306
 11
14.7452
 21
80.6089
  0
LINE
  8
0
 10
14.7452
 20
80.6089
 11
14.7469
 21
80.5872
  0
LINE
  8
0
 10
14.7469
 20
80.5872
 11
14.7483
 21
80.5654
  0
LINE
  8
0
 10
14.7483
 20
80.5654
 11
14.7492
 21
80.5436
  0
LINE
  8
0
 10
14.7492
 20
80.5436
 11
14.7498
 21
80.5218
  0
LINE
  8
0
 10
14.7498
 20
80.5218
 11
14.75
 21
80.5
  0
LINE
  8
0
 10
14.75
 20
80.5
 11
14.7498
 21
80.4782
  0
LINE
  8
0
 10
14.7498
 20
80.4782
 11
14.7492
 21
80.4564
  0
LINE
  8
0
 10
14.7492
 20
80.4564
 11
14.7483
 21
80.4346
  0
LINE
  8
0
 10
14.7483
 20
80.4346
 11
14.7469
 21
80.4128
  0
LINE
  8
0
 10
14.7469
 20
80.4128
 11
14.7452
 21
80.3911
  0
LINE
  8
0
 10
14.7452
 20
80.3911
 11
14.7431
 21
80.3693
  0
LINE
  8
0
 10
14.7431
 20
80.3693
 11
14.7407
 21
80.3477
  0
LINE
  8
0
 10
14.7407
 20
80.3477
 11
14.7378
 21
80.326
  0
LINE
  8
0
 10
14.7378
 20
80.326
 11
14.7346
 21
80.3044
  0
LINE
  8
0
 10
14.7346
 20
80.3044
 11
14.731
 21
80.2829
  0
LINE
  8
0
 10
14.731
 20
80.2829
 11
14.727
 21
80.2615
  0
LINE
  8
0
 10
14.727
 20
80.2615
 11
14.7227
 21
80.2401
  0
LINE
  8
0
 10
14.7227
 20
80.2401
 11
14.718
 21
80.2188
  0
LINE
  8
0
 10
14.718
 20
80.2188
 11
14.7129
 21
80.1976
  0
LINE
  8
0
 10
14.7129
 20
80.1976
 11
14.7074
 21
80.1765
  0
LINE
  8
0
 10
14.7074
 20
80.1765
 11
14.7016
 21
80.1554
  0
LINE
  8
0
 10
14.7016
 20
80.1554
 11
14.6954
 21
80.1345
  0
LINE
  8
0
 10
14.6954
 20
80.1345
 11
14.6888
 21
80.1137
  0
LINE
  8
0
 10
14.6888
 20
80.1137
 11
14.6819
 21
80.093
  0
LINE
  8
0
 10
14.6819
 20
80.093
 11
14.6746
 21
80.0725
  0
LINE
  8
0
 10
14.6746
 20
80.0725
 11
14.667
 21
80.052
  0
LINE
  8
0
 10
14.667
 20
80.052
 11
14.659
 21
80.0317
  0
LINE
  8
0
 10
14.659
 20
80.0317
 11
14.6506
 21
80.0116
  0
LINE
  8
0
 10
14.6506
 20
80.0116
 11
14.6419
 21
79.9916
  0
LINE
  8
0
 10
14.6419
 20
79.9916
 11
14.6329
 21
79.9717
  0
LINE
  8
0
 10
14.6329
 20
79.9717
 11
14.6235
 21
79.952
  0
LINE
  8
0
 10
14.6235
 20
79.952
 11
14.6138
 21
79.9325
  0
LINE
  8
0
 10
14.6138
 20
79.9325
 11
14.6037
 21
79.9131
  0
LINE
  8
0
 10
14.6037
 20
79.9131
 11
14.5933
 21
79.894
  0
LINE
  8
0
 10
14.5933
 20
79.894
 11
14.5825
 21
79.875
  0
LINE
  8
0
 10
14.5825
 20
79.875
 11
14.5715
 21
79.8562
  0
LINE
  8
0
 10
14.5715
 20
79.8562
 11
14.5601
 21
79.8376
  0
LINE
  8
0
 10
14.5601
 20
79.8376
 11
14.5483
 21
79.8192
  0
LINE
  8
0
 10
14.5483
 20
79.8192
 11
14.5363
 21
79.801
  0
LINE
  8
0
 10
14.5363
 20
79.801
 11
14.5239
 21
79.783
  0
LINE
  8
0
 10
14.5239
 20
79.783
 11
14.5113
 21
79.7653
  0
LINE
  8
0
 10
14.5113
 20
79.7653
 11
14.4983
 21
79.7477
  0
LINE
  8
0
 10
14.4983
 20
79.7477
 11
14.485
 21
79.7304
  0
LINE
  8
0
 10
14.485
 20
79.7304
 11
14.4714
 21
79.7133
  0
LINE
  8
0
 10
14.4714
 20
79.7133
 11
14.4576
 21
79.6965
  0
LINE
  8
0
 10
14.4576
 20
79.6965
 11
14.4434
 21
79.6799
  0
LINE
  8
0
 10
14.4434
 20
79.6799
 11
14.4289
 21
79.6636
  0
LINE
  8
0
 10
14.4289
 20
79.6636
 11
14.4142
 21
79.6475
  0
LINE
  8
0
 10
14.4142
 20
79.6475
 11
14.3992
 21
79.6317
  0
LINE
  8
0
 10
14.3992
 20
79.6317
 11
14.3839
 21
79.6161
  0
LINE
  8
0
 10
14.3839
 20
79.6161
 11
14.3683
 21
79.6008
  0
LINE
  8
0
 10
14.3683
 20
79.6008
 11
14.3525
 21
79.5858
  0
LINE
  8
0
 10
14.3525
 20
79.5858
 11
14.3364
 21
79.5711
  0
LINE
  8
0
 10
14.3364
 20
79.5711
 11
14.3201
 21
79.5566
  0
LINE
  8
0
 10
14.3201
 20
79.5566
 11
14.3035
 21
79.5424
  0
LINE
  8
0
 10
14.3035
 20
79.5424
 11
14.2866
 21
79.5286
  0
LINE
  8
0
 10
14.2866
 20
79.5286
 11
14.2696
 21
79.515
  0
LINE
  8
0
 10
14.2696
 20
79.515
 11
14.2523
 21
79.5017
  0
LINE
  8
0
 10
14.2523
 20
79.5017
 11
14.2347
 21
79.4887
  0
LINE
  8
0
 10
14.2347
 20
79.4887
 11
14.217
 21
79.4761
  0
LINE
  8
0
 10
14.217
 20
79.4761
 11
14.199
 21
79.4637
  0
LINE
  8
0
 10
14.199
 20
79.4637
 11
14.1808
 21
79.4517
  0
LINE
  8
0
 10
14.1808
 20
79.4517
 11
14.1624
 21
79.4399
  0
LINE
  8
0
 10
14.1624
 20
79.4399
 11
14.1438
 21
79.4285
  0
LINE
  8
0
 10
14.1438
 20
79.4285
 11
14.125
 21
79.4175
  0
LINE
  8
0
 10
14.125
 20
79.4175
 11
14.106
 21
79.4067
  0
LINE
  8
0
 10
14.106
 20
79.4067
 11
14.0868
 21
79.3963
  0
LINE
  8
0
 10
14.0868
 20
79.3963
 11
14.0675
 21
79.3862
  0
LINE
  8
0
 10
14.0675
 20
79.3862
 11
14.048
 21
79.3765
  0
LINE
  8
0
 10
14.048
 20
79.3765
 11
14.0283
 21
79.3671
  0
LINE
  8
0
 10
14.0283
 20
79.3671
 11
14.0084
 21
79.3581
  0
LINE
  8
0
 10
14.0084
 20
79.3581
 11
13.9884
 21
79.3494
  0
LINE
  8
0
 10
13.9884
 20
79.3494
 11
13.9682
 21
79.341
  0
LINE
  8
0
 10
13.9682
 20
79.341
 11
13.948
 21
79.333
  0
LINE
  8
0
 10
13.948
 20
79.333
 11
13.9275
 21
79.3254
  0
LINE
  8
0
 10
13.9275
 20
79.3254
 11
13.907
 21
79.3181
  0
LINE
  8
0
 10
13.907
 20
79.3181
 11
13.8863
 21
79.3112
  0
LINE
  8
0
 10
13.8863
 20
79.3112
 11
13.8655
 21
79.3046
  0
LINE
  8
0
 10
13.8655
 20
79.3046
 11
13.8445
 21
79.2984
  0
LINE
  8
0
 10
13.8445
 20
79.2984
 11
13.8235
 21
79.2926
  0
LINE
  8
0
 10
13.8235
 20
79.2926
 11
13.8024
 21
79.2871
  0
LINE
  8
0
 10
13.8024
 20
79.2871
 11
13.7812
 21
79.282
  0
LINE
  8
0
 10
13.7812
 20
79.282
 11
13.7599
 21
79.2773
  0
LINE
  8
0
 10
13.7599
 20
79.2773
 11
13.7385
 21
79.273
  0
LINE
  8
0
 10
13.7385
 20
79.273
 11
13.7171
 21
79.269
  0
LINE
  8
0
 10
13.7171
 20
79.269
 11
13.6955
 21
79.2654
  0
LINE
  8
0
 10
13.6955
 20
79.2654
 11
13.674
 21
79.2622
  0
LINE
  8
0
 10
13.674
 20
79.2622
 11
13.6523
 21
79.2593
  0
LINE
  8
0
 10
13.6523
 20
79.2593
 11
13.6306
 21
79.2568
  0
LINE
  8
0
 10
13.6306
 20
79.2568
 11
13.6089
 21
79.2547
  0
LINE
  8
0
 10
13.6089
 20
79.2547
 11
13.5872
 21
79.253
  0
LINE
  8
0
 10
13.5872
 20
79.253
 11
13.5654
 21
79.2517
  0
LINE
  8
0
 10
13.5654
 20
79.2517
 11
13.5436
 21
79.2507
  0
LINE
  8
0
 10
13.5436
 20
79.2507
 11
13.5218
 21
79.2502
  0
LINE
  8
0
 10
13.5218
 20
79.2502
 11
13.5
 21
79.25
  0
LINE
  8
0
 10
13.5
 20
79.25
 11
13.4782
 21
79.2502
  0
LINE
  8
0
 10
80.4782
 20
79.2502
 11
80.4564
 21
79.2507
  0
LINE
  8
0
 10
80.4564
 20
79.2507
 11
80.4346
 21
79.2517
  0
LINE
  8
0
 10
80.4346
 20
79.2517
 11
80.4128
 21
79.253
  0
LINE
  8
0
 10
80.4128
 20
79.253
 11
80.3911
 21
79.2547
  0
LINE
  8
0
 10
80.3911
 20
79.2547
 11
80.3693
 21
79.2568
  0
LINE
  8
0
 10
80.3693
 20
79.2568
 11
80.3477
 21
79.2593
  0
LINE
  8
0
 10
80.3477
 20
79.2593
 11
80.326
 21
79.2622
  0
LINE
  8
0
 10
80.326
 20
79.2622
 11
80.3044
 21
79.2654
  0
LINE
  8
0
 10
80.3044
 20
79.2654
 11
80.2829
 21
79.269
  0
LINE
  8
0
 10
80.2829
 20
79.269
 11
80.2615
 21
79.273
  0
LINE
  8
0
 10
80.2615
 20
79.273
 11
80.2401
 21
79.2773
  0
LINE
  8
0
 10
80.2401
 20
79.2773
 11
80.2188
 21
79.282
  0
LINE
  8
0
 10
80.2188
 20
79.282
 11
80.1976
 21
79.2871
  0
LINE
  8
0
 10
80.1976
 20
79.2871
 11
80.1765
 21
79.2926
  0
LINE
  8
0
 10
80.1765
 20
79.2926
 11
80.1554
 21
79.2984
  0
LINE
  8
0
 10
80.1554
 20
79.2984
 11
80.1345
 21
79.3046
  0
LINE
  8
0
 10
80.1345
 20
79.3046
 11
80.1137
 21
79.3112
  0
LINE
  8
0
 10
80.1137
 20
79.3112
 11
80.093
 21
79.3181
  0
LINE
  8
0
 10
80.093
 20
79.3181
 11
80.0725
 21
79.3254
  0
LINE
  8
0
 10
80.0725
 20
79.3254
 11
80.052
 21
79.333
  0
LINE
  8
0
 10
80.052
 20
79.333
 11
80.0317
 21
79.341
  0
LINE
  8
0
 10
80.0317
 20
79.341
 11
80.0116
 21
79.3494
  0
LINE
  8
0
 10
80.0116
 20
79.3494
 11
79.9916
 21
79.3581
  0
LINE
  8
0
 10
79.9916
 20
79.3581
 11
79.9717
 21
79.3671
  0
LINE
  8
0
 10
79.9717
 20
79.3671
 11
79.952
 21
79.3765
  0
LINE
  8
0
 10
79.952
 20
79.3765
 11
79.9325
 21
79.3862
  0
LINE
  8
0
 10
79.9325
 20
79.3862
 11
79.9131
 21
79.3963
  0
LINE
  8
0
 10
79.9131
 20
79.3963
 11
79.894
 21
79.4067
  0
LINE
  8
0
 10
79.894
 20
79.4067
 11
79.875
 21
79.4175
  0
LINE
  8
0
 10
79.875
 20
79.4175
 11
79.8562
 21
79.4285
  0
LINE
  8
0
 10
79.8562
 20
79.4285
 11
79.8376
 21
79.4399
  0
LINE
  8
0
 10
79.8376
 20
79.4399
 11
79.8192
 21
79.4517
  0
LINE
  8
0
 10
79.8192
 20
79.4517
 11
79.801
 21
79.4637
  0
LINE
  8
0
 10
79.801
 20
79.4637
 11
79.783
 21
79.4761
  0
LINE
  8
0
 10
79.783
 20
79.4761
 11
79.7653
 21
79.4887
  0
LINE
  8
0
 10
79.7653
 20
79.4887
 11
79.7477
 21
79.5017
  0
LINE
  8
0
 10
79.7477
 20
79.5017
 11
79.7304
 21
79.515
  0
LINE
  8
0
 10
79.7304
 20
79.515
 11
79.7133
 21
79.5286
  0
LINE
  8
0
 10
79.7133
 20
79.5286
 11
79.6965
 21
79.5424
  0
LINE
  8
0
 10
79.6965
 20
79.5424
 11
79.6799
 21
79.5566
  0
LINE
  8
0
 10
79.6799
 20
79.5566
 11
79.6636
 21
79.5711
  0
LINE
  8
0
 10
79.6636
 20
79.5711
 11
79.6475
 21
79.5858
  0
LINE
  8
0
 10
79.6475
 20
79.5858
 11
79.6317
 21
79.6008
  0
LINE
  8
0
 10
79.6317
 20
79.6008
 11
79.6161
 21
79.6161
  0
LINE
  8
0
 10
79.6161
 20
79.6161
 11
79.6008
 21
79.6317
  0
LINE
  8
0
 10
79.6008
 20
79.6317
 11
79.5858
 21
79.6475
  0
LINE
  8
0
 10
79.5858
 20
79.6475
 11
79.5711
 21
79.6636
  0
LINE
  8
0
 10
79.5711
 20
79.6636
 11
79.5566
 21
79.6799
  0
LINE
  8
0
 10
79.5566
 20
79.6799
 11
79.5424
 21
79.6965
  0
LINE
  8
0
 10
79.5424
 20
79.6965
 11
79.5286
 21
79.7133
  0
LINE
  8
0
 10
79.5286
 20
79.7133
 11
79.515
 21
79.7304
  0
LINE
  8
0
 10
79.515
 20
79.7304
 11
79.5017
 21
79.7477
  0
LINE
  8
0
 10
79.5017
 20
79.7477
 11
79.4887
 21
79.7653
  0
LINE
  8
0
 10
79.4887
 20
79.7653
 11
79.4761
 21
79.783
  0
LINE
  8
0
 10
79.4761
 20
79.783
 11
79.4637
 21
79.801
  0
LINE
  8
0
 10
79.4637
 20
79.801
 11
79.4517
 21
79.8192
  0
LINE
  8
0
 10
79.4517
 20
79.8192
 11
79.4399
 21
79.8376
  0
LINE
  8
0
 10
79.4399
 20
79.8376
 11
79.4285
 21
79.8562
  0
LINE
  8
0
 10
79.4285
 20
79.8562
 11
79.4175
 21
79.875
  0
LINE
  8
0
 10
79.4175
 20
79.875
 11
79.4067
 21
79.894
  0
LINE
  8
0
 10
79.4067
 20
79.894
 11
79.3963
 21
79.9131
  0
LINE
  8
0
 10
79.3963
 20
79.9131
 11
79.3862
 21
79.9325
  0
LINE
  8
0
 10
79.3862
 20
79.9325
 11
79.3765
 21
79.952
  0
LINE
  8
0
 10
79.3765
 20
79.952
 11
79.3671
 21
79.9717
  0
LINE
  8
0
 10
79.3671
 20
79.9717
 11
79.3581
 21
79.9916
  0
LINE
  8
0
 10
79.3581
 20
79.9916
 11
79.3494
 21
80.0116
  0
LINE
  8
0
 10
79.3494
 20
80.0116
 11
79.341
 21
80.0317
  0
LINE
  8
0
 10
79.341
 20
80.0317
 11
79.333
 21
80.052
  0
LINE
  8
0
 10
79.333
 20
80.052
 11
79.3254
 21
80.0725
  0
LINE
  8
0
 10
79.3254
 20
80.0725
 11
79.3181
 21
80.093
  0
LINE
  8
0
 10
79.3181
 20
80.093
 11
79.3112
 21
80.1137
  0
LINE
  8
0
 10
79.3112
 20
80.1137
 11
79.3046
 21
80.1345
  0
LINE
  8
0
 10
79.3046
 20
80.1345
 11
79.2984
 21
80.1554
  0
LINE
  8
0
 10
79.2984
 20
80.1554
 11
79.2926
 21
80.1765
  0
LINE
  8
0
 10
79.2926
 20
80.1765
 11
79.2871
 21
80.1976
  0
LINE
  8
0
 10
79.2871
 20
80.1976
 11
79.282
 21
80.2188
  0
LINE
  8
0
 10
79.282
 20
80.2188
 11
79.2773
 21
80.2401
  0
LINE
  8
0
 10
79.2773
 20
80.2401
 11
79.273
 21
80.2615
  0
LINE
  8
0
 10
79.273
 20
80.2615
 11
79.269
 21
80.2829
  0
LINE
  8
0
 10
79.269
 20
80.2829
 11
79.2654
 21
80.3044
  0
LINE
  8
0
 10
79.2654
 20
80.3044
 11
79.2622
 21
80.326
  0
LINE
  8
0
 10
79.2622
 20
80.326
 11
79.2593
 21
80.3477
  0
LINE
  8
0
 10
79.2593
 20
80.3477
 11
79.2568
 21
80.3693
  0
LINE
  8
0
 10
79.2568
 20
80.3693
 11
79.2547
 21
80.3911
  0
LINE
  8
0
 10
79.2547
 20
80.3911
 11
79.253
 21
80.4128
  0
LINE
  8
0
 10
79.253
 20
80.4128
 11
79.2517
 21
80.4346
  0
LINE
  8
0
 10
79.2517
 20
80.4346
 11
79.2507
 21
80.4564
  0
LINE
  8
0
 10
79.2507
 20
80.4564
 11
79.2502
 21
80.4782
  0
LINE
  8
0
 10
79.2502
 20
80.4782
 11
79.25
 21
80.5
  0
LINE
  8
0
 10
79.25
 20
80.5
 11
79.2502
 21
80.5218
  0
LINE
  8
0
 10
79.2502
 20
80.5218
 11
79.2507
 21
80.5436
  0
LINE
  8
0
 10
79.2507
 20
80.5436
 11
79.2517
 21
80.5654
  0
LINE
  8
0
 10
79.2517
 20
80.5654
 11
79.253
 21
80.5872
  0
LINE
  8
0
 10
79.253
 20
80.5872
 11
79.2547
 21
80.6089
  0
LINE
  8
0
 10
79.2547
 20
80.6089
 11
79.2568
 21
80.6306
  0
LINE
  8
0
 10
79.2568
 20
80.6306
 11
79.2593
 21
80.6523
  0
LINE
  8
0
 10
79.2593
 20
80.6523
 11
79.2622
 21
80.674
  0
LINE
  8
0
 10
79.2622
 20
80.674
 11
79.2654
 21
80.6955
  0
LINE
  8
0
 10
79.2654
 20
80.6955
 11
79.269
 21
80.7171
  0
LINE
  8
0
 10
79.269
 20
80.7171
 11
79.273
 21
80.7385
  0
LINE
  8
0
 10
79.273
 20
80.7385
 11
79.2773
 21
80.7599
  0
LINE
  8
0
 10
79.2773
 20
80.7599
 11
79.282
 21
80.7812
  0
LINE
  8
0
 10
79.282
 20
80.7812
 11
79.2871
 21
80.8024
  0
LINE
  8
0
 10
79.2871
 20
80.8024
 11
79.2926
 21
80.8235
  0
LINE
  8
0
 10
79.2926
 20
80.8235
 11
79.2984
 21
80.8445
  0
LINE
  8
0
 10
79.2984
 20
80.8445
 11
79.3046
 21
80.8655
  0
LINE
  8
0
 10
79.3046
 20
80.8655
 11
79.3112
 21
80.8863
  0
LINE
  8
0
 10
79.3112
 20
80.8863
 11
79.3181
 21
80.907
  0
LINE
  8
0
 10
79.3181
 20
80.907
 11
79.3254
 21
80.9275
  0
LINE
  8
0
 10
79.3254
 20
80.9275
 11
79.333
 21
80.948
  0
LINE
  8
0
 10
79.333
 20
80.948
 11
79.341
 21
80.9682
  0
LINE
  8
0
 10
79.341
 20
80.9682
 11
79.3494
 21
80.9884
  0
LINE
  8
0
 10
79.3494
 20
80.9884
 11
79.3581
 21
81.0084
  0
LINE
  8
0
 10
79.3581
 20
81.0084
 11
79.3671
 21
81.0283
  0
LINE
  8
0
 10
79.3671
 20
81.0283
 11
79.3765
 21
81.048
  0
LINE
  8
0
 10
79.3765
 20
81.048
 11
79.3862
 21
81.0675
  0
LINE
  8
0
 10
79.3862
 20
81.0675
 11
79.3963
 21
81.0868
  0
LINE
  8
0
 10
79.3963
 20
81.0868
 11
79.4067
 21
81.106
  0
LINE
  8
0
 10
79.4067
 20
81.106
 11
79.4175
 21
81.125
  0
LINE
  8
0
 10
79.4175
 20
81.125
 11
79.4285
 21
81.1438
  0
LINE
  8
0
 10
79.4285
 20
81.1438
 11
79.4399
 21
81.1624
  0
LINE
  8
0
 10
79.4399
 20
81.1624
 11
79.4517
 21
81.1808
  0
LINE
  8
0
 10
79.4517
 20
81.1808
 11
79.4637
 21
81.199
  0
LINE
  8
0
 10
79.4637
 20
81.199
 11
79.4761
 21
81.217
  0
LINE
  8
0
 10
79.4761
 20
81.217
 11
79.4887
 21
81.2347
  0
LINE
  8
0
 10
79.4887
 20
81.2347
 11
79.5017
 21
81.2523
  0
LINE
  8
0
 10
79.5017
 20
81.2523
 11
79.515
 21
81.2696
  0
LINE
  8
0
 10
79.515
 20
81.2696
 11
79.5286
 21
81.2866
  0
LINE
  8
0
 10
79.5286
 20
81.2866
 11
79.5424
 21
81.3035
  0
LINE
  8
0
 10
79.5424
 20
81.3035
 11
79.5566
 21
81.3201
  0
LINE
  8
0
 10
79.5566
 20
81.3201
 11
79.5711
 21
81.3364
  0
LINE
  8
0
 10
79.5711
 20
81.3364
 11
79.5858
 21
81.3525
  0
LINE
  8
0
 10
79.5858
 20
81.3525
 11
79.6008
 21
81.3683
  0
LINE
  8
0
 10
79.6008
 20
81.3683
 11
79.6161
 21
81.3839
  0
LINE
  8
0
 10
79.6161
 20
81.3839
 11
79.6317
 21
81.3992
  0
LINE
  8
0
 10
79.6317
 20
81.3992
 11
79.6475
 21
81.4142
  0
LINE
  8
0
 10
79.6475
 20
81.4142
 11
79.6636
 21
81.4289
  0
LINE
  8
0
 10
79.6636
 20
81.4289
 11
79.6799
 21
81.4434
  0
LINE
  8
0
 10
79.6799
 20
81.4434
 11
79.6965
 21
81.4576
  0
LINE
  8
0
 10
79.6965
 20
81.4576
 11
79.7133
 21
81.4714
  0
LINE
  8
0
 10
79.7133
 20
81.4714
 11
79.7304
 21
81.485
  0
LINE
  8
0
 10
79.7304
 20
81.485
 11
79.7477
 21
81.4983
  0
LINE
  8
0
 10
79.7477
 20
81.4983
 11
79.7653
 21
81.5113
  0
LINE
  8
0
 10
79.7653
 20
81.5113
 11
79.783
 21
81.5239
  0
LINE
  8
0
 10
79.783
 20
81.5239
 11
79.801
 21
81.5363
  0
LINE
  8
0
 10
79.801
 20
81.5363
 11
79.8192
 21
81.5483
  0
LINE
  8
0
 10
79.8192
 20
81.5483
 11
79.8376
 21
81.5601
  0
LINE
  8
0
 10
79.8376
 20
81.5601
 11
79.8562
 21
81.5715
  0
LINE
  8
0
 10
79.8562
 20
81.5715
 11
79.875
 21
81.5825
  0
LINE
  8
0
 10
79.875
 20
81.5825
 11
79.894
 21
81.5933
  0
LINE
  8
0
 10
79.894
 20
81.5933
 11
79.9131
 21
81.6037
  0
LINE
  8
0
 10
79.9131
 20
81.6037
 11
79.9325
 21
81.6138
  0
LINE
  8
0
 10
79.9325
 20
81.6138
 11
79.952
 21
81.6235
  0
LINE
  8
0
 10
79.952
 20
81.6235
 11
79.9717
 21
81.6329
  0
LINE
  8
0
 10
79.9717
 20
81.6329
 11
79.9916
 21
81.6419
  0
LINE
  8
0
 10
79.9916
 20
81.6419
 11
80.0116
 21
81.6506
  0
LINE
  8
0
 10
80.0116
 20
81.6506
 11
80.0317
 21
81.659
  0
LINE
  8
0
 10
80.0317
 20
81.659
 11
80.052
 21
81.667
  0
LINE
  8
0
 10
80.052
 20
81.667
 11
80.0725
 21
81.6746
  0
LINE
  8
0
 10
80.0725
 20
81.6746
 11
80.093
 21
81.6819
  0
LINE
  8
0
 10
80.093
 20
81.6819
 11
80.1137
 21
81.6888
  0
LINE
  8
0
 10
80.1137
 20
81.6888
 11
80.1345
 21
81.6954
  0
LINE
  8
0
 10
80.1345
 20
81.6954
 11
80.1554
 21
81.7016
  0
LINE
  8
0
 10
80.1554
 20
81.7016
 11
80.1765
 21
81.7074
  0
LINE
  8
0
 10
80.1765
 20
81.7074
 11
80.1976
 21
81.7129
  0
LINE
  8
0
 10
80.1976
 20
81.7129
 11
80.2188
 21
81.718
  0
LINE
  8
0
 10
80.2188
 20
81.718
 11
80.2401
 21
81.7227
  0
LINE
  8
0
 10
80.2401
 20
81.7227
 11
80.2615
 21
81.727
  0
LINE
  8
0
 10
80.2615
 20
81.727
 11
80.2829
 21
81.731
  0
LINE
  8
0
 10
80.2829
 20
81.731
 11
80.3044
 21
81.7346
  0
LINE
  8
0
 10
80.3044
 20
81.7346
 11
80.326
 21
81.7378
  0
LINE
  8
0
 10
80.326
 20
81.7378
 11
80.3477
 21
81.7407
  0
LINE
  8
0
 10
80.3477
 20
81.7407
 11
80.3693
 21
81.7431
  0
LINE
  8
0
 10
80.3693
 20
81.7431
 11
80.3911
 21
81.7452
  0
LINE
  8
0
 10
80.3911
 20
81.7452
 11
80.4128
 21
81.7469
  0
LINE
  8
0
 10
80.4128
 20
81.7469
 11
80.4346
 21
81.7483
  0
LINE
  8
0
 10
80.4346
 20
81.7483
 11
80.4564
 21
81.7492
  0
LINE
  8
0
 10
80.4564
 20
81.7492
 11
80.4782
 21
81.7498
  0
LINE
  8
0
 10
80.4782
 20
81.7498
 11
80.5
 21
81.75
  0
LINE
  8
0
 10
80.5
 20
81.75
 11
80.5218
 21
81.7498
  0
LINE
  8
0
 10
80.5218
 20
81.7498
 11
80.5436
 21
81.7492
  0
LINE
  8
0
 10
80.5436
 20
81.7492
 11
80.5654
 21
81.7483
  0
LINE
  8
0
 10
80.5654
 20
81.7483
 11
80.5872
 21
81.7469
  0
LINE
  8
0
 10
80.5872
 20
81.7469
 11
80.6089
 21
81.7452
  0
LINE
  8
0
 10
80.6089
 20
81.7452
 11
80.6306
 21
81.7431
  0
LINE
  8
0
 10
80.6306
 20
81.7431
 11
80.6523
 21
81.7407
  0
LINE
  8
0
 10
80.6523
 20
81.7407
 11
80.674
 21
81.7378
  0
LINE
  8
0
 10
80.674
 20
81.7378
 11
80.6955
 21
81.7346
  0
LINE
  8
0
 10
80.6955
 20
81.7346
 11
80.7171
 21
81.731
  0
LINE
  8
0
 10
80.7171
 20
81.731
 11
80.7385
 21
81.727
  0
LINE
  8
0
 10
80.7385
 20
81.727
 11
80.7599
 21
81.7227
  0
LINE
  8
0
 10
80.7599
 20
81.7227
 11
80.7812
 21
81.718
  0
LINE
  8
0
 10
80.7812
 20
81.718
 11
80.8024
 21
81.7129
  0
LINE
  8
0
 10
80.8024
 20
81.7129
 11
80.8235
 21
81.7074
  0
LINE
  8
0
 10
80.8235
 20
81.7074
 11
80.8445
 21
81.7016
  0
LINE
  8
0
 10
80.8445
 20
81.7016
 11
80.8655
 21
81.6954
  0
LINE
  8
0
 10
80.8655
 20
81.6954
 11
80.8863
 21
81.6888
  0
LINE
  8
0
 10
80.8863
 20
81.6888
 11
80.907
 21
81.6819
  0
LINE
  8
0
 10
80.907
 20
81.6819
 11
80.9275
 21
81.6746
  0
LINE
  8
0
 10
80.9275
 20
81.6746
 11
80.948
 21
81.667
  0
LINE
  8
0
 10
80.948
 20
81.667
 11
80.9682
 21
81.659
  0
LINE
  8
0
 10
80.9682
 20
81.659
 11
80.9884
 21
81.6506
  0
LINE
  8
0
 10
80.9884
 20
81.6506
 11
81.0084
 21
81.6419
  0
LINE
  8
0
 10
81.0084
 20
81.6419
 11
81.0283
 21
81.6329
  0
LINE
  8
0
 10
81.0283
 20
81.6329
 11
81.048
 21
81.6235
  0
LINE
  8
0
 10
81.048
 20
81.6235
 11
81.0675
 21
81.6138
  0
LINE
  8
0
 10
81.0675
 20
81.6138
 11
81.0868
 21
81.6037
  0
LINE
  8
0
 10
81.0868
 20
81.6037
 11
81.106
 21
81.5933
  0
LINE
  8
0
 10
81.106
 20
81.5933
 11
81.125
 21
81.5825
  0
LINE
  8
0
 10
81.125
 20
81.5825
 11
81.1438
 21
81.5715
  0
LINE
  8
0
 10
81.1438
 20
81.5715
 11
81.1624
 21
81.5601
  0
LINE
  8
0
 10
81.1624
 20
81.5601
 11
81.1808
 21
81.5483
  0
LINE
  8
0
 10
81.1808
 20
81.5483
 11
81.199
 21
81.5363
  0
LINE
  8
0
 10
81.199
 20
81.5363
 11
81.217
 21
81.5239
  0
LINE
  8
0
 10
81.217
 20
81.5239
 11
81.2347
 21
81.5113
  0
LINE
  8
0
 10
81.2347
 20
81.5113
 11
81.2523
 21
81.4983
  0
LINE
  8
0
 10
81.2523
 20
81.4983
 11
81.2696
 21
81.485
  0
LINE
  8
0
 10
81.2696
 20
81.485
 11
81.2866
 21
81.4714
  0
LINE
  8
0
 10
81.2866
 20
81.4714
 11
81.3035
 21
81.4576
  0
LINE
  8
0
 10
81.3035
 20
81.4576
 11
81.3201
 21
81.4434
  0
LINE
  8
0
 10
81.3201
 20
81.4434
 11
81.3364
 21
81.4289
  0
LINE
  8
0
 10
81.3364
 20
81.4289
 11
81.3525
 21
81.4142
  0
LINE
  8
0
 10
81.3525
 20
81.4142
 11
81.3683
 21
81.3992
  0
LINE
  8
0
 10
81.3683
 20
81.3992
 11
81.3839
 21
81.3839
  0
LINE
  8
0
 10
81.3839
 20
81.3839
 11
81.3992
 21
81.3683
  0
LINE
  8
0
 10
81.3992
 20
81.3683
 11
81.4142
 21
81.3525
  0
LINE
  8
0
 10
81.4142
 20
81.3525
 11
81.4289
 21
81.3364
  0
LINE
  8
0
 10
81.4289
 20
81.3364
 11
81.4434
 21
81.3201
  0
LINE
  8
0
 10
81.4434
 20
81.3201
 11
81.4576
 21
81.3035
  0
LINE
  8
0
 10
81.4576
 20
81.3035
 11
81.4714
 21
81.2866
  0
LINE
  8
0
 10
81.4714
 20
81.2866
 11
81.485
 21
81.2696
  0
LINE
  8
0
 10
81.485
 20
81.2696
 11
81.4983
 21
81.2523
  0
LINE
  8
0
 10
81.4983
 20
81.2523
 11
81.5113
 21
81.2347
  0
LINE
  8
0
 10
81.5113
 20
81.2347
 11
81.5239
 21
81.217
  0
LINE
  8
0
 10
81.5239
 20
81.217
 11
81.5363
 21
81.199
  0
LINE
  8
0
 10
81.5363
 20
81.199
 11
81.5483
 21
81.1808
  0
LINE
  8
0
 10
81.5483
 20
81.1808
 11
81.5601
 21
81.1624
  0
LINE
  8
0
 10
81.5601
 20
81.1624
 11
81.5715
 21
81.1438
  0
LINE
  8
0
 10
81.5715
 20
81.1438
 11
81.5825
 21
81.125
  0
LINE
  8
0
 10
81.5825
 20
81.125
 11
81.5933
 21
81.106
  0
LINE
  8
0
 10
81.5933
 20
81.106
 11
81.6037
 21
81.0868
  0
LINE
  8
0
 10
81.6037
 20
81.0868
 11
81.6138
 21
81.0675
  0
LINE
  8
0
 10
81.6138
 20
81.0675
 11
81.6235
 21
81.048
  0
LINE
  8
0
 10
81.6235
 20
81.048
 11
81.6329
 21
81.0283
  0
LINE
  8
0
 10
81.6329
 20
81.0283
 11
81.6419
 21
81.0084
  0
LINE
  8
0
 10
81.6419
 20
81.0084
 11
81.6506
 21
80.9884
  0
LINE
  8
0
 10
81.6506
 20
80.9884
 11
81.659
 21
80.9682
  0
LINE
  8
0
 10
81.659
 20
80.9682
 11
81.667
 21
80.948
  0
LINE
  8
0
 10
81.667
 20
80.948
 11
81.6746
 21
80.9275
  0
LINE
  8
0
 10
81.6746
 20
80.9275
 11
81.6819
 21
80.907
  0
LINE
  8
0
 10
81.6819
 20
80.907
 11
81.6888
 21
80.8863
  0
LINE
  8
0
 10
81.6888
 20
80.8863
 11
81.6954
 21
80.8655
  0
LINE
  8
0
 10
81.6954
 20
80.8655
 11
81.7016
 21
80.8445
  0
LINE
  8
0
 10
81.7016
 20
80.8445
 11
81.7074
 21
80.8235
  0
LINE
  8
0
 10
81.7074
 20
80.8235
 11
81.7129
 21
80.8024
  0
LINE
  8
0
 10
81.7129
 20
80.8024
 11
81.718
 21
80.7812
  0
LINE
  8
0
 10
81.718
 20
80.7812
 11
81.7227
 21
80.7599
  0
LINE
  8
0
 10
81.7227
 20
80.7599
 11
81.727
 21
80.7385
  0
LINE
  8
0
 10
81.727
 20
80.7385
 11
81.731
 21
80.7171
  0
LINE
  8
0
 10
81.731
 20
80.7171
 11
81.7346
 21
80.6955
  0
LINE
  8
0
 10
81.7346
 20
80.6955
 11
81.7378
 21
80.674
  0
LINE
  8
0
 10
81.7378
 20
80.674
 11
81.7407
 21
80.6523
  0
LINE
  8
0
 10
81.7407
 20
80.6523
 11
81.7431
 21
80.6306
  0
LINE
  8
0
 10
81.7431
 20
80.6306
 11
81.7452
 21
80.6089
  0
LINE
  8
0
 10
81.7452
 20
80.6089
 11
81.7469
 21
80.5872
  0
LINE
  8
0
 10
81.7469
 20
80.5872
 11
81.7483
 21
80.5654
  0
LINE
  8
0
 10
81.7483
 20
80.5654
 11
81.7492
 21
80.5436
  0
LINE
  8
0
 10
81.7492
 20
80.5436
 11
81.7498
 21
80.5218
  0
LINE
  8
0
 10
81.7498
 20
80.5218
 11
81.75
 21
80.5
  0
LINE
  8
0
 10
81.75
 20
80.5
 11
81.7498
 21
80.4782
  0
LINE
  8
0
 10
81.7498
 20
80.4782
 11
81.7492
 21
80.4564
  0
LINE
  8
0
 10
81.7492
 20
80.4564
 11
81.7483
 21
80.4346
  0
LINE
  8
0
 10
81.7483
 20
80.4346
 11
81.7469
 21
80.4128
  0
LINE
  8
0
 10
81.7469
 20
80.4128
 11
81.7452
 21
80.3911
  0
LINE
  8
0
 10
81.7452
 20
80.3911
 11
81.7431
 21
80.3693
  0
LINE
  8
0
 10
81.7431
 20
80.3693
 11
81.7407
 21
80.3477
  0
LINE
  8
0
 10
81.7407
 20
80.3477
 11
81.7378
 21
80.326
  0
LINE
  8
0
 10
81.7378
 20
80.326
 11
81.7346
 21
80.3044
  0
LINE
  8
0
 10
81.7346
 20
80.3044
 11
81.731
 21
80.2829
  0
LINE
  8
0
 10
81.731
 20
80.2829
 11
81.727
 21
80.2615
  0
LINE
  8
0
 10
81.727
 20
80.2615
 11
81.7227
 21
80.2401
  0
LINE
  8
0
 10
81.7227
 20
80.2401
 11
81.718
 21
80.2188
  0
LINE
  8
0
 10
81.718
 20
80.2188
 11
81.7129
 21
80.1976
  0
LINE
  8
0
 10
81.7129
 20
80.1976
 11
81.7074
 21
80.1765
  0
LINE
  8
0
 10
81.7074
 20
80.1765
 11
81.7016
 21
80.1554
  0
LINE
  8
0
 10
81.7016
 20
80.1554
 11
81.6954
 21
80.1345
  0
LINE
  8
0
 10
81.6954
 20
80.1345
 11
81.6888
 21
80.1137
  0
LINE
  8
0
 10
81.6888
 20
80.1137
 11
81.6819
 21
80.093
  0
LINE
  8
0
 10
81.6819
 20
80.093
 11
81.6746
 21
80.0725
  0
LINE
  8
0
 10
81.6746
 20
80.0725
 11
81.667
 21
80.052
  0
LINE
  8
0
 10
81.667
 20
80.052
 11
81.659
 21
80.0317
  0
LINE
  8
0
 10
81.659
 20
80.0317
 11
81.6506
 21
80.0116
  0
LINE
  8
0
 10
81.6506
 20
80.0116
 11
81.6419
 21
79.9916
  0
LINE
  8
0
 10
81.6419
 20
79.9916
 11
81.6329
 21
79.9717
  0
LINE
  8
0
 10
81.6329
 20
79.9717
 11
81.6235
 21
79.952
  0
LINE
  8
0
 10
81.6235
 20
79.952
 11
81.6138
 21
79.9325
  0
LINE
  8
0
 10
81.6138
 20
79.9325
 11
81.6037
 21
79.9131
  0
LINE
  8
0
 10
81.6037
 20
79.9131
 11
81.5933
 21
79.894
  0
LINE
  8
0
 10
81.5933
 20
79.894
 11
81.5825
 21
79.875
  0
LINE
  8
0
 10
81.5825
 20
79.875
 11
81.5715
 21
79.8562
  0
LINE
  8
0
 10
81.5715
 20
79.8562
 11
81.5601
 21
79.8376
  0
LINE
  8
0
 10
81.5601
 20
79.8376
 11
81.5483
 21
79.8192
  0
LINE
  8
0
 10
81.5483
 20
79.8192
 11
81.5363
 21
79.801
  0
LINE
  8
0
 10
81.5363
 20
79.801
 11
81.5239
 21
79.783
  0
LINE
  8
0
 10
81.5239
 20
79.783
 11
81.5113
 21
79.7653
  0
LINE
  8
0
 10
81.5113
 20
79.7653
 11
81.4983
 21
79.7477
  0
LINE
  8
0
 10
81.4983
 20
79.7477
 11
81.485
 21
79.7304
  0
LINE
  8
0
 10
81.485
 20
79.7304
 11
81.4714
 21
79.7133
  0
LINE
  8
0
 10
81.4714
 20
79.7133
 11
81.4576
 21
79.6965
  0
LINE
  8
0
 10
81.4576
 20
79.6965
 11
81.4434
 21
79.6799
  0
LINE
  8
0
 10
81.4434
 20
79.6799
 11
81.4289
 21
79.6636
  0
LINE
  8
0
 10
81.4289
 20
79.6636
 11
81.4142
 21
79.6475
  0
LINE
  8
0
 10
81.4142
 20
79.6475
 11
81.3992
 21
79.6317
  0
LINE
  8
0
 10
81.3992
 20
79.6317
 11
81.3839
 21
79.6161
  0
LINE
  8
0
 10
81.3839
 20
79.6161
 11
81.3683
 21
79.6008
  0
LINE
  8
0
 10
81.3683
 20
79.6008
 11
81.3525
 21
79.5858
  0
LINE
  8
0
 10
81.3525
 20
79.5858
 11
81.3364
 21
79.5711
  0
LINE
  8
0
 10
81.3364
 20
79.5711
 11
81.3201
 21
79.5566
  0
LINE
  8
0
 10
81.3201
 20
79.5566
 11
81.3035
 21
79.5424
  0
LINE
  8
0
 10
81.3035
 20
79.5424
 11
81.2866
 21
79.5286
  0
LINE
  8
0
 10
81.2866
 20
79.5286
 11
81.2696
 21
79.515
  0
LINE
  8
0
 10
81.2696
 20
79.515
 11
81.2523
 21
79.5017
  0
LINE
  8
0
 10
81.2523
 20
79.5017
 11
81.2347
 21
79.4887
  0
LINE
  8
0
 10
81.2347
 20
79.4887
 11
81.217
 21
79.4761
  0
LINE
  8
0
 10
81.217
 20
79.4761
 11
81.199
 21
79.4637
  0
LINE
  8
0
 10
81.199
 20
79.4637
 11
81.1808
 21
79.4517
  0
LINE
  8
0
 10
81.1808
 20
79.4517
 11
81.1624
 21
79.4399
  0
LINE
  8
0
 10
81.1624
 20
79.4399
 11
81.1438
 21
79.4285
  0
LINE
  8
0
 10
81.1438
 20
79.4285
 11
81.125
 21
79.4175
  0
LINE
  8
0
 10
81.125
 20
79.4175
 11
81.106
 21
79.4067
  0
LINE
  8
0
 10
81.106
 20
79.4067
 11
81.0868
 21
79.3963
  0
LINE
  8
0
 10
81.0868
 20
79.3963
 11
81.0675
 21
79.3862
  0
LINE
  8
0
 10
81.0675
 20
79.3862
 11
81.048
 21
79.3765
  0
LINE
  8
0
 10
81.048
 20
79.3765
 11
81.0283
 21
79.3671
  0
LINE
  8
0
 10
81.0283
 20
79.3671
 11
81.0084
 21
79.3581
  0
LINE
  8
0
 10
81.0084
 20
79.3581
 11
80.9884
 21
79.3494
  0
LINE
  8
0
 10
80.9884
 20
79.3494
 11
80.9682
 21
79.341
  0
LINE
  8
0
 10
80.9682
 20
79.341
 11
80.948
 21
79.333
  0
LINE
  8
0
 10
80.948
 20
79.333
 11
80.9275
 21
79.3254
  0
LINE
  8
0
 10
80.9275
 20
79.3254
 11
80.907
 21
79.3181
  0
LINE
  8
0
 10
80.907
 20
79.3181
 11
80.8863
 21
79.3112
  0
LINE
  8
0
 10
80.8863
 20
79.3112
 11
80.8655
 21
79.3046
  0
LINE
  8
0
 10
80.8655
 20
79.3046
 11
80.8445
 21
79.2984
  0
LINE
  8
0
 10
80.8445
 20
79.2984
 11
80.8235
 21
79.2926
  0
LINE
  8
0
 10
80.8235
 20
79.2926
 11
80.8024
 21
79.2871
  0
LINE
  8
0
 10
80.8024
 20
79.2871
 11
80.7812
 21
79.282
  0
LINE
  8
0
 10
80.7812
 20
79.282
 11
80.7599
 21
79.2773
  0
LINE
  8
0
 10
80.7599
 20
79.2773
 11
80.7385
 21
79.273
  0
LINE
  8
0
 10
80.7385
 20
79.273
 11
80.7171
 21
79.269
  0
LINE
  8
0
 10
80.7171
 20
79.269
 11
80.6955
 21
79.2654
  0
LINE
  8
0
 10
80.6955
 20
79.2654
 11
80.674
 21
79.2622
  0
LINE
  8
0
 10
80.674
 20
79.2622
 11
80.6523
 21
79.2593
  0
LINE
  8
0
 10
80.6523
 20
79.2593
 11
80.6306
 21
79.2568
  0
LINE
  8
0
 10
80.6306
 20
79.2568
 11
80.6089
 21
79.2547
  0
LINE
  8
0
 10
80.6089
 20
79.2547
 11
80.5872
 21
79.253
  0
LINE
  8
0
 10
80.5872
 20
79.253
 11
80.5654
 21
79.2517
  0
LINE
  8
0
 10
80.5654
 20
79.2517
 11
80.5436
 21
79.2507
  0
LINE
  8
0
 10
80.5436
 20
79.2507
 11
80.5218
 21
79.2502
  0
LINE
  8
0
 10
80.5218
 20
79.2502
 11
80.5
 21
79.25
  0
LINE
  8
0
 10
80.5
 20
79.25
 11
80.4782
 21
79.2502
  0
LINE
  8
0
 10
52.5
 20
56.5
 11
52.5
 21
80.5
  0
LINE
  8
0
 10
52.5
 20
80.5
 11
77.5
 21
80.5
  0
LINE
  8
0
 10
77.5
 20
80.5
 11
77.5
 21
56.5
  0
LINE
  8
0
 10
77.5
 20
56.5
 11
52.5
 21
56.5
  0
LINE
  8
0
 10
27
 20
22
 11
27
 21
76
  0
LINE
  8
0
 10
27
 20
76
 11
48
 21
76
  0
LINE
  8
0
 10
48
 20
76
 11
48
 21
22
  0
LINE
  8
0
 10
48
 20
22
 11
27
 21
22
  0
LINE
  8
0
 10
7
 20
22
 11
7
 21
27
  0
LINE
  8
0
 10
7
 20
27
 11
9
 21
27
  0
LINE
  8
0
 10
9
 20
27
 11
9
 21
22
  0
LINE
  8
0
 10
9
 20
22
 11
7
 21
22
  0
LINE
  8
0
 10
66
 20
22
 11
66
 21
27
  0
LINE
  8
0
 10
66
 20
27
 11
68
 21
27
  0
LINE
  8
0
 10
68
 20
27
 11
68
 21
22
  0
LINE
  8
0
 10
68
 20
22
 11
66
 21
22
  0
LINE
  8
0
 10
13.4782
 20
12.2502
 11
13.4564
 21
12.2507
  0
LINE
  8
0
 10
13.4564
 20
12.2507
 11
13.4346
 21
12.2517
  0
LINE
  8
0
 10
13.4346
 20
12.2517
 11
13.4128
 21
12.253
  0
LINE
  8
0
 10
13.4128
 20
12.253
 11
13.3911
 21
12.2547
  0
LINE
  8
0
 10
13.3911
 20
12.2547
 11
13.3693
 21
12.2568
  0
LINE
  8
0
 10
13.3693
 20
12.2568
 11
13.3477
 21
12.2593
  0
LINE
  8
0
 10
13.3477
 20
12.2593
 11
13.326
 21
12.2622
  0
LINE
  8
0
 10
13.326
 20
12.2622
 11
13.3044
 21
12.2654
  0
LINE
  8
0
 10
13.3044
 20
12.2654
 11
13.2829
 21
12.269
  0
LINE
  8
0
 10
13.2829
 20
12.269
 11
13.2615
 21
12.273
  0
LINE
  8
0
 10
13.2615
 20
12.273
 11
13.2401
 21
12.2773
  0
LINE
  8
0
 10
13.2401
 20
12.2773
 11
13.2188
 21
12.282
  0
LINE
  8
0
 10
13.2188
 20
12.282
 11
13.1976
 21
12.2871
  0
LINE
  8
0
 10
13.1976
 20
12.2871
 11
13.1765
 21
12.2926
  0
LINE
  8
0
 10
13.1765
 20
12.2926
 11
13.1554
 21
12.2984
  0
LINE
  8
0
 10
13.1554
 20
12.2984
 11
13.1345
 21
12.3046
  0
LINE
  8
0
 10
13.1345
 20
12.3046
 11
13.1137
 21
12.3112
  0
LINE
  8
0
 10
13.1137
 20
12.3112
 11
13.093
 21
12.3181
  0
LINE
  8
0
 10
13.093
 20
12.3181
 11
13.0725
 21
12.3254
  0
LINE
  8
0
 10
13.0725
 20
12.3254
 11
13.052
 21
12.333
  0
LINE
  8
0
 10
13.052
 20
12.333
 11
13.0317
 21
12.341
  0
LINE
  8
0
 10
13.0317
 20
12.341
 11
13.0116
 21
12.3494
  0
LINE
  8
0
 10
13.0116
 20
12.3494
 11
12.9916
 21
12.3581
  0
LINE
  8
0
 10
12.9916
 20
12.3581
 11
12.9717
 21
12.3671
  0
LINE
  8
0
 10
12.9717
 20
12.3671
 11
12.952
 21
12.3765
  0
LINE
  8
0
 10
12.952
 20
12.3765
 11
12.9325
 21
12.3862
  0
LINE
  8
0
 10
12.9325
 20
12.3862
 11
12.9131
 21
12.3963
  0
LINE
  8
0
 10
12.9131
 20
12.3963
 11
12.894
 21
12.4067
  0
LINE
  8
0
 10
12.894
 20
12.4067
 11
12.875
 21
12.4175
  0
LINE
  8
0
 10
12.875
 20
12.4175
 11
12.8562
 21
12.4285
  0
LINE
  8
0
 10
12.8562
 20
12.4285
 11
12.8376
 21
12.4399
  0
LINE
  8
0
 10
12.8376
 20
12.4399
 11
12.8192
 21
12.4517
  0
LINE
  8
0
 10
12.8192
 20
12.4517
 11
12.801
 21
12.4637
  0
LINE
  8
0
 10
12.801
 20
12.4637
 11
12.783
 21
12.4761
  0
LINE
  8
0
 10
12.783
 20
12.4761
 11
12.7653
 21
12.4887
  0
LINE
  8
0
 10
12.7653
 20
12.4887
 11
12.7477
 21
12.5017
  0
LINE
  8
0
 10
12.7477
 20
12.5017
 11
12.7304
 21
12.515
  0
LINE
  8
0
 10
12.7304
 20
12.515
 11
12.7133
 21
12.5286
  0
LINE
  8
0
 10
12.7133
 20
12.5286
 11
12.6965
 21
12.5424
  0
LINE
  8
0
 10
12.6965
 20
12.5424
 11
12.6799
 21
12.5566
  0
LINE
  8
0
 10
12.6799
 20
12.5566
 11
12.6636
 21
12.5711
  0
LINE
  8
0
 10
12.6636
 20
12.5711
 11
12.6475
 21
12.5858
  0
LINE
  8
0
 10
12.6475
 20
12.5858
 11
12.6317
 21
12.6008
  0
LINE
  8
0
 10
12.6317
 20
12.6008
 11
12.6161
 21
12.6161
  0
LINE
  8
0
 10
12.6161
 20
12.6161
 11
12.6008
 21
12.6317
  0
LINE
  8
0
 10
12.6008
 20
12.6317
 11
12.5858
 21
12.6475
  0
LINE
  8
0
 10
12.5858
 20
12.6475
 11
12.5711
 21
12.6636
  0
LINE
  8
0
 10
12.5711
 20
12.6636
 11
12.5566
 21
12.6799
  0
LINE
  8
0
 10
12.5566
 20
12.6799
 11
12.5424
 21
12.6965
  0
LINE
  8
0
 10
12.5424
 20
12.6965
 11
12.5286
 21
12.7133
  0
LINE
  8
0
 10
12.5286
 20
12.7133
 11
12.515
 21
12.7304
  0
LINE
  8
0
 10
12.515
 20
12.7304
 11
12.5017
 21
12.7477
  0
LINE
  8
0
 10
12.5017
 20
12.7477
 11
12.4887
 21
12.7653
  0
LINE
  8
0
 10
12.4887
 20
12.7653
 11
12.4761
 21
12.783
  0
LINE
  8
0
 10
12.4761
 20
12.783
 11
12.4637
 21
12.801
  0
LINE
  8
0
 10
12.4637
 20
12.801
 11
12.4517
 21
12.8192
  0
LINE
  8
0
 10
12.4517
 20
12.8192
 11
12.4399
 21
12.8376
  0
LINE
  8
0
 10
12.4399
 20
12.8376
 11
12.4285
 21
12.8562
  0
LINE
  8
0
 10
12.4285
 20
12.8562
 11
12.4175
 21
12.875
  0
LINE
  8
0
 10
12.4175
 20
12.875
 11
12.4067
 21
12.894
  0
LINE
  8
0
 10
12.4067
 20
12.894
 11
12.3963
 21
12.9131
  0
LINE
  8
0
 10
12.3963
 20
12.9131
 11
12.3862
 21
12.9325
  0
LINE
  8
0
 10
12.3862
 20
12.9325
 11
12.3765
 21
12.952
  0
LINE
  8
0
 10
12.3765
 20
12.952
 11
12.3671
 21
12.9717
  0
LINE
  8
0
 10
12.3671
 20
12.9717
 11
12.3581
 21
12.9916
  0
LINE
  8
0
 10
12.3581
 20
12.9916
 11
12.3494
 21
13.0116
  0
LINE
  8
0
 10
12.3494
 20
13.0116
 11
12.341
 21
13.0317
  0
LINE
  8
0
 10
12.341
 20
13.0317
 11
12.333
 21
13.052
  0
LINE
  8
0
 10
12.333
 20
13.052
 11
12.3254
 21
13.0725
  0
LINE
  8
0
 10
12.3254
 20
13.0725
 11
12.3181
 21
13.093
  0
LINE
  8
0
 10
12.3181
 20
13.093
 11
12.3112
 21
13.1137
  0
LINE
  8
0
 10
12.3112
 20
13.1137
 11
12.3046
 21
13.1345
  0
LINE
  8
0
 10
12.3046
 20
13.1345
 11
12.2984
 21
13.1554
  0
LINE
  8
0
 10
12.2984
 20
13.1554
 11
12.2926
 21
13.1765
  0
LINE
  8
0
 10
12.2926
 20
13.1765
 11
12.2871
 21
13.1976
  0
LINE
  8
0
 10
12.2871
 20
13.1976
 11
12.282
 21
13.2188
  0
LINE
  8
0
 10
12.282
 20
13.2188
 11
12.2773
 21
13.2401
  0
LINE
  8
0
 10
12.2773
 20
13.2401
 11
12.273
 21
13.2615
  0
LINE
  8
0
 10
12.273
 20
13.2615
 11
12.269
 21
13.2829
  0
LINE
  8
0
 10
12.269
 20
13.2829
 11
12.2654
 21
13.3044
  0
LINE
  8
0
 10
12.2654
 20
13.3044
 11
12.2622
 21
13.326
  0
LINE
  8
0
 10
12.2622
 20
13.326
 11
12.2593
 21
13.3477
  0
LINE
  8
0
 10
12.2593
 20
13.3477
 11
12.2568
 21
13.3693
  0
LINE
  8
0
 10
12.2568
 20
13.3693
 11
12.2547
 21
13.3911
  0
LINE
  8
0
 10
12.2547
 20
13.3911
 11
12.253
 21
13.4128
  0
LINE
  8
0
 10
12.253
 20
13.4128
 11
12.2517
 21
13.4346
  0
LINE
  8
0
 10
12.2517
 20
13.4346
 11
12.2507
 21
13.4564
  0
LINE
  8
0
 10
12.2507
 20
13.4564
 11
12.2502
 21
13.4782
  0
LINE
  8
0
 10
12.2502
 20
13.4782
 11
12.25
 21
13.5
  0
LINE
  8
0
 10
12.25
 20
13.5
 11
12.2502
 21
13.5218
  0
LINE
  8
0
 10
12.2502
 20
13.5218
 11
12.2507
 21
13.5436
  0
LINE
  8
0
 10
12.2507
 20
13.5436
 11
12.2517
 21
13.5654
  0
LINE
  8
0
 10
12.2517
 20
13.5654
 11
12.253
 21
13.5872
  0
LINE
  8
0
 10
12.253
 20
13.5872
 11
12.2547
 21
13.6089
  0
LINE
  8
0
 10
12.2547
 20
13.6089
 11
12.2568
 21
13.6306
  0
LINE
  8
0
 10
12.2568
 20
13.6306
 11
12.2593
 21
13.6523
  0
LINE
  8
0
 10
12.2593
 20
13.6523
 11
12.2622
 21
13.674
  0
LINE
  8
0
 10
12.2622
 20
13.674
 11
12.2654
 21
13.6955
  0
LINE
  8
0
 10
12.2654
 20
13.6955
 11
12.269
 21
13.7171
  0
LINE
  8
0
 10
12.269
 20
13.7171
 11
12.273
 21
13.7385
  0
LINE
  8
0
 10
12.273
 20
13.7385
 11
12.2773
 21
13.7599
  0
LINE
  8
0
 10
12.2773
 20
13.7599
 11
12.282
 21
13.7812
  0
LINE
  8
0
 10
12.282
 20
13.7812
 11
12.2871
 21
13.8024
  0
LINE
  8
0
 10
12.2871
 20
13.8024
 11
12.2926
 21
13.8235
  0
LINE
  8
0
 10
12.2926
 20
13.8235
 11
12.2984
 21
13.8445
  0
LINE
  8
0
 10
12.2984
 20
13.8445
 11
12.3046
 21
13.8655
  0
LINE
  8
0
 10
12.3046
 20
13.8655
 11
12.3112
 21
13.8863
  0
LINE
  8
0
 10
12.3112
 20
13.8863
 11
12.3181
 21
13.907
  0
LINE
  8
0
 10
12.3181
 20
13.907
 11
12.3254
 21
13.9275
  0
LINE
  8
0
 10
12.3254
 20
13.9275
 11
12.333
 21
13.948
  0
LINE
  8
0
 10
12.333
 20
13.948
 11
12.341
 21
13.9682
  0
LINE
  8
0
 10
12.341
 20
13.9682
 11
12.3494
 21
13.9884
  0
LINE
  8
0
 10
12.3494
 20
13.9884
 11
12.3581
 21
14.0084
  0
LINE
  8
0
 10
12.3581
 20
14.0084
 11
12.3671
 21
14.0283
  0
LINE
  8
0
 10
12.3671
 20
14.0283
 11
12.3765
 21
14.048
  0
LINE
  8
0
 10
12.3765
 20
14.048
 11
12.3862
 21
14.0675
  0
LINE
  8
0
 10
12.3862
 20
14.0675
 11
12.3963
 21
14.0868
  0
LINE
  8
0
 10
12.3963
 20
14.0868
 11
12.4067
 21
14.106
  0
LINE
  8
0
 10
12.4067
 20
14.106
 11
12.4175
 21
14.125
  0
LINE
  8
0
 10
12.4175
 20
14.125
 11
12.4285
 21
14.1438
  0
LINE
  8
0
 10
12.4285
 20
14.1438
 11
12.4399
 21
14.1624
  0
LINE
  8
0
 10
12.4399
 20
14.1624
 11
12.4517
 21
14.1808
  0
LINE
  8
0
 10
12.4517
 20
14.1808
 11
12.4637
 21
14.199
  0
LINE
  8
0
 10
12.4637
 20
14.199
 11
12.4761
 21
14.217
  0
LINE
  8
0
 10
12.4761
 20
14.217
 11
12.4887
 21
14.2347
  0
LINE
  8
0
 10
12.4887
 20
14.2347
 11
12.5017
 21
14.2523
  0
LINE
  8
0
 10
12.5017
 20
14.2523
 11
12.515
 21
14.2696
  0
LINE
  8
0
 10
12.515
 20
14.2696
 11
12.5286
 21
14.2866
  0
LINE
  8
0
 10
12.5286
 20
14.2866
 11
12.5424
 21
14.3035
  0
LINE
  8
0
 10
12.5424
 20
14.3035
 11
12.5566
 21
14.3201
  0
LINE
  8
0
 10
12.5566
 20
14.3201
 11
12.5711
 21
14.3364
  0
LINE
  8
0
 10
12.5711
 20
14.3364
 11
12.5858
 21
14.3525
  0
LINE
  8
0
 10
12.5858
 20
14.3525
 11
12.6008
 21
14.3683
  0
LINE
  8
0
 10
12.6008
 20
14.3683
 11
12.6161
 21
14.3839
  0
LINE
  8
0
 10
12.6161
 20
14.3839
 11
12.6317
 21
14.3992
  0
LINE
  8
0
 10
12.6317
 20
14.3992
 11
12.6475
 21
14.4142
  0
LINE
  8
0
 10
12.6475
 20
14.4142
 11
12.6636
 21
14.4289
  0
LINE
  8
0
 10
12.6636
 20
14.4289
 11
12.6799
 21
14.4434
  0
LINE
  8
0
 10
12.6799
 20
14.4434
 11
12.6965
 21
14.4576
  0
LINE
  8
0
 10
12.6965
 20
14.4576
 11
12.7133
 21
14.4714
  0
LINE
  8
0
 10
12.7133
 20
14.4714
 11
12.7304
 21
14.485
  0
LINE
  8
0
 10
12.7304
 20
14.485
 11
12.7477
 21
14.4983
  0
LINE
  8
0
 10
12.7477
 20
14.4983
 11
12.7653
 21
14.5113
  0
LINE
  8
0
 10
12.7653
 20
14.5113
 11
12.783
 21
14.5239
  0
LINE
  8
0
 10
12.783
 20
14.5239
 11
12.801
 21
14.5363
  0
LINE
  8
0
 10
12.801
 20
14.5363
 11
12.8192
 21
14.5483
  0
LINE
  8
0
 10
12.8192
 20
14.5483
 11
12.8376
 21
14.5601
  0
LINE
  8
0
 10
12.8376
 20
14.5601
 11
12.8562
 21
14.5715
  0
LINE
  8
0
 10
12.8562
 20
14.5715
 11
12.875
 21
14.5825
  0
LINE
  8
0
 10
12.875
 20
14.5825
 11
12.894
 21
14.5933
  0
LINE
  8
0
 10
12.894
 20
14.5933
 11
12.9131
 21
14.6037
  0
LINE
  8
0
 10
12.9131
 20
14.6037
 11
12.9325
 21
14.6138
  0
LINE
  8
0
 10
12.9325
 20
14.6138
 11
12.952
 21
14.6235
  0
LINE
  8
0
 10
12.952
 20
14.6235
 11
12.9717
 21
14.6329
  0
LINE
  8
0
 10
12.9717
 20
14.6329
 11
12.9916
 21
14.6419
  0
LINE
  8
0
 10
12.9916
 20
14.6419
 11
13.0116
 21
14.6506
  0
LINE
  8
0
 10
13.0116
 20
14.6506
 11
13.0317
 21
14.659
  0
LINE
  8
0
 10
13.0317
 20
14.659
 11
13.052
 21
14.667
  0
LINE
  8
0
 10
13.052
 20
14.667
 11
13.0725
 21
14.6746
  0
LINE
  8
0
 10
13.0725
 20
14.6746
 11
13.093
 21
14.6819
  0
LINE
  8
0
 10
13.093
 20
14.6819
 11
13.1137
 21
14.6888
  0
LINE
  8
0
 10
13.1137
 20
14.6888
 11
13.1345
 21
14.6954
  0
LINE
  8
0
 10
13.1345
 20
14.6954
 11
13.1554
 21
14.7016
  0
LINE
  8
0
 10
13.1554
 20
14.7016
 11
13.1765
 21
14.7074
  0
LINE
  8
0
 10
13.1765
 20
14.7074
 11
13.1976
 21
14.7129
  0
LINE
  8
0
 10
13.1976
 20
14.7129
 11
13.2188
 21
14.718
  0
LINE
  8
0
 10
13.2188
 20
14.718
 11
13.2401
 21
14.7227
  0
LINE
  8
0
 10
13.2401
 20
14.7227
 11
13.2615
 21
14.727
  0
LINE
  8
0
 10
13.2615
 20
14.727
 11
13.2829
 21
14.731
  0
LINE
  8
0
 10
13.2829
 20
14.731
 11
13.3044
 21
14.7346
  0
LINE
  8
0
 10
13.3044
 20
14.7346
 11
13.326
 21
14.7378
  0
LINE
  8
0
 10
13.326
 20
14.7378
 11
13.3477
 21
14.7407
  0
LINE
  8
0
 10
13.3477
 20
14.7407
 11
13.3693
 21
14.7431
  0
LINE
  8
0
 10
13.3693
 20
14.7431
 11
13.3911
 21
14.7452
  0
LINE
  8
0
 10
13.3911
 20
14.7452
 11
13.4128
 21
14.7469
  0
LINE
  8
0
 10
13.4128
 20
14.7469
 11
13.4346
 21
14.7483
  0
LINE
  8
0
 10
13.4346
 20
14.7483
 11
13.4564
 21
14.7492
  0
LINE
  8
0
 10
13.4564
 20
14.7492
 11
13.4782
 21
14.7498
  0
LINE
  8
0
 10
13.4782
 20
14.7498
 11
13.5
 21
14.75
  0
LINE
  8
0
 10
13.5
 20
14.75
 11
13.5218
 21
14.7498
  0
LINE
  8
0
 10
13.5218
 20
14.7498
 11
13.5436
 21
14.7492
  0
LINE
  8
0
 10
13.5436
 20
14.7492
 11
13.5654
 21
14.7483
  0
LINE
  8
0
 10
13.5654
 20
14.7483
 11
13.5872
 21
14.7469
  0
LINE
  8
0
 10
13.5872
 20
14.7469
 11
13.6089
 21
14.7452
  0
LINE
  8
0
 10
13.6089
 20
14.7452
 11
13.6306
 21
14.7431
  0
LINE
  8
0
 10
13.6306
 20
14.7431
 11
13.6523
 21
14.7407
  0
LINE
  8
0
 10
13.6523
 20
14.7407
 11
13.674
 21
14.7378
  0
LINE
  8
0
 10
13.674
 20
14.7378
 11
13.6955
 21
14.7346
  0
LINE
  8
0
 10
13.6955
 20
14.7346
 11
13.7171
 21
14.731
  0
LINE
  8
0
 10
13.7171
 20
14.731
 11
13.7385
 21
14.727
  0
LINE
  8
0
 10
13.7385
 20
14.727
 11
13.7599
 21
14.7227
  0
LINE
  8
0
 10
13.7599
 20
14.7227
 11
13.7812
 21
14.718
  0
LINE
  8
0
 10
13.7812
 20
14.718
 11
13.8024
 21
14.7129
  0
LINE
  8
0
 10
13.8024
 20
14.7129
 11
13.8235
 21
14.7074
  0
LINE
  8
0
 10
13.8235
 20
14.7074
 11
13.8445
 21
14.7016
  0
LINE
  8
0
 10
13.8445
 20
14.7016
 11
13.8655
 21
14.6954
  0
LINE
  8
0
 10
13.8655
 20
14.6954
 11
13.8863
 21
14.6888
  0
LINE
  8
0
 10
13.8863
 20
14.6888
 11
13.907
 21
14.6819
  0
LINE
  8
0
 10
13.907
 20
14.6819
 11
13.9275
 21
14.6746
  0
LINE
  8
0
 10
13.9275
 20
14.6746
 11
13.948
 21
14.667
  0
LINE
  8
0
 10
13.948
 20
14.667
 11
13.9682
 21
14.659
  0
LINE
  8
0
 10
13.9682
 20
14.659
 11
13.9884
 21
14.6506
  0
LINE
  8
0
 10
13.9884
 20
14.6506
 11
14.0084
 21
14.6419
  0
LINE
  8
0
 10
14.0084
 20
14.6419
 11
14.0283
 21
14.6329
  0
LINE
  8
0
 10
14.0283
 20
14.6329
 11
14.048
 21
14.6235
  0
LINE
  8
0
 10
14.048
 20
14.6235
 11
14.0675
 21
14.6138
  0
LINE
  8
0
 10
14.0675
 20
14.6138
 11
14.0868
 21
14.6037
  0
LINE
  8
0
 10
14.0868
 20
14.6037
 11
14.106
 21
14.5933
  0
LINE
  8
0
 10
14.106
 20
14.5933
 11
14.125
 21
14.5825
  0
LINE
  8
0
 10
14.125
 20
14.5825
 11
14.1438
 21
14.5715
  0
LINE
  8
0
 10
14.1438
 20
14.5715
 11
14.1624
 21
14.5601
  0
LINE
  8
0
 10
14.1624
 20
14.5601
 11
14.1808
 21
14.5483
  0
LINE
  8
0
 10
14.1808
 20
14.5483
 11
14.199
 21
14.5363
  0
LINE
  8
0
 10
14.199
 20
14.5363
 11
14.217
 21
14.5239
  0
LINE
  8
0
 10
14.217
 20
14.5239
 11
14.2347
 21
14.5113
  0
LINE
  8
0
 10
14.2347
 20
14.5113
 11
14.2523
 21
14.4983
  0
LINE
  8
0
 10
14.2523
 20
14.4983
 11
14.2696
 21
14.485
  0
LINE
  8
0
 10
14.2696
 20
14.485
 11
14.2866
 21
14.4714
  0
LINE
  8
0
 10
14.2866
 20
14.4714
 11
14.3035
 21
14.4576
  0
LINE
  8
0
 10
14.3035
 20
14.4576
 11
14.3201
 21
14.4434
  0
LINE
  8
0
 10
14.3201
 20
14.4434
 11
14.3364
 21
14.4289
  0
LINE
  8
0
 10
14.3364
 20
14.4289
 11
14.3525
 21
14.4142
  0
LINE
  8
0
 10
14.3525
 20
14.4142
 11
14.3683
 21
14.3992
  0
LINE
  8
0
 10
14.3683
 20
14.3992
 11
14.3839
 21
14.3839
  0
LINE
  8
0
 10
14.3839
 20
14.3839
 11
14.3992
 21
14.3683
  0
LINE
  8
0
 10
14.3992
 20
14.3683
 11
14.4142
 21
14.3525
  0
LINE
  8
0
 10
14.4142
 20
14.3525
 11
14.4289
 21
14.3364
  0
LINE
  8
0
 10
14.4289
 20
14.3364
 11
14.4434
 21
14.3201
  0
LINE
  8
0
 10
14.4434
 20
14.3201
 11
14.4576
 21
14.3035
  0
LINE
  8
0
 10
14.4576
 20
14.3035
 11
14.4714
 21
14.2866
  0
LINE
  8
0
 10
14.4714
 20
14.2866
 11
14.485
 21
14.2696
  0
LINE
  8
0
 10
14.485
 20
14.2696
 11
14.4983
 21
14.2523
  0
LINE
  8
0
 10
14.4983
 20
14.2523
 11
14.5113
 21
14.2347
  0
LINE
  8
0
 10
14.5113
 20
14.2347
 11
14.5239
 21
14.217
  0
LINE
  8
0
 10
14.5239
 20
14.217
 11
14.5363
 21
14.199
  0
LINE
  8
0
 10
14.5363
 20
14.199
 11
14.5483
 21
14.1808
  0
LINE
  8
0
 10
14.5483
 20
14.1808
 11
14.5601
 21
14.1624
  0
LINE
  8
0
 10
14.5601
 20
14.1624
 11
14.5715
 21
14.1438
  0
LINE
  8
0
 10
14.5715
 20
14.1438
 11
14.5825
 21
14.125
  0
LINE
  8
0
 10
14.5825
 20
14.125
 11
14.5933
 21
14.106
  0
LINE
  8
0
 10
14.5933
 20
14.106
 11
14.6037
 21
14.0868
  0
LINE
  8
0
 10
14.6037
 20
14.0868
 11
14.6138
 21
14.0675
  0
LINE
  8
0
 10
14.6138
 20
14.0675
 11
14.6235
 21
14.048
  0
LINE
  8
0
 10
14.6235
 20
14.048
 11
14.6329
 21
14.0283
  0
LINE
  8
0
 10
14.6329
 20
14.0283
 11
14.6419
 21
14.0084
  0
LINE
  8
0
 10
14.6419
 20
14.0084
 11
14.6506
 21
13.9884
  0
LINE
  8
0
 10
14.6506
 20
13.9884
 11
14.659
 21
13.9682
  0
LINE
  8
0
 10
14.659
 20
13.9682
 11
14.667
 21
13.948
  0
LINE
  8
0
 10
14.667
 20
13.948
 11
14.6746
 21
13.9275
  0
LINE
  8
0
 10
14.6746
 20
13.9275
 11
14.6819
 21
13.907
  0
LINE
  8
0
 10
14.6819
 20
13.907
 11
14.6888
 21
13.8863
  0
LINE
  8
0
 10
14.6888
 20
13.8863
 11
14.6954
 21
13.8655
  0
LINE
  8
0
 10
14.6954
 20
13.8655
 11
14.7016
 21
13.8445
  0
LINE
  8
0
 10
14.7016
 20
13.8445
 11
14.7074
 21
13.8235
  0
LINE
  8
0
 10
14.7074
 20
13.8235
 11
14.7129
 21
13.8024
  0
LINE
  8
0
 10
14.7129
 20
13.8024
 11
14.718
 21
13.7812
  0
LINE
  8
0
 10
14.718
 20
13.7812
 11
14.7227
 21
13.7599
  0
LINE
  8
0
 10
14.7227
 20
13.7599
 11
14.727
 21
13.7385
  0
LINE
  8
0
 10
14.727
 20
13.7385
 11
14.731
 21
13.7171
  0
LINE
  8
0
 10
14.731
 20
13.7171
 11
14.7346
 21
13.6955
  0
LINE
  8
0
 10
14.7346
 20
13.6955
 11
14.7378
 21
13.674
  0
LINE
  8
0
 10
14.7378
 20
13.674
 11
14.7407
 21
13.6523
  0
LINE
  8
0
 10
14.7407
 20
13.6523
 11
14.7431
 21
13.6306
  0
LINE
  8
0
 10
14.7431
 20
13.6306
 11
14.7452
 21
13.6089
  0
LINE
  8
0
 10
14.7452
 20
13.6089
 11
14.7469
 21
13.5872
  0
LINE
  8
0
 10
14.7469
 20
13.5872
 11
14.7483
 21
13.5654
  0
LINE
  8
0
 10
14.7483
 20
13.5654
 11
14.7492
 21
13.5436
  0
LINE
  8
0
 10
14.7492
 20
13.5436
 11
14.7498
 21
13.5218
  0
LINE
  8
0
 10
14.7498
 20
13.5218
 11
14.75
 21
13.5
  0
LINE
  8
0
 10
14.75
 20
13.5
 11
14.7498
 21
13.4782
  0
LINE
  8
0
 10
14.7498
 20
13.4782
 11
14.7492
 21
13.4564
  0
LINE
  8
0
 10
14.7492
 20
13.4564
 11
14.7483
 21
13.4346
  0
LINE
  8
0
 10
14.7483
 20
13.4346
 11
14.7469
 21
13.4128
  0
LINE
  8
0
 10
14.7469
 20
13.4128
 11
14.7452
 21
13.3911
  0
LINE
  8
0
 10
14.7452
 20
13.3911
 11
14.7431
 21
13.3693
  0
LINE
  8
0
 10
14.7431
 20
13.3693
 11
14.7407
 21
13.3477
  0
LINE
  8
0
 10
14.7407
 20
13.3477
 11
14.7378
 21
13.326
  0
LINE
  8
0
 10
14.7378
 20
13.326
 11
14.7346
 21
13.3044
  0
LINE
  8
0
 10
14.7346
 20
13.3044
 11
14.731
 21
13.2829
  0
LINE
  8
0
 10
14.731
 20
13.2829
 11
14.727
 21
13.2615
  0
LINE
  8
0
 10
14.727
 20
13.2615
 11
14.7227
 21
13.2401
  0
LINE
  8
0
 10
14.7227
 20
13.2401
 11
14.718
 21
13.2188
  0
LINE
  8
0
 10
14.718
 20
13.2188
 11
14.7129
 21
13.1976
  0
LINE
  8
0
 10
14.7129
 20
13.1976
 11
14.7074
 21
13.1765
  0
LINE
  8
0
 10
14.7074
 20
13.1765
 11
14.7016
 21
13.1554
  0
LINE
  8
0
 10
14.7016
 20
13.1554
 11
14.6954
 21
13.1345
  0
LINE
  8
0
 10
14.6954
 20
13.1345
 11
14.6888
 21
13.1137
  0
LINE
  8
0
 10
14.6888
 20
13.1137
 11
14.6819
 21
13.093
  0
LINE
  8
0
 10
14.6819
 20
13.093
 11
14.6746
 21
13.0725
  0
LINE
  8
0
 10
14.6746
 20
13.0725
 11
14.667
 21
13.052
  0
LINE
  8
0
 10
14.667
 20
13.052
 11
14.659
 21
13.0317
  0
LINE
  8
0
 10
14.659
 20
13.0317
 11
14.6506
 21
13.0116
  0
LINE
  8
0
 10
14.6506
 20
13.0116
 11
14.6419
 21
12.9916
  0
LINE
  8
0
 10
14.6419
 20
12.9916
 11
14.6329
 21
12.9717
  0
LINE
  8
0
 10
14.6329
 20
12.9717
 11
14.6235
 21
12.952
  0
LINE
  8
0
 10
14.6235
 20
12.952
 11
14.6138
 21
12.9325
  0
LINE
  8
0
 10
14.6138
 20
12.9325
 11
14.6037
 21
12.9131
  0
LINE
  8
0
 10
14.6037
 20
12.9131
 11
14.5933
 21
12.894
  0
LINE
  8
0
 10
14.5933
 20
12.894
 11
14.5825
 21
12.875
  0
LINE
  8
0
 10
14.5825
 20
12.875
 11
14.5715
 21
12.8562
  0
LINE
  8
0
 10
14.5715
 20
12.8562
 11
14.5601
 21
12.8376
  0
LINE
  8
0
 10
14.5601
 20
12.8376
 11
14.5483
 21
12.8192
  0
LINE
  8
0
 10
14.5483
 20
12.8192
 11
14.5363
 21
12.801
  0
LINE
  8
0
 10
14.5363
 20
12.801
 11
14.5239
 21
12.783
  0
LINE
  8
0
 10
14.5239
 20
12.783
 11
14.5113
 21
12.7653
  0
LINE
  8
0
 10
14.5113
 20
12.7653
 11
14.4983
 21
12.7477
  0
LINE
  8
0
 10
14.4983
 20
12.7477
 11
14.485
 21
12.7304
  0
LINE
  8
0
 10
14.485
 20
12.7304
 11
14.4714
 21
12.7133
  0
LINE
  8
0
 10
14.4714
 20
12.7133
 11
14.4576
 21
12.6965
  0
LINE
  8
0
 10
14.4576
 20
12.6965
 11
14.4434
 21
12.6799
  0
LINE
  8
0
 10
14.4434
 20
12.6799
 11
14.4289
 21
12.6636
  0
LINE
  8
0
 10
14.4289
 20
12.6636
 11
14.4142
 21
12.6475
  0
LINE
  8
0
 10
14.4142
 20
12.6475
 11
14.3992
 21
12.6317
  0
LINE
  8
0
 10
14.3992
 20
12.6317
 11
14.3839
 21
12.6161
  0
LINE
  8
0
 10
14.3839
 20
12.6161
 11
14.3683
 21
12.6008
  0
LINE
  8
0
 10
14.3683
 20
12.6008
 11
14.3525
 21
12.5858
  0
LINE
  8
0
 10
14.3525
 20
12.5858
 11
14.3364
 21
12.5711
  0
LINE
  8
0
 10
14.3364
 20
12.5711
 11
14.3201
 21
12.5566
  0
LINE
  8
0
 10
14.3201
 20
12.5566
 11
14.3035
 21
12.5424
  0
LINE
  8
0
 10
14.3035
 20
12.5424
 11
14.2866
 21
12.5286
  0
LINE
  8
0
 10
14.2866
 20
12.5286
 11
14.2696
 21
12.515
  0
LINE
  8
0
 10
14.2696
 20
12.515
 11
14.2523
 21
12.5017
  0
LINE
  8
0
 10
14.2523
 20
12.5017
 11
14.2347
 21
12.4887
  0
LINE
  8
0
 10
14.2347
 20
12.4887
 11
14.217
 21
12.4761
  0
LINE
  8
0
 10
14.217
 20
12.4761
 11
14.199
 21
12.4637
  0
LINE
  8
0
 10
14.199
 20
12.4637
 11
14.1808
 21
12.4517
  0
LINE
  8
0
 10
14.1808
 20
12.4517
 11
14.1624
 21
12.4399
  0
LINE
  8
0
 10
14.1624
 20
12.4399
 11
14.1438
 21
12.4285
  0
LINE
  8
0
 10
14.1438
 20
12.4285
 11
14.125
 21
12.4175
  0
LINE
  8
0
 10
14.125
 20
12.4175
 11
14.106
 21
12.4067
  0
LINE
  8
0
 10
14.106
 20
12.4067
 11
14.0868
 21
12.3963
  0
LINE
  8
0
 10
14.0868
 20
12.3963
 11
14.0675
 21
12.3862
  0
LINE
  8
0
 10
14.0675
 20
12.3862
 11
14.048
 21
12.3765
  0
LINE
  8
0
 10
14.048
 20
12.3765
 11
14.0283
 21
12.3671
  0
LINE
  8
0
 10
14.0283
 20
12.3671
 11
14.0084
 21
12.3581
  0
LINE
  8
0
 10
14.0084
 20
12.3581
 11
13.9884
 21
12.3494
  0
LINE
  8
0
 10
13.9884
 20
12.3494
 11
13.9682
 21
12.341
  0
LINE
  8
0
 10
13.9682
 20
12.341
 11
13.948
 21
12.333
  0
LINE
  8
0
 10
13.948
 20
12.333
 11
13.9275
 21
12.3254
  0
LINE
  8
0
 10
13.9275
 20
12.3254
 11
13.907
 21
12.3181
  0
LINE
  8
0
 10
13.907
 20
12.3181
 11
13.8863
 21
12.3112
  0
LINE
  8
0
 10
13.8863
 20
12.3112
 11
13.8655
 21
12.3046
  0
LINE
  8
0
 10
13.8655
 20
12.3046
 11
13.8445
 21
12.2984
  0
LINE
  8
0
 10
13.8445
 20
12.2984
 11
13.8235
 21
12.2926
  0
LINE
  8
0
 10
13.8235
 20
12.2926
 11
13.8024
 21
12.2871
  0
LINE
  8
0
 10
13.8024
 20
12.2871
 11
13.7812
 21
12.282
  0
LINE
  8
0
 10
13.7812
 20
12.282
 11
13.7599
 21
12.2773
  0
LINE
  8
0
 10
13.7599
 20
12.2773
 11
13.7385
 21
12.273
  0
LINE
  8
0
 10
13.7385
 20
12.273
 11
13.7171
 21
12.269
  0
LINE
  8
0
 10
13.7171
 20
12.269
 11
13.6955
 21
12.2654
  0
LINE
  8
0
 10
13.6955
 20
12.2654
 11
13.674
 21
12.2622
  0
LINE
  8
0
 10
13.674
 20
12.2622
 11
13.6523
 21
12.2593
  0
LINE
  8
0
 10
13.6523
 20
12.2593
 11
13.6306
 21
12.2568
  0
LINE
  8
0
 10
13.6306
 20
12.2568
 11
13.6089
 21
12.2547
  0
LINE
  8
0
 10
13.6089
 20
12.2547
 11
13.5872
 21
12.253
  0
LINE
  8
0
 10
13.5872
 20
12.253
 11
13.5654
 21
12.2517
  0
LINE
  8
0
 10
13.5654
 20
12.2517
 11
13.5436
 21
12.2507
  0
LINE
  8
0
 10
13.5436
 20
12.2507
 11
13.5218
 21
12.2502
  0
LINE
  8
0
 10
13.5218
 20
12.2502
 11
13.5
 21
12.25
  0
LINE
  8
0
 10
13.5
 20
12.25
 11
13.4782
 21
12.2502
  0
LINE
  8
0
 10
80.4782
 20
12.2502
 11
80.4564
 21
12.2507
  0
LINE
  8
0
 10
80.4564
 20
12.2507
 11
80.4346
 21
12.2517
  0
LINE
  8
0
 10
80.4346
 20
12.2517
 11
80.4128
 21
12.253
  0
LINE
  8
0
 10
80.4128
 20
12.253
 11
80.3911
 21
12.2547
  0
LINE
  8
0
 10
80.3911
 20
12.2547
 11
80.3693
 21
12.2568
  0
LINE
  8
0
 10
80.3693
 20
12.2568
 11
80.3477
 21
12.2593
  0
LINE
  8
0
 10
80.3477
 20
12.2593
 11
80.326
 21
12.2622
  0
LINE
  8
0
 10
80.326
 20
12.2622
 11
80.3044
 21
12.2654
  0
LINE
  8
0
 10
80.3044
 20
12.2654
 11
80.2829
 21
12.269
  0
LINE
  8
0
 10
80.2829
 20
12.269
 11
80.2615
 21
12.273
  0
LINE
  8
0
 10
80.2615
 20
12.273
 11
80.2401
 21
12.2773
  0
LINE
  8
0
 10
80.2401
 20
12.2773
 11
80.2188
 21
12.282
  0
LINE
  8
0
 10
80.2188
 20
12.282
 11
80.1976
 21
12.2871
  0
LINE
  8
0
 10
80.1976
 20
12.2871
 11
80.1765
 21
12.2926
  0
LINE
  8
0
 10
80.1765
 20
12.2926
 11
80.1554
 21
12.2984
  0
LINE
  8
0
 10
80.1554
 20
12.2984
 11
80.1345
 21
12.3046
  0
LINE
  8
0
 10
80.1345
 20
12.3046
 11
80.1137
 21
12.3112
  0
LINE
  8
0
 10
80.1137
 20
12.3112
 11
80.093
 21
12.3181
  0
LINE
  8
0
 10
80.093
 20
12.3181
 11
80.0725
 21
12.3254
  0
LINE
  8
0
 10
80.0725
 20
12.3254
 11
80.052
 21
12.333
  0
LINE
  8
0
 10
80.052
 20
12.333
 11
80.0317
 21
12.341
  0
LINE
  8
0
 10
80.0317
 20
12.341
 11
80.0116
 21
12.3494
  0
LINE
  8
0
 10
80.0116
 20
12.3494
 11
79.9916
 21
12.3581
  0
LINE
  8
0
 10
79.9916
 20
12.3581
 11
79.9717
 21
12.3671
  0
LINE
  8
0
 10
79.9717
 20
12.3671
 11
79.952
 21
12.3765
  0
LINE
  8
0
 10
79.952
 20
12.3765
 11
79.9325
 21
12.3862
  0
LINE
  8
0
 10
79.9325
 20
12.3862
 11
79.9131
 21
12.3963
  0
LINE
  8
0
 10
79.9131
 20
12.3963
 11
79.894
 21
12.4067
  0
LINE
  8
0
 10
79.894
 20
12.4067
 11
79.875
 21
12.4175
  0
LINE
  8
0
 10
79.875
 20
12.4175
 11
79.8562
 21
12.4285
  0
LINE
  8
0
 10
79.8562
 20
12.4285
 11
79.8376
 21
12.4399
  0
LINE
  8
0
 10
79.8376
 20
12.4399
 11
79.8192
 21
12.4517
  0
LINE
  8
0
 10
79.8192
 20
12.4517
 11
79.801
 21
12.4637
  0
LINE
  8
0
 10
79.801
 20
12.4637
 11
79.783
 21
12.4761
  0
LINE
  8
0
 10
79.783
 20
12.4761
 11
79.7653
 21
12.4887
  0
LINE
  8
0
 10
79.7653
 20
12.4887
 11
79.7477
 21
12.5017
  0
LINE
  8
0
 10
79.7477
 20
12.5017
 11
79.7304
 21
12.515
  0
LINE
  8
0
 10
79.7304
 20
12.515
 11
79.7133
 21
12.5286
  0
LINE
  8
0
 10
79.7133
 20
12.5286
 11
79.6965
 21
12.5424
  0
LINE
  8
0
 10
79.6965
 20
12.5424
 11
79.6799
 21
12.5566
  0
LINE
  8
0
 10
79.6799
 20
12.5566
 11
79.6636
 21
12.5711
  0
LINE
  8
0
 10
79.6636
 20
12.5711
 11
79.6475
 21
12.5858
  0
LINE
  8
0
 10
79.6475
 20
12.5858
 11
79.6317
 21
12.6008
  0
LINE
  8
0
 10
79.6317
 20
12.6008
 11
79.6161
 21
12.6161
  0
LINE
  8
0
 10
79.6161
 20
12.6161
 11
79.6008
 21
12.6317
  0
LINE
  8
0
 10
79.6008
 20
12.6317
 11
79.5858
 21
12.6475
  0
LINE
  8
0
 10
79.5858
 20
12.6475
 11
79.5711
 21
12.6636
  0
LINE
  8
0
 10
79.5711
 20
12.6636
 11
79.5566
 21
12.6799
  0
LINE
  8
0
 10
79.5566
 20
12.6799
 11
79.5424
 21
12.6965
  0
LINE
  8
0
 10
79.5424
 20
12.6965
 11
79.5286
 21
12.7133
  0
LINE
  8
0
 10
79.5286
 20
12.7133
 11
79.515
 21
12.7304
  0
LINE
  8
0
 10
79.515
 20
12.7304
 11
79.5017
 21
12.7477
  0
LINE
  8
0
 10
79.5017
 20
12.7477
 11
79.4887
 21
12.7653
  0
LINE
  8
0
 10
79.4887
 20
12.7653
 11
79.4761
 21
12.783
  0
LINE
  8
0
 10
79.4761
 20
12.783
 11
79.4637
 21
12.801
  0
LINE
  8
0
 10
79.4637
 20
12.801
 11
79.4517
 21
12.8192
  0
LINE
  8
0
 10
79.4517
 20
12.8192
 11
79.4399
 21
12.8376
  0
LINE
  8
0
 10
79.4399
 20
12.8376
 11
79.4285
 21
12.8562
  0
LINE
  8
0
 10
79.4285
 20
12.8562
 11
79.4175
 21
12.875
  0
LINE
  8
0
 10
79.4175
 20
12.875
 11
79.4067
 21
12.894
  0
LINE
  8
0
 10
79.4067
 20
12.894
 11
79.3963
 21
12.9131
  0
LINE
  8
0
 10
79.3963
 20
12.9131
 11
79.3862
 21
12.9325
  0
LINE
  8
0
 10
79.3862
 20
12.9325
 11
79.3765
 21
12.952
  0
LINE
  8
0
 10
79.3765
 20
12.952
 11
79.3671
 21
12.9717
  0
LINE
  8
0
 10
79.3671
 20
12.9717
 11
79.3581
 21
12.9916
  0
LINE
  8
0
 10
79.3581
 20
12.9916
 11
79.3494
 21
13.0116
  0
LINE
  8
0
 10
79.3494
 20
13.0116
 11
79.341
 21
13.0317
  0
LINE
  8
0
 10
79.341
 20
13.0317
 11
79.333
 21
13.052
  0
LINE
  8
0
 10
79.333
 20
13.052
 11
79.3254
 21
13.0725
  0
LINE
  8
0
 10
79.3254
 20
13.0725
 11
79.3181
 21
13.093
  0
LINE
  8
0
 10
79.3181
 20
13.093
 11
79.3112
 21
13.1137
  0
LINE
  8
0
 10
79.3112
 20
13.1137
 11
79.3046
 21
13.1345
  0
LINE
  8
0
 10
79.3046
 20
13.1345
 11
79.2984
 21
13.1554
  0
LINE
  8
0
 10
79.2984
 20
13.1554
 11
79.2926
 21
13.1765
  0
LINE
  8
0
 10
79.2926
 20
13.1765
 11
79.2871
 21
13.1976
  0
LINE
  8
0
 10
79.2871
 20
13.1976
 11
79.282
 21
13.2188
  0
LINE
  8
0
 10
79.282
 20
13.2188
 11
79.2773
 21
13.2401
  0
LINE
  8
0
 10
79.2773
 20
13.2401
 11
79.273
 21
13.2615
  0
LINE
  8
0
 10
79.273
 20
13.2615
 11
79.269
 21
13.2829
  0
LINE
  8
0
 10
79.269
 20
13.2829
 11
79.2654
 21
13.3044
  0
LINE
  8
0
 10
79.2654
 20
13.3044
 11
79.2622
 21
13.326
  0
LINE
  8
0
 10
79.2622
 20
13.326
 11
79.2593
 21
13.3477
  0
LINE
  8
0
 10
79.2593
 20
13.3477
 11
79.2568
 21
13.3693
  0
LINE
  8
0
 10
79.2568
 20
13.3693
 11
79.2547
 21
13.3911
  0
LINE
  8
0
 10
79.2547
 20
13.3911
 11
79.253
 21
13.4128
  0
LINE
  8
0
 10
79.253
 20
13.4128
 11
79.2517
 21
13.4346
  0
LINE
  8
0
 10
79.2517
 20
13.4346
 11
79.2507
 21
13.4564
  0
LINE
  8
0
 10
79.2507
 20
13.4564
 11
79.2502
 21
13.4782
  0
LINE
  8
0
 10
79.2502
 20
13.4782
 11
79.25
 21
13.5
  0
LINE
  8
0
 10
79.25
 20
13.5
 11
79.2502
 21
13.5218
  0
LINE
  8
0
 10
79.2502
 20
13.5218
 11
79.2507
 21
13.5436
  0
LINE
  8
0
 10
79.2507
 20
13.5436
 11
79.2517
 21
13.5654
  0
LINE
  8
0
 10
79.2517
 20
13.5654
 11
79.253
 21
13.5872
  0
LINE
  8
0
 10
79.253
 20
13.5872
 11
79.2547
 21
13.6089
  0
LINE
  8
0
 10
79.2547
 20
13.6089
 11
79.2568
 21
13.6306
  0
LINE
  8
0
 10
79.2568
 20
13.6306
 11
79.2593
 21
13.6523
  0
LINE
  8
0
 10
79.2593
 20
13.6523
 11
79.2622
 21
13.674
  0
LINE
  8
0
 10
79.2622
 20
13.674
 11
79.2654
 21
13.6955
  0
LINE
  8
0
 10
79.2654
 20
13.6955
 11
79.269
 21
13.7171
  0
LINE
  8
0
 10
79.269
 20
13.7171
 11
79.273
 21
13.7385
  0
LINE
  8
0
 10
79.273
 20
13.7385
 11
79.2773
 21
13.7599
  0
LINE
  8
0
 10
79.2773
 20
13.7599
 11
79.282
 21
13.7812
  0
LINE
  8
0
 10
79.282
 20
13.7812
 11
79.2871
 21
13.8024
  0
LINE
  8
0
 10
79.2871
 20
13.8024
 11
79.2926
 21
13.8235
  0
LINE
  8
0
 10
79.2926
 20
13.8235
 11
79.2984
 21
13.8445
  0
LINE
  8
0
 10
79.2984
 20
13.8445
 11
79.3046
 21
13.8655
  0
LINE
  8
0
 10
79.3046
 20
13.8655
 11
79.3112
 21
13.8863
  0
LINE
  8
0
 10
79.3112
 20
13.8863
 11
79.3181
 21
13.907
  0
LINE
  8
0
 10
79.3181
 20
13.907
 11
79.3254
 21
13.9275
  0
LINE
  8
0
 10
79.3254
 20
13.9275
 11
79.333
 21
13.948
  0
LINE
  8
0
 10
79.333
 20
13.948
 11
79.341
 21
13.9682
  0
LINE
  8
0
 10
79.341
 20
13.9682
 11
79.3494
 21
13.9884
  0
LINE
  8
0
 10
79.3494
 20
13.9884
 11
79.3581
 21
14.0084
  0
LINE
  8
0
 10
79.3581
 20
14.0084
 11
79.3671
 21
14.0283
  0
LINE
  8
0
 10
79.3671
 20
14.0283
 11
79.3765
 21
14.048
  0
LINE
  8
0
 10
79.3765
 20
14.048
 11
79.3862
 21
14.0675
  0
LINE
  8
0
 10
79.3862
 20
14.0675
 11
79.3963
 21
14.0868
  0
LINE
  8
0
 10
79.3963
 20
14.0868
 11
79.4067
 21
14.106
  0
LINE
  8
0
 10
79.4067
 20
14.106
 11
79.4175
 21
14.125
  0
LINE
  8
0
 10
79.4175
 20
14.125
 11
79.4285
 21
14.1438
  0
LINE
  8
0
 10
79.4285
 20
14.1438
 11
79.4399
 21
14.1624
  0
LINE
  8
0
 10
79.4399
 20
14.1624
 11
79.4517
 21
14.1808
  0
LINE
  8
0
 10
79.4517
 20
14.1808
 11
79.4637
 21
14.199
  0
LINE
  8
0
 10
79.4637
 20
14.199
 11
79.4761
 21
14.217
  0
LINE
  8
0
 10
79.4761
 20
14.217
 11
79.4887
 21
14.2347
  0
LINE
  8
0
 10
79.4887
 20
14.2347
 11
79.5017
 21
14.2523
  0
LINE
  8
0
 10
79.5017
 20
14.2523
 11
79.515
 21
14.2696
  0
LINE
  8
0
 10
79.515
 20
14.2696
 11
79.5286
 21
14.2866
  0
LINE
  8
0
 10
79.5286
 20
14.2866
 11
79.5424
 21
14.3035
  0
LINE
  8
0
 10
79.5424
 20
14.3035
 11
79.5566
 21
14.3201
  0
LINE
  8
0
 10
79.5566
 20
14.3201
 11
79.5711
 21
14.3364
  0
LINE
  8
0
 10
79.5711
 20
14.3364
 11
79.5858
 21
14.3525
  0
LINE
  8
0
 10
79.5858
 20
14.3525
 11
79.6008
 21
14.3683
  0
LINE
  8
0
 10
79.6008
 20
14.3683
 11
79.6161
 21
14.3839
  0
LINE
  8
0
 10
79.6161
 20
14.3839
 11
79.6317
 21
14.3992
  0
LINE
  8
0
 10
79.6317
 20
14.3992
 11
79.6475
 21
14.4142
  0
LINE
  8
0
 10
79.6475
 20
14.4142
 11
79.6636
 21
14.4289
  0
LINE
  8
0
 10
79.6636
 20
14.4289
 11
79.6799
 21
14.4434
  0
LINE
  8
0
 10
79.6799
 20
14.4434
 11
79.6965
 21
14.4576
  0
LINE
  8
0
 10
79.6965
 20
14.4576
 11
79.7133
 21
14.4714
  0
LINE
  8
0
 10
79.7133
 20
14.4714
 11
79.7304
 21
14.485
  0
LINE
  8
0
 10
79.7304
 20
14.485
 11
79.7477
 21
14.4983
  0
LINE
  8
0
 10
79.7477
 20
14.4983
 11
79.7653
 21
14.5113
  0
LINE
  8
0
 10
79.7653
 20
14.5113
 11
79.783
 21
14.5239
  0
LINE
  8
0
 10
79.783
 20
14.5239
 11
79.801
 21
14.5363
  0
LINE
  8
0
 10
79.801
 20
14.5363
 11
79.8192
 21
14.5483
  0
LINE
  8
0
 10
79.8192
 20
14.5483
 11
79.8376
 21
14.5601
  0
LINE
  8
0
 10
79.8376
 20
14.5601
 11
79.8562
 21
14.5715
  0
LINE
  8
0
 10
79.8562
 20
14.5715
 11
79.875
 21
14.5825
  0
LINE
  8
0
 10
79.875
 20
14.5825
 11
79.894
 21
14.5933
  0
LINE
  8
0
 10
79.894
 20
14.5933
 11
79.9131
 21
14.6037
  0
LINE
  8
0
 10
79.9131
 20
14.6037
 11
79.9325
 21
14.6138
  0
LINE
  8
0
 10
79.9325
 20
14.6138
 11
79.952
 21
14.6235
  0
LINE
  8
0
 10
79.952
 20
14.6235
 11
79.9717
 21
14.6329
  0
LINE
  8
0
 10
79.9717
 20
14.6329
 11
79.9916
 21
14.6419
  0
LINE
  8
0
 10
79.9916
 20
14.6419
 11
80.0116
 21
14.6506
  0
LINE
  8
0
 10
80.0116
 20
14.6506
 11
80.0317
 21
14.659
  0
LINE
  8
0
 10
80.0317
 20
14.659
 11
80.052
 21
14.667
  0
LINE
  8
0
 10
80.052
 20
14.667
 11
80.0725
 21
14.6746
  0
LINE
  8
0
 10
80.0725
 20
14.6746
 11
80.093
 21
14.6819
  0
LINE
  8
0
 10
80.093
 20
14.6819
 11
80.1137
 21
14.6888
  0
LINE
  8
0
 10
80.1137
 20
14.6888
 11
80.1345
 21
14.6954
  0
LINE
  8
0
 10
80.1345
 20
14.6954
 11
80.1554
 21
14.7016
  0
LINE
  8
0
 10
80.1554
 20
14.7016
 11
80.1765
 21
14.7074
  0
LINE
  8
0
 10
80.1765
 20
14.7074
 11
80.1976
 21
14.7129
  0
LINE
  8
0
 10
80.1976
 20
14.7129
 11
80.2188
 21
14.718
  0
LINE
  8
0
 10
80.2188
 20
14.718
 11
80.2401
 21
14.7227
  0
LINE
  8
0
 10
80.2401
 20
14.7227
 11
80.2615
 21
14.727
  0
LINE
  8
0
 10
80.2615
 20
14.727
 11
80.2829
 21
14.731
  0
LINE
  8
0
 10
80.2829
 20
14.731
 11
80.3044
 21
14.7346
  0
LINE
  8
0
 10
80.3044
 20
14.7346
 11
80.326
 21
14.7378
  0
LINE
  8
0
 10
80.326
 20
14.7378
 11
80.3477
 21
14.7407
  0
LINE
  8
0
 10
80.3477
 20
14.7407
 11
80.3693
 21
14.7431
  0
LINE
  8
0
 10
80.3693
 20
14.7431
 11
80.3911
 21
14.7452
  0
LINE
  8
0
 10
80.3911
 20
14.7452
 11
80.4128
 21
14.7469
  0
LINE
  8
0
 10
80.4128
 20
14.7469
 11
80.4346
 21
14.7483
  0
LINE
  8
0
 10
80.4346
 20
14.7483
 11
80.4564
 21
14.7492
  0
LINE
  8
0
 10
80.4564
 20
14.7492
 11
80.4782
 21
14.7498
  0
LINE
  8
0
 10
80.4782
 20
14.7498
 11
80.5
 21
14.75
  0
LINE
  8
0
 10
80.5
 20
14.75
 11
80.5218
 21
14.7498
  0
LINE
  8
0
 10
80.5218
 20
14.7498
 11
80.5436
 21
14.7492
  0
LINE
  8
0
 10
80.5436
 20
14.7492
 11
80.5654
 21
14.7483
  0
LINE
  8
0
 10
80.5654
 20
14.7483
 11
80.5872
 21
14.7469
  0
LINE
  8
0
 10
80.5872
 20
14.7469
 11
80.6089
 21
14.7452
  0
LINE
  8
0
 10
80.6089
 20
14.7452
 11
80.6306
 21
14.7431
  0
LINE
  8
0
 10
80.6306
 20
14.7431
 11
80.6523
 21
14.7407
  0
LINE
  8
0
 10
80.6523
 20
14.7407
 11
80.674
 21
14.7378
  0
LINE
  8
0
 10
80.674
 20
14.7378
 11
80.6955
 21
14.7346
  0
LINE
  8
0
 10
80.6955
 20
14.7346
 11
80.7171
 21
14.731
  0
LINE
  8
0
 10
80.7171
 20
14.731
 11
80.7385
 21
14.727
  0
LINE
  8
0
 10
80.7385
 20
14.727
 11
80.7599
 21
14.7227
  0
LINE
  8
0
 10
80.7599
 20
14.7227
 11
80.7812
 21
14.718
  0
LINE
  8
0
 10
80.7812
 20
14.718
 11
80.8024
 21
14.7129
  0
LINE
  8
0
 10
80.8024
 20
14.7129
 11
80.8235
 21
14.7074
  0
LINE
  8
0
 10
80.8235
 20
14.7074
 11
80.8445
 21
14.7016
  0
LINE
  8
0
 10
80.8445
 20
14.7016
 11
80.8655
 21
14.6954
  0
LINE
  8
0
 10
80.8655
 20
14.6954
 11
80.8863
 21
14.6888
  0
LINE
  8
0
 10
80.8863
 20
14.6888
 11
80.907
 21
14.6819
  0
LINE
  8
0
 10
80.907
 20
14.6819
 11
80.9275
 21
14.6746
  0
LINE
  8
0
 10
80.9275
 20
14.6746
 11
80.948
 21
14.667
  0
LINE
  8
0
 10
80.948
 20
14.667
 11
80.9682
 21
14.659
  0
LINE
  8
0
 10
80.9682
 20
14.659
 11
80.9884
 21
14.6506
  0
LINE
  8
0
 10
80.9884
 20
14.6506
 11
81.0084
 21
14.6419
  0
LINE
  8
0
 10
81.0084
 20
14.6419
 11
81.0283
 21
14.6329
  0
LINE
  8
0
 10
81.0283
 20
14.6329
 11
81.048
 21
14.6235
  0
LINE
  8
0
 10
81.048
 20
14.6235
 11
81.0675
 21
14.6138
  0
LINE
  8
0
 10
81.0675
 20
14.6138
 11
81.0868
 21
14.6037
  0
LINE
  8
0
 10
81.0868
 20
14.6037
 11
81.106
 21
14.5933
  0
LINE
  8
0
 10
81.106
 20
14.5933
 11
81.125
 21
14.5825
  0
LINE
  8
0
 10
81.125
 20
14.5825
 11
81.1438
 21
14.5715
  0
LINE
  8
0
 10
81.1438
 20
14.5715
 11
81.1624
 21
14.5601
  0
LINE
  8
0
 10
81.1624
 20
14.5601
 11
81.1808
 21
14.5483
  0
LINE
  8
0
 10
81.1808
 20
14.5483
 11
81.199
 21
14.5363
  0
LINE
  8
0
 10
81.199
 20
14.5363
 11
81.217
 21
14.5239
  0
LINE
  8
0
 10
81.217
 20
14.5239
 11
81.2347
 21
14.5113
  0
LINE
  8
0
 10
81.2347
 20
14.5113
 11
81.2523
 21
14.4983
  0
LINE
  8
0
 10
81.2523
 20
14.4983
 11
81.2696
 21
14.485
  0
LINE
  8
0
 10
81.2696
 20
14.485
 11
81.2866
 21
14.4714
  0
LINE
  8
0
 10
81.2866
 20
14.4714
 11
81.3035
 21
14.4576
  0
LINE
  8
0
 10
81.3035
 20
14.4576
 11
81.3201
 21
14.4434
  0
LINE
  8
0
 10
81.3201
 20
14.4434
 11
81.3364
 21
14.4289
  0
LINE
  8
0
 10
81.3364
 20
14.4289
 11
81.3525
 21
14.4142
  0
LINE
  8
0
 10
81.3525
 20
14.4142
 11
81.3683
 21
14.3992
  0
LINE
  8
0
 10
81.3683
 20
14.3992
 11
81.3839
 21
14.3839
  0
LINE
  8
0
 10
81.3839
 20
14.3839
 11
81.3992
 21
14.3683
  0
LINE
  8
0
 10
81.3992
 20
14.3683
 11
81.4142
 21
14.3525
  0
LINE
  8
0
 10
81.4142
 20
14.3525
 11
81.4289
 21
14.3364
  0
LINE
  8
0
 10
81.4289
 20
14.3364
 11
81.4434
 21
14.3201
  0
LINE
  8
0
 10
81.4434
 20
14.3201
 11
81.4576
 21
14.3035
  0
LINE
  8
0
 10
81.4576
 20
14.3035
 11
81.4714
 21
14.2866
  0
LINE
  8
0
 10
81.4714
 20
14.2866
 11
81.485
 21
14.2696
  0
LINE
  8
0
 10
81.485
 20
14.2696
 11
81.4983
 21
14.2523
  0
LINE
  8
0
 10
81.4983
 20
14.2523
 11
81.5113
 21
14.2347
  0
LINE
  8
0
 10
81.5113
 20
14.2347
 11
81.5239
 21
14.217
  0
LINE
  8
0
 10
81.5239
 20
14.217
 11
81.5363
 21
14.199
  0
LINE
  8
0
 10
81.5363
 20
14.199
 11
81.5483
 21
14.1808
  0
LINE
  8
0
 10
81.5483
 20
14.1808
 11
81.5601
 21
14.1624
  0
LINE
  8
0
 10
81.5601
 20
14.1624
 11
81.5715
 21
14.1438
  0
LINE
  8
0
 10
81.5715
 20
14.1438
 11
81.5825
 21
14.125
  0
LINE
  8
0
 10
81.5825
 20
14.125
 11
81.5933
 21
14.106
  0
LINE
  8
0
 10
81.5933
 20
14.106
 11
81.6037
 21
14.0868
  0
LINE
  8
0
 10
81.6037
 20
14.0868
 11
81.6138
 21
14.0675
  0
LINE
  8
0
 10
81.6138
 20
14.0675
 11
81.6235
 21
14.048
  0
LINE
  8
0
 10
81.6235
 20
14.048
 11
81.6329
 21
14.0283
  0
LINE
  8
0
 10
81.6329
 20
14.0283
 11
81.6419
 21
14.0084
  0
LINE
  8
0
 10
81.6419
 20
14.0084
 11
81.6506
 21
13.9884
  0
LINE
  8
0
 10
81.6506
 20
13.9884
 11
81.659
 21
13.9682
  0
LINE
  8
0
 10
81.659
 20
13.9682
 11
81.667
 21
13.948
  0
LINE
  8
0
 10
81.667
 20
13.948
 11
81.6746
 21
13.9275
  0
LINE
  8
0
 10
81.6746
 20
13.9275
 11
81.6819
 21
13.907
  0
LINE
  8
0
 10
81.6819
 20
13.907
 11
81.6888
 21
13.8863
  0
LINE
  8
0
 10
81.6888
 20
13.8863
 11
81.6954
 21
13.8655
  0
LINE
  8
0
 10
81.6954
 20
13.8655
 11
81.7016
 21
13.8445
  0
LINE
  8
0
 10
81.7016
 20
13.8445
 11
81.7074
 21
13.8235
  0
LINE
  8
0
 10
81.7074
 20
13.8235
 11
81.7129
 21
13.8024
  0
LINE
  8
0
 10
81.7129
 20
13.8024
 11
81.718
 21
13.7812
  0
LINE
  8
0
 10
81.718
 20
13.7812
 11
81.7227
 21
13.7599
  0
LINE
  8
0
 10
81.7227
 20
13.7599
 11
81.727
 21
13.7385
  0
LINE
  8
0
 10
81.727
 20
13.7385
 11
81.731
 21
13.7171
  0
LINE
  8
0
 10
81.731
 20
13.7171
 11
81.7346
 21
13.6955
  0
LINE
  8
0
 10
81.7346
 20
13.6955
 11
81.7378
 21
13.674
  0
LINE
  8
0
 10
81.7378
 20
13.674
 11
81.7407
 21
13.6523
  0
LINE
  8
0
 10
81.7407
 20
13.6523
 11
81.7431
 21
13.6306
  0
LINE
  8
0
 10
81.7431
 20
13.6306
 11
81.7452
 21
13.6089
  0
LINE
  8
0
 10
81.7452
 20
13.6089
 11
81.7469
 21
13.5872
  0
LINE
  8
0
 10
81.7469
 20
13.5872
 11
81.7483
 21
13.5654
  0
LINE
  8
0
 10
81.7483
 20
13.5654
 11
81.7492
 21
13.5436
  0
LINE
  8
0
 10
81.7492
 20
13.5436
 11
81.7498
 21
13.5218
  0
LINE
  8
0
 10
81.7498
 20
13.5218
 11
81.75
 21
13.5
  0
LINE
  8
0
 10
81.75
 20
13.5
 11
81.7498
 21
13.4782
  0
LINE
  8
0
 10
81.7498
 20
13.4782
 11
81.7492
 21
13.4564
  0
LINE
  8
0
 10
81.7492
 20
13.4564
 11
81.7483
 21
13.4346
  0
LINE
  8
0
 10
81.7483
 20
13.4346
 11
81.7469
 21
13.4128
  0
LINE
  8
0
 10
81.7469
 20
13.4128
 11
81.7452
 21
13.3911
  0
LINE
  8
0
 10
81.7452
 20
13.3911
 11
81.7431
 21
13.3693
  0
LINE
  8
0
 10
81.7431
 20
13.3693
 11
81.7407
 21
13.3477
  0
LINE
  8
0
 10
81.7407
 20
13.3477
 11
81.7378
 21
13.326
  0
LINE
  8
0
 10
81.7378
 20
13.326
 11
81.7346
 21
13.3044
  0
LINE
  8
0
 10
81.7346
 20
13.3044
 11
81.731
 21
13.2829
  0
LINE
  8
0
 10
81.731
 20
13.2829
 11
81.727
 21
13.2615
  0
LINE
  8
0
 10
81.727
 20
13.2615
 11
81.7227
 21
13.2401
  0
LINE
  8
0
 10
81.7227
 20
13.2401
 11
81.718
 21
13.2188
  0
LINE
  8
0
 10
81.718
 20
13.2188
 11
81.7129
 21
13.1976
  0
LINE
  8
0
 10
81.7129
 20
13.1976
 11
81.7074
 21
13.1765
  0
LINE
  8
0
 10
81.7074
 20
13.1765
 11
81.7016
 21
13.1554
  0
LINE
  8
0
 10
81.7016
 20
13.1554
 11
81.6954
 21
13.1345
  0
LINE
  8
0
 10
81.6954
 20
13.1345
 11
81.6888
 21
13.1137
  0
LINE
  8
0
 10
81.6888
 20
13.1137
 11
81.6819
 21
13.093
  0
LINE
  8
0
 10
81.6819
 20
13.093
 11
81.6746
 21
13.0725
  0
LINE
  8
0
 10
81.6746
 20
13.0725
 11
81.667
 21
13.052
  0
LINE
  8
0
 10
81.667
 20
13.052
 11
81.659
 21
13.0317
  0
LINE
  8
0
 10
81.659
 20
13.0317
 11
81.6506
 21
13.0116
  0
LINE
  8
0
 10
81.6506
 20
13.0116
 11
81.6419
 21
12.9916
  0
LINE
  8
0
 10
81.6419
 20
12.9916
 11
81.6329
 21
12.9717
  0
LINE
  8
0
 10
81.6329
 20
12.9717
 11
81.6235
 21
12.952
  0
LINE
  8
0
 10
81.6235
 20
12.952
 11
81.6138
 21
12.9325
  0
LINE
  8
0
 10
81.6138
 20
12.9325
 11
81.6037
 21
12.9131
  0
LINE
  8
0
 10
81.6037
 20
12.9131
 11
81.5933
 21
12.894
  0
LINE
  8
0
 10
81.5933
 20
12.894
 11
81.5825
 21
12.875
  0
LINE
  8
0
 10
81.5825
 20
12.875
 11
81.5715
 21
12.8562
  0
LINE
  8
0
 10
81.5715
 20
12.8562
 11
81.5601
 21
12.8376
  0
LINE
  8
0
 10
81.5601
 20
12.8376
 11
81.5483
 21
12.8192
  0
LINE
  8
0
 10
81.5483
 20
12.8192
 11
81.5363
 21
12.801
  0
LINE
  8
0
 10
81.5363
 20
12.801
 11
81.5239
 21
12.783
  0
LINE
  8
0
 10
81.5239
 20
12.783
 11
81.5113
 21
12.7653
  0
LINE
  8
0
 10
81.5113
 20
12.7653
 11
81.4983
 21
12.7477
  0
LINE
  8
0
 10
81.4983
 20
12.7477
 11
81.485
 21
12.7304
  0
LINE
  8
0
 10
81.485
 20
12.7304
 11
81.4714
 21
12.7133
  0
LINE
  8
0
 10
81.4714
 20
12.7133
 11
81.4576
 21
12.6965
  0
LINE
  8
0
 10
81.4576
 20
12.6965
 11
81.4434
 21
12.6799
  0
LINE
  8
0
 10
81.4434
 20
12.6799
 11
81.4289
 21
12.6636
  0
LINE
  8
0
 10
81.4289
 20
12.6636
 11
81.4142
 21
12.6475
  0
LINE
  8
0
 10
81.4142
 20
12.6475
 11
81.3992
 21
12.6317
  0
LINE
  8
0
 10
81.3992
 20
12.6317
 11
81.3839
 21
12.6161
  0
LINE
  8
0
 10
81.3839
 20
12.6161
 11
81.3683
 21
12.6008
  0
LINE
  8
0
 10
81.3683
 20
12.6008
 11
81.3525
 21
12.5858
  0
LINE
  8
0
 10
81.3525
 20
12.5858
 11
81.3364
 21
12.5711
  0
LINE
  8
0
 10
81.3364
 20
12.5711
 11
81.3201
 21
12.5566
  0
LINE
  8
0
 10
81.3201
 20
12.5566
 11
81.3035
 21
12.5424
  0
LINE
  8
0
 10
81.3035
 20
12.5424
 11
81.2866
 21
12.5286
  0
LINE
  8
0
 10
81.2866
 20
12.5286
 11
81.2696
 21
12.515
  0
LINE
  8
0
 10
81.2696
 20
12.515
 11
81.2523
 21
12.5017
  0
LINE
  8
0
 10
81.2523
 20
12.5017
 11
81.2347
 21
12.4887
  0
LINE
  8
0
 10
81.2347
 20
12.4887
 11
81.217
 21
12.4761
  0
LINE
  8
0
 10
81.217
 20
12.4761
 11
81.199
 21
12.4637
  0
LINE
  8
0
 10
81.199
 20
12.4637
 11
81.1808
 21
12.4517
  0
LINE
  8
0
 10
81.1808
 20
12.4517
 11
81.1624
 21
12.4399
  0
LINE
  8
0
 10
81.1624
 20
12.4399
 11
81.1438
 21
12.4285
  0
LINE
  8
0
 10
81.1438
 20
12.4285
 11
81.125
 21
12.4175
  0
LINE
  8
0
 10
81.125
 20
12.4175
 11
81.106
 21
12.4067
  0
LINE
  8
0
 10
81.106
 20
12.4067
 11
81.0868
 21
12.3963
  0
LINE
  8
0
 10
81.0868
 20
12.3963
 11
81.0675
 21
12.3862
  0
LINE
  8
0
 10
81.0675
 20
12.3862
 11
81.048
 21
12.3765
  0
LINE
  8
0
 10
81.048
 20
12.3765
 11
81.0283
 21
12.3671
  0
LINE
  8
0
 10
81.0283
 20
12.3671
 11
81.0084
 21
12.3581
  0
LINE
  8
0
 10
81.0084
 20
12.3581
 11
80.9884
 21
12.3494
  0
LINE
  8
0
 10
80.9884
 20
12.3494
 11
80.9682
 21
12.341
  0
LINE
  8
0
 10
80.9682
 20
12.341
 11
80.948
 21
12.333
  0
LINE
  8
0
 10
80.948
 20
12.333
 11
80.9275
 21
12.3254
  0
LINE
  8
0
 10
80.9275
 20
12.3254
 11
80.907
 21
12.3181
  0
LINE
  8
0
 10
80.907
 20
12.3181
 11
80.8863
 21
12.3112
  0
LINE
  8
0
 10
80.8863
 20
12.3112
 11
80.8655
 21
12.3046
  0
LINE
  8
0
 10
80.8655
 20
12.3046
 11
80.8445
 21
12.2984
  0
LINE
  8
0
 10
80.8445
 20
12.2984
 11
80.8235
 21
12.2926
  0
LINE
  8
0
 10
80.8235
 20
12.2926
 11
80.8024
 21
12.2871
  0
LINE
  8
0
 10
80.8024
 20
12.2871
 11
80.7812
 21
12.282
  0
LINE
  8
0
 10
80.7812
 20
12.282
 11
80.7599
 21
12.2773
  0
LINE
  8
0
 10
80.7599
 20
12.2773
 11
80.7385
 21
12.273
  0
LINE
  8
0
 10
80.7385
 20
12.273
 11
80.7171
 21
12.269
  0
LINE
  8
0
 10
80.7171
 20
12.269
 11
80.6955
 21
12.2654
  0
LINE
  8
0
 10
80.6955
 20
12.2654
 11
80.674
 21
12.2622
  0
LINE
  8
0
 10
80.674
 20
12.2622
 11
80.6523
 21
12.2593
  0
LINE
  8
0
 10
80.6523
 20
12.2593
 11
80.6306
 21
12.2568
  0
LINE
  8
0
 10
80.6306
 20
12.2568
 11
80.6089
 21
12.2547
  0
LINE
  8
0
 10
80.6089
 20
12.2547
 11
80.5872
 21
12.253
  0
LINE
  8
0
 10
80.5872
 20
12.253
 11
80.5654
 21
12.2517
  0
LINE
  8
0
 10
80.5654
 20
12.2517
 11
80.5436
 21
12.2507
  0
LINE
  8
0
 10
80.5436
 20
12.2507
 11
80.5218
 21
12.2502
  0
LINE
  8
0
 10
80.5218
 20
12.2502
 11
80.5
 21
12.25
  0
LINE
  8
0
 10
80.5
 20
12.25
 11
80.4782
 21
12.2502
  0
ENDSEC
  0
SECTION
  2
OBJECTS
  0
DICTIONARY
  0
ENDSEC
  0
EOF
