  0
SECTION
  2
BLOCKS
  0
ENDSEC
  0
SECTION
  2
ENTITIES
  0
LINE
  8
0
 10
91.6946
 20
0.0607605
 11
92.3681
 21
0.241226
  0
LINE
  8
0
 10
92.3681
 20
0.241226
 11
93
 21
0.535889
  0
LINE
  8
0
 10
93
 20
0.535889
 11
93.5712
 21
0.935822
  0
LINE
  8
0
 10
93.5712
 20
0.935822
 11
94.0642
 21
1.42885
  0
LINE
  8
0
 10
94.0642
 20
1.42885
 11
94.4641
 21
2
  0
LINE
  8
0
 10
94.4641
 20
2
 11
94.7588
 21
2.63191
  0
LINE
  8
0
 10
94.7588
 20
2.63191
 11
94.9392
 21
3.3054
  0
LINE
  8
0
 10
94.9392
 20
3.3054
 11
95
 21
4
  0
LINE
  8
0
 10
95
 20
4
 11
95
 21
91
  0
LINE
  8
0
 10
95
 20
91
 11
94.9392
 21
91.6946
  0
LINE
  8
0
 10
94.9392
 20
91.6946
 11
94.7588
 21
92.3681
  0
LINE
  8
0
 10
94.7588
 20
92.3681
 11
94.4641
 21
93
  0
LINE
  8
0
 10
94.4641
 20
93
 11
94.0642
 21
93.5712
  0
LINE
  8
0
 10
94.0642
 20
93.5712
 11
93.5712
 21
94.0642
  0
LINE
  8
0
 10
93.5712
 20
94.0642
 11
93
 21
94.4641
  0
LINE
  8
0
 10
93
 20
94.4641
 11
92.3681
 21
94.7588
  0
LINE
  8
0
 10
92.3681
 20
94.7588
 11
91.6946
 21
94.9392
  0
LINE
  8
0
 10
91.6946
 20
94.9392
 11
91
 21
95
  0
LINE
  8
0
 10
91
 20
95
 11
4
 21
95
  0
LINE
  8
0
 10
4
 20
95
 11
3.3054
 21
94.9392
  0
LINE
  8
0
 10
3.3054
 20
94.9392
 11
2.63191
 21
94.7588
  0
LINE
  8
0
 10
2.63191
 20
94.7588
 11
2
 21
94.4641
  0
LINE
  8
0
 10
2
 20
94.4641
 11
1.42885
 21
94.0642
  0
LINE
  8
0
 10
1.42885
 20
94.0642
 11
0.935822
 21
93.5712
  0
LINE
  8
0
 10
0.935822
 20
93.5712
 11
0.535889
 21
93
  0
LINE
  8
0
 10
0.535889
 20
93
 11
0.241226
 21
92.3681
  0
LINE
  8
0
 10
0.241226
 20
92.3681
 11
0.0607605
 21
91.6946
  0
LINE
  8
0
 10
0.0607605
 20
91.6946
 11
0
 21
91
  0
LINE
  8
0
 10
0
 20
91
 11
0
 21
74
  0
LINE
  8
0
 10
0
 20
74
 11
4
 21
74
  0
LINE
  8
0
 10
4
 20
74
 11
4
 21
82
  0
LINE
  8
0
 10
4
 20
82
 11
33
 21
82
  0
LINE
  8
0
 10
33
 20
82
 11
33
 21
0
  0
LINE
  8
0
 10
33
 20
0
 11
91
 21
0
  0
LINE
  8
0
 10
91
 20
0
 11
91.6946
 21
0.0607605
  0
LINE
  8
0
 10
13.8263
 20
89.0152
 11
13.658
 21
89.0603
  0
LINE
  8
0
 10
13.658
 20
89.0603
 11
13.5
 21
89.134
  0
LINE
  8
0
 10
13.5
 20
89.134
 11
13.3572
 21
89.2339
  0
LINE
  8
0
 10
13.3572
 20
89.2339
 11
13.2339
 21
89.3572
  0
LINE
  8
0
 10
13.2339
 20
89.3572
 11
13.134
 21
89.5
  0
LINE
  8
0
 10
13.134
 20
89.5
 11
13.0603
 21
89.658
  0
LINE
  8
0
 10
13.0603
 20
89.658
 11
13.0152
 21
89.8264
  0
LINE
  8
0
 10
13.0152
 20
89.8264
 11
13
 21
90
  0
LINE
  8
0
 10
13
 20
90
 11
13.0152
 21
90.1736
  0
LINE
  8
0
 10
13.0152
 20
90.1736
 11
13.0603
 21
90.342
  0
LINE
  8
0
 10
13.0603
 20
90.342
 11
13.134
 21
90.5
  0
LINE
  8
0
 10
13.134
 20
90.5
 11
13.2339
 21
90.6428
  0
LINE
  8
0
 10
13.2339
 20
90.6428
 11
13.3572
 21
90.766
  0
LINE
  8
0
 10
13.3572
 20
90.766
 11
13.5
 21
90.866
  0
LINE
  8
0
 10
13.5
 20
90.866
 11
13.658
 21
90.9397
  0
LINE
  8
0
 10
13.658
 20
90.9397
 11
13.8263
 21
90.9848
  0
LINE
  8
0
 10
13.8263
 20
90.9848
 11
14
 21
91
  0
LINE
  8
0
 10
14
 20
91
 11
14.1736
 21
90.9848
  0
LINE
  8
0
 10
14.1736
 20
90.9848
 11
14.342
 21
90.9397
  0
LINE
  8
0
 10
14.342
 20
90.9397
 11
14.5
 21
90.866
  0
LINE
  8
0
 10
14.5
 20
90.866
 11
14.6428
 21
90.766
  0
LINE
  8
0
 10
14.6428
 20
90.766
 11
14.766
 21
90.6428
  0
LINE
  8
0
 10
14.766
 20
90.6428
 11
14.866
 21
90.5
  0
LINE
  8
0
 10
14.866
 20
90.5
 11
14.9397
 21
90.342
  0
LINE
  8
0
 10
14.9397
 20
90.342
 11
14.9848
 21
90.1736
  0
LINE
  8
0
 10
14.9848
 20
90.1736
 11
15
 21
90
  0
LINE
  8
0
 10
15
 20
90
 11
14.9848
 21
89.8264
  0
LINE
  8
0
 10
14.9848
 20
89.8264
 11
14.9397
 21
89.658
  0
LINE
  8
0
 10
14.9397
 20
89.658
 11
14.866
 21
89.5
  0
LINE
  8
0
 10
14.866
 20
89.5
 11
14.766
 21
89.3572
  0
LINE
  8
0
 10
14.766
 20
89.3572
 11
14.6428
 21
89.2339
  0
LINE
  8
0
 10
14.6428
 20
89.2339
 11
14.5
 21
89.134
  0
LINE
  8
0
 10
14.5
 20
89.134
 11
14.342
 21
89.0603
  0
LINE
  8
0
 10
14.342
 20
89.0603
 11
14.1736
 21
89.0152
  0
LINE
  8
0
 10
14.1736
 20
89.0152
 11
14
 21
89
  0
LINE
  8
0
 10
14
 20
89
 11
13.8263
 21
89.0152
  0
LINE
  8
0
 10
80.8264
 20
89.0152
 11
80.658
 21
89.0603
  0
LINE
  8
0
 10
80.658
 20
89.0603
 11
80.5
 21
89.134
  0
LINE
  8
0
 10
80.5
 20
89.134
 11
80.3572
 21
89.2339
  0
LINE
  8
0
 10
80.3572
 20
89.2339
 11
80.2339
 21
89.3572
  0
LINE
  8
0
 10
80.2339
 20
89.3572
 11
80.134
 21
89.5
  0
LINE
  8
0
 10
80.134
 20
89.5
 11
80.0603
 21
89.658
  0
LINE
  8
0
 10
80.0603
 20
89.658
 11
80.0152
 21
89.8264
  0
LINE
  8
0
 10
80.0152
 20
89.8264
 11
80
 21
90
  0
LINE
  8
0
 10
80
 20
90
 11
80.0152
 21
90.1736
  0
LINE
  8
0
 10
80.0152
 20
90.1736
 11
80.0603
 21
90.342
  0
LINE
  8
0
 10
80.0603
 20
90.342
 11
80.134
 21
90.5
  0
LINE
  8
0
 10
80.134
 20
90.5
 11
80.2339
 21
90.6428
  0
LINE
  8
0
 10
80.2339
 20
90.6428
 11
80.3572
 21
90.766
  0
LINE
  8
0
 10
80.3572
 20
90.766
 11
80.5
 21
90.866
  0
LINE
  8
0
 10
80.5
 20
90.866
 11
80.658
 21
90.9397
  0
LINE
  8
0
 10
80.658
 20
90.9397
 11
80.8264
 21
90.9848
  0
LINE
  8
0
 10
80.8264
 20
90.9848
 11
81
 21
91
  0
LINE
  8
0
 10
81
 20
91
 11
81.1736
 21
90.9848
  0
LINE
  8
0
 10
81.1736
 20
90.9848
 11
81.342
 21
90.9397
  0
LINE
  8
0
 10
81.342
 20
90.9397
 11
81.5
 21
90.866
  0
LINE
  8
0
 10
81.5
 20
90.866
 11
81.6428
 21
90.766
  0
LINE
  8
0
 10
81.6428
 20
90.766
 11
81.766
 21
90.6428
  0
LINE
  8
0
 10
81.766
 20
90.6428
 11
81.866
 21
90.5
  0
LINE
  8
0
 10
81.866
 20
90.5
 11
81.9397
 21
90.342
  0
LINE
  8
0
 10
81.9397
 20
90.342
 11
81.9848
 21
90.1736
  0
LINE
  8
0
 10
81.9848
 20
90.1736
 11
82
 21
90
  0
LINE
  8
0
 10
82
 20
90
 11
81.9848
 21
89.8264
  0
LINE
  8
0
 10
81.9848
 20
89.8264
 11
81.9397
 21
89.658
  0
LINE
  8
0
 10
81.9397
 20
89.658
 11
81.866
 21
89.5
  0
LINE
  8
0
 10
81.866
 20
89.5
 11
81.766
 21
89.3572
  0
LINE
  8
0
 10
81.766
 20
89.3572
 11
81.6428
 21
89.2339
  0
LINE
  8
0
 10
81.6428
 20
89.2339
 11
81.5
 21
89.134
  0
LINE
  8
0
 10
81.5
 20
89.134
 11
81.342
 21
89.0603
  0
LINE
  8
0
 10
81.342
 20
89.0603
 11
81.1736
 21
89.0152
  0
LINE
  8
0
 10
81.1736
 20
89.0152
 11
81
 21
89
  0
LINE
  8
0
 10
81
 20
89
 11
80.8264
 21
89.0152
  0
LINE
  8
0
 10
56.4
 20
55.3
 11
56.4
 21
59.3
  0
LINE
  8
0
 10
56.4
 20
59.3
 11
52.4
 21
59.3
  0
LINE
  8
0
 10
52.4
 20
59.3
 11
52.4
 21
76.5
  0
LINE
  8
0
 10
52.4
 20
76.5
 11
56.4
 21
76.5
  0
LINE
  8
0
 10
56.4
 20
76.5
 11
56.4
 21
80.5
  0
LINE
  8
0
 10
56.4
 20
80.5
 11
65.4
 21
80.5
  0
LINE
  8
0
 10
65.4
 20
80.5
 11
65.4
 21
76.5
  0
LINE
  8
0
 10
65.4
 20
76.5
 11
69.4
 21
76.5
  0
LINE
  8
0
 10
69.4
 20
76.5
 11
69.4
 21
80.5
  0
LINE
  8
0
 10
69.4
 20
80.5
 11
72.5
 21
80.5
  0
LINE
  8
0
 10
72.5
 20
80.5
 11
72.5
 21
78.5
  0
LINE
  8
0
 10
72.5
 20
78.5
 11
76.5
 21
78.5
  0
LINE
  8
0
 10
76.5
 20
78.5
 11
76.5
 21
57.3
  0
LINE
  8
0
 10
76.5
 20
57.3
 11
72.5
 21
57.3
  0
LINE
  8
0
 10
72.5
 20
57.3
 11
72.5
 21
55.3
  0
LINE
  8
0
 10
72.5
 20
55.3
 11
69.4
 21
55.3
  0
LINE
  8
0
 10
69.4
 20
55.3
 11
69.4
 21
59.3
  0
LINE
  8
0
 10
69.4
 20
59.3
 11
65.4
 21
59.3
  0
LINE
  8
0
 10
65.4
 20
59.3
 11
65.4
 21
55.3
  0
LINE
  8
0
 10
65.4
 20
55.3
 11
56.4
 21
55.3
  0
LINE
  8
0
 10
54.2784
 20
77.8106
 11
54.1606
 21
77.8422
  0
LINE
  8
0
 10
54.1606
 20
77.8422
 11
54.05
 21
77.8938
  0
LINE
  8
0
 10
54.05
 20
77.8938
 11
53.95
 21
77.9638
  0
LINE
  8
0
 10
53.95
 20
77.9638
 11
53.8638
 21
78.05
  0
LINE
  8
0
 10
53.8638
 20
78.05
 11
53.7938
 21
78.15
  0
LINE
  8
0
 10
53.7938
 20
78.15
 11
53.7422
 21
78.2606
  0
LINE
  8
0
 10
53.7422
 20
78.2606
 11
53.7106
 21
78.3784
  0
LINE
  8
0
 10
53.7106
 20
78.3784
 11
53.7
 21
78.5
  0
LINE
  8
0
 10
53.7
 20
78.5
 11
53.7106
 21
78.6216
  0
LINE
  8
0
 10
53.7106
 20
78.6216
 11
53.7422
 21
78.7394
  0
LINE
  8
0
 10
53.7422
 20
78.7394
 11
53.7938
 21
78.85
  0
LINE
  8
0
 10
53.7938
 20
78.85
 11
53.8638
 21
78.95
  0
LINE
  8
0
 10
53.8638
 20
78.95
 11
53.95
 21
79.0362
  0
LINE
  8
0
 10
53.95
 20
79.0362
 11
54.05
 21
79.1062
  0
LINE
  8
0
 10
54.05
 20
79.1062
 11
54.1606
 21
79.1578
  0
LINE
  8
0
 10
54.1606
 20
79.1578
 11
54.2784
 21
79.1894
  0
LINE
  8
0
 10
54.2784
 20
79.1894
 11
54.4
 21
79.2
  0
LINE
  8
0
 10
54.4
 20
79.2
 11
54.5215
 21
79.1894
  0
LINE
  8
0
 10
54.5215
 20
79.1894
 11
54.6394
 21
79.1578
  0
LINE
  8
0
 10
54.6394
 20
79.1578
 11
54.75
 21
79.1062
  0
LINE
  8
0
 10
54.75
 20
79.1062
 11
54.8499
 21
79.0362
  0
LINE
  8
0
 10
54.8499
 20
79.0362
 11
54.9362
 21
78.95
  0
LINE
  8
0
 10
54.9362
 20
78.95
 11
55.0062
 21
78.85
  0
LINE
  8
0
 10
55.0062
 20
78.85
 11
55.0578
 21
78.7394
  0
LINE
  8
0
 10
55.0578
 20
78.7394
 11
55.0894
 21
78.6216
  0
LINE
  8
0
 10
55.0894
 20
78.6216
 11
55.1
 21
78.5
  0
LINE
  8
0
 10
55.1
 20
78.5
 11
55.0894
 21
78.3784
  0
LINE
  8
0
 10
55.0894
 20
78.3784
 11
55.0578
 21
78.2606
  0
LINE
  8
0
 10
55.0578
 20
78.2606
 11
55.0062
 21
78.15
  0
LINE
  8
0
 10
55.0062
 20
78.15
 11
54.9362
 21
78.05
  0
LINE
  8
0
 10
54.9362
 20
78.05
 11
54.8499
 21
77.9638
  0
LINE
  8
0
 10
54.8499
 20
77.9638
 11
54.75
 21
77.8938
  0
LINE
  8
0
 10
54.75
 20
77.8938
 11
54.6394
 21
77.8422
  0
LINE
  8
0
 10
54.6394
 20
77.8422
 11
54.5215
 21
77.8106
  0
LINE
  8
0
 10
54.5215
 20
77.8106
 11
54.4
 21
77.8
  0
LINE
  8
0
 10
54.4
 20
77.8
 11
54.2784
 21
77.8106
  0
LINE
  8
0
 10
67.2784
 20
77.8106
 11
67.1606
 21
77.8422
  0
LINE
  8
0
 10
67.1606
 20
77.8422
 11
67.05
 21
77.8938
  0
LINE
  8
0
 10
67.05
 20
77.8938
 11
66.95
 21
77.9638
  0
LINE
  8
0
 10
66.95
 20
77.9638
 11
66.8638
 21
78.05
  0
LINE
  8
0
 10
66.8638
 20
78.05
 11
66.7938
 21
78.15
  0
LINE
  8
0
 10
66.7938
 20
78.15
 11
66.7422
 21
78.2606
  0
LINE
  8
0
 10
66.7422
 20
78.2606
 11
66.7106
 21
78.3784
  0
LINE
  8
0
 10
66.7106
 20
78.3784
 11
66.7
 21
78.5
  0
LINE
  8
0
 10
66.7
 20
78.5
 11
66.7106
 21
78.6216
  0
LINE
  8
0
 10
66.7106
 20
78.6216
 11
66.7422
 21
78.7394
  0
LINE
  8
0
 10
66.7422
 20
78.7394
 11
66.7938
 21
78.85
  0
LINE
  8
0
 10
66.7938
 20
78.85
 11
66.8638
 21
78.95
  0
LINE
  8
0
 10
66.8638
 20
78.95
 11
66.95
 21
79.0362
  0
LINE
  8
0
 10
66.95
 20
79.0362
 11
67.05
 21
79.1062
  0
LINE
  8
0
 10
67.05
 20
79.1062
 11
67.1606
 21
79.1578
  0
LINE
  8
0
 10
67.1606
 20
79.1578
 11
67.2784
 21
79.1894
  0
LINE
  8
0
 10
67.2784
 20
79.1894
 11
67.4
 21
79.2
  0
LINE
  8
0
 10
67.4
 20
79.2
 11
67.5215
 21
79.1894
  0
LINE
  8
0
 10
67.5215
 20
79.1894
 11
67.6394
 21
79.1578
  0
LINE
  8
0
 10
67.6394
 20
79.1578
 11
67.75
 21
79.1062
  0
LINE
  8
0
 10
67.75
 20
79.1062
 11
67.8499
 21
79.0362
  0
LINE
  8
0
 10
67.8499
 20
79.0362
 11
67.9362
 21
78.95
  0
LINE
  8
0
 10
67.9362
 20
78.95
 11
68.0062
 21
78.85
  0
LINE
  8
0
 10
68.0062
 20
78.85
 11
68.0578
 21
78.7394
  0
LINE
  8
0
 10
68.0578
 20
78.7394
 11
68.0894
 21
78.6216
  0
LINE
  8
0
 10
68.0894
 20
78.6216
 11
68.1
 21
78.5
  0
LINE
  8
0
 10
68.1
 20
78.5
 11
68.0894
 21
78.3784
  0
LINE
  8
0
 10
68.0894
 20
78.3784
 11
68.0578
 21
78.2606
  0
LINE
  8
0
 10
68.0578
 20
78.2606
 11
68.0062
 21
78.15
  0
LINE
  8
0
 10
68.0062
 20
78.15
 11
67.9362
 21
78.05
  0
LINE
  8
0
 10
67.9362
 20
78.05
 11
67.8499
 21
77.9638
  0
LINE
  8
0
 10
67.8499
 20
77.9638
 11
67.75
 21
77.8938
  0
LINE
  8
0
 10
67.75
 20
77.8938
 11
67.6394
 21
77.8422
  0
LINE
  8
0
 10
67.6394
 20
77.8422
 11
67.5215
 21
77.8106
  0
LINE
  8
0
 10
67.5215
 20
77.8106
 11
67.4
 21
77.8
  0
LINE
  8
0
 10
67.4
 20
77.8
 11
67.2784
 21
77.8106
  0
LINE
  8
0
 10
39.335
 20
63.5644
 11
39.1751
 21
63.6073
  0
LINE
  8
0
 10
39.1751
 20
63.6073
 11
39.025
 21
63.6773
  0
LINE
  8
0
 10
39.025
 20
63.6773
 11
38.8893
 21
63.7722
  0
LINE
  8
0
 10
38.8893
 20
63.7722
 11
38.7722
 21
63.8893
  0
LINE
  8
0
 10
38.7722
 20
63.8893
 11
38.6773
 21
64.025
  0
LINE
  8
0
 10
38.6773
 20
64.025
 11
38.6073
 21
64.1751
  0
LINE
  8
0
 10
38.6073
 20
64.1751
 11
38.5644
 21
64.335
  0
LINE
  8
0
 10
38.5644
 20
64.335
 11
38.55
 21
64.5
  0
LINE
  8
0
 10
38.55
 20
64.5
 11
38.5644
 21
64.665
  0
LINE
  8
0
 10
38.5644
 20
64.665
 11
38.6073
 21
64.8249
  0
LINE
  8
0
 10
38.6073
 20
64.8249
 11
38.6773
 21
64.975
  0
LINE
  8
0
 10
38.6773
 20
64.975
 11
38.7722
 21
65.1106
  0
LINE
  8
0
 10
38.7722
 20
65.1106
 11
38.8893
 21
65.2277
  0
LINE
  8
0
 10
38.8893
 20
65.2277
 11
39.025
 21
65.3227
  0
LINE
  8
0
 10
39.025
 20
65.3227
 11
39.1751
 21
65.3927
  0
LINE
  8
0
 10
39.1751
 20
65.3927
 11
39.335
 21
65.4356
  0
LINE
  8
0
 10
39.335
 20
65.4356
 11
39.5
 21
65.45
  0
LINE
  8
0
 10
39.5
 20
65.45
 11
39.665
 21
65.4356
  0
LINE
  8
0
 10
39.665
 20
65.4356
 11
39.8249
 21
65.3927
  0
LINE
  8
0
 10
39.8249
 20
65.3927
 11
39.975
 21
65.3227
  0
LINE
  8
0
 10
39.975
 20
65.3227
 11
40.1106
 21
65.2277
  0
LINE
  8
0
 10
40.1106
 20
65.2277
 11
40.2277
 21
65.1106
  0
LINE
  8
0
 10
40.2277
 20
65.1106
 11
40.3227
 21
64.975
  0
LINE
  8
0
 10
40.3227
 20
64.975
 11
40.3927
 21
64.8249
  0
LINE
  8
0
 10
40.3927
 20
64.8249
 11
40.4356
 21
64.665
  0
LINE
  8
0
 10
40.4356
 20
64.665
 11
40.45
 21
64.5
  0
LINE
  8
0
 10
40.45
 20
64.5
 11
40.4356
 21
64.335
  0
LINE
  8
0
 10
40.4356
 20
64.335
 11
40.3927
 21
64.1751
  0
LINE
  8
0
 10
40.3927
 20
64.1751
 11
40.3227
 21
64.025
  0
LINE
  8
0
 10
40.3227
 20
64.025
 11
40.2277
 21
63.8893
  0
LINE
  8
0
 10
40.2277
 20
63.8893
 11
40.1106
 21
63.7722
  0
LINE
  8
0
 10
40.1106
 20
63.7722
 11
39.975
 21
63.6773
  0
LINE
  8
0
 10
39.975
 20
63.6773
 11
39.8249
 21
63.6073
  0
LINE
  8
0
 10
39.8249
 20
63.6073
 11
39.665
 21
63.5644
  0
LINE
  8
0
 10
39.665
 20
63.5644
 11
39.5
 21
63.55
  0
LINE
  8
0
 10
39.5
 20
63.55
 11
39.335
 21
63.5644
  0
LINE
  8
0
 10
54.2784
 20
56.6106
 11
54.1606
 21
56.6422
  0
LINE
  8
0
 10
54.1606
 20
56.6422
 11
54.05
 21
56.6938
  0
LINE
  8
0
 10
54.05
 20
56.6938
 11
53.95
 21
56.7638
  0
LINE
  8
0
 10
53.95
 20
56.7638
 11
53.8638
 21
56.85
  0
LINE
  8
0
 10
53.8638
 20
56.85
 11
53.7938
 21
56.95
  0
LINE
  8
0
 10
53.7938
 20
56.95
 11
53.7422
 21
57.0606
  0
LINE
  8
0
 10
53.7422
 20
57.0606
 11
53.7106
 21
57.1784
  0
LINE
  8
0
 10
53.7106
 20
57.1784
 11
53.7
 21
57.3
  0
LINE
  8
0
 10
53.7
 20
57.3
 11
53.7106
 21
57.4216
  0
LINE
  8
0
 10
53.7106
 20
57.4216
 11
53.7422
 21
57.5394
  0
LINE
  8
0
 10
53.7422
 20
57.5394
 11
53.7938
 21
57.65
  0
LINE
  8
0
 10
53.7938
 20
57.65
 11
53.8638
 21
57.7499
  0
LINE
  8
0
 10
53.8638
 20
57.7499
 11
53.95
 21
57.8362
  0
LINE
  8
0
 10
53.95
 20
57.8362
 11
54.05
 21
57.9062
  0
LINE
  8
0
 10
54.05
 20
57.9062
 11
54.1606
 21
57.9578
  0
LINE
  8
0
 10
54.1606
 20
57.9578
 11
54.2784
 21
57.9894
  0
LINE
  8
0
 10
54.2784
 20
57.9894
 11
54.4
 21
58
  0
LINE
  8
0
 10
54.4
 20
58
 11
54.5215
 21
57.9894
  0
LINE
  8
0
 10
54.5215
 20
57.9894
 11
54.6394
 21
57.9578
  0
LINE
  8
0
 10
54.6394
 20
57.9578
 11
54.75
 21
57.9062
  0
LINE
  8
0
 10
54.75
 20
57.9062
 11
54.8499
 21
57.8362
  0
LINE
  8
0
 10
54.8499
 20
57.8362
 11
54.9362
 21
57.7499
  0
LINE
  8
0
 10
54.9362
 20
57.7499
 11
55.0062
 21
57.65
  0
LINE
  8
0
 10
55.0062
 20
57.65
 11
55.0578
 21
57.5394
  0
LINE
  8
0
 10
55.0578
 20
57.5394
 11
55.0894
 21
57.4216
  0
LINE
  8
0
 10
55.0894
 20
57.4216
 11
55.1
 21
57.3
  0
LINE
  8
0
 10
55.1
 20
57.3
 11
55.0894
 21
57.1784
  0
LINE
  8
0
 10
55.0894
 20
57.1784
 11
55.0578
 21
57.0606
  0
LINE
  8
0
 10
55.0578
 20
57.0606
 11
55.0062
 21
56.95
  0
LINE
  8
0
 10
55.0062
 20
56.95
 11
54.9362
 21
56.85
  0
LINE
  8
0
 10
54.9362
 20
56.85
 11
54.8499
 21
56.7638
  0
LINE
  8
0
 10
54.8499
 20
56.7638
 11
54.75
 21
56.6938
  0
LINE
  8
0
 10
54.75
 20
56.6938
 11
54.6394
 21
56.6422
  0
LINE
  8
0
 10
54.6394
 20
56.6422
 11
54.5215
 21
56.6106
  0
LINE
  8
0
 10
54.5215
 20
56.6106
 11
54.4
 21
56.6
  0
LINE
  8
0
 10
54.4
 20
56.6
 11
54.2784
 21
56.6106
  0
LINE
  8
0
 10
67.2784
 20
56.6106
 11
67.1606
 21
56.6422
  0
LINE
  8
0
 10
67.1606
 20
56.6422
 11
67.05
 21
56.6938
  0
LINE
  8
0
 10
67.05
 20
56.6938
 11
66.95
 21
56.7638
  0
LINE
  8
0
 10
66.95
 20
56.7638
 11
66.8638
 21
56.85
  0
LINE
  8
0
 10
66.8638
 20
56.85
 11
66.7938
 21
56.95
  0
LINE
  8
0
 10
66.7938
 20
56.95
 11
66.7422
 21
57.0606
  0
LINE
  8
0
 10
66.7422
 20
57.0606
 11
66.7106
 21
57.1784
  0
LINE
  8
0
 10
66.7106
 20
57.1784
 11
66.7
 21
57.3
  0
LINE
  8
0
 10
66.7
 20
57.3
 11
66.7106
 21
57.4216
  0
LINE
  8
0
 10
66.7106
 20
57.4216
 11
66.7422
 21
57.5394
  0
LINE
  8
0
 10
66.7422
 20
57.5394
 11
66.7938
 21
57.65
  0
LINE
  8
0
 10
66.7938
 20
57.65
 11
66.8638
 21
57.7499
  0
LINE
  8
0
 10
66.8638
 20
57.7499
 11
66.95
 21
57.8362
  0
LINE
  8
0
 10
66.95
 20
57.8362
 11
67.05
 21
57.9062
  0
LINE
  8
0
 10
67.05
 20
57.9062
 11
67.1606
 21
57.9578
  0
LINE
  8
0
 10
67.1606
 20
57.9578
 11
67.2784
 21
57.9894
  0
LINE
  8
0
 10
67.2784
 20
57.9894
 11
67.4
 21
58
  0
LINE
  8
0
 10
67.4
 20
58
 11
67.5215
 21
57.9894
  0
LINE
  8
0
 10
67.5215
 20
57.9894
 11
67.6394
 21
57.9578
  0
LINE
  8
0
 10
67.6394
 20
57.9578
 11
67.75
 21
57.9062
  0
LINE
  8
0
 10
67.75
 20
57.9062
 11
67.8499
 21
57.8362
  0
LINE
  8
0
 10
67.8499
 20
57.8362
 11
67.9362
 21
57.7499
  0
LINE
  8
0
 10
67.9362
 20
57.7499
 11
68.0062
 21
57.65
  0
LINE
  8
0
 10
68.0062
 20
57.65
 11
68.0578
 21
57.5394
  0
LINE
  8
0
 10
68.0578
 20
57.5394
 11
68.0894
 21
57.4216
  0
LINE
  8
0
 10
68.0894
 20
57.4216
 11
68.1
 21
57.3
  0
LINE
  8
0
 10
68.1
 20
57.3
 11
68.0894
 21
57.1784
  0
LINE
  8
0
 10
68.0894
 20
57.1784
 11
68.0578
 21
57.0606
  0
LINE
  8
0
 10
68.0578
 20
57.0606
 11
68.0062
 21
56.95
  0
LINE
  8
0
 10
68.0062
 20
56.95
 11
67.9362
 21
56.85
  0
LINE
  8
0
 10
67.9362
 20
56.85
 11
67.8499
 21
56.7638
  0
LINE
  8
0
 10
67.8499
 20
56.7638
 11
67.75
 21
56.6938
  0
LINE
  8
0
 10
67.75
 20
56.6938
 11
67.6394
 21
56.6422
  0
LINE
  8
0
 10
67.6394
 20
56.6422
 11
67.5215
 21
56.6106
  0
LINE
  8
0
 10
67.5215
 20
56.6106
 11
67.4
 21
56.6
  0
LINE
  8
0
 10
67.4
 20
56.6
 11
67.2784
 21
56.6106
  0
LINE
  8
0
 10
39.335
 20
5.56442
 11
39.1751
 21
5.60728
  0
LINE
  8
0
 10
39.1751
 20
5.60728
 11
39.025
 21
5.67726
  0
LINE
  8
0
 10
39.025
 20
5.67726
 11
38.8893
 21
5.77225
  0
LINE
  8
0
 10
38.8893
 20
5.77225
 11
38.7722
 21
5.88934
  0
LINE
  8
0
 10
38.7722
 20
5.88934
 11
38.6773
 21
6.02499
  0
LINE
  8
0
 10
38.6773
 20
6.02499
 11
38.6073
 21
6.17508
  0
LINE
  8
0
 10
38.6073
 20
6.17508
 11
38.5644
 21
6.33502
  0
LINE
  8
0
 10
38.5644
 20
6.33502
 11
38.55
 21
6.5
  0
LINE
  8
0
 10
38.55
 20
6.5
 11
38.5644
 21
6.66496
  0
LINE
  8
0
 10
38.5644
 20
6.66496
 11
38.6073
 21
6.82491
  0
LINE
  8
0
 10
38.6073
 20
6.82491
 11
38.6773
 21
6.97499
  0
LINE
  8
0
 10
38.6773
 20
6.97499
 11
38.7722
 21
7.11064
  0
LINE
  8
0
 10
38.7722
 20
7.11064
 11
38.8893
 21
7.22774
  0
LINE
  8
0
 10
38.8893
 20
7.22774
 11
39.025
 21
7.32272
  0
LINE
  8
0
 10
39.025
 20
7.32272
 11
39.1751
 21
7.3927
  0
LINE
  8
0
 10
39.1751
 20
7.3927
 11
39.335
 21
7.43556
  0
LINE
  8
0
 10
39.335
 20
7.43556
 11
39.5
 21
7.45
  0
LINE
  8
0
 10
39.5
 20
7.45
 11
39.665
 21
7.43556
  0
LINE
  8
0
 10
39.665
 20
7.43556
 11
39.8249
 21
7.3927
  0
LINE
  8
0
 10
39.8249
 20
7.3927
 11
39.975
 21
7.32272
  0
LINE
  8
0
 10
39.975
 20
7.32272
 11
40.1106
 21
7.22774
  0
LINE
  8
0
 10
40.1106
 20
7.22774
 11
40.2277
 21
7.11064
  0
LINE
  8
0
 10
40.2277
 20
7.11064
 11
40.3227
 21
6.97499
  0
LINE
  8
0
 10
40.3227
 20
6.97499
 11
40.3927
 21
6.82491
  0
LINE
  8
0
 10
40.3927
 20
6.82491
 11
40.4356
 21
6.66496
  0
LINE
  8
0
 10
40.4356
 20
6.66496
 11
40.45
 21
6.5
  0
LINE
  8
0
 10
40.45
 20
6.5
 11
40.4356
 21
6.33502
  0
LINE
  8
0
 10
40.4356
 20
6.33502
 11
40.3927
 21
6.17508
  0
LINE
  8
0
 10
40.3927
 20
6.17508
 11
40.3227
 21
6.02499
  0
LINE
  8
0
 10
40.3227
 20
6.02499
 11
40.2277
 21
5.88934
  0
LINE
  8
0
 10
40.2277
 20
5.88934
 11
40.1106
 21
5.77225
  0
LINE
  8
0
 10
40.1106
 20
5.77225
 11
39.975
 21
5.67726
  0
LINE
  8
0
 10
39.975
 20
5.67726
 11
39.8249
 21
5.60728
  0
LINE
  8
0
 10
39.8249
 20
5.60728
 11
39.665
 21
5.56442
  0
LINE
  8
0
 10
39.665
 20
5.56442
 11
39.5
 21
5.54999
  0
LINE
  8
0
 10
39.5
 20
5.54999
 11
39.335
 21
5.56442
  0
LINE
  8
0
 10
62.335
 20
5.56442
 11
62.1751
 21
5.60728
  0
LINE
  8
0
 10
62.1751
 20
5.60728
 11
62.025
 21
5.67726
  0
LINE
  8
0
 10
62.025
 20
5.67726
 11
61.8893
 21
5.77225
  0
LINE
  8
0
 10
61.8893
 20
5.77225
 11
61.7722
 21
5.88934
  0
LINE
  8
0
 10
61.7722
 20
5.88934
 11
61.6773
 21
6.02499
  0
LINE
  8
0
 10
61.6773
 20
6.02499
 11
61.6073
 21
6.17508
  0
LINE
  8
0
 10
61.6073
 20
6.17508
 11
61.5644
 21
6.33502
  0
LINE
  8
0
 10
61.5644
 20
6.33502
 11
61.55
 21
6.5
  0
LINE
  8
0
 10
61.55
 20
6.5
 11
61.5644
 21
6.66496
  0
LINE
  8
0
 10
61.5644
 20
6.66496
 11
61.6073
 21
6.82491
  0
LINE
  8
0
 10
61.6073
 20
6.82491
 11
61.6773
 21
6.97499
  0
LINE
  8
0
 10
61.6773
 20
6.97499
 11
61.7722
 21
7.11064
  0
LINE
  8
0
 10
61.7722
 20
7.11064
 11
61.8893
 21
7.22774
  0
LINE
  8
0
 10
61.8893
 20
7.22774
 11
62.025
 21
7.32272
  0
LINE
  8
0
 10
62.025
 20
7.32272
 11
62.1751
 21
7.3927
  0
LINE
  8
0
 10
62.1751
 20
7.3927
 11
62.335
 21
7.43556
  0
LINE
  8
0
 10
62.335
 20
7.43556
 11
62.5
 21
7.45
  0
LINE
  8
0
 10
62.5
 20
7.45
 11
62.665
 21
7.43556
  0
LINE
  8
0
 10
62.665
 20
7.43556
 11
62.8249
 21
7.3927
  0
LINE
  8
0
 10
62.8249
 20
7.3927
 11
62.975
 21
7.32272
  0
LINE
  8
0
 10
62.975
 20
7.32272
 11
63.1106
 21
7.22774
  0
LINE
  8
0
 10
63.1106
 20
7.22774
 11
63.2277
 21
7.11064
  0
LINE
  8
0
 10
63.2277
 20
7.11064
 11
63.3227
 21
6.97499
  0
LINE
  8
0
 10
63.3227
 20
6.97499
 11
63.3927
 21
6.82491
  0
LINE
  8
0
 10
63.3927
 20
6.82491
 11
63.4356
 21
6.66496
  0
LINE
  8
0
 10
63.4356
 20
6.66496
 11
63.45
 21
6.5
  0
LINE
  8
0
 10
63.45
 20
6.5
 11
63.4356
 21
6.33502
  0
LINE
  8
0
 10
63.4356
 20
6.33502
 11
63.3927
 21
6.17508
  0
LINE
  8
0
 10
63.3927
 20
6.17508
 11
63.3227
 21
6.02499
  0
LINE
  8
0
 10
63.3227
 20
6.02499
 11
63.2277
 21
5.88934
  0
LINE
  8
0
 10
63.2277
 20
5.88934
 11
63.1106
 21
5.77225
  0
LINE
  8
0
 10
63.1106
 20
5.77225
 11
62.975
 21
5.67726
  0
LINE
  8
0
 10
62.975
 20
5.67726
 11
62.8249
 21
5.60728
  0
LINE
  8
0
 10
62.8249
 20
5.60728
 11
62.665
 21
5.56442
  0
LINE
  8
0
 10
62.665
 20
5.56442
 11
62.5
 21
5.54999
  0
LINE
  8
0
 10
62.5
 20
5.54999
 11
62.335
 21
5.56442
  0
LINE
  8
0
 10
80.8264
 20
4.01518
 11
80.658
 21
4.0603
  0
LINE
  8
0
 10
80.658
 20
4.0603
 11
80.5
 21
4.13397
  0
LINE
  8
0
 10
80.5
 20
4.13397
 11
80.3572
 21
4.23395
  0
LINE
  8
0
 10
80.3572
 20
4.23395
 11
80.2339
 21
4.35721
  0
LINE
  8
0
 10
80.2339
 20
4.35721
 11
80.134
 21
4.5
  0
LINE
  8
0
 10
80.134
 20
4.5
 11
80.0603
 21
4.65797
  0
LINE
  8
0
 10
80.0603
 20
4.65797
 11
80.0152
 21
4.82634
  0
LINE
  8
0
 10
80.0152
 20
4.82634
 11
80
 21
5
  0
LINE
  8
0
 10
80
 20
5
 11
80.0152
 21
5.17365
  0
LINE
  8
0
 10
80.0152
 20
5.17365
 11
80.0603
 21
5.34201
  0
LINE
  8
0
 10
80.0603
 20
5.34201
 11
80.134
 21
5.5
  0
LINE
  8
0
 10
80.134
 20
5.5
 11
80.2339
 21
5.64278
  0
LINE
  8
0
 10
80.2339
 20
5.64278
 11
80.3572
 21
5.76604
  0
LINE
  8
0
 10
80.3572
 20
5.76604
 11
80.5
 21
5.86601
  0
LINE
  8
0
 10
80.5
 20
5.86601
 11
80.658
 21
5.93968
  0
LINE
  8
0
 10
80.658
 20
5.93968
 11
80.8264
 21
5.9848
  0
LINE
  8
0
 10
80.8264
 20
5.9848
 11
81
 21
6
  0
LINE
  8
0
 10
81
 20
6
 11
81.1736
 21
5.9848
  0
LINE
  8
0
 10
81.1736
 20
5.9848
 11
81.342
 21
5.93968
  0
LINE
  8
0
 10
81.342
 20
5.93968
 11
81.5
 21
5.86601
  0
LINE
  8
0
 10
81.5
 20
5.86601
 11
81.6428
 21
5.76604
  0
LINE
  8
0
 10
81.6428
 20
5.76604
 11
81.766
 21
5.64278
  0
LINE
  8
0
 10
81.766
 20
5.64278
 11
81.866
 21
5.5
  0
LINE
  8
0
 10
81.866
 20
5.5
 11
81.9397
 21
5.34201
  0
LINE
  8
0
 10
81.9397
 20
5.34201
 11
81.9848
 21
5.17365
  0
LINE
  8
0
 10
81.9848
 20
5.17365
 11
82
 21
5
  0
LINE
  8
0
 10
82
 20
5
 11
81.9848
 21
4.82634
  0
LINE
  8
0
 10
81.9848
 20
4.82634
 11
81.9397
 21
4.65797
  0
LINE
  8
0
 10
81.9397
 20
4.65797
 11
81.866
 21
4.5
  0
LINE
  8
0
 10
81.866
 20
4.5
 11
81.766
 21
4.35721
  0
LINE
  8
0
 10
81.766
 20
4.35721
 11
81.6428
 21
4.23395
  0
LINE
  8
0
 10
81.6428
 20
4.23395
 11
81.5
 21
4.13397
  0
LINE
  8
0
 10
81.5
 20
4.13397
 11
81.342
 21
4.0603
  0
LINE
  8
0
 10
81.342
 20
4.0603
 11
81.1736
 21
4.01518
  0
LINE
  8
0
 10
81.1736
 20
4.01518
 11
81
 21
4
  0
LINE
  8
0
 10
81
 20
4
 11
80.8264
 21
4.01518
  0
ENDSEC
  0
SECTION
  2
OBJECTS
  0
DICTIONARY
  0
ENDSEC
  0
EOF
