<?xml version="1.0" standalone="no"?>
<!DOCTYPE svg PUBLIC "-//W3C//DTD SVG 1.1//EN" "http://www.w3.org/Graphics/SVG/1.1/DTD/svg11.dtd">
<svg width="94mm" height="94mm" viewBox="0 -94 94 94" xmlns="http://www.w3.org/2000/svg" version="1.1">
<title>OpenSCAD Model</title>
<path d="
M 88.1047,-0.000900269 L 88.2094,-0.00364685 L 88.314,-0.00820923 L 88.4185,-0.0146027 L 88.5229,-0.0228271 L 88.6272,-0.0328674
 L 88.7312,-0.0447083 L 88.835,-0.0583801 L 88.9386,-0.0738678 L 89.0419,-0.0911407 L 89.1449,-0.110229 L 89.2475,-0.131104
 L 89.3497,-0.153778 L 89.4515,-0.178223 L 89.5529,-0.204437 L 89.6538,-0.232422 L 89.7542,-0.262161 L 89.8541,-0.293655
 L 89.9534,-0.326874 L 90.0521,-0.361832 L 90.1502,-0.398514 L 90.2476,-0.43689 L 90.3444,-0.476959 L 90.4404,-0.518723
 L 90.5357,-0.562149 L 90.6302,-0.607224 L 90.7239,-0.653946 L 90.8168,-0.702301 L 90.9088,-0.752274 L 91,-0.803833
 L 91.0902,-0.856995 L 91.1795,-0.911697 L 91.2678,-0.967972 L 91.3551,-1.02577 L 91.4415,-1.08508 L 91.5267,-1.14589
 L 91.6109,-1.20818 L 91.694,-1.27193 L 91.7759,-1.33711 L 91.8567,-1.40373 L 91.9363,-1.47174 L 92.0148,-1.54112
 L 92.092,-1.61188 L 92.1679,-1.68396 L 92.2426,-1.75735 L 92.316,-1.83205 L 92.3881,-1.908 L 92.4589,-1.98521
 L 92.5282,-2.06364 L 92.5963,-2.14326 L 92.6629,-2.22408 L 92.7281,-2.30603 L 92.7918,-2.3891 L 92.8541,-2.47328
 L 92.9149,-2.55853 L 92.9742,-2.64484 L 93.032,-2.73216 L 93.0883,-2.82048 L 93.143,-2.90976 L 93.1962,-3
 L 93.2477,-3.09114 L 93.2977,-3.18317 L 93.346,-3.27605 L 93.3928,-3.36977 L 93.4378,-3.46428 L 93.4813,-3.55957
 L 93.523,-3.65561 L 93.5631,-3.75235 L 93.6015,-3.84978 L 93.6382,-3.94788 L 93.6731,-4.04659 L 93.7063,-4.14589
 L 93.7378,-4.24576 L 93.7676,-4.34616 L 93.7955,-4.44708 L 93.8218,-4.54846 L 93.8462,-4.65028 L 93.8689,-4.75252
 L 93.8898,-4.85513 L 93.9088,-4.9581 L 93.9261,-5.06139 L 93.9416,-5.16495 L 93.9553,-5.26878 L 93.9671,-5.37282
 L 93.9772,-5.47705 L 93.9854,-5.58145 L 93.9918,-5.68597 L 93.9963,-5.79059 L 93.9991,-5.89528 L 94,-6
 L 94,-88 L 93.9991,-88.1047 L 93.9963,-88.2094 L 93.9918,-88.314 L 93.9854,-88.4185 L 93.9772,-88.5229
 L 93.9671,-88.6272 L 93.9553,-88.7312 L 93.9416,-88.835 L 93.9261,-88.9386 L 93.9088,-89.0419 L 93.8898,-89.1449
 L 93.8689,-89.2475 L 93.8462,-89.3497 L 93.8218,-89.4515 L 93.7955,-89.5529 L 93.7676,-89.6538 L 93.7378,-89.7542
 L 93.7063,-89.8541 L 93.6731,-89.9534 L 93.6382,-90.0521 L 93.6015,-90.1502 L 93.5631,-90.2476 L 93.523,-90.3444
 L 93.4813,-90.4404 L 93.4378,-90.5357 L 93.3928,-90.6302 L 93.346,-90.7239 L 93.2977,-90.8168 L 93.2477,-90.9088
 L 93.1962,-91 L 93.143,-91.0902 L 93.0883,-91.1795 L 93.032,-91.2678 L 92.9742,-91.3551 L 92.9149,-91.4415
 L 92.8541,-91.5267 L 92.7918,-91.6109 L 92.7281,-91.694 L 92.6629,-91.7759 L 92.5963,-91.8567 L 92.5282,-91.9363
 L 92.4589,-92.0148 L 92.3881,-92.092 L 92.316,-92.1679 L 92.2426,-92.2426 L 92.1679,-92.316 L 92.092,-92.3881
 L 92.0148,-92.4589 L 91.9363,-92.5282 L 91.8567,-92.5963 L 91.7759,-92.6629 L 91.694,-92.7281 L 91.6109,-92.7918
 L 91.5267,-92.8541 L 91.4415,-92.9149 L 91.3551,-92.9742 L 91.2678,-93.032 L 91.1795,-93.0883 L 91.0902,-93.143
 L 91,-93.1962 L 90.9088,-93.2477 L 90.8168,-93.2977 L 90.7239,-93.346 L 90.6302,-93.3928 L 90.5357,-93.4378
 L 90.4404,-93.4813 L 90.3444,-93.523 L 90.2476,-93.5631 L 90.1502,-93.6015 L 90.0521,-93.6382 L 89.9534,-93.6731
 L 89.8541,-93.7063 L 89.7542,-93.7378 L 89.6538,-93.7676 L 89.5529,-93.7955 L 89.4515,-93.8218 L 89.3497,-93.8462
 L 89.2475,-93.8689 L 89.1449,-93.8898 L 89.0419,-93.9088 L 88.9386,-93.9261 L 88.835,-93.9416 L 88.7312,-93.9553
 L 88.6272,-93.9671 L 88.5229,-93.9772 L 88.4185,-93.9854 L 88.314,-93.9918 L 88.2094,-93.9963 L 88.1047,-93.9991
 L 88,-94 L 6,-94 L 5.89528,-93.9991 L 5.79059,-93.9963 L 5.68597,-93.9918 L 5.58145,-93.9854
 L 5.47705,-93.9772 L 5.37282,-93.9671 L 5.26878,-93.9553 L 5.16495,-93.9416 L 5.06139,-93.9261 L 4.9581,-93.9088
 L 4.85513,-93.8898 L 4.75252,-93.8689 L 4.65028,-93.8462 L 4.54846,-93.8218 L 4.44708,-93.7955 L 4.34616,-93.7676
 L 4.24576,-93.7378 L 4.14589,-93.7063 L 4.04659,-93.6731 L 3.94788,-93.6382 L 3.84978,-93.6015 L 3.75235,-93.5631
 L 3.65561,-93.523 L 3.55957,-93.4813 L 3.46428,-93.4378 L 3.36977,-93.3928 L 3.27605,-93.346 L 3.18317,-93.2977
 L 3.09114,-93.2477 L 3,-93.1962 L 2.90976,-93.143 L 2.82048,-93.0883 L 2.73216,-93.032 L 2.64484,-92.9742
 L 2.55853,-92.9149 L 2.47328,-92.8541 L 2.3891,-92.7918 L 2.30603,-92.7281 L 2.22408,-92.6629 L 2.14326,-92.5963
 L 2.06364,-92.5282 L 1.98521,-92.4589 L 1.908,-92.3881 L 1.83205,-92.316 L 1.75735,-92.2426 L 1.68396,-92.1679
 L 1.61188,-92.092 L 1.54112,-92.0148 L 1.47174,-91.9363 L 1.40373,-91.8567 L 1.33711,-91.7759 L 1.27193,-91.694
 L 1.20818,-91.6109 L 1.14589,-91.5267 L 1.08508,-91.4415 L 1.02577,-91.3551 L 0.967972,-91.2678 L 0.911697,-91.1795
 L 0.856995,-91.0902 L 0.803833,-91 L 0.752274,-90.9088 L 0.702301,-90.8168 L 0.653946,-90.7239 L 0.607224,-90.6302
 L 0.562149,-90.5357 L 0.518723,-90.4404 L 0.476959,-90.3444 L 0.43689,-90.2476 L 0.398514,-90.1502 L 0.361832,-90.0521
 L 0.326874,-89.9534 L 0.293655,-89.8541 L 0.262161,-89.7542 L 0.232422,-89.6538 L 0.204437,-89.5529 L 0.178223,-89.4515
 L 0.153778,-89.3497 L 0.131104,-89.2475 L 0.110229,-89.1449 L 0.0911407,-89.0419 L 0.0738678,-88.9386 L 0.0583801,-88.835
 L 0.0447083,-88.7312 L 0.0328674,-88.6272 L 0.0228271,-88.5229 L 0.0146027,-88.4185 L 0.00820923,-88.314 L 0.00364685,-88.2094
 L 0.000900269,-88.1047 L 0,-88 L 0,-6 L 0.000900269,-5.89528 L 0.00364685,-5.79059 L 0.00820923,-5.68597
 L 0.0146027,-5.58145 L 0.0228271,-5.47705 L 0.0328674,-5.37282 L 0.0447083,-5.26878 L 0.0583801,-5.16495 L 0.0738678,-5.06139
 L 0.0911407,-4.9581 L 0.110229,-4.85513 L 0.131104,-4.75252 L 0.153778,-4.65028 L 0.178223,-4.54846 L 0.204437,-4.44708
 L 0.232422,-4.34616 L 0.262161,-4.24576 L 0.293655,-4.14589 L 0.326874,-4.04659 L 0.361832,-3.94788 L 0.398514,-3.84978
 L 0.43689,-3.75235 L 0.476959,-3.65561 L 0.518723,-3.55957 L 0.562149,-3.46428 L 0.607224,-3.36977 L 0.653946,-3.27605
 L 0.702301,-3.18317 L 0.752274,-3.09114 L 0.803833,-3 L 0.856995,-2.90976 L 0.911697,-2.82048 L 0.967972,-2.73216
 L 1.02577,-2.64484 L 1.08508,-2.55853 L 1.14589,-2.47328 L 1.20818,-2.3891 L 1.27193,-2.30603 L 1.33711,-2.22408
 L 1.40373,-2.14326 L 1.47174,-2.06364 L 1.54112,-1.98521 L 1.61188,-1.908 L 1.68396,-1.83205 L 1.75735,-1.75735
 L 1.83205,-1.68396 L 1.908,-1.61188 L 1.98521,-1.54112 L 2.06364,-1.47174 L 2.14326,-1.40373 L 2.22408,-1.33711
 L 2.30603,-1.27193 L 2.3891,-1.20818 L 2.47328,-1.14589 L 2.55853,-1.08508 L 2.64484,-1.02577 L 2.73216,-0.967972
 L 2.82048,-0.911697 L 2.90976,-0.856995 L 3,-0.803833 L 3.09114,-0.752274 L 3.18317,-0.702301 L 3.27605,-0.653946
 L 3.36977,-0.607224 L 3.46428,-0.562149 L 3.55957,-0.518723 L 3.65561,-0.476959 L 3.75235,-0.43689 L 3.84978,-0.398514
 L 3.94788,-0.361832 L 4.04659,-0.326874 L 4.14589,-0.293655 L 4.24576,-0.262161 L 4.34616,-0.232422 L 4.44708,-0.204437
 L 4.54846,-0.178223 L 4.65028,-0.153778 L 4.75252,-0.131104 L 4.85513,-0.110229 L 4.9581,-0.0911407 L 5.06139,-0.0738678
 L 5.16495,-0.0583801 L 5.26878,-0.0447083 L 5.37282,-0.0328674 L 5.47705,-0.0228271 L 5.58145,-0.0146027 L 5.68597,-0.00820923
 L 5.79059,-0.00364685 L 5.89528,-0.000900269 L 6,-0 L 88,-0 z
M 13.4782,-79.2502 L 13.4564,-79.2507 L 13.4346,-79.2517 L 13.4128,-79.253 L 13.3911,-79.2547 L 13.3693,-79.2568
 L 13.3477,-79.2593 L 13.326,-79.2622 L 13.3044,-79.2654 L 13.2829,-79.269 L 13.2615,-79.273 L 13.2401,-79.2773
 L 13.2188,-79.282 L 13.1976,-79.2871 L 13.1765,-79.2926 L 13.1554,-79.2984 L 13.1345,-79.3046 L 13.1137,-79.3112
 L 13.093,-79.3181 L 13.0725,-79.3254 L 13.052,-79.333 L 13.0317,-79.341 L 13.0116,-79.3494 L 12.9916,-79.3581
 L 12.9717,-79.3671 L 12.952,-79.3765 L 12.9325,-79.3862 L 12.9131,-79.3963 L 12.894,-79.4067 L 12.875,-79.4175
 L 12.8562,-79.4285 L 12.8376,-79.4399 L 12.8192,-79.4517 L 12.801,-79.4637 L 12.783,-79.4761 L 12.7653,-79.4887
 L 12.7477,-79.5017 L 12.7304,-79.515 L 12.7133,-79.5286 L 12.6965,-79.5424 L 12.6799,-79.5566 L 12.6636,-79.5711
 L 12.6475,-79.5858 L 12.6317,-79.6008 L 12.6161,-79.6161 L 12.6008,-79.6317 L 12.5858,-79.6475 L 12.5711,-79.6636
 L 12.5566,-79.6799 L 12.5424,-79.6965 L 12.5286,-79.7133 L 12.515,-79.7304 L 12.5017,-79.7477 L 12.4887,-79.7653
 L 12.4761,-79.783 L 12.4637,-79.801 L 12.4517,-79.8192 L 12.4399,-79.8376 L 12.4285,-79.8562 L 12.4175,-79.875
 L 12.4067,-79.894 L 12.3963,-79.9131 L 12.3862,-79.9325 L 12.3765,-79.952 L 12.3671,-79.9717 L 12.3581,-79.9916
 L 12.3494,-80.0116 L 12.341,-80.0317 L 12.333,-80.052 L 12.3254,-80.0725 L 12.3181,-80.093 L 12.3112,-80.1137
 L 12.3046,-80.1345 L 12.2984,-80.1554 L 12.2926,-80.1765 L 12.2871,-80.1976 L 12.282,-80.2188 L 12.2773,-80.2401
 L 12.273,-80.2615 L 12.269,-80.2829 L 12.2654,-80.3044 L 12.2622,-80.326 L 12.2593,-80.3477 L 12.2568,-80.3693
 L 12.2547,-80.3911 L 12.253,-80.4128 L 12.2517,-80.4346 L 12.2507,-80.4564 L 12.2502,-80.4782 L 12.25,-80.5
 L 12.2502,-80.5218 L 12.2507,-80.5436 L 12.2517,-80.5654 L 12.253,-80.5872 L 12.2547,-80.6089 L 12.2568,-80.6306
 L 12.2593,-80.6523 L 12.2622,-80.674 L 12.2654,-80.6955 L 12.269,-80.7171 L 12.273,-80.7385 L 12.2773,-80.7599
 L 12.282,-80.7812 L 12.2871,-80.8024 L 12.2926,-80.8235 L 12.2984,-80.8445 L 12.3046,-80.8655 L 12.3112,-80.8863
 L 12.3181,-80.907 L 12.3254,-80.9275 L 12.333,-80.948 L 12.341,-80.9682 L 12.3494,-80.9884 L 12.3581,-81.0084
 L 12.3671,-81.0283 L 12.3765,-81.048 L 12.3862,-81.0675 L 12.3963,-81.0868 L 12.4067,-81.106 L 12.4175,-81.125
 L 12.4285,-81.1438 L 12.4399,-81.1624 L 12.4517,-81.1808 L 12.4637,-81.199 L 12.4761,-81.217 L 12.4887,-81.2347
 L 12.5017,-81.2523 L 12.515,-81.2696 L 12.5286,-81.2866 L 12.5424,-81.3035 L 12.5566,-81.3201 L 12.5711,-81.3364
 L 12.5858,-81.3525 L 12.6008,-81.3683 L 12.6161,-81.3839 L 12.6317,-81.3992 L 12.6475,-81.4142 L 12.6636,-81.4289
 L 12.6799,-81.4434 L 12.6965,-81.4576 L 12.7133,-81.4714 L 12.7304,-81.485 L 12.7477,-81.4983 L 12.7653,-81.5113
 L 12.783,-81.5239 L 12.801,-81.5363 L 12.8192,-81.5483 L 12.8376,-81.5601 L 12.8562,-81.5715 L 12.875,-81.5825
 L 12.894,-81.5933 L 12.9131,-81.6037 L 12.9325,-81.6138 L 12.952,-81.6235 L 12.9717,-81.6329 L 12.9916,-81.6419
 L 13.0116,-81.6506 L 13.0317,-81.659 L 13.052,-81.667 L 13.0725,-81.6746 L 13.093,-81.6819 L 13.1137,-81.6888
 L 13.1345,-81.6954 L 13.1554,-81.7016 L 13.1765,-81.7074 L 13.1976,-81.7129 L 13.2188,-81.718 L 13.2401,-81.7227
 L 13.2615,-81.727 L 13.2829,-81.731 L 13.3044,-81.7346 L 13.326,-81.7378 L 13.3477,-81.7407 L 13.3693,-81.7431
 L 13.3911,-81.7452 L 13.4128,-81.7469 L 13.4346,-81.7483 L 13.4564,-81.7492 L 13.4782,-81.7498 L 13.5,-81.75
 L 13.5218,-81.7498 L 13.5436,-81.7492 L 13.5654,-81.7483 L 13.5872,-81.7469 L 13.6089,-81.7452 L 13.6306,-81.7431
 L 13.6523,-81.7407 L 13.674,-81.7378 L 13.6955,-81.7346 L 13.7171,-81.731 L 13.7385,-81.727 L 13.7599,-81.7227
 L 13.7812,-81.718 L 13.8024,-81.7129 L 13.8235,-81.7074 L 13.8445,-81.7016 L 13.8655,-81.6954 L 13.8863,-81.6888
 L 13.907,-81.6819 L 13.9275,-81.6746 L 13.948,-81.667 L 13.9682,-81.659 L 13.9884,-81.6506 L 14.0084,-81.6419
 L 14.0283,-81.6329 L 14.048,-81.6235 L 14.0675,-81.6138 L 14.0868,-81.6037 L 14.106,-81.5933 L 14.125,-81.5825
 L 14.1438,-81.5715 L 14.1624,-81.5601 L 14.1808,-81.5483 L 14.199,-81.5363 L 14.217,-81.5239 L 14.2347,-81.5113
 L 14.2523,-81.4983 L 14.2696,-81.485 L 14.2866,-81.4714 L 14.3035,-81.4576 L 14.3201,-81.4434 L 14.3364,-81.4289
 L 14.3525,-81.4142 L 14.3683,-81.3992 L 14.3839,-81.3839 L 14.3992,-81.3683 L 14.4142,-81.3525 L 14.4289,-81.3364
 L 14.4434,-81.3201 L 14.4576,-81.3035 L 14.4714,-81.2866 L 14.485,-81.2696 L 14.4983,-81.2523 L 14.5113,-81.2347
 L 14.5239,-81.217 L 14.5363,-81.199 L 14.5483,-81.1808 L 14.5601,-81.1624 L 14.5715,-81.1438 L 14.5825,-81.125
 L 14.5933,-81.106 L 14.6037,-81.0868 L 14.6138,-81.0675 L 14.6235,-81.048 L 14.6329,-81.0283 L 14.6419,-81.0084
 L 14.6506,-80.9884 L 14.659,-80.9682 L 14.667,-80.948 L 14.6746,-80.9275 L 14.6819,-80.907 L 14.6888,-80.8863
 L 14.6954,-80.8655 L 14.7016,-80.8445 L 14.7074,-80.8235 L 14.7129,-80.8024 L 14.718,-80.7812 L 14.7227,-80.7599
 L 14.727,-80.7385 L 14.731,-80.7171 L 14.7346,-80.6955 L 14.7378,-80.674 L 14.7407,-80.6523 L 14.7431,-80.6306
 L 14.7452,-80.6089 L 14.7469,-80.5872 L 14.7483,-80.5654 L 14.7492,-80.5436 L 14.7498,-80.5218 L 14.75,-80.5
 L 14.7498,-80.4782 L 14.7492,-80.4564 L 14.7483,-80.4346 L 14.7469,-80.4128 L 14.7452,-80.3911 L 14.7431,-80.3693
 L 14.7407,-80.3477 L 14.7378,-80.326 L 14.7346,-80.3044 L 14.731,-80.2829 L 14.727,-80.2615 L 14.7227,-80.2401
 L 14.718,-80.2188 L 14.7129,-80.1976 L 14.7074,-80.1765 L 14.7016,-80.1554 L 14.6954,-80.1345 L 14.6888,-80.1137
 L 14.6819,-80.093 L 14.6746,-80.0725 L 14.667,-80.052 L 14.659,-80.0317 L 14.6506,-80.0116 L 14.6419,-79.9916
 L 14.6329,-79.9717 L 14.6235,-79.952 L 14.6138,-79.9325 L 14.6037,-79.9131 L 14.5933,-79.894 L 14.5825,-79.875
 L 14.5715,-79.8562 L 14.5601,-79.8376 L 14.5483,-79.8192 L 14.5363,-79.801 L 14.5239,-79.783 L 14.5113,-79.7653
 L 14.4983,-79.7477 L 14.485,-79.7304 L 14.4714,-79.7133 L 14.4576,-79.6965 L 14.4434,-79.6799 L 14.4289,-79.6636
 L 14.4142,-79.6475 L 14.3992,-79.6317 L 14.3839,-79.6161 L 14.3683,-79.6008 L 14.3525,-79.5858 L 14.3364,-79.5711
 L 14.3201,-79.5566 L 14.3035,-79.5424 L 14.2866,-79.5286 L 14.2696,-79.515 L 14.2523,-79.5017 L 14.2347,-79.4887
 L 14.217,-79.4761 L 14.199,-79.4637 L 14.1808,-79.4517 L 14.1624,-79.4399 L 14.1438,-79.4285 L 14.125,-79.4175
 L 14.106,-79.4067 L 14.0868,-79.3963 L 14.0675,-79.3862 L 14.048,-79.3765 L 14.0283,-79.3671 L 14.0084,-79.3581
 L 13.9884,-79.3494 L 13.9682,-79.341 L 13.948,-79.333 L 13.9275,-79.3254 L 13.907,-79.3181 L 13.8863,-79.3112
 L 13.8655,-79.3046 L 13.8445,-79.2984 L 13.8235,-79.2926 L 13.8024,-79.2871 L 13.7812,-79.282 L 13.7599,-79.2773
 L 13.7385,-79.273 L 13.7171,-79.269 L 13.6955,-79.2654 L 13.674,-79.2622 L 13.6523,-79.2593 L 13.6306,-79.2568
 L 13.6089,-79.2547 L 13.5872,-79.253 L 13.5654,-79.2517 L 13.5436,-79.2507 L 13.5218,-79.2502 L 13.5,-79.25
 z
M 80.4782,-79.2502 L 80.4564,-79.2507 L 80.4346,-79.2517 L 80.4128,-79.253 L 80.3911,-79.2547 L 80.3693,-79.2568
 L 80.3477,-79.2593 L 80.326,-79.2622 L 80.3044,-79.2654 L 80.2829,-79.269 L 80.2615,-79.273 L 80.2401,-79.2773
 L 80.2188,-79.282 L 80.1976,-79.2871 L 80.1765,-79.2926 L 80.1554,-79.2984 L 80.1345,-79.3046 L 80.1137,-79.3112
 L 80.093,-79.3181 L 80.0725,-79.3254 L 80.052,-79.333 L 80.0317,-79.341 L 80.0116,-79.3494 L 79.9916,-79.3581
 L 79.9717,-79.3671 L 79.952,-79.3765 L 79.9325,-79.3862 L 79.9131,-79.3963 L 79.894,-79.4067 L 79.875,-79.4175
 L 79.8562,-79.4285 L 79.8376,-79.4399 L 79.8192,-79.4517 L 79.801,-79.4637 L 79.783,-79.4761 L 79.7653,-79.4887
 L 79.7477,-79.5017 L 79.7304,-79.515 L 79.7133,-79.5286 L 79.6965,-79.5424 L 79.6799,-79.5566 L 79.6636,-79.5711
 L 79.6475,-79.5858 L 79.6317,-79.6008 L 79.6161,-79.6161 L 79.6008,-79.6317 L 79.5858,-79.6475 L 79.5711,-79.6636
 L 79.5566,-79.6799 L 79.5424,-79.6965 L 79.5286,-79.7133 L 79.515,-79.7304 L 79.5017,-79.7477 L 79.4887,-79.7653
 L 79.4761,-79.783 L 79.4637,-79.801 L 79.4517,-79.8192 L 79.4399,-79.8376 L 79.4285,-79.8562 L 79.4175,-79.875
 L 79.4067,-79.894 L 79.3963,-79.9131 L 79.3862,-79.9325 L 79.3765,-79.952 L 79.3671,-79.9717 L 79.3581,-79.9916
 L 79.3494,-80.0116 L 79.341,-80.0317 L 79.333,-80.052 L 79.3254,-80.0725 L 79.3181,-80.093 L 79.3112,-80.1137
 L 79.3046,-80.1345 L 79.2984,-80.1554 L 79.2926,-80.1765 L 79.2871,-80.1976 L 79.282,-80.2188 L 79.2773,-80.2401
 L 79.273,-80.2615 L 79.269,-80.2829 L 79.2654,-80.3044 L 79.2622,-80.326 L 79.2593,-80.3477 L 79.2568,-80.3693
 L 79.2547,-80.3911 L 79.253,-80.4128 L 79.2517,-80.4346 L 79.2507,-80.4564 L 79.2502,-80.4782 L 79.25,-80.5
 L 79.2502,-80.5218 L 79.2507,-80.5436 L 79.2517,-80.5654 L 79.253,-80.5872 L 79.2547,-80.6089 L 79.2568,-80.6306
 L 79.2593,-80.6523 L 79.2622,-80.674 L 79.2654,-80.6955 L 79.269,-80.7171 L 79.273,-80.7385 L 79.2773,-80.7599
 L 79.282,-80.7812 L 79.2871,-80.8024 L 79.2926,-80.8235 L 79.2984,-80.8445 L 79.3046,-80.8655 L 79.3112,-80.8863
 L 79.3181,-80.907 L 79.3254,-80.9275 L 79.333,-80.948 L 79.341,-80.9682 L 79.3494,-80.9884 L 79.3581,-81.0084
 L 79.3671,-81.0283 L 79.3765,-81.048 L 79.3862,-81.0675 L 79.3963,-81.0868 L 79.4067,-81.106 L 79.4175,-81.125
 L 79.4285,-81.1438 L 79.4399,-81.1624 L 79.4517,-81.1808 L 79.4637,-81.199 L 79.4761,-81.217 L 79.4887,-81.2347
 L 79.5017,-81.2523 L 79.515,-81.2696 L 79.5286,-81.2866 L 79.5424,-81.3035 L 79.5566,-81.3201 L 79.5711,-81.3364
 L 79.5858,-81.3525 L 79.6008,-81.3683 L 79.6161,-81.3839 L 79.6317,-81.3992 L 79.6475,-81.4142 L 79.6636,-81.4289
 L 79.6799,-81.4434 L 79.6965,-81.4576 L 79.7133,-81.4714 L 79.7304,-81.485 L 79.7477,-81.4983 L 79.7653,-81.5113
 L 79.783,-81.5239 L 79.801,-81.5363 L 79.8192,-81.5483 L 79.8376,-81.5601 L 79.8562,-81.5715 L 79.875,-81.5825
 L 79.894,-81.5933 L 79.9131,-81.6037 L 79.9325,-81.6138 L 79.952,-81.6235 L 79.9717,-81.6329 L 79.9916,-81.6419
 L 80.0116,-81.6506 L 80.0317,-81.659 L 80.052,-81.667 L 80.0725,-81.6746 L 80.093,-81.6819 L 80.1137,-81.6888
 L 80.1345,-81.6954 L 80.1554,-81.7016 L 80.1765,-81.7074 L 80.1976,-81.7129 L 80.2188,-81.718 L 80.2401,-81.7227
 L 80.2615,-81.727 L 80.2829,-81.731 L 80.3044,-81.7346 L 80.326,-81.7378 L 80.3477,-81.7407 L 80.3693,-81.7431
 L 80.3911,-81.7452 L 80.4128,-81.7469 L 80.4346,-81.7483 L 80.4564,-81.7492 L 80.4782,-81.7498 L 80.5,-81.75
 L 80.5218,-81.7498 L 80.5436,-81.7492 L 80.5654,-81.7483 L 80.5872,-81.7469 L 80.6089,-81.7452 L 80.6306,-81.7431
 L 80.6523,-81.7407 L 80.674,-81.7378 L 80.6955,-81.7346 L 80.7171,-81.731 L 80.7385,-81.727 L 80.7599,-81.7227
 L 80.7812,-81.718 L 80.8024,-81.7129 L 80.8235,-81.7074 L 80.8445,-81.7016 L 80.8655,-81.6954 L 80.8863,-81.6888
 L 80.907,-81.6819 L 80.9275,-81.6746 L 80.948,-81.667 L 80.9682,-81.659 L 80.9884,-81.6506 L 81.0084,-81.6419
 L 81.0283,-81.6329 L 81.048,-81.6235 L 81.0675,-81.6138 L 81.0868,-81.6037 L 81.106,-81.5933 L 81.125,-81.5825
 L 81.1438,-81.5715 L 81.1624,-81.5601 L 81.1808,-81.5483 L 81.199,-81.5363 L 81.217,-81.5239 L 81.2347,-81.5113
 L 81.2523,-81.4983 L 81.2696,-81.485 L 81.2866,-81.4714 L 81.3035,-81.4576 L 81.3201,-81.4434 L 81.3364,-81.4289
 L 81.3525,-81.4142 L 81.3683,-81.3992 L 81.3839,-81.3839 L 81.3992,-81.3683 L 81.4142,-81.3525 L 81.4289,-81.3364
 L 81.4434,-81.3201 L 81.4576,-81.3035 L 81.4714,-81.2866 L 81.485,-81.2696 L 81.4983,-81.2523 L 81.5113,-81.2347
 L 81.5239,-81.217 L 81.5363,-81.199 L 81.5483,-81.1808 L 81.5601,-81.1624 L 81.5715,-81.1438 L 81.5825,-81.125
 L 81.5933,-81.106 L 81.6037,-81.0868 L 81.6138,-81.0675 L 81.6235,-81.048 L 81.6329,-81.0283 L 81.6419,-81.0084
 L 81.6506,-80.9884 L 81.659,-80.9682 L 81.667,-80.948 L 81.6746,-80.9275 L 81.6819,-80.907 L 81.6888,-80.8863
 L 81.6954,-80.8655 L 81.7016,-80.8445 L 81.7074,-80.8235 L 81.7129,-80.8024 L 81.718,-80.7812 L 81.7227,-80.7599
 L 81.727,-80.7385 L 81.731,-80.7171 L 81.7346,-80.6955 L 81.7378,-80.674 L 81.7407,-80.6523 L 81.7431,-80.6306
 L 81.7452,-80.6089 L 81.7469,-80.5872 L 81.7483,-80.5654 L 81.7492,-80.5436 L 81.7498,-80.5218 L 81.75,-80.5
 L 81.7498,-80.4782 L 81.7492,-80.4564 L 81.7483,-80.4346 L 81.7469,-80.4128 L 81.7452,-80.3911 L 81.7431,-80.3693
 L 81.7407,-80.3477 L 81.7378,-80.326 L 81.7346,-80.3044 L 81.731,-80.2829 L 81.727,-80.2615 L 81.7227,-80.2401
 L 81.718,-80.2188 L 81.7129,-80.1976 L 81.7074,-80.1765 L 81.7016,-80.1554 L 81.6954,-80.1345 L 81.6888,-80.1137
 L 81.6819,-80.093 L 81.6746,-80.0725 L 81.667,-80.052 L 81.659,-80.0317 L 81.6506,-80.0116 L 81.6419,-79.9916
 L 81.6329,-79.9717 L 81.6235,-79.952 L 81.6138,-79.9325 L 81.6037,-79.9131 L 81.5933,-79.894 L 81.5825,-79.875
 L 81.5715,-79.8562 L 81.5601,-79.8376 L 81.5483,-79.8192 L 81.5363,-79.801 L 81.5239,-79.783 L 81.5113,-79.7653
 L 81.4983,-79.7477 L 81.485,-79.7304 L 81.4714,-79.7133 L 81.4576,-79.6965 L 81.4434,-79.6799 L 81.4289,-79.6636
 L 81.4142,-79.6475 L 81.3992,-79.6317 L 81.3839,-79.6161 L 81.3683,-79.6008 L 81.3525,-79.5858 L 81.3364,-79.5711
 L 81.3201,-79.5566 L 81.3035,-79.5424 L 81.2866,-79.5286 L 81.2696,-79.515 L 81.2523,-79.5017 L 81.2347,-79.4887
 L 81.217,-79.4761 L 81.199,-79.4637 L 81.1808,-79.4517 L 81.1624,-79.4399 L 81.1438,-79.4285 L 81.125,-79.4175
 L 81.106,-79.4067 L 81.0868,-79.3963 L 81.0675,-79.3862 L 81.048,-79.3765 L 81.0283,-79.3671 L 81.0084,-79.3581
 L 80.9884,-79.3494 L 80.9682,-79.341 L 80.948,-79.333 L 80.9275,-79.3254 L 80.907,-79.3181 L 80.8863,-79.3112
 L 80.8655,-79.3046 L 80.8445,-79.2984 L 80.8235,-79.2926 L 80.8024,-79.2871 L 80.7812,-79.282 L 80.7599,-79.2773
 L 80.7385,-79.273 L 80.7171,-79.269 L 80.6955,-79.2654 L 80.674,-79.2622 L 80.6523,-79.2593 L 80.6306,-79.2568
 L 80.6089,-79.2547 L 80.5872,-79.253 L 80.5654,-79.2517 L 80.5436,-79.2507 L 80.5218,-79.2502 L 80.5,-79.25
 z
M 52.5,-55.4 L 52.5,-80.5 L 76.5,-80.5 L 76.5,-55.4 z
M 27,-22 L 27,-76 L 48,-76 L 48,-22 z
M 7,-22 L 7,-27 L 9,-27 L 9,-22 z
M 66,-22 L 66,-27 L 68,-27 L 68,-22 z
M 13.4782,-12.2502 L 13.4564,-12.2507 L 13.4346,-12.2517 L 13.4128,-12.253 L 13.3911,-12.2547 L 13.3693,-12.2568
 L 13.3477,-12.2593 L 13.326,-12.2622 L 13.3044,-12.2654 L 13.2829,-12.269 L 13.2615,-12.273 L 13.2401,-12.2773
 L 13.2188,-12.282 L 13.1976,-12.2871 L 13.1765,-12.2926 L 13.1554,-12.2984 L 13.1345,-12.3046 L 13.1137,-12.3112
 L 13.093,-12.3181 L 13.0725,-12.3254 L 13.052,-12.333 L 13.0317,-12.341 L 13.0116,-12.3494 L 12.9916,-12.3581
 L 12.9717,-12.3671 L 12.952,-12.3765 L 12.9325,-12.3862 L 12.9131,-12.3963 L 12.894,-12.4067 L 12.875,-12.4175
 L 12.8562,-12.4285 L 12.8376,-12.4399 L 12.8192,-12.4517 L 12.801,-12.4637 L 12.783,-12.4761 L 12.7653,-12.4887
 L 12.7477,-12.5017 L 12.7304,-12.515 L 12.7133,-12.5286 L 12.6965,-12.5424 L 12.6799,-12.5566 L 12.6636,-12.5711
 L 12.6475,-12.5858 L 12.6317,-12.6008 L 12.6161,-12.6161 L 12.6008,-12.6317 L 12.5858,-12.6475 L 12.5711,-12.6636
 L 12.5566,-12.6799 L 12.5424,-12.6965 L 12.5286,-12.7133 L 12.515,-12.7304 L 12.5017,-12.7477 L 12.4887,-12.7653
 L 12.4761,-12.783 L 12.4637,-12.801 L 12.4517,-12.8192 L 12.4399,-12.8376 L 12.4285,-12.8562 L 12.4175,-12.875
 L 12.4067,-12.894 L 12.3963,-12.9131 L 12.3862,-12.9325 L 12.3765,-12.952 L 12.3671,-12.9717 L 12.3581,-12.9916
 L 12.3494,-13.0116 L 12.341,-13.0317 L 12.333,-13.052 L 12.3254,-13.0725 L 12.3181,-13.093 L 12.3112,-13.1137
 L 12.3046,-13.1345 L 12.2984,-13.1554 L 12.2926,-13.1765 L 12.2871,-13.1976 L 12.282,-13.2188 L 12.2773,-13.2401
 L 12.273,-13.2615 L 12.269,-13.2829 L 12.2654,-13.3044 L 12.2622,-13.326 L 12.2593,-13.3477 L 12.2568,-13.3693
 L 12.2547,-13.3911 L 12.253,-13.4128 L 12.2517,-13.4346 L 12.2507,-13.4564 L 12.2502,-13.4782 L 12.25,-13.5
 L 12.2502,-13.5218 L 12.2507,-13.5436 L 12.2517,-13.5654 L 12.253,-13.5872 L 12.2547,-13.6089 L 12.2568,-13.6306
 L 12.2593,-13.6523 L 12.2622,-13.674 L 12.2654,-13.6955 L 12.269,-13.7171 L 12.273,-13.7385 L 12.2773,-13.7599
 L 12.282,-13.7812 L 12.2871,-13.8024 L 12.2926,-13.8235 L 12.2984,-13.8445 L 12.3046,-13.8655 L 12.3112,-13.8863
 L 12.3181,-13.907 L 12.3254,-13.9275 L 12.333,-13.948 L 12.341,-13.9682 L 12.3494,-13.9884 L 12.3581,-14.0084
 L 12.3671,-14.0283 L 12.3765,-14.048 L 12.3862,-14.0675 L 12.3963,-14.0868 L 12.4067,-14.106 L 12.4175,-14.125
 L 12.4285,-14.1438 L 12.4399,-14.1624 L 12.4517,-14.1808 L 12.4637,-14.199 L 12.4761,-14.217 L 12.4887,-14.2347
 L 12.5017,-14.2523 L 12.515,-14.2696 L 12.5286,-14.2866 L 12.5424,-14.3035 L 12.5566,-14.3201 L 12.5711,-14.3364
 L 12.5858,-14.3525 L 12.6008,-14.3683 L 12.6161,-14.3839 L 12.6317,-14.3992 L 12.6475,-14.4142 L 12.6636,-14.4289
 L 12.6799,-14.4434 L 12.6965,-14.4576 L 12.7133,-14.4714 L 12.7304,-14.485 L 12.7477,-14.4983 L 12.7653,-14.5113
 L 12.783,-14.5239 L 12.801,-14.5363 L 12.8192,-14.5483 L 12.8376,-14.5601 L 12.8562,-14.5715 L 12.875,-14.5825
 L 12.894,-14.5933 L 12.9131,-14.6037 L 12.9325,-14.6138 L 12.952,-14.6235 L 12.9717,-14.6329 L 12.9916,-14.6419
 L 13.0116,-14.6506 L 13.0317,-14.659 L 13.052,-14.667 L 13.0725,-14.6746 L 13.093,-14.6819 L 13.1137,-14.6888
 L 13.1345,-14.6954 L 13.1554,-14.7016 L 13.1765,-14.7074 L 13.1976,-14.7129 L 13.2188,-14.718 L 13.2401,-14.7227
 L 13.2615,-14.727 L 13.2829,-14.731 L 13.3044,-14.7346 L 13.326,-14.7378 L 13.3477,-14.7407 L 13.3693,-14.7431
 L 13.3911,-14.7452 L 13.4128,-14.7469 L 13.4346,-14.7483 L 13.4564,-14.7492 L 13.4782,-14.7498 L 13.5,-14.75
 L 13.5218,-14.7498 L 13.5436,-14.7492 L 13.5654,-14.7483 L 13.5872,-14.7469 L 13.6089,-14.7452 L 13.6306,-14.7431
 L 13.6523,-14.7407 L 13.674,-14.7378 L 13.6955,-14.7346 L 13.7171,-14.731 L 13.7385,-14.727 L 13.7599,-14.7227
 L 13.7812,-14.718 L 13.8024,-14.7129 L 13.8235,-14.7074 L 13.8445,-14.7016 L 13.8655,-14.6954 L 13.8863,-14.6888
 L 13.907,-14.6819 L 13.9275,-14.6746 L 13.948,-14.667 L 13.9682,-14.659 L 13.9884,-14.6506 L 14.0084,-14.6419
 L 14.0283,-14.6329 L 14.048,-14.6235 L 14.0675,-14.6138 L 14.0868,-14.6037 L 14.106,-14.5933 L 14.125,-14.5825
 L 14.1438,-14.5715 L 14.1624,-14.5601 L 14.1808,-14.5483 L 14.199,-14.5363 L 14.217,-14.5239 L 14.2347,-14.5113
 L 14.2523,-14.4983 L 14.2696,-14.485 L 14.2866,-14.4714 L 14.3035,-14.4576 L 14.3201,-14.4434 L 14.3364,-14.4289
 L 14.3525,-14.4142 L 14.3683,-14.3992 L 14.3839,-14.3839 L 14.3992,-14.3683 L 14.4142,-14.3525 L 14.4289,-14.3364
 L 14.4434,-14.3201 L 14.4576,-14.3035 L 14.4714,-14.2866 L 14.485,-14.2696 L 14.4983,-14.2523 L 14.5113,-14.2347
 L 14.5239,-14.217 L 14.5363,-14.199 L 14.5483,-14.1808 L 14.5601,-14.1624 L 14.5715,-14.1438 L 14.5825,-14.125
 L 14.5933,-14.106 L 14.6037,-14.0868 L 14.6138,-14.0675 L 14.6235,-14.048 L 14.6329,-14.0283 L 14.6419,-14.0084
 L 14.6506,-13.9884 L 14.659,-13.9682 L 14.667,-13.948 L 14.6746,-13.9275 L 14.6819,-13.907 L 14.6888,-13.8863
 L 14.6954,-13.8655 L 14.7016,-13.8445 L 14.7074,-13.8235 L 14.7129,-13.8024 L 14.718,-13.7812 L 14.7227,-13.7599
 L 14.727,-13.7385 L 14.731,-13.7171 L 14.7346,-13.6955 L 14.7378,-13.674 L 14.7407,-13.6523 L 14.7431,-13.6306
 L 14.7452,-13.6089 L 14.7469,-13.5872 L 14.7483,-13.5654 L 14.7492,-13.5436 L 14.7498,-13.5218 L 14.75,-13.5
 L 14.7498,-13.4782 L 14.7492,-13.4564 L 14.7483,-13.4346 L 14.7469,-13.4128 L 14.7452,-13.3911 L 14.7431,-13.3693
 L 14.7407,-13.3477 L 14.7378,-13.326 L 14.7346,-13.3044 L 14.731,-13.2829 L 14.727,-13.2615 L 14.7227,-13.2401
 L 14.718,-13.2188 L 14.7129,-13.1976 L 14.7074,-13.1765 L 14.7016,-13.1554 L 14.6954,-13.1345 L 14.6888,-13.1137
 L 14.6819,-13.093 L 14.6746,-13.0725 L 14.667,-13.052 L 14.659,-13.0317 L 14.6506,-13.0116 L 14.6419,-12.9916
 L 14.6329,-12.9717 L 14.6235,-12.952 L 14.6138,-12.9325 L 14.6037,-12.9131 L 14.5933,-12.894 L 14.5825,-12.875
 L 14.5715,-12.8562 L 14.5601,-12.8376 L 14.5483,-12.8192 L 14.5363,-12.801 L 14.5239,-12.783 L 14.5113,-12.7653
 L 14.4983,-12.7477 L 14.485,-12.7304 L 14.4714,-12.7133 L 14.4576,-12.6965 L 14.4434,-12.6799 L 14.4289,-12.6636
 L 14.4142,-12.6475 L 14.3992,-12.6317 L 14.3839,-12.6161 L 14.3683,-12.6008 L 14.3525,-12.5858 L 14.3364,-12.5711
 L 14.3201,-12.5566 L 14.3035,-12.5424 L 14.2866,-12.5286 L 14.2696,-12.515 L 14.2523,-12.5017 L 14.2347,-12.4887
 L 14.217,-12.4761 L 14.199,-12.4637 L 14.1808,-12.4517 L 14.1624,-12.4399 L 14.1438,-12.4285 L 14.125,-12.4175
 L 14.106,-12.4067 L 14.0868,-12.3963 L 14.0675,-12.3862 L 14.048,-12.3765 L 14.0283,-12.3671 L 14.0084,-12.3581
 L 13.9884,-12.3494 L 13.9682,-12.341 L 13.948,-12.333 L 13.9275,-12.3254 L 13.907,-12.3181 L 13.8863,-12.3112
 L 13.8655,-12.3046 L 13.8445,-12.2984 L 13.8235,-12.2926 L 13.8024,-12.2871 L 13.7812,-12.282 L 13.7599,-12.2773
 L 13.7385,-12.273 L 13.7171,-12.269 L 13.6955,-12.2654 L 13.674,-12.2622 L 13.6523,-12.2593 L 13.6306,-12.2568
 L 13.6089,-12.2547 L 13.5872,-12.253 L 13.5654,-12.2517 L 13.5436,-12.2507 L 13.5218,-12.2502 L 13.5,-12.25
 z
M 80.4782,-12.2502 L 80.4564,-12.2507 L 80.4346,-12.2517 L 80.4128,-12.253 L 80.3911,-12.2547 L 80.3693,-12.2568
 L 80.3477,-12.2593 L 80.326,-12.2622 L 80.3044,-12.2654 L 80.2829,-12.269 L 80.2615,-12.273 L 80.2401,-12.2773
 L 80.2188,-12.282 L 80.1976,-12.2871 L 80.1765,-12.2926 L 80.1554,-12.2984 L 80.1345,-12.3046 L 80.1137,-12.3112
 L 80.093,-12.3181 L 80.0725,-12.3254 L 80.052,-12.333 L 80.0317,-12.341 L 80.0116,-12.3494 L 79.9916,-12.3581
 L 79.9717,-12.3671 L 79.952,-12.3765 L 79.9325,-12.3862 L 79.9131,-12.3963 L 79.894,-12.4067 L 79.875,-12.4175
 L 79.8562,-12.4285 L 79.8376,-12.4399 L 79.8192,-12.4517 L 79.801,-12.4637 L 79.783,-12.4761 L 79.7653,-12.4887
 L 79.7477,-12.5017 L 79.7304,-12.515 L 79.7133,-12.5286 L 79.6965,-12.5424 L 79.6799,-12.5566 L 79.6636,-12.5711
 L 79.6475,-12.5858 L 79.6317,-12.6008 L 79.6161,-12.6161 L 79.6008,-12.6317 L 79.5858,-12.6475 L 79.5711,-12.6636
 L 79.5566,-12.6799 L 79.5424,-12.6965 L 79.5286,-12.7133 L 79.515,-12.7304 L 79.5017,-12.7477 L 79.4887,-12.7653
 L 79.4761,-12.783 L 79.4637,-12.801 L 79.4517,-12.8192 L 79.4399,-12.8376 L 79.4285,-12.8562 L 79.4175,-12.875
 L 79.4067,-12.894 L 79.3963,-12.9131 L 79.3862,-12.9325 L 79.3765,-12.952 L 79.3671,-12.9717 L 79.3581,-12.9916
 L 79.3494,-13.0116 L 79.341,-13.0317 L 79.333,-13.052 L 79.3254,-13.0725 L 79.3181,-13.093 L 79.3112,-13.1137
 L 79.3046,-13.1345 L 79.2984,-13.1554 L 79.2926,-13.1765 L 79.2871,-13.1976 L 79.282,-13.2188 L 79.2773,-13.2401
 L 79.273,-13.2615 L 79.269,-13.2829 L 79.2654,-13.3044 L 79.2622,-13.326 L 79.2593,-13.3477 L 79.2568,-13.3693
 L 79.2547,-13.3911 L 79.253,-13.4128 L 79.2517,-13.4346 L 79.2507,-13.4564 L 79.2502,-13.4782 L 79.25,-13.5
 L 79.2502,-13.5218 L 79.2507,-13.5436 L 79.2517,-13.5654 L 79.253,-13.5872 L 79.2547,-13.6089 L 79.2568,-13.6306
 L 79.2593,-13.6523 L 79.2622,-13.674 L 79.2654,-13.6955 L 79.269,-13.7171 L 79.273,-13.7385 L 79.2773,-13.7599
 L 79.282,-13.7812 L 79.2871,-13.8024 L 79.2926,-13.8235 L 79.2984,-13.8445 L 79.3046,-13.8655 L 79.3112,-13.8863
 L 79.3181,-13.907 L 79.3254,-13.9275 L 79.333,-13.948 L 79.341,-13.9682 L 79.3494,-13.9884 L 79.3581,-14.0084
 L 79.3671,-14.0283 L 79.3765,-14.048 L 79.3862,-14.0675 L 79.3963,-14.0868 L 79.4067,-14.106 L 79.4175,-14.125
 L 79.4285,-14.1438 L 79.4399,-14.1624 L 79.4517,-14.1808 L 79.4637,-14.199 L 79.4761,-14.217 L 79.4887,-14.2347
 L 79.5017,-14.2523 L 79.515,-14.2696 L 79.5286,-14.2866 L 79.5424,-14.3035 L 79.5566,-14.3201 L 79.5711,-14.3364
 L 79.5858,-14.3525 L 79.6008,-14.3683 L 79.6161,-14.3839 L 79.6317,-14.3992 L 79.6475,-14.4142 L 79.6636,-14.4289
 L 79.6799,-14.4434 L 79.6965,-14.4576 L 79.7133,-14.4714 L 79.7304,-14.485 L 79.7477,-14.4983 L 79.7653,-14.5113
 L 79.783,-14.5239 L 79.801,-14.5363 L 79.8192,-14.5483 L 79.8376,-14.5601 L 79.8562,-14.5715 L 79.875,-14.5825
 L 79.894,-14.5933 L 79.9131,-14.6037 L 79.9325,-14.6138 L 79.952,-14.6235 L 79.9717,-14.6329 L 79.9916,-14.6419
 L 80.0116,-14.6506 L 80.0317,-14.659 L 80.052,-14.667 L 80.0725,-14.6746 L 80.093,-14.6819 L 80.1137,-14.6888
 L 80.1345,-14.6954 L 80.1554,-14.7016 L 80.1765,-14.7074 L 80.1976,-14.7129 L 80.2188,-14.718 L 80.2401,-14.7227
 L 80.2615,-14.727 L 80.2829,-14.731 L 80.3044,-14.7346 L 80.326,-14.7378 L 80.3477,-14.7407 L 80.3693,-14.7431
 L 80.3911,-14.7452 L 80.4128,-14.7469 L 80.4346,-14.7483 L 80.4564,-14.7492 L 80.4782,-14.7498 L 80.5,-14.75
 L 80.5218,-14.7498 L 80.5436,-14.7492 L 80.5654,-14.7483 L 80.5872,-14.7469 L 80.6089,-14.7452 L 80.6306,-14.7431
 L 80.6523,-14.7407 L 80.674,-14.7378 L 80.6955,-14.7346 L 80.7171,-14.731 L 80.7385,-14.727 L 80.7599,-14.7227
 L 80.7812,-14.718 L 80.8024,-14.7129 L 80.8235,-14.7074 L 80.8445,-14.7016 L 80.8655,-14.6954 L 80.8863,-14.6888
 L 80.907,-14.6819 L 80.9275,-14.6746 L 80.948,-14.667 L 80.9682,-14.659 L 80.9884,-14.6506 L 81.0084,-14.6419
 L 81.0283,-14.6329 L 81.048,-14.6235 L 81.0675,-14.6138 L 81.0868,-14.6037 L 81.106,-14.5933 L 81.125,-14.5825
 L 81.1438,-14.5715 L 81.1624,-14.5601 L 81.1808,-14.5483 L 81.199,-14.5363 L 81.217,-14.5239 L 81.2347,-14.5113
 L 81.2523,-14.4983 L 81.2696,-14.485 L 81.2866,-14.4714 L 81.3035,-14.4576 L 81.3201,-14.4434 L 81.3364,-14.4289
 L 81.3525,-14.4142 L 81.3683,-14.3992 L 81.3839,-14.3839 L 81.3992,-14.3683 L 81.4142,-14.3525 L 81.4289,-14.3364
 L 81.4434,-14.3201 L 81.4576,-14.3035 L 81.4714,-14.2866 L 81.485,-14.2696 L 81.4983,-14.2523 L 81.5113,-14.2347
 L 81.5239,-14.217 L 81.5363,-14.199 L 81.5483,-14.1808 L 81.5601,-14.1624 L 81.5715,-14.1438 L 81.5825,-14.125
 L 81.5933,-14.106 L 81.6037,-14.0868 L 81.6138,-14.0675 L 81.6235,-14.048 L 81.6329,-14.0283 L 81.6419,-14.0084
 L 81.6506,-13.9884 L 81.659,-13.9682 L 81.667,-13.948 L 81.6746,-13.9275 L 81.6819,-13.907 L 81.6888,-13.8863
 L 81.6954,-13.8655 L 81.7016,-13.8445 L 81.7074,-13.8235 L 81.7129,-13.8024 L 81.718,-13.7812 L 81.7227,-13.7599
 L 81.727,-13.7385 L 81.731,-13.7171 L 81.7346,-13.6955 L 81.7378,-13.674 L 81.7407,-13.6523 L 81.7431,-13.6306
 L 81.7452,-13.6089 L 81.7469,-13.5872 L 81.7483,-13.5654 L 81.7492,-13.5436 L 81.7498,-13.5218 L 81.75,-13.5
 L 81.7498,-13.4782 L 81.7492,-13.4564 L 81.7483,-13.4346 L 81.7469,-13.4128 L 81.7452,-13.3911 L 81.7431,-13.3693
 L 81.7407,-13.3477 L 81.7378,-13.326 L 81.7346,-13.3044 L 81.731,-13.2829 L 81.727,-13.2615 L 81.7227,-13.2401
 L 81.718,-13.2188 L 81.7129,-13.1976 L 81.7074,-13.1765 L 81.7016,-13.1554 L 81.6954,-13.1345 L 81.6888,-13.1137
 L 81.6819,-13.093 L 81.6746,-13.0725 L 81.667,-13.052 L 81.659,-13.0317 L 81.6506,-13.0116 L 81.6419,-12.9916
 L 81.6329,-12.9717 L 81.6235,-12.952 L 81.6138,-12.9325 L 81.6037,-12.9131 L 81.5933,-12.894 L 81.5825,-12.875
 L 81.5715,-12.8562 L 81.5601,-12.8376 L 81.5483,-12.8192 L 81.5363,-12.801 L 81.5239,-12.783 L 81.5113,-12.7653
 L 81.4983,-12.7477 L 81.485,-12.7304 L 81.4714,-12.7133 L 81.4576,-12.6965 L 81.4434,-12.6799 L 81.4289,-12.6636
 L 81.4142,-12.6475 L 81.3992,-12.6317 L 81.3839,-12.6161 L 81.3683,-12.6008 L 81.3525,-12.5858 L 81.3364,-12.5711
 L 81.3201,-12.5566 L 81.3035,-12.5424 L 81.2866,-12.5286 L 81.2696,-12.515 L 81.2523,-12.5017 L 81.2347,-12.4887
 L 81.217,-12.4761 L 81.199,-12.4637 L 81.1808,-12.4517 L 81.1624,-12.4399 L 81.1438,-12.4285 L 81.125,-12.4175
 L 81.106,-12.4067 L 81.0868,-12.3963 L 81.0675,-12.3862 L 81.048,-12.3765 L 81.0283,-12.3671 L 81.0084,-12.3581
 L 80.9884,-12.3494 L 80.9682,-12.341 L 80.948,-12.333 L 80.9275,-12.3254 L 80.907,-12.3181 L 80.8863,-12.3112
 L 80.8655,-12.3046 L 80.8445,-12.2984 L 80.8235,-12.2926 L 80.8024,-12.2871 L 80.7812,-12.282 L 80.7599,-12.2773
 L 80.7385,-12.273 L 80.7171,-12.269 L 80.6955,-12.2654 L 80.674,-12.2622 L 80.6523,-12.2593 L 80.6306,-12.2568
 L 80.6089,-12.2547 L 80.5872,-12.253 L 80.5654,-12.2517 L 80.5436,-12.2507 L 80.5218,-12.2502 L 80.5,-12.25
 z
" stroke="black" fill="lightgray" stroke-width="0.5"/>
</svg>
