<?xml version="1.0" standalone="no"?>
<!DOCTYPE svg PUBLIC "-//W3C//DTD SVG 1.1//EN" "http://www.w3.org/Graphics/SVG/1.1/DTD/svg11.dtd">
<svg width="95mm" height="95mm" viewBox="0 -95 95 95" xmlns="http://www.w3.org/2000/svg" version="1.1">
<title>OpenSCAD Model</title>
<path d="
M 8,-45 L 27,-45 L 27,-76 L 48,-76 L 48,-45 L 65,-45
 L 65,-0 L 89,-0 L 89.1047,-0.000900269 L 89.2094,-0.00364685 L 89.314,-0.00820923 L 89.4185,-0.0146027
 L 89.5229,-0.0228271 L 89.6272,-0.0328674 L 89.7312,-0.0447083 L 89.835,-0.0583801 L 89.9386,-0.0738678 L 90.0419,-0.0911407
 L 90.1449,-0.110229 L 90.2475,-0.131104 L 90.3497,-0.153778 L 90.4515,-0.178223 L 90.5529,-0.204437 L 90.6538,-0.232422
 L 90.7542,-0.262161 L 90.8541,-0.293655 L 90.9534,-0.326874 L 91.0521,-0.361832 L 91.1502,-0.398514 L 91.2476,-0.43689
 L 91.3444,-0.476959 L 91.4404,-0.518723 L 91.5357,-0.562149 L 91.6302,-0.607224 L 91.7239,-0.653946 L 91.8168,-0.702301
 L 91.9088,-0.752274 L 92,-0.803833 L 92.0902,-0.856995 L 92.1795,-0.911697 L 92.2678,-0.967972 L 92.3551,-1.02577
 L 92.4415,-1.08508 L 92.5267,-1.14589 L 92.6109,-1.20818 L 92.694,-1.27193 L 92.7759,-1.33711 L 92.8567,-1.40373
 L 92.9363,-1.47174 L 93.0148,-1.54112 L 93.092,-1.61188 L 93.1679,-1.68396 L 93.2426,-1.75735 L 93.316,-1.83205
 L 93.3881,-1.908 L 93.4589,-1.98521 L 93.5282,-2.06364 L 93.5963,-2.14326 L 93.6629,-2.22408 L 93.7281,-2.30603
 L 93.7918,-2.3891 L 93.8541,-2.47328 L 93.9149,-2.55853 L 93.9742,-2.64484 L 94.032,-2.73216 L 94.0883,-2.82048
 L 94.143,-2.90976 L 94.1962,-3 L 94.2477,-3.09114 L 94.2977,-3.18317 L 94.346,-3.27605 L 94.3928,-3.36977
 L 94.4378,-3.46428 L 94.4813,-3.55957 L 94.523,-3.65561 L 94.5631,-3.75235 L 94.6015,-3.84978 L 94.6382,-3.94788
 L 94.6731,-4.04659 L 94.7063,-4.14589 L 94.7378,-4.24576 L 94.7676,-4.34616 L 94.7955,-4.44708 L 94.8218,-4.54846
 L 94.8462,-4.65028 L 94.8689,-4.75252 L 94.8898,-4.85513 L 94.9088,-4.9581 L 94.9261,-5.06139 L 94.9416,-5.16495
 L 94.9553,-5.26878 L 94.9671,-5.37282 L 94.9772,-5.47705 L 94.9854,-5.58145 L 94.9918,-5.68597 L 94.9963,-5.79059
 L 94.9991,-5.89528 L 95,-6 L 95,-58.5 L 91,-58.5 L 91,-76.5 L 95,-76.5
 L 95,-89 L 94.9991,-89.1047 L 94.9963,-89.2094 L 94.9918,-89.314 L 94.9854,-89.4185 L 94.9772,-89.5229
 L 94.9671,-89.6272 L 94.9553,-89.7312 L 94.9416,-89.835 L 94.9261,-89.9386 L 94.9088,-90.0419 L 94.8898,-90.1449
 L 94.8689,-90.2475 L 94.8462,-90.3497 L 94.8218,-90.4515 L 94.7955,-90.5529 L 94.7676,-90.6538 L 94.7378,-90.7542
 L 94.7063,-90.8541 L 94.6731,-90.9534 L 94.6382,-91.0521 L 94.6015,-91.1502 L 94.5631,-91.2476 L 94.523,-91.3444
 L 94.4813,-91.4404 L 94.4378,-91.5357 L 94.3928,-91.6302 L 94.346,-91.7239 L 94.2977,-91.8168 L 94.2477,-91.9088
 L 94.1962,-92 L 94.143,-92.0902 L 94.0883,-92.1795 L 94.032,-92.2678 L 93.9742,-92.3551 L 93.9149,-92.4415
 L 93.8541,-92.5267 L 93.7918,-92.6109 L 93.7281,-92.694 L 93.6629,-92.7759 L 93.5963,-92.8567 L 93.5282,-92.9363
 L 93.4589,-93.0148 L 93.3881,-93.092 L 93.316,-93.1679 L 93.2426,-93.2426 L 93.1679,-93.316 L 93.092,-93.3881
 L 93.0148,-93.4589 L 92.9363,-93.5282 L 92.8567,-93.5963 L 92.7759,-93.6629 L 92.694,-93.7281 L 92.6109,-93.7918
 L 92.5267,-93.8541 L 92.4415,-93.9149 L 92.3551,-93.9742 L 92.2678,-94.032 L 92.1795,-94.0883 L 92.0902,-94.143
 L 92,-94.1962 L 91.9088,-94.2477 L 91.8168,-94.2977 L 91.7239,-94.346 L 91.6302,-94.3928 L 91.5357,-94.4378
 L 91.4404,-94.4813 L 91.3444,-94.523 L 91.2476,-94.5631 L 91.1502,-94.6015 L 91.0521,-94.6382 L 90.9534,-94.6731
 L 90.8541,-94.7063 L 90.7542,-94.7378 L 90.6538,-94.7676 L 90.5529,-94.7955 L 90.4515,-94.8218 L 90.3497,-94.8462
 L 90.2475,-94.8689 L 90.1449,-94.8898 L 90.0419,-94.9088 L 89.9386,-94.9261 L 89.835,-94.9416 L 89.7312,-94.9553
 L 89.6272,-94.9671 L 89.5229,-94.9772 L 89.4185,-94.9854 L 89.314,-94.9918 L 89.2094,-94.9963 L 89.1047,-94.9991
 L 89,-95 L 6,-95 L 5.89528,-94.9991 L 5.79059,-94.9963 L 5.68597,-94.9918 L 5.58145,-94.9854
 L 5.47705,-94.9772 L 5.37282,-94.9671 L 5.26878,-94.9553 L 5.16495,-94.9416 L 5.06139,-94.9261 L 4.9581,-94.9088
 L 4.85513,-94.8898 L 4.75252,-94.8689 L 4.65028,-94.8462 L 4.54846,-94.8218 L 4.44708,-94.7955 L 4.34616,-94.7676
 L 4.24576,-94.7378 L 4.14589,-94.7063 L 4.04659,-94.6731 L 3.94788,-94.6382 L 3.84978,-94.6015 L 3.75235,-94.5631
 L 3.65561,-94.523 L 3.55957,-94.4813 L 3.46428,-94.4378 L 3.36977,-94.3928 L 3.27605,-94.346 L 3.18317,-94.2977
 L 3.09114,-94.2477 L 3,-94.1962 L 2.90976,-94.143 L 2.82048,-94.0883 L 2.73216,-94.032 L 2.64484,-93.9742
 L 2.55853,-93.9149 L 2.47328,-93.8541 L 2.3891,-93.7918 L 2.30603,-93.7281 L 2.22408,-93.6629 L 2.14326,-93.5963
 L 2.06364,-93.5282 L 1.98521,-93.4589 L 1.908,-93.3881 L 1.83205,-93.316 L 1.75735,-93.2426 L 1.68396,-93.1679
 L 1.61188,-93.092 L 1.54112,-93.0148 L 1.47174,-92.9363 L 1.40373,-92.8567 L 1.33711,-92.7759 L 1.27193,-92.694
 L 1.20818,-92.6109 L 1.14589,-92.5267 L 1.08508,-92.4415 L 1.02577,-92.3551 L 0.967972,-92.2678 L 0.911697,-92.1795
 L 0.856995,-92.0902 L 0.803833,-92 L 0.752274,-91.9088 L 0.702301,-91.8168 L 0.653946,-91.7239 L 0.607224,-91.6302
 L 0.562149,-91.5357 L 0.518723,-91.4404 L 0.476959,-91.3444 L 0.43689,-91.2476 L 0.398514,-91.1502 L 0.361832,-91.0521
 L 0.326874,-90.9534 L 0.293655,-90.8541 L 0.262161,-90.7542 L 0.232422,-90.6538 L 0.204437,-90.5529 L 0.178223,-90.4515
 L 0.153778,-90.3497 L 0.131104,-90.2475 L 0.110229,-90.1449 L 0.0911407,-90.0419 L 0.0738678,-89.9386 L 0.0583801,-89.835
 L 0.0447083,-89.7312 L 0.0328674,-89.6272 L 0.0228271,-89.5229 L 0.0146027,-89.4185 L 0.00820923,-89.314 L 0.00364685,-89.2094
 L 0.000900269,-89.1047 L 0,-89 L 0,-6 L 0.000900269,-5.89528 L 0.00364685,-5.79059 L 0.00820923,-5.68597
 L 0.0146027,-5.58145 L 0.0228271,-5.47705 L 0.0328674,-5.37282 L 0.0447083,-5.26878 L 0.0583801,-5.16495 L 0.0738678,-5.06139
 L 0.0911407,-4.9581 L 0.110229,-4.85513 L 0.131104,-4.75252 L 0.153778,-4.65028 L 0.178223,-4.54846 L 0.204437,-4.44708
 L 0.232422,-4.34616 L 0.262161,-4.24576 L 0.293655,-4.14589 L 0.326874,-4.04659 L 0.361832,-3.94788 L 0.398514,-3.84978
 L 0.43689,-3.75235 L 0.476959,-3.65561 L 0.518723,-3.55957 L 0.562149,-3.46428 L 0.607224,-3.36977 L 0.653946,-3.27605
 L 0.702301,-3.18317 L 0.752274,-3.09114 L 0.803833,-3 L 0.856995,-2.90976 L 0.911697,-2.82048 L 0.967972,-2.73216
 L 1.02577,-2.64484 L 1.08508,-2.55853 L 1.14589,-2.47328 L 1.20818,-2.3891 L 1.27193,-2.30603 L 1.33711,-2.22408
 L 1.40373,-2.14326 L 1.47174,-2.06364 L 1.54112,-1.98521 L 1.61188,-1.908 L 1.68396,-1.83205 L 1.75735,-1.75735
 L 1.83205,-1.68396 L 1.908,-1.61188 L 1.98521,-1.54112 L 2.06364,-1.47174 L 2.14326,-1.40373 L 2.22408,-1.33711
 L 2.30603,-1.27193 L 2.3891,-1.20818 L 2.47328,-1.14589 L 2.55853,-1.08508 L 2.64484,-1.02577 L 2.73216,-0.967972
 L 2.82048,-0.911697 L 2.90976,-0.856995 L 3,-0.803833 L 3.09114,-0.752274 L 3.18317,-0.702301 L 3.27605,-0.653946
 L 3.36977,-0.607224 L 3.46428,-0.562149 L 3.55957,-0.518723 L 3.65561,-0.476959 L 3.75235,-0.43689 L 3.84978,-0.398514
 L 3.94788,-0.361832 L 4.04659,-0.326874 L 4.14589,-0.293655 L 4.24576,-0.262161 L 4.34616,-0.232422 L 4.44708,-0.204437
 L 4.54846,-0.178223 L 4.65028,-0.153778 L 4.75252,-0.131104 L 4.85513,-0.110229 L 4.9581,-0.0911407 L 5.06139,-0.0738678
 L 5.16495,-0.0583801 L 5.26878,-0.0447083 L 5.37282,-0.0328674 L 5.47705,-0.0228271 L 5.58145,-0.0146027 L 5.68597,-0.00820923
 L 5.79059,-0.00364685 L 5.89528,-0.000900269 L 6,-0 L 8,-0 z
M 56.4,-76.5 L 56.4,-80.5 L 72.5,-80.5 L 72.5,-78.5 L 76.5,-78.5 L 76.5,-57.3
 L 72.5,-57.3 L 72.5,-55.3 L 56.4,-55.3 L 56.4,-59.3 L 52.4,-59.3 L 52.4,-76.5
 z
" stroke="black" fill="lightgray" stroke-width="0.5"/>
</svg>
