<?xml version="1.0" standalone="no"?>
<!DOCTYPE svg PUBLIC "-//W3C//DTD SVG 1.1//EN" "http://www.w3.org/Graphics/SVG/1.1/DTD/svg11.dtd">
<svg width="94mm" height="94mm" viewBox="0 -94 94 94" xmlns="http://www.w3.org/2000/svg" version="1.1">
<title>OpenSCAD Model</title>
<path d="
M 88.1047,-0.000900269 L 88.2094,-0.00364685 L 88.314,-0.00820923 L 88.4185,-0.0146027 L 88.5229,-0.0228271 L 88.6272,-0.0328674
 L 88.7312,-0.0447083 L 88.835,-0.0583801 L 88.9386,-0.0738678 L 89.0419,-0.0911407 L 89.1449,-0.110229 L 89.2475,-0.131104
 L 89.3497,-0.153778 L 89.4515,-0.178223 L 89.5529,-0.204437 L 89.6538,-0.232422 L 89.7542,-0.262161 L 89.8541,-0.293655
 L 89.9534,-0.326874 L 90.0521,-0.361832 L 90.1502,-0.398514 L 90.2476,-0.43689 L 90.3444,-0.476959 L 90.4404,-0.518723
 L 90.5357,-0.562149 L 90.6302,-0.607224 L 90.7239,-0.653946 L 90.8168,-0.702301 L 90.9088,-0.752274 L 91,-0.803833
 L 91.0902,-0.856995 L 91.1795,-0.911697 L 91.2678,-0.967972 L 91.3551,-1.02577 L 91.4415,-1.08508 L 91.5267,-1.14589
 L 91.6109,-1.20818 L 91.694,-1.27193 L 91.7759,-1.33711 L 91.8567,-1.40373 L 91.9363,-1.47174 L 92.0148,-1.54112
 L 92.092,-1.61188 L 92.1679,-1.68396 L 92.2426,-1.75735 L 92.316,-1.83205 L 92.3881,-1.908 L 92.4589,-1.98521
 L 92.5282,-2.06364 L 92.5963,-2.14326 L 92.6629,-2.22408 L 92.7281,-2.30603 L 92.7918,-2.3891 L 92.8541,-2.47328
 L 92.9149,-2.55853 L 92.9742,-2.64484 L 93.032,-2.73216 L 93.0883,-2.82048 L 93.143,-2.90976 L 93.1962,-3
 L 93.2477,-3.09114 L 93.2977,-3.18317 L 93.346,-3.27605 L 93.3928,-3.36977 L 93.4378,-3.46428 L 93.4813,-3.55957
 L 93.523,-3.65561 L 93.5631,-3.75235 L 93.6015,-3.84978 L 93.6382,-3.94788 L 93.6731,-4.04659 L 93.7063,-4.14589
 L 93.7378,-4.24576 L 93.7676,-4.34616 L 93.7955,-4.44708 L 93.8218,-4.54846 L 93.8462,-4.65028 L 93.8689,-4.75252
 L 93.8898,-4.85513 L 93.9088,-4.9581 L 93.9261,-5.06139 L 93.9416,-5.16495 L 93.9553,-5.26878 L 93.9671,-5.37282
 L 93.9772,-5.47705 L 93.9854,-5.58145 L 93.9918,-5.68597 L 93.9963,-5.79059 L 93.9991,-5.89528 L 94,-6
 L 94,-88 L 93.9991,-88.1047 L 93.9963,-88.2094 L 93.9918,-88.314 L 93.9854,-88.4185 L 93.9772,-88.5229
 L 93.9671,-88.6272 L 93.9553,-88.7312 L 93.9416,-88.835 L 93.9261,-88.9386 L 93.9088,-89.0419 L 93.8898,-89.1449
 L 93.8689,-89.2475 L 93.8462,-89.3497 L 93.8218,-89.4515 L 93.7955,-89.5529 L 93.7676,-89.6538 L 93.7378,-89.7542
 L 93.7063,-89.8541 L 93.6731,-89.9534 L 93.6382,-90.0521 L 93.6015,-90.1502 L 93.5631,-90.2476 L 93.523,-90.3444
 L 93.4813,-90.4404 L 93.4378,-90.5357 L 93.3928,-90.6302 L 93.346,-90.7239 L 93.2977,-90.8168 L 93.2477,-90.9088
 L 93.1962,-91 L 93.143,-91.0902 L 93.0883,-91.1795 L 93.032,-91.2678 L 92.9742,-91.3551 L 92.9149,-91.4415
 L 92.8541,-91.5267 L 92.7918,-91.6109 L 92.7281,-91.694 L 92.6629,-91.7759 L 92.5963,-91.8567 L 92.5282,-91.9363
 L 92.4589,-92.0148 L 92.3881,-92.092 L 92.316,-92.1679 L 92.2426,-92.2426 L 92.1679,-92.316 L 92.092,-92.3881
 L 92.0148,-92.4589 L 91.9363,-92.5282 L 91.8567,-92.5963 L 91.7759,-92.6629 L 91.694,-92.7281 L 91.6109,-92.7918
 L 91.5267,-92.8541 L 91.4415,-92.9149 L 91.3551,-92.9742 L 91.2678,-93.032 L 91.1795,-93.0883 L 91.0902,-93.143
 L 91,-93.1962 L 90.9088,-93.2477 L 90.8168,-93.2977 L 90.7239,-93.346 L 90.6302,-93.3928 L 90.5357,-93.4378
 L 90.4404,-93.4813 L 90.3444,-93.523 L 90.2476,-93.5631 L 90.1502,-93.6015 L 90.0521,-93.6382 L 89.9534,-93.6731
 L 89.8541,-93.7063 L 89.7542,-93.7378 L 89.6538,-93.7676 L 89.5529,-93.7955 L 89.4515,-93.8218 L 89.3497,-93.8462
 L 89.2475,-93.8689 L 89.1449,-93.8898 L 89.0419,-93.9088 L 88.9386,-93.9261 L 88.835,-93.9416 L 88.7312,-93.9553
 L 88.6272,-93.9671 L 88.5229,-93.9772 L 88.4185,-93.9854 L 88.314,-93.9918 L 88.2094,-93.9963 L 88.1047,-93.9991
 L 88,-94 L 6,-94 L 5.89528,-93.9991 L 5.79059,-93.9963 L 5.68597,-93.9918 L 5.58145,-93.9854
 L 5.47705,-93.9772 L 5.37282,-93.9671 L 5.26878,-93.9553 L 5.16495,-93.9416 L 5.06139,-93.9261 L 4.9581,-93.9088
 L 4.85513,-93.8898 L 4.75252,-93.8689 L 4.65028,-93.8462 L 4.54846,-93.8218 L 4.44708,-93.7955 L 4.34616,-93.7676
 L 4.24576,-93.7378 L 4.14589,-93.7063 L 4.04659,-93.6731 L 3.94788,-93.6382 L 3.84978,-93.6015 L 3.75235,-93.5631
 L 3.65561,-93.523 L 3.55957,-93.4813 L 3.46428,-93.4378 L 3.36977,-93.3928 L 3.27605,-93.346 L 3.18317,-93.2977
 L 3.09114,-93.2477 L 3,-93.1962 L 2.90976,-93.143 L 2.82048,-93.0883 L 2.73216,-93.032 L 2.64484,-92.9742
 L 2.55853,-92.9149 L 2.47328,-92.8541 L 2.3891,-92.7918 L 2.30603,-92.7281 L 2.22408,-92.6629 L 2.14326,-92.5963
 L 2.06364,-92.5282 L 1.98521,-92.4589 L 1.908,-92.3881 L 1.83205,-92.316 L 1.75735,-92.2426 L 1.68396,-92.1679
 L 1.61188,-92.092 L 1.54112,-92.0148 L 1.47174,-91.9363 L 1.40373,-91.8567 L 1.33711,-91.7759 L 1.27193,-91.694
 L 1.20818,-91.6109 L 1.14589,-91.5267 L 1.08508,-91.4415 L 1.02577,-91.3551 L 0.967972,-91.2678 L 0.911697,-91.1795
 L 0.856995,-91.0902 L 0.803833,-91 L 0.752274,-90.9088 L 0.702301,-90.8168 L 0.653946,-90.7239 L 0.607224,-90.6302
 L 0.562149,-90.5357 L 0.518723,-90.4404 L 0.476959,-90.3444 L 0.43689,-90.2476 L 0.398514,-90.1502 L 0.361832,-90.0521
 L 0.326874,-89.9534 L 0.293655,-89.8541 L 0.262161,-89.7542 L 0.232422,-89.6538 L 0.204437,-89.5529 L 0.178223,-89.4515
 L 0.153778,-89.3497 L 0.131104,-89.2475 L 0.110229,-89.1449 L 0.0911407,-89.0419 L 0.0738678,-88.9386 L 0.0583801,-88.835
 L 0.0447083,-88.7312 L 0.0328674,-88.6272 L 0.0228271,-88.5229 L 0.0146027,-88.4185 L 0.00820923,-88.314 L 0.00364685,-88.2094
 L 0.000900269,-88.1047 L 0,-88 L 0,-6 L 0.000900269,-5.89528 L 0.00364685,-5.79059 L 0.00820923,-5.68597
 L 0.0146027,-5.58145 L 0.0228271,-5.47705 L 0.0328674,-5.37282 L 0.0447083,-5.26878 L 0.0583801,-5.16495 L 0.0738678,-5.06139
 L 0.0911407,-4.9581 L 0.110229,-4.85513 L 0.131104,-4.75252 L 0.153778,-4.65028 L 0.178223,-4.54846 L 0.204437,-4.44708
 L 0.232422,-4.34616 L 0.262161,-4.24576 L 0.293655,-4.14589 L 0.326874,-4.04659 L 0.361832,-3.94788 L 0.398514,-3.84978
 L 0.43689,-3.75235 L 0.476959,-3.65561 L 0.518723,-3.55957 L 0.562149,-3.46428 L 0.607224,-3.36977 L 0.653946,-3.27605
 L 0.702301,-3.18317 L 0.752274,-3.09114 L 0.803833,-3 L 0.856995,-2.90976 L 0.911697,-2.82048 L 0.967972,-2.73216
 L 1.02577,-2.64484 L 1.08508,-2.55853 L 1.14589,-2.47328 L 1.20818,-2.3891 L 1.27193,-2.30603 L 1.33711,-2.22408
 L 1.40373,-2.14326 L 1.47174,-2.06364 L 1.54112,-1.98521 L 1.61188,-1.908 L 1.68396,-1.83205 L 1.75735,-1.75735
 L 1.83205,-1.68396 L 1.908,-1.61188 L 1.98521,-1.54112 L 2.06364,-1.47174 L 2.14326,-1.40373 L 2.22408,-1.33711
 L 2.30603,-1.27193 L 2.3891,-1.20818 L 2.47328,-1.14589 L 2.55853,-1.08508 L 2.64484,-1.02577 L 2.73216,-0.967972
 L 2.82048,-0.911697 L 2.90976,-0.856995 L 3,-0.803833 L 3.09114,-0.752274 L 3.18317,-0.702301 L 3.27605,-0.653946
 L 3.36977,-0.607224 L 3.46428,-0.562149 L 3.55957,-0.518723 L 3.65561,-0.476959 L 3.75235,-0.43689 L 3.84978,-0.398514
 L 3.94788,-0.361832 L 4.04659,-0.326874 L 4.14589,-0.293655 L 4.24576,-0.262161 L 4.34616,-0.232422 L 4.44708,-0.204437
 L 4.54846,-0.178223 L 4.65028,-0.153778 L 4.75252,-0.131104 L 4.85513,-0.110229 L 4.9581,-0.0911407 L 5.06139,-0.0738678
 L 5.16495,-0.0583801 L 5.26878,-0.0447083 L 5.37282,-0.0328674 L 5.47705,-0.0228271 L 5.58145,-0.0146027 L 5.68597,-0.00820923
 L 5.79059,-0.00364685 L 5.89528,-0.000900269 L 6,-0 L 88,-0 z
M 12.9782,-79.7502 L 12.9564,-79.7507 L 12.9346,-79.7517 L 12.9128,-79.753 L 12.8911,-79.7547 L 12.8693,-79.7568
 L 12.8477,-79.7593 L 12.826,-79.7622 L 12.8044,-79.7654 L 12.7829,-79.769 L 12.7615,-79.773 L 12.7401,-79.7773
 L 12.7188,-79.782 L 12.6976,-79.7871 L 12.6765,-79.7926 L 12.6554,-79.7984 L 12.6345,-79.8046 L 12.6137,-79.8112
 L 12.593,-79.8181 L 12.5725,-79.8254 L 12.552,-79.833 L 12.5317,-79.841 L 12.5116,-79.8494 L 12.4916,-79.8581
 L 12.4717,-79.8671 L 12.452,-79.8765 L 12.4325,-79.8862 L 12.4131,-79.8963 L 12.394,-79.9067 L 12.375,-79.9175
 L 12.3562,-79.9285 L 12.3376,-79.9399 L 12.3192,-79.9517 L 12.301,-79.9637 L 12.283,-79.9761 L 12.2653,-79.9887
 L 12.2477,-80.0017 L 12.2304,-80.015 L 12.2133,-80.0286 L 12.1965,-80.0424 L 12.1799,-80.0566 L 12.1636,-80.0711
 L 12.1475,-80.0858 L 12.1317,-80.1008 L 12.1161,-80.1161 L 12.1008,-80.1317 L 12.0858,-80.1475 L 12.0711,-80.1636
 L 12.0566,-80.1799 L 12.0424,-80.1965 L 12.0286,-80.2133 L 12.015,-80.2304 L 12.0017,-80.2477 L 11.9887,-80.2653
 L 11.9761,-80.283 L 11.9637,-80.301 L 11.9517,-80.3192 L 11.9399,-80.3376 L 11.9285,-80.3562 L 11.9175,-80.375
 L 11.9067,-80.394 L 11.8963,-80.4131 L 11.8862,-80.4325 L 11.8765,-80.452 L 11.8671,-80.4717 L 11.8581,-80.4916
 L 11.8494,-80.5116 L 11.841,-80.5317 L 11.833,-80.552 L 11.8254,-80.5725 L 11.8181,-80.593 L 11.8112,-80.6137
 L 11.8046,-80.6345 L 11.7984,-80.6554 L 11.7926,-80.6765 L 11.7871,-80.6976 L 11.782,-80.7188 L 11.7773,-80.7401
 L 11.773,-80.7615 L 11.769,-80.7829 L 11.7654,-80.8044 L 11.7622,-80.826 L 11.7593,-80.8477 L 11.7568,-80.8693
 L 11.7547,-80.8911 L 11.753,-80.9128 L 11.7517,-80.9346 L 11.7507,-80.9564 L 11.7502,-80.9782 L 11.75,-81
 L 11.7502,-81.0218 L 11.7507,-81.0436 L 11.7517,-81.0654 L 11.753,-81.0872 L 11.7547,-81.1089 L 11.7568,-81.1306
 L 11.7593,-81.1523 L 11.7622,-81.174 L 11.7654,-81.1955 L 11.769,-81.2171 L 11.773,-81.2385 L 11.7773,-81.2599
 L 11.782,-81.2812 L 11.7871,-81.3024 L 11.7926,-81.3235 L 11.7984,-81.3445 L 11.8046,-81.3655 L 11.8112,-81.3863
 L 11.8181,-81.407 L 11.8254,-81.4275 L 11.833,-81.448 L 11.841,-81.4682 L 11.8494,-81.4884 L 11.8581,-81.5084
 L 11.8671,-81.5283 L 11.8765,-81.548 L 11.8862,-81.5675 L 11.8963,-81.5868 L 11.9067,-81.606 L 11.9175,-81.625
 L 11.9285,-81.6438 L 11.9399,-81.6624 L 11.9517,-81.6808 L 11.9637,-81.699 L 11.9761,-81.717 L 11.9887,-81.7347
 L 12.0017,-81.7523 L 12.015,-81.7696 L 12.0286,-81.7866 L 12.0424,-81.8035 L 12.0566,-81.8201 L 12.0711,-81.8364
 L 12.0858,-81.8525 L 12.1008,-81.8683 L 12.1161,-81.8839 L 12.1317,-81.8992 L 12.1475,-81.9142 L 12.1636,-81.9289
 L 12.1799,-81.9434 L 12.1965,-81.9576 L 12.2133,-81.9714 L 12.2304,-81.985 L 12.2477,-81.9983 L 12.2653,-82.0113
 L 12.283,-82.0239 L 12.301,-82.0363 L 12.3192,-82.0483 L 12.3376,-82.0601 L 12.3562,-82.0715 L 12.375,-82.0825
 L 12.394,-82.0933 L 12.4131,-82.1037 L 12.4325,-82.1138 L 12.452,-82.1235 L 12.4717,-82.1329 L 12.4916,-82.1419
 L 12.5116,-82.1506 L 12.5317,-82.159 L 12.552,-82.167 L 12.5725,-82.1746 L 12.593,-82.1819 L 12.6137,-82.1888
 L 12.6345,-82.1954 L 12.6554,-82.2016 L 12.6765,-82.2074 L 12.6976,-82.2129 L 12.7188,-82.218 L 12.7401,-82.2227
 L 12.7615,-82.227 L 12.7829,-82.231 L 12.8044,-82.2346 L 12.826,-82.2378 L 12.8477,-82.2407 L 12.8693,-82.2431
 L 12.8911,-82.2452 L 12.9128,-82.2469 L 12.9346,-82.2483 L 12.9564,-82.2492 L 12.9782,-82.2498 L 13,-82.25
 L 13.0218,-82.2498 L 13.0436,-82.2492 L 13.0654,-82.2483 L 13.0872,-82.2469 L 13.1089,-82.2452 L 13.1306,-82.2431
 L 13.1523,-82.2407 L 13.174,-82.2378 L 13.1955,-82.2346 L 13.2171,-82.231 L 13.2385,-82.227 L 13.2599,-82.2227
 L 13.2812,-82.218 L 13.3024,-82.2129 L 13.3235,-82.2074 L 13.3445,-82.2016 L 13.3655,-82.1954 L 13.3863,-82.1888
 L 13.407,-82.1819 L 13.4275,-82.1746 L 13.448,-82.167 L 13.4682,-82.159 L 13.4884,-82.1506 L 13.5084,-82.1419
 L 13.5283,-82.1329 L 13.548,-82.1235 L 13.5675,-82.1138 L 13.5868,-82.1037 L 13.606,-82.0933 L 13.625,-82.0825
 L 13.6438,-82.0715 L 13.6624,-82.0601 L 13.6808,-82.0483 L 13.699,-82.0363 L 13.717,-82.0239 L 13.7347,-82.0113
 L 13.7523,-81.9983 L 13.7696,-81.985 L 13.7866,-81.9714 L 13.8035,-81.9576 L 13.8201,-81.9434 L 13.8364,-81.9289
 L 13.8525,-81.9142 L 13.8683,-81.8992 L 13.8839,-81.8839 L 13.8992,-81.8683 L 13.9142,-81.8525 L 13.9289,-81.8364
 L 13.9434,-81.8201 L 13.9576,-81.8035 L 13.9714,-81.7866 L 13.985,-81.7696 L 13.9983,-81.7523 L 14.0113,-81.7347
 L 14.0239,-81.717 L 14.0363,-81.699 L 14.0483,-81.6808 L 14.0601,-81.6624 L 14.0715,-81.6438 L 14.0825,-81.625
 L 14.0933,-81.606 L 14.1037,-81.5868 L 14.1138,-81.5675 L 14.1235,-81.548 L 14.1329,-81.5283 L 14.1419,-81.5084
 L 14.1506,-81.4884 L 14.159,-81.4682 L 14.167,-81.448 L 14.1746,-81.4275 L 14.1819,-81.407 L 14.1888,-81.3863
 L 14.1954,-81.3655 L 14.2016,-81.3445 L 14.2074,-81.3235 L 14.2129,-81.3024 L 14.218,-81.2812 L 14.2227,-81.2599
 L 14.227,-81.2385 L 14.231,-81.2171 L 14.2346,-81.1955 L 14.2378,-81.174 L 14.2407,-81.1523 L 14.2431,-81.1306
 L 14.2452,-81.1089 L 14.2469,-81.0872 L 14.2483,-81.0654 L 14.2492,-81.0436 L 14.2498,-81.0218 L 14.25,-81
 L 14.2498,-80.9782 L 14.2492,-80.9564 L 14.2483,-80.9346 L 14.2469,-80.9128 L 14.2452,-80.8911 L 14.2431,-80.8693
 L 14.2407,-80.8477 L 14.2378,-80.826 L 14.2346,-80.8044 L 14.231,-80.7829 L 14.227,-80.7615 L 14.2227,-80.7401
 L 14.218,-80.7188 L 14.2129,-80.6976 L 14.2074,-80.6765 L 14.2016,-80.6554 L 14.1954,-80.6345 L 14.1888,-80.6137
 L 14.1819,-80.593 L 14.1746,-80.5725 L 14.167,-80.552 L 14.159,-80.5317 L 14.1506,-80.5116 L 14.1419,-80.4916
 L 14.1329,-80.4717 L 14.1235,-80.452 L 14.1138,-80.4325 L 14.1037,-80.4131 L 14.0933,-80.394 L 14.0825,-80.375
 L 14.0715,-80.3562 L 14.0601,-80.3376 L 14.0483,-80.3192 L 14.0363,-80.301 L 14.0239,-80.283 L 14.0113,-80.2653
 L 13.9983,-80.2477 L 13.985,-80.2304 L 13.9714,-80.2133 L 13.9576,-80.1965 L 13.9434,-80.1799 L 13.9289,-80.1636
 L 13.9142,-80.1475 L 13.8992,-80.1317 L 13.8839,-80.1161 L 13.8683,-80.1008 L 13.8525,-80.0858 L 13.8364,-80.0711
 L 13.8201,-80.0566 L 13.8035,-80.0424 L 13.7866,-80.0286 L 13.7696,-80.015 L 13.7523,-80.0017 L 13.7347,-79.9887
 L 13.717,-79.9761 L 13.699,-79.9637 L 13.6808,-79.9517 L 13.6624,-79.9399 L 13.6438,-79.9285 L 13.625,-79.9175
 L 13.606,-79.9067 L 13.5868,-79.8963 L 13.5675,-79.8862 L 13.548,-79.8765 L 13.5283,-79.8671 L 13.5084,-79.8581
 L 13.4884,-79.8494 L 13.4682,-79.841 L 13.448,-79.833 L 13.4275,-79.8254 L 13.407,-79.8181 L 13.3863,-79.8112
 L 13.3655,-79.8046 L 13.3445,-79.7984 L 13.3235,-79.7926 L 13.3024,-79.7871 L 13.2812,-79.782 L 13.2599,-79.7773
 L 13.2385,-79.773 L 13.2171,-79.769 L 13.1955,-79.7654 L 13.174,-79.7622 L 13.1523,-79.7593 L 13.1306,-79.7568
 L 13.1089,-79.7547 L 13.0872,-79.753 L 13.0654,-79.7517 L 13.0436,-79.7507 L 13.0218,-79.7502 L 13,-79.75
 z
M 80.9782,-79.7502 L 80.9564,-79.7507 L 80.9346,-79.7517 L 80.9128,-79.753 L 80.8911,-79.7547 L 80.8693,-79.7568
 L 80.8477,-79.7593 L 80.826,-79.7622 L 80.8044,-79.7654 L 80.7829,-79.769 L 80.7615,-79.773 L 80.7401,-79.7773
 L 80.7188,-79.782 L 80.6976,-79.7871 L 80.6765,-79.7926 L 80.6554,-79.7984 L 80.6345,-79.8046 L 80.6137,-79.8112
 L 80.593,-79.8181 L 80.5725,-79.8254 L 80.552,-79.833 L 80.5317,-79.841 L 80.5116,-79.8494 L 80.4916,-79.8581
 L 80.4717,-79.8671 L 80.452,-79.8765 L 80.4325,-79.8862 L 80.4131,-79.8963 L 80.394,-79.9067 L 80.375,-79.9175
 L 80.3562,-79.9285 L 80.3376,-79.9399 L 80.3192,-79.9517 L 80.301,-79.9637 L 80.283,-79.9761 L 80.2653,-79.9887
 L 80.2477,-80.0017 L 80.2304,-80.015 L 80.2133,-80.0286 L 80.1965,-80.0424 L 80.1799,-80.0566 L 80.1636,-80.0711
 L 80.1475,-80.0858 L 80.1317,-80.1008 L 80.1161,-80.1161 L 80.1008,-80.1317 L 80.0858,-80.1475 L 80.0711,-80.1636
 L 80.0566,-80.1799 L 80.0424,-80.1965 L 80.0286,-80.2133 L 80.015,-80.2304 L 80.0017,-80.2477 L 79.9887,-80.2653
 L 79.9761,-80.283 L 79.9637,-80.301 L 79.9517,-80.3192 L 79.9399,-80.3376 L 79.9285,-80.3562 L 79.9175,-80.375
 L 79.9067,-80.394 L 79.8963,-80.4131 L 79.8862,-80.4325 L 79.8765,-80.452 L 79.8671,-80.4717 L 79.8581,-80.4916
 L 79.8494,-80.5116 L 79.841,-80.5317 L 79.833,-80.552 L 79.8254,-80.5725 L 79.8181,-80.593 L 79.8112,-80.6137
 L 79.8046,-80.6345 L 79.7984,-80.6554 L 79.7926,-80.6765 L 79.7871,-80.6976 L 79.782,-80.7188 L 79.7773,-80.7401
 L 79.773,-80.7615 L 79.769,-80.7829 L 79.7654,-80.8044 L 79.7622,-80.826 L 79.7593,-80.8477 L 79.7568,-80.8693
 L 79.7547,-80.8911 L 79.753,-80.9128 L 79.7517,-80.9346 L 79.7507,-80.9564 L 79.7502,-80.9782 L 79.75,-81
 L 79.7502,-81.0218 L 79.7507,-81.0436 L 79.7517,-81.0654 L 79.753,-81.0872 L 79.7547,-81.1089 L 79.7568,-81.1306
 L 79.7593,-81.1523 L 79.7622,-81.174 L 79.7654,-81.1955 L 79.769,-81.2171 L 79.773,-81.2385 L 79.7773,-81.2599
 L 79.782,-81.2812 L 79.7871,-81.3024 L 79.7926,-81.3235 L 79.7984,-81.3445 L 79.8046,-81.3655 L 79.8112,-81.3863
 L 79.8181,-81.407 L 79.8254,-81.4275 L 79.833,-81.448 L 79.841,-81.4682 L 79.8494,-81.4884 L 79.8581,-81.5084
 L 79.8671,-81.5283 L 79.8765,-81.548 L 79.8862,-81.5675 L 79.8963,-81.5868 L 79.9067,-81.606 L 79.9175,-81.625
 L 79.9285,-81.6438 L 79.9399,-81.6624 L 79.9517,-81.6808 L 79.9637,-81.699 L 79.9761,-81.717 L 79.9887,-81.7347
 L 80.0017,-81.7523 L 80.015,-81.7696 L 80.0286,-81.7866 L 80.0424,-81.8035 L 80.0566,-81.8201 L 80.0711,-81.8364
 L 80.0858,-81.8525 L 80.1008,-81.8683 L 80.1161,-81.8839 L 80.1317,-81.8992 L 80.1475,-81.9142 L 80.1636,-81.9289
 L 80.1799,-81.9434 L 80.1965,-81.9576 L 80.2133,-81.9714 L 80.2304,-81.985 L 80.2477,-81.9983 L 80.2653,-82.0113
 L 80.283,-82.0239 L 80.301,-82.0363 L 80.3192,-82.0483 L 80.3376,-82.0601 L 80.3562,-82.0715 L 80.375,-82.0825
 L 80.394,-82.0933 L 80.4131,-82.1037 L 80.4325,-82.1138 L 80.452,-82.1235 L 80.4717,-82.1329 L 80.4916,-82.1419
 L 80.5116,-82.1506 L 80.5317,-82.159 L 80.552,-82.167 L 80.5725,-82.1746 L 80.593,-82.1819 L 80.6137,-82.1888
 L 80.6345,-82.1954 L 80.6554,-82.2016 L 80.6765,-82.2074 L 80.6976,-82.2129 L 80.7188,-82.218 L 80.7401,-82.2227
 L 80.7615,-82.227 L 80.7829,-82.231 L 80.8044,-82.2346 L 80.826,-82.2378 L 80.8477,-82.2407 L 80.8693,-82.2431
 L 80.8911,-82.2452 L 80.9128,-82.2469 L 80.9346,-82.2483 L 80.9564,-82.2492 L 80.9782,-82.2498 L 81,-82.25
 L 81.0218,-82.2498 L 81.0436,-82.2492 L 81.0654,-82.2483 L 81.0872,-82.2469 L 81.1089,-82.2452 L 81.1306,-82.2431
 L 81.1523,-82.2407 L 81.174,-82.2378 L 81.1955,-82.2346 L 81.2171,-82.231 L 81.2385,-82.227 L 81.2599,-82.2227
 L 81.2812,-82.218 L 81.3024,-82.2129 L 81.3235,-82.2074 L 81.3445,-82.2016 L 81.3655,-82.1954 L 81.3863,-82.1888
 L 81.407,-82.1819 L 81.4275,-82.1746 L 81.448,-82.167 L 81.4682,-82.159 L 81.4884,-82.1506 L 81.5084,-82.1419
 L 81.5283,-82.1329 L 81.548,-82.1235 L 81.5675,-82.1138 L 81.5868,-82.1037 L 81.606,-82.0933 L 81.625,-82.0825
 L 81.6438,-82.0715 L 81.6624,-82.0601 L 81.6808,-82.0483 L 81.699,-82.0363 L 81.717,-82.0239 L 81.7347,-82.0113
 L 81.7523,-81.9983 L 81.7696,-81.985 L 81.7866,-81.9714 L 81.8035,-81.9576 L 81.8201,-81.9434 L 81.8364,-81.9289
 L 81.8525,-81.9142 L 81.8683,-81.8992 L 81.8839,-81.8839 L 81.8992,-81.8683 L 81.9142,-81.8525 L 81.9289,-81.8364
 L 81.9434,-81.8201 L 81.9576,-81.8035 L 81.9714,-81.7866 L 81.985,-81.7696 L 81.9983,-81.7523 L 82.0113,-81.7347
 L 82.0239,-81.717 L 82.0363,-81.699 L 82.0483,-81.6808 L 82.0601,-81.6624 L 82.0715,-81.6438 L 82.0825,-81.625
 L 82.0933,-81.606 L 82.1037,-81.5868 L 82.1138,-81.5675 L 82.1235,-81.548 L 82.1329,-81.5283 L 82.1419,-81.5084
 L 82.1506,-81.4884 L 82.159,-81.4682 L 82.167,-81.448 L 82.1746,-81.4275 L 82.1819,-81.407 L 82.1888,-81.3863
 L 82.1954,-81.3655 L 82.2016,-81.3445 L 82.2074,-81.3235 L 82.2129,-81.3024 L 82.218,-81.2812 L 82.2227,-81.2599
 L 82.227,-81.2385 L 82.231,-81.2171 L 82.2346,-81.1955 L 82.2378,-81.174 L 82.2407,-81.1523 L 82.2431,-81.1306
 L 82.2452,-81.1089 L 82.2469,-81.0872 L 82.2483,-81.0654 L 82.2492,-81.0436 L 82.2498,-81.0218 L 82.25,-81
 L 82.2498,-80.9782 L 82.2492,-80.9564 L 82.2483,-80.9346 L 82.2469,-80.9128 L 82.2452,-80.8911 L 82.2431,-80.8693
 L 82.2407,-80.8477 L 82.2378,-80.826 L 82.2346,-80.8044 L 82.231,-80.7829 L 82.227,-80.7615 L 82.2227,-80.7401
 L 82.218,-80.7188 L 82.2129,-80.6976 L 82.2074,-80.6765 L 82.2016,-80.6554 L 82.1954,-80.6345 L 82.1888,-80.6137
 L 82.1819,-80.593 L 82.1746,-80.5725 L 82.167,-80.552 L 82.159,-80.5317 L 82.1506,-80.5116 L 82.1419,-80.4916
 L 82.1329,-80.4717 L 82.1235,-80.452 L 82.1138,-80.4325 L 82.1037,-80.4131 L 82.0933,-80.394 L 82.0825,-80.375
 L 82.0715,-80.3562 L 82.0601,-80.3376 L 82.0483,-80.3192 L 82.0363,-80.301 L 82.0239,-80.283 L 82.0113,-80.2653
 L 81.9983,-80.2477 L 81.985,-80.2304 L 81.9714,-80.2133 L 81.9576,-80.1965 L 81.9434,-80.1799 L 81.9289,-80.1636
 L 81.9142,-80.1475 L 81.8992,-80.1317 L 81.8839,-80.1161 L 81.8683,-80.1008 L 81.8525,-80.0858 L 81.8364,-80.0711
 L 81.8201,-80.0566 L 81.8035,-80.0424 L 81.7866,-80.0286 L 81.7696,-80.015 L 81.7523,-80.0017 L 81.7347,-79.9887
 L 81.717,-79.9761 L 81.699,-79.9637 L 81.6808,-79.9517 L 81.6624,-79.9399 L 81.6438,-79.9285 L 81.625,-79.9175
 L 81.606,-79.9067 L 81.5868,-79.8963 L 81.5675,-79.8862 L 81.548,-79.8765 L 81.5283,-79.8671 L 81.5084,-79.8581
 L 81.4884,-79.8494 L 81.4682,-79.841 L 81.448,-79.833 L 81.4275,-79.8254 L 81.407,-79.8181 L 81.3863,-79.8112
 L 81.3655,-79.8046 L 81.3445,-79.7984 L 81.3235,-79.7926 L 81.3024,-79.7871 L 81.2812,-79.782 L 81.2599,-79.7773
 L 81.2385,-79.773 L 81.2171,-79.769 L 81.1955,-79.7654 L 81.174,-79.7622 L 81.1523,-79.7593 L 81.1306,-79.7568
 L 81.1089,-79.7547 L 81.0872,-79.753 L 81.0654,-79.7517 L 81.0436,-79.7507 L 81.0218,-79.7502 L 81,-79.75
 z
M 12.9782,-11.7502 L 12.9564,-11.7507 L 12.9346,-11.7517 L 12.9128,-11.753 L 12.8911,-11.7547 L 12.8693,-11.7568
 L 12.8477,-11.7593 L 12.826,-11.7622 L 12.8044,-11.7654 L 12.7829,-11.769 L 12.7615,-11.773 L 12.7401,-11.7773
 L 12.7188,-11.782 L 12.6976,-11.7871 L 12.6765,-11.7926 L 12.6554,-11.7984 L 12.6345,-11.8046 L 12.6137,-11.8112
 L 12.593,-11.8181 L 12.5725,-11.8254 L 12.552,-11.833 L 12.5317,-11.841 L 12.5116,-11.8494 L 12.4916,-11.8581
 L 12.4717,-11.8671 L 12.452,-11.8765 L 12.4325,-11.8862 L 12.4131,-11.8963 L 12.394,-11.9067 L 12.375,-11.9175
 L 12.3562,-11.9285 L 12.3376,-11.9399 L 12.3192,-11.9517 L 12.301,-11.9637 L 12.283,-11.9761 L 12.2653,-11.9887
 L 12.2477,-12.0017 L 12.2304,-12.015 L 12.2133,-12.0286 L 12.1965,-12.0424 L 12.1799,-12.0566 L 12.1636,-12.0711
 L 12.1475,-12.0858 L 12.1317,-12.1008 L 12.1161,-12.1161 L 12.1008,-12.1317 L 12.0858,-12.1475 L 12.0711,-12.1636
 L 12.0566,-12.1799 L 12.0424,-12.1965 L 12.0286,-12.2133 L 12.015,-12.2304 L 12.0017,-12.2477 L 11.9887,-12.2653
 L 11.9761,-12.283 L 11.9637,-12.301 L 11.9517,-12.3192 L 11.9399,-12.3376 L 11.9285,-12.3562 L 11.9175,-12.375
 L 11.9067,-12.394 L 11.8963,-12.4131 L 11.8862,-12.4325 L 11.8765,-12.452 L 11.8671,-12.4717 L 11.8581,-12.4916
 L 11.8494,-12.5116 L 11.841,-12.5317 L 11.833,-12.552 L 11.8254,-12.5725 L 11.8181,-12.593 L 11.8112,-12.6137
 L 11.8046,-12.6345 L 11.7984,-12.6554 L 11.7926,-12.6765 L 11.7871,-12.6976 L 11.782,-12.7188 L 11.7773,-12.7401
 L 11.773,-12.7615 L 11.769,-12.7829 L 11.7654,-12.8044 L 11.7622,-12.826 L 11.7593,-12.8477 L 11.7568,-12.8693
 L 11.7547,-12.8911 L 11.753,-12.9128 L 11.7517,-12.9346 L 11.7507,-12.9564 L 11.7502,-12.9782 L 11.75,-13
 L 11.7502,-13.0218 L 11.7507,-13.0436 L 11.7517,-13.0654 L 11.753,-13.0872 L 11.7547,-13.1089 L 11.7568,-13.1306
 L 11.7593,-13.1523 L 11.7622,-13.174 L 11.7654,-13.1955 L 11.769,-13.2171 L 11.773,-13.2385 L 11.7773,-13.2599
 L 11.782,-13.2812 L 11.7871,-13.3024 L 11.7926,-13.3235 L 11.7984,-13.3445 L 11.8046,-13.3655 L 11.8112,-13.3863
 L 11.8181,-13.407 L 11.8254,-13.4275 L 11.833,-13.448 L 11.841,-13.4682 L 11.8494,-13.4884 L 11.8581,-13.5084
 L 11.8671,-13.5283 L 11.8765,-13.548 L 11.8862,-13.5675 L 11.8963,-13.5868 L 11.9067,-13.606 L 11.9175,-13.625
 L 11.9285,-13.6438 L 11.9399,-13.6624 L 11.9517,-13.6808 L 11.9637,-13.699 L 11.9761,-13.717 L 11.9887,-13.7347
 L 12.0017,-13.7523 L 12.015,-13.7696 L 12.0286,-13.7866 L 12.0424,-13.8035 L 12.0566,-13.8201 L 12.0711,-13.8364
 L 12.0858,-13.8525 L 12.1008,-13.8683 L 12.1161,-13.8839 L 12.1317,-13.8992 L 12.1475,-13.9142 L 12.1636,-13.9289
 L 12.1799,-13.9434 L 12.1965,-13.9576 L 12.2133,-13.9714 L 12.2304,-13.985 L 12.2477,-13.9983 L 12.2653,-14.0113
 L 12.283,-14.0239 L 12.301,-14.0363 L 12.3192,-14.0483 L 12.3376,-14.0601 L 12.3562,-14.0715 L 12.375,-14.0825
 L 12.394,-14.0933 L 12.4131,-14.1037 L 12.4325,-14.1138 L 12.452,-14.1235 L 12.4717,-14.1329 L 12.4916,-14.1419
 L 12.5116,-14.1506 L 12.5317,-14.159 L 12.552,-14.167 L 12.5725,-14.1746 L 12.593,-14.1819 L 12.6137,-14.1888
 L 12.6345,-14.1954 L 12.6554,-14.2016 L 12.6765,-14.2074 L 12.6976,-14.2129 L 12.7188,-14.218 L 12.7401,-14.2227
 L 12.7615,-14.227 L 12.7829,-14.231 L 12.8044,-14.2346 L 12.826,-14.2378 L 12.8477,-14.2407 L 12.8693,-14.2431
 L 12.8911,-14.2452 L 12.9128,-14.2469 L 12.9346,-14.2483 L 12.9564,-14.2492 L 12.9782,-14.2498 L 13,-14.25
 L 13.0218,-14.2498 L 13.0436,-14.2492 L 13.0654,-14.2483 L 13.0872,-14.2469 L 13.1089,-14.2452 L 13.1306,-14.2431
 L 13.1523,-14.2407 L 13.174,-14.2378 L 13.1955,-14.2346 L 13.2171,-14.231 L 13.2385,-14.227 L 13.2599,-14.2227
 L 13.2812,-14.218 L 13.3024,-14.2129 L 13.3235,-14.2074 L 13.3445,-14.2016 L 13.3655,-14.1954 L 13.3863,-14.1888
 L 13.407,-14.1819 L 13.4275,-14.1746 L 13.448,-14.167 L 13.4682,-14.159 L 13.4884,-14.1506 L 13.5084,-14.1419
 L 13.5283,-14.1329 L 13.548,-14.1235 L 13.5675,-14.1138 L 13.5868,-14.1037 L 13.606,-14.0933 L 13.625,-14.0825
 L 13.6438,-14.0715 L 13.6624,-14.0601 L 13.6808,-14.0483 L 13.699,-14.0363 L 13.717,-14.0239 L 13.7347,-14.0113
 L 13.7523,-13.9983 L 13.7696,-13.985 L 13.7866,-13.9714 L 13.8035,-13.9576 L 13.8201,-13.9434 L 13.8364,-13.9289
 L 13.8525,-13.9142 L 13.8683,-13.8992 L 13.8839,-13.8839 L 13.8992,-13.8683 L 13.9142,-13.8525 L 13.9289,-13.8364
 L 13.9434,-13.8201 L 13.9576,-13.8035 L 13.9714,-13.7866 L 13.985,-13.7696 L 13.9983,-13.7523 L 14.0113,-13.7347
 L 14.0239,-13.717 L 14.0363,-13.699 L 14.0483,-13.6808 L 14.0601,-13.6624 L 14.0715,-13.6438 L 14.0825,-13.625
 L 14.0933,-13.606 L 14.1037,-13.5868 L 14.1138,-13.5675 L 14.1235,-13.548 L 14.1329,-13.5283 L 14.1419,-13.5084
 L 14.1506,-13.4884 L 14.159,-13.4682 L 14.167,-13.448 L 14.1746,-13.4275 L 14.1819,-13.407 L 14.1888,-13.3863
 L 14.1954,-13.3655 L 14.2016,-13.3445 L 14.2074,-13.3235 L 14.2129,-13.3024 L 14.218,-13.2812 L 14.2227,-13.2599
 L 14.227,-13.2385 L 14.231,-13.2171 L 14.2346,-13.1955 L 14.2378,-13.174 L 14.2407,-13.1523 L 14.2431,-13.1306
 L 14.2452,-13.1089 L 14.2469,-13.0872 L 14.2483,-13.0654 L 14.2492,-13.0436 L 14.2498,-13.0218 L 14.25,-13
 L 14.2498,-12.9782 L 14.2492,-12.9564 L 14.2483,-12.9346 L 14.2469,-12.9128 L 14.2452,-12.8911 L 14.2431,-12.8693
 L 14.2407,-12.8477 L 14.2378,-12.826 L 14.2346,-12.8044 L 14.231,-12.7829 L 14.227,-12.7615 L 14.2227,-12.7401
 L 14.218,-12.7188 L 14.2129,-12.6976 L 14.2074,-12.6765 L 14.2016,-12.6554 L 14.1954,-12.6345 L 14.1888,-12.6137
 L 14.1819,-12.593 L 14.1746,-12.5725 L 14.167,-12.552 L 14.159,-12.5317 L 14.1506,-12.5116 L 14.1419,-12.4916
 L 14.1329,-12.4717 L 14.1235,-12.452 L 14.1138,-12.4325 L 14.1037,-12.4131 L 14.0933,-12.394 L 14.0825,-12.375
 L 14.0715,-12.3562 L 14.0601,-12.3376 L 14.0483,-12.3192 L 14.0363,-12.301 L 14.0239,-12.283 L 14.0113,-12.2653
 L 13.9983,-12.2477 L 13.985,-12.2304 L 13.9714,-12.2133 L 13.9576,-12.1965 L 13.9434,-12.1799 L 13.9289,-12.1636
 L 13.9142,-12.1475 L 13.8992,-12.1317 L 13.8839,-12.1161 L 13.8683,-12.1008 L 13.8525,-12.0858 L 13.8364,-12.0711
 L 13.8201,-12.0566 L 13.8035,-12.0424 L 13.7866,-12.0286 L 13.7696,-12.015 L 13.7523,-12.0017 L 13.7347,-11.9887
 L 13.717,-11.9761 L 13.699,-11.9637 L 13.6808,-11.9517 L 13.6624,-11.9399 L 13.6438,-11.9285 L 13.625,-11.9175
 L 13.606,-11.9067 L 13.5868,-11.8963 L 13.5675,-11.8862 L 13.548,-11.8765 L 13.5283,-11.8671 L 13.5084,-11.8581
 L 13.4884,-11.8494 L 13.4682,-11.841 L 13.448,-11.833 L 13.4275,-11.8254 L 13.407,-11.8181 L 13.3863,-11.8112
 L 13.3655,-11.8046 L 13.3445,-11.7984 L 13.3235,-11.7926 L 13.3024,-11.7871 L 13.2812,-11.782 L 13.2599,-11.7773
 L 13.2385,-11.773 L 13.2171,-11.769 L 13.1955,-11.7654 L 13.174,-11.7622 L 13.1523,-11.7593 L 13.1306,-11.7568
 L 13.1089,-11.7547 L 13.0872,-11.753 L 13.0654,-11.7517 L 13.0436,-11.7507 L 13.0218,-11.7502 L 13,-11.75
 z
M 80.9782,-11.7502 L 80.9564,-11.7507 L 80.9346,-11.7517 L 80.9128,-11.753 L 80.8911,-11.7547 L 80.8693,-11.7568
 L 80.8477,-11.7593 L 80.826,-11.7622 L 80.8044,-11.7654 L 80.7829,-11.769 L 80.7615,-11.773 L 80.7401,-11.7773
 L 80.7188,-11.782 L 80.6976,-11.7871 L 80.6765,-11.7926 L 80.6554,-11.7984 L 80.6345,-11.8046 L 80.6137,-11.8112
 L 80.593,-11.8181 L 80.5725,-11.8254 L 80.552,-11.833 L 80.5317,-11.841 L 80.5116,-11.8494 L 80.4916,-11.8581
 L 80.4717,-11.8671 L 80.452,-11.8765 L 80.4325,-11.8862 L 80.4131,-11.8963 L 80.394,-11.9067 L 80.375,-11.9175
 L 80.3562,-11.9285 L 80.3376,-11.9399 L 80.3192,-11.9517 L 80.301,-11.9637 L 80.283,-11.9761 L 80.2653,-11.9887
 L 80.2477,-12.0017 L 80.2304,-12.015 L 80.2133,-12.0286 L 80.1965,-12.0424 L 80.1799,-12.0566 L 80.1636,-12.0711
 L 80.1475,-12.0858 L 80.1317,-12.1008 L 80.1161,-12.1161 L 80.1008,-12.1317 L 80.0858,-12.1475 L 80.0711,-12.1636
 L 80.0566,-12.1799 L 80.0424,-12.1965 L 80.0286,-12.2133 L 80.015,-12.2304 L 80.0017,-12.2477 L 79.9887,-12.2653
 L 79.9761,-12.283 L 79.9637,-12.301 L 79.9517,-12.3192 L 79.9399,-12.3376 L 79.9285,-12.3562 L 79.9175,-12.375
 L 79.9067,-12.394 L 79.8963,-12.4131 L 79.8862,-12.4325 L 79.8765,-12.452 L 79.8671,-12.4717 L 79.8581,-12.4916
 L 79.8494,-12.5116 L 79.841,-12.5317 L 79.833,-12.552 L 79.8254,-12.5725 L 79.8181,-12.593 L 79.8112,-12.6137
 L 79.8046,-12.6345 L 79.7984,-12.6554 L 79.7926,-12.6765 L 79.7871,-12.6976 L 79.782,-12.7188 L 79.7773,-12.7401
 L 79.773,-12.7615 L 79.769,-12.7829 L 79.7654,-12.8044 L 79.7622,-12.826 L 79.7593,-12.8477 L 79.7568,-12.8693
 L 79.7547,-12.8911 L 79.753,-12.9128 L 79.7517,-12.9346 L 79.7507,-12.9564 L 79.7502,-12.9782 L 79.75,-13
 L 79.7502,-13.0218 L 79.7507,-13.0436 L 79.7517,-13.0654 L 79.753,-13.0872 L 79.7547,-13.1089 L 79.7568,-13.1306
 L 79.7593,-13.1523 L 79.7622,-13.174 L 79.7654,-13.1955 L 79.769,-13.2171 L 79.773,-13.2385 L 79.7773,-13.2599
 L 79.782,-13.2812 L 79.7871,-13.3024 L 79.7926,-13.3235 L 79.7984,-13.3445 L 79.8046,-13.3655 L 79.8112,-13.3863
 L 79.8181,-13.407 L 79.8254,-13.4275 L 79.833,-13.448 L 79.841,-13.4682 L 79.8494,-13.4884 L 79.8581,-13.5084
 L 79.8671,-13.5283 L 79.8765,-13.548 L 79.8862,-13.5675 L 79.8963,-13.5868 L 79.9067,-13.606 L 79.9175,-13.625
 L 79.9285,-13.6438 L 79.9399,-13.6624 L 79.9517,-13.6808 L 79.9637,-13.699 L 79.9761,-13.717 L 79.9887,-13.7347
 L 80.0017,-13.7523 L 80.015,-13.7696 L 80.0286,-13.7866 L 80.0424,-13.8035 L 80.0566,-13.8201 L 80.0711,-13.8364
 L 80.0858,-13.8525 L 80.1008,-13.8683 L 80.1161,-13.8839 L 80.1317,-13.8992 L 80.1475,-13.9142 L 80.1636,-13.9289
 L 80.1799,-13.9434 L 80.1965,-13.9576 L 80.2133,-13.9714 L 80.2304,-13.985 L 80.2477,-13.9983 L 80.2653,-14.0113
 L 80.283,-14.0239 L 80.301,-14.0363 L 80.3192,-14.0483 L 80.3376,-14.0601 L 80.3562,-14.0715 L 80.375,-14.0825
 L 80.394,-14.0933 L 80.4131,-14.1037 L 80.4325,-14.1138 L 80.452,-14.1235 L 80.4717,-14.1329 L 80.4916,-14.1419
 L 80.5116,-14.1506 L 80.5317,-14.159 L 80.552,-14.167 L 80.5725,-14.1746 L 80.593,-14.1819 L 80.6137,-14.1888
 L 80.6345,-14.1954 L 80.6554,-14.2016 L 80.6765,-14.2074 L 80.6976,-14.2129 L 80.7188,-14.218 L 80.7401,-14.2227
 L 80.7615,-14.227 L 80.7829,-14.231 L 80.8044,-14.2346 L 80.826,-14.2378 L 80.8477,-14.2407 L 80.8693,-14.2431
 L 80.8911,-14.2452 L 80.9128,-14.2469 L 80.9346,-14.2483 L 80.9564,-14.2492 L 80.9782,-14.2498 L 81,-14.25
 L 81.0218,-14.2498 L 81.0436,-14.2492 L 81.0654,-14.2483 L 81.0872,-14.2469 L 81.1089,-14.2452 L 81.1306,-14.2431
 L 81.1523,-14.2407 L 81.174,-14.2378 L 81.1955,-14.2346 L 81.2171,-14.231 L 81.2385,-14.227 L 81.2599,-14.2227
 L 81.2812,-14.218 L 81.3024,-14.2129 L 81.3235,-14.2074 L 81.3445,-14.2016 L 81.3655,-14.1954 L 81.3863,-14.1888
 L 81.407,-14.1819 L 81.4275,-14.1746 L 81.448,-14.167 L 81.4682,-14.159 L 81.4884,-14.1506 L 81.5084,-14.1419
 L 81.5283,-14.1329 L 81.548,-14.1235 L 81.5675,-14.1138 L 81.5868,-14.1037 L 81.606,-14.0933 L 81.625,-14.0825
 L 81.6438,-14.0715 L 81.6624,-14.0601 L 81.6808,-14.0483 L 81.699,-14.0363 L 81.717,-14.0239 L 81.7347,-14.0113
 L 81.7523,-13.9983 L 81.7696,-13.985 L 81.7866,-13.9714 L 81.8035,-13.9576 L 81.8201,-13.9434 L 81.8364,-13.9289
 L 81.8525,-13.9142 L 81.8683,-13.8992 L 81.8839,-13.8839 L 81.8992,-13.8683 L 81.9142,-13.8525 L 81.9289,-13.8364
 L 81.9434,-13.8201 L 81.9576,-13.8035 L 81.9714,-13.7866 L 81.985,-13.7696 L 81.9983,-13.7523 L 82.0113,-13.7347
 L 82.0239,-13.717 L 82.0363,-13.699 L 82.0483,-13.6808 L 82.0601,-13.6624 L 82.0715,-13.6438 L 82.0825,-13.625
 L 82.0933,-13.606 L 82.1037,-13.5868 L 82.1138,-13.5675 L 82.1235,-13.548 L 82.1329,-13.5283 L 82.1419,-13.5084
 L 82.1506,-13.4884 L 82.159,-13.4682 L 82.167,-13.448 L 82.1746,-13.4275 L 82.1819,-13.407 L 82.1888,-13.3863
 L 82.1954,-13.3655 L 82.2016,-13.3445 L 82.2074,-13.3235 L 82.2129,-13.3024 L 82.218,-13.2812 L 82.2227,-13.2599
 L 82.227,-13.2385 L 82.231,-13.2171 L 82.2346,-13.1955 L 82.2378,-13.174 L 82.2407,-13.1523 L 82.2431,-13.1306
 L 82.2452,-13.1089 L 82.2469,-13.0872 L 82.2483,-13.0654 L 82.2492,-13.0436 L 82.2498,-13.0218 L 82.25,-13
 L 82.2498,-12.9782 L 82.2492,-12.9564 L 82.2483,-12.9346 L 82.2469,-12.9128 L 82.2452,-12.8911 L 82.2431,-12.8693
 L 82.2407,-12.8477 L 82.2378,-12.826 L 82.2346,-12.8044 L 82.231,-12.7829 L 82.227,-12.7615 L 82.2227,-12.7401
 L 82.218,-12.7188 L 82.2129,-12.6976 L 82.2074,-12.6765 L 82.2016,-12.6554 L 82.1954,-12.6345 L 82.1888,-12.6137
 L 82.1819,-12.593 L 82.1746,-12.5725 L 82.167,-12.552 L 82.159,-12.5317 L 82.1506,-12.5116 L 82.1419,-12.4916
 L 82.1329,-12.4717 L 82.1235,-12.452 L 82.1138,-12.4325 L 82.1037,-12.4131 L 82.0933,-12.394 L 82.0825,-12.375
 L 82.0715,-12.3562 L 82.0601,-12.3376 L 82.0483,-12.3192 L 82.0363,-12.301 L 82.0239,-12.283 L 82.0113,-12.2653
 L 81.9983,-12.2477 L 81.985,-12.2304 L 81.9714,-12.2133 L 81.9576,-12.1965 L 81.9434,-12.1799 L 81.9289,-12.1636
 L 81.9142,-12.1475 L 81.8992,-12.1317 L 81.8839,-12.1161 L 81.8683,-12.1008 L 81.8525,-12.0858 L 81.8364,-12.0711
 L 81.8201,-12.0566 L 81.8035,-12.0424 L 81.7866,-12.0286 L 81.7696,-12.015 L 81.7523,-12.0017 L 81.7347,-11.9887
 L 81.717,-11.9761 L 81.699,-11.9637 L 81.6808,-11.9517 L 81.6624,-11.9399 L 81.6438,-11.9285 L 81.625,-11.9175
 L 81.606,-11.9067 L 81.5868,-11.8963 L 81.5675,-11.8862 L 81.548,-11.8765 L 81.5283,-11.8671 L 81.5084,-11.8581
 L 81.4884,-11.8494 L 81.4682,-11.841 L 81.448,-11.833 L 81.4275,-11.8254 L 81.407,-11.8181 L 81.3863,-11.8112
 L 81.3655,-11.8046 L 81.3445,-11.7984 L 81.3235,-11.7926 L 81.3024,-11.7871 L 81.2812,-11.782 L 81.2599,-11.7773
 L 81.2385,-11.773 L 81.2171,-11.769 L 81.1955,-11.7654 L 81.174,-11.7622 L 81.1523,-11.7593 L 81.1306,-11.7568
 L 81.1089,-11.7547 L 81.0872,-11.753 L 81.0654,-11.7517 L 81.0436,-11.7507 L 81.0218,-11.7502 L 81,-11.75
 z
" stroke="black" fill="lightgray" stroke-width="0.5"/>
</svg>
