  0
SECTION
  2
BLOCKS
  0
ENDSEC
  0
SECTION
  2
ENTITIES
  0
LINE
  8
0
 10
0.296677
 20
-16.9974
 11
0.593277
 21
-16.9896
  0
LINE
  8
0
 10
0.593277
 20
-16.9896
 11
0.889709
 21
-16.9767
  0
LINE
  8
0
 10
0.889709
 20
-16.9767
 11
1.18585
 21
-16.9586
  0
LINE
  8
0
 10
1.18585
 20
-16.9586
 11
1.48164
 21
-16.9353
  0
LINE
  8
0
 10
1.48164
 20
-16.9353
 11
1.77698
 21
-16.9069
  0
LINE
  8
0
 10
1.77698
 20
-16.9069
 11
2.07178
 21
-16.8733
  0
LINE
  8
0
 10
2.07178
 20
-16.8733
 11
2.36594
 21
-16.8345
  0
LINE
  8
0
 10
2.36594
 20
-16.8345
 11
2.65938
 21
-16.7907
  0
LINE
  8
0
 10
2.65938
 20
-16.7907
 11
2.95201
 21
-16.7417
  0
LINE
  8
0
 10
2.95201
 20
-16.7417
 11
3.24374
 21
-16.6877
  0
LINE
  8
0
 10
3.24374
 20
-16.6877
 11
3.53448
 21
-16.6285
  0
LINE
  8
0
 10
3.53448
 20
-16.6285
 11
3.82416
 21
-16.5643
  0
LINE
  8
0
 10
3.82416
 20
-16.5643
 11
4.11267
 21
-16.495
  0
LINE
  8
0
 10
4.11267
 20
-16.495
 11
4.39992
 21
-16.4207
  0
LINE
  8
0
 10
4.39992
 20
-16.4207
 11
4.68582
 21
-16.3414
  0
LINE
  8
0
 10
4.68582
 20
-16.3414
 11
4.97031
 21
-16.2572
  0
LINE
  8
0
 10
4.97031
 20
-16.2572
 11
5.25328
 21
-16.168
  0
LINE
  8
0
 10
5.25328
 20
-16.168
 11
5.53465
 21
-16.0738
  0
LINE
  8
0
 10
5.53465
 20
-16.0738
 11
5.81433
 21
-15.9748
  0
LINE
  8
0
 10
5.81433
 20
-15.9748
 11
6.09225
 21
-15.8709
  0
LINE
  8
0
 10
6.09225
 20
-15.8709
 11
6.3683
 21
-15.7621
  0
LINE
  8
0
 10
6.3683
 20
-15.7621
 11
6.64243
 21
-15.6486
  0
LINE
  8
0
 10
6.64243
 20
-15.6486
 11
6.91452
 21
-15.5303
  0
LINE
  8
0
 10
6.91452
 20
-15.5303
 11
7.18451
 21
-15.4072
  0
LINE
  8
0
 10
7.18451
 20
-15.4072
 11
7.4523
 21
-15.2795
  0
LINE
  8
0
 10
7.4523
 20
-15.2795
 11
7.71783
 21
-15.1471
  0
LINE
  8
0
 10
7.71783
 20
-15.1471
 11
7.981
 21
-15.0101
  0
LINE
  8
0
 10
7.981
 20
-15.0101
 11
8.24176
 21
-14.8685
  0
LINE
  8
0
 10
8.24176
 20
-14.8685
 11
8.5
 21
-14.7224
  0
LINE
  8
0
 10
8.5
 20
-14.7224
 11
8.75565
 21
-14.5718
  0
LINE
  8
0
 10
8.75565
 20
-14.5718
 11
9.00862
 21
-14.4168
  0
LINE
  8
0
 10
9.00862
 20
-14.4168
 11
9.25885
 21
-14.2574
  0
LINE
  8
0
 10
9.25885
 20
-14.2574
 11
9.50627
 21
-14.0936
  0
LINE
  8
0
 10
9.50627
 20
-14.0936
 11
9.75079
 21
-13.9256
  0
LINE
  8
0
 10
9.75079
 20
-13.9256
 11
9.99234
 21
-13.7533
  0
LINE
  8
0
 10
9.99234
 20
-13.7533
 11
10.2309
 21
-13.5768
  0
LINE
  8
0
 10
10.2309
 20
-13.5768
 11
10.4662
 21
-13.3962
  0
LINE
  8
0
 10
10.4662
 20
-13.3962
 11
10.6984
 21
-13.2115
  0
LINE
  8
0
 10
10.6984
 20
-13.2115
 11
10.9274
 21
-13.0228
  0
LINE
  8
0
 10
10.9274
 20
-13.0228
 11
11.153
 21
-12.83
  0
LINE
  8
0
 10
11.153
 20
-12.83
 11
11.3752
 21
-12.6335
  0
LINE
  8
0
 10
11.3752
 20
-12.6335
 11
11.594
 21
-12.433
  0
LINE
  8
0
 10
11.594
 20
-12.433
 11
11.8092
 21
-12.2288
  0
LINE
  8
0
 10
11.8092
 20
-12.2288
 11
12.0208
 21
-12.0208
  0
LINE
  8
0
 10
12.0208
 20
-12.0208
 11
12.2288
 21
-11.8092
  0
LINE
  8
0
 10
12.2288
 20
-11.8092
 11
12.433
 21
-11.594
  0
LINE
  8
0
 10
12.433
 20
-11.594
 11
12.6335
 21
-11.3752
  0
LINE
  8
0
 10
12.6335
 20
-11.3752
 11
12.83
 21
-11.153
  0
LINE
  8
0
 10
12.83
 20
-11.153
 11
13.0228
 21
-10.9274
  0
LINE
  8
0
 10
13.0228
 20
-10.9274
 11
13.2115
 21
-10.6984
  0
LINE
  8
0
 10
13.2115
 20
-10.6984
 11
13.3962
 21
-10.4662
  0
LINE
  8
0
 10
13.3962
 20
-10.4662
 11
13.5768
 21
-10.2309
  0
LINE
  8
0
 10
13.5768
 20
-10.2309
 11
13.7533
 21
-9.99234
  0
LINE
  8
0
 10
13.7533
 20
-9.99234
 11
13.9256
 21
-9.75079
  0
LINE
  8
0
 10
13.9256
 20
-9.75079
 11
14.0936
 21
-9.50627
  0
LINE
  8
0
 10
14.0936
 20
-9.50627
 11
14.2574
 21
-9.25885
  0
LINE
  8
0
 10
14.2574
 20
-9.25885
 11
14.4168
 21
-9.00862
  0
LINE
  8
0
 10
14.4168
 20
-9.00862
 11
14.5718
 21
-8.75565
  0
LINE
  8
0
 10
14.5718
 20
-8.75565
 11
14.7224
 21
-8.5
  0
LINE
  8
0
 10
14.7224
 20
-8.5
 11
14.8685
 21
-8.24176
  0
LINE
  8
0
 10
14.8685
 20
-8.24176
 11
15.0101
 21
-7.981
  0
LINE
  8
0
 10
15.0101
 20
-7.981
 11
15.1471
 21
-7.71783
  0
LINE
  8
0
 10
15.1471
 20
-7.71783
 11
15.2795
 21
-7.4523
  0
LINE
  8
0
 10
15.2795
 20
-7.4523
 11
15.4072
 21
-7.18451
  0
LINE
  8
0
 10
15.4072
 20
-7.18451
 11
15.5303
 21
-6.91452
  0
LINE
  8
0
 10
15.5303
 20
-6.91452
 11
15.6486
 21
-6.64243
  0
LINE
  8
0
 10
15.6486
 20
-6.64243
 11
15.7621
 21
-6.3683
  0
LINE
  8
0
 10
15.7621
 20
-6.3683
 11
15.8709
 21
-6.09225
  0
LINE
  8
0
 10
15.8709
 20
-6.09225
 11
15.9748
 21
-5.81433
  0
LINE
  8
0
 10
15.9748
 20
-5.81433
 11
16.0738
 21
-5.53465
  0
LINE
  8
0
 10
16.0738
 20
-5.53465
 11
16.168
 21
-5.25328
  0
LINE
  8
0
 10
16.168
 20
-5.25328
 11
16.2572
 21
-4.97031
  0
LINE
  8
0
 10
16.2572
 20
-4.97031
 11
16.3414
 21
-4.68582
  0
LINE
  8
0
 10
16.3414
 20
-4.68582
 11
16.4207
 21
-4.39992
  0
LINE
  8
0
 10
16.4207
 20
-4.39992
 11
16.495
 21
-4.11267
  0
LINE
  8
0
 10
16.495
 20
-4.11267
 11
16.5643
 21
-3.82416
  0
LINE
  8
0
 10
16.5643
 20
-3.82416
 11
16.6285
 21
-3.53448
  0
LINE
  8
0
 10
16.6285
 20
-3.53448
 11
16.6877
 21
-3.24374
  0
LINE
  8
0
 10
16.6877
 20
-3.24374
 11
16.7417
 21
-2.95201
  0
LINE
  8
0
 10
16.7417
 20
-2.95201
 11
16.7907
 21
-2.65938
  0
LINE
  8
0
 10
16.7907
 20
-2.65938
 11
16.8345
 21
-2.36594
  0
LINE
  8
0
 10
16.8345
 20
-2.36594
 11
16.8733
 21
-2.07178
  0
LINE
  8
0
 10
16.8733
 20
-2.07178
 11
16.9069
 21
-1.77698
  0
LINE
  8
0
 10
16.9069
 20
-1.77698
 11
16.9353
 21
-1.48164
  0
LINE
  8
0
 10
16.9353
 20
-1.48164
 11
16.9586
 21
-1.18585
  0
LINE
  8
0
 10
16.9586
 20
-1.18585
 11
16.9767
 21
-0.889709
  0
LINE
  8
0
 10
16.9767
 20
-0.889709
 11
16.9896
 21
-0.593277
  0
LINE
  8
0
 10
16.9896
 20
-0.593277
 11
16.9974
 21
-0.296677
  0
LINE
  8
0
 10
16.9974
 20
-0.296677
 11
17
 21
0
  0
LINE
  8
0
 10
17
 20
0
 11
16.9974
 21
0.296677
  0
LINE
  8
0
 10
16.9974
 20
0.296677
 11
16.9896
 21
0.593277
  0
LINE
  8
0
 10
16.9896
 20
0.593277
 11
16.9767
 21
0.889709
  0
LINE
  8
0
 10
16.9767
 20
0.889709
 11
16.9586
 21
1.18585
  0
LINE
  8
0
 10
16.9586
 20
1.18585
 11
16.9353
 21
1.48164
  0
LINE
  8
0
 10
16.9353
 20
1.48164
 11
16.9069
 21
1.77698
  0
LINE
  8
0
 10
16.9069
 20
1.77698
 11
16.8733
 21
2.07178
  0
LINE
  8
0
 10
16.8733
 20
2.07178
 11
16.8345
 21
2.36594
  0
LINE
  8
0
 10
16.8345
 20
2.36594
 11
16.7907
 21
2.65938
  0
LINE
  8
0
 10
16.7907
 20
2.65938
 11
16.7417
 21
2.95201
  0
LINE
  8
0
 10
16.7417
 20
2.95201
 11
16.6877
 21
3.24374
  0
LINE
  8
0
 10
16.6877
 20
3.24374
 11
16.6285
 21
3.53448
  0
LINE
  8
0
 10
16.6285
 20
3.53448
 11
16.5643
 21
3.82416
  0
LINE
  8
0
 10
16.5643
 20
3.82416
 11
16.495
 21
4.11267
  0
LINE
  8
0
 10
16.495
 20
4.11267
 11
16.4207
 21
4.39992
  0
LINE
  8
0
 10
16.4207
 20
4.39992
 11
16.3414
 21
4.68582
  0
LINE
  8
0
 10
16.3414
 20
4.68582
 11
16.2572
 21
4.97031
  0
LINE
  8
0
 10
16.2572
 20
4.97031
 11
16.168
 21
5.25328
  0
LINE
  8
0
 10
16.168
 20
5.25328
 11
16.0738
 21
5.53465
  0
LINE
  8
0
 10
16.0738
 20
5.53465
 11
15.9748
 21
5.81433
  0
LINE
  8
0
 10
15.9748
 20
5.81433
 11
15.8709
 21
6.09225
  0
LINE
  8
0
 10
15.8709
 20
6.09225
 11
15.7621
 21
6.3683
  0
LINE
  8
0
 10
15.7621
 20
6.3683
 11
15.6486
 21
6.64243
  0
LINE
  8
0
 10
15.6486
 20
6.64243
 11
15.5303
 21
6.91452
  0
LINE
  8
0
 10
15.5303
 20
6.91452
 11
15.4072
 21
7.18451
  0
LINE
  8
0
 10
15.4072
 20
7.18451
 11
15.2795
 21
7.4523
  0
LINE
  8
0
 10
15.2795
 20
7.4523
 11
15.1471
 21
7.71783
  0
LINE
  8
0
 10
15.1471
 20
7.71783
 11
15.0101
 21
7.981
  0
LINE
  8
0
 10
15.0101
 20
7.981
 11
14.8685
 21
8.24176
  0
LINE
  8
0
 10
14.8685
 20
8.24176
 11
14.7224
 21
8.5
  0
LINE
  8
0
 10
14.7224
 20
8.5
 11
14.5718
 21
8.75565
  0
LINE
  8
0
 10
14.5718
 20
8.75565
 11
14.4168
 21
9.00862
  0
LINE
  8
0
 10
14.4168
 20
9.00862
 11
14.2574
 21
9.25885
  0
LINE
  8
0
 10
14.2574
 20
9.25885
 11
14.0936
 21
9.50627
  0
LINE
  8
0
 10
14.0936
 20
9.50627
 11
13.9256
 21
9.75079
  0
LINE
  8
0
 10
13.9256
 20
9.75079
 11
13.7533
 21
9.99234
  0
LINE
  8
0
 10
13.7533
 20
9.99234
 11
13.5768
 21
10.2309
  0
LINE
  8
0
 10
13.5768
 20
10.2309
 11
13.3962
 21
10.4662
  0
LINE
  8
0
 10
13.3962
 20
10.4662
 11
13.2115
 21
10.6984
  0
LINE
  8
0
 10
13.2115
 20
10.6984
 11
13.0228
 21
10.9274
  0
LINE
  8
0
 10
13.0228
 20
10.9274
 11
12.83
 21
11.153
  0
LINE
  8
0
 10
12.83
 20
11.153
 11
12.6335
 21
11.3752
  0
LINE
  8
0
 10
12.6335
 20
11.3752
 11
12.433
 21
11.594
  0
LINE
  8
0
 10
12.433
 20
11.594
 11
12.2288
 21
11.8092
  0
LINE
  8
0
 10
12.2288
 20
11.8092
 11
12.0208
 21
12.0208
  0
LINE
  8
0
 10
12.0208
 20
12.0208
 11
11.8092
 21
12.2288
  0
LINE
  8
0
 10
11.8092
 20
12.2288
 11
11.594
 21
12.433
  0
LINE
  8
0
 10
11.594
 20
12.433
 11
11.3752
 21
12.6335
  0
LINE
  8
0
 10
11.3752
 20
12.6335
 11
11.153
 21
12.83
  0
LINE
  8
0
 10
11.153
 20
12.83
 11
10.9274
 21
13.0228
  0
LINE
  8
0
 10
10.9274
 20
13.0228
 11
10.6984
 21
13.2115
  0
LINE
  8
0
 10
10.6984
 20
13.2115
 11
10.4662
 21
13.3962
  0
LINE
  8
0
 10
10.4662
 20
13.3962
 11
10.2309
 21
13.5768
  0
LINE
  8
0
 10
10.2309
 20
13.5768
 11
9.99234
 21
13.7533
  0
LINE
  8
0
 10
9.99234
 20
13.7533
 11
9.75079
 21
13.9256
  0
LINE
  8
0
 10
9.75079
 20
13.9256
 11
9.50627
 21
14.0936
  0
LINE
  8
0
 10
9.50627
 20
14.0936
 11
9.25885
 21
14.2574
  0
LINE
  8
0
 10
9.25885
 20
14.2574
 11
9.00862
 21
14.4168
  0
LINE
  8
0
 10
9.00862
 20
14.4168
 11
8.75565
 21
14.5718
  0
LINE
  8
0
 10
8.75565
 20
14.5718
 11
8.5
 21
14.7224
  0
LINE
  8
0
 10
8.5
 20
14.7224
 11
8.24176
 21
14.8685
  0
LINE
  8
0
 10
8.24176
 20
14.8685
 11
7.981
 21
15.0101
  0
LINE
  8
0
 10
7.981
 20
15.0101
 11
7.71783
 21
15.1471
  0
LINE
  8
0
 10
7.71783
 20
15.1471
 11
7.4523
 21
15.2795
  0
LINE
  8
0
 10
7.4523
 20
15.2795
 11
7.18451
 21
15.4072
  0
LINE
  8
0
 10
7.18451
 20
15.4072
 11
6.91452
 21
15.5303
  0
LINE
  8
0
 10
6.91452
 20
15.5303
 11
6.64243
 21
15.6486
  0
LINE
  8
0
 10
6.64243
 20
15.6486
 11
6.3683
 21
15.7621
  0
LINE
  8
0
 10
6.3683
 20
15.7621
 11
6.09225
 21
15.8709
  0
LINE
  8
0
 10
6.09225
 20
15.8709
 11
5.81433
 21
15.9748
  0
LINE
  8
0
 10
5.81433
 20
15.9748
 11
5.53465
 21
16.0738
  0
LINE
  8
0
 10
5.53465
 20
16.0738
 11
5.25328
 21
16.168
  0
LINE
  8
0
 10
5.25328
 20
16.168
 11
4.97031
 21
16.2572
  0
LINE
  8
0
 10
4.97031
 20
16.2572
 11
4.68582
 21
16.3414
  0
LINE
  8
0
 10
4.68582
 20
16.3414
 11
4.39992
 21
16.4207
  0
LINE
  8
0
 10
4.39992
 20
16.4207
 11
4.11267
 21
16.495
  0
LINE
  8
0
 10
4.11267
 20
16.495
 11
3.82416
 21
16.5643
  0
LINE
  8
0
 10
3.82416
 20
16.5643
 11
3.53448
 21
16.6285
  0
LINE
  8
0
 10
3.53448
 20
16.6285
 11
3.24374
 21
16.6877
  0
LINE
  8
0
 10
3.24374
 20
16.6877
 11
2.95201
 21
16.7417
  0
LINE
  8
0
 10
2.95201
 20
16.7417
 11
2.65938
 21
16.7907
  0
LINE
  8
0
 10
2.65938
 20
16.7907
 11
2.36594
 21
16.8345
  0
LINE
  8
0
 10
2.36594
 20
16.8345
 11
2.07178
 21
16.8733
  0
LINE
  8
0
 10
2.07178
 20
16.8733
 11
1.77698
 21
16.9069
  0
LINE
  8
0
 10
1.77698
 20
16.9069
 11
1.48164
 21
16.9353
  0
LINE
  8
0
 10
1.48164
 20
16.9353
 11
1.18585
 21
16.9586
  0
LINE
  8
0
 10
1.18585
 20
16.9586
 11
0.889709
 21
16.9767
  0
LINE
  8
0
 10
0.889709
 20
16.9767
 11
0.593277
 21
16.9896
  0
LINE
  8
0
 10
0.593277
 20
16.9896
 11
0.296677
 21
16.9974
  0
LINE
  8
0
 10
0.296677
 20
16.9974
 11
0
 21
17
  0
LINE
  8
0
 10
0
 20
17
 11
-0.296677
 21
16.9974
  0
LINE
  8
0
 10
-0.296677
 20
16.9974
 11
-0.593277
 21
16.9896
  0
LINE
  8
0
 10
-0.593277
 20
16.9896
 11
-0.889709
 21
16.9767
  0
LINE
  8
0
 10
-0.889709
 20
16.9767
 11
-1.18585
 21
16.9586
  0
LINE
  8
0
 10
-1.18585
 20
16.9586
 11
-1.48164
 21
16.9353
  0
LINE
  8
0
 10
-1.48164
 20
16.9353
 11
-1.77698
 21
16.9069
  0
LINE
  8
0
 10
-1.77698
 20
16.9069
 11
-2.07178
 21
16.8733
  0
LINE
  8
0
 10
-2.07178
 20
16.8733
 11
-2.36594
 21
16.8345
  0
LINE
  8
0
 10
-2.36594
 20
16.8345
 11
-2.65938
 21
16.7907
  0
LINE
  8
0
 10
-2.65938
 20
16.7907
 11
-2.95201
 21
16.7417
  0
LINE
  8
0
 10
-2.95201
 20
16.7417
 11
-3.24374
 21
16.6877
  0
LINE
  8
0
 10
-3.24374
 20
16.6877
 11
-3.53448
 21
16.6285
  0
LINE
  8
0
 10
-3.53448
 20
16.6285
 11
-3.82416
 21
16.5643
  0
LINE
  8
0
 10
-3.82416
 20
16.5643
 11
-4.11267
 21
16.495
  0
LINE
  8
0
 10
-4.11267
 20
16.495
 11
-4.39992
 21
16.4207
  0
LINE
  8
0
 10
-4.39992
 20
16.4207
 11
-4.68582
 21
16.3414
  0
LINE
  8
0
 10
-4.68582
 20
16.3414
 11
-4.97031
 21
16.2572
  0
LINE
  8
0
 10
-4.97031
 20
16.2572
 11
-5.25328
 21
16.168
  0
LINE
  8
0
 10
-5.25328
 20
16.168
 11
-5.53465
 21
16.0738
  0
LINE
  8
0
 10
-5.53465
 20
16.0738
 11
-5.81433
 21
15.9748
  0
LINE
  8
0
 10
-5.81433
 20
15.9748
 11
-6.09225
 21
15.8709
  0
LINE
  8
0
 10
-6.09225
 20
15.8709
 11
-6.3683
 21
15.7621
  0
LINE
  8
0
 10
-6.3683
 20
15.7621
 11
-6.64243
 21
15.6486
  0
LINE
  8
0
 10
-6.64243
 20
15.6486
 11
-6.91452
 21
15.5303
  0
LINE
  8
0
 10
-6.91452
 20
15.5303
 11
-7.18451
 21
15.4072
  0
LINE
  8
0
 10
-7.18451
 20
15.4072
 11
-7.4523
 21
15.2795
  0
LINE
  8
0
 10
-7.4523
 20
15.2795
 11
-7.71783
 21
15.1471
  0
LINE
  8
0
 10
-7.71783
 20
15.1471
 11
-7.981
 21
15.0101
  0
LINE
  8
0
 10
-7.981
 20
15.0101
 11
-8.24176
 21
14.8685
  0
LINE
  8
0
 10
-8.24176
 20
14.8685
 11
-8.5
 21
14.7224
  0
LINE
  8
0
 10
-8.5
 20
14.7224
 11
-8.75565
 21
14.5718
  0
LINE
  8
0
 10
-8.75565
 20
14.5718
 11
-9.00862
 21
14.4168
  0
LINE
  8
0
 10
-9.00862
 20
14.4168
 11
-9.25885
 21
14.2574
  0
LINE
  8
0
 10
-9.25885
 20
14.2574
 11
-9.50627
 21
14.0936
  0
LINE
  8
0
 10
-9.50627
 20
14.0936
 11
-9.75079
 21
13.9256
  0
LINE
  8
0
 10
-9.75079
 20
13.9256
 11
-9.99234
 21
13.7533
  0
LINE
  8
0
 10
-9.99234
 20
13.7533
 11
-10.2309
 21
13.5768
  0
LINE
  8
0
 10
-10.2309
 20
13.5768
 11
-10.4662
 21
13.3962
  0
LINE
  8
0
 10
-10.4662
 20
13.3962
 11
-10.6984
 21
13.2115
  0
LINE
  8
0
 10
-10.6984
 20
13.2115
 11
-10.9274
 21
13.0228
  0
LINE
  8
0
 10
-10.9274
 20
13.0228
 11
-11.153
 21
12.83
  0
LINE
  8
0
 10
-11.153
 20
12.83
 11
-11.3752
 21
12.6335
  0
LINE
  8
0
 10
-11.3752
 20
12.6335
 11
-11.594
 21
12.433
  0
LINE
  8
0
 10
-11.594
 20
12.433
 11
-11.8092
 21
12.2288
  0
LINE
  8
0
 10
-11.8092
 20
12.2288
 11
-12.0208
 21
12.0208
  0
LINE
  8
0
 10
-12.0208
 20
12.0208
 11
-12.2288
 21
11.8092
  0
LINE
  8
0
 10
-12.2288
 20
11.8092
 11
-12.433
 21
11.594
  0
LINE
  8
0
 10
-12.433
 20
11.594
 11
-12.6335
 21
11.3752
  0
LINE
  8
0
 10
-12.6335
 20
11.3752
 11
-12.83
 21
11.153
  0
LINE
  8
0
 10
-12.83
 20
11.153
 11
-13.0228
 21
10.9274
  0
LINE
  8
0
 10
-13.0228
 20
10.9274
 11
-13.2115
 21
10.6984
  0
LINE
  8
0
 10
-13.2115
 20
10.6984
 11
-13.3962
 21
10.4662
  0
LINE
  8
0
 10
-13.3962
 20
10.4662
 11
-13.5768
 21
10.2309
  0
LINE
  8
0
 10
-13.5768
 20
10.2309
 11
-13.7533
 21
9.99234
  0
LINE
  8
0
 10
-13.7533
 20
9.99234
 11
-13.9256
 21
9.75079
  0
LINE
  8
0
 10
-13.9256
 20
9.75079
 11
-14.0936
 21
9.50627
  0
LINE
  8
0
 10
-14.0936
 20
9.50627
 11
-14.2574
 21
9.25885
  0
LINE
  8
0
 10
-14.2574
 20
9.25885
 11
-14.4168
 21
9.00862
  0
LINE
  8
0
 10
-14.4168
 20
9.00862
 11
-14.5718
 21
8.75565
  0
LINE
  8
0
 10
-14.5718
 20
8.75565
 11
-14.7224
 21
8.5
  0
LINE
  8
0
 10
-14.7224
 20
8.5
 11
-14.8685
 21
8.24176
  0
LINE
  8
0
 10
-14.8685
 20
8.24176
 11
-15.0101
 21
7.981
  0
LINE
  8
0
 10
-15.0101
 20
7.981
 11
-15.1471
 21
7.71783
  0
LINE
  8
0
 10
-15.1471
 20
7.71783
 11
-15.2795
 21
7.4523
  0
LINE
  8
0
 10
-15.2795
 20
7.4523
 11
-15.4072
 21
7.18451
  0
LINE
  8
0
 10
-15.4072
 20
7.18451
 11
-15.5303
 21
6.91452
  0
LINE
  8
0
 10
-15.5303
 20
6.91452
 11
-15.6486
 21
6.64243
  0
LINE
  8
0
 10
-15.6486
 20
6.64243
 11
-15.7621
 21
6.3683
  0
LINE
  8
0
 10
-15.7621
 20
6.3683
 11
-15.8709
 21
6.09225
  0
LINE
  8
0
 10
-15.8709
 20
6.09225
 11
-15.9748
 21
5.81433
  0
LINE
  8
0
 10
-15.9748
 20
5.81433
 11
-16.0738
 21
5.53465
  0
LINE
  8
0
 10
-16.0738
 20
5.53465
 11
-16.168
 21
5.25328
  0
LINE
  8
0
 10
-16.168
 20
5.25328
 11
-16.2572
 21
4.97031
  0
LINE
  8
0
 10
-16.2572
 20
4.97031
 11
-16.3414
 21
4.68582
  0
LINE
  8
0
 10
-16.3414
 20
4.68582
 11
-16.4207
 21
4.39992
  0
LINE
  8
0
 10
-16.4207
 20
4.39992
 11
-16.495
 21
4.11267
  0
LINE
  8
0
 10
-16.495
 20
4.11267
 11
-16.5643
 21
3.82416
  0
LINE
  8
0
 10
-16.5643
 20
3.82416
 11
-16.6285
 21
3.53448
  0
LINE
  8
0
 10
-16.6285
 20
3.53448
 11
-16.6877
 21
3.24374
  0
LINE
  8
0
 10
-16.6877
 20
3.24374
 11
-16.7417
 21
2.95201
  0
LINE
  8
0
 10
-16.7417
 20
2.95201
 11
-16.7907
 21
2.65938
  0
LINE
  8
0
 10
-16.7907
 20
2.65938
 11
-16.8345
 21
2.36594
  0
LINE
  8
0
 10
-16.8345
 20
2.36594
 11
-16.8733
 21
2.07178
  0
LINE
  8
0
 10
-16.8733
 20
2.07178
 11
-16.9069
 21
1.77698
  0
LINE
  8
0
 10
-16.9069
 20
1.77698
 11
-16.9353
 21
1.48164
  0
LINE
  8
0
 10
-16.9353
 20
1.48164
 11
-16.9586
 21
1.18585
  0
LINE
  8
0
 10
-16.9586
 20
1.18585
 11
-16.9767
 21
0.889709
  0
LINE
  8
0
 10
-16.9767
 20
0.889709
 11
-16.9896
 21
0.593277
  0
LINE
  8
0
 10
-16.9896
 20
0.593277
 11
-16.9974
 21
0.296677
  0
LINE
  8
0
 10
-16.9974
 20
0.296677
 11
-17
 21
0
  0
LINE
  8
0
 10
-17
 20
0
 11
-16.9974
 21
-0.296677
  0
LINE
  8
0
 10
-16.9974
 20
-0.296677
 11
-16.9896
 21
-0.593277
  0
LINE
  8
0
 10
-16.9896
 20
-0.593277
 11
-16.9767
 21
-0.889709
  0
LINE
  8
0
 10
-16.9767
 20
-0.889709
 11
-16.9586
 21
-1.18585
  0
LINE
  8
0
 10
-16.9586
 20
-1.18585
 11
-16.9353
 21
-1.48164
  0
LINE
  8
0
 10
-16.9353
 20
-1.48164
 11
-16.9069
 21
-1.77698
  0
LINE
  8
0
 10
-16.9069
 20
-1.77698
 11
-16.8733
 21
-2.07178
  0
LINE
  8
0
 10
-16.8733
 20
-2.07178
 11
-16.8345
 21
-2.36594
  0
LINE
  8
0
 10
-16.8345
 20
-2.36594
 11
-16.7907
 21
-2.65938
  0
LINE
  8
0
 10
-16.7907
 20
-2.65938
 11
-16.7417
 21
-2.95201
  0
LINE
  8
0
 10
-16.7417
 20
-2.95201
 11
-16.6877
 21
-3.24374
  0
LINE
  8
0
 10
-16.6877
 20
-3.24374
 11
-16.6285
 21
-3.53448
  0
LINE
  8
0
 10
-16.6285
 20
-3.53448
 11
-16.5643
 21
-3.82416
  0
LINE
  8
0
 10
-16.5643
 20
-3.82416
 11
-16.495
 21
-4.11267
  0
LINE
  8
0
 10
-16.495
 20
-4.11267
 11
-16.4207
 21
-4.39992
  0
LINE
  8
0
 10
-16.4207
 20
-4.39992
 11
-16.3414
 21
-4.68582
  0
LINE
  8
0
 10
-16.3414
 20
-4.68582
 11
-16.2572
 21
-4.97031
  0
LINE
  8
0
 10
-16.2572
 20
-4.97031
 11
-16.168
 21
-5.25328
  0
LINE
  8
0
 10
-16.168
 20
-5.25328
 11
-16.0738
 21
-5.53465
  0
LINE
  8
0
 10
-16.0738
 20
-5.53465
 11
-15.9748
 21
-5.81433
  0
LINE
  8
0
 10
-15.9748
 20
-5.81433
 11
-15.8709
 21
-6.09225
  0
LINE
  8
0
 10
-15.8709
 20
-6.09225
 11
-15.7621
 21
-6.3683
  0
LINE
  8
0
 10
-15.7621
 20
-6.3683
 11
-15.6486
 21
-6.64243
  0
LINE
  8
0
 10
-15.6486
 20
-6.64243
 11
-15.5303
 21
-6.91452
  0
LINE
  8
0
 10
-15.5303
 20
-6.91452
 11
-15.4072
 21
-7.18451
  0
LINE
  8
0
 10
-15.4072
 20
-7.18451
 11
-15.2795
 21
-7.4523
  0
LINE
  8
0
 10
-15.2795
 20
-7.4523
 11
-15.1471
 21
-7.71783
  0
LINE
  8
0
 10
-15.1471
 20
-7.71783
 11
-15.0101
 21
-7.981
  0
LINE
  8
0
 10
-15.0101
 20
-7.981
 11
-14.8685
 21
-8.24176
  0
LINE
  8
0
 10
-14.8685
 20
-8.24176
 11
-14.7224
 21
-8.5
  0
LINE
  8
0
 10
-14.7224
 20
-8.5
 11
-14.5718
 21
-8.75565
  0
LINE
  8
0
 10
-14.5718
 20
-8.75565
 11
-14.4168
 21
-9.00862
  0
LINE
  8
0
 10
-14.4168
 20
-9.00862
 11
-14.2574
 21
-9.25885
  0
LINE
  8
0
 10
-14.2574
 20
-9.25885
 11
-14.0936
 21
-9.50627
  0
LINE
  8
0
 10
-14.0936
 20
-9.50627
 11
-13.9256
 21
-9.75079
  0
LINE
  8
0
 10
-13.9256
 20
-9.75079
 11
-13.7533
 21
-9.99234
  0
LINE
  8
0
 10
-13.7533
 20
-9.99234
 11
-13.5768
 21
-10.2309
  0
LINE
  8
0
 10
-13.5768
 20
-10.2309
 11
-13.3962
 21
-10.4662
  0
LINE
  8
0
 10
-13.3962
 20
-10.4662
 11
-13.2115
 21
-10.6984
  0
LINE
  8
0
 10
-13.2115
 20
-10.6984
 11
-13.0228
 21
-10.9274
  0
LINE
  8
0
 10
-13.0228
 20
-10.9274
 11
-12.83
 21
-11.153
  0
LINE
  8
0
 10
-12.83
 20
-11.153
 11
-12.6335
 21
-11.3752
  0
LINE
  8
0
 10
-12.6335
 20
-11.3752
 11
-12.433
 21
-11.594
  0
LINE
  8
0
 10
-12.433
 20
-11.594
 11
-12.2288
 21
-11.8092
  0
LINE
  8
0
 10
-12.2288
 20
-11.8092
 11
-12.0208
 21
-12.0208
  0
LINE
  8
0
 10
-12.0208
 20
-12.0208
 11
-11.8092
 21
-12.2288
  0
LINE
  8
0
 10
-11.8092
 20
-12.2288
 11
-11.594
 21
-12.433
  0
LINE
  8
0
 10
-11.594
 20
-12.433
 11
-11.3752
 21
-12.6335
  0
LINE
  8
0
 10
-11.3752
 20
-12.6335
 11
-11.153
 21
-12.83
  0
LINE
  8
0
 10
-11.153
 20
-12.83
 11
-10.9274
 21
-13.0228
  0
LINE
  8
0
 10
-10.9274
 20
-13.0228
 11
-10.6984
 21
-13.2115
  0
LINE
  8
0
 10
-10.6984
 20
-13.2115
 11
-10.4662
 21
-13.3962
  0
LINE
  8
0
 10
-10.4662
 20
-13.3962
 11
-10.2309
 21
-13.5768
  0
LINE
  8
0
 10
-10.2309
 20
-13.5768
 11
-9.99234
 21
-13.7533
  0
LINE
  8
0
 10
-9.99234
 20
-13.7533
 11
-9.75079
 21
-13.9256
  0
LINE
  8
0
 10
-9.75079
 20
-13.9256
 11
-9.50627
 21
-14.0936
  0
LINE
  8
0
 10
-9.50627
 20
-14.0936
 11
-9.25885
 21
-14.2574
  0
LINE
  8
0
 10
-9.25885
 20
-14.2574
 11
-9.00862
 21
-14.4168
  0
LINE
  8
0
 10
-9.00862
 20
-14.4168
 11
-8.75565
 21
-14.5718
  0
LINE
  8
0
 10
-8.75565
 20
-14.5718
 11
-8.5
 21
-14.7224
  0
LINE
  8
0
 10
-8.5
 20
-14.7224
 11
-8.24176
 21
-14.8685
  0
LINE
  8
0
 10
-8.24176
 20
-14.8685
 11
-7.981
 21
-15.0101
  0
LINE
  8
0
 10
-7.981
 20
-15.0101
 11
-7.71783
 21
-15.1471
  0
LINE
  8
0
 10
-7.71783
 20
-15.1471
 11
-7.4523
 21
-15.2795
  0
LINE
  8
0
 10
-7.4523
 20
-15.2795
 11
-7.18451
 21
-15.4072
  0
LINE
  8
0
 10
-7.18451
 20
-15.4072
 11
-6.91452
 21
-15.5303
  0
LINE
  8
0
 10
-6.91452
 20
-15.5303
 11
-6.64243
 21
-15.6486
  0
LINE
  8
0
 10
-6.64243
 20
-15.6486
 11
-6.3683
 21
-15.7621
  0
LINE
  8
0
 10
-6.3683
 20
-15.7621
 11
-6.09225
 21
-15.8709
  0
LINE
  8
0
 10
-6.09225
 20
-15.8709
 11
-5.81433
 21
-15.9748
  0
LINE
  8
0
 10
-5.81433
 20
-15.9748
 11
-5.53465
 21
-16.0738
  0
LINE
  8
0
 10
-5.53465
 20
-16.0738
 11
-5.25328
 21
-16.168
  0
LINE
  8
0
 10
-5.25328
 20
-16.168
 11
-4.97031
 21
-16.2572
  0
LINE
  8
0
 10
-4.97031
 20
-16.2572
 11
-4.68582
 21
-16.3414
  0
LINE
  8
0
 10
-4.68582
 20
-16.3414
 11
-4.39992
 21
-16.4207
  0
LINE
  8
0
 10
-4.39992
 20
-16.4207
 11
-4.11267
 21
-16.495
  0
LINE
  8
0
 10
-4.11267
 20
-16.495
 11
-3.82416
 21
-16.5643
  0
LINE
  8
0
 10
-3.82416
 20
-16.5643
 11
-3.53448
 21
-16.6285
  0
LINE
  8
0
 10
-3.53448
 20
-16.6285
 11
-3.24374
 21
-16.6877
  0
LINE
  8
0
 10
-3.24374
 20
-16.6877
 11
-2.95201
 21
-16.7417
  0
LINE
  8
0
 10
-2.95201
 20
-16.7417
 11
-2.65938
 21
-16.7907
  0
LINE
  8
0
 10
-2.65938
 20
-16.7907
 11
-2.36594
 21
-16.8345
  0
LINE
  8
0
 10
-2.36594
 20
-16.8345
 11
-2.07178
 21
-16.8733
  0
LINE
  8
0
 10
-2.07178
 20
-16.8733
 11
-1.77698
 21
-16.9069
  0
LINE
  8
0
 10
-1.77698
 20
-16.9069
 11
-1.48164
 21
-16.9353
  0
LINE
  8
0
 10
-1.48164
 20
-16.9353
 11
-1.18585
 21
-16.9586
  0
LINE
  8
0
 10
-1.18585
 20
-16.9586
 11
-0.889709
 21
-16.9767
  0
LINE
  8
0
 10
-0.889709
 20
-16.9767
 11
-0.593277
 21
-16.9896
  0
LINE
  8
0
 10
-0.593277
 20
-16.9896
 11
-0.296677
 21
-16.9974
  0
LINE
  8
0
 10
-0.296677
 20
-16.9974
 11
0
 21
-17
  0
LINE
  8
0
 10
0
 20
-17
 11
0.296677
 21
-16.9974
  0
LINE
  8
0
 10
40.2967
 20
-16.9974
 11
40.5933
 21
-16.9896
  0
LINE
  8
0
 10
40.5933
 20
-16.9896
 11
40.8897
 21
-16.9767
  0
LINE
  8
0
 10
40.8897
 20
-16.9767
 11
41.1859
 21
-16.9586
  0
LINE
  8
0
 10
41.1859
 20
-16.9586
 11
41.4816
 21
-16.9353
  0
LINE
  8
0
 10
41.4816
 20
-16.9353
 11
41.777
 21
-16.9069
  0
LINE
  8
0
 10
41.777
 20
-16.9069
 11
42.0718
 21
-16.8733
  0
LINE
  8
0
 10
42.0718
 20
-16.8733
 11
42.3659
 21
-16.8345
  0
LINE
  8
0
 10
42.3659
 20
-16.8345
 11
42.6594
 21
-16.7907
  0
LINE
  8
0
 10
42.6594
 20
-16.7907
 11
42.952
 21
-16.7417
  0
LINE
  8
0
 10
42.952
 20
-16.7417
 11
43.2437
 21
-16.6877
  0
LINE
  8
0
 10
43.2437
 20
-16.6877
 11
43.5345
 21
-16.6285
  0
LINE
  8
0
 10
43.5345
 20
-16.6285
 11
43.8242
 21
-16.5643
  0
LINE
  8
0
 10
43.8242
 20
-16.5643
 11
44.1127
 21
-16.495
  0
LINE
  8
0
 10
44.1127
 20
-16.495
 11
44.3999
 21
-16.4207
  0
LINE
  8
0
 10
44.3999
 20
-16.4207
 11
44.6858
 21
-16.3414
  0
LINE
  8
0
 10
44.6858
 20
-16.3414
 11
44.9703
 21
-16.2572
  0
LINE
  8
0
 10
44.9703
 20
-16.2572
 11
45.2533
 21
-16.168
  0
LINE
  8
0
 10
45.2533
 20
-16.168
 11
45.5347
 21
-16.0738
  0
LINE
  8
0
 10
45.5347
 20
-16.0738
 11
45.8143
 21
-15.9748
  0
LINE
  8
0
 10
45.8143
 20
-15.9748
 11
46.0923
 21
-15.8709
  0
LINE
  8
0
 10
46.0923
 20
-15.8709
 11
46.3683
 21
-15.7621
  0
LINE
  8
0
 10
46.3683
 20
-15.7621
 11
46.6424
 21
-15.6486
  0
LINE
  8
0
 10
46.6424
 20
-15.6486
 11
46.9145
 21
-15.5303
  0
LINE
  8
0
 10
46.9145
 20
-15.5303
 11
47.1845
 21
-15.4072
  0
LINE
  8
0
 10
47.1845
 20
-15.4072
 11
47.4523
 21
-15.2795
  0
LINE
  8
0
 10
47.4523
 20
-15.2795
 11
47.7178
 21
-15.1471
  0
LINE
  8
0
 10
47.7178
 20
-15.1471
 11
47.981
 21
-15.0101
  0
LINE
  8
0
 10
47.981
 20
-15.0101
 11
48.2418
 21
-14.8685
  0
LINE
  8
0
 10
48.2418
 20
-14.8685
 11
48.5
 21
-14.7224
  0
LINE
  8
0
 10
48.5
 20
-14.7224
 11
48.7556
 21
-14.5718
  0
LINE
  8
0
 10
48.7556
 20
-14.5718
 11
49.0086
 21
-14.4168
  0
LINE
  8
0
 10
49.0086
 20
-14.4168
 11
49.2589
 21
-14.2574
  0
LINE
  8
0
 10
49.2589
 20
-14.2574
 11
49.5063
 21
-14.0936
  0
LINE
  8
0
 10
49.5063
 20
-14.0936
 11
49.7508
 21
-13.9256
  0
LINE
  8
0
 10
49.7508
 20
-13.9256
 11
49.9923
 21
-13.7533
  0
LINE
  8
0
 10
49.9923
 20
-13.7533
 11
50.2309
 21
-13.5768
  0
LINE
  8
0
 10
50.2309
 20
-13.5768
 11
50.4662
 21
-13.3962
  0
LINE
  8
0
 10
50.4662
 20
-13.3962
 11
50.6984
 21
-13.2115
  0
LINE
  8
0
 10
50.6984
 20
-13.2115
 11
50.9274
 21
-13.0228
  0
LINE
  8
0
 10
50.9274
 20
-13.0228
 11
51.153
 21
-12.83
  0
LINE
  8
0
 10
51.153
 20
-12.83
 11
51.3752
 21
-12.6335
  0
LINE
  8
0
 10
51.3752
 20
-12.6335
 11
51.594
 21
-12.433
  0
LINE
  8
0
 10
51.594
 20
-12.433
 11
51.8092
 21
-12.2288
  0
LINE
  8
0
 10
51.8092
 20
-12.2288
 11
52.0208
 21
-12.0208
  0
LINE
  8
0
 10
52.0208
 20
-12.0208
 11
52.2288
 21
-11.8092
  0
LINE
  8
0
 10
52.2288
 20
-11.8092
 11
52.433
 21
-11.594
  0
LINE
  8
0
 10
52.433
 20
-11.594
 11
52.6335
 21
-11.3752
  0
LINE
  8
0
 10
52.6335
 20
-11.3752
 11
52.83
 21
-11.153
  0
LINE
  8
0
 10
52.83
 20
-11.153
 11
53.0228
 21
-10.9274
  0
LINE
  8
0
 10
53.0228
 20
-10.9274
 11
53.2115
 21
-10.6984
  0
LINE
  8
0
 10
53.2115
 20
-10.6984
 11
53.3962
 21
-10.4662
  0
LINE
  8
0
 10
53.3962
 20
-10.4662
 11
53.5768
 21
-10.2309
  0
LINE
  8
0
 10
53.5768
 20
-10.2309
 11
53.7533
 21
-9.99234
  0
LINE
  8
0
 10
53.7533
 20
-9.99234
 11
53.9256
 21
-9.75079
  0
LINE
  8
0
 10
53.9256
 20
-9.75079
 11
54.0936
 21
-9.50627
  0
LINE
  8
0
 10
54.0936
 20
-9.50627
 11
54.2574
 21
-9.25885
  0
LINE
  8
0
 10
54.2574
 20
-9.25885
 11
54.4168
 21
-9.00862
  0
LINE
  8
0
 10
54.4168
 20
-9.00862
 11
54.5718
 21
-8.75565
  0
LINE
  8
0
 10
54.5718
 20
-8.75565
 11
54.7224
 21
-8.5
  0
LINE
  8
0
 10
54.7224
 20
-8.5
 11
54.8685
 21
-8.24176
  0
LINE
  8
0
 10
54.8685
 20
-8.24176
 11
55.0101
 21
-7.981
  0
LINE
  8
0
 10
55.0101
 20
-7.981
 11
55.1471
 21
-7.71783
  0
LINE
  8
0
 10
55.1471
 20
-7.71783
 11
55.2795
 21
-7.4523
  0
LINE
  8
0
 10
55.2795
 20
-7.4523
 11
55.4072
 21
-7.18451
  0
LINE
  8
0
 10
55.4072
 20
-7.18451
 11
55.5303
 21
-6.91452
  0
LINE
  8
0
 10
55.5303
 20
-6.91452
 11
55.6486
 21
-6.64243
  0
LINE
  8
0
 10
55.6486
 20
-6.64243
 11
55.7621
 21
-6.3683
  0
LINE
  8
0
 10
55.7621
 20
-6.3683
 11
55.8709
 21
-6.09225
  0
LINE
  8
0
 10
55.8709
 20
-6.09225
 11
55.9748
 21
-5.81433
  0
LINE
  8
0
 10
55.9748
 20
-5.81433
 11
56.0738
 21
-5.53465
  0
LINE
  8
0
 10
56.0738
 20
-5.53465
 11
56.168
 21
-5.25328
  0
LINE
  8
0
 10
56.168
 20
-5.25328
 11
56.2572
 21
-4.97031
  0
LINE
  8
0
 10
56.2572
 20
-4.97031
 11
56.3414
 21
-4.68582
  0
LINE
  8
0
 10
56.3414
 20
-4.68582
 11
56.4207
 21
-4.39992
  0
LINE
  8
0
 10
56.4207
 20
-4.39992
 11
56.495
 21
-4.11267
  0
LINE
  8
0
 10
56.495
 20
-4.11267
 11
56.5643
 21
-3.82416
  0
LINE
  8
0
 10
56.5643
 20
-3.82416
 11
56.6285
 21
-3.53448
  0
LINE
  8
0
 10
56.6285
 20
-3.53448
 11
56.6877
 21
-3.24374
  0
LINE
  8
0
 10
56.6877
 20
-3.24374
 11
56.7417
 21
-2.95201
  0
LINE
  8
0
 10
56.7417
 20
-2.95201
 11
56.7907
 21
-2.65938
  0
LINE
  8
0
 10
56.7907
 20
-2.65938
 11
56.8345
 21
-2.36594
  0
LINE
  8
0
 10
56.8345
 20
-2.36594
 11
56.8733
 21
-2.07178
  0
LINE
  8
0
 10
56.8733
 20
-2.07178
 11
56.9069
 21
-1.77698
  0
LINE
  8
0
 10
56.9069
 20
-1.77698
 11
56.9353
 21
-1.48164
  0
LINE
  8
0
 10
56.9353
 20
-1.48164
 11
56.9586
 21
-1.18585
  0
LINE
  8
0
 10
56.9586
 20
-1.18585
 11
56.9767
 21
-0.889709
  0
LINE
  8
0
 10
56.9767
 20
-0.889709
 11
56.9896
 21
-0.593277
  0
LINE
  8
0
 10
56.9896
 20
-0.593277
 11
56.9974
 21
-0.296677
  0
LINE
  8
0
 10
56.9974
 20
-0.296677
 11
57
 21
0
  0
LINE
  8
0
 10
57
 20
0
 11
56.9974
 21
0.296677
  0
LINE
  8
0
 10
56.9974
 20
0.296677
 11
56.9896
 21
0.593277
  0
LINE
  8
0
 10
56.9896
 20
0.593277
 11
56.9767
 21
0.889709
  0
LINE
  8
0
 10
56.9767
 20
0.889709
 11
56.9586
 21
1.18585
  0
LINE
  8
0
 10
56.9586
 20
1.18585
 11
56.9353
 21
1.48164
  0
LINE
  8
0
 10
56.9353
 20
1.48164
 11
56.9069
 21
1.77698
  0
LINE
  8
0
 10
56.9069
 20
1.77698
 11
56.8733
 21
2.07178
  0
LINE
  8
0
 10
56.8733
 20
2.07178
 11
56.8345
 21
2.36594
  0
LINE
  8
0
 10
56.8345
 20
2.36594
 11
56.7907
 21
2.65938
  0
LINE
  8
0
 10
56.7907
 20
2.65938
 11
56.7417
 21
2.95201
  0
LINE
  8
0
 10
56.7417
 20
2.95201
 11
56.6877
 21
3.24374
  0
LINE
  8
0
 10
56.6877
 20
3.24374
 11
56.6285
 21
3.53448
  0
LINE
  8
0
 10
56.6285
 20
3.53448
 11
56.5643
 21
3.82416
  0
LINE
  8
0
 10
56.5643
 20
3.82416
 11
56.495
 21
4.11267
  0
LINE
  8
0
 10
56.495
 20
4.11267
 11
56.4207
 21
4.39992
  0
LINE
  8
0
 10
56.4207
 20
4.39992
 11
56.3414
 21
4.68582
  0
LINE
  8
0
 10
56.3414
 20
4.68582
 11
56.2572
 21
4.97031
  0
LINE
  8
0
 10
56.2572
 20
4.97031
 11
56.168
 21
5.25328
  0
LINE
  8
0
 10
56.168
 20
5.25328
 11
56.0738
 21
5.53465
  0
LINE
  8
0
 10
56.0738
 20
5.53465
 11
55.9748
 21
5.81433
  0
LINE
  8
0
 10
55.9748
 20
5.81433
 11
55.8709
 21
6.09225
  0
LINE
  8
0
 10
55.8709
 20
6.09225
 11
55.7621
 21
6.3683
  0
LINE
  8
0
 10
55.7621
 20
6.3683
 11
55.6486
 21
6.64243
  0
LINE
  8
0
 10
55.6486
 20
6.64243
 11
55.5303
 21
6.91452
  0
LINE
  8
0
 10
55.5303
 20
6.91452
 11
55.4072
 21
7.18451
  0
LINE
  8
0
 10
55.4072
 20
7.18451
 11
55.2795
 21
7.4523
  0
LINE
  8
0
 10
55.2795
 20
7.4523
 11
55.1471
 21
7.71783
  0
LINE
  8
0
 10
55.1471
 20
7.71783
 11
55.0101
 21
7.981
  0
LINE
  8
0
 10
55.0101
 20
7.981
 11
54.8685
 21
8.24176
  0
LINE
  8
0
 10
54.8685
 20
8.24176
 11
54.7224
 21
8.5
  0
LINE
  8
0
 10
54.7224
 20
8.5
 11
54.5718
 21
8.75565
  0
LINE
  8
0
 10
54.5718
 20
8.75565
 11
54.4168
 21
9.00862
  0
LINE
  8
0
 10
54.4168
 20
9.00862
 11
54.2574
 21
9.25885
  0
LINE
  8
0
 10
54.2574
 20
9.25885
 11
54.0936
 21
9.50627
  0
LINE
  8
0
 10
54.0936
 20
9.50627
 11
53.9256
 21
9.75079
  0
LINE
  8
0
 10
53.9256
 20
9.75079
 11
53.7533
 21
9.99234
  0
LINE
  8
0
 10
53.7533
 20
9.99234
 11
53.5768
 21
10.2309
  0
LINE
  8
0
 10
53.5768
 20
10.2309
 11
53.3962
 21
10.4662
  0
LINE
  8
0
 10
53.3962
 20
10.4662
 11
53.2115
 21
10.6984
  0
LINE
  8
0
 10
53.2115
 20
10.6984
 11
53.0228
 21
10.9274
  0
LINE
  8
0
 10
53.0228
 20
10.9274
 11
52.83
 21
11.153
  0
LINE
  8
0
 10
52.83
 20
11.153
 11
52.6335
 21
11.3752
  0
LINE
  8
0
 10
52.6335
 20
11.3752
 11
52.433
 21
11.594
  0
LINE
  8
0
 10
52.433
 20
11.594
 11
52.2288
 21
11.8092
  0
LINE
  8
0
 10
52.2288
 20
11.8092
 11
52.0208
 21
12.0208
  0
LINE
  8
0
 10
52.0208
 20
12.0208
 11
51.8092
 21
12.2288
  0
LINE
  8
0
 10
51.8092
 20
12.2288
 11
51.594
 21
12.433
  0
LINE
  8
0
 10
51.594
 20
12.433
 11
51.3752
 21
12.6335
  0
LINE
  8
0
 10
51.3752
 20
12.6335
 11
51.153
 21
12.83
  0
LINE
  8
0
 10
51.153
 20
12.83
 11
50.9274
 21
13.0228
  0
LINE
  8
0
 10
50.9274
 20
13.0228
 11
50.6984
 21
13.2115
  0
LINE
  8
0
 10
50.6984
 20
13.2115
 11
50.4662
 21
13.3962
  0
LINE
  8
0
 10
50.4662
 20
13.3962
 11
50.2309
 21
13.5768
  0
LINE
  8
0
 10
50.2309
 20
13.5768
 11
49.9923
 21
13.7533
  0
LINE
  8
0
 10
49.9923
 20
13.7533
 11
49.7508
 21
13.9256
  0
LINE
  8
0
 10
49.7508
 20
13.9256
 11
49.5063
 21
14.0936
  0
LINE
  8
0
 10
49.5063
 20
14.0936
 11
49.2589
 21
14.2574
  0
LINE
  8
0
 10
49.2589
 20
14.2574
 11
49.0086
 21
14.4168
  0
LINE
  8
0
 10
49.0086
 20
14.4168
 11
48.7556
 21
14.5718
  0
LINE
  8
0
 10
48.7556
 20
14.5718
 11
48.5
 21
14.7224
  0
LINE
  8
0
 10
48.5
 20
14.7224
 11
48.2418
 21
14.8685
  0
LINE
  8
0
 10
48.2418
 20
14.8685
 11
47.981
 21
15.0101
  0
LINE
  8
0
 10
47.981
 20
15.0101
 11
47.7178
 21
15.1471
  0
LINE
  8
0
 10
47.7178
 20
15.1471
 11
47.4523
 21
15.2795
  0
LINE
  8
0
 10
47.4523
 20
15.2795
 11
47.1845
 21
15.4072
  0
LINE
  8
0
 10
47.1845
 20
15.4072
 11
46.9145
 21
15.5303
  0
LINE
  8
0
 10
46.9145
 20
15.5303
 11
46.6424
 21
15.6486
  0
LINE
  8
0
 10
46.6424
 20
15.6486
 11
46.3683
 21
15.7621
  0
LINE
  8
0
 10
46.3683
 20
15.7621
 11
46.0923
 21
15.8709
  0
LINE
  8
0
 10
46.0923
 20
15.8709
 11
45.8143
 21
15.9748
  0
LINE
  8
0
 10
45.8143
 20
15.9748
 11
45.5347
 21
16.0738
  0
LINE
  8
0
 10
45.5347
 20
16.0738
 11
45.2533
 21
16.168
  0
LINE
  8
0
 10
45.2533
 20
16.168
 11
44.9703
 21
16.2572
  0
LINE
  8
0
 10
44.9703
 20
16.2572
 11
44.6858
 21
16.3414
  0
LINE
  8
0
 10
44.6858
 20
16.3414
 11
44.3999
 21
16.4207
  0
LINE
  8
0
 10
44.3999
 20
16.4207
 11
44.1127
 21
16.495
  0
LINE
  8
0
 10
44.1127
 20
16.495
 11
43.8242
 21
16.5643
  0
LINE
  8
0
 10
43.8242
 20
16.5643
 11
43.5345
 21
16.6285
  0
LINE
  8
0
 10
43.5345
 20
16.6285
 11
43.2437
 21
16.6877
  0
LINE
  8
0
 10
43.2437
 20
16.6877
 11
42.952
 21
16.7417
  0
LINE
  8
0
 10
42.952
 20
16.7417
 11
42.6594
 21
16.7907
  0
LINE
  8
0
 10
42.6594
 20
16.7907
 11
42.3659
 21
16.8345
  0
LINE
  8
0
 10
42.3659
 20
16.8345
 11
42.0718
 21
16.8733
  0
LINE
  8
0
 10
42.0718
 20
16.8733
 11
41.777
 21
16.9069
  0
LINE
  8
0
 10
41.777
 20
16.9069
 11
41.4816
 21
16.9353
  0
LINE
  8
0
 10
41.4816
 20
16.9353
 11
41.1859
 21
16.9586
  0
LINE
  8
0
 10
41.1859
 20
16.9586
 11
40.8897
 21
16.9767
  0
LINE
  8
0
 10
40.8897
 20
16.9767
 11
40.5933
 21
16.9896
  0
LINE
  8
0
 10
40.5933
 20
16.9896
 11
40.2967
 21
16.9974
  0
LINE
  8
0
 10
40.2967
 20
16.9974
 11
40
 21
17
  0
LINE
  8
0
 10
40
 20
17
 11
39.7033
 21
16.9974
  0
LINE
  8
0
 10
39.7033
 20
16.9974
 11
39.4067
 21
16.9896
  0
LINE
  8
0
 10
39.4067
 20
16.9896
 11
39.1103
 21
16.9767
  0
LINE
  8
0
 10
39.1103
 20
16.9767
 11
38.8141
 21
16.9586
  0
LINE
  8
0
 10
38.8141
 20
16.9586
 11
38.5184
 21
16.9353
  0
LINE
  8
0
 10
38.5184
 20
16.9353
 11
38.223
 21
16.9069
  0
LINE
  8
0
 10
38.223
 20
16.9069
 11
37.9282
 21
16.8733
  0
LINE
  8
0
 10
37.9282
 20
16.8733
 11
37.6341
 21
16.8345
  0
LINE
  8
0
 10
37.6341
 20
16.8345
 11
37.3406
 21
16.7907
  0
LINE
  8
0
 10
37.3406
 20
16.7907
 11
37.048
 21
16.7417
  0
LINE
  8
0
 10
37.048
 20
16.7417
 11
36.7563
 21
16.6877
  0
LINE
  8
0
 10
36.7563
 20
16.6877
 11
36.4655
 21
16.6285
  0
LINE
  8
0
 10
36.4655
 20
16.6285
 11
36.1758
 21
16.5643
  0
LINE
  8
0
 10
36.1758
 20
16.5643
 11
35.8873
 21
16.495
  0
LINE
  8
0
 10
35.8873
 20
16.495
 11
35.6001
 21
16.4207
  0
LINE
  8
0
 10
35.6001
 20
16.4207
 11
35.3142
 21
16.3414
  0
LINE
  8
0
 10
35.3142
 20
16.3414
 11
35.0297
 21
16.2572
  0
LINE
  8
0
 10
35.0297
 20
16.2572
 11
34.7467
 21
16.168
  0
LINE
  8
0
 10
34.7467
 20
16.168
 11
34.4653
 21
16.0738
  0
LINE
  8
0
 10
34.4653
 20
16.0738
 11
34.1857
 21
15.9748
  0
LINE
  8
0
 10
34.1857
 20
15.9748
 11
33.9077
 21
15.8709
  0
LINE
  8
0
 10
33.9077
 20
15.8709
 11
33.6317
 21
15.7621
  0
LINE
  8
0
 10
33.6317
 20
15.7621
 11
33.3576
 21
15.6486
  0
LINE
  8
0
 10
33.3576
 20
15.6486
 11
33.0855
 21
15.5303
  0
LINE
  8
0
 10
33.0855
 20
15.5303
 11
32.8155
 21
15.4072
  0
LINE
  8
0
 10
32.8155
 20
15.4072
 11
32.5477
 21
15.2795
  0
LINE
  8
0
 10
32.5477
 20
15.2795
 11
32.2822
 21
15.1471
  0
LINE
  8
0
 10
32.2822
 20
15.1471
 11
32.019
 21
15.0101
  0
LINE
  8
0
 10
32.019
 20
15.0101
 11
31.7582
 21
14.8685
  0
LINE
  8
0
 10
31.7582
 20
14.8685
 11
31.5
 21
14.7224
  0
LINE
  8
0
 10
31.5
 20
14.7224
 11
31.2444
 21
14.5718
  0
LINE
  8
0
 10
31.2444
 20
14.5718
 11
30.9914
 21
14.4168
  0
LINE
  8
0
 10
30.9914
 20
14.4168
 11
30.7411
 21
14.2574
  0
LINE
  8
0
 10
30.7411
 20
14.2574
 11
30.4937
 21
14.0936
  0
LINE
  8
0
 10
30.4937
 20
14.0936
 11
30.2492
 21
13.9256
  0
LINE
  8
0
 10
30.2492
 20
13.9256
 11
30.0077
 21
13.7533
  0
LINE
  8
0
 10
30.0077
 20
13.7533
 11
29.7691
 21
13.5768
  0
LINE
  8
0
 10
29.7691
 20
13.5768
 11
29.5338
 21
13.3962
  0
LINE
  8
0
 10
29.5338
 20
13.3962
 11
29.3016
 21
13.2115
  0
LINE
  8
0
 10
29.3016
 20
13.2115
 11
29.0726
 21
13.0228
  0
LINE
  8
0
 10
29.0726
 20
13.0228
 11
28.847
 21
12.83
  0
LINE
  8
0
 10
28.847
 20
12.83
 11
28.6248
 21
12.6335
  0
LINE
  8
0
 10
28.6248
 20
12.6335
 11
28.406
 21
12.433
  0
LINE
  8
0
 10
28.406
 20
12.433
 11
28.1908
 21
12.2288
  0
LINE
  8
0
 10
28.1908
 20
12.2288
 11
27.9792
 21
12.0208
  0
LINE
  8
0
 10
27.9792
 20
12.0208
 11
27.7712
 21
11.8092
  0
LINE
  8
0
 10
27.7712
 20
11.8092
 11
27.567
 21
11.594
  0
LINE
  8
0
 10
27.567
 20
11.594
 11
27.3665
 21
11.3752
  0
LINE
  8
0
 10
27.3665
 20
11.3752
 11
27.17
 21
11.153
  0
LINE
  8
0
 10
27.17
 20
11.153
 11
26.9772
 21
10.9274
  0
LINE
  8
0
 10
26.9772
 20
10.9274
 11
26.7885
 21
10.6984
  0
LINE
  8
0
 10
26.7885
 20
10.6984
 11
26.6038
 21
10.4662
  0
LINE
  8
0
 10
26.6038
 20
10.4662
 11
26.4232
 21
10.2309
  0
LINE
  8
0
 10
26.4232
 20
10.2309
 11
26.2467
 21
9.99234
  0
LINE
  8
0
 10
26.2467
 20
9.99234
 11
26.0744
 21
9.75079
  0
LINE
  8
0
 10
26.0744
 20
9.75079
 11
25.9064
 21
9.50627
  0
LINE
  8
0
 10
25.9064
 20
9.50627
 11
25.7426
 21
9.25885
  0
LINE
  8
0
 10
25.7426
 20
9.25885
 11
25.5832
 21
9.00862
  0
LINE
  8
0
 10
25.5832
 20
9.00862
 11
25.4282
 21
8.75565
  0
LINE
  8
0
 10
25.4282
 20
8.75565
 11
25.2776
 21
8.5
  0
LINE
  8
0
 10
25.2776
 20
8.5
 11
25.1315
 21
8.24176
  0
LINE
  8
0
 10
25.1315
 20
8.24176
 11
24.9899
 21
7.981
  0
LINE
  8
0
 10
24.9899
 20
7.981
 11
24.8529
 21
7.71783
  0
LINE
  8
0
 10
24.8529
 20
7.71783
 11
24.7205
 21
7.4523
  0
LINE
  8
0
 10
24.7205
 20
7.4523
 11
24.5928
 21
7.18451
  0
LINE
  8
0
 10
24.5928
 20
7.18451
 11
24.4697
 21
6.91452
  0
LINE
  8
0
 10
24.4697
 20
6.91452
 11
24.3514
 21
6.64243
  0
LINE
  8
0
 10
24.3514
 20
6.64243
 11
24.2379
 21
6.3683
  0
LINE
  8
0
 10
24.2379
 20
6.3683
 11
24.1291
 21
6.09225
  0
LINE
  8
0
 10
24.1291
 20
6.09225
 11
24.0252
 21
5.81433
  0
LINE
  8
0
 10
24.0252
 20
5.81433
 11
23.9262
 21
5.53465
  0
LINE
  8
0
 10
23.9262
 20
5.53465
 11
23.832
 21
5.25328
  0
LINE
  8
0
 10
23.832
 20
5.25328
 11
23.7428
 21
4.97031
  0
LINE
  8
0
 10
23.7428
 20
4.97031
 11
23.6586
 21
4.68582
  0
LINE
  8
0
 10
23.6586
 20
4.68582
 11
23.5793
 21
4.39992
  0
LINE
  8
0
 10
23.5793
 20
4.39992
 11
23.505
 21
4.11267
  0
LINE
  8
0
 10
23.505
 20
4.11267
 11
23.4357
 21
3.82416
  0
LINE
  8
0
 10
23.4357
 20
3.82416
 11
23.3715
 21
3.53448
  0
LINE
  8
0
 10
23.3715
 20
3.53448
 11
23.3123
 21
3.24374
  0
LINE
  8
0
 10
23.3123
 20
3.24374
 11
23.2583
 21
2.95201
  0
LINE
  8
0
 10
23.2583
 20
2.95201
 11
23.2093
 21
2.65938
  0
LINE
  8
0
 10
23.2093
 20
2.65938
 11
23.1655
 21
2.36594
  0
LINE
  8
0
 10
23.1655
 20
2.36594
 11
23.1267
 21
2.07178
  0
LINE
  8
0
 10
23.1267
 20
2.07178
 11
23.0931
 21
1.77698
  0
LINE
  8
0
 10
23.0931
 20
1.77698
 11
23.0647
 21
1.48164
  0
LINE
  8
0
 10
23.0647
 20
1.48164
 11
23.0414
 21
1.18585
  0
LINE
  8
0
 10
23.0414
 20
1.18585
 11
23.0233
 21
0.889709
  0
LINE
  8
0
 10
23.0233
 20
0.889709
 11
23.0104
 21
0.593277
  0
LINE
  8
0
 10
23.0104
 20
0.593277
 11
23.0026
 21
0.296677
  0
LINE
  8
0
 10
23.0026
 20
0.296677
 11
23
 21
0
  0
LINE
  8
0
 10
23
 20
0
 11
23.0026
 21
-0.296677
  0
LINE
  8
0
 10
23.0026
 20
-0.296677
 11
23.0104
 21
-0.593277
  0
LINE
  8
0
 10
23.0104
 20
-0.593277
 11
23.0233
 21
-0.889709
  0
LINE
  8
0
 10
23.0233
 20
-0.889709
 11
23.0414
 21
-1.18585
  0
LINE
  8
0
 10
23.0414
 20
-1.18585
 11
23.0647
 21
-1.48164
  0
LINE
  8
0
 10
23.0647
 20
-1.48164
 11
23.0931
 21
-1.77698
  0
LINE
  8
0
 10
23.0931
 20
-1.77698
 11
23.1267
 21
-2.07178
  0
LINE
  8
0
 10
23.1267
 20
-2.07178
 11
23.1655
 21
-2.36594
  0
LINE
  8
0
 10
23.1655
 20
-2.36594
 11
23.2093
 21
-2.65938
  0
LINE
  8
0
 10
23.2093
 20
-2.65938
 11
23.2583
 21
-2.95201
  0
LINE
  8
0
 10
23.2583
 20
-2.95201
 11
23.3123
 21
-3.24374
  0
LINE
  8
0
 10
23.3123
 20
-3.24374
 11
23.3715
 21
-3.53448
  0
LINE
  8
0
 10
23.3715
 20
-3.53448
 11
23.4357
 21
-3.82416
  0
LINE
  8
0
 10
23.4357
 20
-3.82416
 11
23.505
 21
-4.11267
  0
LINE
  8
0
 10
23.505
 20
-4.11267
 11
23.5793
 21
-4.39992
  0
LINE
  8
0
 10
23.5793
 20
-4.39992
 11
23.6586
 21
-4.68582
  0
LINE
  8
0
 10
23.6586
 20
-4.68582
 11
23.7428
 21
-4.97031
  0
LINE
  8
0
 10
23.7428
 20
-4.97031
 11
23.832
 21
-5.25328
  0
LINE
  8
0
 10
23.832
 20
-5.25328
 11
23.9262
 21
-5.53465
  0
LINE
  8
0
 10
23.9262
 20
-5.53465
 11
24.0252
 21
-5.81433
  0
LINE
  8
0
 10
24.0252
 20
-5.81433
 11
24.1291
 21
-6.09225
  0
LINE
  8
0
 10
24.1291
 20
-6.09225
 11
24.2379
 21
-6.3683
  0
LINE
  8
0
 10
24.2379
 20
-6.3683
 11
24.3514
 21
-6.64243
  0
LINE
  8
0
 10
24.3514
 20
-6.64243
 11
24.4697
 21
-6.91452
  0
LINE
  8
0
 10
24.4697
 20
-6.91452
 11
24.5928
 21
-7.18451
  0
LINE
  8
0
 10
24.5928
 20
-7.18451
 11
24.7205
 21
-7.4523
  0
LINE
  8
0
 10
24.7205
 20
-7.4523
 11
24.8529
 21
-7.71783
  0
LINE
  8
0
 10
24.8529
 20
-7.71783
 11
24.9899
 21
-7.981
  0
LINE
  8
0
 10
24.9899
 20
-7.981
 11
25.1315
 21
-8.24176
  0
LINE
  8
0
 10
25.1315
 20
-8.24176
 11
25.2776
 21
-8.5
  0
LINE
  8
0
 10
25.2776
 20
-8.5
 11
25.4282
 21
-8.75565
  0
LINE
  8
0
 10
25.4282
 20
-8.75565
 11
25.5832
 21
-9.00862
  0
LINE
  8
0
 10
25.5832
 20
-9.00862
 11
25.7426
 21
-9.25885
  0
LINE
  8
0
 10
25.7426
 20
-9.25885
 11
25.9064
 21
-9.50627
  0
LINE
  8
0
 10
25.9064
 20
-9.50627
 11
26.0744
 21
-9.75079
  0
LINE
  8
0
 10
26.0744
 20
-9.75079
 11
26.2467
 21
-9.99234
  0
LINE
  8
0
 10
26.2467
 20
-9.99234
 11
26.4232
 21
-10.2309
  0
LINE
  8
0
 10
26.4232
 20
-10.2309
 11
26.6038
 21
-10.4662
  0
LINE
  8
0
 10
26.6038
 20
-10.4662
 11
26.7885
 21
-10.6984
  0
LINE
  8
0
 10
26.7885
 20
-10.6984
 11
26.9772
 21
-10.9274
  0
LINE
  8
0
 10
26.9772
 20
-10.9274
 11
27.17
 21
-11.153
  0
LINE
  8
0
 10
27.17
 20
-11.153
 11
27.3665
 21
-11.3752
  0
LINE
  8
0
 10
27.3665
 20
-11.3752
 11
27.567
 21
-11.594
  0
LINE
  8
0
 10
27.567
 20
-11.594
 11
27.7712
 21
-11.8092
  0
LINE
  8
0
 10
27.7712
 20
-11.8092
 11
27.9792
 21
-12.0208
  0
LINE
  8
0
 10
27.9792
 20
-12.0208
 11
28.1908
 21
-12.2288
  0
LINE
  8
0
 10
28.1908
 20
-12.2288
 11
28.406
 21
-12.433
  0
LINE
  8
0
 10
28.406
 20
-12.433
 11
28.6248
 21
-12.6335
  0
LINE
  8
0
 10
28.6248
 20
-12.6335
 11
28.847
 21
-12.83
  0
LINE
  8
0
 10
28.847
 20
-12.83
 11
29.0726
 21
-13.0228
  0
LINE
  8
0
 10
29.0726
 20
-13.0228
 11
29.3016
 21
-13.2115
  0
LINE
  8
0
 10
29.3016
 20
-13.2115
 11
29.5338
 21
-13.3962
  0
LINE
  8
0
 10
29.5338
 20
-13.3962
 11
29.7691
 21
-13.5768
  0
LINE
  8
0
 10
29.7691
 20
-13.5768
 11
30.0077
 21
-13.7533
  0
LINE
  8
0
 10
30.0077
 20
-13.7533
 11
30.2492
 21
-13.9256
  0
LINE
  8
0
 10
30.2492
 20
-13.9256
 11
30.4937
 21
-14.0936
  0
LINE
  8
0
 10
30.4937
 20
-14.0936
 11
30.7411
 21
-14.2574
  0
LINE
  8
0
 10
30.7411
 20
-14.2574
 11
30.9914
 21
-14.4168
  0
LINE
  8
0
 10
30.9914
 20
-14.4168
 11
31.2444
 21
-14.5718
  0
LINE
  8
0
 10
31.2444
 20
-14.5718
 11
31.5
 21
-14.7224
  0
LINE
  8
0
 10
31.5
 20
-14.7224
 11
31.7582
 21
-14.8685
  0
LINE
  8
0
 10
31.7582
 20
-14.8685
 11
32.019
 21
-15.0101
  0
LINE
  8
0
 10
32.019
 20
-15.0101
 11
32.2822
 21
-15.1471
  0
LINE
  8
0
 10
32.2822
 20
-15.1471
 11
32.5477
 21
-15.2795
  0
LINE
  8
0
 10
32.5477
 20
-15.2795
 11
32.8155
 21
-15.4072
  0
LINE
  8
0
 10
32.8155
 20
-15.4072
 11
33.0855
 21
-15.5303
  0
LINE
  8
0
 10
33.0855
 20
-15.5303
 11
33.3576
 21
-15.6486
  0
LINE
  8
0
 10
33.3576
 20
-15.6486
 11
33.6317
 21
-15.7621
  0
LINE
  8
0
 10
33.6317
 20
-15.7621
 11
33.9077
 21
-15.8709
  0
LINE
  8
0
 10
33.9077
 20
-15.8709
 11
34.1857
 21
-15.9748
  0
LINE
  8
0
 10
34.1857
 20
-15.9748
 11
34.4653
 21
-16.0738
  0
LINE
  8
0
 10
34.4653
 20
-16.0738
 11
34.7467
 21
-16.168
  0
LINE
  8
0
 10
34.7467
 20
-16.168
 11
35.0297
 21
-16.2572
  0
LINE
  8
0
 10
35.0297
 20
-16.2572
 11
35.3142
 21
-16.3414
  0
LINE
  8
0
 10
35.3142
 20
-16.3414
 11
35.6001
 21
-16.4207
  0
LINE
  8
0
 10
35.6001
 20
-16.4207
 11
35.8873
 21
-16.495
  0
LINE
  8
0
 10
35.8873
 20
-16.495
 11
36.1758
 21
-16.5643
  0
LINE
  8
0
 10
36.1758
 20
-16.5643
 11
36.4655
 21
-16.6285
  0
LINE
  8
0
 10
36.4655
 20
-16.6285
 11
36.7563
 21
-16.6877
  0
LINE
  8
0
 10
36.7563
 20
-16.6877
 11
37.048
 21
-16.7417
  0
LINE
  8
0
 10
37.048
 20
-16.7417
 11
37.3406
 21
-16.7907
  0
LINE
  8
0
 10
37.3406
 20
-16.7907
 11
37.6341
 21
-16.8345
  0
LINE
  8
0
 10
37.6341
 20
-16.8345
 11
37.9282
 21
-16.8733
  0
LINE
  8
0
 10
37.9282
 20
-16.8733
 11
38.223
 21
-16.9069
  0
LINE
  8
0
 10
38.223
 20
-16.9069
 11
38.5184
 21
-16.9353
  0
LINE
  8
0
 10
38.5184
 20
-16.9353
 11
38.8141
 21
-16.9586
  0
LINE
  8
0
 10
38.8141
 20
-16.9586
 11
39.1103
 21
-16.9767
  0
LINE
  8
0
 10
39.1103
 20
-16.9767
 11
39.4067
 21
-16.9896
  0
LINE
  8
0
 10
39.4067
 20
-16.9896
 11
39.7033
 21
-16.9974
  0
LINE
  8
0
 10
39.7033
 20
-16.9974
 11
40
 21
-17
  0
LINE
  8
0
 10
40
 20
-17
 11
40.2967
 21
-16.9974
  0
LINE
  8
0
 10
39.7906
 20
-11.9982
 11
39.5812
 21
-11.9927
  0
LINE
  8
0
 10
39.5812
 20
-11.9927
 11
39.372
 21
-11.9836
  0
LINE
  8
0
 10
39.372
 20
-11.9836
 11
39.1629
 21
-11.9708
  0
LINE
  8
0
 10
39.1629
 20
-11.9708
 11
38.9541
 21
-11.9543
  0
LINE
  8
0
 10
38.9541
 20
-11.9543
 11
38.7457
 21
-11.9342
  0
LINE
  8
0
 10
38.7457
 20
-11.9342
 11
38.5376
 21
-11.9106
  0
LINE
  8
0
 10
38.5376
 20
-11.9106
 11
38.3299
 21
-11.8832
  0
LINE
  8
0
 10
38.3299
 20
-11.8832
 11
38.1228
 21
-11.8522
  0
LINE
  8
0
 10
38.1228
 20
-11.8522
 11
37.9162
 21
-11.8177
  0
LINE
  8
0
 10
37.9162
 20
-11.8177
 11
37.7103
 21
-11.7795
  0
LINE
  8
0
 10
37.7103
 20
-11.7795
 11
37.5051
 21
-11.7378
  0
LINE
  8
0
 10
37.5051
 20
-11.7378
 11
37.3006
 21
-11.6924
  0
LINE
  8
0
 10
37.3006
 20
-11.6924
 11
37.0969
 21
-11.6435
  0
LINE
  8
0
 10
37.0969
 20
-11.6435
 11
36.8942
 21
-11.5911
  0
LINE
  8
0
 10
36.8942
 20
-11.5911
 11
36.6924
 21
-11.5351
  0
LINE
  8
0
 10
36.6924
 20
-11.5351
 11
36.4915
 21
-11.4756
  0
LINE
  8
0
 10
36.4915
 20
-11.4756
 11
36.2918
 21
-11.4127
  0
LINE
  8
0
 10
36.2918
 20
-11.4127
 11
36.0932
 21
-11.3462
  0
LINE
  8
0
 10
36.0932
 20
-11.3462
 11
35.8958
 21
-11.2763
  0
LINE
  8
0
 10
35.8958
 20
-11.2763
 11
35.6996
 21
-11.203
  0
LINE
  8
0
 10
35.6996
 20
-11.203
 11
35.5047
 21
-11.1262
  0
LINE
  8
0
 10
35.5047
 20
-11.1262
 11
35.3112
 21
-11.0461
  0
LINE
  8
0
 10
35.3112
 20
-11.0461
 11
35.1192
 21
-10.9625
  0
LINE
  8
0
 10
35.1192
 20
-10.9625
 11
34.9286
 21
-10.8757
  0
LINE
  8
0
 10
34.9286
 20
-10.8757
 11
34.7395
 21
-10.7855
  0
LINE
  8
0
 10
34.7395
 20
-10.7855
 11
34.5521
 21
-10.6921
  0
LINE
  8
0
 10
34.5521
 20
-10.6921
 11
34.3663
 21
-10.5954
  0
LINE
  8
0
 10
34.3663
 20
-10.5954
 11
34.1823
 21
-10.4954
  0
LINE
  8
0
 10
34.1823
 20
-10.4954
 11
34
 21
-10.3923
  0
LINE
  8
0
 10
34
 20
-10.3923
 11
33.8195
 21
-10.286
  0
LINE
  8
0
 10
33.8195
 20
-10.286
 11
33.641
 21
-10.1766
  0
LINE
  8
0
 10
33.641
 20
-10.1766
 11
33.4643
 21
-10.064
  0
LINE
  8
0
 10
33.4643
 20
-10.064
 11
33.2897
 21
-9.94844
  0
LINE
  8
0
 10
33.2897
 20
-9.94844
 11
33.1171
 21
-9.82982
  0
LINE
  8
0
 10
33.1171
 20
-9.82982
 11
32.9466
 21
-9.70819
  0
LINE
  8
0
 10
32.9466
 20
-9.70819
 11
32.7782
 21
-9.58362
  0
LINE
  8
0
 10
32.7782
 20
-9.58362
 11
32.6121
 21
-9.45612
  0
LINE
  8
0
 10
32.6121
 20
-9.45612
 11
32.4482
 21
-9.32574
  0
LINE
  8
0
 10
32.4482
 20
-9.32574
 11
32.2866
 21
-9.19252
  0
LINE
  8
0
 10
32.2866
 20
-9.19252
 11
32.1273
 21
-9.0565
  0
LINE
  8
0
 10
32.1273
 20
-9.0565
 11
31.9704
 21
-8.91772
  0
LINE
  8
0
 10
31.9704
 20
-8.91772
 11
31.816
 21
-8.77623
  0
LINE
  8
0
 10
31.816
 20
-8.77623
 11
31.6641
 21
-8.63206
  0
LINE
  8
0
 10
31.6641
 20
-8.63206
 11
31.5147
 21
-8.48528
  0
LINE
  8
0
 10
31.5147
 20
-8.48528
 11
31.3679
 21
-8.33589
  0
LINE
  8
0
 10
31.3679
 20
-8.33589
 11
31.2238
 21
-8.18398
  0
LINE
  8
0
 10
31.2238
 20
-8.18398
 11
31.0823
 21
-8.02956
  0
LINE
  8
0
 10
31.0823
 20
-8.02956
 11
30.9435
 21
-7.8727
  0
LINE
  8
0
 10
30.9435
 20
-7.8727
 11
30.8075
 21
-7.71344
  0
LINE
  8
0
 10
30.8075
 20
-7.71344
 11
30.6743
 21
-7.55183
  0
LINE
  8
0
 10
30.6743
 20
-7.55183
 11
30.5439
 21
-7.38792
  0
LINE
  8
0
 10
30.5439
 20
-7.38792
 11
30.4164
 21
-7.22177
  0
LINE
  8
0
 10
30.4164
 20
-7.22177
 11
30.2918
 21
-7.05342
  0
LINE
  8
0
 10
30.2918
 20
-7.05342
 11
30.1702
 21
-6.8829
  0
LINE
  8
0
 10
30.1702
 20
-6.8829
 11
30.0516
 21
-6.71031
  0
LINE
  8
0
 10
30.0516
 20
-6.71031
 11
29.936
 21
-6.53566
  0
LINE
  8
0
 10
29.936
 20
-6.53566
 11
29.8234
 21
-6.35902
  0
LINE
  8
0
 10
29.8234
 20
-6.35902
 11
29.714
 21
-6.18045
  0
LINE
  8
0
 10
29.714
 20
-6.18045
 11
29.6077
 21
-6
  0
LINE
  8
0
 10
29.6077
 20
-6
 11
29.5046
 21
-5.8177
  0
LINE
  8
0
 10
29.5046
 20
-5.8177
 11
29.4046
 21
-5.63365
  0
LINE
  8
0
 10
29.4046
 20
-5.63365
 11
29.3079
 21
-5.44788
  0
LINE
  8
0
 10
29.3079
 20
-5.44788
 11
29.2145
 21
-5.26045
  0
LINE
  8
0
 10
29.2145
 20
-5.26045
 11
29.1243
 21
-5.07141
  0
LINE
  8
0
 10
29.1243
 20
-5.07141
 11
29.0375
 21
-4.88083
  0
LINE
  8
0
 10
29.0375
 20
-4.88083
 11
28.9539
 21
-4.68877
  0
LINE
  8
0
 10
28.9539
 20
-4.68877
 11
28.8738
 21
-4.49527
  0
LINE
  8
0
 10
28.8738
 20
-4.49527
 11
28.797
 21
-4.30042
  0
LINE
  8
0
 10
28.797
 20
-4.30042
 11
28.7237
 21
-4.10423
  0
LINE
  8
0
 10
28.7237
 20
-4.10423
 11
28.6538
 21
-3.90681
  0
LINE
  8
0
 10
28.6538
 20
-3.90681
 11
28.5873
 21
-3.70819
  0
LINE
  8
0
 10
28.5873
 20
-3.70819
 11
28.5244
 21
-3.50845
  0
LINE
  8
0
 10
28.5244
 20
-3.50845
 11
28.4649
 21
-3.30765
  0
LINE
  8
0
 10
28.4649
 20
-3.30765
 11
28.4089
 21
-3.10582
  0
LINE
  8
0
 10
28.4089
 20
-3.10582
 11
28.3565
 21
-2.90306
  0
LINE
  8
0
 10
28.3565
 20
-2.90306
 11
28.3076
 21
-2.6994
  0
LINE
  8
0
 10
28.3076
 20
-2.6994
 11
28.2622
 21
-2.49493
  0
LINE
  8
0
 10
28.2622
 20
-2.49493
 11
28.2205
 21
-2.2897
  0
LINE
  8
0
 10
28.2205
 20
-2.2897
 11
28.1823
 21
-2.08377
  0
LINE
  8
0
 10
28.1823
 20
-2.08377
 11
28.1478
 21
-1.87721
  0
LINE
  8
0
 10
28.1478
 20
-1.87721
 11
28.1168
 21
-1.67007
  0
LINE
  8
0
 10
28.1168
 20
-1.67007
 11
28.0894
 21
-1.46242
  0
LINE
  8
0
 10
28.0894
 20
-1.46242
 11
28.0658
 21
-1.25433
  0
LINE
  8
0
 10
28.0658
 20
-1.25433
 11
28.0457
 21
-1.04587
  0
LINE
  8
0
 10
28.0457
 20
-1.04587
 11
28.0292
 21
-0.837067
  0
LINE
  8
0
 10
28.0292
 20
-0.837067
 11
28.0164
 21
-0.628021
  0
LINE
  8
0
 10
28.0164
 20
-0.628021
 11
28.0073
 21
-0.418793
  0
LINE
  8
0
 10
28.0073
 20
-0.418793
 11
28.0018
 21
-0.209427
  0
LINE
  8
0
 10
28.0018
 20
-0.209427
 11
28
 21
0
  0
LINE
  8
0
 10
28
 20
0
 11
28.0018
 21
0.209427
  0
LINE
  8
0
 10
28.0018
 20
0.209427
 11
28.0073
 21
0.418793
  0
LINE
  8
0
 10
28.0073
 20
0.418793
 11
28.0164
 21
0.628021
  0
LINE
  8
0
 10
28.0164
 20
0.628021
 11
28.0292
 21
0.837067
  0
LINE
  8
0
 10
28.0292
 20
0.837067
 11
28.0457
 21
1.04587
  0
LINE
  8
0
 10
28.0457
 20
1.04587
 11
28.0658
 21
1.25433
  0
LINE
  8
0
 10
28.0658
 20
1.25433
 11
28.0894
 21
1.46242
  0
LINE
  8
0
 10
28.0894
 20
1.46242
 11
28.1168
 21
1.67007
  0
LINE
  8
0
 10
28.1168
 20
1.67007
 11
28.1478
 21
1.87721
  0
LINE
  8
0
 10
28.1478
 20
1.87721
 11
28.1823
 21
2.08377
  0
LINE
  8
0
 10
28.1823
 20
2.08377
 11
28.2205
 21
2.2897
  0
LINE
  8
0
 10
28.2205
 20
2.2897
 11
28.2622
 21
2.49493
  0
LINE
  8
0
 10
28.2622
 20
2.49493
 11
28.3076
 21
2.6994
  0
LINE
  8
0
 10
28.3076
 20
2.6994
 11
28.3565
 21
2.90306
  0
LINE
  8
0
 10
28.3565
 20
2.90306
 11
28.4089
 21
3.10582
  0
LINE
  8
0
 10
28.4089
 20
3.10582
 11
28.4649
 21
3.30765
  0
LINE
  8
0
 10
28.4649
 20
3.30765
 11
28.5244
 21
3.50845
  0
LINE
  8
0
 10
28.5244
 20
3.50845
 11
28.5873
 21
3.70819
  0
LINE
  8
0
 10
28.5873
 20
3.70819
 11
28.6538
 21
3.90681
  0
LINE
  8
0
 10
28.6538
 20
3.90681
 11
28.7237
 21
4.10423
  0
LINE
  8
0
 10
28.7237
 20
4.10423
 11
28.797
 21
4.30042
  0
LINE
  8
0
 10
28.797
 20
4.30042
 11
28.8738
 21
4.49527
  0
LINE
  8
0
 10
28.8738
 20
4.49527
 11
28.9539
 21
4.68877
  0
LINE
  8
0
 10
28.9539
 20
4.68877
 11
29.0375
 21
4.88083
  0
LINE
  8
0
 10
29.0375
 20
4.88083
 11
29.1243
 21
5.07141
  0
LINE
  8
0
 10
29.1243
 20
5.07141
 11
29.2145
 21
5.26045
  0
LINE
  8
0
 10
29.2145
 20
5.26045
 11
29.3079
 21
5.44788
  0
LINE
  8
0
 10
29.3079
 20
5.44788
 11
29.4046
 21
5.63365
  0
LINE
  8
0
 10
29.4046
 20
5.63365
 11
29.5046
 21
5.8177
  0
LINE
  8
0
 10
29.5046
 20
5.8177
 11
29.6077
 21
6
  0
LINE
  8
0
 10
29.6077
 20
6
 11
29.714
 21
6.18045
  0
LINE
  8
0
 10
29.714
 20
6.18045
 11
29.8234
 21
6.35902
  0
LINE
  8
0
 10
29.8234
 20
6.35902
 11
29.936
 21
6.53566
  0
LINE
  8
0
 10
29.936
 20
6.53566
 11
30.0516
 21
6.71031
  0
LINE
  8
0
 10
30.0516
 20
6.71031
 11
30.1702
 21
6.8829
  0
LINE
  8
0
 10
30.1702
 20
6.8829
 11
30.2918
 21
7.05342
  0
LINE
  8
0
 10
30.2918
 20
7.05342
 11
30.4164
 21
7.22177
  0
LINE
  8
0
 10
30.4164
 20
7.22177
 11
30.5439
 21
7.38792
  0
LINE
  8
0
 10
30.5439
 20
7.38792
 11
30.6743
 21
7.55183
  0
LINE
  8
0
 10
30.6743
 20
7.55183
 11
30.8075
 21
7.71344
  0
LINE
  8
0
 10
30.8075
 20
7.71344
 11
30.9435
 21
7.8727
  0
LINE
  8
0
 10
30.9435
 20
7.8727
 11
31.0823
 21
8.02956
  0
LINE
  8
0
 10
31.0823
 20
8.02956
 11
31.2238
 21
8.18398
  0
LINE
  8
0
 10
31.2238
 20
8.18398
 11
31.3679
 21
8.33589
  0
LINE
  8
0
 10
31.3679
 20
8.33589
 11
31.5147
 21
8.48528
  0
LINE
  8
0
 10
31.5147
 20
8.48528
 11
31.6641
 21
8.63206
  0
LINE
  8
0
 10
31.6641
 20
8.63206
 11
31.816
 21
8.77623
  0
LINE
  8
0
 10
31.816
 20
8.77623
 11
31.9704
 21
8.91772
  0
LINE
  8
0
 10
31.9704
 20
8.91772
 11
32.1273
 21
9.0565
  0
LINE
  8
0
 10
32.1273
 20
9.0565
 11
32.2866
 21
9.19252
  0
LINE
  8
0
 10
32.2866
 20
9.19252
 11
32.4482
 21
9.32574
  0
LINE
  8
0
 10
32.4482
 20
9.32574
 11
32.6121
 21
9.45612
  0
LINE
  8
0
 10
32.6121
 20
9.45612
 11
32.7782
 21
9.58362
  0
LINE
  8
0
 10
32.7782
 20
9.58362
 11
32.9466
 21
9.70819
  0
LINE
  8
0
 10
32.9466
 20
9.70819
 11
33.1171
 21
9.82982
  0
LINE
  8
0
 10
33.1171
 20
9.82982
 11
33.2897
 21
9.94844
  0
LINE
  8
0
 10
33.2897
 20
9.94844
 11
33.4643
 21
10.064
  0
LINE
  8
0
 10
33.4643
 20
10.064
 11
33.641
 21
10.1766
  0
LINE
  8
0
 10
33.641
 20
10.1766
 11
33.8195
 21
10.286
  0
LINE
  8
0
 10
33.8195
 20
10.286
 11
34
 21
10.3923
  0
LINE
  8
0
 10
34
 20
10.3923
 11
34.1823
 21
10.4954
  0
LINE
  8
0
 10
34.1823
 20
10.4954
 11
34.3663
 21
10.5954
  0
LINE
  8
0
 10
34.3663
 20
10.5954
 11
34.5521
 21
10.6921
  0
LINE
  8
0
 10
34.5521
 20
10.6921
 11
34.7395
 21
10.7855
  0
LINE
  8
0
 10
34.7395
 20
10.7855
 11
34.9286
 21
10.8757
  0
LINE
  8
0
 10
34.9286
 20
10.8757
 11
35.1192
 21
10.9625
  0
LINE
  8
0
 10
35.1192
 20
10.9625
 11
35.3112
 21
11.0461
  0
LINE
  8
0
 10
35.3112
 20
11.0461
 11
35.5047
 21
11.1262
  0
LINE
  8
0
 10
35.5047
 20
11.1262
 11
35.6996
 21
11.203
  0
LINE
  8
0
 10
35.6996
 20
11.203
 11
35.8958
 21
11.2763
  0
LINE
  8
0
 10
35.8958
 20
11.2763
 11
36.0932
 21
11.3462
  0
LINE
  8
0
 10
36.0932
 20
11.3462
 11
36.2918
 21
11.4127
  0
LINE
  8
0
 10
36.2918
 20
11.4127
 11
36.4915
 21
11.4756
  0
LINE
  8
0
 10
36.4915
 20
11.4756
 11
36.6924
 21
11.5351
  0
LINE
  8
0
 10
36.6924
 20
11.5351
 11
36.8942
 21
11.5911
  0
LINE
  8
0
 10
36.8942
 20
11.5911
 11
37.0969
 21
11.6435
  0
LINE
  8
0
 10
37.0969
 20
11.6435
 11
37.3006
 21
11.6924
  0
LINE
  8
0
 10
37.3006
 20
11.6924
 11
37.5051
 21
11.7378
  0
LINE
  8
0
 10
37.5051
 20
11.7378
 11
37.7103
 21
11.7795
  0
LINE
  8
0
 10
37.7103
 20
11.7795
 11
37.9162
 21
11.8177
  0
LINE
  8
0
 10
37.9162
 20
11.8177
 11
38.1228
 21
11.8522
  0
LINE
  8
0
 10
38.1228
 20
11.8522
 11
38.3299
 21
11.8832
  0
LINE
  8
0
 10
38.3299
 20
11.8832
 11
38.5376
 21
11.9106
  0
LINE
  8
0
 10
38.5376
 20
11.9106
 11
38.7457
 21
11.9342
  0
LINE
  8
0
 10
38.7457
 20
11.9342
 11
38.9541
 21
11.9543
  0
LINE
  8
0
 10
38.9541
 20
11.9543
 11
39.1629
 21
11.9708
  0
LINE
  8
0
 10
39.1629
 20
11.9708
 11
39.372
 21
11.9836
  0
LINE
  8
0
 10
39.372
 20
11.9836
 11
39.5812
 21
11.9927
  0
LINE
  8
0
 10
39.5812
 20
11.9927
 11
39.7906
 21
11.9982
  0
LINE
  8
0
 10
39.7906
 20
11.9982
 11
40
 21
12
  0
LINE
  8
0
 10
40
 20
12
 11
40.2094
 21
11.9982
  0
LINE
  8
0
 10
40.2094
 20
11.9982
 11
40.4188
 21
11.9927
  0
LINE
  8
0
 10
40.4188
 20
11.9927
 11
40.628
 21
11.9836
  0
LINE
  8
0
 10
40.628
 20
11.9836
 11
40.8371
 21
11.9708
  0
LINE
  8
0
 10
40.8371
 20
11.9708
 11
41.0459
 21
11.9543
  0
LINE
  8
0
 10
41.0459
 20
11.9543
 11
41.2543
 21
11.9342
  0
LINE
  8
0
 10
41.2543
 20
11.9342
 11
41.4624
 21
11.9106
  0
LINE
  8
0
 10
41.4624
 20
11.9106
 11
41.6701
 21
11.8832
  0
LINE
  8
0
 10
41.6701
 20
11.8832
 11
41.8772
 21
11.8522
  0
LINE
  8
0
 10
41.8772
 20
11.8522
 11
42.0838
 21
11.8177
  0
LINE
  8
0
 10
42.0838
 20
11.8177
 11
42.2897
 21
11.7795
  0
LINE
  8
0
 10
42.2897
 20
11.7795
 11
42.4949
 21
11.7378
  0
LINE
  8
0
 10
42.4949
 20
11.7378
 11
42.6994
 21
11.6924
  0
LINE
  8
0
 10
42.6994
 20
11.6924
 11
42.9031
 21
11.6435
  0
LINE
  8
0
 10
42.9031
 20
11.6435
 11
43.1058
 21
11.5911
  0
LINE
  8
0
 10
43.1058
 20
11.5911
 11
43.3076
 21
11.5351
  0
LINE
  8
0
 10
43.3076
 20
11.5351
 11
43.5085
 21
11.4756
  0
LINE
  8
0
 10
43.5085
 20
11.4756
 11
43.7082
 21
11.4127
  0
LINE
  8
0
 10
43.7082
 20
11.4127
 11
43.9068
 21
11.3462
  0
LINE
  8
0
 10
43.9068
 20
11.3462
 11
44.1042
 21
11.2763
  0
LINE
  8
0
 10
44.1042
 20
11.2763
 11
44.3004
 21
11.203
  0
LINE
  8
0
 10
44.3004
 20
11.203
 11
44.4953
 21
11.1262
  0
LINE
  8
0
 10
44.4953
 20
11.1262
 11
44.6888
 21
11.0461
  0
LINE
  8
0
 10
44.6888
 20
11.0461
 11
44.8808
 21
10.9625
  0
LINE
  8
0
 10
44.8808
 20
10.9625
 11
45.0714
 21
10.8757
  0
LINE
  8
0
 10
45.0714
 20
10.8757
 11
45.2605
 21
10.7855
  0
LINE
  8
0
 10
45.2605
 20
10.7855
 11
45.4479
 21
10.6921
  0
LINE
  8
0
 10
45.4479
 20
10.6921
 11
45.6337
 21
10.5954
  0
LINE
  8
0
 10
45.6337
 20
10.5954
 11
45.8177
 21
10.4954
  0
LINE
  8
0
 10
45.8177
 20
10.4954
 11
46
 21
10.3923
  0
LINE
  8
0
 10
46
 20
10.3923
 11
46.1805
 21
10.286
  0
LINE
  8
0
 10
46.1805
 20
10.286
 11
46.359
 21
10.1766
  0
LINE
  8
0
 10
46.359
 20
10.1766
 11
46.5357
 21
10.064
  0
LINE
  8
0
 10
46.5357
 20
10.064
 11
46.7103
 21
9.94844
  0
LINE
  8
0
 10
46.7103
 20
9.94844
 11
46.8829
 21
9.82982
  0
LINE
  8
0
 10
46.8829
 20
9.82982
 11
47.0534
 21
9.70819
  0
LINE
  8
0
 10
47.0534
 20
9.70819
 11
47.2218
 21
9.58362
  0
LINE
  8
0
 10
47.2218
 20
9.58362
 11
47.3879
 21
9.45612
  0
LINE
  8
0
 10
47.3879
 20
9.45612
 11
47.5518
 21
9.32574
  0
LINE
  8
0
 10
47.5518
 20
9.32574
 11
47.7134
 21
9.19252
  0
LINE
  8
0
 10
47.7134
 20
9.19252
 11
47.8727
 21
9.0565
  0
LINE
  8
0
 10
47.8727
 20
9.0565
 11
48.0296
 21
8.91772
  0
LINE
  8
0
 10
48.0296
 20
8.91772
 11
48.184
 21
8.77623
  0
LINE
  8
0
 10
48.184
 20
8.77623
 11
48.3359
 21
8.63206
  0
LINE
  8
0
 10
48.3359
 20
8.63206
 11
48.4853
 21
8.48528
  0
LINE
  8
0
 10
48.4853
 20
8.48528
 11
48.6321
 21
8.33589
  0
LINE
  8
0
 10
48.6321
 20
8.33589
 11
48.7762
 21
8.18398
  0
LINE
  8
0
 10
48.7762
 20
8.18398
 11
48.9177
 21
8.02956
  0
LINE
  8
0
 10
48.9177
 20
8.02956
 11
49.0565
 21
7.8727
  0
LINE
  8
0
 10
49.0565
 20
7.8727
 11
49.1925
 21
7.71344
  0
LINE
  8
0
 10
49.1925
 20
7.71344
 11
49.3257
 21
7.55183
  0
LINE
  8
0
 10
49.3257
 20
7.55183
 11
49.4561
 21
7.38792
  0
LINE
  8
0
 10
49.4561
 20
7.38792
 11
49.5836
 21
7.22177
  0
LINE
  8
0
 10
49.5836
 20
7.22177
 11
49.7082
 21
7.05342
  0
LINE
  8
0
 10
49.7082
 20
7.05342
 11
49.8298
 21
6.8829
  0
LINE
  8
0
 10
49.8298
 20
6.8829
 11
49.9484
 21
6.71031
  0
LINE
  8
0
 10
49.9484
 20
6.71031
 11
50.064
 21
6.53566
  0
LINE
  8
0
 10
50.064
 20
6.53566
 11
50.1766
 21
6.35902
  0
LINE
  8
0
 10
50.1766
 20
6.35902
 11
50.286
 21
6.18045
  0
LINE
  8
0
 10
50.286
 20
6.18045
 11
50.3923
 21
6
  0
LINE
  8
0
 10
50.3923
 20
6
 11
50.4954
 21
5.8177
  0
LINE
  8
0
 10
50.4954
 20
5.8177
 11
50.5954
 21
5.63365
  0
LINE
  8
0
 10
50.5954
 20
5.63365
 11
50.6921
 21
5.44788
  0
LINE
  8
0
 10
50.6921
 20
5.44788
 11
50.7855
 21
5.26045
  0
LINE
  8
0
 10
50.7855
 20
5.26045
 11
50.8757
 21
5.07141
  0
LINE
  8
0
 10
50.8757
 20
5.07141
 11
50.9625
 21
4.88083
  0
LINE
  8
0
 10
50.9625
 20
4.88083
 11
51.0461
 21
4.68877
  0
LINE
  8
0
 10
51.0461
 20
4.68877
 11
51.1262
 21
4.49527
  0
LINE
  8
0
 10
51.1262
 20
4.49527
 11
51.203
 21
4.30042
  0
LINE
  8
0
 10
51.203
 20
4.30042
 11
51.2763
 21
4.10423
  0
LINE
  8
0
 10
51.2763
 20
4.10423
 11
51.3462
 21
3.90681
  0
LINE
  8
0
 10
51.3462
 20
3.90681
 11
51.4127
 21
3.70819
  0
LINE
  8
0
 10
51.4127
 20
3.70819
 11
51.4756
 21
3.50845
  0
LINE
  8
0
 10
51.4756
 20
3.50845
 11
51.5351
 21
3.30765
  0
LINE
  8
0
 10
51.5351
 20
3.30765
 11
51.5911
 21
3.10582
  0
LINE
  8
0
 10
51.5911
 20
3.10582
 11
51.6435
 21
2.90306
  0
LINE
  8
0
 10
51.6435
 20
2.90306
 11
51.6924
 21
2.6994
  0
LINE
  8
0
 10
51.6924
 20
2.6994
 11
51.7378
 21
2.49493
  0
LINE
  8
0
 10
51.7378
 20
2.49493
 11
51.7795
 21
2.2897
  0
LINE
  8
0
 10
51.7795
 20
2.2897
 11
51.8177
 21
2.08377
  0
LINE
  8
0
 10
51.8177
 20
2.08377
 11
51.8522
 21
1.87721
  0
LINE
  8
0
 10
51.8522
 20
1.87721
 11
51.8832
 21
1.67007
  0
LINE
  8
0
 10
51.8832
 20
1.67007
 11
51.9106
 21
1.46242
  0
LINE
  8
0
 10
51.9106
 20
1.46242
 11
51.9342
 21
1.25433
  0
LINE
  8
0
 10
51.9342
 20
1.25433
 11
51.9543
 21
1.04587
  0
LINE
  8
0
 10
51.9543
 20
1.04587
 11
51.9708
 21
0.837067
  0
LINE
  8
0
 10
51.9708
 20
0.837067
 11
51.9836
 21
0.628021
  0
LINE
  8
0
 10
51.9836
 20
0.628021
 11
51.9927
 21
0.418793
  0
LINE
  8
0
 10
51.9927
 20
0.418793
 11
51.9982
 21
0.209427
  0
LINE
  8
0
 10
51.9982
 20
0.209427
 11
52
 21
0
  0
LINE
  8
0
 10
52
 20
0
 11
51.9982
 21
-0.209427
  0
LINE
  8
0
 10
51.9982
 20
-0.209427
 11
51.9927
 21
-0.418793
  0
LINE
  8
0
 10
51.9927
 20
-0.418793
 11
51.9836
 21
-0.628021
  0
LINE
  8
0
 10
51.9836
 20
-0.628021
 11
51.9708
 21
-0.837067
  0
LINE
  8
0
 10
51.9708
 20
-0.837067
 11
51.9543
 21
-1.04587
  0
LINE
  8
0
 10
51.9543
 20
-1.04587
 11
51.9342
 21
-1.25433
  0
LINE
  8
0
 10
51.9342
 20
-1.25433
 11
51.9106
 21
-1.46242
  0
LINE
  8
0
 10
51.9106
 20
-1.46242
 11
51.8832
 21
-1.67007
  0
LINE
  8
0
 10
51.8832
 20
-1.67007
 11
51.8522
 21
-1.87721
  0
LINE
  8
0
 10
51.8522
 20
-1.87721
 11
51.8177
 21
-2.08377
  0
LINE
  8
0
 10
51.8177
 20
-2.08377
 11
51.7795
 21
-2.2897
  0
LINE
  8
0
 10
51.7795
 20
-2.2897
 11
51.7378
 21
-2.49493
  0
LINE
  8
0
 10
51.7378
 20
-2.49493
 11
51.6924
 21
-2.6994
  0
LINE
  8
0
 10
51.6924
 20
-2.6994
 11
51.6435
 21
-2.90306
  0
LINE
  8
0
 10
51.6435
 20
-2.90306
 11
51.5911
 21
-3.10582
  0
LINE
  8
0
 10
51.5911
 20
-3.10582
 11
51.5351
 21
-3.30765
  0
LINE
  8
0
 10
51.5351
 20
-3.30765
 11
51.4756
 21
-3.50845
  0
LINE
  8
0
 10
51.4756
 20
-3.50845
 11
51.4127
 21
-3.70819
  0
LINE
  8
0
 10
51.4127
 20
-3.70819
 11
51.3462
 21
-3.90681
  0
LINE
  8
0
 10
51.3462
 20
-3.90681
 11
51.2763
 21
-4.10423
  0
LINE
  8
0
 10
51.2763
 20
-4.10423
 11
51.203
 21
-4.30042
  0
LINE
  8
0
 10
51.203
 20
-4.30042
 11
51.1262
 21
-4.49527
  0
LINE
  8
0
 10
51.1262
 20
-4.49527
 11
51.0461
 21
-4.68877
  0
LINE
  8
0
 10
51.0461
 20
-4.68877
 11
50.9625
 21
-4.88083
  0
LINE
  8
0
 10
50.9625
 20
-4.88083
 11
50.8757
 21
-5.07141
  0
LINE
  8
0
 10
50.8757
 20
-5.07141
 11
50.7855
 21
-5.26045
  0
LINE
  8
0
 10
50.7855
 20
-5.26045
 11
50.6921
 21
-5.44788
  0
LINE
  8
0
 10
50.6921
 20
-5.44788
 11
50.5954
 21
-5.63365
  0
LINE
  8
0
 10
50.5954
 20
-5.63365
 11
50.4954
 21
-5.8177
  0
LINE
  8
0
 10
50.4954
 20
-5.8177
 11
50.3923
 21
-6
  0
LINE
  8
0
 10
50.3923
 20
-6
 11
50.286
 21
-6.18045
  0
LINE
  8
0
 10
50.286
 20
-6.18045
 11
50.1766
 21
-6.35902
  0
LINE
  8
0
 10
50.1766
 20
-6.35902
 11
50.064
 21
-6.53566
  0
LINE
  8
0
 10
50.064
 20
-6.53566
 11
49.9484
 21
-6.71031
  0
LINE
  8
0
 10
49.9484
 20
-6.71031
 11
49.8298
 21
-6.8829
  0
LINE
  8
0
 10
49.8298
 20
-6.8829
 11
49.7082
 21
-7.05342
  0
LINE
  8
0
 10
49.7082
 20
-7.05342
 11
49.5836
 21
-7.22177
  0
LINE
  8
0
 10
49.5836
 20
-7.22177
 11
49.4561
 21
-7.38792
  0
LINE
  8
0
 10
49.4561
 20
-7.38792
 11
49.3257
 21
-7.55183
  0
LINE
  8
0
 10
49.3257
 20
-7.55183
 11
49.1925
 21
-7.71344
  0
LINE
  8
0
 10
49.1925
 20
-7.71344
 11
49.0565
 21
-7.8727
  0
LINE
  8
0
 10
49.0565
 20
-7.8727
 11
48.9177
 21
-8.02956
  0
LINE
  8
0
 10
48.9177
 20
-8.02956
 11
48.7762
 21
-8.18398
  0
LINE
  8
0
 10
48.7762
 20
-8.18398
 11
48.6321
 21
-8.33589
  0
LINE
  8
0
 10
48.6321
 20
-8.33589
 11
48.4853
 21
-8.48528
  0
LINE
  8
0
 10
48.4853
 20
-8.48528
 11
48.3359
 21
-8.63206
  0
LINE
  8
0
 10
48.3359
 20
-8.63206
 11
48.184
 21
-8.77623
  0
LINE
  8
0
 10
48.184
 20
-8.77623
 11
48.0296
 21
-8.91772
  0
LINE
  8
0
 10
48.0296
 20
-8.91772
 11
47.8727
 21
-9.0565
  0
LINE
  8
0
 10
47.8727
 20
-9.0565
 11
47.7134
 21
-9.19252
  0
LINE
  8
0
 10
47.7134
 20
-9.19252
 11
47.5518
 21
-9.32574
  0
LINE
  8
0
 10
47.5518
 20
-9.32574
 11
47.3879
 21
-9.45612
  0
LINE
  8
0
 10
47.3879
 20
-9.45612
 11
47.2218
 21
-9.58362
  0
LINE
  8
0
 10
47.2218
 20
-9.58362
 11
47.0534
 21
-9.70819
  0
LINE
  8
0
 10
47.0534
 20
-9.70819
 11
46.8829
 21
-9.82982
  0
LINE
  8
0
 10
46.8829
 20
-9.82982
 11
46.7103
 21
-9.94844
  0
LINE
  8
0
 10
46.7103
 20
-9.94844
 11
46.5357
 21
-10.064
  0
LINE
  8
0
 10
46.5357
 20
-10.064
 11
46.359
 21
-10.1766
  0
LINE
  8
0
 10
46.359
 20
-10.1766
 11
46.1805
 21
-10.286
  0
LINE
  8
0
 10
46.1805
 20
-10.286
 11
46
 21
-10.3923
  0
LINE
  8
0
 10
46
 20
-10.3923
 11
45.8177
 21
-10.4954
  0
LINE
  8
0
 10
45.8177
 20
-10.4954
 11
45.6337
 21
-10.5954
  0
LINE
  8
0
 10
45.6337
 20
-10.5954
 11
45.4479
 21
-10.6921
  0
LINE
  8
0
 10
45.4479
 20
-10.6921
 11
45.2605
 21
-10.7855
  0
LINE
  8
0
 10
45.2605
 20
-10.7855
 11
45.0714
 21
-10.8757
  0
LINE
  8
0
 10
45.0714
 20
-10.8757
 11
44.8808
 21
-10.9625
  0
LINE
  8
0
 10
44.8808
 20
-10.9625
 11
44.6888
 21
-11.0461
  0
LINE
  8
0
 10
44.6888
 20
-11.0461
 11
44.4953
 21
-11.1262
  0
LINE
  8
0
 10
44.4953
 20
-11.1262
 11
44.3004
 21
-11.203
  0
LINE
  8
0
 10
44.3004
 20
-11.203
 11
44.1042
 21
-11.2763
  0
LINE
  8
0
 10
44.1042
 20
-11.2763
 11
43.9068
 21
-11.3462
  0
LINE
  8
0
 10
43.9068
 20
-11.3462
 11
43.7082
 21
-11.4127
  0
LINE
  8
0
 10
43.7082
 20
-11.4127
 11
43.5085
 21
-11.4756
  0
LINE
  8
0
 10
43.5085
 20
-11.4756
 11
43.3076
 21
-11.5351
  0
LINE
  8
0
 10
43.3076
 20
-11.5351
 11
43.1058
 21
-11.5911
  0
LINE
  8
0
 10
43.1058
 20
-11.5911
 11
42.9031
 21
-11.6435
  0
LINE
  8
0
 10
42.9031
 20
-11.6435
 11
42.6994
 21
-11.6924
  0
LINE
  8
0
 10
42.6994
 20
-11.6924
 11
42.4949
 21
-11.7378
  0
LINE
  8
0
 10
42.4949
 20
-11.7378
 11
42.2897
 21
-11.7795
  0
LINE
  8
0
 10
42.2897
 20
-11.7795
 11
42.0838
 21
-11.8177
  0
LINE
  8
0
 10
42.0838
 20
-11.8177
 11
41.8772
 21
-11.8522
  0
LINE
  8
0
 10
41.8772
 20
-11.8522
 11
41.6701
 21
-11.8832
  0
LINE
  8
0
 10
41.6701
 20
-11.8832
 11
41.4624
 21
-11.9106
  0
LINE
  8
0
 10
41.4624
 20
-11.9106
 11
41.2543
 21
-11.9342
  0
LINE
  8
0
 10
41.2543
 20
-11.9342
 11
41.0459
 21
-11.9543
  0
LINE
  8
0
 10
41.0459
 20
-11.9543
 11
40.8371
 21
-11.9708
  0
LINE
  8
0
 10
40.8371
 20
-11.9708
 11
40.628
 21
-11.9836
  0
LINE
  8
0
 10
40.628
 20
-11.9836
 11
40.4188
 21
-11.9927
  0
LINE
  8
0
 10
40.4188
 20
-11.9927
 11
40.2094
 21
-11.9982
  0
LINE
  8
0
 10
40.2094
 20
-11.9982
 11
40
 21
-12
  0
LINE
  8
0
 10
40
 20
-12
 11
39.7906
 21
-11.9982
  0
ENDSEC
  0
SECTION
  2
OBJECTS
  0
DICTIONARY
  0
ENDSEC
  0
EOF
