<?xml version="1.0" standalone="no"?>
<!DOCTYPE svg PUBLIC "-//W3C//DTD SVG 1.1//EN" "http://www.w3.org/Graphics/SVG/1.1/DTD/svg11.dtd">
<svg width="105mm" height="105mm" viewBox="0 -105 105 105" xmlns="http://www.w3.org/2000/svg" version="1.1">
<title>OpenSCAD Model</title>
<path d="
M 99.5419,-0.0911407 L 100.552,-0.361832 L 101.5,-0.803833 L 102.357,-1.40373 L 103.096,-2.14326 L 103.696,-3
 L 104.138,-3.94788 L 104.409,-4.9581 L 104.5,-6 L 104.5,-98.5 L 104.409,-99.5419 L 104.138,-100.552
 L 103.696,-101.5 L 103.096,-102.357 L 102.357,-103.096 L 101.5,-103.696 L 100.552,-104.138 L 99.5419,-104.409
 L 98.5,-104.5 L 6,-104.5 L 4.9581,-104.409 L 3.94788,-104.138 L 3,-103.696 L 2.14326,-103.096
 L 1.40373,-102.357 L 0.803833,-101.5 L 0.361832,-100.552 L 0.0911407,-99.5419 L 0,-98.5 L 0,-6
 L 0.0911407,-4.9581 L 0.361832,-3.94788 L 0.803833,-3 L 1.40373,-2.14326 L 2.14326,-1.40373 L 3,-0.803833
 L 3.94788,-0.361832 L 4.9581,-0.0911407 L 6,-0 L 98.5,-0 z
M 29.25,-12.25 L 26.298,-12.5083 L 23.4357,-13.2752 L 20.75,-14.5276 L 18.3226,-16.2272 L 16.2272,-18.3226
 L 14.5276,-20.75 L 13.2752,-23.4357 L 12.5083,-26.298 L 12.25,-29.25 L 12.25,-75.25 L 12.5083,-78.202
 L 13.2752,-81.0643 L 14.5276,-83.75 L 16.2272,-86.1774 L 18.3226,-88.2728 L 20.75,-89.9724 L 23.4357,-91.2248
 L 26.298,-91.9917 L 29.25,-92.25 L 75.25,-92.25 L 78.202,-91.9917 L 81.0643,-91.2248 L 83.75,-89.9724
 L 86.1774,-88.2728 L 88.2728,-86.1774 L 89.9724,-83.75 L 91.2248,-81.0643 L 91.9917,-78.202 L 92.25,-75.25
 L 92.25,-29.25 L 91.9917,-26.298 L 91.2248,-23.4357 L 89.9724,-20.75 L 88.2728,-18.3226 L 86.1774,-16.2272
 L 83.75,-14.5276 L 81.0643,-13.2752 L 78.202,-12.5083 L 75.25,-12.25 z
" stroke="black" fill="lightgray" stroke-width="0.5"/>
</svg>
