  0
SECTION
  2
BLOCKS
  0
ENDSEC
  0
SECTION
  2
ENTITIES
  0
LINE
  8
0
 10
99.5419
 20
0.0911407
 11
100.552
 21
0.361832
  0
LINE
  8
0
 10
100.552
 20
0.361832
 11
101.5
 21
0.803833
  0
LINE
  8
0
 10
101.5
 20
0.803833
 11
102.357
 21
1.40373
  0
LINE
  8
0
 10
102.357
 20
1.40373
 11
103.096
 21
2.14326
  0
LINE
  8
0
 10
103.096
 20
2.14326
 11
103.696
 21
3
  0
LINE
  8
0
 10
103.696
 20
3
 11
104.138
 21
3.94788
  0
LINE
  8
0
 10
104.138
 20
3.94788
 11
104.409
 21
4.9581
  0
LINE
  8
0
 10
104.409
 20
4.9581
 11
104.5
 21
6
  0
LINE
  8
0
 10
104.5
 20
6
 11
104.5
 21
98.5
  0
LINE
  8
0
 10
104.5
 20
98.5
 11
104.409
 21
99.5419
  0
LINE
  8
0
 10
104.409
 20
99.5419
 11
104.138
 21
100.552
  0
LINE
  8
0
 10
104.138
 20
100.552
 11
103.696
 21
101.5
  0
LINE
  8
0
 10
103.696
 20
101.5
 11
103.096
 21
102.357
  0
LINE
  8
0
 10
103.096
 20
102.357
 11
102.357
 21
103.096
  0
LINE
  8
0
 10
102.357
 20
103.096
 11
101.5
 21
103.696
  0
LINE
  8
0
 10
101.5
 20
103.696
 11
100.552
 21
104.138
  0
LINE
  8
0
 10
100.552
 20
104.138
 11
99.5419
 21
104.409
  0
LINE
  8
0
 10
99.5419
 20
104.409
 11
98.5
 21
104.5
  0
LINE
  8
0
 10
98.5
 20
104.5
 11
6
 21
104.5
  0
LINE
  8
0
 10
6
 20
104.5
 11
4.9581
 21
104.409
  0
LINE
  8
0
 10
4.9581
 20
104.409
 11
3.94788
 21
104.138
  0
LINE
  8
0
 10
3.94788
 20
104.138
 11
3
 21
103.696
  0
LINE
  8
0
 10
3
 20
103.696
 11
2.14326
 21
103.096
  0
LINE
  8
0
 10
2.14326
 20
103.096
 11
1.40373
 21
102.357
  0
LINE
  8
0
 10
1.40373
 20
102.357
 11
0.803833
 21
101.5
  0
LINE
  8
0
 10
0.803833
 20
101.5
 11
0.361832
 21
100.552
  0
LINE
  8
0
 10
0.361832
 20
100.552
 11
0.0911407
 21
99.5419
  0
LINE
  8
0
 10
0.0911407
 20
99.5419
 11
0
 21
98.5
  0
LINE
  8
0
 10
0
 20
98.5
 11
0
 21
6
  0
LINE
  8
0
 10
0
 20
6
 11
0.0911407
 21
4.9581
  0
LINE
  8
0
 10
0.0911407
 20
4.9581
 11
0.361832
 21
3.94788
  0
LINE
  8
0
 10
0.361832
 20
3.94788
 11
0.803833
 21
3
  0
LINE
  8
0
 10
0.803833
 20
3
 11
1.40373
 21
2.14326
  0
LINE
  8
0
 10
1.40373
 20
2.14326
 11
2.14326
 21
1.40373
  0
LINE
  8
0
 10
2.14326
 20
1.40373
 11
3
 21
0.803833
  0
LINE
  8
0
 10
3
 20
0.803833
 11
3.94788
 21
0.361832
  0
LINE
  8
0
 10
3.94788
 20
0.361832
 11
4.9581
 21
0.0911407
  0
LINE
  8
0
 10
4.9581
 20
0.0911407
 11
6
 21
0
  0
LINE
  8
0
 10
6
 20
0
 11
98.5
 21
0
  0
LINE
  8
0
 10
98.5
 20
0
 11
99.5419
 21
0.0911407
  0
LINE
  8
0
 10
29.25
 20
12.25
 11
26.298
 21
12.5083
  0
LINE
  8
0
 10
26.298
 20
12.5083
 11
23.4357
 21
13.2752
  0
LINE
  8
0
 10
23.4357
 20
13.2752
 11
20.75
 21
14.5276
  0
LINE
  8
0
 10
20.75
 20
14.5276
 11
18.3226
 21
16.2272
  0
LINE
  8
0
 10
18.3226
 20
16.2272
 11
16.2272
 21
18.3226
  0
LINE
  8
0
 10
16.2272
 20
18.3226
 11
14.5276
 21
20.75
  0
LINE
  8
0
 10
14.5276
 20
20.75
 11
13.2752
 21
23.4357
  0
LINE
  8
0
 10
13.2752
 20
23.4357
 11
12.5083
 21
26.298
  0
LINE
  8
0
 10
12.5083
 20
26.298
 11
12.25
 21
29.25
  0
LINE
  8
0
 10
12.25
 20
29.25
 11
12.25
 21
75.25
  0
LINE
  8
0
 10
12.25
 20
75.25
 11
12.5083
 21
78.202
  0
LINE
  8
0
 10
12.5083
 20
78.202
 11
13.2752
 21
81.0643
  0
LINE
  8
0
 10
13.2752
 20
81.0643
 11
14.5276
 21
83.75
  0
LINE
  8
0
 10
14.5276
 20
83.75
 11
16.2272
 21
86.1774
  0
LINE
  8
0
 10
16.2272
 20
86.1774
 11
18.3226
 21
88.2728
  0
LINE
  8
0
 10
18.3226
 20
88.2728
 11
20.75
 21
89.9724
  0
LINE
  8
0
 10
20.75
 20
89.9724
 11
23.4357
 21
91.2248
  0
LINE
  8
0
 10
23.4357
 20
91.2248
 11
26.298
 21
91.9917
  0
LINE
  8
0
 10
26.298
 20
91.9917
 11
29.25
 21
92.25
  0
LINE
  8
0
 10
29.25
 20
92.25
 11
75.25
 21
92.25
  0
LINE
  8
0
 10
75.25
 20
92.25
 11
78.202
 21
91.9917
  0
LINE
  8
0
 10
78.202
 20
91.9917
 11
81.0643
 21
91.2248
  0
LINE
  8
0
 10
81.0643
 20
91.2248
 11
83.75
 21
89.9724
  0
LINE
  8
0
 10
83.75
 20
89.9724
 11
86.1774
 21
88.2728
  0
LINE
  8
0
 10
86.1774
 20
88.2728
 11
88.2728
 21
86.1774
  0
LINE
  8
0
 10
88.2728
 20
86.1774
 11
89.9724
 21
83.75
  0
LINE
  8
0
 10
89.9724
 20
83.75
 11
91.2248
 21
81.0643
  0
LINE
  8
0
 10
91.2248
 20
81.0643
 11
91.9917
 21
78.202
  0
LINE
  8
0
 10
91.9917
 20
78.202
 11
92.25
 21
75.25
  0
LINE
  8
0
 10
92.25
 20
75.25
 11
92.25
 21
29.25
  0
LINE
  8
0
 10
92.25
 20
29.25
 11
91.9917
 21
26.298
  0
LINE
  8
0
 10
91.9917
 20
26.298
 11
91.2248
 21
23.4357
  0
LINE
  8
0
 10
91.2248
 20
23.4357
 11
89.9724
 21
20.75
  0
LINE
  8
0
 10
89.9724
 20
20.75
 11
88.2728
 21
18.3226
  0
LINE
  8
0
 10
88.2728
 20
18.3226
 11
86.1774
 21
16.2272
  0
LINE
  8
0
 10
86.1774
 20
16.2272
 11
83.75
 21
14.5276
  0
LINE
  8
0
 10
83.75
 20
14.5276
 11
81.0643
 21
13.2752
  0
LINE
  8
0
 10
81.0643
 20
13.2752
 11
78.202
 21
12.5083
  0
LINE
  8
0
 10
78.202
 20
12.5083
 11
75.25
 21
12.25
  0
LINE
  8
0
 10
75.25
 20
12.25
 11
29.25
 21
12.25
  0
ENDSEC
  0
SECTION
  2
OBJECTS
  0
DICTIONARY
  0
ENDSEC
  0
EOF
