<?xml version="1.0" standalone="no"?>
<!DOCTYPE svg PUBLIC "-//W3C//DTD SVG 1.1//EN" "http://www.w3.org/Graphics/SVG/1.1/DTD/svg11.dtd">
<svg width="95mm" height="95mm" viewBox="0 -95 95 95" xmlns="http://www.w3.org/2000/svg" version="1.1">
<title>OpenSCAD Model</title>
<path d="
M 90.7682,-0.0759583 L 91.6101,-0.301529 L 92.4,-0.669861 L 93.1139,-1.16977 L 93.7302,-1.78606 L 94.2301,-2.5
 L 94.5985,-3.28989 L 94.824,-4.13174 L 94.9,-5 L 94.9,-89.9 L 94.824,-90.7682 L 94.5985,-91.6101
 L 94.2301,-92.4 L 93.7302,-93.1139 L 93.1139,-93.7302 L 92.4,-94.2301 L 91.6101,-94.5985 L 90.7682,-94.824
 L 89.9,-94.9 L 5,-94.9 L 4.13174,-94.824 L 3.28989,-94.5985 L 2.5,-94.2301 L 1.78606,-93.7302
 L 1.16977,-93.1139 L 0.669861,-92.4 L 0.301529,-91.6101 L 0.0759583,-90.7682 L 0,-89.9 L 0,-5
 L 0.0759583,-4.13174 L 0.301529,-3.28989 L 0.669861,-2.5 L 1.16977,-1.78606 L 1.78606,-1.16977 L 2.5,-0.669861
 L 3.28989,-0.301529 L 4.13174,-0.0759583 L 5,-0 L 89.9,-0 z
M 80.7764,-88.9152 L 80.608,-88.9603 L 80.45,-89.034 L 80.3072,-89.134 L 80.1839,-89.2572 L 80.084,-89.4
 L 80.0103,-89.558 L 79.9652,-89.7263 L 79.95,-89.9 L 79.9652,-90.0736 L 80.0103,-90.242 L 80.084,-90.4
 L 80.1839,-90.5428 L 80.3072,-90.666 L 80.45,-90.766 L 80.608,-90.8397 L 80.7764,-90.8848 L 80.95,-90.9
 L 81.1236,-90.8848 L 81.292,-90.8397 L 81.45,-90.766 L 81.5928,-90.666 L 81.716,-90.5428 L 81.816,-90.4
 L 81.8897,-90.242 L 81.9348,-90.0736 L 81.95,-89.9 L 81.9348,-89.7263 L 81.8897,-89.558 L 81.816,-89.4
 L 81.716,-89.2572 L 81.5928,-89.134 L 81.45,-89.034 L 81.292,-88.9603 L 81.1236,-88.9152 L 80.95,-88.9
 z
M 13.7763,-88.9152 L 13.608,-88.9603 L 13.45,-89.034 L 13.3072,-89.134 L 13.1839,-89.2572 L 13.084,-89.4
 L 13.0103,-89.558 L 12.9652,-89.7263 L 12.95,-89.9 L 12.9652,-90.0736 L 13.0103,-90.242 L 13.084,-90.4
 L 13.1839,-90.5428 L 13.3072,-90.666 L 13.45,-90.766 L 13.608,-90.8397 L 13.7763,-90.8848 L 13.95,-90.9
 L 14.1236,-90.8848 L 14.292,-90.8397 L 14.45,-90.766 L 14.5928,-90.666 L 14.716,-90.5428 L 14.816,-90.4
 L 14.8897,-90.242 L 14.9348,-90.0736 L 14.95,-89.9 L 14.9348,-89.7263 L 14.8897,-89.558 L 14.816,-89.4
 L 14.716,-89.2572 L 14.5928,-89.134 L 14.45,-89.034 L 14.292,-88.9603 L 14.1236,-88.9152 L 13.95,-88.9
 z
M 25.2,-8.2 L 22.248,-8.45827 L 19.3857,-9.22522 L 16.7,-10.4776 L 14.2726,-12.1772 L 12.1772,-14.2726
 L 10.4776,-16.7 L 9.22522,-19.3857 L 8.45827,-22.248 L 8.2,-25.2 L 8.2,-69.7 L 8.45827,-72.652
 L 9.22522,-75.5143 L 10.4776,-78.2 L 12.1772,-80.6274 L 14.2726,-82.7227 L 16.7,-84.4224 L 19.3857,-85.6748
 L 22.248,-86.4417 L 25.2,-86.7 L 69.7,-86.7 L 72.652,-86.4417 L 75.5143,-85.6748 L 78.2,-84.4224
 L 80.6274,-82.7227 L 82.7227,-80.6274 L 84.4224,-78.2 L 85.6748,-75.5143 L 86.4417,-72.652 L 86.7,-69.7
 L 86.7,-25.2 L 86.4417,-22.248 L 85.6748,-19.3857 L 84.4224,-16.7 L 82.7227,-14.2726 L 80.6274,-12.1772
 L 78.2,-10.4776 L 75.5143,-9.22522 L 72.652,-8.45827 L 69.7,-8.2 z
M 13.7763,-4.01518 L 13.608,-4.0603 L 13.45,-4.13397 L 13.3072,-4.23395 L 13.1839,-4.35721 L 13.084,-4.5
 L 13.0103,-4.65797 L 12.9652,-4.82634 L 12.95,-5 L 12.9652,-5.17365 L 13.0103,-5.34201 L 13.084,-5.5
 L 13.1839,-5.64278 L 13.3072,-5.76604 L 13.45,-5.86601 L 13.608,-5.93968 L 13.7763,-5.9848 L 13.95,-6
 L 14.1236,-5.9848 L 14.292,-5.93968 L 14.45,-5.86601 L 14.5928,-5.76604 L 14.716,-5.64278 L 14.816,-5.5
 L 14.8897,-5.34201 L 14.9348,-5.17365 L 14.95,-5 L 14.9348,-4.82634 L 14.8897,-4.65797 L 14.816,-4.5
 L 14.716,-4.35721 L 14.5928,-4.23395 L 14.45,-4.13397 L 14.292,-4.0603 L 14.1236,-4.01518 L 13.95,-4
 z
M 80.7764,-4.01518 L 80.608,-4.0603 L 80.45,-4.13397 L 80.3072,-4.23395 L 80.1839,-4.35721 L 80.084,-4.5
 L 80.0103,-4.65797 L 79.9652,-4.82634 L 79.95,-5 L 79.9652,-5.17365 L 80.0103,-5.34201 L 80.084,-5.5
 L 80.1839,-5.64278 L 80.3072,-5.76604 L 80.45,-5.86601 L 80.608,-5.93968 L 80.7764,-5.9848 L 80.95,-6
 L 81.1236,-5.9848 L 81.292,-5.93968 L 81.45,-5.86601 L 81.5928,-5.76604 L 81.716,-5.64278 L 81.816,-5.5
 L 81.8897,-5.34201 L 81.9348,-5.17365 L 81.95,-5 L 81.9348,-4.82634 L 81.8897,-4.65797 L 81.816,-4.5
 L 81.716,-4.35721 L 81.5928,-4.23395 L 81.45,-4.13397 L 81.292,-4.0603 L 81.1236,-4.01518 L 80.95,-4
 z
" stroke="black" fill="lightgray" stroke-width="0.5"/>
</svg>
