  0
SECTION
  2
BLOCKS
  0
ENDSEC
  0
SECTION
  2
ENTITIES
  0
LINE
  8
0
 10
90.7682
 20
0.0759583
 11
91.6101
 21
0.301529
  0
LINE
  8
0
 10
91.6101
 20
0.301529
 11
92.4
 21
0.669861
  0
LINE
  8
0
 10
92.4
 20
0.669861
 11
93.1139
 21
1.16977
  0
LINE
  8
0
 10
93.1139
 20
1.16977
 11
93.7302
 21
1.78606
  0
LINE
  8
0
 10
93.7302
 20
1.78606
 11
94.2301
 21
2.5
  0
LINE
  8
0
 10
94.2301
 20
2.5
 11
94.5985
 21
3.28989
  0
LINE
  8
0
 10
94.5985
 20
3.28989
 11
94.824
 21
4.13174
  0
LINE
  8
0
 10
94.824
 20
4.13174
 11
94.9
 21
5
  0
LINE
  8
0
 10
94.9
 20
5
 11
94.9
 21
89.9
  0
LINE
  8
0
 10
94.9
 20
89.9
 11
94.824
 21
90.7682
  0
LINE
  8
0
 10
94.824
 20
90.7682
 11
94.5985
 21
91.6101
  0
LINE
  8
0
 10
94.5985
 20
91.6101
 11
94.2301
 21
92.4
  0
LINE
  8
0
 10
94.2301
 20
92.4
 11
93.7302
 21
93.1139
  0
LINE
  8
0
 10
93.7302
 20
93.1139
 11
93.1139
 21
93.7302
  0
LINE
  8
0
 10
93.1139
 20
93.7302
 11
92.4
 21
94.2301
  0
LINE
  8
0
 10
92.4
 20
94.2301
 11
91.6101
 21
94.5985
  0
LINE
  8
0
 10
91.6101
 20
94.5985
 11
90.7682
 21
94.824
  0
LINE
  8
0
 10
90.7682
 20
94.824
 11
89.9
 21
94.9
  0
LINE
  8
0
 10
89.9
 20
94.9
 11
5
 21
94.9
  0
LINE
  8
0
 10
5
 20
94.9
 11
4.13174
 21
94.824
  0
LINE
  8
0
 10
4.13174
 20
94.824
 11
3.28989
 21
94.5985
  0
LINE
  8
0
 10
3.28989
 20
94.5985
 11
2.5
 21
94.2301
  0
LINE
  8
0
 10
2.5
 20
94.2301
 11
1.78606
 21
93.7302
  0
LINE
  8
0
 10
1.78606
 20
93.7302
 11
1.16977
 21
93.1139
  0
LINE
  8
0
 10
1.16977
 20
93.1139
 11
0.669861
 21
92.4
  0
LINE
  8
0
 10
0.669861
 20
92.4
 11
0.301529
 21
91.6101
  0
LINE
  8
0
 10
0.301529
 20
91.6101
 11
0.0759583
 21
90.7682
  0
LINE
  8
0
 10
0.0759583
 20
90.7682
 11
0
 21
89.9
  0
LINE
  8
0
 10
0
 20
89.9
 11
0
 21
5
  0
LINE
  8
0
 10
0
 20
5
 11
0.0759583
 21
4.13174
  0
LINE
  8
0
 10
0.0759583
 20
4.13174
 11
0.301529
 21
3.28989
  0
LINE
  8
0
 10
0.301529
 20
3.28989
 11
0.669861
 21
2.5
  0
LINE
  8
0
 10
0.669861
 20
2.5
 11
1.16977
 21
1.78606
  0
LINE
  8
0
 10
1.16977
 20
1.78606
 11
1.78606
 21
1.16977
  0
LINE
  8
0
 10
1.78606
 20
1.16977
 11
2.5
 21
0.669861
  0
LINE
  8
0
 10
2.5
 20
0.669861
 11
3.28989
 21
0.301529
  0
LINE
  8
0
 10
3.28989
 20
0.301529
 11
4.13174
 21
0.0759583
  0
LINE
  8
0
 10
4.13174
 20
0.0759583
 11
5
 21
0
  0
LINE
  8
0
 10
5
 20
0
 11
89.9
 21
0
  0
LINE
  8
0
 10
89.9
 20
0
 11
90.7682
 21
0.0759583
  0
LINE
  8
0
 10
80.7764
 20
88.9152
 11
80.608
 21
88.9603
  0
LINE
  8
0
 10
80.608
 20
88.9603
 11
80.45
 21
89.034
  0
LINE
  8
0
 10
80.45
 20
89.034
 11
80.3072
 21
89.134
  0
LINE
  8
0
 10
80.3072
 20
89.134
 11
80.1839
 21
89.2572
  0
LINE
  8
0
 10
80.1839
 20
89.2572
 11
80.084
 21
89.4
  0
LINE
  8
0
 10
80.084
 20
89.4
 11
80.0103
 21
89.558
  0
LINE
  8
0
 10
80.0103
 20
89.558
 11
79.9652
 21
89.7263
  0
LINE
  8
0
 10
79.9652
 20
89.7263
 11
79.95
 21
89.9
  0
LINE
  8
0
 10
79.95
 20
89.9
 11
79.9652
 21
90.0736
  0
LINE
  8
0
 10
79.9652
 20
90.0736
 11
80.0103
 21
90.242
  0
LINE
  8
0
 10
80.0103
 20
90.242
 11
80.084
 21
90.4
  0
LINE
  8
0
 10
80.084
 20
90.4
 11
80.1839
 21
90.5428
  0
LINE
  8
0
 10
80.1839
 20
90.5428
 11
80.3072
 21
90.666
  0
LINE
  8
0
 10
80.3072
 20
90.666
 11
80.45
 21
90.766
  0
LINE
  8
0
 10
80.45
 20
90.766
 11
80.608
 21
90.8397
  0
LINE
  8
0
 10
80.608
 20
90.8397
 11
80.7764
 21
90.8848
  0
LINE
  8
0
 10
80.7764
 20
90.8848
 11
80.95
 21
90.9
  0
LINE
  8
0
 10
80.95
 20
90.9
 11
81.1236
 21
90.8848
  0
LINE
  8
0
 10
81.1236
 20
90.8848
 11
81.292
 21
90.8397
  0
LINE
  8
0
 10
81.292
 20
90.8397
 11
81.45
 21
90.766
  0
LINE
  8
0
 10
81.45
 20
90.766
 11
81.5928
 21
90.666
  0
LINE
  8
0
 10
81.5928
 20
90.666
 11
81.716
 21
90.5428
  0
LINE
  8
0
 10
81.716
 20
90.5428
 11
81.816
 21
90.4
  0
LINE
  8
0
 10
81.816
 20
90.4
 11
81.8897
 21
90.242
  0
LINE
  8
0
 10
81.8897
 20
90.242
 11
81.9348
 21
90.0736
  0
LINE
  8
0
 10
81.9348
 20
90.0736
 11
81.95
 21
89.9
  0
LINE
  8
0
 10
81.95
 20
89.9
 11
81.9348
 21
89.7263
  0
LINE
  8
0
 10
81.9348
 20
89.7263
 11
81.8897
 21
89.558
  0
LINE
  8
0
 10
81.8897
 20
89.558
 11
81.816
 21
89.4
  0
LINE
  8
0
 10
81.816
 20
89.4
 11
81.716
 21
89.2572
  0
LINE
  8
0
 10
81.716
 20
89.2572
 11
81.5928
 21
89.134
  0
LINE
  8
0
 10
81.5928
 20
89.134
 11
81.45
 21
89.034
  0
LINE
  8
0
 10
81.45
 20
89.034
 11
81.292
 21
88.9603
  0
LINE
  8
0
 10
81.292
 20
88.9603
 11
81.1236
 21
88.9152
  0
LINE
  8
0
 10
81.1236
 20
88.9152
 11
80.95
 21
88.9
  0
LINE
  8
0
 10
80.95
 20
88.9
 11
80.7764
 21
88.9152
  0
LINE
  8
0
 10
13.7763
 20
88.9152
 11
13.608
 21
88.9603
  0
LINE
  8
0
 10
13.608
 20
88.9603
 11
13.45
 21
89.034
  0
LINE
  8
0
 10
13.45
 20
89.034
 11
13.3072
 21
89.134
  0
LINE
  8
0
 10
13.3072
 20
89.134
 11
13.1839
 21
89.2572
  0
LINE
  8
0
 10
13.1839
 20
89.2572
 11
13.084
 21
89.4
  0
LINE
  8
0
 10
13.084
 20
89.4
 11
13.0103
 21
89.558
  0
LINE
  8
0
 10
13.0103
 20
89.558
 11
12.9652
 21
89.7263
  0
LINE
  8
0
 10
12.9652
 20
89.7263
 11
12.95
 21
89.9
  0
LINE
  8
0
 10
12.95
 20
89.9
 11
12.9652
 21
90.0736
  0
LINE
  8
0
 10
12.9652
 20
90.0736
 11
13.0103
 21
90.242
  0
LINE
  8
0
 10
13.0103
 20
90.242
 11
13.084
 21
90.4
  0
LINE
  8
0
 10
13.084
 20
90.4
 11
13.1839
 21
90.5428
  0
LINE
  8
0
 10
13.1839
 20
90.5428
 11
13.3072
 21
90.666
  0
LINE
  8
0
 10
13.3072
 20
90.666
 11
13.45
 21
90.766
  0
LINE
  8
0
 10
13.45
 20
90.766
 11
13.608
 21
90.8397
  0
LINE
  8
0
 10
13.608
 20
90.8397
 11
13.7763
 21
90.8848
  0
LINE
  8
0
 10
13.7763
 20
90.8848
 11
13.95
 21
90.9
  0
LINE
  8
0
 10
13.95
 20
90.9
 11
14.1236
 21
90.8848
  0
LINE
  8
0
 10
14.1236
 20
90.8848
 11
14.292
 21
90.8397
  0
LINE
  8
0
 10
14.292
 20
90.8397
 11
14.45
 21
90.766
  0
LINE
  8
0
 10
14.45
 20
90.766
 11
14.5928
 21
90.666
  0
LINE
  8
0
 10
14.5928
 20
90.666
 11
14.716
 21
90.5428
  0
LINE
  8
0
 10
14.716
 20
90.5428
 11
14.816
 21
90.4
  0
LINE
  8
0
 10
14.816
 20
90.4
 11
14.8897
 21
90.242
  0
LINE
  8
0
 10
14.8897
 20
90.242
 11
14.9348
 21
90.0736
  0
LINE
  8
0
 10
14.9348
 20
90.0736
 11
14.95
 21
89.9
  0
LINE
  8
0
 10
14.95
 20
89.9
 11
14.9348
 21
89.7263
  0
LINE
  8
0
 10
14.9348
 20
89.7263
 11
14.8897
 21
89.558
  0
LINE
  8
0
 10
14.8897
 20
89.558
 11
14.816
 21
89.4
  0
LINE
  8
0
 10
14.816
 20
89.4
 11
14.716
 21
89.2572
  0
LINE
  8
0
 10
14.716
 20
89.2572
 11
14.5928
 21
89.134
  0
LINE
  8
0
 10
14.5928
 20
89.134
 11
14.45
 21
89.034
  0
LINE
  8
0
 10
14.45
 20
89.034
 11
14.292
 21
88.9603
  0
LINE
  8
0
 10
14.292
 20
88.9603
 11
14.1236
 21
88.9152
  0
LINE
  8
0
 10
14.1236
 20
88.9152
 11
13.95
 21
88.9
  0
LINE
  8
0
 10
13.95
 20
88.9
 11
13.7763
 21
88.9152
  0
LINE
  8
0
 10
25.2
 20
8.2
 11
22.248
 21
8.45827
  0
LINE
  8
0
 10
22.248
 20
8.45827
 11
19.3857
 21
9.22522
  0
LINE
  8
0
 10
19.3857
 20
9.22522
 11
16.7
 21
10.4776
  0
LINE
  8
0
 10
16.7
 20
10.4776
 11
14.2726
 21
12.1772
  0
LINE
  8
0
 10
14.2726
 20
12.1772
 11
12.1772
 21
14.2726
  0
LINE
  8
0
 10
12.1772
 20
14.2726
 11
10.4776
 21
16.7
  0
LINE
  8
0
 10
10.4776
 20
16.7
 11
9.22522
 21
19.3857
  0
LINE
  8
0
 10
9.22522
 20
19.3857
 11
8.45827
 21
22.248
  0
LINE
  8
0
 10
8.45827
 20
22.248
 11
8.2
 21
25.2
  0
LINE
  8
0
 10
8.2
 20
25.2
 11
8.2
 21
69.7
  0
LINE
  8
0
 10
8.2
 20
69.7
 11
8.45827
 21
72.652
  0
LINE
  8
0
 10
8.45827
 20
72.652
 11
9.22522
 21
75.5143
  0
LINE
  8
0
 10
9.22522
 20
75.5143
 11
10.4776
 21
78.2
  0
LINE
  8
0
 10
10.4776
 20
78.2
 11
12.1772
 21
80.6274
  0
LINE
  8
0
 10
12.1772
 20
80.6274
 11
14.2726
 21
82.7227
  0
LINE
  8
0
 10
14.2726
 20
82.7227
 11
16.7
 21
84.4224
  0
LINE
  8
0
 10
16.7
 20
84.4224
 11
19.3857
 21
85.6748
  0
LINE
  8
0
 10
19.3857
 20
85.6748
 11
22.248
 21
86.4417
  0
LINE
  8
0
 10
22.248
 20
86.4417
 11
25.2
 21
86.7
  0
LINE
  8
0
 10
25.2
 20
86.7
 11
69.7
 21
86.7
  0
LINE
  8
0
 10
69.7
 20
86.7
 11
72.652
 21
86.4417
  0
LINE
  8
0
 10
72.652
 20
86.4417
 11
75.5143
 21
85.6748
  0
LINE
  8
0
 10
75.5143
 20
85.6748
 11
78.2
 21
84.4224
  0
LINE
  8
0
 10
78.2
 20
84.4224
 11
80.6274
 21
82.7227
  0
LINE
  8
0
 10
80.6274
 20
82.7227
 11
82.7227
 21
80.6274
  0
LINE
  8
0
 10
82.7227
 20
80.6274
 11
84.4224
 21
78.2
  0
LINE
  8
0
 10
84.4224
 20
78.2
 11
85.6748
 21
75.5143
  0
LINE
  8
0
 10
85.6748
 20
75.5143
 11
86.4417
 21
72.652
  0
LINE
  8
0
 10
86.4417
 20
72.652
 11
86.7
 21
69.7
  0
LINE
  8
0
 10
86.7
 20
69.7
 11
86.7
 21
25.2
  0
LINE
  8
0
 10
86.7
 20
25.2
 11
86.4417
 21
22.248
  0
LINE
  8
0
 10
86.4417
 20
22.248
 11
85.6748
 21
19.3857
  0
LINE
  8
0
 10
85.6748
 20
19.3857
 11
84.4224
 21
16.7
  0
LINE
  8
0
 10
84.4224
 20
16.7
 11
82.7227
 21
14.2726
  0
LINE
  8
0
 10
82.7227
 20
14.2726
 11
80.6274
 21
12.1772
  0
LINE
  8
0
 10
80.6274
 20
12.1772
 11
78.2
 21
10.4776
  0
LINE
  8
0
 10
78.2
 20
10.4776
 11
75.5143
 21
9.22522
  0
LINE
  8
0
 10
75.5143
 20
9.22522
 11
72.652
 21
8.45827
  0
LINE
  8
0
 10
72.652
 20
8.45827
 11
69.7
 21
8.2
  0
LINE
  8
0
 10
69.7
 20
8.2
 11
25.2
 21
8.2
  0
LINE
  8
0
 10
13.7763
 20
4.01518
 11
13.608
 21
4.0603
  0
LINE
  8
0
 10
13.608
 20
4.0603
 11
13.45
 21
4.13397
  0
LINE
  8
0
 10
13.45
 20
4.13397
 11
13.3072
 21
4.23395
  0
LINE
  8
0
 10
13.3072
 20
4.23395
 11
13.1839
 21
4.35721
  0
LINE
  8
0
 10
13.1839
 20
4.35721
 11
13.084
 21
4.5
  0
LINE
  8
0
 10
13.084
 20
4.5
 11
13.0103
 21
4.65797
  0
LINE
  8
0
 10
13.0103
 20
4.65797
 11
12.9652
 21
4.82634
  0
LINE
  8
0
 10
12.9652
 20
4.82634
 11
12.95
 21
5
  0
LINE
  8
0
 10
12.95
 20
5
 11
12.9652
 21
5.17365
  0
LINE
  8
0
 10
12.9652
 20
5.17365
 11
13.0103
 21
5.34201
  0
LINE
  8
0
 10
13.0103
 20
5.34201
 11
13.084
 21
5.5
  0
LINE
  8
0
 10
13.084
 20
5.5
 11
13.1839
 21
5.64278
  0
LINE
  8
0
 10
13.1839
 20
5.64278
 11
13.3072
 21
5.76604
  0
LINE
  8
0
 10
13.3072
 20
5.76604
 11
13.45
 21
5.86601
  0
LINE
  8
0
 10
13.45
 20
5.86601
 11
13.608
 21
5.93968
  0
LINE
  8
0
 10
13.608
 20
5.93968
 11
13.7763
 21
5.9848
  0
LINE
  8
0
 10
13.7763
 20
5.9848
 11
13.95
 21
6
  0
LINE
  8
0
 10
13.95
 20
6
 11
14.1236
 21
5.9848
  0
LINE
  8
0
 10
14.1236
 20
5.9848
 11
14.292
 21
5.93968
  0
LINE
  8
0
 10
14.292
 20
5.93968
 11
14.45
 21
5.86601
  0
LINE
  8
0
 10
14.45
 20
5.86601
 11
14.5928
 21
5.76604
  0
LINE
  8
0
 10
14.5928
 20
5.76604
 11
14.716
 21
5.64278
  0
LINE
  8
0
 10
14.716
 20
5.64278
 11
14.816
 21
5.5
  0
LINE
  8
0
 10
14.816
 20
5.5
 11
14.8897
 21
5.34201
  0
LINE
  8
0
 10
14.8897
 20
5.34201
 11
14.9348
 21
5.17365
  0
LINE
  8
0
 10
14.9348
 20
5.17365
 11
14.95
 21
5
  0
LINE
  8
0
 10
14.95
 20
5
 11
14.9348
 21
4.82634
  0
LINE
  8
0
 10
14.9348
 20
4.82634
 11
14.8897
 21
4.65797
  0
LINE
  8
0
 10
14.8897
 20
4.65797
 11
14.816
 21
4.5
  0
LINE
  8
0
 10
14.816
 20
4.5
 11
14.716
 21
4.35721
  0
LINE
  8
0
 10
14.716
 20
4.35721
 11
14.5928
 21
4.23395
  0
LINE
  8
0
 10
14.5928
 20
4.23395
 11
14.45
 21
4.13397
  0
LINE
  8
0
 10
14.45
 20
4.13397
 11
14.292
 21
4.0603
  0
LINE
  8
0
 10
14.292
 20
4.0603
 11
14.1236
 21
4.01518
  0
LINE
  8
0
 10
14.1236
 20
4.01518
 11
13.95
 21
4
  0
LINE
  8
0
 10
13.95
 20
4
 11
13.7763
 21
4.01518
  0
LINE
  8
0
 10
80.7764
 20
4.01518
 11
80.608
 21
4.0603
  0
LINE
  8
0
 10
80.608
 20
4.0603
 11
80.45
 21
4.13397
  0
LINE
  8
0
 10
80.45
 20
4.13397
 11
80.3072
 21
4.23395
  0
LINE
  8
0
 10
80.3072
 20
4.23395
 11
80.1839
 21
4.35721
  0
LINE
  8
0
 10
80.1839
 20
4.35721
 11
80.084
 21
4.5
  0
LINE
  8
0
 10
80.084
 20
4.5
 11
80.0103
 21
4.65797
  0
LINE
  8
0
 10
80.0103
 20
4.65797
 11
79.9652
 21
4.82634
  0
LINE
  8
0
 10
79.9652
 20
4.82634
 11
79.95
 21
5
  0
LINE
  8
0
 10
79.95
 20
5
 11
79.9652
 21
5.17365
  0
LINE
  8
0
 10
79.9652
 20
5.17365
 11
80.0103
 21
5.34201
  0
LINE
  8
0
 10
80.0103
 20
5.34201
 11
80.084
 21
5.5
  0
LINE
  8
0
 10
80.084
 20
5.5
 11
80.1839
 21
5.64278
  0
LINE
  8
0
 10
80.1839
 20
5.64278
 11
80.3072
 21
5.76604
  0
LINE
  8
0
 10
80.3072
 20
5.76604
 11
80.45
 21
5.86601
  0
LINE
  8
0
 10
80.45
 20
5.86601
 11
80.608
 21
5.93968
  0
LINE
  8
0
 10
80.608
 20
5.93968
 11
80.7764
 21
5.9848
  0
LINE
  8
0
 10
80.7764
 20
5.9848
 11
80.95
 21
6
  0
LINE
  8
0
 10
80.95
 20
6
 11
81.1236
 21
5.9848
  0
LINE
  8
0
 10
81.1236
 20
5.9848
 11
81.292
 21
5.93968
  0
LINE
  8
0
 10
81.292
 20
5.93968
 11
81.45
 21
5.86601
  0
LINE
  8
0
 10
81.45
 20
5.86601
 11
81.5928
 21
5.76604
  0
LINE
  8
0
 10
81.5928
 20
5.76604
 11
81.716
 21
5.64278
  0
LINE
  8
0
 10
81.716
 20
5.64278
 11
81.816
 21
5.5
  0
LINE
  8
0
 10
81.816
 20
5.5
 11
81.8897
 21
5.34201
  0
LINE
  8
0
 10
81.8897
 20
5.34201
 11
81.9348
 21
5.17365
  0
LINE
  8
0
 10
81.9348
 20
5.17365
 11
81.95
 21
5
  0
LINE
  8
0
 10
81.95
 20
5
 11
81.9348
 21
4.82634
  0
LINE
  8
0
 10
81.9348
 20
4.82634
 11
81.8897
 21
4.65797
  0
LINE
  8
0
 10
81.8897
 20
4.65797
 11
81.816
 21
4.5
  0
LINE
  8
0
 10
81.816
 20
4.5
 11
81.716
 21
4.35721
  0
LINE
  8
0
 10
81.716
 20
4.35721
 11
81.5928
 21
4.23395
  0
LINE
  8
0
 10
81.5928
 20
4.23395
 11
81.45
 21
4.13397
  0
LINE
  8
0
 10
81.45
 20
4.13397
 11
81.292
 21
4.0603
  0
LINE
  8
0
 10
81.292
 20
4.0603
 11
81.1236
 21
4.01518
  0
LINE
  8
0
 10
81.1236
 20
4.01518
 11
80.95
 21
4
  0
LINE
  8
0
 10
80.95
 20
4
 11
80.7764
 21
4.01518
  0
ENDSEC
  0
SECTION
  2
OBJECTS
  0
DICTIONARY
  0
ENDSEC
  0
EOF
