  0
SECTION
  2
BLOCKS
  0
ENDSEC
  0
SECTION
  2
ENTITIES
  0
LINE
  8
0
 10
40.4395
 20
-40.98
 11
45.01
 21
-40.98
  0
LINE
  8
0
 10
45.01
 20
-40.98
 11
45.0706
 21
-40.9795
  0
LINE
  8
0
 10
45.0706
 20
-40.9795
 11
45.1311
 21
-40.9779
  0
LINE
  8
0
 10
45.1311
 20
-40.9779
 11
45.1916
 21
-40.9752
  0
LINE
  8
0
 10
45.1916
 20
-40.9752
 11
45.252
 21
-40.9715
  0
LINE
  8
0
 10
45.252
 20
-40.9715
 11
45.3124
 21
-40.9668
  0
LINE
  8
0
 10
45.3124
 20
-40.9668
 11
45.3727
 21
-40.961
  0
LINE
  8
0
 10
45.3727
 20
-40.961
 11
45.4329
 21
-40.9541
  0
LINE
  8
0
 10
45.4329
 20
-40.9541
 11
45.4929
 21
-40.9462
  0
LINE
  8
0
 10
45.4929
 20
-40.9462
 11
45.5528
 21
-40.9373
  0
LINE
  8
0
 10
45.5528
 20
-40.9373
 11
45.6125
 21
-40.9273
  0
LINE
  8
0
 10
45.6125
 20
-40.9273
 11
45.6721
 21
-40.9162
  0
LINE
  8
0
 10
45.6721
 20
-40.9162
 11
45.7314
 21
-40.9042
  0
LINE
  8
0
 10
45.7314
 20
-40.9042
 11
45.7906
 21
-40.8911
  0
LINE
  8
0
 10
45.7906
 20
-40.8911
 11
45.8495
 21
-40.8769
  0
LINE
  8
0
 10
45.8495
 20
-40.8769
 11
45.9081
 21
-40.8618
  0
LINE
  8
0
 10
45.9081
 20
-40.8618
 11
45.9665
 21
-40.8456
  0
LINE
  8
0
 10
45.9665
 20
-40.8456
 11
46.0245
 21
-40.8284
  0
LINE
  8
0
 10
46.0245
 20
-40.8284
 11
46.0823
 21
-40.8102
  0
LINE
  8
0
 10
46.0823
 20
-40.8102
 11
46.1397
 21
-40.7909
  0
LINE
  8
0
 10
46.1397
 20
-40.7909
 11
46.1968
 21
-40.7707
  0
LINE
  8
0
 10
46.1968
 20
-40.7707
 11
46.2535
 21
-40.7495
  0
LINE
  8
0
 10
46.2535
 20
-40.7495
 11
46.3099
 21
-40.7273
  0
LINE
  8
0
 10
46.3099
 20
-40.7273
 11
46.3658
 21
-40.7041
  0
LINE
  8
0
 10
46.3658
 20
-40.7041
 11
46.4214
 21
-40.68
  0
LINE
  8
0
 10
46.4214
 20
-40.68
 11
46.4765
 21
-40.6549
  0
LINE
  8
0
 10
46.4765
 20
-40.6549
 11
46.5311
 21
-40.6288
  0
LINE
  8
0
 10
46.5311
 20
-40.6288
 11
46.5853
 21
-40.6018
  0
LINE
  8
0
 10
46.5853
 20
-40.6018
 11
46.6391
 21
-40.5738
  0
LINE
  8
0
 10
46.6391
 20
-40.5738
 11
46.6923
 21
-40.5449
  0
LINE
  8
0
 10
46.6923
 20
-40.5449
 11
46.745
 21
-40.5151
  0
LINE
  8
0
 10
46.745
 20
-40.5151
 11
46.7972
 21
-40.4844
  0
LINE
  8
0
 10
46.7972
 20
-40.4844
 11
46.8488
 21
-40.4527
  0
LINE
  8
0
 10
46.8488
 20
-40.4527
 11
46.8999
 21
-40.4202
  0
LINE
  8
0
 10
46.8999
 20
-40.4202
 11
46.9504
 21
-40.3867
  0
LINE
  8
0
 10
46.9504
 20
-40.3867
 11
47.0003
 21
-40.3524
  0
LINE
  8
0
 10
47.0003
 20
-40.3524
 11
47.0496
 21
-40.3173
  0
LINE
  8
0
 10
47.0496
 20
-40.3173
 11
47.0983
 21
-40.2812
  0
LINE
  8
0
 10
47.0983
 20
-40.2812
 11
47.1463
 21
-40.2444
  0
LINE
  8
0
 10
47.1463
 20
-40.2444
 11
47.1937
 21
-40.2067
  0
LINE
  8
0
 10
47.1937
 20
-40.2067
 11
47.2405
 21
-40.1682
  0
LINE
  8
0
 10
47.2405
 20
-40.1682
 11
47.2865
 21
-40.1288
  0
LINE
  8
0
 10
47.2865
 20
-40.1288
 11
47.3319
 21
-40.0887
  0
LINE
  8
0
 10
47.3319
 20
-40.0887
 11
47.3765
 21
-40.0478
  0
LINE
  8
0
 10
47.3765
 20
-40.0478
 11
47.4205
 21
-40.0061
  0
LINE
  8
0
 10
47.4205
 20
-40.0061
 11
47.4637
 21
-39.9637
  0
LINE
  8
0
 10
47.4637
 20
-39.9637
 11
47.5061
 21
-39.9205
  0
LINE
  8
0
 10
47.5061
 20
-39.9205
 11
47.5478
 21
-39.8765
  0
LINE
  8
0
 10
47.5478
 20
-39.8765
 11
47.5887
 21
-39.8319
  0
LINE
  8
0
 10
47.5887
 20
-39.8319
 11
47.6288
 21
-39.7865
  0
LINE
  8
0
 10
47.6288
 20
-39.7865
 11
47.6682
 21
-39.7405
  0
LINE
  8
0
 10
47.6682
 20
-39.7405
 11
47.7067
 21
-39.6937
  0
LINE
  8
0
 10
47.7067
 20
-39.6937
 11
47.7444
 21
-39.6463
  0
LINE
  8
0
 10
47.7444
 20
-39.6463
 11
47.7812
 21
-39.5983
  0
LINE
  8
0
 10
47.7812
 20
-39.5983
 11
47.8173
 21
-39.5496
  0
LINE
  8
0
 10
47.8173
 20
-39.5496
 11
47.8524
 21
-39.5003
  0
LINE
  8
0
 10
47.8524
 20
-39.5003
 11
47.8867
 21
-39.4504
  0
LINE
  8
0
 10
47.8867
 20
-39.4504
 11
47.9202
 21
-39.3999
  0
LINE
  8
0
 10
47.9202
 20
-39.3999
 11
47.9527
 21
-39.3488
  0
LINE
  8
0
 10
47.9527
 20
-39.3488
 11
47.9844
 21
-39.2972
  0
LINE
  8
0
 10
47.9844
 20
-39.2972
 11
48.0151
 21
-39.245
  0
LINE
  8
0
 10
48.0151
 20
-39.245
 11
48.0449
 21
-39.1923
  0
LINE
  8
0
 10
48.0449
 20
-39.1923
 11
48.0738
 21
-39.1391
  0
LINE
  8
0
 10
48.0738
 20
-39.1391
 11
48.1018
 21
-39.0853
  0
LINE
  8
0
 10
48.1018
 20
-39.0853
 11
48.1288
 21
-39.0311
  0
LINE
  8
0
 10
48.1288
 20
-39.0311
 11
48.1549
 21
-38.9765
  0
LINE
  8
0
 10
48.1549
 20
-38.9765
 11
48.18
 21
-38.9214
  0
LINE
  8
0
 10
48.18
 20
-38.9214
 11
48.2041
 21
-38.8658
  0
LINE
  8
0
 10
48.2041
 20
-38.8658
 11
48.2273
 21
-38.8099
  0
LINE
  8
0
 10
48.2273
 20
-38.8099
 11
48.2495
 21
-38.7535
  0
LINE
  8
0
 10
48.2495
 20
-38.7535
 11
48.2707
 21
-38.6968
  0
LINE
  8
0
 10
48.2707
 20
-38.6968
 11
48.2909
 21
-38.6397
  0
LINE
  8
0
 10
48.2909
 20
-38.6397
 11
48.3102
 21
-38.5823
  0
LINE
  8
0
 10
48.3102
 20
-38.5823
 11
48.3284
 21
-38.5245
  0
LINE
  8
0
 10
48.3284
 20
-38.5245
 11
48.3456
 21
-38.4665
  0
LINE
  8
0
 10
48.3456
 20
-38.4665
 11
48.3618
 21
-38.4081
  0
LINE
  8
0
 10
48.3618
 20
-38.4081
 11
48.3769
 21
-38.3495
  0
LINE
  8
0
 10
48.3769
 20
-38.3495
 11
48.3911
 21
-38.2906
  0
LINE
  8
0
 10
48.3911
 20
-38.2906
 11
48.4042
 21
-38.2314
  0
LINE
  8
0
 10
48.4042
 20
-38.2314
 11
48.4162
 21
-38.1721
  0
LINE
  8
0
 10
48.4162
 20
-38.1721
 11
48.4273
 21
-38.1125
  0
LINE
  8
0
 10
48.4273
 20
-38.1125
 11
48.4373
 21
-38.0528
  0
LINE
  8
0
 10
48.4373
 20
-38.0528
 11
48.4462
 21
-37.9929
  0
LINE
  8
0
 10
48.4462
 20
-37.9929
 11
48.4541
 21
-37.9329
  0
LINE
  8
0
 10
48.4541
 20
-37.9329
 11
48.461
 21
-37.8727
  0
LINE
  8
0
 10
48.461
 20
-37.8727
 11
48.4668
 21
-37.8124
  0
LINE
  8
0
 10
48.4668
 20
-37.8124
 11
48.4715
 21
-37.752
  0
LINE
  8
0
 10
48.4715
 20
-37.752
 11
48.4752
 21
-37.6916
  0
LINE
  8
0
 10
48.4752
 20
-37.6916
 11
48.4779
 21
-37.6311
  0
LINE
  8
0
 10
48.4779
 20
-37.6311
 11
48.4795
 21
-37.5706
  0
LINE
  8
0
 10
48.4795
 20
-37.5706
 11
48.48
 21
-37.51
  0
LINE
  8
0
 10
48.48
 20
-37.51
 11
48.48
 21
-11.51
  0
LINE
  8
0
 10
48.48
 20
-11.51
 11
48.4799
 21
-11.51
  0
LINE
  8
0
 10
48.4799
 20
-11.51
 11
48.48
 21
-11.5
  0
LINE
  8
0
 10
48.48
 20
-11.5
 11
48.4795
 21
-11.4394
  0
LINE
  8
0
 10
48.4795
 20
-11.4394
 11
48.4779
 21
-11.3789
  0
LINE
  8
0
 10
48.4779
 20
-11.3789
 11
48.4752
 21
-11.3184
  0
LINE
  8
0
 10
48.4752
 20
-11.3184
 11
48.4715
 21
-11.2579
  0
LINE
  8
0
 10
48.4715
 20
-11.2579
 11
48.4668
 21
-11.1976
  0
LINE
  8
0
 10
48.4668
 20
-11.1976
 11
48.461
 21
-11.1373
  0
LINE
  8
0
 10
48.461
 20
-11.1373
 11
48.4541
 21
-11.0771
  0
LINE
  8
0
 10
48.4541
 20
-11.0771
 11
48.4462
 21
-11.0171
  0
LINE
  8
0
 10
48.4462
 20
-11.0171
 11
48.4373
 21
-10.9572
  0
LINE
  8
0
 10
48.4373
 20
-10.9572
 11
48.4273
 21
-10.8974
  0
LINE
  8
0
 10
48.4273
 20
-10.8974
 11
48.4162
 21
-10.8379
  0
LINE
  8
0
 10
48.4162
 20
-10.8379
 11
48.4042
 21
-10.7785
  0
LINE
  8
0
 10
48.4042
 20
-10.7785
 11
48.3911
 21
-10.7194
  0
LINE
  8
0
 10
48.3911
 20
-10.7194
 11
48.3769
 21
-10.6605
  0
LINE
  8
0
 10
48.3769
 20
-10.6605
 11
48.3618
 21
-10.6019
  0
LINE
  8
0
 10
48.3618
 20
-10.6019
 11
48.3456
 21
-10.5435
  0
LINE
  8
0
 10
48.3456
 20
-10.5435
 11
48.3284
 21
-10.4855
  0
LINE
  8
0
 10
48.3284
 20
-10.4855
 11
48.3102
 21
-10.4277
  0
LINE
  8
0
 10
48.3102
 20
-10.4277
 11
48.2909
 21
-10.3703
  0
LINE
  8
0
 10
48.2909
 20
-10.3703
 11
48.2707
 21
-10.3132
  0
LINE
  8
0
 10
48.2707
 20
-10.3132
 11
48.2495
 21
-10.2565
  0
LINE
  8
0
 10
48.2495
 20
-10.2565
 11
48.2273
 21
-10.2001
  0
LINE
  8
0
 10
48.2273
 20
-10.2001
 11
48.2041
 21
-10.1441
  0
LINE
  8
0
 10
48.2041
 20
-10.1441
 11
48.18
 21
-10.0886
  0
LINE
  8
0
 10
48.18
 20
-10.0886
 11
48.1549
 21
-10.0335
  0
LINE
  8
0
 10
48.1549
 20
-10.0335
 11
48.1288
 21
-9.97885
  0
LINE
  8
0
 10
48.1288
 20
-9.97885
 11
48.1018
 21
-9.92465
  0
LINE
  8
0
 10
48.1018
 20
-9.92465
 11
48.0738
 21
-9.87093
  0
LINE
  8
0
 10
48.0738
 20
-9.87093
 11
48.0449
 21
-9.8177
  0
LINE
  8
0
 10
48.0449
 20
-9.8177
 11
48.0151
 21
-9.765
  0
LINE
  8
0
 10
48.0151
 20
-9.765
 11
47.9844
 21
-9.71281
  0
LINE
  8
0
 10
47.9844
 20
-9.71281
 11
47.9527
 21
-9.66118
  0
LINE
  8
0
 10
47.9527
 20
-9.66118
 11
47.9202
 21
-9.61009
  0
LINE
  8
0
 10
47.9202
 20
-9.61009
 11
47.8867
 21
-9.55959
  0
LINE
  8
0
 10
47.8867
 20
-9.55959
 11
47.8524
 21
-9.50969
  0
LINE
  8
0
 10
47.8524
 20
-9.50969
 11
47.8173
 21
-9.46037
  0
LINE
  8
0
 10
47.8173
 20
-9.46037
 11
47.7812
 21
-9.4117
  0
LINE
  8
0
 10
47.7812
 20
-9.4117
 11
47.7444
 21
-9.36365
  0
LINE
  8
0
 10
47.7444
 20
-9.36365
 11
47.7067
 21
-9.31625
  0
LINE
  8
0
 10
47.7067
 20
-9.31625
 11
47.6682
 21
-9.26952
  0
LINE
  8
0
 10
47.6682
 20
-9.26952
 11
47.6288
 21
-9.22346
  0
LINE
  8
0
 10
47.6288
 20
-9.22346
 11
47.5887
 21
-9.17812
  0
LINE
  8
0
 10
47.5887
 20
-9.17812
 11
47.5478
 21
-9.13345
  0
LINE
  8
0
 10
47.5478
 20
-9.13345
 11
47.5061
 21
-9.08952
  0
LINE
  8
0
 10
47.5061
 20
-9.08952
 11
47.4637
 21
-9.04633
  0
LINE
  8
0
 10
47.4637
 20
-9.04633
 11
47.4205
 21
-9.00388
  0
LINE
  8
0
 10
47.4205
 20
-9.00388
 11
47.3765
 21
-8.96219
  0
LINE
  8
0
 10
47.3765
 20
-8.96219
 11
47.3319
 21
-8.92128
  0
LINE
  8
0
 10
47.3319
 20
-8.92128
 11
47.2865
 21
-8.88115
  0
LINE
  8
0
 10
47.2865
 20
-8.88115
 11
47.2405
 21
-8.84181
  0
LINE
  8
0
 10
47.2405
 20
-8.84181
 11
47.1937
 21
-8.8033
  0
LINE
  8
0
 10
47.1937
 20
-8.8033
 11
47.1463
 21
-8.76559
  0
LINE
  8
0
 10
47.1463
 20
-8.76559
 11
47.0983
 21
-8.72873
  0
LINE
  8
0
 10
47.0983
 20
-8.72873
 11
47.0496
 21
-8.6927
  0
LINE
  8
0
 10
47.0496
 20
-8.6927
 11
47.0003
 21
-8.65753
  0
LINE
  8
0
 10
47.0003
 20
-8.65753
 11
46.9504
 21
-8.62323
  0
LINE
  8
0
 10
46.9504
 20
-8.62323
 11
46.8999
 21
-8.5898
  0
LINE
  8
0
 10
46.8999
 20
-8.5898
 11
46.8488
 21
-8.55727
  0
LINE
  8
0
 10
46.8488
 20
-8.55727
 11
46.7972
 21
-8.52562
  0
LINE
  8
0
 10
46.7972
 20
-8.52562
 11
46.745
 21
-8.49489
  0
LINE
  8
0
 10
46.745
 20
-8.49489
 11
46.6923
 21
-8.46506
  0
LINE
  8
0
 10
46.6923
 20
-8.46506
 11
46.6391
 21
-8.43616
  0
LINE
  8
0
 10
46.6391
 20
-8.43616
 11
46.5853
 21
-8.4082
  0
LINE
  8
0
 10
46.5853
 20
-8.4082
 11
46.5311
 21
-8.38118
  0
LINE
  8
0
 10
46.5311
 20
-8.38118
 11
46.4765
 21
-8.3551
  0
LINE
  8
0
 10
46.4765
 20
-8.3551
 11
46.4214
 21
-8.32999
  0
LINE
  8
0
 10
46.4214
 20
-8.32999
 11
46.3658
 21
-8.30585
  0
LINE
  8
0
 10
46.3658
 20
-8.30585
 11
46.3099
 21
-8.28267
  0
LINE
  8
0
 10
46.3099
 20
-8.28267
 11
46.2535
 21
-8.26047
  0
LINE
  8
0
 10
46.2535
 20
-8.26047
 11
46.1968
 21
-8.23926
  0
LINE
  8
0
 10
46.1968
 20
-8.23926
 11
46.1394
 21
-8.21895
  0
LINE
  8
0
 10
46.1394
 20
-8.21895
 11
46.14
 21
-8.215
  0
LINE
  8
0
 10
46.14
 20
-8.215
 11
46.0705
 21
-8.19611
  0
LINE
  8
0
 10
46.0705
 20
-8.19611
 11
46.0245
 21
-8.18161
  0
LINE
  8
0
 10
46.0245
 20
-8.18161
 11
45.9665
 21
-8.16441
  0
LINE
  8
0
 10
45.9665
 20
-8.16441
 11
45.9081
 21
-8.14822
  0
LINE
  8
0
 10
45.9081
 20
-8.14822
 11
45.8495
 21
-8.13307
  0
LINE
  8
0
 10
45.8495
 20
-8.13307
 11
45.7906
 21
-8.11893
  0
LINE
  8
0
 10
45.7906
 20
-8.11893
 11
45.7681
 21
-8.11394
  0
LINE
  8
0
 10
45.7681
 20
-8.11394
 11
15.9055
 21
0
  0
LINE
  8
0
 10
15.9055
 20
0
 11
15.9031
 21
0.277588
  0
LINE
  8
0
 10
15.9031
 20
0.277588
 11
15.8958
 21
0.555084
  0
LINE
  8
0
 10
15.8958
 20
0.555084
 11
15.8837
 21
0.832428
  0
LINE
  8
0
 10
15.8837
 20
0.832428
 11
15.8667
 21
1.1095
  0
LINE
  8
0
 10
15.8667
 20
1.1095
 11
15.845
 21
1.38625
  0
LINE
  8
0
 10
15.845
 20
1.38625
 11
15.8184
 21
1.66257
  0
LINE
  8
0
 10
15.8184
 20
1.66257
 11
15.7869
 21
1.93839
  0
LINE
  8
0
 10
15.7869
 20
1.93839
 11
15.7507
 21
2.21361
  0
LINE
  8
0
 10
15.7507
 20
2.21361
 11
15.7097
 21
2.48816
  0
LINE
  8
0
 10
15.7097
 20
2.48816
 11
15.6638
 21
2.76195
  0
LINE
  8
0
 10
15.6638
 20
2.76195
 11
15.6133
 21
3.03491
  0
LINE
  8
0
 10
15.6133
 20
3.03491
 11
15.5579
 21
3.30693
  0
LINE
  8
0
 10
15.5579
 20
3.30693
 11
15.4978
 21
3.57796
  0
LINE
  8
0
 10
15.4978
 20
3.57796
 11
15.433
 21
3.84789
  0
LINE
  8
0
 10
15.433
 20
3.84789
 11
15.3635
 21
4.11664
  0
LINE
  8
0
 10
15.3635
 20
4.11664
 11
15.2893
 21
4.38414
  0
LINE
  8
0
 10
15.2893
 20
4.38414
 11
15.2105
 21
4.65031
  0
LINE
  8
0
 10
15.2105
 20
4.65031
 11
15.127
 21
4.91507
  0
LINE
  8
0
 10
15.127
 20
4.91507
 11
15.0389
 21
5.17831
  0
LINE
  8
0
 10
15.0389
 20
5.17831
 11
14.9463
 21
5.43999
  0
LINE
  8
0
 10
14.9463
 20
5.43999
 11
14.8491
 21
5.70001
  0
LINE
  8
0
 10
14.8491
 20
5.70001
 11
14.7473
 21
5.9583
  0
LINE
  8
0
 10
14.7473
 20
5.9583
 11
14.6411
 21
6.21477
  0
LINE
  8
0
 10
14.6411
 20
6.21477
 11
14.5304
 21
6.46935
  0
LINE
  8
0
 10
14.5304
 20
6.46935
 11
14.4153
 21
6.72195
  0
LINE
  8
0
 10
14.4153
 20
6.72195
 11
14.2958
 21
6.9725
  0
LINE
  8
0
 10
14.2958
 20
6.9725
 11
14.1719
 21
7.22093
  0
LINE
  8
0
 10
14.1719
 20
7.22093
 11
14.0437
 21
7.46718
  0
LINE
  8
0
 10
14.0437
 20
7.46718
 11
13.9113
 21
7.71114
  0
LINE
  8
0
 10
13.9113
 20
7.71114
 11
13.7746
 21
7.95274
  0
LINE
  8
0
 10
13.7746
 20
7.95274
 11
13.6337
 21
8.19193
  0
LINE
  8
0
 10
13.6337
 20
8.19193
 11
13.4886
 21
8.42862
  0
LINE
  8
0
 10
13.4886
 20
8.42862
 11
13.3395
 21
8.66275
  0
LINE
  8
0
 10
13.3395
 20
8.66275
 11
13.1862
 21
8.89424
  0
LINE
  8
0
 10
13.1862
 20
8.89424
 11
13.029
 21
9.12302
  0
LINE
  8
0
 10
13.029
 20
9.12302
 11
12.8678
 21
9.34901
  0
LINE
  8
0
 10
12.8678
 20
9.34901
 11
12.7027
 21
9.57216
  0
LINE
  8
0
 10
12.7027
 20
9.57216
 11
12.5337
 21
9.79239
  0
LINE
  8
0
 10
12.5337
 20
9.79239
 11
12.3609
 21
10.0096
  0
LINE
  8
0
 10
12.3609
 20
10.0096
 11
12.1843
 21
10.2238
  0
LINE
  8
0
 10
12.1843
 20
10.2238
 11
12.004
 21
10.4349
  0
LINE
  8
0
 10
12.004
 20
10.4349
 11
11.8201
 21
10.6429
  0
LINE
  8
0
 10
11.8201
 20
10.6429
 11
11.6325
 21
10.8475
  0
LINE
  8
0
 10
11.6325
 20
10.8475
 11
11.4415
 21
11.0489
  0
LINE
  8
0
 10
11.4415
 20
11.0489
 11
11.2469
 21
11.2469
  0
LINE
  8
0
 10
11.2469
 20
11.2469
 11
11.0489
 21
11.4415
  0
LINE
  8
0
 10
11.0489
 20
11.4415
 11
10.8475
 21
11.6325
  0
LINE
  8
0
 10
10.8475
 20
11.6325
 11
10.6429
 21
11.8201
  0
LINE
  8
0
 10
10.6429
 20
11.8201
 11
10.4349
 21
12.004
  0
LINE
  8
0
 10
10.4349
 20
12.004
 11
10.2238
 21
12.1843
  0
LINE
  8
0
 10
10.2238
 20
12.1843
 11
10.0096
 21
12.3609
  0
LINE
  8
0
 10
10.0096
 20
12.3609
 11
9.79239
 21
12.5337
  0
LINE
  8
0
 10
9.79239
 20
12.5337
 11
9.57216
 21
12.7027
  0
LINE
  8
0
 10
9.57216
 20
12.7027
 11
9.34901
 21
12.8678
  0
LINE
  8
0
 10
9.34901
 20
12.8678
 11
9.12302
 21
13.029
  0
LINE
  8
0
 10
9.12302
 20
13.029
 11
8.89424
 21
13.1862
  0
LINE
  8
0
 10
8.89424
 20
13.1862
 11
8.66275
 21
13.3395
  0
LINE
  8
0
 10
8.66275
 20
13.3395
 11
8.42862
 21
13.4886
  0
LINE
  8
0
 10
8.42862
 20
13.4886
 11
8.19193
 21
13.6337
  0
LINE
  8
0
 10
8.19193
 20
13.6337
 11
7.95274
 21
13.7746
  0
LINE
  8
0
 10
7.95274
 20
13.7746
 11
7.71114
 21
13.9113
  0
LINE
  8
0
 10
7.71114
 20
13.9113
 11
7.46718
 21
14.0437
  0
LINE
  8
0
 10
7.46718
 20
14.0437
 11
7.22093
 21
14.1719
  0
LINE
  8
0
 10
7.22093
 20
14.1719
 11
6.9725
 21
14.2958
  0
LINE
  8
0
 10
6.9725
 20
14.2958
 11
6.72195
 21
14.4153
  0
LINE
  8
0
 10
6.72195
 20
14.4153
 11
6.46935
 21
14.5304
  0
LINE
  8
0
 10
6.46935
 20
14.5304
 11
6.21477
 21
14.6411
  0
LINE
  8
0
 10
6.21477
 20
14.6411
 11
5.9583
 21
14.7473
  0
LINE
  8
0
 10
5.9583
 20
14.7473
 11
5.70001
 21
14.8491
  0
LINE
  8
0
 10
5.70001
 20
14.8491
 11
5.43999
 21
14.9463
  0
LINE
  8
0
 10
5.43999
 20
14.9463
 11
5.17831
 21
15.0389
  0
LINE
  8
0
 10
5.17831
 20
15.0389
 11
4.91507
 21
15.127
  0
LINE
  8
0
 10
4.91507
 20
15.127
 11
4.65031
 21
15.2105
  0
LINE
  8
0
 10
4.65031
 20
15.2105
 11
4.38414
 21
15.2893
  0
LINE
  8
0
 10
4.38414
 20
15.2893
 11
4.11664
 21
15.3635
  0
LINE
  8
0
 10
4.11664
 20
15.3635
 11
3.84789
 21
15.433
  0
LINE
  8
0
 10
3.84789
 20
15.433
 11
3.57796
 21
15.4978
  0
LINE
  8
0
 10
3.57796
 20
15.4978
 11
3.30693
 21
15.5579
  0
LINE
  8
0
 10
3.30693
 20
15.5579
 11
3.03491
 21
15.6133
  0
LINE
  8
0
 10
3.03491
 20
15.6133
 11
2.76195
 21
15.6638
  0
LINE
  8
0
 10
2.76195
 20
15.6638
 11
2.48816
 21
15.7097
  0
LINE
  8
0
 10
2.48816
 20
15.7097
 11
2.21361
 21
15.7507
  0
LINE
  8
0
 10
2.21361
 20
15.7507
 11
1.93839
 21
15.7869
  0
LINE
  8
0
 10
1.93839
 20
15.7869
 11
1.66257
 21
15.8184
  0
LINE
  8
0
 10
1.66257
 20
15.8184
 11
1.38625
 21
15.845
  0
LINE
  8
0
 10
1.38625
 20
15.845
 11
1.1095
 21
15.8667
  0
LINE
  8
0
 10
1.1095
 20
15.8667
 11
0.832428
 21
15.8837
  0
LINE
  8
0
 10
0.832428
 20
15.8837
 11
0.555084
 21
15.8958
  0
LINE
  8
0
 10
0.555084
 20
15.8958
 11
0.277588
 21
15.9031
  0
LINE
  8
0
 10
0.277588
 20
15.9031
 11
0
 21
15.9055
  0
LINE
  8
0
 10
0
 20
15.9055
 11
-0.277588
 21
15.9031
  0
LINE
  8
0
 10
-0.277588
 20
15.9031
 11
-0.555084
 21
15.8958
  0
LINE
  8
0
 10
-0.555084
 20
15.8958
 11
-0.832428
 21
15.8837
  0
LINE
  8
0
 10
-0.832428
 20
15.8837
 11
-1.1095
 21
15.8667
  0
LINE
  8
0
 10
-1.1095
 20
15.8667
 11
-1.38625
 21
15.845
  0
LINE
  8
0
 10
-1.38625
 20
15.845
 11
-1.66257
 21
15.8184
  0
LINE
  8
0
 10
-1.66257
 20
15.8184
 11
-1.93839
 21
15.7869
  0
LINE
  8
0
 10
-1.93839
 20
15.7869
 11
-2.21361
 21
15.7507
  0
LINE
  8
0
 10
-2.21361
 20
15.7507
 11
-2.48816
 21
15.7097
  0
LINE
  8
0
 10
-2.48816
 20
15.7097
 11
-2.76195
 21
15.6638
  0
LINE
  8
0
 10
-2.76195
 20
15.6638
 11
-3.03491
 21
15.6133
  0
LINE
  8
0
 10
-3.03491
 20
15.6133
 11
-3.30693
 21
15.5579
  0
LINE
  8
0
 10
-3.30693
 20
15.5579
 11
-3.57796
 21
15.4978
  0
LINE
  8
0
 10
-3.57796
 20
15.4978
 11
-3.84789
 21
15.433
  0
LINE
  8
0
 10
-3.84789
 20
15.433
 11
-4.11664
 21
15.3635
  0
LINE
  8
0
 10
-4.11664
 20
15.3635
 11
-4.38414
 21
15.2893
  0
LINE
  8
0
 10
-4.38414
 20
15.2893
 11
-4.65031
 21
15.2105
  0
LINE
  8
0
 10
-4.65031
 20
15.2105
 11
-4.91507
 21
15.127
  0
LINE
  8
0
 10
-4.91507
 20
15.127
 11
-5.17831
 21
15.0389
  0
LINE
  8
0
 10
-5.17831
 20
15.0389
 11
-5.43999
 21
14.9463
  0
LINE
  8
0
 10
-5.43999
 20
14.9463
 11
-5.70001
 21
14.8491
  0
LINE
  8
0
 10
-5.70001
 20
14.8491
 11
-5.9583
 21
14.7473
  0
LINE
  8
0
 10
-5.9583
 20
14.7473
 11
-6.21477
 21
14.6411
  0
LINE
  8
0
 10
-6.21477
 20
14.6411
 11
-6.46935
 21
14.5304
  0
LINE
  8
0
 10
-6.46935
 20
14.5304
 11
-6.72195
 21
14.4153
  0
LINE
  8
0
 10
-6.72195
 20
14.4153
 11
-6.9725
 21
14.2958
  0
LINE
  8
0
 10
-6.9725
 20
14.2958
 11
-7.22093
 21
14.1719
  0
LINE
  8
0
 10
-7.22093
 20
14.1719
 11
-7.46718
 21
14.0437
  0
LINE
  8
0
 10
-7.46718
 20
14.0437
 11
-7.71114
 21
13.9113
  0
LINE
  8
0
 10
-7.71114
 20
13.9113
 11
-7.95274
 21
13.7746
  0
LINE
  8
0
 10
-7.95274
 20
13.7746
 11
-8.19193
 21
13.6337
  0
LINE
  8
0
 10
-8.19193
 20
13.6337
 11
-8.42862
 21
13.4886
  0
LINE
  8
0
 10
-8.42862
 20
13.4886
 11
-8.66275
 21
13.3395
  0
LINE
  8
0
 10
-8.66275
 20
13.3395
 11
-8.89424
 21
13.1862
  0
LINE
  8
0
 10
-8.89424
 20
13.1862
 11
-9.12302
 21
13.029
  0
LINE
  8
0
 10
-9.12302
 20
13.029
 11
-9.34901
 21
12.8678
  0
LINE
  8
0
 10
-9.34901
 20
12.8678
 11
-9.57216
 21
12.7027
  0
LINE
  8
0
 10
-9.57216
 20
12.7027
 11
-9.79239
 21
12.5337
  0
LINE
  8
0
 10
-9.79239
 20
12.5337
 11
-10.0096
 21
12.3609
  0
LINE
  8
0
 10
-10.0096
 20
12.3609
 11
-10.2238
 21
12.1843
  0
LINE
  8
0
 10
-10.2238
 20
12.1843
 11
-10.4349
 21
12.004
  0
LINE
  8
0
 10
-10.4349
 20
12.004
 11
-10.6429
 21
11.8201
  0
LINE
  8
0
 10
-10.6429
 20
11.8201
 11
-10.8475
 21
11.6325
  0
LINE
  8
0
 10
-10.8475
 20
11.6325
 11
-11.0489
 21
11.4415
  0
LINE
  8
0
 10
-11.0489
 20
11.4415
 11
-11.2469
 21
11.2469
  0
LINE
  8
0
 10
-11.2469
 20
11.2469
 11
-11.4415
 21
11.0489
  0
LINE
  8
0
 10
-11.4415
 20
11.0489
 11
-11.6325
 21
10.8475
  0
LINE
  8
0
 10
-11.6325
 20
10.8475
 11
-11.8201
 21
10.6429
  0
LINE
  8
0
 10
-11.8201
 20
10.6429
 11
-12.004
 21
10.4349
  0
LINE
  8
0
 10
-12.004
 20
10.4349
 11
-12.1843
 21
10.2238
  0
LINE
  8
0
 10
-12.1843
 20
10.2238
 11
-12.3609
 21
10.0096
  0
LINE
  8
0
 10
-12.3609
 20
10.0096
 11
-12.5337
 21
9.79239
  0
LINE
  8
0
 10
-12.5337
 20
9.79239
 11
-12.7027
 21
9.57216
  0
LINE
  8
0
 10
-12.7027
 20
9.57216
 11
-12.8678
 21
9.34901
  0
LINE
  8
0
 10
-12.8678
 20
9.34901
 11
-13.029
 21
9.12302
  0
LINE
  8
0
 10
-13.029
 20
9.12302
 11
-13.1862
 21
8.89424
  0
LINE
  8
0
 10
-13.1862
 20
8.89424
 11
-13.3395
 21
8.66275
  0
LINE
  8
0
 10
-13.3395
 20
8.66275
 11
-13.4886
 21
8.42862
  0
LINE
  8
0
 10
-13.4886
 20
8.42862
 11
-13.6337
 21
8.19193
  0
LINE
  8
0
 10
-13.6337
 20
8.19193
 11
-13.7746
 21
7.95274
  0
LINE
  8
0
 10
-13.7746
 20
7.95274
 11
-13.9113
 21
7.71114
  0
LINE
  8
0
 10
-13.9113
 20
7.71114
 11
-14.0437
 21
7.46718
  0
LINE
  8
0
 10
-14.0437
 20
7.46718
 11
-14.1719
 21
7.22093
  0
LINE
  8
0
 10
-14.1719
 20
7.22093
 11
-14.2958
 21
6.9725
  0
LINE
  8
0
 10
-14.2958
 20
6.9725
 11
-14.4153
 21
6.72195
  0
LINE
  8
0
 10
-14.4153
 20
6.72195
 11
-14.5304
 21
6.46935
  0
LINE
  8
0
 10
-14.5304
 20
6.46935
 11
-14.6411
 21
6.21477
  0
LINE
  8
0
 10
-14.6411
 20
6.21477
 11
-14.7473
 21
5.9583
  0
LINE
  8
0
 10
-14.7473
 20
5.9583
 11
-14.8491
 21
5.70001
  0
LINE
  8
0
 10
-14.8491
 20
5.70001
 11
-14.9463
 21
5.43999
  0
LINE
  8
0
 10
-14.9463
 20
5.43999
 11
-15.0389
 21
5.17831
  0
LINE
  8
0
 10
-15.0389
 20
5.17831
 11
-15.127
 21
4.91507
  0
LINE
  8
0
 10
-15.127
 20
4.91507
 11
-15.2105
 21
4.65031
  0
LINE
  8
0
 10
-15.2105
 20
4.65031
 11
-15.2893
 21
4.38414
  0
LINE
  8
0
 10
-15.2893
 20
4.38414
 11
-15.3635
 21
4.11664
  0
LINE
  8
0
 10
-15.3635
 20
4.11664
 11
-15.433
 21
3.84789
  0
LINE
  8
0
 10
-15.433
 20
3.84789
 11
-15.4978
 21
3.57796
  0
LINE
  8
0
 10
-15.4978
 20
3.57796
 11
-15.5579
 21
3.30693
  0
LINE
  8
0
 10
-15.5579
 20
3.30693
 11
-15.6133
 21
3.03491
  0
LINE
  8
0
 10
-15.6133
 20
3.03491
 11
-15.6638
 21
2.76195
  0
LINE
  8
0
 10
-15.6638
 20
2.76195
 11
-15.7097
 21
2.48816
  0
LINE
  8
0
 10
-15.7097
 20
2.48816
 11
-15.7507
 21
2.21361
  0
LINE
  8
0
 10
-15.7507
 20
2.21361
 11
-15.7869
 21
1.93839
  0
LINE
  8
0
 10
-15.7869
 20
1.93839
 11
-15.8184
 21
1.66257
  0
LINE
  8
0
 10
-15.8184
 20
1.66257
 11
-15.845
 21
1.38625
  0
LINE
  8
0
 10
-15.845
 20
1.38625
 11
-15.8667
 21
1.1095
  0
LINE
  8
0
 10
-15.8667
 20
1.1095
 11
-15.8837
 21
0.832428
  0
LINE
  8
0
 10
-15.8837
 20
0.832428
 11
-15.8958
 21
0.555084
  0
LINE
  8
0
 10
-15.8958
 20
0.555084
 11
-15.9031
 21
0.277588
  0
LINE
  8
0
 10
-15.9031
 20
0.277588
 11
-15.9055
 21
0
  0
LINE
  8
0
 10
-15.9055
 20
0
 11
-45.7681
 21
-8.11394
  0
LINE
  8
0
 10
-45.7681
 20
-8.11394
 11
-45.7906
 21
-8.11893
  0
LINE
  8
0
 10
-45.7906
 20
-8.11893
 11
-45.8495
 21
-8.13307
  0
LINE
  8
0
 10
-45.8495
 20
-8.13307
 11
-45.9081
 21
-8.14822
  0
LINE
  8
0
 10
-45.9081
 20
-8.14822
 11
-45.9665
 21
-8.16441
  0
LINE
  8
0
 10
-45.9665
 20
-8.16441
 11
-46.0245
 21
-8.18161
  0
LINE
  8
0
 10
-46.0245
 20
-8.18161
 11
-46.0705
 21
-8.19611
  0
LINE
  8
0
 10
-46.0705
 20
-8.19611
 11
-46.14
 21
-8.215
  0
LINE
  8
0
 10
-46.14
 20
-8.215
 11
-46.1394
 21
-8.21895
  0
LINE
  8
0
 10
-46.1394
 20
-8.21895
 11
-46.1968
 21
-8.23926
  0
LINE
  8
0
 10
-46.1968
 20
-8.23926
 11
-46.2535
 21
-8.26047
  0
LINE
  8
0
 10
-46.2535
 20
-8.26047
 11
-46.3099
 21
-8.28267
  0
LINE
  8
0
 10
-46.3099
 20
-8.28267
 11
-46.3658
 21
-8.30585
  0
LINE
  8
0
 10
-46.3658
 20
-8.30585
 11
-46.4214
 21
-8.32999
  0
LINE
  8
0
 10
-46.4214
 20
-8.32999
 11
-46.4765
 21
-8.3551
  0
LINE
  8
0
 10
-46.4765
 20
-8.3551
 11
-46.5311
 21
-8.38118
  0
LINE
  8
0
 10
-46.5311
 20
-8.38118
 11
-46.5853
 21
-8.4082
  0
LINE
  8
0
 10
-46.5853
 20
-8.4082
 11
-46.6391
 21
-8.43616
  0
LINE
  8
0
 10
-46.6391
 20
-8.43616
 11
-46.6923
 21
-8.46506
  0
LINE
  8
0
 10
-46.6923
 20
-8.46506
 11
-46.745
 21
-8.49489
  0
LINE
  8
0
 10
-46.745
 20
-8.49489
 11
-46.7972
 21
-8.52562
  0
LINE
  8
0
 10
-46.7972
 20
-8.52562
 11
-46.8488
 21
-8.55727
  0
LINE
  8
0
 10
-46.8488
 20
-8.55727
 11
-46.8999
 21
-8.5898
  0
LINE
  8
0
 10
-46.8999
 20
-8.5898
 11
-46.9504
 21
-8.62323
  0
LINE
  8
0
 10
-46.9504
 20
-8.62323
 11
-47.0003
 21
-8.65753
  0
LINE
  8
0
 10
-47.0003
 20
-8.65753
 11
-47.0496
 21
-8.6927
  0
LINE
  8
0
 10
-47.0496
 20
-8.6927
 11
-47.0983
 21
-8.72873
  0
LINE
  8
0
 10
-47.0983
 20
-8.72873
 11
-47.1463
 21
-8.76559
  0
LINE
  8
0
 10
-47.1463
 20
-8.76559
 11
-47.1937
 21
-8.8033
  0
LINE
  8
0
 10
-47.1937
 20
-8.8033
 11
-47.2405
 21
-8.84181
  0
LINE
  8
0
 10
-47.2405
 20
-8.84181
 11
-47.2865
 21
-8.88115
  0
LINE
  8
0
 10
-47.2865
 20
-8.88115
 11
-47.3319
 21
-8.92128
  0
LINE
  8
0
 10
-47.3319
 20
-8.92128
 11
-47.3765
 21
-8.96219
  0
LINE
  8
0
 10
-47.3765
 20
-8.96219
 11
-47.4205
 21
-9.00388
  0
LINE
  8
0
 10
-47.4205
 20
-9.00388
 11
-47.4637
 21
-9.04633
  0
LINE
  8
0
 10
-47.4637
 20
-9.04633
 11
-47.5061
 21
-9.08952
  0
LINE
  8
0
 10
-47.5061
 20
-9.08952
 11
-47.5478
 21
-9.13345
  0
LINE
  8
0
 10
-47.5478
 20
-9.13345
 11
-47.5887
 21
-9.17812
  0
LINE
  8
0
 10
-47.5887
 20
-9.17812
 11
-47.6288
 21
-9.22346
  0
LINE
  8
0
 10
-47.6288
 20
-9.22346
 11
-47.6682
 21
-9.26952
  0
LINE
  8
0
 10
-47.6682
 20
-9.26952
 11
-47.7067
 21
-9.31625
  0
LINE
  8
0
 10
-47.7067
 20
-9.31625
 11
-47.7444
 21
-9.36365
  0
LINE
  8
0
 10
-47.7444
 20
-9.36365
 11
-47.7812
 21
-9.4117
  0
LINE
  8
0
 10
-47.7812
 20
-9.4117
 11
-47.8173
 21
-9.46037
  0
LINE
  8
0
 10
-47.8173
 20
-9.46037
 11
-47.8524
 21
-9.50969
  0
LINE
  8
0
 10
-47.8524
 20
-9.50969
 11
-47.8867
 21
-9.55959
  0
LINE
  8
0
 10
-47.8867
 20
-9.55959
 11
-47.9202
 21
-9.61009
  0
LINE
  8
0
 10
-47.9202
 20
-9.61009
 11
-47.9527
 21
-9.66118
  0
LINE
  8
0
 10
-47.9527
 20
-9.66118
 11
-47.9844
 21
-9.71281
  0
LINE
  8
0
 10
-47.9844
 20
-9.71281
 11
-48.0151
 21
-9.765
  0
LINE
  8
0
 10
-48.0151
 20
-9.765
 11
-48.0449
 21
-9.8177
  0
LINE
  8
0
 10
-48.0449
 20
-9.8177
 11
-48.0738
 21
-9.87093
  0
LINE
  8
0
 10
-48.0738
 20
-9.87093
 11
-48.1018
 21
-9.92465
  0
LINE
  8
0
 10
-48.1018
 20
-9.92465
 11
-48.1288
 21
-9.97885
  0
LINE
  8
0
 10
-48.1288
 20
-9.97885
 11
-48.1549
 21
-10.0335
  0
LINE
  8
0
 10
-48.1549
 20
-10.0335
 11
-48.18
 21
-10.0886
  0
LINE
  8
0
 10
-48.18
 20
-10.0886
 11
-48.2041
 21
-10.1441
  0
LINE
  8
0
 10
-48.2041
 20
-10.1441
 11
-48.2273
 21
-10.2001
  0
LINE
  8
0
 10
-48.2273
 20
-10.2001
 11
-48.2495
 21
-10.2565
  0
LINE
  8
0
 10
-48.2495
 20
-10.2565
 11
-48.2707
 21
-10.3132
  0
LINE
  8
0
 10
-48.2707
 20
-10.3132
 11
-48.2909
 21
-10.3703
  0
LINE
  8
0
 10
-48.2909
 20
-10.3703
 11
-48.3102
 21
-10.4277
  0
LINE
  8
0
 10
-48.3102
 20
-10.4277
 11
-48.3284
 21
-10.4855
  0
LINE
  8
0
 10
-48.3284
 20
-10.4855
 11
-48.3456
 21
-10.5435
  0
LINE
  8
0
 10
-48.3456
 20
-10.5435
 11
-48.3618
 21
-10.6019
  0
LINE
  8
0
 10
-48.3618
 20
-10.6019
 11
-48.3769
 21
-10.6605
  0
LINE
  8
0
 10
-48.3769
 20
-10.6605
 11
-48.3911
 21
-10.7194
  0
LINE
  8
0
 10
-48.3911
 20
-10.7194
 11
-48.4042
 21
-10.7785
  0
LINE
  8
0
 10
-48.4042
 20
-10.7785
 11
-48.4162
 21
-10.8379
  0
LINE
  8
0
 10
-48.4162
 20
-10.8379
 11
-48.4273
 21
-10.8974
  0
LINE
  8
0
 10
-48.4273
 20
-10.8974
 11
-48.4373
 21
-10.9572
  0
LINE
  8
0
 10
-48.4373
 20
-10.9572
 11
-48.4462
 21
-11.0171
  0
LINE
  8
0
 10
-48.4462
 20
-11.0171
 11
-48.4541
 21
-11.0771
  0
LINE
  8
0
 10
-48.4541
 20
-11.0771
 11
-48.461
 21
-11.1373
  0
LINE
  8
0
 10
-48.461
 20
-11.1373
 11
-48.4668
 21
-11.1976
  0
LINE
  8
0
 10
-48.4668
 20
-11.1976
 11
-48.4715
 21
-11.2579
  0
LINE
  8
0
 10
-48.4715
 20
-11.2579
 11
-48.4752
 21
-11.3184
  0
LINE
  8
0
 10
-48.4752
 20
-11.3184
 11
-48.4779
 21
-11.3789
  0
LINE
  8
0
 10
-48.4779
 20
-11.3789
 11
-48.4795
 21
-11.4394
  0
LINE
  8
0
 10
-48.4795
 20
-11.4394
 11
-48.48
 21
-11.5
  0
LINE
  8
0
 10
-48.48
 20
-11.5
 11
-48.4799
 21
-11.51
  0
LINE
  8
0
 10
-48.4799
 20
-11.51
 11
-48.48
 21
-11.51
  0
LINE
  8
0
 10
-48.48
 20
-11.51
 11
-48.48
 21
-37.51
  0
LINE
  8
0
 10
-48.48
 20
-37.51
 11
-48.4795
 21
-37.5706
  0
LINE
  8
0
 10
-48.4795
 20
-37.5706
 11
-48.4779
 21
-37.6311
  0
LINE
  8
0
 10
-48.4779
 20
-37.6311
 11
-48.4752
 21
-37.6916
  0
LINE
  8
0
 10
-48.4752
 20
-37.6916
 11
-48.4715
 21
-37.752
  0
LINE
  8
0
 10
-48.4715
 20
-37.752
 11
-48.4668
 21
-37.8124
  0
LINE
  8
0
 10
-48.4668
 20
-37.8124
 11
-48.461
 21
-37.8727
  0
LINE
  8
0
 10
-48.461
 20
-37.8727
 11
-48.4541
 21
-37.9329
  0
LINE
  8
0
 10
-48.4541
 20
-37.9329
 11
-48.4462
 21
-37.9929
  0
LINE
  8
0
 10
-48.4462
 20
-37.9929
 11
-48.4373
 21
-38.0528
  0
LINE
  8
0
 10
-48.4373
 20
-38.0528
 11
-48.4273
 21
-38.1125
  0
LINE
  8
0
 10
-48.4273
 20
-38.1125
 11
-48.4162
 21
-38.1721
  0
LINE
  8
0
 10
-48.4162
 20
-38.1721
 11
-48.4042
 21
-38.2314
  0
LINE
  8
0
 10
-48.4042
 20
-38.2314
 11
-48.3911
 21
-38.2906
  0
LINE
  8
0
 10
-48.3911
 20
-38.2906
 11
-48.3769
 21
-38.3495
  0
LINE
  8
0
 10
-48.3769
 20
-38.3495
 11
-48.3618
 21
-38.4081
  0
LINE
  8
0
 10
-48.3618
 20
-38.4081
 11
-48.3456
 21
-38.4665
  0
LINE
  8
0
 10
-48.3456
 20
-38.4665
 11
-48.3284
 21
-38.5245
  0
LINE
  8
0
 10
-48.3284
 20
-38.5245
 11
-48.3102
 21
-38.5823
  0
LINE
  8
0
 10
-48.3102
 20
-38.5823
 11
-48.2909
 21
-38.6397
  0
LINE
  8
0
 10
-48.2909
 20
-38.6397
 11
-48.2707
 21
-38.6968
  0
LINE
  8
0
 10
-48.2707
 20
-38.6968
 11
-48.2495
 21
-38.7535
  0
LINE
  8
0
 10
-48.2495
 20
-38.7535
 11
-48.2273
 21
-38.8099
  0
LINE
  8
0
 10
-48.2273
 20
-38.8099
 11
-48.2041
 21
-38.8658
  0
LINE
  8
0
 10
-48.2041
 20
-38.8658
 11
-48.18
 21
-38.9214
  0
LINE
  8
0
 10
-48.18
 20
-38.9214
 11
-48.1549
 21
-38.9765
  0
LINE
  8
0
 10
-48.1549
 20
-38.9765
 11
-48.1288
 21
-39.0311
  0
LINE
  8
0
 10
-48.1288
 20
-39.0311
 11
-48.1018
 21
-39.0853
  0
LINE
  8
0
 10
-48.1018
 20
-39.0853
 11
-48.0738
 21
-39.1391
  0
LINE
  8
0
 10
-48.0738
 20
-39.1391
 11
-48.0449
 21
-39.1923
  0
LINE
  8
0
 10
-48.0449
 20
-39.1923
 11
-48.0151
 21
-39.245
  0
LINE
  8
0
 10
-48.0151
 20
-39.245
 11
-47.9844
 21
-39.2972
  0
LINE
  8
0
 10
-47.9844
 20
-39.2972
 11
-47.9527
 21
-39.3488
  0
LINE
  8
0
 10
-47.9527
 20
-39.3488
 11
-47.9202
 21
-39.3999
  0
LINE
  8
0
 10
-47.9202
 20
-39.3999
 11
-47.8867
 21
-39.4504
  0
LINE
  8
0
 10
-47.8867
 20
-39.4504
 11
-47.8524
 21
-39.5003
  0
LINE
  8
0
 10
-47.8524
 20
-39.5003
 11
-47.8173
 21
-39.5496
  0
LINE
  8
0
 10
-47.8173
 20
-39.5496
 11
-47.7812
 21
-39.5983
  0
LINE
  8
0
 10
-47.7812
 20
-39.5983
 11
-47.7444
 21
-39.6463
  0
LINE
  8
0
 10
-47.7444
 20
-39.6463
 11
-47.7067
 21
-39.6937
  0
LINE
  8
0
 10
-47.7067
 20
-39.6937
 11
-47.6682
 21
-39.7405
  0
LINE
  8
0
 10
-47.6682
 20
-39.7405
 11
-47.6288
 21
-39.7865
  0
LINE
  8
0
 10
-47.6288
 20
-39.7865
 11
-47.5887
 21
-39.8319
  0
LINE
  8
0
 10
-47.5887
 20
-39.8319
 11
-47.5478
 21
-39.8765
  0
LINE
  8
0
 10
-47.5478
 20
-39.8765
 11
-47.5061
 21
-39.9205
  0
LINE
  8
0
 10
-47.5061
 20
-39.9205
 11
-47.4637
 21
-39.9637
  0
LINE
  8
0
 10
-47.4637
 20
-39.9637
 11
-47.4205
 21
-40.0061
  0
LINE
  8
0
 10
-47.4205
 20
-40.0061
 11
-47.3765
 21
-40.0478
  0
LINE
  8
0
 10
-47.3765
 20
-40.0478
 11
-47.3319
 21
-40.0887
  0
LINE
  8
0
 10
-47.3319
 20
-40.0887
 11
-47.2865
 21
-40.1288
  0
LINE
  8
0
 10
-47.2865
 20
-40.1288
 11
-47.2405
 21
-40.1682
  0
LINE
  8
0
 10
-47.2405
 20
-40.1682
 11
-47.1937
 21
-40.2067
  0
LINE
  8
0
 10
-47.1937
 20
-40.2067
 11
-47.1463
 21
-40.2444
  0
LINE
  8
0
 10
-47.1463
 20
-40.2444
 11
-47.0983
 21
-40.2812
  0
LINE
  8
0
 10
-47.0983
 20
-40.2812
 11
-47.0496
 21
-40.3173
  0
LINE
  8
0
 10
-47.0496
 20
-40.3173
 11
-47.0003
 21
-40.3524
  0
LINE
  8
0
 10
-47.0003
 20
-40.3524
 11
-46.9504
 21
-40.3867
  0
LINE
  8
0
 10
-46.9504
 20
-40.3867
 11
-46.8999
 21
-40.4202
  0
LINE
  8
0
 10
-46.8999
 20
-40.4202
 11
-46.8488
 21
-40.4527
  0
LINE
  8
0
 10
-46.8488
 20
-40.4527
 11
-46.7972
 21
-40.4844
  0
LINE
  8
0
 10
-46.7972
 20
-40.4844
 11
-46.745
 21
-40.5151
  0
LINE
  8
0
 10
-46.745
 20
-40.5151
 11
-46.6923
 21
-40.5449
  0
LINE
  8
0
 10
-46.6923
 20
-40.5449
 11
-46.6391
 21
-40.5738
  0
LINE
  8
0
 10
-46.6391
 20
-40.5738
 11
-46.5853
 21
-40.6018
  0
LINE
  8
0
 10
-46.5853
 20
-40.6018
 11
-46.5311
 21
-40.6288
  0
LINE
  8
0
 10
-46.5311
 20
-40.6288
 11
-46.4765
 21
-40.6549
  0
LINE
  8
0
 10
-46.4765
 20
-40.6549
 11
-46.4214
 21
-40.68
  0
LINE
  8
0
 10
-46.4214
 20
-40.68
 11
-46.3658
 21
-40.7041
  0
LINE
  8
0
 10
-46.3658
 20
-40.7041
 11
-46.3099
 21
-40.7273
  0
LINE
  8
0
 10
-46.3099
 20
-40.7273
 11
-46.2535
 21
-40.7495
  0
LINE
  8
0
 10
-46.2535
 20
-40.7495
 11
-46.1968
 21
-40.7707
  0
LINE
  8
0
 10
-46.1968
 20
-40.7707
 11
-46.1397
 21
-40.7909
  0
LINE
  8
0
 10
-46.1397
 20
-40.7909
 11
-46.0823
 21
-40.8102
  0
LINE
  8
0
 10
-46.0823
 20
-40.8102
 11
-46.0245
 21
-40.8284
  0
LINE
  8
0
 10
-46.0245
 20
-40.8284
 11
-45.9665
 21
-40.8456
  0
LINE
  8
0
 10
-45.9665
 20
-40.8456
 11
-45.9081
 21
-40.8618
  0
LINE
  8
0
 10
-45.9081
 20
-40.8618
 11
-45.8495
 21
-40.8769
  0
LINE
  8
0
 10
-45.8495
 20
-40.8769
 11
-45.7906
 21
-40.8911
  0
LINE
  8
0
 10
-45.7906
 20
-40.8911
 11
-45.7314
 21
-40.9042
  0
LINE
  8
0
 10
-45.7314
 20
-40.9042
 11
-45.6721
 21
-40.9162
  0
LINE
  8
0
 10
-45.6721
 20
-40.9162
 11
-45.6125
 21
-40.9273
  0
LINE
  8
0
 10
-45.6125
 20
-40.9273
 11
-45.5528
 21
-40.9373
  0
LINE
  8
0
 10
-45.5528
 20
-40.9373
 11
-45.4929
 21
-40.9462
  0
LINE
  8
0
 10
-45.4929
 20
-40.9462
 11
-45.4329
 21
-40.9541
  0
LINE
  8
0
 10
-45.4329
 20
-40.9541
 11
-45.3727
 21
-40.961
  0
LINE
  8
0
 10
-45.3727
 20
-40.961
 11
-45.3124
 21
-40.9668
  0
LINE
  8
0
 10
-45.3124
 20
-40.9668
 11
-45.252
 21
-40.9715
  0
LINE
  8
0
 10
-45.252
 20
-40.9715
 11
-45.1916
 21
-40.9752
  0
LINE
  8
0
 10
-45.1916
 20
-40.9752
 11
-45.1311
 21
-40.9779
  0
LINE
  8
0
 10
-45.1311
 20
-40.9779
 11
-45.0706
 21
-40.9795
  0
LINE
  8
0
 10
-45.0706
 20
-40.9795
 11
-45.01
 21
-40.98
  0
LINE
  8
0
 10
-45.01
 20
-40.98
 11
-40.4395
 21
-40.98
  0
LINE
  8
0
 10
-40.4395
 20
-40.98
 11
-40.4395
 21
-40.9928
  0
LINE
  8
0
 10
-40.4395
 20
-40.9928
 11
-40.4323
 21
-40.98
  0
LINE
  8
0
 10
-40.4323
 20
-40.98
 11
-40.43
 21
-40.98
  0
LINE
  8
0
 10
-40.43
 20
-40.98
 11
-40.43
 21
-40.976
  0
LINE
  8
0
 10
-40.43
 20
-40.976
 11
-40.3061
 21
-40.7569
  0
LINE
  8
0
 10
-40.3061
 20
-40.7569
 11
-40.1728
 21
-40.5115
  0
LINE
  8
0
 10
-40.1728
 20
-40.5115
 11
-40.0439
 21
-40.2638
  0
LINE
  8
0
 10
-40.0439
 20
-40.2638
 11
-39.9193
 21
-40.0139
  0
LINE
  8
0
 10
-39.9193
 20
-40.0139
 11
-39.7991
 21
-39.7619
  0
LINE
  8
0
 10
-39.7991
 20
-39.7619
 11
-39.6833
 21
-39.5078
  0
LINE
  8
0
 10
-39.6833
 20
-39.5078
 11
-39.5719
 21
-39.2517
  0
LINE
  8
0
 10
-39.5719
 20
-39.2517
 11
-39.4651
 21
-38.9937
  0
LINE
  8
0
 10
-39.4651
 20
-38.9937
 11
-39.3627
 21
-38.7339
  0
LINE
  8
0
 10
-39.3627
 20
-38.7339
 11
-39.2649
 21
-38.4723
  0
LINE
  8
0
 10
-39.2649
 20
-38.4723
 11
-39.1717
 21
-38.2091
  0
LINE
  8
0
 10
-39.1717
 20
-38.2091
 11
-39.0831
 21
-37.9443
  0
LINE
  8
0
 10
-39.0831
 20
-37.9443
 11
-38.9991
 21
-37.6779
  0
LINE
  8
0
 10
-38.9991
 20
-37.6779
 11
-38.9198
 21
-37.4102
  0
LINE
  8
0
 10
-38.9198
 20
-37.4102
 11
-38.8452
 21
-37.1411
  0
LINE
  8
0
 10
-38.8452
 20
-37.1411
 11
-38.7753
 21
-36.8707
  0
LINE
  8
0
 10
-38.7753
 20
-36.8707
 11
-38.7101
 21
-36.5992
  0
LINE
  8
0
 10
-38.7101
 20
-36.5992
 11
-38.6496
 21
-36.3266
  0
LINE
  8
0
 10
-38.6496
 20
-36.3266
 11
-38.594
 21
-36.0529
  0
LINE
  8
0
 10
-38.594
 20
-36.0529
 11
-38.5431
 21
-35.7784
  0
LINE
  8
0
 10
-38.5431
 20
-35.7784
 11
-38.497
 21
-35.5029
  0
LINE
  8
0
 10
-38.497
 20
-35.5029
 11
-38.4557
 21
-35.2268
  0
LINE
  8
0
 10
-38.4557
 20
-35.2268
 11
-38.4193
 21
-34.9499
  0
LINE
  8
0
 10
-38.4193
 20
-34.9499
 11
-38.3876
 21
-34.6725
  0
LINE
  8
0
 10
-38.3876
 20
-34.6725
 11
-38.3609
 21
-34.3945
  0
LINE
  8
0
 10
-38.3609
 20
-34.3945
 11
-38.339
 21
-34.1161
  0
LINE
  8
0
 10
-38.339
 20
-34.1161
 11
-38.3219
 21
-33.8374
  0
LINE
  8
0
 10
-38.3219
 20
-33.8374
 11
-38.3097
 21
-33.5584
  0
LINE
  8
0
 10
-38.3097
 20
-33.5584
 11
-38.3024
 21
-33.2792
  0
LINE
  8
0
 10
-38.3024
 20
-33.2792
 11
-38.3
 21
-33
  0
LINE
  8
0
 10
-38.3
 20
-33
 11
-38.3024
 21
-32.7207
  0
LINE
  8
0
 10
-38.3024
 20
-32.7207
 11
-38.3097
 21
-32.4416
  0
LINE
  8
0
 10
-38.3097
 20
-32.4416
 11
-38.3219
 21
-32.1626
  0
LINE
  8
0
 10
-38.3219
 20
-32.1626
 11
-38.339
 21
-31.8839
  0
LINE
  8
0
 10
-38.339
 20
-31.8839
 11
-38.3609
 21
-31.6055
  0
LINE
  8
0
 10
-38.3609
 20
-31.6055
 11
-38.3876
 21
-31.3275
  0
LINE
  8
0
 10
-38.3876
 20
-31.3275
 11
-38.4193
 21
-31.0501
  0
LINE
  8
0
 10
-38.4193
 20
-31.0501
 11
-38.4557
 21
-30.7732
  0
LINE
  8
0
 10
-38.4557
 20
-30.7732
 11
-38.497
 21
-30.497
  0
LINE
  8
0
 10
-38.497
 20
-30.497
 11
-38.5431
 21
-30.2216
  0
LINE
  8
0
 10
-38.5431
 20
-30.2216
 11
-38.594
 21
-29.9471
  0
LINE
  8
0
 10
-38.594
 20
-29.9471
 11
-38.6496
 21
-29.6734
  0
LINE
  8
0
 10
-38.6496
 20
-29.6734
 11
-38.7101
 21
-29.4008
  0
LINE
  8
0
 10
-38.7101
 20
-29.4008
 11
-38.7753
 21
-29.1292
  0
LINE
  8
0
 10
-38.7753
 20
-29.1292
 11
-38.8452
 21
-28.8589
  0
LINE
  8
0
 10
-38.8452
 20
-28.8589
 11
-38.9198
 21
-28.5898
  0
LINE
  8
0
 10
-38.9198
 20
-28.5898
 11
-38.9991
 21
-28.3221
  0
LINE
  8
0
 10
-38.9991
 20
-28.3221
 11
-39.0831
 21
-28.0557
  0
LINE
  8
0
 10
-39.0831
 20
-28.0557
 11
-39.1717
 21
-27.7909
  0
LINE
  8
0
 10
-39.1717
 20
-27.7909
 11
-39.2649
 21
-27.5277
  0
LINE
  8
0
 10
-39.2649
 20
-27.5277
 11
-39.3627
 21
-27.2661
  0
LINE
  8
0
 10
-39.3627
 20
-27.2661
 11
-39.4651
 21
-27.0063
  0
LINE
  8
0
 10
-39.4651
 20
-27.0063
 11
-39.5719
 21
-26.7483
  0
LINE
  8
0
 10
-39.5719
 20
-26.7483
 11
-39.6833
 21
-26.4922
  0
LINE
  8
0
 10
-39.6833
 20
-26.4922
 11
-39.7991
 21
-26.2381
  0
LINE
  8
0
 10
-39.7991
 20
-26.2381
 11
-39.9193
 21
-25.9861
  0
LINE
  8
0
 10
-39.9193
 20
-25.9861
 11
-40.0439
 21
-25.7361
  0
LINE
  8
0
 10
-40.0439
 20
-25.7361
 11
-40.1728
 21
-25.4884
  0
LINE
  8
0
 10
-40.1728
 20
-25.4884
 11
-40.3061
 21
-25.243
  0
LINE
  8
0
 10
-40.3061
 20
-25.243
 11
-40.43
 21
-25.024
  0
LINE
  8
0
 10
-40.43
 20
-25.024
 11
-40.43
 21
-15.9055
  0
LINE
  8
0
 10
-40.43
 20
-15.9055
 11
40.43
 21
-15.9055
  0
LINE
  8
0
 10
40.43
 20
-15.9055
 11
40.43
 21
-25.024
  0
LINE
  8
0
 10
40.43
 20
-25.024
 11
40.3061
 21
-25.243
  0
LINE
  8
0
 10
40.3061
 20
-25.243
 11
40.1728
 21
-25.4884
  0
LINE
  8
0
 10
40.1728
 20
-25.4884
 11
40.0439
 21
-25.7361
  0
LINE
  8
0
 10
40.0439
 20
-25.7361
 11
39.9193
 21
-25.9861
  0
LINE
  8
0
 10
39.9193
 20
-25.9861
 11
39.7991
 21
-26.2381
  0
LINE
  8
0
 10
39.7991
 20
-26.2381
 11
39.6833
 21
-26.4922
  0
LINE
  8
0
 10
39.6833
 20
-26.4922
 11
39.5719
 21
-26.7483
  0
LINE
  8
0
 10
39.5719
 20
-26.7483
 11
39.4651
 21
-27.0063
  0
LINE
  8
0
 10
39.4651
 20
-27.0063
 11
39.3627
 21
-27.2661
  0
LINE
  8
0
 10
39.3627
 20
-27.2661
 11
39.2649
 21
-27.5277
  0
LINE
  8
0
 10
39.2649
 20
-27.5277
 11
39.1717
 21
-27.7909
  0
LINE
  8
0
 10
39.1717
 20
-27.7909
 11
39.0831
 21
-28.0557
  0
LINE
  8
0
 10
39.0831
 20
-28.0557
 11
38.9991
 21
-28.3221
  0
LINE
  8
0
 10
38.9991
 20
-28.3221
 11
38.9198
 21
-28.5898
  0
LINE
  8
0
 10
38.9198
 20
-28.5898
 11
38.8452
 21
-28.8589
  0
LINE
  8
0
 10
38.8452
 20
-28.8589
 11
38.7753
 21
-29.1292
  0
LINE
  8
0
 10
38.7753
 20
-29.1292
 11
38.7101
 21
-29.4008
  0
LINE
  8
0
 10
38.7101
 20
-29.4008
 11
38.6496
 21
-29.6734
  0
LINE
  8
0
 10
38.6496
 20
-29.6734
 11
38.594
 21
-29.9471
  0
LINE
  8
0
 10
38.594
 20
-29.9471
 11
38.5431
 21
-30.2216
  0
LINE
  8
0
 10
38.5431
 20
-30.2216
 11
38.497
 21
-30.497
  0
LINE
  8
0
 10
38.497
 20
-30.497
 11
38.4557
 21
-30.7732
  0
LINE
  8
0
 10
38.4557
 20
-30.7732
 11
38.4193
 21
-31.0501
  0
LINE
  8
0
 10
38.4193
 20
-31.0501
 11
38.3876
 21
-31.3275
  0
LINE
  8
0
 10
38.3876
 20
-31.3275
 11
38.3609
 21
-31.6055
  0
LINE
  8
0
 10
38.3609
 20
-31.6055
 11
38.339
 21
-31.8839
  0
LINE
  8
0
 10
38.339
 20
-31.8839
 11
38.3219
 21
-32.1626
  0
LINE
  8
0
 10
38.3219
 20
-32.1626
 11
38.3097
 21
-32.4416
  0
LINE
  8
0
 10
38.3097
 20
-32.4416
 11
38.3024
 21
-32.7207
  0
LINE
  8
0
 10
38.3024
 20
-32.7207
 11
38.3
 21
-33
  0
LINE
  8
0
 10
38.3
 20
-33
 11
38.3024
 21
-33.2792
  0
LINE
  8
0
 10
38.3024
 20
-33.2792
 11
38.3097
 21
-33.5584
  0
LINE
  8
0
 10
38.3097
 20
-33.5584
 11
38.3219
 21
-33.8374
  0
LINE
  8
0
 10
38.3219
 20
-33.8374
 11
38.339
 21
-34.1161
  0
LINE
  8
0
 10
38.339
 20
-34.1161
 11
38.3609
 21
-34.3945
  0
LINE
  8
0
 10
38.3609
 20
-34.3945
 11
38.3876
 21
-34.6725
  0
LINE
  8
0
 10
38.3876
 20
-34.6725
 11
38.4193
 21
-34.9499
  0
LINE
  8
0
 10
38.4193
 20
-34.9499
 11
38.4557
 21
-35.2268
  0
LINE
  8
0
 10
38.4557
 20
-35.2268
 11
38.497
 21
-35.5029
  0
LINE
  8
0
 10
38.497
 20
-35.5029
 11
38.5431
 21
-35.7784
  0
LINE
  8
0
 10
38.5431
 20
-35.7784
 11
38.594
 21
-36.0529
  0
LINE
  8
0
 10
38.594
 20
-36.0529
 11
38.6496
 21
-36.3266
  0
LINE
  8
0
 10
38.6496
 20
-36.3266
 11
38.7101
 21
-36.5992
  0
LINE
  8
0
 10
38.7101
 20
-36.5992
 11
38.7753
 21
-36.8707
  0
LINE
  8
0
 10
38.7753
 20
-36.8707
 11
38.8452
 21
-37.1411
  0
LINE
  8
0
 10
38.8452
 20
-37.1411
 11
38.9198
 21
-37.4102
  0
LINE
  8
0
 10
38.9198
 20
-37.4102
 11
38.9991
 21
-37.6779
  0
LINE
  8
0
 10
38.9991
 20
-37.6779
 11
39.0831
 21
-37.9443
  0
LINE
  8
0
 10
39.0831
 20
-37.9443
 11
39.1717
 21
-38.2091
  0
LINE
  8
0
 10
39.1717
 20
-38.2091
 11
39.2649
 21
-38.4723
  0
LINE
  8
0
 10
39.2649
 20
-38.4723
 11
39.3627
 21
-38.7339
  0
LINE
  8
0
 10
39.3627
 20
-38.7339
 11
39.4651
 21
-38.9937
  0
LINE
  8
0
 10
39.4651
 20
-38.9937
 11
39.5719
 21
-39.2517
  0
LINE
  8
0
 10
39.5719
 20
-39.2517
 11
39.6833
 21
-39.5078
  0
LINE
  8
0
 10
39.6833
 20
-39.5078
 11
39.7991
 21
-39.7619
  0
LINE
  8
0
 10
39.7991
 20
-39.7619
 11
39.9193
 21
-40.0139
  0
LINE
  8
0
 10
39.9193
 20
-40.0139
 11
40.0439
 21
-40.2638
  0
LINE
  8
0
 10
40.0439
 20
-40.2638
 11
40.1728
 21
-40.5115
  0
LINE
  8
0
 10
40.1728
 20
-40.5115
 11
40.3061
 21
-40.7569
  0
LINE
  8
0
 10
40.3061
 20
-40.7569
 11
40.43
 21
-40.976
  0
LINE
  8
0
 10
40.43
 20
-40.976
 11
40.43
 21
-40.98
  0
LINE
  8
0
 10
40.43
 20
-40.98
 11
40.4323
 21
-40.98
  0
LINE
  8
0
 10
40.4323
 20
-40.98
 11
40.4395
 21
-40.9928
  0
LINE
  8
0
 10
40.4395
 20
-40.9928
 11
40.4395
 21
-40.98
  0
LINE
  8
0
 10
-0.13884
 20
-7.95428
 11
-0.277634
 21
-7.95065
  0
LINE
  8
0
 10
-0.277634
 20
-7.95065
 11
-0.416351
 21
-7.9446
  0
LINE
  8
0
 10
-0.416351
 20
-7.9446
 11
-0.554947
 21
-7.93611
  0
LINE
  8
0
 10
-0.554947
 20
-7.93611
 11
-0.693359
 21
-7.92522
  0
LINE
  8
0
 10
-0.693359
 20
-7.92522
 11
-0.831573
 21
-7.91191
  0
LINE
  8
0
 10
-0.831573
 20
-7.91191
 11
-0.969528
 21
-7.89619
  0
LINE
  8
0
 10
-0.969528
 20
-7.89619
 11
-1.10718
 21
-7.87807
  0
LINE
  8
0
 10
-1.10718
 20
-7.87807
 11
-1.24451
 21
-7.85754
  0
LINE
  8
0
 10
-1.24451
 20
-7.85754
 11
-1.38145
 21
-7.83463
  0
LINE
  8
0
 10
-1.38145
 20
-7.83463
 11
-1.51797
 21
-7.80933
  0
LINE
  8
0
 10
-1.51797
 20
-7.80933
 11
-1.65404
 21
-7.78165
  0
LINE
  8
0
 10
-1.65404
 20
-7.78165
 11
-1.7896
 21
-7.75159
  0
LINE
  8
0
 10
-1.7896
 20
-7.75159
 11
-1.92461
 21
-7.71918
  0
LINE
  8
0
 10
-1.92461
 20
-7.71918
 11
-2.05902
 21
-7.68442
  0
LINE
  8
0
 10
-2.05902
 20
-7.68442
 11
-2.19283
 21
-7.64731
  0
LINE
  8
0
 10
-2.19283
 20
-7.64731
 11
-2.32596
 21
-7.60788
  0
LINE
  8
0
 10
-2.32596
 20
-7.60788
 11
-2.45837
 21
-7.56612
  0
LINE
  8
0
 10
-2.45837
 20
-7.56612
 11
-2.59006
 21
-7.52206
  0
LINE
  8
0
 10
-2.59006
 20
-7.52206
 11
-2.72093
 21
-7.47572
  0
LINE
  8
0
 10
-2.72093
 20
-7.47572
 11
-2.85098
 21
-7.42709
  0
LINE
  8
0
 10
-2.85098
 20
-7.42709
 11
-2.98018
 21
-7.37621
  0
LINE
  8
0
 10
-2.98018
 20
-7.37621
 11
-3.10846
 21
-7.32307
  0
LINE
  8
0
 10
-3.10846
 20
-7.32307
 11
-3.23578
 21
-7.2677
  0
LINE
  8
0
 10
-3.23578
 20
-7.2677
 11
-3.36214
 21
-7.21013
  0
LINE
  8
0
 10
-3.36214
 20
-7.21013
 11
-3.48746
 21
-7.15034
  0
LINE
  8
0
 10
-3.48746
 20
-7.15034
 11
-3.61171
 21
-7.08839
  0
LINE
  8
0
 10
-3.61171
 20
-7.08839
 11
-3.73488
 21
-7.02428
  0
LINE
  8
0
 10
-3.73488
 20
-7.02428
 11
-3.85689
 21
-6.95802
  0
LINE
  8
0
 10
-3.85689
 20
-6.95802
 11
-3.97774
 21
-6.88966
  0
LINE
  8
0
 10
-3.97774
 20
-6.88966
 11
-4.09738
 21
-6.81918
  0
LINE
  8
0
 10
-4.09738
 20
-6.81918
 11
-4.21576
 21
-6.74664
  0
LINE
  8
0
 10
-4.21576
 20
-6.74664
 11
-4.33287
 21
-6.67204
  0
LINE
  8
0
 10
-4.33287
 20
-6.67204
 11
-4.44865
 21
-6.5954
  0
LINE
  8
0
 10
-4.44865
 20
-6.5954
 11
-4.56308
 21
-6.51675
  0
LINE
  8
0
 10
-4.56308
 20
-6.51675
 11
-4.67612
 21
-6.43613
  0
LINE
  8
0
 10
-4.67612
 20
-6.43613
 11
-4.78773
 21
-6.35353
  0
LINE
  8
0
 10
-4.78773
 20
-6.35353
 11
-4.89789
 21
-6.26901
  0
LINE
  8
0
 10
-4.89789
 20
-6.26901
 11
-5.00655
 21
-6.18257
  0
LINE
  8
0
 10
-5.00655
 20
-6.18257
 11
-5.11369
 21
-6.09425
  0
LINE
  8
0
 10
-5.11369
 20
-6.09425
 11
-5.21927
 21
-6.00409
  0
LINE
  8
0
 10
-5.21927
 20
-6.00409
 11
-5.32326
 21
-5.91208
  0
LINE
  8
0
 10
-5.32326
 20
-5.91208
 11
-5.42563
 21
-5.81828
  0
LINE
  8
0
 10
-5.42563
 20
-5.81828
 11
-5.52635
 21
-5.7227
  0
LINE
  8
0
 10
-5.52635
 20
-5.7227
 11
-5.62538
 21
-5.62538
  0
LINE
  8
0
 10
-5.62538
 20
-5.62538
 11
-5.7227
 21
-5.52635
  0
LINE
  8
0
 10
-5.7227
 20
-5.52635
 11
-5.81828
 21
-5.42563
  0
LINE
  8
0
 10
-5.81828
 20
-5.42563
 11
-5.91208
 21
-5.32326
  0
LINE
  8
0
 10
-5.91208
 20
-5.32326
 11
-6.00409
 21
-5.21927
  0
LINE
  8
0
 10
-6.00409
 20
-5.21927
 11
-6.09425
 21
-5.11369
  0
LINE
  8
0
 10
-6.09425
 20
-5.11369
 11
-6.18257
 21
-5.00655
  0
LINE
  8
0
 10
-6.18257
 20
-5.00655
 11
-6.26901
 21
-4.89789
  0
LINE
  8
0
 10
-6.26901
 20
-4.89789
 11
-6.35353
 21
-4.78773
  0
LINE
  8
0
 10
-6.35353
 20
-4.78773
 11
-6.43613
 21
-4.67612
  0
LINE
  8
0
 10
-6.43613
 20
-4.67612
 11
-6.51675
 21
-4.56308
  0
LINE
  8
0
 10
-6.51675
 20
-4.56308
 11
-6.5954
 21
-4.44865
  0
LINE
  8
0
 10
-6.5954
 20
-4.44865
 11
-6.67204
 21
-4.33287
  0
LINE
  8
0
 10
-6.67204
 20
-4.33287
 11
-6.74664
 21
-4.21576
  0
LINE
  8
0
 10
-6.74664
 20
-4.21576
 11
-6.81918
 21
-4.09738
  0
LINE
  8
0
 10
-6.81918
 20
-4.09738
 11
-6.88966
 21
-3.97774
  0
LINE
  8
0
 10
-6.88966
 20
-3.97774
 11
-6.95802
 21
-3.85689
  0
LINE
  8
0
 10
-6.95802
 20
-3.85689
 11
-7.02428
 21
-3.73488
  0
LINE
  8
0
 10
-7.02428
 20
-3.73488
 11
-7.08839
 21
-3.61171
  0
LINE
  8
0
 10
-7.08839
 20
-3.61171
 11
-7.15034
 21
-3.48746
  0
LINE
  8
0
 10
-7.15034
 20
-3.48746
 11
-7.21013
 21
-3.36214
  0
LINE
  8
0
 10
-7.21013
 20
-3.36214
 11
-7.2677
 21
-3.23578
  0
LINE
  8
0
 10
-7.2677
 20
-3.23578
 11
-7.32307
 21
-3.10846
  0
LINE
  8
0
 10
-7.32307
 20
-3.10846
 11
-7.37621
 21
-2.98018
  0
LINE
  8
0
 10
-7.37621
 20
-2.98018
 11
-7.42709
 21
-2.85098
  0
LINE
  8
0
 10
-7.42709
 20
-2.85098
 11
-7.47572
 21
-2.72093
  0
LINE
  8
0
 10
-7.47572
 20
-2.72093
 11
-7.52206
 21
-2.59006
  0
LINE
  8
0
 10
-7.52206
 20
-2.59006
 11
-7.56612
 21
-2.45837
  0
LINE
  8
0
 10
-7.56612
 20
-2.45837
 11
-7.60788
 21
-2.32596
  0
LINE
  8
0
 10
-7.60788
 20
-2.32596
 11
-7.64731
 21
-2.19283
  0
LINE
  8
0
 10
-7.64731
 20
-2.19283
 11
-7.68442
 21
-2.05902
  0
LINE
  8
0
 10
-7.68442
 20
-2.05902
 11
-7.71918
 21
-1.92461
  0
LINE
  8
0
 10
-7.71918
 20
-1.92461
 11
-7.75159
 21
-1.7896
  0
LINE
  8
0
 10
-7.75159
 20
-1.7896
 11
-7.78165
 21
-1.65404
  0
LINE
  8
0
 10
-7.78165
 20
-1.65404
 11
-7.80933
 21
-1.51797
  0
LINE
  8
0
 10
-7.80933
 20
-1.51797
 11
-7.83463
 21
-1.38145
  0
LINE
  8
0
 10
-7.83463
 20
-1.38145
 11
-7.85754
 21
-1.24451
  0
LINE
  8
0
 10
-7.85754
 20
-1.24451
 11
-7.87807
 21
-1.10718
  0
LINE
  8
0
 10
-7.87807
 20
-1.10718
 11
-7.89619
 21
-0.969528
  0
LINE
  8
0
 10
-7.89619
 20
-0.969528
 11
-7.91191
 21
-0.831573
  0
LINE
  8
0
 10
-7.91191
 20
-0.831573
 11
-7.92522
 21
-0.693359
  0
LINE
  8
0
 10
-7.92522
 20
-0.693359
 11
-7.93611
 21
-0.554947
  0
LINE
  8
0
 10
-7.93611
 20
-0.554947
 11
-7.9446
 21
-0.416351
  0
LINE
  8
0
 10
-7.9446
 20
-0.416351
 11
-7.95065
 21
-0.277634
  0
LINE
  8
0
 10
-7.95065
 20
-0.277634
 11
-7.95428
 21
-0.13884
  0
LINE
  8
0
 10
-7.95428
 20
-0.13884
 11
-7.95549
 21
0
  0
LINE
  8
0
 10
-7.95549
 20
0
 11
-7.95428
 21
0.13884
  0
LINE
  8
0
 10
-7.95428
 20
0.13884
 11
-7.95065
 21
0.277634
  0
LINE
  8
0
 10
-7.95065
 20
0.277634
 11
-7.9446
 21
0.416351
  0
LINE
  8
0
 10
-7.9446
 20
0.416351
 11
-7.93611
 21
0.554947
  0
LINE
  8
0
 10
-7.93611
 20
0.554947
 11
-7.92522
 21
0.693359
  0
LINE
  8
0
 10
-7.92522
 20
0.693359
 11
-7.91191
 21
0.831573
  0
LINE
  8
0
 10
-7.91191
 20
0.831573
 11
-7.89619
 21
0.969528
  0
LINE
  8
0
 10
-7.89619
 20
0.969528
 11
-7.87807
 21
1.10718
  0
LINE
  8
0
 10
-7.87807
 20
1.10718
 11
-7.85754
 21
1.24451
  0
LINE
  8
0
 10
-7.85754
 20
1.24451
 11
-7.83463
 21
1.38145
  0
LINE
  8
0
 10
-7.83463
 20
1.38145
 11
-7.80933
 21
1.51797
  0
LINE
  8
0
 10
-7.80933
 20
1.51797
 11
-7.78165
 21
1.65404
  0
LINE
  8
0
 10
-7.78165
 20
1.65404
 11
-7.75159
 21
1.7896
  0
LINE
  8
0
 10
-7.75159
 20
1.7896
 11
-7.71918
 21
1.92461
  0
LINE
  8
0
 10
-7.71918
 20
1.92461
 11
-7.68442
 21
2.05902
  0
LINE
  8
0
 10
-7.68442
 20
2.05902
 11
-7.64731
 21
2.19283
  0
LINE
  8
0
 10
-7.64731
 20
2.19283
 11
-7.60788
 21
2.32596
  0
LINE
  8
0
 10
-7.60788
 20
2.32596
 11
-7.56612
 21
2.45837
  0
LINE
  8
0
 10
-7.56612
 20
2.45837
 11
-7.52206
 21
2.59006
  0
LINE
  8
0
 10
-7.52206
 20
2.59006
 11
-7.47572
 21
2.72093
  0
LINE
  8
0
 10
-7.47572
 20
2.72093
 11
-7.42709
 21
2.85098
  0
LINE
  8
0
 10
-7.42709
 20
2.85098
 11
-7.37621
 21
2.98018
  0
LINE
  8
0
 10
-7.37621
 20
2.98018
 11
-7.32307
 21
3.10846
  0
LINE
  8
0
 10
-7.32307
 20
3.10846
 11
-7.2677
 21
3.23578
  0
LINE
  8
0
 10
-7.2677
 20
3.23578
 11
-7.21013
 21
3.36214
  0
LINE
  8
0
 10
-7.21013
 20
3.36214
 11
-7.15034
 21
3.48746
  0
LINE
  8
0
 10
-7.15034
 20
3.48746
 11
-7.08839
 21
3.61171
  0
LINE
  8
0
 10
-7.08839
 20
3.61171
 11
-7.02428
 21
3.73488
  0
LINE
  8
0
 10
-7.02428
 20
3.73488
 11
-6.95802
 21
3.85689
  0
LINE
  8
0
 10
-6.95802
 20
3.85689
 11
-6.88966
 21
3.97774
  0
LINE
  8
0
 10
-6.88966
 20
3.97774
 11
-6.81918
 21
4.09738
  0
LINE
  8
0
 10
-6.81918
 20
4.09738
 11
-6.74664
 21
4.21576
  0
LINE
  8
0
 10
-6.74664
 20
4.21576
 11
-6.67204
 21
4.33287
  0
LINE
  8
0
 10
-6.67204
 20
4.33287
 11
-6.5954
 21
4.44865
  0
LINE
  8
0
 10
-6.5954
 20
4.44865
 11
-6.51675
 21
4.56308
  0
LINE
  8
0
 10
-6.51675
 20
4.56308
 11
-6.43613
 21
4.67612
  0
LINE
  8
0
 10
-6.43613
 20
4.67612
 11
-6.35353
 21
4.78773
  0
LINE
  8
0
 10
-6.35353
 20
4.78773
 11
-6.26901
 21
4.89789
  0
LINE
  8
0
 10
-6.26901
 20
4.89789
 11
-6.18257
 21
5.00655
  0
LINE
  8
0
 10
-6.18257
 20
5.00655
 11
-6.09425
 21
5.11369
  0
LINE
  8
0
 10
-6.09425
 20
5.11369
 11
-6.00409
 21
5.21927
  0
LINE
  8
0
 10
-6.00409
 20
5.21927
 11
-5.91208
 21
5.32326
  0
LINE
  8
0
 10
-5.91208
 20
5.32326
 11
-5.81828
 21
5.42563
  0
LINE
  8
0
 10
-5.81828
 20
5.42563
 11
-5.7227
 21
5.52635
  0
LINE
  8
0
 10
-5.7227
 20
5.52635
 11
-5.62538
 21
5.62538
  0
LINE
  8
0
 10
-5.62538
 20
5.62538
 11
-5.52635
 21
5.7227
  0
LINE
  8
0
 10
-5.52635
 20
5.7227
 11
-5.42563
 21
5.81828
  0
LINE
  8
0
 10
-5.42563
 20
5.81828
 11
-5.32326
 21
5.91208
  0
LINE
  8
0
 10
-5.32326
 20
5.91208
 11
-5.21927
 21
6.00409
  0
LINE
  8
0
 10
-5.21927
 20
6.00409
 11
-5.11369
 21
6.09425
  0
LINE
  8
0
 10
-5.11369
 20
6.09425
 11
-5.00655
 21
6.18257
  0
LINE
  8
0
 10
-5.00655
 20
6.18257
 11
-4.89789
 21
6.26901
  0
LINE
  8
0
 10
-4.89789
 20
6.26901
 11
-4.78773
 21
6.35353
  0
LINE
  8
0
 10
-4.78773
 20
6.35353
 11
-4.67612
 21
6.43613
  0
LINE
  8
0
 10
-4.67612
 20
6.43613
 11
-4.56308
 21
6.51675
  0
LINE
  8
0
 10
-4.56308
 20
6.51675
 11
-4.44865
 21
6.5954
  0
LINE
  8
0
 10
-4.44865
 20
6.5954
 11
-4.33287
 21
6.67204
  0
LINE
  8
0
 10
-4.33287
 20
6.67204
 11
-4.21576
 21
6.74664
  0
LINE
  8
0
 10
-4.21576
 20
6.74664
 11
-4.09738
 21
6.81918
  0
LINE
  8
0
 10
-4.09738
 20
6.81918
 11
-3.97774
 21
6.88966
  0
LINE
  8
0
 10
-3.97774
 20
6.88966
 11
-3.85689
 21
6.95802
  0
LINE
  8
0
 10
-3.85689
 20
6.95802
 11
-3.73488
 21
7.02428
  0
LINE
  8
0
 10
-3.73488
 20
7.02428
 11
-3.61171
 21
7.08839
  0
LINE
  8
0
 10
-3.61171
 20
7.08839
 11
-3.48746
 21
7.15034
  0
LINE
  8
0
 10
-3.48746
 20
7.15034
 11
-3.36214
 21
7.21013
  0
LINE
  8
0
 10
-3.36214
 20
7.21013
 11
-3.23578
 21
7.2677
  0
LINE
  8
0
 10
-3.23578
 20
7.2677
 11
-3.10846
 21
7.32307
  0
LINE
  8
0
 10
-3.10846
 20
7.32307
 11
-2.98018
 21
7.37621
  0
LINE
  8
0
 10
-2.98018
 20
7.37621
 11
-2.85098
 21
7.42709
  0
LINE
  8
0
 10
-2.85098
 20
7.42709
 11
-2.72093
 21
7.47572
  0
LINE
  8
0
 10
-2.72093
 20
7.47572
 11
-2.59006
 21
7.52206
  0
LINE
  8
0
 10
-2.59006
 20
7.52206
 11
-2.45837
 21
7.56612
  0
LINE
  8
0
 10
-2.45837
 20
7.56612
 11
-2.32596
 21
7.60788
  0
LINE
  8
0
 10
-2.32596
 20
7.60788
 11
-2.19283
 21
7.64731
  0
LINE
  8
0
 10
-2.19283
 20
7.64731
 11
-2.05902
 21
7.68442
  0
LINE
  8
0
 10
-2.05902
 20
7.68442
 11
-1.92461
 21
7.71918
  0
LINE
  8
0
 10
-1.92461
 20
7.71918
 11
-1.7896
 21
7.75159
  0
LINE
  8
0
 10
-1.7896
 20
7.75159
 11
-1.65404
 21
7.78165
  0
LINE
  8
0
 10
-1.65404
 20
7.78165
 11
-1.51797
 21
7.80933
  0
LINE
  8
0
 10
-1.51797
 20
7.80933
 11
-1.38145
 21
7.83463
  0
LINE
  8
0
 10
-1.38145
 20
7.83463
 11
-1.24451
 21
7.85754
  0
LINE
  8
0
 10
-1.24451
 20
7.85754
 11
-1.10718
 21
7.87807
  0
LINE
  8
0
 10
-1.10718
 20
7.87807
 11
-0.969528
 21
7.89619
  0
LINE
  8
0
 10
-0.969528
 20
7.89619
 11
-0.831573
 21
7.91191
  0
LINE
  8
0
 10
-0.831573
 20
7.91191
 11
-0.693359
 21
7.92522
  0
LINE
  8
0
 10
-0.693359
 20
7.92522
 11
-0.554947
 21
7.93611
  0
LINE
  8
0
 10
-0.554947
 20
7.93611
 11
-0.416351
 21
7.9446
  0
LINE
  8
0
 10
-0.416351
 20
7.9446
 11
-0.277634
 21
7.95065
  0
LINE
  8
0
 10
-0.277634
 20
7.95065
 11
-0.13884
 21
7.95428
  0
LINE
  8
0
 10
-0.13884
 20
7.95428
 11
0
 21
7.95549
  0
LINE
  8
0
 10
0
 20
7.95549
 11
0.13884
 21
7.95428
  0
LINE
  8
0
 10
0.13884
 20
7.95428
 11
0.277634
 21
7.95065
  0
LINE
  8
0
 10
0.277634
 20
7.95065
 11
0.416351
 21
7.9446
  0
LINE
  8
0
 10
0.416351
 20
7.9446
 11
0.554947
 21
7.93611
  0
LINE
  8
0
 10
0.554947
 20
7.93611
 11
0.693359
 21
7.92522
  0
LINE
  8
0
 10
0.693359
 20
7.92522
 11
0.831573
 21
7.91191
  0
LINE
  8
0
 10
0.831573
 20
7.91191
 11
0.969528
 21
7.89619
  0
LINE
  8
0
 10
0.969528
 20
7.89619
 11
1.10718
 21
7.87807
  0
LINE
  8
0
 10
1.10718
 20
7.87807
 11
1.24451
 21
7.85754
  0
LINE
  8
0
 10
1.24451
 20
7.85754
 11
1.38145
 21
7.83463
  0
LINE
  8
0
 10
1.38145
 20
7.83463
 11
1.51797
 21
7.80933
  0
LINE
  8
0
 10
1.51797
 20
7.80933
 11
1.65404
 21
7.78165
  0
LINE
  8
0
 10
1.65404
 20
7.78165
 11
1.7896
 21
7.75159
  0
LINE
  8
0
 10
1.7896
 20
7.75159
 11
1.92461
 21
7.71918
  0
LINE
  8
0
 10
1.92461
 20
7.71918
 11
2.05902
 21
7.68442
  0
LINE
  8
0
 10
2.05902
 20
7.68442
 11
2.19283
 21
7.64731
  0
LINE
  8
0
 10
2.19283
 20
7.64731
 11
2.32596
 21
7.60788
  0
LINE
  8
0
 10
2.32596
 20
7.60788
 11
2.45837
 21
7.56612
  0
LINE
  8
0
 10
2.45837
 20
7.56612
 11
2.59006
 21
7.52206
  0
LINE
  8
0
 10
2.59006
 20
7.52206
 11
2.72093
 21
7.47572
  0
LINE
  8
0
 10
2.72093
 20
7.47572
 11
2.85098
 21
7.42709
  0
LINE
  8
0
 10
2.85098
 20
7.42709
 11
2.98018
 21
7.37621
  0
LINE
  8
0
 10
2.98018
 20
7.37621
 11
3.10846
 21
7.32307
  0
LINE
  8
0
 10
3.10846
 20
7.32307
 11
3.23578
 21
7.2677
  0
LINE
  8
0
 10
3.23578
 20
7.2677
 11
3.36214
 21
7.21013
  0
LINE
  8
0
 10
3.36214
 20
7.21013
 11
3.48746
 21
7.15034
  0
LINE
  8
0
 10
3.48746
 20
7.15034
 11
3.61171
 21
7.08839
  0
LINE
  8
0
 10
3.61171
 20
7.08839
 11
3.73488
 21
7.02428
  0
LINE
  8
0
 10
3.73488
 20
7.02428
 11
3.85689
 21
6.95802
  0
LINE
  8
0
 10
3.85689
 20
6.95802
 11
3.97774
 21
6.88966
  0
LINE
  8
0
 10
3.97774
 20
6.88966
 11
4.09738
 21
6.81918
  0
LINE
  8
0
 10
4.09738
 20
6.81918
 11
4.21576
 21
6.74664
  0
LINE
  8
0
 10
4.21576
 20
6.74664
 11
4.33287
 21
6.67204
  0
LINE
  8
0
 10
4.33287
 20
6.67204
 11
4.44865
 21
6.5954
  0
LINE
  8
0
 10
4.44865
 20
6.5954
 11
4.56308
 21
6.51675
  0
LINE
  8
0
 10
4.56308
 20
6.51675
 11
4.67612
 21
6.43613
  0
LINE
  8
0
 10
4.67612
 20
6.43613
 11
4.78773
 21
6.35353
  0
LINE
  8
0
 10
4.78773
 20
6.35353
 11
4.89789
 21
6.26901
  0
LINE
  8
0
 10
4.89789
 20
6.26901
 11
5.00655
 21
6.18257
  0
LINE
  8
0
 10
5.00655
 20
6.18257
 11
5.11369
 21
6.09425
  0
LINE
  8
0
 10
5.11369
 20
6.09425
 11
5.21927
 21
6.00409
  0
LINE
  8
0
 10
5.21927
 20
6.00409
 11
5.32326
 21
5.91208
  0
LINE
  8
0
 10
5.32326
 20
5.91208
 11
5.42563
 21
5.81828
  0
LINE
  8
0
 10
5.42563
 20
5.81828
 11
5.52635
 21
5.7227
  0
LINE
  8
0
 10
5.52635
 20
5.7227
 11
5.62538
 21
5.62538
  0
LINE
  8
0
 10
5.62538
 20
5.62538
 11
5.7227
 21
5.52635
  0
LINE
  8
0
 10
5.7227
 20
5.52635
 11
5.81828
 21
5.42563
  0
LINE
  8
0
 10
5.81828
 20
5.42563
 11
5.91208
 21
5.32326
  0
LINE
  8
0
 10
5.91208
 20
5.32326
 11
6.00409
 21
5.21927
  0
LINE
  8
0
 10
6.00409
 20
5.21927
 11
6.09425
 21
5.11369
  0
LINE
  8
0
 10
6.09425
 20
5.11369
 11
6.18257
 21
5.00655
  0
LINE
  8
0
 10
6.18257
 20
5.00655
 11
6.26901
 21
4.89789
  0
LINE
  8
0
 10
6.26901
 20
4.89789
 11
6.35353
 21
4.78773
  0
LINE
  8
0
 10
6.35353
 20
4.78773
 11
6.43613
 21
4.67612
  0
LINE
  8
0
 10
6.43613
 20
4.67612
 11
6.51675
 21
4.56308
  0
LINE
  8
0
 10
6.51675
 20
4.56308
 11
6.5954
 21
4.44865
  0
LINE
  8
0
 10
6.5954
 20
4.44865
 11
6.67204
 21
4.33287
  0
LINE
  8
0
 10
6.67204
 20
4.33287
 11
6.74664
 21
4.21576
  0
LINE
  8
0
 10
6.74664
 20
4.21576
 11
6.81918
 21
4.09738
  0
LINE
  8
0
 10
6.81918
 20
4.09738
 11
6.88966
 21
3.97774
  0
LINE
  8
0
 10
6.88966
 20
3.97774
 11
6.95802
 21
3.85689
  0
LINE
  8
0
 10
6.95802
 20
3.85689
 11
7.02428
 21
3.73488
  0
LINE
  8
0
 10
7.02428
 20
3.73488
 11
7.08839
 21
3.61171
  0
LINE
  8
0
 10
7.08839
 20
3.61171
 11
7.15034
 21
3.48746
  0
LINE
  8
0
 10
7.15034
 20
3.48746
 11
7.21013
 21
3.36214
  0
LINE
  8
0
 10
7.21013
 20
3.36214
 11
7.2677
 21
3.23578
  0
LINE
  8
0
 10
7.2677
 20
3.23578
 11
7.32307
 21
3.10846
  0
LINE
  8
0
 10
7.32307
 20
3.10846
 11
7.37621
 21
2.98018
  0
LINE
  8
0
 10
7.37621
 20
2.98018
 11
7.42709
 21
2.85098
  0
LINE
  8
0
 10
7.42709
 20
2.85098
 11
7.47572
 21
2.72093
  0
LINE
  8
0
 10
7.47572
 20
2.72093
 11
7.52206
 21
2.59006
  0
LINE
  8
0
 10
7.52206
 20
2.59006
 11
7.56612
 21
2.45837
  0
LINE
  8
0
 10
7.56612
 20
2.45837
 11
7.60788
 21
2.32596
  0
LINE
  8
0
 10
7.60788
 20
2.32596
 11
7.64731
 21
2.19283
  0
LINE
  8
0
 10
7.64731
 20
2.19283
 11
7.68442
 21
2.05902
  0
LINE
  8
0
 10
7.68442
 20
2.05902
 11
7.71918
 21
1.92461
  0
LINE
  8
0
 10
7.71918
 20
1.92461
 11
7.75159
 21
1.7896
  0
LINE
  8
0
 10
7.75159
 20
1.7896
 11
7.78165
 21
1.65404
  0
LINE
  8
0
 10
7.78165
 20
1.65404
 11
7.80933
 21
1.51797
  0
LINE
  8
0
 10
7.80933
 20
1.51797
 11
7.83463
 21
1.38145
  0
LINE
  8
0
 10
7.83463
 20
1.38145
 11
7.85754
 21
1.24451
  0
LINE
  8
0
 10
7.85754
 20
1.24451
 11
7.87807
 21
1.10718
  0
LINE
  8
0
 10
7.87807
 20
1.10718
 11
7.89619
 21
0.969528
  0
LINE
  8
0
 10
7.89619
 20
0.969528
 11
7.91191
 21
0.831573
  0
LINE
  8
0
 10
7.91191
 20
0.831573
 11
7.92522
 21
0.693359
  0
LINE
  8
0
 10
7.92522
 20
0.693359
 11
7.93611
 21
0.554947
  0
LINE
  8
0
 10
7.93611
 20
0.554947
 11
7.9446
 21
0.416351
  0
LINE
  8
0
 10
7.9446
 20
0.416351
 11
7.95065
 21
0.277634
  0
LINE
  8
0
 10
7.95065
 20
0.277634
 11
7.95428
 21
0.13884
  0
LINE
  8
0
 10
7.95428
 20
0.13884
 11
7.95549
 21
0
  0
LINE
  8
0
 10
7.95549
 20
0
 11
7.95428
 21
-0.13884
  0
LINE
  8
0
 10
7.95428
 20
-0.13884
 11
7.95065
 21
-0.277634
  0
LINE
  8
0
 10
7.95065
 20
-0.277634
 11
7.9446
 21
-0.416351
  0
LINE
  8
0
 10
7.9446
 20
-0.416351
 11
7.93611
 21
-0.554947
  0
LINE
  8
0
 10
7.93611
 20
-0.554947
 11
7.92522
 21
-0.693359
  0
LINE
  8
0
 10
7.92522
 20
-0.693359
 11
7.91191
 21
-0.831573
  0
LINE
  8
0
 10
7.91191
 20
-0.831573
 11
7.89619
 21
-0.969528
  0
LINE
  8
0
 10
7.89619
 20
-0.969528
 11
7.87807
 21
-1.10718
  0
LINE
  8
0
 10
7.87807
 20
-1.10718
 11
7.85754
 21
-1.24451
  0
LINE
  8
0
 10
7.85754
 20
-1.24451
 11
7.83463
 21
-1.38145
  0
LINE
  8
0
 10
7.83463
 20
-1.38145
 11
7.80933
 21
-1.51797
  0
LINE
  8
0
 10
7.80933
 20
-1.51797
 11
7.78165
 21
-1.65404
  0
LINE
  8
0
 10
7.78165
 20
-1.65404
 11
7.75159
 21
-1.7896
  0
LINE
  8
0
 10
7.75159
 20
-1.7896
 11
7.71918
 21
-1.92461
  0
LINE
  8
0
 10
7.71918
 20
-1.92461
 11
7.68442
 21
-2.05902
  0
LINE
  8
0
 10
7.68442
 20
-2.05902
 11
7.64731
 21
-2.19283
  0
LINE
  8
0
 10
7.64731
 20
-2.19283
 11
7.60788
 21
-2.32596
  0
LINE
  8
0
 10
7.60788
 20
-2.32596
 11
7.56612
 21
-2.45837
  0
LINE
  8
0
 10
7.56612
 20
-2.45837
 11
7.52206
 21
-2.59006
  0
LINE
  8
0
 10
7.52206
 20
-2.59006
 11
7.47572
 21
-2.72093
  0
LINE
  8
0
 10
7.47572
 20
-2.72093
 11
7.42709
 21
-2.85098
  0
LINE
  8
0
 10
7.42709
 20
-2.85098
 11
7.37621
 21
-2.98018
  0
LINE
  8
0
 10
7.37621
 20
-2.98018
 11
7.32307
 21
-3.10846
  0
LINE
  8
0
 10
7.32307
 20
-3.10846
 11
7.2677
 21
-3.23578
  0
LINE
  8
0
 10
7.2677
 20
-3.23578
 11
7.21013
 21
-3.36214
  0
LINE
  8
0
 10
7.21013
 20
-3.36214
 11
7.15034
 21
-3.48746
  0
LINE
  8
0
 10
7.15034
 20
-3.48746
 11
7.08839
 21
-3.61171
  0
LINE
  8
0
 10
7.08839
 20
-3.61171
 11
7.02428
 21
-3.73488
  0
LINE
  8
0
 10
7.02428
 20
-3.73488
 11
6.95802
 21
-3.85689
  0
LINE
  8
0
 10
6.95802
 20
-3.85689
 11
6.88966
 21
-3.97774
  0
LINE
  8
0
 10
6.88966
 20
-3.97774
 11
6.81918
 21
-4.09738
  0
LINE
  8
0
 10
6.81918
 20
-4.09738
 11
6.74664
 21
-4.21576
  0
LINE
  8
0
 10
6.74664
 20
-4.21576
 11
6.67204
 21
-4.33287
  0
LINE
  8
0
 10
6.67204
 20
-4.33287
 11
6.5954
 21
-4.44865
  0
LINE
  8
0
 10
6.5954
 20
-4.44865
 11
6.51675
 21
-4.56308
  0
LINE
  8
0
 10
6.51675
 20
-4.56308
 11
6.43613
 21
-4.67612
  0
LINE
  8
0
 10
6.43613
 20
-4.67612
 11
6.35353
 21
-4.78773
  0
LINE
  8
0
 10
6.35353
 20
-4.78773
 11
6.26901
 21
-4.89789
  0
LINE
  8
0
 10
6.26901
 20
-4.89789
 11
6.18257
 21
-5.00655
  0
LINE
  8
0
 10
6.18257
 20
-5.00655
 11
6.09425
 21
-5.11369
  0
LINE
  8
0
 10
6.09425
 20
-5.11369
 11
6.00409
 21
-5.21927
  0
LINE
  8
0
 10
6.00409
 20
-5.21927
 11
5.91208
 21
-5.32326
  0
LINE
  8
0
 10
5.91208
 20
-5.32326
 11
5.81828
 21
-5.42563
  0
LINE
  8
0
 10
5.81828
 20
-5.42563
 11
5.7227
 21
-5.52635
  0
LINE
  8
0
 10
5.7227
 20
-5.52635
 11
5.62538
 21
-5.62538
  0
LINE
  8
0
 10
5.62538
 20
-5.62538
 11
5.52635
 21
-5.7227
  0
LINE
  8
0
 10
5.52635
 20
-5.7227
 11
5.42563
 21
-5.81828
  0
LINE
  8
0
 10
5.42563
 20
-5.81828
 11
5.32326
 21
-5.91208
  0
LINE
  8
0
 10
5.32326
 20
-5.91208
 11
5.21927
 21
-6.00409
  0
LINE
  8
0
 10
5.21927
 20
-6.00409
 11
5.11369
 21
-6.09425
  0
LINE
  8
0
 10
5.11369
 20
-6.09425
 11
5.00655
 21
-6.18257
  0
LINE
  8
0
 10
5.00655
 20
-6.18257
 11
4.89789
 21
-6.26901
  0
LINE
  8
0
 10
4.89789
 20
-6.26901
 11
4.78773
 21
-6.35353
  0
LINE
  8
0
 10
4.78773
 20
-6.35353
 11
4.67612
 21
-6.43613
  0
LINE
  8
0
 10
4.67612
 20
-6.43613
 11
4.56308
 21
-6.51675
  0
LINE
  8
0
 10
4.56308
 20
-6.51675
 11
4.44865
 21
-6.5954
  0
LINE
  8
0
 10
4.44865
 20
-6.5954
 11
4.33287
 21
-6.67204
  0
LINE
  8
0
 10
4.33287
 20
-6.67204
 11
4.21576
 21
-6.74664
  0
LINE
  8
0
 10
4.21576
 20
-6.74664
 11
4.09738
 21
-6.81918
  0
LINE
  8
0
 10
4.09738
 20
-6.81918
 11
3.97774
 21
-6.88966
  0
LINE
  8
0
 10
3.97774
 20
-6.88966
 11
3.85689
 21
-6.95802
  0
LINE
  8
0
 10
3.85689
 20
-6.95802
 11
3.73488
 21
-7.02428
  0
LINE
  8
0
 10
3.73488
 20
-7.02428
 11
3.61171
 21
-7.08839
  0
LINE
  8
0
 10
3.61171
 20
-7.08839
 11
3.48746
 21
-7.15034
  0
LINE
  8
0
 10
3.48746
 20
-7.15034
 11
3.36214
 21
-7.21013
  0
LINE
  8
0
 10
3.36214
 20
-7.21013
 11
3.23578
 21
-7.2677
  0
LINE
  8
0
 10
3.23578
 20
-7.2677
 11
3.10846
 21
-7.32307
  0
LINE
  8
0
 10
3.10846
 20
-7.32307
 11
2.98018
 21
-7.37621
  0
LINE
  8
0
 10
2.98018
 20
-7.37621
 11
2.85098
 21
-7.42709
  0
LINE
  8
0
 10
2.85098
 20
-7.42709
 11
2.72093
 21
-7.47572
  0
LINE
  8
0
 10
2.72093
 20
-7.47572
 11
2.59006
 21
-7.52206
  0
LINE
  8
0
 10
2.59006
 20
-7.52206
 11
2.45837
 21
-7.56612
  0
LINE
  8
0
 10
2.45837
 20
-7.56612
 11
2.32596
 21
-7.60788
  0
LINE
  8
0
 10
2.32596
 20
-7.60788
 11
2.19283
 21
-7.64731
  0
LINE
  8
0
 10
2.19283
 20
-7.64731
 11
2.05902
 21
-7.68442
  0
LINE
  8
0
 10
2.05902
 20
-7.68442
 11
1.92461
 21
-7.71918
  0
LINE
  8
0
 10
1.92461
 20
-7.71918
 11
1.7896
 21
-7.75159
  0
LINE
  8
0
 10
1.7896
 20
-7.75159
 11
1.65404
 21
-7.78165
  0
LINE
  8
0
 10
1.65404
 20
-7.78165
 11
1.51797
 21
-7.80933
  0
LINE
  8
0
 10
1.51797
 20
-7.80933
 11
1.38145
 21
-7.83463
  0
LINE
  8
0
 10
1.38145
 20
-7.83463
 11
1.24451
 21
-7.85754
  0
LINE
  8
0
 10
1.24451
 20
-7.85754
 11
1.10718
 21
-7.87807
  0
LINE
  8
0
 10
1.10718
 20
-7.87807
 11
0.969528
 21
-7.89619
  0
LINE
  8
0
 10
0.969528
 20
-7.89619
 11
0.831573
 21
-7.91191
  0
LINE
  8
0
 10
0.831573
 20
-7.91191
 11
0.693359
 21
-7.92522
  0
LINE
  8
0
 10
0.693359
 20
-7.92522
 11
0.554947
 21
-7.93611
  0
LINE
  8
0
 10
0.554947
 20
-7.93611
 11
0.416351
 21
-7.9446
  0
LINE
  8
0
 10
0.416351
 20
-7.9446
 11
0.277634
 21
-7.95065
  0
LINE
  8
0
 10
0.277634
 20
-7.95065
 11
0.13884
 21
-7.95428
  0
LINE
  8
0
 10
0.13884
 20
-7.95428
 11
0
 21
-7.95549
  0
LINE
  8
0
 10
0
 20
-7.95549
 11
-0.13884
 21
-7.95428
  0
LINE
  8
0
 10
-19.7224
 20
-49.9031
 11
-19.4449
 21
-49.8958
  0
LINE
  8
0
 10
-19.4449
 20
-49.8958
 11
-19.1676
 21
-49.8837
  0
LINE
  8
0
 10
-19.1676
 20
-49.8837
 11
-18.8905
 21
-49.8667
  0
LINE
  8
0
 10
-18.8905
 20
-49.8667
 11
-18.6138
 21
-49.845
  0
LINE
  8
0
 10
-18.6138
 20
-49.845
 11
-18.3374
 21
-49.8184
  0
LINE
  8
0
 10
-18.3374
 20
-49.8184
 11
-18.0616
 21
-49.7869
  0
LINE
  8
0
 10
-18.0616
 20
-49.7869
 11
-17.7864
 21
-49.7507
  0
LINE
  8
0
 10
-17.7864
 20
-49.7507
 11
-17.5118
 21
-49.7097
  0
LINE
  8
0
 10
-17.5118
 20
-49.7097
 11
-17.2381
 21
-49.6638
  0
LINE
  8
0
 10
-17.2381
 20
-49.6638
 11
-16.9651
 21
-49.6133
  0
LINE
  8
0
 10
-16.9651
 20
-49.6133
 11
-16.6931
 21
-49.5579
  0
LINE
  8
0
 10
-16.6931
 20
-49.5579
 11
-16.422
 21
-49.4978
  0
LINE
  8
0
 10
-16.422
 20
-49.4978
 11
-16.1521
 21
-49.433
  0
LINE
  8
0
 10
-16.1521
 20
-49.433
 11
-15.8834
 21
-49.3635
  0
LINE
  8
0
 10
-15.8834
 20
-49.3635
 11
-15.6159
 21
-49.2893
  0
LINE
  8
0
 10
-15.6159
 20
-49.2893
 11
-15.3497
 21
-49.2105
  0
LINE
  8
0
 10
-15.3497
 20
-49.2105
 11
-15.0849
 21
-49.127
  0
LINE
  8
0
 10
-15.0849
 20
-49.127
 11
-14.8217
 21
-49.0389
  0
LINE
  8
0
 10
-14.8217
 20
-49.0389
 11
-14.56
 21
-48.9463
  0
LINE
  8
0
 10
-14.56
 20
-48.9463
 11
-14.3
 21
-48.8491
  0
LINE
  8
0
 10
-14.3
 20
-48.8491
 11
-14.0417
 21
-48.7473
  0
LINE
  8
0
 10
-14.0417
 20
-48.7473
 11
-13.7852
 21
-48.6411
  0
LINE
  8
0
 10
-13.7852
 20
-48.6411
 11
-13.5307
 21
-48.5304
  0
LINE
  8
0
 10
-13.5307
 20
-48.5304
 11
-13.278
 21
-48.4153
  0
LINE
  8
0
 10
-13.278
 20
-48.4153
 11
-13.0275
 21
-48.2958
  0
LINE
  8
0
 10
-13.0275
 20
-48.2958
 11
-12.7791
 21
-48.1719
  0
LINE
  8
0
 10
-12.7791
 20
-48.1719
 11
-12.5328
 21
-48.0437
  0
LINE
  8
0
 10
-12.5328
 20
-48.0437
 11
-12.2889
 21
-47.9113
  0
LINE
  8
0
 10
-12.2889
 20
-47.9113
 11
-12.0473
 21
-47.7746
  0
LINE
  8
0
 10
-12.0473
 20
-47.7746
 11
-11.8081
 21
-47.6337
  0
LINE
  8
0
 10
-11.8081
 20
-47.6337
 11
-11.5714
 21
-47.4886
  0
LINE
  8
0
 10
-11.5714
 20
-47.4886
 11
-11.3372
 21
-47.3395
  0
LINE
  8
0
 10
-11.3372
 20
-47.3395
 11
-11.1058
 21
-47.1862
  0
LINE
  8
0
 10
-11.1058
 20
-47.1862
 11
-10.877
 21
-47.029
  0
LINE
  8
0
 10
-10.877
 20
-47.029
 11
-10.651
 21
-46.8678
  0
LINE
  8
0
 10
-10.651
 20
-46.8678
 11
-10.4278
 21
-46.7027
  0
LINE
  8
0
 10
-10.4278
 20
-46.7027
 11
-10.2076
 21
-46.5337
  0
LINE
  8
0
 10
-10.2076
 20
-46.5337
 11
-9.99036
 21
-46.3609
  0
LINE
  8
0
 10
-9.99036
 20
-46.3609
 11
-9.77615
 21
-46.1843
  0
LINE
  8
0
 10
-9.77615
 20
-46.1843
 11
-9.56506
 21
-46.004
  0
LINE
  8
0
 10
-9.56506
 20
-46.004
 11
-9.35715
 21
-45.8201
  0
LINE
  8
0
 10
-9.35715
 20
-45.8201
 11
-9.15248
 21
-45.6325
  0
LINE
  8
0
 10
-9.15248
 20
-45.6325
 11
-8.95113
 21
-45.4415
  0
LINE
  8
0
 10
-8.95113
 20
-45.4415
 11
-8.75313
 21
-45.2469
  0
LINE
  8
0
 10
-8.75313
 20
-45.2469
 11
-8.55855
 21
-45.0489
  0
LINE
  8
0
 10
-8.55855
 20
-45.0489
 11
-8.36746
 21
-44.8475
  0
LINE
  8
0
 10
-8.36746
 20
-44.8475
 11
-8.17992
 21
-44.6429
  0
LINE
  8
0
 10
-8.17992
 20
-44.6429
 11
-7.99597
 21
-44.4349
  0
LINE
  8
0
 10
-7.99597
 20
-44.4349
 11
-7.81569
 21
-44.2238
  0
LINE
  8
0
 10
-7.81569
 20
-44.2238
 11
-7.63911
 21
-44.0096
  0
LINE
  8
0
 10
-7.63911
 20
-44.0096
 11
-7.46631
 21
-43.7924
  0
LINE
  8
0
 10
-7.46631
 20
-43.7924
 11
-7.29732
 21
-43.5722
  0
LINE
  8
0
 10
-7.29732
 20
-43.5722
 11
-7.13219
 21
-43.349
  0
LINE
  8
0
 10
-7.13219
 20
-43.349
 11
-6.97098
 21
-43.123
  0
LINE
  8
0
 10
-6.97098
 20
-43.123
 11
-6.81375
 21
-42.8942
  0
LINE
  8
0
 10
-6.81375
 20
-42.8942
 11
-6.66054
 21
-42.6628
  0
LINE
  8
0
 10
-6.66054
 20
-42.6628
 11
-6.51138
 21
-42.4286
  0
LINE
  8
0
 10
-6.51138
 20
-42.4286
 11
-6.36633
 21
-42.1919
  0
LINE
  8
0
 10
-6.36633
 20
-42.1919
 11
-6.22543
 21
-41.9527
  0
LINE
  8
0
 10
-6.22543
 20
-41.9527
 11
-6.08875
 21
-41.7111
  0
LINE
  8
0
 10
-6.08875
 20
-41.7111
 11
-5.95628
 21
-41.4672
  0
LINE
  8
0
 10
-5.95628
 20
-41.4672
 11
-5.82811
 21
-41.2209
  0
LINE
  8
0
 10
-5.82811
 20
-41.2209
 11
-5.70424
 21
-40.9725
  0
LINE
  8
0
 10
-5.70424
 20
-40.9725
 11
-5.58473
 21
-40.722
  0
LINE
  8
0
 10
-5.58473
 20
-40.722
 11
-5.4696
 21
-40.4693
  0
LINE
  8
0
 10
-5.4696
 20
-40.4693
 11
-5.35892
 21
-40.2148
  0
LINE
  8
0
 10
-5.35892
 20
-40.2148
 11
-5.25269
 21
-39.9583
  0
LINE
  8
0
 10
-5.25269
 20
-39.9583
 11
-5.15094
 21
-39.7
  0
LINE
  8
0
 10
-5.15094
 20
-39.7
 11
-5.05373
 21
-39.44
  0
LINE
  8
0
 10
-5.05373
 20
-39.44
 11
-4.96106
 21
-39.1783
  0
LINE
  8
0
 10
-4.96106
 20
-39.1783
 11
-4.87297
 21
-38.9151
  0
LINE
  8
0
 10
-4.87297
 20
-38.9151
 11
-4.78951
 21
-38.6503
  0
LINE
  8
0
 10
-4.78951
 20
-38.6503
 11
-4.71066
 21
-38.3841
  0
LINE
  8
0
 10
-4.71066
 20
-38.3841
 11
-4.63647
 21
-38.1166
  0
LINE
  8
0
 10
-4.63647
 20
-38.1166
 11
-4.56697
 21
-37.8479
  0
LINE
  8
0
 10
-4.56697
 20
-37.8479
 11
-4.50217
 21
-37.578
  0
LINE
  8
0
 10
-4.50217
 20
-37.578
 11
-4.44208
 21
-37.3069
  0
LINE
  8
0
 10
-4.44208
 20
-37.3069
 11
-4.38673
 21
-37.0349
  0
LINE
  8
0
 10
-4.38673
 20
-37.0349
 11
-4.33615
 21
-36.7619
  0
LINE
  8
0
 10
-4.33615
 20
-36.7619
 11
-4.29033
 21
-36.4882
  0
LINE
  8
0
 10
-4.29033
 20
-36.4882
 11
-4.2493
 21
-36.2136
  0
LINE
  8
0
 10
-4.2493
 20
-36.2136
 11
-4.21306
 21
-35.9384
  0
LINE
  8
0
 10
-4.21306
 20
-35.9384
 11
-4.18164
 21
-35.6626
  0
LINE
  8
0
 10
-4.18164
 20
-35.6626
 11
-4.15503
 21
-35.3862
  0
LINE
  8
0
 10
-4.15503
 20
-35.3862
 11
-4.13326
 21
-35.1095
  0
LINE
  8
0
 10
-4.13326
 20
-35.1095
 11
-4.1163
 21
-34.8324
  0
LINE
  8
0
 10
-4.1163
 20
-34.8324
 11
-4.1042
 21
-34.5551
  0
LINE
  8
0
 10
-4.1042
 20
-34.5551
 11
-4.09692
 21
-34.2776
  0
LINE
  8
0
 10
-4.09692
 20
-34.2776
 11
-4.09451
 21
-34
  0
LINE
  8
0
 10
-4.09451
 20
-34
 11
-4.09692
 21
-33.7224
  0
LINE
  8
0
 10
-4.09692
 20
-33.7224
 11
-4.1042
 21
-33.4449
  0
LINE
  8
0
 10
-4.1042
 20
-33.4449
 11
-4.1163
 21
-33.1676
  0
LINE
  8
0
 10
-4.1163
 20
-33.1676
 11
-4.13326
 21
-32.8905
  0
LINE
  8
0
 10
-4.13326
 20
-32.8905
 11
-4.15503
 21
-32.6138
  0
LINE
  8
0
 10
-4.15503
 20
-32.6138
 11
-4.18164
 21
-32.3374
  0
LINE
  8
0
 10
-4.18164
 20
-32.3374
 11
-4.21306
 21
-32.0616
  0
LINE
  8
0
 10
-4.21306
 20
-32.0616
 11
-4.2493
 21
-31.7864
  0
LINE
  8
0
 10
-4.2493
 20
-31.7864
 11
-4.29033
 21
-31.5118
  0
LINE
  8
0
 10
-4.29033
 20
-31.5118
 11
-4.33615
 21
-31.2381
  0
LINE
  8
0
 10
-4.33615
 20
-31.2381
 11
-4.38673
 21
-30.9651
  0
LINE
  8
0
 10
-4.38673
 20
-30.9651
 11
-4.44208
 21
-30.6931
  0
LINE
  8
0
 10
-4.44208
 20
-30.6931
 11
-4.50217
 21
-30.422
  0
LINE
  8
0
 10
-4.50217
 20
-30.422
 11
-4.56697
 21
-30.1521
  0
LINE
  8
0
 10
-4.56697
 20
-30.1521
 11
-4.63647
 21
-29.8834
  0
LINE
  8
0
 10
-4.63647
 20
-29.8834
 11
-4.71066
 21
-29.6159
  0
LINE
  8
0
 10
-4.71066
 20
-29.6159
 11
-4.78951
 21
-29.3497
  0
LINE
  8
0
 10
-4.78951
 20
-29.3497
 11
-4.87297
 21
-29.0849
  0
LINE
  8
0
 10
-4.87297
 20
-29.0849
 11
-4.96106
 21
-28.8217
  0
LINE
  8
0
 10
-4.96106
 20
-28.8217
 11
-5.05373
 21
-28.56
  0
LINE
  8
0
 10
-5.05373
 20
-28.56
 11
-5.15094
 21
-28.3
  0
LINE
  8
0
 10
-5.15094
 20
-28.3
 11
-5.25269
 21
-28.0417
  0
LINE
  8
0
 10
-5.25269
 20
-28.0417
 11
-5.35892
 21
-27.7852
  0
LINE
  8
0
 10
-5.35892
 20
-27.7852
 11
-5.4696
 21
-27.5307
  0
LINE
  8
0
 10
-5.4696
 20
-27.5307
 11
-5.58473
 21
-27.278
  0
LINE
  8
0
 10
-5.58473
 20
-27.278
 11
-5.70424
 21
-27.0275
  0
LINE
  8
0
 10
-5.70424
 20
-27.0275
 11
-5.82811
 21
-26.7791
  0
LINE
  8
0
 10
-5.82811
 20
-26.7791
 11
-5.95628
 21
-26.5328
  0
LINE
  8
0
 10
-5.95628
 20
-26.5328
 11
-6.08875
 21
-26.2889
  0
LINE
  8
0
 10
-6.08875
 20
-26.2889
 11
-6.22543
 21
-26.0473
  0
LINE
  8
0
 10
-6.22543
 20
-26.0473
 11
-6.36633
 21
-25.8081
  0
LINE
  8
0
 10
-6.36633
 20
-25.8081
 11
-6.51138
 21
-25.5714
  0
LINE
  8
0
 10
-6.51138
 20
-25.5714
 11
-6.66054
 21
-25.3372
  0
LINE
  8
0
 10
-6.66054
 20
-25.3372
 11
-6.81375
 21
-25.1058
  0
LINE
  8
0
 10
-6.81375
 20
-25.1058
 11
-6.97098
 21
-24.877
  0
LINE
  8
0
 10
-6.97098
 20
-24.877
 11
-7.13219
 21
-24.651
  0
LINE
  8
0
 10
-7.13219
 20
-24.651
 11
-7.29732
 21
-24.4278
  0
LINE
  8
0
 10
-7.29732
 20
-24.4278
 11
-7.46631
 21
-24.2076
  0
LINE
  8
0
 10
-7.46631
 20
-24.2076
 11
-7.63911
 21
-23.9904
  0
LINE
  8
0
 10
-7.63911
 20
-23.9904
 11
-7.81569
 21
-23.7762
  0
LINE
  8
0
 10
-7.81569
 20
-23.7762
 11
-7.99597
 21
-23.5651
  0
LINE
  8
0
 10
-7.99597
 20
-23.5651
 11
-8.17992
 21
-23.3571
  0
LINE
  8
0
 10
-8.17992
 20
-23.3571
 11
-8.36746
 21
-23.1525
  0
LINE
  8
0
 10
-8.36746
 20
-23.1525
 11
-8.55855
 21
-22.9511
  0
LINE
  8
0
 10
-8.55855
 20
-22.9511
 11
-8.75313
 21
-22.7531
  0
LINE
  8
0
 10
-8.75313
 20
-22.7531
 11
-8.95113
 21
-22.5585
  0
LINE
  8
0
 10
-8.95113
 20
-22.5585
 11
-9.15248
 21
-22.3675
  0
LINE
  8
0
 10
-9.15248
 20
-22.3675
 11
-9.35715
 21
-22.1799
  0
LINE
  8
0
 10
-9.35715
 20
-22.1799
 11
-9.56506
 21
-21.996
  0
LINE
  8
0
 10
-9.56506
 20
-21.996
 11
-9.77615
 21
-21.8157
  0
LINE
  8
0
 10
-9.77615
 20
-21.8157
 11
-9.99036
 21
-21.6391
  0
LINE
  8
0
 10
-9.99036
 20
-21.6391
 11
-10.2076
 21
-21.4663
  0
LINE
  8
0
 10
-10.2076
 20
-21.4663
 11
-10.4278
 21
-21.2973
  0
LINE
  8
0
 10
-10.4278
 20
-21.2973
 11
-10.651
 21
-21.1322
  0
LINE
  8
0
 10
-10.651
 20
-21.1322
 11
-10.877
 21
-20.971
  0
LINE
  8
0
 10
-10.877
 20
-20.971
 11
-11.1058
 21
-20.8138
  0
LINE
  8
0
 10
-11.1058
 20
-20.8138
 11
-11.3372
 21
-20.6605
  0
LINE
  8
0
 10
-11.3372
 20
-20.6605
 11
-11.5714
 21
-20.5114
  0
LINE
  8
0
 10
-11.5714
 20
-20.5114
 11
-11.8081
 21
-20.3663
  0
LINE
  8
0
 10
-11.8081
 20
-20.3663
 11
-12.0473
 21
-20.2254
  0
LINE
  8
0
 10
-12.0473
 20
-20.2254
 11
-12.2889
 21
-20.0887
  0
LINE
  8
0
 10
-12.2889
 20
-20.0887
 11
-12.5328
 21
-19.9563
  0
LINE
  8
0
 10
-12.5328
 20
-19.9563
 11
-12.7791
 21
-19.8281
  0
LINE
  8
0
 10
-12.7791
 20
-19.8281
 11
-13.0275
 21
-19.7042
  0
LINE
  8
0
 10
-13.0275
 20
-19.7042
 11
-13.278
 21
-19.5847
  0
LINE
  8
0
 10
-13.278
 20
-19.5847
 11
-13.5307
 21
-19.4696
  0
LINE
  8
0
 10
-13.5307
 20
-19.4696
 11
-13.7852
 21
-19.3589
  0
LINE
  8
0
 10
-13.7852
 20
-19.3589
 11
-14.0417
 21
-19.2527
  0
LINE
  8
0
 10
-14.0417
 20
-19.2527
 11
-14.3
 21
-19.1509
  0
LINE
  8
0
 10
-14.3
 20
-19.1509
 11
-14.56
 21
-19.0537
  0
LINE
  8
0
 10
-14.56
 20
-19.0537
 11
-14.8217
 21
-18.9611
  0
LINE
  8
0
 10
-14.8217
 20
-18.9611
 11
-15.0849
 21
-18.873
  0
LINE
  8
0
 10
-15.0849
 20
-18.873
 11
-15.3497
 21
-18.7895
  0
LINE
  8
0
 10
-15.3497
 20
-18.7895
 11
-15.6159
 21
-18.7107
  0
LINE
  8
0
 10
-15.6159
 20
-18.7107
 11
-15.8834
 21
-18.6365
  0
LINE
  8
0
 10
-15.8834
 20
-18.6365
 11
-16.1521
 21
-18.567
  0
LINE
  8
0
 10
-16.1521
 20
-18.567
 11
-16.422
 21
-18.5022
  0
LINE
  8
0
 10
-16.422
 20
-18.5022
 11
-16.6931
 21
-18.4421
  0
LINE
  8
0
 10
-16.6931
 20
-18.4421
 11
-16.9651
 21
-18.3867
  0
LINE
  8
0
 10
-16.9651
 20
-18.3867
 11
-17.2381
 21
-18.3362
  0
LINE
  8
0
 10
-17.2381
 20
-18.3362
 11
-17.5118
 21
-18.2903
  0
LINE
  8
0
 10
-17.5118
 20
-18.2903
 11
-17.7864
 21
-18.2493
  0
LINE
  8
0
 10
-17.7864
 20
-18.2493
 11
-18.0616
 21
-18.2131
  0
LINE
  8
0
 10
-18.0616
 20
-18.2131
 11
-18.3374
 21
-18.1816
  0
LINE
  8
0
 10
-18.3374
 20
-18.1816
 11
-18.6138
 21
-18.155
  0
LINE
  8
0
 10
-18.6138
 20
-18.155
 11
-18.8905
 21
-18.1333
  0
LINE
  8
0
 10
-18.8905
 20
-18.1333
 11
-19.1676
 21
-18.1163
  0
LINE
  8
0
 10
-19.1676
 20
-18.1163
 11
-19.4449
 21
-18.1042
  0
LINE
  8
0
 10
-19.4449
 20
-18.1042
 11
-19.7224
 21
-18.0969
  0
LINE
  8
0
 10
-19.7224
 20
-18.0969
 11
-20
 21
-18.0945
  0
LINE
  8
0
 10
-20
 20
-18.0945
 11
-20.2776
 21
-18.0969
  0
LINE
  8
0
 10
-20.2776
 20
-18.0969
 11
-20.5551
 21
-18.1042
  0
LINE
  8
0
 10
-20.5551
 20
-18.1042
 11
-20.8324
 21
-18.1163
  0
LINE
  8
0
 10
-20.8324
 20
-18.1163
 11
-21.1095
 21
-18.1333
  0
LINE
  8
0
 10
-21.1095
 20
-18.1333
 11
-21.3862
 21
-18.155
  0
LINE
  8
0
 10
-21.3862
 20
-18.155
 11
-21.6626
 21
-18.1816
  0
LINE
  8
0
 10
-21.6626
 20
-18.1816
 11
-21.9384
 21
-18.2131
  0
LINE
  8
0
 10
-21.9384
 20
-18.2131
 11
-22.2136
 21
-18.2493
  0
LINE
  8
0
 10
-22.2136
 20
-18.2493
 11
-22.4882
 21
-18.2903
  0
LINE
  8
0
 10
-22.4882
 20
-18.2903
 11
-22.7619
 21
-18.3362
  0
LINE
  8
0
 10
-22.7619
 20
-18.3362
 11
-23.0349
 21
-18.3867
  0
LINE
  8
0
 10
-23.0349
 20
-18.3867
 11
-23.3069
 21
-18.4421
  0
LINE
  8
0
 10
-23.3069
 20
-18.4421
 11
-23.578
 21
-18.5022
  0
LINE
  8
0
 10
-23.578
 20
-18.5022
 11
-23.8479
 21
-18.567
  0
LINE
  8
0
 10
-23.8479
 20
-18.567
 11
-24.1166
 21
-18.6365
  0
LINE
  8
0
 10
-24.1166
 20
-18.6365
 11
-24.3841
 21
-18.7107
  0
LINE
  8
0
 10
-24.3841
 20
-18.7107
 11
-24.6503
 21
-18.7895
  0
LINE
  8
0
 10
-24.6503
 20
-18.7895
 11
-24.9151
 21
-18.873
  0
LINE
  8
0
 10
-24.9151
 20
-18.873
 11
-25.1783
 21
-18.9611
  0
LINE
  8
0
 10
-25.1783
 20
-18.9611
 11
-25.44
 21
-19.0537
  0
LINE
  8
0
 10
-25.44
 20
-19.0537
 11
-25.7
 21
-19.1509
  0
LINE
  8
0
 10
-25.7
 20
-19.1509
 11
-25.9583
 21
-19.2527
  0
LINE
  8
0
 10
-25.9583
 20
-19.2527
 11
-26.2148
 21
-19.3589
  0
LINE
  8
0
 10
-26.2148
 20
-19.3589
 11
-26.4693
 21
-19.4696
  0
LINE
  8
0
 10
-26.4693
 20
-19.4696
 11
-26.722
 21
-19.5847
  0
LINE
  8
0
 10
-26.722
 20
-19.5847
 11
-26.9725
 21
-19.7042
  0
LINE
  8
0
 10
-26.9725
 20
-19.7042
 11
-27.2209
 21
-19.8281
  0
LINE
  8
0
 10
-27.2209
 20
-19.8281
 11
-27.4672
 21
-19.9563
  0
LINE
  8
0
 10
-27.4672
 20
-19.9563
 11
-27.7111
 21
-20.0887
  0
LINE
  8
0
 10
-27.7111
 20
-20.0887
 11
-27.9527
 21
-20.2254
  0
LINE
  8
0
 10
-27.9527
 20
-20.2254
 11
-28.1919
 21
-20.3663
  0
LINE
  8
0
 10
-28.1919
 20
-20.3663
 11
-28.4286
 21
-20.5114
  0
LINE
  8
0
 10
-28.4286
 20
-20.5114
 11
-28.6628
 21
-20.6605
  0
LINE
  8
0
 10
-28.6628
 20
-20.6605
 11
-28.8942
 21
-20.8138
  0
LINE
  8
0
 10
-28.8942
 20
-20.8138
 11
-29.123
 21
-20.971
  0
LINE
  8
0
 10
-29.123
 20
-20.971
 11
-29.349
 21
-21.1322
  0
LINE
  8
0
 10
-29.349
 20
-21.1322
 11
-29.5722
 21
-21.2973
  0
LINE
  8
0
 10
-29.5722
 20
-21.2973
 11
-29.7924
 21
-21.4663
  0
LINE
  8
0
 10
-29.7924
 20
-21.4663
 11
-30.0096
 21
-21.6391
  0
LINE
  8
0
 10
-30.0096
 20
-21.6391
 11
-30.2238
 21
-21.8157
  0
LINE
  8
0
 10
-30.2238
 20
-21.8157
 11
-30.4349
 21
-21.996
  0
LINE
  8
0
 10
-30.4349
 20
-21.996
 11
-30.6429
 21
-22.1799
  0
LINE
  8
0
 10
-30.6429
 20
-22.1799
 11
-30.8475
 21
-22.3675
  0
LINE
  8
0
 10
-30.8475
 20
-22.3675
 11
-31.0489
 21
-22.5585
  0
LINE
  8
0
 10
-31.0489
 20
-22.5585
 11
-31.2469
 21
-22.7531
  0
LINE
  8
0
 10
-31.2469
 20
-22.7531
 11
-31.4415
 21
-22.9511
  0
LINE
  8
0
 10
-31.4415
 20
-22.9511
 11
-31.6325
 21
-23.1525
  0
LINE
  8
0
 10
-31.6325
 20
-23.1525
 11
-31.8201
 21
-23.3571
  0
LINE
  8
0
 10
-31.8201
 20
-23.3571
 11
-32.004
 21
-23.5651
  0
LINE
  8
0
 10
-32.004
 20
-23.5651
 11
-32.1843
 21
-23.7762
  0
LINE
  8
0
 10
-32.1843
 20
-23.7762
 11
-32.3609
 21
-23.9904
  0
LINE
  8
0
 10
-32.3609
 20
-23.9904
 11
-32.5337
 21
-24.2076
  0
LINE
  8
0
 10
-32.5337
 20
-24.2076
 11
-32.7027
 21
-24.4278
  0
LINE
  8
0
 10
-32.7027
 20
-24.4278
 11
-32.8678
 21
-24.651
  0
LINE
  8
0
 10
-32.8678
 20
-24.651
 11
-33.029
 21
-24.877
  0
LINE
  8
0
 10
-33.029
 20
-24.877
 11
-33.1862
 21
-25.1058
  0
LINE
  8
0
 10
-33.1862
 20
-25.1058
 11
-33.3395
 21
-25.3372
  0
LINE
  8
0
 10
-33.3395
 20
-25.3372
 11
-33.4886
 21
-25.5714
  0
LINE
  8
0
 10
-33.4886
 20
-25.5714
 11
-33.6337
 21
-25.8081
  0
LINE
  8
0
 10
-33.6337
 20
-25.8081
 11
-33.7746
 21
-26.0473
  0
LINE
  8
0
 10
-33.7746
 20
-26.0473
 11
-33.9113
 21
-26.2889
  0
LINE
  8
0
 10
-33.9113
 20
-26.2889
 11
-34.0437
 21
-26.5328
  0
LINE
  8
0
 10
-34.0437
 20
-26.5328
 11
-34.1719
 21
-26.7791
  0
LINE
  8
0
 10
-34.1719
 20
-26.7791
 11
-34.2958
 21
-27.0275
  0
LINE
  8
0
 10
-34.2958
 20
-27.0275
 11
-34.4153
 21
-27.278
  0
LINE
  8
0
 10
-34.4153
 20
-27.278
 11
-34.5304
 21
-27.5307
  0
LINE
  8
0
 10
-34.5304
 20
-27.5307
 11
-34.6411
 21
-27.7852
  0
LINE
  8
0
 10
-34.6411
 20
-27.7852
 11
-34.7473
 21
-28.0417
  0
LINE
  8
0
 10
-34.7473
 20
-28.0417
 11
-34.8491
 21
-28.3
  0
LINE
  8
0
 10
-34.8491
 20
-28.3
 11
-34.9463
 21
-28.56
  0
LINE
  8
0
 10
-34.9463
 20
-28.56
 11
-35.0389
 21
-28.8217
  0
LINE
  8
0
 10
-35.0389
 20
-28.8217
 11
-35.127
 21
-29.0849
  0
LINE
  8
0
 10
-35.127
 20
-29.0849
 11
-35.2105
 21
-29.3497
  0
LINE
  8
0
 10
-35.2105
 20
-29.3497
 11
-35.2893
 21
-29.6159
  0
LINE
  8
0
 10
-35.2893
 20
-29.6159
 11
-35.3635
 21
-29.8834
  0
LINE
  8
0
 10
-35.3635
 20
-29.8834
 11
-35.433
 21
-30.1521
  0
LINE
  8
0
 10
-35.433
 20
-30.1521
 11
-35.4978
 21
-30.422
  0
LINE
  8
0
 10
-35.4978
 20
-30.422
 11
-35.5579
 21
-30.6931
  0
LINE
  8
0
 10
-35.5579
 20
-30.6931
 11
-35.6133
 21
-30.9651
  0
LINE
  8
0
 10
-35.6133
 20
-30.9651
 11
-35.6638
 21
-31.2381
  0
LINE
  8
0
 10
-35.6638
 20
-31.2381
 11
-35.7097
 21
-31.5118
  0
LINE
  8
0
 10
-35.7097
 20
-31.5118
 11
-35.7507
 21
-31.7864
  0
LINE
  8
0
 10
-35.7507
 20
-31.7864
 11
-35.7869
 21
-32.0616
  0
LINE
  8
0
 10
-35.7869
 20
-32.0616
 11
-35.8184
 21
-32.3374
  0
LINE
  8
0
 10
-35.8184
 20
-32.3374
 11
-35.845
 21
-32.6138
  0
LINE
  8
0
 10
-35.845
 20
-32.6138
 11
-35.8667
 21
-32.8905
  0
LINE
  8
0
 10
-35.8667
 20
-32.8905
 11
-35.8837
 21
-33.1676
  0
LINE
  8
0
 10
-35.8837
 20
-33.1676
 11
-35.8958
 21
-33.4449
  0
LINE
  8
0
 10
-35.8958
 20
-33.4449
 11
-35.9031
 21
-33.7224
  0
LINE
  8
0
 10
-35.9031
 20
-33.7224
 11
-35.9055
 21
-34
  0
LINE
  8
0
 10
-35.9055
 20
-34
 11
-35.9031
 21
-34.2776
  0
LINE
  8
0
 10
-35.9031
 20
-34.2776
 11
-35.8958
 21
-34.5551
  0
LINE
  8
0
 10
-35.8958
 20
-34.5551
 11
-35.8837
 21
-34.8324
  0
LINE
  8
0
 10
-35.8837
 20
-34.8324
 11
-35.8667
 21
-35.1095
  0
LINE
  8
0
 10
-35.8667
 20
-35.1095
 11
-35.845
 21
-35.3862
  0
LINE
  8
0
 10
-35.845
 20
-35.3862
 11
-35.8184
 21
-35.6626
  0
LINE
  8
0
 10
-35.8184
 20
-35.6626
 11
-35.7869
 21
-35.9384
  0
LINE
  8
0
 10
-35.7869
 20
-35.9384
 11
-35.7507
 21
-36.2136
  0
LINE
  8
0
 10
-35.7507
 20
-36.2136
 11
-35.7097
 21
-36.4882
  0
LINE
  8
0
 10
-35.7097
 20
-36.4882
 11
-35.6638
 21
-36.7619
  0
LINE
  8
0
 10
-35.6638
 20
-36.7619
 11
-35.6133
 21
-37.0349
  0
LINE
  8
0
 10
-35.6133
 20
-37.0349
 11
-35.5579
 21
-37.3069
  0
LINE
  8
0
 10
-35.5579
 20
-37.3069
 11
-35.4978
 21
-37.578
  0
LINE
  8
0
 10
-35.4978
 20
-37.578
 11
-35.433
 21
-37.8479
  0
LINE
  8
0
 10
-35.433
 20
-37.8479
 11
-35.3635
 21
-38.1166
  0
LINE
  8
0
 10
-35.3635
 20
-38.1166
 11
-35.2893
 21
-38.3841
  0
LINE
  8
0
 10
-35.2893
 20
-38.3841
 11
-35.2105
 21
-38.6503
  0
LINE
  8
0
 10
-35.2105
 20
-38.6503
 11
-35.127
 21
-38.9151
  0
LINE
  8
0
 10
-35.127
 20
-38.9151
 11
-35.0389
 21
-39.1783
  0
LINE
  8
0
 10
-35.0389
 20
-39.1783
 11
-34.9463
 21
-39.44
  0
LINE
  8
0
 10
-34.9463
 20
-39.44
 11
-34.8491
 21
-39.7
  0
LINE
  8
0
 10
-34.8491
 20
-39.7
 11
-34.7473
 21
-39.9583
  0
LINE
  8
0
 10
-34.7473
 20
-39.9583
 11
-34.6411
 21
-40.2148
  0
LINE
  8
0
 10
-34.6411
 20
-40.2148
 11
-34.5304
 21
-40.4693
  0
LINE
  8
0
 10
-34.5304
 20
-40.4693
 11
-34.4153
 21
-40.722
  0
LINE
  8
0
 10
-34.4153
 20
-40.722
 11
-34.2958
 21
-40.9725
  0
LINE
  8
0
 10
-34.2958
 20
-40.9725
 11
-34.1719
 21
-41.2209
  0
LINE
  8
0
 10
-34.1719
 20
-41.2209
 11
-34.0437
 21
-41.4672
  0
LINE
  8
0
 10
-34.0437
 20
-41.4672
 11
-33.9113
 21
-41.7111
  0
LINE
  8
0
 10
-33.9113
 20
-41.7111
 11
-33.7746
 21
-41.9527
  0
LINE
  8
0
 10
-33.7746
 20
-41.9527
 11
-33.6337
 21
-42.1919
  0
LINE
  8
0
 10
-33.6337
 20
-42.1919
 11
-33.4886
 21
-42.4286
  0
LINE
  8
0
 10
-33.4886
 20
-42.4286
 11
-33.3395
 21
-42.6628
  0
LINE
  8
0
 10
-33.3395
 20
-42.6628
 11
-33.1862
 21
-42.8942
  0
LINE
  8
0
 10
-33.1862
 20
-42.8942
 11
-33.029
 21
-43.123
  0
LINE
  8
0
 10
-33.029
 20
-43.123
 11
-32.8678
 21
-43.349
  0
LINE
  8
0
 10
-32.8678
 20
-43.349
 11
-32.7027
 21
-43.5722
  0
LINE
  8
0
 10
-32.7027
 20
-43.5722
 11
-32.5337
 21
-43.7924
  0
LINE
  8
0
 10
-32.5337
 20
-43.7924
 11
-32.3609
 21
-44.0096
  0
LINE
  8
0
 10
-32.3609
 20
-44.0096
 11
-32.1843
 21
-44.2238
  0
LINE
  8
0
 10
-32.1843
 20
-44.2238
 11
-32.004
 21
-44.4349
  0
LINE
  8
0
 10
-32.004
 20
-44.4349
 11
-31.8201
 21
-44.6429
  0
LINE
  8
0
 10
-31.8201
 20
-44.6429
 11
-31.6325
 21
-44.8475
  0
LINE
  8
0
 10
-31.6325
 20
-44.8475
 11
-31.4415
 21
-45.0489
  0
LINE
  8
0
 10
-31.4415
 20
-45.0489
 11
-31.2469
 21
-45.2469
  0
LINE
  8
0
 10
-31.2469
 20
-45.2469
 11
-31.0489
 21
-45.4415
  0
LINE
  8
0
 10
-31.0489
 20
-45.4415
 11
-30.8475
 21
-45.6325
  0
LINE
  8
0
 10
-30.8475
 20
-45.6325
 11
-30.6429
 21
-45.8201
  0
LINE
  8
0
 10
-30.6429
 20
-45.8201
 11
-30.4349
 21
-46.004
  0
LINE
  8
0
 10
-30.4349
 20
-46.004
 11
-30.2238
 21
-46.1843
  0
LINE
  8
0
 10
-30.2238
 20
-46.1843
 11
-30.0096
 21
-46.3609
  0
LINE
  8
0
 10
-30.0096
 20
-46.3609
 11
-29.7924
 21
-46.5337
  0
LINE
  8
0
 10
-29.7924
 20
-46.5337
 11
-29.5722
 21
-46.7027
  0
LINE
  8
0
 10
-29.5722
 20
-46.7027
 11
-29.349
 21
-46.8678
  0
LINE
  8
0
 10
-29.349
 20
-46.8678
 11
-29.123
 21
-47.029
  0
LINE
  8
0
 10
-29.123
 20
-47.029
 11
-28.8942
 21
-47.1862
  0
LINE
  8
0
 10
-28.8942
 20
-47.1862
 11
-28.6628
 21
-47.3395
  0
LINE
  8
0
 10
-28.6628
 20
-47.3395
 11
-28.4286
 21
-47.4886
  0
LINE
  8
0
 10
-28.4286
 20
-47.4886
 11
-28.1919
 21
-47.6337
  0
LINE
  8
0
 10
-28.1919
 20
-47.6337
 11
-27.9527
 21
-47.7746
  0
LINE
  8
0
 10
-27.9527
 20
-47.7746
 11
-27.7111
 21
-47.9113
  0
LINE
  8
0
 10
-27.7111
 20
-47.9113
 11
-27.4672
 21
-48.0437
  0
LINE
  8
0
 10
-27.4672
 20
-48.0437
 11
-27.2209
 21
-48.1719
  0
LINE
  8
0
 10
-27.2209
 20
-48.1719
 11
-26.9725
 21
-48.2958
  0
LINE
  8
0
 10
-26.9725
 20
-48.2958
 11
-26.722
 21
-48.4153
  0
LINE
  8
0
 10
-26.722
 20
-48.4153
 11
-26.4693
 21
-48.5304
  0
LINE
  8
0
 10
-26.4693
 20
-48.5304
 11
-26.2148
 21
-48.6411
  0
LINE
  8
0
 10
-26.2148
 20
-48.6411
 11
-25.9583
 21
-48.7473
  0
LINE
  8
0
 10
-25.9583
 20
-48.7473
 11
-25.7
 21
-48.8491
  0
LINE
  8
0
 10
-25.7
 20
-48.8491
 11
-25.44
 21
-48.9463
  0
LINE
  8
0
 10
-25.44
 20
-48.9463
 11
-25.1783
 21
-49.0389
  0
LINE
  8
0
 10
-25.1783
 20
-49.0389
 11
-24.9151
 21
-49.127
  0
LINE
  8
0
 10
-24.9151
 20
-49.127
 11
-24.6503
 21
-49.2105
  0
LINE
  8
0
 10
-24.6503
 20
-49.2105
 11
-24.3841
 21
-49.2893
  0
LINE
  8
0
 10
-24.3841
 20
-49.2893
 11
-24.1166
 21
-49.3635
  0
LINE
  8
0
 10
-24.1166
 20
-49.3635
 11
-23.8479
 21
-49.433
  0
LINE
  8
0
 10
-23.8479
 20
-49.433
 11
-23.578
 21
-49.4978
  0
LINE
  8
0
 10
-23.578
 20
-49.4978
 11
-23.3069
 21
-49.5579
  0
LINE
  8
0
 10
-23.3069
 20
-49.5579
 11
-23.0349
 21
-49.6133
  0
LINE
  8
0
 10
-23.0349
 20
-49.6133
 11
-22.7619
 21
-49.6638
  0
LINE
  8
0
 10
-22.7619
 20
-49.6638
 11
-22.4882
 21
-49.7097
  0
LINE
  8
0
 10
-22.4882
 20
-49.7097
 11
-22.2136
 21
-49.7507
  0
LINE
  8
0
 10
-22.2136
 20
-49.7507
 11
-21.9384
 21
-49.7869
  0
LINE
  8
0
 10
-21.9384
 20
-49.7869
 11
-21.6626
 21
-49.8184
  0
LINE
  8
0
 10
-21.6626
 20
-49.8184
 11
-21.3862
 21
-49.845
  0
LINE
  8
0
 10
-21.3862
 20
-49.845
 11
-21.1095
 21
-49.8667
  0
LINE
  8
0
 10
-21.1095
 20
-49.8667
 11
-20.8324
 21
-49.8837
  0
LINE
  8
0
 10
-20.8324
 20
-49.8837
 11
-20.5551
 21
-49.8958
  0
LINE
  8
0
 10
-20.5551
 20
-49.8958
 11
-20.2776
 21
-49.9031
  0
LINE
  8
0
 10
-20.2776
 20
-49.9031
 11
-20
 21
-49.9055
  0
LINE
  8
0
 10
-20
 20
-49.9055
 11
-19.7224
 21
-49.9031
  0
LINE
  8
0
 10
-20.1388
 20
-41.9543
 11
-20.2776
 21
-41.9507
  0
LINE
  8
0
 10
-20.2776
 20
-41.9507
 11
-20.4164
 21
-41.9446
  0
LINE
  8
0
 10
-20.4164
 20
-41.9446
 11
-20.5549
 21
-41.9361
  0
LINE
  8
0
 10
-20.5549
 20
-41.9361
 11
-20.6934
 21
-41.9252
  0
LINE
  8
0
 10
-20.6934
 20
-41.9252
 11
-20.8316
 21
-41.9119
  0
LINE
  8
0
 10
-20.8316
 20
-41.9119
 11
-20.9695
 21
-41.8962
  0
LINE
  8
0
 10
-20.9695
 20
-41.8962
 11
-21.1072
 21
-41.8781
  0
LINE
  8
0
 10
-21.1072
 20
-41.8781
 11
-21.2445
 21
-41.8575
  0
LINE
  8
0
 10
-21.2445
 20
-41.8575
 11
-21.3815
 21
-41.8346
  0
LINE
  8
0
 10
-21.3815
 20
-41.8346
 11
-21.518
 21
-41.8093
  0
LINE
  8
0
 10
-21.518
 20
-41.8093
 11
-21.654
 21
-41.7816
  0
LINE
  8
0
 10
-21.654
 20
-41.7816
 11
-21.7896
 21
-41.7516
  0
LINE
  8
0
 10
-21.7896
 20
-41.7516
 11
-21.9246
 21
-41.7192
  0
LINE
  8
0
 10
-21.9246
 20
-41.7192
 11
-22.059
 21
-41.6844
  0
LINE
  8
0
 10
-22.059
 20
-41.6844
 11
-22.1928
 21
-41.6473
  0
LINE
  8
0
 10
-22.1928
 20
-41.6473
 11
-22.326
 21
-41.6079
  0
LINE
  8
0
 10
-22.326
 20
-41.6079
 11
-22.4584
 21
-41.5661
  0
LINE
  8
0
 10
-22.4584
 20
-41.5661
 11
-22.5901
 21
-41.5221
  0
LINE
  8
0
 10
-22.5901
 20
-41.5221
 11
-22.7209
 21
-41.4757
  0
LINE
  8
0
 10
-22.7209
 20
-41.4757
 11
-22.851
 21
-41.4271
  0
LINE
  8
0
 10
-22.851
 20
-41.4271
 11
-22.9802
 21
-41.3762
  0
LINE
  8
0
 10
-22.9802
 20
-41.3762
 11
-23.1085
 21
-41.3231
  0
LINE
  8
0
 10
-23.1085
 20
-41.3231
 11
-23.2358
 21
-41.2677
  0
LINE
  8
0
 10
-23.2358
 20
-41.2677
 11
-23.3621
 21
-41.2101
  0
LINE
  8
0
 10
-23.3621
 20
-41.2101
 11
-23.4875
 21
-41.1503
  0
LINE
  8
0
 10
-23.4875
 20
-41.1503
 11
-23.6117
 21
-41.0884
  0
LINE
  8
0
 10
-23.6117
 20
-41.0884
 11
-23.7349
 21
-41.0243
  0
LINE
  8
0
 10
-23.7349
 20
-41.0243
 11
-23.8569
 21
-40.958
  0
LINE
  8
0
 10
-23.8569
 20
-40.958
 11
-23.9777
 21
-40.8897
  0
LINE
  8
0
 10
-23.9777
 20
-40.8897
 11
-24.0974
 21
-40.8192
  0
LINE
  8
0
 10
-24.0974
 20
-40.8192
 11
-24.2158
 21
-40.7466
  0
LINE
  8
0
 10
-24.2158
 20
-40.7466
 11
-24.3329
 21
-40.672
  0
LINE
  8
0
 10
-24.3329
 20
-40.672
 11
-24.4487
 21
-40.5954
  0
LINE
  8
0
 10
-24.4487
 20
-40.5954
 11
-24.5631
 21
-40.5168
  0
LINE
  8
0
 10
-24.5631
 20
-40.5168
 11
-24.6761
 21
-40.4361
  0
LINE
  8
0
 10
-24.6761
 20
-40.4361
 11
-24.7877
 21
-40.3535
  0
LINE
  8
0
 10
-24.7877
 20
-40.3535
 11
-24.8979
 21
-40.269
  0
LINE
  8
0
 10
-24.8979
 20
-40.269
 11
-25.0065
 21
-40.1826
  0
LINE
  8
0
 10
-25.0065
 20
-40.1826
 11
-25.1137
 21
-40.0943
  0
LINE
  8
0
 10
-25.1137
 20
-40.0943
 11
-25.2193
 21
-40.0041
  0
LINE
  8
0
 10
-25.2193
 20
-40.0041
 11
-25.3233
 21
-39.9121
  0
LINE
  8
0
 10
-25.3233
 20
-39.9121
 11
-25.4256
 21
-39.8183
  0
LINE
  8
0
 10
-25.4256
 20
-39.8183
 11
-25.5264
 21
-39.7227
  0
LINE
  8
0
 10
-25.5264
 20
-39.7227
 11
-25.6254
 21
-39.6254
  0
LINE
  8
0
 10
-25.6254
 20
-39.6254
 11
-25.7227
 21
-39.5264
  0
LINE
  8
0
 10
-25.7227
 20
-39.5264
 11
-25.8183
 21
-39.4256
  0
LINE
  8
0
 10
-25.8183
 20
-39.4256
 11
-25.9121
 21
-39.3233
  0
LINE
  8
0
 10
-25.9121
 20
-39.3233
 11
-26.0041
 21
-39.2193
  0
LINE
  8
0
 10
-26.0041
 20
-39.2193
 11
-26.0943
 21
-39.1137
  0
LINE
  8
0
 10
-26.0943
 20
-39.1137
 11
-26.1826
 21
-39.0065
  0
LINE
  8
0
 10
-26.1826
 20
-39.0065
 11
-26.269
 21
-38.8979
  0
LINE
  8
0
 10
-26.269
 20
-38.8979
 11
-26.3535
 21
-38.7877
  0
LINE
  8
0
 10
-26.3535
 20
-38.7877
 11
-26.4361
 21
-38.6761
  0
LINE
  8
0
 10
-26.4361
 20
-38.6761
 11
-26.5168
 21
-38.5631
  0
LINE
  8
0
 10
-26.5168
 20
-38.5631
 11
-26.5954
 21
-38.4487
  0
LINE
  8
0
 10
-26.5954
 20
-38.4487
 11
-26.672
 21
-38.3329
  0
LINE
  8
0
 10
-26.672
 20
-38.3329
 11
-26.7466
 21
-38.2158
  0
LINE
  8
0
 10
-26.7466
 20
-38.2158
 11
-26.8192
 21
-38.0974
  0
LINE
  8
0
 10
-26.8192
 20
-38.0974
 11
-26.8897
 21
-37.9777
  0
LINE
  8
0
 10
-26.8897
 20
-37.9777
 11
-26.958
 21
-37.8569
  0
LINE
  8
0
 10
-26.958
 20
-37.8569
 11
-27.0243
 21
-37.7349
  0
LINE
  8
0
 10
-27.0243
 20
-37.7349
 11
-27.0884
 21
-37.6117
  0
LINE
  8
0
 10
-27.0884
 20
-37.6117
 11
-27.1503
 21
-37.4875
  0
LINE
  8
0
 10
-27.1503
 20
-37.4875
 11
-27.2101
 21
-37.3621
  0
LINE
  8
0
 10
-27.2101
 20
-37.3621
 11
-27.2677
 21
-37.2358
  0
LINE
  8
0
 10
-27.2677
 20
-37.2358
 11
-27.3231
 21
-37.1085
  0
LINE
  8
0
 10
-27.3231
 20
-37.1085
 11
-27.3762
 21
-36.9802
  0
LINE
  8
0
 10
-27.3762
 20
-36.9802
 11
-27.4271
 21
-36.851
  0
LINE
  8
0
 10
-27.4271
 20
-36.851
 11
-27.4757
 21
-36.7209
  0
LINE
  8
0
 10
-27.4757
 20
-36.7209
 11
-27.5221
 21
-36.5901
  0
LINE
  8
0
 10
-27.5221
 20
-36.5901
 11
-27.5661
 21
-36.4584
  0
LINE
  8
0
 10
-27.5661
 20
-36.4584
 11
-27.6079
 21
-36.326
  0
LINE
  8
0
 10
-27.6079
 20
-36.326
 11
-27.6473
 21
-36.1928
  0
LINE
  8
0
 10
-27.6473
 20
-36.1928
 11
-27.6844
 21
-36.059
  0
LINE
  8
0
 10
-27.6844
 20
-36.059
 11
-27.7192
 21
-35.9246
  0
LINE
  8
0
 10
-27.7192
 20
-35.9246
 11
-27.7516
 21
-35.7896
  0
LINE
  8
0
 10
-27.7516
 20
-35.7896
 11
-27.7816
 21
-35.654
  0
LINE
  8
0
 10
-27.7816
 20
-35.654
 11
-27.8093
 21
-35.518
  0
LINE
  8
0
 10
-27.8093
 20
-35.518
 11
-27.8346
 21
-35.3815
  0
LINE
  8
0
 10
-27.8346
 20
-35.3815
 11
-27.8575
 21
-35.2445
  0
LINE
  8
0
 10
-27.8575
 20
-35.2445
 11
-27.8781
 21
-35.1072
  0
LINE
  8
0
 10
-27.8781
 20
-35.1072
 11
-27.8962
 21
-34.9695
  0
LINE
  8
0
 10
-27.8962
 20
-34.9695
 11
-27.9119
 21
-34.8316
  0
LINE
  8
0
 10
-27.9119
 20
-34.8316
 11
-27.9252
 21
-34.6934
  0
LINE
  8
0
 10
-27.9252
 20
-34.6934
 11
-27.9361
 21
-34.5549
  0
LINE
  8
0
 10
-27.9361
 20
-34.5549
 11
-27.9446
 21
-34.4164
  0
LINE
  8
0
 10
-27.9446
 20
-34.4164
 11
-27.9507
 21
-34.2776
  0
LINE
  8
0
 10
-27.9507
 20
-34.2776
 11
-27.9543
 21
-34.1388
  0
LINE
  8
0
 10
-27.9543
 20
-34.1388
 11
-27.9555
 21
-34
  0
LINE
  8
0
 10
-27.9555
 20
-34
 11
-27.9543
 21
-33.8612
  0
LINE
  8
0
 10
-27.9543
 20
-33.8612
 11
-27.9507
 21
-33.7224
  0
LINE
  8
0
 10
-27.9507
 20
-33.7224
 11
-27.9446
 21
-33.5836
  0
LINE
  8
0
 10
-27.9446
 20
-33.5836
 11
-27.9361
 21
-33.4451
  0
LINE
  8
0
 10
-27.9361
 20
-33.4451
 11
-27.9252
 21
-33.3066
  0
LINE
  8
0
 10
-27.9252
 20
-33.3066
 11
-27.9119
 21
-33.1684
  0
LINE
  8
0
 10
-27.9119
 20
-33.1684
 11
-27.8962
 21
-33.0305
  0
LINE
  8
0
 10
-27.8962
 20
-33.0305
 11
-27.8781
 21
-32.8928
  0
LINE
  8
0
 10
-27.8781
 20
-32.8928
 11
-27.8575
 21
-32.7555
  0
LINE
  8
0
 10
-27.8575
 20
-32.7555
 11
-27.8346
 21
-32.6185
  0
LINE
  8
0
 10
-27.8346
 20
-32.6185
 11
-27.8093
 21
-32.482
  0
LINE
  8
0
 10
-27.8093
 20
-32.482
 11
-27.7816
 21
-32.346
  0
LINE
  8
0
 10
-27.7816
 20
-32.346
 11
-27.7516
 21
-32.2104
  0
LINE
  8
0
 10
-27.7516
 20
-32.2104
 11
-27.7192
 21
-32.0754
  0
LINE
  8
0
 10
-27.7192
 20
-32.0754
 11
-27.6844
 21
-31.941
  0
LINE
  8
0
 10
-27.6844
 20
-31.941
 11
-27.6473
 21
-31.8072
  0
LINE
  8
0
 10
-27.6473
 20
-31.8072
 11
-27.6079
 21
-31.674
  0
LINE
  8
0
 10
-27.6079
 20
-31.674
 11
-27.5661
 21
-31.5416
  0
LINE
  8
0
 10
-27.5661
 20
-31.5416
 11
-27.5221
 21
-31.4099
  0
LINE
  8
0
 10
-27.5221
 20
-31.4099
 11
-27.4757
 21
-31.2791
  0
LINE
  8
0
 10
-27.4757
 20
-31.2791
 11
-27.4271
 21
-31.149
  0
LINE
  8
0
 10
-27.4271
 20
-31.149
 11
-27.3762
 21
-31.0198
  0
LINE
  8
0
 10
-27.3762
 20
-31.0198
 11
-27.3231
 21
-30.8915
  0
LINE
  8
0
 10
-27.3231
 20
-30.8915
 11
-27.2677
 21
-30.7642
  0
LINE
  8
0
 10
-27.2677
 20
-30.7642
 11
-27.2101
 21
-30.6379
  0
LINE
  8
0
 10
-27.2101
 20
-30.6379
 11
-27.1503
 21
-30.5125
  0
LINE
  8
0
 10
-27.1503
 20
-30.5125
 11
-27.0884
 21
-30.3883
  0
LINE
  8
0
 10
-27.0884
 20
-30.3883
 11
-27.0243
 21
-30.2651
  0
LINE
  8
0
 10
-27.0243
 20
-30.2651
 11
-26.958
 21
-30.1431
  0
LINE
  8
0
 10
-26.958
 20
-30.1431
 11
-26.8897
 21
-30.0223
  0
LINE
  8
0
 10
-26.8897
 20
-30.0223
 11
-26.8192
 21
-29.9026
  0
LINE
  8
0
 10
-26.8192
 20
-29.9026
 11
-26.7466
 21
-29.7842
  0
LINE
  8
0
 10
-26.7466
 20
-29.7842
 11
-26.672
 21
-29.6671
  0
LINE
  8
0
 10
-26.672
 20
-29.6671
 11
-26.5954
 21
-29.5513
  0
LINE
  8
0
 10
-26.5954
 20
-29.5513
 11
-26.5168
 21
-29.4369
  0
LINE
  8
0
 10
-26.5168
 20
-29.4369
 11
-26.4361
 21
-29.3239
  0
LINE
  8
0
 10
-26.4361
 20
-29.3239
 11
-26.3535
 21
-29.2123
  0
LINE
  8
0
 10
-26.3535
 20
-29.2123
 11
-26.269
 21
-29.1021
  0
LINE
  8
0
 10
-26.269
 20
-29.1021
 11
-26.1826
 21
-28.9935
  0
LINE
  8
0
 10
-26.1826
 20
-28.9935
 11
-26.0943
 21
-28.8863
  0
LINE
  8
0
 10
-26.0943
 20
-28.8863
 11
-26.0041
 21
-28.7807
  0
LINE
  8
0
 10
-26.0041
 20
-28.7807
 11
-25.9121
 21
-28.6767
  0
LINE
  8
0
 10
-25.9121
 20
-28.6767
 11
-25.8183
 21
-28.5744
  0
LINE
  8
0
 10
-25.8183
 20
-28.5744
 11
-25.7227
 21
-28.4736
  0
LINE
  8
0
 10
-25.7227
 20
-28.4736
 11
-25.6254
 21
-28.3746
  0
LINE
  8
0
 10
-25.6254
 20
-28.3746
 11
-25.5264
 21
-28.2773
  0
LINE
  8
0
 10
-25.5264
 20
-28.2773
 11
-25.4256
 21
-28.1817
  0
LINE
  8
0
 10
-25.4256
 20
-28.1817
 11
-25.3233
 21
-28.0879
  0
LINE
  8
0
 10
-25.3233
 20
-28.0879
 11
-25.2193
 21
-27.9959
  0
LINE
  8
0
 10
-25.2193
 20
-27.9959
 11
-25.1137
 21
-27.9057
  0
LINE
  8
0
 10
-25.1137
 20
-27.9057
 11
-25.0065
 21
-27.8174
  0
LINE
  8
0
 10
-25.0065
 20
-27.8174
 11
-24.8979
 21
-27.731
  0
LINE
  8
0
 10
-24.8979
 20
-27.731
 11
-24.7877
 21
-27.6465
  0
LINE
  8
0
 10
-24.7877
 20
-27.6465
 11
-24.6761
 21
-27.5639
  0
LINE
  8
0
 10
-24.6761
 20
-27.5639
 11
-24.5631
 21
-27.4832
  0
LINE
  8
0
 10
-24.5631
 20
-27.4832
 11
-24.4487
 21
-27.4046
  0
LINE
  8
0
 10
-24.4487
 20
-27.4046
 11
-24.3329
 21
-27.328
  0
LINE
  8
0
 10
-24.3329
 20
-27.328
 11
-24.2158
 21
-27.2534
  0
LINE
  8
0
 10
-24.2158
 20
-27.2534
 11
-24.0974
 21
-27.1808
  0
LINE
  8
0
 10
-24.0974
 20
-27.1808
 11
-23.9777
 21
-27.1103
  0
LINE
  8
0
 10
-23.9777
 20
-27.1103
 11
-23.8569
 21
-27.042
  0
LINE
  8
0
 10
-23.8569
 20
-27.042
 11
-23.7349
 21
-26.9757
  0
LINE
  8
0
 10
-23.7349
 20
-26.9757
 11
-23.6117
 21
-26.9116
  0
LINE
  8
0
 10
-23.6117
 20
-26.9116
 11
-23.4875
 21
-26.8497
  0
LINE
  8
0
 10
-23.4875
 20
-26.8497
 11
-23.3621
 21
-26.7899
  0
LINE
  8
0
 10
-23.3621
 20
-26.7899
 11
-23.2358
 21
-26.7323
  0
LINE
  8
0
 10
-23.2358
 20
-26.7323
 11
-23.1085
 21
-26.6769
  0
LINE
  8
0
 10
-23.1085
 20
-26.6769
 11
-22.9802
 21
-26.6238
  0
LINE
  8
0
 10
-22.9802
 20
-26.6238
 11
-22.851
 21
-26.5729
  0
LINE
  8
0
 10
-22.851
 20
-26.5729
 11
-22.7209
 21
-26.5243
  0
LINE
  8
0
 10
-22.7209
 20
-26.5243
 11
-22.5901
 21
-26.4779
  0
LINE
  8
0
 10
-22.5901
 20
-26.4779
 11
-22.4584
 21
-26.4339
  0
LINE
  8
0
 10
-22.4584
 20
-26.4339
 11
-22.326
 21
-26.3921
  0
LINE
  8
0
 10
-22.326
 20
-26.3921
 11
-22.1928
 21
-26.3527
  0
LINE
  8
0
 10
-22.1928
 20
-26.3527
 11
-22.059
 21
-26.3156
  0
LINE
  8
0
 10
-22.059
 20
-26.3156
 11
-21.9246
 21
-26.2808
  0
LINE
  8
0
 10
-21.9246
 20
-26.2808
 11
-21.7896
 21
-26.2484
  0
LINE
  8
0
 10
-21.7896
 20
-26.2484
 11
-21.654
 21
-26.2184
  0
LINE
  8
0
 10
-21.654
 20
-26.2184
 11
-21.518
 21
-26.1907
  0
LINE
  8
0
 10
-21.518
 20
-26.1907
 11
-21.3815
 21
-26.1654
  0
LINE
  8
0
 10
-21.3815
 20
-26.1654
 11
-21.2445
 21
-26.1425
  0
LINE
  8
0
 10
-21.2445
 20
-26.1425
 11
-21.1072
 21
-26.1219
  0
LINE
  8
0
 10
-21.1072
 20
-26.1219
 11
-20.9695
 21
-26.1038
  0
LINE
  8
0
 10
-20.9695
 20
-26.1038
 11
-20.8316
 21
-26.0881
  0
LINE
  8
0
 10
-20.8316
 20
-26.0881
 11
-20.6934
 21
-26.0748
  0
LINE
  8
0
 10
-20.6934
 20
-26.0748
 11
-20.5549
 21
-26.0639
  0
LINE
  8
0
 10
-20.5549
 20
-26.0639
 11
-20.4164
 21
-26.0554
  0
LINE
  8
0
 10
-20.4164
 20
-26.0554
 11
-20.2776
 21
-26.0493
  0
LINE
  8
0
 10
-20.2776
 20
-26.0493
 11
-20.1388
 21
-26.0457
  0
LINE
  8
0
 10
-20.1388
 20
-26.0457
 11
-20
 21
-26.0445
  0
LINE
  8
0
 10
-20
 20
-26.0445
 11
-19.8612
 21
-26.0457
  0
LINE
  8
0
 10
-19.8612
 20
-26.0457
 11
-19.7224
 21
-26.0493
  0
LINE
  8
0
 10
-19.7224
 20
-26.0493
 11
-19.5836
 21
-26.0554
  0
LINE
  8
0
 10
-19.5836
 20
-26.0554
 11
-19.4451
 21
-26.0639
  0
LINE
  8
0
 10
-19.4451
 20
-26.0639
 11
-19.3066
 21
-26.0748
  0
LINE
  8
0
 10
-19.3066
 20
-26.0748
 11
-19.1684
 21
-26.0881
  0
LINE
  8
0
 10
-19.1684
 20
-26.0881
 11
-19.0305
 21
-26.1038
  0
LINE
  8
0
 10
-19.0305
 20
-26.1038
 11
-18.8928
 21
-26.1219
  0
LINE
  8
0
 10
-18.8928
 20
-26.1219
 11
-18.7555
 21
-26.1425
  0
LINE
  8
0
 10
-18.7555
 20
-26.1425
 11
-18.6185
 21
-26.1654
  0
LINE
  8
0
 10
-18.6185
 20
-26.1654
 11
-18.482
 21
-26.1907
  0
LINE
  8
0
 10
-18.482
 20
-26.1907
 11
-18.346
 21
-26.2184
  0
LINE
  8
0
 10
-18.346
 20
-26.2184
 11
-18.2104
 21
-26.2484
  0
LINE
  8
0
 10
-18.2104
 20
-26.2484
 11
-18.0754
 21
-26.2808
  0
LINE
  8
0
 10
-18.0754
 20
-26.2808
 11
-17.941
 21
-26.3156
  0
LINE
  8
0
 10
-17.941
 20
-26.3156
 11
-17.8072
 21
-26.3527
  0
LINE
  8
0
 10
-17.8072
 20
-26.3527
 11
-17.674
 21
-26.3921
  0
LINE
  8
0
 10
-17.674
 20
-26.3921
 11
-17.5416
 21
-26.4339
  0
LINE
  8
0
 10
-17.5416
 20
-26.4339
 11
-17.4099
 21
-26.4779
  0
LINE
  8
0
 10
-17.4099
 20
-26.4779
 11
-17.2791
 21
-26.5243
  0
LINE
  8
0
 10
-17.2791
 20
-26.5243
 11
-17.149
 21
-26.5729
  0
LINE
  8
0
 10
-17.149
 20
-26.5729
 11
-17.0198
 21
-26.6238
  0
LINE
  8
0
 10
-17.0198
 20
-26.6238
 11
-16.8915
 21
-26.6769
  0
LINE
  8
0
 10
-16.8915
 20
-26.6769
 11
-16.7642
 21
-26.7323
  0
LINE
  8
0
 10
-16.7642
 20
-26.7323
 11
-16.6379
 21
-26.7899
  0
LINE
  8
0
 10
-16.6379
 20
-26.7899
 11
-16.5125
 21
-26.8497
  0
LINE
  8
0
 10
-16.5125
 20
-26.8497
 11
-16.3883
 21
-26.9116
  0
LINE
  8
0
 10
-16.3883
 20
-26.9116
 11
-16.2651
 21
-26.9757
  0
LINE
  8
0
 10
-16.2651
 20
-26.9757
 11
-16.1431
 21
-27.042
  0
LINE
  8
0
 10
-16.1431
 20
-27.042
 11
-16.0223
 21
-27.1103
  0
LINE
  8
0
 10
-16.0223
 20
-27.1103
 11
-15.9026
 21
-27.1808
  0
LINE
  8
0
 10
-15.9026
 20
-27.1808
 11
-15.7842
 21
-27.2534
  0
LINE
  8
0
 10
-15.7842
 20
-27.2534
 11
-15.6671
 21
-27.328
  0
LINE
  8
0
 10
-15.6671
 20
-27.328
 11
-15.5513
 21
-27.4046
  0
LINE
  8
0
 10
-15.5513
 20
-27.4046
 11
-15.4369
 21
-27.4832
  0
LINE
  8
0
 10
-15.4369
 20
-27.4832
 11
-15.3239
 21
-27.5639
  0
LINE
  8
0
 10
-15.3239
 20
-27.5639
 11
-15.2123
 21
-27.6465
  0
LINE
  8
0
 10
-15.2123
 20
-27.6465
 11
-15.1021
 21
-27.731
  0
LINE
  8
0
 10
-15.1021
 20
-27.731
 11
-14.9935
 21
-27.8174
  0
LINE
  8
0
 10
-14.9935
 20
-27.8174
 11
-14.8863
 21
-27.9057
  0
LINE
  8
0
 10
-14.8863
 20
-27.9057
 11
-14.7807
 21
-27.9959
  0
LINE
  8
0
 10
-14.7807
 20
-27.9959
 11
-14.6767
 21
-28.0879
  0
LINE
  8
0
 10
-14.6767
 20
-28.0879
 11
-14.5744
 21
-28.1817
  0
LINE
  8
0
 10
-14.5744
 20
-28.1817
 11
-14.4736
 21
-28.2773
  0
LINE
  8
0
 10
-14.4736
 20
-28.2773
 11
-14.3746
 21
-28.3746
  0
LINE
  8
0
 10
-14.3746
 20
-28.3746
 11
-14.2773
 21
-28.4736
  0
LINE
  8
0
 10
-14.2773
 20
-28.4736
 11
-14.1817
 21
-28.5744
  0
LINE
  8
0
 10
-14.1817
 20
-28.5744
 11
-14.0879
 21
-28.6767
  0
LINE
  8
0
 10
-14.0879
 20
-28.6767
 11
-13.9959
 21
-28.7807
  0
LINE
  8
0
 10
-13.9959
 20
-28.7807
 11
-13.9057
 21
-28.8863
  0
LINE
  8
0
 10
-13.9057
 20
-28.8863
 11
-13.8174
 21
-28.9935
  0
LINE
  8
0
 10
-13.8174
 20
-28.9935
 11
-13.731
 21
-29.1021
  0
LINE
  8
0
 10
-13.731
 20
-29.1021
 11
-13.6465
 21
-29.2123
  0
LINE
  8
0
 10
-13.6465
 20
-29.2123
 11
-13.5639
 21
-29.3239
  0
LINE
  8
0
 10
-13.5639
 20
-29.3239
 11
-13.4832
 21
-29.4369
  0
LINE
  8
0
 10
-13.4832
 20
-29.4369
 11
-13.4046
 21
-29.5513
  0
LINE
  8
0
 10
-13.4046
 20
-29.5513
 11
-13.328
 21
-29.6671
  0
LINE
  8
0
 10
-13.328
 20
-29.6671
 11
-13.2534
 21
-29.7842
  0
LINE
  8
0
 10
-13.2534
 20
-29.7842
 11
-13.1808
 21
-29.9026
  0
LINE
  8
0
 10
-13.1808
 20
-29.9026
 11
-13.1103
 21
-30.0223
  0
LINE
  8
0
 10
-13.1103
 20
-30.0223
 11
-13.042
 21
-30.1431
  0
LINE
  8
0
 10
-13.042
 20
-30.1431
 11
-12.9757
 21
-30.2651
  0
LINE
  8
0
 10
-12.9757
 20
-30.2651
 11
-12.9116
 21
-30.3883
  0
LINE
  8
0
 10
-12.9116
 20
-30.3883
 11
-12.8497
 21
-30.5125
  0
LINE
  8
0
 10
-12.8497
 20
-30.5125
 11
-12.7899
 21
-30.6379
  0
LINE
  8
0
 10
-12.7899
 20
-30.6379
 11
-12.7323
 21
-30.7642
  0
LINE
  8
0
 10
-12.7323
 20
-30.7642
 11
-12.6769
 21
-30.8915
  0
LINE
  8
0
 10
-12.6769
 20
-30.8915
 11
-12.6238
 21
-31.0198
  0
LINE
  8
0
 10
-12.6238
 20
-31.0198
 11
-12.5729
 21
-31.149
  0
LINE
  8
0
 10
-12.5729
 20
-31.149
 11
-12.5243
 21
-31.2791
  0
LINE
  8
0
 10
-12.5243
 20
-31.2791
 11
-12.4779
 21
-31.4099
  0
LINE
  8
0
 10
-12.4779
 20
-31.4099
 11
-12.4339
 21
-31.5416
  0
LINE
  8
0
 10
-12.4339
 20
-31.5416
 11
-12.3921
 21
-31.674
  0
LINE
  8
0
 10
-12.3921
 20
-31.674
 11
-12.3527
 21
-31.8072
  0
LINE
  8
0
 10
-12.3527
 20
-31.8072
 11
-12.3156
 21
-31.941
  0
LINE
  8
0
 10
-12.3156
 20
-31.941
 11
-12.2808
 21
-32.0754
  0
LINE
  8
0
 10
-12.2808
 20
-32.0754
 11
-12.2484
 21
-32.2104
  0
LINE
  8
0
 10
-12.2484
 20
-32.2104
 11
-12.2184
 21
-32.346
  0
LINE
  8
0
 10
-12.2184
 20
-32.346
 11
-12.1907
 21
-32.482
  0
LINE
  8
0
 10
-12.1907
 20
-32.482
 11
-12.1654
 21
-32.6185
  0
LINE
  8
0
 10
-12.1654
 20
-32.6185
 11
-12.1425
 21
-32.7555
  0
LINE
  8
0
 10
-12.1425
 20
-32.7555
 11
-12.1219
 21
-32.8928
  0
LINE
  8
0
 10
-12.1219
 20
-32.8928
 11
-12.1038
 21
-33.0305
  0
LINE
  8
0
 10
-12.1038
 20
-33.0305
 11
-12.0881
 21
-33.1684
  0
LINE
  8
0
 10
-12.0881
 20
-33.1684
 11
-12.0748
 21
-33.3066
  0
LINE
  8
0
 10
-12.0748
 20
-33.3066
 11
-12.0639
 21
-33.4451
  0
LINE
  8
0
 10
-12.0639
 20
-33.4451
 11
-12.0554
 21
-33.5836
  0
LINE
  8
0
 10
-12.0554
 20
-33.5836
 11
-12.0493
 21
-33.7224
  0
LINE
  8
0
 10
-12.0493
 20
-33.7224
 11
-12.0457
 21
-33.8612
  0
LINE
  8
0
 10
-12.0457
 20
-33.8612
 11
-12.0445
 21
-34
  0
LINE
  8
0
 10
-12.0445
 20
-34
 11
-12.0457
 21
-34.1388
  0
LINE
  8
0
 10
-12.0457
 20
-34.1388
 11
-12.0493
 21
-34.2776
  0
LINE
  8
0
 10
-12.0493
 20
-34.2776
 11
-12.0554
 21
-34.4164
  0
LINE
  8
0
 10
-12.0554
 20
-34.4164
 11
-12.0639
 21
-34.5549
  0
LINE
  8
0
 10
-12.0639
 20
-34.5549
 11
-12.0748
 21
-34.6934
  0
LINE
  8
0
 10
-12.0748
 20
-34.6934
 11
-12.0881
 21
-34.8316
  0
LINE
  8
0
 10
-12.0881
 20
-34.8316
 11
-12.1038
 21
-34.9695
  0
LINE
  8
0
 10
-12.1038
 20
-34.9695
 11
-12.1219
 21
-35.1072
  0
LINE
  8
0
 10
-12.1219
 20
-35.1072
 11
-12.1425
 21
-35.2445
  0
LINE
  8
0
 10
-12.1425
 20
-35.2445
 11
-12.1654
 21
-35.3815
  0
LINE
  8
0
 10
-12.1654
 20
-35.3815
 11
-12.1907
 21
-35.518
  0
LINE
  8
0
 10
-12.1907
 20
-35.518
 11
-12.2184
 21
-35.654
  0
LINE
  8
0
 10
-12.2184
 20
-35.654
 11
-12.2484
 21
-35.7896
  0
LINE
  8
0
 10
-12.2484
 20
-35.7896
 11
-12.2808
 21
-35.9246
  0
LINE
  8
0
 10
-12.2808
 20
-35.9246
 11
-12.3156
 21
-36.059
  0
LINE
  8
0
 10
-12.3156
 20
-36.059
 11
-12.3527
 21
-36.1928
  0
LINE
  8
0
 10
-12.3527
 20
-36.1928
 11
-12.3921
 21
-36.326
  0
LINE
  8
0
 10
-12.3921
 20
-36.326
 11
-12.4339
 21
-36.4584
  0
LINE
  8
0
 10
-12.4339
 20
-36.4584
 11
-12.4779
 21
-36.5901
  0
LINE
  8
0
 10
-12.4779
 20
-36.5901
 11
-12.5243
 21
-36.7209
  0
LINE
  8
0
 10
-12.5243
 20
-36.7209
 11
-12.5729
 21
-36.851
  0
LINE
  8
0
 10
-12.5729
 20
-36.851
 11
-12.6238
 21
-36.9802
  0
LINE
  8
0
 10
-12.6238
 20
-36.9802
 11
-12.6769
 21
-37.1085
  0
LINE
  8
0
 10
-12.6769
 20
-37.1085
 11
-12.7323
 21
-37.2358
  0
LINE
  8
0
 10
-12.7323
 20
-37.2358
 11
-12.7899
 21
-37.3621
  0
LINE
  8
0
 10
-12.7899
 20
-37.3621
 11
-12.8497
 21
-37.4875
  0
LINE
  8
0
 10
-12.8497
 20
-37.4875
 11
-12.9116
 21
-37.6117
  0
LINE
  8
0
 10
-12.9116
 20
-37.6117
 11
-12.9757
 21
-37.7349
  0
LINE
  8
0
 10
-12.9757
 20
-37.7349
 11
-13.042
 21
-37.8569
  0
LINE
  8
0
 10
-13.042
 20
-37.8569
 11
-13.1103
 21
-37.9777
  0
LINE
  8
0
 10
-13.1103
 20
-37.9777
 11
-13.1808
 21
-38.0974
  0
LINE
  8
0
 10
-13.1808
 20
-38.0974
 11
-13.2534
 21
-38.2158
  0
LINE
  8
0
 10
-13.2534
 20
-38.2158
 11
-13.328
 21
-38.3329
  0
LINE
  8
0
 10
-13.328
 20
-38.3329
 11
-13.4046
 21
-38.4487
  0
LINE
  8
0
 10
-13.4046
 20
-38.4487
 11
-13.4832
 21
-38.5631
  0
LINE
  8
0
 10
-13.4832
 20
-38.5631
 11
-13.5639
 21
-38.6761
  0
LINE
  8
0
 10
-13.5639
 20
-38.6761
 11
-13.6465
 21
-38.7877
  0
LINE
  8
0
 10
-13.6465
 20
-38.7877
 11
-13.731
 21
-38.8979
  0
LINE
  8
0
 10
-13.731
 20
-38.8979
 11
-13.8174
 21
-39.0065
  0
LINE
  8
0
 10
-13.8174
 20
-39.0065
 11
-13.9057
 21
-39.1137
  0
LINE
  8
0
 10
-13.9057
 20
-39.1137
 11
-13.9959
 21
-39.2193
  0
LINE
  8
0
 10
-13.9959
 20
-39.2193
 11
-14.0879
 21
-39.3233
  0
LINE
  8
0
 10
-14.0879
 20
-39.3233
 11
-14.1817
 21
-39.4256
  0
LINE
  8
0
 10
-14.1817
 20
-39.4256
 11
-14.2773
 21
-39.5264
  0
LINE
  8
0
 10
-14.2773
 20
-39.5264
 11
-14.3746
 21
-39.6254
  0
LINE
  8
0
 10
-14.3746
 20
-39.6254
 11
-14.4736
 21
-39.7227
  0
LINE
  8
0
 10
-14.4736
 20
-39.7227
 11
-14.5744
 21
-39.8183
  0
LINE
  8
0
 10
-14.5744
 20
-39.8183
 11
-14.6767
 21
-39.9121
  0
LINE
  8
0
 10
-14.6767
 20
-39.9121
 11
-14.7807
 21
-40.0041
  0
LINE
  8
0
 10
-14.7807
 20
-40.0041
 11
-14.8863
 21
-40.0943
  0
LINE
  8
0
 10
-14.8863
 20
-40.0943
 11
-14.9935
 21
-40.1826
  0
LINE
  8
0
 10
-14.9935
 20
-40.1826
 11
-15.1021
 21
-40.269
  0
LINE
  8
0
 10
-15.1021
 20
-40.269
 11
-15.2123
 21
-40.3535
  0
LINE
  8
0
 10
-15.2123
 20
-40.3535
 11
-15.3239
 21
-40.4361
  0
LINE
  8
0
 10
-15.3239
 20
-40.4361
 11
-15.4369
 21
-40.5168
  0
LINE
  8
0
 10
-15.4369
 20
-40.5168
 11
-15.5513
 21
-40.5954
  0
LINE
  8
0
 10
-15.5513
 20
-40.5954
 11
-15.6671
 21
-40.672
  0
LINE
  8
0
 10
-15.6671
 20
-40.672
 11
-15.7842
 21
-40.7466
  0
LINE
  8
0
 10
-15.7842
 20
-40.7466
 11
-15.9026
 21
-40.8192
  0
LINE
  8
0
 10
-15.9026
 20
-40.8192
 11
-16.0223
 21
-40.8897
  0
LINE
  8
0
 10
-16.0223
 20
-40.8897
 11
-16.1431
 21
-40.958
  0
LINE
  8
0
 10
-16.1431
 20
-40.958
 11
-16.2651
 21
-41.0243
  0
LINE
  8
0
 10
-16.2651
 20
-41.0243
 11
-16.3883
 21
-41.0884
  0
LINE
  8
0
 10
-16.3883
 20
-41.0884
 11
-16.5125
 21
-41.1503
  0
LINE
  8
0
 10
-16.5125
 20
-41.1503
 11
-16.6379
 21
-41.2101
  0
LINE
  8
0
 10
-16.6379
 20
-41.2101
 11
-16.7642
 21
-41.2677
  0
LINE
  8
0
 10
-16.7642
 20
-41.2677
 11
-16.8915
 21
-41.3231
  0
LINE
  8
0
 10
-16.8915
 20
-41.3231
 11
-17.0198
 21
-41.3762
  0
LINE
  8
0
 10
-17.0198
 20
-41.3762
 11
-17.149
 21
-41.4271
  0
LINE
  8
0
 10
-17.149
 20
-41.4271
 11
-17.2791
 21
-41.4757
  0
LINE
  8
0
 10
-17.2791
 20
-41.4757
 11
-17.4099
 21
-41.5221
  0
LINE
  8
0
 10
-17.4099
 20
-41.5221
 11
-17.5416
 21
-41.5661
  0
LINE
  8
0
 10
-17.5416
 20
-41.5661
 11
-17.674
 21
-41.6079
  0
LINE
  8
0
 10
-17.674
 20
-41.6079
 11
-17.8072
 21
-41.6473
  0
LINE
  8
0
 10
-17.8072
 20
-41.6473
 11
-17.941
 21
-41.6844
  0
LINE
  8
0
 10
-17.941
 20
-41.6844
 11
-18.0754
 21
-41.7192
  0
LINE
  8
0
 10
-18.0754
 20
-41.7192
 11
-18.2104
 21
-41.7516
  0
LINE
  8
0
 10
-18.2104
 20
-41.7516
 11
-18.346
 21
-41.7816
  0
LINE
  8
0
 10
-18.346
 20
-41.7816
 11
-18.482
 21
-41.8093
  0
LINE
  8
0
 10
-18.482
 20
-41.8093
 11
-18.6185
 21
-41.8346
  0
LINE
  8
0
 10
-18.6185
 20
-41.8346
 11
-18.7555
 21
-41.8575
  0
LINE
  8
0
 10
-18.7555
 20
-41.8575
 11
-18.8928
 21
-41.8781
  0
LINE
  8
0
 10
-18.8928
 20
-41.8781
 11
-19.0305
 21
-41.8962
  0
LINE
  8
0
 10
-19.0305
 20
-41.8962
 11
-19.1684
 21
-41.9119
  0
LINE
  8
0
 10
-19.1684
 20
-41.9119
 11
-19.3066
 21
-41.9252
  0
LINE
  8
0
 10
-19.3066
 20
-41.9252
 11
-19.4451
 21
-41.9361
  0
LINE
  8
0
 10
-19.4451
 20
-41.9361
 11
-19.5836
 21
-41.9446
  0
LINE
  8
0
 10
-19.5836
 20
-41.9446
 11
-19.7224
 21
-41.9507
  0
LINE
  8
0
 10
-19.7224
 20
-41.9507
 11
-19.8612
 21
-41.9543
  0
LINE
  8
0
 10
-19.8612
 20
-41.9543
 11
-20
 21
-41.9555
  0
LINE
  8
0
 10
-20
 20
-41.9555
 11
-20.1388
 21
-41.9543
  0
LINE
  8
0
 10
20.2776
 20
-49.9031
 11
20.5551
 21
-49.8958
  0
LINE
  8
0
 10
20.5551
 20
-49.8958
 11
20.8324
 21
-49.8837
  0
LINE
  8
0
 10
20.8324
 20
-49.8837
 11
21.1095
 21
-49.8667
  0
LINE
  8
0
 10
21.1095
 20
-49.8667
 11
21.3862
 21
-49.845
  0
LINE
  8
0
 10
21.3862
 20
-49.845
 11
21.6626
 21
-49.8184
  0
LINE
  8
0
 10
21.6626
 20
-49.8184
 11
21.9384
 21
-49.7869
  0
LINE
  8
0
 10
21.9384
 20
-49.7869
 11
22.2136
 21
-49.7507
  0
LINE
  8
0
 10
22.2136
 20
-49.7507
 11
22.4882
 21
-49.7097
  0
LINE
  8
0
 10
22.4882
 20
-49.7097
 11
22.7619
 21
-49.6638
  0
LINE
  8
0
 10
22.7619
 20
-49.6638
 11
23.0349
 21
-49.6133
  0
LINE
  8
0
 10
23.0349
 20
-49.6133
 11
23.3069
 21
-49.5579
  0
LINE
  8
0
 10
23.3069
 20
-49.5579
 11
23.578
 21
-49.4978
  0
LINE
  8
0
 10
23.578
 20
-49.4978
 11
23.8479
 21
-49.433
  0
LINE
  8
0
 10
23.8479
 20
-49.433
 11
24.1166
 21
-49.3635
  0
LINE
  8
0
 10
24.1166
 20
-49.3635
 11
24.3841
 21
-49.2893
  0
LINE
  8
0
 10
24.3841
 20
-49.2893
 11
24.6503
 21
-49.2105
  0
LINE
  8
0
 10
24.6503
 20
-49.2105
 11
24.9151
 21
-49.127
  0
LINE
  8
0
 10
24.9151
 20
-49.127
 11
25.1783
 21
-49.0389
  0
LINE
  8
0
 10
25.1783
 20
-49.0389
 11
25.44
 21
-48.9463
  0
LINE
  8
0
 10
25.44
 20
-48.9463
 11
25.7
 21
-48.8491
  0
LINE
  8
0
 10
25.7
 20
-48.8491
 11
25.9583
 21
-48.7473
  0
LINE
  8
0
 10
25.9583
 20
-48.7473
 11
26.2148
 21
-48.6411
  0
LINE
  8
0
 10
26.2148
 20
-48.6411
 11
26.4693
 21
-48.5304
  0
LINE
  8
0
 10
26.4693
 20
-48.5304
 11
26.722
 21
-48.4153
  0
LINE
  8
0
 10
26.722
 20
-48.4153
 11
26.9725
 21
-48.2958
  0
LINE
  8
0
 10
26.9725
 20
-48.2958
 11
27.2209
 21
-48.1719
  0
LINE
  8
0
 10
27.2209
 20
-48.1719
 11
27.4672
 21
-48.0437
  0
LINE
  8
0
 10
27.4672
 20
-48.0437
 11
27.7111
 21
-47.9113
  0
LINE
  8
0
 10
27.7111
 20
-47.9113
 11
27.9527
 21
-47.7746
  0
LINE
  8
0
 10
27.9527
 20
-47.7746
 11
28.1919
 21
-47.6337
  0
LINE
  8
0
 10
28.1919
 20
-47.6337
 11
28.4286
 21
-47.4886
  0
LINE
  8
0
 10
28.4286
 20
-47.4886
 11
28.6628
 21
-47.3395
  0
LINE
  8
0
 10
28.6628
 20
-47.3395
 11
28.8942
 21
-47.1862
  0
LINE
  8
0
 10
28.8942
 20
-47.1862
 11
29.123
 21
-47.029
  0
LINE
  8
0
 10
29.123
 20
-47.029
 11
29.349
 21
-46.8678
  0
LINE
  8
0
 10
29.349
 20
-46.8678
 11
29.5722
 21
-46.7027
  0
LINE
  8
0
 10
29.5722
 20
-46.7027
 11
29.7924
 21
-46.5337
  0
LINE
  8
0
 10
29.7924
 20
-46.5337
 11
30.0096
 21
-46.3609
  0
LINE
  8
0
 10
30.0096
 20
-46.3609
 11
30.2238
 21
-46.1843
  0
LINE
  8
0
 10
30.2238
 20
-46.1843
 11
30.4349
 21
-46.004
  0
LINE
  8
0
 10
30.4349
 20
-46.004
 11
30.6429
 21
-45.8201
  0
LINE
  8
0
 10
30.6429
 20
-45.8201
 11
30.8475
 21
-45.6325
  0
LINE
  8
0
 10
30.8475
 20
-45.6325
 11
31.0489
 21
-45.4415
  0
LINE
  8
0
 10
31.0489
 20
-45.4415
 11
31.2469
 21
-45.2469
  0
LINE
  8
0
 10
31.2469
 20
-45.2469
 11
31.4415
 21
-45.0489
  0
LINE
  8
0
 10
31.4415
 20
-45.0489
 11
31.6325
 21
-44.8475
  0
LINE
  8
0
 10
31.6325
 20
-44.8475
 11
31.8201
 21
-44.6429
  0
LINE
  8
0
 10
31.8201
 20
-44.6429
 11
32.004
 21
-44.4349
  0
LINE
  8
0
 10
32.004
 20
-44.4349
 11
32.1843
 21
-44.2238
  0
LINE
  8
0
 10
32.1843
 20
-44.2238
 11
32.3609
 21
-44.0096
  0
LINE
  8
0
 10
32.3609
 20
-44.0096
 11
32.5337
 21
-43.7924
  0
LINE
  8
0
 10
32.5337
 20
-43.7924
 11
32.7027
 21
-43.5722
  0
LINE
  8
0
 10
32.7027
 20
-43.5722
 11
32.8678
 21
-43.349
  0
LINE
  8
0
 10
32.8678
 20
-43.349
 11
33.029
 21
-43.123
  0
LINE
  8
0
 10
33.029
 20
-43.123
 11
33.1862
 21
-42.8942
  0
LINE
  8
0
 10
33.1862
 20
-42.8942
 11
33.3395
 21
-42.6628
  0
LINE
  8
0
 10
33.3395
 20
-42.6628
 11
33.4886
 21
-42.4286
  0
LINE
  8
0
 10
33.4886
 20
-42.4286
 11
33.6337
 21
-42.1919
  0
LINE
  8
0
 10
33.6337
 20
-42.1919
 11
33.7746
 21
-41.9527
  0
LINE
  8
0
 10
33.7746
 20
-41.9527
 11
33.9113
 21
-41.7111
  0
LINE
  8
0
 10
33.9113
 20
-41.7111
 11
34.0437
 21
-41.4672
  0
LINE
  8
0
 10
34.0437
 20
-41.4672
 11
34.1719
 21
-41.2209
  0
LINE
  8
0
 10
34.1719
 20
-41.2209
 11
34.2958
 21
-40.9725
  0
LINE
  8
0
 10
34.2958
 20
-40.9725
 11
34.4153
 21
-40.722
  0
LINE
  8
0
 10
34.4153
 20
-40.722
 11
34.5304
 21
-40.4693
  0
LINE
  8
0
 10
34.5304
 20
-40.4693
 11
34.6411
 21
-40.2148
  0
LINE
  8
0
 10
34.6411
 20
-40.2148
 11
34.7473
 21
-39.9583
  0
LINE
  8
0
 10
34.7473
 20
-39.9583
 11
34.8491
 21
-39.7
  0
LINE
  8
0
 10
34.8491
 20
-39.7
 11
34.9463
 21
-39.44
  0
LINE
  8
0
 10
34.9463
 20
-39.44
 11
35.0389
 21
-39.1783
  0
LINE
  8
0
 10
35.0389
 20
-39.1783
 11
35.127
 21
-38.9151
  0
LINE
  8
0
 10
35.127
 20
-38.9151
 11
35.2105
 21
-38.6503
  0
LINE
  8
0
 10
35.2105
 20
-38.6503
 11
35.2893
 21
-38.3841
  0
LINE
  8
0
 10
35.2893
 20
-38.3841
 11
35.3635
 21
-38.1166
  0
LINE
  8
0
 10
35.3635
 20
-38.1166
 11
35.433
 21
-37.8479
  0
LINE
  8
0
 10
35.433
 20
-37.8479
 11
35.4978
 21
-37.578
  0
LINE
  8
0
 10
35.4978
 20
-37.578
 11
35.5579
 21
-37.3069
  0
LINE
  8
0
 10
35.5579
 20
-37.3069
 11
35.6133
 21
-37.0349
  0
LINE
  8
0
 10
35.6133
 20
-37.0349
 11
35.6638
 21
-36.7619
  0
LINE
  8
0
 10
35.6638
 20
-36.7619
 11
35.7097
 21
-36.4882
  0
LINE
  8
0
 10
35.7097
 20
-36.4882
 11
35.7507
 21
-36.2136
  0
LINE
  8
0
 10
35.7507
 20
-36.2136
 11
35.7869
 21
-35.9384
  0
LINE
  8
0
 10
35.7869
 20
-35.9384
 11
35.8184
 21
-35.6626
  0
LINE
  8
0
 10
35.8184
 20
-35.6626
 11
35.845
 21
-35.3862
  0
LINE
  8
0
 10
35.845
 20
-35.3862
 11
35.8667
 21
-35.1095
  0
LINE
  8
0
 10
35.8667
 20
-35.1095
 11
35.8837
 21
-34.8324
  0
LINE
  8
0
 10
35.8837
 20
-34.8324
 11
35.8958
 21
-34.5551
  0
LINE
  8
0
 10
35.8958
 20
-34.5551
 11
35.9031
 21
-34.2776
  0
LINE
  8
0
 10
35.9031
 20
-34.2776
 11
35.9055
 21
-34
  0
LINE
  8
0
 10
35.9055
 20
-34
 11
35.9031
 21
-33.7224
  0
LINE
  8
0
 10
35.9031
 20
-33.7224
 11
35.8958
 21
-33.4449
  0
LINE
  8
0
 10
35.8958
 20
-33.4449
 11
35.8837
 21
-33.1676
  0
LINE
  8
0
 10
35.8837
 20
-33.1676
 11
35.8667
 21
-32.8905
  0
LINE
  8
0
 10
35.8667
 20
-32.8905
 11
35.845
 21
-32.6138
  0
LINE
  8
0
 10
35.845
 20
-32.6138
 11
35.8184
 21
-32.3374
  0
LINE
  8
0
 10
35.8184
 20
-32.3374
 11
35.7869
 21
-32.0616
  0
LINE
  8
0
 10
35.7869
 20
-32.0616
 11
35.7507
 21
-31.7864
  0
LINE
  8
0
 10
35.7507
 20
-31.7864
 11
35.7097
 21
-31.5118
  0
LINE
  8
0
 10
35.7097
 20
-31.5118
 11
35.6638
 21
-31.2381
  0
LINE
  8
0
 10
35.6638
 20
-31.2381
 11
35.6133
 21
-30.9651
  0
LINE
  8
0
 10
35.6133
 20
-30.9651
 11
35.5579
 21
-30.6931
  0
LINE
  8
0
 10
35.5579
 20
-30.6931
 11
35.4978
 21
-30.422
  0
LINE
  8
0
 10
35.4978
 20
-30.422
 11
35.433
 21
-30.1521
  0
LINE
  8
0
 10
35.433
 20
-30.1521
 11
35.3635
 21
-29.8834
  0
LINE
  8
0
 10
35.3635
 20
-29.8834
 11
35.2893
 21
-29.6159
  0
LINE
  8
0
 10
35.2893
 20
-29.6159
 11
35.2105
 21
-29.3497
  0
LINE
  8
0
 10
35.2105
 20
-29.3497
 11
35.127
 21
-29.0849
  0
LINE
  8
0
 10
35.127
 20
-29.0849
 11
35.0389
 21
-28.8217
  0
LINE
  8
0
 10
35.0389
 20
-28.8217
 11
34.9463
 21
-28.56
  0
LINE
  8
0
 10
34.9463
 20
-28.56
 11
34.8491
 21
-28.3
  0
LINE
  8
0
 10
34.8491
 20
-28.3
 11
34.7473
 21
-28.0417
  0
LINE
  8
0
 10
34.7473
 20
-28.0417
 11
34.6411
 21
-27.7852
  0
LINE
  8
0
 10
34.6411
 20
-27.7852
 11
34.5304
 21
-27.5307
  0
LINE
  8
0
 10
34.5304
 20
-27.5307
 11
34.4153
 21
-27.278
  0
LINE
  8
0
 10
34.4153
 20
-27.278
 11
34.2958
 21
-27.0275
  0
LINE
  8
0
 10
34.2958
 20
-27.0275
 11
34.1719
 21
-26.7791
  0
LINE
  8
0
 10
34.1719
 20
-26.7791
 11
34.0437
 21
-26.5328
  0
LINE
  8
0
 10
34.0437
 20
-26.5328
 11
33.9113
 21
-26.2889
  0
LINE
  8
0
 10
33.9113
 20
-26.2889
 11
33.7746
 21
-26.0473
  0
LINE
  8
0
 10
33.7746
 20
-26.0473
 11
33.6337
 21
-25.8081
  0
LINE
  8
0
 10
33.6337
 20
-25.8081
 11
33.4886
 21
-25.5714
  0
LINE
  8
0
 10
33.4886
 20
-25.5714
 11
33.3395
 21
-25.3372
  0
LINE
  8
0
 10
33.3395
 20
-25.3372
 11
33.1862
 21
-25.1058
  0
LINE
  8
0
 10
33.1862
 20
-25.1058
 11
33.029
 21
-24.877
  0
LINE
  8
0
 10
33.029
 20
-24.877
 11
32.8678
 21
-24.651
  0
LINE
  8
0
 10
32.8678
 20
-24.651
 11
32.7027
 21
-24.4278
  0
LINE
  8
0
 10
32.7027
 20
-24.4278
 11
32.5337
 21
-24.2076
  0
LINE
  8
0
 10
32.5337
 20
-24.2076
 11
32.3609
 21
-23.9904
  0
LINE
  8
0
 10
32.3609
 20
-23.9904
 11
32.1843
 21
-23.7762
  0
LINE
  8
0
 10
32.1843
 20
-23.7762
 11
32.004
 21
-23.5651
  0
LINE
  8
0
 10
32.004
 20
-23.5651
 11
31.8201
 21
-23.3571
  0
LINE
  8
0
 10
31.8201
 20
-23.3571
 11
31.6325
 21
-23.1525
  0
LINE
  8
0
 10
31.6325
 20
-23.1525
 11
31.4415
 21
-22.9511
  0
LINE
  8
0
 10
31.4415
 20
-22.9511
 11
31.2469
 21
-22.7531
  0
LINE
  8
0
 10
31.2469
 20
-22.7531
 11
31.0489
 21
-22.5585
  0
LINE
  8
0
 10
31.0489
 20
-22.5585
 11
30.8475
 21
-22.3675
  0
LINE
  8
0
 10
30.8475
 20
-22.3675
 11
30.6429
 21
-22.1799
  0
LINE
  8
0
 10
30.6429
 20
-22.1799
 11
30.4349
 21
-21.996
  0
LINE
  8
0
 10
30.4349
 20
-21.996
 11
30.2238
 21
-21.8157
  0
LINE
  8
0
 10
30.2238
 20
-21.8157
 11
30.0096
 21
-21.6391
  0
LINE
  8
0
 10
30.0096
 20
-21.6391
 11
29.7924
 21
-21.4663
  0
LINE
  8
0
 10
29.7924
 20
-21.4663
 11
29.5722
 21
-21.2973
  0
LINE
  8
0
 10
29.5722
 20
-21.2973
 11
29.349
 21
-21.1322
  0
LINE
  8
0
 10
29.349
 20
-21.1322
 11
29.123
 21
-20.971
  0
LINE
  8
0
 10
29.123
 20
-20.971
 11
28.8942
 21
-20.8138
  0
LINE
  8
0
 10
28.8942
 20
-20.8138
 11
28.6628
 21
-20.6605
  0
LINE
  8
0
 10
28.6628
 20
-20.6605
 11
28.4286
 21
-20.5114
  0
LINE
  8
0
 10
28.4286
 20
-20.5114
 11
28.1919
 21
-20.3663
  0
LINE
  8
0
 10
28.1919
 20
-20.3663
 11
27.9527
 21
-20.2254
  0
LINE
  8
0
 10
27.9527
 20
-20.2254
 11
27.7111
 21
-20.0887
  0
LINE
  8
0
 10
27.7111
 20
-20.0887
 11
27.4672
 21
-19.9563
  0
LINE
  8
0
 10
27.4672
 20
-19.9563
 11
27.2209
 21
-19.8281
  0
LINE
  8
0
 10
27.2209
 20
-19.8281
 11
26.9725
 21
-19.7042
  0
LINE
  8
0
 10
26.9725
 20
-19.7042
 11
26.722
 21
-19.5847
  0
LINE
  8
0
 10
26.722
 20
-19.5847
 11
26.4693
 21
-19.4696
  0
LINE
  8
0
 10
26.4693
 20
-19.4696
 11
26.2148
 21
-19.3589
  0
LINE
  8
0
 10
26.2148
 20
-19.3589
 11
25.9583
 21
-19.2527
  0
LINE
  8
0
 10
25.9583
 20
-19.2527
 11
25.7
 21
-19.1509
  0
LINE
  8
0
 10
25.7
 20
-19.1509
 11
25.44
 21
-19.0537
  0
LINE
  8
0
 10
25.44
 20
-19.0537
 11
25.1783
 21
-18.9611
  0
LINE
  8
0
 10
25.1783
 20
-18.9611
 11
24.9151
 21
-18.873
  0
LINE
  8
0
 10
24.9151
 20
-18.873
 11
24.6503
 21
-18.7895
  0
LINE
  8
0
 10
24.6503
 20
-18.7895
 11
24.3841
 21
-18.7107
  0
LINE
  8
0
 10
24.3841
 20
-18.7107
 11
24.1166
 21
-18.6365
  0
LINE
  8
0
 10
24.1166
 20
-18.6365
 11
23.8479
 21
-18.567
  0
LINE
  8
0
 10
23.8479
 20
-18.567
 11
23.578
 21
-18.5022
  0
LINE
  8
0
 10
23.578
 20
-18.5022
 11
23.3069
 21
-18.4421
  0
LINE
  8
0
 10
23.3069
 20
-18.4421
 11
23.0349
 21
-18.3867
  0
LINE
  8
0
 10
23.0349
 20
-18.3867
 11
22.7619
 21
-18.3362
  0
LINE
  8
0
 10
22.7619
 20
-18.3362
 11
22.4882
 21
-18.2903
  0
LINE
  8
0
 10
22.4882
 20
-18.2903
 11
22.2136
 21
-18.2493
  0
LINE
  8
0
 10
22.2136
 20
-18.2493
 11
21.9384
 21
-18.2131
  0
LINE
  8
0
 10
21.9384
 20
-18.2131
 11
21.6626
 21
-18.1816
  0
LINE
  8
0
 10
21.6626
 20
-18.1816
 11
21.3862
 21
-18.155
  0
LINE
  8
0
 10
21.3862
 20
-18.155
 11
21.1095
 21
-18.1333
  0
LINE
  8
0
 10
21.1095
 20
-18.1333
 11
20.8324
 21
-18.1163
  0
LINE
  8
0
 10
20.8324
 20
-18.1163
 11
20.5551
 21
-18.1042
  0
LINE
  8
0
 10
20.5551
 20
-18.1042
 11
20.2776
 21
-18.0969
  0
LINE
  8
0
 10
20.2776
 20
-18.0969
 11
20
 21
-18.0945
  0
LINE
  8
0
 10
20
 20
-18.0945
 11
19.7224
 21
-18.0969
  0
LINE
  8
0
 10
19.7224
 20
-18.0969
 11
19.4449
 21
-18.1042
  0
LINE
  8
0
 10
19.4449
 20
-18.1042
 11
19.1676
 21
-18.1163
  0
LINE
  8
0
 10
19.1676
 20
-18.1163
 11
18.8905
 21
-18.1333
  0
LINE
  8
0
 10
18.8905
 20
-18.1333
 11
18.6138
 21
-18.155
  0
LINE
  8
0
 10
18.6138
 20
-18.155
 11
18.3374
 21
-18.1816
  0
LINE
  8
0
 10
18.3374
 20
-18.1816
 11
18.0616
 21
-18.2131
  0
LINE
  8
0
 10
18.0616
 20
-18.2131
 11
17.7864
 21
-18.2493
  0
LINE
  8
0
 10
17.7864
 20
-18.2493
 11
17.5118
 21
-18.2903
  0
LINE
  8
0
 10
17.5118
 20
-18.2903
 11
17.2381
 21
-18.3362
  0
LINE
  8
0
 10
17.2381
 20
-18.3362
 11
16.9651
 21
-18.3867
  0
LINE
  8
0
 10
16.9651
 20
-18.3867
 11
16.6931
 21
-18.4421
  0
LINE
  8
0
 10
16.6931
 20
-18.4421
 11
16.422
 21
-18.5022
  0
LINE
  8
0
 10
16.422
 20
-18.5022
 11
16.1521
 21
-18.567
  0
LINE
  8
0
 10
16.1521
 20
-18.567
 11
15.8834
 21
-18.6365
  0
LINE
  8
0
 10
15.8834
 20
-18.6365
 11
15.6159
 21
-18.7107
  0
LINE
  8
0
 10
15.6159
 20
-18.7107
 11
15.3497
 21
-18.7895
  0
LINE
  8
0
 10
15.3497
 20
-18.7895
 11
15.0849
 21
-18.873
  0
LINE
  8
0
 10
15.0849
 20
-18.873
 11
14.8217
 21
-18.9611
  0
LINE
  8
0
 10
14.8217
 20
-18.9611
 11
14.56
 21
-19.0537
  0
LINE
  8
0
 10
14.56
 20
-19.0537
 11
14.3
 21
-19.1509
  0
LINE
  8
0
 10
14.3
 20
-19.1509
 11
14.0417
 21
-19.2527
  0
LINE
  8
0
 10
14.0417
 20
-19.2527
 11
13.7852
 21
-19.3589
  0
LINE
  8
0
 10
13.7852
 20
-19.3589
 11
13.5307
 21
-19.4696
  0
LINE
  8
0
 10
13.5307
 20
-19.4696
 11
13.278
 21
-19.5847
  0
LINE
  8
0
 10
13.278
 20
-19.5847
 11
13.0275
 21
-19.7042
  0
LINE
  8
0
 10
13.0275
 20
-19.7042
 11
12.7791
 21
-19.8281
  0
LINE
  8
0
 10
12.7791
 20
-19.8281
 11
12.5328
 21
-19.9563
  0
LINE
  8
0
 10
12.5328
 20
-19.9563
 11
12.2889
 21
-20.0887
  0
LINE
  8
0
 10
12.2889
 20
-20.0887
 11
12.0473
 21
-20.2254
  0
LINE
  8
0
 10
12.0473
 20
-20.2254
 11
11.8081
 21
-20.3663
  0
LINE
  8
0
 10
11.8081
 20
-20.3663
 11
11.5714
 21
-20.5114
  0
LINE
  8
0
 10
11.5714
 20
-20.5114
 11
11.3372
 21
-20.6605
  0
LINE
  8
0
 10
11.3372
 20
-20.6605
 11
11.1058
 21
-20.8138
  0
LINE
  8
0
 10
11.1058
 20
-20.8138
 11
10.877
 21
-20.971
  0
LINE
  8
0
 10
10.877
 20
-20.971
 11
10.651
 21
-21.1322
  0
LINE
  8
0
 10
10.651
 20
-21.1322
 11
10.4278
 21
-21.2973
  0
LINE
  8
0
 10
10.4278
 20
-21.2973
 11
10.2076
 21
-21.4663
  0
LINE
  8
0
 10
10.2076
 20
-21.4663
 11
9.99036
 21
-21.6391
  0
LINE
  8
0
 10
9.99036
 20
-21.6391
 11
9.77615
 21
-21.8157
  0
LINE
  8
0
 10
9.77615
 20
-21.8157
 11
9.56506
 21
-21.996
  0
LINE
  8
0
 10
9.56506
 20
-21.996
 11
9.35715
 21
-22.1799
  0
LINE
  8
0
 10
9.35715
 20
-22.1799
 11
9.15248
 21
-22.3675
  0
LINE
  8
0
 10
9.15248
 20
-22.3675
 11
8.95113
 21
-22.5585
  0
LINE
  8
0
 10
8.95113
 20
-22.5585
 11
8.75313
 21
-22.7531
  0
LINE
  8
0
 10
8.75313
 20
-22.7531
 11
8.55855
 21
-22.9511
  0
LINE
  8
0
 10
8.55855
 20
-22.9511
 11
8.36746
 21
-23.1525
  0
LINE
  8
0
 10
8.36746
 20
-23.1525
 11
8.17992
 21
-23.3571
  0
LINE
  8
0
 10
8.17992
 20
-23.3571
 11
7.99597
 21
-23.5651
  0
LINE
  8
0
 10
7.99597
 20
-23.5651
 11
7.81569
 21
-23.7762
  0
LINE
  8
0
 10
7.81569
 20
-23.7762
 11
7.63911
 21
-23.9904
  0
LINE
  8
0
 10
7.63911
 20
-23.9904
 11
7.46631
 21
-24.2076
  0
LINE
  8
0
 10
7.46631
 20
-24.2076
 11
7.29732
 21
-24.4278
  0
LINE
  8
0
 10
7.29732
 20
-24.4278
 11
7.13219
 21
-24.651
  0
LINE
  8
0
 10
7.13219
 20
-24.651
 11
6.97098
 21
-24.877
  0
LINE
  8
0
 10
6.97098
 20
-24.877
 11
6.81375
 21
-25.1058
  0
LINE
  8
0
 10
6.81375
 20
-25.1058
 11
6.66054
 21
-25.3372
  0
LINE
  8
0
 10
6.66054
 20
-25.3372
 11
6.51138
 21
-25.5714
  0
LINE
  8
0
 10
6.51138
 20
-25.5714
 11
6.36633
 21
-25.8081
  0
LINE
  8
0
 10
6.36633
 20
-25.8081
 11
6.22543
 21
-26.0473
  0
LINE
  8
0
 10
6.22543
 20
-26.0473
 11
6.08875
 21
-26.2889
  0
LINE
  8
0
 10
6.08875
 20
-26.2889
 11
5.95628
 21
-26.5328
  0
LINE
  8
0
 10
5.95628
 20
-26.5328
 11
5.82811
 21
-26.7791
  0
LINE
  8
0
 10
5.82811
 20
-26.7791
 11
5.70424
 21
-27.0275
  0
LINE
  8
0
 10
5.70424
 20
-27.0275
 11
5.58473
 21
-27.278
  0
LINE
  8
0
 10
5.58473
 20
-27.278
 11
5.4696
 21
-27.5307
  0
LINE
  8
0
 10
5.4696
 20
-27.5307
 11
5.35892
 21
-27.7852
  0
LINE
  8
0
 10
5.35892
 20
-27.7852
 11
5.25269
 21
-28.0417
  0
LINE
  8
0
 10
5.25269
 20
-28.0417
 11
5.15094
 21
-28.3
  0
LINE
  8
0
 10
5.15094
 20
-28.3
 11
5.05373
 21
-28.56
  0
LINE
  8
0
 10
5.05373
 20
-28.56
 11
4.96106
 21
-28.8217
  0
LINE
  8
0
 10
4.96106
 20
-28.8217
 11
4.87297
 21
-29.0849
  0
LINE
  8
0
 10
4.87297
 20
-29.0849
 11
4.78951
 21
-29.3497
  0
LINE
  8
0
 10
4.78951
 20
-29.3497
 11
4.71066
 21
-29.6159
  0
LINE
  8
0
 10
4.71066
 20
-29.6159
 11
4.63647
 21
-29.8834
  0
LINE
  8
0
 10
4.63647
 20
-29.8834
 11
4.56697
 21
-30.1521
  0
LINE
  8
0
 10
4.56697
 20
-30.1521
 11
4.50217
 21
-30.422
  0
LINE
  8
0
 10
4.50217
 20
-30.422
 11
4.44208
 21
-30.6931
  0
LINE
  8
0
 10
4.44208
 20
-30.6931
 11
4.38673
 21
-30.9651
  0
LINE
  8
0
 10
4.38673
 20
-30.9651
 11
4.33615
 21
-31.2381
  0
LINE
  8
0
 10
4.33615
 20
-31.2381
 11
4.29033
 21
-31.5118
  0
LINE
  8
0
 10
4.29033
 20
-31.5118
 11
4.2493
 21
-31.7864
  0
LINE
  8
0
 10
4.2493
 20
-31.7864
 11
4.21306
 21
-32.0616
  0
LINE
  8
0
 10
4.21306
 20
-32.0616
 11
4.18164
 21
-32.3374
  0
LINE
  8
0
 10
4.18164
 20
-32.3374
 11
4.15503
 21
-32.6138
  0
LINE
  8
0
 10
4.15503
 20
-32.6138
 11
4.13326
 21
-32.8905
  0
LINE
  8
0
 10
4.13326
 20
-32.8905
 11
4.1163
 21
-33.1676
  0
LINE
  8
0
 10
4.1163
 20
-33.1676
 11
4.1042
 21
-33.4449
  0
LINE
  8
0
 10
4.1042
 20
-33.4449
 11
4.09692
 21
-33.7224
  0
LINE
  8
0
 10
4.09692
 20
-33.7224
 11
4.09451
 21
-34
  0
LINE
  8
0
 10
4.09451
 20
-34
 11
4.09692
 21
-34.2776
  0
LINE
  8
0
 10
4.09692
 20
-34.2776
 11
4.1042
 21
-34.5551
  0
LINE
  8
0
 10
4.1042
 20
-34.5551
 11
4.1163
 21
-34.8324
  0
LINE
  8
0
 10
4.1163
 20
-34.8324
 11
4.13326
 21
-35.1095
  0
LINE
  8
0
 10
4.13326
 20
-35.1095
 11
4.15503
 21
-35.3862
  0
LINE
  8
0
 10
4.15503
 20
-35.3862
 11
4.18164
 21
-35.6626
  0
LINE
  8
0
 10
4.18164
 20
-35.6626
 11
4.21306
 21
-35.9384
  0
LINE
  8
0
 10
4.21306
 20
-35.9384
 11
4.2493
 21
-36.2136
  0
LINE
  8
0
 10
4.2493
 20
-36.2136
 11
4.29033
 21
-36.4882
  0
LINE
  8
0
 10
4.29033
 20
-36.4882
 11
4.33615
 21
-36.7619
  0
LINE
  8
0
 10
4.33615
 20
-36.7619
 11
4.38673
 21
-37.0349
  0
LINE
  8
0
 10
4.38673
 20
-37.0349
 11
4.44208
 21
-37.3069
  0
LINE
  8
0
 10
4.44208
 20
-37.3069
 11
4.50217
 21
-37.578
  0
LINE
  8
0
 10
4.50217
 20
-37.578
 11
4.56697
 21
-37.8479
  0
LINE
  8
0
 10
4.56697
 20
-37.8479
 11
4.63647
 21
-38.1166
  0
LINE
  8
0
 10
4.63647
 20
-38.1166
 11
4.71066
 21
-38.3841
  0
LINE
  8
0
 10
4.71066
 20
-38.3841
 11
4.78951
 21
-38.6503
  0
LINE
  8
0
 10
4.78951
 20
-38.6503
 11
4.87297
 21
-38.9151
  0
LINE
  8
0
 10
4.87297
 20
-38.9151
 11
4.96106
 21
-39.1783
  0
LINE
  8
0
 10
4.96106
 20
-39.1783
 11
5.05373
 21
-39.44
  0
LINE
  8
0
 10
5.05373
 20
-39.44
 11
5.15094
 21
-39.7
  0
LINE
  8
0
 10
5.15094
 20
-39.7
 11
5.25269
 21
-39.9583
  0
LINE
  8
0
 10
5.25269
 20
-39.9583
 11
5.35892
 21
-40.2148
  0
LINE
  8
0
 10
5.35892
 20
-40.2148
 11
5.4696
 21
-40.4693
  0
LINE
  8
0
 10
5.4696
 20
-40.4693
 11
5.58473
 21
-40.722
  0
LINE
  8
0
 10
5.58473
 20
-40.722
 11
5.70424
 21
-40.9725
  0
LINE
  8
0
 10
5.70424
 20
-40.9725
 11
5.82811
 21
-41.2209
  0
LINE
  8
0
 10
5.82811
 20
-41.2209
 11
5.95628
 21
-41.4672
  0
LINE
  8
0
 10
5.95628
 20
-41.4672
 11
6.08875
 21
-41.7111
  0
LINE
  8
0
 10
6.08875
 20
-41.7111
 11
6.22543
 21
-41.9527
  0
LINE
  8
0
 10
6.22543
 20
-41.9527
 11
6.36633
 21
-42.1919
  0
LINE
  8
0
 10
6.36633
 20
-42.1919
 11
6.51138
 21
-42.4286
  0
LINE
  8
0
 10
6.51138
 20
-42.4286
 11
6.66054
 21
-42.6628
  0
LINE
  8
0
 10
6.66054
 20
-42.6628
 11
6.81375
 21
-42.8942
  0
LINE
  8
0
 10
6.81375
 20
-42.8942
 11
6.97098
 21
-43.123
  0
LINE
  8
0
 10
6.97098
 20
-43.123
 11
7.13219
 21
-43.349
  0
LINE
  8
0
 10
7.13219
 20
-43.349
 11
7.29732
 21
-43.5722
  0
LINE
  8
0
 10
7.29732
 20
-43.5722
 11
7.46631
 21
-43.7924
  0
LINE
  8
0
 10
7.46631
 20
-43.7924
 11
7.63911
 21
-44.0096
  0
LINE
  8
0
 10
7.63911
 20
-44.0096
 11
7.81569
 21
-44.2238
  0
LINE
  8
0
 10
7.81569
 20
-44.2238
 11
7.99597
 21
-44.4349
  0
LINE
  8
0
 10
7.99597
 20
-44.4349
 11
8.17992
 21
-44.6429
  0
LINE
  8
0
 10
8.17992
 20
-44.6429
 11
8.36746
 21
-44.8475
  0
LINE
  8
0
 10
8.36746
 20
-44.8475
 11
8.55855
 21
-45.0489
  0
LINE
  8
0
 10
8.55855
 20
-45.0489
 11
8.75313
 21
-45.2469
  0
LINE
  8
0
 10
8.75313
 20
-45.2469
 11
8.95113
 21
-45.4415
  0
LINE
  8
0
 10
8.95113
 20
-45.4415
 11
9.15248
 21
-45.6325
  0
LINE
  8
0
 10
9.15248
 20
-45.6325
 11
9.35715
 21
-45.8201
  0
LINE
  8
0
 10
9.35715
 20
-45.8201
 11
9.56506
 21
-46.004
  0
LINE
  8
0
 10
9.56506
 20
-46.004
 11
9.77615
 21
-46.1843
  0
LINE
  8
0
 10
9.77615
 20
-46.1843
 11
9.99036
 21
-46.3609
  0
LINE
  8
0
 10
9.99036
 20
-46.3609
 11
10.2076
 21
-46.5337
  0
LINE
  8
0
 10
10.2076
 20
-46.5337
 11
10.4278
 21
-46.7027
  0
LINE
  8
0
 10
10.4278
 20
-46.7027
 11
10.651
 21
-46.8678
  0
LINE
  8
0
 10
10.651
 20
-46.8678
 11
10.877
 21
-47.029
  0
LINE
  8
0
 10
10.877
 20
-47.029
 11
11.1058
 21
-47.1862
  0
LINE
  8
0
 10
11.1058
 20
-47.1862
 11
11.3372
 21
-47.3395
  0
LINE
  8
0
 10
11.3372
 20
-47.3395
 11
11.5714
 21
-47.4886
  0
LINE
  8
0
 10
11.5714
 20
-47.4886
 11
11.8081
 21
-47.6337
  0
LINE
  8
0
 10
11.8081
 20
-47.6337
 11
12.0473
 21
-47.7746
  0
LINE
  8
0
 10
12.0473
 20
-47.7746
 11
12.2889
 21
-47.9113
  0
LINE
  8
0
 10
12.2889
 20
-47.9113
 11
12.5328
 21
-48.0437
  0
LINE
  8
0
 10
12.5328
 20
-48.0437
 11
12.7791
 21
-48.1719
  0
LINE
  8
0
 10
12.7791
 20
-48.1719
 11
13.0275
 21
-48.2958
  0
LINE
  8
0
 10
13.0275
 20
-48.2958
 11
13.278
 21
-48.4153
  0
LINE
  8
0
 10
13.278
 20
-48.4153
 11
13.5307
 21
-48.5304
  0
LINE
  8
0
 10
13.5307
 20
-48.5304
 11
13.7852
 21
-48.6411
  0
LINE
  8
0
 10
13.7852
 20
-48.6411
 11
14.0417
 21
-48.7473
  0
LINE
  8
0
 10
14.0417
 20
-48.7473
 11
14.3
 21
-48.8491
  0
LINE
  8
0
 10
14.3
 20
-48.8491
 11
14.56
 21
-48.9463
  0
LINE
  8
0
 10
14.56
 20
-48.9463
 11
14.8217
 21
-49.0389
  0
LINE
  8
0
 10
14.8217
 20
-49.0389
 11
15.0849
 21
-49.127
  0
LINE
  8
0
 10
15.0849
 20
-49.127
 11
15.3497
 21
-49.2105
  0
LINE
  8
0
 10
15.3497
 20
-49.2105
 11
15.6159
 21
-49.2893
  0
LINE
  8
0
 10
15.6159
 20
-49.2893
 11
15.8834
 21
-49.3635
  0
LINE
  8
0
 10
15.8834
 20
-49.3635
 11
16.1521
 21
-49.433
  0
LINE
  8
0
 10
16.1521
 20
-49.433
 11
16.422
 21
-49.4978
  0
LINE
  8
0
 10
16.422
 20
-49.4978
 11
16.6931
 21
-49.5579
  0
LINE
  8
0
 10
16.6931
 20
-49.5579
 11
16.9651
 21
-49.6133
  0
LINE
  8
0
 10
16.9651
 20
-49.6133
 11
17.2381
 21
-49.6638
  0
LINE
  8
0
 10
17.2381
 20
-49.6638
 11
17.5118
 21
-49.7097
  0
LINE
  8
0
 10
17.5118
 20
-49.7097
 11
17.7864
 21
-49.7507
  0
LINE
  8
0
 10
17.7864
 20
-49.7507
 11
18.0616
 21
-49.7869
  0
LINE
  8
0
 10
18.0616
 20
-49.7869
 11
18.3374
 21
-49.8184
  0
LINE
  8
0
 10
18.3374
 20
-49.8184
 11
18.6138
 21
-49.845
  0
LINE
  8
0
 10
18.6138
 20
-49.845
 11
18.8905
 21
-49.8667
  0
LINE
  8
0
 10
18.8905
 20
-49.8667
 11
19.1676
 21
-49.8837
  0
LINE
  8
0
 10
19.1676
 20
-49.8837
 11
19.4449
 21
-49.8958
  0
LINE
  8
0
 10
19.4449
 20
-49.8958
 11
19.7224
 21
-49.9031
  0
LINE
  8
0
 10
19.7224
 20
-49.9031
 11
20
 21
-49.9055
  0
LINE
  8
0
 10
20
 20
-49.9055
 11
20.2776
 21
-49.9031
  0
LINE
  8
0
 10
19.8612
 20
-41.9543
 11
19.7224
 21
-41.9507
  0
LINE
  8
0
 10
19.7224
 20
-41.9507
 11
19.5836
 21
-41.9446
  0
LINE
  8
0
 10
19.5836
 20
-41.9446
 11
19.4451
 21
-41.9361
  0
LINE
  8
0
 10
19.4451
 20
-41.9361
 11
19.3066
 21
-41.9252
  0
LINE
  8
0
 10
19.3066
 20
-41.9252
 11
19.1684
 21
-41.9119
  0
LINE
  8
0
 10
19.1684
 20
-41.9119
 11
19.0305
 21
-41.8962
  0
LINE
  8
0
 10
19.0305
 20
-41.8962
 11
18.8928
 21
-41.8781
  0
LINE
  8
0
 10
18.8928
 20
-41.8781
 11
18.7555
 21
-41.8575
  0
LINE
  8
0
 10
18.7555
 20
-41.8575
 11
18.6185
 21
-41.8346
  0
LINE
  8
0
 10
18.6185
 20
-41.8346
 11
18.482
 21
-41.8093
  0
LINE
  8
0
 10
18.482
 20
-41.8093
 11
18.346
 21
-41.7816
  0
LINE
  8
0
 10
18.346
 20
-41.7816
 11
18.2104
 21
-41.7516
  0
LINE
  8
0
 10
18.2104
 20
-41.7516
 11
18.0754
 21
-41.7192
  0
LINE
  8
0
 10
18.0754
 20
-41.7192
 11
17.941
 21
-41.6844
  0
LINE
  8
0
 10
17.941
 20
-41.6844
 11
17.8072
 21
-41.6473
  0
LINE
  8
0
 10
17.8072
 20
-41.6473
 11
17.674
 21
-41.6079
  0
LINE
  8
0
 10
17.674
 20
-41.6079
 11
17.5416
 21
-41.5661
  0
LINE
  8
0
 10
17.5416
 20
-41.5661
 11
17.4099
 21
-41.5221
  0
LINE
  8
0
 10
17.4099
 20
-41.5221
 11
17.2791
 21
-41.4757
  0
LINE
  8
0
 10
17.2791
 20
-41.4757
 11
17.149
 21
-41.4271
  0
LINE
  8
0
 10
17.149
 20
-41.4271
 11
17.0198
 21
-41.3762
  0
LINE
  8
0
 10
17.0198
 20
-41.3762
 11
16.8915
 21
-41.3231
  0
LINE
  8
0
 10
16.8915
 20
-41.3231
 11
16.7642
 21
-41.2677
  0
LINE
  8
0
 10
16.7642
 20
-41.2677
 11
16.6379
 21
-41.2101
  0
LINE
  8
0
 10
16.6379
 20
-41.2101
 11
16.5125
 21
-41.1503
  0
LINE
  8
0
 10
16.5125
 20
-41.1503
 11
16.3883
 21
-41.0884
  0
LINE
  8
0
 10
16.3883
 20
-41.0884
 11
16.2651
 21
-41.0243
  0
LINE
  8
0
 10
16.2651
 20
-41.0243
 11
16.1431
 21
-40.958
  0
LINE
  8
0
 10
16.1431
 20
-40.958
 11
16.0223
 21
-40.8897
  0
LINE
  8
0
 10
16.0223
 20
-40.8897
 11
15.9026
 21
-40.8192
  0
LINE
  8
0
 10
15.9026
 20
-40.8192
 11
15.7842
 21
-40.7466
  0
LINE
  8
0
 10
15.7842
 20
-40.7466
 11
15.6671
 21
-40.672
  0
LINE
  8
0
 10
15.6671
 20
-40.672
 11
15.5513
 21
-40.5954
  0
LINE
  8
0
 10
15.5513
 20
-40.5954
 11
15.4369
 21
-40.5168
  0
LINE
  8
0
 10
15.4369
 20
-40.5168
 11
15.3239
 21
-40.4361
  0
LINE
  8
0
 10
15.3239
 20
-40.4361
 11
15.2123
 21
-40.3535
  0
LINE
  8
0
 10
15.2123
 20
-40.3535
 11
15.1021
 21
-40.269
  0
LINE
  8
0
 10
15.1021
 20
-40.269
 11
14.9935
 21
-40.1826
  0
LINE
  8
0
 10
14.9935
 20
-40.1826
 11
14.8863
 21
-40.0943
  0
LINE
  8
0
 10
14.8863
 20
-40.0943
 11
14.7807
 21
-40.0041
  0
LINE
  8
0
 10
14.7807
 20
-40.0041
 11
14.6767
 21
-39.9121
  0
LINE
  8
0
 10
14.6767
 20
-39.9121
 11
14.5744
 21
-39.8183
  0
LINE
  8
0
 10
14.5744
 20
-39.8183
 11
14.4736
 21
-39.7227
  0
LINE
  8
0
 10
14.4736
 20
-39.7227
 11
14.3746
 21
-39.6254
  0
LINE
  8
0
 10
14.3746
 20
-39.6254
 11
14.2773
 21
-39.5264
  0
LINE
  8
0
 10
14.2773
 20
-39.5264
 11
14.1817
 21
-39.4256
  0
LINE
  8
0
 10
14.1817
 20
-39.4256
 11
14.0879
 21
-39.3233
  0
LINE
  8
0
 10
14.0879
 20
-39.3233
 11
13.9959
 21
-39.2193
  0
LINE
  8
0
 10
13.9959
 20
-39.2193
 11
13.9057
 21
-39.1137
  0
LINE
  8
0
 10
13.9057
 20
-39.1137
 11
13.8174
 21
-39.0065
  0
LINE
  8
0
 10
13.8174
 20
-39.0065
 11
13.731
 21
-38.8979
  0
LINE
  8
0
 10
13.731
 20
-38.8979
 11
13.6465
 21
-38.7877
  0
LINE
  8
0
 10
13.6465
 20
-38.7877
 11
13.5639
 21
-38.6761
  0
LINE
  8
0
 10
13.5639
 20
-38.6761
 11
13.4832
 21
-38.5631
  0
LINE
  8
0
 10
13.4832
 20
-38.5631
 11
13.4046
 21
-38.4487
  0
LINE
  8
0
 10
13.4046
 20
-38.4487
 11
13.328
 21
-38.3329
  0
LINE
  8
0
 10
13.328
 20
-38.3329
 11
13.2534
 21
-38.2158
  0
LINE
  8
0
 10
13.2534
 20
-38.2158
 11
13.1808
 21
-38.0974
  0
LINE
  8
0
 10
13.1808
 20
-38.0974
 11
13.1103
 21
-37.9777
  0
LINE
  8
0
 10
13.1103
 20
-37.9777
 11
13.042
 21
-37.8569
  0
LINE
  8
0
 10
13.042
 20
-37.8569
 11
12.9757
 21
-37.7349
  0
LINE
  8
0
 10
12.9757
 20
-37.7349
 11
12.9116
 21
-37.6117
  0
LINE
  8
0
 10
12.9116
 20
-37.6117
 11
12.8497
 21
-37.4875
  0
LINE
  8
0
 10
12.8497
 20
-37.4875
 11
12.7899
 21
-37.3621
  0
LINE
  8
0
 10
12.7899
 20
-37.3621
 11
12.7323
 21
-37.2358
  0
LINE
  8
0
 10
12.7323
 20
-37.2358
 11
12.6769
 21
-37.1085
  0
LINE
  8
0
 10
12.6769
 20
-37.1085
 11
12.6238
 21
-36.9802
  0
LINE
  8
0
 10
12.6238
 20
-36.9802
 11
12.5729
 21
-36.851
  0
LINE
  8
0
 10
12.5729
 20
-36.851
 11
12.5243
 21
-36.7209
  0
LINE
  8
0
 10
12.5243
 20
-36.7209
 11
12.4779
 21
-36.5901
  0
LINE
  8
0
 10
12.4779
 20
-36.5901
 11
12.4339
 21
-36.4584
  0
LINE
  8
0
 10
12.4339
 20
-36.4584
 11
12.3921
 21
-36.326
  0
LINE
  8
0
 10
12.3921
 20
-36.326
 11
12.3527
 21
-36.1928
  0
LINE
  8
0
 10
12.3527
 20
-36.1928
 11
12.3156
 21
-36.059
  0
LINE
  8
0
 10
12.3156
 20
-36.059
 11
12.2808
 21
-35.9246
  0
LINE
  8
0
 10
12.2808
 20
-35.9246
 11
12.2484
 21
-35.7896
  0
LINE
  8
0
 10
12.2484
 20
-35.7896
 11
12.2184
 21
-35.654
  0
LINE
  8
0
 10
12.2184
 20
-35.654
 11
12.1907
 21
-35.518
  0
LINE
  8
0
 10
12.1907
 20
-35.518
 11
12.1654
 21
-35.3815
  0
LINE
  8
0
 10
12.1654
 20
-35.3815
 11
12.1425
 21
-35.2445
  0
LINE
  8
0
 10
12.1425
 20
-35.2445
 11
12.1219
 21
-35.1072
  0
LINE
  8
0
 10
12.1219
 20
-35.1072
 11
12.1038
 21
-34.9695
  0
LINE
  8
0
 10
12.1038
 20
-34.9695
 11
12.0881
 21
-34.8316
  0
LINE
  8
0
 10
12.0881
 20
-34.8316
 11
12.0748
 21
-34.6934
  0
LINE
  8
0
 10
12.0748
 20
-34.6934
 11
12.0639
 21
-34.5549
  0
LINE
  8
0
 10
12.0639
 20
-34.5549
 11
12.0554
 21
-34.4164
  0
LINE
  8
0
 10
12.0554
 20
-34.4164
 11
12.0493
 21
-34.2776
  0
LINE
  8
0
 10
12.0493
 20
-34.2776
 11
12.0457
 21
-34.1388
  0
LINE
  8
0
 10
12.0457
 20
-34.1388
 11
12.0445
 21
-34
  0
LINE
  8
0
 10
12.0445
 20
-34
 11
12.0457
 21
-33.8612
  0
LINE
  8
0
 10
12.0457
 20
-33.8612
 11
12.0493
 21
-33.7224
  0
LINE
  8
0
 10
12.0493
 20
-33.7224
 11
12.0554
 21
-33.5836
  0
LINE
  8
0
 10
12.0554
 20
-33.5836
 11
12.0639
 21
-33.4451
  0
LINE
  8
0
 10
12.0639
 20
-33.4451
 11
12.0748
 21
-33.3066
  0
LINE
  8
0
 10
12.0748
 20
-33.3066
 11
12.0881
 21
-33.1684
  0
LINE
  8
0
 10
12.0881
 20
-33.1684
 11
12.1038
 21
-33.0305
  0
LINE
  8
0
 10
12.1038
 20
-33.0305
 11
12.1219
 21
-32.8928
  0
LINE
  8
0
 10
12.1219
 20
-32.8928
 11
12.1425
 21
-32.7555
  0
LINE
  8
0
 10
12.1425
 20
-32.7555
 11
12.1654
 21
-32.6185
  0
LINE
  8
0
 10
12.1654
 20
-32.6185
 11
12.1907
 21
-32.482
  0
LINE
  8
0
 10
12.1907
 20
-32.482
 11
12.2184
 21
-32.346
  0
LINE
  8
0
 10
12.2184
 20
-32.346
 11
12.2484
 21
-32.2104
  0
LINE
  8
0
 10
12.2484
 20
-32.2104
 11
12.2808
 21
-32.0754
  0
LINE
  8
0
 10
12.2808
 20
-32.0754
 11
12.3156
 21
-31.941
  0
LINE
  8
0
 10
12.3156
 20
-31.941
 11
12.3527
 21
-31.8072
  0
LINE
  8
0
 10
12.3527
 20
-31.8072
 11
12.3921
 21
-31.674
  0
LINE
  8
0
 10
12.3921
 20
-31.674
 11
12.4339
 21
-31.5416
  0
LINE
  8
0
 10
12.4339
 20
-31.5416
 11
12.4779
 21
-31.4099
  0
LINE
  8
0
 10
12.4779
 20
-31.4099
 11
12.5243
 21
-31.2791
  0
LINE
  8
0
 10
12.5243
 20
-31.2791
 11
12.5729
 21
-31.149
  0
LINE
  8
0
 10
12.5729
 20
-31.149
 11
12.6238
 21
-31.0198
  0
LINE
  8
0
 10
12.6238
 20
-31.0198
 11
12.6769
 21
-30.8915
  0
LINE
  8
0
 10
12.6769
 20
-30.8915
 11
12.7323
 21
-30.7642
  0
LINE
  8
0
 10
12.7323
 20
-30.7642
 11
12.7899
 21
-30.6379
  0
LINE
  8
0
 10
12.7899
 20
-30.6379
 11
12.8497
 21
-30.5125
  0
LINE
  8
0
 10
12.8497
 20
-30.5125
 11
12.9116
 21
-30.3883
  0
LINE
  8
0
 10
12.9116
 20
-30.3883
 11
12.9757
 21
-30.2651
  0
LINE
  8
0
 10
12.9757
 20
-30.2651
 11
13.042
 21
-30.1431
  0
LINE
  8
0
 10
13.042
 20
-30.1431
 11
13.1103
 21
-30.0223
  0
LINE
  8
0
 10
13.1103
 20
-30.0223
 11
13.1808
 21
-29.9026
  0
LINE
  8
0
 10
13.1808
 20
-29.9026
 11
13.2534
 21
-29.7842
  0
LINE
  8
0
 10
13.2534
 20
-29.7842
 11
13.328
 21
-29.6671
  0
LINE
  8
0
 10
13.328
 20
-29.6671
 11
13.4046
 21
-29.5513
  0
LINE
  8
0
 10
13.4046
 20
-29.5513
 11
13.4832
 21
-29.4369
  0
LINE
  8
0
 10
13.4832
 20
-29.4369
 11
13.5639
 21
-29.3239
  0
LINE
  8
0
 10
13.5639
 20
-29.3239
 11
13.6465
 21
-29.2123
  0
LINE
  8
0
 10
13.6465
 20
-29.2123
 11
13.731
 21
-29.1021
  0
LINE
  8
0
 10
13.731
 20
-29.1021
 11
13.8174
 21
-28.9935
  0
LINE
  8
0
 10
13.8174
 20
-28.9935
 11
13.9057
 21
-28.8863
  0
LINE
  8
0
 10
13.9057
 20
-28.8863
 11
13.9959
 21
-28.7807
  0
LINE
  8
0
 10
13.9959
 20
-28.7807
 11
14.0879
 21
-28.6767
  0
LINE
  8
0
 10
14.0879
 20
-28.6767
 11
14.1817
 21
-28.5744
  0
LINE
  8
0
 10
14.1817
 20
-28.5744
 11
14.2773
 21
-28.4736
  0
LINE
  8
0
 10
14.2773
 20
-28.4736
 11
14.3746
 21
-28.3746
  0
LINE
  8
0
 10
14.3746
 20
-28.3746
 11
14.4736
 21
-28.2773
  0
LINE
  8
0
 10
14.4736
 20
-28.2773
 11
14.5744
 21
-28.1817
  0
LINE
  8
0
 10
14.5744
 20
-28.1817
 11
14.6767
 21
-28.0879
  0
LINE
  8
0
 10
14.6767
 20
-28.0879
 11
14.7807
 21
-27.9959
  0
LINE
  8
0
 10
14.7807
 20
-27.9959
 11
14.8863
 21
-27.9057
  0
LINE
  8
0
 10
14.8863
 20
-27.9057
 11
14.9935
 21
-27.8174
  0
LINE
  8
0
 10
14.9935
 20
-27.8174
 11
15.1021
 21
-27.731
  0
LINE
  8
0
 10
15.1021
 20
-27.731
 11
15.2123
 21
-27.6465
  0
LINE
  8
0
 10
15.2123
 20
-27.6465
 11
15.3239
 21
-27.5639
  0
LINE
  8
0
 10
15.3239
 20
-27.5639
 11
15.4369
 21
-27.4832
  0
LINE
  8
0
 10
15.4369
 20
-27.4832
 11
15.5513
 21
-27.4046
  0
LINE
  8
0
 10
15.5513
 20
-27.4046
 11
15.6671
 21
-27.328
  0
LINE
  8
0
 10
15.6671
 20
-27.328
 11
15.7842
 21
-27.2534
  0
LINE
  8
0
 10
15.7842
 20
-27.2534
 11
15.9026
 21
-27.1808
  0
LINE
  8
0
 10
15.9026
 20
-27.1808
 11
16.0223
 21
-27.1103
  0
LINE
  8
0
 10
16.0223
 20
-27.1103
 11
16.1431
 21
-27.042
  0
LINE
  8
0
 10
16.1431
 20
-27.042
 11
16.2651
 21
-26.9757
  0
LINE
  8
0
 10
16.2651
 20
-26.9757
 11
16.3883
 21
-26.9116
  0
LINE
  8
0
 10
16.3883
 20
-26.9116
 11
16.5125
 21
-26.8497
  0
LINE
  8
0
 10
16.5125
 20
-26.8497
 11
16.6379
 21
-26.7899
  0
LINE
  8
0
 10
16.6379
 20
-26.7899
 11
16.7642
 21
-26.7323
  0
LINE
  8
0
 10
16.7642
 20
-26.7323
 11
16.8915
 21
-26.6769
  0
LINE
  8
0
 10
16.8915
 20
-26.6769
 11
17.0198
 21
-26.6238
  0
LINE
  8
0
 10
17.0198
 20
-26.6238
 11
17.149
 21
-26.5729
  0
LINE
  8
0
 10
17.149
 20
-26.5729
 11
17.2791
 21
-26.5243
  0
LINE
  8
0
 10
17.2791
 20
-26.5243
 11
17.4099
 21
-26.4779
  0
LINE
  8
0
 10
17.4099
 20
-26.4779
 11
17.5416
 21
-26.4339
  0
LINE
  8
0
 10
17.5416
 20
-26.4339
 11
17.674
 21
-26.3921
  0
LINE
  8
0
 10
17.674
 20
-26.3921
 11
17.8072
 21
-26.3527
  0
LINE
  8
0
 10
17.8072
 20
-26.3527
 11
17.941
 21
-26.3156
  0
LINE
  8
0
 10
17.941
 20
-26.3156
 11
18.0754
 21
-26.2808
  0
LINE
  8
0
 10
18.0754
 20
-26.2808
 11
18.2104
 21
-26.2484
  0
LINE
  8
0
 10
18.2104
 20
-26.2484
 11
18.346
 21
-26.2184
  0
LINE
  8
0
 10
18.346
 20
-26.2184
 11
18.482
 21
-26.1907
  0
LINE
  8
0
 10
18.482
 20
-26.1907
 11
18.6185
 21
-26.1654
  0
LINE
  8
0
 10
18.6185
 20
-26.1654
 11
18.7555
 21
-26.1425
  0
LINE
  8
0
 10
18.7555
 20
-26.1425
 11
18.8928
 21
-26.1219
  0
LINE
  8
0
 10
18.8928
 20
-26.1219
 11
19.0305
 21
-26.1038
  0
LINE
  8
0
 10
19.0305
 20
-26.1038
 11
19.1684
 21
-26.0881
  0
LINE
  8
0
 10
19.1684
 20
-26.0881
 11
19.3066
 21
-26.0748
  0
LINE
  8
0
 10
19.3066
 20
-26.0748
 11
19.4451
 21
-26.0639
  0
LINE
  8
0
 10
19.4451
 20
-26.0639
 11
19.5836
 21
-26.0554
  0
LINE
  8
0
 10
19.5836
 20
-26.0554
 11
19.7224
 21
-26.0493
  0
LINE
  8
0
 10
19.7224
 20
-26.0493
 11
19.8612
 21
-26.0457
  0
LINE
  8
0
 10
19.8612
 20
-26.0457
 11
20
 21
-26.0445
  0
LINE
  8
0
 10
20
 20
-26.0445
 11
20.1388
 21
-26.0457
  0
LINE
  8
0
 10
20.1388
 20
-26.0457
 11
20.2776
 21
-26.0493
  0
LINE
  8
0
 10
20.2776
 20
-26.0493
 11
20.4164
 21
-26.0554
  0
LINE
  8
0
 10
20.4164
 20
-26.0554
 11
20.5549
 21
-26.0639
  0
LINE
  8
0
 10
20.5549
 20
-26.0639
 11
20.6934
 21
-26.0748
  0
LINE
  8
0
 10
20.6934
 20
-26.0748
 11
20.8316
 21
-26.0881
  0
LINE
  8
0
 10
20.8316
 20
-26.0881
 11
20.9695
 21
-26.1038
  0
LINE
  8
0
 10
20.9695
 20
-26.1038
 11
21.1072
 21
-26.1219
  0
LINE
  8
0
 10
21.1072
 20
-26.1219
 11
21.2445
 21
-26.1425
  0
LINE
  8
0
 10
21.2445
 20
-26.1425
 11
21.3815
 21
-26.1654
  0
LINE
  8
0
 10
21.3815
 20
-26.1654
 11
21.518
 21
-26.1907
  0
LINE
  8
0
 10
21.518
 20
-26.1907
 11
21.654
 21
-26.2184
  0
LINE
  8
0
 10
21.654
 20
-26.2184
 11
21.7896
 21
-26.2484
  0
LINE
  8
0
 10
21.7896
 20
-26.2484
 11
21.9246
 21
-26.2808
  0
LINE
  8
0
 10
21.9246
 20
-26.2808
 11
22.059
 21
-26.3156
  0
LINE
  8
0
 10
22.059
 20
-26.3156
 11
22.1928
 21
-26.3527
  0
LINE
  8
0
 10
22.1928
 20
-26.3527
 11
22.326
 21
-26.3921
  0
LINE
  8
0
 10
22.326
 20
-26.3921
 11
22.4584
 21
-26.4339
  0
LINE
  8
0
 10
22.4584
 20
-26.4339
 11
22.5901
 21
-26.4779
  0
LINE
  8
0
 10
22.5901
 20
-26.4779
 11
22.7209
 21
-26.5243
  0
LINE
  8
0
 10
22.7209
 20
-26.5243
 11
22.851
 21
-26.5729
  0
LINE
  8
0
 10
22.851
 20
-26.5729
 11
22.9802
 21
-26.6238
  0
LINE
  8
0
 10
22.9802
 20
-26.6238
 11
23.1085
 21
-26.6769
  0
LINE
  8
0
 10
23.1085
 20
-26.6769
 11
23.2358
 21
-26.7323
  0
LINE
  8
0
 10
23.2358
 20
-26.7323
 11
23.3621
 21
-26.7899
  0
LINE
  8
0
 10
23.3621
 20
-26.7899
 11
23.4875
 21
-26.8497
  0
LINE
  8
0
 10
23.4875
 20
-26.8497
 11
23.6117
 21
-26.9116
  0
LINE
  8
0
 10
23.6117
 20
-26.9116
 11
23.7349
 21
-26.9757
  0
LINE
  8
0
 10
23.7349
 20
-26.9757
 11
23.8569
 21
-27.042
  0
LINE
  8
0
 10
23.8569
 20
-27.042
 11
23.9777
 21
-27.1103
  0
LINE
  8
0
 10
23.9777
 20
-27.1103
 11
24.0974
 21
-27.1808
  0
LINE
  8
0
 10
24.0974
 20
-27.1808
 11
24.2158
 21
-27.2534
  0
LINE
  8
0
 10
24.2158
 20
-27.2534
 11
24.3329
 21
-27.328
  0
LINE
  8
0
 10
24.3329
 20
-27.328
 11
24.4487
 21
-27.4046
  0
LINE
  8
0
 10
24.4487
 20
-27.4046
 11
24.5631
 21
-27.4832
  0
LINE
  8
0
 10
24.5631
 20
-27.4832
 11
24.6761
 21
-27.5639
  0
LINE
  8
0
 10
24.6761
 20
-27.5639
 11
24.7877
 21
-27.6465
  0
LINE
  8
0
 10
24.7877
 20
-27.6465
 11
24.8979
 21
-27.731
  0
LINE
  8
0
 10
24.8979
 20
-27.731
 11
25.0065
 21
-27.8174
  0
LINE
  8
0
 10
25.0065
 20
-27.8174
 11
25.1137
 21
-27.9057
  0
LINE
  8
0
 10
25.1137
 20
-27.9057
 11
25.2193
 21
-27.9959
  0
LINE
  8
0
 10
25.2193
 20
-27.9959
 11
25.3233
 21
-28.0879
  0
LINE
  8
0
 10
25.3233
 20
-28.0879
 11
25.4256
 21
-28.1817
  0
LINE
  8
0
 10
25.4256
 20
-28.1817
 11
25.5264
 21
-28.2773
  0
LINE
  8
0
 10
25.5264
 20
-28.2773
 11
25.6254
 21
-28.3746
  0
LINE
  8
0
 10
25.6254
 20
-28.3746
 11
25.7227
 21
-28.4736
  0
LINE
  8
0
 10
25.7227
 20
-28.4736
 11
25.8183
 21
-28.5744
  0
LINE
  8
0
 10
25.8183
 20
-28.5744
 11
25.9121
 21
-28.6767
  0
LINE
  8
0
 10
25.9121
 20
-28.6767
 11
26.0041
 21
-28.7807
  0
LINE
  8
0
 10
26.0041
 20
-28.7807
 11
26.0943
 21
-28.8863
  0
LINE
  8
0
 10
26.0943
 20
-28.8863
 11
26.1826
 21
-28.9935
  0
LINE
  8
0
 10
26.1826
 20
-28.9935
 11
26.269
 21
-29.1021
  0
LINE
  8
0
 10
26.269
 20
-29.1021
 11
26.3535
 21
-29.2123
  0
LINE
  8
0
 10
26.3535
 20
-29.2123
 11
26.4361
 21
-29.3239
  0
LINE
  8
0
 10
26.4361
 20
-29.3239
 11
26.5168
 21
-29.4369
  0
LINE
  8
0
 10
26.5168
 20
-29.4369
 11
26.5954
 21
-29.5513
  0
LINE
  8
0
 10
26.5954
 20
-29.5513
 11
26.672
 21
-29.6671
  0
LINE
  8
0
 10
26.672
 20
-29.6671
 11
26.7466
 21
-29.7842
  0
LINE
  8
0
 10
26.7466
 20
-29.7842
 11
26.8192
 21
-29.9026
  0
LINE
  8
0
 10
26.8192
 20
-29.9026
 11
26.8897
 21
-30.0223
  0
LINE
  8
0
 10
26.8897
 20
-30.0223
 11
26.958
 21
-30.1431
  0
LINE
  8
0
 10
26.958
 20
-30.1431
 11
27.0243
 21
-30.2651
  0
LINE
  8
0
 10
27.0243
 20
-30.2651
 11
27.0884
 21
-30.3883
  0
LINE
  8
0
 10
27.0884
 20
-30.3883
 11
27.1503
 21
-30.5125
  0
LINE
  8
0
 10
27.1503
 20
-30.5125
 11
27.2101
 21
-30.6379
  0
LINE
  8
0
 10
27.2101
 20
-30.6379
 11
27.2677
 21
-30.7642
  0
LINE
  8
0
 10
27.2677
 20
-30.7642
 11
27.3231
 21
-30.8915
  0
LINE
  8
0
 10
27.3231
 20
-30.8915
 11
27.3762
 21
-31.0198
  0
LINE
  8
0
 10
27.3762
 20
-31.0198
 11
27.4271
 21
-31.149
  0
LINE
  8
0
 10
27.4271
 20
-31.149
 11
27.4757
 21
-31.2791
  0
LINE
  8
0
 10
27.4757
 20
-31.2791
 11
27.5221
 21
-31.4099
  0
LINE
  8
0
 10
27.5221
 20
-31.4099
 11
27.5661
 21
-31.5416
  0
LINE
  8
0
 10
27.5661
 20
-31.5416
 11
27.6079
 21
-31.674
  0
LINE
  8
0
 10
27.6079
 20
-31.674
 11
27.6473
 21
-31.8072
  0
LINE
  8
0
 10
27.6473
 20
-31.8072
 11
27.6844
 21
-31.941
  0
LINE
  8
0
 10
27.6844
 20
-31.941
 11
27.7192
 21
-32.0754
  0
LINE
  8
0
 10
27.7192
 20
-32.0754
 11
27.7516
 21
-32.2104
  0
LINE
  8
0
 10
27.7516
 20
-32.2104
 11
27.7816
 21
-32.346
  0
LINE
  8
0
 10
27.7816
 20
-32.346
 11
27.8093
 21
-32.482
  0
LINE
  8
0
 10
27.8093
 20
-32.482
 11
27.8346
 21
-32.6185
  0
LINE
  8
0
 10
27.8346
 20
-32.6185
 11
27.8575
 21
-32.7555
  0
LINE
  8
0
 10
27.8575
 20
-32.7555
 11
27.8781
 21
-32.8928
  0
LINE
  8
0
 10
27.8781
 20
-32.8928
 11
27.8962
 21
-33.0305
  0
LINE
  8
0
 10
27.8962
 20
-33.0305
 11
27.9119
 21
-33.1684
  0
LINE
  8
0
 10
27.9119
 20
-33.1684
 11
27.9252
 21
-33.3066
  0
LINE
  8
0
 10
27.9252
 20
-33.3066
 11
27.9361
 21
-33.4451
  0
LINE
  8
0
 10
27.9361
 20
-33.4451
 11
27.9446
 21
-33.5836
  0
LINE
  8
0
 10
27.9446
 20
-33.5836
 11
27.9507
 21
-33.7224
  0
LINE
  8
0
 10
27.9507
 20
-33.7224
 11
27.9543
 21
-33.8612
  0
LINE
  8
0
 10
27.9543
 20
-33.8612
 11
27.9555
 21
-34
  0
LINE
  8
0
 10
27.9555
 20
-34
 11
27.9543
 21
-34.1388
  0
LINE
  8
0
 10
27.9543
 20
-34.1388
 11
27.9507
 21
-34.2776
  0
LINE
  8
0
 10
27.9507
 20
-34.2776
 11
27.9446
 21
-34.4164
  0
LINE
  8
0
 10
27.9446
 20
-34.4164
 11
27.9361
 21
-34.5549
  0
LINE
  8
0
 10
27.9361
 20
-34.5549
 11
27.9252
 21
-34.6934
  0
LINE
  8
0
 10
27.9252
 20
-34.6934
 11
27.9119
 21
-34.8316
  0
LINE
  8
0
 10
27.9119
 20
-34.8316
 11
27.8962
 21
-34.9695
  0
LINE
  8
0
 10
27.8962
 20
-34.9695
 11
27.8781
 21
-35.1072
  0
LINE
  8
0
 10
27.8781
 20
-35.1072
 11
27.8575
 21
-35.2445
  0
LINE
  8
0
 10
27.8575
 20
-35.2445
 11
27.8346
 21
-35.3815
  0
LINE
  8
0
 10
27.8346
 20
-35.3815
 11
27.8093
 21
-35.518
  0
LINE
  8
0
 10
27.8093
 20
-35.518
 11
27.7816
 21
-35.654
  0
LINE
  8
0
 10
27.7816
 20
-35.654
 11
27.7516
 21
-35.7896
  0
LINE
  8
0
 10
27.7516
 20
-35.7896
 11
27.7192
 21
-35.9246
  0
LINE
  8
0
 10
27.7192
 20
-35.9246
 11
27.6844
 21
-36.059
  0
LINE
  8
0
 10
27.6844
 20
-36.059
 11
27.6473
 21
-36.1928
  0
LINE
  8
0
 10
27.6473
 20
-36.1928
 11
27.6079
 21
-36.326
  0
LINE
  8
0
 10
27.6079
 20
-36.326
 11
27.5661
 21
-36.4584
  0
LINE
  8
0
 10
27.5661
 20
-36.4584
 11
27.5221
 21
-36.5901
  0
LINE
  8
0
 10
27.5221
 20
-36.5901
 11
27.4757
 21
-36.7209
  0
LINE
  8
0
 10
27.4757
 20
-36.7209
 11
27.4271
 21
-36.851
  0
LINE
  8
0
 10
27.4271
 20
-36.851
 11
27.3762
 21
-36.9802
  0
LINE
  8
0
 10
27.3762
 20
-36.9802
 11
27.3231
 21
-37.1085
  0
LINE
  8
0
 10
27.3231
 20
-37.1085
 11
27.2677
 21
-37.2358
  0
LINE
  8
0
 10
27.2677
 20
-37.2358
 11
27.2101
 21
-37.3621
  0
LINE
  8
0
 10
27.2101
 20
-37.3621
 11
27.1503
 21
-37.4875
  0
LINE
  8
0
 10
27.1503
 20
-37.4875
 11
27.0884
 21
-37.6117
  0
LINE
  8
0
 10
27.0884
 20
-37.6117
 11
27.0243
 21
-37.7349
  0
LINE
  8
0
 10
27.0243
 20
-37.7349
 11
26.958
 21
-37.8569
  0
LINE
  8
0
 10
26.958
 20
-37.8569
 11
26.8897
 21
-37.9777
  0
LINE
  8
0
 10
26.8897
 20
-37.9777
 11
26.8192
 21
-38.0974
  0
LINE
  8
0
 10
26.8192
 20
-38.0974
 11
26.7466
 21
-38.2158
  0
LINE
  8
0
 10
26.7466
 20
-38.2158
 11
26.672
 21
-38.3329
  0
LINE
  8
0
 10
26.672
 20
-38.3329
 11
26.5954
 21
-38.4487
  0
LINE
  8
0
 10
26.5954
 20
-38.4487
 11
26.5168
 21
-38.5631
  0
LINE
  8
0
 10
26.5168
 20
-38.5631
 11
26.4361
 21
-38.6761
  0
LINE
  8
0
 10
26.4361
 20
-38.6761
 11
26.3535
 21
-38.7877
  0
LINE
  8
0
 10
26.3535
 20
-38.7877
 11
26.269
 21
-38.8979
  0
LINE
  8
0
 10
26.269
 20
-38.8979
 11
26.1826
 21
-39.0065
  0
LINE
  8
0
 10
26.1826
 20
-39.0065
 11
26.0943
 21
-39.1137
  0
LINE
  8
0
 10
26.0943
 20
-39.1137
 11
26.0041
 21
-39.2193
  0
LINE
  8
0
 10
26.0041
 20
-39.2193
 11
25.9121
 21
-39.3233
  0
LINE
  8
0
 10
25.9121
 20
-39.3233
 11
25.8183
 21
-39.4256
  0
LINE
  8
0
 10
25.8183
 20
-39.4256
 11
25.7227
 21
-39.5264
  0
LINE
  8
0
 10
25.7227
 20
-39.5264
 11
25.6254
 21
-39.6254
  0
LINE
  8
0
 10
25.6254
 20
-39.6254
 11
25.5264
 21
-39.7227
  0
LINE
  8
0
 10
25.5264
 20
-39.7227
 11
25.4256
 21
-39.8183
  0
LINE
  8
0
 10
25.4256
 20
-39.8183
 11
25.3233
 21
-39.9121
  0
LINE
  8
0
 10
25.3233
 20
-39.9121
 11
25.2193
 21
-40.0041
  0
LINE
  8
0
 10
25.2193
 20
-40.0041
 11
25.1137
 21
-40.0943
  0
LINE
  8
0
 10
25.1137
 20
-40.0943
 11
25.0065
 21
-40.1826
  0
LINE
  8
0
 10
25.0065
 20
-40.1826
 11
24.8979
 21
-40.269
  0
LINE
  8
0
 10
24.8979
 20
-40.269
 11
24.7877
 21
-40.3535
  0
LINE
  8
0
 10
24.7877
 20
-40.3535
 11
24.6761
 21
-40.4361
  0
LINE
  8
0
 10
24.6761
 20
-40.4361
 11
24.5631
 21
-40.5168
  0
LINE
  8
0
 10
24.5631
 20
-40.5168
 11
24.4487
 21
-40.5954
  0
LINE
  8
0
 10
24.4487
 20
-40.5954
 11
24.3329
 21
-40.672
  0
LINE
  8
0
 10
24.3329
 20
-40.672
 11
24.2158
 21
-40.7466
  0
LINE
  8
0
 10
24.2158
 20
-40.7466
 11
24.0974
 21
-40.8192
  0
LINE
  8
0
 10
24.0974
 20
-40.8192
 11
23.9777
 21
-40.8897
  0
LINE
  8
0
 10
23.9777
 20
-40.8897
 11
23.8569
 21
-40.958
  0
LINE
  8
0
 10
23.8569
 20
-40.958
 11
23.7349
 21
-41.0243
  0
LINE
  8
0
 10
23.7349
 20
-41.0243
 11
23.6117
 21
-41.0884
  0
LINE
  8
0
 10
23.6117
 20
-41.0884
 11
23.4875
 21
-41.1503
  0
LINE
  8
0
 10
23.4875
 20
-41.1503
 11
23.3621
 21
-41.2101
  0
LINE
  8
0
 10
23.3621
 20
-41.2101
 11
23.2358
 21
-41.2677
  0
LINE
  8
0
 10
23.2358
 20
-41.2677
 11
23.1085
 21
-41.3231
  0
LINE
  8
0
 10
23.1085
 20
-41.3231
 11
22.9802
 21
-41.3762
  0
LINE
  8
0
 10
22.9802
 20
-41.3762
 11
22.851
 21
-41.4271
  0
LINE
  8
0
 10
22.851
 20
-41.4271
 11
22.7209
 21
-41.4757
  0
LINE
  8
0
 10
22.7209
 20
-41.4757
 11
22.5901
 21
-41.5221
  0
LINE
  8
0
 10
22.5901
 20
-41.5221
 11
22.4584
 21
-41.5661
  0
LINE
  8
0
 10
22.4584
 20
-41.5661
 11
22.326
 21
-41.6079
  0
LINE
  8
0
 10
22.326
 20
-41.6079
 11
22.1928
 21
-41.6473
  0
LINE
  8
0
 10
22.1928
 20
-41.6473
 11
22.059
 21
-41.6844
  0
LINE
  8
0
 10
22.059
 20
-41.6844
 11
21.9246
 21
-41.7192
  0
LINE
  8
0
 10
21.9246
 20
-41.7192
 11
21.7896
 21
-41.7516
  0
LINE
  8
0
 10
21.7896
 20
-41.7516
 11
21.654
 21
-41.7816
  0
LINE
  8
0
 10
21.654
 20
-41.7816
 11
21.518
 21
-41.8093
  0
LINE
  8
0
 10
21.518
 20
-41.8093
 11
21.3815
 21
-41.8346
  0
LINE
  8
0
 10
21.3815
 20
-41.8346
 11
21.2445
 21
-41.8575
  0
LINE
  8
0
 10
21.2445
 20
-41.8575
 11
21.1072
 21
-41.8781
  0
LINE
  8
0
 10
21.1072
 20
-41.8781
 11
20.9695
 21
-41.8962
  0
LINE
  8
0
 10
20.9695
 20
-41.8962
 11
20.8316
 21
-41.9119
  0
LINE
  8
0
 10
20.8316
 20
-41.9119
 11
20.6934
 21
-41.9252
  0
LINE
  8
0
 10
20.6934
 20
-41.9252
 11
20.5549
 21
-41.9361
  0
LINE
  8
0
 10
20.5549
 20
-41.9361
 11
20.4164
 21
-41.9446
  0
LINE
  8
0
 10
20.4164
 20
-41.9446
 11
20.2776
 21
-41.9507
  0
LINE
  8
0
 10
20.2776
 20
-41.9507
 11
20.1388
 21
-41.9543
  0
LINE
  8
0
 10
20.1388
 20
-41.9543
 11
20
 21
-41.9555
  0
LINE
  8
0
 10
20
 20
-41.9555
 11
19.8612
 21
-41.9543
  0
ENDSEC
  0
SECTION
  2
OBJECTS
  0
DICTIONARY
  0
ENDSEC
  0
EOF
