<?xml version="1.0" standalone="no"?>
<!DOCTYPE svg PUBLIC "-//W3C//DTD SVG 1.1//EN" "http://www.w3.org/Graphics/SVG/1.1/DTD/svg11.dtd">
<svg width="98mm" height="66mm" viewBox="-49 -16 98 66" xmlns="http://www.w3.org/2000/svg" version="1.1">
<title>OpenSCAD Model</title>
<path d="
M 40.4395,40.98 L 45.01,40.98 L 45.0706,40.9795 L 45.1311,40.9779 L 45.1916,40.9752 L 45.252,40.9715
 L 45.3124,40.9668 L 45.3727,40.961 L 45.4329,40.9541 L 45.4929,40.9462 L 45.5528,40.9373 L 45.6125,40.9273
 L 45.6721,40.9162 L 45.7314,40.9042 L 45.7906,40.8911 L 45.8495,40.8769 L 45.9081,40.8618 L 45.9665,40.8456
 L 46.0245,40.8284 L 46.0823,40.8102 L 46.1397,40.7909 L 46.1968,40.7707 L 46.2535,40.7495 L 46.3099,40.7273
 L 46.3658,40.7041 L 46.4214,40.68 L 46.4765,40.6549 L 46.5311,40.6288 L 46.5853,40.6018 L 46.6391,40.5738
 L 46.6923,40.5449 L 46.745,40.5151 L 46.7972,40.4844 L 46.8488,40.4527 L 46.8999,40.4202 L 46.9504,40.3867
 L 47.0003,40.3524 L 47.0496,40.3173 L 47.0983,40.2812 L 47.1463,40.2444 L 47.1937,40.2067 L 47.2405,40.1682
 L 47.2865,40.1288 L 47.3319,40.0887 L 47.3765,40.0478 L 47.4205,40.0061 L 47.4637,39.9637 L 47.5061,39.9205
 L 47.5478,39.8765 L 47.5887,39.8319 L 47.6288,39.7865 L 47.6682,39.7405 L 47.7067,39.6937 L 47.7444,39.6463
 L 47.7812,39.5983 L 47.8173,39.5496 L 47.8524,39.5003 L 47.8867,39.4504 L 47.9202,39.3999 L 47.9527,39.3488
 L 47.9844,39.2972 L 48.0151,39.245 L 48.0449,39.1923 L 48.0738,39.1391 L 48.1018,39.0853 L 48.1288,39.0311
 L 48.1549,38.9765 L 48.18,38.9214 L 48.2041,38.8658 L 48.2273,38.8099 L 48.2495,38.7535 L 48.2707,38.6968
 L 48.2909,38.6397 L 48.3102,38.5823 L 48.3284,38.5245 L 48.3456,38.4665 L 48.3618,38.4081 L 48.3769,38.3495
 L 48.3911,38.2906 L 48.4042,38.2314 L 48.4162,38.1721 L 48.4273,38.1125 L 48.4373,38.0528 L 48.4462,37.9929
 L 48.4541,37.9329 L 48.461,37.8727 L 48.4668,37.8124 L 48.4715,37.752 L 48.4752,37.6916 L 48.4779,37.6311
 L 48.4795,37.5706 L 48.48,37.51 L 48.48,11.51 L 48.4799,11.51 L 48.48,11.5 L 48.4795,11.4394
 L 48.4779,11.3789 L 48.4752,11.3184 L 48.4715,11.2579 L 48.4668,11.1976 L 48.461,11.1373 L 48.4541,11.0771
 L 48.4462,11.0171 L 48.4373,10.9572 L 48.4273,10.8974 L 48.4162,10.8379 L 48.4042,10.7785 L 48.3911,10.7194
 L 48.3769,10.6605 L 48.3618,10.6019 L 48.3456,10.5435 L 48.3284,10.4855 L 48.3102,10.4277 L 48.2909,10.3703
 L 48.2707,10.3132 L 48.2495,10.2565 L 48.2273,10.2001 L 48.2041,10.1441 L 48.18,10.0886 L 48.1549,10.0335
 L 48.1288,9.97885 L 48.1018,9.92465 L 48.0738,9.87093 L 48.0449,9.8177 L 48.0151,9.765 L 47.9844,9.71281
 L 47.9527,9.66118 L 47.9202,9.61009 L 47.8867,9.55959 L 47.8524,9.50969 L 47.8173,9.46037 L 47.7812,9.4117
 L 47.7444,9.36365 L 47.7067,9.31625 L 47.6682,9.26952 L 47.6288,9.22346 L 47.5887,9.17812 L 47.5478,9.13345
 L 47.5061,9.08952 L 47.4637,9.04633 L 47.4205,9.00388 L 47.3765,8.96219 L 47.3319,8.92128 L 47.2865,8.88115
 L 47.2405,8.84181 L 47.1937,8.8033 L 47.1463,8.76559 L 47.0983,8.72873 L 47.0496,8.6927 L 47.0003,8.65753
 L 46.9504,8.62323 L 46.8999,8.5898 L 46.8488,8.55727 L 46.7972,8.52562 L 46.745,8.49489 L 46.6923,8.46506
 L 46.6391,8.43616 L 46.5853,8.4082 L 46.5311,8.38118 L 46.4765,8.3551 L 46.4214,8.32999 L 46.3658,8.30585
 L 46.3099,8.28267 L 46.2535,8.26047 L 46.1968,8.23926 L 46.1394,8.21895 L 46.14,8.215 L 46.0705,8.19611
 L 46.0245,8.18161 L 45.9665,8.16441 L 45.9081,8.14822 L 45.8495,8.13307 L 45.7906,8.11893 L 45.7681,8.11394
 L 15.9055,-0 L 15.9031,-0.277588 L 15.8958,-0.555084 L 15.8837,-0.832428 L 15.8667,-1.1095 L 15.845,-1.38625
 L 15.8184,-1.66257 L 15.7869,-1.93839 L 15.7507,-2.21361 L 15.7097,-2.48816 L 15.6638,-2.76195 L 15.6133,-3.03491
 L 15.5579,-3.30693 L 15.4978,-3.57796 L 15.433,-3.84789 L 15.3635,-4.11664 L 15.2893,-4.38414 L 15.2105,-4.65031
 L 15.127,-4.91507 L 15.0389,-5.17831 L 14.9463,-5.43999 L 14.8491,-5.70001 L 14.7473,-5.9583 L 14.6411,-6.21477
 L 14.5304,-6.46935 L 14.4153,-6.72195 L 14.2958,-6.9725 L 14.1719,-7.22093 L 14.0437,-7.46718 L 13.9113,-7.71114
 L 13.7746,-7.95274 L 13.6337,-8.19193 L 13.4886,-8.42862 L 13.3395,-8.66275 L 13.1862,-8.89424 L 13.029,-9.12302
 L 12.8678,-9.34901 L 12.7027,-9.57216 L 12.5337,-9.79239 L 12.3609,-10.0096 L 12.1843,-10.2238 L 12.004,-10.4349
 L 11.8201,-10.6429 L 11.6325,-10.8475 L 11.4415,-11.0489 L 11.2469,-11.2469 L 11.0489,-11.4415 L 10.8475,-11.6325
 L 10.6429,-11.8201 L 10.4349,-12.004 L 10.2238,-12.1843 L 10.0096,-12.3609 L 9.79239,-12.5337 L 9.57216,-12.7027
 L 9.34901,-12.8678 L 9.12302,-13.029 L 8.89424,-13.1862 L 8.66275,-13.3395 L 8.42862,-13.4886 L 8.19193,-13.6337
 L 7.95274,-13.7746 L 7.71114,-13.9113 L 7.46718,-14.0437 L 7.22093,-14.1719 L 6.9725,-14.2958 L 6.72195,-14.4153
 L 6.46935,-14.5304 L 6.21477,-14.6411 L 5.9583,-14.7473 L 5.70001,-14.8491 L 5.43999,-14.9463 L 5.17831,-15.0389
 L 4.91507,-15.127 L 4.65031,-15.2105 L 4.38414,-15.2893 L 4.11664,-15.3635 L 3.84789,-15.433 L 3.57796,-15.4978
 L 3.30693,-15.5579 L 3.03491,-15.6133 L 2.76195,-15.6638 L 2.48816,-15.7097 L 2.21361,-15.7507 L 1.93839,-15.7869
 L 1.66257,-15.8184 L 1.38625,-15.845 L 1.1095,-15.8667 L 0.832428,-15.8837 L 0.555084,-15.8958 L 0.277588,-15.9031
 L 0,-15.9055 L -0.277588,-15.9031 L -0.555084,-15.8958 L -0.832428,-15.8837 L -1.1095,-15.8667 L -1.38625,-15.845
 L -1.66257,-15.8184 L -1.93839,-15.7869 L -2.21361,-15.7507 L -2.48816,-15.7097 L -2.76195,-15.6638 L -3.03491,-15.6133
 L -3.30693,-15.5579 L -3.57796,-15.4978 L -3.84789,-15.433 L -4.11664,-15.3635 L -4.38414,-15.2893 L -4.65031,-15.2105
 L -4.91507,-15.127 L -5.17831,-15.0389 L -5.43999,-14.9463 L -5.70001,-14.8491 L -5.9583,-14.7473 L -6.21477,-14.6411
 L -6.46935,-14.5304 L -6.72195,-14.4153 L -6.9725,-14.2958 L -7.22093,-14.1719 L -7.46718,-14.0437 L -7.71114,-13.9113
 L -7.95274,-13.7746 L -8.19193,-13.6337 L -8.42862,-13.4886 L -8.66275,-13.3395 L -8.89424,-13.1862 L -9.12302,-13.029
 L -9.34901,-12.8678 L -9.57216,-12.7027 L -9.79239,-12.5337 L -10.0096,-12.3609 L -10.2238,-12.1843 L -10.4349,-12.004
 L -10.6429,-11.8201 L -10.8475,-11.6325 L -11.0489,-11.4415 L -11.2469,-11.2469 L -11.4415,-11.0489 L -11.6325,-10.8475
 L -11.8201,-10.6429 L -12.004,-10.4349 L -12.1843,-10.2238 L -12.3609,-10.0096 L -12.5337,-9.79239 L -12.7027,-9.57216
 L -12.8678,-9.34901 L -13.029,-9.12302 L -13.1862,-8.89424 L -13.3395,-8.66275 L -13.4886,-8.42862 L -13.6337,-8.19193
 L -13.7746,-7.95274 L -13.9113,-7.71114 L -14.0437,-7.46718 L -14.1719,-7.22093 L -14.2958,-6.9725 L -14.4153,-6.72195
 L -14.5304,-6.46935 L -14.6411,-6.21477 L -14.7473,-5.9583 L -14.8491,-5.70001 L -14.9463,-5.43999 L -15.0389,-5.17831
 L -15.127,-4.91507 L -15.2105,-4.65031 L -15.2893,-4.38414 L -15.3635,-4.11664 L -15.433,-3.84789 L -15.4978,-3.57796
 L -15.5579,-3.30693 L -15.6133,-3.03491 L -15.6638,-2.76195 L -15.7097,-2.48816 L -15.7507,-2.21361 L -15.7869,-1.93839
 L -15.8184,-1.66257 L -15.845,-1.38625 L -15.8667,-1.1095 L -15.8837,-0.832428 L -15.8958,-0.555084 L -15.9031,-0.277588
 L -15.9055,-0 L -45.7681,8.11394 L -45.7906,8.11893 L -45.8495,8.13307 L -45.9081,8.14822 L -45.9665,8.16441
 L -46.0245,8.18161 L -46.0705,8.19611 L -46.14,8.215 L -46.1394,8.21895 L -46.1968,8.23926 L -46.2535,8.26047
 L -46.3099,8.28267 L -46.3658,8.30585 L -46.4214,8.32999 L -46.4765,8.3551 L -46.5311,8.38118 L -46.5853,8.4082
 L -46.6391,8.43616 L -46.6923,8.46506 L -46.745,8.49489 L -46.7972,8.52562 L -46.8488,8.55727 L -46.8999,8.5898
 L -46.9504,8.62323 L -47.0003,8.65753 L -47.0496,8.6927 L -47.0983,8.72873 L -47.1463,8.76559 L -47.1937,8.8033
 L -47.2405,8.84181 L -47.2865,8.88115 L -47.3319,8.92128 L -47.3765,8.96219 L -47.4205,9.00388 L -47.4637,9.04633
 L -47.5061,9.08952 L -47.5478,9.13345 L -47.5887,9.17812 L -47.6288,9.22346 L -47.6682,9.26952 L -47.7067,9.31625
 L -47.7444,9.36365 L -47.7812,9.4117 L -47.8173,9.46037 L -47.8524,9.50969 L -47.8867,9.55959 L -47.9202,9.61009
 L -47.9527,9.66118 L -47.9844,9.71281 L -48.0151,9.765 L -48.0449,9.8177 L -48.0738,9.87093 L -48.1018,9.92465
 L -48.1288,9.97885 L -48.1549,10.0335 L -48.18,10.0886 L -48.2041,10.1441 L -48.2273,10.2001 L -48.2495,10.2565
 L -48.2707,10.3132 L -48.2909,10.3703 L -48.3102,10.4277 L -48.3284,10.4855 L -48.3456,10.5435 L -48.3618,10.6019
 L -48.3769,10.6605 L -48.3911,10.7194 L -48.4042,10.7785 L -48.4162,10.8379 L -48.4273,10.8974 L -48.4373,10.9572
 L -48.4462,11.0171 L -48.4541,11.0771 L -48.461,11.1373 L -48.4668,11.1976 L -48.4715,11.2579 L -48.4752,11.3184
 L -48.4779,11.3789 L -48.4795,11.4394 L -48.48,11.5 L -48.4799,11.51 L -48.48,11.51 L -48.48,37.51
 L -48.4795,37.5706 L -48.4779,37.6311 L -48.4752,37.6916 L -48.4715,37.752 L -48.4668,37.8124 L -48.461,37.8727
 L -48.4541,37.9329 L -48.4462,37.9929 L -48.4373,38.0528 L -48.4273,38.1125 L -48.4162,38.1721 L -48.4042,38.2314
 L -48.3911,38.2906 L -48.3769,38.3495 L -48.3618,38.4081 L -48.3456,38.4665 L -48.3284,38.5245 L -48.3102,38.5823
 L -48.2909,38.6397 L -48.2707,38.6968 L -48.2495,38.7535 L -48.2273,38.8099 L -48.2041,38.8658 L -48.18,38.9214
 L -48.1549,38.9765 L -48.1288,39.0311 L -48.1018,39.0853 L -48.0738,39.1391 L -48.0449,39.1923 L -48.0151,39.245
 L -47.9844,39.2972 L -47.9527,39.3488 L -47.9202,39.3999 L -47.8867,39.4504 L -47.8524,39.5003 L -47.8173,39.5496
 L -47.7812,39.5983 L -47.7444,39.6463 L -47.7067,39.6937 L -47.6682,39.7405 L -47.6288,39.7865 L -47.5887,39.8319
 L -47.5478,39.8765 L -47.5061,39.9205 L -47.4637,39.9637 L -47.4205,40.0061 L -47.3765,40.0478 L -47.3319,40.0887
 L -47.2865,40.1288 L -47.2405,40.1682 L -47.1937,40.2067 L -47.1463,40.2444 L -47.0983,40.2812 L -47.0496,40.3173
 L -47.0003,40.3524 L -46.9504,40.3867 L -46.8999,40.4202 L -46.8488,40.4527 L -46.7972,40.4844 L -46.745,40.5151
 L -46.6923,40.5449 L -46.6391,40.5738 L -46.5853,40.6018 L -46.5311,40.6288 L -46.4765,40.6549 L -46.4214,40.68
 L -46.3658,40.7041 L -46.3099,40.7273 L -46.2535,40.7495 L -46.1968,40.7707 L -46.1397,40.7909 L -46.0823,40.8102
 L -46.0245,40.8284 L -45.9665,40.8456 L -45.9081,40.8618 L -45.8495,40.8769 L -45.7906,40.8911 L -45.7314,40.9042
 L -45.6721,40.9162 L -45.6125,40.9273 L -45.5528,40.9373 L -45.4929,40.9462 L -45.4329,40.9541 L -45.3727,40.961
 L -45.3124,40.9668 L -45.252,40.9715 L -45.1916,40.9752 L -45.1311,40.9779 L -45.0706,40.9795 L -45.01,40.98
 L -40.4395,40.98 L -40.4395,40.9928 L -40.4323,40.98 L -40.43,40.98 L -40.43,40.976 L -40.3061,40.7569
 L -40.1728,40.5115 L -40.0439,40.2638 L -39.9193,40.0139 L -39.7991,39.7619 L -39.6833,39.5078 L -39.5719,39.2517
 L -39.4651,38.9937 L -39.3627,38.7339 L -39.2649,38.4723 L -39.1717,38.2091 L -39.0831,37.9443 L -38.9991,37.6779
 L -38.9198,37.4102 L -38.8452,37.1411 L -38.7753,36.8707 L -38.7101,36.5992 L -38.6496,36.3266 L -38.594,36.0529
 L -38.5431,35.7784 L -38.497,35.5029 L -38.4557,35.2268 L -38.4193,34.9499 L -38.3876,34.6725 L -38.3609,34.3945
 L -38.339,34.1161 L -38.3219,33.8374 L -38.3097,33.5584 L -38.3024,33.2792 L -38.3,33 L -38.3024,32.7207
 L -38.3097,32.4416 L -38.3219,32.1626 L -38.339,31.8839 L -38.3609,31.6055 L -38.3876,31.3275 L -38.4193,31.0501
 L -38.4557,30.7732 L -38.497,30.497 L -38.5431,30.2216 L -38.594,29.9471 L -38.6496,29.6734 L -38.7101,29.4008
 L -38.7753,29.1292 L -38.8452,28.8589 L -38.9198,28.5898 L -38.9991,28.3221 L -39.0831,28.0557 L -39.1717,27.7909
 L -39.2649,27.5277 L -39.3627,27.2661 L -39.4651,27.0063 L -39.5719,26.7483 L -39.6833,26.4922 L -39.7991,26.2381
 L -39.9193,25.9861 L -40.0439,25.7361 L -40.1728,25.4884 L -40.3061,25.243 L -40.43,25.024 L -40.43,15.9055
 L 40.43,15.9055 L 40.43,25.024 L 40.3061,25.243 L 40.1728,25.4884 L 40.0439,25.7361 L 39.9193,25.9861
 L 39.7991,26.2381 L 39.6833,26.4922 L 39.5719,26.7483 L 39.4651,27.0063 L 39.3627,27.2661 L 39.2649,27.5277
 L 39.1717,27.7909 L 39.0831,28.0557 L 38.9991,28.3221 L 38.9198,28.5898 L 38.8452,28.8589 L 38.7753,29.1292
 L 38.7101,29.4008 L 38.6496,29.6734 L 38.594,29.9471 L 38.5431,30.2216 L 38.497,30.497 L 38.4557,30.7732
 L 38.4193,31.0501 L 38.3876,31.3275 L 38.3609,31.6055 L 38.339,31.8839 L 38.3219,32.1626 L 38.3097,32.4416
 L 38.3024,32.7207 L 38.3,33 L 38.3024,33.2792 L 38.3097,33.5584 L 38.3219,33.8374 L 38.339,34.1161
 L 38.3609,34.3945 L 38.3876,34.6725 L 38.4193,34.9499 L 38.4557,35.2268 L 38.497,35.5029 L 38.5431,35.7784
 L 38.594,36.0529 L 38.6496,36.3266 L 38.7101,36.5992 L 38.7753,36.8707 L 38.8452,37.1411 L 38.9198,37.4102
 L 38.9991,37.6779 L 39.0831,37.9443 L 39.1717,38.2091 L 39.2649,38.4723 L 39.3627,38.7339 L 39.4651,38.9937
 L 39.5719,39.2517 L 39.6833,39.5078 L 39.7991,39.7619 L 39.9193,40.0139 L 40.0439,40.2638 L 40.1728,40.5115
 L 40.3061,40.7569 L 40.43,40.976 L 40.43,40.98 L 40.4323,40.98 L 40.4395,40.9928 z
M -0.13884,7.95428 L -0.277634,7.95065 L -0.416351,7.9446 L -0.554947,7.93611 L -0.693359,7.92522 L -0.831573,7.91191
 L -0.969528,7.89619 L -1.10718,7.87807 L -1.24451,7.85754 L -1.38145,7.83463 L -1.51797,7.80933 L -1.65404,7.78165
 L -1.7896,7.75159 L -1.92461,7.71918 L -2.05902,7.68442 L -2.19283,7.64731 L -2.32596,7.60788 L -2.45837,7.56612
 L -2.59006,7.52206 L -2.72093,7.47572 L -2.85098,7.42709 L -2.98018,7.37621 L -3.10846,7.32307 L -3.23578,7.2677
 L -3.36214,7.21013 L -3.48746,7.15034 L -3.61171,7.08839 L -3.73488,7.02428 L -3.85689,6.95802 L -3.97774,6.88966
 L -4.09738,6.81918 L -4.21576,6.74664 L -4.33287,6.67204 L -4.44865,6.5954 L -4.56308,6.51675 L -4.67612,6.43613
 L -4.78773,6.35353 L -4.89789,6.26901 L -5.00655,6.18257 L -5.11369,6.09425 L -5.21927,6.00409 L -5.32326,5.91208
 L -5.42563,5.81828 L -5.52635,5.7227 L -5.62538,5.62538 L -5.7227,5.52635 L -5.81828,5.42563 L -5.91208,5.32326
 L -6.00409,5.21927 L -6.09425,5.11369 L -6.18257,5.00655 L -6.26901,4.89789 L -6.35353,4.78773 L -6.43613,4.67612
 L -6.51675,4.56308 L -6.5954,4.44865 L -6.67204,4.33287 L -6.74664,4.21576 L -6.81918,4.09738 L -6.88966,3.97774
 L -6.95802,3.85689 L -7.02428,3.73488 L -7.08839,3.61171 L -7.15034,3.48746 L -7.21013,3.36214 L -7.2677,3.23578
 L -7.32307,3.10846 L -7.37621,2.98018 L -7.42709,2.85098 L -7.47572,2.72093 L -7.52206,2.59006 L -7.56612,2.45837
 L -7.60788,2.32596 L -7.64731,2.19283 L -7.68442,2.05902 L -7.71918,1.92461 L -7.75159,1.7896 L -7.78165,1.65404
 L -7.80933,1.51797 L -7.83463,1.38145 L -7.85754,1.24451 L -7.87807,1.10718 L -7.89619,0.969528 L -7.91191,0.831573
 L -7.92522,0.693359 L -7.93611,0.554947 L -7.9446,0.416351 L -7.95065,0.277634 L -7.95428,0.13884 L -7.95549,-0
 L -7.95428,-0.13884 L -7.95065,-0.277634 L -7.9446,-0.416351 L -7.93611,-0.554947 L -7.92522,-0.693359 L -7.91191,-0.831573
 L -7.89619,-0.969528 L -7.87807,-1.10718 L -7.85754,-1.24451 L -7.83463,-1.38145 L -7.80933,-1.51797 L -7.78165,-1.65404
 L -7.75159,-1.7896 L -7.71918,-1.92461 L -7.68442,-2.05902 L -7.64731,-2.19283 L -7.60788,-2.32596 L -7.56612,-2.45837
 L -7.52206,-2.59006 L -7.47572,-2.72093 L -7.42709,-2.85098 L -7.37621,-2.98018 L -7.32307,-3.10846 L -7.2677,-3.23578
 L -7.21013,-3.36214 L -7.15034,-3.48746 L -7.08839,-3.61171 L -7.02428,-3.73488 L -6.95802,-3.85689 L -6.88966,-3.97774
 L -6.81918,-4.09738 L -6.74664,-4.21576 L -6.67204,-4.33287 L -6.5954,-4.44865 L -6.51675,-4.56308 L -6.43613,-4.67612
 L -6.35353,-4.78773 L -6.26901,-4.89789 L -6.18257,-5.00655 L -6.09425,-5.11369 L -6.00409,-5.21927 L -5.91208,-5.32326
 L -5.81828,-5.42563 L -5.7227,-5.52635 L -5.62538,-5.62538 L -5.52635,-5.7227 L -5.42563,-5.81828 L -5.32326,-5.91208
 L -5.21927,-6.00409 L -5.11369,-6.09425 L -5.00655,-6.18257 L -4.89789,-6.26901 L -4.78773,-6.35353 L -4.67612,-6.43613
 L -4.56308,-6.51675 L -4.44865,-6.5954 L -4.33287,-6.67204 L -4.21576,-6.74664 L -4.09738,-6.81918 L -3.97774,-6.88966
 L -3.85689,-6.95802 L -3.73488,-7.02428 L -3.61171,-7.08839 L -3.48746,-7.15034 L -3.36214,-7.21013 L -3.23578,-7.2677
 L -3.10846,-7.32307 L -2.98018,-7.37621 L -2.85098,-7.42709 L -2.72093,-7.47572 L -2.59006,-7.52206 L -2.45837,-7.56612
 L -2.32596,-7.60788 L -2.19283,-7.64731 L -2.05902,-7.68442 L -1.92461,-7.71918 L -1.7896,-7.75159 L -1.65404,-7.78165
 L -1.51797,-7.80933 L -1.38145,-7.83463 L -1.24451,-7.85754 L -1.10718,-7.87807 L -0.969528,-7.89619 L -0.831573,-7.91191
 L -0.693359,-7.92522 L -0.554947,-7.93611 L -0.416351,-7.9446 L -0.277634,-7.95065 L -0.13884,-7.95428 L 0,-7.95549
 L 0.13884,-7.95428 L 0.277634,-7.95065 L 0.416351,-7.9446 L 0.554947,-7.93611 L 0.693359,-7.92522 L 0.831573,-7.91191
 L 0.969528,-7.89619 L 1.10718,-7.87807 L 1.24451,-7.85754 L 1.38145,-7.83463 L 1.51797,-7.80933 L 1.65404,-7.78165
 L 1.7896,-7.75159 L 1.92461,-7.71918 L 2.05902,-7.68442 L 2.19283,-7.64731 L 2.32596,-7.60788 L 2.45837,-7.56612
 L 2.59006,-7.52206 L 2.72093,-7.47572 L 2.85098,-7.42709 L 2.98018,-7.37621 L 3.10846,-7.32307 L 3.23578,-7.2677
 L 3.36214,-7.21013 L 3.48746,-7.15034 L 3.61171,-7.08839 L 3.73488,-7.02428 L 3.85689,-6.95802 L 3.97774,-6.88966
 L 4.09738,-6.81918 L 4.21576,-6.74664 L 4.33287,-6.67204 L 4.44865,-6.5954 L 4.56308,-6.51675 L 4.67612,-6.43613
 L 4.78773,-6.35353 L 4.89789,-6.26901 L 5.00655,-6.18257 L 5.11369,-6.09425 L 5.21927,-6.00409 L 5.32326,-5.91208
 L 5.42563,-5.81828 L 5.52635,-5.7227 L 5.62538,-5.62538 L 5.7227,-5.52635 L 5.81828,-5.42563 L 5.91208,-5.32326
 L 6.00409,-5.21927 L 6.09425,-5.11369 L 6.18257,-5.00655 L 6.26901,-4.89789 L 6.35353,-4.78773 L 6.43613,-4.67612
 L 6.51675,-4.56308 L 6.5954,-4.44865 L 6.67204,-4.33287 L 6.74664,-4.21576 L 6.81918,-4.09738 L 6.88966,-3.97774
 L 6.95802,-3.85689 L 7.02428,-3.73488 L 7.08839,-3.61171 L 7.15034,-3.48746 L 7.21013,-3.36214 L 7.2677,-3.23578
 L 7.32307,-3.10846 L 7.37621,-2.98018 L 7.42709,-2.85098 L 7.47572,-2.72093 L 7.52206,-2.59006 L 7.56612,-2.45837
 L 7.60788,-2.32596 L 7.64731,-2.19283 L 7.68442,-2.05902 L 7.71918,-1.92461 L 7.75159,-1.7896 L 7.78165,-1.65404
 L 7.80933,-1.51797 L 7.83463,-1.38145 L 7.85754,-1.24451 L 7.87807,-1.10718 L 7.89619,-0.969528 L 7.91191,-0.831573
 L 7.92522,-0.693359 L 7.93611,-0.554947 L 7.9446,-0.416351 L 7.95065,-0.277634 L 7.95428,-0.13884 L 7.95549,-0
 L 7.95428,0.13884 L 7.95065,0.277634 L 7.9446,0.416351 L 7.93611,0.554947 L 7.92522,0.693359 L 7.91191,0.831573
 L 7.89619,0.969528 L 7.87807,1.10718 L 7.85754,1.24451 L 7.83463,1.38145 L 7.80933,1.51797 L 7.78165,1.65404
 L 7.75159,1.7896 L 7.71918,1.92461 L 7.68442,2.05902 L 7.64731,2.19283 L 7.60788,2.32596 L 7.56612,2.45837
 L 7.52206,2.59006 L 7.47572,2.72093 L 7.42709,2.85098 L 7.37621,2.98018 L 7.32307,3.10846 L 7.2677,3.23578
 L 7.21013,3.36214 L 7.15034,3.48746 L 7.08839,3.61171 L 7.02428,3.73488 L 6.95802,3.85689 L 6.88966,3.97774
 L 6.81918,4.09738 L 6.74664,4.21576 L 6.67204,4.33287 L 6.5954,4.44865 L 6.51675,4.56308 L 6.43613,4.67612
 L 6.35353,4.78773 L 6.26901,4.89789 L 6.18257,5.00655 L 6.09425,5.11369 L 6.00409,5.21927 L 5.91208,5.32326
 L 5.81828,5.42563 L 5.7227,5.52635 L 5.62538,5.62538 L 5.52635,5.7227 L 5.42563,5.81828 L 5.32326,5.91208
 L 5.21927,6.00409 L 5.11369,6.09425 L 5.00655,6.18257 L 4.89789,6.26901 L 4.78773,6.35353 L 4.67612,6.43613
 L 4.56308,6.51675 L 4.44865,6.5954 L 4.33287,6.67204 L 4.21576,6.74664 L 4.09738,6.81918 L 3.97774,6.88966
 L 3.85689,6.95802 L 3.73488,7.02428 L 3.61171,7.08839 L 3.48746,7.15034 L 3.36214,7.21013 L 3.23578,7.2677
 L 3.10846,7.32307 L 2.98018,7.37621 L 2.85098,7.42709 L 2.72093,7.47572 L 2.59006,7.52206 L 2.45837,7.56612
 L 2.32596,7.60788 L 2.19283,7.64731 L 2.05902,7.68442 L 1.92461,7.71918 L 1.7896,7.75159 L 1.65404,7.78165
 L 1.51797,7.80933 L 1.38145,7.83463 L 1.24451,7.85754 L 1.10718,7.87807 L 0.969528,7.89619 L 0.831573,7.91191
 L 0.693359,7.92522 L 0.554947,7.93611 L 0.416351,7.9446 L 0.277634,7.95065 L 0.13884,7.95428 L 0,7.95549
 z
M -19.7224,49.9031 L -19.4449,49.8958 L -19.1676,49.8837 L -18.8905,49.8667 L -18.6138,49.845 L -18.3374,49.8184
 L -18.0616,49.7869 L -17.7864,49.7507 L -17.5118,49.7097 L -17.2381,49.6638 L -16.9651,49.6133 L -16.6931,49.5579
 L -16.422,49.4978 L -16.1521,49.433 L -15.8834,49.3635 L -15.6159,49.2893 L -15.3497,49.2105 L -15.0849,49.127
 L -14.8217,49.0389 L -14.56,48.9463 L -14.3,48.8491 L -14.0417,48.7473 L -13.7852,48.6411 L -13.5307,48.5304
 L -13.278,48.4153 L -13.0275,48.2958 L -12.7791,48.1719 L -12.5328,48.0437 L -12.2889,47.9113 L -12.0473,47.7746
 L -11.8081,47.6337 L -11.5714,47.4886 L -11.3372,47.3395 L -11.1058,47.1862 L -10.877,47.029 L -10.651,46.8678
 L -10.4278,46.7027 L -10.2076,46.5337 L -9.99036,46.3609 L -9.77615,46.1843 L -9.56506,46.004 L -9.35715,45.8201
 L -9.15248,45.6325 L -8.95113,45.4415 L -8.75313,45.2469 L -8.55855,45.0489 L -8.36746,44.8475 L -8.17992,44.6429
 L -7.99597,44.4349 L -7.81569,44.2238 L -7.63911,44.0096 L -7.46631,43.7924 L -7.29732,43.5722 L -7.13219,43.349
 L -6.97098,43.123 L -6.81375,42.8942 L -6.66054,42.6628 L -6.51138,42.4286 L -6.36633,42.1919 L -6.22543,41.9527
 L -6.08875,41.7111 L -5.95628,41.4672 L -5.82811,41.2209 L -5.70424,40.9725 L -5.58473,40.722 L -5.4696,40.4693
 L -5.35892,40.2148 L -5.25269,39.9583 L -5.15094,39.7 L -5.05373,39.44 L -4.96106,39.1783 L -4.87297,38.9151
 L -4.78951,38.6503 L -4.71066,38.3841 L -4.63647,38.1166 L -4.56697,37.8479 L -4.50217,37.578 L -4.44208,37.3069
 L -4.38673,37.0349 L -4.33615,36.7619 L -4.29033,36.4882 L -4.2493,36.2136 L -4.21306,35.9384 L -4.18164,35.6626
 L -4.15503,35.3862 L -4.13326,35.1095 L -4.1163,34.8324 L -4.1042,34.5551 L -4.09692,34.2776 L -4.09451,34
 L -4.09692,33.7224 L -4.1042,33.4449 L -4.1163,33.1676 L -4.13326,32.8905 L -4.15503,32.6138 L -4.18164,32.3374
 L -4.21306,32.0616 L -4.2493,31.7864 L -4.29033,31.5118 L -4.33615,31.2381 L -4.38673,30.9651 L -4.44208,30.6931
 L -4.50217,30.422 L -4.56697,30.1521 L -4.63647,29.8834 L -4.71066,29.6159 L -4.78951,29.3497 L -4.87297,29.0849
 L -4.96106,28.8217 L -5.05373,28.56 L -5.15094,28.3 L -5.25269,28.0417 L -5.35892,27.7852 L -5.4696,27.5307
 L -5.58473,27.278 L -5.70424,27.0275 L -5.82811,26.7791 L -5.95628,26.5328 L -6.08875,26.2889 L -6.22543,26.0473
 L -6.36633,25.8081 L -6.51138,25.5714 L -6.66054,25.3372 L -6.81375,25.1058 L -6.97098,24.877 L -7.13219,24.651
 L -7.29732,24.4278 L -7.46631,24.2076 L -7.63911,23.9904 L -7.81569,23.7762 L -7.99597,23.5651 L -8.17992,23.3571
 L -8.36746,23.1525 L -8.55855,22.9511 L -8.75313,22.7531 L -8.95113,22.5585 L -9.15248,22.3675 L -9.35715,22.1799
 L -9.56506,21.996 L -9.77615,21.8157 L -9.99036,21.6391 L -10.2076,21.4663 L -10.4278,21.2973 L -10.651,21.1322
 L -10.877,20.971 L -11.1058,20.8138 L -11.3372,20.6605 L -11.5714,20.5114 L -11.8081,20.3663 L -12.0473,20.2254
 L -12.2889,20.0887 L -12.5328,19.9563 L -12.7791,19.8281 L -13.0275,19.7042 L -13.278,19.5847 L -13.5307,19.4696
 L -13.7852,19.3589 L -14.0417,19.2527 L -14.3,19.1509 L -14.56,19.0537 L -14.8217,18.9611 L -15.0849,18.873
 L -15.3497,18.7895 L -15.6159,18.7107 L -15.8834,18.6365 L -16.1521,18.567 L -16.422,18.5022 L -16.6931,18.4421
 L -16.9651,18.3867 L -17.2381,18.3362 L -17.5118,18.2903 L -17.7864,18.2493 L -18.0616,18.2131 L -18.3374,18.1816
 L -18.6138,18.155 L -18.8905,18.1333 L -19.1676,18.1163 L -19.4449,18.1042 L -19.7224,18.0969 L -20,18.0945
 L -20.2776,18.0969 L -20.5551,18.1042 L -20.8324,18.1163 L -21.1095,18.1333 L -21.3862,18.155 L -21.6626,18.1816
 L -21.9384,18.2131 L -22.2136,18.2493 L -22.4882,18.2903 L -22.7619,18.3362 L -23.0349,18.3867 L -23.3069,18.4421
 L -23.578,18.5022 L -23.8479,18.567 L -24.1166,18.6365 L -24.3841,18.7107 L -24.6503,18.7895 L -24.9151,18.873
 L -25.1783,18.9611 L -25.44,19.0537 L -25.7,19.1509 L -25.9583,19.2527 L -26.2148,19.3589 L -26.4693,19.4696
 L -26.722,19.5847 L -26.9725,19.7042 L -27.2209,19.8281 L -27.4672,19.9563 L -27.7111,20.0887 L -27.9527,20.2254
 L -28.1919,20.3663 L -28.4286,20.5114 L -28.6628,20.6605 L -28.8942,20.8138 L -29.123,20.971 L -29.349,21.1322
 L -29.5722,21.2973 L -29.7924,21.4663 L -30.0096,21.6391 L -30.2238,21.8157 L -30.4349,21.996 L -30.6429,22.1799
 L -30.8475,22.3675 L -31.0489,22.5585 L -31.2469,22.7531 L -31.4415,22.9511 L -31.6325,23.1525 L -31.8201,23.3571
 L -32.004,23.5651 L -32.1843,23.7762 L -32.3609,23.9904 L -32.5337,24.2076 L -32.7027,24.4278 L -32.8678,24.651
 L -33.029,24.877 L -33.1862,25.1058 L -33.3395,25.3372 L -33.4886,25.5714 L -33.6337,25.8081 L -33.7746,26.0473
 L -33.9113,26.2889 L -34.0437,26.5328 L -34.1719,26.7791 L -34.2958,27.0275 L -34.4153,27.278 L -34.5304,27.5307
 L -34.6411,27.7852 L -34.7473,28.0417 L -34.8491,28.3 L -34.9463,28.56 L -35.0389,28.8217 L -35.127,29.0849
 L -35.2105,29.3497 L -35.2893,29.6159 L -35.3635,29.8834 L -35.433,30.1521 L -35.4978,30.422 L -35.5579,30.6931
 L -35.6133,30.9651 L -35.6638,31.2381 L -35.7097,31.5118 L -35.7507,31.7864 L -35.7869,32.0616 L -35.8184,32.3374
 L -35.845,32.6138 L -35.8667,32.8905 L -35.8837,33.1676 L -35.8958,33.4449 L -35.9031,33.7224 L -35.9055,34
 L -35.9031,34.2776 L -35.8958,34.5551 L -35.8837,34.8324 L -35.8667,35.1095 L -35.845,35.3862 L -35.8184,35.6626
 L -35.7869,35.9384 L -35.7507,36.2136 L -35.7097,36.4882 L -35.6638,36.7619 L -35.6133,37.0349 L -35.5579,37.3069
 L -35.4978,37.578 L -35.433,37.8479 L -35.3635,38.1166 L -35.2893,38.3841 L -35.2105,38.6503 L -35.127,38.9151
 L -35.0389,39.1783 L -34.9463,39.44 L -34.8491,39.7 L -34.7473,39.9583 L -34.6411,40.2148 L -34.5304,40.4693
 L -34.4153,40.722 L -34.2958,40.9725 L -34.1719,41.2209 L -34.0437,41.4672 L -33.9113,41.7111 L -33.7746,41.9527
 L -33.6337,42.1919 L -33.4886,42.4286 L -33.3395,42.6628 L -33.1862,42.8942 L -33.029,43.123 L -32.8678,43.349
 L -32.7027,43.5722 L -32.5337,43.7924 L -32.3609,44.0096 L -32.1843,44.2238 L -32.004,44.4349 L -31.8201,44.6429
 L -31.6325,44.8475 L -31.4415,45.0489 L -31.2469,45.2469 L -31.0489,45.4415 L -30.8475,45.6325 L -30.6429,45.8201
 L -30.4349,46.004 L -30.2238,46.1843 L -30.0096,46.3609 L -29.7924,46.5337 L -29.5722,46.7027 L -29.349,46.8678
 L -29.123,47.029 L -28.8942,47.1862 L -28.6628,47.3395 L -28.4286,47.4886 L -28.1919,47.6337 L -27.9527,47.7746
 L -27.7111,47.9113 L -27.4672,48.0437 L -27.2209,48.1719 L -26.9725,48.2958 L -26.722,48.4153 L -26.4693,48.5304
 L -26.2148,48.6411 L -25.9583,48.7473 L -25.7,48.8491 L -25.44,48.9463 L -25.1783,49.0389 L -24.9151,49.127
 L -24.6503,49.2105 L -24.3841,49.2893 L -24.1166,49.3635 L -23.8479,49.433 L -23.578,49.4978 L -23.3069,49.5579
 L -23.0349,49.6133 L -22.7619,49.6638 L -22.4882,49.7097 L -22.2136,49.7507 L -21.9384,49.7869 L -21.6626,49.8184
 L -21.3862,49.845 L -21.1095,49.8667 L -20.8324,49.8837 L -20.5551,49.8958 L -20.2776,49.9031 L -20,49.9055
 z
M -20.1388,41.9543 L -20.2776,41.9507 L -20.4164,41.9446 L -20.5549,41.9361 L -20.6934,41.9252 L -20.8316,41.9119
 L -20.9695,41.8962 L -21.1072,41.8781 L -21.2445,41.8575 L -21.3815,41.8346 L -21.518,41.8093 L -21.654,41.7816
 L -21.7896,41.7516 L -21.9246,41.7192 L -22.059,41.6844 L -22.1928,41.6473 L -22.326,41.6079 L -22.4584,41.5661
 L -22.5901,41.5221 L -22.7209,41.4757 L -22.851,41.4271 L -22.9802,41.3762 L -23.1085,41.3231 L -23.2358,41.2677
 L -23.3621,41.2101 L -23.4875,41.1503 L -23.6117,41.0884 L -23.7349,41.0243 L -23.8569,40.958 L -23.9777,40.8897
 L -24.0974,40.8192 L -24.2158,40.7466 L -24.3329,40.672 L -24.4487,40.5954 L -24.5631,40.5168 L -24.6761,40.4361
 L -24.7877,40.3535 L -24.8979,40.269 L -25.0065,40.1826 L -25.1137,40.0943 L -25.2193,40.0041 L -25.3233,39.9121
 L -25.4256,39.8183 L -25.5264,39.7227 L -25.6254,39.6254 L -25.7227,39.5264 L -25.8183,39.4256 L -25.9121,39.3233
 L -26.0041,39.2193 L -26.0943,39.1137 L -26.1826,39.0065 L -26.269,38.8979 L -26.3535,38.7877 L -26.4361,38.6761
 L -26.5168,38.5631 L -26.5954,38.4487 L -26.672,38.3329 L -26.7466,38.2158 L -26.8192,38.0974 L -26.8897,37.9777
 L -26.958,37.8569 L -27.0243,37.7349 L -27.0884,37.6117 L -27.1503,37.4875 L -27.2101,37.3621 L -27.2677,37.2358
 L -27.3231,37.1085 L -27.3762,36.9802 L -27.4271,36.851 L -27.4757,36.7209 L -27.5221,36.5901 L -27.5661,36.4584
 L -27.6079,36.326 L -27.6473,36.1928 L -27.6844,36.059 L -27.7192,35.9246 L -27.7516,35.7896 L -27.7816,35.654
 L -27.8093,35.518 L -27.8346,35.3815 L -27.8575,35.2445 L -27.8781,35.1072 L -27.8962,34.9695 L -27.9119,34.8316
 L -27.9252,34.6934 L -27.9361,34.5549 L -27.9446,34.4164 L -27.9507,34.2776 L -27.9543,34.1388 L -27.9555,34
 L -27.9543,33.8612 L -27.9507,33.7224 L -27.9446,33.5836 L -27.9361,33.4451 L -27.9252,33.3066 L -27.9119,33.1684
 L -27.8962,33.0305 L -27.8781,32.8928 L -27.8575,32.7555 L -27.8346,32.6185 L -27.8093,32.482 L -27.7816,32.346
 L -27.7516,32.2104 L -27.7192,32.0754 L -27.6844,31.941 L -27.6473,31.8072 L -27.6079,31.674 L -27.5661,31.5416
 L -27.5221,31.4099 L -27.4757,31.2791 L -27.4271,31.149 L -27.3762,31.0198 L -27.3231,30.8915 L -27.2677,30.7642
 L -27.2101,30.6379 L -27.1503,30.5125 L -27.0884,30.3883 L -27.0243,30.2651 L -26.958,30.1431 L -26.8897,30.0223
 L -26.8192,29.9026 L -26.7466,29.7842 L -26.672,29.6671 L -26.5954,29.5513 L -26.5168,29.4369 L -26.4361,29.3239
 L -26.3535,29.2123 L -26.269,29.1021 L -26.1826,28.9935 L -26.0943,28.8863 L -26.0041,28.7807 L -25.9121,28.6767
 L -25.8183,28.5744 L -25.7227,28.4736 L -25.6254,28.3746 L -25.5264,28.2773 L -25.4256,28.1817 L -25.3233,28.0879
 L -25.2193,27.9959 L -25.1137,27.9057 L -25.0065,27.8174 L -24.8979,27.731 L -24.7877,27.6465 L -24.6761,27.5639
 L -24.5631,27.4832 L -24.4487,27.4046 L -24.3329,27.328 L -24.2158,27.2534 L -24.0974,27.1808 L -23.9777,27.1103
 L -23.8569,27.042 L -23.7349,26.9757 L -23.6117,26.9116 L -23.4875,26.8497 L -23.3621,26.7899 L -23.2358,26.7323
 L -23.1085,26.6769 L -22.9802,26.6238 L -22.851,26.5729 L -22.7209,26.5243 L -22.5901,26.4779 L -22.4584,26.4339
 L -22.326,26.3921 L -22.1928,26.3527 L -22.059,26.3156 L -21.9246,26.2808 L -21.7896,26.2484 L -21.654,26.2184
 L -21.518,26.1907 L -21.3815,26.1654 L -21.2445,26.1425 L -21.1072,26.1219 L -20.9695,26.1038 L -20.8316,26.0881
 L -20.6934,26.0748 L -20.5549,26.0639 L -20.4164,26.0554 L -20.2776,26.0493 L -20.1388,26.0457 L -20,26.0445
 L -19.8612,26.0457 L -19.7224,26.0493 L -19.5836,26.0554 L -19.4451,26.0639 L -19.3066,26.0748 L -19.1684,26.0881
 L -19.0305,26.1038 L -18.8928,26.1219 L -18.7555,26.1425 L -18.6185,26.1654 L -18.482,26.1907 L -18.346,26.2184
 L -18.2104,26.2484 L -18.0754,26.2808 L -17.941,26.3156 L -17.8072,26.3527 L -17.674,26.3921 L -17.5416,26.4339
 L -17.4099,26.4779 L -17.2791,26.5243 L -17.149,26.5729 L -17.0198,26.6238 L -16.8915,26.6769 L -16.7642,26.7323
 L -16.6379,26.7899 L -16.5125,26.8497 L -16.3883,26.9116 L -16.2651,26.9757 L -16.1431,27.042 L -16.0223,27.1103
 L -15.9026,27.1808 L -15.7842,27.2534 L -15.6671,27.328 L -15.5513,27.4046 L -15.4369,27.4832 L -15.3239,27.5639
 L -15.2123,27.6465 L -15.1021,27.731 L -14.9935,27.8174 L -14.8863,27.9057 L -14.7807,27.9959 L -14.6767,28.0879
 L -14.5744,28.1817 L -14.4736,28.2773 L -14.3746,28.3746 L -14.2773,28.4736 L -14.1817,28.5744 L -14.0879,28.6767
 L -13.9959,28.7807 L -13.9057,28.8863 L -13.8174,28.9935 L -13.731,29.1021 L -13.6465,29.2123 L -13.5639,29.3239
 L -13.4832,29.4369 L -13.4046,29.5513 L -13.328,29.6671 L -13.2534,29.7842 L -13.1808,29.9026 L -13.1103,30.0223
 L -13.042,30.1431 L -12.9757,30.2651 L -12.9116,30.3883 L -12.8497,30.5125 L -12.7899,30.6379 L -12.7323,30.7642
 L -12.6769,30.8915 L -12.6238,31.0198 L -12.5729,31.149 L -12.5243,31.2791 L -12.4779,31.4099 L -12.4339,31.5416
 L -12.3921,31.674 L -12.3527,31.8072 L -12.3156,31.941 L -12.2808,32.0754 L -12.2484,32.2104 L -12.2184,32.346
 L -12.1907,32.482 L -12.1654,32.6185 L -12.1425,32.7555 L -12.1219,32.8928 L -12.1038,33.0305 L -12.0881,33.1684
 L -12.0748,33.3066 L -12.0639,33.4451 L -12.0554,33.5836 L -12.0493,33.7224 L -12.0457,33.8612 L -12.0445,34
 L -12.0457,34.1388 L -12.0493,34.2776 L -12.0554,34.4164 L -12.0639,34.5549 L -12.0748,34.6934 L -12.0881,34.8316
 L -12.1038,34.9695 L -12.1219,35.1072 L -12.1425,35.2445 L -12.1654,35.3815 L -12.1907,35.518 L -12.2184,35.654
 L -12.2484,35.7896 L -12.2808,35.9246 L -12.3156,36.059 L -12.3527,36.1928 L -12.3921,36.326 L -12.4339,36.4584
 L -12.4779,36.5901 L -12.5243,36.7209 L -12.5729,36.851 L -12.6238,36.9802 L -12.6769,37.1085 L -12.7323,37.2358
 L -12.7899,37.3621 L -12.8497,37.4875 L -12.9116,37.6117 L -12.9757,37.7349 L -13.042,37.8569 L -13.1103,37.9777
 L -13.1808,38.0974 L -13.2534,38.2158 L -13.328,38.3329 L -13.4046,38.4487 L -13.4832,38.5631 L -13.5639,38.6761
 L -13.6465,38.7877 L -13.731,38.8979 L -13.8174,39.0065 L -13.9057,39.1137 L -13.9959,39.2193 L -14.0879,39.3233
 L -14.1817,39.4256 L -14.2773,39.5264 L -14.3746,39.6254 L -14.4736,39.7227 L -14.5744,39.8183 L -14.6767,39.9121
 L -14.7807,40.0041 L -14.8863,40.0943 L -14.9935,40.1826 L -15.1021,40.269 L -15.2123,40.3535 L -15.3239,40.4361
 L -15.4369,40.5168 L -15.5513,40.5954 L -15.6671,40.672 L -15.7842,40.7466 L -15.9026,40.8192 L -16.0223,40.8897
 L -16.1431,40.958 L -16.2651,41.0243 L -16.3883,41.0884 L -16.5125,41.1503 L -16.6379,41.2101 L -16.7642,41.2677
 L -16.8915,41.3231 L -17.0198,41.3762 L -17.149,41.4271 L -17.2791,41.4757 L -17.4099,41.5221 L -17.5416,41.5661
 L -17.674,41.6079 L -17.8072,41.6473 L -17.941,41.6844 L -18.0754,41.7192 L -18.2104,41.7516 L -18.346,41.7816
 L -18.482,41.8093 L -18.6185,41.8346 L -18.7555,41.8575 L -18.8928,41.8781 L -19.0305,41.8962 L -19.1684,41.9119
 L -19.3066,41.9252 L -19.4451,41.9361 L -19.5836,41.9446 L -19.7224,41.9507 L -19.8612,41.9543 L -20,41.9555
 z
M 20.2776,49.9031 L 20.5551,49.8958 L 20.8324,49.8837 L 21.1095,49.8667 L 21.3862,49.845 L 21.6626,49.8184
 L 21.9384,49.7869 L 22.2136,49.7507 L 22.4882,49.7097 L 22.7619,49.6638 L 23.0349,49.6133 L 23.3069,49.5579
 L 23.578,49.4978 L 23.8479,49.433 L 24.1166,49.3635 L 24.3841,49.2893 L 24.6503,49.2105 L 24.9151,49.127
 L 25.1783,49.0389 L 25.44,48.9463 L 25.7,48.8491 L 25.9583,48.7473 L 26.2148,48.6411 L 26.4693,48.5304
 L 26.722,48.4153 L 26.9725,48.2958 L 27.2209,48.1719 L 27.4672,48.0437 L 27.7111,47.9113 L 27.9527,47.7746
 L 28.1919,47.6337 L 28.4286,47.4886 L 28.6628,47.3395 L 28.8942,47.1862 L 29.123,47.029 L 29.349,46.8678
 L 29.5722,46.7027 L 29.7924,46.5337 L 30.0096,46.3609 L 30.2238,46.1843 L 30.4349,46.004 L 30.6429,45.8201
 L 30.8475,45.6325 L 31.0489,45.4415 L 31.2469,45.2469 L 31.4415,45.0489 L 31.6325,44.8475 L 31.8201,44.6429
 L 32.004,44.4349 L 32.1843,44.2238 L 32.3609,44.0096 L 32.5337,43.7924 L 32.7027,43.5722 L 32.8678,43.349
 L 33.029,43.123 L 33.1862,42.8942 L 33.3395,42.6628 L 33.4886,42.4286 L 33.6337,42.1919 L 33.7746,41.9527
 L 33.9113,41.7111 L 34.0437,41.4672 L 34.1719,41.2209 L 34.2958,40.9725 L 34.4153,40.722 L 34.5304,40.4693
 L 34.6411,40.2148 L 34.7473,39.9583 L 34.8491,39.7 L 34.9463,39.44 L 35.0389,39.1783 L 35.127,38.9151
 L 35.2105,38.6503 L 35.2893,38.3841 L 35.3635,38.1166 L 35.433,37.8479 L 35.4978,37.578 L 35.5579,37.3069
 L 35.6133,37.0349 L 35.6638,36.7619 L 35.7097,36.4882 L 35.7507,36.2136 L 35.7869,35.9384 L 35.8184,35.6626
 L 35.845,35.3862 L 35.8667,35.1095 L 35.8837,34.8324 L 35.8958,34.5551 L 35.9031,34.2776 L 35.9055,34
 L 35.9031,33.7224 L 35.8958,33.4449 L 35.8837,33.1676 L 35.8667,32.8905 L 35.845,32.6138 L 35.8184,32.3374
 L 35.7869,32.0616 L 35.7507,31.7864 L 35.7097,31.5118 L 35.6638,31.2381 L 35.6133,30.9651 L 35.5579,30.6931
 L 35.4978,30.422 L 35.433,30.1521 L 35.3635,29.8834 L 35.2893,29.6159 L 35.2105,29.3497 L 35.127,29.0849
 L 35.0389,28.8217 L 34.9463,28.56 L 34.8491,28.3 L 34.7473,28.0417 L 34.6411,27.7852 L 34.5304,27.5307
 L 34.4153,27.278 L 34.2958,27.0275 L 34.1719,26.7791 L 34.0437,26.5328 L 33.9113,26.2889 L 33.7746,26.0473
 L 33.6337,25.8081 L 33.4886,25.5714 L 33.3395,25.3372 L 33.1862,25.1058 L 33.029,24.877 L 32.8678,24.651
 L 32.7027,24.4278 L 32.5337,24.2076 L 32.3609,23.9904 L 32.1843,23.7762 L 32.004,23.5651 L 31.8201,23.3571
 L 31.6325,23.1525 L 31.4415,22.9511 L 31.2469,22.7531 L 31.0489,22.5585 L 30.8475,22.3675 L 30.6429,22.1799
 L 30.4349,21.996 L 30.2238,21.8157 L 30.0096,21.6391 L 29.7924,21.4663 L 29.5722,21.2973 L 29.349,21.1322
 L 29.123,20.971 L 28.8942,20.8138 L 28.6628,20.6605 L 28.4286,20.5114 L 28.1919,20.3663 L 27.9527,20.2254
 L 27.7111,20.0887 L 27.4672,19.9563 L 27.2209,19.8281 L 26.9725,19.7042 L 26.722,19.5847 L 26.4693,19.4696
 L 26.2148,19.3589 L 25.9583,19.2527 L 25.7,19.1509 L 25.44,19.0537 L 25.1783,18.9611 L 24.9151,18.873
 L 24.6503,18.7895 L 24.3841,18.7107 L 24.1166,18.6365 L 23.8479,18.567 L 23.578,18.5022 L 23.3069,18.4421
 L 23.0349,18.3867 L 22.7619,18.3362 L 22.4882,18.2903 L 22.2136,18.2493 L 21.9384,18.2131 L 21.6626,18.1816
 L 21.3862,18.155 L 21.1095,18.1333 L 20.8324,18.1163 L 20.5551,18.1042 L 20.2776,18.0969 L 20,18.0945
 L 19.7224,18.0969 L 19.4449,18.1042 L 19.1676,18.1163 L 18.8905,18.1333 L 18.6138,18.155 L 18.3374,18.1816
 L 18.0616,18.2131 L 17.7864,18.2493 L 17.5118,18.2903 L 17.2381,18.3362 L 16.9651,18.3867 L 16.6931,18.4421
 L 16.422,18.5022 L 16.1521,18.567 L 15.8834,18.6365 L 15.6159,18.7107 L 15.3497,18.7895 L 15.0849,18.873
 L 14.8217,18.9611 L 14.56,19.0537 L 14.3,19.1509 L 14.0417,19.2527 L 13.7852,19.3589 L 13.5307,19.4696
 L 13.278,19.5847 L 13.0275,19.7042 L 12.7791,19.8281 L 12.5328,19.9563 L 12.2889,20.0887 L 12.0473,20.2254
 L 11.8081,20.3663 L 11.5714,20.5114 L 11.3372,20.6605 L 11.1058,20.8138 L 10.877,20.971 L 10.651,21.1322
 L 10.4278,21.2973 L 10.2076,21.4663 L 9.99036,21.6391 L 9.77615,21.8157 L 9.56506,21.996 L 9.35715,22.1799
 L 9.15248,22.3675 L 8.95113,22.5585 L 8.75313,22.7531 L 8.55855,22.9511 L 8.36746,23.1525 L 8.17992,23.3571
 L 7.99597,23.5651 L 7.81569,23.7762 L 7.63911,23.9904 L 7.46631,24.2076 L 7.29732,24.4278 L 7.13219,24.651
 L 6.97098,24.877 L 6.81375,25.1058 L 6.66054,25.3372 L 6.51138,25.5714 L 6.36633,25.8081 L 6.22543,26.0473
 L 6.08875,26.2889 L 5.95628,26.5328 L 5.82811,26.7791 L 5.70424,27.0275 L 5.58473,27.278 L 5.4696,27.5307
 L 5.35892,27.7852 L 5.25269,28.0417 L 5.15094,28.3 L 5.05373,28.56 L 4.96106,28.8217 L 4.87297,29.0849
 L 4.78951,29.3497 L 4.71066,29.6159 L 4.63647,29.8834 L 4.56697,30.1521 L 4.50217,30.422 L 4.44208,30.6931
 L 4.38673,30.9651 L 4.33615,31.2381 L 4.29033,31.5118 L 4.2493,31.7864 L 4.21306,32.0616 L 4.18164,32.3374
 L 4.15503,32.6138 L 4.13326,32.8905 L 4.1163,33.1676 L 4.1042,33.4449 L 4.09692,33.7224 L 4.09451,34
 L 4.09692,34.2776 L 4.1042,34.5551 L 4.1163,34.8324 L 4.13326,35.1095 L 4.15503,35.3862 L 4.18164,35.6626
 L 4.21306,35.9384 L 4.2493,36.2136 L 4.29033,36.4882 L 4.33615,36.7619 L 4.38673,37.0349 L 4.44208,37.3069
 L 4.50217,37.578 L 4.56697,37.8479 L 4.63647,38.1166 L 4.71066,38.3841 L 4.78951,38.6503 L 4.87297,38.9151
 L 4.96106,39.1783 L 5.05373,39.44 L 5.15094,39.7 L 5.25269,39.9583 L 5.35892,40.2148 L 5.4696,40.4693
 L 5.58473,40.722 L 5.70424,40.9725 L 5.82811,41.2209 L 5.95628,41.4672 L 6.08875,41.7111 L 6.22543,41.9527
 L 6.36633,42.1919 L 6.51138,42.4286 L 6.66054,42.6628 L 6.81375,42.8942 L 6.97098,43.123 L 7.13219,43.349
 L 7.29732,43.5722 L 7.46631,43.7924 L 7.63911,44.0096 L 7.81569,44.2238 L 7.99597,44.4349 L 8.17992,44.6429
 L 8.36746,44.8475 L 8.55855,45.0489 L 8.75313,45.2469 L 8.95113,45.4415 L 9.15248,45.6325 L 9.35715,45.8201
 L 9.56506,46.004 L 9.77615,46.1843 L 9.99036,46.3609 L 10.2076,46.5337 L 10.4278,46.7027 L 10.651,46.8678
 L 10.877,47.029 L 11.1058,47.1862 L 11.3372,47.3395 L 11.5714,47.4886 L 11.8081,47.6337 L 12.0473,47.7746
 L 12.2889,47.9113 L 12.5328,48.0437 L 12.7791,48.1719 L 13.0275,48.2958 L 13.278,48.4153 L 13.5307,48.5304
 L 13.7852,48.6411 L 14.0417,48.7473 L 14.3,48.8491 L 14.56,48.9463 L 14.8217,49.0389 L 15.0849,49.127
 L 15.3497,49.2105 L 15.6159,49.2893 L 15.8834,49.3635 L 16.1521,49.433 L 16.422,49.4978 L 16.6931,49.5579
 L 16.9651,49.6133 L 17.2381,49.6638 L 17.5118,49.7097 L 17.7864,49.7507 L 18.0616,49.7869 L 18.3374,49.8184
 L 18.6138,49.845 L 18.8905,49.8667 L 19.1676,49.8837 L 19.4449,49.8958 L 19.7224,49.9031 L 20,49.9055
 z
M 19.8612,41.9543 L 19.7224,41.9507 L 19.5836,41.9446 L 19.4451,41.9361 L 19.3066,41.9252 L 19.1684,41.9119
 L 19.0305,41.8962 L 18.8928,41.8781 L 18.7555,41.8575 L 18.6185,41.8346 L 18.482,41.8093 L 18.346,41.7816
 L 18.2104,41.7516 L 18.0754,41.7192 L 17.941,41.6844 L 17.8072,41.6473 L 17.674,41.6079 L 17.5416,41.5661
 L 17.4099,41.5221 L 17.2791,41.4757 L 17.149,41.4271 L 17.0198,41.3762 L 16.8915,41.3231 L 16.7642,41.2677
 L 16.6379,41.2101 L 16.5125,41.1503 L 16.3883,41.0884 L 16.2651,41.0243 L 16.1431,40.958 L 16.0223,40.8897
 L 15.9026,40.8192 L 15.7842,40.7466 L 15.6671,40.672 L 15.5513,40.5954 L 15.4369,40.5168 L 15.3239,40.4361
 L 15.2123,40.3535 L 15.1021,40.269 L 14.9935,40.1826 L 14.8863,40.0943 L 14.7807,40.0041 L 14.6767,39.9121
 L 14.5744,39.8183 L 14.4736,39.7227 L 14.3746,39.6254 L 14.2773,39.5264 L 14.1817,39.4256 L 14.0879,39.3233
 L 13.9959,39.2193 L 13.9057,39.1137 L 13.8174,39.0065 L 13.731,38.8979 L 13.6465,38.7877 L 13.5639,38.6761
 L 13.4832,38.5631 L 13.4046,38.4487 L 13.328,38.3329 L 13.2534,38.2158 L 13.1808,38.0974 L 13.1103,37.9777
 L 13.042,37.8569 L 12.9757,37.7349 L 12.9116,37.6117 L 12.8497,37.4875 L 12.7899,37.3621 L 12.7323,37.2358
 L 12.6769,37.1085 L 12.6238,36.9802 L 12.5729,36.851 L 12.5243,36.7209 L 12.4779,36.5901 L 12.4339,36.4584
 L 12.3921,36.326 L 12.3527,36.1928 L 12.3156,36.059 L 12.2808,35.9246 L 12.2484,35.7896 L 12.2184,35.654
 L 12.1907,35.518 L 12.1654,35.3815 L 12.1425,35.2445 L 12.1219,35.1072 L 12.1038,34.9695 L 12.0881,34.8316
 L 12.0748,34.6934 L 12.0639,34.5549 L 12.0554,34.4164 L 12.0493,34.2776 L 12.0457,34.1388 L 12.0445,34
 L 12.0457,33.8612 L 12.0493,33.7224 L 12.0554,33.5836 L 12.0639,33.4451 L 12.0748,33.3066 L 12.0881,33.1684
 L 12.1038,33.0305 L 12.1219,32.8928 L 12.1425,32.7555 L 12.1654,32.6185 L 12.1907,32.482 L 12.2184,32.346
 L 12.2484,32.2104 L 12.2808,32.0754 L 12.3156,31.941 L 12.3527,31.8072 L 12.3921,31.674 L 12.4339,31.5416
 L 12.4779,31.4099 L 12.5243,31.2791 L 12.5729,31.149 L 12.6238,31.0198 L 12.6769,30.8915 L 12.7323,30.7642
 L 12.7899,30.6379 L 12.8497,30.5125 L 12.9116,30.3883 L 12.9757,30.2651 L 13.042,30.1431 L 13.1103,30.0223
 L 13.1808,29.9026 L 13.2534,29.7842 L 13.328,29.6671 L 13.4046,29.5513 L 13.4832,29.4369 L 13.5639,29.3239
 L 13.6465,29.2123 L 13.731,29.1021 L 13.8174,28.9935 L 13.9057,28.8863 L 13.9959,28.7807 L 14.0879,28.6767
 L 14.1817,28.5744 L 14.2773,28.4736 L 14.3746,28.3746 L 14.4736,28.2773 L 14.5744,28.1817 L 14.6767,28.0879
 L 14.7807,27.9959 L 14.8863,27.9057 L 14.9935,27.8174 L 15.1021,27.731 L 15.2123,27.6465 L 15.3239,27.5639
 L 15.4369,27.4832 L 15.5513,27.4046 L 15.6671,27.328 L 15.7842,27.2534 L 15.9026,27.1808 L 16.0223,27.1103
 L 16.1431,27.042 L 16.2651,26.9757 L 16.3883,26.9116 L 16.5125,26.8497 L 16.6379,26.7899 L 16.7642,26.7323
 L 16.8915,26.6769 L 17.0198,26.6238 L 17.149,26.5729 L 17.2791,26.5243 L 17.4099,26.4779 L 17.5416,26.4339
 L 17.674,26.3921 L 17.8072,26.3527 L 17.941,26.3156 L 18.0754,26.2808 L 18.2104,26.2484 L 18.346,26.2184
 L 18.482,26.1907 L 18.6185,26.1654 L 18.7555,26.1425 L 18.8928,26.1219 L 19.0305,26.1038 L 19.1684,26.0881
 L 19.3066,26.0748 L 19.4451,26.0639 L 19.5836,26.0554 L 19.7224,26.0493 L 19.8612,26.0457 L 20,26.0445
 L 20.1388,26.0457 L 20.2776,26.0493 L 20.4164,26.0554 L 20.5549,26.0639 L 20.6934,26.0748 L 20.8316,26.0881
 L 20.9695,26.1038 L 21.1072,26.1219 L 21.2445,26.1425 L 21.3815,26.1654 L 21.518,26.1907 L 21.654,26.2184
 L 21.7896,26.2484 L 21.9246,26.2808 L 22.059,26.3156 L 22.1928,26.3527 L 22.326,26.3921 L 22.4584,26.4339
 L 22.5901,26.4779 L 22.7209,26.5243 L 22.851,26.5729 L 22.9802,26.6238 L 23.1085,26.6769 L 23.2358,26.7323
 L 23.3621,26.7899 L 23.4875,26.8497 L 23.6117,26.9116 L 23.7349,26.9757 L 23.8569,27.042 L 23.9777,27.1103
 L 24.0974,27.1808 L 24.2158,27.2534 L 24.3329,27.328 L 24.4487,27.4046 L 24.5631,27.4832 L 24.6761,27.5639
 L 24.7877,27.6465 L 24.8979,27.731 L 25.0065,27.8174 L 25.1137,27.9057 L 25.2193,27.9959 L 25.3233,28.0879
 L 25.4256,28.1817 L 25.5264,28.2773 L 25.6254,28.3746 L 25.7227,28.4736 L 25.8183,28.5744 L 25.9121,28.6767
 L 26.0041,28.7807 L 26.0943,28.8863 L 26.1826,28.9935 L 26.269,29.1021 L 26.3535,29.2123 L 26.4361,29.3239
 L 26.5168,29.4369 L 26.5954,29.5513 L 26.672,29.6671 L 26.7466,29.7842 L 26.8192,29.9026 L 26.8897,30.0223
 L 26.958,30.1431 L 27.0243,30.2651 L 27.0884,30.3883 L 27.1503,30.5125 L 27.2101,30.6379 L 27.2677,30.7642
 L 27.3231,30.8915 L 27.3762,31.0198 L 27.4271,31.149 L 27.4757,31.2791 L 27.5221,31.4099 L 27.5661,31.5416
 L 27.6079,31.674 L 27.6473,31.8072 L 27.6844,31.941 L 27.7192,32.0754 L 27.7516,32.2104 L 27.7816,32.346
 L 27.8093,32.482 L 27.8346,32.6185 L 27.8575,32.7555 L 27.8781,32.8928 L 27.8962,33.0305 L 27.9119,33.1684
 L 27.9252,33.3066 L 27.9361,33.4451 L 27.9446,33.5836 L 27.9507,33.7224 L 27.9543,33.8612 L 27.9555,34
 L 27.9543,34.1388 L 27.9507,34.2776 L 27.9446,34.4164 L 27.9361,34.5549 L 27.9252,34.6934 L 27.9119,34.8316
 L 27.8962,34.9695 L 27.8781,35.1072 L 27.8575,35.2445 L 27.8346,35.3815 L 27.8093,35.518 L 27.7816,35.654
 L 27.7516,35.7896 L 27.7192,35.9246 L 27.6844,36.059 L 27.6473,36.1928 L 27.6079,36.326 L 27.5661,36.4584
 L 27.5221,36.5901 L 27.4757,36.7209 L 27.4271,36.851 L 27.3762,36.9802 L 27.3231,37.1085 L 27.2677,37.2358
 L 27.2101,37.3621 L 27.1503,37.4875 L 27.0884,37.6117 L 27.0243,37.7349 L 26.958,37.8569 L 26.8897,37.9777
 L 26.8192,38.0974 L 26.7466,38.2158 L 26.672,38.3329 L 26.5954,38.4487 L 26.5168,38.5631 L 26.4361,38.6761
 L 26.3535,38.7877 L 26.269,38.8979 L 26.1826,39.0065 L 26.0943,39.1137 L 26.0041,39.2193 L 25.9121,39.3233
 L 25.8183,39.4256 L 25.7227,39.5264 L 25.6254,39.6254 L 25.5264,39.7227 L 25.4256,39.8183 L 25.3233,39.9121
 L 25.2193,40.0041 L 25.1137,40.0943 L 25.0065,40.1826 L 24.8979,40.269 L 24.7877,40.3535 L 24.6761,40.4361
 L 24.5631,40.5168 L 24.4487,40.5954 L 24.3329,40.672 L 24.2158,40.7466 L 24.0974,40.8192 L 23.9777,40.8897
 L 23.8569,40.958 L 23.7349,41.0243 L 23.6117,41.0884 L 23.4875,41.1503 L 23.3621,41.2101 L 23.2358,41.2677
 L 23.1085,41.3231 L 22.9802,41.3762 L 22.851,41.4271 L 22.7209,41.4757 L 22.5901,41.5221 L 22.4584,41.5661
 L 22.326,41.6079 L 22.1928,41.6473 L 22.059,41.6844 L 21.9246,41.7192 L 21.7896,41.7516 L 21.654,41.7816
 L 21.518,41.8093 L 21.3815,41.8346 L 21.2445,41.8575 L 21.1072,41.8781 L 20.9695,41.8962 L 20.8316,41.9119
 L 20.6934,41.9252 L 20.5549,41.9361 L 20.4164,41.9446 L 20.2776,41.9507 L 20.1388,41.9543 L 20,41.9555
 z
" stroke="black" fill="lightgray" stroke-width="0.5"/>
</svg>
