  0
SECTION
  2
BLOCKS
  0
ENDSEC
  0
SECTION
  2
ENTITIES
  0
LINE
  8
0
 10
11.7365
 20
0.151917
 11
13.4202
 21
0.603073
  0
LINE
  8
0
 10
13.4202
 20
0.603073
 11
15
 21
1.33974
  0
LINE
  8
0
 10
15
 20
1.33974
 11
16.4279
 21
2.33955
  0
LINE
  8
0
 10
16.4279
 20
2.33955
 11
109.66
 21
95.5721
  0
LINE
  8
0
 10
109.66
 20
95.5721
 11
110.66
 21
97
  0
LINE
  8
0
 10
110.66
 20
97
 11
111.397
 21
98.5798
  0
LINE
  8
0
 10
111.397
 20
98.5798
 11
111.848
 21
100.264
  0
LINE
  8
0
 10
111.848
 20
100.264
 11
112
 21
102
  0
LINE
  8
0
 10
112
 20
102
 11
111.848
 21
103.736
  0
LINE
  8
0
 10
111.848
 20
103.736
 11
111.397
 21
105.42
  0
LINE
  8
0
 10
111.397
 20
105.42
 11
110.66
 21
107
  0
LINE
  8
0
 10
110.66
 20
107
 11
109.66
 21
108.428
  0
LINE
  8
0
 10
109.66
 20
108.428
 11
108.428
 21
109.66
  0
LINE
  8
0
 10
108.428
 20
109.66
 11
107
 21
110.66
  0
LINE
  8
0
 10
107
 20
110.66
 11
105.42
 21
111.397
  0
LINE
  8
0
 10
105.42
 20
111.397
 11
103.736
 21
111.848
  0
LINE
  8
0
 10
103.736
 20
111.848
 11
102
 21
112
  0
LINE
  8
0
 10
102
 20
112
 11
10
 21
112
  0
LINE
  8
0
 10
10
 20
112
 11
8.2635
 21
111.848
  0
LINE
  8
0
 10
8.2635
 20
111.848
 11
6.57979
 21
111.397
  0
LINE
  8
0
 10
6.57979
 20
111.397
 11
5
 21
110.66
  0
LINE
  8
0
 10
5
 20
110.66
 11
3.57211
 21
109.66
  0
LINE
  8
0
 10
3.57211
 20
109.66
 11
2.33955
 21
108.428
  0
LINE
  8
0
 10
2.33955
 20
108.428
 11
1.33974
 21
107
  0
LINE
  8
0
 10
1.33974
 20
107
 11
0.603073
 21
105.42
  0
LINE
  8
0
 10
0.603073
 20
105.42
 11
0.151917
 21
103.736
  0
LINE
  8
0
 10
0.151917
 20
103.736
 11
0
 21
102
  0
LINE
  8
0
 10
0
 20
102
 11
0
 21
10
  0
LINE
  8
0
 10
0
 20
10
 11
0.151917
 21
8.2635
  0
LINE
  8
0
 10
0.151917
 20
8.2635
 11
0.603073
 21
6.57979
  0
LINE
  8
0
 10
0.603073
 20
6.57979
 11
1.33974
 21
5
  0
LINE
  8
0
 10
1.33974
 20
5
 11
2.33955
 21
3.57211
  0
LINE
  8
0
 10
2.33955
 20
3.57211
 11
3.57211
 21
2.33955
  0
LINE
  8
0
 10
3.57211
 20
2.33955
 11
5
 21
1.33974
  0
LINE
  8
0
 10
5
 20
1.33974
 11
6.57979
 21
0.603073
  0
LINE
  8
0
 10
6.57979
 20
0.603073
 11
8.2635
 21
0.151917
  0
LINE
  8
0
 10
8.2635
 20
0.151917
 11
10
 21
0
  0
LINE
  8
0
 10
10
 20
0
 11
11.7365
 21
0.151917
  0
LINE
  8
0
 10
14.5711
 20
17.0711
 11
96.5954
 21
99.0954
  0
LINE
  8
0
 10
96.5954
 20
99.0954
 11
98.5046
 21
97.1863
  0
LINE
  8
0
 10
98.5046
 20
97.1863
 11
16.4803
 21
15.1619
  0
LINE
  8
0
 10
16.4803
 20
15.1619
 11
14.5711
 21
17.0711
  0
LINE
  8
0
 10
52
 20
84.5
 11
52
 21
89.5
  0
LINE
  8
0
 10
52
 20
89.5
 11
67
 21
89.5
  0
LINE
  8
0
 10
67
 20
89.5
 11
67
 21
84.5
  0
LINE
  8
0
 10
67
 20
84.5
 11
52
 21
84.5
  0
LINE
  8
0
 10
22
 20
84.5
 11
22
 21
89.5
  0
LINE
  8
0
 10
22
 20
89.5
 11
37
 21
89.5
  0
LINE
  8
0
 10
37
 20
89.5
 11
37
 21
84.5
  0
LINE
  8
0
 10
37
 20
84.5
 11
22
 21
84.5
  0
ENDSEC
  0
SECTION
  2
OBJECTS
  0
DICTIONARY
  0
ENDSEC
  0
EOF
