<?xml version="1.0" standalone="no"?>
<!DOCTYPE svg PUBLIC "-//W3C//DTD SVG 1.1//EN" "http://www.w3.org/Graphics/SVG/1.1/DTD/svg11.dtd">
<svg width="110mm" height="57mm" viewBox="-3 -57 110 57" xmlns="http://www.w3.org/2000/svg" version="1.1">
<title>OpenSCAD Model</title>
<path d="
M 103.174,-0.0151825 L 103.342,-0.0603027 L 103.5,-0.133972 L 103.643,-0.233948 L 103.766,-0.357208 L 103.866,-0.5
 L 103.94,-0.657974 L 103.985,-0.82634 L 104,-1 L 104,-9 L 107,-9 L 107,-18
 L 104,-18 L 104,-27 L 107,-27 L 107,-36 L 104,-36 L 104,-45
 L 107,-45 L 107,-54 L 104,-54 L 104,-56 L 103.985,-56.1736 L 103.94,-56.342
 L 103.866,-56.5 L 103.766,-56.6428 L 103.643,-56.766 L 103.5,-56.866 L 103.342,-56.9397 L 103.174,-56.9848
 L 103,-57 L 95,-57 L 95,-47 L 94.9696,-46.6527 L 94.8794,-46.3159 L 94.732,-46
 L 94.5321,-45.7144 L 94.2856,-45.4679 L 94,-45.2679 L 93.684,-45.1206 L 93.3473,-45.0304 L 93,-45
 L 11,-45 L 10.6527,-45.0304 L 10.3159,-45.1206 L 10,-45.2679 L 9.71442,-45.4679 L 9.46791,-45.7144
 L 9.26794,-46 L 9.12061,-46.3159 L 9.03038,-46.6527 L 9,-47 L 9,-57 L 1,-57
 L 0.82634,-56.9848 L 0.657974,-56.9397 L 0.5,-56.866 L 0.357208,-56.766 L 0.233948,-56.6428 L 0.133972,-56.5
 L 0.0603027,-56.342 L 0.0151825,-56.1736 L 0,-56 L 0,-54 L -3,-54 L -3,-45
 L 0,-45 L 0,-36 L -3,-36 L -3,-27 L 0,-27 L 0,-18
 L -3,-18 L -3,-9 L 0,-9 L 0,-1 L 0.0151825,-0.82634 L 0.0603027,-0.657974
 L 0.133972,-0.5 L 0.233948,-0.357208 L 0.357208,-0.233948 L 0.5,-0.133972 L 0.657974,-0.0603027 L 0.82634,-0.0151825
 L 1,-0 L 103,-0 z
M 13,-9.5 L 12.3054,-9.56076 L 11.6319,-9.74123 L 11,-10.0359 L 10.4288,-10.4358 L 9.93582,-10.9288
 L 9.53589,-11.5 L 9.24123,-12.1319 L 9.06076,-12.8054 L 9,-13.5 L 9,-32.5 L 9.06076,-33.1946
 L 9.24123,-33.8681 L 9.53589,-34.5 L 9.93582,-35.0712 L 10.4288,-35.5642 L 11,-35.9641 L 11.6319,-36.2588
 L 12.3054,-36.4392 L 13,-36.5 L 91,-36.5 L 91.6946,-36.4392 L 92.3681,-36.2588 L 93,-35.9641
 L 93.5712,-35.5642 L 94.0642,-35.0712 L 94.4641,-34.5 L 94.7588,-33.8681 L 94.9392,-33.1946 L 95,-32.5
 L 95,-13.5 L 94.9392,-12.8054 L 94.7588,-12.1319 L 94.4641,-11.5 L 94.0642,-10.9288 L 93.5712,-10.4358
 L 93,-10.0359 L 92.3681,-9.74123 L 91.6946,-9.56076 L 91,-9.5 z
" stroke="black" fill="lightgray" stroke-width="0.5"/>
</svg>
