<?xml version="1.0" standalone="no"?>
<!DOCTYPE svg PUBLIC "-//W3C//DTD SVG 1.1//EN" "http://www.w3.org/Graphics/SVG/1.1/DTD/svg11.dtd">
<svg width="112mm" height="112mm" viewBox="0 -112 112 112" xmlns="http://www.w3.org/2000/svg" version="1.1">
<title>OpenSCAD Model</title>
<path d="
M 11.7365,-0.151917 L 13.4202,-0.603073 L 15,-1.33974 L 16.4279,-2.33955 L 109.66,-95.5721 L 110.66,-97
 L 111.397,-98.5798 L 111.848,-100.264 L 112,-102 L 111.848,-103.736 L 111.397,-105.42 L 110.66,-107
 L 109.66,-108.428 L 108.428,-109.66 L 107,-110.66 L 105.42,-111.397 L 103.736,-111.848 L 102,-112
 L 10,-112 L 8.2635,-111.848 L 6.57979,-111.397 L 5,-110.66 L 3.57211,-109.66 L 2.33955,-108.428
 L 1.33974,-107 L 0.603073,-105.42 L 0.151917,-103.736 L 0,-102 L 0,-10 L 0.151917,-8.2635
 L 0.603073,-6.57979 L 1.33974,-5 L 2.33955,-3.57211 L 3.57211,-2.33955 L 5,-1.33974 L 6.57979,-0.603073
 L 8.2635,-0.151917 L 10,-0 z
M 14.5711,-17.0711 L 96.5954,-99.0954 L 98.5046,-97.1863 L 16.4803,-15.1619 z
M 52,-84.5 L 52,-89.5 L 67,-89.5 L 67,-84.5 z
M 22,-84.5 L 22,-89.5 L 37,-89.5 L 37,-84.5 z
" stroke="black" fill="lightgray" stroke-width="0.5"/>
</svg>
