<?xml version="1.0" standalone="no"?>
<!DOCTYPE svg PUBLIC "-//W3C//DTD SVG 1.1//EN" "http://www.w3.org/Graphics/SVG/1.1/DTD/svg11.dtd">
<svg width="110mm" height="104mm" viewBox="-3 -104 110 104" xmlns="http://www.w3.org/2000/svg" version="1.1">
<title>OpenSCAD Model</title>
<path d="
M 95.7365,-0.151917 L 97.4202,-0.603073 L 99,-1.33974 L 100.428,-2.33955 L 101.66,-3.57211 L 102.66,-5
 L 103.397,-6.57979 L 103.848,-8.2635 L 104,-10 L 104,-53 L 107,-53 L 107,-62
 L 104,-62 L 104,-71 L 107,-71 L 107,-80 L 104,-80 L 104,-89
 L 107,-89 L 107,-98 L 104,-98 L 104,-103 L 103.985,-103.174 L 103.94,-103.342
 L 103.866,-103.5 L 103.766,-103.643 L 103.643,-103.766 L 103.5,-103.866 L 103.342,-103.94 L 103.174,-103.985
 L 103,-104 L 1,-104 L 0.82634,-103.985 L 0.657974,-103.94 L 0.5,-103.866 L 0.357208,-103.766
 L 0.233948,-103.643 L 0.133972,-103.5 L 0.0603027,-103.342 L 0.0151825,-103.174 L 0,-103 L 0,-98
 L -3,-98 L -3,-89 L 0,-89 L 0,-80 L -3,-80 L -3,-71
 L 0,-71 L 0,-62 L -3,-62 L -3,-53 L 0,-53 L 0,-10
 L 0.151917,-8.2635 L 0.603073,-6.57979 L 1.33974,-5 L 2.33955,-3.57211 L 3.57211,-2.33955 L 5,-1.33974
 L 6.57979,-0.603073 L 8.2635,-0.151917 L 10,-0 L 94,-0 z
M 17.5,-11.5 L 16.4581,-11.5911 L 15.4479,-11.8618 L 14.5,-12.3038 L 13.6433,-12.9037 L 12.9037,-13.6433
 L 12.3038,-14.5 L 11.8618,-15.4479 L 11.5911,-16.4581 L 11.5,-17.5 L 11.5,-87.5 L 11.5911,-88.5419
 L 11.8618,-89.5521 L 12.3038,-90.5 L 12.9037,-91.3567 L 13.6433,-92.0963 L 14.5,-92.6962 L 15.4479,-93.1382
 L 16.4581,-93.4088 L 17.5,-93.5 L 87.5,-93.5 L 88.5419,-93.4088 L 89.5521,-93.1382 L 90.5,-92.6962
 L 91.3567,-92.0963 L 92.0963,-91.3567 L 92.6962,-90.5 L 93.1382,-89.5521 L 93.4088,-88.5419 L 93.5,-87.5
 L 93.5,-17.5 L 93.4088,-16.4581 L 93.1382,-15.4479 L 92.6962,-14.5 L 92.0963,-13.6433 L 91.3567,-12.9037
 L 90.5,-12.3038 L 89.5521,-11.8618 L 88.5419,-11.5911 L 87.5,-11.5 z
" stroke="black" fill="lightgray" stroke-width="0.5"/>
</svg>
