  0
SECTION
  2
BLOCKS
  0
ENDSEC
  0
SECTION
  2
ENTITIES
  0
LINE
  8
0
 10
25.7365
 20
14.1519
 11
27.4202
 21
14.6031
  0
LINE
  8
0
 10
27.4202
 20
14.6031
 11
29
 21
15.3397
  0
LINE
  8
0
 10
29
 20
15.3397
 11
30.4279
 21
16.3396
  0
LINE
  8
0
 10
30.4279
 20
16.3396
 11
109.66
 21
95.5721
  0
LINE
  8
0
 10
109.66
 20
95.5721
 11
110.66
 21
97
  0
LINE
  8
0
 10
110.66
 20
97
 11
111.397
 21
98.5798
  0
LINE
  8
0
 10
111.397
 20
98.5798
 11
111.848
 21
100.264
  0
LINE
  8
0
 10
111.848
 20
100.264
 11
112
 21
102
  0
LINE
  8
0
 10
112
 20
102
 11
111.848
 21
103.736
  0
LINE
  8
0
 10
111.848
 20
103.736
 11
111.397
 21
105.42
  0
LINE
  8
0
 10
111.397
 20
105.42
 11
110.66
 21
107
  0
LINE
  8
0
 10
110.66
 20
107
 11
109.66
 21
108.428
  0
LINE
  8
0
 10
109.66
 20
108.428
 11
108.428
 21
109.66
  0
LINE
  8
0
 10
108.428
 20
109.66
 11
107
 21
110.66
  0
LINE
  8
0
 10
107
 20
110.66
 11
105.42
 21
111.397
  0
LINE
  8
0
 10
105.42
 20
111.397
 11
103.736
 21
111.848
  0
LINE
  8
0
 10
103.736
 20
111.848
 11
102
 21
112
  0
LINE
  8
0
 10
102
 20
112
 11
24
 21
112
  0
LINE
  8
0
 10
24
 20
112
 11
22.2635
 21
111.848
  0
LINE
  8
0
 10
22.2635
 20
111.848
 11
20.5798
 21
111.397
  0
LINE
  8
0
 10
20.5798
 20
111.397
 11
19
 21
110.66
  0
LINE
  8
0
 10
19
 20
110.66
 11
17.5721
 21
109.66
  0
LINE
  8
0
 10
17.5721
 20
109.66
 11
16.3396
 21
108.428
  0
LINE
  8
0
 10
16.3396
 20
108.428
 11
15.3397
 21
107
  0
LINE
  8
0
 10
15.3397
 20
107
 11
14.6031
 21
105.42
  0
LINE
  8
0
 10
14.6031
 20
105.42
 11
14.1519
 21
103.736
  0
LINE
  8
0
 10
14.1519
 20
103.736
 11
14
 21
102
  0
LINE
  8
0
 10
14
 20
102
 11
14
 21
24
  0
LINE
  8
0
 10
14
 20
24
 11
14.1519
 21
22.2635
  0
LINE
  8
0
 10
14.1519
 20
22.2635
 11
14.6031
 21
20.5798
  0
LINE
  8
0
 10
14.6031
 20
20.5798
 11
15.3397
 21
19
  0
LINE
  8
0
 10
15.3397
 20
19
 11
16.3396
 21
17.5721
  0
LINE
  8
0
 10
16.3396
 20
17.5721
 11
17.5721
 21
16.3396
  0
LINE
  8
0
 10
17.5721
 20
16.3396
 11
19
 21
15.3397
  0
LINE
  8
0
 10
19
 20
15.3397
 11
20.5798
 21
14.6031
  0
LINE
  8
0
 10
20.5798
 20
14.6031
 11
22.2635
 21
14.1519
  0
LINE
  8
0
 10
22.2635
 20
14.1519
 11
24
 21
14
  0
LINE
  8
0
 10
24
 20
14
 11
25.7365
 21
14.1519
  0
LINE
  8
0
 10
22.3492
 20
24.8492
 11
101.545
 21
104.045
  0
LINE
  8
0
 10
101.545
 20
104.045
 11
103.454
 21
102.136
  0
LINE
  8
0
 10
103.454
 20
102.136
 11
24.2584
 21
22.94
  0
LINE
  8
0
 10
24.2584
 20
22.94
 11
22.3492
 21
24.8492
  0
LINE
  8
0
 10
64
 20
84.5
 11
64
 21
87.5
  0
LINE
  8
0
 10
64
 20
87.5
 11
73
 21
87.5
  0
LINE
  8
0
 10
73
 20
87.5
 11
73
 21
84.5
  0
LINE
  8
0
 10
73
 20
84.5
 11
64
 21
84.5
  0
LINE
  8
0
 10
46
 20
84.5
 11
46
 21
87.5
  0
LINE
  8
0
 10
46
 20
87.5
 11
55
 21
87.5
  0
LINE
  8
0
 10
55
 20
87.5
 11
55
 21
84.5
  0
LINE
  8
0
 10
55
 20
84.5
 11
46
 21
84.5
  0
LINE
  8
0
 10
28
 20
84.5
 11
28
 21
87.5
  0
LINE
  8
0
 10
28
 20
87.5
 11
37
 21
87.5
  0
LINE
  8
0
 10
37
 20
87.5
 11
37
 21
84.5
  0
LINE
  8
0
 10
37
 20
84.5
 11
28
 21
84.5
  0
LINE
  8
0
 10
22
 20
72.5
 11
22
 21
81.5
  0
LINE
  8
0
 10
22
 20
81.5
 11
25
 21
81.5
  0
LINE
  8
0
 10
25
 20
81.5
 11
25
 21
72.5
  0
LINE
  8
0
 10
25
 20
72.5
 11
22
 21
72.5
  0
LINE
  8
0
 10
38
 20
71.5
 11
38
 21
73.5
  0
LINE
  8
0
 10
38
 20
73.5
 11
44
 21
73.5
  0
LINE
  8
0
 10
44
 20
73.5
 11
44
 21
71.5
  0
LINE
  8
0
 10
44
 20
71.5
 11
38
 21
71.5
  0
LINE
  8
0
 10
22
 20
54.5
 11
22
 21
63.5
  0
LINE
  8
0
 10
22
 20
63.5
 11
25
 21
63.5
  0
LINE
  8
0
 10
25
 20
63.5
 11
25
 21
54.5
  0
LINE
  8
0
 10
25
 20
54.5
 11
22
 21
54.5
  0
LINE
  8
0
 10
22
 20
36.5
 11
22
 21
45.5
  0
LINE
  8
0
 10
22
 20
45.5
 11
25
 21
45.5
  0
LINE
  8
0
 10
25
 20
45.5
 11
25
 21
36.5
  0
LINE
  8
0
 10
25
 20
36.5
 11
22
 21
36.5
  0
ENDSEC
  0
SECTION
  2
OBJECTS
  0
DICTIONARY
  0
ENDSEC
  0
EOF
