<?xml version="1.0" standalone="no"?>
<!DOCTYPE svg PUBLIC "-//W3C//DTD SVG 1.1//EN" "http://www.w3.org/Graphics/SVG/1.1/DTD/svg11.dtd">
<svg width="98mm" height="98mm" viewBox="14 -112 98 98" xmlns="http://www.w3.org/2000/svg" version="1.1">
<title>OpenSCAD Model</title>
<path d="
M 25.7365,-14.1519 L 27.4202,-14.6031 L 29,-15.3397 L 30.4279,-16.3396 L 109.66,-95.5721 L 110.66,-97
 L 111.397,-98.5798 L 111.848,-100.264 L 112,-102 L 111.848,-103.736 L 111.397,-105.42 L 110.66,-107
 L 109.66,-108.428 L 108.428,-109.66 L 107,-110.66 L 105.42,-111.397 L 103.736,-111.848 L 102,-112
 L 24,-112 L 22.2635,-111.848 L 20.5798,-111.397 L 19,-110.66 L 17.5721,-109.66 L 16.3396,-108.428
 L 15.3397,-107 L 14.6031,-105.42 L 14.1519,-103.736 L 14,-102 L 14,-24 L 14.1519,-22.2635
 L 14.6031,-20.5798 L 15.3397,-19 L 16.3396,-17.5721 L 17.5721,-16.3396 L 19,-15.3397 L 20.5798,-14.6031
 L 22.2635,-14.1519 L 24,-14 z
M 22.3492,-24.8492 L 101.545,-104.045 L 103.454,-102.136 L 24.2584,-22.94 z
M 64,-84.5 L 64,-87.5 L 73,-87.5 L 73,-84.5 z
M 28,-84.5 L 28,-87.5 L 37,-87.5 L 37,-84.5 z
M 46,-84.5 L 46,-87.5 L 55,-87.5 L 55,-84.5 z
M 22,-72.5 L 22,-81.5 L 25,-81.5 L 25,-72.5 z
M 22,-54.5 L 22,-63.5 L 25,-63.5 L 25,-54.5 z
M 22,-36.5 L 22,-45.5 L 25,-45.5 L 25,-36.5 z
" stroke="black" fill="lightgray" stroke-width="0.5"/>
</svg>
