<?xml version="1.0" standalone="no"?>
<!DOCTYPE svg PUBLIC "-//W3C//DTD SVG 1.1//EN" "http://www.w3.org/Graphics/SVG/1.1/DTD/svg11.dtd">
<svg width="110mm" height="57mm" viewBox="-3 -57 110 57" xmlns="http://www.w3.org/2000/svg" version="1.1">
<title>OpenSCAD Model</title>
<path d="
M 103.174,-0.0151825 L 103.342,-0.0603027 L 103.5,-0.133972 L 103.643,-0.233948 L 103.766,-0.357208 L 103.866,-0.5
 L 103.94,-0.657974 L 103.985,-0.82634 L 104,-1 L 104,-9 L 107,-9 L 107,-18
 L 104,-18 L 104,-27 L 107,-27 L 107,-36 L 104,-36 L 104,-45
 L 107,-45 L 107,-54 L 104,-54 L 104,-56 L 103.985,-56.1736 L 103.94,-56.342
 L 103.866,-56.5 L 103.766,-56.6428 L 103.643,-56.766 L 103.5,-56.866 L 103.342,-56.9397 L 103.174,-56.9848
 L 103,-57 L 94.5,-57 L 94.5,-50 L 94.4392,-49.3054 L 94.2588,-48.6319 L 93.9641,-48
 L 93.5642,-47.4288 L 93.0712,-46.9358 L 92.5,-46.5359 L 91.8681,-46.2412 L 91.1946,-46.0608 L 90.5,-46
 L 13.5,-46 L 12.8054,-46.0608 L 12.1319,-46.2412 L 11.5,-46.5359 L 10.9288,-46.9358 L 10.4358,-47.4288
 L 10.0359,-48 L 9.74123,-48.6319 L 9.56076,-49.3054 L 9.5,-50 L 9.5,-57 L 1,-57
 L 0.82634,-56.9848 L 0.657974,-56.9397 L 0.5,-56.866 L 0.357208,-56.766 L 0.233948,-56.6428 L 0.133972,-56.5
 L 0.0603027,-56.342 L 0.0151825,-56.1736 L 0,-56 L 0,-54 L -3,-54 L -3,-45
 L 0,-45 L 0,-36 L -3,-36 L -3,-27 L 0,-27 L 0,-18
 L -3,-18 L -3,-9 L 0,-9 L 0,-1 L 0.0151825,-0.82634 L 0.0603027,-0.657974
 L 0.133972,-0.5 L 0.233948,-0.357208 L 0.357208,-0.233948 L 0.5,-0.133972 L 0.657974,-0.0603027 L 0.82634,-0.0151825
 L 1,-0 L 103,-0 z
M 13.5,-9.5 L 12.8054,-9.56076 L 12.1319,-9.74123 L 11.5,-10.0359 L 10.9288,-10.4358 L 10.4358,-10.9288
 L 10.0359,-11.5 L 9.74123,-12.1319 L 9.56076,-12.8054 L 9.5,-13.5 L 9.5,-32.5 L 9.56076,-33.1946
 L 9.74123,-33.8681 L 10.0359,-34.5 L 10.4358,-35.0712 L 10.9288,-35.5642 L 11.5,-35.9641 L 12.1319,-36.2588
 L 12.8054,-36.4392 L 13.5,-36.5 L 90.5,-36.5 L 91.1946,-36.4392 L 91.8681,-36.2588 L 92.5,-35.9641
 L 93.0712,-35.5642 L 93.5642,-35.0712 L 93.9641,-34.5 L 94.2588,-33.8681 L 94.4392,-33.1946 L 94.5,-32.5
 L 94.5,-13.5 L 94.4392,-12.8054 L 94.2588,-12.1319 L 93.9641,-11.5 L 93.5642,-10.9288 L 93.0712,-10.4358
 L 92.5,-10.0359 L 91.8681,-9.74123 L 91.1946,-9.56076 L 90.5,-9.5 z
" stroke="black" fill="lightgray" stroke-width="0.5"/>
</svg>
