  0
SECTION
  2
BLOCKS
  0
ENDSEC
  0
SECTION
  2
ENTITIES
  0
LINE
  8
0
 10
95.7365
 20
0.151917
 11
97.4202
 21
0.603073
  0
LINE
  8
0
 10
97.4202
 20
0.603073
 11
99
 21
1.33974
  0
LINE
  8
0
 10
99
 20
1.33974
 11
100.428
 21
2.33955
  0
LINE
  8
0
 10
100.428
 20
2.33955
 11
101.66
 21
3.57211
  0
LINE
  8
0
 10
101.66
 20
3.57211
 11
102.66
 21
5
  0
LINE
  8
0
 10
102.66
 20
5
 11
103.397
 21
6.57979
  0
LINE
  8
0
 10
103.397
 20
6.57979
 11
103.848
 21
8.2635
  0
LINE
  8
0
 10
103.848
 20
8.2635
 11
104
 21
10
  0
LINE
  8
0
 10
104
 20
10
 11
104
 21
53
  0
LINE
  8
0
 10
104
 20
53
 11
107
 21
53
  0
LINE
  8
0
 10
107
 20
53
 11
107
 21
62
  0
LINE
  8
0
 10
107
 20
62
 11
104
 21
62
  0
LINE
  8
0
 10
104
 20
62
 11
104
 21
71
  0
LINE
  8
0
 10
104
 20
71
 11
107
 21
71
  0
LINE
  8
0
 10
107
 20
71
 11
107
 21
80
  0
LINE
  8
0
 10
107
 20
80
 11
104
 21
80
  0
LINE
  8
0
 10
104
 20
80
 11
104
 21
89
  0
LINE
  8
0
 10
104
 20
89
 11
107
 21
89
  0
LINE
  8
0
 10
107
 20
89
 11
107
 21
98
  0
LINE
  8
0
 10
107
 20
98
 11
104
 21
98
  0
LINE
  8
0
 10
104
 20
98
 11
104
 21
103
  0
LINE
  8
0
 10
104
 20
103
 11
103.985
 21
103.174
  0
LINE
  8
0
 10
103.985
 20
103.174
 11
103.94
 21
103.342
  0
LINE
  8
0
 10
103.94
 20
103.342
 11
103.866
 21
103.5
  0
LINE
  8
0
 10
103.866
 20
103.5
 11
103.766
 21
103.643
  0
LINE
  8
0
 10
103.766
 20
103.643
 11
103.643
 21
103.766
  0
LINE
  8
0
 10
103.643
 20
103.766
 11
103.5
 21
103.866
  0
LINE
  8
0
 10
103.5
 20
103.866
 11
103.342
 21
103.94
  0
LINE
  8
0
 10
103.342
 20
103.94
 11
103.174
 21
103.985
  0
LINE
  8
0
 10
103.174
 20
103.985
 11
103
 21
104
  0
LINE
  8
0
 10
103
 20
104
 11
1
 21
104
  0
LINE
  8
0
 10
1
 20
104
 11
0.82634
 21
103.985
  0
LINE
  8
0
 10
0.82634
 20
103.985
 11
0.657974
 21
103.94
  0
LINE
  8
0
 10
0.657974
 20
103.94
 11
0.5
 21
103.866
  0
LINE
  8
0
 10
0.5
 20
103.866
 11
0.357208
 21
103.766
  0
LINE
  8
0
 10
0.357208
 20
103.766
 11
0.233948
 21
103.643
  0
LINE
  8
0
 10
0.233948
 20
103.643
 11
0.133972
 21
103.5
  0
LINE
  8
0
 10
0.133972
 20
103.5
 11
0.0603027
 21
103.342
  0
LINE
  8
0
 10
0.0603027
 20
103.342
 11
0.0151825
 21
103.174
  0
LINE
  8
0
 10
0.0151825
 20
103.174
 11
0
 21
103
  0
LINE
  8
0
 10
0
 20
103
 11
0
 21
98
  0
LINE
  8
0
 10
0
 20
98
 11
-3
 21
98
  0
LINE
  8
0
 10
-3
 20
98
 11
-3
 21
89
  0
LINE
  8
0
 10
-3
 20
89
 11
0
 21
89
  0
LINE
  8
0
 10
0
 20
89
 11
0
 21
80
  0
LINE
  8
0
 10
0
 20
80
 11
-3
 21
80
  0
LINE
  8
0
 10
-3
 20
80
 11
-3
 21
71
  0
LINE
  8
0
 10
-3
 20
71
 11
0
 21
71
  0
LINE
  8
0
 10
0
 20
71
 11
0
 21
62
  0
LINE
  8
0
 10
0
 20
62
 11
-3
 21
62
  0
LINE
  8
0
 10
-3
 20
62
 11
-3
 21
53
  0
LINE
  8
0
 10
-3
 20
53
 11
0
 21
53
  0
LINE
  8
0
 10
0
 20
53
 11
0
 21
10
  0
LINE
  8
0
 10
0
 20
10
 11
0.151917
 21
8.2635
  0
LINE
  8
0
 10
0.151917
 20
8.2635
 11
0.603073
 21
6.57979
  0
LINE
  8
0
 10
0.603073
 20
6.57979
 11
1.33974
 21
5
  0
LINE
  8
0
 10
1.33974
 20
5
 11
2.33955
 21
3.57211
  0
LINE
  8
0
 10
2.33955
 20
3.57211
 11
3.57211
 21
2.33955
  0
LINE
  8
0
 10
3.57211
 20
2.33955
 11
5
 21
1.33974
  0
LINE
  8
0
 10
5
 20
1.33974
 11
6.57979
 21
0.603073
  0
LINE
  8
0
 10
6.57979
 20
0.603073
 11
8.2635
 21
0.151917
  0
LINE
  8
0
 10
8.2635
 20
0.151917
 11
10
 21
0
  0
LINE
  8
0
 10
10
 20
0
 11
94
 21
0
  0
LINE
  8
0
 10
94
 20
0
 11
95.7365
 21
0.151917
  0
LINE
  8
0
 10
17.5
 20
11.5
 11
16.4581
 21
11.5911
  0
LINE
  8
0
 10
16.4581
 20
11.5911
 11
15.4479
 21
11.8618
  0
LINE
  8
0
 10
15.4479
 20
11.8618
 11
14.5
 21
12.3038
  0
LINE
  8
0
 10
14.5
 20
12.3038
 11
13.6433
 21
12.9037
  0
LINE
  8
0
 10
13.6433
 20
12.9037
 11
12.9037
 21
13.6433
  0
LINE
  8
0
 10
12.9037
 20
13.6433
 11
12.3038
 21
14.5
  0
LINE
  8
0
 10
12.3038
 20
14.5
 11
11.8618
 21
15.4479
  0
LINE
  8
0
 10
11.8618
 20
15.4479
 11
11.5911
 21
16.4581
  0
LINE
  8
0
 10
11.5911
 20
16.4581
 11
11.5
 21
17.5
  0
LINE
  8
0
 10
11.5
 20
17.5
 11
11.5
 21
87.5
  0
LINE
  8
0
 10
11.5
 20
87.5
 11
11.5911
 21
88.5419
  0
LINE
  8
0
 10
11.5911
 20
88.5419
 11
11.8618
 21
89.5521
  0
LINE
  8
0
 10
11.8618
 20
89.5521
 11
12.3038
 21
90.5
  0
LINE
  8
0
 10
12.3038
 20
90.5
 11
12.9037
 21
91.3567
  0
LINE
  8
0
 10
12.9037
 20
91.3567
 11
13.6433
 21
92.0963
  0
LINE
  8
0
 10
13.6433
 20
92.0963
 11
14.5
 21
92.6962
  0
LINE
  8
0
 10
14.5
 20
92.6962
 11
15.4479
 21
93.1382
  0
LINE
  8
0
 10
15.4479
 20
93.1382
 11
16.4581
 21
93.4088
  0
LINE
  8
0
 10
16.4581
 20
93.4088
 11
17.5
 21
93.5
  0
LINE
  8
0
 10
17.5
 20
93.5
 11
87.5
 21
93.5
  0
LINE
  8
0
 10
87.5
 20
93.5
 11
88.5419
 21
93.4088
  0
LINE
  8
0
 10
88.5419
 20
93.4088
 11
89.5521
 21
93.1382
  0
LINE
  8
0
 10
89.5521
 20
93.1382
 11
90.5
 21
92.6962
  0
LINE
  8
0
 10
90.5
 20
92.6962
 11
91.3567
 21
92.0963
  0
LINE
  8
0
 10
91.3567
 20
92.0963
 11
92.0963
 21
91.3567
  0
LINE
  8
0
 10
92.0963
 20
91.3567
 11
92.6962
 21
90.5
  0
LINE
  8
0
 10
92.6962
 20
90.5
 11
93.1382
 21
89.5521
  0
LINE
  8
0
 10
93.1382
 20
89.5521
 11
93.4088
 21
88.5419
  0
LINE
  8
0
 10
93.4088
 20
88.5419
 11
93.5
 21
87.5
  0
LINE
  8
0
 10
93.5
 20
87.5
 11
93.5
 21
17.5
  0
LINE
  8
0
 10
93.5
 20
17.5
 11
93.4088
 21
16.4581
  0
LINE
  8
0
 10
93.4088
 20
16.4581
 11
93.1382
 21
15.4479
  0
LINE
  8
0
 10
93.1382
 20
15.4479
 11
92.6962
 21
14.5
  0
LINE
  8
0
 10
92.6962
 20
14.5
 11
92.0963
 21
13.6433
  0
LINE
  8
0
 10
92.0963
 20
13.6433
 11
91.3567
 21
12.9037
  0
LINE
  8
0
 10
91.3567
 20
12.9037
 11
90.5
 21
12.3038
  0
LINE
  8
0
 10
90.5
 20
12.3038
 11
89.5521
 21
11.8618
  0
LINE
  8
0
 10
89.5521
 20
11.8618
 11
88.5419
 21
11.5911
  0
LINE
  8
0
 10
88.5419
 20
11.5911
 11
87.5
 21
11.5
  0
LINE
  8
0
 10
87.5
 20
11.5
 11
17.5
 21
11.5
  0
ENDSEC
  0
SECTION
  2
OBJECTS
  0
DICTIONARY
  0
ENDSEC
  0
EOF
