  0
SECTION
  2
BLOCKS
  0
ENDSEC
  0
SECTION
  2
ENTITIES
  0
LINE
  8
0
 10
103.174
 20
0.0151825
 11
103.342
 21
0.0603027
  0
LINE
  8
0
 10
103.342
 20
0.0603027
 11
103.5
 21
0.133972
  0
LINE
  8
0
 10
103.5
 20
0.133972
 11
103.643
 21
0.233948
  0
LINE
  8
0
 10
103.643
 20
0.233948
 11
103.766
 21
0.357208
  0
LINE
  8
0
 10
103.766
 20
0.357208
 11
103.866
 21
0.5
  0
LINE
  8
0
 10
103.866
 20
0.5
 11
103.94
 21
0.657974
  0
LINE
  8
0
 10
103.94
 20
0.657974
 11
103.985
 21
0.82634
  0
LINE
  8
0
 10
103.985
 20
0.82634
 11
104
 21
1
  0
LINE
  8
0
 10
104
 20
1
 11
104
 21
9
  0
LINE
  8
0
 10
104
 20
9
 11
107
 21
9
  0
LINE
  8
0
 10
107
 20
9
 11
107
 21
18
  0
LINE
  8
0
 10
107
 20
18
 11
104
 21
18
  0
LINE
  8
0
 10
104
 20
18
 11
104
 21
27
  0
LINE
  8
0
 10
104
 20
27
 11
107
 21
27
  0
LINE
  8
0
 10
107
 20
27
 11
107
 21
36
  0
LINE
  8
0
 10
107
 20
36
 11
104
 21
36
  0
LINE
  8
0
 10
104
 20
36
 11
104
 21
45
  0
LINE
  8
0
 10
104
 20
45
 11
107
 21
45
  0
LINE
  8
0
 10
107
 20
45
 11
107
 21
54
  0
LINE
  8
0
 10
107
 20
54
 11
104
 21
54
  0
LINE
  8
0
 10
104
 20
54
 11
104
 21
56
  0
LINE
  8
0
 10
104
 20
56
 11
103.985
 21
56.1736
  0
LINE
  8
0
 10
103.985
 20
56.1736
 11
103.94
 21
56.342
  0
LINE
  8
0
 10
103.94
 20
56.342
 11
103.866
 21
56.5
  0
LINE
  8
0
 10
103.866
 20
56.5
 11
103.766
 21
56.6428
  0
LINE
  8
0
 10
103.766
 20
56.6428
 11
103.643
 21
56.766
  0
LINE
  8
0
 10
103.643
 20
56.766
 11
103.5
 21
56.866
  0
LINE
  8
0
 10
103.5
 20
56.866
 11
103.342
 21
56.9397
  0
LINE
  8
0
 10
103.342
 20
56.9397
 11
103.174
 21
56.9848
  0
LINE
  8
0
 10
103.174
 20
56.9848
 11
103
 21
57
  0
LINE
  8
0
 10
103
 20
57
 11
94.5
 21
57
  0
LINE
  8
0
 10
94.5
 20
57
 11
94.5
 21
50
  0
LINE
  8
0
 10
94.5
 20
50
 11
94.4392
 21
49.3054
  0
LINE
  8
0
 10
94.4392
 20
49.3054
 11
94.2588
 21
48.6319
  0
LINE
  8
0
 10
94.2588
 20
48.6319
 11
93.9641
 21
48
  0
LINE
  8
0
 10
93.9641
 20
48
 11
93.5642
 21
47.4288
  0
LINE
  8
0
 10
93.5642
 20
47.4288
 11
93.0712
 21
46.9358
  0
LINE
  8
0
 10
93.0712
 20
46.9358
 11
92.5
 21
46.5359
  0
LINE
  8
0
 10
92.5
 20
46.5359
 11
91.8681
 21
46.2412
  0
LINE
  8
0
 10
91.8681
 20
46.2412
 11
91.1946
 21
46.0608
  0
LINE
  8
0
 10
91.1946
 20
46.0608
 11
90.5
 21
46
  0
LINE
  8
0
 10
90.5
 20
46
 11
13.5
 21
46
  0
LINE
  8
0
 10
13.5
 20
46
 11
12.8054
 21
46.0608
  0
LINE
  8
0
 10
12.8054
 20
46.0608
 11
12.1319
 21
46.2412
  0
LINE
  8
0
 10
12.1319
 20
46.2412
 11
11.5
 21
46.5359
  0
LINE
  8
0
 10
11.5
 20
46.5359
 11
10.9288
 21
46.9358
  0
LINE
  8
0
 10
10.9288
 20
46.9358
 11
10.4358
 21
47.4288
  0
LINE
  8
0
 10
10.4358
 20
47.4288
 11
10.0359
 21
48
  0
LINE
  8
0
 10
10.0359
 20
48
 11
9.74123
 21
48.6319
  0
LINE
  8
0
 10
9.74123
 20
48.6319
 11
9.56076
 21
49.3054
  0
LINE
  8
0
 10
9.56076
 20
49.3054
 11
9.5
 21
50
  0
LINE
  8
0
 10
9.5
 20
50
 11
9.5
 21
57
  0
LINE
  8
0
 10
9.5
 20
57
 11
1
 21
57
  0
LINE
  8
0
 10
1
 20
57
 11
0.82634
 21
56.9848
  0
LINE
  8
0
 10
0.82634
 20
56.9848
 11
0.657974
 21
56.9397
  0
LINE
  8
0
 10
0.657974
 20
56.9397
 11
0.5
 21
56.866
  0
LINE
  8
0
 10
0.5
 20
56.866
 11
0.357208
 21
56.766
  0
LINE
  8
0
 10
0.357208
 20
56.766
 11
0.233948
 21
56.6428
  0
LINE
  8
0
 10
0.233948
 20
56.6428
 11
0.133972
 21
56.5
  0
LINE
  8
0
 10
0.133972
 20
56.5
 11
0.0603027
 21
56.342
  0
LINE
  8
0
 10
0.0603027
 20
56.342
 11
0.0151825
 21
56.1736
  0
LINE
  8
0
 10
0.0151825
 20
56.1736
 11
0
 21
56
  0
LINE
  8
0
 10
0
 20
56
 11
0
 21
54
  0
LINE
  8
0
 10
0
 20
54
 11
-3
 21
54
  0
LINE
  8
0
 10
-3
 20
54
 11
-3
 21
45
  0
LINE
  8
0
 10
-3
 20
45
 11
0
 21
45
  0
LINE
  8
0
 10
0
 20
45
 11
0
 21
36
  0
LINE
  8
0
 10
0
 20
36
 11
-3
 21
36
  0
LINE
  8
0
 10
-3
 20
36
 11
-3
 21
27
  0
LINE
  8
0
 10
-3
 20
27
 11
0
 21
27
  0
LINE
  8
0
 10
0
 20
27
 11
0
 21
18
  0
LINE
  8
0
 10
0
 20
18
 11
-3
 21
18
  0
LINE
  8
0
 10
-3
 20
18
 11
-3
 21
9
  0
LINE
  8
0
 10
-3
 20
9
 11
0
 21
9
  0
LINE
  8
0
 10
0
 20
9
 11
0
 21
1
  0
LINE
  8
0
 10
0
 20
1
 11
0.0151825
 21
0.82634
  0
LINE
  8
0
 10
0.0151825
 20
0.82634
 11
0.0603027
 21
0.657974
  0
LINE
  8
0
 10
0.0603027
 20
0.657974
 11
0.133972
 21
0.5
  0
LINE
  8
0
 10
0.133972
 20
0.5
 11
0.233948
 21
0.357208
  0
LINE
  8
0
 10
0.233948
 20
0.357208
 11
0.357208
 21
0.233948
  0
LINE
  8
0
 10
0.357208
 20
0.233948
 11
0.5
 21
0.133972
  0
LINE
  8
0
 10
0.5
 20
0.133972
 11
0.657974
 21
0.0603027
  0
LINE
  8
0
 10
0.657974
 20
0.0603027
 11
0.82634
 21
0.0151825
  0
LINE
  8
0
 10
0.82634
 20
0.0151825
 11
1
 21
0
  0
LINE
  8
0
 10
1
 20
0
 11
103
 21
0
  0
LINE
  8
0
 10
103
 20
0
 11
103.174
 21
0.0151825
  0
LINE
  8
0
 10
13.5
 20
9.5
 11
12.8054
 21
9.56076
  0
LINE
  8
0
 10
12.8054
 20
9.56076
 11
12.1319
 21
9.74123
  0
LINE
  8
0
 10
12.1319
 20
9.74123
 11
11.5
 21
10.0359
  0
LINE
  8
0
 10
11.5
 20
10.0359
 11
10.9288
 21
10.4358
  0
LINE
  8
0
 10
10.9288
 20
10.4358
 11
10.4358
 21
10.9288
  0
LINE
  8
0
 10
10.4358
 20
10.9288
 11
10.0359
 21
11.5
  0
LINE
  8
0
 10
10.0359
 20
11.5
 11
9.74123
 21
12.1319
  0
LINE
  8
0
 10
9.74123
 20
12.1319
 11
9.56076
 21
12.8054
  0
LINE
  8
0
 10
9.56076
 20
12.8054
 11
9.5
 21
13.5
  0
LINE
  8
0
 10
9.5
 20
13.5
 11
9.5
 21
32.5
  0
LINE
  8
0
 10
9.5
 20
32.5
 11
9.56076
 21
33.1946
  0
LINE
  8
0
 10
9.56076
 20
33.1946
 11
9.74123
 21
33.8681
  0
LINE
  8
0
 10
9.74123
 20
33.8681
 11
10.0359
 21
34.5
  0
LINE
  8
0
 10
10.0359
 20
34.5
 11
10.4358
 21
35.0712
  0
LINE
  8
0
 10
10.4358
 20
35.0712
 11
10.9288
 21
35.5642
  0
LINE
  8
0
 10
10.9288
 20
35.5642
 11
11.5
 21
35.9641
  0
LINE
  8
0
 10
11.5
 20
35.9641
 11
12.1319
 21
36.2588
  0
LINE
  8
0
 10
12.1319
 20
36.2588
 11
12.8054
 21
36.4392
  0
LINE
  8
0
 10
12.8054
 20
36.4392
 11
13.5
 21
36.5
  0
LINE
  8
0
 10
13.5
 20
36.5
 11
90.5
 21
36.5
  0
LINE
  8
0
 10
90.5
 20
36.5
 11
91.1946
 21
36.4392
  0
LINE
  8
0
 10
91.1946
 20
36.4392
 11
91.8681
 21
36.2588
  0
LINE
  8
0
 10
91.8681
 20
36.2588
 11
92.5
 21
35.9641
  0
LINE
  8
0
 10
92.5
 20
35.9641
 11
93.0712
 21
35.5642
  0
LINE
  8
0
 10
93.0712
 20
35.5642
 11
93.5642
 21
35.0712
  0
LINE
  8
0
 10
93.5642
 20
35.0712
 11
93.9641
 21
34.5
  0
LINE
  8
0
 10
93.9641
 20
34.5
 11
94.2588
 21
33.8681
  0
LINE
  8
0
 10
94.2588
 20
33.8681
 11
94.4392
 21
33.1946
  0
LINE
  8
0
 10
94.4392
 20
33.1946
 11
94.5
 21
32.5
  0
LINE
  8
0
 10
94.5
 20
32.5
 11
94.5
 21
13.5
  0
LINE
  8
0
 10
94.5
 20
13.5
 11
94.4392
 21
12.8054
  0
LINE
  8
0
 10
94.4392
 20
12.8054
 11
94.2588
 21
12.1319
  0
LINE
  8
0
 10
94.2588
 20
12.1319
 11
93.9641
 21
11.5
  0
LINE
  8
0
 10
93.9641
 20
11.5
 11
93.5642
 21
10.9288
  0
LINE
  8
0
 10
93.5642
 20
10.9288
 11
93.0712
 21
10.4358
  0
LINE
  8
0
 10
93.0712
 20
10.4358
 11
92.5
 21
10.0359
  0
LINE
  8
0
 10
92.5
 20
10.0359
 11
91.8681
 21
9.74123
  0
LINE
  8
0
 10
91.8681
 20
9.74123
 11
91.1946
 21
9.56076
  0
LINE
  8
0
 10
91.1946
 20
9.56076
 11
90.5
 21
9.5
  0
LINE
  8
0
 10
90.5
 20
9.5
 11
13.5
 21
9.5
  0
ENDSEC
  0
SECTION
  2
OBJECTS
  0
DICTIONARY
  0
ENDSEC
  0
EOF
