<?xml version="1.0" standalone="no"?>
<!DOCTYPE svg PUBLIC "-//W3C//DTD SVG 1.1//EN" "http://www.w3.org/Graphics/SVG/1.1/DTD/svg11.dtd">
<svg width="112mm" height="102mm" viewBox="-5 -102 112 102" xmlns="http://www.w3.org/2000/svg" version="1.1">
<title>OpenSCAD Model</title>
<path d="
M 93.7365,-0.151917 L 95.4202,-0.603073 L 97,-1.33974 L 98.4279,-2.33955 L 99.6604,-3.57211 L 100.66,-5
 L 101.397,-6.57979 L 101.848,-8.2635 L 102,-10 L 102,-47 L 107,-47 L 107,-62
 L 102,-62 L 102,-77 L 107,-77 L 107,-92 L 102,-92 L 102,-101
 L 101.985,-101.174 L 101.94,-101.342 L 101.866,-101.5 L 101.766,-101.643 L 101.643,-101.766 L 101.5,-101.866
 L 101.342,-101.94 L 101.174,-101.985 L 101,-102 L 1,-102 L 0.82634,-101.985 L 0.657974,-101.94
 L 0.5,-101.866 L 0.357208,-101.766 L 0.233948,-101.643 L 0.133972,-101.5 L 0.0603027,-101.342 L 0.0151825,-101.174
 L 0,-101 L 0,-92 L -5,-92 L -5,-77 L 0,-77 L 0,-62
 L -5,-62 L -5,-47 L 0,-47 L 0,-10 L 0.151917,-8.2635 L 0.603073,-6.57979
 L 1.33974,-5 L 2.33955,-3.57211 L 3.57211,-2.33955 L 5,-1.33974 L 6.57979,-0.603073 L 8.2635,-0.151917
 L 10,-0 L 92,-0 z
M 16.5,-10.5 L 15.4581,-10.5911 L 14.4479,-10.8618 L 13.5,-11.3038 L 12.6433,-11.9037 L 11.9037,-12.6433
 L 11.3038,-13.5 L 10.8618,-14.4479 L 10.5911,-15.4581 L 10.5,-16.5 L 10.5,-86.5 L 10.5911,-87.5419
 L 10.8618,-88.5521 L 11.3038,-89.5 L 11.9037,-90.3567 L 12.6433,-91.0963 L 13.5,-91.6962 L 14.4479,-92.1382
 L 15.4581,-92.4088 L 16.5,-92.5 L 86.5,-92.5 L 87.5419,-92.4088 L 88.5521,-92.1382 L 89.5,-91.6962
 L 90.3567,-91.0963 L 91.0963,-90.3567 L 91.6962,-89.5 L 92.1382,-88.5521 L 92.4088,-87.5419 L 92.5,-86.5
 L 92.5,-16.5 L 92.4088,-15.4581 L 92.1382,-14.4479 L 91.6962,-13.5 L 91.0963,-12.6433 L 90.3567,-11.9037
 L 89.5,-11.3038 L 88.5521,-10.8618 L 87.5419,-10.5911 L 86.5,-10.5 z
" stroke="black" fill="lightgray" stroke-width="0.5"/>
</svg>
