  0
SECTION
  2
BLOCKS
  0
ENDSEC
  0
SECTION
  2
ENTITIES
  0
LINE
  8
0
 10
93.7365
 20
0.151917
 11
95.4202
 21
0.603073
  0
LINE
  8
0
 10
95.4202
 20
0.603073
 11
97
 21
1.33974
  0
LINE
  8
0
 10
97
 20
1.33974
 11
98.4279
 21
2.33955
  0
LINE
  8
0
 10
98.4279
 20
2.33955
 11
99.6604
 21
3.57211
  0
LINE
  8
0
 10
99.6604
 20
3.57211
 11
100.66
 21
5
  0
LINE
  8
0
 10
100.66
 20
5
 11
101.397
 21
6.57979
  0
LINE
  8
0
 10
101.397
 20
6.57979
 11
101.848
 21
8.2635
  0
LINE
  8
0
 10
101.848
 20
8.2635
 11
102
 21
10
  0
LINE
  8
0
 10
102
 20
10
 11
102
 21
47
  0
LINE
  8
0
 10
102
 20
47
 11
107
 21
47
  0
LINE
  8
0
 10
107
 20
47
 11
107
 21
62
  0
LINE
  8
0
 10
107
 20
62
 11
102
 21
62
  0
LINE
  8
0
 10
102
 20
62
 11
102
 21
77
  0
LINE
  8
0
 10
102
 20
77
 11
107
 21
77
  0
LINE
  8
0
 10
107
 20
77
 11
107
 21
92
  0
LINE
  8
0
 10
107
 20
92
 11
102
 21
92
  0
LINE
  8
0
 10
102
 20
92
 11
102
 21
101
  0
LINE
  8
0
 10
102
 20
101
 11
101.985
 21
101.174
  0
LINE
  8
0
 10
101.985
 20
101.174
 11
101.94
 21
101.342
  0
LINE
  8
0
 10
101.94
 20
101.342
 11
101.866
 21
101.5
  0
LINE
  8
0
 10
101.866
 20
101.5
 11
101.766
 21
101.643
  0
LINE
  8
0
 10
101.766
 20
101.643
 11
101.643
 21
101.766
  0
LINE
  8
0
 10
101.643
 20
101.766
 11
101.5
 21
101.866
  0
LINE
  8
0
 10
101.5
 20
101.866
 11
101.342
 21
101.94
  0
LINE
  8
0
 10
101.342
 20
101.94
 11
101.174
 21
101.985
  0
LINE
  8
0
 10
101.174
 20
101.985
 11
101
 21
102
  0
LINE
  8
0
 10
101
 20
102
 11
1
 21
102
  0
LINE
  8
0
 10
1
 20
102
 11
0.82634
 21
101.985
  0
LINE
  8
0
 10
0.82634
 20
101.985
 11
0.657974
 21
101.94
  0
LINE
  8
0
 10
0.657974
 20
101.94
 11
0.5
 21
101.866
  0
LINE
  8
0
 10
0.5
 20
101.866
 11
0.357208
 21
101.766
  0
LINE
  8
0
 10
0.357208
 20
101.766
 11
0.233948
 21
101.643
  0
LINE
  8
0
 10
0.233948
 20
101.643
 11
0.133972
 21
101.5
  0
LINE
  8
0
 10
0.133972
 20
101.5
 11
0.0603027
 21
101.342
  0
LINE
  8
0
 10
0.0603027
 20
101.342
 11
0.0151825
 21
101.174
  0
LINE
  8
0
 10
0.0151825
 20
101.174
 11
0
 21
101
  0
LINE
  8
0
 10
0
 20
101
 11
0
 21
92
  0
LINE
  8
0
 10
0
 20
92
 11
-5
 21
92
  0
LINE
  8
0
 10
-5
 20
92
 11
-5
 21
77
  0
LINE
  8
0
 10
-5
 20
77
 11
0
 21
77
  0
LINE
  8
0
 10
0
 20
77
 11
0
 21
62
  0
LINE
  8
0
 10
0
 20
62
 11
-5
 21
62
  0
LINE
  8
0
 10
-5
 20
62
 11
-5
 21
47
  0
LINE
  8
0
 10
-5
 20
47
 11
0
 21
47
  0
LINE
  8
0
 10
0
 20
47
 11
0
 21
10
  0
LINE
  8
0
 10
0
 20
10
 11
0.151917
 21
8.2635
  0
LINE
  8
0
 10
0.151917
 20
8.2635
 11
0.603073
 21
6.57979
  0
LINE
  8
0
 10
0.603073
 20
6.57979
 11
1.33974
 21
5
  0
LINE
  8
0
 10
1.33974
 20
5
 11
2.33955
 21
3.57211
  0
LINE
  8
0
 10
2.33955
 20
3.57211
 11
3.57211
 21
2.33955
  0
LINE
  8
0
 10
3.57211
 20
2.33955
 11
5
 21
1.33974
  0
LINE
  8
0
 10
5
 20
1.33974
 11
6.57979
 21
0.603073
  0
LINE
  8
0
 10
6.57979
 20
0.603073
 11
8.2635
 21
0.151917
  0
LINE
  8
0
 10
8.2635
 20
0.151917
 11
10
 21
0
  0
LINE
  8
0
 10
10
 20
0
 11
92
 21
0
  0
LINE
  8
0
 10
92
 20
0
 11
93.7365
 21
0.151917
  0
LINE
  8
0
 10
16.5
 20
10.5
 11
15.4581
 21
10.5911
  0
LINE
  8
0
 10
15.4581
 20
10.5911
 11
14.4479
 21
10.8618
  0
LINE
  8
0
 10
14.4479
 20
10.8618
 11
13.5
 21
11.3038
  0
LINE
  8
0
 10
13.5
 20
11.3038
 11
12.6433
 21
11.9037
  0
LINE
  8
0
 10
12.6433
 20
11.9037
 11
11.9037
 21
12.6433
  0
LINE
  8
0
 10
11.9037
 20
12.6433
 11
11.3038
 21
13.5
  0
LINE
  8
0
 10
11.3038
 20
13.5
 11
10.8618
 21
14.4479
  0
LINE
  8
0
 10
10.8618
 20
14.4479
 11
10.5911
 21
15.4581
  0
LINE
  8
0
 10
10.5911
 20
15.4581
 11
10.5
 21
16.5
  0
LINE
  8
0
 10
10.5
 20
16.5
 11
10.5
 21
86.5
  0
LINE
  8
0
 10
10.5
 20
86.5
 11
10.5911
 21
87.5419
  0
LINE
  8
0
 10
10.5911
 20
87.5419
 11
10.8618
 21
88.5521
  0
LINE
  8
0
 10
10.8618
 20
88.5521
 11
11.3038
 21
89.5
  0
LINE
  8
0
 10
11.3038
 20
89.5
 11
11.9037
 21
90.3567
  0
LINE
  8
0
 10
11.9037
 20
90.3567
 11
12.6433
 21
91.0963
  0
LINE
  8
0
 10
12.6433
 20
91.0963
 11
13.5
 21
91.6962
  0
LINE
  8
0
 10
13.5
 20
91.6962
 11
14.4479
 21
92.1382
  0
LINE
  8
0
 10
14.4479
 20
92.1382
 11
15.4581
 21
92.4088
  0
LINE
  8
0
 10
15.4581
 20
92.4088
 11
16.5
 21
92.5
  0
LINE
  8
0
 10
16.5
 20
92.5
 11
86.5
 21
92.5
  0
LINE
  8
0
 10
86.5
 20
92.5
 11
87.5419
 21
92.4088
  0
LINE
  8
0
 10
87.5419
 20
92.4088
 11
88.5521
 21
92.1382
  0
LINE
  8
0
 10
88.5521
 20
92.1382
 11
89.5
 21
91.6962
  0
LINE
  8
0
 10
89.5
 20
91.6962
 11
90.3567
 21
91.0963
  0
LINE
  8
0
 10
90.3567
 20
91.0963
 11
91.0963
 21
90.3567
  0
LINE
  8
0
 10
91.0963
 20
90.3567
 11
91.6962
 21
89.5
  0
LINE
  8
0
 10
91.6962
 20
89.5
 11
92.1382
 21
88.5521
  0
LINE
  8
0
 10
92.1382
 20
88.5521
 11
92.4088
 21
87.5419
  0
LINE
  8
0
 10
92.4088
 20
87.5419
 11
92.5
 21
86.5
  0
LINE
  8
0
 10
92.5
 20
86.5
 11
92.5
 21
16.5
  0
LINE
  8
0
 10
92.5
 20
16.5
 11
92.4088
 21
15.4581
  0
LINE
  8
0
 10
92.4088
 20
15.4581
 11
92.1382
 21
14.4479
  0
LINE
  8
0
 10
92.1382
 20
14.4479
 11
91.6962
 21
13.5
  0
LINE
  8
0
 10
91.6962
 20
13.5
 11
91.0963
 21
12.6433
  0
LINE
  8
0
 10
91.0963
 20
12.6433
 11
90.3567
 21
11.9037
  0
LINE
  8
0
 10
90.3567
 20
11.9037
 11
89.5
 21
11.3038
  0
LINE
  8
0
 10
89.5
 20
11.3038
 11
88.5521
 21
10.8618
  0
LINE
  8
0
 10
88.5521
 20
10.8618
 11
87.5419
 21
10.5911
  0
LINE
  8
0
 10
87.5419
 20
10.5911
 11
86.5
 21
10.5
  0
LINE
  8
0
 10
86.5
 20
10.5
 11
16.5
 21
10.5
  0
ENDSEC
  0
SECTION
  2
OBJECTS
  0
DICTIONARY
  0
ENDSEC
  0
EOF
