<?xml version="1.0" standalone="no"?>
<!DOCTYPE svg PUBLIC "-//W3C//DTD SVG 1.1//EN" "http://www.w3.org/Graphics/SVG/1.1/DTD/svg11.dtd">
<svg width="1940mm" height="470mm" viewBox="20 -485 1940 470" xmlns="http://www.w3.org/2000/svg" version="1.1">
<title>OpenSCAD Model</title>
<path d="
M 1020.35,-250.003 L 1020.7,-250.012 L 1021.05,-250.027 L 1021.4,-250.049 L 1021.74,-250.076 L 1451.74,-285.076
 L 1452.09,-285.11 L 1452.44,-285.149 L 1452.78,-285.195 L 1453.13,-285.246 L 1453.47,-285.304 L 1453.82,-285.367
 L 1454.16,-285.437 L 1454.5,-285.513 L 1454.84,-285.594 L 1455.18,-285.681 L 1455.51,-285.775 L 1455.85,-285.874
 L 1456.18,-285.979 L 1456.51,-286.09 L 1456.84,-286.206 L 1457.17,-286.328 L 1457.49,-286.456 L 1457.81,-286.59
 L 1458.13,-286.729 L 1458.45,-286.874 L 1458.77,-287.024 L 1459.08,-287.18 L 1459.39,-287.341 L 1459.7,-287.508
 L 1460,-287.68 L 1460.3,-287.857 L 1460.6,-288.039 L 1460.89,-288.227 L 1461.18,-288.419 L 1461.47,-288.617
 L 1461.76,-288.82 L 1462.04,-289.027 L 1462.31,-289.24 L 1462.59,-289.457 L 1462.86,-289.679 L 1463.12,-289.906
 L 1463.38,-290.137 L 1463.64,-290.373 L 1463.89,-290.613 L 1464.14,-290.858 L 1464.39,-291.107 L 1464.63,-291.36
 L 1464.86,-291.617 L 1465.09,-291.879 L 1465.32,-292.144 L 1465.54,-292.414 L 1465.76,-292.687 L 1465.97,-292.964
 L 1466.18,-293.244 L 1466.38,-293.528 L 1466.58,-293.816 L 1466.77,-294.107 L 1466.96,-294.402 L 1467.14,-294.699
 L 1467.32,-295 L 1467.49,-295.304 L 1467.66,-295.611 L 1467.82,-295.92 L 1467.98,-296.233 L 1468.13,-296.548
 L 1468.27,-296.865 L 1468.41,-297.185 L 1468.54,-297.508 L 1468.67,-297.833 L 1468.79,-298.16 L 1468.91,-298.489
 L 1469.02,-298.82 L 1469.13,-299.153 L 1469.23,-299.487 L 1469.32,-299.824 L 1469.41,-300.162 L 1469.49,-300.501
 L 1469.56,-300.842 L 1469.63,-301.184 L 1469.7,-301.527 L 1469.75,-301.871 L 1469.81,-302.217 L 1469.85,-302.563
 L 1469.89,-302.909 L 1469.92,-303.257 L 1469.95,-303.605 L 1469.97,-303.953 L 1469.99,-304.302 L 1470,-304.651
 L 1470,-305 L 1470,-375 L 1443,-375 L 1443,-411.667 L 1470,-411.667 L 1470,-448.333
 L 1443,-448.333 L 1443,-485 L 1235,-485 L 1235,-430 L 1208,-430 L 1208,-485
 L 1020,-485 L 1019.65,-484.997 L 1019.3,-484.988 L 1018.95,-484.973 L 1018.6,-484.951 L 1018.26,-484.924
 L 1017.91,-484.89 L 1017.56,-484.851 L 1017.22,-484.805 L 1016.87,-484.754 L 1016.53,-484.696 L 1016.18,-484.633
 L 1015.84,-484.563 L 1015.5,-484.487 L 1015.16,-484.406 L 1014.82,-484.319 L 1014.49,-484.225 L 1014.15,-484.126
 L 1013.82,-484.021 L 1013.49,-483.91 L 1013.16,-483.794 L 1012.83,-483.672 L 1012.51,-483.544 L 1012.19,-483.41
 L 1011.87,-483.271 L 1011.55,-483.126 L 1011.23,-482.976 L 1010.92,-482.82 L 1010.61,-482.659 L 1010.3,-482.492
 L 1010,-482.32 L 1009.7,-482.143 L 1009.4,-481.961 L 1009.11,-481.773 L 1008.82,-481.581 L 1008.53,-481.383
 L 1008.24,-481.18 L 1007.96,-480.973 L 1007.69,-480.76 L 1007.41,-480.543 L 1007.14,-480.321 L 1006.88,-480.094
 L 1006.62,-479.863 L 1006.36,-479.627 L 1006.11,-479.387 L 1005.86,-479.142 L 1005.61,-478.893 L 1005.37,-478.64
 L 1005.14,-478.383 L 1004.91,-478.121 L 1004.68,-477.856 L 1004.46,-477.586 L 1004.24,-477.313 L 1004.03,-477.036
 L 1003.82,-476.756 L 1003.62,-476.472 L 1003.42,-476.184 L 1003.23,-475.893 L 1003.04,-475.598 L 1002.86,-475.301
 L 1002.68,-475 L 1002.51,-474.696 L 1002.34,-474.389 L 1002.18,-474.08 L 1002.02,-473.767 L 1001.87,-473.452
 L 1001.73,-473.135 L 1001.59,-472.815 L 1001.46,-472.492 L 1001.33,-472.167 L 1001.21,-471.84 L 1001.09,-471.511
 L 1000.98,-471.18 L 1000.87,-470.847 L 1000.77,-470.513 L 1000.68,-470.176 L 1000.59,-469.838 L 1000.51,-469.499
 L 1000.44,-469.158 L 1000.37,-468.816 L 1000.3,-468.473 L 1000.25,-468.129 L 1000.19,-467.783 L 1000.15,-467.437
 L 1000.11,-467.091 L 1000.08,-466.743 L 1000.05,-466.395 L 1000.03,-466.047 L 1000.01,-465.698 L 1000,-465.349
 L 1000,-465 L 1000,-270 L 1000,-269.651 L 1000.01,-269.302 L 1000.03,-268.953 L 1000.05,-268.605
 L 1000.08,-268.257 L 1000.11,-267.909 L 1000.15,-267.563 L 1000.19,-267.217 L 1000.25,-266.871 L 1000.3,-266.527
 L 1000.37,-266.184 L 1000.44,-265.842 L 1000.51,-265.501 L 1000.59,-265.162 L 1000.68,-264.824 L 1000.77,-264.487
 L 1000.87,-264.153 L 1000.98,-263.82 L 1001.09,-263.489 L 1001.21,-263.16 L 1001.33,-262.833 L 1001.46,-262.508
 L 1001.59,-262.185 L 1001.73,-261.865 L 1001.87,-261.548 L 1002.02,-261.233 L 1002.18,-260.92 L 1002.34,-260.611
 L 1002.51,-260.304 L 1002.68,-260 L 1002.86,-259.699 L 1003.04,-259.402 L 1003.23,-259.107 L 1003.42,-258.816
 L 1003.62,-258.528 L 1003.82,-258.244 L 1004.03,-257.964 L 1004.24,-257.687 L 1004.46,-257.414 L 1004.68,-257.144
 L 1004.91,-256.879 L 1005.14,-256.617 L 1005.37,-256.36 L 1005.61,-256.107 L 1005.86,-255.858 L 1006.11,-255.613
 L 1006.36,-255.373 L 1006.62,-255.137 L 1006.88,-254.906 L 1007.14,-254.679 L 1007.41,-254.457 L 1007.69,-254.24
 L 1007.96,-254.027 L 1008.24,-253.82 L 1008.53,-253.617 L 1008.82,-253.419 L 1009.11,-253.227 L 1009.4,-253.039
 L 1009.7,-252.857 L 1010,-252.68 L 1010.3,-252.508 L 1010.61,-252.341 L 1010.92,-252.18 L 1011.23,-252.024
 L 1011.55,-251.874 L 1011.87,-251.729 L 1012.19,-251.59 L 1012.51,-251.456 L 1012.83,-251.328 L 1013.16,-251.206
 L 1013.49,-251.09 L 1013.82,-250.979 L 1014.15,-250.874 L 1014.49,-250.775 L 1014.82,-250.681 L 1015.16,-250.594
 L 1015.5,-250.513 L 1015.84,-250.437 L 1016.18,-250.367 L 1016.53,-250.304 L 1016.87,-250.246 L 1017.22,-250.195
 L 1017.56,-250.149 L 1017.91,-250.11 L 1018.26,-250.076 L 1018.6,-250.049 L 1018.95,-250.027 L 1019.3,-250.012
 L 1019.65,-250.003 L 1020,-250 z
M 1510.35,-250.003 L 1510.7,-250.012 L 1511.05,-250.027 L 1511.4,-250.049 L 1511.74,-250.076 L 1941.74,-285.076
 L 1942.09,-285.11 L 1942.44,-285.149 L 1942.78,-285.195 L 1943.13,-285.246 L 1943.47,-285.304 L 1943.82,-285.367
 L 1944.16,-285.437 L 1944.5,-285.513 L 1944.84,-285.594 L 1945.18,-285.681 L 1945.51,-285.775 L 1945.85,-285.874
 L 1946.18,-285.979 L 1946.51,-286.09 L 1946.84,-286.206 L 1947.17,-286.328 L 1947.49,-286.456 L 1947.81,-286.59
 L 1948.13,-286.729 L 1948.45,-286.874 L 1948.77,-287.024 L 1949.08,-287.18 L 1949.39,-287.341 L 1949.7,-287.508
 L 1950,-287.68 L 1950.3,-287.857 L 1950.6,-288.039 L 1950.89,-288.227 L 1951.18,-288.419 L 1951.47,-288.617
 L 1951.76,-288.82 L 1952.04,-289.027 L 1952.31,-289.24 L 1952.59,-289.457 L 1952.86,-289.679 L 1953.12,-289.906
 L 1953.38,-290.137 L 1953.64,-290.373 L 1953.89,-290.613 L 1954.14,-290.858 L 1954.39,-291.107 L 1954.63,-291.36
 L 1954.86,-291.617 L 1955.09,-291.879 L 1955.32,-292.144 L 1955.54,-292.414 L 1955.76,-292.687 L 1955.97,-292.964
 L 1956.18,-293.244 L 1956.38,-293.528 L 1956.58,-293.816 L 1956.77,-294.107 L 1956.96,-294.402 L 1957.14,-294.699
 L 1957.32,-295 L 1957.49,-295.304 L 1957.66,-295.611 L 1957.82,-295.92 L 1957.98,-296.233 L 1958.13,-296.548
 L 1958.27,-296.865 L 1958.41,-297.185 L 1958.54,-297.508 L 1958.67,-297.833 L 1958.79,-298.16 L 1958.91,-298.489
 L 1959.02,-298.82 L 1959.13,-299.153 L 1959.23,-299.487 L 1959.32,-299.824 L 1959.41,-300.162 L 1959.49,-300.501
 L 1959.56,-300.842 L 1959.63,-301.184 L 1959.7,-301.527 L 1959.75,-301.871 L 1959.81,-302.217 L 1959.85,-302.563
 L 1959.89,-302.909 L 1959.92,-303.257 L 1959.95,-303.605 L 1959.97,-303.953 L 1959.99,-304.302 L 1960,-304.651
 L 1960,-305 L 1960,-375 L 1933,-375 L 1933,-411.667 L 1960,-411.667 L 1960,-448.333
 L 1933,-448.333 L 1933,-485 L 1725,-485 L 1725,-430 L 1698,-430 L 1698,-485
 L 1510,-485 L 1509.65,-484.997 L 1509.3,-484.988 L 1508.95,-484.973 L 1508.6,-484.951 L 1508.26,-484.924
 L 1507.91,-484.89 L 1507.56,-484.851 L 1507.22,-484.805 L 1506.87,-484.754 L 1506.53,-484.696 L 1506.18,-484.633
 L 1505.84,-484.563 L 1505.5,-484.487 L 1505.16,-484.406 L 1504.82,-484.319 L 1504.49,-484.225 L 1504.15,-484.126
 L 1503.82,-484.021 L 1503.49,-483.91 L 1503.16,-483.794 L 1502.83,-483.672 L 1502.51,-483.544 L 1502.19,-483.41
 L 1501.87,-483.271 L 1501.55,-483.126 L 1501.23,-482.976 L 1500.92,-482.82 L 1500.61,-482.659 L 1500.3,-482.492
 L 1500,-482.32 L 1499.7,-482.143 L 1499.4,-481.961 L 1499.11,-481.773 L 1498.82,-481.581 L 1498.53,-481.383
 L 1498.24,-481.18 L 1497.96,-480.973 L 1497.69,-480.76 L 1497.41,-480.543 L 1497.14,-480.321 L 1496.88,-480.094
 L 1496.62,-479.863 L 1496.36,-479.627 L 1496.11,-479.387 L 1495.86,-479.142 L 1495.61,-478.893 L 1495.37,-478.64
 L 1495.14,-478.383 L 1494.91,-478.121 L 1494.68,-477.856 L 1494.46,-477.586 L 1494.24,-477.313 L 1494.03,-477.036
 L 1493.82,-476.756 L 1493.62,-476.472 L 1493.42,-476.184 L 1493.23,-475.893 L 1493.04,-475.598 L 1492.86,-475.301
 L 1492.68,-475 L 1492.51,-474.696 L 1492.34,-474.389 L 1492.18,-474.08 L 1492.02,-473.767 L 1491.87,-473.452
 L 1491.73,-473.135 L 1491.59,-472.815 L 1491.46,-472.492 L 1491.33,-472.167 L 1491.21,-471.84 L 1491.09,-471.511
 L 1490.98,-471.18 L 1490.87,-470.847 L 1490.77,-470.513 L 1490.68,-470.176 L 1490.59,-469.838 L 1490.51,-469.499
 L 1490.44,-469.158 L 1490.37,-468.816 L 1490.3,-468.473 L 1490.25,-468.129 L 1490.19,-467.783 L 1490.15,-467.437
 L 1490.11,-467.091 L 1490.08,-466.743 L 1490.05,-466.395 L 1490.03,-466.047 L 1490.01,-465.698 L 1490,-465.349
 L 1490,-465 L 1490,-270 L 1490,-269.651 L 1490.01,-269.302 L 1490.03,-268.953 L 1490.05,-268.605
 L 1490.08,-268.257 L 1490.11,-267.909 L 1490.15,-267.563 L 1490.19,-267.217 L 1490.25,-266.871 L 1490.3,-266.527
 L 1490.37,-266.184 L 1490.44,-265.842 L 1490.51,-265.501 L 1490.59,-265.162 L 1490.68,-264.824 L 1490.77,-264.487
 L 1490.87,-264.153 L 1490.98,-263.82 L 1491.09,-263.489 L 1491.21,-263.16 L 1491.33,-262.833 L 1491.46,-262.508
 L 1491.59,-262.185 L 1491.73,-261.865 L 1491.87,-261.548 L 1492.02,-261.233 L 1492.18,-260.92 L 1492.34,-260.611
 L 1492.51,-260.304 L 1492.68,-260 L 1492.86,-259.699 L 1493.04,-259.402 L 1493.23,-259.107 L 1493.42,-258.816
 L 1493.62,-258.528 L 1493.82,-258.244 L 1494.03,-257.964 L 1494.24,-257.687 L 1494.46,-257.414 L 1494.68,-257.144
 L 1494.91,-256.879 L 1495.14,-256.617 L 1495.37,-256.36 L 1495.61,-256.107 L 1495.86,-255.858 L 1496.11,-255.613
 L 1496.36,-255.373 L 1496.62,-255.137 L 1496.88,-254.906 L 1497.14,-254.679 L 1497.41,-254.457 L 1497.69,-254.24
 L 1497.96,-254.027 L 1498.24,-253.82 L 1498.53,-253.617 L 1498.82,-253.419 L 1499.11,-253.227 L 1499.4,-253.039
 L 1499.7,-252.857 L 1500,-252.68 L 1500.3,-252.508 L 1500.61,-252.341 L 1500.92,-252.18 L 1501.23,-252.024
 L 1501.55,-251.874 L 1501.87,-251.729 L 1502.19,-251.59 L 1502.51,-251.456 L 1502.83,-251.328 L 1503.16,-251.206
 L 1503.49,-251.09 L 1503.82,-250.979 L 1504.15,-250.874 L 1504.49,-250.775 L 1504.82,-250.681 L 1505.16,-250.594
 L 1505.5,-250.513 L 1505.84,-250.437 L 1506.18,-250.367 L 1506.53,-250.304 L 1506.87,-250.246 L 1507.22,-250.195
 L 1507.56,-250.149 L 1507.91,-250.11 L 1508.26,-250.076 L 1508.6,-250.049 L 1508.95,-250.027 L 1509.3,-250.012
 L 1509.65,-250.003 L 1510,-250 z
M 259.101,-15.0358 L 263.201,-15.1432 L 267.299,-15.3221 L 271.393,-15.5724 L 275.482,-15.8943 L 279.564,-16.2874
 L 283.639,-16.7517 L 287.706,-17.287 L 291.762,-17.8932 L 295.807,-18.5702 L 299.84,-19.3176 L 303.859,-20.1353
 L 307.863,-21.023 L 311.852,-21.9805 L 315.822,-23.0074 L 319.775,-24.1035 L 323.707,-25.2684 L 327.619,-26.5017
 L 331.509,-27.8031 L 335.375,-29.1722 L 339.216,-30.6086 L 343.033,-32.1118 L 346.822,-33.6814 L 350.583,-35.3168
 L 354.315,-37.0177 L 358.017,-38.7834 L 361.688,-40.6135 L 365.326,-42.5073 L 368.93,-44.4644 L 372.5,-46.484
 L 376.034,-48.5657 L 379.531,-50.7087 L 382.99,-52.9124 L 386.41,-55.1762 L 389.79,-57.4993 L 393.13,-59.881
 L 396.427,-62.3207 L 399.68,-64.8175 L 402.89,-67.3707 L 406.055,-69.9796 L 409.174,-72.6432 L 412.246,-75.361
 L 415.27,-78.1319 L 418.245,-80.9552 L 421.17,-83.8299 L 424.045,-86.7553 L 426.868,-89.7304 L 429.639,-92.7543
 L 432.357,-95.8261 L 435.02,-98.9449 L 437.629,-102.11 L 440.183,-105.32 L 442.679,-108.573 L 445.119,-111.87
 L 447.501,-115.21 L 449.824,-118.59 L 452.088,-122.01 L 454.291,-125.469 L 456.434,-128.966 L 458.516,-132.5
 L 460.536,-136.07 L 462.493,-139.674 L 464.387,-143.312 L 466.217,-146.983 L 467.982,-150.685 L 469.683,-154.417
 L 471.319,-158.178 L 472.888,-161.967 L 474.391,-165.784 L 475.828,-169.625 L 477.197,-173.491 L 478.498,-177.381
 L 479.732,-181.293 L 480.896,-185.225 L 481.993,-189.178 L 483.019,-193.148 L 483.977,-197.137 L 484.865,-201.141
 L 485.682,-205.16 L 486.43,-209.193 L 487.107,-213.238 L 487.713,-217.294 L 488.248,-221.361 L 488.713,-225.436
 L 489.106,-229.518 L 489.428,-233.607 L 489.678,-237.701 L 489.857,-241.799 L 489.964,-245.899 L 490,-250
 L 489.964,-254.101 L 489.857,-258.201 L 489.678,-262.299 L 489.428,-266.393 L 489.106,-270.482 L 488.713,-274.564
 L 488.248,-278.639 L 487.713,-282.706 L 487.107,-286.762 L 486.43,-290.807 L 485.682,-294.84 L 484.865,-298.859
 L 483.977,-302.863 L 483.019,-306.852 L 481.993,-310.822 L 480.896,-314.775 L 479.732,-318.707 L 478.498,-322.619
 L 477.197,-326.509 L 475.828,-330.375 L 474.391,-334.216 L 472.888,-338.033 L 471.319,-341.822 L 469.683,-345.583
 L 467.982,-349.315 L 466.217,-353.017 L 464.387,-356.688 L 462.493,-360.326 L 460.536,-363.93 L 458.516,-367.5
 L 456.434,-371.034 L 454.291,-374.531 L 452.088,-377.99 L 449.824,-381.41 L 447.501,-384.79 L 445.119,-388.13
 L 442.679,-391.427 L 440.183,-394.68 L 437.629,-397.89 L 435.02,-401.055 L 432.357,-404.174 L 429.639,-407.246
 L 426.868,-410.27 L 424.045,-413.245 L 421.17,-416.17 L 418.245,-419.045 L 415.27,-421.868 L 412.246,-424.639
 L 409.174,-427.357 L 406.055,-430.02 L 402.89,-432.629 L 399.68,-435.183 L 396.427,-437.679 L 393.13,-440.119
 L 389.79,-442.501 L 386.41,-444.824 L 382.99,-447.088 L 379.531,-449.291 L 376.034,-451.434 L 372.5,-453.516
 L 368.93,-455.536 L 365.326,-457.493 L 361.688,-459.387 L 358.017,-461.217 L 354.315,-462.982 L 350.583,-464.683
 L 346.822,-466.319 L 343.033,-467.888 L 339.216,-469.391 L 335.375,-470.828 L 331.509,-472.197 L 327.619,-473.498
 L 323.707,-474.732 L 319.775,-475.896 L 315.822,-476.993 L 311.852,-478.019 L 307.863,-478.977 L 303.859,-479.865
 L 299.84,-480.682 L 295.807,-481.43 L 291.762,-482.107 L 287.706,-482.713 L 283.639,-483.248 L 279.564,-483.713
 L 275.482,-484.106 L 271.393,-484.428 L 267.299,-484.678 L 263.201,-484.857 L 259.101,-484.964 L 255,-485
 L 250.899,-484.964 L 246.799,-484.857 L 242.701,-484.678 L 238.607,-484.428 L 234.518,-484.106 L 230.436,-483.713
 L 226.361,-483.248 L 222.294,-482.713 L 218.238,-482.107 L 214.193,-481.43 L 210.16,-480.682 L 206.141,-479.865
 L 202.137,-478.977 L 198.148,-478.019 L 194.178,-476.993 L 190.225,-475.896 L 186.293,-474.732 L 182.381,-473.498
 L 178.491,-472.197 L 174.625,-470.828 L 170.784,-469.391 L 166.967,-467.888 L 163.178,-466.319 L 159.417,-464.683
 L 155.685,-462.982 L 151.983,-461.217 L 148.312,-459.387 L 144.674,-457.493 L 141.07,-455.536 L 137.5,-453.516
 L 133.966,-451.434 L 130.469,-449.291 L 127.01,-447.088 L 123.59,-444.824 L 120.21,-442.501 L 116.87,-440.119
 L 113.573,-437.679 L 110.32,-435.183 L 107.11,-432.629 L 103.945,-430.02 L 100.826,-427.357 L 97.7543,-424.639
 L 94.7304,-421.868 L 91.7553,-419.045 L 88.8299,-416.17 L 85.9552,-413.245 L 83.1319,-410.27 L 80.361,-407.246
 L 77.6432,-404.174 L 74.9796,-401.055 L 72.3707,-397.89 L 69.8175,-394.68 L 67.3207,-391.427 L 64.881,-388.13
 L 62.4993,-384.79 L 60.1762,-381.41 L 57.9124,-377.99 L 55.7087,-374.531 L 53.5657,-371.034 L 51.484,-367.5
 L 49.4644,-363.93 L 47.5073,-360.326 L 45.6135,-356.688 L 43.7834,-353.017 L 42.0177,-349.315 L 40.3168,-345.583
 L 38.6814,-341.822 L 37.1118,-338.033 L 35.6086,-334.216 L 34.1722,-330.375 L 32.8031,-326.509 L 31.5017,-322.619
 L 30.2684,-318.707 L 29.1035,-314.775 L 28.0074,-310.822 L 26.9805,-306.852 L 26.023,-302.863 L 25.1353,-298.859
 L 24.3176,-294.84 L 23.5702,-290.807 L 22.8932,-286.762 L 22.287,-282.706 L 21.7517,-278.639 L 21.2874,-274.564
 L 20.8943,-270.482 L 20.5724,-266.393 L 20.3221,-262.299 L 20.1432,-258.201 L 20.0358,-254.101 L 20,-250
 L 20.0358,-245.899 L 20.1432,-241.799 L 20.3221,-237.701 L 20.5724,-233.607 L 20.8943,-229.518 L 21.2874,-225.436
 L 21.7517,-221.361 L 22.287,-217.294 L 22.8932,-213.238 L 23.5702,-209.193 L 24.3176,-205.16 L 25.1353,-201.141
 L 26.023,-197.137 L 26.9805,-193.148 L 28.0074,-189.178 L 29.1035,-185.225 L 30.2684,-181.293 L 31.5017,-177.381
 L 32.8031,-173.491 L 34.1722,-169.625 L 35.6086,-165.784 L 37.1118,-161.967 L 38.6814,-158.178 L 40.3168,-154.417
 L 42.0177,-150.685 L 43.7834,-146.983 L 45.6135,-143.312 L 47.5073,-139.674 L 49.4644,-136.07 L 51.484,-132.5
 L 53.5657,-128.966 L 55.7087,-125.469 L 57.9124,-122.01 L 60.1762,-118.59 L 62.4993,-115.21 L 64.881,-111.87
 L 67.3207,-108.573 L 69.8175,-105.32 L 72.3707,-102.11 L 74.9796,-98.9449 L 77.6432,-95.8261 L 80.361,-92.7543
 L 83.1319,-89.7304 L 85.9552,-86.7553 L 88.8299,-83.8299 L 91.7553,-80.9552 L 94.7304,-78.1319 L 97.7543,-75.361
 L 100.826,-72.6432 L 103.945,-69.9796 L 107.11,-67.3707 L 110.32,-64.8175 L 113.573,-62.3207 L 116.87,-59.881
 L 120.21,-57.4993 L 123.59,-55.1762 L 127.01,-52.9124 L 130.469,-50.7087 L 133.966,-48.5657 L 137.5,-46.484
 L 141.07,-44.4644 L 144.674,-42.5073 L 148.312,-40.6135 L 151.983,-38.7834 L 155.685,-37.0177 L 159.417,-35.3168
 L 163.178,-33.6814 L 166.967,-32.1118 L 170.784,-30.6086 L 174.625,-29.1722 L 178.491,-27.8031 L 182.381,-26.5017
 L 186.293,-25.2684 L 190.225,-24.1035 L 194.178,-23.0074 L 198.148,-21.9805 L 202.137,-21.023 L 206.141,-20.1353
 L 210.16,-19.3176 L 214.193,-18.5702 L 218.238,-17.8932 L 222.294,-17.287 L 226.361,-16.7517 L 230.436,-16.2874
 L 234.518,-15.8943 L 238.607,-15.5724 L 242.701,-15.3221 L 246.799,-15.1432 L 250.899,-15.0358 L 255,-15
 z
M 241.5,-411.667 L 241.5,-448.333 L 268.5,-448.333 L 268.5,-411.667 z
M 254.66,-230.503 L 254.319,-230.512 L 253.979,-230.527 L 253.64,-230.548 L 253.3,-230.574 L 252.962,-230.607
 L 252.624,-230.645 L 252.286,-230.69 L 251.95,-230.74 L 251.614,-230.796 L 251.279,-230.858 L 250.946,-230.926
 L 250.613,-231 L 250.283,-231.079 L 249.953,-231.164 L 249.625,-231.255 L 249.299,-231.352 L 248.974,-231.454
 L 248.651,-231.562 L 248.331,-231.676 L 248.012,-231.795 L 247.695,-231.92 L 247.381,-232.05 L 247.069,-232.186
 L 246.759,-232.327 L 246.452,-232.474 L 246.147,-232.625 L 245.845,-232.783 L 245.546,-232.945 L 245.25,-233.113
 L 244.957,-233.285 L 244.667,-233.463 L 244.38,-233.646 L 244.096,-233.834 L 243.815,-234.027 L 243.538,-234.224
 L 243.265,-234.427 L 242.995,-234.634 L 242.728,-234.846 L 242.466,-235.062 L 242.207,-235.283 L 241.952,-235.509
 L 241.701,-235.739 L 241.454,-235.973 L 241.211,-236.211 L 240.973,-236.454 L 240.739,-236.701 L 240.509,-236.952
 L 240.283,-237.207 L 240.062,-237.466 L 239.846,-237.728 L 239.634,-237.995 L 239.427,-238.265 L 239.224,-238.538
 L 239.027,-238.815 L 238.834,-239.096 L 238.646,-239.38 L 238.463,-239.667 L 238.285,-239.957 L 238.113,-240.25
 L 237.945,-240.546 L 237.783,-240.845 L 237.625,-241.147 L 237.474,-241.452 L 237.327,-241.759 L 237.186,-242.069
 L 237.05,-242.381 L 236.92,-242.695 L 236.795,-243.012 L 236.676,-243.331 L 236.562,-243.651 L 236.454,-243.974
 L 236.352,-244.299 L 236.255,-244.625 L 236.164,-244.953 L 236.079,-245.283 L 236,-245.613 L 235.926,-245.946
 L 235.858,-246.279 L 235.796,-246.614 L 235.74,-246.95 L 235.69,-247.286 L 235.645,-247.624 L 235.607,-247.962
 L 235.574,-248.3 L 235.548,-248.64 L 235.527,-248.979 L 235.512,-249.319 L 235.503,-249.66 L 235.5,-250
 L 235.503,-250.34 L 235.512,-250.681 L 235.527,-251.021 L 235.548,-251.36 L 235.574,-251.7 L 235.607,-252.038
 L 235.645,-252.376 L 235.69,-252.714 L 235.74,-253.05 L 235.796,-253.386 L 235.858,-253.721 L 235.926,-254.054
 L 236,-254.387 L 236.079,-254.717 L 236.164,-255.047 L 236.255,-255.375 L 236.352,-255.701 L 236.454,-256.026
 L 236.562,-256.349 L 236.676,-256.669 L 236.795,-256.988 L 236.92,-257.305 L 237.05,-257.619 L 237.186,-257.931
 L 237.327,-258.241 L 237.474,-258.548 L 237.625,-258.853 L 237.783,-259.155 L 237.945,-259.454 L 238.113,-259.75
 L 238.285,-260.043 L 238.463,-260.333 L 238.646,-260.62 L 238.834,-260.904 L 239.027,-261.185 L 239.224,-261.462
 L 239.427,-261.735 L 239.634,-262.005 L 239.846,-262.272 L 240.062,-262.534 L 240.283,-262.793 L 240.509,-263.048
 L 240.739,-263.299 L 240.973,-263.546 L 241.211,-263.789 L 241.454,-264.027 L 241.701,-264.261 L 241.952,-264.491
 L 242.207,-264.717 L 242.466,-264.938 L 242.728,-265.154 L 242.995,-265.366 L 243.265,-265.573 L 243.538,-265.776
 L 243.815,-265.973 L 244.096,-266.166 L 244.38,-266.354 L 244.667,-266.537 L 244.957,-266.715 L 245.25,-266.887
 L 245.546,-267.055 L 245.845,-267.217 L 246.147,-267.375 L 246.452,-267.526 L 246.759,-267.673 L 247.069,-267.814
 L 247.381,-267.95 L 247.695,-268.08 L 248.012,-268.205 L 248.331,-268.324 L 248.651,-268.438 L 248.974,-268.546
 L 249.299,-268.648 L 249.625,-268.745 L 249.953,-268.836 L 250.283,-268.921 L 250.613,-269 L 250.946,-269.074
 L 251.279,-269.142 L 251.614,-269.204 L 251.95,-269.26 L 252.286,-269.31 L 252.624,-269.355 L 252.962,-269.393
 L 253.3,-269.426 L 253.64,-269.452 L 253.979,-269.473 L 254.319,-269.488 L 254.66,-269.497 L 255,-269.5
 L 255.34,-269.497 L 255.681,-269.488 L 256.021,-269.473 L 256.36,-269.452 L 256.7,-269.426 L 257.038,-269.393
 L 257.376,-269.355 L 257.714,-269.31 L 258.05,-269.26 L 258.386,-269.204 L 258.721,-269.142 L 259.054,-269.074
 L 259.387,-269 L 259.717,-268.921 L 260.047,-268.836 L 260.375,-268.745 L 260.701,-268.648 L 261.026,-268.546
 L 261.349,-268.438 L 261.669,-268.324 L 261.988,-268.205 L 262.305,-268.08 L 262.619,-267.95 L 262.931,-267.814
 L 263.241,-267.673 L 263.548,-267.526 L 263.853,-267.375 L 264.155,-267.217 L 264.454,-267.055 L 264.75,-266.887
 L 265.043,-266.715 L 265.333,-266.537 L 265.62,-266.354 L 265.904,-266.166 L 266.185,-265.973 L 266.462,-265.776
 L 266.735,-265.573 L 267.005,-265.366 L 267.272,-265.154 L 267.534,-264.938 L 267.793,-264.717 L 268.048,-264.491
 L 268.299,-264.261 L 268.546,-264.027 L 268.789,-263.789 L 269.027,-263.546 L 269.261,-263.299 L 269.491,-263.048
 L 269.717,-262.793 L 269.938,-262.534 L 270.154,-262.272 L 270.366,-262.005 L 270.573,-261.735 L 270.776,-261.462
 L 270.973,-261.185 L 271.166,-260.904 L 271.354,-260.62 L 271.537,-260.333 L 271.715,-260.043 L 271.887,-259.75
 L 272.055,-259.454 L 272.217,-259.155 L 272.375,-258.853 L 272.526,-258.548 L 272.673,-258.241 L 272.814,-257.931
 L 272.95,-257.619 L 273.08,-257.305 L 273.205,-256.988 L 273.324,-256.669 L 273.438,-256.349 L 273.546,-256.026
 L 273.648,-255.701 L 273.745,-255.375 L 273.836,-255.047 L 273.921,-254.717 L 274,-254.387 L 274.074,-254.054
 L 274.142,-253.721 L 274.204,-253.386 L 274.26,-253.05 L 274.31,-252.714 L 274.355,-252.376 L 274.393,-252.038
 L 274.426,-251.7 L 274.452,-251.36 L 274.473,-251.021 L 274.488,-250.681 L 274.497,-250.34 L 274.5,-250
 L 274.497,-249.66 L 274.488,-249.319 L 274.473,-248.979 L 274.452,-248.64 L 274.426,-248.3 L 274.393,-247.962
 L 274.355,-247.624 L 274.31,-247.286 L 274.26,-246.95 L 274.204,-246.614 L 274.142,-246.279 L 274.074,-245.946
 L 274,-245.613 L 273.921,-245.283 L 273.836,-244.953 L 273.745,-244.625 L 273.648,-244.299 L 273.546,-243.974
 L 273.438,-243.651 L 273.324,-243.331 L 273.205,-243.012 L 273.08,-242.695 L 272.95,-242.381 L 272.814,-242.069
 L 272.673,-241.759 L 272.526,-241.452 L 272.375,-241.147 L 272.217,-240.845 L 272.055,-240.546 L 271.887,-240.25
 L 271.715,-239.957 L 271.537,-239.667 L 271.354,-239.38 L 271.166,-239.096 L 270.973,-238.815 L 270.776,-238.538
 L 270.573,-238.265 L 270.366,-237.995 L 270.154,-237.728 L 269.938,-237.466 L 269.717,-237.207 L 269.491,-236.952
 L 269.261,-236.701 L 269.027,-236.454 L 268.789,-236.211 L 268.546,-235.973 L 268.299,-235.739 L 268.048,-235.509
 L 267.793,-235.283 L 267.534,-235.062 L 267.272,-234.846 L 267.005,-234.634 L 266.735,-234.427 L 266.462,-234.224
 L 266.185,-234.027 L 265.904,-233.834 L 265.62,-233.646 L 265.333,-233.463 L 265.043,-233.285 L 264.75,-233.113
 L 264.454,-232.945 L 264.155,-232.783 L 263.853,-232.625 L 263.548,-232.474 L 263.241,-232.327 L 262.931,-232.186
 L 262.619,-232.05 L 262.305,-231.92 L 261.988,-231.795 L 261.669,-231.676 L 261.349,-231.562 L 261.026,-231.454
 L 260.701,-231.352 L 260.375,-231.255 L 260.047,-231.164 L 259.717,-231.079 L 259.387,-231 L 259.054,-230.926
 L 258.721,-230.858 L 258.386,-230.796 L 258.05,-230.74 L 257.714,-230.69 L 257.376,-230.645 L 257.038,-230.607
 L 256.7,-230.574 L 256.36,-230.548 L 256.021,-230.527 L 255.681,-230.512 L 255.34,-230.503 L 255,-230.5
 z
M 416.667,-236.5 L 416.667,-263.5 L 453.333,-263.5 L 453.333,-236.5 z
M 56.6667,-236.5 L 56.6667,-263.5 L 93.3333,-263.5 L 93.3333,-236.5 z
M 241.5,-51.6667 L 241.5,-88.3333 L 268.5,-88.3333 L 268.5,-51.6667 z
M 761.393,-15.5724 L 765.482,-15.8943 L 769.564,-16.2874 L 773.639,-16.7517 L 777.706,-17.287 L 781.762,-17.8932
 L 785.807,-18.5702 L 789.84,-19.3176 L 793.859,-20.1353 L 797.864,-21.023 L 801.852,-21.9805 L 805.822,-23.0074
 L 809.775,-24.1035 L 813.707,-25.2684 L 817.619,-26.5017 L 821.509,-27.8031 L 825.375,-29.1722 L 829.216,-30.6086
 L 833.033,-32.1118 L 836.822,-33.6814 L 840.583,-35.3168 L 844.315,-37.0177 L 848.017,-38.7834 L 851.688,-40.6135
 L 855.326,-42.5073 L 858.93,-44.4644 L 862.5,-46.484 L 866.034,-48.5657 L 869.531,-50.7087 L 872.99,-52.9124
 L 876.41,-55.1762 L 879.79,-57.4993 L 883.13,-59.881 L 886.427,-62.3207 L 889.68,-64.8175 L 892.89,-67.3707
 L 896.055,-69.9796 L 899.174,-72.6432 L 902.246,-75.361 L 905.27,-78.1319 L 908.245,-80.9552 L 911.17,-83.8299
 L 914.045,-86.7553 L 916.868,-89.7304 L 919.639,-92.7543 L 922.357,-95.8261 L 925.02,-98.9449 L 927.629,-102.11
 L 930.182,-105.32 L 932.679,-108.573 L 935.119,-111.87 L 937.501,-115.21 L 939.824,-118.59 L 942.088,-122.01
 L 944.291,-125.469 L 946.434,-128.966 L 948.516,-132.5 L 950.536,-136.07 L 952.493,-139.674 L 954.387,-143.312
 L 956.217,-146.983 L 957.982,-150.685 L 959.683,-154.417 L 961.319,-158.178 L 962.888,-161.967 L 964.391,-165.784
 L 965.828,-169.625 L 967.197,-173.491 L 968.498,-177.381 L 969.732,-181.293 L 970.896,-185.225 L 971.993,-189.178
 L 973.019,-193.148 L 973.977,-197.137 L 974.865,-201.141 L 975.682,-205.16 L 976.43,-209.193 L 977.107,-213.238
 L 977.713,-217.294 L 978.248,-221.361 L 978.713,-225.436 L 979.106,-229.518 L 979.428,-233.607 L 979.604,-236.5
 L 925,-236.5 L 925,-263.5 L 979.604,-263.5 L 979.428,-266.393 L 979.106,-270.482 L 978.713,-274.564
 L 978.248,-278.639 L 977.713,-282.706 L 977.107,-286.762 L 976.43,-290.807 L 975.682,-294.84 L 974.865,-298.859
 L 973.977,-302.863 L 973.019,-306.852 L 971.993,-310.822 L 970.896,-314.775 L 969.732,-318.707 L 968.498,-322.619
 L 967.197,-326.509 L 965.828,-330.375 L 964.391,-334.216 L 962.888,-338.033 L 961.319,-341.822 L 959.683,-345.583
 L 957.982,-349.315 L 956.217,-353.017 L 954.387,-356.688 L 952.493,-360.326 L 950.536,-363.93 L 948.516,-367.5
 L 946.434,-371.034 L 944.291,-374.531 L 942.088,-377.99 L 939.824,-381.41 L 937.501,-384.79 L 935.119,-388.13
 L 932.679,-391.427 L 930.182,-394.68 L 927.629,-397.89 L 925.02,-401.055 L 922.357,-404.174 L 919.639,-407.246
 L 916.868,-410.27 L 914.045,-413.245 L 911.17,-416.17 L 908.245,-419.045 L 905.27,-421.868 L 902.246,-424.639
 L 899.174,-427.357 L 896.055,-430.02 L 892.89,-432.629 L 889.68,-435.183 L 886.427,-437.679 L 883.13,-440.119
 L 879.79,-442.501 L 876.41,-444.824 L 872.99,-447.088 L 869.531,-449.291 L 866.034,-451.434 L 862.5,-453.516
 L 858.93,-455.536 L 855.326,-457.493 L 851.688,-459.387 L 848.017,-461.217 L 844.315,-462.982 L 840.583,-464.683
 L 836.822,-466.319 L 833.033,-467.888 L 829.216,-469.391 L 825.375,-470.828 L 821.509,-472.197 L 817.619,-473.498
 L 813.707,-474.732 L 809.775,-475.896 L 805.822,-476.993 L 801.852,-478.019 L 797.864,-478.977 L 793.859,-479.865
 L 789.84,-480.682 L 785.807,-481.43 L 781.762,-482.107 L 777.706,-482.713 L 773.639,-483.248 L 769.564,-483.713
 L 765.482,-484.106 L 761.393,-484.428 L 758.5,-484.604 L 758.5,-430 L 731.5,-430 L 731.5,-484.604
 L 728.607,-484.428 L 724.518,-484.106 L 720.436,-483.713 L 716.361,-483.248 L 712.294,-482.713 L 708.238,-482.107
 L 704.193,-481.43 L 700.16,-480.682 L 696.141,-479.865 L 692.136,-478.977 L 688.148,-478.019 L 684.178,-476.993
 L 680.225,-475.896 L 676.293,-474.732 L 672.381,-473.498 L 668.491,-472.197 L 664.625,-470.828 L 660.784,-469.391
 L 656.967,-467.888 L 653.178,-466.319 L 649.417,-464.683 L 645.685,-462.982 L 641.983,-461.217 L 638.312,-459.387
 L 634.674,-457.493 L 631.07,-455.536 L 627.5,-453.516 L 623.966,-451.434 L 620.469,-449.291 L 617.01,-447.088
 L 613.59,-444.824 L 610.21,-442.501 L 606.87,-440.119 L 603.573,-437.679 L 600.32,-435.183 L 597.11,-432.629
 L 593.945,-430.02 L 590.826,-427.357 L 587.754,-424.639 L 584.73,-421.868 L 581.755,-419.045 L 578.83,-416.17
 L 575.955,-413.245 L 573.132,-410.27 L 570.361,-407.246 L 567.643,-404.174 L 564.98,-401.055 L 562.371,-397.89
 L 559.818,-394.68 L 557.321,-391.427 L 554.881,-388.13 L 552.499,-384.79 L 550.176,-381.41 L 547.912,-377.99
 L 545.709,-374.531 L 543.566,-371.034 L 541.484,-367.5 L 539.464,-363.93 L 537.507,-360.326 L 535.613,-356.688
 L 533.783,-353.017 L 532.018,-349.315 L 530.317,-345.583 L 528.681,-341.822 L 527.112,-338.033 L 525.609,-334.216
 L 524.172,-330.375 L 522.803,-326.509 L 521.502,-322.619 L 520.268,-318.707 L 519.104,-314.775 L 518.007,-310.822
 L 516.981,-306.852 L 516.023,-302.863 L 515.135,-298.859 L 514.318,-294.84 L 513.57,-290.807 L 512.893,-286.762
 L 512.287,-282.706 L 511.752,-278.639 L 511.287,-274.564 L 510.894,-270.482 L 510.572,-266.393 L 510.396,-263.5
 L 565,-263.5 L 565,-236.5 L 510.396,-236.5 L 510.572,-233.607 L 510.894,-229.518 L 511.287,-225.436
 L 511.752,-221.361 L 512.287,-217.294 L 512.893,-213.238 L 513.57,-209.193 L 514.318,-205.16 L 515.135,-201.141
 L 516.023,-197.137 L 516.981,-193.148 L 518.007,-189.178 L 519.104,-185.225 L 520.268,-181.293 L 521.502,-177.381
 L 522.803,-173.491 L 524.172,-169.625 L 525.609,-165.784 L 527.112,-161.967 L 528.681,-158.178 L 530.317,-154.417
 L 532.018,-150.685 L 533.783,-146.983 L 535.613,-143.312 L 537.507,-139.674 L 539.464,-136.07 L 541.484,-132.5
 L 543.566,-128.966 L 545.709,-125.469 L 547.912,-122.01 L 550.176,-118.59 L 552.499,-115.21 L 554.881,-111.87
 L 557.321,-108.573 L 559.818,-105.32 L 562.371,-102.11 L 564.98,-98.9449 L 567.643,-95.8261 L 570.361,-92.7543
 L 573.132,-89.7304 L 575.955,-86.7553 L 578.83,-83.8299 L 581.755,-80.9552 L 584.73,-78.1319 L 587.754,-75.361
 L 590.826,-72.6432 L 593.945,-69.9796 L 597.11,-67.3707 L 600.32,-64.8175 L 603.573,-62.3207 L 606.87,-59.881
 L 610.21,-57.4993 L 613.59,-55.1762 L 617.01,-52.9124 L 620.469,-50.7087 L 623.966,-48.5657 L 627.5,-46.484
 L 631.07,-44.4644 L 634.674,-42.5073 L 638.312,-40.6135 L 641.983,-38.7834 L 645.685,-37.0177 L 649.417,-35.3168
 L 653.178,-33.6814 L 656.967,-32.1118 L 660.784,-30.6086 L 664.625,-29.1722 L 668.491,-27.8031 L 672.381,-26.5017
 L 676.293,-25.2684 L 680.225,-24.1035 L 684.178,-23.0074 L 688.148,-21.9805 L 692.136,-21.023 L 696.141,-20.1353
 L 700.16,-19.3176 L 704.193,-18.5702 L 708.238,-17.8932 L 712.294,-17.287 L 716.361,-16.7517 L 720.436,-16.2874
 L 724.518,-15.8943 L 728.607,-15.5724 L 731.5,-15.3955 L 731.5,-70 L 758.5,-70 L 758.5,-15.3955
 z
M 744.66,-230.503 L 744.319,-230.512 L 743.979,-230.527 L 743.64,-230.548 L 743.3,-230.574 L 742.962,-230.607
 L 742.624,-230.645 L 742.286,-230.69 L 741.95,-230.74 L 741.614,-230.796 L 741.279,-230.858 L 740.946,-230.926
 L 740.613,-231 L 740.283,-231.079 L 739.953,-231.164 L 739.625,-231.255 L 739.299,-231.352 L 738.974,-231.454
 L 738.651,-231.562 L 738.331,-231.676 L 738.012,-231.795 L 737.695,-231.92 L 737.381,-232.05 L 737.069,-232.186
 L 736.759,-232.327 L 736.452,-232.474 L 736.147,-232.625 L 735.845,-232.783 L 735.546,-232.945 L 735.25,-233.113
 L 734.957,-233.285 L 734.667,-233.463 L 734.38,-233.646 L 734.096,-233.834 L 733.815,-234.027 L 733.538,-234.224
 L 733.265,-234.427 L 732.995,-234.634 L 732.728,-234.846 L 732.466,-235.062 L 732.207,-235.283 L 731.952,-235.509
 L 731.701,-235.739 L 731.454,-235.973 L 731.211,-236.211 L 730.973,-236.454 L 730.739,-236.701 L 730.509,-236.952
 L 730.283,-237.207 L 730.062,-237.466 L 729.846,-237.728 L 729.634,-237.995 L 729.427,-238.265 L 729.224,-238.538
 L 729.027,-238.815 L 728.834,-239.096 L 728.646,-239.38 L 728.463,-239.667 L 728.285,-239.957 L 728.113,-240.25
 L 727.945,-240.546 L 727.783,-240.845 L 727.625,-241.147 L 727.474,-241.452 L 727.327,-241.759 L 727.186,-242.069
 L 727.05,-242.381 L 726.92,-242.695 L 726.795,-243.012 L 726.676,-243.331 L 726.562,-243.651 L 726.454,-243.974
 L 726.352,-244.299 L 726.255,-244.625 L 726.164,-244.953 L 726.079,-245.283 L 726,-245.613 L 725.926,-245.946
 L 725.858,-246.279 L 725.796,-246.614 L 725.74,-246.95 L 725.69,-247.286 L 725.645,-247.624 L 725.607,-247.962
 L 725.574,-248.3 L 725.547,-248.64 L 725.527,-248.979 L 725.512,-249.319 L 725.503,-249.66 L 725.5,-250
 L 725.503,-250.34 L 725.512,-250.681 L 725.527,-251.021 L 725.547,-251.36 L 725.574,-251.7 L 725.607,-252.038
 L 725.645,-252.376 L 725.69,-252.714 L 725.74,-253.05 L 725.796,-253.386 L 725.858,-253.721 L 725.926,-254.054
 L 726,-254.387 L 726.079,-254.717 L 726.164,-255.047 L 726.255,-255.375 L 726.352,-255.701 L 726.454,-256.026
 L 726.562,-256.349 L 726.676,-256.669 L 726.795,-256.988 L 726.92,-257.305 L 727.05,-257.619 L 727.186,-257.931
 L 727.327,-258.241 L 727.474,-258.548 L 727.625,-258.853 L 727.783,-259.155 L 727.945,-259.454 L 728.113,-259.75
 L 728.285,-260.043 L 728.463,-260.333 L 728.646,-260.62 L 728.834,-260.904 L 729.027,-261.185 L 729.224,-261.462
 L 729.427,-261.735 L 729.634,-262.005 L 729.846,-262.272 L 730.062,-262.534 L 730.283,-262.793 L 730.509,-263.048
 L 730.739,-263.299 L 730.973,-263.546 L 731.211,-263.789 L 731.454,-264.027 L 731.701,-264.261 L 731.952,-264.491
 L 732.207,-264.717 L 732.466,-264.938 L 732.728,-265.154 L 732.995,-265.366 L 733.265,-265.573 L 733.538,-265.776
 L 733.815,-265.973 L 734.096,-266.166 L 734.38,-266.354 L 734.667,-266.537 L 734.957,-266.715 L 735.25,-266.887
 L 735.546,-267.055 L 735.845,-267.217 L 736.147,-267.375 L 736.452,-267.526 L 736.759,-267.673 L 737.069,-267.814
 L 737.381,-267.95 L 737.695,-268.08 L 738.012,-268.205 L 738.331,-268.324 L 738.651,-268.438 L 738.974,-268.546
 L 739.299,-268.648 L 739.625,-268.745 L 739.953,-268.836 L 740.283,-268.921 L 740.613,-269 L 740.946,-269.074
 L 741.279,-269.142 L 741.614,-269.204 L 741.95,-269.26 L 742.286,-269.31 L 742.624,-269.355 L 742.962,-269.393
 L 743.3,-269.426 L 743.64,-269.452 L 743.979,-269.473 L 744.319,-269.488 L 744.66,-269.497 L 745,-269.5
 L 745.34,-269.497 L 745.681,-269.488 L 746.021,-269.473 L 746.36,-269.452 L 746.7,-269.426 L 747.038,-269.393
 L 747.376,-269.355 L 747.714,-269.31 L 748.05,-269.26 L 748.386,-269.204 L 748.721,-269.142 L 749.054,-269.074
 L 749.387,-269 L 749.717,-268.921 L 750.047,-268.836 L 750.375,-268.745 L 750.701,-268.648 L 751.026,-268.546
 L 751.349,-268.438 L 751.669,-268.324 L 751.988,-268.205 L 752.305,-268.08 L 752.619,-267.95 L 752.931,-267.814
 L 753.241,-267.673 L 753.548,-267.526 L 753.853,-267.375 L 754.155,-267.217 L 754.454,-267.055 L 754.75,-266.887
 L 755.043,-266.715 L 755.333,-266.537 L 755.62,-266.354 L 755.904,-266.166 L 756.185,-265.973 L 756.462,-265.776
 L 756.735,-265.573 L 757.005,-265.366 L 757.272,-265.154 L 757.534,-264.938 L 757.793,-264.717 L 758.048,-264.491
 L 758.299,-264.261 L 758.546,-264.027 L 758.789,-263.789 L 759.027,-263.546 L 759.261,-263.299 L 759.491,-263.048
 L 759.717,-262.793 L 759.938,-262.534 L 760.154,-262.272 L 760.366,-262.005 L 760.573,-261.735 L 760.776,-261.462
 L 760.973,-261.185 L 761.166,-260.904 L 761.354,-260.62 L 761.537,-260.333 L 761.715,-260.043 L 761.887,-259.75
 L 762.055,-259.454 L 762.217,-259.155 L 762.375,-258.853 L 762.526,-258.548 L 762.673,-258.241 L 762.814,-257.931
 L 762.95,-257.619 L 763.08,-257.305 L 763.205,-256.988 L 763.324,-256.669 L 763.438,-256.349 L 763.546,-256.026
 L 763.648,-255.701 L 763.745,-255.375 L 763.836,-255.047 L 763.921,-254.717 L 764,-254.387 L 764.074,-254.054
 L 764.142,-253.721 L 764.204,-253.386 L 764.26,-253.05 L 764.31,-252.714 L 764.355,-252.376 L 764.393,-252.038
 L 764.426,-251.7 L 764.453,-251.36 L 764.473,-251.021 L 764.488,-250.681 L 764.497,-250.34 L 764.5,-250
 L 764.497,-249.66 L 764.488,-249.319 L 764.473,-248.979 L 764.453,-248.64 L 764.426,-248.3 L 764.393,-247.962
 L 764.355,-247.624 L 764.31,-247.286 L 764.26,-246.95 L 764.204,-246.614 L 764.142,-246.279 L 764.074,-245.946
 L 764,-245.613 L 763.921,-245.283 L 763.836,-244.953 L 763.745,-244.625 L 763.648,-244.299 L 763.546,-243.974
 L 763.438,-243.651 L 763.324,-243.331 L 763.205,-243.012 L 763.08,-242.695 L 762.95,-242.381 L 762.814,-242.069
 L 762.673,-241.759 L 762.526,-241.452 L 762.375,-241.147 L 762.217,-240.845 L 762.055,-240.546 L 761.887,-240.25
 L 761.715,-239.957 L 761.537,-239.667 L 761.354,-239.38 L 761.166,-239.096 L 760.973,-238.815 L 760.776,-238.538
 L 760.573,-238.265 L 760.366,-237.995 L 760.154,-237.728 L 759.938,-237.466 L 759.717,-237.207 L 759.491,-236.952
 L 759.261,-236.701 L 759.027,-236.454 L 758.789,-236.211 L 758.546,-235.973 L 758.299,-235.739 L 758.048,-235.509
 L 757.793,-235.283 L 757.534,-235.062 L 757.272,-234.846 L 757.005,-234.634 L 756.735,-234.427 L 756.462,-234.224
 L 756.185,-234.027 L 755.904,-233.834 L 755.62,-233.646 L 755.333,-233.463 L 755.043,-233.285 L 754.75,-233.113
 L 754.454,-232.945 L 754.155,-232.783 L 753.853,-232.625 L 753.548,-232.474 L 753.241,-232.327 L 752.931,-232.186
 L 752.619,-232.05 L 752.305,-231.92 L 751.988,-231.795 L 751.669,-231.676 L 751.349,-231.562 L 751.026,-231.454
 L 750.701,-231.352 L 750.375,-231.255 L 750.047,-231.164 L 749.717,-231.079 L 749.387,-231 L 749.054,-230.926
 L 748.721,-230.858 L 748.386,-230.796 L 748.05,-230.74 L 747.714,-230.69 L 747.376,-230.645 L 747.038,-230.607
 L 746.7,-230.574 L 746.36,-230.548 L 746.021,-230.527 L 745.681,-230.512 L 745.34,-230.503 L 745,-230.5
 z
M 1235,-70 L 1262,-70 L 1262,-15 L 1450,-15 L 1450.35,-15.003 L 1450.7,-15.0122
 L 1451.05,-15.0274 L 1451.4,-15.0487 L 1451.74,-15.0761 L 1452.09,-15.1096 L 1452.44,-15.1491 L 1452.78,-15.1946
 L 1453.13,-15.2462 L 1453.47,-15.3038 L 1453.82,-15.3674 L 1454.16,-15.437 L 1454.5,-15.5126 L 1454.84,-15.5941
 L 1455.18,-15.6815 L 1455.51,-15.7748 L 1455.85,-15.8739 L 1456.18,-15.9789 L 1456.51,-16.0896 L 1456.84,-16.2061
 L 1457.17,-16.3284 L 1457.49,-16.4563 L 1457.81,-16.5899 L 1458.13,-16.7291 L 1458.45,-16.8738 L 1458.77,-17.0241
 L 1459.08,-17.1799 L 1459.39,-17.341 L 1459.7,-17.5076 L 1460,-17.6795 L 1460.3,-17.8566 L 1460.6,-18.039
 L 1460.89,-18.2266 L 1461.18,-18.4192 L 1461.47,-18.617 L 1461.76,-18.8197 L 1462.04,-19.0273 L 1462.31,-19.2398
 L 1462.59,-19.4571 L 1462.86,-19.6791 L 1463.12,-19.9058 L 1463.38,-20.1371 L 1463.64,-20.3729 L 1463.89,-20.6132
 L 1464.14,-20.8578 L 1464.39,-21.1068 L 1464.63,-21.36 L 1464.86,-21.6174 L 1465.09,-21.8788 L 1465.32,-22.1442
 L 1465.54,-22.4136 L 1465.76,-22.6868 L 1465.97,-22.9637 L 1466.18,-23.2443 L 1466.38,-23.5285 L 1466.58,-23.8161
 L 1466.77,-24.1072 L 1466.96,-24.4016 L 1467.14,-24.6992 L 1467.32,-25 L 1467.49,-25.3038 L 1467.66,-25.6106
 L 1467.82,-25.9202 L 1467.98,-26.2326 L 1468.13,-26.5476 L 1468.27,-26.8653 L 1468.41,-27.1854 L 1468.54,-27.5079
 L 1468.67,-27.8326 L 1468.79,-28.1596 L 1468.91,-28.4886 L 1469.02,-28.8197 L 1469.13,-29.1526 L 1469.23,-29.4872
 L 1469.32,-29.8236 L 1469.41,-30.1616 L 1469.49,-30.501 L 1469.56,-30.8418 L 1469.63,-31.1838 L 1469.7,-31.527
 L 1469.75,-31.8713 L 1469.81,-32.2165 L 1469.85,-32.5626 L 1469.89,-32.9094 L 1469.92,-33.2569 L 1469.95,-33.6049
 L 1469.97,-33.9533 L 1469.99,-34.302 L 1470,-34.6509 L 1470,-35 L 1470,-230 L 1470,-230.349
 L 1469.99,-230.698 L 1469.97,-231.047 L 1469.95,-231.395 L 1469.92,-231.743 L 1469.89,-232.091 L 1469.85,-232.437
 L 1469.81,-232.783 L 1469.75,-233.129 L 1469.7,-233.473 L 1469.63,-233.816 L 1469.56,-234.158 L 1469.49,-234.499
 L 1469.41,-234.838 L 1469.32,-235.176 L 1469.23,-235.513 L 1469.13,-235.847 L 1469.02,-236.18 L 1468.91,-236.511
 L 1468.79,-236.84 L 1468.67,-237.167 L 1468.54,-237.492 L 1468.41,-237.815 L 1468.27,-238.135 L 1468.13,-238.452
 L 1467.98,-238.767 L 1467.82,-239.08 L 1467.66,-239.389 L 1467.49,-239.696 L 1467.32,-240 L 1467.14,-240.301
 L 1466.96,-240.598 L 1466.77,-240.893 L 1466.58,-241.184 L 1466.38,-241.472 L 1466.18,-241.756 L 1465.97,-242.036
 L 1465.76,-242.313 L 1465.54,-242.586 L 1465.32,-242.856 L 1465.09,-243.121 L 1464.86,-243.383 L 1464.63,-243.64
 L 1464.39,-243.893 L 1464.14,-244.142 L 1463.89,-244.387 L 1463.64,-244.627 L 1463.38,-244.863 L 1463.12,-245.094
 L 1462.86,-245.321 L 1462.59,-245.543 L 1462.31,-245.76 L 1462.04,-245.973 L 1461.76,-246.18 L 1461.47,-246.383
 L 1461.18,-246.581 L 1460.89,-246.773 L 1460.6,-246.961 L 1460.3,-247.143 L 1460,-247.32 L 1459.7,-247.492
 L 1459.39,-247.659 L 1459.08,-247.82 L 1458.77,-247.976 L 1458.45,-248.126 L 1458.13,-248.271 L 1457.81,-248.41
 L 1457.49,-248.544 L 1457.17,-248.672 L 1456.84,-248.794 L 1456.51,-248.91 L 1456.18,-249.021 L 1455.85,-249.126
 L 1455.51,-249.225 L 1455.18,-249.319 L 1454.84,-249.406 L 1454.5,-249.487 L 1454.16,-249.563 L 1453.82,-249.633
 L 1453.47,-249.696 L 1453.13,-249.754 L 1452.78,-249.805 L 1452.44,-249.851 L 1452.09,-249.89 L 1451.74,-249.924
 L 1451.4,-249.951 L 1451.05,-249.973 L 1450.7,-249.988 L 1450.35,-249.997 L 1450,-250 L 1449.65,-249.997
 L 1449.3,-249.988 L 1448.95,-249.973 L 1448.6,-249.951 L 1448.26,-249.924 L 1018.26,-214.924 L 1017.91,-214.89
 L 1017.56,-214.851 L 1017.22,-214.805 L 1016.87,-214.754 L 1016.53,-214.696 L 1016.18,-214.633 L 1015.84,-214.563
 L 1015.5,-214.487 L 1015.16,-214.406 L 1014.82,-214.319 L 1014.49,-214.225 L 1014.15,-214.126 L 1013.82,-214.021
 L 1013.49,-213.91 L 1013.16,-213.794 L 1012.83,-213.672 L 1012.51,-213.544 L 1012.19,-213.41 L 1011.87,-213.271
 L 1011.55,-213.126 L 1011.23,-212.976 L 1010.92,-212.82 L 1010.61,-212.659 L 1010.3,-212.492 L 1010,-212.32
 L 1009.7,-212.143 L 1009.4,-211.961 L 1009.11,-211.773 L 1008.82,-211.581 L 1008.53,-211.383 L 1008.24,-211.18
 L 1007.96,-210.973 L 1007.69,-210.76 L 1007.41,-210.543 L 1007.14,-210.321 L 1006.88,-210.094 L 1006.62,-209.863
 L 1006.36,-209.627 L 1006.11,-209.387 L 1005.86,-209.142 L 1005.61,-208.893 L 1005.37,-208.64 L 1005.14,-208.383
 L 1004.91,-208.121 L 1004.68,-207.856 L 1004.46,-207.586 L 1004.24,-207.313 L 1004.03,-207.036 L 1003.82,-206.756
 L 1003.62,-206.472 L 1003.42,-206.184 L 1003.23,-205.893 L 1003.04,-205.598 L 1002.86,-205.301 L 1002.68,-205
 L 1002.51,-204.696 L 1002.34,-204.389 L 1002.18,-204.08 L 1002.02,-203.767 L 1001.87,-203.452 L 1001.73,-203.135
 L 1001.59,-202.815 L 1001.46,-202.492 L 1001.33,-202.167 L 1001.21,-201.84 L 1001.09,-201.511 L 1000.98,-201.18
 L 1000.87,-200.847 L 1000.77,-200.513 L 1000.68,-200.176 L 1000.59,-199.838 L 1000.51,-199.499 L 1000.44,-199.158
 L 1000.37,-198.816 L 1000.3,-198.473 L 1000.25,-198.129 L 1000.19,-197.783 L 1000.15,-197.437 L 1000.11,-197.091
 L 1000.08,-196.743 L 1000.05,-196.395 L 1000.03,-196.047 L 1000.01,-195.698 L 1000,-195.349 L 1000,-195
 L 1000,-125 L 1027,-125 L 1027,-88.3333 L 1000,-88.3333 L 1000,-51.6667 L 1027,-51.6667
 L 1027,-15 L 1235,-15 z
M 1725,-70 L 1752,-70 L 1752,-15 L 1940,-15 L 1940.35,-15.003 L 1940.7,-15.0122
 L 1941.05,-15.0274 L 1941.4,-15.0487 L 1941.74,-15.0761 L 1942.09,-15.1096 L 1942.44,-15.1491 L 1942.78,-15.1946
 L 1943.13,-15.2462 L 1943.47,-15.3038 L 1943.82,-15.3674 L 1944.16,-15.437 L 1944.5,-15.5126 L 1944.84,-15.5941
 L 1945.18,-15.6815 L 1945.51,-15.7748 L 1945.85,-15.8739 L 1946.18,-15.9789 L 1946.51,-16.0896 L 1946.84,-16.2061
 L 1947.17,-16.3284 L 1947.49,-16.4563 L 1947.81,-16.5899 L 1948.13,-16.7291 L 1948.45,-16.8738 L 1948.77,-17.0241
 L 1949.08,-17.1799 L 1949.39,-17.341 L 1949.7,-17.5076 L 1950,-17.6795 L 1950.3,-17.8566 L 1950.6,-18.039
 L 1950.89,-18.2266 L 1951.18,-18.4192 L 1951.47,-18.617 L 1951.76,-18.8197 L 1952.04,-19.0273 L 1952.31,-19.2398
 L 1952.59,-19.4571 L 1952.86,-19.6791 L 1953.12,-19.9058 L 1953.38,-20.1371 L 1953.64,-20.3729 L 1953.89,-20.6132
 L 1954.14,-20.8578 L 1954.39,-21.1068 L 1954.63,-21.36 L 1954.86,-21.6174 L 1955.09,-21.8788 L 1955.32,-22.1442
 L 1955.54,-22.4136 L 1955.76,-22.6868 L 1955.97,-22.9637 L 1956.18,-23.2443 L 1956.38,-23.5285 L 1956.58,-23.8161
 L 1956.77,-24.1072 L 1956.96,-24.4016 L 1957.14,-24.6992 L 1957.32,-25 L 1957.49,-25.3038 L 1957.66,-25.6106
 L 1957.82,-25.9202 L 1957.98,-26.2326 L 1958.13,-26.5476 L 1958.27,-26.8653 L 1958.41,-27.1854 L 1958.54,-27.5079
 L 1958.67,-27.8326 L 1958.79,-28.1596 L 1958.91,-28.4886 L 1959.02,-28.8197 L 1959.13,-29.1526 L 1959.23,-29.4872
 L 1959.32,-29.8236 L 1959.41,-30.1616 L 1959.49,-30.501 L 1959.56,-30.8418 L 1959.63,-31.1838 L 1959.7,-31.527
 L 1959.75,-31.8713 L 1959.81,-32.2165 L 1959.85,-32.5626 L 1959.89,-32.9094 L 1959.92,-33.2569 L 1959.95,-33.6049
 L 1959.97,-33.9533 L 1959.99,-34.302 L 1960,-34.6509 L 1960,-35 L 1960,-230 L 1960,-230.349
 L 1959.99,-230.698 L 1959.97,-231.047 L 1959.95,-231.395 L 1959.92,-231.743 L 1959.89,-232.091 L 1959.85,-232.437
 L 1959.81,-232.783 L 1959.75,-233.129 L 1959.7,-233.473 L 1959.63,-233.816 L 1959.56,-234.158 L 1959.49,-234.499
 L 1959.41,-234.838 L 1959.32,-235.176 L 1959.23,-235.513 L 1959.13,-235.847 L 1959.02,-236.18 L 1958.91,-236.511
 L 1958.79,-236.84 L 1958.67,-237.167 L 1958.54,-237.492 L 1958.41,-237.815 L 1958.27,-238.135 L 1958.13,-238.452
 L 1957.98,-238.767 L 1957.82,-239.08 L 1957.66,-239.389 L 1957.49,-239.696 L 1957.32,-240 L 1957.14,-240.301
 L 1956.96,-240.598 L 1956.77,-240.893 L 1956.58,-241.184 L 1956.38,-241.472 L 1956.18,-241.756 L 1955.97,-242.036
 L 1955.76,-242.313 L 1955.54,-242.586 L 1955.32,-242.856 L 1955.09,-243.121 L 1954.86,-243.383 L 1954.63,-243.64
 L 1954.39,-243.893 L 1954.14,-244.142 L 1953.89,-244.387 L 1953.64,-244.627 L 1953.38,-244.863 L 1953.12,-245.094
 L 1952.86,-245.321 L 1952.59,-245.543 L 1952.31,-245.76 L 1952.04,-245.973 L 1951.76,-246.18 L 1951.47,-246.383
 L 1951.18,-246.581 L 1950.89,-246.773 L 1950.6,-246.961 L 1950.3,-247.143 L 1950,-247.32 L 1949.7,-247.492
 L 1949.39,-247.659 L 1949.08,-247.82 L 1948.77,-247.976 L 1948.45,-248.126 L 1948.13,-248.271 L 1947.81,-248.41
 L 1947.49,-248.544 L 1947.17,-248.672 L 1946.84,-248.794 L 1946.51,-248.91 L 1946.18,-249.021 L 1945.85,-249.126
 L 1945.51,-249.225 L 1945.18,-249.319 L 1944.84,-249.406 L 1944.5,-249.487 L 1944.16,-249.563 L 1943.82,-249.633
 L 1943.47,-249.696 L 1943.13,-249.754 L 1942.78,-249.805 L 1942.44,-249.851 L 1942.09,-249.89 L 1941.74,-249.924
 L 1941.4,-249.951 L 1941.05,-249.973 L 1940.7,-249.988 L 1940.35,-249.997 L 1940,-250 L 1939.65,-249.997
 L 1939.3,-249.988 L 1938.95,-249.973 L 1938.6,-249.951 L 1938.26,-249.924 L 1508.26,-214.924 L 1507.91,-214.89
 L 1507.56,-214.851 L 1507.22,-214.805 L 1506.87,-214.754 L 1506.53,-214.696 L 1506.18,-214.633 L 1505.84,-214.563
 L 1505.5,-214.487 L 1505.16,-214.406 L 1504.82,-214.319 L 1504.49,-214.225 L 1504.15,-214.126 L 1503.82,-214.021
 L 1503.49,-213.91 L 1503.16,-213.794 L 1502.83,-213.672 L 1502.51,-213.544 L 1502.19,-213.41 L 1501.87,-213.271
 L 1501.55,-213.126 L 1501.23,-212.976 L 1500.92,-212.82 L 1500.61,-212.659 L 1500.3,-212.492 L 1500,-212.32
 L 1499.7,-212.143 L 1499.4,-211.961 L 1499.11,-211.773 L 1498.82,-211.581 L 1498.53,-211.383 L 1498.24,-211.18
 L 1497.96,-210.973 L 1497.69,-210.76 L 1497.41,-210.543 L 1497.14,-210.321 L 1496.88,-210.094 L 1496.62,-209.863
 L 1496.36,-209.627 L 1496.11,-209.387 L 1495.86,-209.142 L 1495.61,-208.893 L 1495.37,-208.64 L 1495.14,-208.383
 L 1494.91,-208.121 L 1494.68,-207.856 L 1494.46,-207.586 L 1494.24,-207.313 L 1494.03,-207.036 L 1493.82,-206.756
 L 1493.62,-206.472 L 1493.42,-206.184 L 1493.23,-205.893 L 1493.04,-205.598 L 1492.86,-205.301 L 1492.68,-205
 L 1492.51,-204.696 L 1492.34,-204.389 L 1492.18,-204.08 L 1492.02,-203.767 L 1491.87,-203.452 L 1491.73,-203.135
 L 1491.59,-202.815 L 1491.46,-202.492 L 1491.33,-202.167 L 1491.21,-201.84 L 1491.09,-201.511 L 1490.98,-201.18
 L 1490.87,-200.847 L 1490.77,-200.513 L 1490.68,-200.176 L 1490.59,-199.838 L 1490.51,-199.499 L 1490.44,-199.158
 L 1490.37,-198.816 L 1490.3,-198.473 L 1490.25,-198.129 L 1490.19,-197.783 L 1490.15,-197.437 L 1490.11,-197.091
 L 1490.08,-196.743 L 1490.05,-196.395 L 1490.03,-196.047 L 1490.01,-195.698 L 1490,-195.349 L 1490,-195
 L 1490,-125 L 1517,-125 L 1517,-88.3333 L 1490,-88.3333 L 1490,-51.6667 L 1517,-51.6667
 L 1517,-15 L 1725,-15 z
" stroke="black" fill="lightgray" stroke-width="0.5"/>
</svg>
