<?xml version="1.0" standalone="no"?>
<!DOCTYPE svg PUBLIC "-//W3C//DTD SVG 1.1//EN" "http://www.w3.org/Graphics/SVG/1.1/DTD/svg11.dtd">
<svg width="1940mm" height="470mm" viewBox="20 -485 1940 470" xmlns="http://www.w3.org/2000/svg" version="1.1">
<title>OpenSCAD Model</title>
<path d="
M 1510.35,-250.003 L 1510.7,-250.012 L 1511.05,-250.027 L 1511.4,-250.049 L 1511.74,-250.076 L 1941.74,-285.076
 L 1942.09,-285.11 L 1942.44,-285.149 L 1942.78,-285.195 L 1943.13,-285.246 L 1943.47,-285.304 L 1943.82,-285.367
 L 1944.16,-285.437 L 1944.5,-285.513 L 1944.84,-285.594 L 1945.18,-285.681 L 1945.51,-285.775 L 1945.85,-285.874
 L 1946.18,-285.979 L 1946.51,-286.09 L 1946.84,-286.206 L 1947.17,-286.328 L 1947.49,-286.456 L 1947.81,-286.59
 L 1948.13,-286.729 L 1948.45,-286.874 L 1948.77,-287.024 L 1949.08,-287.18 L 1949.39,-287.341 L 1949.7,-287.508
 L 1950,-287.68 L 1950.3,-287.857 L 1950.6,-288.039 L 1950.89,-288.227 L 1951.18,-288.419 L 1951.47,-288.617
 L 1951.76,-288.82 L 1952.04,-289.027 L 1952.31,-289.24 L 1952.59,-289.457 L 1952.86,-289.679 L 1953.12,-289.906
 L 1953.38,-290.137 L 1953.64,-290.373 L 1953.89,-290.613 L 1954.14,-290.858 L 1954.39,-291.107 L 1954.63,-291.36
 L 1954.86,-291.617 L 1955.09,-291.879 L 1955.32,-292.144 L 1955.54,-292.414 L 1955.76,-292.687 L 1955.97,-292.964
 L 1956.18,-293.244 L 1956.38,-293.528 L 1956.58,-293.816 L 1956.77,-294.107 L 1956.96,-294.402 L 1957.14,-294.699
 L 1957.32,-295 L 1957.49,-295.304 L 1957.66,-295.611 L 1957.82,-295.92 L 1957.98,-296.233 L 1958.13,-296.548
 L 1958.27,-296.865 L 1958.41,-297.185 L 1958.54,-297.508 L 1958.67,-297.833 L 1958.79,-298.16 L 1958.91,-298.489
 L 1959.02,-298.82 L 1959.13,-299.153 L 1959.23,-299.487 L 1959.32,-299.824 L 1959.41,-300.162 L 1959.49,-300.501
 L 1959.56,-300.842 L 1959.63,-301.184 L 1959.7,-301.527 L 1959.75,-301.871 L 1959.81,-302.217 L 1959.85,-302.563
 L 1959.89,-302.909 L 1959.92,-303.257 L 1959.95,-303.605 L 1959.97,-303.953 L 1959.99,-304.302 L 1960,-304.651
 L 1960,-305 L 1960,-375 L 1933,-375 L 1933,-411.667 L 1960,-411.667 L 1960,-448.333
 L 1933,-448.333 L 1933,-485 L 1725,-485 L 1725,-430 L 1698,-430 L 1698,-485
 L 1510,-485 L 1509.65,-484.997 L 1509.3,-484.988 L 1508.95,-484.973 L 1508.6,-484.951 L 1508.26,-484.924
 L 1507.91,-484.89 L 1507.56,-484.851 L 1507.22,-484.805 L 1506.87,-484.754 L 1506.53,-484.696 L 1506.18,-484.633
 L 1505.84,-484.563 L 1505.5,-484.487 L 1505.16,-484.406 L 1504.82,-484.319 L 1504.49,-484.225 L 1504.15,-484.126
 L 1503.82,-484.021 L 1503.49,-483.91 L 1503.16,-483.794 L 1502.83,-483.672 L 1502.51,-483.544 L 1502.19,-483.41
 L 1501.87,-483.271 L 1501.55,-483.126 L 1501.23,-482.976 L 1500.92,-482.82 L 1500.61,-482.659 L 1500.3,-482.492
 L 1500,-482.32 L 1499.7,-482.143 L 1499.4,-481.961 L 1499.11,-481.773 L 1498.82,-481.581 L 1498.53,-481.383
 L 1498.24,-481.18 L 1497.96,-480.973 L 1497.69,-480.76 L 1497.41,-480.543 L 1497.14,-480.321 L 1496.88,-480.094
 L 1496.62,-479.863 L 1496.36,-479.627 L 1496.11,-479.387 L 1495.86,-479.142 L 1495.61,-478.893 L 1495.37,-478.64
 L 1495.14,-478.383 L 1494.91,-478.121 L 1494.68,-477.856 L 1494.46,-477.586 L 1494.24,-477.313 L 1494.03,-477.036
 L 1493.82,-476.756 L 1493.62,-476.472 L 1493.42,-476.184 L 1493.23,-475.893 L 1493.04,-475.598 L 1492.86,-475.301
 L 1492.68,-475 L 1492.51,-474.696 L 1492.34,-474.389 L 1492.18,-474.08 L 1492.02,-473.767 L 1491.87,-473.452
 L 1491.73,-473.135 L 1491.59,-472.815 L 1491.46,-472.492 L 1491.33,-472.167 L 1491.21,-471.84 L 1491.09,-471.511
 L 1490.98,-471.18 L 1490.87,-470.847 L 1490.77,-470.513 L 1490.68,-470.176 L 1490.59,-469.838 L 1490.51,-469.499
 L 1490.44,-469.158 L 1490.37,-468.816 L 1490.3,-468.473 L 1490.25,-468.129 L 1490.19,-467.783 L 1490.15,-467.437
 L 1490.11,-467.091 L 1490.08,-466.743 L 1490.05,-466.395 L 1490.03,-466.047 L 1490.01,-465.698 L 1490,-465.349
 L 1490,-465 L 1490,-270 L 1490,-269.651 L 1490.01,-269.302 L 1490.03,-268.953 L 1490.05,-268.605
 L 1490.08,-268.257 L 1490.11,-267.909 L 1490.15,-267.563 L 1490.19,-267.217 L 1490.25,-266.871 L 1490.3,-266.527
 L 1490.37,-266.184 L 1490.44,-265.842 L 1490.51,-265.501 L 1490.59,-265.162 L 1490.68,-264.824 L 1490.77,-264.487
 L 1490.87,-264.153 L 1490.98,-263.82 L 1491.09,-263.489 L 1491.21,-263.16 L 1491.33,-262.833 L 1491.46,-262.508
 L 1491.59,-262.185 L 1491.73,-261.865 L 1491.87,-261.548 L 1492.02,-261.233 L 1492.18,-260.92 L 1492.34,-260.611
 L 1492.51,-260.304 L 1492.68,-260 L 1492.86,-259.699 L 1493.04,-259.402 L 1493.23,-259.107 L 1493.42,-258.816
 L 1493.62,-258.528 L 1493.82,-258.244 L 1494.03,-257.964 L 1494.24,-257.687 L 1494.46,-257.414 L 1494.68,-257.144
 L 1494.91,-256.879 L 1495.14,-256.617 L 1495.37,-256.36 L 1495.61,-256.107 L 1495.86,-255.858 L 1496.11,-255.613
 L 1496.36,-255.373 L 1496.62,-255.137 L 1496.88,-254.906 L 1497.14,-254.679 L 1497.41,-254.457 L 1497.69,-254.24
 L 1497.96,-254.027 L 1498.24,-253.82 L 1498.53,-253.617 L 1498.82,-253.419 L 1499.11,-253.227 L 1499.4,-253.039
 L 1499.7,-252.857 L 1500,-252.68 L 1500.3,-252.508 L 1500.61,-252.341 L 1500.92,-252.18 L 1501.23,-252.024
 L 1501.55,-251.874 L 1501.87,-251.729 L 1502.19,-251.59 L 1502.51,-251.456 L 1502.83,-251.328 L 1503.16,-251.206
 L 1503.49,-251.09 L 1503.82,-250.979 L 1504.15,-250.874 L 1504.49,-250.775 L 1504.82,-250.681 L 1505.16,-250.594
 L 1505.5,-250.513 L 1505.84,-250.437 L 1506.18,-250.367 L 1506.53,-250.304 L 1506.87,-250.246 L 1507.22,-250.195
 L 1507.56,-250.149 L 1507.91,-250.11 L 1508.26,-250.076 L 1508.6,-250.049 L 1508.95,-250.027 L 1509.3,-250.012
 L 1509.65,-250.003 L 1510,-250 z
M 1020.35,-250.003 L 1020.7,-250.012 L 1021.05,-250.027 L 1021.4,-250.049 L 1021.74,-250.076 L 1451.74,-285.076
 L 1452.09,-285.11 L 1452.44,-285.149 L 1452.78,-285.195 L 1453.13,-285.246 L 1453.47,-285.304 L 1453.82,-285.367
 L 1454.16,-285.437 L 1454.5,-285.513 L 1454.84,-285.594 L 1455.18,-285.681 L 1455.51,-285.775 L 1455.85,-285.874
 L 1456.18,-285.979 L 1456.51,-286.09 L 1456.84,-286.206 L 1457.17,-286.328 L 1457.49,-286.456 L 1457.81,-286.59
 L 1458.13,-286.729 L 1458.45,-286.874 L 1458.77,-287.024 L 1459.08,-287.18 L 1459.39,-287.341 L 1459.7,-287.508
 L 1460,-287.68 L 1460.3,-287.857 L 1460.6,-288.039 L 1460.89,-288.227 L 1461.18,-288.419 L 1461.47,-288.617
 L 1461.76,-288.82 L 1462.04,-289.027 L 1462.31,-289.24 L 1462.59,-289.457 L 1462.86,-289.679 L 1463.12,-289.906
 L 1463.38,-290.137 L 1463.64,-290.373 L 1463.89,-290.613 L 1464.14,-290.858 L 1464.39,-291.107 L 1464.63,-291.36
 L 1464.86,-291.617 L 1465.09,-291.879 L 1465.32,-292.144 L 1465.54,-292.414 L 1465.76,-292.687 L 1465.97,-292.964
 L 1466.18,-293.244 L 1466.38,-293.528 L 1466.58,-293.816 L 1466.77,-294.107 L 1466.96,-294.402 L 1467.14,-294.699
 L 1467.32,-295 L 1467.49,-295.304 L 1467.66,-295.611 L 1467.82,-295.92 L 1467.98,-296.233 L 1468.13,-296.548
 L 1468.27,-296.865 L 1468.41,-297.185 L 1468.54,-297.508 L 1468.67,-297.833 L 1468.79,-298.16 L 1468.91,-298.489
 L 1469.02,-298.82 L 1469.13,-299.153 L 1469.23,-299.487 L 1469.32,-299.824 L 1469.41,-300.162 L 1469.49,-300.501
 L 1469.56,-300.842 L 1469.63,-301.184 L 1469.7,-301.527 L 1469.75,-301.871 L 1469.81,-302.217 L 1469.85,-302.563
 L 1469.89,-302.909 L 1469.92,-303.257 L 1469.95,-303.605 L 1469.97,-303.953 L 1469.99,-304.302 L 1470,-304.651
 L 1470,-305 L 1470,-375 L 1443,-375 L 1443,-411.667 L 1470,-411.667 L 1470,-448.333
 L 1443,-448.333 L 1443,-485 L 1235,-485 L 1235,-430 L 1208,-430 L 1208,-485
 L 1020,-485 L 1019.65,-484.997 L 1019.3,-484.988 L 1018.95,-484.973 L 1018.6,-484.951 L 1018.26,-484.924
 L 1017.91,-484.89 L 1017.56,-484.851 L 1017.22,-484.805 L 1016.87,-484.754 L 1016.53,-484.696 L 1016.18,-484.633
 L 1015.84,-484.563 L 1015.5,-484.487 L 1015.16,-484.406 L 1014.82,-484.319 L 1014.49,-484.225 L 1014.15,-484.126
 L 1013.82,-484.021 L 1013.49,-483.91 L 1013.16,-483.794 L 1012.83,-483.672 L 1012.51,-483.544 L 1012.19,-483.41
 L 1011.87,-483.271 L 1011.55,-483.126 L 1011.23,-482.976 L 1010.92,-482.82 L 1010.61,-482.659 L 1010.3,-482.492
 L 1010,-482.32 L 1009.7,-482.143 L 1009.4,-481.961 L 1009.11,-481.773 L 1008.82,-481.581 L 1008.53,-481.383
 L 1008.24,-481.18 L 1007.96,-480.973 L 1007.69,-480.76 L 1007.41,-480.543 L 1007.14,-480.321 L 1006.88,-480.094
 L 1006.62,-479.863 L 1006.36,-479.627 L 1006.11,-479.387 L 1005.86,-479.142 L 1005.61,-478.893 L 1005.37,-478.64
 L 1005.14,-478.383 L 1004.91,-478.121 L 1004.68,-477.856 L 1004.46,-477.586 L 1004.24,-477.313 L 1004.03,-477.036
 L 1003.82,-476.756 L 1003.62,-476.472 L 1003.42,-476.184 L 1003.23,-475.893 L 1003.04,-475.598 L 1002.86,-475.301
 L 1002.68,-475 L 1002.51,-474.696 L 1002.34,-474.389 L 1002.18,-474.08 L 1002.02,-473.767 L 1001.87,-473.452
 L 1001.73,-473.135 L 1001.59,-472.815 L 1001.46,-472.492 L 1001.33,-472.167 L 1001.21,-471.84 L 1001.09,-471.511
 L 1000.98,-471.18 L 1000.87,-470.847 L 1000.77,-470.513 L 1000.68,-470.176 L 1000.59,-469.838 L 1000.51,-469.499
 L 1000.44,-469.158 L 1000.37,-468.816 L 1000.3,-468.473 L 1000.25,-468.129 L 1000.19,-467.783 L 1000.15,-467.437
 L 1000.11,-467.091 L 1000.08,-466.743 L 1000.05,-466.395 L 1000.03,-466.047 L 1000.01,-465.698 L 1000,-465.349
 L 1000,-465 L 1000,-270 L 1000,-269.651 L 1000.01,-269.302 L 1000.03,-268.953 L 1000.05,-268.605
 L 1000.08,-268.257 L 1000.11,-267.909 L 1000.15,-267.563 L 1000.19,-267.217 L 1000.25,-266.871 L 1000.3,-266.527
 L 1000.37,-266.184 L 1000.44,-265.842 L 1000.51,-265.501 L 1000.59,-265.162 L 1000.68,-264.824 L 1000.77,-264.487
 L 1000.87,-264.153 L 1000.98,-263.82 L 1001.09,-263.489 L 1001.21,-263.16 L 1001.33,-262.833 L 1001.46,-262.508
 L 1001.59,-262.185 L 1001.73,-261.865 L 1001.87,-261.548 L 1002.02,-261.233 L 1002.18,-260.92 L 1002.34,-260.611
 L 1002.51,-260.304 L 1002.68,-260 L 1002.86,-259.699 L 1003.04,-259.402 L 1003.23,-259.107 L 1003.42,-258.816
 L 1003.62,-258.528 L 1003.82,-258.244 L 1004.03,-257.964 L 1004.24,-257.687 L 1004.46,-257.414 L 1004.68,-257.144
 L 1004.91,-256.879 L 1005.14,-256.617 L 1005.37,-256.36 L 1005.61,-256.107 L 1005.86,-255.858 L 1006.11,-255.613
 L 1006.36,-255.373 L 1006.62,-255.137 L 1006.88,-254.906 L 1007.14,-254.679 L 1007.41,-254.457 L 1007.69,-254.24
 L 1007.96,-254.027 L 1008.24,-253.82 L 1008.53,-253.617 L 1008.82,-253.419 L 1009.11,-253.227 L 1009.4,-253.039
 L 1009.7,-252.857 L 1010,-252.68 L 1010.3,-252.508 L 1010.61,-252.341 L 1010.92,-252.18 L 1011.23,-252.024
 L 1011.55,-251.874 L 1011.87,-251.729 L 1012.19,-251.59 L 1012.51,-251.456 L 1012.83,-251.328 L 1013.16,-251.206
 L 1013.49,-251.09 L 1013.82,-250.979 L 1014.15,-250.874 L 1014.49,-250.775 L 1014.82,-250.681 L 1015.16,-250.594
 L 1015.5,-250.513 L 1015.84,-250.437 L 1016.18,-250.367 L 1016.53,-250.304 L 1016.87,-250.246 L 1017.22,-250.195
 L 1017.56,-250.149 L 1017.91,-250.11 L 1018.26,-250.076 L 1018.6,-250.049 L 1018.95,-250.027 L 1019.3,-250.012
 L 1019.65,-250.003 L 1020,-250 z
M 259.101,-15.0358 L 263.201,-15.1432 L 267.299,-15.3221 L 271.393,-15.5724 L 275.482,-15.8943 L 279.564,-16.2874
 L 283.639,-16.7517 L 287.706,-17.287 L 291.762,-17.8932 L 295.807,-18.5702 L 299.84,-19.3176 L 303.859,-20.1353
 L 307.863,-21.023 L 311.852,-21.9805 L 315.822,-23.0074 L 319.775,-24.1035 L 323.707,-25.2684 L 327.619,-26.5017
 L 331.509,-27.8031 L 335.375,-29.1722 L 339.216,-30.6086 L 343.033,-32.1118 L 346.822,-33.6814 L 350.583,-35.3168
 L 354.315,-37.0177 L 358.017,-38.7834 L 361.688,-40.6135 L 365.326,-42.5073 L 368.93,-44.4644 L 372.5,-46.484
 L 376.034,-48.5657 L 379.531,-50.7087 L 382.99,-52.9124 L 386.41,-55.1762 L 389.79,-57.4993 L 393.13,-59.881
 L 396.427,-62.3207 L 399.68,-64.8175 L 402.89,-67.3707 L 406.055,-69.9796 L 409.174,-72.6432 L 412.246,-75.361
 L 415.27,-78.1319 L 418.245,-80.9552 L 421.17,-83.8299 L 424.045,-86.7553 L 426.868,-89.7304 L 429.639,-92.7543
 L 432.357,-95.8261 L 435.02,-98.9449 L 437.629,-102.11 L 440.183,-105.32 L 442.679,-108.573 L 445.119,-111.87
 L 447.501,-115.21 L 449.824,-118.59 L 452.088,-122.01 L 454.291,-125.469 L 456.434,-128.966 L 458.516,-132.5
 L 460.536,-136.07 L 462.493,-139.674 L 464.387,-143.312 L 466.217,-146.983 L 467.982,-150.685 L 469.683,-154.417
 L 471.319,-158.178 L 472.888,-161.967 L 474.391,-165.784 L 475.828,-169.625 L 477.197,-173.491 L 478.498,-177.381
 L 479.732,-181.293 L 480.896,-185.225 L 481.993,-189.178 L 483.019,-193.148 L 483.977,-197.137 L 484.865,-201.141
 L 485.682,-205.16 L 486.43,-209.193 L 487.107,-213.238 L 487.713,-217.294 L 488.248,-221.361 L 488.713,-225.436
 L 489.106,-229.518 L 489.428,-233.607 L 489.678,-237.701 L 489.857,-241.799 L 489.964,-245.899 L 490,-250
 L 489.964,-254.101 L 489.857,-258.201 L 489.678,-262.299 L 489.428,-266.393 L 489.106,-270.482 L 488.713,-274.564
 L 488.248,-278.639 L 487.713,-282.706 L 487.107,-286.762 L 486.43,-290.807 L 485.682,-294.84 L 484.865,-298.859
 L 483.977,-302.863 L 483.019,-306.852 L 481.993,-310.822 L 480.896,-314.775 L 479.732,-318.707 L 478.498,-322.619
 L 477.197,-326.509 L 475.828,-330.375 L 474.391,-334.216 L 472.888,-338.033 L 471.319,-341.822 L 469.683,-345.583
 L 467.982,-349.315 L 466.217,-353.017 L 464.387,-356.688 L 462.493,-360.326 L 460.536,-363.93 L 458.516,-367.5
 L 456.434,-371.034 L 454.291,-374.531 L 452.088,-377.99 L 449.824,-381.41 L 447.501,-384.79 L 445.119,-388.13
 L 442.679,-391.427 L 440.183,-394.68 L 437.629,-397.89 L 435.02,-401.055 L 432.357,-404.174 L 429.639,-407.246
 L 426.868,-410.27 L 424.045,-413.245 L 421.17,-416.17 L 418.245,-419.045 L 415.27,-421.868 L 412.246,-424.639
 L 409.174,-427.357 L 406.055,-430.02 L 402.89,-432.629 L 399.68,-435.183 L 396.427,-437.679 L 393.13,-440.119
 L 389.79,-442.501 L 386.41,-444.824 L 382.99,-447.088 L 379.531,-449.291 L 376.034,-451.434 L 372.5,-453.516
 L 368.93,-455.536 L 365.326,-457.493 L 361.688,-459.387 L 358.017,-461.217 L 354.315,-462.982 L 350.583,-464.683
 L 346.822,-466.319 L 343.033,-467.888 L 339.216,-469.391 L 335.375,-470.828 L 331.509,-472.197 L 327.619,-473.498
 L 323.707,-474.732 L 319.775,-475.896 L 315.822,-476.993 L 311.852,-478.019 L 307.863,-478.977 L 303.859,-479.865
 L 299.84,-480.682 L 295.807,-481.43 L 291.762,-482.107 L 287.706,-482.713 L 283.639,-483.248 L 279.564,-483.713
 L 275.482,-484.106 L 271.393,-484.428 L 267.299,-484.678 L 263.201,-484.857 L 259.101,-484.964 L 255,-485
 L 250.899,-484.964 L 246.799,-484.857 L 242.701,-484.678 L 238.607,-484.428 L 234.518,-484.106 L 230.436,-483.713
 L 226.361,-483.248 L 222.294,-482.713 L 218.238,-482.107 L 214.193,-481.43 L 210.16,-480.682 L 206.141,-479.865
 L 202.137,-478.977 L 198.148,-478.019 L 194.178,-476.993 L 190.225,-475.896 L 186.293,-474.732 L 182.381,-473.498
 L 178.491,-472.197 L 174.625,-470.828 L 170.784,-469.391 L 166.967,-467.888 L 163.178,-466.319 L 159.417,-464.683
 L 155.685,-462.982 L 151.983,-461.217 L 148.312,-459.387 L 144.674,-457.493 L 141.07,-455.536 L 137.5,-453.516
 L 133.966,-451.434 L 130.469,-449.291 L 127.01,-447.088 L 123.59,-444.824 L 120.21,-442.501 L 116.87,-440.119
 L 113.573,-437.679 L 110.32,-435.183 L 107.11,-432.629 L 103.945,-430.02 L 100.826,-427.357 L 97.7543,-424.639
 L 94.7304,-421.868 L 91.7553,-419.045 L 88.8299,-416.17 L 85.9552,-413.245 L 83.1319,-410.27 L 80.361,-407.246
 L 77.6432,-404.174 L 74.9796,-401.055 L 72.3707,-397.89 L 69.8175,-394.68 L 67.3207,-391.427 L 64.881,-388.13
 L 62.4993,-384.79 L 60.1762,-381.41 L 57.9124,-377.99 L 55.7087,-374.531 L 53.5657,-371.034 L 51.484,-367.5
 L 49.4644,-363.93 L 47.5073,-360.326 L 45.6135,-356.688 L 43.7834,-353.017 L 42.0177,-349.315 L 40.3168,-345.583
 L 38.6814,-341.822 L 37.1118,-338.033 L 35.6086,-334.216 L 34.1722,-330.375 L 32.8031,-326.509 L 31.5017,-322.619
 L 30.2684,-318.707 L 29.1035,-314.775 L 28.0074,-310.822 L 26.9805,-306.852 L 26.023,-302.863 L 25.1353,-298.859
 L 24.3176,-294.84 L 23.5702,-290.807 L 22.8932,-286.762 L 22.287,-282.706 L 21.7517,-278.639 L 21.2874,-274.564
 L 20.8943,-270.482 L 20.5724,-266.393 L 20.3221,-262.299 L 20.1432,-258.201 L 20.0358,-254.101 L 20,-250
 L 20.0358,-245.899 L 20.1432,-241.799 L 20.3221,-237.701 L 20.5724,-233.607 L 20.8943,-229.518 L 21.2874,-225.436
 L 21.7517,-221.361 L 22.287,-217.294 L 22.8932,-213.238 L 23.5702,-209.193 L 24.3176,-205.16 L 25.1353,-201.141
 L 26.023,-197.137 L 26.9805,-193.148 L 28.0074,-189.178 L 29.1035,-185.225 L 30.2684,-181.293 L 31.5017,-177.381
 L 32.8031,-173.491 L 34.1722,-169.625 L 35.6086,-165.784 L 37.1118,-161.967 L 38.6814,-158.178 L 40.3168,-154.417
 L 42.0177,-150.685 L 43.7834,-146.983 L 45.6135,-143.312 L 47.5073,-139.674 L 49.4644,-136.07 L 51.484,-132.5
 L 53.5657,-128.966 L 55.7087,-125.469 L 57.9124,-122.01 L 60.1762,-118.59 L 62.4993,-115.21 L 64.881,-111.87
 L 67.3207,-108.573 L 69.8175,-105.32 L 72.3707,-102.11 L 74.9796,-98.9449 L 77.6432,-95.8261 L 80.361,-92.7543
 L 83.1319,-89.7304 L 85.9552,-86.7553 L 88.8299,-83.8299 L 91.7553,-80.9552 L 94.7304,-78.1319 L 97.7543,-75.361
 L 100.826,-72.6432 L 103.945,-69.9796 L 107.11,-67.3707 L 110.32,-64.8175 L 113.573,-62.3207 L 116.87,-59.881
 L 120.21,-57.4993 L 123.59,-55.1762 L 127.01,-52.9124 L 130.469,-50.7087 L 133.966,-48.5657 L 137.5,-46.484
 L 141.07,-44.4644 L 144.674,-42.5073 L 148.312,-40.6135 L 151.983,-38.7834 L 155.685,-37.0177 L 159.417,-35.3168
 L 163.178,-33.6814 L 166.967,-32.1118 L 170.784,-30.6086 L 174.625,-29.1722 L 178.491,-27.8031 L 182.381,-26.5017
 L 186.293,-25.2684 L 190.225,-24.1035 L 194.178,-23.0074 L 198.148,-21.9805 L 202.137,-21.023 L 206.141,-20.1353
 L 210.16,-19.3176 L 214.193,-18.5702 L 218.238,-17.8932 L 222.294,-17.287 L 226.361,-16.7517 L 230.436,-16.2874
 L 234.518,-15.8943 L 238.607,-15.5724 L 242.701,-15.3221 L 246.799,-15.1432 L 250.899,-15.0358 L 255,-15
 z
M 241.5,-411.667 L 241.5,-448.333 L 268.5,-448.333 L 268.5,-411.667 z
M 252.818,-125.019 L 250.638,-125.076 L 248.458,-125.171 L 246.28,-125.305 L 244.106,-125.476 L 241.934,-125.685
 L 239.766,-125.932 L 237.603,-126.216 L 235.446,-126.539 L 233.294,-126.899 L 231.149,-127.297 L 229.011,-127.732
 L 226.881,-128.204 L 224.76,-128.713 L 222.648,-129.259 L 220.545,-129.842 L 218.454,-130.462 L 216.373,-131.118
 L 214.304,-131.81 L 212.247,-132.538 L 210.204,-133.302 L 208.174,-134.102 L 206.159,-134.937 L 204.158,-135.807
 L 202.173,-136.712 L 200.204,-137.651 L 198.251,-138.624 L 197.203,-139.17 L 189.593,-131.56 L 136.56,-184.593
 L 144.17,-192.203 L 143.624,-193.251 L 142.651,-195.204 L 141.712,-197.173 L 140.807,-199.158 L 139.937,-201.159
 L 139.102,-203.174 L 138.302,-205.204 L 137.538,-207.247 L 136.81,-209.304 L 136.118,-211.373 L 135.462,-213.454
 L 134.842,-215.545 L 134.259,-217.648 L 133.713,-219.76 L 133.204,-221.881 L 132.732,-224.011 L 132.297,-226.149
 L 131.899,-228.294 L 131.539,-230.446 L 131.216,-232.603 L 130.932,-234.766 L 130.685,-236.934 L 130.476,-239.106
 L 130.305,-241.28 L 130.171,-243.458 L 130.076,-245.638 L 130.019,-247.818 L 130,-250 L 130.019,-252.182
 L 130.076,-254.362 L 130.171,-256.542 L 130.305,-258.72 L 130.476,-260.894 L 130.685,-263.066 L 130.932,-265.234
 L 131.216,-267.397 L 131.539,-269.554 L 131.899,-271.706 L 132.297,-273.851 L 132.732,-275.989 L 133.204,-278.119
 L 133.713,-280.24 L 134.259,-282.352 L 134.842,-284.455 L 135.462,-286.546 L 136.118,-288.627 L 136.81,-290.696
 L 137.538,-292.753 L 138.302,-294.796 L 139.102,-296.826 L 139.937,-298.841 L 140.807,-300.842 L 141.712,-302.827
 L 142.651,-304.796 L 143.624,-306.749 L 144.632,-308.684 L 145.673,-310.601 L 146.747,-312.5 L 147.854,-314.38
 L 148.994,-316.24 L 150.166,-318.08 L 151.37,-319.899 L 152.606,-321.697 L 153.873,-323.473 L 155.171,-325.227
 L 156.499,-326.958 L 157.857,-328.665 L 159.244,-330.348 L 160.661,-332.007 L 162.107,-333.641 L 163.581,-335.25
 L 165.083,-336.832 L 166.612,-338.388 L 168.168,-339.917 L 169.75,-341.419 L 171.359,-342.893 L 172.993,-344.339
 L 174.652,-345.756 L 176.335,-347.143 L 178.042,-348.501 L 179.773,-349.829 L 181.527,-351.127 L 183.303,-352.394
 L 185.101,-353.63 L 186.92,-354.834 L 188.76,-356.006 L 190.62,-357.146 L 192.5,-358.253 L 194.399,-359.327
 L 196.316,-360.368 L 198.251,-361.376 L 200.204,-362.349 L 202.173,-363.288 L 204.158,-364.193 L 206.159,-365.063
 L 208.174,-365.898 L 210.204,-366.698 L 212.247,-367.462 L 214.304,-368.19 L 216.373,-368.882 L 218.454,-369.538
 L 220.545,-370.158 L 222.648,-370.741 L 224.76,-371.287 L 226.881,-371.796 L 229.011,-372.268 L 231.149,-372.703
 L 233.294,-373.101 L 235.446,-373.461 L 237.603,-373.784 L 239.766,-374.068 L 241.934,-374.315 L 244.106,-374.524
 L 246.28,-374.695 L 248.458,-374.829 L 250.638,-374.924 L 252.818,-374.981 L 255,-375 L 257.182,-374.981
 L 259.362,-374.924 L 261.542,-374.829 L 263.72,-374.695 L 265.894,-374.524 L 268.066,-374.315 L 270.234,-374.068
 L 272.397,-373.784 L 274.554,-373.461 L 276.706,-373.101 L 278.851,-372.703 L 280.989,-372.268 L 283.119,-371.796
 L 285.24,-371.287 L 287.352,-370.741 L 289.455,-370.158 L 291.546,-369.538 L 293.627,-368.882 L 295.696,-368.19
 L 297.753,-367.462 L 299.796,-366.698 L 301.826,-365.898 L 303.841,-365.063 L 305.842,-364.193 L 307.827,-363.288
 L 309.796,-362.349 L 311.749,-361.376 L 312.797,-360.83 L 320.407,-368.44 L 373.44,-315.407 L 365.83,-307.797
 L 366.376,-306.749 L 367.349,-304.796 L 368.288,-302.827 L 369.193,-300.842 L 370.063,-298.841 L 370.898,-296.826
 L 371.698,-294.796 L 372.462,-292.753 L 373.19,-290.696 L 373.882,-288.627 L 374.538,-286.546 L 375.158,-284.455
 L 375.741,-282.352 L 376.287,-280.24 L 376.796,-278.119 L 377.268,-275.989 L 377.703,-273.851 L 378.101,-271.706
 L 378.461,-269.554 L 378.784,-267.397 L 379.068,-265.234 L 379.315,-263.066 L 379.524,-260.894 L 379.695,-258.72
 L 379.829,-256.542 L 379.924,-254.362 L 379.981,-252.182 L 380,-250 L 379.981,-247.818 L 379.924,-245.638
 L 379.829,-243.458 L 379.695,-241.28 L 379.524,-239.106 L 379.315,-236.934 L 379.068,-234.766 L 378.784,-232.603
 L 378.461,-230.446 L 378.101,-228.294 L 377.703,-226.149 L 377.268,-224.011 L 376.796,-221.881 L 376.287,-219.76
 L 375.741,-217.648 L 375.158,-215.545 L 374.538,-213.454 L 373.882,-211.373 L 373.19,-209.304 L 372.462,-207.247
 L 371.698,-205.204 L 370.898,-203.174 L 370.063,-201.159 L 369.193,-199.158 L 368.288,-197.173 L 367.349,-195.204
 L 366.376,-193.251 L 365.368,-191.316 L 364.327,-189.399 L 363.253,-187.5 L 362.146,-185.62 L 361.006,-183.76
 L 359.834,-181.92 L 358.63,-180.101 L 357.394,-178.303 L 356.127,-176.527 L 354.829,-174.773 L 353.501,-173.042
 L 352.143,-171.335 L 350.756,-169.652 L 349.339,-167.993 L 347.893,-166.359 L 346.419,-164.75 L 344.917,-163.168
 L 343.388,-161.612 L 341.832,-160.083 L 340.25,-158.581 L 338.641,-157.107 L 337.007,-155.661 L 335.348,-154.244
 L 333.665,-152.857 L 331.958,-151.499 L 330.227,-150.171 L 328.473,-148.873 L 326.697,-147.606 L 324.899,-146.37
 L 323.08,-145.166 L 321.24,-143.994 L 319.38,-142.854 L 317.5,-141.747 L 315.601,-140.673 L 313.684,-139.632
 L 311.749,-138.624 L 309.796,-137.651 L 307.827,-136.712 L 305.842,-135.807 L 303.841,-134.937 L 301.826,-134.102
 L 299.796,-133.302 L 297.753,-132.538 L 295.696,-131.81 L 293.627,-131.118 L 291.546,-130.462 L 289.455,-129.842
 L 287.352,-129.259 L 285.24,-128.713 L 283.119,-128.204 L 280.989,-127.732 L 278.851,-127.297 L 276.706,-126.899
 L 274.554,-126.539 L 272.397,-126.216 L 270.234,-125.932 L 268.066,-125.685 L 265.894,-125.476 L 263.72,-125.305
 L 261.542,-125.171 L 259.362,-125.076 L 257.182,-125.019 L 255,-125 z
M 416.667,-236.5 L 416.667,-263.5 L 453.333,-263.5 L 453.333,-236.5 z
M 56.6667,-236.5 L 56.6667,-263.5 L 93.3333,-263.5 L 93.3333,-236.5 z
M 241.5,-51.6667 L 241.5,-88.3333 L 268.5,-88.3333 L 268.5,-51.6667 z
M 761.393,-15.5724 L 765.482,-15.8943 L 769.564,-16.2874 L 773.639,-16.7517 L 777.706,-17.287 L 781.762,-17.8932
 L 785.807,-18.5702 L 789.84,-19.3176 L 793.859,-20.1353 L 797.864,-21.023 L 801.852,-21.9805 L 805.822,-23.0074
 L 809.775,-24.1035 L 813.707,-25.2684 L 817.619,-26.5017 L 821.509,-27.8031 L 825.375,-29.1722 L 829.216,-30.6086
 L 833.033,-32.1118 L 836.822,-33.6814 L 840.583,-35.3168 L 844.315,-37.0177 L 848.017,-38.7834 L 851.688,-40.6135
 L 855.326,-42.5073 L 858.93,-44.4644 L 862.5,-46.484 L 866.034,-48.5657 L 869.531,-50.7087 L 872.99,-52.9124
 L 876.41,-55.1762 L 879.79,-57.4993 L 883.13,-59.881 L 886.427,-62.3207 L 889.68,-64.8175 L 892.89,-67.3707
 L 896.055,-69.9796 L 899.174,-72.6432 L 902.246,-75.361 L 905.27,-78.1319 L 908.245,-80.9552 L 911.17,-83.8299
 L 914.045,-86.7553 L 916.868,-89.7304 L 919.639,-92.7543 L 922.357,-95.8261 L 925.02,-98.9449 L 927.629,-102.11
 L 930.182,-105.32 L 932.679,-108.573 L 935.119,-111.87 L 937.501,-115.21 L 939.824,-118.59 L 942.088,-122.01
 L 944.291,-125.469 L 946.434,-128.966 L 948.516,-132.5 L 950.536,-136.07 L 952.493,-139.674 L 954.387,-143.312
 L 956.217,-146.983 L 957.982,-150.685 L 959.683,-154.417 L 961.319,-158.178 L 962.888,-161.967 L 964.391,-165.784
 L 965.828,-169.625 L 967.197,-173.491 L 968.498,-177.381 L 969.732,-181.293 L 970.896,-185.225 L 971.993,-189.178
 L 973.019,-193.148 L 973.977,-197.137 L 974.865,-201.141 L 975.682,-205.16 L 976.43,-209.193 L 977.107,-213.238
 L 977.713,-217.294 L 978.248,-221.361 L 978.713,-225.436 L 979.106,-229.518 L 979.428,-233.607 L 979.604,-236.5
 L 925,-236.5 L 925,-263.5 L 979.604,-263.5 L 979.428,-266.393 L 979.106,-270.482 L 978.713,-274.564
 L 978.248,-278.639 L 977.713,-282.706 L 977.107,-286.762 L 976.43,-290.807 L 975.682,-294.84 L 974.865,-298.859
 L 973.977,-302.863 L 973.019,-306.852 L 971.993,-310.822 L 970.896,-314.775 L 969.732,-318.707 L 968.498,-322.619
 L 967.197,-326.509 L 965.828,-330.375 L 964.391,-334.216 L 962.888,-338.033 L 961.319,-341.822 L 959.683,-345.583
 L 957.982,-349.315 L 956.217,-353.017 L 954.387,-356.688 L 952.493,-360.326 L 950.536,-363.93 L 948.516,-367.5
 L 946.434,-371.034 L 944.291,-374.531 L 942.088,-377.99 L 939.824,-381.41 L 937.501,-384.79 L 935.119,-388.13
 L 932.679,-391.427 L 930.182,-394.68 L 927.629,-397.89 L 925.02,-401.055 L 922.357,-404.174 L 919.639,-407.246
 L 916.868,-410.27 L 914.045,-413.245 L 911.17,-416.17 L 908.245,-419.045 L 905.27,-421.868 L 902.246,-424.639
 L 899.174,-427.357 L 896.055,-430.02 L 892.89,-432.629 L 889.68,-435.183 L 886.427,-437.679 L 883.13,-440.119
 L 879.79,-442.501 L 876.41,-444.824 L 872.99,-447.088 L 869.531,-449.291 L 866.034,-451.434 L 862.5,-453.516
 L 858.93,-455.536 L 855.326,-457.493 L 851.688,-459.387 L 848.017,-461.217 L 844.315,-462.982 L 840.583,-464.683
 L 836.822,-466.319 L 833.033,-467.888 L 829.216,-469.391 L 825.375,-470.828 L 821.509,-472.197 L 817.619,-473.498
 L 813.707,-474.732 L 809.775,-475.896 L 805.822,-476.993 L 801.852,-478.019 L 797.864,-478.977 L 793.859,-479.865
 L 789.84,-480.682 L 785.807,-481.43 L 781.762,-482.107 L 777.706,-482.713 L 773.639,-483.248 L 769.564,-483.713
 L 765.482,-484.106 L 761.393,-484.428 L 758.5,-484.604 L 758.5,-430 L 731.5,-430 L 731.5,-484.604
 L 728.607,-484.428 L 724.518,-484.106 L 720.436,-483.713 L 716.361,-483.248 L 712.294,-482.713 L 708.238,-482.107
 L 704.193,-481.43 L 700.16,-480.682 L 696.141,-479.865 L 692.136,-478.977 L 688.148,-478.019 L 684.178,-476.993
 L 680.225,-475.896 L 676.293,-474.732 L 672.381,-473.498 L 668.491,-472.197 L 664.625,-470.828 L 660.784,-469.391
 L 656.967,-467.888 L 653.178,-466.319 L 649.417,-464.683 L 645.685,-462.982 L 641.983,-461.217 L 638.312,-459.387
 L 634.674,-457.493 L 631.07,-455.536 L 627.5,-453.516 L 623.966,-451.434 L 620.469,-449.291 L 617.01,-447.088
 L 613.59,-444.824 L 610.21,-442.501 L 606.87,-440.119 L 603.573,-437.679 L 600.32,-435.183 L 597.11,-432.629
 L 593.945,-430.02 L 590.826,-427.357 L 587.754,-424.639 L 584.73,-421.868 L 581.755,-419.045 L 578.83,-416.17
 L 575.955,-413.245 L 573.132,-410.27 L 570.361,-407.246 L 567.643,-404.174 L 564.98,-401.055 L 562.371,-397.89
 L 559.818,-394.68 L 557.321,-391.427 L 554.881,-388.13 L 552.499,-384.79 L 550.176,-381.41 L 547.912,-377.99
 L 545.709,-374.531 L 543.566,-371.034 L 541.484,-367.5 L 539.464,-363.93 L 537.507,-360.326 L 535.613,-356.688
 L 533.783,-353.017 L 532.018,-349.315 L 530.317,-345.583 L 528.681,-341.822 L 527.112,-338.033 L 525.609,-334.216
 L 524.172,-330.375 L 522.803,-326.509 L 521.502,-322.619 L 520.268,-318.707 L 519.104,-314.775 L 518.007,-310.822
 L 516.981,-306.852 L 516.023,-302.863 L 515.135,-298.859 L 514.318,-294.84 L 513.57,-290.807 L 512.893,-286.762
 L 512.287,-282.706 L 511.752,-278.639 L 511.287,-274.564 L 510.894,-270.482 L 510.572,-266.393 L 510.396,-263.5
 L 565,-263.5 L 565,-236.5 L 510.396,-236.5 L 510.572,-233.607 L 510.894,-229.518 L 511.287,-225.436
 L 511.752,-221.361 L 512.287,-217.294 L 512.893,-213.238 L 513.57,-209.193 L 514.318,-205.16 L 515.135,-201.141
 L 516.023,-197.137 L 516.981,-193.148 L 518.007,-189.178 L 519.104,-185.225 L 520.268,-181.293 L 521.502,-177.381
 L 522.803,-173.491 L 524.172,-169.625 L 525.609,-165.784 L 527.112,-161.967 L 528.681,-158.178 L 530.317,-154.417
 L 532.018,-150.685 L 533.783,-146.983 L 535.613,-143.312 L 537.507,-139.674 L 539.464,-136.07 L 541.484,-132.5
 L 543.566,-128.966 L 545.709,-125.469 L 547.912,-122.01 L 550.176,-118.59 L 552.499,-115.21 L 554.881,-111.87
 L 557.321,-108.573 L 559.818,-105.32 L 562.371,-102.11 L 564.98,-98.9449 L 567.643,-95.8261 L 570.361,-92.7543
 L 573.132,-89.7304 L 575.955,-86.7553 L 578.83,-83.8299 L 581.755,-80.9552 L 584.73,-78.1319 L 587.754,-75.361
 L 590.826,-72.6432 L 593.945,-69.9796 L 597.11,-67.3707 L 600.32,-64.8175 L 603.573,-62.3207 L 606.87,-59.881
 L 610.21,-57.4993 L 613.59,-55.1762 L 617.01,-52.9124 L 620.469,-50.7087 L 623.966,-48.5657 L 627.5,-46.484
 L 631.07,-44.4644 L 634.674,-42.5073 L 638.312,-40.6135 L 641.983,-38.7834 L 645.685,-37.0177 L 649.417,-35.3168
 L 653.178,-33.6814 L 656.967,-32.1118 L 660.784,-30.6086 L 664.625,-29.1722 L 668.491,-27.8031 L 672.381,-26.5017
 L 676.293,-25.2684 L 680.225,-24.1035 L 684.178,-23.0074 L 688.148,-21.9805 L 692.136,-21.023 L 696.141,-20.1353
 L 700.16,-19.3176 L 704.193,-18.5702 L 708.238,-17.8932 L 712.294,-17.287 L 716.361,-16.7517 L 720.436,-16.2874
 L 724.518,-15.8943 L 728.607,-15.5724 L 731.5,-15.3955 L 731.5,-70 L 758.5,-70 L 758.5,-15.3955
 z
M 742.818,-125.019 L 740.638,-125.076 L 738.458,-125.171 L 736.28,-125.305 L 734.106,-125.476 L 731.934,-125.685
 L 729.766,-125.932 L 727.603,-126.216 L 725.446,-126.539 L 723.294,-126.899 L 721.149,-127.297 L 719.011,-127.732
 L 716.881,-128.204 L 714.76,-128.713 L 712.648,-129.259 L 710.545,-129.842 L 708.454,-130.462 L 706.373,-131.118
 L 704.304,-131.81 L 702.247,-132.538 L 700.204,-133.302 L 698.174,-134.102 L 696.159,-134.937 L 694.158,-135.807
 L 692.173,-136.712 L 690.204,-137.651 L 688.251,-138.624 L 686.316,-139.632 L 684.399,-140.673 L 682.5,-141.747
 L 680.62,-142.854 L 678.76,-143.994 L 676.92,-145.166 L 675.101,-146.37 L 673.303,-147.606 L 671.527,-148.873
 L 669.773,-150.171 L 668.042,-151.499 L 666.335,-152.857 L 664.652,-154.244 L 662.993,-155.661 L 661.359,-157.107
 L 659.75,-158.581 L 658.168,-160.083 L 656.612,-161.612 L 655.083,-163.168 L 653.581,-164.75 L 652.107,-166.359
 L 650.661,-167.993 L 649.244,-169.652 L 647.857,-171.335 L 646.499,-173.042 L 645.171,-174.773 L 643.873,-176.527
 L 642.606,-178.303 L 641.37,-180.101 L 640.166,-181.92 L 638.994,-183.76 L 637.854,-185.62 L 636.747,-187.5
 L 635.673,-189.399 L 634.632,-191.316 L 633.624,-193.251 L 632.651,-195.204 L 631.712,-197.173 L 630.807,-199.158
 L 629.937,-201.159 L 629.102,-203.174 L 628.302,-205.204 L 627.538,-207.247 L 626.81,-209.304 L 626.118,-211.373
 L 625.462,-213.454 L 624.842,-215.545 L 624.259,-217.648 L 623.713,-219.76 L 623.204,-221.881 L 622.732,-224.011
 L 622.297,-226.149 L 621.899,-228.294 L 621.539,-230.446 L 621.216,-232.603 L 620.932,-234.766 L 620.685,-236.934
 L 620.476,-239.106 L 620.305,-241.28 L 620.171,-243.458 L 620.076,-245.638 L 620.019,-247.818 L 620,-250
 L 620.019,-252.182 L 620.076,-254.362 L 620.171,-256.542 L 620.305,-258.72 L 620.476,-260.894 L 620.685,-263.066
 L 620.932,-265.234 L 621.216,-267.397 L 621.539,-269.554 L 621.899,-271.706 L 622.297,-273.851 L 622.732,-275.989
 L 623.204,-278.119 L 623.713,-280.24 L 624.259,-282.352 L 624.842,-284.455 L 625.462,-286.546 L 626.118,-288.627
 L 626.81,-290.696 L 627.538,-292.753 L 628.302,-294.796 L 629.102,-296.826 L 629.937,-298.841 L 630.807,-300.842
 L 631.712,-302.827 L 632.651,-304.796 L 633.624,-306.749 L 634.632,-308.684 L 635.673,-310.601 L 636.747,-312.5
 L 637.854,-314.38 L 638.994,-316.24 L 640.166,-318.08 L 641.37,-319.899 L 642.606,-321.697 L 643.873,-323.473
 L 645.171,-325.227 L 646.499,-326.958 L 647.857,-328.665 L 649.244,-330.348 L 650.661,-332.007 L 652.107,-333.641
 L 653.581,-335.25 L 655.083,-336.832 L 656.612,-338.388 L 658.168,-339.917 L 659.75,-341.419 L 661.359,-342.893
 L 662.993,-344.339 L 664.652,-345.756 L 666.335,-347.143 L 668.042,-348.501 L 669.773,-349.829 L 671.527,-351.127
 L 673.303,-352.394 L 675.101,-353.63 L 676.92,-354.834 L 678.76,-356.006 L 680.62,-357.146 L 682.5,-358.253
 L 684.399,-359.327 L 686.316,-360.368 L 688.251,-361.376 L 690.204,-362.349 L 692.173,-363.288 L 694.158,-364.193
 L 696.159,-365.063 L 698.174,-365.898 L 700.204,-366.698 L 702.247,-367.462 L 704.304,-368.19 L 706.373,-368.882
 L 708.454,-369.538 L 710.545,-370.158 L 712.648,-370.741 L 714.76,-371.287 L 716.881,-371.796 L 719.011,-372.268
 L 721.149,-372.703 L 723.294,-373.101 L 725.446,-373.461 L 727.603,-373.784 L 729.766,-374.068 L 731.934,-374.315
 L 734.106,-374.524 L 736.28,-374.695 L 738.458,-374.829 L 740.638,-374.924 L 742.818,-374.981 L 745,-375
 L 747.182,-374.981 L 749.362,-374.924 L 751.542,-374.829 L 753.72,-374.695 L 755.894,-374.524 L 758.066,-374.315
 L 760.234,-374.068 L 762.397,-373.784 L 764.554,-373.461 L 766.706,-373.101 L 768.851,-372.703 L 770.989,-372.268
 L 773.119,-371.796 L 775.24,-371.287 L 777.352,-370.741 L 779.455,-370.158 L 781.546,-369.538 L 783.627,-368.882
 L 785.696,-368.19 L 787.753,-367.462 L 789.796,-366.698 L 791.826,-365.898 L 793.841,-365.063 L 795.842,-364.193
 L 797.827,-363.288 L 799.796,-362.349 L 801.749,-361.376 L 803.684,-360.368 L 805.601,-359.327 L 807.5,-358.253
 L 809.38,-357.146 L 811.24,-356.006 L 813.08,-354.834 L 814.899,-353.63 L 816.697,-352.394 L 818.473,-351.127
 L 820.227,-349.829 L 821.958,-348.501 L 823.665,-347.143 L 825.348,-345.756 L 827.007,-344.339 L 828.641,-342.893
 L 830.25,-341.419 L 831.832,-339.917 L 833.388,-338.388 L 834.917,-336.832 L 836.419,-335.25 L 837.893,-333.641
 L 839.339,-332.007 L 840.756,-330.348 L 842.143,-328.665 L 843.501,-326.958 L 844.829,-325.227 L 846.127,-323.473
 L 847.394,-321.697 L 848.63,-319.899 L 849.834,-318.08 L 851.006,-316.24 L 852.146,-314.38 L 853.253,-312.5
 L 854.327,-310.601 L 855.368,-308.684 L 856.376,-306.749 L 857.349,-304.796 L 858.288,-302.827 L 859.193,-300.842
 L 860.063,-298.841 L 860.898,-296.826 L 861.698,-294.796 L 862.462,-292.753 L 863.19,-290.696 L 863.882,-288.627
 L 864.538,-286.546 L 865.158,-284.455 L 865.741,-282.352 L 866.287,-280.24 L 866.796,-278.119 L 867.268,-275.989
 L 867.703,-273.851 L 868.101,-271.706 L 868.461,-269.554 L 868.784,-267.397 L 869.068,-265.234 L 869.315,-263.066
 L 869.524,-260.894 L 869.695,-258.72 L 869.829,-256.542 L 869.924,-254.362 L 869.981,-252.182 L 870,-250
 L 869.981,-247.818 L 869.924,-245.638 L 869.829,-243.458 L 869.695,-241.28 L 869.524,-239.106 L 869.315,-236.934
 L 869.068,-234.766 L 868.784,-232.603 L 868.461,-230.446 L 868.101,-228.294 L 867.703,-226.149 L 867.268,-224.011
 L 866.796,-221.881 L 866.287,-219.76 L 865.741,-217.648 L 865.158,-215.545 L 864.538,-213.454 L 863.882,-211.373
 L 863.19,-209.304 L 862.462,-207.247 L 861.698,-205.204 L 860.898,-203.174 L 860.063,-201.159 L 859.193,-199.158
 L 858.288,-197.173 L 857.349,-195.204 L 856.376,-193.251 L 855.368,-191.316 L 854.327,-189.399 L 853.253,-187.5
 L 852.146,-185.62 L 851.006,-183.76 L 849.834,-181.92 L 848.63,-180.101 L 847.394,-178.303 L 846.127,-176.527
 L 844.829,-174.773 L 843.501,-173.042 L 842.143,-171.335 L 840.756,-169.652 L 839.339,-167.993 L 837.893,-166.359
 L 836.419,-164.75 L 834.917,-163.168 L 833.388,-161.612 L 831.832,-160.083 L 830.25,-158.581 L 828.641,-157.107
 L 827.007,-155.661 L 825.348,-154.244 L 823.665,-152.857 L 821.958,-151.499 L 820.227,-150.171 L 818.473,-148.873
 L 816.697,-147.606 L 814.899,-146.37 L 813.08,-145.166 L 811.24,-143.994 L 809.38,-142.854 L 807.5,-141.747
 L 805.601,-140.673 L 803.684,-139.632 L 801.749,-138.624 L 799.796,-137.651 L 797.827,-136.712 L 795.842,-135.807
 L 793.841,-134.937 L 791.826,-134.102 L 789.796,-133.302 L 787.753,-132.538 L 785.696,-131.81 L 783.627,-131.118
 L 781.546,-130.462 L 779.455,-129.842 L 777.352,-129.259 L 775.24,-128.713 L 773.119,-128.204 L 770.989,-127.732
 L 768.851,-127.297 L 766.706,-126.899 L 764.554,-126.539 L 762.397,-126.216 L 760.234,-125.932 L 758.066,-125.685
 L 755.894,-125.476 L 753.72,-125.305 L 751.542,-125.171 L 749.362,-125.076 L 747.182,-125.019 L 745,-125
 z
M 1235,-70 L 1262,-70 L 1262,-15 L 1450,-15 L 1450.35,-15.003 L 1450.7,-15.0122
 L 1451.05,-15.0274 L 1451.4,-15.0487 L 1451.74,-15.0761 L 1452.09,-15.1096 L 1452.44,-15.1491 L 1452.78,-15.1946
 L 1453.13,-15.2462 L 1453.47,-15.3038 L 1453.82,-15.3674 L 1454.16,-15.437 L 1454.5,-15.5126 L 1454.84,-15.5941
 L 1455.18,-15.6815 L 1455.51,-15.7748 L 1455.85,-15.8739 L 1456.18,-15.9789 L 1456.51,-16.0896 L 1456.84,-16.2061
 L 1457.17,-16.3284 L 1457.49,-16.4563 L 1457.81,-16.5899 L 1458.13,-16.7291 L 1458.45,-16.8738 L 1458.77,-17.0241
 L 1459.08,-17.1799 L 1459.39,-17.341 L 1459.7,-17.5076 L 1460,-17.6795 L 1460.3,-17.8566 L 1460.6,-18.039
 L 1460.89,-18.2266 L 1461.18,-18.4192 L 1461.47,-18.617 L 1461.76,-18.8197 L 1462.04,-19.0273 L 1462.31,-19.2398
 L 1462.59,-19.4571 L 1462.86,-19.6791 L 1463.12,-19.9058 L 1463.38,-20.1371 L 1463.64,-20.3729 L 1463.89,-20.6132
 L 1464.14,-20.8578 L 1464.39,-21.1068 L 1464.63,-21.36 L 1464.86,-21.6174 L 1465.09,-21.8788 L 1465.32,-22.1442
 L 1465.54,-22.4136 L 1465.76,-22.6868 L 1465.97,-22.9637 L 1466.18,-23.2443 L 1466.38,-23.5285 L 1466.58,-23.8161
 L 1466.77,-24.1072 L 1466.96,-24.4016 L 1467.14,-24.6992 L 1467.32,-25 L 1467.49,-25.3038 L 1467.66,-25.6106
 L 1467.82,-25.9202 L 1467.98,-26.2326 L 1468.13,-26.5476 L 1468.27,-26.8653 L 1468.41,-27.1854 L 1468.54,-27.5079
 L 1468.67,-27.8326 L 1468.79,-28.1596 L 1468.91,-28.4886 L 1469.02,-28.8197 L 1469.13,-29.1526 L 1469.23,-29.4872
 L 1469.32,-29.8236 L 1469.41,-30.1616 L 1469.49,-30.501 L 1469.56,-30.8418 L 1469.63,-31.1838 L 1469.7,-31.527
 L 1469.75,-31.8713 L 1469.81,-32.2165 L 1469.85,-32.5626 L 1469.89,-32.9094 L 1469.92,-33.2569 L 1469.95,-33.6049
 L 1469.97,-33.9533 L 1469.99,-34.302 L 1470,-34.6509 L 1470,-35 L 1470,-230 L 1470,-230.349
 L 1469.99,-230.698 L 1469.97,-231.047 L 1469.95,-231.395 L 1469.92,-231.743 L 1469.89,-232.091 L 1469.85,-232.437
 L 1469.81,-232.783 L 1469.75,-233.129 L 1469.7,-233.473 L 1469.63,-233.816 L 1469.56,-234.158 L 1469.49,-234.499
 L 1469.41,-234.838 L 1469.32,-235.176 L 1469.23,-235.513 L 1469.13,-235.847 L 1469.02,-236.18 L 1468.91,-236.511
 L 1468.79,-236.84 L 1468.67,-237.167 L 1468.54,-237.492 L 1468.41,-237.815 L 1468.27,-238.135 L 1468.13,-238.452
 L 1467.98,-238.767 L 1467.82,-239.08 L 1467.66,-239.389 L 1467.49,-239.696 L 1467.32,-240 L 1467.14,-240.301
 L 1466.96,-240.598 L 1466.77,-240.893 L 1466.58,-241.184 L 1466.38,-241.472 L 1466.18,-241.756 L 1465.97,-242.036
 L 1465.76,-242.313 L 1465.54,-242.586 L 1465.32,-242.856 L 1465.09,-243.121 L 1464.86,-243.383 L 1464.63,-243.64
 L 1464.39,-243.893 L 1464.14,-244.142 L 1463.89,-244.387 L 1463.64,-244.627 L 1463.38,-244.863 L 1463.12,-245.094
 L 1462.86,-245.321 L 1462.59,-245.543 L 1462.31,-245.76 L 1462.04,-245.973 L 1461.76,-246.18 L 1461.47,-246.383
 L 1461.18,-246.581 L 1460.89,-246.773 L 1460.6,-246.961 L 1460.3,-247.143 L 1460,-247.32 L 1459.7,-247.492
 L 1459.39,-247.659 L 1459.08,-247.82 L 1458.77,-247.976 L 1458.45,-248.126 L 1458.13,-248.271 L 1457.81,-248.41
 L 1457.49,-248.544 L 1457.17,-248.672 L 1456.84,-248.794 L 1456.51,-248.91 L 1456.18,-249.021 L 1455.85,-249.126
 L 1455.51,-249.225 L 1455.18,-249.319 L 1454.84,-249.406 L 1454.5,-249.487 L 1454.16,-249.563 L 1453.82,-249.633
 L 1453.47,-249.696 L 1453.13,-249.754 L 1452.78,-249.805 L 1452.44,-249.851 L 1452.09,-249.89 L 1451.74,-249.924
 L 1451.4,-249.951 L 1451.05,-249.973 L 1450.7,-249.988 L 1450.35,-249.997 L 1450,-250 L 1449.65,-249.997
 L 1449.3,-249.988 L 1448.95,-249.973 L 1448.6,-249.951 L 1448.26,-249.924 L 1018.26,-214.924 L 1017.91,-214.89
 L 1017.56,-214.851 L 1017.22,-214.805 L 1016.87,-214.754 L 1016.53,-214.696 L 1016.18,-214.633 L 1015.84,-214.563
 L 1015.5,-214.487 L 1015.16,-214.406 L 1014.82,-214.319 L 1014.49,-214.225 L 1014.15,-214.126 L 1013.82,-214.021
 L 1013.49,-213.91 L 1013.16,-213.794 L 1012.83,-213.672 L 1012.51,-213.544 L 1012.19,-213.41 L 1011.87,-213.271
 L 1011.55,-213.126 L 1011.23,-212.976 L 1010.92,-212.82 L 1010.61,-212.659 L 1010.3,-212.492 L 1010,-212.32
 L 1009.7,-212.143 L 1009.4,-211.961 L 1009.11,-211.773 L 1008.82,-211.581 L 1008.53,-211.383 L 1008.24,-211.18
 L 1007.96,-210.973 L 1007.69,-210.76 L 1007.41,-210.543 L 1007.14,-210.321 L 1006.88,-210.094 L 1006.62,-209.863
 L 1006.36,-209.627 L 1006.11,-209.387 L 1005.86,-209.142 L 1005.61,-208.893 L 1005.37,-208.64 L 1005.14,-208.383
 L 1004.91,-208.121 L 1004.68,-207.856 L 1004.46,-207.586 L 1004.24,-207.313 L 1004.03,-207.036 L 1003.82,-206.756
 L 1003.62,-206.472 L 1003.42,-206.184 L 1003.23,-205.893 L 1003.04,-205.598 L 1002.86,-205.301 L 1002.68,-205
 L 1002.51,-204.696 L 1002.34,-204.389 L 1002.18,-204.08 L 1002.02,-203.767 L 1001.87,-203.452 L 1001.73,-203.135
 L 1001.59,-202.815 L 1001.46,-202.492 L 1001.33,-202.167 L 1001.21,-201.84 L 1001.09,-201.511 L 1000.98,-201.18
 L 1000.87,-200.847 L 1000.77,-200.513 L 1000.68,-200.176 L 1000.59,-199.838 L 1000.51,-199.499 L 1000.44,-199.158
 L 1000.37,-198.816 L 1000.3,-198.473 L 1000.25,-198.129 L 1000.19,-197.783 L 1000.15,-197.437 L 1000.11,-197.091
 L 1000.08,-196.743 L 1000.05,-196.395 L 1000.03,-196.047 L 1000.01,-195.698 L 1000,-195.349 L 1000,-195
 L 1000,-125 L 1027,-125 L 1027,-88.3333 L 1000,-88.3333 L 1000,-51.6667 L 1027,-51.6667
 L 1027,-15 L 1235,-15 z
M 1725,-70 L 1752,-70 L 1752,-15 L 1940,-15 L 1940.35,-15.003 L 1940.7,-15.0122
 L 1941.05,-15.0274 L 1941.4,-15.0487 L 1941.74,-15.0761 L 1942.09,-15.1096 L 1942.44,-15.1491 L 1942.78,-15.1946
 L 1943.13,-15.2462 L 1943.47,-15.3038 L 1943.82,-15.3674 L 1944.16,-15.437 L 1944.5,-15.5126 L 1944.84,-15.5941
 L 1945.18,-15.6815 L 1945.51,-15.7748 L 1945.85,-15.8739 L 1946.18,-15.9789 L 1946.51,-16.0896 L 1946.84,-16.2061
 L 1947.17,-16.3284 L 1947.49,-16.4563 L 1947.81,-16.5899 L 1948.13,-16.7291 L 1948.45,-16.8738 L 1948.77,-17.0241
 L 1949.08,-17.1799 L 1949.39,-17.341 L 1949.7,-17.5076 L 1950,-17.6795 L 1950.3,-17.8566 L 1950.6,-18.039
 L 1950.89,-18.2266 L 1951.18,-18.4192 L 1951.47,-18.617 L 1951.76,-18.8197 L 1952.04,-19.0273 L 1952.31,-19.2398
 L 1952.59,-19.4571 L 1952.86,-19.6791 L 1953.12,-19.9058 L 1953.38,-20.1371 L 1953.64,-20.3729 L 1953.89,-20.6132
 L 1954.14,-20.8578 L 1954.39,-21.1068 L 1954.63,-21.36 L 1954.86,-21.6174 L 1955.09,-21.8788 L 1955.32,-22.1442
 L 1955.54,-22.4136 L 1955.76,-22.6868 L 1955.97,-22.9637 L 1956.18,-23.2443 L 1956.38,-23.5285 L 1956.58,-23.8161
 L 1956.77,-24.1072 L 1956.96,-24.4016 L 1957.14,-24.6992 L 1957.32,-25 L 1957.49,-25.3038 L 1957.66,-25.6106
 L 1957.82,-25.9202 L 1957.98,-26.2326 L 1958.13,-26.5476 L 1958.27,-26.8653 L 1958.41,-27.1854 L 1958.54,-27.5079
 L 1958.67,-27.8326 L 1958.79,-28.1596 L 1958.91,-28.4886 L 1959.02,-28.8197 L 1959.13,-29.1526 L 1959.23,-29.4872
 L 1959.32,-29.8236 L 1959.41,-30.1616 L 1959.49,-30.501 L 1959.56,-30.8418 L 1959.63,-31.1838 L 1959.7,-31.527
 L 1959.75,-31.8713 L 1959.81,-32.2165 L 1959.85,-32.5626 L 1959.89,-32.9094 L 1959.92,-33.2569 L 1959.95,-33.6049
 L 1959.97,-33.9533 L 1959.99,-34.302 L 1960,-34.6509 L 1960,-35 L 1960,-230 L 1960,-230.349
 L 1959.99,-230.698 L 1959.97,-231.047 L 1959.95,-231.395 L 1959.92,-231.743 L 1959.89,-232.091 L 1959.85,-232.437
 L 1959.81,-232.783 L 1959.75,-233.129 L 1959.7,-233.473 L 1959.63,-233.816 L 1959.56,-234.158 L 1959.49,-234.499
 L 1959.41,-234.838 L 1959.32,-235.176 L 1959.23,-235.513 L 1959.13,-235.847 L 1959.02,-236.18 L 1958.91,-236.511
 L 1958.79,-236.84 L 1958.67,-237.167 L 1958.54,-237.492 L 1958.41,-237.815 L 1958.27,-238.135 L 1958.13,-238.452
 L 1957.98,-238.767 L 1957.82,-239.08 L 1957.66,-239.389 L 1957.49,-239.696 L 1957.32,-240 L 1957.14,-240.301
 L 1956.96,-240.598 L 1956.77,-240.893 L 1956.58,-241.184 L 1956.38,-241.472 L 1956.18,-241.756 L 1955.97,-242.036
 L 1955.76,-242.313 L 1955.54,-242.586 L 1955.32,-242.856 L 1955.09,-243.121 L 1954.86,-243.383 L 1954.63,-243.64
 L 1954.39,-243.893 L 1954.14,-244.142 L 1953.89,-244.387 L 1953.64,-244.627 L 1953.38,-244.863 L 1953.12,-245.094
 L 1952.86,-245.321 L 1952.59,-245.543 L 1952.31,-245.76 L 1952.04,-245.973 L 1951.76,-246.18 L 1951.47,-246.383
 L 1951.18,-246.581 L 1950.89,-246.773 L 1950.6,-246.961 L 1950.3,-247.143 L 1950,-247.32 L 1949.7,-247.492
 L 1949.39,-247.659 L 1949.08,-247.82 L 1948.77,-247.976 L 1948.45,-248.126 L 1948.13,-248.271 L 1947.81,-248.41
 L 1947.49,-248.544 L 1947.17,-248.672 L 1946.84,-248.794 L 1946.51,-248.91 L 1946.18,-249.021 L 1945.85,-249.126
 L 1945.51,-249.225 L 1945.18,-249.319 L 1944.84,-249.406 L 1944.5,-249.487 L 1944.16,-249.563 L 1943.82,-249.633
 L 1943.47,-249.696 L 1943.13,-249.754 L 1942.78,-249.805 L 1942.44,-249.851 L 1942.09,-249.89 L 1941.74,-249.924
 L 1941.4,-249.951 L 1941.05,-249.973 L 1940.7,-249.988 L 1940.35,-249.997 L 1940,-250 L 1939.65,-249.997
 L 1939.3,-249.988 L 1938.95,-249.973 L 1938.6,-249.951 L 1938.26,-249.924 L 1508.26,-214.924 L 1507.91,-214.89
 L 1507.56,-214.851 L 1507.22,-214.805 L 1506.87,-214.754 L 1506.53,-214.696 L 1506.18,-214.633 L 1505.84,-214.563
 L 1505.5,-214.487 L 1505.16,-214.406 L 1504.82,-214.319 L 1504.49,-214.225 L 1504.15,-214.126 L 1503.82,-214.021
 L 1503.49,-213.91 L 1503.16,-213.794 L 1502.83,-213.672 L 1502.51,-213.544 L 1502.19,-213.41 L 1501.87,-213.271
 L 1501.55,-213.126 L 1501.23,-212.976 L 1500.92,-212.82 L 1500.61,-212.659 L 1500.3,-212.492 L 1500,-212.32
 L 1499.7,-212.143 L 1499.4,-211.961 L 1499.11,-211.773 L 1498.82,-211.581 L 1498.53,-211.383 L 1498.24,-211.18
 L 1497.96,-210.973 L 1497.69,-210.76 L 1497.41,-210.543 L 1497.14,-210.321 L 1496.88,-210.094 L 1496.62,-209.863
 L 1496.36,-209.627 L 1496.11,-209.387 L 1495.86,-209.142 L 1495.61,-208.893 L 1495.37,-208.64 L 1495.14,-208.383
 L 1494.91,-208.121 L 1494.68,-207.856 L 1494.46,-207.586 L 1494.24,-207.313 L 1494.03,-207.036 L 1493.82,-206.756
 L 1493.62,-206.472 L 1493.42,-206.184 L 1493.23,-205.893 L 1493.04,-205.598 L 1492.86,-205.301 L 1492.68,-205
 L 1492.51,-204.696 L 1492.34,-204.389 L 1492.18,-204.08 L 1492.02,-203.767 L 1491.87,-203.452 L 1491.73,-203.135
 L 1491.59,-202.815 L 1491.46,-202.492 L 1491.33,-202.167 L 1491.21,-201.84 L 1491.09,-201.511 L 1490.98,-201.18
 L 1490.87,-200.847 L 1490.77,-200.513 L 1490.68,-200.176 L 1490.59,-199.838 L 1490.51,-199.499 L 1490.44,-199.158
 L 1490.37,-198.816 L 1490.3,-198.473 L 1490.25,-198.129 L 1490.19,-197.783 L 1490.15,-197.437 L 1490.11,-197.091
 L 1490.08,-196.743 L 1490.05,-196.395 L 1490.03,-196.047 L 1490.01,-195.698 L 1490,-195.349 L 1490,-195
 L 1490,-125 L 1517,-125 L 1517,-88.3333 L 1490,-88.3333 L 1490,-51.6667 L 1517,-51.6667
 L 1517,-15 L 1725,-15 z
" stroke="black" fill="lightgray" stroke-width="0.5"/>
</svg>
