  0
SECTION
  2
BLOCKS
  0
ENDSEC
  0
SECTION
  2
ENTITIES
  0
LINE
  8
0
 10
1020.35
 20
250.003
 11
1020.7
 21
250.012
  0
LINE
  8
0
 10
1020.7
 20
250.012
 11
1021.05
 21
250.027
  0
LINE
  8
0
 10
1021.05
 20
250.027
 11
1021.4
 21
250.049
  0
LINE
  8
0
 10
1021.4
 20
250.049
 11
1021.74
 21
250.076
  0
LINE
  8
0
 10
1021.74
 20
250.076
 11
1451.74
 21
285.076
  0
LINE
  8
0
 10
1451.74
 20
285.076
 11
1452.09
 21
285.11
  0
LINE
  8
0
 10
1452.09
 20
285.11
 11
1452.44
 21
285.149
  0
LINE
  8
0
 10
1452.44
 20
285.149
 11
1452.78
 21
285.195
  0
LINE
  8
0
 10
1452.78
 20
285.195
 11
1453.13
 21
285.246
  0
LINE
  8
0
 10
1453.13
 20
285.246
 11
1453.47
 21
285.304
  0
LINE
  8
0
 10
1453.47
 20
285.304
 11
1453.82
 21
285.367
  0
LINE
  8
0
 10
1453.82
 20
285.367
 11
1454.16
 21
285.437
  0
LINE
  8
0
 10
1454.16
 20
285.437
 11
1454.5
 21
285.513
  0
LINE
  8
0
 10
1454.5
 20
285.513
 11
1454.84
 21
285.594
  0
LINE
  8
0
 10
1454.84
 20
285.594
 11
1455.18
 21
285.681
  0
LINE
  8
0
 10
1455.18
 20
285.681
 11
1455.51
 21
285.775
  0
LINE
  8
0
 10
1455.51
 20
285.775
 11
1455.85
 21
285.874
  0
LINE
  8
0
 10
1455.85
 20
285.874
 11
1456.18
 21
285.979
  0
LINE
  8
0
 10
1456.18
 20
285.979
 11
1456.51
 21
286.09
  0
LINE
  8
0
 10
1456.51
 20
286.09
 11
1456.84
 21
286.206
  0
LINE
  8
0
 10
1456.84
 20
286.206
 11
1457.17
 21
286.328
  0
LINE
  8
0
 10
1457.17
 20
286.328
 11
1457.49
 21
286.456
  0
LINE
  8
0
 10
1457.49
 20
286.456
 11
1457.81
 21
286.59
  0
LINE
  8
0
 10
1457.81
 20
286.59
 11
1458.13
 21
286.729
  0
LINE
  8
0
 10
1458.13
 20
286.729
 11
1458.45
 21
286.874
  0
LINE
  8
0
 10
1458.45
 20
286.874
 11
1458.77
 21
287.024
  0
LINE
  8
0
 10
1458.77
 20
287.024
 11
1459.08
 21
287.18
  0
LINE
  8
0
 10
1459.08
 20
287.18
 11
1459.39
 21
287.341
  0
LINE
  8
0
 10
1459.39
 20
287.341
 11
1459.7
 21
287.508
  0
LINE
  8
0
 10
1459.7
 20
287.508
 11
1460
 21
287.68
  0
LINE
  8
0
 10
1460
 20
287.68
 11
1460.3
 21
287.857
  0
LINE
  8
0
 10
1460.3
 20
287.857
 11
1460.6
 21
288.039
  0
LINE
  8
0
 10
1460.6
 20
288.039
 11
1460.89
 21
288.227
  0
LINE
  8
0
 10
1460.89
 20
288.227
 11
1461.18
 21
288.419
  0
LINE
  8
0
 10
1461.18
 20
288.419
 11
1461.47
 21
288.617
  0
LINE
  8
0
 10
1461.47
 20
288.617
 11
1461.76
 21
288.82
  0
LINE
  8
0
 10
1461.76
 20
288.82
 11
1462.04
 21
289.027
  0
LINE
  8
0
 10
1462.04
 20
289.027
 11
1462.31
 21
289.24
  0
LINE
  8
0
 10
1462.31
 20
289.24
 11
1462.59
 21
289.457
  0
LINE
  8
0
 10
1462.59
 20
289.457
 11
1462.86
 21
289.679
  0
LINE
  8
0
 10
1462.86
 20
289.679
 11
1463.12
 21
289.906
  0
LINE
  8
0
 10
1463.12
 20
289.906
 11
1463.38
 21
290.137
  0
LINE
  8
0
 10
1463.38
 20
290.137
 11
1463.64
 21
290.373
  0
LINE
  8
0
 10
1463.64
 20
290.373
 11
1463.89
 21
290.613
  0
LINE
  8
0
 10
1463.89
 20
290.613
 11
1464.14
 21
290.858
  0
LINE
  8
0
 10
1464.14
 20
290.858
 11
1464.39
 21
291.107
  0
LINE
  8
0
 10
1464.39
 20
291.107
 11
1464.63
 21
291.36
  0
LINE
  8
0
 10
1464.63
 20
291.36
 11
1464.86
 21
291.617
  0
LINE
  8
0
 10
1464.86
 20
291.617
 11
1465.09
 21
291.879
  0
LINE
  8
0
 10
1465.09
 20
291.879
 11
1465.32
 21
292.144
  0
LINE
  8
0
 10
1465.32
 20
292.144
 11
1465.54
 21
292.414
  0
LINE
  8
0
 10
1465.54
 20
292.414
 11
1465.76
 21
292.687
  0
LINE
  8
0
 10
1465.76
 20
292.687
 11
1465.97
 21
292.964
  0
LINE
  8
0
 10
1465.97
 20
292.964
 11
1466.18
 21
293.244
  0
LINE
  8
0
 10
1466.18
 20
293.244
 11
1466.38
 21
293.528
  0
LINE
  8
0
 10
1466.38
 20
293.528
 11
1466.58
 21
293.816
  0
LINE
  8
0
 10
1466.58
 20
293.816
 11
1466.77
 21
294.107
  0
LINE
  8
0
 10
1466.77
 20
294.107
 11
1466.96
 21
294.402
  0
LINE
  8
0
 10
1466.96
 20
294.402
 11
1467.14
 21
294.699
  0
LINE
  8
0
 10
1467.14
 20
294.699
 11
1467.32
 21
295
  0
LINE
  8
0
 10
1467.32
 20
295
 11
1467.49
 21
295.304
  0
LINE
  8
0
 10
1467.49
 20
295.304
 11
1467.66
 21
295.611
  0
LINE
  8
0
 10
1467.66
 20
295.611
 11
1467.82
 21
295.92
  0
LINE
  8
0
 10
1467.82
 20
295.92
 11
1467.98
 21
296.233
  0
LINE
  8
0
 10
1467.98
 20
296.233
 11
1468.13
 21
296.548
  0
LINE
  8
0
 10
1468.13
 20
296.548
 11
1468.27
 21
296.865
  0
LINE
  8
0
 10
1468.27
 20
296.865
 11
1468.41
 21
297.185
  0
LINE
  8
0
 10
1468.41
 20
297.185
 11
1468.54
 21
297.508
  0
LINE
  8
0
 10
1468.54
 20
297.508
 11
1468.67
 21
297.833
  0
LINE
  8
0
 10
1468.67
 20
297.833
 11
1468.79
 21
298.16
  0
LINE
  8
0
 10
1468.79
 20
298.16
 11
1468.91
 21
298.489
  0
LINE
  8
0
 10
1468.91
 20
298.489
 11
1469.02
 21
298.82
  0
LINE
  8
0
 10
1469.02
 20
298.82
 11
1469.13
 21
299.153
  0
LINE
  8
0
 10
1469.13
 20
299.153
 11
1469.23
 21
299.487
  0
LINE
  8
0
 10
1469.23
 20
299.487
 11
1469.32
 21
299.824
  0
LINE
  8
0
 10
1469.32
 20
299.824
 11
1469.41
 21
300.162
  0
LINE
  8
0
 10
1469.41
 20
300.162
 11
1469.49
 21
300.501
  0
LINE
  8
0
 10
1469.49
 20
300.501
 11
1469.56
 21
300.842
  0
LINE
  8
0
 10
1469.56
 20
300.842
 11
1469.63
 21
301.184
  0
LINE
  8
0
 10
1469.63
 20
301.184
 11
1469.7
 21
301.527
  0
LINE
  8
0
 10
1469.7
 20
301.527
 11
1469.75
 21
301.871
  0
LINE
  8
0
 10
1469.75
 20
301.871
 11
1469.81
 21
302.217
  0
LINE
  8
0
 10
1469.81
 20
302.217
 11
1469.85
 21
302.563
  0
LINE
  8
0
 10
1469.85
 20
302.563
 11
1469.89
 21
302.909
  0
LINE
  8
0
 10
1469.89
 20
302.909
 11
1469.92
 21
303.257
  0
LINE
  8
0
 10
1469.92
 20
303.257
 11
1469.95
 21
303.605
  0
LINE
  8
0
 10
1469.95
 20
303.605
 11
1469.97
 21
303.953
  0
LINE
  8
0
 10
1469.97
 20
303.953
 11
1469.99
 21
304.302
  0
LINE
  8
0
 10
1469.99
 20
304.302
 11
1470
 21
304.651
  0
LINE
  8
0
 10
1470
 20
304.651
 11
1470
 21
305
  0
LINE
  8
0
 10
1470
 20
305
 11
1470
 21
375
  0
LINE
  8
0
 10
1470
 20
375
 11
1443
 21
375
  0
LINE
  8
0
 10
1443
 20
375
 11
1443
 21
411.667
  0
LINE
  8
0
 10
1443
 20
411.667
 11
1470
 21
411.667
  0
LINE
  8
0
 10
1470
 20
411.667
 11
1470
 21
448.333
  0
LINE
  8
0
 10
1470
 20
448.333
 11
1443
 21
448.333
  0
LINE
  8
0
 10
1443
 20
448.333
 11
1443
 21
485
  0
LINE
  8
0
 10
1443
 20
485
 11
1235
 21
485
  0
LINE
  8
0
 10
1235
 20
485
 11
1235
 21
430
  0
LINE
  8
0
 10
1235
 20
430
 11
1208
 21
430
  0
LINE
  8
0
 10
1208
 20
430
 11
1208
 21
485
  0
LINE
  8
0
 10
1208
 20
485
 11
1020
 21
485
  0
LINE
  8
0
 10
1020
 20
485
 11
1019.65
 21
484.997
  0
LINE
  8
0
 10
1019.65
 20
484.997
 11
1019.3
 21
484.988
  0
LINE
  8
0
 10
1019.3
 20
484.988
 11
1018.95
 21
484.973
  0
LINE
  8
0
 10
1018.95
 20
484.973
 11
1018.6
 21
484.951
  0
LINE
  8
0
 10
1018.6
 20
484.951
 11
1018.26
 21
484.924
  0
LINE
  8
0
 10
1018.26
 20
484.924
 11
1017.91
 21
484.89
  0
LINE
  8
0
 10
1017.91
 20
484.89
 11
1017.56
 21
484.851
  0
LINE
  8
0
 10
1017.56
 20
484.851
 11
1017.22
 21
484.805
  0
LINE
  8
0
 10
1017.22
 20
484.805
 11
1016.87
 21
484.754
  0
LINE
  8
0
 10
1016.87
 20
484.754
 11
1016.53
 21
484.696
  0
LINE
  8
0
 10
1016.53
 20
484.696
 11
1016.18
 21
484.633
  0
LINE
  8
0
 10
1016.18
 20
484.633
 11
1015.84
 21
484.563
  0
LINE
  8
0
 10
1015.84
 20
484.563
 11
1015.5
 21
484.487
  0
LINE
  8
0
 10
1015.5
 20
484.487
 11
1015.16
 21
484.406
  0
LINE
  8
0
 10
1015.16
 20
484.406
 11
1014.82
 21
484.319
  0
LINE
  8
0
 10
1014.82
 20
484.319
 11
1014.49
 21
484.225
  0
LINE
  8
0
 10
1014.49
 20
484.225
 11
1014.15
 21
484.126
  0
LINE
  8
0
 10
1014.15
 20
484.126
 11
1013.82
 21
484.021
  0
LINE
  8
0
 10
1013.82
 20
484.021
 11
1013.49
 21
483.91
  0
LINE
  8
0
 10
1013.49
 20
483.91
 11
1013.16
 21
483.794
  0
LINE
  8
0
 10
1013.16
 20
483.794
 11
1012.83
 21
483.672
  0
LINE
  8
0
 10
1012.83
 20
483.672
 11
1012.51
 21
483.544
  0
LINE
  8
0
 10
1012.51
 20
483.544
 11
1012.19
 21
483.41
  0
LINE
  8
0
 10
1012.19
 20
483.41
 11
1011.87
 21
483.271
  0
LINE
  8
0
 10
1011.87
 20
483.271
 11
1011.55
 21
483.126
  0
LINE
  8
0
 10
1011.55
 20
483.126
 11
1011.23
 21
482.976
  0
LINE
  8
0
 10
1011.23
 20
482.976
 11
1010.92
 21
482.82
  0
LINE
  8
0
 10
1010.92
 20
482.82
 11
1010.61
 21
482.659
  0
LINE
  8
0
 10
1010.61
 20
482.659
 11
1010.3
 21
482.492
  0
LINE
  8
0
 10
1010.3
 20
482.492
 11
1010
 21
482.32
  0
LINE
  8
0
 10
1010
 20
482.32
 11
1009.7
 21
482.143
  0
LINE
  8
0
 10
1009.7
 20
482.143
 11
1009.4
 21
481.961
  0
LINE
  8
0
 10
1009.4
 20
481.961
 11
1009.11
 21
481.773
  0
LINE
  8
0
 10
1009.11
 20
481.773
 11
1008.82
 21
481.581
  0
LINE
  8
0
 10
1008.82
 20
481.581
 11
1008.53
 21
481.383
  0
LINE
  8
0
 10
1008.53
 20
481.383
 11
1008.24
 21
481.18
  0
LINE
  8
0
 10
1008.24
 20
481.18
 11
1007.96
 21
480.973
  0
LINE
  8
0
 10
1007.96
 20
480.973
 11
1007.69
 21
480.76
  0
LINE
  8
0
 10
1007.69
 20
480.76
 11
1007.41
 21
480.543
  0
LINE
  8
0
 10
1007.41
 20
480.543
 11
1007.14
 21
480.321
  0
LINE
  8
0
 10
1007.14
 20
480.321
 11
1006.88
 21
480.094
  0
LINE
  8
0
 10
1006.88
 20
480.094
 11
1006.62
 21
479.863
  0
LINE
  8
0
 10
1006.62
 20
479.863
 11
1006.36
 21
479.627
  0
LINE
  8
0
 10
1006.36
 20
479.627
 11
1006.11
 21
479.387
  0
LINE
  8
0
 10
1006.11
 20
479.387
 11
1005.86
 21
479.142
  0
LINE
  8
0
 10
1005.86
 20
479.142
 11
1005.61
 21
478.893
  0
LINE
  8
0
 10
1005.61
 20
478.893
 11
1005.37
 21
478.64
  0
LINE
  8
0
 10
1005.37
 20
478.64
 11
1005.14
 21
478.383
  0
LINE
  8
0
 10
1005.14
 20
478.383
 11
1004.91
 21
478.121
  0
LINE
  8
0
 10
1004.91
 20
478.121
 11
1004.68
 21
477.856
  0
LINE
  8
0
 10
1004.68
 20
477.856
 11
1004.46
 21
477.586
  0
LINE
  8
0
 10
1004.46
 20
477.586
 11
1004.24
 21
477.313
  0
LINE
  8
0
 10
1004.24
 20
477.313
 11
1004.03
 21
477.036
  0
LINE
  8
0
 10
1004.03
 20
477.036
 11
1003.82
 21
476.756
  0
LINE
  8
0
 10
1003.82
 20
476.756
 11
1003.62
 21
476.472
  0
LINE
  8
0
 10
1003.62
 20
476.472
 11
1003.42
 21
476.184
  0
LINE
  8
0
 10
1003.42
 20
476.184
 11
1003.23
 21
475.893
  0
LINE
  8
0
 10
1003.23
 20
475.893
 11
1003.04
 21
475.598
  0
LINE
  8
0
 10
1003.04
 20
475.598
 11
1002.86
 21
475.301
  0
LINE
  8
0
 10
1002.86
 20
475.301
 11
1002.68
 21
475
  0
LINE
  8
0
 10
1002.68
 20
475
 11
1002.51
 21
474.696
  0
LINE
  8
0
 10
1002.51
 20
474.696
 11
1002.34
 21
474.389
  0
LINE
  8
0
 10
1002.34
 20
474.389
 11
1002.18
 21
474.08
  0
LINE
  8
0
 10
1002.18
 20
474.08
 11
1002.02
 21
473.767
  0
LINE
  8
0
 10
1002.02
 20
473.767
 11
1001.87
 21
473.452
  0
LINE
  8
0
 10
1001.87
 20
473.452
 11
1001.73
 21
473.135
  0
LINE
  8
0
 10
1001.73
 20
473.135
 11
1001.59
 21
472.815
  0
LINE
  8
0
 10
1001.59
 20
472.815
 11
1001.46
 21
472.492
  0
LINE
  8
0
 10
1001.46
 20
472.492
 11
1001.33
 21
472.167
  0
LINE
  8
0
 10
1001.33
 20
472.167
 11
1001.21
 21
471.84
  0
LINE
  8
0
 10
1001.21
 20
471.84
 11
1001.09
 21
471.511
  0
LINE
  8
0
 10
1001.09
 20
471.511
 11
1000.98
 21
471.18
  0
LINE
  8
0
 10
1000.98
 20
471.18
 11
1000.87
 21
470.847
  0
LINE
  8
0
 10
1000.87
 20
470.847
 11
1000.77
 21
470.513
  0
LINE
  8
0
 10
1000.77
 20
470.513
 11
1000.68
 21
470.176
  0
LINE
  8
0
 10
1000.68
 20
470.176
 11
1000.59
 21
469.838
  0
LINE
  8
0
 10
1000.59
 20
469.838
 11
1000.51
 21
469.499
  0
LINE
  8
0
 10
1000.51
 20
469.499
 11
1000.44
 21
469.158
  0
LINE
  8
0
 10
1000.44
 20
469.158
 11
1000.37
 21
468.816
  0
LINE
  8
0
 10
1000.37
 20
468.816
 11
1000.3
 21
468.473
  0
LINE
  8
0
 10
1000.3
 20
468.473
 11
1000.25
 21
468.129
  0
LINE
  8
0
 10
1000.25
 20
468.129
 11
1000.19
 21
467.783
  0
LINE
  8
0
 10
1000.19
 20
467.783
 11
1000.15
 21
467.437
  0
LINE
  8
0
 10
1000.15
 20
467.437
 11
1000.11
 21
467.091
  0
LINE
  8
0
 10
1000.11
 20
467.091
 11
1000.08
 21
466.743
  0
LINE
  8
0
 10
1000.08
 20
466.743
 11
1000.05
 21
466.395
  0
LINE
  8
0
 10
1000.05
 20
466.395
 11
1000.03
 21
466.047
  0
LINE
  8
0
 10
1000.03
 20
466.047
 11
1000.01
 21
465.698
  0
LINE
  8
0
 10
1000.01
 20
465.698
 11
1000
 21
465.349
  0
LINE
  8
0
 10
1000
 20
465.349
 11
1000
 21
465
  0
LINE
  8
0
 10
1000
 20
465
 11
1000
 21
270
  0
LINE
  8
0
 10
1000
 20
270
 11
1000
 21
269.651
  0
LINE
  8
0
 10
1000
 20
269.651
 11
1000.01
 21
269.302
  0
LINE
  8
0
 10
1000.01
 20
269.302
 11
1000.03
 21
268.953
  0
LINE
  8
0
 10
1000.03
 20
268.953
 11
1000.05
 21
268.605
  0
LINE
  8
0
 10
1000.05
 20
268.605
 11
1000.08
 21
268.257
  0
LINE
  8
0
 10
1000.08
 20
268.257
 11
1000.11
 21
267.909
  0
LINE
  8
0
 10
1000.11
 20
267.909
 11
1000.15
 21
267.563
  0
LINE
  8
0
 10
1000.15
 20
267.563
 11
1000.19
 21
267.217
  0
LINE
  8
0
 10
1000.19
 20
267.217
 11
1000.25
 21
266.871
  0
LINE
  8
0
 10
1000.25
 20
266.871
 11
1000.3
 21
266.527
  0
LINE
  8
0
 10
1000.3
 20
266.527
 11
1000.37
 21
266.184
  0
LINE
  8
0
 10
1000.37
 20
266.184
 11
1000.44
 21
265.842
  0
LINE
  8
0
 10
1000.44
 20
265.842
 11
1000.51
 21
265.501
  0
LINE
  8
0
 10
1000.51
 20
265.501
 11
1000.59
 21
265.162
  0
LINE
  8
0
 10
1000.59
 20
265.162
 11
1000.68
 21
264.824
  0
LINE
  8
0
 10
1000.68
 20
264.824
 11
1000.77
 21
264.487
  0
LINE
  8
0
 10
1000.77
 20
264.487
 11
1000.87
 21
264.153
  0
LINE
  8
0
 10
1000.87
 20
264.153
 11
1000.98
 21
263.82
  0
LINE
  8
0
 10
1000.98
 20
263.82
 11
1001.09
 21
263.489
  0
LINE
  8
0
 10
1001.09
 20
263.489
 11
1001.21
 21
263.16
  0
LINE
  8
0
 10
1001.21
 20
263.16
 11
1001.33
 21
262.833
  0
LINE
  8
0
 10
1001.33
 20
262.833
 11
1001.46
 21
262.508
  0
LINE
  8
0
 10
1001.46
 20
262.508
 11
1001.59
 21
262.185
  0
LINE
  8
0
 10
1001.59
 20
262.185
 11
1001.73
 21
261.865
  0
LINE
  8
0
 10
1001.73
 20
261.865
 11
1001.87
 21
261.548
  0
LINE
  8
0
 10
1001.87
 20
261.548
 11
1002.02
 21
261.233
  0
LINE
  8
0
 10
1002.02
 20
261.233
 11
1002.18
 21
260.92
  0
LINE
  8
0
 10
1002.18
 20
260.92
 11
1002.34
 21
260.611
  0
LINE
  8
0
 10
1002.34
 20
260.611
 11
1002.51
 21
260.304
  0
LINE
  8
0
 10
1002.51
 20
260.304
 11
1002.68
 21
260
  0
LINE
  8
0
 10
1002.68
 20
260
 11
1002.86
 21
259.699
  0
LINE
  8
0
 10
1002.86
 20
259.699
 11
1003.04
 21
259.402
  0
LINE
  8
0
 10
1003.04
 20
259.402
 11
1003.23
 21
259.107
  0
LINE
  8
0
 10
1003.23
 20
259.107
 11
1003.42
 21
258.816
  0
LINE
  8
0
 10
1003.42
 20
258.816
 11
1003.62
 21
258.528
  0
LINE
  8
0
 10
1003.62
 20
258.528
 11
1003.82
 21
258.244
  0
LINE
  8
0
 10
1003.82
 20
258.244
 11
1004.03
 21
257.964
  0
LINE
  8
0
 10
1004.03
 20
257.964
 11
1004.24
 21
257.687
  0
LINE
  8
0
 10
1004.24
 20
257.687
 11
1004.46
 21
257.414
  0
LINE
  8
0
 10
1004.46
 20
257.414
 11
1004.68
 21
257.144
  0
LINE
  8
0
 10
1004.68
 20
257.144
 11
1004.91
 21
256.879
  0
LINE
  8
0
 10
1004.91
 20
256.879
 11
1005.14
 21
256.617
  0
LINE
  8
0
 10
1005.14
 20
256.617
 11
1005.37
 21
256.36
  0
LINE
  8
0
 10
1005.37
 20
256.36
 11
1005.61
 21
256.107
  0
LINE
  8
0
 10
1005.61
 20
256.107
 11
1005.86
 21
255.858
  0
LINE
  8
0
 10
1005.86
 20
255.858
 11
1006.11
 21
255.613
  0
LINE
  8
0
 10
1006.11
 20
255.613
 11
1006.36
 21
255.373
  0
LINE
  8
0
 10
1006.36
 20
255.373
 11
1006.62
 21
255.137
  0
LINE
  8
0
 10
1006.62
 20
255.137
 11
1006.88
 21
254.906
  0
LINE
  8
0
 10
1006.88
 20
254.906
 11
1007.14
 21
254.679
  0
LINE
  8
0
 10
1007.14
 20
254.679
 11
1007.41
 21
254.457
  0
LINE
  8
0
 10
1007.41
 20
254.457
 11
1007.69
 21
254.24
  0
LINE
  8
0
 10
1007.69
 20
254.24
 11
1007.96
 21
254.027
  0
LINE
  8
0
 10
1007.96
 20
254.027
 11
1008.24
 21
253.82
  0
LINE
  8
0
 10
1008.24
 20
253.82
 11
1008.53
 21
253.617
  0
LINE
  8
0
 10
1008.53
 20
253.617
 11
1008.82
 21
253.419
  0
LINE
  8
0
 10
1008.82
 20
253.419
 11
1009.11
 21
253.227
  0
LINE
  8
0
 10
1009.11
 20
253.227
 11
1009.4
 21
253.039
  0
LINE
  8
0
 10
1009.4
 20
253.039
 11
1009.7
 21
252.857
  0
LINE
  8
0
 10
1009.7
 20
252.857
 11
1010
 21
252.68
  0
LINE
  8
0
 10
1010
 20
252.68
 11
1010.3
 21
252.508
  0
LINE
  8
0
 10
1010.3
 20
252.508
 11
1010.61
 21
252.341
  0
LINE
  8
0
 10
1010.61
 20
252.341
 11
1010.92
 21
252.18
  0
LINE
  8
0
 10
1010.92
 20
252.18
 11
1011.23
 21
252.024
  0
LINE
  8
0
 10
1011.23
 20
252.024
 11
1011.55
 21
251.874
  0
LINE
  8
0
 10
1011.55
 20
251.874
 11
1011.87
 21
251.729
  0
LINE
  8
0
 10
1011.87
 20
251.729
 11
1012.19
 21
251.59
  0
LINE
  8
0
 10
1012.19
 20
251.59
 11
1012.51
 21
251.456
  0
LINE
  8
0
 10
1012.51
 20
251.456
 11
1012.83
 21
251.328
  0
LINE
  8
0
 10
1012.83
 20
251.328
 11
1013.16
 21
251.206
  0
LINE
  8
0
 10
1013.16
 20
251.206
 11
1013.49
 21
251.09
  0
LINE
  8
0
 10
1013.49
 20
251.09
 11
1013.82
 21
250.979
  0
LINE
  8
0
 10
1013.82
 20
250.979
 11
1014.15
 21
250.874
  0
LINE
  8
0
 10
1014.15
 20
250.874
 11
1014.49
 21
250.775
  0
LINE
  8
0
 10
1014.49
 20
250.775
 11
1014.82
 21
250.681
  0
LINE
  8
0
 10
1014.82
 20
250.681
 11
1015.16
 21
250.594
  0
LINE
  8
0
 10
1015.16
 20
250.594
 11
1015.5
 21
250.513
  0
LINE
  8
0
 10
1015.5
 20
250.513
 11
1015.84
 21
250.437
  0
LINE
  8
0
 10
1015.84
 20
250.437
 11
1016.18
 21
250.367
  0
LINE
  8
0
 10
1016.18
 20
250.367
 11
1016.53
 21
250.304
  0
LINE
  8
0
 10
1016.53
 20
250.304
 11
1016.87
 21
250.246
  0
LINE
  8
0
 10
1016.87
 20
250.246
 11
1017.22
 21
250.195
  0
LINE
  8
0
 10
1017.22
 20
250.195
 11
1017.56
 21
250.149
  0
LINE
  8
0
 10
1017.56
 20
250.149
 11
1017.91
 21
250.11
  0
LINE
  8
0
 10
1017.91
 20
250.11
 11
1018.26
 21
250.076
  0
LINE
  8
0
 10
1018.26
 20
250.076
 11
1018.6
 21
250.049
  0
LINE
  8
0
 10
1018.6
 20
250.049
 11
1018.95
 21
250.027
  0
LINE
  8
0
 10
1018.95
 20
250.027
 11
1019.3
 21
250.012
  0
LINE
  8
0
 10
1019.3
 20
250.012
 11
1019.65
 21
250.003
  0
LINE
  8
0
 10
1019.65
 20
250.003
 11
1020
 21
250
  0
LINE
  8
0
 10
1020
 20
250
 11
1020.35
 21
250.003
  0
LINE
  8
0
 10
1510.35
 20
250.003
 11
1510.7
 21
250.012
  0
LINE
  8
0
 10
1510.7
 20
250.012
 11
1511.05
 21
250.027
  0
LINE
  8
0
 10
1511.05
 20
250.027
 11
1511.4
 21
250.049
  0
LINE
  8
0
 10
1511.4
 20
250.049
 11
1511.74
 21
250.076
  0
LINE
  8
0
 10
1511.74
 20
250.076
 11
1941.74
 21
285.076
  0
LINE
  8
0
 10
1941.74
 20
285.076
 11
1942.09
 21
285.11
  0
LINE
  8
0
 10
1942.09
 20
285.11
 11
1942.44
 21
285.149
  0
LINE
  8
0
 10
1942.44
 20
285.149
 11
1942.78
 21
285.195
  0
LINE
  8
0
 10
1942.78
 20
285.195
 11
1943.13
 21
285.246
  0
LINE
  8
0
 10
1943.13
 20
285.246
 11
1943.47
 21
285.304
  0
LINE
  8
0
 10
1943.47
 20
285.304
 11
1943.82
 21
285.367
  0
LINE
  8
0
 10
1943.82
 20
285.367
 11
1944.16
 21
285.437
  0
LINE
  8
0
 10
1944.16
 20
285.437
 11
1944.5
 21
285.513
  0
LINE
  8
0
 10
1944.5
 20
285.513
 11
1944.84
 21
285.594
  0
LINE
  8
0
 10
1944.84
 20
285.594
 11
1945.18
 21
285.681
  0
LINE
  8
0
 10
1945.18
 20
285.681
 11
1945.51
 21
285.775
  0
LINE
  8
0
 10
1945.51
 20
285.775
 11
1945.85
 21
285.874
  0
LINE
  8
0
 10
1945.85
 20
285.874
 11
1946.18
 21
285.979
  0
LINE
  8
0
 10
1946.18
 20
285.979
 11
1946.51
 21
286.09
  0
LINE
  8
0
 10
1946.51
 20
286.09
 11
1946.84
 21
286.206
  0
LINE
  8
0
 10
1946.84
 20
286.206
 11
1947.17
 21
286.328
  0
LINE
  8
0
 10
1947.17
 20
286.328
 11
1947.49
 21
286.456
  0
LINE
  8
0
 10
1947.49
 20
286.456
 11
1947.81
 21
286.59
  0
LINE
  8
0
 10
1947.81
 20
286.59
 11
1948.13
 21
286.729
  0
LINE
  8
0
 10
1948.13
 20
286.729
 11
1948.45
 21
286.874
  0
LINE
  8
0
 10
1948.45
 20
286.874
 11
1948.77
 21
287.024
  0
LINE
  8
0
 10
1948.77
 20
287.024
 11
1949.08
 21
287.18
  0
LINE
  8
0
 10
1949.08
 20
287.18
 11
1949.39
 21
287.341
  0
LINE
  8
0
 10
1949.39
 20
287.341
 11
1949.7
 21
287.508
  0
LINE
  8
0
 10
1949.7
 20
287.508
 11
1950
 21
287.68
  0
LINE
  8
0
 10
1950
 20
287.68
 11
1950.3
 21
287.857
  0
LINE
  8
0
 10
1950.3
 20
287.857
 11
1950.6
 21
288.039
  0
LINE
  8
0
 10
1950.6
 20
288.039
 11
1950.89
 21
288.227
  0
LINE
  8
0
 10
1950.89
 20
288.227
 11
1951.18
 21
288.419
  0
LINE
  8
0
 10
1951.18
 20
288.419
 11
1951.47
 21
288.617
  0
LINE
  8
0
 10
1951.47
 20
288.617
 11
1951.76
 21
288.82
  0
LINE
  8
0
 10
1951.76
 20
288.82
 11
1952.04
 21
289.027
  0
LINE
  8
0
 10
1952.04
 20
289.027
 11
1952.31
 21
289.24
  0
LINE
  8
0
 10
1952.31
 20
289.24
 11
1952.59
 21
289.457
  0
LINE
  8
0
 10
1952.59
 20
289.457
 11
1952.86
 21
289.679
  0
LINE
  8
0
 10
1952.86
 20
289.679
 11
1953.12
 21
289.906
  0
LINE
  8
0
 10
1953.12
 20
289.906
 11
1953.38
 21
290.137
  0
LINE
  8
0
 10
1953.38
 20
290.137
 11
1953.64
 21
290.373
  0
LINE
  8
0
 10
1953.64
 20
290.373
 11
1953.89
 21
290.613
  0
LINE
  8
0
 10
1953.89
 20
290.613
 11
1954.14
 21
290.858
  0
LINE
  8
0
 10
1954.14
 20
290.858
 11
1954.39
 21
291.107
  0
LINE
  8
0
 10
1954.39
 20
291.107
 11
1954.63
 21
291.36
  0
LINE
  8
0
 10
1954.63
 20
291.36
 11
1954.86
 21
291.617
  0
LINE
  8
0
 10
1954.86
 20
291.617
 11
1955.09
 21
291.879
  0
LINE
  8
0
 10
1955.09
 20
291.879
 11
1955.32
 21
292.144
  0
LINE
  8
0
 10
1955.32
 20
292.144
 11
1955.54
 21
292.414
  0
LINE
  8
0
 10
1955.54
 20
292.414
 11
1955.76
 21
292.687
  0
LINE
  8
0
 10
1955.76
 20
292.687
 11
1955.97
 21
292.964
  0
LINE
  8
0
 10
1955.97
 20
292.964
 11
1956.18
 21
293.244
  0
LINE
  8
0
 10
1956.18
 20
293.244
 11
1956.38
 21
293.528
  0
LINE
  8
0
 10
1956.38
 20
293.528
 11
1956.58
 21
293.816
  0
LINE
  8
0
 10
1956.58
 20
293.816
 11
1956.77
 21
294.107
  0
LINE
  8
0
 10
1956.77
 20
294.107
 11
1956.96
 21
294.402
  0
LINE
  8
0
 10
1956.96
 20
294.402
 11
1957.14
 21
294.699
  0
LINE
  8
0
 10
1957.14
 20
294.699
 11
1957.32
 21
295
  0
LINE
  8
0
 10
1957.32
 20
295
 11
1957.49
 21
295.304
  0
LINE
  8
0
 10
1957.49
 20
295.304
 11
1957.66
 21
295.611
  0
LINE
  8
0
 10
1957.66
 20
295.611
 11
1957.82
 21
295.92
  0
LINE
  8
0
 10
1957.82
 20
295.92
 11
1957.98
 21
296.233
  0
LINE
  8
0
 10
1957.98
 20
296.233
 11
1958.13
 21
296.548
  0
LINE
  8
0
 10
1958.13
 20
296.548
 11
1958.27
 21
296.865
  0
LINE
  8
0
 10
1958.27
 20
296.865
 11
1958.41
 21
297.185
  0
LINE
  8
0
 10
1958.41
 20
297.185
 11
1958.54
 21
297.508
  0
LINE
  8
0
 10
1958.54
 20
297.508
 11
1958.67
 21
297.833
  0
LINE
  8
0
 10
1958.67
 20
297.833
 11
1958.79
 21
298.16
  0
LINE
  8
0
 10
1958.79
 20
298.16
 11
1958.91
 21
298.489
  0
LINE
  8
0
 10
1958.91
 20
298.489
 11
1959.02
 21
298.82
  0
LINE
  8
0
 10
1959.02
 20
298.82
 11
1959.13
 21
299.153
  0
LINE
  8
0
 10
1959.13
 20
299.153
 11
1959.23
 21
299.487
  0
LINE
  8
0
 10
1959.23
 20
299.487
 11
1959.32
 21
299.824
  0
LINE
  8
0
 10
1959.32
 20
299.824
 11
1959.41
 21
300.162
  0
LINE
  8
0
 10
1959.41
 20
300.162
 11
1959.49
 21
300.501
  0
LINE
  8
0
 10
1959.49
 20
300.501
 11
1959.56
 21
300.842
  0
LINE
  8
0
 10
1959.56
 20
300.842
 11
1959.63
 21
301.184
  0
LINE
  8
0
 10
1959.63
 20
301.184
 11
1959.7
 21
301.527
  0
LINE
  8
0
 10
1959.7
 20
301.527
 11
1959.75
 21
301.871
  0
LINE
  8
0
 10
1959.75
 20
301.871
 11
1959.81
 21
302.217
  0
LINE
  8
0
 10
1959.81
 20
302.217
 11
1959.85
 21
302.563
  0
LINE
  8
0
 10
1959.85
 20
302.563
 11
1959.89
 21
302.909
  0
LINE
  8
0
 10
1959.89
 20
302.909
 11
1959.92
 21
303.257
  0
LINE
  8
0
 10
1959.92
 20
303.257
 11
1959.95
 21
303.605
  0
LINE
  8
0
 10
1959.95
 20
303.605
 11
1959.97
 21
303.953
  0
LINE
  8
0
 10
1959.97
 20
303.953
 11
1959.99
 21
304.302
  0
LINE
  8
0
 10
1959.99
 20
304.302
 11
1960
 21
304.651
  0
LINE
  8
0
 10
1960
 20
304.651
 11
1960
 21
305
  0
LINE
  8
0
 10
1960
 20
305
 11
1960
 21
375
  0
LINE
  8
0
 10
1960
 20
375
 11
1933
 21
375
  0
LINE
  8
0
 10
1933
 20
375
 11
1933
 21
411.667
  0
LINE
  8
0
 10
1933
 20
411.667
 11
1960
 21
411.667
  0
LINE
  8
0
 10
1960
 20
411.667
 11
1960
 21
448.333
  0
LINE
  8
0
 10
1960
 20
448.333
 11
1933
 21
448.333
  0
LINE
  8
0
 10
1933
 20
448.333
 11
1933
 21
485
  0
LINE
  8
0
 10
1933
 20
485
 11
1725
 21
485
  0
LINE
  8
0
 10
1725
 20
485
 11
1725
 21
430
  0
LINE
  8
0
 10
1725
 20
430
 11
1698
 21
430
  0
LINE
  8
0
 10
1698
 20
430
 11
1698
 21
485
  0
LINE
  8
0
 10
1698
 20
485
 11
1510
 21
485
  0
LINE
  8
0
 10
1510
 20
485
 11
1509.65
 21
484.997
  0
LINE
  8
0
 10
1509.65
 20
484.997
 11
1509.3
 21
484.988
  0
LINE
  8
0
 10
1509.3
 20
484.988
 11
1508.95
 21
484.973
  0
LINE
  8
0
 10
1508.95
 20
484.973
 11
1508.6
 21
484.951
  0
LINE
  8
0
 10
1508.6
 20
484.951
 11
1508.26
 21
484.924
  0
LINE
  8
0
 10
1508.26
 20
484.924
 11
1507.91
 21
484.89
  0
LINE
  8
0
 10
1507.91
 20
484.89
 11
1507.56
 21
484.851
  0
LINE
  8
0
 10
1507.56
 20
484.851
 11
1507.22
 21
484.805
  0
LINE
  8
0
 10
1507.22
 20
484.805
 11
1506.87
 21
484.754
  0
LINE
  8
0
 10
1506.87
 20
484.754
 11
1506.53
 21
484.696
  0
LINE
  8
0
 10
1506.53
 20
484.696
 11
1506.18
 21
484.633
  0
LINE
  8
0
 10
1506.18
 20
484.633
 11
1505.84
 21
484.563
  0
LINE
  8
0
 10
1505.84
 20
484.563
 11
1505.5
 21
484.487
  0
LINE
  8
0
 10
1505.5
 20
484.487
 11
1505.16
 21
484.406
  0
LINE
  8
0
 10
1505.16
 20
484.406
 11
1504.82
 21
484.319
  0
LINE
  8
0
 10
1504.82
 20
484.319
 11
1504.49
 21
484.225
  0
LINE
  8
0
 10
1504.49
 20
484.225
 11
1504.15
 21
484.126
  0
LINE
  8
0
 10
1504.15
 20
484.126
 11
1503.82
 21
484.021
  0
LINE
  8
0
 10
1503.82
 20
484.021
 11
1503.49
 21
483.91
  0
LINE
  8
0
 10
1503.49
 20
483.91
 11
1503.16
 21
483.794
  0
LINE
  8
0
 10
1503.16
 20
483.794
 11
1502.83
 21
483.672
  0
LINE
  8
0
 10
1502.83
 20
483.672
 11
1502.51
 21
483.544
  0
LINE
  8
0
 10
1502.51
 20
483.544
 11
1502.19
 21
483.41
  0
LINE
  8
0
 10
1502.19
 20
483.41
 11
1501.87
 21
483.271
  0
LINE
  8
0
 10
1501.87
 20
483.271
 11
1501.55
 21
483.126
  0
LINE
  8
0
 10
1501.55
 20
483.126
 11
1501.23
 21
482.976
  0
LINE
  8
0
 10
1501.23
 20
482.976
 11
1500.92
 21
482.82
  0
LINE
  8
0
 10
1500.92
 20
482.82
 11
1500.61
 21
482.659
  0
LINE
  8
0
 10
1500.61
 20
482.659
 11
1500.3
 21
482.492
  0
LINE
  8
0
 10
1500.3
 20
482.492
 11
1500
 21
482.32
  0
LINE
  8
0
 10
1500
 20
482.32
 11
1499.7
 21
482.143
  0
LINE
  8
0
 10
1499.7
 20
482.143
 11
1499.4
 21
481.961
  0
LINE
  8
0
 10
1499.4
 20
481.961
 11
1499.11
 21
481.773
  0
LINE
  8
0
 10
1499.11
 20
481.773
 11
1498.82
 21
481.581
  0
LINE
  8
0
 10
1498.82
 20
481.581
 11
1498.53
 21
481.383
  0
LINE
  8
0
 10
1498.53
 20
481.383
 11
1498.24
 21
481.18
  0
LINE
  8
0
 10
1498.24
 20
481.18
 11
1497.96
 21
480.973
  0
LINE
  8
0
 10
1497.96
 20
480.973
 11
1497.69
 21
480.76
  0
LINE
  8
0
 10
1497.69
 20
480.76
 11
1497.41
 21
480.543
  0
LINE
  8
0
 10
1497.41
 20
480.543
 11
1497.14
 21
480.321
  0
LINE
  8
0
 10
1497.14
 20
480.321
 11
1496.88
 21
480.094
  0
LINE
  8
0
 10
1496.88
 20
480.094
 11
1496.62
 21
479.863
  0
LINE
  8
0
 10
1496.62
 20
479.863
 11
1496.36
 21
479.627
  0
LINE
  8
0
 10
1496.36
 20
479.627
 11
1496.11
 21
479.387
  0
LINE
  8
0
 10
1496.11
 20
479.387
 11
1495.86
 21
479.142
  0
LINE
  8
0
 10
1495.86
 20
479.142
 11
1495.61
 21
478.893
  0
LINE
  8
0
 10
1495.61
 20
478.893
 11
1495.37
 21
478.64
  0
LINE
  8
0
 10
1495.37
 20
478.64
 11
1495.14
 21
478.383
  0
LINE
  8
0
 10
1495.14
 20
478.383
 11
1494.91
 21
478.121
  0
LINE
  8
0
 10
1494.91
 20
478.121
 11
1494.68
 21
477.856
  0
LINE
  8
0
 10
1494.68
 20
477.856
 11
1494.46
 21
477.586
  0
LINE
  8
0
 10
1494.46
 20
477.586
 11
1494.24
 21
477.313
  0
LINE
  8
0
 10
1494.24
 20
477.313
 11
1494.03
 21
477.036
  0
LINE
  8
0
 10
1494.03
 20
477.036
 11
1493.82
 21
476.756
  0
LINE
  8
0
 10
1493.82
 20
476.756
 11
1493.62
 21
476.472
  0
LINE
  8
0
 10
1493.62
 20
476.472
 11
1493.42
 21
476.184
  0
LINE
  8
0
 10
1493.42
 20
476.184
 11
1493.23
 21
475.893
  0
LINE
  8
0
 10
1493.23
 20
475.893
 11
1493.04
 21
475.598
  0
LINE
  8
0
 10
1493.04
 20
475.598
 11
1492.86
 21
475.301
  0
LINE
  8
0
 10
1492.86
 20
475.301
 11
1492.68
 21
475
  0
LINE
  8
0
 10
1492.68
 20
475
 11
1492.51
 21
474.696
  0
LINE
  8
0
 10
1492.51
 20
474.696
 11
1492.34
 21
474.389
  0
LINE
  8
0
 10
1492.34
 20
474.389
 11
1492.18
 21
474.08
  0
LINE
  8
0
 10
1492.18
 20
474.08
 11
1492.02
 21
473.767
  0
LINE
  8
0
 10
1492.02
 20
473.767
 11
1491.87
 21
473.452
  0
LINE
  8
0
 10
1491.87
 20
473.452
 11
1491.73
 21
473.135
  0
LINE
  8
0
 10
1491.73
 20
473.135
 11
1491.59
 21
472.815
  0
LINE
  8
0
 10
1491.59
 20
472.815
 11
1491.46
 21
472.492
  0
LINE
  8
0
 10
1491.46
 20
472.492
 11
1491.33
 21
472.167
  0
LINE
  8
0
 10
1491.33
 20
472.167
 11
1491.21
 21
471.84
  0
LINE
  8
0
 10
1491.21
 20
471.84
 11
1491.09
 21
471.511
  0
LINE
  8
0
 10
1491.09
 20
471.511
 11
1490.98
 21
471.18
  0
LINE
  8
0
 10
1490.98
 20
471.18
 11
1490.87
 21
470.847
  0
LINE
  8
0
 10
1490.87
 20
470.847
 11
1490.77
 21
470.513
  0
LINE
  8
0
 10
1490.77
 20
470.513
 11
1490.68
 21
470.176
  0
LINE
  8
0
 10
1490.68
 20
470.176
 11
1490.59
 21
469.838
  0
LINE
  8
0
 10
1490.59
 20
469.838
 11
1490.51
 21
469.499
  0
LINE
  8
0
 10
1490.51
 20
469.499
 11
1490.44
 21
469.158
  0
LINE
  8
0
 10
1490.44
 20
469.158
 11
1490.37
 21
468.816
  0
LINE
  8
0
 10
1490.37
 20
468.816
 11
1490.3
 21
468.473
  0
LINE
  8
0
 10
1490.3
 20
468.473
 11
1490.25
 21
468.129
  0
LINE
  8
0
 10
1490.25
 20
468.129
 11
1490.19
 21
467.783
  0
LINE
  8
0
 10
1490.19
 20
467.783
 11
1490.15
 21
467.437
  0
LINE
  8
0
 10
1490.15
 20
467.437
 11
1490.11
 21
467.091
  0
LINE
  8
0
 10
1490.11
 20
467.091
 11
1490.08
 21
466.743
  0
LINE
  8
0
 10
1490.08
 20
466.743
 11
1490.05
 21
466.395
  0
LINE
  8
0
 10
1490.05
 20
466.395
 11
1490.03
 21
466.047
  0
LINE
  8
0
 10
1490.03
 20
466.047
 11
1490.01
 21
465.698
  0
LINE
  8
0
 10
1490.01
 20
465.698
 11
1490
 21
465.349
  0
LINE
  8
0
 10
1490
 20
465.349
 11
1490
 21
465
  0
LINE
  8
0
 10
1490
 20
465
 11
1490
 21
270
  0
LINE
  8
0
 10
1490
 20
270
 11
1490
 21
269.651
  0
LINE
  8
0
 10
1490
 20
269.651
 11
1490.01
 21
269.302
  0
LINE
  8
0
 10
1490.01
 20
269.302
 11
1490.03
 21
268.953
  0
LINE
  8
0
 10
1490.03
 20
268.953
 11
1490.05
 21
268.605
  0
LINE
  8
0
 10
1490.05
 20
268.605
 11
1490.08
 21
268.257
  0
LINE
  8
0
 10
1490.08
 20
268.257
 11
1490.11
 21
267.909
  0
LINE
  8
0
 10
1490.11
 20
267.909
 11
1490.15
 21
267.563
  0
LINE
  8
0
 10
1490.15
 20
267.563
 11
1490.19
 21
267.217
  0
LINE
  8
0
 10
1490.19
 20
267.217
 11
1490.25
 21
266.871
  0
LINE
  8
0
 10
1490.25
 20
266.871
 11
1490.3
 21
266.527
  0
LINE
  8
0
 10
1490.3
 20
266.527
 11
1490.37
 21
266.184
  0
LINE
  8
0
 10
1490.37
 20
266.184
 11
1490.44
 21
265.842
  0
LINE
  8
0
 10
1490.44
 20
265.842
 11
1490.51
 21
265.501
  0
LINE
  8
0
 10
1490.51
 20
265.501
 11
1490.59
 21
265.162
  0
LINE
  8
0
 10
1490.59
 20
265.162
 11
1490.68
 21
264.824
  0
LINE
  8
0
 10
1490.68
 20
264.824
 11
1490.77
 21
264.487
  0
LINE
  8
0
 10
1490.77
 20
264.487
 11
1490.87
 21
264.153
  0
LINE
  8
0
 10
1490.87
 20
264.153
 11
1490.98
 21
263.82
  0
LINE
  8
0
 10
1490.98
 20
263.82
 11
1491.09
 21
263.489
  0
LINE
  8
0
 10
1491.09
 20
263.489
 11
1491.21
 21
263.16
  0
LINE
  8
0
 10
1491.21
 20
263.16
 11
1491.33
 21
262.833
  0
LINE
  8
0
 10
1491.33
 20
262.833
 11
1491.46
 21
262.508
  0
LINE
  8
0
 10
1491.46
 20
262.508
 11
1491.59
 21
262.185
  0
LINE
  8
0
 10
1491.59
 20
262.185
 11
1491.73
 21
261.865
  0
LINE
  8
0
 10
1491.73
 20
261.865
 11
1491.87
 21
261.548
  0
LINE
  8
0
 10
1491.87
 20
261.548
 11
1492.02
 21
261.233
  0
LINE
  8
0
 10
1492.02
 20
261.233
 11
1492.18
 21
260.92
  0
LINE
  8
0
 10
1492.18
 20
260.92
 11
1492.34
 21
260.611
  0
LINE
  8
0
 10
1492.34
 20
260.611
 11
1492.51
 21
260.304
  0
LINE
  8
0
 10
1492.51
 20
260.304
 11
1492.68
 21
260
  0
LINE
  8
0
 10
1492.68
 20
260
 11
1492.86
 21
259.699
  0
LINE
  8
0
 10
1492.86
 20
259.699
 11
1493.04
 21
259.402
  0
LINE
  8
0
 10
1493.04
 20
259.402
 11
1493.23
 21
259.107
  0
LINE
  8
0
 10
1493.23
 20
259.107
 11
1493.42
 21
258.816
  0
LINE
  8
0
 10
1493.42
 20
258.816
 11
1493.62
 21
258.528
  0
LINE
  8
0
 10
1493.62
 20
258.528
 11
1493.82
 21
258.244
  0
LINE
  8
0
 10
1493.82
 20
258.244
 11
1494.03
 21
257.964
  0
LINE
  8
0
 10
1494.03
 20
257.964
 11
1494.24
 21
257.687
  0
LINE
  8
0
 10
1494.24
 20
257.687
 11
1494.46
 21
257.414
  0
LINE
  8
0
 10
1494.46
 20
257.414
 11
1494.68
 21
257.144
  0
LINE
  8
0
 10
1494.68
 20
257.144
 11
1494.91
 21
256.879
  0
LINE
  8
0
 10
1494.91
 20
256.879
 11
1495.14
 21
256.617
  0
LINE
  8
0
 10
1495.14
 20
256.617
 11
1495.37
 21
256.36
  0
LINE
  8
0
 10
1495.37
 20
256.36
 11
1495.61
 21
256.107
  0
LINE
  8
0
 10
1495.61
 20
256.107
 11
1495.86
 21
255.858
  0
LINE
  8
0
 10
1495.86
 20
255.858
 11
1496.11
 21
255.613
  0
LINE
  8
0
 10
1496.11
 20
255.613
 11
1496.36
 21
255.373
  0
LINE
  8
0
 10
1496.36
 20
255.373
 11
1496.62
 21
255.137
  0
LINE
  8
0
 10
1496.62
 20
255.137
 11
1496.88
 21
254.906
  0
LINE
  8
0
 10
1496.88
 20
254.906
 11
1497.14
 21
254.679
  0
LINE
  8
0
 10
1497.14
 20
254.679
 11
1497.41
 21
254.457
  0
LINE
  8
0
 10
1497.41
 20
254.457
 11
1497.69
 21
254.24
  0
LINE
  8
0
 10
1497.69
 20
254.24
 11
1497.96
 21
254.027
  0
LINE
  8
0
 10
1497.96
 20
254.027
 11
1498.24
 21
253.82
  0
LINE
  8
0
 10
1498.24
 20
253.82
 11
1498.53
 21
253.617
  0
LINE
  8
0
 10
1498.53
 20
253.617
 11
1498.82
 21
253.419
  0
LINE
  8
0
 10
1498.82
 20
253.419
 11
1499.11
 21
253.227
  0
LINE
  8
0
 10
1499.11
 20
253.227
 11
1499.4
 21
253.039
  0
LINE
  8
0
 10
1499.4
 20
253.039
 11
1499.7
 21
252.857
  0
LINE
  8
0
 10
1499.7
 20
252.857
 11
1500
 21
252.68
  0
LINE
  8
0
 10
1500
 20
252.68
 11
1500.3
 21
252.508
  0
LINE
  8
0
 10
1500.3
 20
252.508
 11
1500.61
 21
252.341
  0
LINE
  8
0
 10
1500.61
 20
252.341
 11
1500.92
 21
252.18
  0
LINE
  8
0
 10
1500.92
 20
252.18
 11
1501.23
 21
252.024
  0
LINE
  8
0
 10
1501.23
 20
252.024
 11
1501.55
 21
251.874
  0
LINE
  8
0
 10
1501.55
 20
251.874
 11
1501.87
 21
251.729
  0
LINE
  8
0
 10
1501.87
 20
251.729
 11
1502.19
 21
251.59
  0
LINE
  8
0
 10
1502.19
 20
251.59
 11
1502.51
 21
251.456
  0
LINE
  8
0
 10
1502.51
 20
251.456
 11
1502.83
 21
251.328
  0
LINE
  8
0
 10
1502.83
 20
251.328
 11
1503.16
 21
251.206
  0
LINE
  8
0
 10
1503.16
 20
251.206
 11
1503.49
 21
251.09
  0
LINE
  8
0
 10
1503.49
 20
251.09
 11
1503.82
 21
250.979
  0
LINE
  8
0
 10
1503.82
 20
250.979
 11
1504.15
 21
250.874
  0
LINE
  8
0
 10
1504.15
 20
250.874
 11
1504.49
 21
250.775
  0
LINE
  8
0
 10
1504.49
 20
250.775
 11
1504.82
 21
250.681
  0
LINE
  8
0
 10
1504.82
 20
250.681
 11
1505.16
 21
250.594
  0
LINE
  8
0
 10
1505.16
 20
250.594
 11
1505.5
 21
250.513
  0
LINE
  8
0
 10
1505.5
 20
250.513
 11
1505.84
 21
250.437
  0
LINE
  8
0
 10
1505.84
 20
250.437
 11
1506.18
 21
250.367
  0
LINE
  8
0
 10
1506.18
 20
250.367
 11
1506.53
 21
250.304
  0
LINE
  8
0
 10
1506.53
 20
250.304
 11
1506.87
 21
250.246
  0
LINE
  8
0
 10
1506.87
 20
250.246
 11
1507.22
 21
250.195
  0
LINE
  8
0
 10
1507.22
 20
250.195
 11
1507.56
 21
250.149
  0
LINE
  8
0
 10
1507.56
 20
250.149
 11
1507.91
 21
250.11
  0
LINE
  8
0
 10
1507.91
 20
250.11
 11
1508.26
 21
250.076
  0
LINE
  8
0
 10
1508.26
 20
250.076
 11
1508.6
 21
250.049
  0
LINE
  8
0
 10
1508.6
 20
250.049
 11
1508.95
 21
250.027
  0
LINE
  8
0
 10
1508.95
 20
250.027
 11
1509.3
 21
250.012
  0
LINE
  8
0
 10
1509.3
 20
250.012
 11
1509.65
 21
250.003
  0
LINE
  8
0
 10
1509.65
 20
250.003
 11
1510
 21
250
  0
LINE
  8
0
 10
1510
 20
250
 11
1510.35
 21
250.003
  0
LINE
  8
0
 10
259.101
 20
15.0358
 11
263.201
 21
15.1432
  0
LINE
  8
0
 10
263.201
 20
15.1432
 11
267.299
 21
15.3221
  0
LINE
  8
0
 10
267.299
 20
15.3221
 11
271.393
 21
15.5724
  0
LINE
  8
0
 10
271.393
 20
15.5724
 11
275.482
 21
15.8943
  0
LINE
  8
0
 10
275.482
 20
15.8943
 11
279.564
 21
16.2874
  0
LINE
  8
0
 10
279.564
 20
16.2874
 11
283.639
 21
16.7517
  0
LINE
  8
0
 10
283.639
 20
16.7517
 11
287.706
 21
17.287
  0
LINE
  8
0
 10
287.706
 20
17.287
 11
291.762
 21
17.8932
  0
LINE
  8
0
 10
291.762
 20
17.8932
 11
295.807
 21
18.5702
  0
LINE
  8
0
 10
295.807
 20
18.5702
 11
299.84
 21
19.3176
  0
LINE
  8
0
 10
299.84
 20
19.3176
 11
303.859
 21
20.1353
  0
LINE
  8
0
 10
303.859
 20
20.1353
 11
307.863
 21
21.023
  0
LINE
  8
0
 10
307.863
 20
21.023
 11
311.852
 21
21.9805
  0
LINE
  8
0
 10
311.852
 20
21.9805
 11
315.822
 21
23.0074
  0
LINE
  8
0
 10
315.822
 20
23.0074
 11
319.775
 21
24.1035
  0
LINE
  8
0
 10
319.775
 20
24.1035
 11
323.707
 21
25.2684
  0
LINE
  8
0
 10
323.707
 20
25.2684
 11
327.619
 21
26.5017
  0
LINE
  8
0
 10
327.619
 20
26.5017
 11
331.509
 21
27.8031
  0
LINE
  8
0
 10
331.509
 20
27.8031
 11
335.375
 21
29.1722
  0
LINE
  8
0
 10
335.375
 20
29.1722
 11
339.216
 21
30.6086
  0
LINE
  8
0
 10
339.216
 20
30.6086
 11
343.033
 21
32.1118
  0
LINE
  8
0
 10
343.033
 20
32.1118
 11
346.822
 21
33.6814
  0
LINE
  8
0
 10
346.822
 20
33.6814
 11
350.583
 21
35.3168
  0
LINE
  8
0
 10
350.583
 20
35.3168
 11
354.315
 21
37.0177
  0
LINE
  8
0
 10
354.315
 20
37.0177
 11
358.017
 21
38.7834
  0
LINE
  8
0
 10
358.017
 20
38.7834
 11
361.688
 21
40.6135
  0
LINE
  8
0
 10
361.688
 20
40.6135
 11
365.326
 21
42.5073
  0
LINE
  8
0
 10
365.326
 20
42.5073
 11
368.93
 21
44.4644
  0
LINE
  8
0
 10
368.93
 20
44.4644
 11
372.5
 21
46.484
  0
LINE
  8
0
 10
372.5
 20
46.484
 11
376.034
 21
48.5657
  0
LINE
  8
0
 10
376.034
 20
48.5657
 11
379.531
 21
50.7087
  0
LINE
  8
0
 10
379.531
 20
50.7087
 11
382.99
 21
52.9124
  0
LINE
  8
0
 10
382.99
 20
52.9124
 11
386.41
 21
55.1762
  0
LINE
  8
0
 10
386.41
 20
55.1762
 11
389.79
 21
57.4993
  0
LINE
  8
0
 10
389.79
 20
57.4993
 11
393.13
 21
59.881
  0
LINE
  8
0
 10
393.13
 20
59.881
 11
396.427
 21
62.3207
  0
LINE
  8
0
 10
396.427
 20
62.3207
 11
399.68
 21
64.8175
  0
LINE
  8
0
 10
399.68
 20
64.8175
 11
402.89
 21
67.3707
  0
LINE
  8
0
 10
402.89
 20
67.3707
 11
406.055
 21
69.9796
  0
LINE
  8
0
 10
406.055
 20
69.9796
 11
409.174
 21
72.6432
  0
LINE
  8
0
 10
409.174
 20
72.6432
 11
412.246
 21
75.361
  0
LINE
  8
0
 10
412.246
 20
75.361
 11
415.27
 21
78.1319
  0
LINE
  8
0
 10
415.27
 20
78.1319
 11
418.245
 21
80.9552
  0
LINE
  8
0
 10
418.245
 20
80.9552
 11
421.17
 21
83.8299
  0
LINE
  8
0
 10
421.17
 20
83.8299
 11
424.045
 21
86.7553
  0
LINE
  8
0
 10
424.045
 20
86.7553
 11
426.868
 21
89.7304
  0
LINE
  8
0
 10
426.868
 20
89.7304
 11
429.639
 21
92.7543
  0
LINE
  8
0
 10
429.639
 20
92.7543
 11
432.357
 21
95.8261
  0
LINE
  8
0
 10
432.357
 20
95.8261
 11
435.02
 21
98.9449
  0
LINE
  8
0
 10
435.02
 20
98.9449
 11
437.629
 21
102.11
  0
LINE
  8
0
 10
437.629
 20
102.11
 11
440.183
 21
105.32
  0
LINE
  8
0
 10
440.183
 20
105.32
 11
442.679
 21
108.573
  0
LINE
  8
0
 10
442.679
 20
108.573
 11
445.119
 21
111.87
  0
LINE
  8
0
 10
445.119
 20
111.87
 11
447.501
 21
115.21
  0
LINE
  8
0
 10
447.501
 20
115.21
 11
449.824
 21
118.59
  0
LINE
  8
0
 10
449.824
 20
118.59
 11
452.088
 21
122.01
  0
LINE
  8
0
 10
452.088
 20
122.01
 11
454.291
 21
125.469
  0
LINE
  8
0
 10
454.291
 20
125.469
 11
456.434
 21
128.966
  0
LINE
  8
0
 10
456.434
 20
128.966
 11
458.516
 21
132.5
  0
LINE
  8
0
 10
458.516
 20
132.5
 11
460.536
 21
136.07
  0
LINE
  8
0
 10
460.536
 20
136.07
 11
462.493
 21
139.674
  0
LINE
  8
0
 10
462.493
 20
139.674
 11
464.387
 21
143.312
  0
LINE
  8
0
 10
464.387
 20
143.312
 11
466.217
 21
146.983
  0
LINE
  8
0
 10
466.217
 20
146.983
 11
467.982
 21
150.685
  0
LINE
  8
0
 10
467.982
 20
150.685
 11
469.683
 21
154.417
  0
LINE
  8
0
 10
469.683
 20
154.417
 11
471.319
 21
158.178
  0
LINE
  8
0
 10
471.319
 20
158.178
 11
472.888
 21
161.967
  0
LINE
  8
0
 10
472.888
 20
161.967
 11
474.391
 21
165.784
  0
LINE
  8
0
 10
474.391
 20
165.784
 11
475.828
 21
169.625
  0
LINE
  8
0
 10
475.828
 20
169.625
 11
477.197
 21
173.491
  0
LINE
  8
0
 10
477.197
 20
173.491
 11
478.498
 21
177.381
  0
LINE
  8
0
 10
478.498
 20
177.381
 11
479.732
 21
181.293
  0
LINE
  8
0
 10
479.732
 20
181.293
 11
480.896
 21
185.225
  0
LINE
  8
0
 10
480.896
 20
185.225
 11
481.993
 21
189.178
  0
LINE
  8
0
 10
481.993
 20
189.178
 11
483.019
 21
193.148
  0
LINE
  8
0
 10
483.019
 20
193.148
 11
483.977
 21
197.137
  0
LINE
  8
0
 10
483.977
 20
197.137
 11
484.865
 21
201.141
  0
LINE
  8
0
 10
484.865
 20
201.141
 11
485.682
 21
205.16
  0
LINE
  8
0
 10
485.682
 20
205.16
 11
486.43
 21
209.193
  0
LINE
  8
0
 10
486.43
 20
209.193
 11
487.107
 21
213.238
  0
LINE
  8
0
 10
487.107
 20
213.238
 11
487.713
 21
217.294
  0
LINE
  8
0
 10
487.713
 20
217.294
 11
488.248
 21
221.361
  0
LINE
  8
0
 10
488.248
 20
221.361
 11
488.713
 21
225.436
  0
LINE
  8
0
 10
488.713
 20
225.436
 11
489.106
 21
229.518
  0
LINE
  8
0
 10
489.106
 20
229.518
 11
489.428
 21
233.607
  0
LINE
  8
0
 10
489.428
 20
233.607
 11
489.678
 21
237.701
  0
LINE
  8
0
 10
489.678
 20
237.701
 11
489.857
 21
241.799
  0
LINE
  8
0
 10
489.857
 20
241.799
 11
489.964
 21
245.899
  0
LINE
  8
0
 10
489.964
 20
245.899
 11
490
 21
250
  0
LINE
  8
0
 10
490
 20
250
 11
489.964
 21
254.101
  0
LINE
  8
0
 10
489.964
 20
254.101
 11
489.857
 21
258.201
  0
LINE
  8
0
 10
489.857
 20
258.201
 11
489.678
 21
262.299
  0
LINE
  8
0
 10
489.678
 20
262.299
 11
489.428
 21
266.393
  0
LINE
  8
0
 10
489.428
 20
266.393
 11
489.106
 21
270.482
  0
LINE
  8
0
 10
489.106
 20
270.482
 11
488.713
 21
274.564
  0
LINE
  8
0
 10
488.713
 20
274.564
 11
488.248
 21
278.639
  0
LINE
  8
0
 10
488.248
 20
278.639
 11
487.713
 21
282.706
  0
LINE
  8
0
 10
487.713
 20
282.706
 11
487.107
 21
286.762
  0
LINE
  8
0
 10
487.107
 20
286.762
 11
486.43
 21
290.807
  0
LINE
  8
0
 10
486.43
 20
290.807
 11
485.682
 21
294.84
  0
LINE
  8
0
 10
485.682
 20
294.84
 11
484.865
 21
298.859
  0
LINE
  8
0
 10
484.865
 20
298.859
 11
483.977
 21
302.863
  0
LINE
  8
0
 10
483.977
 20
302.863
 11
483.019
 21
306.852
  0
LINE
  8
0
 10
483.019
 20
306.852
 11
481.993
 21
310.822
  0
LINE
  8
0
 10
481.993
 20
310.822
 11
480.896
 21
314.775
  0
LINE
  8
0
 10
480.896
 20
314.775
 11
479.732
 21
318.707
  0
LINE
  8
0
 10
479.732
 20
318.707
 11
478.498
 21
322.619
  0
LINE
  8
0
 10
478.498
 20
322.619
 11
477.197
 21
326.509
  0
LINE
  8
0
 10
477.197
 20
326.509
 11
475.828
 21
330.375
  0
LINE
  8
0
 10
475.828
 20
330.375
 11
474.391
 21
334.216
  0
LINE
  8
0
 10
474.391
 20
334.216
 11
472.888
 21
338.033
  0
LINE
  8
0
 10
472.888
 20
338.033
 11
471.319
 21
341.822
  0
LINE
  8
0
 10
471.319
 20
341.822
 11
469.683
 21
345.583
  0
LINE
  8
0
 10
469.683
 20
345.583
 11
467.982
 21
349.315
  0
LINE
  8
0
 10
467.982
 20
349.315
 11
466.217
 21
353.017
  0
LINE
  8
0
 10
466.217
 20
353.017
 11
464.387
 21
356.688
  0
LINE
  8
0
 10
464.387
 20
356.688
 11
462.493
 21
360.326
  0
LINE
  8
0
 10
462.493
 20
360.326
 11
460.536
 21
363.93
  0
LINE
  8
0
 10
460.536
 20
363.93
 11
458.516
 21
367.5
  0
LINE
  8
0
 10
458.516
 20
367.5
 11
456.434
 21
371.034
  0
LINE
  8
0
 10
456.434
 20
371.034
 11
454.291
 21
374.531
  0
LINE
  8
0
 10
454.291
 20
374.531
 11
452.088
 21
377.99
  0
LINE
  8
0
 10
452.088
 20
377.99
 11
449.824
 21
381.41
  0
LINE
  8
0
 10
449.824
 20
381.41
 11
447.501
 21
384.79
  0
LINE
  8
0
 10
447.501
 20
384.79
 11
445.119
 21
388.13
  0
LINE
  8
0
 10
445.119
 20
388.13
 11
442.679
 21
391.427
  0
LINE
  8
0
 10
442.679
 20
391.427
 11
440.183
 21
394.68
  0
LINE
  8
0
 10
440.183
 20
394.68
 11
437.629
 21
397.89
  0
LINE
  8
0
 10
437.629
 20
397.89
 11
435.02
 21
401.055
  0
LINE
  8
0
 10
435.02
 20
401.055
 11
432.357
 21
404.174
  0
LINE
  8
0
 10
432.357
 20
404.174
 11
429.639
 21
407.246
  0
LINE
  8
0
 10
429.639
 20
407.246
 11
426.868
 21
410.27
  0
LINE
  8
0
 10
426.868
 20
410.27
 11
424.045
 21
413.245
  0
LINE
  8
0
 10
424.045
 20
413.245
 11
421.17
 21
416.17
  0
LINE
  8
0
 10
421.17
 20
416.17
 11
418.245
 21
419.045
  0
LINE
  8
0
 10
418.245
 20
419.045
 11
415.27
 21
421.868
  0
LINE
  8
0
 10
415.27
 20
421.868
 11
412.246
 21
424.639
  0
LINE
  8
0
 10
412.246
 20
424.639
 11
409.174
 21
427.357
  0
LINE
  8
0
 10
409.174
 20
427.357
 11
406.055
 21
430.02
  0
LINE
  8
0
 10
406.055
 20
430.02
 11
402.89
 21
432.629
  0
LINE
  8
0
 10
402.89
 20
432.629
 11
399.68
 21
435.183
  0
LINE
  8
0
 10
399.68
 20
435.183
 11
396.427
 21
437.679
  0
LINE
  8
0
 10
396.427
 20
437.679
 11
393.13
 21
440.119
  0
LINE
  8
0
 10
393.13
 20
440.119
 11
389.79
 21
442.501
  0
LINE
  8
0
 10
389.79
 20
442.501
 11
386.41
 21
444.824
  0
LINE
  8
0
 10
386.41
 20
444.824
 11
382.99
 21
447.088
  0
LINE
  8
0
 10
382.99
 20
447.088
 11
379.531
 21
449.291
  0
LINE
  8
0
 10
379.531
 20
449.291
 11
376.034
 21
451.434
  0
LINE
  8
0
 10
376.034
 20
451.434
 11
372.5
 21
453.516
  0
LINE
  8
0
 10
372.5
 20
453.516
 11
368.93
 21
455.536
  0
LINE
  8
0
 10
368.93
 20
455.536
 11
365.326
 21
457.493
  0
LINE
  8
0
 10
365.326
 20
457.493
 11
361.688
 21
459.387
  0
LINE
  8
0
 10
361.688
 20
459.387
 11
358.017
 21
461.217
  0
LINE
  8
0
 10
358.017
 20
461.217
 11
354.315
 21
462.982
  0
LINE
  8
0
 10
354.315
 20
462.982
 11
350.583
 21
464.683
  0
LINE
  8
0
 10
350.583
 20
464.683
 11
346.822
 21
466.319
  0
LINE
  8
0
 10
346.822
 20
466.319
 11
343.033
 21
467.888
  0
LINE
  8
0
 10
343.033
 20
467.888
 11
339.216
 21
469.391
  0
LINE
  8
0
 10
339.216
 20
469.391
 11
335.375
 21
470.828
  0
LINE
  8
0
 10
335.375
 20
470.828
 11
331.509
 21
472.197
  0
LINE
  8
0
 10
331.509
 20
472.197
 11
327.619
 21
473.498
  0
LINE
  8
0
 10
327.619
 20
473.498
 11
323.707
 21
474.732
  0
LINE
  8
0
 10
323.707
 20
474.732
 11
319.775
 21
475.896
  0
LINE
  8
0
 10
319.775
 20
475.896
 11
315.822
 21
476.993
  0
LINE
  8
0
 10
315.822
 20
476.993
 11
311.852
 21
478.019
  0
LINE
  8
0
 10
311.852
 20
478.019
 11
307.863
 21
478.977
  0
LINE
  8
0
 10
307.863
 20
478.977
 11
303.859
 21
479.865
  0
LINE
  8
0
 10
303.859
 20
479.865
 11
299.84
 21
480.682
  0
LINE
  8
0
 10
299.84
 20
480.682
 11
295.807
 21
481.43
  0
LINE
  8
0
 10
295.807
 20
481.43
 11
291.762
 21
482.107
  0
LINE
  8
0
 10
291.762
 20
482.107
 11
287.706
 21
482.713
  0
LINE
  8
0
 10
287.706
 20
482.713
 11
283.639
 21
483.248
  0
LINE
  8
0
 10
283.639
 20
483.248
 11
279.564
 21
483.713
  0
LINE
  8
0
 10
279.564
 20
483.713
 11
275.482
 21
484.106
  0
LINE
  8
0
 10
275.482
 20
484.106
 11
271.393
 21
484.428
  0
LINE
  8
0
 10
271.393
 20
484.428
 11
267.299
 21
484.678
  0
LINE
  8
0
 10
267.299
 20
484.678
 11
263.201
 21
484.857
  0
LINE
  8
0
 10
263.201
 20
484.857
 11
259.101
 21
484.964
  0
LINE
  8
0
 10
259.101
 20
484.964
 11
255
 21
485
  0
LINE
  8
0
 10
255
 20
485
 11
250.899
 21
484.964
  0
LINE
  8
0
 10
250.899
 20
484.964
 11
246.799
 21
484.857
  0
LINE
  8
0
 10
246.799
 20
484.857
 11
242.701
 21
484.678
  0
LINE
  8
0
 10
242.701
 20
484.678
 11
238.607
 21
484.428
  0
LINE
  8
0
 10
238.607
 20
484.428
 11
234.518
 21
484.106
  0
LINE
  8
0
 10
234.518
 20
484.106
 11
230.436
 21
483.713
  0
LINE
  8
0
 10
230.436
 20
483.713
 11
226.361
 21
483.248
  0
LINE
  8
0
 10
226.361
 20
483.248
 11
222.294
 21
482.713
  0
LINE
  8
0
 10
222.294
 20
482.713
 11
218.238
 21
482.107
  0
LINE
  8
0
 10
218.238
 20
482.107
 11
214.193
 21
481.43
  0
LINE
  8
0
 10
214.193
 20
481.43
 11
210.16
 21
480.682
  0
LINE
  8
0
 10
210.16
 20
480.682
 11
206.141
 21
479.865
  0
LINE
  8
0
 10
206.141
 20
479.865
 11
202.137
 21
478.977
  0
LINE
  8
0
 10
202.137
 20
478.977
 11
198.148
 21
478.019
  0
LINE
  8
0
 10
198.148
 20
478.019
 11
194.178
 21
476.993
  0
LINE
  8
0
 10
194.178
 20
476.993
 11
190.225
 21
475.896
  0
LINE
  8
0
 10
190.225
 20
475.896
 11
186.293
 21
474.732
  0
LINE
  8
0
 10
186.293
 20
474.732
 11
182.381
 21
473.498
  0
LINE
  8
0
 10
182.381
 20
473.498
 11
178.491
 21
472.197
  0
LINE
  8
0
 10
178.491
 20
472.197
 11
174.625
 21
470.828
  0
LINE
  8
0
 10
174.625
 20
470.828
 11
170.784
 21
469.391
  0
LINE
  8
0
 10
170.784
 20
469.391
 11
166.967
 21
467.888
  0
LINE
  8
0
 10
166.967
 20
467.888
 11
163.178
 21
466.319
  0
LINE
  8
0
 10
163.178
 20
466.319
 11
159.417
 21
464.683
  0
LINE
  8
0
 10
159.417
 20
464.683
 11
155.685
 21
462.982
  0
LINE
  8
0
 10
155.685
 20
462.982
 11
151.983
 21
461.217
  0
LINE
  8
0
 10
151.983
 20
461.217
 11
148.312
 21
459.387
  0
LINE
  8
0
 10
148.312
 20
459.387
 11
144.674
 21
457.493
  0
LINE
  8
0
 10
144.674
 20
457.493
 11
141.07
 21
455.536
  0
LINE
  8
0
 10
141.07
 20
455.536
 11
137.5
 21
453.516
  0
LINE
  8
0
 10
137.5
 20
453.516
 11
133.966
 21
451.434
  0
LINE
  8
0
 10
133.966
 20
451.434
 11
130.469
 21
449.291
  0
LINE
  8
0
 10
130.469
 20
449.291
 11
127.01
 21
447.088
  0
LINE
  8
0
 10
127.01
 20
447.088
 11
123.59
 21
444.824
  0
LINE
  8
0
 10
123.59
 20
444.824
 11
120.21
 21
442.501
  0
LINE
  8
0
 10
120.21
 20
442.501
 11
116.87
 21
440.119
  0
LINE
  8
0
 10
116.87
 20
440.119
 11
113.573
 21
437.679
  0
LINE
  8
0
 10
113.573
 20
437.679
 11
110.32
 21
435.183
  0
LINE
  8
0
 10
110.32
 20
435.183
 11
107.11
 21
432.629
  0
LINE
  8
0
 10
107.11
 20
432.629
 11
103.945
 21
430.02
  0
LINE
  8
0
 10
103.945
 20
430.02
 11
100.826
 21
427.357
  0
LINE
  8
0
 10
100.826
 20
427.357
 11
97.7543
 21
424.639
  0
LINE
  8
0
 10
97.7543
 20
424.639
 11
94.7304
 21
421.868
  0
LINE
  8
0
 10
94.7304
 20
421.868
 11
91.7553
 21
419.045
  0
LINE
  8
0
 10
91.7553
 20
419.045
 11
88.8299
 21
416.17
  0
LINE
  8
0
 10
88.8299
 20
416.17
 11
85.9552
 21
413.245
  0
LINE
  8
0
 10
85.9552
 20
413.245
 11
83.1319
 21
410.27
  0
LINE
  8
0
 10
83.1319
 20
410.27
 11
80.361
 21
407.246
  0
LINE
  8
0
 10
80.361
 20
407.246
 11
77.6432
 21
404.174
  0
LINE
  8
0
 10
77.6432
 20
404.174
 11
74.9796
 21
401.055
  0
LINE
  8
0
 10
74.9796
 20
401.055
 11
72.3707
 21
397.89
  0
LINE
  8
0
 10
72.3707
 20
397.89
 11
69.8175
 21
394.68
  0
LINE
  8
0
 10
69.8175
 20
394.68
 11
67.3207
 21
391.427
  0
LINE
  8
0
 10
67.3207
 20
391.427
 11
64.881
 21
388.13
  0
LINE
  8
0
 10
64.881
 20
388.13
 11
62.4993
 21
384.79
  0
LINE
  8
0
 10
62.4993
 20
384.79
 11
60.1762
 21
381.41
  0
LINE
  8
0
 10
60.1762
 20
381.41
 11
57.9124
 21
377.99
  0
LINE
  8
0
 10
57.9124
 20
377.99
 11
55.7087
 21
374.531
  0
LINE
  8
0
 10
55.7087
 20
374.531
 11
53.5657
 21
371.034
  0
LINE
  8
0
 10
53.5657
 20
371.034
 11
51.484
 21
367.5
  0
LINE
  8
0
 10
51.484
 20
367.5
 11
49.4644
 21
363.93
  0
LINE
  8
0
 10
49.4644
 20
363.93
 11
47.5073
 21
360.326
  0
LINE
  8
0
 10
47.5073
 20
360.326
 11
45.6135
 21
356.688
  0
LINE
  8
0
 10
45.6135
 20
356.688
 11
43.7834
 21
353.017
  0
LINE
  8
0
 10
43.7834
 20
353.017
 11
42.0177
 21
349.315
  0
LINE
  8
0
 10
42.0177
 20
349.315
 11
40.3168
 21
345.583
  0
LINE
  8
0
 10
40.3168
 20
345.583
 11
38.6814
 21
341.822
  0
LINE
  8
0
 10
38.6814
 20
341.822
 11
37.1118
 21
338.033
  0
LINE
  8
0
 10
37.1118
 20
338.033
 11
35.6086
 21
334.216
  0
LINE
  8
0
 10
35.6086
 20
334.216
 11
34.1722
 21
330.375
  0
LINE
  8
0
 10
34.1722
 20
330.375
 11
32.8031
 21
326.509
  0
LINE
  8
0
 10
32.8031
 20
326.509
 11
31.5017
 21
322.619
  0
LINE
  8
0
 10
31.5017
 20
322.619
 11
30.2684
 21
318.707
  0
LINE
  8
0
 10
30.2684
 20
318.707
 11
29.1035
 21
314.775
  0
LINE
  8
0
 10
29.1035
 20
314.775
 11
28.0074
 21
310.822
  0
LINE
  8
0
 10
28.0074
 20
310.822
 11
26.9805
 21
306.852
  0
LINE
  8
0
 10
26.9805
 20
306.852
 11
26.023
 21
302.863
  0
LINE
  8
0
 10
26.023
 20
302.863
 11
25.1353
 21
298.859
  0
LINE
  8
0
 10
25.1353
 20
298.859
 11
24.3176
 21
294.84
  0
LINE
  8
0
 10
24.3176
 20
294.84
 11
23.5702
 21
290.807
  0
LINE
  8
0
 10
23.5702
 20
290.807
 11
22.8932
 21
286.762
  0
LINE
  8
0
 10
22.8932
 20
286.762
 11
22.287
 21
282.706
  0
LINE
  8
0
 10
22.287
 20
282.706
 11
21.7517
 21
278.639
  0
LINE
  8
0
 10
21.7517
 20
278.639
 11
21.2874
 21
274.564
  0
LINE
  8
0
 10
21.2874
 20
274.564
 11
20.8943
 21
270.482
  0
LINE
  8
0
 10
20.8943
 20
270.482
 11
20.5724
 21
266.393
  0
LINE
  8
0
 10
20.5724
 20
266.393
 11
20.3221
 21
262.299
  0
LINE
  8
0
 10
20.3221
 20
262.299
 11
20.1432
 21
258.201
  0
LINE
  8
0
 10
20.1432
 20
258.201
 11
20.0358
 21
254.101
  0
LINE
  8
0
 10
20.0358
 20
254.101
 11
20
 21
250
  0
LINE
  8
0
 10
20
 20
250
 11
20.0358
 21
245.899
  0
LINE
  8
0
 10
20.0358
 20
245.899
 11
20.1432
 21
241.799
  0
LINE
  8
0
 10
20.1432
 20
241.799
 11
20.3221
 21
237.701
  0
LINE
  8
0
 10
20.3221
 20
237.701
 11
20.5724
 21
233.607
  0
LINE
  8
0
 10
20.5724
 20
233.607
 11
20.8943
 21
229.518
  0
LINE
  8
0
 10
20.8943
 20
229.518
 11
21.2874
 21
225.436
  0
LINE
  8
0
 10
21.2874
 20
225.436
 11
21.7517
 21
221.361
  0
LINE
  8
0
 10
21.7517
 20
221.361
 11
22.287
 21
217.294
  0
LINE
  8
0
 10
22.287
 20
217.294
 11
22.8932
 21
213.238
  0
LINE
  8
0
 10
22.8932
 20
213.238
 11
23.5702
 21
209.193
  0
LINE
  8
0
 10
23.5702
 20
209.193
 11
24.3176
 21
205.16
  0
LINE
  8
0
 10
24.3176
 20
205.16
 11
25.1353
 21
201.141
  0
LINE
  8
0
 10
25.1353
 20
201.141
 11
26.023
 21
197.137
  0
LINE
  8
0
 10
26.023
 20
197.137
 11
26.9805
 21
193.148
  0
LINE
  8
0
 10
26.9805
 20
193.148
 11
28.0074
 21
189.178
  0
LINE
  8
0
 10
28.0074
 20
189.178
 11
29.1035
 21
185.225
  0
LINE
  8
0
 10
29.1035
 20
185.225
 11
30.2684
 21
181.293
  0
LINE
  8
0
 10
30.2684
 20
181.293
 11
31.5017
 21
177.381
  0
LINE
  8
0
 10
31.5017
 20
177.381
 11
32.8031
 21
173.491
  0
LINE
  8
0
 10
32.8031
 20
173.491
 11
34.1722
 21
169.625
  0
LINE
  8
0
 10
34.1722
 20
169.625
 11
35.6086
 21
165.784
  0
LINE
  8
0
 10
35.6086
 20
165.784
 11
37.1118
 21
161.967
  0
LINE
  8
0
 10
37.1118
 20
161.967
 11
38.6814
 21
158.178
  0
LINE
  8
0
 10
38.6814
 20
158.178
 11
40.3168
 21
154.417
  0
LINE
  8
0
 10
40.3168
 20
154.417
 11
42.0177
 21
150.685
  0
LINE
  8
0
 10
42.0177
 20
150.685
 11
43.7834
 21
146.983
  0
LINE
  8
0
 10
43.7834
 20
146.983
 11
45.6135
 21
143.312
  0
LINE
  8
0
 10
45.6135
 20
143.312
 11
47.5073
 21
139.674
  0
LINE
  8
0
 10
47.5073
 20
139.674
 11
49.4644
 21
136.07
  0
LINE
  8
0
 10
49.4644
 20
136.07
 11
51.484
 21
132.5
  0
LINE
  8
0
 10
51.484
 20
132.5
 11
53.5657
 21
128.966
  0
LINE
  8
0
 10
53.5657
 20
128.966
 11
55.7087
 21
125.469
  0
LINE
  8
0
 10
55.7087
 20
125.469
 11
57.9124
 21
122.01
  0
LINE
  8
0
 10
57.9124
 20
122.01
 11
60.1762
 21
118.59
  0
LINE
  8
0
 10
60.1762
 20
118.59
 11
62.4993
 21
115.21
  0
LINE
  8
0
 10
62.4993
 20
115.21
 11
64.881
 21
111.87
  0
LINE
  8
0
 10
64.881
 20
111.87
 11
67.3207
 21
108.573
  0
LINE
  8
0
 10
67.3207
 20
108.573
 11
69.8175
 21
105.32
  0
LINE
  8
0
 10
69.8175
 20
105.32
 11
72.3707
 21
102.11
  0
LINE
  8
0
 10
72.3707
 20
102.11
 11
74.9796
 21
98.9449
  0
LINE
  8
0
 10
74.9796
 20
98.9449
 11
77.6432
 21
95.8261
  0
LINE
  8
0
 10
77.6432
 20
95.8261
 11
80.361
 21
92.7543
  0
LINE
  8
0
 10
80.361
 20
92.7543
 11
83.1319
 21
89.7304
  0
LINE
  8
0
 10
83.1319
 20
89.7304
 11
85.9552
 21
86.7553
  0
LINE
  8
0
 10
85.9552
 20
86.7553
 11
88.8299
 21
83.8299
  0
LINE
  8
0
 10
88.8299
 20
83.8299
 11
91.7553
 21
80.9552
  0
LINE
  8
0
 10
91.7553
 20
80.9552
 11
94.7304
 21
78.1319
  0
LINE
  8
0
 10
94.7304
 20
78.1319
 11
97.7543
 21
75.361
  0
LINE
  8
0
 10
97.7543
 20
75.361
 11
100.826
 21
72.6432
  0
LINE
  8
0
 10
100.826
 20
72.6432
 11
103.945
 21
69.9796
  0
LINE
  8
0
 10
103.945
 20
69.9796
 11
107.11
 21
67.3707
  0
LINE
  8
0
 10
107.11
 20
67.3707
 11
110.32
 21
64.8175
  0
LINE
  8
0
 10
110.32
 20
64.8175
 11
113.573
 21
62.3207
  0
LINE
  8
0
 10
113.573
 20
62.3207
 11
116.87
 21
59.881
  0
LINE
  8
0
 10
116.87
 20
59.881
 11
120.21
 21
57.4993
  0
LINE
  8
0
 10
120.21
 20
57.4993
 11
123.59
 21
55.1762
  0
LINE
  8
0
 10
123.59
 20
55.1762
 11
127.01
 21
52.9124
  0
LINE
  8
0
 10
127.01
 20
52.9124
 11
130.469
 21
50.7087
  0
LINE
  8
0
 10
130.469
 20
50.7087
 11
133.966
 21
48.5657
  0
LINE
  8
0
 10
133.966
 20
48.5657
 11
137.5
 21
46.484
  0
LINE
  8
0
 10
137.5
 20
46.484
 11
141.07
 21
44.4644
  0
LINE
  8
0
 10
141.07
 20
44.4644
 11
144.674
 21
42.5073
  0
LINE
  8
0
 10
144.674
 20
42.5073
 11
148.312
 21
40.6135
  0
LINE
  8
0
 10
148.312
 20
40.6135
 11
151.983
 21
38.7834
  0
LINE
  8
0
 10
151.983
 20
38.7834
 11
155.685
 21
37.0177
  0
LINE
  8
0
 10
155.685
 20
37.0177
 11
159.417
 21
35.3168
  0
LINE
  8
0
 10
159.417
 20
35.3168
 11
163.178
 21
33.6814
  0
LINE
  8
0
 10
163.178
 20
33.6814
 11
166.967
 21
32.1118
  0
LINE
  8
0
 10
166.967
 20
32.1118
 11
170.784
 21
30.6086
  0
LINE
  8
0
 10
170.784
 20
30.6086
 11
174.625
 21
29.1722
  0
LINE
  8
0
 10
174.625
 20
29.1722
 11
178.491
 21
27.8031
  0
LINE
  8
0
 10
178.491
 20
27.8031
 11
182.381
 21
26.5017
  0
LINE
  8
0
 10
182.381
 20
26.5017
 11
186.293
 21
25.2684
  0
LINE
  8
0
 10
186.293
 20
25.2684
 11
190.225
 21
24.1035
  0
LINE
  8
0
 10
190.225
 20
24.1035
 11
194.178
 21
23.0074
  0
LINE
  8
0
 10
194.178
 20
23.0074
 11
198.148
 21
21.9805
  0
LINE
  8
0
 10
198.148
 20
21.9805
 11
202.137
 21
21.023
  0
LINE
  8
0
 10
202.137
 20
21.023
 11
206.141
 21
20.1353
  0
LINE
  8
0
 10
206.141
 20
20.1353
 11
210.16
 21
19.3176
  0
LINE
  8
0
 10
210.16
 20
19.3176
 11
214.193
 21
18.5702
  0
LINE
  8
0
 10
214.193
 20
18.5702
 11
218.238
 21
17.8932
  0
LINE
  8
0
 10
218.238
 20
17.8932
 11
222.294
 21
17.287
  0
LINE
  8
0
 10
222.294
 20
17.287
 11
226.361
 21
16.7517
  0
LINE
  8
0
 10
226.361
 20
16.7517
 11
230.436
 21
16.2874
  0
LINE
  8
0
 10
230.436
 20
16.2874
 11
234.518
 21
15.8943
  0
LINE
  8
0
 10
234.518
 20
15.8943
 11
238.607
 21
15.5724
  0
LINE
  8
0
 10
238.607
 20
15.5724
 11
242.701
 21
15.3221
  0
LINE
  8
0
 10
242.701
 20
15.3221
 11
246.799
 21
15.1432
  0
LINE
  8
0
 10
246.799
 20
15.1432
 11
250.899
 21
15.0358
  0
LINE
  8
0
 10
250.899
 20
15.0358
 11
255
 21
15
  0
LINE
  8
0
 10
255
 20
15
 11
259.101
 21
15.0358
  0
LINE
  8
0
 10
241.5
 20
411.667
 11
241.5
 21
448.333
  0
LINE
  8
0
 10
241.5
 20
448.333
 11
268.5
 21
448.333
  0
LINE
  8
0
 10
268.5
 20
448.333
 11
268.5
 21
411.667
  0
LINE
  8
0
 10
268.5
 20
411.667
 11
241.5
 21
411.667
  0
LINE
  8
0
 10
254.66
 20
230.503
 11
254.319
 21
230.512
  0
LINE
  8
0
 10
254.319
 20
230.512
 11
253.979
 21
230.527
  0
LINE
  8
0
 10
253.979
 20
230.527
 11
253.64
 21
230.548
  0
LINE
  8
0
 10
253.64
 20
230.548
 11
253.3
 21
230.574
  0
LINE
  8
0
 10
253.3
 20
230.574
 11
252.962
 21
230.607
  0
LINE
  8
0
 10
252.962
 20
230.607
 11
252.624
 21
230.645
  0
LINE
  8
0
 10
252.624
 20
230.645
 11
252.286
 21
230.69
  0
LINE
  8
0
 10
252.286
 20
230.69
 11
251.95
 21
230.74
  0
LINE
  8
0
 10
251.95
 20
230.74
 11
251.614
 21
230.796
  0
LINE
  8
0
 10
251.614
 20
230.796
 11
251.279
 21
230.858
  0
LINE
  8
0
 10
251.279
 20
230.858
 11
250.946
 21
230.926
  0
LINE
  8
0
 10
250.946
 20
230.926
 11
250.613
 21
231
  0
LINE
  8
0
 10
250.613
 20
231
 11
250.283
 21
231.079
  0
LINE
  8
0
 10
250.283
 20
231.079
 11
249.953
 21
231.164
  0
LINE
  8
0
 10
249.953
 20
231.164
 11
249.625
 21
231.255
  0
LINE
  8
0
 10
249.625
 20
231.255
 11
249.299
 21
231.352
  0
LINE
  8
0
 10
249.299
 20
231.352
 11
248.974
 21
231.454
  0
LINE
  8
0
 10
248.974
 20
231.454
 11
248.651
 21
231.562
  0
LINE
  8
0
 10
248.651
 20
231.562
 11
248.331
 21
231.676
  0
LINE
  8
0
 10
248.331
 20
231.676
 11
248.012
 21
231.795
  0
LINE
  8
0
 10
248.012
 20
231.795
 11
247.695
 21
231.92
  0
LINE
  8
0
 10
247.695
 20
231.92
 11
247.381
 21
232.05
  0
LINE
  8
0
 10
247.381
 20
232.05
 11
247.069
 21
232.186
  0
LINE
  8
0
 10
247.069
 20
232.186
 11
246.759
 21
232.327
  0
LINE
  8
0
 10
246.759
 20
232.327
 11
246.452
 21
232.474
  0
LINE
  8
0
 10
246.452
 20
232.474
 11
246.147
 21
232.625
  0
LINE
  8
0
 10
246.147
 20
232.625
 11
245.845
 21
232.783
  0
LINE
  8
0
 10
245.845
 20
232.783
 11
245.546
 21
232.945
  0
LINE
  8
0
 10
245.546
 20
232.945
 11
245.25
 21
233.113
  0
LINE
  8
0
 10
245.25
 20
233.113
 11
244.957
 21
233.285
  0
LINE
  8
0
 10
244.957
 20
233.285
 11
244.667
 21
233.463
  0
LINE
  8
0
 10
244.667
 20
233.463
 11
244.38
 21
233.646
  0
LINE
  8
0
 10
244.38
 20
233.646
 11
244.096
 21
233.834
  0
LINE
  8
0
 10
244.096
 20
233.834
 11
243.815
 21
234.027
  0
LINE
  8
0
 10
243.815
 20
234.027
 11
243.538
 21
234.224
  0
LINE
  8
0
 10
243.538
 20
234.224
 11
243.265
 21
234.427
  0
LINE
  8
0
 10
243.265
 20
234.427
 11
242.995
 21
234.634
  0
LINE
  8
0
 10
242.995
 20
234.634
 11
242.728
 21
234.846
  0
LINE
  8
0
 10
242.728
 20
234.846
 11
242.466
 21
235.062
  0
LINE
  8
0
 10
242.466
 20
235.062
 11
242.207
 21
235.283
  0
LINE
  8
0
 10
242.207
 20
235.283
 11
241.952
 21
235.509
  0
LINE
  8
0
 10
241.952
 20
235.509
 11
241.701
 21
235.739
  0
LINE
  8
0
 10
241.701
 20
235.739
 11
241.454
 21
235.973
  0
LINE
  8
0
 10
241.454
 20
235.973
 11
241.211
 21
236.211
  0
LINE
  8
0
 10
241.211
 20
236.211
 11
240.973
 21
236.454
  0
LINE
  8
0
 10
240.973
 20
236.454
 11
240.739
 21
236.701
  0
LINE
  8
0
 10
240.739
 20
236.701
 11
240.509
 21
236.952
  0
LINE
  8
0
 10
240.509
 20
236.952
 11
240.283
 21
237.207
  0
LINE
  8
0
 10
240.283
 20
237.207
 11
240.062
 21
237.466
  0
LINE
  8
0
 10
240.062
 20
237.466
 11
239.846
 21
237.728
  0
LINE
  8
0
 10
239.846
 20
237.728
 11
239.634
 21
237.995
  0
LINE
  8
0
 10
239.634
 20
237.995
 11
239.427
 21
238.265
  0
LINE
  8
0
 10
239.427
 20
238.265
 11
239.224
 21
238.538
  0
LINE
  8
0
 10
239.224
 20
238.538
 11
239.027
 21
238.815
  0
LINE
  8
0
 10
239.027
 20
238.815
 11
238.834
 21
239.096
  0
LINE
  8
0
 10
238.834
 20
239.096
 11
238.646
 21
239.38
  0
LINE
  8
0
 10
238.646
 20
239.38
 11
238.463
 21
239.667
  0
LINE
  8
0
 10
238.463
 20
239.667
 11
238.285
 21
239.957
  0
LINE
  8
0
 10
238.285
 20
239.957
 11
238.113
 21
240.25
  0
LINE
  8
0
 10
238.113
 20
240.25
 11
237.945
 21
240.546
  0
LINE
  8
0
 10
237.945
 20
240.546
 11
237.783
 21
240.845
  0
LINE
  8
0
 10
237.783
 20
240.845
 11
237.625
 21
241.147
  0
LINE
  8
0
 10
237.625
 20
241.147
 11
237.474
 21
241.452
  0
LINE
  8
0
 10
237.474
 20
241.452
 11
237.327
 21
241.759
  0
LINE
  8
0
 10
237.327
 20
241.759
 11
237.186
 21
242.069
  0
LINE
  8
0
 10
237.186
 20
242.069
 11
237.05
 21
242.381
  0
LINE
  8
0
 10
237.05
 20
242.381
 11
236.92
 21
242.695
  0
LINE
  8
0
 10
236.92
 20
242.695
 11
236.795
 21
243.012
  0
LINE
  8
0
 10
236.795
 20
243.012
 11
236.676
 21
243.331
  0
LINE
  8
0
 10
236.676
 20
243.331
 11
236.562
 21
243.651
  0
LINE
  8
0
 10
236.562
 20
243.651
 11
236.454
 21
243.974
  0
LINE
  8
0
 10
236.454
 20
243.974
 11
236.352
 21
244.299
  0
LINE
  8
0
 10
236.352
 20
244.299
 11
236.255
 21
244.625
  0
LINE
  8
0
 10
236.255
 20
244.625
 11
236.164
 21
244.953
  0
LINE
  8
0
 10
236.164
 20
244.953
 11
236.079
 21
245.283
  0
LINE
  8
0
 10
236.079
 20
245.283
 11
236
 21
245.613
  0
LINE
  8
0
 10
236
 20
245.613
 11
235.926
 21
245.946
  0
LINE
  8
0
 10
235.926
 20
245.946
 11
235.858
 21
246.279
  0
LINE
  8
0
 10
235.858
 20
246.279
 11
235.796
 21
246.614
  0
LINE
  8
0
 10
235.796
 20
246.614
 11
235.74
 21
246.95
  0
LINE
  8
0
 10
235.74
 20
246.95
 11
235.69
 21
247.286
  0
LINE
  8
0
 10
235.69
 20
247.286
 11
235.645
 21
247.624
  0
LINE
  8
0
 10
235.645
 20
247.624
 11
235.607
 21
247.962
  0
LINE
  8
0
 10
235.607
 20
247.962
 11
235.574
 21
248.3
  0
LINE
  8
0
 10
235.574
 20
248.3
 11
235.548
 21
248.64
  0
LINE
  8
0
 10
235.548
 20
248.64
 11
235.527
 21
248.979
  0
LINE
  8
0
 10
235.527
 20
248.979
 11
235.512
 21
249.319
  0
LINE
  8
0
 10
235.512
 20
249.319
 11
235.503
 21
249.66
  0
LINE
  8
0
 10
235.503
 20
249.66
 11
235.5
 21
250
  0
LINE
  8
0
 10
235.5
 20
250
 11
235.503
 21
250.34
  0
LINE
  8
0
 10
235.503
 20
250.34
 11
235.512
 21
250.681
  0
LINE
  8
0
 10
235.512
 20
250.681
 11
235.527
 21
251.021
  0
LINE
  8
0
 10
235.527
 20
251.021
 11
235.548
 21
251.36
  0
LINE
  8
0
 10
235.548
 20
251.36
 11
235.574
 21
251.7
  0
LINE
  8
0
 10
235.574
 20
251.7
 11
235.607
 21
252.038
  0
LINE
  8
0
 10
235.607
 20
252.038
 11
235.645
 21
252.376
  0
LINE
  8
0
 10
235.645
 20
252.376
 11
235.69
 21
252.714
  0
LINE
  8
0
 10
235.69
 20
252.714
 11
235.74
 21
253.05
  0
LINE
  8
0
 10
235.74
 20
253.05
 11
235.796
 21
253.386
  0
LINE
  8
0
 10
235.796
 20
253.386
 11
235.858
 21
253.721
  0
LINE
  8
0
 10
235.858
 20
253.721
 11
235.926
 21
254.054
  0
LINE
  8
0
 10
235.926
 20
254.054
 11
236
 21
254.387
  0
LINE
  8
0
 10
236
 20
254.387
 11
236.079
 21
254.717
  0
LINE
  8
0
 10
236.079
 20
254.717
 11
236.164
 21
255.047
  0
LINE
  8
0
 10
236.164
 20
255.047
 11
236.255
 21
255.375
  0
LINE
  8
0
 10
236.255
 20
255.375
 11
236.352
 21
255.701
  0
LINE
  8
0
 10
236.352
 20
255.701
 11
236.454
 21
256.026
  0
LINE
  8
0
 10
236.454
 20
256.026
 11
236.562
 21
256.349
  0
LINE
  8
0
 10
236.562
 20
256.349
 11
236.676
 21
256.669
  0
LINE
  8
0
 10
236.676
 20
256.669
 11
236.795
 21
256.988
  0
LINE
  8
0
 10
236.795
 20
256.988
 11
236.92
 21
257.305
  0
LINE
  8
0
 10
236.92
 20
257.305
 11
237.05
 21
257.619
  0
LINE
  8
0
 10
237.05
 20
257.619
 11
237.186
 21
257.931
  0
LINE
  8
0
 10
237.186
 20
257.931
 11
237.327
 21
258.241
  0
LINE
  8
0
 10
237.327
 20
258.241
 11
237.474
 21
258.548
  0
LINE
  8
0
 10
237.474
 20
258.548
 11
237.625
 21
258.853
  0
LINE
  8
0
 10
237.625
 20
258.853
 11
237.783
 21
259.155
  0
LINE
  8
0
 10
237.783
 20
259.155
 11
237.945
 21
259.454
  0
LINE
  8
0
 10
237.945
 20
259.454
 11
238.113
 21
259.75
  0
LINE
  8
0
 10
238.113
 20
259.75
 11
238.285
 21
260.043
  0
LINE
  8
0
 10
238.285
 20
260.043
 11
238.463
 21
260.333
  0
LINE
  8
0
 10
238.463
 20
260.333
 11
238.646
 21
260.62
  0
LINE
  8
0
 10
238.646
 20
260.62
 11
238.834
 21
260.904
  0
LINE
  8
0
 10
238.834
 20
260.904
 11
239.027
 21
261.185
  0
LINE
  8
0
 10
239.027
 20
261.185
 11
239.224
 21
261.462
  0
LINE
  8
0
 10
239.224
 20
261.462
 11
239.427
 21
261.735
  0
LINE
  8
0
 10
239.427
 20
261.735
 11
239.634
 21
262.005
  0
LINE
  8
0
 10
239.634
 20
262.005
 11
239.846
 21
262.272
  0
LINE
  8
0
 10
239.846
 20
262.272
 11
240.062
 21
262.534
  0
LINE
  8
0
 10
240.062
 20
262.534
 11
240.283
 21
262.793
  0
LINE
  8
0
 10
240.283
 20
262.793
 11
240.509
 21
263.048
  0
LINE
  8
0
 10
240.509
 20
263.048
 11
240.739
 21
263.299
  0
LINE
  8
0
 10
240.739
 20
263.299
 11
240.973
 21
263.546
  0
LINE
  8
0
 10
240.973
 20
263.546
 11
241.211
 21
263.789
  0
LINE
  8
0
 10
241.211
 20
263.789
 11
241.454
 21
264.027
  0
LINE
  8
0
 10
241.454
 20
264.027
 11
241.701
 21
264.261
  0
LINE
  8
0
 10
241.701
 20
264.261
 11
241.952
 21
264.491
  0
LINE
  8
0
 10
241.952
 20
264.491
 11
242.207
 21
264.717
  0
LINE
  8
0
 10
242.207
 20
264.717
 11
242.466
 21
264.938
  0
LINE
  8
0
 10
242.466
 20
264.938
 11
242.728
 21
265.154
  0
LINE
  8
0
 10
242.728
 20
265.154
 11
242.995
 21
265.366
  0
LINE
  8
0
 10
242.995
 20
265.366
 11
243.265
 21
265.573
  0
LINE
  8
0
 10
243.265
 20
265.573
 11
243.538
 21
265.776
  0
LINE
  8
0
 10
243.538
 20
265.776
 11
243.815
 21
265.973
  0
LINE
  8
0
 10
243.815
 20
265.973
 11
244.096
 21
266.166
  0
LINE
  8
0
 10
244.096
 20
266.166
 11
244.38
 21
266.354
  0
LINE
  8
0
 10
244.38
 20
266.354
 11
244.667
 21
266.537
  0
LINE
  8
0
 10
244.667
 20
266.537
 11
244.957
 21
266.715
  0
LINE
  8
0
 10
244.957
 20
266.715
 11
245.25
 21
266.887
  0
LINE
  8
0
 10
245.25
 20
266.887
 11
245.546
 21
267.055
  0
LINE
  8
0
 10
245.546
 20
267.055
 11
245.845
 21
267.217
  0
LINE
  8
0
 10
245.845
 20
267.217
 11
246.147
 21
267.375
  0
LINE
  8
0
 10
246.147
 20
267.375
 11
246.452
 21
267.526
  0
LINE
  8
0
 10
246.452
 20
267.526
 11
246.759
 21
267.673
  0
LINE
  8
0
 10
246.759
 20
267.673
 11
247.069
 21
267.814
  0
LINE
  8
0
 10
247.069
 20
267.814
 11
247.381
 21
267.95
  0
LINE
  8
0
 10
247.381
 20
267.95
 11
247.695
 21
268.08
  0
LINE
  8
0
 10
247.695
 20
268.08
 11
248.012
 21
268.205
  0
LINE
  8
0
 10
248.012
 20
268.205
 11
248.331
 21
268.324
  0
LINE
  8
0
 10
248.331
 20
268.324
 11
248.651
 21
268.438
  0
LINE
  8
0
 10
248.651
 20
268.438
 11
248.974
 21
268.546
  0
LINE
  8
0
 10
248.974
 20
268.546
 11
249.299
 21
268.648
  0
LINE
  8
0
 10
249.299
 20
268.648
 11
249.625
 21
268.745
  0
LINE
  8
0
 10
249.625
 20
268.745
 11
249.953
 21
268.836
  0
LINE
  8
0
 10
249.953
 20
268.836
 11
250.283
 21
268.921
  0
LINE
  8
0
 10
250.283
 20
268.921
 11
250.613
 21
269
  0
LINE
  8
0
 10
250.613
 20
269
 11
250.946
 21
269.074
  0
LINE
  8
0
 10
250.946
 20
269.074
 11
251.279
 21
269.142
  0
LINE
  8
0
 10
251.279
 20
269.142
 11
251.614
 21
269.204
  0
LINE
  8
0
 10
251.614
 20
269.204
 11
251.95
 21
269.26
  0
LINE
  8
0
 10
251.95
 20
269.26
 11
252.286
 21
269.31
  0
LINE
  8
0
 10
252.286
 20
269.31
 11
252.624
 21
269.355
  0
LINE
  8
0
 10
252.624
 20
269.355
 11
252.962
 21
269.393
  0
LINE
  8
0
 10
252.962
 20
269.393
 11
253.3
 21
269.426
  0
LINE
  8
0
 10
253.3
 20
269.426
 11
253.64
 21
269.452
  0
LINE
  8
0
 10
253.64
 20
269.452
 11
253.979
 21
269.473
  0
LINE
  8
0
 10
253.979
 20
269.473
 11
254.319
 21
269.488
  0
LINE
  8
0
 10
254.319
 20
269.488
 11
254.66
 21
269.497
  0
LINE
  8
0
 10
254.66
 20
269.497
 11
255
 21
269.5
  0
LINE
  8
0
 10
255
 20
269.5
 11
255.34
 21
269.497
  0
LINE
  8
0
 10
255.34
 20
269.497
 11
255.681
 21
269.488
  0
LINE
  8
0
 10
255.681
 20
269.488
 11
256.021
 21
269.473
  0
LINE
  8
0
 10
256.021
 20
269.473
 11
256.36
 21
269.452
  0
LINE
  8
0
 10
256.36
 20
269.452
 11
256.7
 21
269.426
  0
LINE
  8
0
 10
256.7
 20
269.426
 11
257.038
 21
269.393
  0
LINE
  8
0
 10
257.038
 20
269.393
 11
257.376
 21
269.355
  0
LINE
  8
0
 10
257.376
 20
269.355
 11
257.714
 21
269.31
  0
LINE
  8
0
 10
257.714
 20
269.31
 11
258.05
 21
269.26
  0
LINE
  8
0
 10
258.05
 20
269.26
 11
258.386
 21
269.204
  0
LINE
  8
0
 10
258.386
 20
269.204
 11
258.721
 21
269.142
  0
LINE
  8
0
 10
258.721
 20
269.142
 11
259.054
 21
269.074
  0
LINE
  8
0
 10
259.054
 20
269.074
 11
259.387
 21
269
  0
LINE
  8
0
 10
259.387
 20
269
 11
259.717
 21
268.921
  0
LINE
  8
0
 10
259.717
 20
268.921
 11
260.047
 21
268.836
  0
LINE
  8
0
 10
260.047
 20
268.836
 11
260.375
 21
268.745
  0
LINE
  8
0
 10
260.375
 20
268.745
 11
260.701
 21
268.648
  0
LINE
  8
0
 10
260.701
 20
268.648
 11
261.026
 21
268.546
  0
LINE
  8
0
 10
261.026
 20
268.546
 11
261.349
 21
268.438
  0
LINE
  8
0
 10
261.349
 20
268.438
 11
261.669
 21
268.324
  0
LINE
  8
0
 10
261.669
 20
268.324
 11
261.988
 21
268.205
  0
LINE
  8
0
 10
261.988
 20
268.205
 11
262.305
 21
268.08
  0
LINE
  8
0
 10
262.305
 20
268.08
 11
262.619
 21
267.95
  0
LINE
  8
0
 10
262.619
 20
267.95
 11
262.931
 21
267.814
  0
LINE
  8
0
 10
262.931
 20
267.814
 11
263.241
 21
267.673
  0
LINE
  8
0
 10
263.241
 20
267.673
 11
263.548
 21
267.526
  0
LINE
  8
0
 10
263.548
 20
267.526
 11
263.853
 21
267.375
  0
LINE
  8
0
 10
263.853
 20
267.375
 11
264.155
 21
267.217
  0
LINE
  8
0
 10
264.155
 20
267.217
 11
264.454
 21
267.055
  0
LINE
  8
0
 10
264.454
 20
267.055
 11
264.75
 21
266.887
  0
LINE
  8
0
 10
264.75
 20
266.887
 11
265.043
 21
266.715
  0
LINE
  8
0
 10
265.043
 20
266.715
 11
265.333
 21
266.537
  0
LINE
  8
0
 10
265.333
 20
266.537
 11
265.62
 21
266.354
  0
LINE
  8
0
 10
265.62
 20
266.354
 11
265.904
 21
266.166
  0
LINE
  8
0
 10
265.904
 20
266.166
 11
266.185
 21
265.973
  0
LINE
  8
0
 10
266.185
 20
265.973
 11
266.462
 21
265.776
  0
LINE
  8
0
 10
266.462
 20
265.776
 11
266.735
 21
265.573
  0
LINE
  8
0
 10
266.735
 20
265.573
 11
267.005
 21
265.366
  0
LINE
  8
0
 10
267.005
 20
265.366
 11
267.272
 21
265.154
  0
LINE
  8
0
 10
267.272
 20
265.154
 11
267.534
 21
264.938
  0
LINE
  8
0
 10
267.534
 20
264.938
 11
267.793
 21
264.717
  0
LINE
  8
0
 10
267.793
 20
264.717
 11
268.048
 21
264.491
  0
LINE
  8
0
 10
268.048
 20
264.491
 11
268.299
 21
264.261
  0
LINE
  8
0
 10
268.299
 20
264.261
 11
268.546
 21
264.027
  0
LINE
  8
0
 10
268.546
 20
264.027
 11
268.789
 21
263.789
  0
LINE
  8
0
 10
268.789
 20
263.789
 11
269.027
 21
263.546
  0
LINE
  8
0
 10
269.027
 20
263.546
 11
269.261
 21
263.299
  0
LINE
  8
0
 10
269.261
 20
263.299
 11
269.491
 21
263.048
  0
LINE
  8
0
 10
269.491
 20
263.048
 11
269.717
 21
262.793
  0
LINE
  8
0
 10
269.717
 20
262.793
 11
269.938
 21
262.534
  0
LINE
  8
0
 10
269.938
 20
262.534
 11
270.154
 21
262.272
  0
LINE
  8
0
 10
270.154
 20
262.272
 11
270.366
 21
262.005
  0
LINE
  8
0
 10
270.366
 20
262.005
 11
270.573
 21
261.735
  0
LINE
  8
0
 10
270.573
 20
261.735
 11
270.776
 21
261.462
  0
LINE
  8
0
 10
270.776
 20
261.462
 11
270.973
 21
261.185
  0
LINE
  8
0
 10
270.973
 20
261.185
 11
271.166
 21
260.904
  0
LINE
  8
0
 10
271.166
 20
260.904
 11
271.354
 21
260.62
  0
LINE
  8
0
 10
271.354
 20
260.62
 11
271.537
 21
260.333
  0
LINE
  8
0
 10
271.537
 20
260.333
 11
271.715
 21
260.043
  0
LINE
  8
0
 10
271.715
 20
260.043
 11
271.887
 21
259.75
  0
LINE
  8
0
 10
271.887
 20
259.75
 11
272.055
 21
259.454
  0
LINE
  8
0
 10
272.055
 20
259.454
 11
272.217
 21
259.155
  0
LINE
  8
0
 10
272.217
 20
259.155
 11
272.375
 21
258.853
  0
LINE
  8
0
 10
272.375
 20
258.853
 11
272.526
 21
258.548
  0
LINE
  8
0
 10
272.526
 20
258.548
 11
272.673
 21
258.241
  0
LINE
  8
0
 10
272.673
 20
258.241
 11
272.814
 21
257.931
  0
LINE
  8
0
 10
272.814
 20
257.931
 11
272.95
 21
257.619
  0
LINE
  8
0
 10
272.95
 20
257.619
 11
273.08
 21
257.305
  0
LINE
  8
0
 10
273.08
 20
257.305
 11
273.205
 21
256.988
  0
LINE
  8
0
 10
273.205
 20
256.988
 11
273.324
 21
256.669
  0
LINE
  8
0
 10
273.324
 20
256.669
 11
273.438
 21
256.349
  0
LINE
  8
0
 10
273.438
 20
256.349
 11
273.546
 21
256.026
  0
LINE
  8
0
 10
273.546
 20
256.026
 11
273.648
 21
255.701
  0
LINE
  8
0
 10
273.648
 20
255.701
 11
273.745
 21
255.375
  0
LINE
  8
0
 10
273.745
 20
255.375
 11
273.836
 21
255.047
  0
LINE
  8
0
 10
273.836
 20
255.047
 11
273.921
 21
254.717
  0
LINE
  8
0
 10
273.921
 20
254.717
 11
274
 21
254.387
  0
LINE
  8
0
 10
274
 20
254.387
 11
274.074
 21
254.054
  0
LINE
  8
0
 10
274.074
 20
254.054
 11
274.142
 21
253.721
  0
LINE
  8
0
 10
274.142
 20
253.721
 11
274.204
 21
253.386
  0
LINE
  8
0
 10
274.204
 20
253.386
 11
274.26
 21
253.05
  0
LINE
  8
0
 10
274.26
 20
253.05
 11
274.31
 21
252.714
  0
LINE
  8
0
 10
274.31
 20
252.714
 11
274.355
 21
252.376
  0
LINE
  8
0
 10
274.355
 20
252.376
 11
274.393
 21
252.038
  0
LINE
  8
0
 10
274.393
 20
252.038
 11
274.426
 21
251.7
  0
LINE
  8
0
 10
274.426
 20
251.7
 11
274.452
 21
251.36
  0
LINE
  8
0
 10
274.452
 20
251.36
 11
274.473
 21
251.021
  0
LINE
  8
0
 10
274.473
 20
251.021
 11
274.488
 21
250.681
  0
LINE
  8
0
 10
274.488
 20
250.681
 11
274.497
 21
250.34
  0
LINE
  8
0
 10
274.497
 20
250.34
 11
274.5
 21
250
  0
LINE
  8
0
 10
274.5
 20
250
 11
274.497
 21
249.66
  0
LINE
  8
0
 10
274.497
 20
249.66
 11
274.488
 21
249.319
  0
LINE
  8
0
 10
274.488
 20
249.319
 11
274.473
 21
248.979
  0
LINE
  8
0
 10
274.473
 20
248.979
 11
274.452
 21
248.64
  0
LINE
  8
0
 10
274.452
 20
248.64
 11
274.426
 21
248.3
  0
LINE
  8
0
 10
274.426
 20
248.3
 11
274.393
 21
247.962
  0
LINE
  8
0
 10
274.393
 20
247.962
 11
274.355
 21
247.624
  0
LINE
  8
0
 10
274.355
 20
247.624
 11
274.31
 21
247.286
  0
LINE
  8
0
 10
274.31
 20
247.286
 11
274.26
 21
246.95
  0
LINE
  8
0
 10
274.26
 20
246.95
 11
274.204
 21
246.614
  0
LINE
  8
0
 10
274.204
 20
246.614
 11
274.142
 21
246.279
  0
LINE
  8
0
 10
274.142
 20
246.279
 11
274.074
 21
245.946
  0
LINE
  8
0
 10
274.074
 20
245.946
 11
274
 21
245.613
  0
LINE
  8
0
 10
274
 20
245.613
 11
273.921
 21
245.283
  0
LINE
  8
0
 10
273.921
 20
245.283
 11
273.836
 21
244.953
  0
LINE
  8
0
 10
273.836
 20
244.953
 11
273.745
 21
244.625
  0
LINE
  8
0
 10
273.745
 20
244.625
 11
273.648
 21
244.299
  0
LINE
  8
0
 10
273.648
 20
244.299
 11
273.546
 21
243.974
  0
LINE
  8
0
 10
273.546
 20
243.974
 11
273.438
 21
243.651
  0
LINE
  8
0
 10
273.438
 20
243.651
 11
273.324
 21
243.331
  0
LINE
  8
0
 10
273.324
 20
243.331
 11
273.205
 21
243.012
  0
LINE
  8
0
 10
273.205
 20
243.012
 11
273.08
 21
242.695
  0
LINE
  8
0
 10
273.08
 20
242.695
 11
272.95
 21
242.381
  0
LINE
  8
0
 10
272.95
 20
242.381
 11
272.814
 21
242.069
  0
LINE
  8
0
 10
272.814
 20
242.069
 11
272.673
 21
241.759
  0
LINE
  8
0
 10
272.673
 20
241.759
 11
272.526
 21
241.452
  0
LINE
  8
0
 10
272.526
 20
241.452
 11
272.375
 21
241.147
  0
LINE
  8
0
 10
272.375
 20
241.147
 11
272.217
 21
240.845
  0
LINE
  8
0
 10
272.217
 20
240.845
 11
272.055
 21
240.546
  0
LINE
  8
0
 10
272.055
 20
240.546
 11
271.887
 21
240.25
  0
LINE
  8
0
 10
271.887
 20
240.25
 11
271.715
 21
239.957
  0
LINE
  8
0
 10
271.715
 20
239.957
 11
271.537
 21
239.667
  0
LINE
  8
0
 10
271.537
 20
239.667
 11
271.354
 21
239.38
  0
LINE
  8
0
 10
271.354
 20
239.38
 11
271.166
 21
239.096
  0
LINE
  8
0
 10
271.166
 20
239.096
 11
270.973
 21
238.815
  0
LINE
  8
0
 10
270.973
 20
238.815
 11
270.776
 21
238.538
  0
LINE
  8
0
 10
270.776
 20
238.538
 11
270.573
 21
238.265
  0
LINE
  8
0
 10
270.573
 20
238.265
 11
270.366
 21
237.995
  0
LINE
  8
0
 10
270.366
 20
237.995
 11
270.154
 21
237.728
  0
LINE
  8
0
 10
270.154
 20
237.728
 11
269.938
 21
237.466
  0
LINE
  8
0
 10
269.938
 20
237.466
 11
269.717
 21
237.207
  0
LINE
  8
0
 10
269.717
 20
237.207
 11
269.491
 21
236.952
  0
LINE
  8
0
 10
269.491
 20
236.952
 11
269.261
 21
236.701
  0
LINE
  8
0
 10
269.261
 20
236.701
 11
269.027
 21
236.454
  0
LINE
  8
0
 10
269.027
 20
236.454
 11
268.789
 21
236.211
  0
LINE
  8
0
 10
268.789
 20
236.211
 11
268.546
 21
235.973
  0
LINE
  8
0
 10
268.546
 20
235.973
 11
268.299
 21
235.739
  0
LINE
  8
0
 10
268.299
 20
235.739
 11
268.048
 21
235.509
  0
LINE
  8
0
 10
268.048
 20
235.509
 11
267.793
 21
235.283
  0
LINE
  8
0
 10
267.793
 20
235.283
 11
267.534
 21
235.062
  0
LINE
  8
0
 10
267.534
 20
235.062
 11
267.272
 21
234.846
  0
LINE
  8
0
 10
267.272
 20
234.846
 11
267.005
 21
234.634
  0
LINE
  8
0
 10
267.005
 20
234.634
 11
266.735
 21
234.427
  0
LINE
  8
0
 10
266.735
 20
234.427
 11
266.462
 21
234.224
  0
LINE
  8
0
 10
266.462
 20
234.224
 11
266.185
 21
234.027
  0
LINE
  8
0
 10
266.185
 20
234.027
 11
265.904
 21
233.834
  0
LINE
  8
0
 10
265.904
 20
233.834
 11
265.62
 21
233.646
  0
LINE
  8
0
 10
265.62
 20
233.646
 11
265.333
 21
233.463
  0
LINE
  8
0
 10
265.333
 20
233.463
 11
265.043
 21
233.285
  0
LINE
  8
0
 10
265.043
 20
233.285
 11
264.75
 21
233.113
  0
LINE
  8
0
 10
264.75
 20
233.113
 11
264.454
 21
232.945
  0
LINE
  8
0
 10
264.454
 20
232.945
 11
264.155
 21
232.783
  0
LINE
  8
0
 10
264.155
 20
232.783
 11
263.853
 21
232.625
  0
LINE
  8
0
 10
263.853
 20
232.625
 11
263.548
 21
232.474
  0
LINE
  8
0
 10
263.548
 20
232.474
 11
263.241
 21
232.327
  0
LINE
  8
0
 10
263.241
 20
232.327
 11
262.931
 21
232.186
  0
LINE
  8
0
 10
262.931
 20
232.186
 11
262.619
 21
232.05
  0
LINE
  8
0
 10
262.619
 20
232.05
 11
262.305
 21
231.92
  0
LINE
  8
0
 10
262.305
 20
231.92
 11
261.988
 21
231.795
  0
LINE
  8
0
 10
261.988
 20
231.795
 11
261.669
 21
231.676
  0
LINE
  8
0
 10
261.669
 20
231.676
 11
261.349
 21
231.562
  0
LINE
  8
0
 10
261.349
 20
231.562
 11
261.026
 21
231.454
  0
LINE
  8
0
 10
261.026
 20
231.454
 11
260.701
 21
231.352
  0
LINE
  8
0
 10
260.701
 20
231.352
 11
260.375
 21
231.255
  0
LINE
  8
0
 10
260.375
 20
231.255
 11
260.047
 21
231.164
  0
LINE
  8
0
 10
260.047
 20
231.164
 11
259.717
 21
231.079
  0
LINE
  8
0
 10
259.717
 20
231.079
 11
259.387
 21
231
  0
LINE
  8
0
 10
259.387
 20
231
 11
259.054
 21
230.926
  0
LINE
  8
0
 10
259.054
 20
230.926
 11
258.721
 21
230.858
  0
LINE
  8
0
 10
258.721
 20
230.858
 11
258.386
 21
230.796
  0
LINE
  8
0
 10
258.386
 20
230.796
 11
258.05
 21
230.74
  0
LINE
  8
0
 10
258.05
 20
230.74
 11
257.714
 21
230.69
  0
LINE
  8
0
 10
257.714
 20
230.69
 11
257.376
 21
230.645
  0
LINE
  8
0
 10
257.376
 20
230.645
 11
257.038
 21
230.607
  0
LINE
  8
0
 10
257.038
 20
230.607
 11
256.7
 21
230.574
  0
LINE
  8
0
 10
256.7
 20
230.574
 11
256.36
 21
230.548
  0
LINE
  8
0
 10
256.36
 20
230.548
 11
256.021
 21
230.527
  0
LINE
  8
0
 10
256.021
 20
230.527
 11
255.681
 21
230.512
  0
LINE
  8
0
 10
255.681
 20
230.512
 11
255.34
 21
230.503
  0
LINE
  8
0
 10
255.34
 20
230.503
 11
255
 21
230.5
  0
LINE
  8
0
 10
255
 20
230.5
 11
254.66
 21
230.503
  0
LINE
  8
0
 10
416.667
 20
236.5
 11
416.667
 21
263.5
  0
LINE
  8
0
 10
416.667
 20
263.5
 11
453.333
 21
263.5
  0
LINE
  8
0
 10
453.333
 20
263.5
 11
453.333
 21
236.5
  0
LINE
  8
0
 10
453.333
 20
236.5
 11
416.667
 21
236.5
  0
LINE
  8
0
 10
56.6667
 20
236.5
 11
56.6667
 21
263.5
  0
LINE
  8
0
 10
56.6667
 20
263.5
 11
93.3333
 21
263.5
  0
LINE
  8
0
 10
93.3333
 20
263.5
 11
93.3333
 21
236.5
  0
LINE
  8
0
 10
93.3333
 20
236.5
 11
56.6667
 21
236.5
  0
LINE
  8
0
 10
241.5
 20
51.6667
 11
241.5
 21
88.3333
  0
LINE
  8
0
 10
241.5
 20
88.3333
 11
268.5
 21
88.3333
  0
LINE
  8
0
 10
268.5
 20
88.3333
 11
268.5
 21
51.6667
  0
LINE
  8
0
 10
268.5
 20
51.6667
 11
241.5
 21
51.6667
  0
LINE
  8
0
 10
761.393
 20
15.5724
 11
765.482
 21
15.8943
  0
LINE
  8
0
 10
765.482
 20
15.8943
 11
769.564
 21
16.2874
  0
LINE
  8
0
 10
769.564
 20
16.2874
 11
773.639
 21
16.7517
  0
LINE
  8
0
 10
773.639
 20
16.7517
 11
777.706
 21
17.287
  0
LINE
  8
0
 10
777.706
 20
17.287
 11
781.762
 21
17.8932
  0
LINE
  8
0
 10
781.762
 20
17.8932
 11
785.807
 21
18.5702
  0
LINE
  8
0
 10
785.807
 20
18.5702
 11
789.84
 21
19.3176
  0
LINE
  8
0
 10
789.84
 20
19.3176
 11
793.859
 21
20.1353
  0
LINE
  8
0
 10
793.859
 20
20.1353
 11
797.864
 21
21.023
  0
LINE
  8
0
 10
797.864
 20
21.023
 11
801.852
 21
21.9805
  0
LINE
  8
0
 10
801.852
 20
21.9805
 11
805.822
 21
23.0074
  0
LINE
  8
0
 10
805.822
 20
23.0074
 11
809.775
 21
24.1035
  0
LINE
  8
0
 10
809.775
 20
24.1035
 11
813.707
 21
25.2684
  0
LINE
  8
0
 10
813.707
 20
25.2684
 11
817.619
 21
26.5017
  0
LINE
  8
0
 10
817.619
 20
26.5017
 11
821.509
 21
27.8031
  0
LINE
  8
0
 10
821.509
 20
27.8031
 11
825.375
 21
29.1722
  0
LINE
  8
0
 10
825.375
 20
29.1722
 11
829.216
 21
30.6086
  0
LINE
  8
0
 10
829.216
 20
30.6086
 11
833.033
 21
32.1118
  0
LINE
  8
0
 10
833.033
 20
32.1118
 11
836.822
 21
33.6814
  0
LINE
  8
0
 10
836.822
 20
33.6814
 11
840.583
 21
35.3168
  0
LINE
  8
0
 10
840.583
 20
35.3168
 11
844.315
 21
37.0177
  0
LINE
  8
0
 10
844.315
 20
37.0177
 11
848.017
 21
38.7834
  0
LINE
  8
0
 10
848.017
 20
38.7834
 11
851.688
 21
40.6135
  0
LINE
  8
0
 10
851.688
 20
40.6135
 11
855.326
 21
42.5073
  0
LINE
  8
0
 10
855.326
 20
42.5073
 11
858.93
 21
44.4644
  0
LINE
  8
0
 10
858.93
 20
44.4644
 11
862.5
 21
46.484
  0
LINE
  8
0
 10
862.5
 20
46.484
 11
866.034
 21
48.5657
  0
LINE
  8
0
 10
866.034
 20
48.5657
 11
869.531
 21
50.7087
  0
LINE
  8
0
 10
869.531
 20
50.7087
 11
872.99
 21
52.9124
  0
LINE
  8
0
 10
872.99
 20
52.9124
 11
876.41
 21
55.1762
  0
LINE
  8
0
 10
876.41
 20
55.1762
 11
879.79
 21
57.4993
  0
LINE
  8
0
 10
879.79
 20
57.4993
 11
883.13
 21
59.881
  0
LINE
  8
0
 10
883.13
 20
59.881
 11
886.427
 21
62.3207
  0
LINE
  8
0
 10
886.427
 20
62.3207
 11
889.68
 21
64.8175
  0
LINE
  8
0
 10
889.68
 20
64.8175
 11
892.89
 21
67.3707
  0
LINE
  8
0
 10
892.89
 20
67.3707
 11
896.055
 21
69.9796
  0
LINE
  8
0
 10
896.055
 20
69.9796
 11
899.174
 21
72.6432
  0
LINE
  8
0
 10
899.174
 20
72.6432
 11
902.246
 21
75.361
  0
LINE
  8
0
 10
902.246
 20
75.361
 11
905.27
 21
78.1319
  0
LINE
  8
0
 10
905.27
 20
78.1319
 11
908.245
 21
80.9552
  0
LINE
  8
0
 10
908.245
 20
80.9552
 11
911.17
 21
83.8299
  0
LINE
  8
0
 10
911.17
 20
83.8299
 11
914.045
 21
86.7553
  0
LINE
  8
0
 10
914.045
 20
86.7553
 11
916.868
 21
89.7304
  0
LINE
  8
0
 10
916.868
 20
89.7304
 11
919.639
 21
92.7543
  0
LINE
  8
0
 10
919.639
 20
92.7543
 11
922.357
 21
95.8261
  0
LINE
  8
0
 10
922.357
 20
95.8261
 11
925.02
 21
98.9449
  0
LINE
  8
0
 10
925.02
 20
98.9449
 11
927.629
 21
102.11
  0
LINE
  8
0
 10
927.629
 20
102.11
 11
930.182
 21
105.32
  0
LINE
  8
0
 10
930.182
 20
105.32
 11
932.679
 21
108.573
  0
LINE
  8
0
 10
932.679
 20
108.573
 11
935.119
 21
111.87
  0
LINE
  8
0
 10
935.119
 20
111.87
 11
937.501
 21
115.21
  0
LINE
  8
0
 10
937.501
 20
115.21
 11
939.824
 21
118.59
  0
LINE
  8
0
 10
939.824
 20
118.59
 11
942.088
 21
122.01
  0
LINE
  8
0
 10
942.088
 20
122.01
 11
944.291
 21
125.469
  0
LINE
  8
0
 10
944.291
 20
125.469
 11
946.434
 21
128.966
  0
LINE
  8
0
 10
946.434
 20
128.966
 11
948.516
 21
132.5
  0
LINE
  8
0
 10
948.516
 20
132.5
 11
950.536
 21
136.07
  0
LINE
  8
0
 10
950.536
 20
136.07
 11
952.493
 21
139.674
  0
LINE
  8
0
 10
952.493
 20
139.674
 11
954.387
 21
143.312
  0
LINE
  8
0
 10
954.387
 20
143.312
 11
956.217
 21
146.983
  0
LINE
  8
0
 10
956.217
 20
146.983
 11
957.982
 21
150.685
  0
LINE
  8
0
 10
957.982
 20
150.685
 11
959.683
 21
154.417
  0
LINE
  8
0
 10
959.683
 20
154.417
 11
961.319
 21
158.178
  0
LINE
  8
0
 10
961.319
 20
158.178
 11
962.888
 21
161.967
  0
LINE
  8
0
 10
962.888
 20
161.967
 11
964.391
 21
165.784
  0
LINE
  8
0
 10
964.391
 20
165.784
 11
965.828
 21
169.625
  0
LINE
  8
0
 10
965.828
 20
169.625
 11
967.197
 21
173.491
  0
LINE
  8
0
 10
967.197
 20
173.491
 11
968.498
 21
177.381
  0
LINE
  8
0
 10
968.498
 20
177.381
 11
969.732
 21
181.293
  0
LINE
  8
0
 10
969.732
 20
181.293
 11
970.896
 21
185.225
  0
LINE
  8
0
 10
970.896
 20
185.225
 11
971.993
 21
189.178
  0
LINE
  8
0
 10
971.993
 20
189.178
 11
973.019
 21
193.148
  0
LINE
  8
0
 10
973.019
 20
193.148
 11
973.977
 21
197.137
  0
LINE
  8
0
 10
973.977
 20
197.137
 11
974.865
 21
201.141
  0
LINE
  8
0
 10
974.865
 20
201.141
 11
975.682
 21
205.16
  0
LINE
  8
0
 10
975.682
 20
205.16
 11
976.43
 21
209.193
  0
LINE
  8
0
 10
976.43
 20
209.193
 11
977.107
 21
213.238
  0
LINE
  8
0
 10
977.107
 20
213.238
 11
977.713
 21
217.294
  0
LINE
  8
0
 10
977.713
 20
217.294
 11
978.248
 21
221.361
  0
LINE
  8
0
 10
978.248
 20
221.361
 11
978.713
 21
225.436
  0
LINE
  8
0
 10
978.713
 20
225.436
 11
979.106
 21
229.518
  0
LINE
  8
0
 10
979.106
 20
229.518
 11
979.428
 21
233.607
  0
LINE
  8
0
 10
979.428
 20
233.607
 11
979.604
 21
236.5
  0
LINE
  8
0
 10
979.604
 20
236.5
 11
925
 21
236.5
  0
LINE
  8
0
 10
925
 20
236.5
 11
925
 21
263.5
  0
LINE
  8
0
 10
925
 20
263.5
 11
979.604
 21
263.5
  0
LINE
  8
0
 10
979.604
 20
263.5
 11
979.428
 21
266.393
  0
LINE
  8
0
 10
979.428
 20
266.393
 11
979.106
 21
270.482
  0
LINE
  8
0
 10
979.106
 20
270.482
 11
978.713
 21
274.564
  0
LINE
  8
0
 10
978.713
 20
274.564
 11
978.248
 21
278.639
  0
LINE
  8
0
 10
978.248
 20
278.639
 11
977.713
 21
282.706
  0
LINE
  8
0
 10
977.713
 20
282.706
 11
977.107
 21
286.762
  0
LINE
  8
0
 10
977.107
 20
286.762
 11
976.43
 21
290.807
  0
LINE
  8
0
 10
976.43
 20
290.807
 11
975.682
 21
294.84
  0
LINE
  8
0
 10
975.682
 20
294.84
 11
974.865
 21
298.859
  0
LINE
  8
0
 10
974.865
 20
298.859
 11
973.977
 21
302.863
  0
LINE
  8
0
 10
973.977
 20
302.863
 11
973.019
 21
306.852
  0
LINE
  8
0
 10
973.019
 20
306.852
 11
971.993
 21
310.822
  0
LINE
  8
0
 10
971.993
 20
310.822
 11
970.896
 21
314.775
  0
LINE
  8
0
 10
970.896
 20
314.775
 11
969.732
 21
318.707
  0
LINE
  8
0
 10
969.732
 20
318.707
 11
968.498
 21
322.619
  0
LINE
  8
0
 10
968.498
 20
322.619
 11
967.197
 21
326.509
  0
LINE
  8
0
 10
967.197
 20
326.509
 11
965.828
 21
330.375
  0
LINE
  8
0
 10
965.828
 20
330.375
 11
964.391
 21
334.216
  0
LINE
  8
0
 10
964.391
 20
334.216
 11
962.888
 21
338.033
  0
LINE
  8
0
 10
962.888
 20
338.033
 11
961.319
 21
341.822
  0
LINE
  8
0
 10
961.319
 20
341.822
 11
959.683
 21
345.583
  0
LINE
  8
0
 10
959.683
 20
345.583
 11
957.982
 21
349.315
  0
LINE
  8
0
 10
957.982
 20
349.315
 11
956.217
 21
353.017
  0
LINE
  8
0
 10
956.217
 20
353.017
 11
954.387
 21
356.688
  0
LINE
  8
0
 10
954.387
 20
356.688
 11
952.493
 21
360.326
  0
LINE
  8
0
 10
952.493
 20
360.326
 11
950.536
 21
363.93
  0
LINE
  8
0
 10
950.536
 20
363.93
 11
948.516
 21
367.5
  0
LINE
  8
0
 10
948.516
 20
367.5
 11
946.434
 21
371.034
  0
LINE
  8
0
 10
946.434
 20
371.034
 11
944.291
 21
374.531
  0
LINE
  8
0
 10
944.291
 20
374.531
 11
942.088
 21
377.99
  0
LINE
  8
0
 10
942.088
 20
377.99
 11
939.824
 21
381.41
  0
LINE
  8
0
 10
939.824
 20
381.41
 11
937.501
 21
384.79
  0
LINE
  8
0
 10
937.501
 20
384.79
 11
935.119
 21
388.13
  0
LINE
  8
0
 10
935.119
 20
388.13
 11
932.679
 21
391.427
  0
LINE
  8
0
 10
932.679
 20
391.427
 11
930.182
 21
394.68
  0
LINE
  8
0
 10
930.182
 20
394.68
 11
927.629
 21
397.89
  0
LINE
  8
0
 10
927.629
 20
397.89
 11
925.02
 21
401.055
  0
LINE
  8
0
 10
925.02
 20
401.055
 11
922.357
 21
404.174
  0
LINE
  8
0
 10
922.357
 20
404.174
 11
919.639
 21
407.246
  0
LINE
  8
0
 10
919.639
 20
407.246
 11
916.868
 21
410.27
  0
LINE
  8
0
 10
916.868
 20
410.27
 11
914.045
 21
413.245
  0
LINE
  8
0
 10
914.045
 20
413.245
 11
911.17
 21
416.17
  0
LINE
  8
0
 10
911.17
 20
416.17
 11
908.245
 21
419.045
  0
LINE
  8
0
 10
908.245
 20
419.045
 11
905.27
 21
421.868
  0
LINE
  8
0
 10
905.27
 20
421.868
 11
902.246
 21
424.639
  0
LINE
  8
0
 10
902.246
 20
424.639
 11
899.174
 21
427.357
  0
LINE
  8
0
 10
899.174
 20
427.357
 11
896.055
 21
430.02
  0
LINE
  8
0
 10
896.055
 20
430.02
 11
892.89
 21
432.629
  0
LINE
  8
0
 10
892.89
 20
432.629
 11
889.68
 21
435.183
  0
LINE
  8
0
 10
889.68
 20
435.183
 11
886.427
 21
437.679
  0
LINE
  8
0
 10
886.427
 20
437.679
 11
883.13
 21
440.119
  0
LINE
  8
0
 10
883.13
 20
440.119
 11
879.79
 21
442.501
  0
LINE
  8
0
 10
879.79
 20
442.501
 11
876.41
 21
444.824
  0
LINE
  8
0
 10
876.41
 20
444.824
 11
872.99
 21
447.088
  0
LINE
  8
0
 10
872.99
 20
447.088
 11
869.531
 21
449.291
  0
LINE
  8
0
 10
869.531
 20
449.291
 11
866.034
 21
451.434
  0
LINE
  8
0
 10
866.034
 20
451.434
 11
862.5
 21
453.516
  0
LINE
  8
0
 10
862.5
 20
453.516
 11
858.93
 21
455.536
  0
LINE
  8
0
 10
858.93
 20
455.536
 11
855.326
 21
457.493
  0
LINE
  8
0
 10
855.326
 20
457.493
 11
851.688
 21
459.387
  0
LINE
  8
0
 10
851.688
 20
459.387
 11
848.017
 21
461.217
  0
LINE
  8
0
 10
848.017
 20
461.217
 11
844.315
 21
462.982
  0
LINE
  8
0
 10
844.315
 20
462.982
 11
840.583
 21
464.683
  0
LINE
  8
0
 10
840.583
 20
464.683
 11
836.822
 21
466.319
  0
LINE
  8
0
 10
836.822
 20
466.319
 11
833.033
 21
467.888
  0
LINE
  8
0
 10
833.033
 20
467.888
 11
829.216
 21
469.391
  0
LINE
  8
0
 10
829.216
 20
469.391
 11
825.375
 21
470.828
  0
LINE
  8
0
 10
825.375
 20
470.828
 11
821.509
 21
472.197
  0
LINE
  8
0
 10
821.509
 20
472.197
 11
817.619
 21
473.498
  0
LINE
  8
0
 10
817.619
 20
473.498
 11
813.707
 21
474.732
  0
LINE
  8
0
 10
813.707
 20
474.732
 11
809.775
 21
475.896
  0
LINE
  8
0
 10
809.775
 20
475.896
 11
805.822
 21
476.993
  0
LINE
  8
0
 10
805.822
 20
476.993
 11
801.852
 21
478.019
  0
LINE
  8
0
 10
801.852
 20
478.019
 11
797.864
 21
478.977
  0
LINE
  8
0
 10
797.864
 20
478.977
 11
793.859
 21
479.865
  0
LINE
  8
0
 10
793.859
 20
479.865
 11
789.84
 21
480.682
  0
LINE
  8
0
 10
789.84
 20
480.682
 11
785.807
 21
481.43
  0
LINE
  8
0
 10
785.807
 20
481.43
 11
781.762
 21
482.107
  0
LINE
  8
0
 10
781.762
 20
482.107
 11
777.706
 21
482.713
  0
LINE
  8
0
 10
777.706
 20
482.713
 11
773.639
 21
483.248
  0
LINE
  8
0
 10
773.639
 20
483.248
 11
769.564
 21
483.713
  0
LINE
  8
0
 10
769.564
 20
483.713
 11
765.482
 21
484.106
  0
LINE
  8
0
 10
765.482
 20
484.106
 11
761.393
 21
484.428
  0
LINE
  8
0
 10
761.393
 20
484.428
 11
758.5
 21
484.604
  0
LINE
  8
0
 10
758.5
 20
484.604
 11
758.5
 21
430
  0
LINE
  8
0
 10
758.5
 20
430
 11
731.5
 21
430
  0
LINE
  8
0
 10
731.5
 20
430
 11
731.5
 21
484.604
  0
LINE
  8
0
 10
731.5
 20
484.604
 11
728.607
 21
484.428
  0
LINE
  8
0
 10
728.607
 20
484.428
 11
724.518
 21
484.106
  0
LINE
  8
0
 10
724.518
 20
484.106
 11
720.436
 21
483.713
  0
LINE
  8
0
 10
720.436
 20
483.713
 11
716.361
 21
483.248
  0
LINE
  8
0
 10
716.361
 20
483.248
 11
712.294
 21
482.713
  0
LINE
  8
0
 10
712.294
 20
482.713
 11
708.238
 21
482.107
  0
LINE
  8
0
 10
708.238
 20
482.107
 11
704.193
 21
481.43
  0
LINE
  8
0
 10
704.193
 20
481.43
 11
700.16
 21
480.682
  0
LINE
  8
0
 10
700.16
 20
480.682
 11
696.141
 21
479.865
  0
LINE
  8
0
 10
696.141
 20
479.865
 11
692.136
 21
478.977
  0
LINE
  8
0
 10
692.136
 20
478.977
 11
688.148
 21
478.019
  0
LINE
  8
0
 10
688.148
 20
478.019
 11
684.178
 21
476.993
  0
LINE
  8
0
 10
684.178
 20
476.993
 11
680.225
 21
475.896
  0
LINE
  8
0
 10
680.225
 20
475.896
 11
676.293
 21
474.732
  0
LINE
  8
0
 10
676.293
 20
474.732
 11
672.381
 21
473.498
  0
LINE
  8
0
 10
672.381
 20
473.498
 11
668.491
 21
472.197
  0
LINE
  8
0
 10
668.491
 20
472.197
 11
664.625
 21
470.828
  0
LINE
  8
0
 10
664.625
 20
470.828
 11
660.784
 21
469.391
  0
LINE
  8
0
 10
660.784
 20
469.391
 11
656.967
 21
467.888
  0
LINE
  8
0
 10
656.967
 20
467.888
 11
653.178
 21
466.319
  0
LINE
  8
0
 10
653.178
 20
466.319
 11
649.417
 21
464.683
  0
LINE
  8
0
 10
649.417
 20
464.683
 11
645.685
 21
462.982
  0
LINE
  8
0
 10
645.685
 20
462.982
 11
641.983
 21
461.217
  0
LINE
  8
0
 10
641.983
 20
461.217
 11
638.312
 21
459.387
  0
LINE
  8
0
 10
638.312
 20
459.387
 11
634.674
 21
457.493
  0
LINE
  8
0
 10
634.674
 20
457.493
 11
631.07
 21
455.536
  0
LINE
  8
0
 10
631.07
 20
455.536
 11
627.5
 21
453.516
  0
LINE
  8
0
 10
627.5
 20
453.516
 11
623.966
 21
451.434
  0
LINE
  8
0
 10
623.966
 20
451.434
 11
620.469
 21
449.291
  0
LINE
  8
0
 10
620.469
 20
449.291
 11
617.01
 21
447.088
  0
LINE
  8
0
 10
617.01
 20
447.088
 11
613.59
 21
444.824
  0
LINE
  8
0
 10
613.59
 20
444.824
 11
610.21
 21
442.501
  0
LINE
  8
0
 10
610.21
 20
442.501
 11
606.87
 21
440.119
  0
LINE
  8
0
 10
606.87
 20
440.119
 11
603.573
 21
437.679
  0
LINE
  8
0
 10
603.573
 20
437.679
 11
600.32
 21
435.183
  0
LINE
  8
0
 10
600.32
 20
435.183
 11
597.11
 21
432.629
  0
LINE
  8
0
 10
597.11
 20
432.629
 11
593.945
 21
430.02
  0
LINE
  8
0
 10
593.945
 20
430.02
 11
590.826
 21
427.357
  0
LINE
  8
0
 10
590.826
 20
427.357
 11
587.754
 21
424.639
  0
LINE
  8
0
 10
587.754
 20
424.639
 11
584.73
 21
421.868
  0
LINE
  8
0
 10
584.73
 20
421.868
 11
581.755
 21
419.045
  0
LINE
  8
0
 10
581.755
 20
419.045
 11
578.83
 21
416.17
  0
LINE
  8
0
 10
578.83
 20
416.17
 11
575.955
 21
413.245
  0
LINE
  8
0
 10
575.955
 20
413.245
 11
573.132
 21
410.27
  0
LINE
  8
0
 10
573.132
 20
410.27
 11
570.361
 21
407.246
  0
LINE
  8
0
 10
570.361
 20
407.246
 11
567.643
 21
404.174
  0
LINE
  8
0
 10
567.643
 20
404.174
 11
564.98
 21
401.055
  0
LINE
  8
0
 10
564.98
 20
401.055
 11
562.371
 21
397.89
  0
LINE
  8
0
 10
562.371
 20
397.89
 11
559.818
 21
394.68
  0
LINE
  8
0
 10
559.818
 20
394.68
 11
557.321
 21
391.427
  0
LINE
  8
0
 10
557.321
 20
391.427
 11
554.881
 21
388.13
  0
LINE
  8
0
 10
554.881
 20
388.13
 11
552.499
 21
384.79
  0
LINE
  8
0
 10
552.499
 20
384.79
 11
550.176
 21
381.41
  0
LINE
  8
0
 10
550.176
 20
381.41
 11
547.912
 21
377.99
  0
LINE
  8
0
 10
547.912
 20
377.99
 11
545.709
 21
374.531
  0
LINE
  8
0
 10
545.709
 20
374.531
 11
543.566
 21
371.034
  0
LINE
  8
0
 10
543.566
 20
371.034
 11
541.484
 21
367.5
  0
LINE
  8
0
 10
541.484
 20
367.5
 11
539.464
 21
363.93
  0
LINE
  8
0
 10
539.464
 20
363.93
 11
537.507
 21
360.326
  0
LINE
  8
0
 10
537.507
 20
360.326
 11
535.613
 21
356.688
  0
LINE
  8
0
 10
535.613
 20
356.688
 11
533.783
 21
353.017
  0
LINE
  8
0
 10
533.783
 20
353.017
 11
532.018
 21
349.315
  0
LINE
  8
0
 10
532.018
 20
349.315
 11
530.317
 21
345.583
  0
LINE
  8
0
 10
530.317
 20
345.583
 11
528.681
 21
341.822
  0
LINE
  8
0
 10
528.681
 20
341.822
 11
527.112
 21
338.033
  0
LINE
  8
0
 10
527.112
 20
338.033
 11
525.609
 21
334.216
  0
LINE
  8
0
 10
525.609
 20
334.216
 11
524.172
 21
330.375
  0
LINE
  8
0
 10
524.172
 20
330.375
 11
522.803
 21
326.509
  0
LINE
  8
0
 10
522.803
 20
326.509
 11
521.502
 21
322.619
  0
LINE
  8
0
 10
521.502
 20
322.619
 11
520.268
 21
318.707
  0
LINE
  8
0
 10
520.268
 20
318.707
 11
519.104
 21
314.775
  0
LINE
  8
0
 10
519.104
 20
314.775
 11
518.007
 21
310.822
  0
LINE
  8
0
 10
518.007
 20
310.822
 11
516.981
 21
306.852
  0
LINE
  8
0
 10
516.981
 20
306.852
 11
516.023
 21
302.863
  0
LINE
  8
0
 10
516.023
 20
302.863
 11
515.135
 21
298.859
  0
LINE
  8
0
 10
515.135
 20
298.859
 11
514.318
 21
294.84
  0
LINE
  8
0
 10
514.318
 20
294.84
 11
513.57
 21
290.807
  0
LINE
  8
0
 10
513.57
 20
290.807
 11
512.893
 21
286.762
  0
LINE
  8
0
 10
512.893
 20
286.762
 11
512.287
 21
282.706
  0
LINE
  8
0
 10
512.287
 20
282.706
 11
511.752
 21
278.639
  0
LINE
  8
0
 10
511.752
 20
278.639
 11
511.287
 21
274.564
  0
LINE
  8
0
 10
511.287
 20
274.564
 11
510.894
 21
270.482
  0
LINE
  8
0
 10
510.894
 20
270.482
 11
510.572
 21
266.393
  0
LINE
  8
0
 10
510.572
 20
266.393
 11
510.396
 21
263.5
  0
LINE
  8
0
 10
510.396
 20
263.5
 11
565
 21
263.5
  0
LINE
  8
0
 10
565
 20
263.5
 11
565
 21
236.5
  0
LINE
  8
0
 10
565
 20
236.5
 11
510.396
 21
236.5
  0
LINE
  8
0
 10
510.396
 20
236.5
 11
510.572
 21
233.607
  0
LINE
  8
0
 10
510.572
 20
233.607
 11
510.894
 21
229.518
  0
LINE
  8
0
 10
510.894
 20
229.518
 11
511.287
 21
225.436
  0
LINE
  8
0
 10
511.287
 20
225.436
 11
511.752
 21
221.361
  0
LINE
  8
0
 10
511.752
 20
221.361
 11
512.287
 21
217.294
  0
LINE
  8
0
 10
512.287
 20
217.294
 11
512.893
 21
213.238
  0
LINE
  8
0
 10
512.893
 20
213.238
 11
513.57
 21
209.193
  0
LINE
  8
0
 10
513.57
 20
209.193
 11
514.318
 21
205.16
  0
LINE
  8
0
 10
514.318
 20
205.16
 11
515.135
 21
201.141
  0
LINE
  8
0
 10
515.135
 20
201.141
 11
516.023
 21
197.137
  0
LINE
  8
0
 10
516.023
 20
197.137
 11
516.981
 21
193.148
  0
LINE
  8
0
 10
516.981
 20
193.148
 11
518.007
 21
189.178
  0
LINE
  8
0
 10
518.007
 20
189.178
 11
519.104
 21
185.225
  0
LINE
  8
0
 10
519.104
 20
185.225
 11
520.268
 21
181.293
  0
LINE
  8
0
 10
520.268
 20
181.293
 11
521.502
 21
177.381
  0
LINE
  8
0
 10
521.502
 20
177.381
 11
522.803
 21
173.491
  0
LINE
  8
0
 10
522.803
 20
173.491
 11
524.172
 21
169.625
  0
LINE
  8
0
 10
524.172
 20
169.625
 11
525.609
 21
165.784
  0
LINE
  8
0
 10
525.609
 20
165.784
 11
527.112
 21
161.967
  0
LINE
  8
0
 10
527.112
 20
161.967
 11
528.681
 21
158.178
  0
LINE
  8
0
 10
528.681
 20
158.178
 11
530.317
 21
154.417
  0
LINE
  8
0
 10
530.317
 20
154.417
 11
532.018
 21
150.685
  0
LINE
  8
0
 10
532.018
 20
150.685
 11
533.783
 21
146.983
  0
LINE
  8
0
 10
533.783
 20
146.983
 11
535.613
 21
143.312
  0
LINE
  8
0
 10
535.613
 20
143.312
 11
537.507
 21
139.674
  0
LINE
  8
0
 10
537.507
 20
139.674
 11
539.464
 21
136.07
  0
LINE
  8
0
 10
539.464
 20
136.07
 11
541.484
 21
132.5
  0
LINE
  8
0
 10
541.484
 20
132.5
 11
543.566
 21
128.966
  0
LINE
  8
0
 10
543.566
 20
128.966
 11
545.709
 21
125.469
  0
LINE
  8
0
 10
545.709
 20
125.469
 11
547.912
 21
122.01
  0
LINE
  8
0
 10
547.912
 20
122.01
 11
550.176
 21
118.59
  0
LINE
  8
0
 10
550.176
 20
118.59
 11
552.499
 21
115.21
  0
LINE
  8
0
 10
552.499
 20
115.21
 11
554.881
 21
111.87
  0
LINE
  8
0
 10
554.881
 20
111.87
 11
557.321
 21
108.573
  0
LINE
  8
0
 10
557.321
 20
108.573
 11
559.818
 21
105.32
  0
LINE
  8
0
 10
559.818
 20
105.32
 11
562.371
 21
102.11
  0
LINE
  8
0
 10
562.371
 20
102.11
 11
564.98
 21
98.9449
  0
LINE
  8
0
 10
564.98
 20
98.9449
 11
567.643
 21
95.8261
  0
LINE
  8
0
 10
567.643
 20
95.8261
 11
570.361
 21
92.7543
  0
LINE
  8
0
 10
570.361
 20
92.7543
 11
573.132
 21
89.7304
  0
LINE
  8
0
 10
573.132
 20
89.7304
 11
575.955
 21
86.7553
  0
LINE
  8
0
 10
575.955
 20
86.7553
 11
578.83
 21
83.8299
  0
LINE
  8
0
 10
578.83
 20
83.8299
 11
581.755
 21
80.9552
  0
LINE
  8
0
 10
581.755
 20
80.9552
 11
584.73
 21
78.1319
  0
LINE
  8
0
 10
584.73
 20
78.1319
 11
587.754
 21
75.361
  0
LINE
  8
0
 10
587.754
 20
75.361
 11
590.826
 21
72.6432
  0
LINE
  8
0
 10
590.826
 20
72.6432
 11
593.945
 21
69.9796
  0
LINE
  8
0
 10
593.945
 20
69.9796
 11
597.11
 21
67.3707
  0
LINE
  8
0
 10
597.11
 20
67.3707
 11
600.32
 21
64.8175
  0
LINE
  8
0
 10
600.32
 20
64.8175
 11
603.573
 21
62.3207
  0
LINE
  8
0
 10
603.573
 20
62.3207
 11
606.87
 21
59.881
  0
LINE
  8
0
 10
606.87
 20
59.881
 11
610.21
 21
57.4993
  0
LINE
  8
0
 10
610.21
 20
57.4993
 11
613.59
 21
55.1762
  0
LINE
  8
0
 10
613.59
 20
55.1762
 11
617.01
 21
52.9124
  0
LINE
  8
0
 10
617.01
 20
52.9124
 11
620.469
 21
50.7087
  0
LINE
  8
0
 10
620.469
 20
50.7087
 11
623.966
 21
48.5657
  0
LINE
  8
0
 10
623.966
 20
48.5657
 11
627.5
 21
46.484
  0
LINE
  8
0
 10
627.5
 20
46.484
 11
631.07
 21
44.4644
  0
LINE
  8
0
 10
631.07
 20
44.4644
 11
634.674
 21
42.5073
  0
LINE
  8
0
 10
634.674
 20
42.5073
 11
638.312
 21
40.6135
  0
LINE
  8
0
 10
638.312
 20
40.6135
 11
641.983
 21
38.7834
  0
LINE
  8
0
 10
641.983
 20
38.7834
 11
645.685
 21
37.0177
  0
LINE
  8
0
 10
645.685
 20
37.0177
 11
649.417
 21
35.3168
  0
LINE
  8
0
 10
649.417
 20
35.3168
 11
653.178
 21
33.6814
  0
LINE
  8
0
 10
653.178
 20
33.6814
 11
656.967
 21
32.1118
  0
LINE
  8
0
 10
656.967
 20
32.1118
 11
660.784
 21
30.6086
  0
LINE
  8
0
 10
660.784
 20
30.6086
 11
664.625
 21
29.1722
  0
LINE
  8
0
 10
664.625
 20
29.1722
 11
668.491
 21
27.8031
  0
LINE
  8
0
 10
668.491
 20
27.8031
 11
672.381
 21
26.5017
  0
LINE
  8
0
 10
672.381
 20
26.5017
 11
676.293
 21
25.2684
  0
LINE
  8
0
 10
676.293
 20
25.2684
 11
680.225
 21
24.1035
  0
LINE
  8
0
 10
680.225
 20
24.1035
 11
684.178
 21
23.0074
  0
LINE
  8
0
 10
684.178
 20
23.0074
 11
688.148
 21
21.9805
  0
LINE
  8
0
 10
688.148
 20
21.9805
 11
692.136
 21
21.023
  0
LINE
  8
0
 10
692.136
 20
21.023
 11
696.141
 21
20.1353
  0
LINE
  8
0
 10
696.141
 20
20.1353
 11
700.16
 21
19.3176
  0
LINE
  8
0
 10
700.16
 20
19.3176
 11
704.193
 21
18.5702
  0
LINE
  8
0
 10
704.193
 20
18.5702
 11
708.238
 21
17.8932
  0
LINE
  8
0
 10
708.238
 20
17.8932
 11
712.294
 21
17.287
  0
LINE
  8
0
 10
712.294
 20
17.287
 11
716.361
 21
16.7517
  0
LINE
  8
0
 10
716.361
 20
16.7517
 11
720.436
 21
16.2874
  0
LINE
  8
0
 10
720.436
 20
16.2874
 11
724.518
 21
15.8943
  0
LINE
  8
0
 10
724.518
 20
15.8943
 11
728.607
 21
15.5724
  0
LINE
  8
0
 10
728.607
 20
15.5724
 11
731.5
 21
15.3955
  0
LINE
  8
0
 10
731.5
 20
15.3955
 11
731.5
 21
70
  0
LINE
  8
0
 10
731.5
 20
70
 11
758.5
 21
70
  0
LINE
  8
0
 10
758.5
 20
70
 11
758.5
 21
15.3955
  0
LINE
  8
0
 10
758.5
 20
15.3955
 11
761.393
 21
15.5724
  0
LINE
  8
0
 10
744.66
 20
230.503
 11
744.319
 21
230.512
  0
LINE
  8
0
 10
744.319
 20
230.512
 11
743.979
 21
230.527
  0
LINE
  8
0
 10
743.979
 20
230.527
 11
743.64
 21
230.548
  0
LINE
  8
0
 10
743.64
 20
230.548
 11
743.3
 21
230.574
  0
LINE
  8
0
 10
743.3
 20
230.574
 11
742.962
 21
230.607
  0
LINE
  8
0
 10
742.962
 20
230.607
 11
742.624
 21
230.645
  0
LINE
  8
0
 10
742.624
 20
230.645
 11
742.286
 21
230.69
  0
LINE
  8
0
 10
742.286
 20
230.69
 11
741.95
 21
230.74
  0
LINE
  8
0
 10
741.95
 20
230.74
 11
741.614
 21
230.796
  0
LINE
  8
0
 10
741.614
 20
230.796
 11
741.279
 21
230.858
  0
LINE
  8
0
 10
741.279
 20
230.858
 11
740.946
 21
230.926
  0
LINE
  8
0
 10
740.946
 20
230.926
 11
740.613
 21
231
  0
LINE
  8
0
 10
740.613
 20
231
 11
740.283
 21
231.079
  0
LINE
  8
0
 10
740.283
 20
231.079
 11
739.953
 21
231.164
  0
LINE
  8
0
 10
739.953
 20
231.164
 11
739.625
 21
231.255
  0
LINE
  8
0
 10
739.625
 20
231.255
 11
739.299
 21
231.352
  0
LINE
  8
0
 10
739.299
 20
231.352
 11
738.974
 21
231.454
  0
LINE
  8
0
 10
738.974
 20
231.454
 11
738.651
 21
231.562
  0
LINE
  8
0
 10
738.651
 20
231.562
 11
738.331
 21
231.676
  0
LINE
  8
0
 10
738.331
 20
231.676
 11
738.012
 21
231.795
  0
LINE
  8
0
 10
738.012
 20
231.795
 11
737.695
 21
231.92
  0
LINE
  8
0
 10
737.695
 20
231.92
 11
737.381
 21
232.05
  0
LINE
  8
0
 10
737.381
 20
232.05
 11
737.069
 21
232.186
  0
LINE
  8
0
 10
737.069
 20
232.186
 11
736.759
 21
232.327
  0
LINE
  8
0
 10
736.759
 20
232.327
 11
736.452
 21
232.474
  0
LINE
  8
0
 10
736.452
 20
232.474
 11
736.147
 21
232.625
  0
LINE
  8
0
 10
736.147
 20
232.625
 11
735.845
 21
232.783
  0
LINE
  8
0
 10
735.845
 20
232.783
 11
735.546
 21
232.945
  0
LINE
  8
0
 10
735.546
 20
232.945
 11
735.25
 21
233.113
  0
LINE
  8
0
 10
735.25
 20
233.113
 11
734.957
 21
233.285
  0
LINE
  8
0
 10
734.957
 20
233.285
 11
734.667
 21
233.463
  0
LINE
  8
0
 10
734.667
 20
233.463
 11
734.38
 21
233.646
  0
LINE
  8
0
 10
734.38
 20
233.646
 11
734.096
 21
233.834
  0
LINE
  8
0
 10
734.096
 20
233.834
 11
733.815
 21
234.027
  0
LINE
  8
0
 10
733.815
 20
234.027
 11
733.538
 21
234.224
  0
LINE
  8
0
 10
733.538
 20
234.224
 11
733.265
 21
234.427
  0
LINE
  8
0
 10
733.265
 20
234.427
 11
732.995
 21
234.634
  0
LINE
  8
0
 10
732.995
 20
234.634
 11
732.728
 21
234.846
  0
LINE
  8
0
 10
732.728
 20
234.846
 11
732.466
 21
235.062
  0
LINE
  8
0
 10
732.466
 20
235.062
 11
732.207
 21
235.283
  0
LINE
  8
0
 10
732.207
 20
235.283
 11
731.952
 21
235.509
  0
LINE
  8
0
 10
731.952
 20
235.509
 11
731.701
 21
235.739
  0
LINE
  8
0
 10
731.701
 20
235.739
 11
731.454
 21
235.973
  0
LINE
  8
0
 10
731.454
 20
235.973
 11
731.211
 21
236.211
  0
LINE
  8
0
 10
731.211
 20
236.211
 11
730.973
 21
236.454
  0
LINE
  8
0
 10
730.973
 20
236.454
 11
730.739
 21
236.701
  0
LINE
  8
0
 10
730.739
 20
236.701
 11
730.509
 21
236.952
  0
LINE
  8
0
 10
730.509
 20
236.952
 11
730.283
 21
237.207
  0
LINE
  8
0
 10
730.283
 20
237.207
 11
730.062
 21
237.466
  0
LINE
  8
0
 10
730.062
 20
237.466
 11
729.846
 21
237.728
  0
LINE
  8
0
 10
729.846
 20
237.728
 11
729.634
 21
237.995
  0
LINE
  8
0
 10
729.634
 20
237.995
 11
729.427
 21
238.265
  0
LINE
  8
0
 10
729.427
 20
238.265
 11
729.224
 21
238.538
  0
LINE
  8
0
 10
729.224
 20
238.538
 11
729.027
 21
238.815
  0
LINE
  8
0
 10
729.027
 20
238.815
 11
728.834
 21
239.096
  0
LINE
  8
0
 10
728.834
 20
239.096
 11
728.646
 21
239.38
  0
LINE
  8
0
 10
728.646
 20
239.38
 11
728.463
 21
239.667
  0
LINE
  8
0
 10
728.463
 20
239.667
 11
728.285
 21
239.957
  0
LINE
  8
0
 10
728.285
 20
239.957
 11
728.113
 21
240.25
  0
LINE
  8
0
 10
728.113
 20
240.25
 11
727.945
 21
240.546
  0
LINE
  8
0
 10
727.945
 20
240.546
 11
727.783
 21
240.845
  0
LINE
  8
0
 10
727.783
 20
240.845
 11
727.625
 21
241.147
  0
LINE
  8
0
 10
727.625
 20
241.147
 11
727.474
 21
241.452
  0
LINE
  8
0
 10
727.474
 20
241.452
 11
727.327
 21
241.759
  0
LINE
  8
0
 10
727.327
 20
241.759
 11
727.186
 21
242.069
  0
LINE
  8
0
 10
727.186
 20
242.069
 11
727.05
 21
242.381
  0
LINE
  8
0
 10
727.05
 20
242.381
 11
726.92
 21
242.695
  0
LINE
  8
0
 10
726.92
 20
242.695
 11
726.795
 21
243.012
  0
LINE
  8
0
 10
726.795
 20
243.012
 11
726.676
 21
243.331
  0
LINE
  8
0
 10
726.676
 20
243.331
 11
726.562
 21
243.651
  0
LINE
  8
0
 10
726.562
 20
243.651
 11
726.454
 21
243.974
  0
LINE
  8
0
 10
726.454
 20
243.974
 11
726.352
 21
244.299
  0
LINE
  8
0
 10
726.352
 20
244.299
 11
726.255
 21
244.625
  0
LINE
  8
0
 10
726.255
 20
244.625
 11
726.164
 21
244.953
  0
LINE
  8
0
 10
726.164
 20
244.953
 11
726.079
 21
245.283
  0
LINE
  8
0
 10
726.079
 20
245.283
 11
726
 21
245.613
  0
LINE
  8
0
 10
726
 20
245.613
 11
725.926
 21
245.946
  0
LINE
  8
0
 10
725.926
 20
245.946
 11
725.858
 21
246.279
  0
LINE
  8
0
 10
725.858
 20
246.279
 11
725.796
 21
246.614
  0
LINE
  8
0
 10
725.796
 20
246.614
 11
725.74
 21
246.95
  0
LINE
  8
0
 10
725.74
 20
246.95
 11
725.69
 21
247.286
  0
LINE
  8
0
 10
725.69
 20
247.286
 11
725.645
 21
247.624
  0
LINE
  8
0
 10
725.645
 20
247.624
 11
725.607
 21
247.962
  0
LINE
  8
0
 10
725.607
 20
247.962
 11
725.574
 21
248.3
  0
LINE
  8
0
 10
725.574
 20
248.3
 11
725.547
 21
248.64
  0
LINE
  8
0
 10
725.547
 20
248.64
 11
725.527
 21
248.979
  0
LINE
  8
0
 10
725.527
 20
248.979
 11
725.512
 21
249.319
  0
LINE
  8
0
 10
725.512
 20
249.319
 11
725.503
 21
249.66
  0
LINE
  8
0
 10
725.503
 20
249.66
 11
725.5
 21
250
  0
LINE
  8
0
 10
725.5
 20
250
 11
725.503
 21
250.34
  0
LINE
  8
0
 10
725.503
 20
250.34
 11
725.512
 21
250.681
  0
LINE
  8
0
 10
725.512
 20
250.681
 11
725.527
 21
251.021
  0
LINE
  8
0
 10
725.527
 20
251.021
 11
725.547
 21
251.36
  0
LINE
  8
0
 10
725.547
 20
251.36
 11
725.574
 21
251.7
  0
LINE
  8
0
 10
725.574
 20
251.7
 11
725.607
 21
252.038
  0
LINE
  8
0
 10
725.607
 20
252.038
 11
725.645
 21
252.376
  0
LINE
  8
0
 10
725.645
 20
252.376
 11
725.69
 21
252.714
  0
LINE
  8
0
 10
725.69
 20
252.714
 11
725.74
 21
253.05
  0
LINE
  8
0
 10
725.74
 20
253.05
 11
725.796
 21
253.386
  0
LINE
  8
0
 10
725.796
 20
253.386
 11
725.858
 21
253.721
  0
LINE
  8
0
 10
725.858
 20
253.721
 11
725.926
 21
254.054
  0
LINE
  8
0
 10
725.926
 20
254.054
 11
726
 21
254.387
  0
LINE
  8
0
 10
726
 20
254.387
 11
726.079
 21
254.717
  0
LINE
  8
0
 10
726.079
 20
254.717
 11
726.164
 21
255.047
  0
LINE
  8
0
 10
726.164
 20
255.047
 11
726.255
 21
255.375
  0
LINE
  8
0
 10
726.255
 20
255.375
 11
726.352
 21
255.701
  0
LINE
  8
0
 10
726.352
 20
255.701
 11
726.454
 21
256.026
  0
LINE
  8
0
 10
726.454
 20
256.026
 11
726.562
 21
256.349
  0
LINE
  8
0
 10
726.562
 20
256.349
 11
726.676
 21
256.669
  0
LINE
  8
0
 10
726.676
 20
256.669
 11
726.795
 21
256.988
  0
LINE
  8
0
 10
726.795
 20
256.988
 11
726.92
 21
257.305
  0
LINE
  8
0
 10
726.92
 20
257.305
 11
727.05
 21
257.619
  0
LINE
  8
0
 10
727.05
 20
257.619
 11
727.186
 21
257.931
  0
LINE
  8
0
 10
727.186
 20
257.931
 11
727.327
 21
258.241
  0
LINE
  8
0
 10
727.327
 20
258.241
 11
727.474
 21
258.548
  0
LINE
  8
0
 10
727.474
 20
258.548
 11
727.625
 21
258.853
  0
LINE
  8
0
 10
727.625
 20
258.853
 11
727.783
 21
259.155
  0
LINE
  8
0
 10
727.783
 20
259.155
 11
727.945
 21
259.454
  0
LINE
  8
0
 10
727.945
 20
259.454
 11
728.113
 21
259.75
  0
LINE
  8
0
 10
728.113
 20
259.75
 11
728.285
 21
260.043
  0
LINE
  8
0
 10
728.285
 20
260.043
 11
728.463
 21
260.333
  0
LINE
  8
0
 10
728.463
 20
260.333
 11
728.646
 21
260.62
  0
LINE
  8
0
 10
728.646
 20
260.62
 11
728.834
 21
260.904
  0
LINE
  8
0
 10
728.834
 20
260.904
 11
729.027
 21
261.185
  0
LINE
  8
0
 10
729.027
 20
261.185
 11
729.224
 21
261.462
  0
LINE
  8
0
 10
729.224
 20
261.462
 11
729.427
 21
261.735
  0
LINE
  8
0
 10
729.427
 20
261.735
 11
729.634
 21
262.005
  0
LINE
  8
0
 10
729.634
 20
262.005
 11
729.846
 21
262.272
  0
LINE
  8
0
 10
729.846
 20
262.272
 11
730.062
 21
262.534
  0
LINE
  8
0
 10
730.062
 20
262.534
 11
730.283
 21
262.793
  0
LINE
  8
0
 10
730.283
 20
262.793
 11
730.509
 21
263.048
  0
LINE
  8
0
 10
730.509
 20
263.048
 11
730.739
 21
263.299
  0
LINE
  8
0
 10
730.739
 20
263.299
 11
730.973
 21
263.546
  0
LINE
  8
0
 10
730.973
 20
263.546
 11
731.211
 21
263.789
  0
LINE
  8
0
 10
731.211
 20
263.789
 11
731.454
 21
264.027
  0
LINE
  8
0
 10
731.454
 20
264.027
 11
731.701
 21
264.261
  0
LINE
  8
0
 10
731.701
 20
264.261
 11
731.952
 21
264.491
  0
LINE
  8
0
 10
731.952
 20
264.491
 11
732.207
 21
264.717
  0
LINE
  8
0
 10
732.207
 20
264.717
 11
732.466
 21
264.938
  0
LINE
  8
0
 10
732.466
 20
264.938
 11
732.728
 21
265.154
  0
LINE
  8
0
 10
732.728
 20
265.154
 11
732.995
 21
265.366
  0
LINE
  8
0
 10
732.995
 20
265.366
 11
733.265
 21
265.573
  0
LINE
  8
0
 10
733.265
 20
265.573
 11
733.538
 21
265.776
  0
LINE
  8
0
 10
733.538
 20
265.776
 11
733.815
 21
265.973
  0
LINE
  8
0
 10
733.815
 20
265.973
 11
734.096
 21
266.166
  0
LINE
  8
0
 10
734.096
 20
266.166
 11
734.38
 21
266.354
  0
LINE
  8
0
 10
734.38
 20
266.354
 11
734.667
 21
266.537
  0
LINE
  8
0
 10
734.667
 20
266.537
 11
734.957
 21
266.715
  0
LINE
  8
0
 10
734.957
 20
266.715
 11
735.25
 21
266.887
  0
LINE
  8
0
 10
735.25
 20
266.887
 11
735.546
 21
267.055
  0
LINE
  8
0
 10
735.546
 20
267.055
 11
735.845
 21
267.217
  0
LINE
  8
0
 10
735.845
 20
267.217
 11
736.147
 21
267.375
  0
LINE
  8
0
 10
736.147
 20
267.375
 11
736.452
 21
267.526
  0
LINE
  8
0
 10
736.452
 20
267.526
 11
736.759
 21
267.673
  0
LINE
  8
0
 10
736.759
 20
267.673
 11
737.069
 21
267.814
  0
LINE
  8
0
 10
737.069
 20
267.814
 11
737.381
 21
267.95
  0
LINE
  8
0
 10
737.381
 20
267.95
 11
737.695
 21
268.08
  0
LINE
  8
0
 10
737.695
 20
268.08
 11
738.012
 21
268.205
  0
LINE
  8
0
 10
738.012
 20
268.205
 11
738.331
 21
268.324
  0
LINE
  8
0
 10
738.331
 20
268.324
 11
738.651
 21
268.438
  0
LINE
  8
0
 10
738.651
 20
268.438
 11
738.974
 21
268.546
  0
LINE
  8
0
 10
738.974
 20
268.546
 11
739.299
 21
268.648
  0
LINE
  8
0
 10
739.299
 20
268.648
 11
739.625
 21
268.745
  0
LINE
  8
0
 10
739.625
 20
268.745
 11
739.953
 21
268.836
  0
LINE
  8
0
 10
739.953
 20
268.836
 11
740.283
 21
268.921
  0
LINE
  8
0
 10
740.283
 20
268.921
 11
740.613
 21
269
  0
LINE
  8
0
 10
740.613
 20
269
 11
740.946
 21
269.074
  0
LINE
  8
0
 10
740.946
 20
269.074
 11
741.279
 21
269.142
  0
LINE
  8
0
 10
741.279
 20
269.142
 11
741.614
 21
269.204
  0
LINE
  8
0
 10
741.614
 20
269.204
 11
741.95
 21
269.26
  0
LINE
  8
0
 10
741.95
 20
269.26
 11
742.286
 21
269.31
  0
LINE
  8
0
 10
742.286
 20
269.31
 11
742.624
 21
269.355
  0
LINE
  8
0
 10
742.624
 20
269.355
 11
742.962
 21
269.393
  0
LINE
  8
0
 10
742.962
 20
269.393
 11
743.3
 21
269.426
  0
LINE
  8
0
 10
743.3
 20
269.426
 11
743.64
 21
269.452
  0
LINE
  8
0
 10
743.64
 20
269.452
 11
743.979
 21
269.473
  0
LINE
  8
0
 10
743.979
 20
269.473
 11
744.319
 21
269.488
  0
LINE
  8
0
 10
744.319
 20
269.488
 11
744.66
 21
269.497
  0
LINE
  8
0
 10
744.66
 20
269.497
 11
745
 21
269.5
  0
LINE
  8
0
 10
745
 20
269.5
 11
745.34
 21
269.497
  0
LINE
  8
0
 10
745.34
 20
269.497
 11
745.681
 21
269.488
  0
LINE
  8
0
 10
745.681
 20
269.488
 11
746.021
 21
269.473
  0
LINE
  8
0
 10
746.021
 20
269.473
 11
746.36
 21
269.452
  0
LINE
  8
0
 10
746.36
 20
269.452
 11
746.7
 21
269.426
  0
LINE
  8
0
 10
746.7
 20
269.426
 11
747.038
 21
269.393
  0
LINE
  8
0
 10
747.038
 20
269.393
 11
747.376
 21
269.355
  0
LINE
  8
0
 10
747.376
 20
269.355
 11
747.714
 21
269.31
  0
LINE
  8
0
 10
747.714
 20
269.31
 11
748.05
 21
269.26
  0
LINE
  8
0
 10
748.05
 20
269.26
 11
748.386
 21
269.204
  0
LINE
  8
0
 10
748.386
 20
269.204
 11
748.721
 21
269.142
  0
LINE
  8
0
 10
748.721
 20
269.142
 11
749.054
 21
269.074
  0
LINE
  8
0
 10
749.054
 20
269.074
 11
749.387
 21
269
  0
LINE
  8
0
 10
749.387
 20
269
 11
749.717
 21
268.921
  0
LINE
  8
0
 10
749.717
 20
268.921
 11
750.047
 21
268.836
  0
LINE
  8
0
 10
750.047
 20
268.836
 11
750.375
 21
268.745
  0
LINE
  8
0
 10
750.375
 20
268.745
 11
750.701
 21
268.648
  0
LINE
  8
0
 10
750.701
 20
268.648
 11
751.026
 21
268.546
  0
LINE
  8
0
 10
751.026
 20
268.546
 11
751.349
 21
268.438
  0
LINE
  8
0
 10
751.349
 20
268.438
 11
751.669
 21
268.324
  0
LINE
  8
0
 10
751.669
 20
268.324
 11
751.988
 21
268.205
  0
LINE
  8
0
 10
751.988
 20
268.205
 11
752.305
 21
268.08
  0
LINE
  8
0
 10
752.305
 20
268.08
 11
752.619
 21
267.95
  0
LINE
  8
0
 10
752.619
 20
267.95
 11
752.931
 21
267.814
  0
LINE
  8
0
 10
752.931
 20
267.814
 11
753.241
 21
267.673
  0
LINE
  8
0
 10
753.241
 20
267.673
 11
753.548
 21
267.526
  0
LINE
  8
0
 10
753.548
 20
267.526
 11
753.853
 21
267.375
  0
LINE
  8
0
 10
753.853
 20
267.375
 11
754.155
 21
267.217
  0
LINE
  8
0
 10
754.155
 20
267.217
 11
754.454
 21
267.055
  0
LINE
  8
0
 10
754.454
 20
267.055
 11
754.75
 21
266.887
  0
LINE
  8
0
 10
754.75
 20
266.887
 11
755.043
 21
266.715
  0
LINE
  8
0
 10
755.043
 20
266.715
 11
755.333
 21
266.537
  0
LINE
  8
0
 10
755.333
 20
266.537
 11
755.62
 21
266.354
  0
LINE
  8
0
 10
755.62
 20
266.354
 11
755.904
 21
266.166
  0
LINE
  8
0
 10
755.904
 20
266.166
 11
756.185
 21
265.973
  0
LINE
  8
0
 10
756.185
 20
265.973
 11
756.462
 21
265.776
  0
LINE
  8
0
 10
756.462
 20
265.776
 11
756.735
 21
265.573
  0
LINE
  8
0
 10
756.735
 20
265.573
 11
757.005
 21
265.366
  0
LINE
  8
0
 10
757.005
 20
265.366
 11
757.272
 21
265.154
  0
LINE
  8
0
 10
757.272
 20
265.154
 11
757.534
 21
264.938
  0
LINE
  8
0
 10
757.534
 20
264.938
 11
757.793
 21
264.717
  0
LINE
  8
0
 10
757.793
 20
264.717
 11
758.048
 21
264.491
  0
LINE
  8
0
 10
758.048
 20
264.491
 11
758.299
 21
264.261
  0
LINE
  8
0
 10
758.299
 20
264.261
 11
758.546
 21
264.027
  0
LINE
  8
0
 10
758.546
 20
264.027
 11
758.789
 21
263.789
  0
LINE
  8
0
 10
758.789
 20
263.789
 11
759.027
 21
263.546
  0
LINE
  8
0
 10
759.027
 20
263.546
 11
759.261
 21
263.299
  0
LINE
  8
0
 10
759.261
 20
263.299
 11
759.491
 21
263.048
  0
LINE
  8
0
 10
759.491
 20
263.048
 11
759.717
 21
262.793
  0
LINE
  8
0
 10
759.717
 20
262.793
 11
759.938
 21
262.534
  0
LINE
  8
0
 10
759.938
 20
262.534
 11
760.154
 21
262.272
  0
LINE
  8
0
 10
760.154
 20
262.272
 11
760.366
 21
262.005
  0
LINE
  8
0
 10
760.366
 20
262.005
 11
760.573
 21
261.735
  0
LINE
  8
0
 10
760.573
 20
261.735
 11
760.776
 21
261.462
  0
LINE
  8
0
 10
760.776
 20
261.462
 11
760.973
 21
261.185
  0
LINE
  8
0
 10
760.973
 20
261.185
 11
761.166
 21
260.904
  0
LINE
  8
0
 10
761.166
 20
260.904
 11
761.354
 21
260.62
  0
LINE
  8
0
 10
761.354
 20
260.62
 11
761.537
 21
260.333
  0
LINE
  8
0
 10
761.537
 20
260.333
 11
761.715
 21
260.043
  0
LINE
  8
0
 10
761.715
 20
260.043
 11
761.887
 21
259.75
  0
LINE
  8
0
 10
761.887
 20
259.75
 11
762.055
 21
259.454
  0
LINE
  8
0
 10
762.055
 20
259.454
 11
762.217
 21
259.155
  0
LINE
  8
0
 10
762.217
 20
259.155
 11
762.375
 21
258.853
  0
LINE
  8
0
 10
762.375
 20
258.853
 11
762.526
 21
258.548
  0
LINE
  8
0
 10
762.526
 20
258.548
 11
762.673
 21
258.241
  0
LINE
  8
0
 10
762.673
 20
258.241
 11
762.814
 21
257.931
  0
LINE
  8
0
 10
762.814
 20
257.931
 11
762.95
 21
257.619
  0
LINE
  8
0
 10
762.95
 20
257.619
 11
763.08
 21
257.305
  0
LINE
  8
0
 10
763.08
 20
257.305
 11
763.205
 21
256.988
  0
LINE
  8
0
 10
763.205
 20
256.988
 11
763.324
 21
256.669
  0
LINE
  8
0
 10
763.324
 20
256.669
 11
763.438
 21
256.349
  0
LINE
  8
0
 10
763.438
 20
256.349
 11
763.546
 21
256.026
  0
LINE
  8
0
 10
763.546
 20
256.026
 11
763.648
 21
255.701
  0
LINE
  8
0
 10
763.648
 20
255.701
 11
763.745
 21
255.375
  0
LINE
  8
0
 10
763.745
 20
255.375
 11
763.836
 21
255.047
  0
LINE
  8
0
 10
763.836
 20
255.047
 11
763.921
 21
254.717
  0
LINE
  8
0
 10
763.921
 20
254.717
 11
764
 21
254.387
  0
LINE
  8
0
 10
764
 20
254.387
 11
764.074
 21
254.054
  0
LINE
  8
0
 10
764.074
 20
254.054
 11
764.142
 21
253.721
  0
LINE
  8
0
 10
764.142
 20
253.721
 11
764.204
 21
253.386
  0
LINE
  8
0
 10
764.204
 20
253.386
 11
764.26
 21
253.05
  0
LINE
  8
0
 10
764.26
 20
253.05
 11
764.31
 21
252.714
  0
LINE
  8
0
 10
764.31
 20
252.714
 11
764.355
 21
252.376
  0
LINE
  8
0
 10
764.355
 20
252.376
 11
764.393
 21
252.038
  0
LINE
  8
0
 10
764.393
 20
252.038
 11
764.426
 21
251.7
  0
LINE
  8
0
 10
764.426
 20
251.7
 11
764.453
 21
251.36
  0
LINE
  8
0
 10
764.453
 20
251.36
 11
764.473
 21
251.021
  0
LINE
  8
0
 10
764.473
 20
251.021
 11
764.488
 21
250.681
  0
LINE
  8
0
 10
764.488
 20
250.681
 11
764.497
 21
250.34
  0
LINE
  8
0
 10
764.497
 20
250.34
 11
764.5
 21
250
  0
LINE
  8
0
 10
764.5
 20
250
 11
764.497
 21
249.66
  0
LINE
  8
0
 10
764.497
 20
249.66
 11
764.488
 21
249.319
  0
LINE
  8
0
 10
764.488
 20
249.319
 11
764.473
 21
248.979
  0
LINE
  8
0
 10
764.473
 20
248.979
 11
764.453
 21
248.64
  0
LINE
  8
0
 10
764.453
 20
248.64
 11
764.426
 21
248.3
  0
LINE
  8
0
 10
764.426
 20
248.3
 11
764.393
 21
247.962
  0
LINE
  8
0
 10
764.393
 20
247.962
 11
764.355
 21
247.624
  0
LINE
  8
0
 10
764.355
 20
247.624
 11
764.31
 21
247.286
  0
LINE
  8
0
 10
764.31
 20
247.286
 11
764.26
 21
246.95
  0
LINE
  8
0
 10
764.26
 20
246.95
 11
764.204
 21
246.614
  0
LINE
  8
0
 10
764.204
 20
246.614
 11
764.142
 21
246.279
  0
LINE
  8
0
 10
764.142
 20
246.279
 11
764.074
 21
245.946
  0
LINE
  8
0
 10
764.074
 20
245.946
 11
764
 21
245.613
  0
LINE
  8
0
 10
764
 20
245.613
 11
763.921
 21
245.283
  0
LINE
  8
0
 10
763.921
 20
245.283
 11
763.836
 21
244.953
  0
LINE
  8
0
 10
763.836
 20
244.953
 11
763.745
 21
244.625
  0
LINE
  8
0
 10
763.745
 20
244.625
 11
763.648
 21
244.299
  0
LINE
  8
0
 10
763.648
 20
244.299
 11
763.546
 21
243.974
  0
LINE
  8
0
 10
763.546
 20
243.974
 11
763.438
 21
243.651
  0
LINE
  8
0
 10
763.438
 20
243.651
 11
763.324
 21
243.331
  0
LINE
  8
0
 10
763.324
 20
243.331
 11
763.205
 21
243.012
  0
LINE
  8
0
 10
763.205
 20
243.012
 11
763.08
 21
242.695
  0
LINE
  8
0
 10
763.08
 20
242.695
 11
762.95
 21
242.381
  0
LINE
  8
0
 10
762.95
 20
242.381
 11
762.814
 21
242.069
  0
LINE
  8
0
 10
762.814
 20
242.069
 11
762.673
 21
241.759
  0
LINE
  8
0
 10
762.673
 20
241.759
 11
762.526
 21
241.452
  0
LINE
  8
0
 10
762.526
 20
241.452
 11
762.375
 21
241.147
  0
LINE
  8
0
 10
762.375
 20
241.147
 11
762.217
 21
240.845
  0
LINE
  8
0
 10
762.217
 20
240.845
 11
762.055
 21
240.546
  0
LINE
  8
0
 10
762.055
 20
240.546
 11
761.887
 21
240.25
  0
LINE
  8
0
 10
761.887
 20
240.25
 11
761.715
 21
239.957
  0
LINE
  8
0
 10
761.715
 20
239.957
 11
761.537
 21
239.667
  0
LINE
  8
0
 10
761.537
 20
239.667
 11
761.354
 21
239.38
  0
LINE
  8
0
 10
761.354
 20
239.38
 11
761.166
 21
239.096
  0
LINE
  8
0
 10
761.166
 20
239.096
 11
760.973
 21
238.815
  0
LINE
  8
0
 10
760.973
 20
238.815
 11
760.776
 21
238.538
  0
LINE
  8
0
 10
760.776
 20
238.538
 11
760.573
 21
238.265
  0
LINE
  8
0
 10
760.573
 20
238.265
 11
760.366
 21
237.995
  0
LINE
  8
0
 10
760.366
 20
237.995
 11
760.154
 21
237.728
  0
LINE
  8
0
 10
760.154
 20
237.728
 11
759.938
 21
237.466
  0
LINE
  8
0
 10
759.938
 20
237.466
 11
759.717
 21
237.207
  0
LINE
  8
0
 10
759.717
 20
237.207
 11
759.491
 21
236.952
  0
LINE
  8
0
 10
759.491
 20
236.952
 11
759.261
 21
236.701
  0
LINE
  8
0
 10
759.261
 20
236.701
 11
759.027
 21
236.454
  0
LINE
  8
0
 10
759.027
 20
236.454
 11
758.789
 21
236.211
  0
LINE
  8
0
 10
758.789
 20
236.211
 11
758.546
 21
235.973
  0
LINE
  8
0
 10
758.546
 20
235.973
 11
758.299
 21
235.739
  0
LINE
  8
0
 10
758.299
 20
235.739
 11
758.048
 21
235.509
  0
LINE
  8
0
 10
758.048
 20
235.509
 11
757.793
 21
235.283
  0
LINE
  8
0
 10
757.793
 20
235.283
 11
757.534
 21
235.062
  0
LINE
  8
0
 10
757.534
 20
235.062
 11
757.272
 21
234.846
  0
LINE
  8
0
 10
757.272
 20
234.846
 11
757.005
 21
234.634
  0
LINE
  8
0
 10
757.005
 20
234.634
 11
756.735
 21
234.427
  0
LINE
  8
0
 10
756.735
 20
234.427
 11
756.462
 21
234.224
  0
LINE
  8
0
 10
756.462
 20
234.224
 11
756.185
 21
234.027
  0
LINE
  8
0
 10
756.185
 20
234.027
 11
755.904
 21
233.834
  0
LINE
  8
0
 10
755.904
 20
233.834
 11
755.62
 21
233.646
  0
LINE
  8
0
 10
755.62
 20
233.646
 11
755.333
 21
233.463
  0
LINE
  8
0
 10
755.333
 20
233.463
 11
755.043
 21
233.285
  0
LINE
  8
0
 10
755.043
 20
233.285
 11
754.75
 21
233.113
  0
LINE
  8
0
 10
754.75
 20
233.113
 11
754.454
 21
232.945
  0
LINE
  8
0
 10
754.454
 20
232.945
 11
754.155
 21
232.783
  0
LINE
  8
0
 10
754.155
 20
232.783
 11
753.853
 21
232.625
  0
LINE
  8
0
 10
753.853
 20
232.625
 11
753.548
 21
232.474
  0
LINE
  8
0
 10
753.548
 20
232.474
 11
753.241
 21
232.327
  0
LINE
  8
0
 10
753.241
 20
232.327
 11
752.931
 21
232.186
  0
LINE
  8
0
 10
752.931
 20
232.186
 11
752.619
 21
232.05
  0
LINE
  8
0
 10
752.619
 20
232.05
 11
752.305
 21
231.92
  0
LINE
  8
0
 10
752.305
 20
231.92
 11
751.988
 21
231.795
  0
LINE
  8
0
 10
751.988
 20
231.795
 11
751.669
 21
231.676
  0
LINE
  8
0
 10
751.669
 20
231.676
 11
751.349
 21
231.562
  0
LINE
  8
0
 10
751.349
 20
231.562
 11
751.026
 21
231.454
  0
LINE
  8
0
 10
751.026
 20
231.454
 11
750.701
 21
231.352
  0
LINE
  8
0
 10
750.701
 20
231.352
 11
750.375
 21
231.255
  0
LINE
  8
0
 10
750.375
 20
231.255
 11
750.047
 21
231.164
  0
LINE
  8
0
 10
750.047
 20
231.164
 11
749.717
 21
231.079
  0
LINE
  8
0
 10
749.717
 20
231.079
 11
749.387
 21
231
  0
LINE
  8
0
 10
749.387
 20
231
 11
749.054
 21
230.926
  0
LINE
  8
0
 10
749.054
 20
230.926
 11
748.721
 21
230.858
  0
LINE
  8
0
 10
748.721
 20
230.858
 11
748.386
 21
230.796
  0
LINE
  8
0
 10
748.386
 20
230.796
 11
748.05
 21
230.74
  0
LINE
  8
0
 10
748.05
 20
230.74
 11
747.714
 21
230.69
  0
LINE
  8
0
 10
747.714
 20
230.69
 11
747.376
 21
230.645
  0
LINE
  8
0
 10
747.376
 20
230.645
 11
747.038
 21
230.607
  0
LINE
  8
0
 10
747.038
 20
230.607
 11
746.7
 21
230.574
  0
LINE
  8
0
 10
746.7
 20
230.574
 11
746.36
 21
230.548
  0
LINE
  8
0
 10
746.36
 20
230.548
 11
746.021
 21
230.527
  0
LINE
  8
0
 10
746.021
 20
230.527
 11
745.681
 21
230.512
  0
LINE
  8
0
 10
745.681
 20
230.512
 11
745.34
 21
230.503
  0
LINE
  8
0
 10
745.34
 20
230.503
 11
745
 21
230.5
  0
LINE
  8
0
 10
745
 20
230.5
 11
744.66
 21
230.503
  0
LINE
  8
0
 10
1235
 20
70
 11
1262
 21
70
  0
LINE
  8
0
 10
1262
 20
70
 11
1262
 21
15
  0
LINE
  8
0
 10
1262
 20
15
 11
1450
 21
15
  0
LINE
  8
0
 10
1450
 20
15
 11
1450.35
 21
15.003
  0
LINE
  8
0
 10
1450.35
 20
15.003
 11
1450.7
 21
15.0122
  0
LINE
  8
0
 10
1450.7
 20
15.0122
 11
1451.05
 21
15.0274
  0
LINE
  8
0
 10
1451.05
 20
15.0274
 11
1451.4
 21
15.0487
  0
LINE
  8
0
 10
1451.4
 20
15.0487
 11
1451.74
 21
15.0761
  0
LINE
  8
0
 10
1451.74
 20
15.0761
 11
1452.09
 21
15.1096
  0
LINE
  8
0
 10
1452.09
 20
15.1096
 11
1452.44
 21
15.1491
  0
LINE
  8
0
 10
1452.44
 20
15.1491
 11
1452.78
 21
15.1946
  0
LINE
  8
0
 10
1452.78
 20
15.1946
 11
1453.13
 21
15.2462
  0
LINE
  8
0
 10
1453.13
 20
15.2462
 11
1453.47
 21
15.3038
  0
LINE
  8
0
 10
1453.47
 20
15.3038
 11
1453.82
 21
15.3674
  0
LINE
  8
0
 10
1453.82
 20
15.3674
 11
1454.16
 21
15.437
  0
LINE
  8
0
 10
1454.16
 20
15.437
 11
1454.5
 21
15.5126
  0
LINE
  8
0
 10
1454.5
 20
15.5126
 11
1454.84
 21
15.5941
  0
LINE
  8
0
 10
1454.84
 20
15.5941
 11
1455.18
 21
15.6815
  0
LINE
  8
0
 10
1455.18
 20
15.6815
 11
1455.51
 21
15.7748
  0
LINE
  8
0
 10
1455.51
 20
15.7748
 11
1455.85
 21
15.8739
  0
LINE
  8
0
 10
1455.85
 20
15.8739
 11
1456.18
 21
15.9789
  0
LINE
  8
0
 10
1456.18
 20
15.9789
 11
1456.51
 21
16.0896
  0
LINE
  8
0
 10
1456.51
 20
16.0896
 11
1456.84
 21
16.2061
  0
LINE
  8
0
 10
1456.84
 20
16.2061
 11
1457.17
 21
16.3284
  0
LINE
  8
0
 10
1457.17
 20
16.3284
 11
1457.49
 21
16.4563
  0
LINE
  8
0
 10
1457.49
 20
16.4563
 11
1457.81
 21
16.5899
  0
LINE
  8
0
 10
1457.81
 20
16.5899
 11
1458.13
 21
16.7291
  0
LINE
  8
0
 10
1458.13
 20
16.7291
 11
1458.45
 21
16.8738
  0
LINE
  8
0
 10
1458.45
 20
16.8738
 11
1458.77
 21
17.0241
  0
LINE
  8
0
 10
1458.77
 20
17.0241
 11
1459.08
 21
17.1799
  0
LINE
  8
0
 10
1459.08
 20
17.1799
 11
1459.39
 21
17.341
  0
LINE
  8
0
 10
1459.39
 20
17.341
 11
1459.7
 21
17.5076
  0
LINE
  8
0
 10
1459.7
 20
17.5076
 11
1460
 21
17.6795
  0
LINE
  8
0
 10
1460
 20
17.6795
 11
1460.3
 21
17.8566
  0
LINE
  8
0
 10
1460.3
 20
17.8566
 11
1460.6
 21
18.039
  0
LINE
  8
0
 10
1460.6
 20
18.039
 11
1460.89
 21
18.2266
  0
LINE
  8
0
 10
1460.89
 20
18.2266
 11
1461.18
 21
18.4192
  0
LINE
  8
0
 10
1461.18
 20
18.4192
 11
1461.47
 21
18.617
  0
LINE
  8
0
 10
1461.47
 20
18.617
 11
1461.76
 21
18.8197
  0
LINE
  8
0
 10
1461.76
 20
18.8197
 11
1462.04
 21
19.0273
  0
LINE
  8
0
 10
1462.04
 20
19.0273
 11
1462.31
 21
19.2398
  0
LINE
  8
0
 10
1462.31
 20
19.2398
 11
1462.59
 21
19.4571
  0
LINE
  8
0
 10
1462.59
 20
19.4571
 11
1462.86
 21
19.6791
  0
LINE
  8
0
 10
1462.86
 20
19.6791
 11
1463.12
 21
19.9058
  0
LINE
  8
0
 10
1463.12
 20
19.9058
 11
1463.38
 21
20.1371
  0
LINE
  8
0
 10
1463.38
 20
20.1371
 11
1463.64
 21
20.3729
  0
LINE
  8
0
 10
1463.64
 20
20.3729
 11
1463.89
 21
20.6132
  0
LINE
  8
0
 10
1463.89
 20
20.6132
 11
1464.14
 21
20.8578
  0
LINE
  8
0
 10
1464.14
 20
20.8578
 11
1464.39
 21
21.1068
  0
LINE
  8
0
 10
1464.39
 20
21.1068
 11
1464.63
 21
21.36
  0
LINE
  8
0
 10
1464.63
 20
21.36
 11
1464.86
 21
21.6174
  0
LINE
  8
0
 10
1464.86
 20
21.6174
 11
1465.09
 21
21.8788
  0
LINE
  8
0
 10
1465.09
 20
21.8788
 11
1465.32
 21
22.1442
  0
LINE
  8
0
 10
1465.32
 20
22.1442
 11
1465.54
 21
22.4136
  0
LINE
  8
0
 10
1465.54
 20
22.4136
 11
1465.76
 21
22.6868
  0
LINE
  8
0
 10
1465.76
 20
22.6868
 11
1465.97
 21
22.9637
  0
LINE
  8
0
 10
1465.97
 20
22.9637
 11
1466.18
 21
23.2443
  0
LINE
  8
0
 10
1466.18
 20
23.2443
 11
1466.38
 21
23.5285
  0
LINE
  8
0
 10
1466.38
 20
23.5285
 11
1466.58
 21
23.8161
  0
LINE
  8
0
 10
1466.58
 20
23.8161
 11
1466.77
 21
24.1072
  0
LINE
  8
0
 10
1466.77
 20
24.1072
 11
1466.96
 21
24.4016
  0
LINE
  8
0
 10
1466.96
 20
24.4016
 11
1467.14
 21
24.6992
  0
LINE
  8
0
 10
1467.14
 20
24.6992
 11
1467.32
 21
25
  0
LINE
  8
0
 10
1467.32
 20
25
 11
1467.49
 21
25.3038
  0
LINE
  8
0
 10
1467.49
 20
25.3038
 11
1467.66
 21
25.6106
  0
LINE
  8
0
 10
1467.66
 20
25.6106
 11
1467.82
 21
25.9202
  0
LINE
  8
0
 10
1467.82
 20
25.9202
 11
1467.98
 21
26.2326
  0
LINE
  8
0
 10
1467.98
 20
26.2326
 11
1468.13
 21
26.5476
  0
LINE
  8
0
 10
1468.13
 20
26.5476
 11
1468.27
 21
26.8653
  0
LINE
  8
0
 10
1468.27
 20
26.8653
 11
1468.41
 21
27.1854
  0
LINE
  8
0
 10
1468.41
 20
27.1854
 11
1468.54
 21
27.5079
  0
LINE
  8
0
 10
1468.54
 20
27.5079
 11
1468.67
 21
27.8326
  0
LINE
  8
0
 10
1468.67
 20
27.8326
 11
1468.79
 21
28.1596
  0
LINE
  8
0
 10
1468.79
 20
28.1596
 11
1468.91
 21
28.4886
  0
LINE
  8
0
 10
1468.91
 20
28.4886
 11
1469.02
 21
28.8197
  0
LINE
  8
0
 10
1469.02
 20
28.8197
 11
1469.13
 21
29.1526
  0
LINE
  8
0
 10
1469.13
 20
29.1526
 11
1469.23
 21
29.4872
  0
LINE
  8
0
 10
1469.23
 20
29.4872
 11
1469.32
 21
29.8236
  0
LINE
  8
0
 10
1469.32
 20
29.8236
 11
1469.41
 21
30.1616
  0
LINE
  8
0
 10
1469.41
 20
30.1616
 11
1469.49
 21
30.501
  0
LINE
  8
0
 10
1469.49
 20
30.501
 11
1469.56
 21
30.8418
  0
LINE
  8
0
 10
1469.56
 20
30.8418
 11
1469.63
 21
31.1838
  0
LINE
  8
0
 10
1469.63
 20
31.1838
 11
1469.7
 21
31.527
  0
LINE
  8
0
 10
1469.7
 20
31.527
 11
1469.75
 21
31.8713
  0
LINE
  8
0
 10
1469.75
 20
31.8713
 11
1469.81
 21
32.2165
  0
LINE
  8
0
 10
1469.81
 20
32.2165
 11
1469.85
 21
32.5626
  0
LINE
  8
0
 10
1469.85
 20
32.5626
 11
1469.89
 21
32.9094
  0
LINE
  8
0
 10
1469.89
 20
32.9094
 11
1469.92
 21
33.2569
  0
LINE
  8
0
 10
1469.92
 20
33.2569
 11
1469.95
 21
33.6049
  0
LINE
  8
0
 10
1469.95
 20
33.6049
 11
1469.97
 21
33.9533
  0
LINE
  8
0
 10
1469.97
 20
33.9533
 11
1469.99
 21
34.302
  0
LINE
  8
0
 10
1469.99
 20
34.302
 11
1470
 21
34.6509
  0
LINE
  8
0
 10
1470
 20
34.6509
 11
1470
 21
35
  0
LINE
  8
0
 10
1470
 20
35
 11
1470
 21
230
  0
LINE
  8
0
 10
1470
 20
230
 11
1470
 21
230.349
  0
LINE
  8
0
 10
1470
 20
230.349
 11
1469.99
 21
230.698
  0
LINE
  8
0
 10
1469.99
 20
230.698
 11
1469.97
 21
231.047
  0
LINE
  8
0
 10
1469.97
 20
231.047
 11
1469.95
 21
231.395
  0
LINE
  8
0
 10
1469.95
 20
231.395
 11
1469.92
 21
231.743
  0
LINE
  8
0
 10
1469.92
 20
231.743
 11
1469.89
 21
232.091
  0
LINE
  8
0
 10
1469.89
 20
232.091
 11
1469.85
 21
232.437
  0
LINE
  8
0
 10
1469.85
 20
232.437
 11
1469.81
 21
232.783
  0
LINE
  8
0
 10
1469.81
 20
232.783
 11
1469.75
 21
233.129
  0
LINE
  8
0
 10
1469.75
 20
233.129
 11
1469.7
 21
233.473
  0
LINE
  8
0
 10
1469.7
 20
233.473
 11
1469.63
 21
233.816
  0
LINE
  8
0
 10
1469.63
 20
233.816
 11
1469.56
 21
234.158
  0
LINE
  8
0
 10
1469.56
 20
234.158
 11
1469.49
 21
234.499
  0
LINE
  8
0
 10
1469.49
 20
234.499
 11
1469.41
 21
234.838
  0
LINE
  8
0
 10
1469.41
 20
234.838
 11
1469.32
 21
235.176
  0
LINE
  8
0
 10
1469.32
 20
235.176
 11
1469.23
 21
235.513
  0
LINE
  8
0
 10
1469.23
 20
235.513
 11
1469.13
 21
235.847
  0
LINE
  8
0
 10
1469.13
 20
235.847
 11
1469.02
 21
236.18
  0
LINE
  8
0
 10
1469.02
 20
236.18
 11
1468.91
 21
236.511
  0
LINE
  8
0
 10
1468.91
 20
236.511
 11
1468.79
 21
236.84
  0
LINE
  8
0
 10
1468.79
 20
236.84
 11
1468.67
 21
237.167
  0
LINE
  8
0
 10
1468.67
 20
237.167
 11
1468.54
 21
237.492
  0
LINE
  8
0
 10
1468.54
 20
237.492
 11
1468.41
 21
237.815
  0
LINE
  8
0
 10
1468.41
 20
237.815
 11
1468.27
 21
238.135
  0
LINE
  8
0
 10
1468.27
 20
238.135
 11
1468.13
 21
238.452
  0
LINE
  8
0
 10
1468.13
 20
238.452
 11
1467.98
 21
238.767
  0
LINE
  8
0
 10
1467.98
 20
238.767
 11
1467.82
 21
239.08
  0
LINE
  8
0
 10
1467.82
 20
239.08
 11
1467.66
 21
239.389
  0
LINE
  8
0
 10
1467.66
 20
239.389
 11
1467.49
 21
239.696
  0
LINE
  8
0
 10
1467.49
 20
239.696
 11
1467.32
 21
240
  0
LINE
  8
0
 10
1467.32
 20
240
 11
1467.14
 21
240.301
  0
LINE
  8
0
 10
1467.14
 20
240.301
 11
1466.96
 21
240.598
  0
LINE
  8
0
 10
1466.96
 20
240.598
 11
1466.77
 21
240.893
  0
LINE
  8
0
 10
1466.77
 20
240.893
 11
1466.58
 21
241.184
  0
LINE
  8
0
 10
1466.58
 20
241.184
 11
1466.38
 21
241.472
  0
LINE
  8
0
 10
1466.38
 20
241.472
 11
1466.18
 21
241.756
  0
LINE
  8
0
 10
1466.18
 20
241.756
 11
1465.97
 21
242.036
  0
LINE
  8
0
 10
1465.97
 20
242.036
 11
1465.76
 21
242.313
  0
LINE
  8
0
 10
1465.76
 20
242.313
 11
1465.54
 21
242.586
  0
LINE
  8
0
 10
1465.54
 20
242.586
 11
1465.32
 21
242.856
  0
LINE
  8
0
 10
1465.32
 20
242.856
 11
1465.09
 21
243.121
  0
LINE
  8
0
 10
1465.09
 20
243.121
 11
1464.86
 21
243.383
  0
LINE
  8
0
 10
1464.86
 20
243.383
 11
1464.63
 21
243.64
  0
LINE
  8
0
 10
1464.63
 20
243.64
 11
1464.39
 21
243.893
  0
LINE
  8
0
 10
1464.39
 20
243.893
 11
1464.14
 21
244.142
  0
LINE
  8
0
 10
1464.14
 20
244.142
 11
1463.89
 21
244.387
  0
LINE
  8
0
 10
1463.89
 20
244.387
 11
1463.64
 21
244.627
  0
LINE
  8
0
 10
1463.64
 20
244.627
 11
1463.38
 21
244.863
  0
LINE
  8
0
 10
1463.38
 20
244.863
 11
1463.12
 21
245.094
  0
LINE
  8
0
 10
1463.12
 20
245.094
 11
1462.86
 21
245.321
  0
LINE
  8
0
 10
1462.86
 20
245.321
 11
1462.59
 21
245.543
  0
LINE
  8
0
 10
1462.59
 20
245.543
 11
1462.31
 21
245.76
  0
LINE
  8
0
 10
1462.31
 20
245.76
 11
1462.04
 21
245.973
  0
LINE
  8
0
 10
1462.04
 20
245.973
 11
1461.76
 21
246.18
  0
LINE
  8
0
 10
1461.76
 20
246.18
 11
1461.47
 21
246.383
  0
LINE
  8
0
 10
1461.47
 20
246.383
 11
1461.18
 21
246.581
  0
LINE
  8
0
 10
1461.18
 20
246.581
 11
1460.89
 21
246.773
  0
LINE
  8
0
 10
1460.89
 20
246.773
 11
1460.6
 21
246.961
  0
LINE
  8
0
 10
1460.6
 20
246.961
 11
1460.3
 21
247.143
  0
LINE
  8
0
 10
1460.3
 20
247.143
 11
1460
 21
247.32
  0
LINE
  8
0
 10
1460
 20
247.32
 11
1459.7
 21
247.492
  0
LINE
  8
0
 10
1459.7
 20
247.492
 11
1459.39
 21
247.659
  0
LINE
  8
0
 10
1459.39
 20
247.659
 11
1459.08
 21
247.82
  0
LINE
  8
0
 10
1459.08
 20
247.82
 11
1458.77
 21
247.976
  0
LINE
  8
0
 10
1458.77
 20
247.976
 11
1458.45
 21
248.126
  0
LINE
  8
0
 10
1458.45
 20
248.126
 11
1458.13
 21
248.271
  0
LINE
  8
0
 10
1458.13
 20
248.271
 11
1457.81
 21
248.41
  0
LINE
  8
0
 10
1457.81
 20
248.41
 11
1457.49
 21
248.544
  0
LINE
  8
0
 10
1457.49
 20
248.544
 11
1457.17
 21
248.672
  0
LINE
  8
0
 10
1457.17
 20
248.672
 11
1456.84
 21
248.794
  0
LINE
  8
0
 10
1456.84
 20
248.794
 11
1456.51
 21
248.91
  0
LINE
  8
0
 10
1456.51
 20
248.91
 11
1456.18
 21
249.021
  0
LINE
  8
0
 10
1456.18
 20
249.021
 11
1455.85
 21
249.126
  0
LINE
  8
0
 10
1455.85
 20
249.126
 11
1455.51
 21
249.225
  0
LINE
  8
0
 10
1455.51
 20
249.225
 11
1455.18
 21
249.319
  0
LINE
  8
0
 10
1455.18
 20
249.319
 11
1454.84
 21
249.406
  0
LINE
  8
0
 10
1454.84
 20
249.406
 11
1454.5
 21
249.487
  0
LINE
  8
0
 10
1454.5
 20
249.487
 11
1454.16
 21
249.563
  0
LINE
  8
0
 10
1454.16
 20
249.563
 11
1453.82
 21
249.633
  0
LINE
  8
0
 10
1453.82
 20
249.633
 11
1453.47
 21
249.696
  0
LINE
  8
0
 10
1453.47
 20
249.696
 11
1453.13
 21
249.754
  0
LINE
  8
0
 10
1453.13
 20
249.754
 11
1452.78
 21
249.805
  0
LINE
  8
0
 10
1452.78
 20
249.805
 11
1452.44
 21
249.851
  0
LINE
  8
0
 10
1452.44
 20
249.851
 11
1452.09
 21
249.89
  0
LINE
  8
0
 10
1452.09
 20
249.89
 11
1451.74
 21
249.924
  0
LINE
  8
0
 10
1451.74
 20
249.924
 11
1451.4
 21
249.951
  0
LINE
  8
0
 10
1451.4
 20
249.951
 11
1451.05
 21
249.973
  0
LINE
  8
0
 10
1451.05
 20
249.973
 11
1450.7
 21
249.988
  0
LINE
  8
0
 10
1450.7
 20
249.988
 11
1450.35
 21
249.997
  0
LINE
  8
0
 10
1450.35
 20
249.997
 11
1450
 21
250
  0
LINE
  8
0
 10
1450
 20
250
 11
1449.65
 21
249.997
  0
LINE
  8
0
 10
1449.65
 20
249.997
 11
1449.3
 21
249.988
  0
LINE
  8
0
 10
1449.3
 20
249.988
 11
1448.95
 21
249.973
  0
LINE
  8
0
 10
1448.95
 20
249.973
 11
1448.6
 21
249.951
  0
LINE
  8
0
 10
1448.6
 20
249.951
 11
1448.26
 21
249.924
  0
LINE
  8
0
 10
1448.26
 20
249.924
 11
1018.26
 21
214.924
  0
LINE
  8
0
 10
1018.26
 20
214.924
 11
1017.91
 21
214.89
  0
LINE
  8
0
 10
1017.91
 20
214.89
 11
1017.56
 21
214.851
  0
LINE
  8
0
 10
1017.56
 20
214.851
 11
1017.22
 21
214.805
  0
LINE
  8
0
 10
1017.22
 20
214.805
 11
1016.87
 21
214.754
  0
LINE
  8
0
 10
1016.87
 20
214.754
 11
1016.53
 21
214.696
  0
LINE
  8
0
 10
1016.53
 20
214.696
 11
1016.18
 21
214.633
  0
LINE
  8
0
 10
1016.18
 20
214.633
 11
1015.84
 21
214.563
  0
LINE
  8
0
 10
1015.84
 20
214.563
 11
1015.5
 21
214.487
  0
LINE
  8
0
 10
1015.5
 20
214.487
 11
1015.16
 21
214.406
  0
LINE
  8
0
 10
1015.16
 20
214.406
 11
1014.82
 21
214.319
  0
LINE
  8
0
 10
1014.82
 20
214.319
 11
1014.49
 21
214.225
  0
LINE
  8
0
 10
1014.49
 20
214.225
 11
1014.15
 21
214.126
  0
LINE
  8
0
 10
1014.15
 20
214.126
 11
1013.82
 21
214.021
  0
LINE
  8
0
 10
1013.82
 20
214.021
 11
1013.49
 21
213.91
  0
LINE
  8
0
 10
1013.49
 20
213.91
 11
1013.16
 21
213.794
  0
LINE
  8
0
 10
1013.16
 20
213.794
 11
1012.83
 21
213.672
  0
LINE
  8
0
 10
1012.83
 20
213.672
 11
1012.51
 21
213.544
  0
LINE
  8
0
 10
1012.51
 20
213.544
 11
1012.19
 21
213.41
  0
LINE
  8
0
 10
1012.19
 20
213.41
 11
1011.87
 21
213.271
  0
LINE
  8
0
 10
1011.87
 20
213.271
 11
1011.55
 21
213.126
  0
LINE
  8
0
 10
1011.55
 20
213.126
 11
1011.23
 21
212.976
  0
LINE
  8
0
 10
1011.23
 20
212.976
 11
1010.92
 21
212.82
  0
LINE
  8
0
 10
1010.92
 20
212.82
 11
1010.61
 21
212.659
  0
LINE
  8
0
 10
1010.61
 20
212.659
 11
1010.3
 21
212.492
  0
LINE
  8
0
 10
1010.3
 20
212.492
 11
1010
 21
212.32
  0
LINE
  8
0
 10
1010
 20
212.32
 11
1009.7
 21
212.143
  0
LINE
  8
0
 10
1009.7
 20
212.143
 11
1009.4
 21
211.961
  0
LINE
  8
0
 10
1009.4
 20
211.961
 11
1009.11
 21
211.773
  0
LINE
  8
0
 10
1009.11
 20
211.773
 11
1008.82
 21
211.581
  0
LINE
  8
0
 10
1008.82
 20
211.581
 11
1008.53
 21
211.383
  0
LINE
  8
0
 10
1008.53
 20
211.383
 11
1008.24
 21
211.18
  0
LINE
  8
0
 10
1008.24
 20
211.18
 11
1007.96
 21
210.973
  0
LINE
  8
0
 10
1007.96
 20
210.973
 11
1007.69
 21
210.76
  0
LINE
  8
0
 10
1007.69
 20
210.76
 11
1007.41
 21
210.543
  0
LINE
  8
0
 10
1007.41
 20
210.543
 11
1007.14
 21
210.321
  0
LINE
  8
0
 10
1007.14
 20
210.321
 11
1006.88
 21
210.094
  0
LINE
  8
0
 10
1006.88
 20
210.094
 11
1006.62
 21
209.863
  0
LINE
  8
0
 10
1006.62
 20
209.863
 11
1006.36
 21
209.627
  0
LINE
  8
0
 10
1006.36
 20
209.627
 11
1006.11
 21
209.387
  0
LINE
  8
0
 10
1006.11
 20
209.387
 11
1005.86
 21
209.142
  0
LINE
  8
0
 10
1005.86
 20
209.142
 11
1005.61
 21
208.893
  0
LINE
  8
0
 10
1005.61
 20
208.893
 11
1005.37
 21
208.64
  0
LINE
  8
0
 10
1005.37
 20
208.64
 11
1005.14
 21
208.383
  0
LINE
  8
0
 10
1005.14
 20
208.383
 11
1004.91
 21
208.121
  0
LINE
  8
0
 10
1004.91
 20
208.121
 11
1004.68
 21
207.856
  0
LINE
  8
0
 10
1004.68
 20
207.856
 11
1004.46
 21
207.586
  0
LINE
  8
0
 10
1004.46
 20
207.586
 11
1004.24
 21
207.313
  0
LINE
  8
0
 10
1004.24
 20
207.313
 11
1004.03
 21
207.036
  0
LINE
  8
0
 10
1004.03
 20
207.036
 11
1003.82
 21
206.756
  0
LINE
  8
0
 10
1003.82
 20
206.756
 11
1003.62
 21
206.472
  0
LINE
  8
0
 10
1003.62
 20
206.472
 11
1003.42
 21
206.184
  0
LINE
  8
0
 10
1003.42
 20
206.184
 11
1003.23
 21
205.893
  0
LINE
  8
0
 10
1003.23
 20
205.893
 11
1003.04
 21
205.598
  0
LINE
  8
0
 10
1003.04
 20
205.598
 11
1002.86
 21
205.301
  0
LINE
  8
0
 10
1002.86
 20
205.301
 11
1002.68
 21
205
  0
LINE
  8
0
 10
1002.68
 20
205
 11
1002.51
 21
204.696
  0
LINE
  8
0
 10
1002.51
 20
204.696
 11
1002.34
 21
204.389
  0
LINE
  8
0
 10
1002.34
 20
204.389
 11
1002.18
 21
204.08
  0
LINE
  8
0
 10
1002.18
 20
204.08
 11
1002.02
 21
203.767
  0
LINE
  8
0
 10
1002.02
 20
203.767
 11
1001.87
 21
203.452
  0
LINE
  8
0
 10
1001.87
 20
203.452
 11
1001.73
 21
203.135
  0
LINE
  8
0
 10
1001.73
 20
203.135
 11
1001.59
 21
202.815
  0
LINE
  8
0
 10
1001.59
 20
202.815
 11
1001.46
 21
202.492
  0
LINE
  8
0
 10
1001.46
 20
202.492
 11
1001.33
 21
202.167
  0
LINE
  8
0
 10
1001.33
 20
202.167
 11
1001.21
 21
201.84
  0
LINE
  8
0
 10
1001.21
 20
201.84
 11
1001.09
 21
201.511
  0
LINE
  8
0
 10
1001.09
 20
201.511
 11
1000.98
 21
201.18
  0
LINE
  8
0
 10
1000.98
 20
201.18
 11
1000.87
 21
200.847
  0
LINE
  8
0
 10
1000.87
 20
200.847
 11
1000.77
 21
200.513
  0
LINE
  8
0
 10
1000.77
 20
200.513
 11
1000.68
 21
200.176
  0
LINE
  8
0
 10
1000.68
 20
200.176
 11
1000.59
 21
199.838
  0
LINE
  8
0
 10
1000.59
 20
199.838
 11
1000.51
 21
199.499
  0
LINE
  8
0
 10
1000.51
 20
199.499
 11
1000.44
 21
199.158
  0
LINE
  8
0
 10
1000.44
 20
199.158
 11
1000.37
 21
198.816
  0
LINE
  8
0
 10
1000.37
 20
198.816
 11
1000.3
 21
198.473
  0
LINE
  8
0
 10
1000.3
 20
198.473
 11
1000.25
 21
198.129
  0
LINE
  8
0
 10
1000.25
 20
198.129
 11
1000.19
 21
197.783
  0
LINE
  8
0
 10
1000.19
 20
197.783
 11
1000.15
 21
197.437
  0
LINE
  8
0
 10
1000.15
 20
197.437
 11
1000.11
 21
197.091
  0
LINE
  8
0
 10
1000.11
 20
197.091
 11
1000.08
 21
196.743
  0
LINE
  8
0
 10
1000.08
 20
196.743
 11
1000.05
 21
196.395
  0
LINE
  8
0
 10
1000.05
 20
196.395
 11
1000.03
 21
196.047
  0
LINE
  8
0
 10
1000.03
 20
196.047
 11
1000.01
 21
195.698
  0
LINE
  8
0
 10
1000.01
 20
195.698
 11
1000
 21
195.349
  0
LINE
  8
0
 10
1000
 20
195.349
 11
1000
 21
195
  0
LINE
  8
0
 10
1000
 20
195
 11
1000
 21
125
  0
LINE
  8
0
 10
1000
 20
125
 11
1027
 21
125
  0
LINE
  8
0
 10
1027
 20
125
 11
1027
 21
88.3333
  0
LINE
  8
0
 10
1027
 20
88.3333
 11
1000
 21
88.3333
  0
LINE
  8
0
 10
1000
 20
88.3333
 11
1000
 21
51.6667
  0
LINE
  8
0
 10
1000
 20
51.6667
 11
1027
 21
51.6667
  0
LINE
  8
0
 10
1027
 20
51.6667
 11
1027
 21
15
  0
LINE
  8
0
 10
1027
 20
15
 11
1235
 21
15
  0
LINE
  8
0
 10
1235
 20
15
 11
1235
 21
70
  0
LINE
  8
0
 10
1725
 20
70
 11
1752
 21
70
  0
LINE
  8
0
 10
1752
 20
70
 11
1752
 21
15
  0
LINE
  8
0
 10
1752
 20
15
 11
1940
 21
15
  0
LINE
  8
0
 10
1940
 20
15
 11
1940.35
 21
15.003
  0
LINE
  8
0
 10
1940.35
 20
15.003
 11
1940.7
 21
15.0122
  0
LINE
  8
0
 10
1940.7
 20
15.0122
 11
1941.05
 21
15.0274
  0
LINE
  8
0
 10
1941.05
 20
15.0274
 11
1941.4
 21
15.0487
  0
LINE
  8
0
 10
1941.4
 20
15.0487
 11
1941.74
 21
15.0761
  0
LINE
  8
0
 10
1941.74
 20
15.0761
 11
1942.09
 21
15.1096
  0
LINE
  8
0
 10
1942.09
 20
15.1096
 11
1942.44
 21
15.1491
  0
LINE
  8
0
 10
1942.44
 20
15.1491
 11
1942.78
 21
15.1946
  0
LINE
  8
0
 10
1942.78
 20
15.1946
 11
1943.13
 21
15.2462
  0
LINE
  8
0
 10
1943.13
 20
15.2462
 11
1943.47
 21
15.3038
  0
LINE
  8
0
 10
1943.47
 20
15.3038
 11
1943.82
 21
15.3674
  0
LINE
  8
0
 10
1943.82
 20
15.3674
 11
1944.16
 21
15.437
  0
LINE
  8
0
 10
1944.16
 20
15.437
 11
1944.5
 21
15.5126
  0
LINE
  8
0
 10
1944.5
 20
15.5126
 11
1944.84
 21
15.5941
  0
LINE
  8
0
 10
1944.84
 20
15.5941
 11
1945.18
 21
15.6815
  0
LINE
  8
0
 10
1945.18
 20
15.6815
 11
1945.51
 21
15.7748
  0
LINE
  8
0
 10
1945.51
 20
15.7748
 11
1945.85
 21
15.8739
  0
LINE
  8
0
 10
1945.85
 20
15.8739
 11
1946.18
 21
15.9789
  0
LINE
  8
0
 10
1946.18
 20
15.9789
 11
1946.51
 21
16.0896
  0
LINE
  8
0
 10
1946.51
 20
16.0896
 11
1946.84
 21
16.2061
  0
LINE
  8
0
 10
1946.84
 20
16.2061
 11
1947.17
 21
16.3284
  0
LINE
  8
0
 10
1947.17
 20
16.3284
 11
1947.49
 21
16.4563
  0
LINE
  8
0
 10
1947.49
 20
16.4563
 11
1947.81
 21
16.5899
  0
LINE
  8
0
 10
1947.81
 20
16.5899
 11
1948.13
 21
16.7291
  0
LINE
  8
0
 10
1948.13
 20
16.7291
 11
1948.45
 21
16.8738
  0
LINE
  8
0
 10
1948.45
 20
16.8738
 11
1948.77
 21
17.0241
  0
LINE
  8
0
 10
1948.77
 20
17.0241
 11
1949.08
 21
17.1799
  0
LINE
  8
0
 10
1949.08
 20
17.1799
 11
1949.39
 21
17.341
  0
LINE
  8
0
 10
1949.39
 20
17.341
 11
1949.7
 21
17.5076
  0
LINE
  8
0
 10
1949.7
 20
17.5076
 11
1950
 21
17.6795
  0
LINE
  8
0
 10
1950
 20
17.6795
 11
1950.3
 21
17.8566
  0
LINE
  8
0
 10
1950.3
 20
17.8566
 11
1950.6
 21
18.039
  0
LINE
  8
0
 10
1950.6
 20
18.039
 11
1950.89
 21
18.2266
  0
LINE
  8
0
 10
1950.89
 20
18.2266
 11
1951.18
 21
18.4192
  0
LINE
  8
0
 10
1951.18
 20
18.4192
 11
1951.47
 21
18.617
  0
LINE
  8
0
 10
1951.47
 20
18.617
 11
1951.76
 21
18.8197
  0
LINE
  8
0
 10
1951.76
 20
18.8197
 11
1952.04
 21
19.0273
  0
LINE
  8
0
 10
1952.04
 20
19.0273
 11
1952.31
 21
19.2398
  0
LINE
  8
0
 10
1952.31
 20
19.2398
 11
1952.59
 21
19.4571
  0
LINE
  8
0
 10
1952.59
 20
19.4571
 11
1952.86
 21
19.6791
  0
LINE
  8
0
 10
1952.86
 20
19.6791
 11
1953.12
 21
19.9058
  0
LINE
  8
0
 10
1953.12
 20
19.9058
 11
1953.38
 21
20.1371
  0
LINE
  8
0
 10
1953.38
 20
20.1371
 11
1953.64
 21
20.3729
  0
LINE
  8
0
 10
1953.64
 20
20.3729
 11
1953.89
 21
20.6132
  0
LINE
  8
0
 10
1953.89
 20
20.6132
 11
1954.14
 21
20.8578
  0
LINE
  8
0
 10
1954.14
 20
20.8578
 11
1954.39
 21
21.1068
  0
LINE
  8
0
 10
1954.39
 20
21.1068
 11
1954.63
 21
21.36
  0
LINE
  8
0
 10
1954.63
 20
21.36
 11
1954.86
 21
21.6174
  0
LINE
  8
0
 10
1954.86
 20
21.6174
 11
1955.09
 21
21.8788
  0
LINE
  8
0
 10
1955.09
 20
21.8788
 11
1955.32
 21
22.1442
  0
LINE
  8
0
 10
1955.32
 20
22.1442
 11
1955.54
 21
22.4136
  0
LINE
  8
0
 10
1955.54
 20
22.4136
 11
1955.76
 21
22.6868
  0
LINE
  8
0
 10
1955.76
 20
22.6868
 11
1955.97
 21
22.9637
  0
LINE
  8
0
 10
1955.97
 20
22.9637
 11
1956.18
 21
23.2443
  0
LINE
  8
0
 10
1956.18
 20
23.2443
 11
1956.38
 21
23.5285
  0
LINE
  8
0
 10
1956.38
 20
23.5285
 11
1956.58
 21
23.8161
  0
LINE
  8
0
 10
1956.58
 20
23.8161
 11
1956.77
 21
24.1072
  0
LINE
  8
0
 10
1956.77
 20
24.1072
 11
1956.96
 21
24.4016
  0
LINE
  8
0
 10
1956.96
 20
24.4016
 11
1957.14
 21
24.6992
  0
LINE
  8
0
 10
1957.14
 20
24.6992
 11
1957.32
 21
25
  0
LINE
  8
0
 10
1957.32
 20
25
 11
1957.49
 21
25.3038
  0
LINE
  8
0
 10
1957.49
 20
25.3038
 11
1957.66
 21
25.6106
  0
LINE
  8
0
 10
1957.66
 20
25.6106
 11
1957.82
 21
25.9202
  0
LINE
  8
0
 10
1957.82
 20
25.9202
 11
1957.98
 21
26.2326
  0
LINE
  8
0
 10
1957.98
 20
26.2326
 11
1958.13
 21
26.5476
  0
LINE
  8
0
 10
1958.13
 20
26.5476
 11
1958.27
 21
26.8653
  0
LINE
  8
0
 10
1958.27
 20
26.8653
 11
1958.41
 21
27.1854
  0
LINE
  8
0
 10
1958.41
 20
27.1854
 11
1958.54
 21
27.5079
  0
LINE
  8
0
 10
1958.54
 20
27.5079
 11
1958.67
 21
27.8326
  0
LINE
  8
0
 10
1958.67
 20
27.8326
 11
1958.79
 21
28.1596
  0
LINE
  8
0
 10
1958.79
 20
28.1596
 11
1958.91
 21
28.4886
  0
LINE
  8
0
 10
1958.91
 20
28.4886
 11
1959.02
 21
28.8197
  0
LINE
  8
0
 10
1959.02
 20
28.8197
 11
1959.13
 21
29.1526
  0
LINE
  8
0
 10
1959.13
 20
29.1526
 11
1959.23
 21
29.4872
  0
LINE
  8
0
 10
1959.23
 20
29.4872
 11
1959.32
 21
29.8236
  0
LINE
  8
0
 10
1959.32
 20
29.8236
 11
1959.41
 21
30.1616
  0
LINE
  8
0
 10
1959.41
 20
30.1616
 11
1959.49
 21
30.501
  0
LINE
  8
0
 10
1959.49
 20
30.501
 11
1959.56
 21
30.8418
  0
LINE
  8
0
 10
1959.56
 20
30.8418
 11
1959.63
 21
31.1838
  0
LINE
  8
0
 10
1959.63
 20
31.1838
 11
1959.7
 21
31.527
  0
LINE
  8
0
 10
1959.7
 20
31.527
 11
1959.75
 21
31.8713
  0
LINE
  8
0
 10
1959.75
 20
31.8713
 11
1959.81
 21
32.2165
  0
LINE
  8
0
 10
1959.81
 20
32.2165
 11
1959.85
 21
32.5626
  0
LINE
  8
0
 10
1959.85
 20
32.5626
 11
1959.89
 21
32.9094
  0
LINE
  8
0
 10
1959.89
 20
32.9094
 11
1959.92
 21
33.2569
  0
LINE
  8
0
 10
1959.92
 20
33.2569
 11
1959.95
 21
33.6049
  0
LINE
  8
0
 10
1959.95
 20
33.6049
 11
1959.97
 21
33.9533
  0
LINE
  8
0
 10
1959.97
 20
33.9533
 11
1959.99
 21
34.302
  0
LINE
  8
0
 10
1959.99
 20
34.302
 11
1960
 21
34.6509
  0
LINE
  8
0
 10
1960
 20
34.6509
 11
1960
 21
35
  0
LINE
  8
0
 10
1960
 20
35
 11
1960
 21
230
  0
LINE
  8
0
 10
1960
 20
230
 11
1960
 21
230.349
  0
LINE
  8
0
 10
1960
 20
230.349
 11
1959.99
 21
230.698
  0
LINE
  8
0
 10
1959.99
 20
230.698
 11
1959.97
 21
231.047
  0
LINE
  8
0
 10
1959.97
 20
231.047
 11
1959.95
 21
231.395
  0
LINE
  8
0
 10
1959.95
 20
231.395
 11
1959.92
 21
231.743
  0
LINE
  8
0
 10
1959.92
 20
231.743
 11
1959.89
 21
232.091
  0
LINE
  8
0
 10
1959.89
 20
232.091
 11
1959.85
 21
232.437
  0
LINE
  8
0
 10
1959.85
 20
232.437
 11
1959.81
 21
232.783
  0
LINE
  8
0
 10
1959.81
 20
232.783
 11
1959.75
 21
233.129
  0
LINE
  8
0
 10
1959.75
 20
233.129
 11
1959.7
 21
233.473
  0
LINE
  8
0
 10
1959.7
 20
233.473
 11
1959.63
 21
233.816
  0
LINE
  8
0
 10
1959.63
 20
233.816
 11
1959.56
 21
234.158
  0
LINE
  8
0
 10
1959.56
 20
234.158
 11
1959.49
 21
234.499
  0
LINE
  8
0
 10
1959.49
 20
234.499
 11
1959.41
 21
234.838
  0
LINE
  8
0
 10
1959.41
 20
234.838
 11
1959.32
 21
235.176
  0
LINE
  8
0
 10
1959.32
 20
235.176
 11
1959.23
 21
235.513
  0
LINE
  8
0
 10
1959.23
 20
235.513
 11
1959.13
 21
235.847
  0
LINE
  8
0
 10
1959.13
 20
235.847
 11
1959.02
 21
236.18
  0
LINE
  8
0
 10
1959.02
 20
236.18
 11
1958.91
 21
236.511
  0
LINE
  8
0
 10
1958.91
 20
236.511
 11
1958.79
 21
236.84
  0
LINE
  8
0
 10
1958.79
 20
236.84
 11
1958.67
 21
237.167
  0
LINE
  8
0
 10
1958.67
 20
237.167
 11
1958.54
 21
237.492
  0
LINE
  8
0
 10
1958.54
 20
237.492
 11
1958.41
 21
237.815
  0
LINE
  8
0
 10
1958.41
 20
237.815
 11
1958.27
 21
238.135
  0
LINE
  8
0
 10
1958.27
 20
238.135
 11
1958.13
 21
238.452
  0
LINE
  8
0
 10
1958.13
 20
238.452
 11
1957.98
 21
238.767
  0
LINE
  8
0
 10
1957.98
 20
238.767
 11
1957.82
 21
239.08
  0
LINE
  8
0
 10
1957.82
 20
239.08
 11
1957.66
 21
239.389
  0
LINE
  8
0
 10
1957.66
 20
239.389
 11
1957.49
 21
239.696
  0
LINE
  8
0
 10
1957.49
 20
239.696
 11
1957.32
 21
240
  0
LINE
  8
0
 10
1957.32
 20
240
 11
1957.14
 21
240.301
  0
LINE
  8
0
 10
1957.14
 20
240.301
 11
1956.96
 21
240.598
  0
LINE
  8
0
 10
1956.96
 20
240.598
 11
1956.77
 21
240.893
  0
LINE
  8
0
 10
1956.77
 20
240.893
 11
1956.58
 21
241.184
  0
LINE
  8
0
 10
1956.58
 20
241.184
 11
1956.38
 21
241.472
  0
LINE
  8
0
 10
1956.38
 20
241.472
 11
1956.18
 21
241.756
  0
LINE
  8
0
 10
1956.18
 20
241.756
 11
1955.97
 21
242.036
  0
LINE
  8
0
 10
1955.97
 20
242.036
 11
1955.76
 21
242.313
  0
LINE
  8
0
 10
1955.76
 20
242.313
 11
1955.54
 21
242.586
  0
LINE
  8
0
 10
1955.54
 20
242.586
 11
1955.32
 21
242.856
  0
LINE
  8
0
 10
1955.32
 20
242.856
 11
1955.09
 21
243.121
  0
LINE
  8
0
 10
1955.09
 20
243.121
 11
1954.86
 21
243.383
  0
LINE
  8
0
 10
1954.86
 20
243.383
 11
1954.63
 21
243.64
  0
LINE
  8
0
 10
1954.63
 20
243.64
 11
1954.39
 21
243.893
  0
LINE
  8
0
 10
1954.39
 20
243.893
 11
1954.14
 21
244.142
  0
LINE
  8
0
 10
1954.14
 20
244.142
 11
1953.89
 21
244.387
  0
LINE
  8
0
 10
1953.89
 20
244.387
 11
1953.64
 21
244.627
  0
LINE
  8
0
 10
1953.64
 20
244.627
 11
1953.38
 21
244.863
  0
LINE
  8
0
 10
1953.38
 20
244.863
 11
1953.12
 21
245.094
  0
LINE
  8
0
 10
1953.12
 20
245.094
 11
1952.86
 21
245.321
  0
LINE
  8
0
 10
1952.86
 20
245.321
 11
1952.59
 21
245.543
  0
LINE
  8
0
 10
1952.59
 20
245.543
 11
1952.31
 21
245.76
  0
LINE
  8
0
 10
1952.31
 20
245.76
 11
1952.04
 21
245.973
  0
LINE
  8
0
 10
1952.04
 20
245.973
 11
1951.76
 21
246.18
  0
LINE
  8
0
 10
1951.76
 20
246.18
 11
1951.47
 21
246.383
  0
LINE
  8
0
 10
1951.47
 20
246.383
 11
1951.18
 21
246.581
  0
LINE
  8
0
 10
1951.18
 20
246.581
 11
1950.89
 21
246.773
  0
LINE
  8
0
 10
1950.89
 20
246.773
 11
1950.6
 21
246.961
  0
LINE
  8
0
 10
1950.6
 20
246.961
 11
1950.3
 21
247.143
  0
LINE
  8
0
 10
1950.3
 20
247.143
 11
1950
 21
247.32
  0
LINE
  8
0
 10
1950
 20
247.32
 11
1949.7
 21
247.492
  0
LINE
  8
0
 10
1949.7
 20
247.492
 11
1949.39
 21
247.659
  0
LINE
  8
0
 10
1949.39
 20
247.659
 11
1949.08
 21
247.82
  0
LINE
  8
0
 10
1949.08
 20
247.82
 11
1948.77
 21
247.976
  0
LINE
  8
0
 10
1948.77
 20
247.976
 11
1948.45
 21
248.126
  0
LINE
  8
0
 10
1948.45
 20
248.126
 11
1948.13
 21
248.271
  0
LINE
  8
0
 10
1948.13
 20
248.271
 11
1947.81
 21
248.41
  0
LINE
  8
0
 10
1947.81
 20
248.41
 11
1947.49
 21
248.544
  0
LINE
  8
0
 10
1947.49
 20
248.544
 11
1947.17
 21
248.672
  0
LINE
  8
0
 10
1947.17
 20
248.672
 11
1946.84
 21
248.794
  0
LINE
  8
0
 10
1946.84
 20
248.794
 11
1946.51
 21
248.91
  0
LINE
  8
0
 10
1946.51
 20
248.91
 11
1946.18
 21
249.021
  0
LINE
  8
0
 10
1946.18
 20
249.021
 11
1945.85
 21
249.126
  0
LINE
  8
0
 10
1945.85
 20
249.126
 11
1945.51
 21
249.225
  0
LINE
  8
0
 10
1945.51
 20
249.225
 11
1945.18
 21
249.319
  0
LINE
  8
0
 10
1945.18
 20
249.319
 11
1944.84
 21
249.406
  0
LINE
  8
0
 10
1944.84
 20
249.406
 11
1944.5
 21
249.487
  0
LINE
  8
0
 10
1944.5
 20
249.487
 11
1944.16
 21
249.563
  0
LINE
  8
0
 10
1944.16
 20
249.563
 11
1943.82
 21
249.633
  0
LINE
  8
0
 10
1943.82
 20
249.633
 11
1943.47
 21
249.696
  0
LINE
  8
0
 10
1943.47
 20
249.696
 11
1943.13
 21
249.754
  0
LINE
  8
0
 10
1943.13
 20
249.754
 11
1942.78
 21
249.805
  0
LINE
  8
0
 10
1942.78
 20
249.805
 11
1942.44
 21
249.851
  0
LINE
  8
0
 10
1942.44
 20
249.851
 11
1942.09
 21
249.89
  0
LINE
  8
0
 10
1942.09
 20
249.89
 11
1941.74
 21
249.924
  0
LINE
  8
0
 10
1941.74
 20
249.924
 11
1941.4
 21
249.951
  0
LINE
  8
0
 10
1941.4
 20
249.951
 11
1941.05
 21
249.973
  0
LINE
  8
0
 10
1941.05
 20
249.973
 11
1940.7
 21
249.988
  0
LINE
  8
0
 10
1940.7
 20
249.988
 11
1940.35
 21
249.997
  0
LINE
  8
0
 10
1940.35
 20
249.997
 11
1940
 21
250
  0
LINE
  8
0
 10
1940
 20
250
 11
1939.65
 21
249.997
  0
LINE
  8
0
 10
1939.65
 20
249.997
 11
1939.3
 21
249.988
  0
LINE
  8
0
 10
1939.3
 20
249.988
 11
1938.95
 21
249.973
  0
LINE
  8
0
 10
1938.95
 20
249.973
 11
1938.6
 21
249.951
  0
LINE
  8
0
 10
1938.6
 20
249.951
 11
1938.26
 21
249.924
  0
LINE
  8
0
 10
1938.26
 20
249.924
 11
1508.26
 21
214.924
  0
LINE
  8
0
 10
1508.26
 20
214.924
 11
1507.91
 21
214.89
  0
LINE
  8
0
 10
1507.91
 20
214.89
 11
1507.56
 21
214.851
  0
LINE
  8
0
 10
1507.56
 20
214.851
 11
1507.22
 21
214.805
  0
LINE
  8
0
 10
1507.22
 20
214.805
 11
1506.87
 21
214.754
  0
LINE
  8
0
 10
1506.87
 20
214.754
 11
1506.53
 21
214.696
  0
LINE
  8
0
 10
1506.53
 20
214.696
 11
1506.18
 21
214.633
  0
LINE
  8
0
 10
1506.18
 20
214.633
 11
1505.84
 21
214.563
  0
LINE
  8
0
 10
1505.84
 20
214.563
 11
1505.5
 21
214.487
  0
LINE
  8
0
 10
1505.5
 20
214.487
 11
1505.16
 21
214.406
  0
LINE
  8
0
 10
1505.16
 20
214.406
 11
1504.82
 21
214.319
  0
LINE
  8
0
 10
1504.82
 20
214.319
 11
1504.49
 21
214.225
  0
LINE
  8
0
 10
1504.49
 20
214.225
 11
1504.15
 21
214.126
  0
LINE
  8
0
 10
1504.15
 20
214.126
 11
1503.82
 21
214.021
  0
LINE
  8
0
 10
1503.82
 20
214.021
 11
1503.49
 21
213.91
  0
LINE
  8
0
 10
1503.49
 20
213.91
 11
1503.16
 21
213.794
  0
LINE
  8
0
 10
1503.16
 20
213.794
 11
1502.83
 21
213.672
  0
LINE
  8
0
 10
1502.83
 20
213.672
 11
1502.51
 21
213.544
  0
LINE
  8
0
 10
1502.51
 20
213.544
 11
1502.19
 21
213.41
  0
LINE
  8
0
 10
1502.19
 20
213.41
 11
1501.87
 21
213.271
  0
LINE
  8
0
 10
1501.87
 20
213.271
 11
1501.55
 21
213.126
  0
LINE
  8
0
 10
1501.55
 20
213.126
 11
1501.23
 21
212.976
  0
LINE
  8
0
 10
1501.23
 20
212.976
 11
1500.92
 21
212.82
  0
LINE
  8
0
 10
1500.92
 20
212.82
 11
1500.61
 21
212.659
  0
LINE
  8
0
 10
1500.61
 20
212.659
 11
1500.3
 21
212.492
  0
LINE
  8
0
 10
1500.3
 20
212.492
 11
1500
 21
212.32
  0
LINE
  8
0
 10
1500
 20
212.32
 11
1499.7
 21
212.143
  0
LINE
  8
0
 10
1499.7
 20
212.143
 11
1499.4
 21
211.961
  0
LINE
  8
0
 10
1499.4
 20
211.961
 11
1499.11
 21
211.773
  0
LINE
  8
0
 10
1499.11
 20
211.773
 11
1498.82
 21
211.581
  0
LINE
  8
0
 10
1498.82
 20
211.581
 11
1498.53
 21
211.383
  0
LINE
  8
0
 10
1498.53
 20
211.383
 11
1498.24
 21
211.18
  0
LINE
  8
0
 10
1498.24
 20
211.18
 11
1497.96
 21
210.973
  0
LINE
  8
0
 10
1497.96
 20
210.973
 11
1497.69
 21
210.76
  0
LINE
  8
0
 10
1497.69
 20
210.76
 11
1497.41
 21
210.543
  0
LINE
  8
0
 10
1497.41
 20
210.543
 11
1497.14
 21
210.321
  0
LINE
  8
0
 10
1497.14
 20
210.321
 11
1496.88
 21
210.094
  0
LINE
  8
0
 10
1496.88
 20
210.094
 11
1496.62
 21
209.863
  0
LINE
  8
0
 10
1496.62
 20
209.863
 11
1496.36
 21
209.627
  0
LINE
  8
0
 10
1496.36
 20
209.627
 11
1496.11
 21
209.387
  0
LINE
  8
0
 10
1496.11
 20
209.387
 11
1495.86
 21
209.142
  0
LINE
  8
0
 10
1495.86
 20
209.142
 11
1495.61
 21
208.893
  0
LINE
  8
0
 10
1495.61
 20
208.893
 11
1495.37
 21
208.64
  0
LINE
  8
0
 10
1495.37
 20
208.64
 11
1495.14
 21
208.383
  0
LINE
  8
0
 10
1495.14
 20
208.383
 11
1494.91
 21
208.121
  0
LINE
  8
0
 10
1494.91
 20
208.121
 11
1494.68
 21
207.856
  0
LINE
  8
0
 10
1494.68
 20
207.856
 11
1494.46
 21
207.586
  0
LINE
  8
0
 10
1494.46
 20
207.586
 11
1494.24
 21
207.313
  0
LINE
  8
0
 10
1494.24
 20
207.313
 11
1494.03
 21
207.036
  0
LINE
  8
0
 10
1494.03
 20
207.036
 11
1493.82
 21
206.756
  0
LINE
  8
0
 10
1493.82
 20
206.756
 11
1493.62
 21
206.472
  0
LINE
  8
0
 10
1493.62
 20
206.472
 11
1493.42
 21
206.184
  0
LINE
  8
0
 10
1493.42
 20
206.184
 11
1493.23
 21
205.893
  0
LINE
  8
0
 10
1493.23
 20
205.893
 11
1493.04
 21
205.598
  0
LINE
  8
0
 10
1493.04
 20
205.598
 11
1492.86
 21
205.301
  0
LINE
  8
0
 10
1492.86
 20
205.301
 11
1492.68
 21
205
  0
LINE
  8
0
 10
1492.68
 20
205
 11
1492.51
 21
204.696
  0
LINE
  8
0
 10
1492.51
 20
204.696
 11
1492.34
 21
204.389
  0
LINE
  8
0
 10
1492.34
 20
204.389
 11
1492.18
 21
204.08
  0
LINE
  8
0
 10
1492.18
 20
204.08
 11
1492.02
 21
203.767
  0
LINE
  8
0
 10
1492.02
 20
203.767
 11
1491.87
 21
203.452
  0
LINE
  8
0
 10
1491.87
 20
203.452
 11
1491.73
 21
203.135
  0
LINE
  8
0
 10
1491.73
 20
203.135
 11
1491.59
 21
202.815
  0
LINE
  8
0
 10
1491.59
 20
202.815
 11
1491.46
 21
202.492
  0
LINE
  8
0
 10
1491.46
 20
202.492
 11
1491.33
 21
202.167
  0
LINE
  8
0
 10
1491.33
 20
202.167
 11
1491.21
 21
201.84
  0
LINE
  8
0
 10
1491.21
 20
201.84
 11
1491.09
 21
201.511
  0
LINE
  8
0
 10
1491.09
 20
201.511
 11
1490.98
 21
201.18
  0
LINE
  8
0
 10
1490.98
 20
201.18
 11
1490.87
 21
200.847
  0
LINE
  8
0
 10
1490.87
 20
200.847
 11
1490.77
 21
200.513
  0
LINE
  8
0
 10
1490.77
 20
200.513
 11
1490.68
 21
200.176
  0
LINE
  8
0
 10
1490.68
 20
200.176
 11
1490.59
 21
199.838
  0
LINE
  8
0
 10
1490.59
 20
199.838
 11
1490.51
 21
199.499
  0
LINE
  8
0
 10
1490.51
 20
199.499
 11
1490.44
 21
199.158
  0
LINE
  8
0
 10
1490.44
 20
199.158
 11
1490.37
 21
198.816
  0
LINE
  8
0
 10
1490.37
 20
198.816
 11
1490.3
 21
198.473
  0
LINE
  8
0
 10
1490.3
 20
198.473
 11
1490.25
 21
198.129
  0
LINE
  8
0
 10
1490.25
 20
198.129
 11
1490.19
 21
197.783
  0
LINE
  8
0
 10
1490.19
 20
197.783
 11
1490.15
 21
197.437
  0
LINE
  8
0
 10
1490.15
 20
197.437
 11
1490.11
 21
197.091
  0
LINE
  8
0
 10
1490.11
 20
197.091
 11
1490.08
 21
196.743
  0
LINE
  8
0
 10
1490.08
 20
196.743
 11
1490.05
 21
196.395
  0
LINE
  8
0
 10
1490.05
 20
196.395
 11
1490.03
 21
196.047
  0
LINE
  8
0
 10
1490.03
 20
196.047
 11
1490.01
 21
195.698
  0
LINE
  8
0
 10
1490.01
 20
195.698
 11
1490
 21
195.349
  0
LINE
  8
0
 10
1490
 20
195.349
 11
1490
 21
195
  0
LINE
  8
0
 10
1490
 20
195
 11
1490
 21
125
  0
LINE
  8
0
 10
1490
 20
125
 11
1517
 21
125
  0
LINE
  8
0
 10
1517
 20
125
 11
1517
 21
88.3333
  0
LINE
  8
0
 10
1517
 20
88.3333
 11
1490
 21
88.3333
  0
LINE
  8
0
 10
1490
 20
88.3333
 11
1490
 21
51.6667
  0
LINE
  8
0
 10
1490
 20
51.6667
 11
1517
 21
51.6667
  0
LINE
  8
0
 10
1517
 20
51.6667
 11
1517
 21
15
  0
LINE
  8
0
 10
1517
 20
15
 11
1725
 21
15
  0
LINE
  8
0
 10
1725
 20
15
 11
1725
 21
70
  0
ENDSEC
  0
SECTION
  2
OBJECTS
  0
DICTIONARY
  0
ENDSEC
  0
EOF
