  0
SECTION
  2
BLOCKS
  0
ENDSEC
  0
SECTION
  2
ENTITIES
  0
LINE
  8
0
 10
90.7682
 20
0.0759583
 11
91.6101
 21
0.301529
  0
LINE
  8
0
 10
91.6101
 20
0.301529
 11
92.4
 21
0.669861
  0
LINE
  8
0
 10
92.4
 20
0.669861
 11
93.1139
 21
1.16977
  0
LINE
  8
0
 10
93.1139
 20
1.16977
 11
93.7302
 21
1.78606
  0
LINE
  8
0
 10
93.7302
 20
1.78606
 11
94.2301
 21
2.5
  0
LINE
  8
0
 10
94.2301
 20
2.5
 11
94.5985
 21
3.28989
  0
LINE
  8
0
 10
94.5985
 20
3.28989
 11
94.824
 21
4.13174
  0
LINE
  8
0
 10
94.824
 20
4.13174
 11
94.9
 21
5
  0
LINE
  8
0
 10
94.9
 20
5
 11
94.9
 21
89.9
  0
LINE
  8
0
 10
94.9
 20
89.9
 11
94.824
 21
90.7682
  0
LINE
  8
0
 10
94.824
 20
90.7682
 11
94.5985
 21
91.6101
  0
LINE
  8
0
 10
94.5985
 20
91.6101
 11
94.2301
 21
92.4
  0
LINE
  8
0
 10
94.2301
 20
92.4
 11
93.7302
 21
93.1139
  0
LINE
  8
0
 10
93.7302
 20
93.1139
 11
93.1139
 21
93.7302
  0
LINE
  8
0
 10
93.1139
 20
93.7302
 11
92.4
 21
94.2301
  0
LINE
  8
0
 10
92.4
 20
94.2301
 11
91.6101
 21
94.5985
  0
LINE
  8
0
 10
91.6101
 20
94.5985
 11
90.7682
 21
94.824
  0
LINE
  8
0
 10
90.7682
 20
94.824
 11
89.9
 21
94.9
  0
LINE
  8
0
 10
89.9
 20
94.9
 11
5
 21
94.9
  0
LINE
  8
0
 10
5
 20
94.9
 11
4.13174
 21
94.824
  0
LINE
  8
0
 10
4.13174
 20
94.824
 11
3.28989
 21
94.5985
  0
LINE
  8
0
 10
3.28989
 20
94.5985
 11
2.5
 21
94.2301
  0
LINE
  8
0
 10
2.5
 20
94.2301
 11
1.78606
 21
93.7302
  0
LINE
  8
0
 10
1.78606
 20
93.7302
 11
1.16977
 21
93.1139
  0
LINE
  8
0
 10
1.16977
 20
93.1139
 11
0.669861
 21
92.4
  0
LINE
  8
0
 10
0.669861
 20
92.4
 11
0.301529
 21
91.6101
  0
LINE
  8
0
 10
0.301529
 20
91.6101
 11
0.0759583
 21
90.7682
  0
LINE
  8
0
 10
0.0759583
 20
90.7682
 11
0
 21
89.9
  0
LINE
  8
0
 10
0
 20
89.9
 11
0
 21
5
  0
LINE
  8
0
 10
0
 20
5
 11
0.0759583
 21
4.13174
  0
LINE
  8
0
 10
0.0759583
 20
4.13174
 11
0.301529
 21
3.28989
  0
LINE
  8
0
 10
0.301529
 20
3.28989
 11
0.669861
 21
2.5
  0
LINE
  8
0
 10
0.669861
 20
2.5
 11
1.16977
 21
1.78606
  0
LINE
  8
0
 10
1.16977
 20
1.78606
 11
1.78606
 21
1.16977
  0
LINE
  8
0
 10
1.78606
 20
1.16977
 11
2.5
 21
0.669861
  0
LINE
  8
0
 10
2.5
 20
0.669861
 11
3.28989
 21
0.301529
  0
LINE
  8
0
 10
3.28989
 20
0.301529
 11
4.13174
 21
0.0759583
  0
LINE
  8
0
 10
4.13174
 20
0.0759583
 11
5
 21
0
  0
LINE
  8
0
 10
5
 20
0
 11
89.9
 21
0
  0
LINE
  8
0
 10
89.9
 20
0
 11
90.7682
 21
0.0759583
  0
LINE
  8
0
 10
80.7764
 20
88.9152
 11
80.608
 21
88.9603
  0
LINE
  8
0
 10
80.608
 20
88.9603
 11
80.45
 21
89.034
  0
LINE
  8
0
 10
80.45
 20
89.034
 11
80.3072
 21
89.134
  0
LINE
  8
0
 10
80.3072
 20
89.134
 11
80.1839
 21
89.2572
  0
LINE
  8
0
 10
80.1839
 20
89.2572
 11
80.084
 21
89.4
  0
LINE
  8
0
 10
80.084
 20
89.4
 11
80.0103
 21
89.558
  0
LINE
  8
0
 10
80.0103
 20
89.558
 11
79.9652
 21
89.7263
  0
LINE
  8
0
 10
79.9652
 20
89.7263
 11
79.95
 21
89.9
  0
LINE
  8
0
 10
79.95
 20
89.9
 11
79.9652
 21
90.0736
  0
LINE
  8
0
 10
79.9652
 20
90.0736
 11
80.0103
 21
90.242
  0
LINE
  8
0
 10
80.0103
 20
90.242
 11
80.084
 21
90.4
  0
LINE
  8
0
 10
80.084
 20
90.4
 11
80.1839
 21
90.5428
  0
LINE
  8
0
 10
80.1839
 20
90.5428
 11
80.3072
 21
90.666
  0
LINE
  8
0
 10
80.3072
 20
90.666
 11
80.45
 21
90.766
  0
LINE
  8
0
 10
80.45
 20
90.766
 11
80.608
 21
90.8397
  0
LINE
  8
0
 10
80.608
 20
90.8397
 11
80.7764
 21
90.8848
  0
LINE
  8
0
 10
80.7764
 20
90.8848
 11
80.95
 21
90.9
  0
LINE
  8
0
 10
80.95
 20
90.9
 11
81.1236
 21
90.8848
  0
LINE
  8
0
 10
81.1236
 20
90.8848
 11
81.292
 21
90.8397
  0
LINE
  8
0
 10
81.292
 20
90.8397
 11
81.45
 21
90.766
  0
LINE
  8
0
 10
81.45
 20
90.766
 11
81.5928
 21
90.666
  0
LINE
  8
0
 10
81.5928
 20
90.666
 11
81.716
 21
90.5428
  0
LINE
  8
0
 10
81.716
 20
90.5428
 11
81.816
 21
90.4
  0
LINE
  8
0
 10
81.816
 20
90.4
 11
81.8897
 21
90.242
  0
LINE
  8
0
 10
81.8897
 20
90.242
 11
81.9348
 21
90.0736
  0
LINE
  8
0
 10
81.9348
 20
90.0736
 11
81.95
 21
89.9
  0
LINE
  8
0
 10
81.95
 20
89.9
 11
81.9348
 21
89.7263
  0
LINE
  8
0
 10
81.9348
 20
89.7263
 11
81.8897
 21
89.558
  0
LINE
  8
0
 10
81.8897
 20
89.558
 11
81.816
 21
89.4
  0
LINE
  8
0
 10
81.816
 20
89.4
 11
81.716
 21
89.2572
  0
LINE
  8
0
 10
81.716
 20
89.2572
 11
81.5928
 21
89.134
  0
LINE
  8
0
 10
81.5928
 20
89.134
 11
81.45
 21
89.034
  0
LINE
  8
0
 10
81.45
 20
89.034
 11
81.292
 21
88.9603
  0
LINE
  8
0
 10
81.292
 20
88.9603
 11
81.1236
 21
88.9152
  0
LINE
  8
0
 10
81.1236
 20
88.9152
 11
80.95
 21
88.9
  0
LINE
  8
0
 10
80.95
 20
88.9
 11
80.7764
 21
88.9152
  0
LINE
  8
0
 10
13.7763
 20
88.9152
 11
13.608
 21
88.9603
  0
LINE
  8
0
 10
13.608
 20
88.9603
 11
13.45
 21
89.034
  0
LINE
  8
0
 10
13.45
 20
89.034
 11
13.3072
 21
89.134
  0
LINE
  8
0
 10
13.3072
 20
89.134
 11
13.1839
 21
89.2572
  0
LINE
  8
0
 10
13.1839
 20
89.2572
 11
13.084
 21
89.4
  0
LINE
  8
0
 10
13.084
 20
89.4
 11
13.0103
 21
89.558
  0
LINE
  8
0
 10
13.0103
 20
89.558
 11
12.9652
 21
89.7263
  0
LINE
  8
0
 10
12.9652
 20
89.7263
 11
12.95
 21
89.9
  0
LINE
  8
0
 10
12.95
 20
89.9
 11
12.9652
 21
90.0736
  0
LINE
  8
0
 10
12.9652
 20
90.0736
 11
13.0103
 21
90.242
  0
LINE
  8
0
 10
13.0103
 20
90.242
 11
13.084
 21
90.4
  0
LINE
  8
0
 10
13.084
 20
90.4
 11
13.1839
 21
90.5428
  0
LINE
  8
0
 10
13.1839
 20
90.5428
 11
13.3072
 21
90.666
  0
LINE
  8
0
 10
13.3072
 20
90.666
 11
13.45
 21
90.766
  0
LINE
  8
0
 10
13.45
 20
90.766
 11
13.608
 21
90.8397
  0
LINE
  8
0
 10
13.608
 20
90.8397
 11
13.7763
 21
90.8848
  0
LINE
  8
0
 10
13.7763
 20
90.8848
 11
13.95
 21
90.9
  0
LINE
  8
0
 10
13.95
 20
90.9
 11
14.1236
 21
90.8848
  0
LINE
  8
0
 10
14.1236
 20
90.8848
 11
14.292
 21
90.8397
  0
LINE
  8
0
 10
14.292
 20
90.8397
 11
14.45
 21
90.766
  0
LINE
  8
0
 10
14.45
 20
90.766
 11
14.5928
 21
90.666
  0
LINE
  8
0
 10
14.5928
 20
90.666
 11
14.716
 21
90.5428
  0
LINE
  8
0
 10
14.716
 20
90.5428
 11
14.816
 21
90.4
  0
LINE
  8
0
 10
14.816
 20
90.4
 11
14.8897
 21
90.242
  0
LINE
  8
0
 10
14.8897
 20
90.242
 11
14.9348
 21
90.0736
  0
LINE
  8
0
 10
14.9348
 20
90.0736
 11
14.95
 21
89.9
  0
LINE
  8
0
 10
14.95
 20
89.9
 11
14.9348
 21
89.7263
  0
LINE
  8
0
 10
14.9348
 20
89.7263
 11
14.8897
 21
89.558
  0
LINE
  8
0
 10
14.8897
 20
89.558
 11
14.816
 21
89.4
  0
LINE
  8
0
 10
14.816
 20
89.4
 11
14.716
 21
89.2572
  0
LINE
  8
0
 10
14.716
 20
89.2572
 11
14.5928
 21
89.134
  0
LINE
  8
0
 10
14.5928
 20
89.134
 11
14.45
 21
89.034
  0
LINE
  8
0
 10
14.45
 20
89.034
 11
14.292
 21
88.9603
  0
LINE
  8
0
 10
14.292
 20
88.9603
 11
14.1236
 21
88.9152
  0
LINE
  8
0
 10
14.1236
 20
88.9152
 11
13.95
 21
88.9
  0
LINE
  8
0
 10
13.95
 20
88.9
 11
13.7763
 21
88.9152
  0
LINE
  8
0
 10
60.335
 20
83.5644
 11
60.1751
 21
83.6073
  0
LINE
  8
0
 10
60.1751
 20
83.6073
 11
60.025
 21
83.6773
  0
LINE
  8
0
 10
60.025
 20
83.6773
 11
59.8893
 21
83.7722
  0
LINE
  8
0
 10
59.8893
 20
83.7722
 11
59.7722
 21
83.8893
  0
LINE
  8
0
 10
59.7722
 20
83.8893
 11
59.6773
 21
84.025
  0
LINE
  8
0
 10
59.6773
 20
84.025
 11
59.6073
 21
84.1751
  0
LINE
  8
0
 10
59.6073
 20
84.1751
 11
59.5644
 21
84.335
  0
LINE
  8
0
 10
59.5644
 20
84.335
 11
59.55
 21
84.5
  0
LINE
  8
0
 10
59.55
 20
84.5
 11
59.5644
 21
84.665
  0
LINE
  8
0
 10
59.5644
 20
84.665
 11
59.6073
 21
84.8249
  0
LINE
  8
0
 10
59.6073
 20
84.8249
 11
59.6773
 21
84.975
  0
LINE
  8
0
 10
59.6773
 20
84.975
 11
59.7722
 21
85.1106
  0
LINE
  8
0
 10
59.7722
 20
85.1106
 11
59.8893
 21
85.2277
  0
LINE
  8
0
 10
59.8893
 20
85.2277
 11
60.025
 21
85.3227
  0
LINE
  8
0
 10
60.025
 20
85.3227
 11
60.1751
 21
85.3927
  0
LINE
  8
0
 10
60.1751
 20
85.3927
 11
60.335
 21
85.4356
  0
LINE
  8
0
 10
60.335
 20
85.4356
 11
60.5
 21
85.45
  0
LINE
  8
0
 10
60.5
 20
85.45
 11
60.665
 21
85.4356
  0
LINE
  8
0
 10
60.665
 20
85.4356
 11
60.8249
 21
85.3927
  0
LINE
  8
0
 10
60.8249
 20
85.3927
 11
60.975
 21
85.3227
  0
LINE
  8
0
 10
60.975
 20
85.3227
 11
61.1106
 21
85.2277
  0
LINE
  8
0
 10
61.1106
 20
85.2277
 11
61.2277
 21
85.1106
  0
LINE
  8
0
 10
61.2277
 20
85.1106
 11
61.3227
 21
84.975
  0
LINE
  8
0
 10
61.3227
 20
84.975
 11
61.3927
 21
84.8249
  0
LINE
  8
0
 10
61.3927
 20
84.8249
 11
61.4356
 21
84.665
  0
LINE
  8
0
 10
61.4356
 20
84.665
 11
61.45
 21
84.5
  0
LINE
  8
0
 10
61.45
 20
84.5
 11
61.4356
 21
84.335
  0
LINE
  8
0
 10
61.4356
 20
84.335
 11
61.3927
 21
84.1751
  0
LINE
  8
0
 10
61.3927
 20
84.1751
 11
61.3227
 21
84.025
  0
LINE
  8
0
 10
61.3227
 20
84.025
 11
61.2277
 21
83.8893
  0
LINE
  8
0
 10
61.2277
 20
83.8893
 11
61.1106
 21
83.7722
  0
LINE
  8
0
 10
61.1106
 20
83.7722
 11
60.975
 21
83.6773
  0
LINE
  8
0
 10
60.975
 20
83.6773
 11
60.8249
 21
83.6073
  0
LINE
  8
0
 10
60.8249
 20
83.6073
 11
60.665
 21
83.5644
  0
LINE
  8
0
 10
60.665
 20
83.5644
 11
60.5
 21
83.55
  0
LINE
  8
0
 10
60.5
 20
83.55
 11
60.335
 21
83.5644
  0
LINE
  8
0
 10
11.335
 20
83.5644
 11
11.1751
 21
83.6073
  0
LINE
  8
0
 10
11.1751
 20
83.6073
 11
11.025
 21
83.6773
  0
LINE
  8
0
 10
11.025
 20
83.6773
 11
10.8893
 21
83.7722
  0
LINE
  8
0
 10
10.8893
 20
83.7722
 11
10.7722
 21
83.8893
  0
LINE
  8
0
 10
10.7722
 20
83.8893
 11
10.6773
 21
84.025
  0
LINE
  8
0
 10
10.6773
 20
84.025
 11
10.6073
 21
84.1751
  0
LINE
  8
0
 10
10.6073
 20
84.1751
 11
10.5644
 21
84.335
  0
LINE
  8
0
 10
10.5644
 20
84.335
 11
10.55
 21
84.5
  0
LINE
  8
0
 10
10.55
 20
84.5
 11
10.5644
 21
84.665
  0
LINE
  8
0
 10
10.5644
 20
84.665
 11
10.6073
 21
84.8249
  0
LINE
  8
0
 10
10.6073
 20
84.8249
 11
10.6773
 21
84.975
  0
LINE
  8
0
 10
10.6773
 20
84.975
 11
10.7722
 21
85.1106
  0
LINE
  8
0
 10
10.7722
 20
85.1106
 11
10.8893
 21
85.2277
  0
LINE
  8
0
 10
10.8893
 20
85.2277
 11
11.025
 21
85.3227
  0
LINE
  8
0
 10
11.025
 20
85.3227
 11
11.1751
 21
85.3927
  0
LINE
  8
0
 10
11.1751
 20
85.3927
 11
11.335
 21
85.4356
  0
LINE
  8
0
 10
11.335
 20
85.4356
 11
11.5
 21
85.45
  0
LINE
  8
0
 10
11.5
 20
85.45
 11
11.665
 21
85.4356
  0
LINE
  8
0
 10
11.665
 20
85.4356
 11
11.8249
 21
85.3927
  0
LINE
  8
0
 10
11.8249
 20
85.3927
 11
11.975
 21
85.3227
  0
LINE
  8
0
 10
11.975
 20
85.3227
 11
12.1106
 21
85.2277
  0
LINE
  8
0
 10
12.1106
 20
85.2277
 11
12.2277
 21
85.1106
  0
LINE
  8
0
 10
12.2277
 20
85.1106
 11
12.3227
 21
84.975
  0
LINE
  8
0
 10
12.3227
 20
84.975
 11
12.3927
 21
84.8249
  0
LINE
  8
0
 10
12.3927
 20
84.8249
 11
12.4356
 21
84.665
  0
LINE
  8
0
 10
12.4356
 20
84.665
 11
12.45
 21
84.5
  0
LINE
  8
0
 10
12.45
 20
84.5
 11
12.4356
 21
84.335
  0
LINE
  8
0
 10
12.4356
 20
84.335
 11
12.3927
 21
84.1751
  0
LINE
  8
0
 10
12.3927
 20
84.1751
 11
12.3227
 21
84.025
  0
LINE
  8
0
 10
12.3227
 20
84.025
 11
12.2277
 21
83.8893
  0
LINE
  8
0
 10
12.2277
 20
83.8893
 11
12.1106
 21
83.7722
  0
LINE
  8
0
 10
12.1106
 20
83.7722
 11
11.975
 21
83.6773
  0
LINE
  8
0
 10
11.975
 20
83.6773
 11
11.8249
 21
83.6073
  0
LINE
  8
0
 10
11.8249
 20
83.6073
 11
11.665
 21
83.5644
  0
LINE
  8
0
 10
11.665
 20
83.5644
 11
11.5
 21
83.55
  0
LINE
  8
0
 10
11.5
 20
83.55
 11
11.335
 21
83.5644
  0
LINE
  8
0
 10
55.3
 20
55.2
 11
55.3
 21
59.2
  0
LINE
  8
0
 10
55.3
 20
59.2
 11
51.3
 21
59.2
  0
LINE
  8
0
 10
51.3
 20
59.2
 11
51.3
 21
76.4
  0
LINE
  8
0
 10
51.3
 20
76.4
 11
55.3
 21
76.4
  0
LINE
  8
0
 10
55.3
 20
76.4
 11
55.3
 21
80.4
  0
LINE
  8
0
 10
55.3
 20
80.4
 11
64.3
 21
80.4
  0
LINE
  8
0
 10
64.3
 20
80.4
 11
64.3
 21
76.4
  0
LINE
  8
0
 10
64.3
 20
76.4
 11
68.3
 21
76.4
  0
LINE
  8
0
 10
68.3
 20
76.4
 11
68.3
 21
80.4
  0
LINE
  8
0
 10
68.3
 20
80.4
 11
75.4
 21
80.4
  0
LINE
  8
0
 10
75.4
 20
80.4
 11
75.4
 21
55.2
  0
LINE
  8
0
 10
75.4
 20
55.2
 11
68.3
 21
55.2
  0
LINE
  8
0
 10
68.3
 20
55.2
 11
68.3
 21
59.2
  0
LINE
  8
0
 10
68.3
 20
59.2
 11
64.3
 21
59.2
  0
LINE
  8
0
 10
64.3
 20
59.2
 11
64.3
 21
55.2
  0
LINE
  8
0
 10
64.3
 20
55.2
 11
55.3
 21
55.2
  0
LINE
  8
0
 10
53.1784
 20
77.7106
 11
53.0606
 21
77.7422
  0
LINE
  8
0
 10
53.0606
 20
77.7422
 11
52.95
 21
77.7938
  0
LINE
  8
0
 10
52.95
 20
77.7938
 11
52.85
 21
77.8638
  0
LINE
  8
0
 10
52.85
 20
77.8638
 11
52.7638
 21
77.95
  0
LINE
  8
0
 10
52.7638
 20
77.95
 11
52.6938
 21
78.05
  0
LINE
  8
0
 10
52.6938
 20
78.05
 11
52.6422
 21
78.1606
  0
LINE
  8
0
 10
52.6422
 20
78.1606
 11
52.6106
 21
78.2784
  0
LINE
  8
0
 10
52.6106
 20
78.2784
 11
52.6
 21
78.4
  0
LINE
  8
0
 10
52.6
 20
78.4
 11
52.6106
 21
78.5215
  0
LINE
  8
0
 10
52.6106
 20
78.5215
 11
52.6422
 21
78.6394
  0
LINE
  8
0
 10
52.6422
 20
78.6394
 11
52.6938
 21
78.75
  0
LINE
  8
0
 10
52.6938
 20
78.75
 11
52.7638
 21
78.8499
  0
LINE
  8
0
 10
52.7638
 20
78.8499
 11
52.85
 21
78.9362
  0
LINE
  8
0
 10
52.85
 20
78.9362
 11
52.95
 21
79.0062
  0
LINE
  8
0
 10
52.95
 20
79.0062
 11
53.0606
 21
79.0578
  0
LINE
  8
0
 10
53.0606
 20
79.0578
 11
53.1784
 21
79.0894
  0
LINE
  8
0
 10
53.1784
 20
79.0894
 11
53.3
 21
79.1
  0
LINE
  8
0
 10
53.3
 20
79.1
 11
53.4216
 21
79.0894
  0
LINE
  8
0
 10
53.4216
 20
79.0894
 11
53.5394
 21
79.0578
  0
LINE
  8
0
 10
53.5394
 20
79.0578
 11
53.65
 21
79.0062
  0
LINE
  8
0
 10
53.65
 20
79.0062
 11
53.7499
 21
78.9362
  0
LINE
  8
0
 10
53.7499
 20
78.9362
 11
53.8362
 21
78.8499
  0
LINE
  8
0
 10
53.8362
 20
78.8499
 11
53.9062
 21
78.75
  0
LINE
  8
0
 10
53.9062
 20
78.75
 11
53.9578
 21
78.6394
  0
LINE
  8
0
 10
53.9578
 20
78.6394
 11
53.9894
 21
78.5215
  0
LINE
  8
0
 10
53.9894
 20
78.5215
 11
54
 21
78.4
  0
LINE
  8
0
 10
54
 20
78.4
 11
53.9894
 21
78.2784
  0
LINE
  8
0
 10
53.9894
 20
78.2784
 11
53.9578
 21
78.1606
  0
LINE
  8
0
 10
53.9578
 20
78.1606
 11
53.9062
 21
78.05
  0
LINE
  8
0
 10
53.9062
 20
78.05
 11
53.8362
 21
77.95
  0
LINE
  8
0
 10
53.8362
 20
77.95
 11
53.7499
 21
77.8638
  0
LINE
  8
0
 10
53.7499
 20
77.8638
 11
53.65
 21
77.7938
  0
LINE
  8
0
 10
53.65
 20
77.7938
 11
53.5394
 21
77.7422
  0
LINE
  8
0
 10
53.5394
 20
77.7422
 11
53.4216
 21
77.7106
  0
LINE
  8
0
 10
53.4216
 20
77.7106
 11
53.3
 21
77.7
  0
LINE
  8
0
 10
53.3
 20
77.7
 11
53.1784
 21
77.7106
  0
LINE
  8
0
 10
66.1784
 20
77.7106
 11
66.0606
 21
77.7422
  0
LINE
  8
0
 10
66.0606
 20
77.7422
 11
65.95
 21
77.7938
  0
LINE
  8
0
 10
65.95
 20
77.7938
 11
65.85
 21
77.8638
  0
LINE
  8
0
 10
65.85
 20
77.8638
 11
65.7638
 21
77.95
  0
LINE
  8
0
 10
65.7638
 20
77.95
 11
65.6938
 21
78.05
  0
LINE
  8
0
 10
65.6938
 20
78.05
 11
65.6422
 21
78.1606
  0
LINE
  8
0
 10
65.6422
 20
78.1606
 11
65.6106
 21
78.2784
  0
LINE
  8
0
 10
65.6106
 20
78.2784
 11
65.6
 21
78.4
  0
LINE
  8
0
 10
65.6
 20
78.4
 11
65.6106
 21
78.5215
  0
LINE
  8
0
 10
65.6106
 20
78.5215
 11
65.6422
 21
78.6394
  0
LINE
  8
0
 10
65.6422
 20
78.6394
 11
65.6938
 21
78.75
  0
LINE
  8
0
 10
65.6938
 20
78.75
 11
65.7638
 21
78.8499
  0
LINE
  8
0
 10
65.7638
 20
78.8499
 11
65.85
 21
78.9362
  0
LINE
  8
0
 10
65.85
 20
78.9362
 11
65.95
 21
79.0062
  0
LINE
  8
0
 10
65.95
 20
79.0062
 11
66.0606
 21
79.0578
  0
LINE
  8
0
 10
66.0606
 20
79.0578
 11
66.1784
 21
79.0894
  0
LINE
  8
0
 10
66.1784
 20
79.0894
 11
66.3
 21
79.1
  0
LINE
  8
0
 10
66.3
 20
79.1
 11
66.4216
 21
79.0894
  0
LINE
  8
0
 10
66.4216
 20
79.0894
 11
66.5394
 21
79.0578
  0
LINE
  8
0
 10
66.5394
 20
79.0578
 11
66.65
 21
79.0062
  0
LINE
  8
0
 10
66.65
 20
79.0062
 11
66.75
 21
78.9362
  0
LINE
  8
0
 10
66.75
 20
78.9362
 11
66.8362
 21
78.8499
  0
LINE
  8
0
 10
66.8362
 20
78.8499
 11
66.9062
 21
78.75
  0
LINE
  8
0
 10
66.9062
 20
78.75
 11
66.9578
 21
78.6394
  0
LINE
  8
0
 10
66.9578
 20
78.6394
 11
66.9894
 21
78.5215
  0
LINE
  8
0
 10
66.9894
 20
78.5215
 11
67
 21
78.4
  0
LINE
  8
0
 10
67
 20
78.4
 11
66.9894
 21
78.2784
  0
LINE
  8
0
 10
66.9894
 20
78.2784
 11
66.9578
 21
78.1606
  0
LINE
  8
0
 10
66.9578
 20
78.1606
 11
66.9062
 21
78.05
  0
LINE
  8
0
 10
66.9062
 20
78.05
 11
66.8362
 21
77.95
  0
LINE
  8
0
 10
66.8362
 20
77.95
 11
66.75
 21
77.8638
  0
LINE
  8
0
 10
66.75
 20
77.8638
 11
66.65
 21
77.7938
  0
LINE
  8
0
 10
66.65
 20
77.7938
 11
66.5394
 21
77.7422
  0
LINE
  8
0
 10
66.5394
 20
77.7422
 11
66.4216
 21
77.7106
  0
LINE
  8
0
 10
66.4216
 20
77.7106
 11
66.3
 21
77.7
  0
LINE
  8
0
 10
66.3
 20
77.7
 11
66.1784
 21
77.7106
  0
LINE
  8
0
 10
66.1784
 20
56.5106
 11
66.0606
 21
56.5422
  0
LINE
  8
0
 10
66.0606
 20
56.5422
 11
65.95
 21
56.5938
  0
LINE
  8
0
 10
65.95
 20
56.5938
 11
65.85
 21
56.6638
  0
LINE
  8
0
 10
65.85
 20
56.6638
 11
65.7638
 21
56.75
  0
LINE
  8
0
 10
65.7638
 20
56.75
 11
65.6938
 21
56.85
  0
LINE
  8
0
 10
65.6938
 20
56.85
 11
65.6422
 21
56.9606
  0
LINE
  8
0
 10
65.6422
 20
56.9606
 11
65.6106
 21
57.0784
  0
LINE
  8
0
 10
65.6106
 20
57.0784
 11
65.6
 21
57.2
  0
LINE
  8
0
 10
65.6
 20
57.2
 11
65.6106
 21
57.3215
  0
LINE
  8
0
 10
65.6106
 20
57.3215
 11
65.6422
 21
57.4394
  0
LINE
  8
0
 10
65.6422
 20
57.4394
 11
65.6938
 21
57.55
  0
LINE
  8
0
 10
65.6938
 20
57.55
 11
65.7638
 21
57.6499
  0
LINE
  8
0
 10
65.7638
 20
57.6499
 11
65.85
 21
57.7362
  0
LINE
  8
0
 10
65.85
 20
57.7362
 11
65.95
 21
57.8062
  0
LINE
  8
0
 10
65.95
 20
57.8062
 11
66.0606
 21
57.8578
  0
LINE
  8
0
 10
66.0606
 20
57.8578
 11
66.1784
 21
57.8894
  0
LINE
  8
0
 10
66.1784
 20
57.8894
 11
66.3
 21
57.9
  0
LINE
  8
0
 10
66.3
 20
57.9
 11
66.4216
 21
57.8894
  0
LINE
  8
0
 10
66.4216
 20
57.8894
 11
66.5394
 21
57.8578
  0
LINE
  8
0
 10
66.5394
 20
57.8578
 11
66.65
 21
57.8062
  0
LINE
  8
0
 10
66.65
 20
57.8062
 11
66.75
 21
57.7362
  0
LINE
  8
0
 10
66.75
 20
57.7362
 11
66.8362
 21
57.6499
  0
LINE
  8
0
 10
66.8362
 20
57.6499
 11
66.9062
 21
57.55
  0
LINE
  8
0
 10
66.9062
 20
57.55
 11
66.9578
 21
57.4394
  0
LINE
  8
0
 10
66.9578
 20
57.4394
 11
66.9894
 21
57.3215
  0
LINE
  8
0
 10
66.9894
 20
57.3215
 11
67
 21
57.2
  0
LINE
  8
0
 10
67
 20
57.2
 11
66.9894
 21
57.0784
  0
LINE
  8
0
 10
66.9894
 20
57.0784
 11
66.9578
 21
56.9606
  0
LINE
  8
0
 10
66.9578
 20
56.9606
 11
66.9062
 21
56.85
  0
LINE
  8
0
 10
66.9062
 20
56.85
 11
66.8362
 21
56.75
  0
LINE
  8
0
 10
66.8362
 20
56.75
 11
66.75
 21
56.6638
  0
LINE
  8
0
 10
66.75
 20
56.6638
 11
66.65
 21
56.5938
  0
LINE
  8
0
 10
66.65
 20
56.5938
 11
66.5394
 21
56.5422
  0
LINE
  8
0
 10
66.5394
 20
56.5422
 11
66.4216
 21
56.5106
  0
LINE
  8
0
 10
66.4216
 20
56.5106
 11
66.3
 21
56.5
  0
LINE
  8
0
 10
66.3
 20
56.5
 11
66.1784
 21
56.5106
  0
LINE
  8
0
 10
53.1784
 20
56.5106
 11
53.0606
 21
56.5422
  0
LINE
  8
0
 10
53.0606
 20
56.5422
 11
52.95
 21
56.5938
  0
LINE
  8
0
 10
52.95
 20
56.5938
 11
52.85
 21
56.6638
  0
LINE
  8
0
 10
52.85
 20
56.6638
 11
52.7638
 21
56.75
  0
LINE
  8
0
 10
52.7638
 20
56.75
 11
52.6938
 21
56.85
  0
LINE
  8
0
 10
52.6938
 20
56.85
 11
52.6422
 21
56.9606
  0
LINE
  8
0
 10
52.6422
 20
56.9606
 11
52.6106
 21
57.0784
  0
LINE
  8
0
 10
52.6106
 20
57.0784
 11
52.6
 21
57.2
  0
LINE
  8
0
 10
52.6
 20
57.2
 11
52.6106
 21
57.3215
  0
LINE
  8
0
 10
52.6106
 20
57.3215
 11
52.6422
 21
57.4394
  0
LINE
  8
0
 10
52.6422
 20
57.4394
 11
52.6938
 21
57.55
  0
LINE
  8
0
 10
52.6938
 20
57.55
 11
52.7638
 21
57.6499
  0
LINE
  8
0
 10
52.7638
 20
57.6499
 11
52.85
 21
57.7362
  0
LINE
  8
0
 10
52.85
 20
57.7362
 11
52.95
 21
57.8062
  0
LINE
  8
0
 10
52.95
 20
57.8062
 11
53.0606
 21
57.8578
  0
LINE
  8
0
 10
53.0606
 20
57.8578
 11
53.1784
 21
57.8894
  0
LINE
  8
0
 10
53.1784
 20
57.8894
 11
53.3
 21
57.9
  0
LINE
  8
0
 10
53.3
 20
57.9
 11
53.4216
 21
57.8894
  0
LINE
  8
0
 10
53.4216
 20
57.8894
 11
53.5394
 21
57.8578
  0
LINE
  8
0
 10
53.5394
 20
57.8578
 11
53.65
 21
57.8062
  0
LINE
  8
0
 10
53.65
 20
57.8062
 11
53.7499
 21
57.7362
  0
LINE
  8
0
 10
53.7499
 20
57.7362
 11
53.8362
 21
57.6499
  0
LINE
  8
0
 10
53.8362
 20
57.6499
 11
53.9062
 21
57.55
  0
LINE
  8
0
 10
53.9062
 20
57.55
 11
53.9578
 21
57.4394
  0
LINE
  8
0
 10
53.9578
 20
57.4394
 11
53.9894
 21
57.3215
  0
LINE
  8
0
 10
53.9894
 20
57.3215
 11
54
 21
57.2
  0
LINE
  8
0
 10
54
 20
57.2
 11
53.9894
 21
57.0784
  0
LINE
  8
0
 10
53.9894
 20
57.0784
 11
53.9578
 21
56.9606
  0
LINE
  8
0
 10
53.9578
 20
56.9606
 11
53.9062
 21
56.85
  0
LINE
  8
0
 10
53.9062
 20
56.85
 11
53.8362
 21
56.75
  0
LINE
  8
0
 10
53.8362
 20
56.75
 11
53.7499
 21
56.6638
  0
LINE
  8
0
 10
53.7499
 20
56.6638
 11
53.65
 21
56.5938
  0
LINE
  8
0
 10
53.65
 20
56.5938
 11
53.5394
 21
56.5422
  0
LINE
  8
0
 10
53.5394
 20
56.5422
 11
53.4216
 21
56.5106
  0
LINE
  8
0
 10
53.4216
 20
56.5106
 11
53.3
 21
56.5
  0
LINE
  8
0
 10
53.3
 20
56.5
 11
53.1784
 21
56.5106
  0
LINE
  8
0
 10
60.335
 20
25.5644
 11
60.1751
 21
25.6073
  0
LINE
  8
0
 10
60.1751
 20
25.6073
 11
60.025
 21
25.6773
  0
LINE
  8
0
 10
60.025
 20
25.6773
 11
59.8893
 21
25.7722
  0
LINE
  8
0
 10
59.8893
 20
25.7722
 11
59.7722
 21
25.8893
  0
LINE
  8
0
 10
59.7722
 20
25.8893
 11
59.6773
 21
26.025
  0
LINE
  8
0
 10
59.6773
 20
26.025
 11
59.6073
 21
26.1751
  0
LINE
  8
0
 10
59.6073
 20
26.1751
 11
59.5644
 21
26.335
  0
LINE
  8
0
 10
59.5644
 20
26.335
 11
59.55
 21
26.5
  0
LINE
  8
0
 10
59.55
 20
26.5
 11
59.5644
 21
26.665
  0
LINE
  8
0
 10
59.5644
 20
26.665
 11
59.6073
 21
26.8249
  0
LINE
  8
0
 10
59.6073
 20
26.8249
 11
59.6773
 21
26.975
  0
LINE
  8
0
 10
59.6773
 20
26.975
 11
59.7722
 21
27.1106
  0
LINE
  8
0
 10
59.7722
 20
27.1106
 11
59.8893
 21
27.2277
  0
LINE
  8
0
 10
59.8893
 20
27.2277
 11
60.025
 21
27.3227
  0
LINE
  8
0
 10
60.025
 20
27.3227
 11
60.1751
 21
27.3927
  0
LINE
  8
0
 10
60.1751
 20
27.3927
 11
60.335
 21
27.4356
  0
LINE
  8
0
 10
60.335
 20
27.4356
 11
60.5
 21
27.45
  0
LINE
  8
0
 10
60.5
 20
27.45
 11
60.665
 21
27.4356
  0
LINE
  8
0
 10
60.665
 20
27.4356
 11
60.8249
 21
27.3927
  0
LINE
  8
0
 10
60.8249
 20
27.3927
 11
60.975
 21
27.3227
  0
LINE
  8
0
 10
60.975
 20
27.3227
 11
61.1106
 21
27.2277
  0
LINE
  8
0
 10
61.1106
 20
27.2277
 11
61.2277
 21
27.1106
  0
LINE
  8
0
 10
61.2277
 20
27.1106
 11
61.3227
 21
26.975
  0
LINE
  8
0
 10
61.3227
 20
26.975
 11
61.3927
 21
26.8249
  0
LINE
  8
0
 10
61.3927
 20
26.8249
 11
61.4356
 21
26.665
  0
LINE
  8
0
 10
61.4356
 20
26.665
 11
61.45
 21
26.5
  0
LINE
  8
0
 10
61.45
 20
26.5
 11
61.4356
 21
26.335
  0
LINE
  8
0
 10
61.4356
 20
26.335
 11
61.3927
 21
26.1751
  0
LINE
  8
0
 10
61.3927
 20
26.1751
 11
61.3227
 21
26.025
  0
LINE
  8
0
 10
61.3227
 20
26.025
 11
61.2277
 21
25.8893
  0
LINE
  8
0
 10
61.2277
 20
25.8893
 11
61.1106
 21
25.7722
  0
LINE
  8
0
 10
61.1106
 20
25.7722
 11
60.975
 21
25.6773
  0
LINE
  8
0
 10
60.975
 20
25.6773
 11
60.8249
 21
25.6073
  0
LINE
  8
0
 10
60.8249
 20
25.6073
 11
60.665
 21
25.5644
  0
LINE
  8
0
 10
60.665
 20
25.5644
 11
60.5
 21
25.55
  0
LINE
  8
0
 10
60.5
 20
25.55
 11
60.335
 21
25.5644
  0
LINE
  8
0
 10
11.335
 20
25.5644
 11
11.1751
 21
25.6073
  0
LINE
  8
0
 10
11.1751
 20
25.6073
 11
11.025
 21
25.6773
  0
LINE
  8
0
 10
11.025
 20
25.6773
 11
10.8893
 21
25.7722
  0
LINE
  8
0
 10
10.8893
 20
25.7722
 11
10.7722
 21
25.8893
  0
LINE
  8
0
 10
10.7722
 20
25.8893
 11
10.6773
 21
26.025
  0
LINE
  8
0
 10
10.6773
 20
26.025
 11
10.6073
 21
26.1751
  0
LINE
  8
0
 10
10.6073
 20
26.1751
 11
10.5644
 21
26.335
  0
LINE
  8
0
 10
10.5644
 20
26.335
 11
10.55
 21
26.5
  0
LINE
  8
0
 10
10.55
 20
26.5
 11
10.5644
 21
26.665
  0
LINE
  8
0
 10
10.5644
 20
26.665
 11
10.6073
 21
26.8249
  0
LINE
  8
0
 10
10.6073
 20
26.8249
 11
10.6773
 21
26.975
  0
LINE
  8
0
 10
10.6773
 20
26.975
 11
10.7722
 21
27.1106
  0
LINE
  8
0
 10
10.7722
 20
27.1106
 11
10.8893
 21
27.2277
  0
LINE
  8
0
 10
10.8893
 20
27.2277
 11
11.025
 21
27.3227
  0
LINE
  8
0
 10
11.025
 20
27.3227
 11
11.1751
 21
27.3927
  0
LINE
  8
0
 10
11.1751
 20
27.3927
 11
11.335
 21
27.4356
  0
LINE
  8
0
 10
11.335
 20
27.4356
 11
11.5
 21
27.45
  0
LINE
  8
0
 10
11.5
 20
27.45
 11
11.665
 21
27.4356
  0
LINE
  8
0
 10
11.665
 20
27.4356
 11
11.8249
 21
27.3927
  0
LINE
  8
0
 10
11.8249
 20
27.3927
 11
11.975
 21
27.3227
  0
LINE
  8
0
 10
11.975
 20
27.3227
 11
12.1106
 21
27.2277
  0
LINE
  8
0
 10
12.1106
 20
27.2277
 11
12.2277
 21
27.1106
  0
LINE
  8
0
 10
12.2277
 20
27.1106
 11
12.3227
 21
26.975
  0
LINE
  8
0
 10
12.3227
 20
26.975
 11
12.3927
 21
26.8249
  0
LINE
  8
0
 10
12.3927
 20
26.8249
 11
12.4356
 21
26.665
  0
LINE
  8
0
 10
12.4356
 20
26.665
 11
12.45
 21
26.5
  0
LINE
  8
0
 10
12.45
 20
26.5
 11
12.4356
 21
26.335
  0
LINE
  8
0
 10
12.4356
 20
26.335
 11
12.3927
 21
26.1751
  0
LINE
  8
0
 10
12.3927
 20
26.1751
 11
12.3227
 21
26.025
  0
LINE
  8
0
 10
12.3227
 20
26.025
 11
12.2277
 21
25.8893
  0
LINE
  8
0
 10
12.2277
 20
25.8893
 11
12.1106
 21
25.7722
  0
LINE
  8
0
 10
12.1106
 20
25.7722
 11
11.975
 21
25.6773
  0
LINE
  8
0
 10
11.975
 20
25.6773
 11
11.8249
 21
25.6073
  0
LINE
  8
0
 10
11.8249
 20
25.6073
 11
11.665
 21
25.5644
  0
LINE
  8
0
 10
11.665
 20
25.5644
 11
11.5
 21
25.55
  0
LINE
  8
0
 10
11.5
 20
25.55
 11
11.335
 21
25.5644
  0
LINE
  8
0
 10
13.7763
 20
4.01518
 11
13.608
 21
4.0603
  0
LINE
  8
0
 10
13.608
 20
4.0603
 11
13.45
 21
4.13397
  0
LINE
  8
0
 10
13.45
 20
4.13397
 11
13.3072
 21
4.23395
  0
LINE
  8
0
 10
13.3072
 20
4.23395
 11
13.1839
 21
4.35721
  0
LINE
  8
0
 10
13.1839
 20
4.35721
 11
13.084
 21
4.5
  0
LINE
  8
0
 10
13.084
 20
4.5
 11
13.0103
 21
4.65797
  0
LINE
  8
0
 10
13.0103
 20
4.65797
 11
12.9652
 21
4.82634
  0
LINE
  8
0
 10
12.9652
 20
4.82634
 11
12.95
 21
5
  0
LINE
  8
0
 10
12.95
 20
5
 11
12.9652
 21
5.17365
  0
LINE
  8
0
 10
12.9652
 20
5.17365
 11
13.0103
 21
5.34201
  0
LINE
  8
0
 10
13.0103
 20
5.34201
 11
13.084
 21
5.5
  0
LINE
  8
0
 10
13.084
 20
5.5
 11
13.1839
 21
5.64278
  0
LINE
  8
0
 10
13.1839
 20
5.64278
 11
13.3072
 21
5.76604
  0
LINE
  8
0
 10
13.3072
 20
5.76604
 11
13.45
 21
5.86601
  0
LINE
  8
0
 10
13.45
 20
5.86601
 11
13.608
 21
5.93968
  0
LINE
  8
0
 10
13.608
 20
5.93968
 11
13.7763
 21
5.9848
  0
LINE
  8
0
 10
13.7763
 20
5.9848
 11
13.95
 21
6
  0
LINE
  8
0
 10
13.95
 20
6
 11
14.1236
 21
5.9848
  0
LINE
  8
0
 10
14.1236
 20
5.9848
 11
14.292
 21
5.93968
  0
LINE
  8
0
 10
14.292
 20
5.93968
 11
14.45
 21
5.86601
  0
LINE
  8
0
 10
14.45
 20
5.86601
 11
14.5928
 21
5.76604
  0
LINE
  8
0
 10
14.5928
 20
5.76604
 11
14.716
 21
5.64278
  0
LINE
  8
0
 10
14.716
 20
5.64278
 11
14.816
 21
5.5
  0
LINE
  8
0
 10
14.816
 20
5.5
 11
14.8897
 21
5.34201
  0
LINE
  8
0
 10
14.8897
 20
5.34201
 11
14.9348
 21
5.17365
  0
LINE
  8
0
 10
14.9348
 20
5.17365
 11
14.95
 21
5
  0
LINE
  8
0
 10
14.95
 20
5
 11
14.9348
 21
4.82634
  0
LINE
  8
0
 10
14.9348
 20
4.82634
 11
14.8897
 21
4.65797
  0
LINE
  8
0
 10
14.8897
 20
4.65797
 11
14.816
 21
4.5
  0
LINE
  8
0
 10
14.816
 20
4.5
 11
14.716
 21
4.35721
  0
LINE
  8
0
 10
14.716
 20
4.35721
 11
14.5928
 21
4.23395
  0
LINE
  8
0
 10
14.5928
 20
4.23395
 11
14.45
 21
4.13397
  0
LINE
  8
0
 10
14.45
 20
4.13397
 11
14.292
 21
4.0603
  0
LINE
  8
0
 10
14.292
 20
4.0603
 11
14.1236
 21
4.01518
  0
LINE
  8
0
 10
14.1236
 20
4.01518
 11
13.95
 21
4
  0
LINE
  8
0
 10
13.95
 20
4
 11
13.7763
 21
4.01518
  0
LINE
  8
0
 10
80.7764
 20
4.01518
 11
80.608
 21
4.0603
  0
LINE
  8
0
 10
80.608
 20
4.0603
 11
80.45
 21
4.13397
  0
LINE
  8
0
 10
80.45
 20
4.13397
 11
80.3072
 21
4.23395
  0
LINE
  8
0
 10
80.3072
 20
4.23395
 11
80.1839
 21
4.35721
  0
LINE
  8
0
 10
80.1839
 20
4.35721
 11
80.084
 21
4.5
  0
LINE
  8
0
 10
80.084
 20
4.5
 11
80.0103
 21
4.65797
  0
LINE
  8
0
 10
80.0103
 20
4.65797
 11
79.9652
 21
4.82634
  0
LINE
  8
0
 10
79.9652
 20
4.82634
 11
79.95
 21
5
  0
LINE
  8
0
 10
79.95
 20
5
 11
79.9652
 21
5.17365
  0
LINE
  8
0
 10
79.9652
 20
5.17365
 11
80.0103
 21
5.34201
  0
LINE
  8
0
 10
80.0103
 20
5.34201
 11
80.084
 21
5.5
  0
LINE
  8
0
 10
80.084
 20
5.5
 11
80.1839
 21
5.64278
  0
LINE
  8
0
 10
80.1839
 20
5.64278
 11
80.3072
 21
5.76604
  0
LINE
  8
0
 10
80.3072
 20
5.76604
 11
80.45
 21
5.86601
  0
LINE
  8
0
 10
80.45
 20
5.86601
 11
80.608
 21
5.93968
  0
LINE
  8
0
 10
80.608
 20
5.93968
 11
80.7764
 21
5.9848
  0
LINE
  8
0
 10
80.7764
 20
5.9848
 11
80.95
 21
6
  0
LINE
  8
0
 10
80.95
 20
6
 11
81.1236
 21
5.9848
  0
LINE
  8
0
 10
81.1236
 20
5.9848
 11
81.292
 21
5.93968
  0
LINE
  8
0
 10
81.292
 20
5.93968
 11
81.45
 21
5.86601
  0
LINE
  8
0
 10
81.45
 20
5.86601
 11
81.5928
 21
5.76604
  0
LINE
  8
0
 10
81.5928
 20
5.76604
 11
81.716
 21
5.64278
  0
LINE
  8
0
 10
81.716
 20
5.64278
 11
81.816
 21
5.5
  0
LINE
  8
0
 10
81.816
 20
5.5
 11
81.8897
 21
5.34201
  0
LINE
  8
0
 10
81.8897
 20
5.34201
 11
81.9348
 21
5.17365
  0
LINE
  8
0
 10
81.9348
 20
5.17365
 11
81.95
 21
5
  0
LINE
  8
0
 10
81.95
 20
5
 11
81.9348
 21
4.82634
  0
LINE
  8
0
 10
81.9348
 20
4.82634
 11
81.8897
 21
4.65797
  0
LINE
  8
0
 10
81.8897
 20
4.65797
 11
81.816
 21
4.5
  0
LINE
  8
0
 10
81.816
 20
4.5
 11
81.716
 21
4.35721
  0
LINE
  8
0
 10
81.716
 20
4.35721
 11
81.5928
 21
4.23395
  0
LINE
  8
0
 10
81.5928
 20
4.23395
 11
81.45
 21
4.13397
  0
LINE
  8
0
 10
81.45
 20
4.13397
 11
81.292
 21
4.0603
  0
LINE
  8
0
 10
81.292
 20
4.0603
 11
81.1236
 21
4.01518
  0
LINE
  8
0
 10
81.1236
 20
4.01518
 11
80.95
 21
4
  0
LINE
  8
0
 10
80.95
 20
4
 11
80.7764
 21
4.01518
  0
ENDSEC
  0
SECTION
  2
OBJECTS
  0
DICTIONARY
  0
ENDSEC
  0
EOF
