<?xml version="1.0" standalone="no"?>
<!DOCTYPE svg PUBLIC "-//W3C//DTD SVG 1.1//EN" "http://www.w3.org/Graphics/SVG/1.1/DTD/svg11.dtd">
<svg width="95mm" height="95mm" viewBox="0 -95 95 95" xmlns="http://www.w3.org/2000/svg" version="1.1">
<title>OpenSCAD Model</title>
<path d="
M 90.7682,-0.0759583 L 91.6101,-0.301529 L 92.4,-0.669861 L 93.1139,-1.16977 L 93.7302,-1.78606 L 94.2301,-2.5
 L 94.5985,-3.28989 L 94.824,-4.13174 L 94.9,-5 L 94.9,-89.9 L 94.824,-90.7682 L 94.5985,-91.6101
 L 94.2301,-92.4 L 93.7302,-93.1139 L 93.1139,-93.7302 L 92.4,-94.2301 L 91.6101,-94.5985 L 90.7682,-94.824
 L 89.9,-94.9 L 5,-94.9 L 4.13174,-94.824 L 3.28989,-94.5985 L 2.5,-94.2301 L 1.78606,-93.7302
 L 1.16977,-93.1139 L 0.669861,-92.4 L 0.301529,-91.6101 L 0.0759583,-90.7682 L 0,-89.9 L 0,-5
 L 0.0759583,-4.13174 L 0.301529,-3.28989 L 0.669861,-2.5 L 1.16977,-1.78606 L 1.78606,-1.16977 L 2.5,-0.669861
 L 3.28989,-0.301529 L 4.13174,-0.0759583 L 5,-0 L 89.9,-0 z
M 80.7764,-88.9152 L 80.608,-88.9603 L 80.45,-89.034 L 80.3072,-89.134 L 80.1839,-89.2572 L 80.084,-89.4
 L 80.0103,-89.558 L 79.9652,-89.7263 L 79.95,-89.9 L 79.9652,-90.0736 L 80.0103,-90.242 L 80.084,-90.4
 L 80.1839,-90.5428 L 80.3072,-90.666 L 80.45,-90.766 L 80.608,-90.8397 L 80.7764,-90.8848 L 80.95,-90.9
 L 81.1236,-90.8848 L 81.292,-90.8397 L 81.45,-90.766 L 81.5928,-90.666 L 81.716,-90.5428 L 81.816,-90.4
 L 81.8897,-90.242 L 81.9348,-90.0736 L 81.95,-89.9 L 81.9348,-89.7263 L 81.8897,-89.558 L 81.816,-89.4
 L 81.716,-89.2572 L 81.5928,-89.134 L 81.45,-89.034 L 81.292,-88.9603 L 81.1236,-88.9152 L 80.95,-88.9
 z
M 13.7763,-88.9152 L 13.608,-88.9603 L 13.45,-89.034 L 13.3072,-89.134 L 13.1839,-89.2572 L 13.084,-89.4
 L 13.0103,-89.558 L 12.9652,-89.7263 L 12.95,-89.9 L 12.9652,-90.0736 L 13.0103,-90.242 L 13.084,-90.4
 L 13.1839,-90.5428 L 13.3072,-90.666 L 13.45,-90.766 L 13.608,-90.8397 L 13.7763,-90.8848 L 13.95,-90.9
 L 14.1236,-90.8848 L 14.292,-90.8397 L 14.45,-90.766 L 14.5928,-90.666 L 14.716,-90.5428 L 14.816,-90.4
 L 14.8897,-90.242 L 14.9348,-90.0736 L 14.95,-89.9 L 14.9348,-89.7263 L 14.8897,-89.558 L 14.816,-89.4
 L 14.716,-89.2572 L 14.5928,-89.134 L 14.45,-89.034 L 14.292,-88.9603 L 14.1236,-88.9152 L 13.95,-88.9
 z
M 60.335,-83.5644 L 60.1751,-83.6073 L 60.025,-83.6773 L 59.8893,-83.7722 L 59.7722,-83.8893 L 59.6773,-84.025
 L 59.6073,-84.1751 L 59.5644,-84.335 L 59.55,-84.5 L 59.5644,-84.665 L 59.6073,-84.8249 L 59.6773,-84.975
 L 59.7722,-85.1106 L 59.8893,-85.2277 L 60.025,-85.3227 L 60.1751,-85.3927 L 60.335,-85.4356 L 60.5,-85.45
 L 60.665,-85.4356 L 60.8249,-85.3927 L 60.975,-85.3227 L 61.1106,-85.2277 L 61.2277,-85.1106 L 61.3227,-84.975
 L 61.3927,-84.8249 L 61.4356,-84.665 L 61.45,-84.5 L 61.4356,-84.335 L 61.3927,-84.1751 L 61.3227,-84.025
 L 61.2277,-83.8893 L 61.1106,-83.7722 L 60.975,-83.6773 L 60.8249,-83.6073 L 60.665,-83.5644 L 60.5,-83.55
 z
M 11.335,-83.5644 L 11.1751,-83.6073 L 11.025,-83.6773 L 10.8893,-83.7722 L 10.7722,-83.8893 L 10.6773,-84.025
 L 10.6073,-84.1751 L 10.5644,-84.335 L 10.55,-84.5 L 10.5644,-84.665 L 10.6073,-84.8249 L 10.6773,-84.975
 L 10.7722,-85.1106 L 10.8893,-85.2277 L 11.025,-85.3227 L 11.1751,-85.3927 L 11.335,-85.4356 L 11.5,-85.45
 L 11.665,-85.4356 L 11.8249,-85.3927 L 11.975,-85.3227 L 12.1106,-85.2277 L 12.2277,-85.1106 L 12.3227,-84.975
 L 12.3927,-84.8249 L 12.4356,-84.665 L 12.45,-84.5 L 12.4356,-84.335 L 12.3927,-84.1751 L 12.3227,-84.025
 L 12.2277,-83.8893 L 12.1106,-83.7722 L 11.975,-83.6773 L 11.8249,-83.6073 L 11.665,-83.5644 L 11.5,-83.55
 z
M 55.3,-55.2 L 55.3,-59.2 L 51.3,-59.2 L 51.3,-76.4 L 55.3,-76.4 L 55.3,-80.4
 L 64.3,-80.4 L 64.3,-76.4 L 68.3,-76.4 L 68.3,-80.4 L 75.4,-80.4 L 75.4,-55.2
 L 68.3,-55.2 L 68.3,-59.2 L 64.3,-59.2 L 64.3,-55.2 z
M 53.1784,-77.7106 L 53.0606,-77.7422 L 52.95,-77.7938 L 52.85,-77.8638 L 52.7638,-77.95 L 52.6938,-78.05
 L 52.6422,-78.1606 L 52.6106,-78.2784 L 52.6,-78.4 L 52.6106,-78.5215 L 52.6422,-78.6394 L 52.6938,-78.75
 L 52.7638,-78.8499 L 52.85,-78.9362 L 52.95,-79.0062 L 53.0606,-79.0578 L 53.1784,-79.0894 L 53.3,-79.1
 L 53.4216,-79.0894 L 53.5394,-79.0578 L 53.65,-79.0062 L 53.7499,-78.9362 L 53.8362,-78.8499 L 53.9062,-78.75
 L 53.9578,-78.6394 L 53.9894,-78.5215 L 54,-78.4 L 53.9894,-78.2784 L 53.9578,-78.1606 L 53.9062,-78.05
 L 53.8362,-77.95 L 53.7499,-77.8638 L 53.65,-77.7938 L 53.5394,-77.7422 L 53.4216,-77.7106 L 53.3,-77.7
 z
M 66.1784,-77.7106 L 66.0606,-77.7422 L 65.95,-77.7938 L 65.85,-77.8638 L 65.7638,-77.95 L 65.6938,-78.05
 L 65.6422,-78.1606 L 65.6106,-78.2784 L 65.6,-78.4 L 65.6106,-78.5215 L 65.6422,-78.6394 L 65.6938,-78.75
 L 65.7638,-78.8499 L 65.85,-78.9362 L 65.95,-79.0062 L 66.0606,-79.0578 L 66.1784,-79.0894 L 66.3,-79.1
 L 66.4216,-79.0894 L 66.5394,-79.0578 L 66.65,-79.0062 L 66.75,-78.9362 L 66.8362,-78.8499 L 66.9062,-78.75
 L 66.9578,-78.6394 L 66.9894,-78.5215 L 67,-78.4 L 66.9894,-78.2784 L 66.9578,-78.1606 L 66.9062,-78.05
 L 66.8362,-77.95 L 66.75,-77.8638 L 66.65,-77.7938 L 66.5394,-77.7422 L 66.4216,-77.7106 L 66.3,-77.7
 z
M 66.1784,-56.5106 L 66.0606,-56.5422 L 65.95,-56.5938 L 65.85,-56.6638 L 65.7638,-56.75 L 65.6938,-56.85
 L 65.6422,-56.9606 L 65.6106,-57.0784 L 65.6,-57.2 L 65.6106,-57.3215 L 65.6422,-57.4394 L 65.6938,-57.55
 L 65.7638,-57.6499 L 65.85,-57.7362 L 65.95,-57.8062 L 66.0606,-57.8578 L 66.1784,-57.8894 L 66.3,-57.9
 L 66.4216,-57.8894 L 66.5394,-57.8578 L 66.65,-57.8062 L 66.75,-57.7362 L 66.8362,-57.6499 L 66.9062,-57.55
 L 66.9578,-57.4394 L 66.9894,-57.3215 L 67,-57.2 L 66.9894,-57.0784 L 66.9578,-56.9606 L 66.9062,-56.85
 L 66.8362,-56.75 L 66.75,-56.6638 L 66.65,-56.5938 L 66.5394,-56.5422 L 66.4216,-56.5106 L 66.3,-56.5
 z
M 53.1784,-56.5106 L 53.0606,-56.5422 L 52.95,-56.5938 L 52.85,-56.6638 L 52.7638,-56.75 L 52.6938,-56.85
 L 52.6422,-56.9606 L 52.6106,-57.0784 L 52.6,-57.2 L 52.6106,-57.3215 L 52.6422,-57.4394 L 52.6938,-57.55
 L 52.7638,-57.6499 L 52.85,-57.7362 L 52.95,-57.8062 L 53.0606,-57.8578 L 53.1784,-57.8894 L 53.3,-57.9
 L 53.4216,-57.8894 L 53.5394,-57.8578 L 53.65,-57.8062 L 53.7499,-57.7362 L 53.8362,-57.6499 L 53.9062,-57.55
 L 53.9578,-57.4394 L 53.9894,-57.3215 L 54,-57.2 L 53.9894,-57.0784 L 53.9578,-56.9606 L 53.9062,-56.85
 L 53.8362,-56.75 L 53.7499,-56.6638 L 53.65,-56.5938 L 53.5394,-56.5422 L 53.4216,-56.5106 L 53.3,-56.5
 z
M 60.335,-25.5644 L 60.1751,-25.6073 L 60.025,-25.6773 L 59.8893,-25.7722 L 59.7722,-25.8893 L 59.6773,-26.025
 L 59.6073,-26.1751 L 59.5644,-26.335 L 59.55,-26.5 L 59.5644,-26.665 L 59.6073,-26.8249 L 59.6773,-26.975
 L 59.7722,-27.1106 L 59.8893,-27.2277 L 60.025,-27.3227 L 60.1751,-27.3927 L 60.335,-27.4356 L 60.5,-27.45
 L 60.665,-27.4356 L 60.8249,-27.3927 L 60.975,-27.3227 L 61.1106,-27.2277 L 61.2277,-27.1106 L 61.3227,-26.975
 L 61.3927,-26.8249 L 61.4356,-26.665 L 61.45,-26.5 L 61.4356,-26.335 L 61.3927,-26.1751 L 61.3227,-26.025
 L 61.2277,-25.8893 L 61.1106,-25.7722 L 60.975,-25.6773 L 60.8249,-25.6073 L 60.665,-25.5644 L 60.5,-25.55
 z
M 11.335,-25.5644 L 11.1751,-25.6073 L 11.025,-25.6773 L 10.8893,-25.7722 L 10.7722,-25.8893 L 10.6773,-26.025
 L 10.6073,-26.1751 L 10.5644,-26.335 L 10.55,-26.5 L 10.5644,-26.665 L 10.6073,-26.8249 L 10.6773,-26.975
 L 10.7722,-27.1106 L 10.8893,-27.2277 L 11.025,-27.3227 L 11.1751,-27.3927 L 11.335,-27.4356 L 11.5,-27.45
 L 11.665,-27.4356 L 11.8249,-27.3927 L 11.975,-27.3227 L 12.1106,-27.2277 L 12.2277,-27.1106 L 12.3227,-26.975
 L 12.3927,-26.8249 L 12.4356,-26.665 L 12.45,-26.5 L 12.4356,-26.335 L 12.3927,-26.1751 L 12.3227,-26.025
 L 12.2277,-25.8893 L 12.1106,-25.7722 L 11.975,-25.6773 L 11.8249,-25.6073 L 11.665,-25.5644 L 11.5,-25.55
 z
M 13.7763,-4.01518 L 13.608,-4.0603 L 13.45,-4.13397 L 13.3072,-4.23395 L 13.1839,-4.35721 L 13.084,-4.5
 L 13.0103,-4.65797 L 12.9652,-4.82634 L 12.95,-5 L 12.9652,-5.17365 L 13.0103,-5.34201 L 13.084,-5.5
 L 13.1839,-5.64278 L 13.3072,-5.76604 L 13.45,-5.86601 L 13.608,-5.93968 L 13.7763,-5.9848 L 13.95,-6
 L 14.1236,-5.9848 L 14.292,-5.93968 L 14.45,-5.86601 L 14.5928,-5.76604 L 14.716,-5.64278 L 14.816,-5.5
 L 14.8897,-5.34201 L 14.9348,-5.17365 L 14.95,-5 L 14.9348,-4.82634 L 14.8897,-4.65797 L 14.816,-4.5
 L 14.716,-4.35721 L 14.5928,-4.23395 L 14.45,-4.13397 L 14.292,-4.0603 L 14.1236,-4.01518 L 13.95,-4
 z
M 80.7764,-4.01518 L 80.608,-4.0603 L 80.45,-4.13397 L 80.3072,-4.23395 L 80.1839,-4.35721 L 80.084,-4.5
 L 80.0103,-4.65797 L 79.9652,-4.82634 L 79.95,-5 L 79.9652,-5.17365 L 80.0103,-5.34201 L 80.084,-5.5
 L 80.1839,-5.64278 L 80.3072,-5.76604 L 80.45,-5.86601 L 80.608,-5.93968 L 80.7764,-5.9848 L 80.95,-6
 L 81.1236,-5.9848 L 81.292,-5.93968 L 81.45,-5.86601 L 81.5928,-5.76604 L 81.716,-5.64278 L 81.816,-5.5
 L 81.8897,-5.34201 L 81.9348,-5.17365 L 81.95,-5 L 81.9348,-4.82634 L 81.8897,-4.65797 L 81.816,-4.5
 L 81.716,-4.35721 L 81.5928,-4.23395 L 81.45,-4.13397 L 81.292,-4.0603 L 81.1236,-4.01518 L 80.95,-4
 z
" stroke="black" fill="lightgray" stroke-width="0.5"/>
</svg>
