  0
SECTION
  2
BLOCKS
  0
ENDSEC
  0
SECTION
  2
ENTITIES
  0
LINE
  8
0
 10
19.805
 20
11.0133
 11
20.1078
 21
11.0532
  0
LINE
  8
0
 10
20.1078
 20
11.0532
 11
20.4059
 21
11.1192
  0
LINE
  8
0
 10
20.4059
 20
11.1192
 11
20.6971
 21
11.2111
  0
LINE
  8
0
 10
20.6971
 20
11.2111
 11
20.9792
 21
11.3279
  0
LINE
  8
0
 10
20.9792
 20
11.3279
 11
21.25
 21
11.4689
  0
LINE
  8
0
 10
21.25
 20
11.4689
 11
21.5075
 21
11.633
  0
LINE
  8
0
 10
21.5075
 20
11.633
 11
21.7498
 21
11.8188
  0
LINE
  8
0
 10
21.7498
 20
11.8188
 11
21.9749
 21
12.0251
  0
LINE
  8
0
 10
21.9749
 20
12.0251
 11
22.1812
 21
12.2502
  0
LINE
  8
0
 10
22.1812
 20
12.2502
 11
22.367
 21
12.4925
  0
LINE
  8
0
 10
22.367
 20
12.4925
 11
22.5311
 21
12.75
  0
LINE
  8
0
 10
22.5311
 20
12.75
 11
22.6721
 21
13.0208
  0
LINE
  8
0
 10
22.6721
 20
13.0208
 11
22.7889
 21
13.3029
  0
LINE
  8
0
 10
22.7889
 20
13.3029
 11
22.8807
 21
13.5941
  0
LINE
  8
0
 10
22.8807
 20
13.5941
 11
22.9468
 21
13.8922
  0
LINE
  8
0
 10
22.9468
 20
13.8922
 11
22.9867
 21
14.1949
  0
LINE
  8
0
 10
22.9867
 20
14.1949
 11
23
 21
14.5
  0
LINE
  8
0
 10
23
 20
14.5
 11
23
 21
35.5
  0
LINE
  8
0
 10
23
 20
35.5
 11
37
 21
35.5
  0
LINE
  8
0
 10
37
 20
35.5
 11
37.305
 21
35.5133
  0
LINE
  8
0
 10
37.305
 20
35.5133
 11
37.6078
 21
35.5532
  0
LINE
  8
0
 10
37.6078
 20
35.5532
 11
37.9059
 21
35.6192
  0
LINE
  8
0
 10
37.9059
 20
35.6192
 11
38.1971
 21
35.7111
  0
LINE
  8
0
 10
38.1971
 20
35.7111
 11
38.4792
 21
35.8279
  0
LINE
  8
0
 10
38.4792
 20
35.8279
 11
38.75
 21
35.9689
  0
LINE
  8
0
 10
38.75
 20
35.9689
 11
39.0075
 21
36.133
  0
LINE
  8
0
 10
39.0075
 20
36.133
 11
39.2498
 21
36.3188
  0
LINE
  8
0
 10
39.2498
 20
36.3188
 11
39.4749
 21
36.5251
  0
LINE
  8
0
 10
39.4749
 20
36.5251
 11
39.6812
 21
36.7502
  0
LINE
  8
0
 10
39.6812
 20
36.7502
 11
39.867
 21
36.9925
  0
LINE
  8
0
 10
39.867
 20
36.9925
 11
40.0311
 21
37.25
  0
LINE
  8
0
 10
40.0311
 20
37.25
 11
40.1721
 21
37.5208
  0
LINE
  8
0
 10
40.1721
 20
37.5208
 11
40.2889
 21
37.8029
  0
LINE
  8
0
 10
40.2889
 20
37.8029
 11
40.3807
 21
38.0941
  0
LINE
  8
0
 10
40.3807
 20
38.0941
 11
40.4468
 21
38.3922
  0
LINE
  8
0
 10
40.4468
 20
38.3922
 11
40.4867
 21
38.6949
  0
LINE
  8
0
 10
40.4867
 20
38.6949
 11
40.5
 21
39
  0
LINE
  8
0
 10
40.5
 20
39
 11
40.5
 21
72.5
  0
LINE
  8
0
 10
40.5
 20
72.5
 11
40.4867
 21
72.805
  0
LINE
  8
0
 10
40.4867
 20
72.805
 11
40.4468
 21
73.1078
  0
LINE
  8
0
 10
40.4468
 20
73.1078
 11
40.3807
 21
73.4059
  0
LINE
  8
0
 10
40.3807
 20
73.4059
 11
40.2889
 21
73.6971
  0
LINE
  8
0
 10
40.2889
 20
73.6971
 11
40.1721
 21
73.9792
  0
LINE
  8
0
 10
40.1721
 20
73.9792
 11
40.0311
 21
74.25
  0
LINE
  8
0
 10
40.0311
 20
74.25
 11
39.867
 21
74.5075
  0
LINE
  8
0
 10
39.867
 20
74.5075
 11
39.6812
 21
74.7498
  0
LINE
  8
0
 10
39.6812
 20
74.7498
 11
39.4749
 21
74.9749
  0
LINE
  8
0
 10
39.4749
 20
74.9749
 11
39.2498
 21
75.1812
  0
LINE
  8
0
 10
39.2498
 20
75.1812
 11
39.0075
 21
75.367
  0
LINE
  8
0
 10
39.0075
 20
75.367
 11
38.75
 21
75.5311
  0
LINE
  8
0
 10
38.75
 20
75.5311
 11
38.4792
 21
75.6721
  0
LINE
  8
0
 10
38.4792
 20
75.6721
 11
38.1971
 21
75.7889
  0
LINE
  8
0
 10
38.1971
 20
75.7889
 11
37.9059
 21
75.8807
  0
LINE
  8
0
 10
37.9059
 20
75.8807
 11
37.6078
 21
75.9468
  0
LINE
  8
0
 10
37.6078
 20
75.9468
 11
37.305
 21
75.9867
  0
LINE
  8
0
 10
37.305
 20
75.9867
 11
37
 21
76
  0
LINE
  8
0
 10
37
 20
76
 11
11.5
 21
76
  0
LINE
  8
0
 10
11.5
 20
76
 11
11.1949
 21
75.9867
  0
LINE
  8
0
 10
11.1949
 20
75.9867
 11
10.8922
 21
75.9468
  0
LINE
  8
0
 10
10.8922
 20
75.9468
 11
10.5941
 21
75.8807
  0
LINE
  8
0
 10
10.5941
 20
75.8807
 11
10.3029
 21
75.7889
  0
LINE
  8
0
 10
10.3029
 20
75.7889
 11
10.0208
 21
75.6721
  0
LINE
  8
0
 10
10.0208
 20
75.6721
 11
9.75
 21
75.5311
  0
LINE
  8
0
 10
9.75
 20
75.5311
 11
9.49248
 21
75.367
  0
LINE
  8
0
 10
9.49248
 20
75.367
 11
9.25023
 21
75.1812
  0
LINE
  8
0
 10
9.25023
 20
75.1812
 11
9.02512
 21
74.9749
  0
LINE
  8
0
 10
9.02512
 20
74.9749
 11
8.81883
 21
74.7498
  0
LINE
  8
0
 10
8.81883
 20
74.7498
 11
8.63297
 21
74.5075
  0
LINE
  8
0
 10
8.63297
 20
74.5075
 11
8.4689
 21
74.25
  0
LINE
  8
0
 10
8.4689
 20
74.25
 11
8.32791
 21
73.9792
  0
LINE
  8
0
 10
8.32791
 20
73.9792
 11
8.21107
 21
73.6971
  0
LINE
  8
0
 10
8.21107
 20
73.6971
 11
8.11925
 21
73.4059
  0
LINE
  8
0
 10
8.11925
 20
73.4059
 11
8.05316
 21
73.1078
  0
LINE
  8
0
 10
8.05316
 20
73.1078
 11
8.01331
 21
72.805
  0
LINE
  8
0
 10
8.01331
 20
72.805
 11
8
 21
72.5
  0
LINE
  8
0
 10
8
 20
72.5
 11
8.01331
 21
72.1949
  0
LINE
  8
0
 10
8.01331
 20
72.1949
 11
8.05316
 21
71.8922
  0
LINE
  8
0
 10
8.05316
 20
71.8922
 11
8.11925
 21
71.5941
  0
LINE
  8
0
 10
8.11925
 20
71.5941
 11
8.21107
 21
71.3029
  0
LINE
  8
0
 10
8.21107
 20
71.3029
 11
8.32791
 21
71.0208
  0
LINE
  8
0
 10
8.32791
 20
71.0208
 11
8.4689
 21
70.75
  0
LINE
  8
0
 10
8.4689
 20
70.75
 11
8.63297
 21
70.4925
  0
LINE
  8
0
 10
8.63297
 20
70.4925
 11
8.81883
 21
70.2502
  0
LINE
  8
0
 10
8.81883
 20
70.2502
 11
9.02512
 21
70.0251
  0
LINE
  8
0
 10
9.02512
 20
70.0251
 11
9.25023
 21
69.8188
  0
LINE
  8
0
 10
9.25023
 20
69.8188
 11
9.49248
 21
69.633
  0
LINE
  8
0
 10
9.49248
 20
69.633
 11
9.75
 21
69.4689
  0
LINE
  8
0
 10
9.75
 20
69.4689
 11
10.0208
 21
69.3279
  0
LINE
  8
0
 10
10.0208
 20
69.3279
 11
10.3029
 21
69.2111
  0
LINE
  8
0
 10
10.3029
 20
69.2111
 11
10.5941
 21
69.1193
  0
LINE
  8
0
 10
10.5941
 20
69.1193
 11
10.8922
 21
69.0532
  0
LINE
  8
0
 10
10.8922
 20
69.0532
 11
11.1949
 21
69.0133
  0
LINE
  8
0
 10
11.1949
 20
69.0133
 11
11.5
 21
69
  0
LINE
  8
0
 10
11.5
 20
69
 11
15.3
 21
69
  0
LINE
  8
0
 10
15.3
 20
69
 11
15.3
 21
66.4
  0
LINE
  8
0
 10
15.3
 20
66.4
 11
15.3076
 21
66.2257
  0
LINE
  8
0
 10
15.3076
 20
66.2257
 11
15.3304
 21
66.0527
  0
LINE
  8
0
 10
15.3304
 20
66.0527
 11
15.3681
 21
65.8824
  0
LINE
  8
0
 10
15.3681
 20
65.8824
 11
15.4206
 21
65.716
  0
LINE
  8
0
 10
15.4206
 20
65.716
 11
15.4874
 21
65.5548
  0
LINE
  8
0
 10
15.4874
 20
65.5548
 11
15.5679
 21
65.4
  0
LINE
  8
0
 10
15.5679
 20
65.4
 11
15.6617
 21
65.2528
  0
LINE
  8
0
 10
15.6617
 20
65.2528
 11
15.7679
 21
65.1144
  0
LINE
  8
0
 10
15.7679
 20
65.1144
 11
15.8858
 21
64.9858
  0
LINE
  8
0
 10
15.8858
 20
64.9858
 11
16.0144
 21
64.8679
  0
LINE
  8
0
 10
16.0144
 20
64.8679
 11
16.1528
 21
64.7617
  0
LINE
  8
0
 10
16.1528
 20
64.7617
 11
16.3
 21
64.6679
  0
LINE
  8
0
 10
16.3
 20
64.6679
 11
16.4548
 21
64.5874
  0
LINE
  8
0
 10
16.4548
 20
64.5874
 11
16.616
 21
64.5206
  0
LINE
  8
0
 10
16.616
 20
64.5206
 11
16.7823
 21
64.4681
  0
LINE
  8
0
 10
16.7823
 20
64.4681
 11
16.9527
 21
64.4304
  0
LINE
  8
0
 10
16.9527
 20
64.4304
 11
17.1257
 21
64.4076
  0
LINE
  8
0
 10
17.1257
 20
64.4076
 11
17.3
 21
64.4
  0
LINE
  8
0
 10
17.3
 20
64.4
 11
17.4743
 21
64.4076
  0
LINE
  8
0
 10
17.4743
 20
64.4076
 11
17.6473
 21
64.4304
  0
LINE
  8
0
 10
17.6473
 20
64.4304
 11
17.8176
 21
64.4681
  0
LINE
  8
0
 10
17.8176
 20
64.4681
 11
17.984
 21
64.5206
  0
LINE
  8
0
 10
17.984
 20
64.5206
 11
18.1452
 21
64.5874
  0
LINE
  8
0
 10
18.1452
 20
64.5874
 11
18.3
 21
64.6679
  0
LINE
  8
0
 10
18.3
 20
64.6679
 11
18.4471
 21
64.7617
  0
LINE
  8
0
 10
18.4471
 20
64.7617
 11
18.5856
 21
64.8679
  0
LINE
  8
0
 10
18.5856
 20
64.8679
 11
18.7142
 21
64.9858
  0
LINE
  8
0
 10
18.7142
 20
64.9858
 11
18.8321
 21
65.1144
  0
LINE
  8
0
 10
18.8321
 20
65.1144
 11
18.9383
 21
65.2528
  0
LINE
  8
0
 10
18.9383
 20
65.2528
 11
19.032
 21
65.4
  0
LINE
  8
0
 10
19.032
 20
65.4
 11
19.1126
 21
65.5548
  0
LINE
  8
0
 10
19.1126
 20
65.5548
 11
19.1794
 21
65.716
  0
LINE
  8
0
 10
19.1794
 20
65.716
 11
19.2318
 21
65.8824
  0
LINE
  8
0
 10
19.2318
 20
65.8824
 11
19.2696
 21
66.0527
  0
LINE
  8
0
 10
19.2696
 20
66.0527
 11
19.2924
 21
66.2257
  0
LINE
  8
0
 10
19.2924
 20
66.2257
 11
19.3
 21
66.4
  0
LINE
  8
0
 10
19.3
 20
66.4
 11
19.3
 21
69
  0
LINE
  8
0
 10
19.3
 20
69
 11
33.5
 21
69
  0
LINE
  8
0
 10
33.5
 20
69
 11
33.5
 21
42.5
  0
LINE
  8
0
 10
33.5
 20
42.5
 11
19.5
 21
42.5
  0
LINE
  8
0
 10
19.5
 20
42.5
 11
19.3
 21
42.4913
  0
LINE
  8
0
 10
19.3
 20
42.4913
 11
19.3
 21
45.2
  0
LINE
  8
0
 10
19.3
 20
45.2
 11
19.2924
 21
45.3743
  0
LINE
  8
0
 10
19.2924
 20
45.3743
 11
19.2696
 21
45.5473
  0
LINE
  8
0
 10
19.2696
 20
45.5473
 11
19.2318
 21
45.7176
  0
LINE
  8
0
 10
19.2318
 20
45.7176
 11
19.1794
 21
45.884
  0
LINE
  8
0
 10
19.1794
 20
45.884
 11
19.1126
 21
46.0452
  0
LINE
  8
0
 10
19.1126
 20
46.0452
 11
19.032
 21
46.2
  0
LINE
  8
0
 10
19.032
 20
46.2
 11
18.9383
 21
46.3472
  0
LINE
  8
0
 10
18.9383
 20
46.3472
 11
18.8321
 21
46.4856
  0
LINE
  8
0
 10
18.8321
 20
46.4856
 11
18.7142
 21
46.6142
  0
LINE
  8
0
 10
18.7142
 20
46.6142
 11
18.5856
 21
46.7321
  0
LINE
  8
0
 10
18.5856
 20
46.7321
 11
18.4471
 21
46.8383
  0
LINE
  8
0
 10
18.4471
 20
46.8383
 11
18.3
 21
46.932
  0
LINE
  8
0
 10
18.3
 20
46.932
 11
18.1452
 21
47.0126
  0
LINE
  8
0
 10
18.1452
 20
47.0126
 11
17.984
 21
47.0794
  0
LINE
  8
0
 10
17.984
 20
47.0794
 11
17.8176
 21
47.1319
  0
LINE
  8
0
 10
17.8176
 20
47.1319
 11
17.6473
 21
47.1696
  0
LINE
  8
0
 10
17.6473
 20
47.1696
 11
17.4743
 21
47.1924
  0
LINE
  8
0
 10
17.4743
 20
47.1924
 11
17.3
 21
47.2
  0
LINE
  8
0
 10
17.3
 20
47.2
 11
17.1257
 21
47.1924
  0
LINE
  8
0
 10
17.1257
 20
47.1924
 11
16.9527
 21
47.1696
  0
LINE
  8
0
 10
16.9527
 20
47.1696
 11
16.7823
 21
47.1319
  0
LINE
  8
0
 10
16.7823
 20
47.1319
 11
16.616
 21
47.0794
  0
LINE
  8
0
 10
16.616
 20
47.0794
 11
16.4548
 21
47.0126
  0
LINE
  8
0
 10
16.4548
 20
47.0126
 11
16.3
 21
46.932
  0
LINE
  8
0
 10
16.3
 20
46.932
 11
16.1528
 21
46.8383
  0
LINE
  8
0
 10
16.1528
 20
46.8383
 11
16.0144
 21
46.7321
  0
LINE
  8
0
 10
16.0144
 20
46.7321
 11
15.8858
 21
46.6142
  0
LINE
  8
0
 10
15.8858
 20
46.6142
 11
15.7679
 21
46.4856
  0
LINE
  8
0
 10
15.7679
 20
46.4856
 11
15.6617
 21
46.3472
  0
LINE
  8
0
 10
15.6617
 20
46.3472
 11
15.5679
 21
46.2
  0
LINE
  8
0
 10
15.5679
 20
46.2
 11
15.4874
 21
46.0452
  0
LINE
  8
0
 10
15.4874
 20
46.0452
 11
15.4206
 21
45.884
  0
LINE
  8
0
 10
15.4206
 20
45.884
 11
15.3681
 21
45.7176
  0
LINE
  8
0
 10
15.3681
 20
45.7176
 11
15.3304
 21
45.5473
  0
LINE
  8
0
 10
15.3304
 20
45.5473
 11
15.3076
 21
45.3743
  0
LINE
  8
0
 10
15.3076
 20
45.3743
 11
15.3
 21
45.2
  0
LINE
  8
0
 10
15.3
 20
45.2
 11
15.3
 21
41.2
  0
LINE
  8
0
 10
15.3
 20
41.2
 11
15.3076
 21
41.0257
  0
LINE
  8
0
 10
15.3076
 20
41.0257
 11
15.3304
 21
40.8527
  0
LINE
  8
0
 10
15.3304
 20
40.8527
 11
15.3681
 21
40.6824
  0
LINE
  8
0
 10
15.3681
 20
40.6824
 11
15.4206
 21
40.516
  0
LINE
  8
0
 10
15.4206
 20
40.516
 11
15.4874
 21
40.3548
  0
LINE
  8
0
 10
15.4874
 20
40.3548
 11
15.5679
 21
40.2
  0
LINE
  8
0
 10
15.5679
 20
40.2
 11
15.6617
 21
40.0528
  0
LINE
  8
0
 10
15.6617
 20
40.0528
 11
15.7679
 21
39.9144
  0
LINE
  8
0
 10
15.7679
 20
39.9144
 11
15.8858
 21
39.7858
  0
LINE
  8
0
 10
15.8858
 20
39.7858
 11
16.0551
 21
39.6165
  0
LINE
  8
0
 10
16.0551
 20
39.6165
 11
16.0532
 21
39.6078
  0
LINE
  8
0
 10
16.0532
 20
39.6078
 11
16.0133
 21
39.305
  0
LINE
  8
0
 10
16.0133
 20
39.305
 11
16
 21
39
  0
LINE
  8
0
 10
16
 20
39
 11
16
 21
18
  0
LINE
  8
0
 10
16
 20
18
 11
11.5
 21
18
  0
LINE
  8
0
 10
11.5
 20
18
 11
11.1949
 21
17.9867
  0
LINE
  8
0
 10
11.1949
 20
17.9867
 11
10.8922
 21
17.9468
  0
LINE
  8
0
 10
10.8922
 20
17.9468
 11
10.5941
 21
17.8807
  0
LINE
  8
0
 10
10.5941
 20
17.8807
 11
10.3029
 21
17.7889
  0
LINE
  8
0
 10
10.3029
 20
17.7889
 11
10.0208
 21
17.6721
  0
LINE
  8
0
 10
10.0208
 20
17.6721
 11
9.75
 21
17.5311
  0
LINE
  8
0
 10
9.75
 20
17.5311
 11
9.49248
 21
17.367
  0
LINE
  8
0
 10
9.49248
 20
17.367
 11
9.25023
 21
17.1812
  0
LINE
  8
0
 10
9.25023
 20
17.1812
 11
9.02512
 21
16.9749
  0
LINE
  8
0
 10
9.02512
 20
16.9749
 11
8.81883
 21
16.7498
  0
LINE
  8
0
 10
8.81883
 20
16.7498
 11
8.63297
 21
16.5075
  0
LINE
  8
0
 10
8.63297
 20
16.5075
 11
8.4689
 21
16.25
  0
LINE
  8
0
 10
8.4689
 20
16.25
 11
8.32791
 21
15.9792
  0
LINE
  8
0
 10
8.32791
 20
15.9792
 11
8.21107
 21
15.6971
  0
LINE
  8
0
 10
8.21107
 20
15.6971
 11
8.11925
 21
15.4059
  0
LINE
  8
0
 10
8.11925
 20
15.4059
 11
8.05316
 21
15.1078
  0
LINE
  8
0
 10
8.05316
 20
15.1078
 11
8.01331
 21
14.805
  0
LINE
  8
0
 10
8.01331
 20
14.805
 11
8
 21
14.5
  0
LINE
  8
0
 10
8
 20
14.5
 11
8.01331
 21
14.1949
  0
LINE
  8
0
 10
8.01331
 20
14.1949
 11
8.05316
 21
13.8922
  0
LINE
  8
0
 10
8.05316
 20
13.8922
 11
8.11925
 21
13.5941
  0
LINE
  8
0
 10
8.11925
 20
13.5941
 11
8.21107
 21
13.3029
  0
LINE
  8
0
 10
8.21107
 20
13.3029
 11
8.32791
 21
13.0208
  0
LINE
  8
0
 10
8.32791
 20
13.0208
 11
8.4689
 21
12.75
  0
LINE
  8
0
 10
8.4689
 20
12.75
 11
8.63297
 21
12.4925
  0
LINE
  8
0
 10
8.63297
 20
12.4925
 11
8.81883
 21
12.2502
  0
LINE
  8
0
 10
8.81883
 20
12.2502
 11
9.02512
 21
12.0251
  0
LINE
  8
0
 10
9.02512
 20
12.0251
 11
9.25023
 21
11.8188
  0
LINE
  8
0
 10
9.25023
 20
11.8188
 11
9.49248
 21
11.633
  0
LINE
  8
0
 10
9.49248
 20
11.633
 11
9.75
 21
11.4689
  0
LINE
  8
0
 10
9.75
 20
11.4689
 11
10.0208
 21
11.3279
  0
LINE
  8
0
 10
10.0208
 20
11.3279
 11
10.3029
 21
11.2111
  0
LINE
  8
0
 10
10.3029
 20
11.2111
 11
10.5941
 21
11.1192
  0
LINE
  8
0
 10
10.5941
 20
11.1192
 11
10.8922
 21
11.0532
  0
LINE
  8
0
 10
10.8922
 20
11.0532
 11
11.1949
 21
11.0133
  0
LINE
  8
0
 10
11.1949
 20
11.0133
 11
11.5
 21
11
  0
LINE
  8
0
 10
11.5
 20
11
 11
19.5
 21
11
  0
LINE
  8
0
 10
19.5
 20
11
 11
19.805
 21
11.0133
  0
LINE
  8
0
 10
11.3911
 20
71.2547
 11
11.2829
 21
71.269
  0
LINE
  8
0
 10
11.2829
 20
71.269
 11
11.1765
 21
71.2926
  0
LINE
  8
0
 10
11.1765
 20
71.2926
 11
11.0725
 21
71.3254
  0
LINE
  8
0
 10
11.0725
 20
71.3254
 11
10.9717
 21
71.3671
  0
LINE
  8
0
 10
10.9717
 20
71.3671
 11
10.875
 21
71.4175
  0
LINE
  8
0
 10
10.875
 20
71.4175
 11
10.783
 21
71.4761
  0
LINE
  8
0
 10
10.783
 20
71.4761
 11
10.6965
 21
71.5424
  0
LINE
  8
0
 10
10.6965
 20
71.5424
 11
10.6161
 21
71.6161
  0
LINE
  8
0
 10
10.6161
 20
71.6161
 11
10.5424
 21
71.6965
  0
LINE
  8
0
 10
10.5424
 20
71.6965
 11
10.4761
 21
71.783
  0
LINE
  8
0
 10
10.4761
 20
71.783
 11
10.4175
 21
71.875
  0
LINE
  8
0
 10
10.4175
 20
71.875
 11
10.3671
 21
71.9717
  0
LINE
  8
0
 10
10.3671
 20
71.9717
 11
10.3254
 21
72.0725
  0
LINE
  8
0
 10
10.3254
 20
72.0725
 11
10.2926
 21
72.1765
  0
LINE
  8
0
 10
10.2926
 20
72.1765
 11
10.269
 21
72.2829
  0
LINE
  8
0
 10
10.269
 20
72.2829
 11
10.2547
 21
72.3911
  0
LINE
  8
0
 10
10.2547
 20
72.3911
 11
10.25
 21
72.5
  0
LINE
  8
0
 10
10.25
 20
72.5
 11
10.2547
 21
72.6089
  0
LINE
  8
0
 10
10.2547
 20
72.6089
 11
10.269
 21
72.7171
  0
LINE
  8
0
 10
10.269
 20
72.7171
 11
10.2926
 21
72.8235
  0
LINE
  8
0
 10
10.2926
 20
72.8235
 11
10.3254
 21
72.9275
  0
LINE
  8
0
 10
10.3254
 20
72.9275
 11
10.3671
 21
73.0283
  0
LINE
  8
0
 10
10.3671
 20
73.0283
 11
10.4175
 21
73.125
  0
LINE
  8
0
 10
10.4175
 20
73.125
 11
10.4761
 21
73.217
  0
LINE
  8
0
 10
10.4761
 20
73.217
 11
10.5424
 21
73.3035
  0
LINE
  8
0
 10
10.5424
 20
73.3035
 11
10.6161
 21
73.3839
  0
LINE
  8
0
 10
10.6161
 20
73.3839
 11
10.6965
 21
73.4576
  0
LINE
  8
0
 10
10.6965
 20
73.4576
 11
10.783
 21
73.5239
  0
LINE
  8
0
 10
10.783
 20
73.5239
 11
10.875
 21
73.5825
  0
LINE
  8
0
 10
10.875
 20
73.5825
 11
10.9717
 21
73.6329
  0
LINE
  8
0
 10
10.9717
 20
73.6329
 11
11.0725
 21
73.6746
  0
LINE
  8
0
 10
11.0725
 20
73.6746
 11
11.1765
 21
73.7074
  0
LINE
  8
0
 10
11.1765
 20
73.7074
 11
11.2829
 21
73.731
  0
LINE
  8
0
 10
11.2829
 20
73.731
 11
11.3911
 21
73.7452
  0
LINE
  8
0
 10
11.3911
 20
73.7452
 11
11.5
 21
73.75
  0
LINE
  8
0
 10
11.5
 20
73.75
 11
11.6089
 21
73.7452
  0
LINE
  8
0
 10
11.6089
 20
73.7452
 11
11.7171
 21
73.731
  0
LINE
  8
0
 10
11.7171
 20
73.731
 11
11.8235
 21
73.7074
  0
LINE
  8
0
 10
11.8235
 20
73.7074
 11
11.9275
 21
73.6746
  0
LINE
  8
0
 10
11.9275
 20
73.6746
 11
12.0283
 21
73.6329
  0
LINE
  8
0
 10
12.0283
 20
73.6329
 11
12.125
 21
73.5825
  0
LINE
  8
0
 10
12.125
 20
73.5825
 11
12.217
 21
73.5239
  0
LINE
  8
0
 10
12.217
 20
73.5239
 11
12.3035
 21
73.4576
  0
LINE
  8
0
 10
12.3035
 20
73.4576
 11
12.3839
 21
73.3839
  0
LINE
  8
0
 10
12.3839
 20
73.3839
 11
12.4576
 21
73.3035
  0
LINE
  8
0
 10
12.4576
 20
73.3035
 11
12.5239
 21
73.217
  0
LINE
  8
0
 10
12.5239
 20
73.217
 11
12.5825
 21
73.125
  0
LINE
  8
0
 10
12.5825
 20
73.125
 11
12.6329
 21
73.0283
  0
LINE
  8
0
 10
12.6329
 20
73.0283
 11
12.6746
 21
72.9275
  0
LINE
  8
0
 10
12.6746
 20
72.9275
 11
12.7074
 21
72.8235
  0
LINE
  8
0
 10
12.7074
 20
72.8235
 11
12.731
 21
72.7171
  0
LINE
  8
0
 10
12.731
 20
72.7171
 11
12.7452
 21
72.6089
  0
LINE
  8
0
 10
12.7452
 20
72.6089
 11
12.75
 21
72.5
  0
LINE
  8
0
 10
12.75
 20
72.5
 11
12.7452
 21
72.3911
  0
LINE
  8
0
 10
12.7452
 20
72.3911
 11
12.731
 21
72.2829
  0
LINE
  8
0
 10
12.731
 20
72.2829
 11
12.7074
 21
72.1765
  0
LINE
  8
0
 10
12.7074
 20
72.1765
 11
12.6746
 21
72.0725
  0
LINE
  8
0
 10
12.6746
 20
72.0725
 11
12.6329
 21
71.9717
  0
LINE
  8
0
 10
12.6329
 20
71.9717
 11
12.5825
 21
71.875
  0
LINE
  8
0
 10
12.5825
 20
71.875
 11
12.5239
 21
71.783
  0
LINE
  8
0
 10
12.5239
 20
71.783
 11
12.4576
 21
71.6965
  0
LINE
  8
0
 10
12.4576
 20
71.6965
 11
12.3839
 21
71.6161
  0
LINE
  8
0
 10
12.3839
 20
71.6161
 11
12.3035
 21
71.5424
  0
LINE
  8
0
 10
12.3035
 20
71.5424
 11
12.217
 21
71.4761
  0
LINE
  8
0
 10
12.217
 20
71.4761
 11
12.125
 21
71.4175
  0
LINE
  8
0
 10
12.125
 20
71.4175
 11
12.0283
 21
71.3671
  0
LINE
  8
0
 10
12.0283
 20
71.3671
 11
11.9275
 21
71.3254
  0
LINE
  8
0
 10
11.9275
 20
71.3254
 11
11.8235
 21
71.2926
  0
LINE
  8
0
 10
11.8235
 20
71.2926
 11
11.7171
 21
71.269
  0
LINE
  8
0
 10
11.7171
 20
71.269
 11
11.6089
 21
71.2547
  0
LINE
  8
0
 10
11.6089
 20
71.2547
 11
11.5
 21
71.25
  0
LINE
  8
0
 10
11.5
 20
71.25
 11
11.3911
 21
71.2547
  0
LINE
  8
0
 10
17.239
 20
65.7027
 11
17.1784
 21
65.7106
  0
LINE
  8
0
 10
17.1784
 20
65.7106
 11
17.1188
 21
65.7238
  0
LINE
  8
0
 10
17.1188
 20
65.7238
 11
17.0606
 21
65.7422
  0
LINE
  8
0
 10
17.0606
 20
65.7422
 11
17.0042
 21
65.7656
  0
LINE
  8
0
 10
17.0042
 20
65.7656
 11
16.95
 21
65.7938
  0
LINE
  8
0
 10
16.95
 20
65.7938
 11
16.8985
 21
65.8266
  0
LINE
  8
0
 10
16.8985
 20
65.8266
 11
16.85
 21
65.8638
  0
LINE
  8
0
 10
16.85
 20
65.8638
 11
16.805
 21
65.905
  0
LINE
  8
0
 10
16.805
 20
65.905
 11
16.7638
 21
65.95
  0
LINE
  8
0
 10
16.7638
 20
65.95
 11
16.7266
 21
65.9985
  0
LINE
  8
0
 10
16.7266
 20
65.9985
 11
16.6938
 21
66.05
  0
LINE
  8
0
 10
16.6938
 20
66.05
 11
16.6656
 21
66.1042
  0
LINE
  8
0
 10
16.6656
 20
66.1042
 11
16.6422
 21
66.1606
  0
LINE
  8
0
 10
16.6422
 20
66.1606
 11
16.6238
 21
66.2188
  0
LINE
  8
0
 10
16.6238
 20
66.2188
 11
16.6106
 21
66.2784
  0
LINE
  8
0
 10
16.6106
 20
66.2784
 11
16.6027
 21
66.339
  0
LINE
  8
0
 10
16.6027
 20
66.339
 11
16.6
 21
66.4
  0
LINE
  8
0
 10
16.6
 20
66.4
 11
16.6027
 21
66.461
  0
LINE
  8
0
 10
16.6027
 20
66.461
 11
16.6106
 21
66.5215
  0
LINE
  8
0
 10
16.6106
 20
66.5215
 11
16.6238
 21
66.5812
  0
LINE
  8
0
 10
16.6238
 20
66.5812
 11
16.6422
 21
66.6394
  0
LINE
  8
0
 10
16.6422
 20
66.6394
 11
16.6656
 21
66.6958
  0
LINE
  8
0
 10
16.6656
 20
66.6958
 11
16.6938
 21
66.75
  0
LINE
  8
0
 10
16.6938
 20
66.75
 11
16.7266
 21
66.8015
  0
LINE
  8
0
 10
16.7266
 20
66.8015
 11
16.7638
 21
66.8499
  0
LINE
  8
0
 10
16.7638
 20
66.8499
 11
16.805
 21
66.895
  0
LINE
  8
0
 10
16.805
 20
66.895
 11
16.85
 21
66.9362
  0
LINE
  8
0
 10
16.85
 20
66.9362
 11
16.8985
 21
66.9734
  0
LINE
  8
0
 10
16.8985
 20
66.9734
 11
16.95
 21
67.0062
  0
LINE
  8
0
 10
16.95
 20
67.0062
 11
17.0042
 21
67.0344
  0
LINE
  8
0
 10
17.0042
 20
67.0344
 11
17.0606
 21
67.0578
  0
LINE
  8
0
 10
17.0606
 20
67.0578
 11
17.1188
 21
67.0761
  0
LINE
  8
0
 10
17.1188
 20
67.0761
 11
17.1784
 21
67.0894
  0
LINE
  8
0
 10
17.1784
 20
67.0894
 11
17.239
 21
67.0973
  0
LINE
  8
0
 10
17.239
 20
67.0973
 11
17.3
 21
67.1
  0
LINE
  8
0
 10
17.3
 20
67.1
 11
17.361
 21
67.0973
  0
LINE
  8
0
 10
17.361
 20
67.0973
 11
17.4215
 21
67.0894
  0
LINE
  8
0
 10
17.4215
 20
67.0894
 11
17.4812
 21
67.0761
  0
LINE
  8
0
 10
17.4812
 20
67.0761
 11
17.5394
 21
67.0578
  0
LINE
  8
0
 10
17.5394
 20
67.0578
 11
17.5958
 21
67.0344
  0
LINE
  8
0
 10
17.5958
 20
67.0344
 11
17.65
 21
67.0062
  0
LINE
  8
0
 10
17.65
 20
67.0062
 11
17.7015
 21
66.9734
  0
LINE
  8
0
 10
17.7015
 20
66.9734
 11
17.7499
 21
66.9362
  0
LINE
  8
0
 10
17.7499
 20
66.9362
 11
17.795
 21
66.895
  0
LINE
  8
0
 10
17.795
 20
66.895
 11
17.8362
 21
66.8499
  0
LINE
  8
0
 10
17.8362
 20
66.8499
 11
17.8734
 21
66.8015
  0
LINE
  8
0
 10
17.8734
 20
66.8015
 11
17.9062
 21
66.75
  0
LINE
  8
0
 10
17.9062
 20
66.75
 11
17.9344
 21
66.6958
  0
LINE
  8
0
 10
17.9344
 20
66.6958
 11
17.9578
 21
66.6394
  0
LINE
  8
0
 10
17.9578
 20
66.6394
 11
17.9761
 21
66.5812
  0
LINE
  8
0
 10
17.9761
 20
66.5812
 11
17.9894
 21
66.5215
  0
LINE
  8
0
 10
17.9894
 20
66.5215
 11
17.9973
 21
66.461
  0
LINE
  8
0
 10
17.9973
 20
66.461
 11
18
 21
66.4
  0
LINE
  8
0
 10
18
 20
66.4
 11
17.9973
 21
66.339
  0
LINE
  8
0
 10
17.9973
 20
66.339
 11
17.9894
 21
66.2784
  0
LINE
  8
0
 10
17.9894
 20
66.2784
 11
17.9761
 21
66.2188
  0
LINE
  8
0
 10
17.9761
 20
66.2188
 11
17.9578
 21
66.1606
  0
LINE
  8
0
 10
17.9578
 20
66.1606
 11
17.9344
 21
66.1042
  0
LINE
  8
0
 10
17.9344
 20
66.1042
 11
17.9062
 21
66.05
  0
LINE
  8
0
 10
17.9062
 20
66.05
 11
17.8734
 21
65.9985
  0
LINE
  8
0
 10
17.8734
 20
65.9985
 11
17.8362
 21
65.95
  0
LINE
  8
0
 10
17.8362
 20
65.95
 11
17.795
 21
65.905
  0
LINE
  8
0
 10
17.795
 20
65.905
 11
17.7499
 21
65.8638
  0
LINE
  8
0
 10
17.7499
 20
65.8638
 11
17.7015
 21
65.8266
  0
LINE
  8
0
 10
17.7015
 20
65.8266
 11
17.65
 21
65.7938
  0
LINE
  8
0
 10
17.65
 20
65.7938
 11
17.5958
 21
65.7656
  0
LINE
  8
0
 10
17.5958
 20
65.7656
 11
17.5394
 21
65.7422
  0
LINE
  8
0
 10
17.5394
 20
65.7422
 11
17.4812
 21
65.7238
  0
LINE
  8
0
 10
17.4812
 20
65.7238
 11
17.4215
 21
65.7106
  0
LINE
  8
0
 10
17.4215
 20
65.7106
 11
17.361
 21
65.7027
  0
LINE
  8
0
 10
17.361
 20
65.7027
 11
17.3
 21
65.7
  0
LINE
  8
0
 10
17.3
 20
65.7
 11
17.239
 21
65.7027
  0
LINE
  8
0
 10
17.239
 20
44.5027
 11
17.1784
 21
44.5106
  0
LINE
  8
0
 10
17.1784
 20
44.5106
 11
17.1188
 21
44.5238
  0
LINE
  8
0
 10
17.1188
 20
44.5238
 11
17.0606
 21
44.5422
  0
LINE
  8
0
 10
17.0606
 20
44.5422
 11
17.0042
 21
44.5656
  0
LINE
  8
0
 10
17.0042
 20
44.5656
 11
16.95
 21
44.5938
  0
LINE
  8
0
 10
16.95
 20
44.5938
 11
16.8985
 21
44.6266
  0
LINE
  8
0
 10
16.8985
 20
44.6266
 11
16.85
 21
44.6638
  0
LINE
  8
0
 10
16.85
 20
44.6638
 11
16.805
 21
44.705
  0
LINE
  8
0
 10
16.805
 20
44.705
 11
16.7638
 21
44.75
  0
LINE
  8
0
 10
16.7638
 20
44.75
 11
16.7266
 21
44.7985
  0
LINE
  8
0
 10
16.7266
 20
44.7985
 11
16.6938
 21
44.85
  0
LINE
  8
0
 10
16.6938
 20
44.85
 11
16.6656
 21
44.9042
  0
LINE
  8
0
 10
16.6656
 20
44.9042
 11
16.6422
 21
44.9606
  0
LINE
  8
0
 10
16.6422
 20
44.9606
 11
16.6238
 21
45.0188
  0
LINE
  8
0
 10
16.6238
 20
45.0188
 11
16.6106
 21
45.0784
  0
LINE
  8
0
 10
16.6106
 20
45.0784
 11
16.6027
 21
45.139
  0
LINE
  8
0
 10
16.6027
 20
45.139
 11
16.6
 21
45.2
  0
LINE
  8
0
 10
16.6
 20
45.2
 11
16.6027
 21
45.261
  0
LINE
  8
0
 10
16.6027
 20
45.261
 11
16.6106
 21
45.3215
  0
LINE
  8
0
 10
16.6106
 20
45.3215
 11
16.6238
 21
45.3812
  0
LINE
  8
0
 10
16.6238
 20
45.3812
 11
16.6422
 21
45.4394
  0
LINE
  8
0
 10
16.6422
 20
45.4394
 11
16.6656
 21
45.4958
  0
LINE
  8
0
 10
16.6656
 20
45.4958
 11
16.6938
 21
45.55
  0
LINE
  8
0
 10
16.6938
 20
45.55
 11
16.7266
 21
45.6015
  0
LINE
  8
0
 10
16.7266
 20
45.6015
 11
16.7638
 21
45.6499
  0
LINE
  8
0
 10
16.7638
 20
45.6499
 11
16.805
 21
45.695
  0
LINE
  8
0
 10
16.805
 20
45.695
 11
16.85
 21
45.7362
  0
LINE
  8
0
 10
16.85
 20
45.7362
 11
16.8985
 21
45.7734
  0
LINE
  8
0
 10
16.8985
 20
45.7734
 11
16.95
 21
45.8062
  0
LINE
  8
0
 10
16.95
 20
45.8062
 11
17.0042
 21
45.8344
  0
LINE
  8
0
 10
17.0042
 20
45.8344
 11
17.0606
 21
45.8578
  0
LINE
  8
0
 10
17.0606
 20
45.8578
 11
17.1188
 21
45.8761
  0
LINE
  8
0
 10
17.1188
 20
45.8761
 11
17.1784
 21
45.8894
  0
LINE
  8
0
 10
17.1784
 20
45.8894
 11
17.239
 21
45.8973
  0
LINE
  8
0
 10
17.239
 20
45.8973
 11
17.3
 21
45.9
  0
LINE
  8
0
 10
17.3
 20
45.9
 11
17.361
 21
45.8973
  0
LINE
  8
0
 10
17.361
 20
45.8973
 11
17.4215
 21
45.8894
  0
LINE
  8
0
 10
17.4215
 20
45.8894
 11
17.4812
 21
45.8761
  0
LINE
  8
0
 10
17.4812
 20
45.8761
 11
17.5394
 21
45.8578
  0
LINE
  8
0
 10
17.5394
 20
45.8578
 11
17.5958
 21
45.8344
  0
LINE
  8
0
 10
17.5958
 20
45.8344
 11
17.65
 21
45.8062
  0
LINE
  8
0
 10
17.65
 20
45.8062
 11
17.7015
 21
45.7734
  0
LINE
  8
0
 10
17.7015
 20
45.7734
 11
17.7499
 21
45.7362
  0
LINE
  8
0
 10
17.7499
 20
45.7362
 11
17.795
 21
45.695
  0
LINE
  8
0
 10
17.795
 20
45.695
 11
17.8362
 21
45.6499
  0
LINE
  8
0
 10
17.8362
 20
45.6499
 11
17.8734
 21
45.6015
  0
LINE
  8
0
 10
17.8734
 20
45.6015
 11
17.9062
 21
45.55
  0
LINE
  8
0
 10
17.9062
 20
45.55
 11
17.9344
 21
45.4958
  0
LINE
  8
0
 10
17.9344
 20
45.4958
 11
17.9578
 21
45.4394
  0
LINE
  8
0
 10
17.9578
 20
45.4394
 11
17.9761
 21
45.3812
  0
LINE
  8
0
 10
17.9761
 20
45.3812
 11
17.9894
 21
45.3215
  0
LINE
  8
0
 10
17.9894
 20
45.3215
 11
17.9973
 21
45.261
  0
LINE
  8
0
 10
17.9973
 20
45.261
 11
18
 21
45.2
  0
LINE
  8
0
 10
18
 20
45.2
 11
17.9973
 21
45.139
  0
LINE
  8
0
 10
17.9973
 20
45.139
 11
17.9894
 21
45.0784
  0
LINE
  8
0
 10
17.9894
 20
45.0784
 11
17.9761
 21
45.0188
  0
LINE
  8
0
 10
17.9761
 20
45.0188
 11
17.9578
 21
44.9606
  0
LINE
  8
0
 10
17.9578
 20
44.9606
 11
17.9344
 21
44.9042
  0
LINE
  8
0
 10
17.9344
 20
44.9042
 11
17.9062
 21
44.85
  0
LINE
  8
0
 10
17.9062
 20
44.85
 11
17.8734
 21
44.7985
  0
LINE
  8
0
 10
17.8734
 20
44.7985
 11
17.8362
 21
44.75
  0
LINE
  8
0
 10
17.8362
 20
44.75
 11
17.795
 21
44.705
  0
LINE
  8
0
 10
17.795
 20
44.705
 11
17.7499
 21
44.6638
  0
LINE
  8
0
 10
17.7499
 20
44.6638
 11
17.7015
 21
44.6266
  0
LINE
  8
0
 10
17.7015
 20
44.6266
 11
17.65
 21
44.5938
  0
LINE
  8
0
 10
17.65
 20
44.5938
 11
17.5958
 21
44.5656
  0
LINE
  8
0
 10
17.5958
 20
44.5656
 11
17.5394
 21
44.5422
  0
LINE
  8
0
 10
17.5394
 20
44.5422
 11
17.4812
 21
44.5238
  0
LINE
  8
0
 10
17.4812
 20
44.5238
 11
17.4215
 21
44.5106
  0
LINE
  8
0
 10
17.4215
 20
44.5106
 11
17.361
 21
44.5027
  0
LINE
  8
0
 10
17.361
 20
44.5027
 11
17.3
 21
44.5
  0
LINE
  8
0
 10
17.3
 20
44.5
 11
17.239
 21
44.5027
  0
LINE
  8
0
 10
11.3911
 20
13.2547
 11
11.2829
 21
13.269
  0
LINE
  8
0
 10
11.2829
 20
13.269
 11
11.1765
 21
13.2926
  0
LINE
  8
0
 10
11.1765
 20
13.2926
 11
11.0725
 21
13.3254
  0
LINE
  8
0
 10
11.0725
 20
13.3254
 11
10.9717
 21
13.3671
  0
LINE
  8
0
 10
10.9717
 20
13.3671
 11
10.875
 21
13.4175
  0
LINE
  8
0
 10
10.875
 20
13.4175
 11
10.783
 21
13.4761
  0
LINE
  8
0
 10
10.783
 20
13.4761
 11
10.6965
 21
13.5424
  0
LINE
  8
0
 10
10.6965
 20
13.5424
 11
10.6161
 21
13.6161
  0
LINE
  8
0
 10
10.6161
 20
13.6161
 11
10.5424
 21
13.6965
  0
LINE
  8
0
 10
10.5424
 20
13.6965
 11
10.4761
 21
13.783
  0
LINE
  8
0
 10
10.4761
 20
13.783
 11
10.4175
 21
13.875
  0
LINE
  8
0
 10
10.4175
 20
13.875
 11
10.3671
 21
13.9717
  0
LINE
  8
0
 10
10.3671
 20
13.9717
 11
10.3254
 21
14.0725
  0
LINE
  8
0
 10
10.3254
 20
14.0725
 11
10.2926
 21
14.1765
  0
LINE
  8
0
 10
10.2926
 20
14.1765
 11
10.269
 21
14.2829
  0
LINE
  8
0
 10
10.269
 20
14.2829
 11
10.2547
 21
14.3911
  0
LINE
  8
0
 10
10.2547
 20
14.3911
 11
10.25
 21
14.5
  0
LINE
  8
0
 10
10.25
 20
14.5
 11
10.2547
 21
14.6089
  0
LINE
  8
0
 10
10.2547
 20
14.6089
 11
10.269
 21
14.7171
  0
LINE
  8
0
 10
10.269
 20
14.7171
 11
10.2926
 21
14.8235
  0
LINE
  8
0
 10
10.2926
 20
14.8235
 11
10.3254
 21
14.9275
  0
LINE
  8
0
 10
10.3254
 20
14.9275
 11
10.3671
 21
15.0283
  0
LINE
  8
0
 10
10.3671
 20
15.0283
 11
10.4175
 21
15.125
  0
LINE
  8
0
 10
10.4175
 20
15.125
 11
10.4761
 21
15.217
  0
LINE
  8
0
 10
10.4761
 20
15.217
 11
10.5424
 21
15.3035
  0
LINE
  8
0
 10
10.5424
 20
15.3035
 11
10.6161
 21
15.3839
  0
LINE
  8
0
 10
10.6161
 20
15.3839
 11
10.6965
 21
15.4576
  0
LINE
  8
0
 10
10.6965
 20
15.4576
 11
10.783
 21
15.5239
  0
LINE
  8
0
 10
10.783
 20
15.5239
 11
10.875
 21
15.5825
  0
LINE
  8
0
 10
10.875
 20
15.5825
 11
10.9717
 21
15.6329
  0
LINE
  8
0
 10
10.9717
 20
15.6329
 11
11.0725
 21
15.6746
  0
LINE
  8
0
 10
11.0725
 20
15.6746
 11
11.1765
 21
15.7074
  0
LINE
  8
0
 10
11.1765
 20
15.7074
 11
11.2829
 21
15.731
  0
LINE
  8
0
 10
11.2829
 20
15.731
 11
11.3911
 21
15.7452
  0
LINE
  8
0
 10
11.3911
 20
15.7452
 11
11.5
 21
15.75
  0
LINE
  8
0
 10
11.5
 20
15.75
 11
11.6089
 21
15.7452
  0
LINE
  8
0
 10
11.6089
 20
15.7452
 11
11.7171
 21
15.731
  0
LINE
  8
0
 10
11.7171
 20
15.731
 11
11.8235
 21
15.7074
  0
LINE
  8
0
 10
11.8235
 20
15.7074
 11
11.9275
 21
15.6746
  0
LINE
  8
0
 10
11.9275
 20
15.6746
 11
12.0283
 21
15.6329
  0
LINE
  8
0
 10
12.0283
 20
15.6329
 11
12.125
 21
15.5825
  0
LINE
  8
0
 10
12.125
 20
15.5825
 11
12.217
 21
15.5239
  0
LINE
  8
0
 10
12.217
 20
15.5239
 11
12.3035
 21
15.4576
  0
LINE
  8
0
 10
12.3035
 20
15.4576
 11
12.3839
 21
15.3839
  0
LINE
  8
0
 10
12.3839
 20
15.3839
 11
12.4576
 21
15.3035
  0
LINE
  8
0
 10
12.4576
 20
15.3035
 11
12.5239
 21
15.217
  0
LINE
  8
0
 10
12.5239
 20
15.217
 11
12.5825
 21
15.125
  0
LINE
  8
0
 10
12.5825
 20
15.125
 11
12.6329
 21
15.0283
  0
LINE
  8
0
 10
12.6329
 20
15.0283
 11
12.6746
 21
14.9275
  0
LINE
  8
0
 10
12.6746
 20
14.9275
 11
12.7074
 21
14.8235
  0
LINE
  8
0
 10
12.7074
 20
14.8235
 11
12.731
 21
14.7171
  0
LINE
  8
0
 10
12.731
 20
14.7171
 11
12.7452
 21
14.6089
  0
LINE
  8
0
 10
12.7452
 20
14.6089
 11
12.75
 21
14.5
  0
LINE
  8
0
 10
12.75
 20
14.5
 11
12.7452
 21
14.3911
  0
LINE
  8
0
 10
12.7452
 20
14.3911
 11
12.731
 21
14.2829
  0
LINE
  8
0
 10
12.731
 20
14.2829
 11
12.7074
 21
14.1765
  0
LINE
  8
0
 10
12.7074
 20
14.1765
 11
12.6746
 21
14.0725
  0
LINE
  8
0
 10
12.6746
 20
14.0725
 11
12.6329
 21
13.9717
  0
LINE
  8
0
 10
12.6329
 20
13.9717
 11
12.5825
 21
13.875
  0
LINE
  8
0
 10
12.5825
 20
13.875
 11
12.5239
 21
13.783
  0
LINE
  8
0
 10
12.5239
 20
13.783
 11
12.4576
 21
13.6965
  0
LINE
  8
0
 10
12.4576
 20
13.6965
 11
12.3839
 21
13.6161
  0
LINE
  8
0
 10
12.3839
 20
13.6161
 11
12.3035
 21
13.5424
  0
LINE
  8
0
 10
12.3035
 20
13.5424
 11
12.217
 21
13.4761
  0
LINE
  8
0
 10
12.217
 20
13.4761
 11
12.125
 21
13.4175
  0
LINE
  8
0
 10
12.125
 20
13.4175
 11
12.0283
 21
13.3671
  0
LINE
  8
0
 10
12.0283
 20
13.3671
 11
11.9275
 21
13.3254
  0
LINE
  8
0
 10
11.9275
 20
13.3254
 11
11.8235
 21
13.2926
  0
LINE
  8
0
 10
11.8235
 20
13.2926
 11
11.7171
 21
13.269
  0
LINE
  8
0
 10
11.7171
 20
13.269
 11
11.6089
 21
13.2547
  0
LINE
  8
0
 10
11.6089
 20
13.2547
 11
11.5
 21
13.25
  0
LINE
  8
0
 10
11.5
 20
13.25
 11
11.3911
 21
13.2547
  0
LINE
  8
0
 10
11.805
 20
0.0133057
 11
12.1078
 21
0.0531616
  0
LINE
  8
0
 10
12.1078
 20
0.0531616
 11
12.4059
 21
0.119247
  0
LINE
  8
0
 10
12.4059
 20
0.119247
 11
12.6971
 21
0.211075
  0
LINE
  8
0
 10
12.6971
 20
0.211075
 11
12.9792
 21
0.327911
  0
LINE
  8
0
 10
12.9792
 20
0.327911
 11
13.25
 21
0.468903
  0
LINE
  8
0
 10
13.25
 20
0.468903
 11
13.5075
 21
0.632965
  0
LINE
  8
0
 10
13.5075
 20
0.632965
 11
13.7498
 21
0.818832
  0
LINE
  8
0
 10
13.7498
 20
0.818832
 11
13.9749
 21
1.02512
  0
LINE
  8
0
 10
13.9749
 20
1.02512
 11
14.1812
 21
1.25023
  0
LINE
  8
0
 10
14.1812
 20
1.25023
 11
14.367
 21
1.49248
  0
LINE
  8
0
 10
14.367
 20
1.49248
 11
14.5311
 21
1.75
  0
LINE
  8
0
 10
14.5311
 20
1.75
 11
14.6721
 21
2.02083
  0
LINE
  8
0
 10
14.6721
 20
2.02083
 11
14.7889
 21
2.30292
  0
LINE
  8
0
 10
14.7889
 20
2.30292
 11
14.8807
 21
2.59413
  0
LINE
  8
0
 10
14.8807
 20
2.59413
 11
14.9468
 21
2.89223
  0
LINE
  8
0
 10
14.9468
 20
2.89223
 11
14.9867
 21
3.19495
  0
LINE
  8
0
 10
14.9867
 20
3.19495
 11
15
 21
3.5
  0
LINE
  8
0
 10
15
 20
3.5
 11
14.9867
 21
3.80504
  0
LINE
  8
0
 10
14.9867
 20
3.80504
 11
14.9468
 21
4.10776
  0
LINE
  8
0
 10
14.9468
 20
4.10776
 11
14.8807
 21
4.40585
  0
LINE
  8
0
 10
14.8807
 20
4.40585
 11
14.7889
 21
4.69707
  0
LINE
  8
0
 10
14.7889
 20
4.69707
 11
14.6721
 21
4.97916
  0
LINE
  8
0
 10
14.6721
 20
4.97916
 11
14.5311
 21
5.25
  0
LINE
  8
0
 10
14.5311
 20
5.25
 11
14.367
 21
5.50751
  0
LINE
  8
0
 10
14.367
 20
5.50751
 11
14.1812
 21
5.74976
  0
LINE
  8
0
 10
14.1812
 20
5.74976
 11
13.9749
 21
5.97487
  0
LINE
  8
0
 10
13.9749
 20
5.97487
 11
13.7498
 21
6.18115
  0
LINE
  8
0
 10
13.7498
 20
6.18115
 11
13.5075
 21
6.36702
  0
LINE
  8
0
 10
13.5075
 20
6.36702
 11
13.25
 21
6.53108
  0
LINE
  8
0
 10
13.25
 20
6.53108
 11
12.9792
 21
6.67207
  0
LINE
  8
0
 10
12.9792
 20
6.67207
 11
12.6971
 21
6.78891
  0
LINE
  8
0
 10
12.6971
 20
6.78891
 11
12.4059
 21
6.88074
  0
LINE
  8
0
 10
12.4059
 20
6.88074
 11
12.1078
 21
6.94682
  0
LINE
  8
0
 10
12.1078
 20
6.94682
 11
11.805
 21
6.98668
  0
LINE
  8
0
 10
11.805
 20
6.98668
 11
11.5
 21
7
  0
LINE
  8
0
 10
11.5
 20
7
 11
7
 21
7
  0
LINE
  8
0
 10
7
 20
7
 11
7
 21
58
  0
LINE
  8
0
 10
7
 20
58
 11
11.5
 21
58
  0
LINE
  8
0
 10
11.5
 20
58
 11
11.805
 21
58.0133
  0
LINE
  8
0
 10
11.805
 20
58.0133
 11
12.1078
 21
58.0532
  0
LINE
  8
0
 10
12.1078
 20
58.0532
 11
12.4059
 21
58.1192
  0
LINE
  8
0
 10
12.4059
 20
58.1192
 11
12.6971
 21
58.2111
  0
LINE
  8
0
 10
12.6971
 20
58.2111
 11
12.9792
 21
58.3279
  0
LINE
  8
0
 10
12.9792
 20
58.3279
 11
13.25
 21
58.4689
  0
LINE
  8
0
 10
13.25
 20
58.4689
 11
13.5075
 21
58.633
  0
LINE
  8
0
 10
13.5075
 20
58.633
 11
13.7498
 21
58.8188
  0
LINE
  8
0
 10
13.7498
 20
58.8188
 11
13.9749
 21
59.0251
  0
LINE
  8
0
 10
13.9749
 20
59.0251
 11
14.1812
 21
59.2502
  0
LINE
  8
0
 10
14.1812
 20
59.2502
 11
14.367
 21
59.4925
  0
LINE
  8
0
 10
14.367
 20
59.4925
 11
14.5311
 21
59.75
  0
LINE
  8
0
 10
14.5311
 20
59.75
 11
14.6721
 21
60.0208
  0
LINE
  8
0
 10
14.6721
 20
60.0208
 11
14.7889
 21
60.3029
  0
LINE
  8
0
 10
14.7889
 20
60.3029
 11
14.8807
 21
60.5941
  0
LINE
  8
0
 10
14.8807
 20
60.5941
 11
14.9468
 21
60.8922
  0
LINE
  8
0
 10
14.9468
 20
60.8922
 11
14.9867
 21
61.1949
  0
LINE
  8
0
 10
14.9867
 20
61.1949
 11
15
 21
61.5
  0
LINE
  8
0
 10
15
 20
61.5
 11
14.9867
 21
61.805
  0
LINE
  8
0
 10
14.9867
 20
61.805
 11
14.9468
 21
62.1078
  0
LINE
  8
0
 10
14.9468
 20
62.1078
 11
14.8807
 21
62.4059
  0
LINE
  8
0
 10
14.8807
 20
62.4059
 11
14.7889
 21
62.6971
  0
LINE
  8
0
 10
14.7889
 20
62.6971
 11
14.6721
 21
62.9792
  0
LINE
  8
0
 10
14.6721
 20
62.9792
 11
14.5311
 21
63.25
  0
LINE
  8
0
 10
14.5311
 20
63.25
 11
14.367
 21
63.5075
  0
LINE
  8
0
 10
14.367
 20
63.5075
 11
14.1812
 21
63.7498
  0
LINE
  8
0
 10
14.1812
 20
63.7498
 11
13.9749
 21
63.9749
  0
LINE
  8
0
 10
13.9749
 20
63.9749
 11
13.7498
 21
64.1812
  0
LINE
  8
0
 10
13.7498
 20
64.1812
 11
13.5075
 21
64.367
  0
LINE
  8
0
 10
13.5075
 20
64.367
 11
13.25
 21
64.5311
  0
LINE
  8
0
 10
13.25
 20
64.5311
 11
12.9792
 21
64.6721
  0
LINE
  8
0
 10
12.9792
 20
64.6721
 11
12.6971
 21
64.7889
  0
LINE
  8
0
 10
12.6971
 20
64.7889
 11
12.4059
 21
64.8807
  0
LINE
  8
0
 10
12.4059
 20
64.8807
 11
12.1078
 21
64.9468
  0
LINE
  8
0
 10
12.1078
 20
64.9468
 11
11.805
 21
64.9867
  0
LINE
  8
0
 10
11.805
 20
64.9867
 11
11.5
 21
65
  0
LINE
  8
0
 10
11.5
 20
65
 11
3.5
 21
65
  0
LINE
  8
0
 10
3.5
 20
65
 11
3.19495
 21
64.9867
  0
LINE
  8
0
 10
3.19495
 20
64.9867
 11
2.89223
 21
64.9468
  0
LINE
  8
0
 10
2.89223
 20
64.9468
 11
2.59413
 21
64.8807
  0
LINE
  8
0
 10
2.59413
 20
64.8807
 11
2.30292
 21
64.7889
  0
LINE
  8
0
 10
2.30292
 20
64.7889
 11
2.02083
 21
64.6721
  0
LINE
  8
0
 10
2.02083
 20
64.6721
 11
1.75
 21
64.5311
  0
LINE
  8
0
 10
1.75
 20
64.5311
 11
1.49248
 21
64.367
  0
LINE
  8
0
 10
1.49248
 20
64.367
 11
1.25023
 21
64.1812
  0
LINE
  8
0
 10
1.25023
 20
64.1812
 11
1.02512
 21
63.9749
  0
LINE
  8
0
 10
1.02512
 20
63.9749
 11
0.818832
 21
63.7498
  0
LINE
  8
0
 10
0.818832
 20
63.7498
 11
0.632965
 21
63.5075
  0
LINE
  8
0
 10
0.632965
 20
63.5075
 11
0.468903
 21
63.25
  0
LINE
  8
0
 10
0.468903
 20
63.25
 11
0.327911
 21
62.9792
  0
LINE
  8
0
 10
0.327911
 20
62.9792
 11
0.211075
 21
62.6971
  0
LINE
  8
0
 10
0.211075
 20
62.6971
 11
0.119247
 21
62.4059
  0
LINE
  8
0
 10
0.119247
 20
62.4059
 11
0.0531616
 21
62.1078
  0
LINE
  8
0
 10
0.0531616
 20
62.1078
 11
0.0133057
 21
61.805
  0
LINE
  8
0
 10
0.0133057
 20
61.805
 11
0
 21
61.5
  0
LINE
  8
0
 10
0
 20
61.5
 11
0
 21
3.5
  0
LINE
  8
0
 10
0
 20
3.5
 11
0.0133057
 21
3.19495
  0
LINE
  8
0
 10
0.0133057
 20
3.19495
 11
0.0531616
 21
2.89223
  0
LINE
  8
0
 10
0.0531616
 20
2.89223
 11
0.119247
 21
2.59413
  0
LINE
  8
0
 10
0.119247
 20
2.59413
 11
0.211075
 21
2.30292
  0
LINE
  8
0
 10
0.211075
 20
2.30292
 11
0.327911
 21
2.02083
  0
LINE
  8
0
 10
0.327911
 20
2.02083
 11
0.468903
 21
1.75
  0
LINE
  8
0
 10
0.468903
 20
1.75
 11
0.632965
 21
1.49248
  0
LINE
  8
0
 10
0.632965
 20
1.49248
 11
0.818832
 21
1.25023
  0
LINE
  8
0
 10
0.818832
 20
1.25023
 11
1.02512
 21
1.02512
  0
LINE
  8
0
 10
1.02512
 20
1.02512
 11
1.25023
 21
0.818832
  0
LINE
  8
0
 10
1.25023
 20
0.818832
 11
1.49248
 21
0.632965
  0
LINE
  8
0
 10
1.49248
 20
0.632965
 11
1.75
 21
0.468903
  0
LINE
  8
0
 10
1.75
 20
0.468903
 11
2.02083
 21
0.327911
  0
LINE
  8
0
 10
2.02083
 20
0.327911
 11
2.30292
 21
0.211075
  0
LINE
  8
0
 10
2.30292
 20
0.211075
 11
2.59413
 21
0.119247
  0
LINE
  8
0
 10
2.59413
 20
0.119247
 11
2.89223
 21
0.0531616
  0
LINE
  8
0
 10
2.89223
 20
0.0531616
 11
3.19495
 21
0.0133057
  0
LINE
  8
0
 10
3.19495
 20
0.0133057
 11
3.5
 21
0
  0
LINE
  8
0
 10
3.5
 20
0
 11
11.5
 21
0
  0
LINE
  8
0
 10
11.5
 20
0
 11
11.805
 21
0.0133057
  0
LINE
  8
0
 10
11.3911
 20
60.2547
 11
11.2829
 21
60.269
  0
LINE
  8
0
 10
11.2829
 20
60.269
 11
11.1765
 21
60.2926
  0
LINE
  8
0
 10
11.1765
 20
60.2926
 11
11.0725
 21
60.3254
  0
LINE
  8
0
 10
11.0725
 20
60.3254
 11
10.9717
 21
60.3671
  0
LINE
  8
0
 10
10.9717
 20
60.3671
 11
10.875
 21
60.4175
  0
LINE
  8
0
 10
10.875
 20
60.4175
 11
10.783
 21
60.4761
  0
LINE
  8
0
 10
10.783
 20
60.4761
 11
10.6965
 21
60.5424
  0
LINE
  8
0
 10
10.6965
 20
60.5424
 11
10.6161
 21
60.6161
  0
LINE
  8
0
 10
10.6161
 20
60.6161
 11
10.5424
 21
60.6965
  0
LINE
  8
0
 10
10.5424
 20
60.6965
 11
10.4761
 21
60.783
  0
LINE
  8
0
 10
10.4761
 20
60.783
 11
10.4175
 21
60.875
  0
LINE
  8
0
 10
10.4175
 20
60.875
 11
10.3671
 21
60.9717
  0
LINE
  8
0
 10
10.3671
 20
60.9717
 11
10.3254
 21
61.0725
  0
LINE
  8
0
 10
10.3254
 20
61.0725
 11
10.2926
 21
61.1765
  0
LINE
  8
0
 10
10.2926
 20
61.1765
 11
10.269
 21
61.2829
  0
LINE
  8
0
 10
10.269
 20
61.2829
 11
10.2547
 21
61.3911
  0
LINE
  8
0
 10
10.2547
 20
61.3911
 11
10.25
 21
61.5
  0
LINE
  8
0
 10
10.25
 20
61.5
 11
10.2547
 21
61.6089
  0
LINE
  8
0
 10
10.2547
 20
61.6089
 11
10.269
 21
61.7171
  0
LINE
  8
0
 10
10.269
 20
61.7171
 11
10.2926
 21
61.8235
  0
LINE
  8
0
 10
10.2926
 20
61.8235
 11
10.3254
 21
61.9275
  0
LINE
  8
0
 10
10.3254
 20
61.9275
 11
10.3671
 21
62.0283
  0
LINE
  8
0
 10
10.3671
 20
62.0283
 11
10.4175
 21
62.125
  0
LINE
  8
0
 10
10.4175
 20
62.125
 11
10.4761
 21
62.217
  0
LINE
  8
0
 10
10.4761
 20
62.217
 11
10.5424
 21
62.3035
  0
LINE
  8
0
 10
10.5424
 20
62.3035
 11
10.6161
 21
62.3839
  0
LINE
  8
0
 10
10.6161
 20
62.3839
 11
10.6965
 21
62.4576
  0
LINE
  8
0
 10
10.6965
 20
62.4576
 11
10.783
 21
62.5239
  0
LINE
  8
0
 10
10.783
 20
62.5239
 11
10.875
 21
62.5825
  0
LINE
  8
0
 10
10.875
 20
62.5825
 11
10.9717
 21
62.6329
  0
LINE
  8
0
 10
10.9717
 20
62.6329
 11
11.0725
 21
62.6746
  0
LINE
  8
0
 10
11.0725
 20
62.6746
 11
11.1765
 21
62.7074
  0
LINE
  8
0
 10
11.1765
 20
62.7074
 11
11.2829
 21
62.731
  0
LINE
  8
0
 10
11.2829
 20
62.731
 11
11.3911
 21
62.7452
  0
LINE
  8
0
 10
11.3911
 20
62.7452
 11
11.5
 21
62.75
  0
LINE
  8
0
 10
11.5
 20
62.75
 11
11.6089
 21
62.7452
  0
LINE
  8
0
 10
11.6089
 20
62.7452
 11
11.7171
 21
62.731
  0
LINE
  8
0
 10
11.7171
 20
62.731
 11
11.8235
 21
62.7074
  0
LINE
  8
0
 10
11.8235
 20
62.7074
 11
11.9275
 21
62.6746
  0
LINE
  8
0
 10
11.9275
 20
62.6746
 11
12.0283
 21
62.6329
  0
LINE
  8
0
 10
12.0283
 20
62.6329
 11
12.125
 21
62.5825
  0
LINE
  8
0
 10
12.125
 20
62.5825
 11
12.217
 21
62.5239
  0
LINE
  8
0
 10
12.217
 20
62.5239
 11
12.3035
 21
62.4576
  0
LINE
  8
0
 10
12.3035
 20
62.4576
 11
12.3839
 21
62.3839
  0
LINE
  8
0
 10
12.3839
 20
62.3839
 11
12.4576
 21
62.3035
  0
LINE
  8
0
 10
12.4576
 20
62.3035
 11
12.5239
 21
62.217
  0
LINE
  8
0
 10
12.5239
 20
62.217
 11
12.5825
 21
62.125
  0
LINE
  8
0
 10
12.5825
 20
62.125
 11
12.6329
 21
62.0283
  0
LINE
  8
0
 10
12.6329
 20
62.0283
 11
12.6746
 21
61.9275
  0
LINE
  8
0
 10
12.6746
 20
61.9275
 11
12.7074
 21
61.8235
  0
LINE
  8
0
 10
12.7074
 20
61.8235
 11
12.731
 21
61.7171
  0
LINE
  8
0
 10
12.731
 20
61.7171
 11
12.7452
 21
61.6089
  0
LINE
  8
0
 10
12.7452
 20
61.6089
 11
12.75
 21
61.5
  0
LINE
  8
0
 10
12.75
 20
61.5
 11
12.7452
 21
61.3911
  0
LINE
  8
0
 10
12.7452
 20
61.3911
 11
12.731
 21
61.2829
  0
LINE
  8
0
 10
12.731
 20
61.2829
 11
12.7074
 21
61.1765
  0
LINE
  8
0
 10
12.7074
 20
61.1765
 11
12.6746
 21
61.0725
  0
LINE
  8
0
 10
12.6746
 20
61.0725
 11
12.6329
 21
60.9717
  0
LINE
  8
0
 10
12.6329
 20
60.9717
 11
12.5825
 21
60.875
  0
LINE
  8
0
 10
12.5825
 20
60.875
 11
12.5239
 21
60.783
  0
LINE
  8
0
 10
12.5239
 20
60.783
 11
12.4576
 21
60.6965
  0
LINE
  8
0
 10
12.4576
 20
60.6965
 11
12.3839
 21
60.6161
  0
LINE
  8
0
 10
12.3839
 20
60.6161
 11
12.3035
 21
60.5424
  0
LINE
  8
0
 10
12.3035
 20
60.5424
 11
12.217
 21
60.4761
  0
LINE
  8
0
 10
12.217
 20
60.4761
 11
12.125
 21
60.4175
  0
LINE
  8
0
 10
12.125
 20
60.4175
 11
12.0283
 21
60.3671
  0
LINE
  8
0
 10
12.0283
 20
60.3671
 11
11.9275
 21
60.3254
  0
LINE
  8
0
 10
11.9275
 20
60.3254
 11
11.8235
 21
60.2926
  0
LINE
  8
0
 10
11.8235
 20
60.2926
 11
11.7171
 21
60.269
  0
LINE
  8
0
 10
11.7171
 20
60.269
 11
11.6089
 21
60.2547
  0
LINE
  8
0
 10
11.6089
 20
60.2547
 11
11.5
 21
60.25
  0
LINE
  8
0
 10
11.5
 20
60.25
 11
11.3911
 21
60.2547
  0
LINE
  8
0
 10
11.3911
 20
2.25475
 11
11.2829
 21
2.26898
  0
LINE
  8
0
 10
11.2829
 20
2.26898
 11
11.1765
 21
2.29259
  0
LINE
  8
0
 10
11.1765
 20
2.29259
 11
11.0725
 21
2.32538
  0
LINE
  8
0
 10
11.0725
 20
2.32538
 11
10.9717
 21
2.36711
  0
LINE
  8
0
 10
10.9717
 20
2.36711
 11
10.875
 21
2.41747
  0
LINE
  8
0
 10
10.875
 20
2.41747
 11
10.783
 21
2.47606
  0
LINE
  8
0
 10
10.783
 20
2.47606
 11
10.6965
 21
2.54243
  0
LINE
  8
0
 10
10.6965
 20
2.54243
 11
10.6161
 21
2.6161
  0
LINE
  8
0
 10
10.6161
 20
2.6161
 11
10.5424
 21
2.6965
  0
LINE
  8
0
 10
10.5424
 20
2.6965
 11
10.4761
 21
2.78302
  0
LINE
  8
0
 10
10.4761
 20
2.78302
 11
10.4175
 21
2.875
  0
LINE
  8
0
 10
10.4175
 20
2.875
 11
10.3671
 21
2.97173
  0
LINE
  8
0
 10
10.3671
 20
2.97173
 11
10.3254
 21
3.07246
  0
LINE
  8
0
 10
10.3254
 20
3.07246
 11
10.2926
 21
3.17647
  0
LINE
  8
0
 10
10.2926
 20
3.17647
 11
10.269
 21
3.28293
  0
LINE
  8
0
 10
10.269
 20
3.28293
 11
10.2547
 21
3.39105
  0
LINE
  8
0
 10
10.2547
 20
3.39105
 11
10.25
 21
3.5
  0
LINE
  8
0
 10
10.25
 20
3.5
 11
10.2547
 21
3.60893
  0
LINE
  8
0
 10
10.2547
 20
3.60893
 11
10.269
 21
3.71706
  0
LINE
  8
0
 10
10.269
 20
3.71706
 11
10.2926
 21
3.82352
  0
LINE
  8
0
 10
10.2926
 20
3.82352
 11
10.3254
 21
3.92752
  0
LINE
  8
0
 10
10.3254
 20
3.92752
 11
10.3671
 21
4.02826
  0
LINE
  8
0
 10
10.3671
 20
4.02826
 11
10.4175
 21
4.125
  0
LINE
  8
0
 10
10.4175
 20
4.125
 11
10.4761
 21
4.21696
  0
LINE
  8
0
 10
10.4761
 20
4.21696
 11
10.5424
 21
4.30348
  0
LINE
  8
0
 10
10.5424
 20
4.30348
 11
10.6161
 21
4.38388
  0
LINE
  8
0
 10
10.6161
 20
4.38388
 11
10.6965
 21
4.45755
  0
LINE
  8
0
 10
10.6965
 20
4.45755
 11
10.783
 21
4.52393
  0
LINE
  8
0
 10
10.783
 20
4.52393
 11
10.875
 21
4.58252
  0
LINE
  8
0
 10
10.875
 20
4.58252
 11
10.9717
 21
4.63287
  0
LINE
  8
0
 10
10.9717
 20
4.63287
 11
11.0725
 21
4.67461
  0
LINE
  8
0
 10
11.0725
 20
4.67461
 11
11.1765
 21
4.7074
  0
LINE
  8
0
 10
11.1765
 20
4.7074
 11
11.2829
 21
4.731
  0
LINE
  8
0
 10
11.2829
 20
4.731
 11
11.3911
 21
4.74524
  0
LINE
  8
0
 10
11.3911
 20
4.74524
 11
11.5
 21
4.75
  0
LINE
  8
0
 10
11.5
 20
4.75
 11
11.6089
 21
4.74524
  0
LINE
  8
0
 10
11.6089
 20
4.74524
 11
11.7171
 21
4.731
  0
LINE
  8
0
 10
11.7171
 20
4.731
 11
11.8235
 21
4.7074
  0
LINE
  8
0
 10
11.8235
 20
4.7074
 11
11.9275
 21
4.67461
  0
LINE
  8
0
 10
11.9275
 20
4.67461
 11
12.0283
 21
4.63287
  0
LINE
  8
0
 10
12.0283
 20
4.63287
 11
12.125
 21
4.58252
  0
LINE
  8
0
 10
12.125
 20
4.58252
 11
12.217
 21
4.52393
  0
LINE
  8
0
 10
12.217
 20
4.52393
 11
12.3035
 21
4.45755
  0
LINE
  8
0
 10
12.3035
 20
4.45755
 11
12.3839
 21
4.38388
  0
LINE
  8
0
 10
12.3839
 20
4.38388
 11
12.4576
 21
4.30348
  0
LINE
  8
0
 10
12.4576
 20
4.30348
 11
12.5239
 21
4.21696
  0
LINE
  8
0
 10
12.5239
 20
4.21696
 11
12.5825
 21
4.125
  0
LINE
  8
0
 10
12.5825
 20
4.125
 11
12.6329
 21
4.02826
  0
LINE
  8
0
 10
12.6329
 20
4.02826
 11
12.6746
 21
3.92752
  0
LINE
  8
0
 10
12.6746
 20
3.92752
 11
12.7074
 21
3.82352
  0
LINE
  8
0
 10
12.7074
 20
3.82352
 11
12.731
 21
3.71706
  0
LINE
  8
0
 10
12.731
 20
3.71706
 11
12.7452
 21
3.60893
  0
LINE
  8
0
 10
12.7452
 20
3.60893
 11
12.75
 21
3.5
  0
LINE
  8
0
 10
12.75
 20
3.5
 11
12.7452
 21
3.39105
  0
LINE
  8
0
 10
12.7452
 20
3.39105
 11
12.731
 21
3.28293
  0
LINE
  8
0
 10
12.731
 20
3.28293
 11
12.7074
 21
3.17647
  0
LINE
  8
0
 10
12.7074
 20
3.17647
 11
12.6746
 21
3.07246
  0
LINE
  8
0
 10
12.6746
 20
3.07246
 11
12.6329
 21
2.97173
  0
LINE
  8
0
 10
12.6329
 20
2.97173
 11
12.5825
 21
2.875
  0
LINE
  8
0
 10
12.5825
 20
2.875
 11
12.5239
 21
2.78302
  0
LINE
  8
0
 10
12.5239
 20
2.78302
 11
12.4576
 21
2.6965
  0
LINE
  8
0
 10
12.4576
 20
2.6965
 11
12.3839
 21
2.6161
  0
LINE
  8
0
 10
12.3839
 20
2.6161
 11
12.3035
 21
2.54243
  0
LINE
  8
0
 10
12.3035
 20
2.54243
 11
12.217
 21
2.47606
  0
LINE
  8
0
 10
12.217
 20
2.47606
 11
12.125
 21
2.41747
  0
LINE
  8
0
 10
12.125
 20
2.41747
 11
12.0283
 21
2.36711
  0
LINE
  8
0
 10
12.0283
 20
2.36711
 11
11.9275
 21
2.32538
  0
LINE
  8
0
 10
11.9275
 20
2.32538
 11
11.8235
 21
2.29259
  0
LINE
  8
0
 10
11.8235
 20
2.29259
 11
11.7171
 21
2.26898
  0
LINE
  8
0
 10
11.7171
 20
2.26898
 11
11.6089
 21
2.25475
  0
LINE
  8
0
 10
11.6089
 20
2.25475
 11
11.5
 21
2.25
  0
LINE
  8
0
 10
11.5
 20
2.25
 11
11.3911
 21
2.25475
  0
ENDSEC
  0
SECTION
  2
OBJECTS
  0
DICTIONARY
  0
ENDSEC
  0
EOF
