  0
SECTION
  2
BLOCKS
  0
ENDSEC
  0
SECTION
  2
ENTITIES
  0
LINE
  8
0
 10
91.4946
 20
0.0607605
 11
92.1681
 21
0.241226
  0
LINE
  8
0
 10
92.1681
 20
0.241226
 11
92.8
 21
0.535889
  0
LINE
  8
0
 10
92.8
 20
0.535889
 11
93.3711
 21
0.935822
  0
LINE
  8
0
 10
93.3711
 20
0.935822
 11
93.8642
 21
1.42885
  0
LINE
  8
0
 10
93.8642
 20
1.42885
 11
94.2641
 21
2
  0
LINE
  8
0
 10
94.2641
 20
2
 11
94.5588
 21
2.63191
  0
LINE
  8
0
 10
94.5588
 20
2.63191
 11
94.7392
 21
3.3054
  0
LINE
  8
0
 10
94.7392
 20
3.3054
 11
94.8
 21
4
  0
LINE
  8
0
 10
94.8
 20
4
 11
94.8
 21
90.8
  0
LINE
  8
0
 10
94.8
 20
90.8
 11
94.7392
 21
91.4946
  0
LINE
  8
0
 10
94.7392
 20
91.4946
 11
94.5588
 21
92.1681
  0
LINE
  8
0
 10
94.5588
 20
92.1681
 11
94.2641
 21
92.8
  0
LINE
  8
0
 10
94.2641
 20
92.8
 11
93.8642
 21
93.3711
  0
LINE
  8
0
 10
93.8642
 20
93.3711
 11
93.3711
 21
93.8642
  0
LINE
  8
0
 10
93.3711
 20
93.8642
 11
92.8
 21
94.2641
  0
LINE
  8
0
 10
92.8
 20
94.2641
 11
92.1681
 21
94.5588
  0
LINE
  8
0
 10
92.1681
 20
94.5588
 11
91.4946
 21
94.7392
  0
LINE
  8
0
 10
91.4946
 20
94.7392
 11
90.8
 21
94.8
  0
LINE
  8
0
 10
90.8
 20
94.8
 11
4
 21
94.8
  0
LINE
  8
0
 10
4
 20
94.8
 11
3.3054
 21
94.7392
  0
LINE
  8
0
 10
3.3054
 20
94.7392
 11
2.63191
 21
94.5588
  0
LINE
  8
0
 10
2.63191
 20
94.5588
 11
2
 21
94.2641
  0
LINE
  8
0
 10
2
 20
94.2641
 11
1.42885
 21
93.8642
  0
LINE
  8
0
 10
1.42885
 20
93.8642
 11
0.935822
 21
93.3711
  0
LINE
  8
0
 10
0.935822
 20
93.3711
 11
0.535889
 21
92.8
  0
LINE
  8
0
 10
0.535889
 20
92.8
 11
0.241226
 21
92.1681
  0
LINE
  8
0
 10
0.241226
 20
92.1681
 11
0.0607605
 21
91.4946
  0
LINE
  8
0
 10
0.0607605
 20
91.4946
 11
0
 21
90.8
  0
LINE
  8
0
 10
0
 20
90.8
 11
0
 21
4
  0
LINE
  8
0
 10
0
 20
4
 11
0.0607605
 21
3.3054
  0
LINE
  8
0
 10
0.0607605
 20
3.3054
 11
0.241226
 21
2.63191
  0
LINE
  8
0
 10
0.241226
 20
2.63191
 11
0.535889
 21
2
  0
LINE
  8
0
 10
0.535889
 20
2
 11
0.935822
 21
1.42885
  0
LINE
  8
0
 10
0.935822
 20
1.42885
 11
1.42885
 21
0.935822
  0
LINE
  8
0
 10
1.42885
 20
0.935822
 11
2
 21
0.535889
  0
LINE
  8
0
 10
2
 20
0.535889
 11
2.63191
 21
0.241226
  0
LINE
  8
0
 10
2.63191
 20
0.241226
 11
3.3054
 21
0.0607605
  0
LINE
  8
0
 10
3.3054
 20
0.0607605
 11
4
 21
0
  0
LINE
  8
0
 10
4
 20
0
 11
90.8
 21
0
  0
LINE
  8
0
 10
90.8
 20
0
 11
91.4946
 21
0.0607605
  0
LINE
  8
0
 10
80.7263
 20
88.8152
 11
80.558
 21
88.8603
  0
LINE
  8
0
 10
80.558
 20
88.8603
 11
80.4
 21
88.934
  0
LINE
  8
0
 10
80.4
 20
88.934
 11
80.2572
 21
89.034
  0
LINE
  8
0
 10
80.2572
 20
89.034
 11
80.134
 21
89.1572
  0
LINE
  8
0
 10
80.134
 20
89.1572
 11
80.034
 21
89.3
  0
LINE
  8
0
 10
80.034
 20
89.3
 11
79.9603
 21
89.458
  0
LINE
  8
0
 10
79.9603
 20
89.458
 11
79.9152
 21
89.6263
  0
LINE
  8
0
 10
79.9152
 20
89.6263
 11
79.9
 21
89.8
  0
LINE
  8
0
 10
79.9
 20
89.8
 11
79.9152
 21
89.9736
  0
LINE
  8
0
 10
79.9152
 20
89.9736
 11
79.9603
 21
90.142
  0
LINE
  8
0
 10
79.9603
 20
90.142
 11
80.034
 21
90.3
  0
LINE
  8
0
 10
80.034
 20
90.3
 11
80.134
 21
90.4428
  0
LINE
  8
0
 10
80.134
 20
90.4428
 11
80.2572
 21
90.566
  0
LINE
  8
0
 10
80.2572
 20
90.566
 11
80.4
 21
90.666
  0
LINE
  8
0
 10
80.4
 20
90.666
 11
80.558
 21
90.7397
  0
LINE
  8
0
 10
80.558
 20
90.7397
 11
80.7263
 21
90.7848
  0
LINE
  8
0
 10
80.7263
 20
90.7848
 11
80.9
 21
90.8
  0
LINE
  8
0
 10
80.9
 20
90.8
 11
81.0736
 21
90.7848
  0
LINE
  8
0
 10
81.0736
 20
90.7848
 11
81.242
 21
90.7397
  0
LINE
  8
0
 10
81.242
 20
90.7397
 11
81.4
 21
90.666
  0
LINE
  8
0
 10
81.4
 20
90.666
 11
81.5428
 21
90.566
  0
LINE
  8
0
 10
81.5428
 20
90.566
 11
81.666
 21
90.4428
  0
LINE
  8
0
 10
81.666
 20
90.4428
 11
81.766
 21
90.3
  0
LINE
  8
0
 10
81.766
 20
90.3
 11
81.8397
 21
90.142
  0
LINE
  8
0
 10
81.8397
 20
90.142
 11
81.8848
 21
89.9736
  0
LINE
  8
0
 10
81.8848
 20
89.9736
 11
81.9
 21
89.8
  0
LINE
  8
0
 10
81.9
 20
89.8
 11
81.8848
 21
89.6263
  0
LINE
  8
0
 10
81.8848
 20
89.6263
 11
81.8397
 21
89.458
  0
LINE
  8
0
 10
81.8397
 20
89.458
 11
81.766
 21
89.3
  0
LINE
  8
0
 10
81.766
 20
89.3
 11
81.666
 21
89.1572
  0
LINE
  8
0
 10
81.666
 20
89.1572
 11
81.5428
 21
89.034
  0
LINE
  8
0
 10
81.5428
 20
89.034
 11
81.4
 21
88.934
  0
LINE
  8
0
 10
81.4
 20
88.934
 11
81.242
 21
88.8603
  0
LINE
  8
0
 10
81.242
 20
88.8603
 11
81.0736
 21
88.8152
  0
LINE
  8
0
 10
81.0736
 20
88.8152
 11
80.9
 21
88.8
  0
LINE
  8
0
 10
80.9
 20
88.8
 11
80.7263
 21
88.8152
  0
LINE
  8
0
 10
13.7263
 20
88.8152
 11
13.558
 21
88.8603
  0
LINE
  8
0
 10
13.558
 20
88.8603
 11
13.4
 21
88.934
  0
LINE
  8
0
 10
13.4
 20
88.934
 11
13.2572
 21
89.034
  0
LINE
  8
0
 10
13.2572
 20
89.034
 11
13.1339
 21
89.1572
  0
LINE
  8
0
 10
13.1339
 20
89.1572
 11
13.034
 21
89.3
  0
LINE
  8
0
 10
13.034
 20
89.3
 11
12.9603
 21
89.458
  0
LINE
  8
0
 10
12.9603
 20
89.458
 11
12.9152
 21
89.6263
  0
LINE
  8
0
 10
12.9152
 20
89.6263
 11
12.9
 21
89.8
  0
LINE
  8
0
 10
12.9
 20
89.8
 11
12.9152
 21
89.9736
  0
LINE
  8
0
 10
12.9152
 20
89.9736
 11
12.9603
 21
90.142
  0
LINE
  8
0
 10
12.9603
 20
90.142
 11
13.034
 21
90.3
  0
LINE
  8
0
 10
13.034
 20
90.3
 11
13.1339
 21
90.4428
  0
LINE
  8
0
 10
13.1339
 20
90.4428
 11
13.2572
 21
90.566
  0
LINE
  8
0
 10
13.2572
 20
90.566
 11
13.4
 21
90.666
  0
LINE
  8
0
 10
13.4
 20
90.666
 11
13.558
 21
90.7397
  0
LINE
  8
0
 10
13.558
 20
90.7397
 11
13.7263
 21
90.7848
  0
LINE
  8
0
 10
13.7263
 20
90.7848
 11
13.9
 21
90.8
  0
LINE
  8
0
 10
13.9
 20
90.8
 11
14.0736
 21
90.7848
  0
LINE
  8
0
 10
14.0736
 20
90.7848
 11
14.242
 21
90.7397
  0
LINE
  8
0
 10
14.242
 20
90.7397
 11
14.4
 21
90.666
  0
LINE
  8
0
 10
14.4
 20
90.666
 11
14.5428
 21
90.566
  0
LINE
  8
0
 10
14.5428
 20
90.566
 11
14.666
 21
90.4428
  0
LINE
  8
0
 10
14.666
 20
90.4428
 11
14.766
 21
90.3
  0
LINE
  8
0
 10
14.766
 20
90.3
 11
14.8397
 21
90.142
  0
LINE
  8
0
 10
14.8397
 20
90.142
 11
14.8848
 21
89.9736
  0
LINE
  8
0
 10
14.8848
 20
89.9736
 11
14.9
 21
89.8
  0
LINE
  8
0
 10
14.9
 20
89.8
 11
14.8848
 21
89.6263
  0
LINE
  8
0
 10
14.8848
 20
89.6263
 11
14.8397
 21
89.458
  0
LINE
  8
0
 10
14.8397
 20
89.458
 11
14.766
 21
89.3
  0
LINE
  8
0
 10
14.766
 20
89.3
 11
14.666
 21
89.1572
  0
LINE
  8
0
 10
14.666
 20
89.1572
 11
14.5428
 21
89.034
  0
LINE
  8
0
 10
14.5428
 20
89.034
 11
14.4
 21
88.934
  0
LINE
  8
0
 10
14.4
 20
88.934
 11
14.242
 21
88.8603
  0
LINE
  8
0
 10
14.242
 20
88.8603
 11
14.0736
 21
88.8152
  0
LINE
  8
0
 10
14.0736
 20
88.8152
 11
13.9
 21
88.8
  0
LINE
  8
0
 10
13.9
 20
88.8
 11
13.7263
 21
88.8152
  0
LINE
  8
0
 10
11.335
 20
83.5644
 11
11.1751
 21
83.6073
  0
LINE
  8
0
 10
11.1751
 20
83.6073
 11
11.025
 21
83.6773
  0
LINE
  8
0
 10
11.025
 20
83.6773
 11
10.8893
 21
83.7722
  0
LINE
  8
0
 10
10.8893
 20
83.7722
 11
10.7722
 21
83.8893
  0
LINE
  8
0
 10
10.7722
 20
83.8893
 11
10.6773
 21
84.025
  0
LINE
  8
0
 10
10.6773
 20
84.025
 11
10.6073
 21
84.1751
  0
LINE
  8
0
 10
10.6073
 20
84.1751
 11
10.5644
 21
84.335
  0
LINE
  8
0
 10
10.5644
 20
84.335
 11
10.55
 21
84.5
  0
LINE
  8
0
 10
10.55
 20
84.5
 11
10.5644
 21
84.665
  0
LINE
  8
0
 10
10.5644
 20
84.665
 11
10.6073
 21
84.8249
  0
LINE
  8
0
 10
10.6073
 20
84.8249
 11
10.6773
 21
84.975
  0
LINE
  8
0
 10
10.6773
 20
84.975
 11
10.7722
 21
85.1106
  0
LINE
  8
0
 10
10.7722
 20
85.1106
 11
10.8893
 21
85.2277
  0
LINE
  8
0
 10
10.8893
 20
85.2277
 11
11.025
 21
85.3227
  0
LINE
  8
0
 10
11.025
 20
85.3227
 11
11.1751
 21
85.3927
  0
LINE
  8
0
 10
11.1751
 20
85.3927
 11
11.335
 21
85.4356
  0
LINE
  8
0
 10
11.335
 20
85.4356
 11
11.5
 21
85.45
  0
LINE
  8
0
 10
11.5
 20
85.45
 11
11.665
 21
85.4356
  0
LINE
  8
0
 10
11.665
 20
85.4356
 11
11.8249
 21
85.3927
  0
LINE
  8
0
 10
11.8249
 20
85.3927
 11
11.975
 21
85.3227
  0
LINE
  8
0
 10
11.975
 20
85.3227
 11
12.1106
 21
85.2277
  0
LINE
  8
0
 10
12.1106
 20
85.2277
 11
12.2277
 21
85.1106
  0
LINE
  8
0
 10
12.2277
 20
85.1106
 11
12.3227
 21
84.975
  0
LINE
  8
0
 10
12.3227
 20
84.975
 11
12.3927
 21
84.8249
  0
LINE
  8
0
 10
12.3927
 20
84.8249
 11
12.4356
 21
84.665
  0
LINE
  8
0
 10
12.4356
 20
84.665
 11
12.45
 21
84.5
  0
LINE
  8
0
 10
12.45
 20
84.5
 11
12.4356
 21
84.335
  0
LINE
  8
0
 10
12.4356
 20
84.335
 11
12.3927
 21
84.1751
  0
LINE
  8
0
 10
12.3927
 20
84.1751
 11
12.3227
 21
84.025
  0
LINE
  8
0
 10
12.3227
 20
84.025
 11
12.2277
 21
83.8893
  0
LINE
  8
0
 10
12.2277
 20
83.8893
 11
12.1106
 21
83.7722
  0
LINE
  8
0
 10
12.1106
 20
83.7722
 11
11.975
 21
83.6773
  0
LINE
  8
0
 10
11.975
 20
83.6773
 11
11.8249
 21
83.6073
  0
LINE
  8
0
 10
11.8249
 20
83.6073
 11
11.665
 21
83.5644
  0
LINE
  8
0
 10
11.665
 20
83.5644
 11
11.5
 21
83.55
  0
LINE
  8
0
 10
11.5
 20
83.55
 11
11.335
 21
83.5644
  0
LINE
  8
0
 10
60.335
 20
83.5644
 11
60.1751
 21
83.6073
  0
LINE
  8
0
 10
60.1751
 20
83.6073
 11
60.025
 21
83.6773
  0
LINE
  8
0
 10
60.025
 20
83.6773
 11
59.8893
 21
83.7722
  0
LINE
  8
0
 10
59.8893
 20
83.7722
 11
59.7722
 21
83.8893
  0
LINE
  8
0
 10
59.7722
 20
83.8893
 11
59.6773
 21
84.025
  0
LINE
  8
0
 10
59.6773
 20
84.025
 11
59.6073
 21
84.1751
  0
LINE
  8
0
 10
59.6073
 20
84.1751
 11
59.5644
 21
84.335
  0
LINE
  8
0
 10
59.5644
 20
84.335
 11
59.55
 21
84.5
  0
LINE
  8
0
 10
59.55
 20
84.5
 11
59.5644
 21
84.665
  0
LINE
  8
0
 10
59.5644
 20
84.665
 11
59.6073
 21
84.8249
  0
LINE
  8
0
 10
59.6073
 20
84.8249
 11
59.6773
 21
84.975
  0
LINE
  8
0
 10
59.6773
 20
84.975
 11
59.7722
 21
85.1106
  0
LINE
  8
0
 10
59.7722
 20
85.1106
 11
59.8893
 21
85.2277
  0
LINE
  8
0
 10
59.8893
 20
85.2277
 11
60.025
 21
85.3227
  0
LINE
  8
0
 10
60.025
 20
85.3227
 11
60.1751
 21
85.3927
  0
LINE
  8
0
 10
60.1751
 20
85.3927
 11
60.335
 21
85.4356
  0
LINE
  8
0
 10
60.335
 20
85.4356
 11
60.5
 21
85.45
  0
LINE
  8
0
 10
60.5
 20
85.45
 11
60.665
 21
85.4356
  0
LINE
  8
0
 10
60.665
 20
85.4356
 11
60.8249
 21
85.3927
  0
LINE
  8
0
 10
60.8249
 20
85.3927
 11
60.975
 21
85.3227
  0
LINE
  8
0
 10
60.975
 20
85.3227
 11
61.1106
 21
85.2277
  0
LINE
  8
0
 10
61.1106
 20
85.2277
 11
61.2277
 21
85.1106
  0
LINE
  8
0
 10
61.2277
 20
85.1106
 11
61.3227
 21
84.975
  0
LINE
  8
0
 10
61.3227
 20
84.975
 11
61.3927
 21
84.8249
  0
LINE
  8
0
 10
61.3927
 20
84.8249
 11
61.4356
 21
84.665
  0
LINE
  8
0
 10
61.4356
 20
84.665
 11
61.45
 21
84.5
  0
LINE
  8
0
 10
61.45
 20
84.5
 11
61.4356
 21
84.335
  0
LINE
  8
0
 10
61.4356
 20
84.335
 11
61.3927
 21
84.1751
  0
LINE
  8
0
 10
61.3927
 20
84.1751
 11
61.3227
 21
84.025
  0
LINE
  8
0
 10
61.3227
 20
84.025
 11
61.2277
 21
83.8893
  0
LINE
  8
0
 10
61.2277
 20
83.8893
 11
61.1106
 21
83.7722
  0
LINE
  8
0
 10
61.1106
 20
83.7722
 11
60.975
 21
83.6773
  0
LINE
  8
0
 10
60.975
 20
83.6773
 11
60.8249
 21
83.6073
  0
LINE
  8
0
 10
60.8249
 20
83.6073
 11
60.665
 21
83.5644
  0
LINE
  8
0
 10
60.665
 20
83.5644
 11
60.5
 21
83.55
  0
LINE
  8
0
 10
60.5
 20
83.55
 11
60.335
 21
83.5644
  0
LINE
  8
0
 10
56.2
 20
55.1
 11
56.2
 21
59.1
  0
LINE
  8
0
 10
56.2
 20
59.1
 11
52.2
 21
59.1
  0
LINE
  8
0
 10
52.2
 20
59.1
 11
52.2
 21
76.3
  0
LINE
  8
0
 10
52.2
 20
76.3
 11
56.2
 21
76.3
  0
LINE
  8
0
 10
56.2
 20
76.3
 11
56.2
 21
80.3
  0
LINE
  8
0
 10
56.2
 20
80.3
 11
65.2
 21
80.3
  0
LINE
  8
0
 10
65.2
 20
80.3
 11
65.2
 21
76.3
  0
LINE
  8
0
 10
65.2
 20
76.3
 11
69.2
 21
76.3
  0
LINE
  8
0
 10
69.2
 20
76.3
 11
69.2
 21
80.3
  0
LINE
  8
0
 10
69.2
 20
80.3
 11
76.3
 21
80.3
  0
LINE
  8
0
 10
76.3
 20
80.3
 11
76.3
 21
55.1
  0
LINE
  8
0
 10
76.3
 20
55.1
 11
69.2
 21
55.1
  0
LINE
  8
0
 10
69.2
 20
55.1
 11
69.2
 21
59.1
  0
LINE
  8
0
 10
69.2
 20
59.1
 11
65.2
 21
59.1
  0
LINE
  8
0
 10
65.2
 20
59.1
 11
65.2
 21
55.1
  0
LINE
  8
0
 10
65.2
 20
55.1
 11
56.2
 21
55.1
  0
LINE
  8
0
 10
67.0784
 20
77.6106
 11
66.9606
 21
77.6422
  0
LINE
  8
0
 10
66.9606
 20
77.6422
 11
66.85
 21
77.6938
  0
LINE
  8
0
 10
66.85
 20
77.6938
 11
66.75
 21
77.7638
  0
LINE
  8
0
 10
66.75
 20
77.7638
 11
66.6638
 21
77.8501
  0
LINE
  8
0
 10
66.6638
 20
77.8501
 11
66.5938
 21
77.95
  0
LINE
  8
0
 10
66.5938
 20
77.95
 11
66.5422
 21
78.0606
  0
LINE
  8
0
 10
66.5422
 20
78.0606
 11
66.5106
 21
78.1784
  0
LINE
  8
0
 10
66.5106
 20
78.1784
 11
66.5
 21
78.3
  0
LINE
  8
0
 10
66.5
 20
78.3
 11
66.5106
 21
78.4216
  0
LINE
  8
0
 10
66.5106
 20
78.4216
 11
66.5422
 21
78.5394
  0
LINE
  8
0
 10
66.5422
 20
78.5394
 11
66.5938
 21
78.65
  0
LINE
  8
0
 10
66.5938
 20
78.65
 11
66.6638
 21
78.75
  0
LINE
  8
0
 10
66.6638
 20
78.75
 11
66.75
 21
78.8362
  0
LINE
  8
0
 10
66.75
 20
78.8362
 11
66.85
 21
78.9062
  0
LINE
  8
0
 10
66.85
 20
78.9062
 11
66.9606
 21
78.9578
  0
LINE
  8
0
 10
66.9606
 20
78.9578
 11
67.0784
 21
78.9894
  0
LINE
  8
0
 10
67.0784
 20
78.9894
 11
67.2
 21
79
  0
LINE
  8
0
 10
67.2
 20
79
 11
67.3215
 21
78.9894
  0
LINE
  8
0
 10
67.3215
 20
78.9894
 11
67.4394
 21
78.9578
  0
LINE
  8
0
 10
67.4394
 20
78.9578
 11
67.55
 21
78.9062
  0
LINE
  8
0
 10
67.55
 20
78.9062
 11
67.6499
 21
78.8362
  0
LINE
  8
0
 10
67.6499
 20
78.8362
 11
67.7362
 21
78.75
  0
LINE
  8
0
 10
67.7362
 20
78.75
 11
67.8062
 21
78.65
  0
LINE
  8
0
 10
67.8062
 20
78.65
 11
67.8578
 21
78.5394
  0
LINE
  8
0
 10
67.8578
 20
78.5394
 11
67.8894
 21
78.4216
  0
LINE
  8
0
 10
67.8894
 20
78.4216
 11
67.9
 21
78.3
  0
LINE
  8
0
 10
67.9
 20
78.3
 11
67.8894
 21
78.1784
  0
LINE
  8
0
 10
67.8894
 20
78.1784
 11
67.8578
 21
78.0606
  0
LINE
  8
0
 10
67.8578
 20
78.0606
 11
67.8062
 21
77.95
  0
LINE
  8
0
 10
67.8062
 20
77.95
 11
67.7362
 21
77.8501
  0
LINE
  8
0
 10
67.7362
 20
77.8501
 11
67.6499
 21
77.7638
  0
LINE
  8
0
 10
67.6499
 20
77.7638
 11
67.55
 21
77.6938
  0
LINE
  8
0
 10
67.55
 20
77.6938
 11
67.4394
 21
77.6422
  0
LINE
  8
0
 10
67.4394
 20
77.6422
 11
67.3215
 21
77.6106
  0
LINE
  8
0
 10
67.3215
 20
77.6106
 11
67.2
 21
77.6
  0
LINE
  8
0
 10
67.2
 20
77.6
 11
67.0784
 21
77.6106
  0
LINE
  8
0
 10
54.0784
 20
77.6106
 11
53.9606
 21
77.6422
  0
LINE
  8
0
 10
53.9606
 20
77.6422
 11
53.85
 21
77.6938
  0
LINE
  8
0
 10
53.85
 20
77.6938
 11
53.75
 21
77.7638
  0
LINE
  8
0
 10
53.75
 20
77.7638
 11
53.6638
 21
77.8501
  0
LINE
  8
0
 10
53.6638
 20
77.8501
 11
53.5938
 21
77.95
  0
LINE
  8
0
 10
53.5938
 20
77.95
 11
53.5422
 21
78.0606
  0
LINE
  8
0
 10
53.5422
 20
78.0606
 11
53.5106
 21
78.1784
  0
LINE
  8
0
 10
53.5106
 20
78.1784
 11
53.5
 21
78.3
  0
LINE
  8
0
 10
53.5
 20
78.3
 11
53.5106
 21
78.4216
  0
LINE
  8
0
 10
53.5106
 20
78.4216
 11
53.5422
 21
78.5394
  0
LINE
  8
0
 10
53.5422
 20
78.5394
 11
53.5938
 21
78.65
  0
LINE
  8
0
 10
53.5938
 20
78.65
 11
53.6638
 21
78.75
  0
LINE
  8
0
 10
53.6638
 20
78.75
 11
53.75
 21
78.8362
  0
LINE
  8
0
 10
53.75
 20
78.8362
 11
53.85
 21
78.9062
  0
LINE
  8
0
 10
53.85
 20
78.9062
 11
53.9606
 21
78.9578
  0
LINE
  8
0
 10
53.9606
 20
78.9578
 11
54.0784
 21
78.9894
  0
LINE
  8
0
 10
54.0784
 20
78.9894
 11
54.2
 21
79
  0
LINE
  8
0
 10
54.2
 20
79
 11
54.3215
 21
78.9894
  0
LINE
  8
0
 10
54.3215
 20
78.9894
 11
54.4394
 21
78.9578
  0
LINE
  8
0
 10
54.4394
 20
78.9578
 11
54.55
 21
78.9062
  0
LINE
  8
0
 10
54.55
 20
78.9062
 11
54.6499
 21
78.8362
  0
LINE
  8
0
 10
54.6499
 20
78.8362
 11
54.7362
 21
78.75
  0
LINE
  8
0
 10
54.7362
 20
78.75
 11
54.8062
 21
78.65
  0
LINE
  8
0
 10
54.8062
 20
78.65
 11
54.8578
 21
78.5394
  0
LINE
  8
0
 10
54.8578
 20
78.5394
 11
54.8894
 21
78.4216
  0
LINE
  8
0
 10
54.8894
 20
78.4216
 11
54.9
 21
78.3
  0
LINE
  8
0
 10
54.9
 20
78.3
 11
54.8894
 21
78.1784
  0
LINE
  8
0
 10
54.8894
 20
78.1784
 11
54.8578
 21
78.0606
  0
LINE
  8
0
 10
54.8578
 20
78.0606
 11
54.8062
 21
77.95
  0
LINE
  8
0
 10
54.8062
 20
77.95
 11
54.7362
 21
77.8501
  0
LINE
  8
0
 10
54.7362
 20
77.8501
 11
54.6499
 21
77.7638
  0
LINE
  8
0
 10
54.6499
 20
77.7638
 11
54.55
 21
77.6938
  0
LINE
  8
0
 10
54.55
 20
77.6938
 11
54.4394
 21
77.6422
  0
LINE
  8
0
 10
54.4394
 20
77.6422
 11
54.3215
 21
77.6106
  0
LINE
  8
0
 10
54.3215
 20
77.6106
 11
54.2
 21
77.6
  0
LINE
  8
0
 10
54.2
 20
77.6
 11
54.0784
 21
77.6106
  0
LINE
  8
0
 10
54.0784
 20
56.4106
 11
53.9606
 21
56.4422
  0
LINE
  8
0
 10
53.9606
 20
56.4422
 11
53.85
 21
56.4938
  0
LINE
  8
0
 10
53.85
 20
56.4938
 11
53.75
 21
56.5638
  0
LINE
  8
0
 10
53.75
 20
56.5638
 11
53.6638
 21
56.65
  0
LINE
  8
0
 10
53.6638
 20
56.65
 11
53.5938
 21
56.75
  0
LINE
  8
0
 10
53.5938
 20
56.75
 11
53.5422
 21
56.8606
  0
LINE
  8
0
 10
53.5422
 20
56.8606
 11
53.5106
 21
56.9784
  0
LINE
  8
0
 10
53.5106
 20
56.9784
 11
53.5
 21
57.1
  0
LINE
  8
0
 10
53.5
 20
57.1
 11
53.5106
 21
57.2215
  0
LINE
  8
0
 10
53.5106
 20
57.2215
 11
53.5422
 21
57.3394
  0
LINE
  8
0
 10
53.5422
 20
57.3394
 11
53.5938
 21
57.45
  0
LINE
  8
0
 10
53.5938
 20
57.45
 11
53.6638
 21
57.5499
  0
LINE
  8
0
 10
53.6638
 20
57.5499
 11
53.75
 21
57.6362
  0
LINE
  8
0
 10
53.75
 20
57.6362
 11
53.85
 21
57.7062
  0
LINE
  8
0
 10
53.85
 20
57.7062
 11
53.9606
 21
57.7578
  0
LINE
  8
0
 10
53.9606
 20
57.7578
 11
54.0784
 21
57.7894
  0
LINE
  8
0
 10
54.0784
 20
57.7894
 11
54.2
 21
57.8
  0
LINE
  8
0
 10
54.2
 20
57.8
 11
54.3215
 21
57.7894
  0
LINE
  8
0
 10
54.3215
 20
57.7894
 11
54.4394
 21
57.7578
  0
LINE
  8
0
 10
54.4394
 20
57.7578
 11
54.55
 21
57.7062
  0
LINE
  8
0
 10
54.55
 20
57.7062
 11
54.6499
 21
57.6362
  0
LINE
  8
0
 10
54.6499
 20
57.6362
 11
54.7362
 21
57.5499
  0
LINE
  8
0
 10
54.7362
 20
57.5499
 11
54.8062
 21
57.45
  0
LINE
  8
0
 10
54.8062
 20
57.45
 11
54.8578
 21
57.3394
  0
LINE
  8
0
 10
54.8578
 20
57.3394
 11
54.8894
 21
57.2215
  0
LINE
  8
0
 10
54.8894
 20
57.2215
 11
54.9
 21
57.1
  0
LINE
  8
0
 10
54.9
 20
57.1
 11
54.8894
 21
56.9784
  0
LINE
  8
0
 10
54.8894
 20
56.9784
 11
54.8578
 21
56.8606
  0
LINE
  8
0
 10
54.8578
 20
56.8606
 11
54.8062
 21
56.75
  0
LINE
  8
0
 10
54.8062
 20
56.75
 11
54.7362
 21
56.65
  0
LINE
  8
0
 10
54.7362
 20
56.65
 11
54.6499
 21
56.5638
  0
LINE
  8
0
 10
54.6499
 20
56.5638
 11
54.55
 21
56.4938
  0
LINE
  8
0
 10
54.55
 20
56.4938
 11
54.4394
 21
56.4422
  0
LINE
  8
0
 10
54.4394
 20
56.4422
 11
54.3215
 21
56.4106
  0
LINE
  8
0
 10
54.3215
 20
56.4106
 11
54.2
 21
56.4
  0
LINE
  8
0
 10
54.2
 20
56.4
 11
54.0784
 21
56.4106
  0
LINE
  8
0
 10
67.0784
 20
56.4106
 11
66.9606
 21
56.4422
  0
LINE
  8
0
 10
66.9606
 20
56.4422
 11
66.85
 21
56.4938
  0
LINE
  8
0
 10
66.85
 20
56.4938
 11
66.75
 21
56.5638
  0
LINE
  8
0
 10
66.75
 20
56.5638
 11
66.6638
 21
56.65
  0
LINE
  8
0
 10
66.6638
 20
56.65
 11
66.5938
 21
56.75
  0
LINE
  8
0
 10
66.5938
 20
56.75
 11
66.5422
 21
56.8606
  0
LINE
  8
0
 10
66.5422
 20
56.8606
 11
66.5106
 21
56.9784
  0
LINE
  8
0
 10
66.5106
 20
56.9784
 11
66.5
 21
57.1
  0
LINE
  8
0
 10
66.5
 20
57.1
 11
66.5106
 21
57.2215
  0
LINE
  8
0
 10
66.5106
 20
57.2215
 11
66.5422
 21
57.3394
  0
LINE
  8
0
 10
66.5422
 20
57.3394
 11
66.5938
 21
57.45
  0
LINE
  8
0
 10
66.5938
 20
57.45
 11
66.6638
 21
57.5499
  0
LINE
  8
0
 10
66.6638
 20
57.5499
 11
66.75
 21
57.6362
  0
LINE
  8
0
 10
66.75
 20
57.6362
 11
66.85
 21
57.7062
  0
LINE
  8
0
 10
66.85
 20
57.7062
 11
66.9606
 21
57.7578
  0
LINE
  8
0
 10
66.9606
 20
57.7578
 11
67.0784
 21
57.7894
  0
LINE
  8
0
 10
67.0784
 20
57.7894
 11
67.2
 21
57.8
  0
LINE
  8
0
 10
67.2
 20
57.8
 11
67.3215
 21
57.7894
  0
LINE
  8
0
 10
67.3215
 20
57.7894
 11
67.4394
 21
57.7578
  0
LINE
  8
0
 10
67.4394
 20
57.7578
 11
67.55
 21
57.7062
  0
LINE
  8
0
 10
67.55
 20
57.7062
 11
67.6499
 21
57.6362
  0
LINE
  8
0
 10
67.6499
 20
57.6362
 11
67.7362
 21
57.5499
  0
LINE
  8
0
 10
67.7362
 20
57.5499
 11
67.8062
 21
57.45
  0
LINE
  8
0
 10
67.8062
 20
57.45
 11
67.8578
 21
57.3394
  0
LINE
  8
0
 10
67.8578
 20
57.3394
 11
67.8894
 21
57.2215
  0
LINE
  8
0
 10
67.8894
 20
57.2215
 11
67.9
 21
57.1
  0
LINE
  8
0
 10
67.9
 20
57.1
 11
67.8894
 21
56.9784
  0
LINE
  8
0
 10
67.8894
 20
56.9784
 11
67.8578
 21
56.8606
  0
LINE
  8
0
 10
67.8578
 20
56.8606
 11
67.8062
 21
56.75
  0
LINE
  8
0
 10
67.8062
 20
56.75
 11
67.7362
 21
56.65
  0
LINE
  8
0
 10
67.7362
 20
56.65
 11
67.6499
 21
56.5638
  0
LINE
  8
0
 10
67.6499
 20
56.5638
 11
67.55
 21
56.4938
  0
LINE
  8
0
 10
67.55
 20
56.4938
 11
67.4394
 21
56.4422
  0
LINE
  8
0
 10
67.4394
 20
56.4422
 11
67.3215
 21
56.4106
  0
LINE
  8
0
 10
67.3215
 20
56.4106
 11
67.2
 21
56.4
  0
LINE
  8
0
 10
67.2
 20
56.4
 11
67.0784
 21
56.4106
  0
LINE
  8
0
 10
60.335
 20
25.5644
 11
60.1751
 21
25.6073
  0
LINE
  8
0
 10
60.1751
 20
25.6073
 11
60.025
 21
25.6773
  0
LINE
  8
0
 10
60.025
 20
25.6773
 11
59.8893
 21
25.7722
  0
LINE
  8
0
 10
59.8893
 20
25.7722
 11
59.7722
 21
25.8893
  0
LINE
  8
0
 10
59.7722
 20
25.8893
 11
59.6773
 21
26.025
  0
LINE
  8
0
 10
59.6773
 20
26.025
 11
59.6073
 21
26.1751
  0
LINE
  8
0
 10
59.6073
 20
26.1751
 11
59.5644
 21
26.335
  0
LINE
  8
0
 10
59.5644
 20
26.335
 11
59.55
 21
26.5
  0
LINE
  8
0
 10
59.55
 20
26.5
 11
59.5644
 21
26.665
  0
LINE
  8
0
 10
59.5644
 20
26.665
 11
59.6073
 21
26.8249
  0
LINE
  8
0
 10
59.6073
 20
26.8249
 11
59.6773
 21
26.975
  0
LINE
  8
0
 10
59.6773
 20
26.975
 11
59.7722
 21
27.1106
  0
LINE
  8
0
 10
59.7722
 20
27.1106
 11
59.8893
 21
27.2277
  0
LINE
  8
0
 10
59.8893
 20
27.2277
 11
60.025
 21
27.3227
  0
LINE
  8
0
 10
60.025
 20
27.3227
 11
60.1751
 21
27.3927
  0
LINE
  8
0
 10
60.1751
 20
27.3927
 11
60.335
 21
27.4356
  0
LINE
  8
0
 10
60.335
 20
27.4356
 11
60.5
 21
27.45
  0
LINE
  8
0
 10
60.5
 20
27.45
 11
60.665
 21
27.4356
  0
LINE
  8
0
 10
60.665
 20
27.4356
 11
60.8249
 21
27.3927
  0
LINE
  8
0
 10
60.8249
 20
27.3927
 11
60.975
 21
27.3227
  0
LINE
  8
0
 10
60.975
 20
27.3227
 11
61.1106
 21
27.2277
  0
LINE
  8
0
 10
61.1106
 20
27.2277
 11
61.2277
 21
27.1106
  0
LINE
  8
0
 10
61.2277
 20
27.1106
 11
61.3227
 21
26.975
  0
LINE
  8
0
 10
61.3227
 20
26.975
 11
61.3927
 21
26.8249
  0
LINE
  8
0
 10
61.3927
 20
26.8249
 11
61.4356
 21
26.665
  0
LINE
  8
0
 10
61.4356
 20
26.665
 11
61.45
 21
26.5
  0
LINE
  8
0
 10
61.45
 20
26.5
 11
61.4356
 21
26.335
  0
LINE
  8
0
 10
61.4356
 20
26.335
 11
61.3927
 21
26.1751
  0
LINE
  8
0
 10
61.3927
 20
26.1751
 11
61.3227
 21
26.025
  0
LINE
  8
0
 10
61.3227
 20
26.025
 11
61.2277
 21
25.8893
  0
LINE
  8
0
 10
61.2277
 20
25.8893
 11
61.1106
 21
25.7722
  0
LINE
  8
0
 10
61.1106
 20
25.7722
 11
60.975
 21
25.6773
  0
LINE
  8
0
 10
60.975
 20
25.6773
 11
60.8249
 21
25.6073
  0
LINE
  8
0
 10
60.8249
 20
25.6073
 11
60.665
 21
25.5644
  0
LINE
  8
0
 10
60.665
 20
25.5644
 11
60.5
 21
25.55
  0
LINE
  8
0
 10
60.5
 20
25.55
 11
60.335
 21
25.5644
  0
LINE
  8
0
 10
11.335
 20
25.5644
 11
11.1751
 21
25.6073
  0
LINE
  8
0
 10
11.1751
 20
25.6073
 11
11.025
 21
25.6773
  0
LINE
  8
0
 10
11.025
 20
25.6773
 11
10.8893
 21
25.7722
  0
LINE
  8
0
 10
10.8893
 20
25.7722
 11
10.7722
 21
25.8893
  0
LINE
  8
0
 10
10.7722
 20
25.8893
 11
10.6773
 21
26.025
  0
LINE
  8
0
 10
10.6773
 20
26.025
 11
10.6073
 21
26.1751
  0
LINE
  8
0
 10
10.6073
 20
26.1751
 11
10.5644
 21
26.335
  0
LINE
  8
0
 10
10.5644
 20
26.335
 11
10.55
 21
26.5
  0
LINE
  8
0
 10
10.55
 20
26.5
 11
10.5644
 21
26.665
  0
LINE
  8
0
 10
10.5644
 20
26.665
 11
10.6073
 21
26.8249
  0
LINE
  8
0
 10
10.6073
 20
26.8249
 11
10.6773
 21
26.975
  0
LINE
  8
0
 10
10.6773
 20
26.975
 11
10.7722
 21
27.1106
  0
LINE
  8
0
 10
10.7722
 20
27.1106
 11
10.8893
 21
27.2277
  0
LINE
  8
0
 10
10.8893
 20
27.2277
 11
11.025
 21
27.3227
  0
LINE
  8
0
 10
11.025
 20
27.3227
 11
11.1751
 21
27.3927
  0
LINE
  8
0
 10
11.1751
 20
27.3927
 11
11.335
 21
27.4356
  0
LINE
  8
0
 10
11.335
 20
27.4356
 11
11.5
 21
27.45
  0
LINE
  8
0
 10
11.5
 20
27.45
 11
11.665
 21
27.4356
  0
LINE
  8
0
 10
11.665
 20
27.4356
 11
11.8249
 21
27.3927
  0
LINE
  8
0
 10
11.8249
 20
27.3927
 11
11.975
 21
27.3227
  0
LINE
  8
0
 10
11.975
 20
27.3227
 11
12.1106
 21
27.2277
  0
LINE
  8
0
 10
12.1106
 20
27.2277
 11
12.2277
 21
27.1106
  0
LINE
  8
0
 10
12.2277
 20
27.1106
 11
12.3227
 21
26.975
  0
LINE
  8
0
 10
12.3227
 20
26.975
 11
12.3927
 21
26.8249
  0
LINE
  8
0
 10
12.3927
 20
26.8249
 11
12.4356
 21
26.665
  0
LINE
  8
0
 10
12.4356
 20
26.665
 11
12.45
 21
26.5
  0
LINE
  8
0
 10
12.45
 20
26.5
 11
12.4356
 21
26.335
  0
LINE
  8
0
 10
12.4356
 20
26.335
 11
12.3927
 21
26.1751
  0
LINE
  8
0
 10
12.3927
 20
26.1751
 11
12.3227
 21
26.025
  0
LINE
  8
0
 10
12.3227
 20
26.025
 11
12.2277
 21
25.8893
  0
LINE
  8
0
 10
12.2277
 20
25.8893
 11
12.1106
 21
25.7722
  0
LINE
  8
0
 10
12.1106
 20
25.7722
 11
11.975
 21
25.6773
  0
LINE
  8
0
 10
11.975
 20
25.6773
 11
11.8249
 21
25.6073
  0
LINE
  8
0
 10
11.8249
 20
25.6073
 11
11.665
 21
25.5644
  0
LINE
  8
0
 10
11.665
 20
25.5644
 11
11.5
 21
25.55
  0
LINE
  8
0
 10
11.5
 20
25.55
 11
11.335
 21
25.5644
  0
LINE
  8
0
 10
13.7263
 20
4.01518
 11
13.558
 21
4.0603
  0
LINE
  8
0
 10
13.558
 20
4.0603
 11
13.4
 21
4.13397
  0
LINE
  8
0
 10
13.4
 20
4.13397
 11
13.2572
 21
4.23395
  0
LINE
  8
0
 10
13.2572
 20
4.23395
 11
13.1339
 21
4.35721
  0
LINE
  8
0
 10
13.1339
 20
4.35721
 11
13.034
 21
4.5
  0
LINE
  8
0
 10
13.034
 20
4.5
 11
12.9603
 21
4.65797
  0
LINE
  8
0
 10
12.9603
 20
4.65797
 11
12.9152
 21
4.82634
  0
LINE
  8
0
 10
12.9152
 20
4.82634
 11
12.9
 21
5
  0
LINE
  8
0
 10
12.9
 20
5
 11
12.9152
 21
5.17365
  0
LINE
  8
0
 10
12.9152
 20
5.17365
 11
12.9603
 21
5.34201
  0
LINE
  8
0
 10
12.9603
 20
5.34201
 11
13.034
 21
5.5
  0
LINE
  8
0
 10
13.034
 20
5.5
 11
13.1339
 21
5.64278
  0
LINE
  8
0
 10
13.1339
 20
5.64278
 11
13.2572
 21
5.76604
  0
LINE
  8
0
 10
13.2572
 20
5.76604
 11
13.4
 21
5.86601
  0
LINE
  8
0
 10
13.4
 20
5.86601
 11
13.558
 21
5.93968
  0
LINE
  8
0
 10
13.558
 20
5.93968
 11
13.7263
 21
5.9848
  0
LINE
  8
0
 10
13.7263
 20
5.9848
 11
13.9
 21
6
  0
LINE
  8
0
 10
13.9
 20
6
 11
14.0736
 21
5.9848
  0
LINE
  8
0
 10
14.0736
 20
5.9848
 11
14.242
 21
5.93968
  0
LINE
  8
0
 10
14.242
 20
5.93968
 11
14.4
 21
5.86601
  0
LINE
  8
0
 10
14.4
 20
5.86601
 11
14.5428
 21
5.76604
  0
LINE
  8
0
 10
14.5428
 20
5.76604
 11
14.666
 21
5.64278
  0
LINE
  8
0
 10
14.666
 20
5.64278
 11
14.766
 21
5.5
  0
LINE
  8
0
 10
14.766
 20
5.5
 11
14.8397
 21
5.34201
  0
LINE
  8
0
 10
14.8397
 20
5.34201
 11
14.8848
 21
5.17365
  0
LINE
  8
0
 10
14.8848
 20
5.17365
 11
14.9
 21
5
  0
LINE
  8
0
 10
14.9
 20
5
 11
14.8848
 21
4.82634
  0
LINE
  8
0
 10
14.8848
 20
4.82634
 11
14.8397
 21
4.65797
  0
LINE
  8
0
 10
14.8397
 20
4.65797
 11
14.766
 21
4.5
  0
LINE
  8
0
 10
14.766
 20
4.5
 11
14.666
 21
4.35721
  0
LINE
  8
0
 10
14.666
 20
4.35721
 11
14.5428
 21
4.23395
  0
LINE
  8
0
 10
14.5428
 20
4.23395
 11
14.4
 21
4.13397
  0
LINE
  8
0
 10
14.4
 20
4.13397
 11
14.242
 21
4.0603
  0
LINE
  8
0
 10
14.242
 20
4.0603
 11
14.0736
 21
4.01518
  0
LINE
  8
0
 10
14.0736
 20
4.01518
 11
13.9
 21
4
  0
LINE
  8
0
 10
13.9
 20
4
 11
13.7263
 21
4.01518
  0
LINE
  8
0
 10
80.7263
 20
4.01518
 11
80.558
 21
4.0603
  0
LINE
  8
0
 10
80.558
 20
4.0603
 11
80.4
 21
4.13397
  0
LINE
  8
0
 10
80.4
 20
4.13397
 11
80.2572
 21
4.23395
  0
LINE
  8
0
 10
80.2572
 20
4.23395
 11
80.134
 21
4.35721
  0
LINE
  8
0
 10
80.134
 20
4.35721
 11
80.034
 21
4.5
  0
LINE
  8
0
 10
80.034
 20
4.5
 11
79.9603
 21
4.65797
  0
LINE
  8
0
 10
79.9603
 20
4.65797
 11
79.9152
 21
4.82634
  0
LINE
  8
0
 10
79.9152
 20
4.82634
 11
79.9
 21
5
  0
LINE
  8
0
 10
79.9
 20
5
 11
79.9152
 21
5.17365
  0
LINE
  8
0
 10
79.9152
 20
5.17365
 11
79.9603
 21
5.34201
  0
LINE
  8
0
 10
79.9603
 20
5.34201
 11
80.034
 21
5.5
  0
LINE
  8
0
 10
80.034
 20
5.5
 11
80.134
 21
5.64278
  0
LINE
  8
0
 10
80.134
 20
5.64278
 11
80.2572
 21
5.76604
  0
LINE
  8
0
 10
80.2572
 20
5.76604
 11
80.4
 21
5.86601
  0
LINE
  8
0
 10
80.4
 20
5.86601
 11
80.558
 21
5.93968
  0
LINE
  8
0
 10
80.558
 20
5.93968
 11
80.7263
 21
5.9848
  0
LINE
  8
0
 10
80.7263
 20
5.9848
 11
80.9
 21
6
  0
LINE
  8
0
 10
80.9
 20
6
 11
81.0736
 21
5.9848
  0
LINE
  8
0
 10
81.0736
 20
5.9848
 11
81.242
 21
5.93968
  0
LINE
  8
0
 10
81.242
 20
5.93968
 11
81.4
 21
5.86601
  0
LINE
  8
0
 10
81.4
 20
5.86601
 11
81.5428
 21
5.76604
  0
LINE
  8
0
 10
81.5428
 20
5.76604
 11
81.666
 21
5.64278
  0
LINE
  8
0
 10
81.666
 20
5.64278
 11
81.766
 21
5.5
  0
LINE
  8
0
 10
81.766
 20
5.5
 11
81.8397
 21
5.34201
  0
LINE
  8
0
 10
81.8397
 20
5.34201
 11
81.8848
 21
5.17365
  0
LINE
  8
0
 10
81.8848
 20
5.17365
 11
81.9
 21
5
  0
LINE
  8
0
 10
81.9
 20
5
 11
81.8848
 21
4.82634
  0
LINE
  8
0
 10
81.8848
 20
4.82634
 11
81.8397
 21
4.65797
  0
LINE
  8
0
 10
81.8397
 20
4.65797
 11
81.766
 21
4.5
  0
LINE
  8
0
 10
81.766
 20
4.5
 11
81.666
 21
4.35721
  0
LINE
  8
0
 10
81.666
 20
4.35721
 11
81.5428
 21
4.23395
  0
LINE
  8
0
 10
81.5428
 20
4.23395
 11
81.4
 21
4.13397
  0
LINE
  8
0
 10
81.4
 20
4.13397
 11
81.242
 21
4.0603
  0
LINE
  8
0
 10
81.242
 20
4.0603
 11
81.0736
 21
4.01518
  0
LINE
  8
0
 10
81.0736
 20
4.01518
 11
80.9
 21
4
  0
LINE
  8
0
 10
80.9
 20
4
 11
80.7263
 21
4.01518
  0
ENDSEC
  0
SECTION
  2
OBJECTS
  0
DICTIONARY
  0
ENDSEC
  0
EOF
