<?xml version="1.0" standalone="no"?>
<!DOCTYPE svg PUBLIC "-//W3C//DTD SVG 1.1//EN" "http://www.w3.org/Graphics/SVG/1.1/DTD/svg11.dtd">
<svg width="95mm" height="95mm" viewBox="0 -95 95 95" xmlns="http://www.w3.org/2000/svg" version="1.1">
<title>OpenSCAD Model</title>
<path d="
M 6,-2 L 38,-2 L 38,-0 L 89.9,-0 L 90.7682,-0.0759583 L 91.6101,-0.301529
 L 92.4,-0.669861 L 93.1139,-1.16977 L 93.7302,-1.78606 L 94.2301,-2.5 L 94.5985,-3.28989 L 94.824,-4.13174
 L 94.9,-5 L 94.9,-89.9 L 94.824,-90.7682 L 94.5985,-91.6101 L 94.2301,-92.4 L 93.7302,-93.1139
 L 93.1139,-93.7302 L 92.4,-94.2301 L 91.6101,-94.5985 L 90.7682,-94.824 L 89.9,-94.9 L 5,-94.9
 L 4.13174,-94.824 L 3.28989,-94.5985 L 2.5,-94.2301 L 1.78606,-93.7302 L 1.16977,-93.1139 L 0.669861,-92.4
 L 0.301529,-91.6101 L 0.0759583,-90.7682 L 0,-89.9 L 0,-5 L 0.0759583,-4.13174 L 0.301529,-3.28989
 L 0.669861,-2.5 L 1.16977,-1.78606 L 1.78606,-1.16977 L 2.5,-0.669861 L 3.28989,-0.301529 L 4.13174,-0.0759583
 L 5,-0 L 6,-0 z
M 11.335,-83.5644 L 11.1751,-83.6073 L 11.025,-83.6773 L 10.8893,-83.7722 L 10.7722,-83.8893 L 10.6773,-84.025
 L 10.6073,-84.1751 L 10.5644,-84.335 L 10.55,-84.5 L 10.5644,-84.665 L 10.6073,-84.8249 L 10.6773,-84.975
 L 10.7722,-85.1106 L 10.8893,-85.2277 L 11.025,-85.3227 L 11.1751,-85.3927 L 11.335,-85.4356 L 11.5,-85.45
 L 11.665,-85.4356 L 11.8249,-85.3927 L 11.975,-85.3227 L 12.1106,-85.2277 L 12.2277,-85.1106 L 12.3227,-84.975
 L 12.3927,-84.8249 L 12.4356,-84.665 L 12.45,-84.5 L 12.4356,-84.335 L 12.3927,-84.1751 L 12.3227,-84.025
 L 12.2277,-83.8893 L 12.1106,-83.7722 L 11.975,-83.6773 L 11.8249,-83.6073 L 11.665,-83.5644 L 11.5,-83.55
 z
M 60.335,-83.5644 L 60.1751,-83.6073 L 60.025,-83.6773 L 59.8893,-83.7722 L 59.7722,-83.8893 L 59.6773,-84.025
 L 59.6073,-84.1751 L 59.5644,-84.335 L 59.55,-84.5 L 59.5644,-84.665 L 59.6073,-84.8249 L 59.6773,-84.975
 L 59.7722,-85.1106 L 59.8893,-85.2277 L 60.025,-85.3227 L 60.1751,-85.3927 L 60.335,-85.4356 L 60.5,-85.45
 L 60.665,-85.4356 L 60.8249,-85.3927 L 60.975,-85.3227 L 61.1106,-85.2277 L 61.2277,-85.1106 L 61.3227,-84.975
 L 61.3927,-84.8249 L 61.4356,-84.665 L 61.45,-84.5 L 61.4356,-84.335 L 61.3927,-84.1751 L 61.3227,-84.025
 L 61.2277,-83.8893 L 61.1106,-83.7722 L 60.975,-83.6773 L 60.8249,-83.6073 L 60.665,-83.5644 L 60.5,-83.55
 z
M 51.3,-55.2 L 51.3,-80.4 L 75.4,-80.4 L 75.4,-55.2 z
M 11.335,-25.5644 L 11.1751,-25.6073 L 11.025,-25.6773 L 10.8893,-25.7722 L 10.7722,-25.8893 L 10.6773,-26.025
 L 10.6073,-26.1751 L 10.5644,-26.335 L 10.55,-26.5 L 10.5644,-26.665 L 10.6073,-26.8249 L 10.6773,-26.975
 L 10.7722,-27.1106 L 10.8893,-27.2277 L 11.025,-27.3227 L 11.1751,-27.3927 L 11.335,-27.4356 L 11.5,-27.45
 L 11.665,-27.4356 L 11.8249,-27.3927 L 11.975,-27.3227 L 12.1106,-27.2277 L 12.2277,-27.1106 L 12.3227,-26.975
 L 12.3927,-26.8249 L 12.4356,-26.665 L 12.45,-26.5 L 12.4356,-26.335 L 12.3927,-26.1751 L 12.3227,-26.025
 L 12.2277,-25.8893 L 12.1106,-25.7722 L 11.975,-25.6773 L 11.8249,-25.6073 L 11.665,-25.5644 L 11.5,-25.55
 z
M 60.335,-25.5644 L 60.1751,-25.6073 L 60.025,-25.6773 L 59.8893,-25.7722 L 59.7722,-25.8893 L 59.6773,-26.025
 L 59.6073,-26.1751 L 59.5644,-26.335 L 59.55,-26.5 L 59.5644,-26.665 L 59.6073,-26.8249 L 59.6773,-26.975
 L 59.7722,-27.1106 L 59.8893,-27.2277 L 60.025,-27.3227 L 60.1751,-27.3927 L 60.335,-27.4356 L 60.5,-27.45
 L 60.665,-27.4356 L 60.8249,-27.3927 L 60.975,-27.3227 L 61.1106,-27.2277 L 61.2277,-27.1106 L 61.3227,-26.975
 L 61.3927,-26.8249 L 61.4356,-26.665 L 61.45,-26.5 L 61.4356,-26.335 L 61.3927,-26.1751 L 61.3227,-26.025
 L 61.2277,-25.8893 L 61.1106,-25.7722 L 60.975,-25.6773 L 60.8249,-25.6073 L 60.665,-25.5644 L 60.5,-25.55
 z
" stroke="black" fill="lightgray" stroke-width="0.5"/>
</svg>
