  0
SECTION
  2
BLOCKS
  0
ENDSEC
  0
SECTION
  2
ENTITIES
  0
LINE
  8
0
 10
6
 20
2
 11
38
 21
2
  0
LINE
  8
0
 10
38
 20
2
 11
38
 21
0
  0
LINE
  8
0
 10
38
 20
0
 11
89.9
 21
0
  0
LINE
  8
0
 10
89.9
 20
0
 11
90.7682
 21
0.0759583
  0
LINE
  8
0
 10
90.7682
 20
0.0759583
 11
91.6101
 21
0.301529
  0
LINE
  8
0
 10
91.6101
 20
0.301529
 11
92.4
 21
0.669861
  0
LINE
  8
0
 10
92.4
 20
0.669861
 11
93.1139
 21
1.16977
  0
LINE
  8
0
 10
93.1139
 20
1.16977
 11
93.7302
 21
1.78606
  0
LINE
  8
0
 10
93.7302
 20
1.78606
 11
94.2301
 21
2.5
  0
LINE
  8
0
 10
94.2301
 20
2.5
 11
94.5985
 21
3.28989
  0
LINE
  8
0
 10
94.5985
 20
3.28989
 11
94.824
 21
4.13174
  0
LINE
  8
0
 10
94.824
 20
4.13174
 11
94.9
 21
5
  0
LINE
  8
0
 10
94.9
 20
5
 11
94.9
 21
89.9
  0
LINE
  8
0
 10
94.9
 20
89.9
 11
94.824
 21
90.7682
  0
LINE
  8
0
 10
94.824
 20
90.7682
 11
94.5985
 21
91.6101
  0
LINE
  8
0
 10
94.5985
 20
91.6101
 11
94.2301
 21
92.4
  0
LINE
  8
0
 10
94.2301
 20
92.4
 11
93.7302
 21
93.1139
  0
LINE
  8
0
 10
93.7302
 20
93.1139
 11
93.1139
 21
93.7302
  0
LINE
  8
0
 10
93.1139
 20
93.7302
 11
92.4
 21
94.2301
  0
LINE
  8
0
 10
92.4
 20
94.2301
 11
91.6101
 21
94.5985
  0
LINE
  8
0
 10
91.6101
 20
94.5985
 11
90.7682
 21
94.824
  0
LINE
  8
0
 10
90.7682
 20
94.824
 11
89.9
 21
94.9
  0
LINE
  8
0
 10
89.9
 20
94.9
 11
5
 21
94.9
  0
LINE
  8
0
 10
5
 20
94.9
 11
4.13174
 21
94.824
  0
LINE
  8
0
 10
4.13174
 20
94.824
 11
3.28989
 21
94.5985
  0
LINE
  8
0
 10
3.28989
 20
94.5985
 11
2.5
 21
94.2301
  0
LINE
  8
0
 10
2.5
 20
94.2301
 11
1.78606
 21
93.7302
  0
LINE
  8
0
 10
1.78606
 20
93.7302
 11
1.16977
 21
93.1139
  0
LINE
  8
0
 10
1.16977
 20
93.1139
 11
0.669861
 21
92.4
  0
LINE
  8
0
 10
0.669861
 20
92.4
 11
0.301529
 21
91.6101
  0
LINE
  8
0
 10
0.301529
 20
91.6101
 11
0.0759583
 21
90.7682
  0
LINE
  8
0
 10
0.0759583
 20
90.7682
 11
0
 21
89.9
  0
LINE
  8
0
 10
0
 20
89.9
 11
0
 21
5
  0
LINE
  8
0
 10
0
 20
5
 11
0.0759583
 21
4.13174
  0
LINE
  8
0
 10
0.0759583
 20
4.13174
 11
0.301529
 21
3.28989
  0
LINE
  8
0
 10
0.301529
 20
3.28989
 11
0.669861
 21
2.5
  0
LINE
  8
0
 10
0.669861
 20
2.5
 11
1.16977
 21
1.78606
  0
LINE
  8
0
 10
1.16977
 20
1.78606
 11
1.78606
 21
1.16977
  0
LINE
  8
0
 10
1.78606
 20
1.16977
 11
2.5
 21
0.669861
  0
LINE
  8
0
 10
2.5
 20
0.669861
 11
3.28989
 21
0.301529
  0
LINE
  8
0
 10
3.28989
 20
0.301529
 11
4.13174
 21
0.0759583
  0
LINE
  8
0
 10
4.13174
 20
0.0759583
 11
5
 21
0
  0
LINE
  8
0
 10
5
 20
0
 11
6
 21
0
  0
LINE
  8
0
 10
6
 20
0
 11
6
 21
2
  0
LINE
  8
0
 10
11.335
 20
83.5644
 11
11.1751
 21
83.6073
  0
LINE
  8
0
 10
11.1751
 20
83.6073
 11
11.025
 21
83.6773
  0
LINE
  8
0
 10
11.025
 20
83.6773
 11
10.8893
 21
83.7722
  0
LINE
  8
0
 10
10.8893
 20
83.7722
 11
10.7722
 21
83.8893
  0
LINE
  8
0
 10
10.7722
 20
83.8893
 11
10.6773
 21
84.025
  0
LINE
  8
0
 10
10.6773
 20
84.025
 11
10.6073
 21
84.1751
  0
LINE
  8
0
 10
10.6073
 20
84.1751
 11
10.5644
 21
84.335
  0
LINE
  8
0
 10
10.5644
 20
84.335
 11
10.55
 21
84.5
  0
LINE
  8
0
 10
10.55
 20
84.5
 11
10.5644
 21
84.665
  0
LINE
  8
0
 10
10.5644
 20
84.665
 11
10.6073
 21
84.8249
  0
LINE
  8
0
 10
10.6073
 20
84.8249
 11
10.6773
 21
84.975
  0
LINE
  8
0
 10
10.6773
 20
84.975
 11
10.7722
 21
85.1106
  0
LINE
  8
0
 10
10.7722
 20
85.1106
 11
10.8893
 21
85.2277
  0
LINE
  8
0
 10
10.8893
 20
85.2277
 11
11.025
 21
85.3227
  0
LINE
  8
0
 10
11.025
 20
85.3227
 11
11.1751
 21
85.3927
  0
LINE
  8
0
 10
11.1751
 20
85.3927
 11
11.335
 21
85.4356
  0
LINE
  8
0
 10
11.335
 20
85.4356
 11
11.5
 21
85.45
  0
LINE
  8
0
 10
11.5
 20
85.45
 11
11.665
 21
85.4356
  0
LINE
  8
0
 10
11.665
 20
85.4356
 11
11.8249
 21
85.3927
  0
LINE
  8
0
 10
11.8249
 20
85.3927
 11
11.975
 21
85.3227
  0
LINE
  8
0
 10
11.975
 20
85.3227
 11
12.1106
 21
85.2277
  0
LINE
  8
0
 10
12.1106
 20
85.2277
 11
12.2277
 21
85.1106
  0
LINE
  8
0
 10
12.2277
 20
85.1106
 11
12.3227
 21
84.975
  0
LINE
  8
0
 10
12.3227
 20
84.975
 11
12.3927
 21
84.8249
  0
LINE
  8
0
 10
12.3927
 20
84.8249
 11
12.4356
 21
84.665
  0
LINE
  8
0
 10
12.4356
 20
84.665
 11
12.45
 21
84.5
  0
LINE
  8
0
 10
12.45
 20
84.5
 11
12.4356
 21
84.335
  0
LINE
  8
0
 10
12.4356
 20
84.335
 11
12.3927
 21
84.1751
  0
LINE
  8
0
 10
12.3927
 20
84.1751
 11
12.3227
 21
84.025
  0
LINE
  8
0
 10
12.3227
 20
84.025
 11
12.2277
 21
83.8893
  0
LINE
  8
0
 10
12.2277
 20
83.8893
 11
12.1106
 21
83.7722
  0
LINE
  8
0
 10
12.1106
 20
83.7722
 11
11.975
 21
83.6773
  0
LINE
  8
0
 10
11.975
 20
83.6773
 11
11.8249
 21
83.6073
  0
LINE
  8
0
 10
11.8249
 20
83.6073
 11
11.665
 21
83.5644
  0
LINE
  8
0
 10
11.665
 20
83.5644
 11
11.5
 21
83.55
  0
LINE
  8
0
 10
11.5
 20
83.55
 11
11.335
 21
83.5644
  0
LINE
  8
0
 10
60.335
 20
83.5644
 11
60.1751
 21
83.6073
  0
LINE
  8
0
 10
60.1751
 20
83.6073
 11
60.025
 21
83.6773
  0
LINE
  8
0
 10
60.025
 20
83.6773
 11
59.8893
 21
83.7722
  0
LINE
  8
0
 10
59.8893
 20
83.7722
 11
59.7722
 21
83.8893
  0
LINE
  8
0
 10
59.7722
 20
83.8893
 11
59.6773
 21
84.025
  0
LINE
  8
0
 10
59.6773
 20
84.025
 11
59.6073
 21
84.1751
  0
LINE
  8
0
 10
59.6073
 20
84.1751
 11
59.5644
 21
84.335
  0
LINE
  8
0
 10
59.5644
 20
84.335
 11
59.55
 21
84.5
  0
LINE
  8
0
 10
59.55
 20
84.5
 11
59.5644
 21
84.665
  0
LINE
  8
0
 10
59.5644
 20
84.665
 11
59.6073
 21
84.8249
  0
LINE
  8
0
 10
59.6073
 20
84.8249
 11
59.6773
 21
84.975
  0
LINE
  8
0
 10
59.6773
 20
84.975
 11
59.7722
 21
85.1106
  0
LINE
  8
0
 10
59.7722
 20
85.1106
 11
59.8893
 21
85.2277
  0
LINE
  8
0
 10
59.8893
 20
85.2277
 11
60.025
 21
85.3227
  0
LINE
  8
0
 10
60.025
 20
85.3227
 11
60.1751
 21
85.3927
  0
LINE
  8
0
 10
60.1751
 20
85.3927
 11
60.335
 21
85.4356
  0
LINE
  8
0
 10
60.335
 20
85.4356
 11
60.5
 21
85.45
  0
LINE
  8
0
 10
60.5
 20
85.45
 11
60.665
 21
85.4356
  0
LINE
  8
0
 10
60.665
 20
85.4356
 11
60.8249
 21
85.3927
  0
LINE
  8
0
 10
60.8249
 20
85.3927
 11
60.975
 21
85.3227
  0
LINE
  8
0
 10
60.975
 20
85.3227
 11
61.1106
 21
85.2277
  0
LINE
  8
0
 10
61.1106
 20
85.2277
 11
61.2277
 21
85.1106
  0
LINE
  8
0
 10
61.2277
 20
85.1106
 11
61.3227
 21
84.975
  0
LINE
  8
0
 10
61.3227
 20
84.975
 11
61.3927
 21
84.8249
  0
LINE
  8
0
 10
61.3927
 20
84.8249
 11
61.4356
 21
84.665
  0
LINE
  8
0
 10
61.4356
 20
84.665
 11
61.45
 21
84.5
  0
LINE
  8
0
 10
61.45
 20
84.5
 11
61.4356
 21
84.335
  0
LINE
  8
0
 10
61.4356
 20
84.335
 11
61.3927
 21
84.1751
  0
LINE
  8
0
 10
61.3927
 20
84.1751
 11
61.3227
 21
84.025
  0
LINE
  8
0
 10
61.3227
 20
84.025
 11
61.2277
 21
83.8893
  0
LINE
  8
0
 10
61.2277
 20
83.8893
 11
61.1106
 21
83.7722
  0
LINE
  8
0
 10
61.1106
 20
83.7722
 11
60.975
 21
83.6773
  0
LINE
  8
0
 10
60.975
 20
83.6773
 11
60.8249
 21
83.6073
  0
LINE
  8
0
 10
60.8249
 20
83.6073
 11
60.665
 21
83.5644
  0
LINE
  8
0
 10
60.665
 20
83.5644
 11
60.5
 21
83.55
  0
LINE
  8
0
 10
60.5
 20
83.55
 11
60.335
 21
83.5644
  0
LINE
  8
0
 10
51.3
 20
55.2
 11
51.3
 21
80.4
  0
LINE
  8
0
 10
51.3
 20
80.4
 11
75.4
 21
80.4
  0
LINE
  8
0
 10
75.4
 20
80.4
 11
75.4
 21
55.2
  0
LINE
  8
0
 10
75.4
 20
55.2
 11
51.3
 21
55.2
  0
LINE
  8
0
 10
11.335
 20
25.5644
 11
11.1751
 21
25.6073
  0
LINE
  8
0
 10
11.1751
 20
25.6073
 11
11.025
 21
25.6773
  0
LINE
  8
0
 10
11.025
 20
25.6773
 11
10.8893
 21
25.7722
  0
LINE
  8
0
 10
10.8893
 20
25.7722
 11
10.7722
 21
25.8893
  0
LINE
  8
0
 10
10.7722
 20
25.8893
 11
10.6773
 21
26.025
  0
LINE
  8
0
 10
10.6773
 20
26.025
 11
10.6073
 21
26.1751
  0
LINE
  8
0
 10
10.6073
 20
26.1751
 11
10.5644
 21
26.335
  0
LINE
  8
0
 10
10.5644
 20
26.335
 11
10.55
 21
26.5
  0
LINE
  8
0
 10
10.55
 20
26.5
 11
10.5644
 21
26.665
  0
LINE
  8
0
 10
10.5644
 20
26.665
 11
10.6073
 21
26.8249
  0
LINE
  8
0
 10
10.6073
 20
26.8249
 11
10.6773
 21
26.975
  0
LINE
  8
0
 10
10.6773
 20
26.975
 11
10.7722
 21
27.1106
  0
LINE
  8
0
 10
10.7722
 20
27.1106
 11
10.8893
 21
27.2277
  0
LINE
  8
0
 10
10.8893
 20
27.2277
 11
11.025
 21
27.3227
  0
LINE
  8
0
 10
11.025
 20
27.3227
 11
11.1751
 21
27.3927
  0
LINE
  8
0
 10
11.1751
 20
27.3927
 11
11.335
 21
27.4356
  0
LINE
  8
0
 10
11.335
 20
27.4356
 11
11.5
 21
27.45
  0
LINE
  8
0
 10
11.5
 20
27.45
 11
11.665
 21
27.4356
  0
LINE
  8
0
 10
11.665
 20
27.4356
 11
11.8249
 21
27.3927
  0
LINE
  8
0
 10
11.8249
 20
27.3927
 11
11.975
 21
27.3227
  0
LINE
  8
0
 10
11.975
 20
27.3227
 11
12.1106
 21
27.2277
  0
LINE
  8
0
 10
12.1106
 20
27.2277
 11
12.2277
 21
27.1106
  0
LINE
  8
0
 10
12.2277
 20
27.1106
 11
12.3227
 21
26.975
  0
LINE
  8
0
 10
12.3227
 20
26.975
 11
12.3927
 21
26.8249
  0
LINE
  8
0
 10
12.3927
 20
26.8249
 11
12.4356
 21
26.665
  0
LINE
  8
0
 10
12.4356
 20
26.665
 11
12.45
 21
26.5
  0
LINE
  8
0
 10
12.45
 20
26.5
 11
12.4356
 21
26.335
  0
LINE
  8
0
 10
12.4356
 20
26.335
 11
12.3927
 21
26.1751
  0
LINE
  8
0
 10
12.3927
 20
26.1751
 11
12.3227
 21
26.025
  0
LINE
  8
0
 10
12.3227
 20
26.025
 11
12.2277
 21
25.8893
  0
LINE
  8
0
 10
12.2277
 20
25.8893
 11
12.1106
 21
25.7722
  0
LINE
  8
0
 10
12.1106
 20
25.7722
 11
11.975
 21
25.6773
  0
LINE
  8
0
 10
11.975
 20
25.6773
 11
11.8249
 21
25.6073
  0
LINE
  8
0
 10
11.8249
 20
25.6073
 11
11.665
 21
25.5644
  0
LINE
  8
0
 10
11.665
 20
25.5644
 11
11.5
 21
25.55
  0
LINE
  8
0
 10
11.5
 20
25.55
 11
11.335
 21
25.5644
  0
LINE
  8
0
 10
60.335
 20
25.5644
 11
60.1751
 21
25.6073
  0
LINE
  8
0
 10
60.1751
 20
25.6073
 11
60.025
 21
25.6773
  0
LINE
  8
0
 10
60.025
 20
25.6773
 11
59.8893
 21
25.7722
  0
LINE
  8
0
 10
59.8893
 20
25.7722
 11
59.7722
 21
25.8893
  0
LINE
  8
0
 10
59.7722
 20
25.8893
 11
59.6773
 21
26.025
  0
LINE
  8
0
 10
59.6773
 20
26.025
 11
59.6073
 21
26.1751
  0
LINE
  8
0
 10
59.6073
 20
26.1751
 11
59.5644
 21
26.335
  0
LINE
  8
0
 10
59.5644
 20
26.335
 11
59.55
 21
26.5
  0
LINE
  8
0
 10
59.55
 20
26.5
 11
59.5644
 21
26.665
  0
LINE
  8
0
 10
59.5644
 20
26.665
 11
59.6073
 21
26.8249
  0
LINE
  8
0
 10
59.6073
 20
26.8249
 11
59.6773
 21
26.975
  0
LINE
  8
0
 10
59.6773
 20
26.975
 11
59.7722
 21
27.1106
  0
LINE
  8
0
 10
59.7722
 20
27.1106
 11
59.8893
 21
27.2277
  0
LINE
  8
0
 10
59.8893
 20
27.2277
 11
60.025
 21
27.3227
  0
LINE
  8
0
 10
60.025
 20
27.3227
 11
60.1751
 21
27.3927
  0
LINE
  8
0
 10
60.1751
 20
27.3927
 11
60.335
 21
27.4356
  0
LINE
  8
0
 10
60.335
 20
27.4356
 11
60.5
 21
27.45
  0
LINE
  8
0
 10
60.5
 20
27.45
 11
60.665
 21
27.4356
  0
LINE
  8
0
 10
60.665
 20
27.4356
 11
60.8249
 21
27.3927
  0
LINE
  8
0
 10
60.8249
 20
27.3927
 11
60.975
 21
27.3227
  0
LINE
  8
0
 10
60.975
 20
27.3227
 11
61.1106
 21
27.2277
  0
LINE
  8
0
 10
61.1106
 20
27.2277
 11
61.2277
 21
27.1106
  0
LINE
  8
0
 10
61.2277
 20
27.1106
 11
61.3227
 21
26.975
  0
LINE
  8
0
 10
61.3227
 20
26.975
 11
61.3927
 21
26.8249
  0
LINE
  8
0
 10
61.3927
 20
26.8249
 11
61.4356
 21
26.665
  0
LINE
  8
0
 10
61.4356
 20
26.665
 11
61.45
 21
26.5
  0
LINE
  8
0
 10
61.45
 20
26.5
 11
61.4356
 21
26.335
  0
LINE
  8
0
 10
61.4356
 20
26.335
 11
61.3927
 21
26.1751
  0
LINE
  8
0
 10
61.3927
 20
26.1751
 11
61.3227
 21
26.025
  0
LINE
  8
0
 10
61.3227
 20
26.025
 11
61.2277
 21
25.8893
  0
LINE
  8
0
 10
61.2277
 20
25.8893
 11
61.1106
 21
25.7722
  0
LINE
  8
0
 10
61.1106
 20
25.7722
 11
60.975
 21
25.6773
  0
LINE
  8
0
 10
60.975
 20
25.6773
 11
60.8249
 21
25.6073
  0
LINE
  8
0
 10
60.8249
 20
25.6073
 11
60.665
 21
25.5644
  0
LINE
  8
0
 10
60.665
 20
25.5644
 11
60.5
 21
25.55
  0
LINE
  8
0
 10
60.5
 20
25.55
 11
60.335
 21
25.5644
  0
ENDSEC
  0
SECTION
  2
OBJECTS
  0
DICTIONARY
  0
ENDSEC
  0
EOF
