<?xml version="1.0" standalone="no"?>
<!DOCTYPE svg PUBLIC "-//W3C//DTD SVG 1.1//EN" "http://www.w3.org/Graphics/SVG/1.1/DTD/svg11.dtd">
<svg width="95mm" height="95mm" viewBox="0 -95 95 95" xmlns="http://www.w3.org/2000/svg" version="1.1">
<title>OpenSCAD Model</title>
<path d="
M 91.4946,-0.0607605 L 92.1681,-0.241226 L 92.8,-0.535889 L 93.3711,-0.935822 L 93.8642,-1.42885 L 94.2641,-2
 L 94.5588,-2.63191 L 94.7392,-3.3054 L 94.8,-4 L 94.8,-90.8 L 94.7392,-91.4946 L 94.5588,-92.1681
 L 94.2641,-92.8 L 93.8642,-93.3711 L 93.3711,-93.8642 L 92.8,-94.2641 L 92.1681,-94.5588 L 91.4946,-94.7392
 L 90.8,-94.8 L 4,-94.8 L 3.3054,-94.7392 L 2.63191,-94.5588 L 2,-94.2641 L 1.42885,-93.8642
 L 0.935822,-93.3711 L 0.535889,-92.8 L 0.241226,-92.1681 L 0.0607605,-91.4946 L 0,-90.8 L 0,-4
 L 0.0607605,-3.3054 L 0.241226,-2.63191 L 0.535889,-2 L 0.935822,-1.42885 L 1.42885,-0.935822 L 2,-0.535889
 L 2.63191,-0.241226 L 3.3054,-0.0607605 L 4,-0 L 90.8,-0 z
M 80.7263,-88.8152 L 80.558,-88.8603 L 80.4,-88.934 L 80.2572,-89.034 L 80.134,-89.1572 L 80.034,-89.3
 L 79.9603,-89.458 L 79.9152,-89.6263 L 79.9,-89.8 L 79.9152,-89.9736 L 79.9603,-90.142 L 80.034,-90.3
 L 80.134,-90.4428 L 80.2572,-90.566 L 80.4,-90.666 L 80.558,-90.7397 L 80.7263,-90.7848 L 80.9,-90.8
 L 81.0736,-90.7848 L 81.242,-90.7397 L 81.4,-90.666 L 81.5428,-90.566 L 81.666,-90.4428 L 81.766,-90.3
 L 81.8397,-90.142 L 81.8848,-89.9736 L 81.9,-89.8 L 81.8848,-89.6263 L 81.8397,-89.458 L 81.766,-89.3
 L 81.666,-89.1572 L 81.5428,-89.034 L 81.4,-88.934 L 81.242,-88.8603 L 81.0736,-88.8152 L 80.9,-88.8
 z
M 13.7263,-88.8152 L 13.558,-88.8603 L 13.4,-88.934 L 13.2572,-89.034 L 13.1339,-89.1572 L 13.034,-89.3
 L 12.9603,-89.458 L 12.9152,-89.6263 L 12.9,-89.8 L 12.9152,-89.9736 L 12.9603,-90.142 L 13.034,-90.3
 L 13.1339,-90.4428 L 13.2572,-90.566 L 13.4,-90.666 L 13.558,-90.7397 L 13.7263,-90.7848 L 13.9,-90.8
 L 14.0736,-90.7848 L 14.242,-90.7397 L 14.4,-90.666 L 14.5428,-90.566 L 14.666,-90.4428 L 14.766,-90.3
 L 14.8397,-90.142 L 14.8848,-89.9736 L 14.9,-89.8 L 14.8848,-89.6263 L 14.8397,-89.458 L 14.766,-89.3
 L 14.666,-89.1572 L 14.5428,-89.034 L 14.4,-88.934 L 14.242,-88.8603 L 14.0736,-88.8152 L 13.9,-88.8
 z
M 11.335,-83.5644 L 11.1751,-83.6073 L 11.025,-83.6773 L 10.8893,-83.7722 L 10.7722,-83.8893 L 10.6773,-84.025
 L 10.6073,-84.1751 L 10.5644,-84.335 L 10.55,-84.5 L 10.5644,-84.665 L 10.6073,-84.8249 L 10.6773,-84.975
 L 10.7722,-85.1106 L 10.8893,-85.2277 L 11.025,-85.3227 L 11.1751,-85.3927 L 11.335,-85.4356 L 11.5,-85.45
 L 11.665,-85.4356 L 11.8249,-85.3927 L 11.975,-85.3227 L 12.1106,-85.2277 L 12.2277,-85.1106 L 12.3227,-84.975
 L 12.3927,-84.8249 L 12.4356,-84.665 L 12.45,-84.5 L 12.4356,-84.335 L 12.3927,-84.1751 L 12.3227,-84.025
 L 12.2277,-83.8893 L 12.1106,-83.7722 L 11.975,-83.6773 L 11.8249,-83.6073 L 11.665,-83.5644 L 11.5,-83.55
 z
M 60.335,-83.5644 L 60.1751,-83.6073 L 60.025,-83.6773 L 59.8893,-83.7722 L 59.7722,-83.8893 L 59.6773,-84.025
 L 59.6073,-84.1751 L 59.5644,-84.335 L 59.55,-84.5 L 59.5644,-84.665 L 59.6073,-84.8249 L 59.6773,-84.975
 L 59.7722,-85.1106 L 59.8893,-85.2277 L 60.025,-85.3227 L 60.1751,-85.3927 L 60.335,-85.4356 L 60.5,-85.45
 L 60.665,-85.4356 L 60.8249,-85.3927 L 60.975,-85.3227 L 61.1106,-85.2277 L 61.2277,-85.1106 L 61.3227,-84.975
 L 61.3927,-84.8249 L 61.4356,-84.665 L 61.45,-84.5 L 61.4356,-84.335 L 61.3927,-84.1751 L 61.3227,-84.025
 L 61.2277,-83.8893 L 61.1106,-83.7722 L 60.975,-83.6773 L 60.8249,-83.6073 L 60.665,-83.5644 L 60.5,-83.55
 z
M 56.2,-55.1 L 56.2,-59.1 L 52.2,-59.1 L 52.2,-76.3 L 56.2,-76.3 L 56.2,-80.3
 L 65.2,-80.3 L 65.2,-76.3 L 69.2,-76.3 L 69.2,-80.3 L 76.3,-80.3 L 76.3,-55.1
 L 69.2,-55.1 L 69.2,-59.1 L 65.2,-59.1 L 65.2,-55.1 z
M 67.0784,-77.6106 L 66.9606,-77.6422 L 66.85,-77.6938 L 66.75,-77.7638 L 66.6638,-77.8501 L 66.5938,-77.95
 L 66.5422,-78.0606 L 66.5106,-78.1784 L 66.5,-78.3 L 66.5106,-78.4216 L 66.5422,-78.5394 L 66.5938,-78.65
 L 66.6638,-78.75 L 66.75,-78.8362 L 66.85,-78.9062 L 66.9606,-78.9578 L 67.0784,-78.9894 L 67.2,-79
 L 67.3215,-78.9894 L 67.4394,-78.9578 L 67.55,-78.9062 L 67.6499,-78.8362 L 67.7362,-78.75 L 67.8062,-78.65
 L 67.8578,-78.5394 L 67.8894,-78.4216 L 67.9,-78.3 L 67.8894,-78.1784 L 67.8578,-78.0606 L 67.8062,-77.95
 L 67.7362,-77.8501 L 67.6499,-77.7638 L 67.55,-77.6938 L 67.4394,-77.6422 L 67.3215,-77.6106 L 67.2,-77.6
 z
M 54.0784,-77.6106 L 53.9606,-77.6422 L 53.85,-77.6938 L 53.75,-77.7638 L 53.6638,-77.8501 L 53.5938,-77.95
 L 53.5422,-78.0606 L 53.5106,-78.1784 L 53.5,-78.3 L 53.5106,-78.4216 L 53.5422,-78.5394 L 53.5938,-78.65
 L 53.6638,-78.75 L 53.75,-78.8362 L 53.85,-78.9062 L 53.9606,-78.9578 L 54.0784,-78.9894 L 54.2,-79
 L 54.3215,-78.9894 L 54.4394,-78.9578 L 54.55,-78.9062 L 54.6499,-78.8362 L 54.7362,-78.75 L 54.8062,-78.65
 L 54.8578,-78.5394 L 54.8894,-78.4216 L 54.9,-78.3 L 54.8894,-78.1784 L 54.8578,-78.0606 L 54.8062,-77.95
 L 54.7362,-77.8501 L 54.6499,-77.7638 L 54.55,-77.6938 L 54.4394,-77.6422 L 54.3215,-77.6106 L 54.2,-77.6
 z
M 54.0784,-56.4106 L 53.9606,-56.4422 L 53.85,-56.4938 L 53.75,-56.5638 L 53.6638,-56.65 L 53.5938,-56.75
 L 53.5422,-56.8606 L 53.5106,-56.9784 L 53.5,-57.1 L 53.5106,-57.2215 L 53.5422,-57.3394 L 53.5938,-57.45
 L 53.6638,-57.5499 L 53.75,-57.6362 L 53.85,-57.7062 L 53.9606,-57.7578 L 54.0784,-57.7894 L 54.2,-57.8
 L 54.3215,-57.7894 L 54.4394,-57.7578 L 54.55,-57.7062 L 54.6499,-57.6362 L 54.7362,-57.5499 L 54.8062,-57.45
 L 54.8578,-57.3394 L 54.8894,-57.2215 L 54.9,-57.1 L 54.8894,-56.9784 L 54.8578,-56.8606 L 54.8062,-56.75
 L 54.7362,-56.65 L 54.6499,-56.5638 L 54.55,-56.4938 L 54.4394,-56.4422 L 54.3215,-56.4106 L 54.2,-56.4
 z
M 67.0784,-56.4106 L 66.9606,-56.4422 L 66.85,-56.4938 L 66.75,-56.5638 L 66.6638,-56.65 L 66.5938,-56.75
 L 66.5422,-56.8606 L 66.5106,-56.9784 L 66.5,-57.1 L 66.5106,-57.2215 L 66.5422,-57.3394 L 66.5938,-57.45
 L 66.6638,-57.5499 L 66.75,-57.6362 L 66.85,-57.7062 L 66.9606,-57.7578 L 67.0784,-57.7894 L 67.2,-57.8
 L 67.3215,-57.7894 L 67.4394,-57.7578 L 67.55,-57.7062 L 67.6499,-57.6362 L 67.7362,-57.5499 L 67.8062,-57.45
 L 67.8578,-57.3394 L 67.8894,-57.2215 L 67.9,-57.1 L 67.8894,-56.9784 L 67.8578,-56.8606 L 67.8062,-56.75
 L 67.7362,-56.65 L 67.6499,-56.5638 L 67.55,-56.4938 L 67.4394,-56.4422 L 67.3215,-56.4106 L 67.2,-56.4
 z
M 60.335,-25.5644 L 60.1751,-25.6073 L 60.025,-25.6773 L 59.8893,-25.7722 L 59.7722,-25.8893 L 59.6773,-26.025
 L 59.6073,-26.1751 L 59.5644,-26.335 L 59.55,-26.5 L 59.5644,-26.665 L 59.6073,-26.8249 L 59.6773,-26.975
 L 59.7722,-27.1106 L 59.8893,-27.2277 L 60.025,-27.3227 L 60.1751,-27.3927 L 60.335,-27.4356 L 60.5,-27.45
 L 60.665,-27.4356 L 60.8249,-27.3927 L 60.975,-27.3227 L 61.1106,-27.2277 L 61.2277,-27.1106 L 61.3227,-26.975
 L 61.3927,-26.8249 L 61.4356,-26.665 L 61.45,-26.5 L 61.4356,-26.335 L 61.3927,-26.1751 L 61.3227,-26.025
 L 61.2277,-25.8893 L 61.1106,-25.7722 L 60.975,-25.6773 L 60.8249,-25.6073 L 60.665,-25.5644 L 60.5,-25.55
 z
M 11.335,-25.5644 L 11.1751,-25.6073 L 11.025,-25.6773 L 10.8893,-25.7722 L 10.7722,-25.8893 L 10.6773,-26.025
 L 10.6073,-26.1751 L 10.5644,-26.335 L 10.55,-26.5 L 10.5644,-26.665 L 10.6073,-26.8249 L 10.6773,-26.975
 L 10.7722,-27.1106 L 10.8893,-27.2277 L 11.025,-27.3227 L 11.1751,-27.3927 L 11.335,-27.4356 L 11.5,-27.45
 L 11.665,-27.4356 L 11.8249,-27.3927 L 11.975,-27.3227 L 12.1106,-27.2277 L 12.2277,-27.1106 L 12.3227,-26.975
 L 12.3927,-26.8249 L 12.4356,-26.665 L 12.45,-26.5 L 12.4356,-26.335 L 12.3927,-26.1751 L 12.3227,-26.025
 L 12.2277,-25.8893 L 12.1106,-25.7722 L 11.975,-25.6773 L 11.8249,-25.6073 L 11.665,-25.5644 L 11.5,-25.55
 z
M 13.7263,-4.01518 L 13.558,-4.0603 L 13.4,-4.13397 L 13.2572,-4.23395 L 13.1339,-4.35721 L 13.034,-4.5
 L 12.9603,-4.65797 L 12.9152,-4.82634 L 12.9,-5 L 12.9152,-5.17365 L 12.9603,-5.34201 L 13.034,-5.5
 L 13.1339,-5.64278 L 13.2572,-5.76604 L 13.4,-5.86601 L 13.558,-5.93968 L 13.7263,-5.9848 L 13.9,-6
 L 14.0736,-5.9848 L 14.242,-5.93968 L 14.4,-5.86601 L 14.5428,-5.76604 L 14.666,-5.64278 L 14.766,-5.5
 L 14.8397,-5.34201 L 14.8848,-5.17365 L 14.9,-5 L 14.8848,-4.82634 L 14.8397,-4.65797 L 14.766,-4.5
 L 14.666,-4.35721 L 14.5428,-4.23395 L 14.4,-4.13397 L 14.242,-4.0603 L 14.0736,-4.01518 L 13.9,-4
 z
M 80.7263,-4.01518 L 80.558,-4.0603 L 80.4,-4.13397 L 80.2572,-4.23395 L 80.134,-4.35721 L 80.034,-4.5
 L 79.9603,-4.65797 L 79.9152,-4.82634 L 79.9,-5 L 79.9152,-5.17365 L 79.9603,-5.34201 L 80.034,-5.5
 L 80.134,-5.64278 L 80.2572,-5.76604 L 80.4,-5.86601 L 80.558,-5.93968 L 80.7263,-5.9848 L 80.9,-6
 L 81.0736,-5.9848 L 81.242,-5.93968 L 81.4,-5.86601 L 81.5428,-5.76604 L 81.666,-5.64278 L 81.766,-5.5
 L 81.8397,-5.34201 L 81.8848,-5.17365 L 81.9,-5 L 81.8848,-4.82634 L 81.8397,-4.65797 L 81.766,-4.5
 L 81.666,-4.35721 L 81.5428,-4.23395 L 81.4,-4.13397 L 81.242,-4.0603 L 81.0736,-4.01518 L 80.9,-4
 z
" stroke="black" fill="lightgray" stroke-width="0.5"/>
</svg>
