  0
SECTION
  2
BLOCKS
  0
ENDSEC
  0
SECTION
  2
ENTITIES
  0
LINE
  8
0
 10
86.7
 20
8
 11
94.7
 21
8
  0
LINE
  8
0
 10
94.7
 20
8
 11
94.7
 21
86.7
  0
LINE
  8
0
 10
94.7
 20
86.7
 11
86.7
 21
86.7
  0
LINE
  8
0
 10
86.7
 20
86.7
 11
86.7
 21
94.7
  0
LINE
  8
0
 10
86.7
 20
94.7
 11
8
 21
94.7
  0
LINE
  8
0
 10
8
 20
94.7
 11
8
 21
86.7
  0
LINE
  8
0
 10
8
 20
86.7
 11
0
 21
86.7
  0
LINE
  8
0
 10
0
 20
86.7
 11
0
 21
8
  0
LINE
  8
0
 10
0
 20
8
 11
8
 21
8
  0
LINE
  8
0
 10
8
 20
8
 11
8
 21
2
  0
LINE
  8
0
 10
8
 20
2
 11
38
 21
2
  0
LINE
  8
0
 10
38
 20
2
 11
38
 21
0
  0
LINE
  8
0
 10
38
 20
0
 11
86.7
 21
0
  0
LINE
  8
0
 10
86.7
 20
0
 11
86.7
 21
8
  0
LINE
  8
0
 10
60.335
 20
83.5644
 11
60.1751
 21
83.6073
  0
LINE
  8
0
 10
60.1751
 20
83.6073
 11
60.025
 21
83.6773
  0
LINE
  8
0
 10
60.025
 20
83.6773
 11
59.8893
 21
83.7722
  0
LINE
  8
0
 10
59.8893
 20
83.7722
 11
59.7722
 21
83.8893
  0
LINE
  8
0
 10
59.7722
 20
83.8893
 11
59.6773
 21
84.025
  0
LINE
  8
0
 10
59.6773
 20
84.025
 11
59.6073
 21
84.1751
  0
LINE
  8
0
 10
59.6073
 20
84.1751
 11
59.5644
 21
84.335
  0
LINE
  8
0
 10
59.5644
 20
84.335
 11
59.55
 21
84.5
  0
LINE
  8
0
 10
59.55
 20
84.5
 11
59.5644
 21
84.665
  0
LINE
  8
0
 10
59.5644
 20
84.665
 11
59.6073
 21
84.8249
  0
LINE
  8
0
 10
59.6073
 20
84.8249
 11
59.6773
 21
84.975
  0
LINE
  8
0
 10
59.6773
 20
84.975
 11
59.7722
 21
85.1106
  0
LINE
  8
0
 10
59.7722
 20
85.1106
 11
59.8893
 21
85.2277
  0
LINE
  8
0
 10
59.8893
 20
85.2277
 11
60.025
 21
85.3227
  0
LINE
  8
0
 10
60.025
 20
85.3227
 11
60.1751
 21
85.3927
  0
LINE
  8
0
 10
60.1751
 20
85.3927
 11
60.335
 21
85.4356
  0
LINE
  8
0
 10
60.335
 20
85.4356
 11
60.5
 21
85.45
  0
LINE
  8
0
 10
60.5
 20
85.45
 11
60.665
 21
85.4356
  0
LINE
  8
0
 10
60.665
 20
85.4356
 11
60.8249
 21
85.3927
  0
LINE
  8
0
 10
60.8249
 20
85.3927
 11
60.975
 21
85.3227
  0
LINE
  8
0
 10
60.975
 20
85.3227
 11
61.1106
 21
85.2277
  0
LINE
  8
0
 10
61.1106
 20
85.2277
 11
61.2277
 21
85.1106
  0
LINE
  8
0
 10
61.2277
 20
85.1106
 11
61.3227
 21
84.975
  0
LINE
  8
0
 10
61.3227
 20
84.975
 11
61.3927
 21
84.8249
  0
LINE
  8
0
 10
61.3927
 20
84.8249
 11
61.4356
 21
84.665
  0
LINE
  8
0
 10
61.4356
 20
84.665
 11
61.45
 21
84.5
  0
LINE
  8
0
 10
61.45
 20
84.5
 11
61.4356
 21
84.335
  0
LINE
  8
0
 10
61.4356
 20
84.335
 11
61.3927
 21
84.1751
  0
LINE
  8
0
 10
61.3927
 20
84.1751
 11
61.3227
 21
84.025
  0
LINE
  8
0
 10
61.3227
 20
84.025
 11
61.2277
 21
83.8893
  0
LINE
  8
0
 10
61.2277
 20
83.8893
 11
61.1106
 21
83.7722
  0
LINE
  8
0
 10
61.1106
 20
83.7722
 11
60.975
 21
83.6773
  0
LINE
  8
0
 10
60.975
 20
83.6773
 11
60.8249
 21
83.6073
  0
LINE
  8
0
 10
60.8249
 20
83.6073
 11
60.665
 21
83.5644
  0
LINE
  8
0
 10
60.665
 20
83.5644
 11
60.5
 21
83.55
  0
LINE
  8
0
 10
60.5
 20
83.55
 11
60.335
 21
83.5644
  0
LINE
  8
0
 10
11.335
 20
83.5644
 11
11.1751
 21
83.6073
  0
LINE
  8
0
 10
11.1751
 20
83.6073
 11
11.025
 21
83.6773
  0
LINE
  8
0
 10
11.025
 20
83.6773
 11
10.8893
 21
83.7722
  0
LINE
  8
0
 10
10.8893
 20
83.7722
 11
10.7722
 21
83.8893
  0
LINE
  8
0
 10
10.7722
 20
83.8893
 11
10.6773
 21
84.025
  0
LINE
  8
0
 10
10.6773
 20
84.025
 11
10.6073
 21
84.1751
  0
LINE
  8
0
 10
10.6073
 20
84.1751
 11
10.5644
 21
84.335
  0
LINE
  8
0
 10
10.5644
 20
84.335
 11
10.55
 21
84.5
  0
LINE
  8
0
 10
10.55
 20
84.5
 11
10.5644
 21
84.665
  0
LINE
  8
0
 10
10.5644
 20
84.665
 11
10.6073
 21
84.8249
  0
LINE
  8
0
 10
10.6073
 20
84.8249
 11
10.6773
 21
84.975
  0
LINE
  8
0
 10
10.6773
 20
84.975
 11
10.7722
 21
85.1106
  0
LINE
  8
0
 10
10.7722
 20
85.1106
 11
10.8893
 21
85.2277
  0
LINE
  8
0
 10
10.8893
 20
85.2277
 11
11.025
 21
85.3227
  0
LINE
  8
0
 10
11.025
 20
85.3227
 11
11.1751
 21
85.3927
  0
LINE
  8
0
 10
11.1751
 20
85.3927
 11
11.335
 21
85.4356
  0
LINE
  8
0
 10
11.335
 20
85.4356
 11
11.5
 21
85.45
  0
LINE
  8
0
 10
11.5
 20
85.45
 11
11.665
 21
85.4356
  0
LINE
  8
0
 10
11.665
 20
85.4356
 11
11.8249
 21
85.3927
  0
LINE
  8
0
 10
11.8249
 20
85.3927
 11
11.975
 21
85.3227
  0
LINE
  8
0
 10
11.975
 20
85.3227
 11
12.1106
 21
85.2277
  0
LINE
  8
0
 10
12.1106
 20
85.2277
 11
12.2277
 21
85.1106
  0
LINE
  8
0
 10
12.2277
 20
85.1106
 11
12.3227
 21
84.975
  0
LINE
  8
0
 10
12.3227
 20
84.975
 11
12.3927
 21
84.8249
  0
LINE
  8
0
 10
12.3927
 20
84.8249
 11
12.4356
 21
84.665
  0
LINE
  8
0
 10
12.4356
 20
84.665
 11
12.45
 21
84.5
  0
LINE
  8
0
 10
12.45
 20
84.5
 11
12.4356
 21
84.335
  0
LINE
  8
0
 10
12.4356
 20
84.335
 11
12.3927
 21
84.1751
  0
LINE
  8
0
 10
12.3927
 20
84.1751
 11
12.3227
 21
84.025
  0
LINE
  8
0
 10
12.3227
 20
84.025
 11
12.2277
 21
83.8893
  0
LINE
  8
0
 10
12.2277
 20
83.8893
 11
12.1106
 21
83.7722
  0
LINE
  8
0
 10
12.1106
 20
83.7722
 11
11.975
 21
83.6773
  0
LINE
  8
0
 10
11.975
 20
83.6773
 11
11.8249
 21
83.6073
  0
LINE
  8
0
 10
11.8249
 20
83.6073
 11
11.665
 21
83.5644
  0
LINE
  8
0
 10
11.665
 20
83.5644
 11
11.5
 21
83.55
  0
LINE
  8
0
 10
11.5
 20
83.55
 11
11.335
 21
83.5644
  0
LINE
  8
0
 10
51.3
 20
55.2
 11
51.3
 21
80.4
  0
LINE
  8
0
 10
51.3
 20
80.4
 11
75.4
 21
80.4
  0
LINE
  8
0
 10
75.4
 20
80.4
 11
75.4
 21
55.2
  0
LINE
  8
0
 10
75.4
 20
55.2
 11
51.3
 21
55.2
  0
LINE
  8
0
 10
11.335
 20
25.5644
 11
11.1751
 21
25.6073
  0
LINE
  8
0
 10
11.1751
 20
25.6073
 11
11.025
 21
25.6773
  0
LINE
  8
0
 10
11.025
 20
25.6773
 11
10.8893
 21
25.7722
  0
LINE
  8
0
 10
10.8893
 20
25.7722
 11
10.7722
 21
25.8893
  0
LINE
  8
0
 10
10.7722
 20
25.8893
 11
10.6773
 21
26.025
  0
LINE
  8
0
 10
10.6773
 20
26.025
 11
10.6073
 21
26.1751
  0
LINE
  8
0
 10
10.6073
 20
26.1751
 11
10.5644
 21
26.335
  0
LINE
  8
0
 10
10.5644
 20
26.335
 11
10.55
 21
26.5
  0
LINE
  8
0
 10
10.55
 20
26.5
 11
10.5644
 21
26.665
  0
LINE
  8
0
 10
10.5644
 20
26.665
 11
10.6073
 21
26.8249
  0
LINE
  8
0
 10
10.6073
 20
26.8249
 11
10.6773
 21
26.975
  0
LINE
  8
0
 10
10.6773
 20
26.975
 11
10.7722
 21
27.1106
  0
LINE
  8
0
 10
10.7722
 20
27.1106
 11
10.8893
 21
27.2277
  0
LINE
  8
0
 10
10.8893
 20
27.2277
 11
11.025
 21
27.3227
  0
LINE
  8
0
 10
11.025
 20
27.3227
 11
11.1751
 21
27.3927
  0
LINE
  8
0
 10
11.1751
 20
27.3927
 11
11.335
 21
27.4356
  0
LINE
  8
0
 10
11.335
 20
27.4356
 11
11.5
 21
27.45
  0
LINE
  8
0
 10
11.5
 20
27.45
 11
11.665
 21
27.4356
  0
LINE
  8
0
 10
11.665
 20
27.4356
 11
11.8249
 21
27.3927
  0
LINE
  8
0
 10
11.8249
 20
27.3927
 11
11.975
 21
27.3227
  0
LINE
  8
0
 10
11.975
 20
27.3227
 11
12.1106
 21
27.2277
  0
LINE
  8
0
 10
12.1106
 20
27.2277
 11
12.2277
 21
27.1106
  0
LINE
  8
0
 10
12.2277
 20
27.1106
 11
12.3227
 21
26.975
  0
LINE
  8
0
 10
12.3227
 20
26.975
 11
12.3927
 21
26.8249
  0
LINE
  8
0
 10
12.3927
 20
26.8249
 11
12.4356
 21
26.665
  0
LINE
  8
0
 10
12.4356
 20
26.665
 11
12.45
 21
26.5
  0
LINE
  8
0
 10
12.45
 20
26.5
 11
12.4356
 21
26.335
  0
LINE
  8
0
 10
12.4356
 20
26.335
 11
12.3927
 21
26.1751
  0
LINE
  8
0
 10
12.3927
 20
26.1751
 11
12.3227
 21
26.025
  0
LINE
  8
0
 10
12.3227
 20
26.025
 11
12.2277
 21
25.8893
  0
LINE
  8
0
 10
12.2277
 20
25.8893
 11
12.1106
 21
25.7722
  0
LINE
  8
0
 10
12.1106
 20
25.7722
 11
11.975
 21
25.6773
  0
LINE
  8
0
 10
11.975
 20
25.6773
 11
11.8249
 21
25.6073
  0
LINE
  8
0
 10
11.8249
 20
25.6073
 11
11.665
 21
25.5644
  0
LINE
  8
0
 10
11.665
 20
25.5644
 11
11.5
 21
25.55
  0
LINE
  8
0
 10
11.5
 20
25.55
 11
11.335
 21
25.5644
  0
LINE
  8
0
 10
60.335
 20
25.5644
 11
60.1751
 21
25.6073
  0
LINE
  8
0
 10
60.1751
 20
25.6073
 11
60.025
 21
25.6773
  0
LINE
  8
0
 10
60.025
 20
25.6773
 11
59.8893
 21
25.7722
  0
LINE
  8
0
 10
59.8893
 20
25.7722
 11
59.7722
 21
25.8893
  0
LINE
  8
0
 10
59.7722
 20
25.8893
 11
59.6773
 21
26.025
  0
LINE
  8
0
 10
59.6773
 20
26.025
 11
59.6073
 21
26.1751
  0
LINE
  8
0
 10
59.6073
 20
26.1751
 11
59.5644
 21
26.335
  0
LINE
  8
0
 10
59.5644
 20
26.335
 11
59.55
 21
26.5
  0
LINE
  8
0
 10
59.55
 20
26.5
 11
59.5644
 21
26.665
  0
LINE
  8
0
 10
59.5644
 20
26.665
 11
59.6073
 21
26.8249
  0
LINE
  8
0
 10
59.6073
 20
26.8249
 11
59.6773
 21
26.975
  0
LINE
  8
0
 10
59.6773
 20
26.975
 11
59.7722
 21
27.1106
  0
LINE
  8
0
 10
59.7722
 20
27.1106
 11
59.8893
 21
27.2277
  0
LINE
  8
0
 10
59.8893
 20
27.2277
 11
60.025
 21
27.3227
  0
LINE
  8
0
 10
60.025
 20
27.3227
 11
60.1751
 21
27.3927
  0
LINE
  8
0
 10
60.1751
 20
27.3927
 11
60.335
 21
27.4356
  0
LINE
  8
0
 10
60.335
 20
27.4356
 11
60.5
 21
27.45
  0
LINE
  8
0
 10
60.5
 20
27.45
 11
60.665
 21
27.4356
  0
LINE
  8
0
 10
60.665
 20
27.4356
 11
60.8249
 21
27.3927
  0
LINE
  8
0
 10
60.8249
 20
27.3927
 11
60.975
 21
27.3227
  0
LINE
  8
0
 10
60.975
 20
27.3227
 11
61.1106
 21
27.2277
  0
LINE
  8
0
 10
61.1106
 20
27.2277
 11
61.2277
 21
27.1106
  0
LINE
  8
0
 10
61.2277
 20
27.1106
 11
61.3227
 21
26.975
  0
LINE
  8
0
 10
61.3227
 20
26.975
 11
61.3927
 21
26.8249
  0
LINE
  8
0
 10
61.3927
 20
26.8249
 11
61.4356
 21
26.665
  0
LINE
  8
0
 10
61.4356
 20
26.665
 11
61.45
 21
26.5
  0
LINE
  8
0
 10
61.45
 20
26.5
 11
61.4356
 21
26.335
  0
LINE
  8
0
 10
61.4356
 20
26.335
 11
61.3927
 21
26.1751
  0
LINE
  8
0
 10
61.3927
 20
26.1751
 11
61.3227
 21
26.025
  0
LINE
  8
0
 10
61.3227
 20
26.025
 11
61.2277
 21
25.8893
  0
LINE
  8
0
 10
61.2277
 20
25.8893
 11
61.1106
 21
25.7722
  0
LINE
  8
0
 10
61.1106
 20
25.7722
 11
60.975
 21
25.6773
  0
LINE
  8
0
 10
60.975
 20
25.6773
 11
60.8249
 21
25.6073
  0
LINE
  8
0
 10
60.8249
 20
25.6073
 11
60.665
 21
25.5644
  0
LINE
  8
0
 10
60.665
 20
25.5644
 11
60.5
 21
25.55
  0
LINE
  8
0
 10
60.5
 20
25.55
 11
60.335
 21
25.5644
  0
ENDSEC
  0
SECTION
  2
OBJECTS
  0
DICTIONARY
  0
ENDSEC
  0
EOF
